<?xml version="1.0" encoding="UTF-8"?>
<!DOCTYPE svg  PUBLIC '-//W3C//DTD SVG 1.1//EN'  'http://www.w3.org/Graphics/SVG/1.1/DTD/svg11.dtd'>
<svg width="1976pt" height="1040pt" version="1.1" viewBox="0 0 1976 1040" xmlns="http://www.w3.org/2000/svg" xmlns:xlink="http://www.w3.org/1999/xlink">
<metadata>
<rdf:RDF xmlns:cc="http://creativecommons.org/ns#" xmlns:dc="http://purl.org/dc/elements/1.1/" xmlns:rdf="http://www.w3.org/1999/02/22-rdf-syntax-ns#">
<cc:Work>
<dc:type rdf:resource="http://purl.org/dc/dcmitype/StillImage"/>
<dc:date>2021-02-25T11:28:27.446521</dc:date>
<dc:format>image/svg+xml</dc:format>
<dc:creator>
<cc:Agent>
<dc:title>Matplotlib v3.3.3, https://matplotlib.org/</dc:title>
</cc:Agent>
</dc:creator>
</cc:Work>
</rdf:RDF>
</metadata>
<defs>
<style type="text/css">*{stroke-linecap:butt;stroke-linejoin:round;}</style>
</defs>
<path d="m0 1040h1976v-1040h-1976z" fill="#fff"/>
<g fill="none" stroke="#000">
<path d="m198.76 47.273-108.94 842.69" clip-path="url(#a)"/>
<path d="m198.76 47.273-90.273 633.75" clip-path="url(#a)"/>
<path d="m198.76 47.273-69.136 528.65" clip-path="url(#a)"/>
<path d="m198.76 47.273 5.2547 842.69" clip-path="url(#a)"/>
<path d="m198.76 47.273 29.411 738.49" clip-path="url(#a)"/>
<path d="m198.76 47.273 175.72 106.04" clip-path="url(#a)"/>
<path d="m198.76 47.273 57.96 842.69" clip-path="url(#a)"/>
<path d="m89.818 889.96v102.77" clip-path="url(#a)"/>
<path d="m108.48 681.02-7.6862 104.74" clip-path="url(#a)"/>
<path d="m108.48 681.02 7.6862 208.94" clip-path="url(#a)"/>
<path d="m129.62 575.92 38.156 105.1" clip-path="url(#a)"/>
<path d="m129.62 575.92-13.451 314.04" clip-path="url(#a)" stroke-dasharray="3.7,1.6"/>
<path d="m129.62 575.92-24.431 314.04" clip-path="url(#a)" stroke-dasharray="3.7,1.6"/>
<path d="m129.62 575.92-0.2745 314.04" clip-path="url(#a)"/>
<path d="m204.01 889.96v102.77" clip-path="url(#a)"/>
<path d="m228.17 785.76 2.196 104.2" clip-path="url(#a)"/>
<path d="m228.17 785.76v104.2" clip-path="url(#a)"/>
<path d="m374.48 153.31-89.215 736.65" clip-path="url(#a)"/>
<path d="m374.48 153.31-58.471 736.65" clip-path="url(#a)"/>
<path d="m374.48 153.31 147.69 105.91" clip-path="url(#a)"/>
<path d="m285.27 889.96v102.77" clip-path="url(#a)"/>
<path d="m316.01 889.96v102.77" clip-path="url(#a)"/>
<path d="m522.17 259.22-173.22 630.74" clip-path="url(#a)"/>
<path d="m522.17 259.22-138.08 630.74" clip-path="url(#a)"/>
<path d="m522.17 259.22-80.982 526.54" clip-path="url(#a)"/>
<path d="m522.17 259.22-19.493 630.74" clip-path="url(#a)"/>
<path d="m522.17 259.22 411.77 105.76" clip-path="url(#a)"/>
<path d="m348.95 889.96v102.77" clip-path="url(#a)"/>
<path d="m384.09 889.96v102.77" clip-path="url(#a)"/>
<path d="m441.19 785.76-19.764 104.2" clip-path="url(#a)"/>
<path d="m441.19 785.76 19.764 104.2" clip-path="url(#a)"/>
<path d="m502.67 889.96v102.77" clip-path="url(#a)"/>
<path d="m933.94 364.97-303.3 105.58" clip-path="url(#a)"/>
<path d="m933.94 364.97 43.082 524.99" clip-path="url(#a)"/>
<path d="m933.94 364.97 260.22 210.94" clip-path="url(#a)"/>
<path d="m630.64 470.55-84.044 419.41" clip-path="url(#a)"/>
<path d="m630.64 470.55-37.928 419.41" clip-path="url(#a)"/>
<path d="m630.64 470.55 10.385 419.41" clip-path="url(#a)"/>
<path d="m630.64 470.55 111.59 105.37" clip-path="url(#a)"/>
<path d="m977.02 889.96v102.77" clip-path="url(#a)"/>
<path d="m1194.2 575.92-153.45 314.04" clip-path="url(#a)"/>
<path d="m1194.2 575.92-87.567 314.04" clip-path="url(#a)"/>
<path d="m1194.2 575.92-19.49 314.04" clip-path="url(#a)"/>
<path d="m1194.2 575.92 260.51 105.1" clip-path="url(#a)"/>
<path d="m1040.7 889.96v102.77" clip-path="url(#a)"/>
<path d="m1106.6 889.96v102.77" clip-path="url(#a)"/>
<path d="m1174.7 889.96v102.77" clip-path="url(#a)"/>
<path d="m1454.7 681.02-209.72 208.94" clip-path="url(#a)"/>
<path d="m1454.7 681.02-137.25 208.94" clip-path="url(#a)"/>
<path d="m1454.7 681.02-62.587 208.94" clip-path="url(#a)"/>
<path d="m1454.7 681.02 14.274 208.94" clip-path="url(#a)"/>
<path d="m1454.7 681.02 93.332 208.94" clip-path="url(#a)"/>
<path d="m1454.7 681.02 301.96 104.74" clip-path="url(#a)"/>
<path d="m1244.9 889.96v102.77" clip-path="url(#a)"/>
<path d="m1317.4 889.96v102.77" clip-path="url(#a)"/>
<path d="m1392.1 889.96v102.77" clip-path="url(#a)"/>
<path d="m1468.9 889.96v102.77" clip-path="url(#a)"/>
<path d="m1548 889.96v102.77" clip-path="url(#a)"/>
<path d="m1756.6 785.76-127.37 104.2" clip-path="url(#a)"/>
<path d="m1756.6 785.76-43.921 104.2" clip-path="url(#a)"/>
<path d="m1756.6 785.76 41.725 104.2" clip-path="url(#a)"/>
<path d="m1756.6 785.76 129.57 104.2" clip-path="url(#a)"/>
<path d="m1629.2 889.96v102.77" clip-path="url(#a)"/>
<path d="m1712.7 889.96v102.77" clip-path="url(#a)"/>
<path d="m1798.3 889.96v102.77" clip-path="url(#a)"/>
<path d="m546.6 889.96v102.77" clip-path="url(#a)"/>
<path d="m592.71 889.96v102.77" clip-path="url(#a)"/>
<path d="m641.03 889.96v102.77" clip-path="url(#a)"/>
<path d="m742.23 575.92-49.96 209.84" clip-path="url(#a)"/>
<path d="m742.23 575.92 49.96 105.1" clip-path="url(#a)"/>
<path d="m692.27 785.76-51.241 104.2" clip-path="url(#a)" stroke-dasharray="3.7,1.6"/>
<path d="m692.27 785.76-0.73201 104.2" clip-path="url(#a)"/>
<path d="m692.27 785.76 51.973 104.2" clip-path="url(#a)"/>
<path d="m792.19 681.02 6.9541 208.94" clip-path="url(#a)"/>
<path d="m792.19 681.02 93.698 104.74" clip-path="url(#a)"/>
<path d="m792.19 681.02-100.65 208.94" clip-path="url(#a)" stroke-dasharray="3.7,1.6"/>
<path d="m799.14 889.96v102.77" clip-path="url(#a)"/>
<path d="m885.88 785.76-29.647 104.2" clip-path="url(#a)"/>
<path d="m885.88 785.76 29.647 104.2" clip-path="url(#a)"/>
<path d="m856.24 889.96v102.77" clip-path="url(#a)"/>
<path d="m915.53 889.96v102.77" clip-path="url(#a)"/>
<path d="m691.53 889.96v102.77" clip-path="url(#a)"/>
<path d="m744.24 889.96v102.77" clip-path="url(#a)"/>
<path d="m421.42 889.96v102.77" clip-path="url(#a)"/>
<path d="m460.95 889.96v102.77" clip-path="url(#a)"/>
<path d="m228.17 889.96v102.77" clip-path="url(#a)"/>
<path d="m167.78 681.02-14.274 104.74" clip-path="url(#a)"/>
<path d="m167.78 681.02 14.274 208.94" clip-path="url(#a)"/>
<path d="m153.5 785.76-8.7842 104.2" clip-path="url(#a)"/>
<path d="m153.5 785.76 8.7842 104.2" clip-path="url(#a)"/>
<path d="m182.05 889.96v102.77" clip-path="url(#a)"/>
<path d="m144.72 889.96v102.77" clip-path="url(#a)"/>
<path d="m162.29 889.96v102.77" clip-path="url(#a)"/>
<path d="m100.8 785.76-4.3921 104.2" clip-path="url(#a)"/>
<path d="m100.8 785.76 4.3921 104.2" clip-path="url(#a)"/>
<path d="m116.17 889.96v102.77" clip-path="url(#a)"/>
<path d="m96.406 889.96v102.77" clip-path="url(#a)"/>
<path d="m105.19 889.96v102.77" clip-path="url(#a)"/>
<path d="m129.35 889.96v102.77" clip-path="url(#a)"/>
<path d="m256.72 889.96v102.77" clip-path="url(#a)"/>
<path d="m1886.2 889.96v102.77" clip-path="url(#a)"/>
</g>
<path d="m150.22 471.63 0.57149-4.4207q0.3077-2.3802-2.0725-2.6879l-7.6786-0.99266q-2.3802-0.3077-2.6879 2.0725l-0.57149 4.4207q-0.3077 2.3802 2.0725 2.6879l7.6786 0.99266q2.3802 0.3077 2.6879-2.0725z" clip-path="url(#a)" fill="#fff" stroke="#fff"/>
<g clip-path="url(#a)">
<g transform="translate(146.19 471.11) rotate(-82.634) scale(.08 -.08)">
<defs>
<path id="al" d="m9.8125 72.906h9.8594v-64.609h35.5v-8.2969h-45.359z"/>
</defs>
<use xlink:href="#al"/>
</g>
</g>
<path d="m159.41 368.01 0.84841-5.9561q0.33845-2.376-2.0376-2.7145l-7.6651-1.0918q-2.376-0.33845-2.7145 2.0376l-0.84841 5.9561q-0.33845 2.376 2.0376 2.7145l7.6651 1.0918q2.376 0.33845 2.7145-2.0376z" clip-path="url(#a)" fill="#fff" stroke="#fff"/>
<g clip-path="url(#a)">
<g transform="translate(155.38 367.44) rotate(-81.893) scale(.08 -.08)">
<defs>
<path id="aa" d="m9.8125 72.906h9.8594v-29.891h35.844v29.891h9.8594v-72.906h-9.8594v34.719h-35.844v-34.719h-9.8594z"/>
</defs>
<use xlink:href="#aa"/>
</g>
</g>
<path d="m170.02 315.39 0.78016-5.9655q0.31122-2.3797-2.0685-2.691l-7.6771-1.004q-2.3797-0.31122-2.691 2.0685l-0.78016 5.9655q-0.31122 2.3797 2.0685 2.691l7.6771 1.004q2.3797 0.31122 2.691-2.0685z" clip-path="url(#a)" fill="#fff" stroke="#fff"/>
<g clip-path="url(#a)">
<g transform="translate(165.99 314.86) rotate(-82.549) scale(.08 -.08)">
<use xlink:href="#aa"/>
</g>
</g>
<path d="m195.1 466.43 0.027795 4.4574q0.014965 2.4 2.4149 2.385l7.7424-0.048279q2.4-0.014965 2.385-2.4149l-0.027795-4.4574q-0.014965-2.4-2.4149-2.385l-7.7424 0.048279q-2.4 0.014965-2.385 2.4149z" clip-path="url(#a)" fill="#fff" stroke="#fff"/>
<g clip-path="url(#a)">
<g transform="translate(199.16 466.4) rotate(89.643) scale(.08 -.08)">
<use xlink:href="#al"/>
</g>
</g>
<path d="m207.08 413.76 0.23941 6.0115q0.095506 2.3981 2.4936 2.3026l7.7364-0.30811q2.3981-0.095507 2.3026-2.4936l-0.23941-6.0115q-0.095507-2.3981-2.4936-2.3026l-7.7364 0.30811q-2.3981 0.095507-2.3026 2.4936z" clip-path="url(#a)" fill="#fff" stroke="#fff"/>
<g clip-path="url(#a)">
<g transform="translate(211.14 413.6) rotate(87.719) scale(.08 -.08)">
<use xlink:href="#aa"/>
</g>
</g>
<path d="m280.8 104.11 5.151 3.1084q2.0549 1.24 3.2948-0.81486l4.0003-6.629q1.24-2.0549-0.81486-3.2948l-5.151-3.1084q-2.0549-1.24-3.2948 0.81486l-4.0003 6.629q-1.24 2.0549 0.81486 3.2948z" clip-path="url(#a)" fill="#fff" stroke="#fff"/>
<g clip-path="url(#a)">
<g transform="translate(282.9 100.63) rotate(31.109) scale(.08 -.08)">
<use xlink:href="#aa"/>
</g>
</g>
<path d="m221.28 466.13 0.40176 5.8412q0.16468 2.3943 2.559 2.2297l7.7243-0.53127q2.3943-0.16468 2.2297-2.559l-0.40176-5.8412q-0.16468-2.3943-2.559-2.2297l-7.7243 0.53127q-2.3943 0.16468-2.2297 2.559z" clip-path="url(#a)" fill="#fff" stroke="#fff"/>
<g clip-path="url(#a)">
<g transform="translate(225.33 465.85) rotate(86.065) scale(.08 -.08)">
<defs>
<path id="aj" d="m8.6875 72.906h9.9219v-44.297q0-11.719 4.2344-16.875 4.25-5.1406 13.781-5.1406 9.4688 0 13.719 5.1406 4.25 5.1562 4.25 16.875v44.297h9.9062v-45.516q0-14.25-7.0625-21.531-7.0469-7.2812-20.812-7.2812-13.828 0-20.891 7.2812-7.0469 7.2812-7.0469 21.531z"/>
</defs>
<use xlink:href="#aj"/>
</g>
</g>
<path d="m83.547 924.44v33.808q0 2.4 2.4 2.4h7.7425q2.4 0 2.4-2.4v-33.808q0-2.4-2.4-2.4h-7.7425q-2.4 0-2.4 2.4z" clip-path="url(#a)" fill="#fff" stroke="#fff"/>
<g clip-path="url(#a)">
<g transform="translate(87.611 924.44) rotate(90) scale(.08 -.08)">
<defs>
<path id="l" d="m-0.29688 72.906h61.672v-8.3125h-25.875v-64.594h-9.9062v64.594h-25.891z"/>
<path id="e" d="m56.203 29.594v-4.3906h-41.312q0.59375-9.2812 5.5938-14.141t13.938-4.8594q5.1719 0 10.031 1.2656t9.6562 3.8125v-8.5q-4.8438-2.0469-9.9219-3.125t-10.297-1.0781q-13.094 0-20.734 7.6094-7.6406 7.625-7.6406 20.625 0 13.422 7.25 21.297 7.25 7.8906 19.562 7.8906 11.031 0 17.453-7.1094 6.4219-7.0938 6.4219-19.297zm-8.9844 2.6406q-0.09375 7.3594-4.125 11.75-4.0312 4.4062-10.672 4.4062-7.5156 0-12.031-4.25t-5.2031-11.969z"/>
<path id="g" d="m41.109 46.297q-1.5156 0.875-3.2969 1.2812-1.7812 0.42188-3.9219 0.42188-7.625 0-11.703-4.9531t-4.0781-14.234v-28.812h-9.0312v54.688h9.0312v-8.5q2.8438 4.9844 7.375 7.3906 4.5469 2.4219 11.047 2.4219 0.92188 0 2.0469-0.125 1.125-0.10938 2.4844-0.35938z"/>
<path id="k" d="m52 44.188q3.375 6.0625 8.0625 8.9375t11.031 2.875q8.5469 0 13.188-5.9844 4.6406-5.9688 4.6406-17v-33.016h-9.0312v32.719q0 7.8594-2.7969 11.656-2.7812 3.8125-8.4844 3.8125-6.9844 0-11.047-4.6406-4.0469-4.625-4.0469-12.641v-30.906h-9.0312v32.719q0 7.9062-2.7812 11.688t-8.5938 3.7812q-6.8906 0-10.953-4.6562-4.0469-4.6562-4.0469-12.625v-30.906h-9.0312v54.688h9.0312v-8.5q3.0781 5.0312 7.375 7.4219t10.203 2.3906q5.9688 0 10.141-3.0312 4.1719-3.0156 6.1719-8.7812z"/>
<path id="j" d="m9.4219 54.688h8.9844v-54.688h-8.9844zm0 21.297h8.9844v-11.391h-8.9844z"/>
<path id="h" d="m54.891 33.016v-33.016h-8.9844v32.719q0 7.7656-3.0312 11.609-3.0312 3.8594-9.0781 3.8594-7.2812 0-11.484-4.6406-4.2031-4.625-4.2031-12.641v-30.906h-9.0312v54.688h9.0312v-8.5q3.2344 4.9375 7.5938 7.375 4.375 2.4375 10.094 2.4375 9.4219 0 14.25-5.8281 4.8438-5.8281 4.8438-17.156z"/>
<path id="f" d="m34.281 27.484q-10.891 0-15.094-2.4844t-4.2031-8.5q0-4.7812 3.1562-7.5938 3.1562-2.7969 8.5625-2.7969 7.4844 0 12 5.2969t4.5156 14.078v2zm17.922 3.7188v-31.203h-8.9844v8.2969q-3.0781-4.9688-7.6719-7.3438t-11.234-2.375q-8.3906 0-13.359 4.7188-4.9531 4.7188-4.9531 12.625 0 9.2188 6.1719 13.906 6.1875 4.6875 18.438 4.6875h12.609v0.89062q0 6.2031-4.0781 9.5938t-11.453 3.3906q-4.6875 0-9.1406-1.125-4.4375-1.125-8.5312-3.375v8.3125q4.9219 1.9062 9.5625 2.8438 4.6406 0.95312 9.0312 0.95312 11.875 0 17.734-6.1562 5.8594-6.1406 5.8594-18.641z"/>
<path id="i" d="m9.4219 75.984h8.9844v-75.984h-8.9844z"/>
</defs>
<use xlink:href="#l"/>
<use x="44.083984" xlink:href="#e"/>
<use x="105.607422" xlink:href="#g"/>
<use x="144.970703" xlink:href="#k"/>
<use x="242.382812" xlink:href="#j"/>
<use x="270.166016" xlink:href="#h"/>
<use x="333.544922" xlink:href="#f"/>
<use x="394.824219" xlink:href="#i"/>
</g>
</g>
<path d="m110.7 736.58 0.4005-5.4578q0.17564-2.3936-2.2179-2.5692l-7.7217-0.56663q-2.3936-0.17564-2.5692 2.2179l-0.4005 5.4578q-0.17564 2.3936 2.2179 2.5692l7.7217 0.56663q2.3936 0.17564 2.5692-2.2179z" clip-path="url(#a)" fill="#fff" stroke="#fff"/>
<g clip-path="url(#a)">
<g transform="translate(106.64 736.28) rotate(-85.803) scale(.08 -.08)">
<defs>
<path id="s" d="m34.188 63.188-13.391-36.281h26.812zm-5.5781 9.7188h11.188l27.781-72.906h-10.25l-6.6406 18.703h-32.859l-6.6406-18.703h-10.406z"/>
</defs>
<use xlink:href="#s"/>
</g>
</g>
<path d="m105.97 783.31 0.17733 4.8205q0.088228 2.3984 2.4866 2.3102l7.7373-0.28462q2.3984-0.088228 2.3102-2.4866l-0.17733-4.8205q-0.088227-2.3984-2.4866-2.3102l-7.7373 0.28462q-2.3984 0.088227-2.3102 2.4866z" clip-path="url(#a)" fill="#fff" stroke="#fff"/>
<g clip-path="url(#a)">
<g transform="translate(110.03 783.16) rotate(87.893) scale(.08 -.08)">
<defs>
<path id="v" d="m19.672 64.797v-27.391h12.406q6.8906 0 10.641 3.5625 3.7656 3.5625 3.7656 10.156 0 6.5469-3.7656 10.109-3.75 3.5625-10.641 3.5625zm-9.8594 8.1094h22.266q12.266 0 18.531-5.5469 6.2812-5.5469 6.2812-16.234 0-10.797-6.2812-16.312-6.2656-5.5156-18.531-5.5156h-12.406v-29.297h-9.8594z"/>
</defs>
<use xlink:href="#v"/>
</g>
</g>
<path d="m141.97 628.31 1.6674 4.5929q0.81901 2.2559 3.0749 1.4369l7.2777-2.6422q2.2559-0.81901 1.4369-3.0749l-1.6675-4.5929q-0.81901-2.2559-3.0749-1.4369l-7.2777 2.6422q-2.2559 0.81901-1.4369 3.0749z" clip-path="url(#a)" fill="#fff" stroke="#fff"/>
<g clip-path="url(#a)">
<g transform="translate(145.79 626.93) rotate(70.047) scale(.08 -.08)">
<use xlink:href="#l"/>
</g>
</g>
<path d="m129.06 735.62 0.20642-4.8193q0.1027-2.3978-2.2951-2.5005l-7.7354-0.33132q-2.3978-0.1027-2.5005 2.2951l-0.20642 4.8193q-0.1027 2.3978 2.2951 2.5005l7.7354 0.33132q2.3978 0.1027 2.5005-2.2951z" clip-path="url(#a)" fill="#fff" stroke="#fff"/>
<g clip-path="url(#a)">
<g transform="translate(125 735.44) rotate(-87.547) scale(.08 -.08)">
<use xlink:href="#v"/>
</g>
</g>
<path d="m123.45 736.15 0.42445-5.456q0.18615-2.3928-2.2066-2.5789l-7.7192-0.60052q-2.3928-0.18615-2.5789 2.2066l-0.42445 5.456q-0.18615 2.3928 2.2066 2.5789l7.7192 0.60052q2.3928 0.18615 2.5789-2.2066z" clip-path="url(#a)" fill="#fff" stroke="#fff"/>
<g clip-path="url(#a)">
<g transform="translate(119.39 735.84) rotate(-85.552) scale(.08 -.08)">
<use xlink:href="#s"/>
</g>
</g>
<path d="m135.75 735.87 0.005118-5.855q0.002098-2.4-2.3979-2.4021l-7.7425-0.006768q-2.4-0.002098-2.4021 2.3979l-0.005118 5.855q-0.002098 2.4 2.3979 2.4021l7.7425 0.006768q2.4 0.002098 2.4021-2.3979z" clip-path="url(#a)" fill="#fff" stroke="#fff"/>
<g clip-path="url(#a)">
<g transform="translate(131.69 735.87) rotate(-89.95) scale(.08 -.08)">
<use xlink:href="#aj"/>
</g>
</g>
<path d="m197.74 924.44v33.808q0 2.4 2.4 2.4h7.7425q2.4 0 2.4-2.4v-33.808q0-2.4-2.4-2.4h-7.7425q-2.4 0-2.4 2.4z" clip-path="url(#a)" fill="#fff" stroke="#fff"/>
<g clip-path="url(#a)">
<g transform="translate(201.8 924.44) rotate(90) scale(.08 -.08)">
<use xlink:href="#l"/>
<use x="44.083984" xlink:href="#e"/>
<use x="105.607422" xlink:href="#g"/>
<use x="144.970703" xlink:href="#k"/>
<use x="242.382812" xlink:href="#j"/>
<use x="270.166016" xlink:href="#h"/>
<use x="333.544922" xlink:href="#f"/>
<use x="394.824219" xlink:href="#i"/>
</g>
</g>
<path d="m222.94 835.26 0.11531 5.4713q0.05057 2.3995 2.45 2.3489l7.7408-0.16314q2.3995-0.050571 2.3489-2.45l-0.11531-5.4713q-0.050571-2.3995-2.45-2.3489l-7.7408 0.16314q-2.3995 0.050571-2.3489 2.45z" clip-path="url(#a)" fill="#fff" stroke="#fff"/>
<g clip-path="url(#a)">
<g transform="translate(227 835.17) rotate(88.793) scale(.08 -.08)">
<use xlink:href="#s"/>
</g>
</g>
<path d="m221.9 835.45v4.8238q0 2.4 2.4 2.4h7.7425q2.4 0 2.4-2.4v-4.8238q0-2.4-2.4-2.4h-7.7425q-2.4 0-2.4 2.4z" clip-path="url(#a)" fill="#fff" stroke="#fff"/>
<g clip-path="url(#a)">
<g transform="translate(225.96 835.45) rotate(90) scale(.08 -.08)">
<use xlink:href="#v"/>
</g>
</g>
<path d="m335.77 525.11 0.65797-5.4328q0.28856-2.3826-2.094-2.6711l-7.6863-0.93089q-2.3826-0.28856-2.6711 2.094l-0.65797 5.4328q-0.28856 2.3826 2.094 2.6711l7.6863 0.93089q2.3826 0.28856 2.6711-2.094z" clip-path="url(#a)" fill="#fff" stroke="#fff"/>
<g clip-path="url(#a)">
<g transform="translate(331.74 524.62) rotate(-83.095) scale(.08 -.08)">
<use xlink:href="#s"/>
</g>
</g>
<path d="m351.31 524.54 0.38168-4.8086q0.1899-2.3925-2.2026-2.5824l-7.7182-0.61263q-2.3925-0.1899-2.5824 2.2026l-0.38168 4.8086q-0.1899 2.3925 2.2026 2.5824l7.7182 0.61263q2.3925 0.1899 2.5824-2.2026z" clip-path="url(#a)" fill="#fff" stroke="#fff"/>
<g clip-path="url(#a)">
<g transform="translate(347.26 524.22) rotate(-85.462) scale(.08 -.08)">
<use xlink:href="#v"/>
</g>
</g>
<path d="m442.45 209.77 4.4472 3.1891q1.9504 1.3986 3.349-0.55174l4.512-6.2919q1.3986-1.9504-0.55174-3.349l-4.4472-3.1891q-1.9504-1.3986-3.349 0.55174l-4.512 6.2919q-1.3986 1.9504 0.55174 3.349z" clip-path="url(#a)" fill="#fff" stroke="#fff"/>
<g clip-path="url(#a)">
<g transform="translate(444.81 206.47) rotate(35.645) scale(.08 -.08)">
<use xlink:href="#s"/>
</g>
</g>
<path d="m278.99 924.44v33.808q0 2.4 2.4 2.4h7.7425q2.4 0 2.4-2.4v-33.808q0-2.4-2.4-2.4h-7.7425q-2.4 0-2.4 2.4z" clip-path="url(#a)" fill="#fff" stroke="#fff"/>
<g clip-path="url(#a)">
<g transform="translate(283.06 924.44) rotate(90) scale(.08 -.08)">
<use xlink:href="#l"/>
<use x="44.083984" xlink:href="#e"/>
<use x="105.607422" xlink:href="#g"/>
<use x="144.970703" xlink:href="#k"/>
<use x="242.382812" xlink:href="#j"/>
<use x="270.166016" xlink:href="#h"/>
<use x="333.544922" xlink:href="#f"/>
<use x="394.824219" xlink:href="#i"/>
</g>
</g>
<path d="m309.74 924.44v33.808q0 2.4 2.4 2.4h7.7425q2.4 0 2.4-2.4v-33.808q0-2.4-2.4-2.4h-7.7425q-2.4 0-2.4 2.4z" clip-path="url(#a)" fill="#fff" stroke="#fff"/>
<g clip-path="url(#a)">
<g transform="translate(313.8 924.44) rotate(90) scale(.08 -.08)">
<use xlink:href="#l"/>
<use x="44.083984" xlink:href="#e"/>
<use x="105.607422" xlink:href="#g"/>
<use x="144.970703" xlink:href="#k"/>
<use x="242.382812" xlink:href="#j"/>
<use x="270.166016" xlink:href="#h"/>
<use x="333.544922" xlink:href="#f"/>
<use x="394.824219" xlink:href="#i"/>
</g>
</g>
<path d="m440.87 578.93 1.4721-5.3603q0.63556-2.3143-1.6788-2.9499l-7.4661-2.0504q-2.3143-0.63556-2.9499 1.6788l-1.4721 5.3603q-0.63556 2.3143 1.6788 2.9499l7.4661 2.0504q2.3143 0.63556 2.9499-1.6788z" clip-path="url(#a)" fill="#fff" stroke="#fff"/>
<g clip-path="url(#a)">
<g transform="translate(436.95 577.85) rotate(-74.644) scale(.08 -.08)">
<defs>
<path id="ae" d="m44.391 34.188q3.1719-1.0781 6.1719-4.5938t6.0312-9.6719l10.016-19.922h-10.609l-9.3125 18.703q-3.625 7.3281-7.0156 9.7188t-9.25 2.3906h-10.75v-30.812h-9.8594v72.906h22.266q12.5 0 18.656-5.2344 6.1562-5.2188 6.1562-15.766 0-6.8906-3.2031-11.438-3.2031-4.5312-9.2969-6.2812zm-24.719 30.609v-25.875h12.406q7.125 0 10.766 3.2969t3.6406 9.6875-3.6406 9.6406-10.766 3.25z"/>
</defs>
<use xlink:href="#ae"/>
</g>
</g>
<path d="m458.67 578.6 1.1703-5.3459q0.51324-2.3445-1.8312-2.8577l-7.5634-1.6557q-2.3445-0.51324-2.8577 1.8312l-1.1703 5.3459q-0.51324 2.3445 1.8312 2.8577l7.5634 1.6557q2.3445 0.51324 2.8577-1.8312z" clip-path="url(#a)" fill="#fff" stroke="#fff"/>
<g clip-path="url(#a)">
<g transform="translate(454.7 577.73) rotate(-77.652) scale(.08 -.08)">
<use xlink:href="#s"/>
</g>
</g>
<path d="m487.41 526.49 0.9364-6.0884q0.36483-2.3721-2.0073-2.7369l-7.6525-1.177q-2.3721-0.36483-2.7369 2.0073l-0.9364 6.0884q-0.36483 2.3721 2.0073 2.7369l7.6525 1.177q2.3721 0.36483 2.7369-2.0073z" clip-path="url(#a)" fill="#fff" stroke="#fff"/>
<g clip-path="url(#a)">
<g transform="translate(483.39 525.87) rotate(-81.256) scale(.08 -.08)">
<defs>
<path id="ar" d="m19.672 64.797v-56.688h11.922q15.094 0 22.094 6.8281 7 6.8438 7 21.594 0 14.641-7 21.453t-22.094 6.8125zm-9.8594 8.1094h20.266q21.188 0 31.094-8.8125 9.9219-8.8125 9.9219-27.562 0-18.859-9.9688-27.703-9.9531-8.8281-31.047-8.8281h-20.266z"/>
</defs>
<use xlink:href="#ar"/>
</g>
</g>
<path d="m518.61 577.19 0.14901-4.8214q0.074136-2.3989-2.3247-2.473l-7.7388-0.23917q-2.3989-0.074136-2.473 2.3247l-0.14901 4.8214q-0.074136 2.3989 2.3247 2.473l7.7388 0.23917q2.3989 0.074136 2.473-2.3247z" clip-path="url(#a)" fill="#fff" stroke="#fff"/>
<g clip-path="url(#a)">
<g transform="translate(514.55 577.07) rotate(-88.23) scale(.08 -.08)">
<use xlink:href="#v"/>
</g>
</g>
<path d="m723.84 317.49 5.3005 1.3613q2.3246 0.59702 2.9216-1.7275l1.926-7.4991q0.59702-2.3246-1.7275-2.9216l-5.3005-1.3613q-2.3246-0.59702-2.9216 1.7275l-1.926 7.4991q-0.59702 2.3246 1.7275 2.9216z" clip-path="url(#a)" fill="#fff" stroke="#fff"/>
<g clip-path="url(#a)">
<g transform="translate(724.85 313.55) rotate(14.404) scale(.08 -.08)">
<use xlink:href="#s"/>
</g>
</g>
<path d="m342.68 924.44v33.808q0 2.4 2.4 2.4h7.7425q2.4 0 2.4-2.4v-33.808q0-2.4-2.4-2.4h-7.7425q-2.4 0-2.4 2.4z" clip-path="url(#a)" fill="#fff" stroke="#fff"/>
<g clip-path="url(#a)">
<g transform="translate(346.74 924.44) rotate(90) scale(.08 -.08)">
<use xlink:href="#l"/>
<use x="44.083984" xlink:href="#e"/>
<use x="105.607422" xlink:href="#g"/>
<use x="144.970703" xlink:href="#k"/>
<use x="242.382812" xlink:href="#j"/>
<use x="270.166016" xlink:href="#h"/>
<use x="333.544922" xlink:href="#f"/>
<use x="394.824219" xlink:href="#i"/>
</g>
</g>
<path d="m377.82 924.44v33.808q0 2.4 2.4 2.4h7.7425q2.4 0 2.4-2.4v-33.808q0-2.4-2.4-2.4h-7.7425q-2.4 0-2.4 2.4z" clip-path="url(#a)" fill="#fff" stroke="#fff"/>
<g clip-path="url(#a)">
<g transform="translate(381.88 924.44) rotate(90) scale(.08 -.08)">
<use xlink:href="#l"/>
<use x="44.083984" xlink:href="#e"/>
<use x="105.607422" xlink:href="#g"/>
<use x="144.970703" xlink:href="#k"/>
<use x="242.382812" xlink:href="#j"/>
<use x="270.166016" xlink:href="#h"/>
<use x="333.544922" xlink:href="#f"/>
<use x="394.824219" xlink:href="#i"/>
</g>
</g>
<path d="m436.94 841.77 1.0411-5.4884q0.44726-2.358-1.9107-2.8052l-7.6069-1.4429q-2.358-0.44726-2.8052 1.9107l-1.0411 5.4884q-0.44726 2.358 1.9107 2.8052l7.6069 1.4429q2.358 0.44726 2.8052-1.9107z" clip-path="url(#a)" fill="#fff" stroke="#fff"/>
<g clip-path="url(#a)">
<g transform="translate(432.95 841.02) rotate(-79.26) scale(.08 -.08)">
<defs>
<path id="t" d="m64.406 67.281v-10.391q-4.9844 4.6406-10.625 6.9219-5.6406 2.2969-11.984 2.2969-12.5 0-19.141-7.6406t-6.6406-22.094q0-14.406 6.6406-22.047t19.141-7.6406q6.3438 0 11.984 2.2969t10.625 6.9375v-10.312q-5.1719-3.5156-10.969-5.2812-5.7812-1.75-12.219-1.75-16.562 0-26.094 10.125-9.5156 10.141-9.5156 27.672 0 17.578 9.5156 27.703 9.5312 10.141 26.094 10.141 6.5312 0 12.312-1.7344 5.7969-1.7344 10.875-5.2031z"/>
</defs>
<use xlink:href="#t"/>
</g>
</g>
<path d="m444.48 836.77 0.85749 4.5206q0.44726 2.358 2.8052 1.9107l7.6069-1.4429q2.358-0.44726 1.9107-2.8052l-0.85749-4.5206q-0.44726-2.358-2.8052-1.9107l-7.6069 1.4429q-2.358 0.44726-1.9107 2.8052z" clip-path="url(#a)" fill="#fff" stroke="#fff"/>
<g clip-path="url(#a)">
<g transform="translate(448.47 836.01) rotate(79.26) scale(.08 -.08)">
<defs>
<path id="af" d="m9.8125 72.906h41.891v-8.3125h-32.031v-21.484h28.906v-8.2969h-28.906v-34.812h-9.8594z"/>
</defs>
<use xlink:href="#af"/>
</g>
</g>
<path d="m496.4 924.44v33.808q0 2.4 2.4 2.4h7.7425q2.4 0 2.4-2.4v-33.808q0-2.4-2.4-2.4h-7.7425q-2.4 0-2.4 2.4z" clip-path="url(#a)" fill="#fff" stroke="#fff"/>
<g clip-path="url(#a)">
<g transform="translate(500.47 924.44) rotate(90) scale(.08 -.08)">
<use xlink:href="#l"/>
<use x="44.083984" xlink:href="#e"/>
<use x="105.607422" xlink:href="#g"/>
<use x="144.970703" xlink:href="#k"/>
<use x="242.382812" xlink:href="#j"/>
<use x="270.166016" xlink:href="#h"/>
<use x="333.544922" xlink:href="#f"/>
<use x="394.824219" xlink:href="#i"/>
</g>
</g>
<path d="m781.71 424.6 5.2757-1.8365q2.2666-0.789 1.4776-3.0556l-2.5454-7.3121q-0.78901-2.2666-3.0556-1.4776l-5.2757 1.8365q-2.2666 0.78901-1.4776 3.0556l2.5454 7.3121q0.789 2.2666 3.0556 1.4776z" clip-path="url(#a)" fill="#fff" stroke="#fff"/>
<g clip-path="url(#a)">
<g transform="translate(780.38 420.77) rotate(-19.193) scale(.08 -.08)">
<use xlink:href="#t"/>
</g>
</g>
<path d="m948.98 625 0.4895 5.9649q0.19629 2.392 2.5883 2.1957l7.7166-0.63325q2.392-0.19629 2.1957-2.5883l-0.4895-5.9649q-0.19629-2.392-2.5883-2.1957l-7.7166 0.63325q-2.392 0.19629-2.1957 2.5883z" clip-path="url(#a)" fill="#fff" stroke="#fff"/>
<g clip-path="url(#a)">
<g transform="translate(953.03 624.67) rotate(85.309) scale(.08 -.08)">
<defs>
<path id="aw" d="m9.8125 72.906h13.281l32.328-60.984v60.984h9.5625v-72.906h-13.281l-32.312 60.984v-60.984h-9.5781z"/>
</defs>
<use xlink:href="#aw"/>
</g>
</g>
<path d="m1057.9 473.56 4.3395 3.5178q1.8644 1.5113 3.3757-0.35302l4.8757-6.0145q1.5113-1.8644-0.35302-3.3757l-4.3395-3.5178q-1.8644-1.5113-3.3757 0.35302l-4.8757 6.0145q-1.5113 1.8644 0.35301 3.3757z" clip-path="url(#a)" fill="#fff" stroke="#fff"/>
<g clip-path="url(#a)">
<g transform="translate(1060.5 470.4) rotate(39.03) scale(.08 -.08)">
<use xlink:href="#t"/>
</g>
</g>
<path d="m594.15 684.58 1.2373-6.1747q0.47156-2.3532-1.8817-2.8248l-7.5916-1.5213q-2.3532-0.47156-2.8248 1.8817l-1.2374 6.1747q-0.47156 2.3532 1.8817 2.8248l7.5916 1.5213q2.3532 0.47156 2.8248-1.8817z" clip-path="url(#a)" fill="#fff" stroke="#fff"/>
<g clip-path="url(#a)">
<g transform="translate(590.16 683.78) rotate(-78.669) scale(.08 -.08)">
<defs>
<path id="ak" d="m39.406 66.219q-10.75 0-17.078-8.0156-6.3125-8-6.3125-21.828 0-13.766 6.3125-21.781 6.3281-8 17.078-8 10.734 0 17.016 8 6.2812 8.0156 6.2812 21.781 0 13.828-6.2812 21.828-6.2812 8.0156-17.016 8.0156zm13.812-64.906 13-14.203h-11.922l-10.797 11.672q-1.6094-0.09375-2.4688-0.14062-0.84375-0.0625-1.625-0.0625-15.375 0-24.594 10.281-9.2031 10.281-9.2031 27.516 0 17.281 9.2031 27.562 9.2188 10.281 24.594 10.281 15.328 0 24.5-10.281 9.1875-10.281 9.1875-27.562 0-12.688-5.1094-21.734-5.0938-9.0312-14.766-13.328z"/>
</defs>
<use xlink:href="#ak"/>
</g>
</g>
<path d="m617.71 683.11 0.41441-4.5826q0.21615-2.3902-2.1741-2.6064l-7.711-0.69732q-2.3902-0.21615-2.6064 2.1741l-0.41441 4.5826q-0.21615 2.3902 2.1741 2.6064l7.711 0.69732q2.3902 0.21615 2.6064-2.1741z" clip-path="url(#a)" fill="#fff" stroke="#fff"/>
<g clip-path="url(#a)">
<g transform="translate(613.67 682.75) rotate(-84.833) scale(.08 -.08)">
<use xlink:href="#af"/>
</g>
</g>
<path d="m629.49 677.62 0.13828 5.5845q0.059412 2.3993 2.4587 2.3399l7.7401-0.19166q2.3993-0.059411 2.3399-2.4587l-0.13829-5.5845q-0.059411-2.3993-2.4587-2.3399l-7.7401 0.19166q-2.3993 0.059411-2.3399 2.4587z" clip-path="url(#a)" fill="#fff" stroke="#fff"/>
<g clip-path="url(#a)">
<g transform="translate(633.56 677.52) rotate(88.582) scale(.08 -.08)">
<use xlink:href="#t"/>
</g>
</g>
<path d="m680.29 526.06 3.6754 3.4705q1.745 1.6477 3.3927-0.097277l5.3156-5.6294q1.6477-1.745-0.097276-3.3927l-3.6754-3.4705q-1.745-1.6477-3.3927 0.097276l-5.3156 5.6294q-1.6477 1.745 0.097276 3.3927z" clip-path="url(#a)" fill="#fff" stroke="#fff"/>
<g clip-path="url(#a)">
<g transform="translate(683.08 523.11) rotate(43.358) scale(.08 -.08)">
<defs>
<path id="ac" d="m9.8125 72.906h46.094v-8.3125h-36.234v-21.578h34.719v-8.2969h-34.719v-26.422h37.109v-8.2969h-46.969z"/>
</defs>
<use xlink:href="#ac"/>
</g>
</g>
<path d="m970.75 924.44v33.808q0 2.4 2.4 2.4h7.7425q2.4 0 2.4-2.4v-33.808q0-2.4-2.4-2.4h-7.7425q-2.4 0-2.4 2.4z" clip-path="url(#a)" fill="#fff" stroke="#fff"/>
<g clip-path="url(#a)">
<g transform="translate(974.81 924.44) rotate(90) scale(.08 -.08)">
<use xlink:href="#l"/>
<use x="44.083984" xlink:href="#e"/>
<use x="105.607422" xlink:href="#g"/>
<use x="144.970703" xlink:href="#k"/>
<use x="242.382812" xlink:href="#j"/>
<use x="270.166016" xlink:href="#h"/>
<use x="333.544922" xlink:href="#f"/>
<use x="394.824219" xlink:href="#i"/>
</g>
</g>
<path d="m1122 737.96 2.2192-4.5418q1.0536-2.1563-1.1027-3.21l-6.9565-3.3991q-2.1563-1.0536-3.21 1.1027l-2.2192 4.5418q-1.0536 2.1563 1.1027 3.21l6.9565 3.3991q2.1563 1.0536 3.21-1.1027z" clip-path="url(#a)" fill="#fff" stroke="#fff"/>
<g clip-path="url(#a)">
<g transform="translate(1118.3 736.18) rotate(-63.959) scale(.08 -.08)">
<use xlink:href="#ac"/>
</g>
</g>
<path d="m1155.7 737.31 1.5004-5.381q0.64462-2.3118-1.6672-2.9564l-7.458-2.0796q-2.3118-0.64462-2.9564 1.6672l-1.5004 5.381q-0.64462 2.3118 1.6672 2.9564l7.458 2.0796q2.3118 0.64463 2.9564-1.6672z" clip-path="url(#a)" fill="#fff" stroke="#fff"/>
<g clip-path="url(#a)">
<g transform="translate(1151.7 736.22) rotate(-74.419) scale(.08 -.08)">
<use xlink:href="#t"/>
</g>
</g>
<path d="m1190.5 736.47 0.39008-6.2854q0.14866-2.3954-2.2467-2.5441l-7.7276-0.47959q-2.3954-0.14866-2.5441 2.2467l-0.39008 6.2854q-0.14866 2.3954 2.2467 2.5441l7.7276 0.47959q2.3954 0.14866 2.5441-2.2467z" clip-path="url(#a)" fill="#fff" stroke="#fff"/>
<g clip-path="url(#a)">
<g transform="translate(1186.4 736.22) rotate(-86.449) scale(.08 -.08)">
<use xlink:href="#ak"/>
</g>
</g>
<path d="m1319.7 633.34 4.6879 1.8913q2.2257 0.89795 3.1236-1.3277l2.8968-7.1802q0.89795-2.2257-1.3277-3.1236l-4.6879-1.8913q-2.2257-0.89795-3.1236 1.3277l-2.8968 7.1802q-0.89795 2.2257 1.3277 3.1236z" clip-path="url(#a)" fill="#fff" stroke="#fff"/>
<g clip-path="url(#a)">
<g transform="translate(1321.2 629.57) rotate(21.971) scale(.08 -.08)">
<use xlink:href="#ac"/>
</g>
</g>
<path d="m1034.4 924.44v33.808q0 2.4 2.4 2.4h7.7425q2.4 0 2.4-2.4v-33.808q0-2.4-2.4-2.4h-7.7425q-2.4 0-2.4 2.4z" clip-path="url(#a)" fill="#fff" stroke="#fff"/>
<g clip-path="url(#a)">
<g transform="translate(1038.5 924.44) rotate(90) scale(.08 -.08)">
<use xlink:href="#l"/>
<use x="44.083984" xlink:href="#e"/>
<use x="105.607422" xlink:href="#g"/>
<use x="144.970703" xlink:href="#k"/>
<use x="242.382812" xlink:href="#j"/>
<use x="270.166016" xlink:href="#h"/>
<use x="333.544922" xlink:href="#f"/>
<use x="394.824219" xlink:href="#i"/>
</g>
</g>
<path d="m1100.3 924.44v33.808q0 2.4 2.4 2.4h7.7425q2.4 0 2.4-2.4v-33.808q0-2.4-2.4-2.4h-7.7425q-2.4 0-2.4 2.4z" clip-path="url(#a)" fill="#fff" stroke="#fff"/>
<g clip-path="url(#a)">
<g transform="translate(1104.4 924.44) rotate(90) scale(.08 -.08)">
<use xlink:href="#l"/>
<use x="44.083984" xlink:href="#e"/>
<use x="105.607422" xlink:href="#g"/>
<use x="144.970703" xlink:href="#k"/>
<use x="242.382812" xlink:href="#j"/>
<use x="270.166016" xlink:href="#h"/>
<use x="333.544922" xlink:href="#f"/>
<use x="394.824219" xlink:href="#i"/>
</g>
</g>
<path d="m1168.4 924.44v33.808q0 2.4 2.4 2.4h7.7425q2.4 0 2.4-2.4v-33.808q0-2.4-2.4-2.4h-7.7425q-2.4 0-2.4 2.4z" clip-path="url(#a)" fill="#fff" stroke="#fff"/>
<g clip-path="url(#a)">
<g transform="translate(1172.5 924.44) rotate(90) scale(.08 -.08)">
<use xlink:href="#l"/>
<use x="44.083984" xlink:href="#e"/>
<use x="105.607422" xlink:href="#g"/>
<use x="144.970703" xlink:href="#k"/>
<use x="242.382812" xlink:href="#j"/>
<use x="270.166016" xlink:href="#h"/>
<use x="333.544922" xlink:href="#f"/>
<use x="394.824219" xlink:href="#i"/>
</g>
</g>
<path d="m1352.3 791.89 3.938-3.9233q1.7002-1.6939 0.006335-3.3941l-5.4645-5.485q-1.6939-1.7002-3.3941-0.006335l-3.938 3.9233q-1.7002 1.6939-0.006335 3.3941l5.4645 5.485q1.6939 1.7002 3.3941 0.006336z" clip-path="url(#a)" fill="#fff" stroke="#fff"/>
<g clip-path="url(#a)">
<g transform="translate(1349.4 789.01) rotate(-44.893) scale(.08 -.08)">
<use xlink:href="#ae"/>
</g>
</g>
<path d="m1389.8 791.22 3.0046-4.5739q1.3177-2.0059-0.68824-3.3236l-6.4712-4.2509q-2.0059-1.3177-3.3236 0.68823l-3.0046 4.5739q-1.3177 2.0059 0.68824 3.3236l6.4712 4.2509q2.0059 1.3177 3.3236-0.68824z" clip-path="url(#a)" fill="#fff" stroke="#fff"/>
<g clip-path="url(#a)">
<g transform="translate(1386.4 788.99) rotate(-56.699) scale(.08 -.08)">
<use xlink:href="#s"/>
</g>
</g>
<path d="m1428.7 789.49 1.3203-4.4078q0.68868-2.2991-1.6104-2.9877l-7.4169-2.2217q-2.2991-0.68868-2.9877 1.6104l-1.3203 4.4077q-0.68868 2.2991 1.6104 2.9877l7.4169 2.2217q2.2991 0.68868 2.9877-1.6104z" clip-path="url(#a)" fill="#fff" stroke="#fff"/>
<g clip-path="url(#a)">
<g transform="translate(1424.8 788.33) rotate(-73.325) scale(.08 -.08)">
<use xlink:href="#af"/>
</g>
</g>
<path d="m1455.4 783.51 0.32878 4.8125q0.16358 2.3944 2.558 2.2308l7.7245-0.52772q2.3944-0.16358 2.2308-2.558l-0.32878-4.8125q-0.16358-2.3944-2.558-2.2308l-7.7245 0.52772q-2.3944 0.16358-2.2308 2.558z" clip-path="url(#a)" fill="#fff" stroke="#fff"/>
<g clip-path="url(#a)">
<g transform="translate(1459.4 783.23) rotate(86.092) scale(.08 -.08)">
<use xlink:href="#v"/>
</g>
</g>
<path d="m1494.3 785.23 2.5124 5.6244q0.97884 2.1913 3.1702 1.2125l7.0693-3.1578q2.1913-0.97884 1.2125-3.1702l-2.5124-5.6244q-0.97884-2.1913-3.1702-1.2125l-7.0693 3.1578q-2.1913 0.97884-1.2125 3.1702z" clip-path="url(#a)" fill="#fff" stroke="#fff"/>
<g clip-path="url(#a)">
<g transform="translate(1498.1 783.58) rotate(65.93) scale(.08 -.08)">
<use xlink:href="#ar"/>
</g>
</g>
<path d="m1601 738.42 5.1703 1.7935q2.2675 0.78654 3.054-1.4809l2.5374-7.3149q0.78654-2.2675-1.4809-3.054l-5.1703-1.7935q-2.2675-0.78654-3.054 1.4809l-2.5374 7.3149q-0.78654 2.2675 1.4809 3.054z" clip-path="url(#a)" fill="#fff" stroke="#fff"/>
<g clip-path="url(#a)">
<g transform="translate(1602.3 734.58) rotate(19.131) scale(.08 -.08)">
<use xlink:href="#s"/>
</g>
</g>
<path d="m1238.7 924.44v33.808q0 2.4 2.4 2.4h7.7425q2.4 0 2.4-2.4v-33.808q0-2.4-2.4-2.4h-7.7425q-2.4 0-2.4 2.4z" clip-path="url(#a)" fill="#fff" stroke="#fff"/>
<g clip-path="url(#a)">
<g transform="translate(1242.7 924.44) rotate(90) scale(.08 -.08)">
<use xlink:href="#l"/>
<use x="44.083984" xlink:href="#e"/>
<use x="105.607422" xlink:href="#g"/>
<use x="144.970703" xlink:href="#k"/>
<use x="242.382812" xlink:href="#j"/>
<use x="270.166016" xlink:href="#h"/>
<use x="333.544922" xlink:href="#f"/>
<use x="394.824219" xlink:href="#i"/>
</g>
</g>
<path d="m1311.1 924.44v33.808q0 2.4 2.4 2.4h7.7425q2.4 0 2.4-2.4v-33.808q0-2.4-2.4-2.4h-7.7425q-2.4 0-2.4 2.4z" clip-path="url(#a)" fill="#fff" stroke="#fff"/>
<g clip-path="url(#a)">
<g transform="translate(1315.2 924.44) rotate(90) scale(.08 -.08)">
<use xlink:href="#l"/>
<use x="44.083984" xlink:href="#e"/>
<use x="105.607422" xlink:href="#g"/>
<use x="144.970703" xlink:href="#k"/>
<use x="242.382812" xlink:href="#j"/>
<use x="270.166016" xlink:href="#h"/>
<use x="333.544922" xlink:href="#f"/>
<use x="394.824219" xlink:href="#i"/>
</g>
</g>
<path d="m1385.8 924.44v33.808q0 2.4 2.4 2.4h7.7425q2.4 0 2.4-2.4v-33.808q0-2.4-2.4-2.4h-7.7425q-2.4 0-2.4 2.4z" clip-path="url(#a)" fill="#fff" stroke="#fff"/>
<g clip-path="url(#a)">
<g transform="translate(1389.9 924.44) rotate(90) scale(.08 -.08)">
<use xlink:href="#l"/>
<use x="44.083984" xlink:href="#e"/>
<use x="105.607422" xlink:href="#g"/>
<use x="144.970703" xlink:href="#k"/>
<use x="242.382812" xlink:href="#j"/>
<use x="270.166016" xlink:href="#h"/>
<use x="333.544922" xlink:href="#f"/>
<use x="394.824219" xlink:href="#i"/>
</g>
</g>
<path d="m1462.7 924.44v33.808q0 2.4 2.4 2.4h7.7425q2.4 0 2.4-2.4v-33.808q0-2.4-2.4-2.4h-7.7425q-2.4 0-2.4 2.4z" clip-path="url(#a)" fill="#fff" stroke="#fff"/>
<g clip-path="url(#a)">
<g transform="translate(1466.7 924.44) rotate(90) scale(.08 -.08)">
<use xlink:href="#l"/>
<use x="44.083984" xlink:href="#e"/>
<use x="105.607422" xlink:href="#g"/>
<use x="144.970703" xlink:href="#k"/>
<use x="242.382812" xlink:href="#j"/>
<use x="270.166016" xlink:href="#h"/>
<use x="333.544922" xlink:href="#f"/>
<use x="394.824219" xlink:href="#i"/>
</g>
</g>
<path d="m1541.7 924.44v33.808q0 2.4 2.4 2.4h7.7425q2.4 0 2.4-2.4v-33.808q0-2.4-2.4-2.4h-7.7425q-2.4 0-2.4 2.4z" clip-path="url(#a)" fill="#fff" stroke="#fff"/>
<g clip-path="url(#a)">
<g transform="translate(1545.8 924.44) rotate(90) scale(.08 -.08)">
<use xlink:href="#l"/>
<use x="44.083984" xlink:href="#e"/>
<use x="105.607422" xlink:href="#g"/>
<use x="144.970703" xlink:href="#k"/>
<use x="242.382812" xlink:href="#j"/>
<use x="270.166016" xlink:href="#h"/>
<use x="333.544922" xlink:href="#f"/>
<use x="394.824219" xlink:href="#i"/>
</g>
</g>
<path d="m1694.7 844.48 4.3025-3.5197q1.8576-1.5196 0.33797-3.3772l-4.9024-5.9927q-1.5196-1.8576-3.3772-0.33797l-4.3025 3.5197q-1.8576 1.5196-0.33797 3.3772l4.9024 5.9927q1.5196 1.8576 3.3772 0.33797z" clip-path="url(#a)" fill="#fff" stroke="#fff"/>
<g clip-path="url(#a)">
<g transform="translate(1692.2 841.33) rotate(-39.285) scale(.08 -.08)">
<use xlink:href="#ae"/>
</g>
</g>
<path d="m1739.5 842.63 1.9635-4.6581q0.93221-2.2116-1.2793-3.1438l-7.1346-3.0073q-2.2116-0.93221-3.1438 1.2793l-1.9635 4.6581q-0.93221 2.2116 1.2793 3.1438l7.1346 3.0073q2.2116 0.93221 3.1438-1.2793z" clip-path="url(#a)" fill="#fff" stroke="#fff"/>
<g clip-path="url(#a)">
<g transform="translate(1735.7 841.05) rotate(-67.144) scale(.08 -.08)">
<use xlink:href="#ac"/>
</g>
</g>
<path d="m1770.6 837.6 2.0767 5.1859q0.89218 2.228 3.1202 1.3358l7.1876-2.8782q2.228-0.89218 1.3358-3.1202l-2.0767-5.1859q-0.89218-2.228-3.1202-1.3358l-7.1876 2.8782q-2.228 0.89218-1.3358 3.1202z" clip-path="url(#a)" fill="#fff" stroke="#fff"/>
<g clip-path="url(#a)">
<g transform="translate(1774.4 836.09) rotate(68.177) scale(.08 -.08)">
<use xlink:href="#t"/>
</g>
</g>
<path d="m1815.2 840.91 4.5626 3.6693q1.8702 1.504 3.3743-0.3662l4.8521-6.0335q1.504-1.8702-0.3662-3.3743l-4.5626-3.6693q-1.8702-1.504-3.3743 0.3662l-4.8521 6.0335q-1.504 1.8702 0.3662 3.3743z" clip-path="url(#a)" fill="#fff" stroke="#fff"/>
<g clip-path="url(#a)">
<g transform="translate(1817.7 837.75) rotate(38.806) scale(.08 -.08)">
<use xlink:href="#aj"/>
</g>
</g>
<path d="m1623 924.44v33.808q0 2.4 2.4 2.4h7.7425q2.4 0 2.4-2.4v-33.808q0-2.4-2.4-2.4h-7.7425q-2.4 0-2.4 2.4z" clip-path="url(#a)" fill="#fff" stroke="#fff"/>
<g clip-path="url(#a)">
<g transform="translate(1627 924.44) rotate(90) scale(.08 -.08)">
<use xlink:href="#l"/>
<use x="44.083984" xlink:href="#e"/>
<use x="105.607422" xlink:href="#g"/>
<use x="144.970703" xlink:href="#k"/>
<use x="242.382812" xlink:href="#j"/>
<use x="270.166016" xlink:href="#h"/>
<use x="333.544922" xlink:href="#f"/>
<use x="394.824219" xlink:href="#i"/>
</g>
</g>
<path d="m1706.4 924.44v33.808q0 2.4 2.4 2.4h7.7425q2.4 0 2.4-2.4v-33.808q0-2.4-2.4-2.4h-7.7425q-2.4 0-2.4 2.4z" clip-path="url(#a)" fill="#fff" stroke="#fff"/>
<g clip-path="url(#a)">
<g transform="translate(1710.5 924.44) rotate(90) scale(.08 -.08)">
<use xlink:href="#l"/>
<use x="44.083984" xlink:href="#e"/>
<use x="105.607422" xlink:href="#g"/>
<use x="144.970703" xlink:href="#k"/>
<use x="242.382812" xlink:href="#j"/>
<use x="270.166016" xlink:href="#h"/>
<use x="333.544922" xlink:href="#f"/>
<use x="394.824219" xlink:href="#i"/>
</g>
</g>
<path d="m1792.1 924.44v33.808q0 2.4 2.4 2.4h7.7425q2.4 0 2.4-2.4v-33.808q0-2.4-2.4-2.4h-7.7425q-2.4 0-2.4 2.4z" clip-path="url(#a)" fill="#fff" stroke="#fff"/>
<g clip-path="url(#a)">
<g transform="translate(1796.1 924.44) rotate(90) scale(.08 -.08)">
<use xlink:href="#l"/>
<use x="44.083984" xlink:href="#e"/>
<use x="105.607422" xlink:href="#g"/>
<use x="144.970703" xlink:href="#k"/>
<use x="242.382812" xlink:href="#j"/>
<use x="270.166016" xlink:href="#h"/>
<use x="333.544922" xlink:href="#f"/>
<use x="394.824219" xlink:href="#i"/>
</g>
</g>
<path d="m540.32 924.44v33.808q0 2.4 2.4 2.4h7.7425q2.4 0 2.4-2.4v-33.808q0-2.4-2.4-2.4h-7.7425q-2.4 0-2.4 2.4z" clip-path="url(#a)" fill="#fff" stroke="#fff"/>
<g clip-path="url(#a)">
<g transform="translate(544.39 924.44) rotate(90) scale(.08 -.08)">
<use xlink:href="#l"/>
<use x="44.083984" xlink:href="#e"/>
<use x="105.607422" xlink:href="#g"/>
<use x="144.970703" xlink:href="#k"/>
<use x="242.382812" xlink:href="#j"/>
<use x="270.166016" xlink:href="#h"/>
<use x="333.544922" xlink:href="#f"/>
<use x="394.824219" xlink:href="#i"/>
</g>
</g>
<path d="m586.44 924.44v33.808q0 2.4 2.4 2.4h7.7425q2.4 0 2.4-2.4v-33.808q0-2.4-2.4-2.4h-7.7425q-2.4 0-2.4 2.4z" clip-path="url(#a)" fill="#fff" stroke="#fff"/>
<g clip-path="url(#a)">
<g transform="translate(590.5 924.44) rotate(90) scale(.08 -.08)">
<use xlink:href="#l"/>
<use x="44.083984" xlink:href="#e"/>
<use x="105.607422" xlink:href="#g"/>
<use x="144.970703" xlink:href="#k"/>
<use x="242.382812" xlink:href="#j"/>
<use x="270.166016" xlink:href="#h"/>
<use x="333.544922" xlink:href="#f"/>
<use x="394.824219" xlink:href="#i"/>
</g>
</g>
<path d="m634.75 924.44v33.808q0 2.4 2.4 2.4h7.7425q2.4 0 2.4-2.4v-33.808q0-2.4-2.4-2.4h-7.7425q-2.4 0-2.4 2.4z" clip-path="url(#a)" fill="#fff" stroke="#fff"/>
<g clip-path="url(#a)">
<g transform="translate(638.82 924.44) rotate(90) scale(.08 -.08)">
<use xlink:href="#l"/>
<use x="44.083984" xlink:href="#e"/>
<use x="105.607422" xlink:href="#g"/>
<use x="144.970703" xlink:href="#k"/>
<use x="242.382812" xlink:href="#j"/>
<use x="270.166016" xlink:href="#h"/>
<use x="333.544922" xlink:href="#f"/>
<use x="394.824219" xlink:href="#i"/>
</g>
</g>
<path d="m722.65 685.22 1.3934-5.8527q0.55586-2.3347-1.7789-2.8906l-7.532-1.7932q-2.3347-0.55586-2.8906 1.7789l-1.3934 5.8527q-0.55586 2.3347 1.7789 2.8906l7.532 1.7932q2.3347 0.55586 2.8906-1.7789z" clip-path="url(#a)" fill="#fff" stroke="#fff"/>
<g clip-path="url(#a)">
<g transform="translate(718.7 684.28) rotate(-76.608) scale(.08 -.08)">
<use xlink:href="#aa"/>
</g>
</g>
<path d="m760.25 628.44 2.5829 5.4336q1.0304 2.1676 3.1979 1.1372l6.9927-3.324q2.1676-1.0304 1.1372-3.1979l-2.5829-5.4336q-1.0304-2.1676-3.1979-1.1372l-6.9927 3.324q-2.1676 1.0304-1.1372 3.1979z" clip-path="url(#a)" fill="#fff" stroke="#fff"/>
<g clip-path="url(#a)">
<g transform="translate(763.92 626.7) rotate(64.576) scale(.08 -.08)">
<use xlink:href="#aa"/>
</g>
</g>
<path d="m671.07 843.08 2.415-4.9108q1.0591-2.1537-1.0946-3.2128l-6.9478-3.4167q-2.1537-1.0591-3.2128 1.0946l-2.415 4.9108q-1.0591 2.1537 1.0946 3.2128l6.9478 3.4167q2.1537 1.0591 3.2128-1.0946z" clip-path="url(#a)" fill="#fff" stroke="#fff"/>
<g clip-path="url(#a)">
<g transform="translate(667.42 841.29) rotate(-63.813) scale(.08 -.08)">
<use xlink:href="#s"/>
</g>
</g>
<path d="m698.15 840.64 0.038445-5.4724q0.01686-2.3999-2.3831-2.4168l-7.7423-0.054392q-2.3999-0.016861-2.4168 2.3831l-0.038445 5.4724q-0.01686 2.3999 2.3831 2.4168l7.7423 0.054392q2.3999 0.01686 2.4168-2.3831z" clip-path="url(#a)" fill="#fff" stroke="#fff"/>
<g clip-path="url(#a)">
<g transform="translate(694.09 840.61) rotate(-89.597) scale(.08 -.08)">
<use xlink:href="#s"/>
</g>
</g>
<path d="m711.56 838.5 2.1531 4.3166q1.0712 2.1477 3.2189 1.0764l6.9284-3.4559q2.1477-1.0712 1.0764-3.2189l-2.1531-4.3166q-1.0712-2.1477-3.2189-1.0764l-6.9284 3.4559q-2.1477 1.0712-1.0764 3.2189z" clip-path="url(#a)" fill="#fff" stroke="#fff"/>
<g clip-path="url(#a)">
<g transform="translate(715.2 836.69) rotate(63.49) scale(.08 -.08)">
<use xlink:href="#v"/>
</g>
</g>
<path d="m789.32 783.29 0.16046 4.8211q0.079834 2.3987 2.4785 2.3188l7.7382-0.25755q2.3987-0.079835 2.3188-2.4785l-0.16046-4.8211q-0.079834-2.3987-2.4785-2.3188l-7.7382 0.25755q-2.3987 0.079834-2.3188 2.4785z" clip-path="url(#a)" fill="#fff" stroke="#fff"/>
<g clip-path="url(#a)">
<g transform="translate(793.38 783.15) rotate(88.094) scale(.08 -.08)">
<use xlink:href="#v"/>
</g>
</g>
<path d="m832.54 735.53 3.6486 4.0787q1.6001 1.7888 3.3889 0.18863l5.7706-5.162q1.7888-1.6001 0.18863-3.3889l-3.6486-4.0787q-1.6001-1.7888-3.3889-0.18863l-5.7706 5.162q-1.7888 1.6001-0.18863 3.3889z" clip-path="url(#a)" fill="#fff" stroke="#fff"/>
<g clip-path="url(#a)">
<g transform="translate(835.57 732.82) rotate(48.186) scale(.08 -.08)">
<use xlink:href="#s"/>
</g>
</g>
<path d="m746.32 790.68 2.375-4.9303q1.0416-2.1622-1.1206-3.2038l-6.9753-3.3602q-2.1622-1.0416-3.2038 1.1206l-2.375 4.9303q-1.0416 2.1622 1.1206 3.2038l6.9753 3.3602q2.1622 1.0416 3.2038-1.1206z" clip-path="url(#a)" fill="#fff" stroke="#fff"/>
<g clip-path="url(#a)">
<g transform="translate(742.66 788.91) rotate(-64.279) scale(.08 -.08)">
<use xlink:href="#s"/>
</g>
</g>
<path d="m792.87 924.44v33.808q0 2.4 2.4 2.4h7.7425q2.4 0 2.4-2.4v-33.808q0-2.4-2.4-2.4h-7.7425q-2.4 0-2.4 2.4z" clip-path="url(#a)" fill="#fff" stroke="#fff"/>
<g clip-path="url(#a)">
<g transform="translate(796.93 924.44) rotate(90) scale(.08 -.08)">
<use xlink:href="#l"/>
<use x="44.083984" xlink:href="#e"/>
<use x="105.607422" xlink:href="#g"/>
<use x="144.970703" xlink:href="#k"/>
<use x="242.382812" xlink:href="#j"/>
<use x="270.166016" xlink:href="#h"/>
<use x="333.544922" xlink:href="#f"/>
<use x="394.824219" xlink:href="#i"/>
</g>
</g>
<path d="m876.33 842.25 1.5212-5.3465q0.65679-2.3084-1.6516-2.9652l-7.4469-2.1188q-2.3084-0.65679-2.9652 1.6516l-1.5212 5.3465q-0.65679 2.3084 1.6516 2.9652l7.4469 2.1188q2.3084 0.65679 2.9652-1.6516z" clip-path="url(#a)" fill="#fff" stroke="#fff"/>
<g clip-path="url(#a)">
<g transform="translate(872.42 841.14) rotate(-74.118) scale(.08 -.08)">
<use xlink:href="#ae"/>
</g>
</g>
<path d="m893.91 836.89 1.5287 5.373q0.65679 2.3084 2.9652 1.6516l7.4469-2.1188q2.3084-0.65679 1.6516-2.9652l-1.5287-5.373q-0.65679-2.3084-2.9652-1.6516l-7.4469 2.1188q-2.3084 0.65679-1.6516 2.9652z" clip-path="url(#a)" fill="#fff" stroke="#fff"/>
<g clip-path="url(#a)">
<g transform="translate(897.82 835.78) rotate(74.118) scale(.08 -.08)">
<use xlink:href="#t"/>
</g>
</g>
<path d="m849.97 924.44v33.808q0 2.4 2.4 2.4h7.7425q2.4 0 2.4-2.4v-33.808q0-2.4-2.4-2.4h-7.7425q-2.4 0-2.4 2.4z" clip-path="url(#a)" fill="#fff" stroke="#fff"/>
<g clip-path="url(#a)">
<g transform="translate(854.03 924.44) rotate(90) scale(.08 -.08)">
<use xlink:href="#l"/>
<use x="44.083984" xlink:href="#e"/>
<use x="105.607422" xlink:href="#g"/>
<use x="144.970703" xlink:href="#k"/>
<use x="242.382812" xlink:href="#j"/>
<use x="270.166016" xlink:href="#h"/>
<use x="333.544922" xlink:href="#f"/>
<use x="394.824219" xlink:href="#i"/>
</g>
</g>
<path d="m909.26 924.44v33.808q0 2.4 2.4 2.4h7.7425q2.4 0 2.4-2.4v-33.808q0-2.4-2.4-2.4h-7.7425q-2.4 0-2.4 2.4z" clip-path="url(#a)" fill="#fff" stroke="#fff"/>
<g clip-path="url(#a)">
<g transform="translate(913.32 924.44) rotate(90) scale(.08 -.08)">
<use xlink:href="#l"/>
<use x="44.083984" xlink:href="#e"/>
<use x="105.607422" xlink:href="#g"/>
<use x="144.970703" xlink:href="#k"/>
<use x="242.382812" xlink:href="#j"/>
<use x="270.166016" xlink:href="#h"/>
<use x="333.544922" xlink:href="#f"/>
<use x="394.824219" xlink:href="#i"/>
</g>
</g>
<path d="m685.26 924.44v33.808q0 2.4 2.4 2.4h7.7425q2.4 0 2.4-2.4v-33.808q0-2.4-2.4-2.4h-7.7425q-2.4 0-2.4 2.4z" clip-path="url(#a)" fill="#fff" stroke="#fff"/>
<g clip-path="url(#a)">
<g transform="translate(689.33 924.44) rotate(90) scale(.08 -.08)">
<use xlink:href="#l"/>
<use x="44.083984" xlink:href="#e"/>
<use x="105.607422" xlink:href="#g"/>
<use x="144.970703" xlink:href="#k"/>
<use x="242.382812" xlink:href="#j"/>
<use x="270.166016" xlink:href="#h"/>
<use x="333.544922" xlink:href="#f"/>
<use x="394.824219" xlink:href="#i"/>
</g>
</g>
<path d="m737.97 924.44v33.808q0 2.4 2.4 2.4h7.7425q2.4 0 2.4-2.4v-33.808q0-2.4-2.4-2.4h-7.7425q-2.4 0-2.4 2.4z" clip-path="url(#a)" fill="#fff" stroke="#fff"/>
<g clip-path="url(#a)">
<g transform="translate(742.03 924.44) rotate(90) scale(.08 -.08)">
<use xlink:href="#l"/>
<use x="44.083984" xlink:href="#e"/>
<use x="105.607422" xlink:href="#g"/>
<use x="144.970703" xlink:href="#k"/>
<use x="242.382812" xlink:href="#j"/>
<use x="270.166016" xlink:href="#h"/>
<use x="333.544922" xlink:href="#f"/>
<use x="394.824219" xlink:href="#i"/>
</g>
</g>
<path d="m415.15 924.44v33.808q0 2.4 2.4 2.4h7.7425q2.4 0 2.4-2.4v-33.808q0-2.4-2.4-2.4h-7.7425q-2.4 0-2.4 2.4z" clip-path="url(#a)" fill="#fff" stroke="#fff"/>
<g clip-path="url(#a)">
<g transform="translate(419.21 924.44) rotate(90) scale(.08 -.08)">
<use xlink:href="#l"/>
<use x="44.083984" xlink:href="#e"/>
<use x="105.607422" xlink:href="#g"/>
<use x="144.970703" xlink:href="#k"/>
<use x="242.382812" xlink:href="#j"/>
<use x="270.166016" xlink:href="#h"/>
<use x="333.544922" xlink:href="#f"/>
<use x="394.824219" xlink:href="#i"/>
</g>
</g>
<path d="m454.68 924.44v33.808q0 2.4 2.4 2.4h7.7425q2.4 0 2.4-2.4v-33.808q0-2.4-2.4-2.4h-7.7425q-2.4 0-2.4 2.4z" clip-path="url(#a)" fill="#fff" stroke="#fff"/>
<g clip-path="url(#a)">
<g transform="translate(458.74 924.44) rotate(90) scale(.08 -.08)">
<use xlink:href="#l"/>
<use x="44.083984" xlink:href="#e"/>
<use x="105.607422" xlink:href="#g"/>
<use x="144.970703" xlink:href="#k"/>
<use x="242.382812" xlink:href="#j"/>
<use x="270.166016" xlink:href="#h"/>
<use x="333.544922" xlink:href="#f"/>
<use x="394.824219" xlink:href="#i"/>
</g>
</g>
<path d="m221.9 924.44v33.808q0 2.4 2.4 2.4h7.7425q2.4 0 2.4-2.4v-33.808q0-2.4-2.4-2.4h-7.7425q-2.4 0-2.4 2.4z" clip-path="url(#a)" fill="#fff" stroke="#fff"/>
<g clip-path="url(#a)">
<g transform="translate(225.96 924.44) rotate(90) scale(.08 -.08)">
<use xlink:href="#l"/>
<use x="44.083984" xlink:href="#e"/>
<use x="105.607422" xlink:href="#g"/>
<use x="144.970703" xlink:href="#k"/>
<use x="242.382812" xlink:href="#j"/>
<use x="270.166016" xlink:href="#h"/>
<use x="333.544922" xlink:href="#f"/>
<use x="394.824219" xlink:href="#i"/>
</g>
</g>
<path d="m166.51 736.74 0.68258-5.0087q0.32407-2.378-2.0539-2.7021l-7.6716-1.0455q-2.378-0.32407-2.7021 2.0539l-0.68258 5.0087q-0.32407 2.378 2.0539 2.7021l7.6716 1.0455q2.378 0.32407 2.7021-2.0539z" clip-path="url(#a)" fill="#fff" stroke="#fff"/>
<g clip-path="url(#a)">
<g transform="translate(162.49 736.19) rotate(-82.24) scale(.08 -.08)">
<use xlink:href="#ac"/>
</g>
</g>
<path d="m168.47 783.13 0.38075 5.5733q0.16358 2.3944 2.558 2.2308l7.7245-0.52772q2.3944-0.16358 2.2308-2.558l-0.38075-5.5733q-0.16358-2.3944-2.558-2.2308l-7.7245 0.52772q-2.3944 0.16358-2.2308 2.558z" clip-path="url(#a)" fill="#fff" stroke="#fff"/>
<g clip-path="url(#a)">
<g transform="translate(172.52 782.85) rotate(86.092) scale(.08 -.08)">
<use xlink:href="#t"/>
</g>
</g>
<path d="m155.1 841.53 0.52902-6.2752q0.20161-2.3915-2.1899-2.5931l-7.7151-0.65041q-2.3915-0.20161-2.5931 2.1899l-0.52902 6.2752q-0.20161 2.3915 2.1899 2.5931l7.7151 0.65041q2.3915 0.20161 2.5931-2.1899z" clip-path="url(#a)" fill="#fff" stroke="#fff"/>
<g clip-path="url(#a)">
<g transform="translate(151.05 841.18) rotate(-85.181) scale(.08 -.08)">
<use xlink:href="#ak"/>
</g>
</g>
<path d="m151.41 835.6 0.46928 5.5665q0.20161 2.3915 2.5931 2.1899l7.7151-0.65041q2.3915-0.20161 2.1899-2.5931l-0.46928-5.5665q-0.20161-2.3915-2.5931-2.1899l-7.7151 0.65041q-2.3915 0.20161-2.1899 2.5931z" clip-path="url(#a)" fill="#fff" stroke="#fff"/>
<g clip-path="url(#a)">
<g transform="translate(155.46 835.26) rotate(85.181) scale(.08 -.08)">
<use xlink:href="#t"/>
</g>
</g>
<path d="m175.78 924.44v33.808q0 2.4 2.4 2.4h7.7425q2.4 0 2.4-2.4v-33.808q0-2.4-2.4-2.4h-7.7425q-2.4 0-2.4 2.4z" clip-path="url(#a)" fill="#fff" stroke="#fff"/>
<g clip-path="url(#a)">
<g transform="translate(179.84 924.44) rotate(90) scale(.08 -.08)">
<use xlink:href="#l"/>
<use x="44.083984" xlink:href="#e"/>
<use x="105.607422" xlink:href="#g"/>
<use x="144.970703" xlink:href="#k"/>
<use x="242.382812" xlink:href="#j"/>
<use x="270.166016" xlink:href="#h"/>
<use x="333.544922" xlink:href="#f"/>
<use x="394.824219" xlink:href="#i"/>
</g>
</g>
<path d="m138.45 924.44v33.808q0 2.4 2.4 2.4h7.7425q2.4 0 2.4-2.4v-33.808q0-2.4-2.4-2.4h-7.7425q-2.4 0-2.4 2.4z" clip-path="url(#a)" fill="#fff" stroke="#fff"/>
<g clip-path="url(#a)">
<g transform="translate(142.51 924.44) rotate(90) scale(.08 -.08)">
<use xlink:href="#l"/>
<use x="44.083984" xlink:href="#e"/>
<use x="105.607422" xlink:href="#g"/>
<use x="144.970703" xlink:href="#k"/>
<use x="242.382812" xlink:href="#j"/>
<use x="270.166016" xlink:href="#h"/>
<use x="333.544922" xlink:href="#f"/>
<use x="394.824219" xlink:href="#i"/>
</g>
</g>
<path d="m156.02 924.44v33.808q0 2.4 2.4 2.4h7.7425q2.4 0 2.4-2.4v-33.808q0-2.4-2.4-2.4h-7.7425q-2.4 0-2.4 2.4z" clip-path="url(#a)" fill="#fff" stroke="#fff"/>
<g clip-path="url(#a)">
<g transform="translate(160.08 924.44) rotate(90) scale(.08 -.08)">
<use xlink:href="#l"/>
<use x="44.083984" xlink:href="#e"/>
<use x="105.607422" xlink:href="#g"/>
<use x="144.970703" xlink:href="#k"/>
<use x="242.382812" xlink:href="#j"/>
<use x="270.166016" xlink:href="#h"/>
<use x="333.544922" xlink:href="#f"/>
<use x="394.824219" xlink:href="#i"/>
</g>
</g>
<path d="m104.77 840.42 0.19378-4.5972q0.10108-2.3979-2.2968-2.4989l-7.7356-0.32607q-2.3979-0.10107-2.4989 2.2968l-0.19378 4.5972q-0.10108 2.3979 2.2968 2.4989l7.7356 0.32607q2.3979 0.10107 2.4989-2.2968z" clip-path="url(#a)" fill="#fff" stroke="#fff"/>
<g clip-path="url(#a)">
<g transform="translate(100.71 840.25) rotate(-87.586) scale(.08 -.08)">
<use xlink:href="#af"/>
</g>
</g>
<path d="m96.611 835.33 0.23526 5.5813q0.10107 2.3979 2.4989 2.2968l7.7356-0.32607q2.3979-0.10107 2.2968-2.4989l-0.23526-5.5813q-0.10108-2.3979-2.4989-2.2968l-7.7356 0.32607q-2.3979 0.10108-2.2968 2.4989z" clip-path="url(#a)" fill="#fff" stroke="#fff"/>
<g clip-path="url(#a)">
<g transform="translate(100.67 835.16) rotate(87.586) scale(.08 -.08)">
<use xlink:href="#t"/>
</g>
</g>
<path d="m109.9 924.44v33.808q0 2.4 2.4 2.4h7.7425q2.4 0 2.4-2.4v-33.808q0-2.4-2.4-2.4h-7.7425q-2.4 0-2.4 2.4z" clip-path="url(#a)" fill="#fff" stroke="#fff"/>
<g clip-path="url(#a)">
<g transform="translate(113.96 924.44) rotate(90) scale(.08 -.08)">
<use xlink:href="#l"/>
<use x="44.083984" xlink:href="#e"/>
<use x="105.607422" xlink:href="#g"/>
<use x="144.970703" xlink:href="#k"/>
<use x="242.382812" xlink:href="#j"/>
<use x="270.166016" xlink:href="#h"/>
<use x="333.544922" xlink:href="#f"/>
<use x="394.824219" xlink:href="#i"/>
</g>
</g>
<path d="m90.135 924.44v33.808q0 2.4 2.4 2.4h7.7425q2.4 0 2.4-2.4v-33.808q0-2.4-2.4-2.4h-7.7425q-2.4 0-2.4 2.4z" clip-path="url(#a)" fill="#fff" stroke="#fff"/>
<g clip-path="url(#a)">
<g transform="translate(94.199 924.44) rotate(90) scale(.08 -.08)">
<use xlink:href="#l"/>
<use x="44.083984" xlink:href="#e"/>
<use x="105.607422" xlink:href="#g"/>
<use x="144.970703" xlink:href="#k"/>
<use x="242.382812" xlink:href="#j"/>
<use x="270.166016" xlink:href="#h"/>
<use x="333.544922" xlink:href="#f"/>
<use x="394.824219" xlink:href="#i"/>
</g>
</g>
<path d="m98.919 924.44v33.808q0 2.4 2.4 2.4h7.7425q2.4 0 2.4-2.4v-33.808q0-2.4-2.4-2.4h-7.7425q-2.4 0-2.4 2.4z" clip-path="url(#a)" fill="#fff" stroke="#fff"/>
<g clip-path="url(#a)">
<g transform="translate(102.98 924.44) rotate(90) scale(.08 -.08)">
<use xlink:href="#l"/>
<use x="44.083984" xlink:href="#e"/>
<use x="105.607422" xlink:href="#g"/>
<use x="144.970703" xlink:href="#k"/>
<use x="242.382812" xlink:href="#j"/>
<use x="270.166016" xlink:href="#h"/>
<use x="333.544922" xlink:href="#f"/>
<use x="394.824219" xlink:href="#i"/>
</g>
</g>
<path d="m123.08 924.44v33.808q0 2.4 2.4 2.4h7.7425q2.4 0 2.4-2.4v-33.808q0-2.4-2.4-2.4h-7.7425q-2.4 0-2.4 2.4z" clip-path="url(#a)" fill="#fff" stroke="#fff"/>
<g clip-path="url(#a)">
<g transform="translate(127.14 924.44) rotate(90) scale(.08 -.08)">
<use xlink:href="#l"/>
<use x="44.083984" xlink:href="#e"/>
<use x="105.607422" xlink:href="#g"/>
<use x="144.970703" xlink:href="#k"/>
<use x="242.382812" xlink:href="#j"/>
<use x="270.166016" xlink:href="#h"/>
<use x="333.544922" xlink:href="#f"/>
<use x="394.824219" xlink:href="#i"/>
</g>
</g>
<path d="m250.45 924.44v33.808q0 2.4 2.4 2.4h7.7425q2.4 0 2.4-2.4v-33.808q0-2.4-2.4-2.4h-7.7425q-2.4 0-2.4 2.4z" clip-path="url(#a)" fill="#fff" stroke="#fff"/>
<g clip-path="url(#a)">
<g transform="translate(254.51 924.44) rotate(90) scale(.08 -.08)">
<use xlink:href="#l"/>
<use x="44.083984" xlink:href="#e"/>
<use x="105.607422" xlink:href="#g"/>
<use x="144.970703" xlink:href="#k"/>
<use x="242.382812" xlink:href="#j"/>
<use x="270.166016" xlink:href="#h"/>
<use x="333.544922" xlink:href="#f"/>
<use x="394.824219" xlink:href="#i"/>
</g>
</g>
<path d="m1879.9 924.44v33.808q0 2.4 2.4 2.4h7.7425q2.4 0 2.4-2.4v-33.808q0-2.4-2.4-2.4h-7.7425q-2.4 0-2.4 2.4z" clip-path="url(#a)" fill="#fff" stroke="#fff"/>
<g clip-path="url(#a)">
<g transform="translate(1884 924.44) rotate(90) scale(.08 -.08)">
<use xlink:href="#l"/>
<use x="44.083984" xlink:href="#e"/>
<use x="105.607422" xlink:href="#g"/>
<use x="144.970703" xlink:href="#k"/>
<use x="242.382812" xlink:href="#j"/>
<use x="270.166016" xlink:href="#h"/>
<use x="333.544922" xlink:href="#f"/>
<use x="394.824219" xlink:href="#i"/>
</g>
</g>
<defs>
<path id="b" d="m0 8.6603c2.2967 0 4.4997-0.9125 6.1237-2.5365 1.624-1.624 2.5365-3.827 2.5365-6.1237s-0.9125-4.4997-2.5365-6.1237c-1.624-1.624-3.827-2.5365-6.1237-2.5365s-4.4997 0.9125-6.1237 2.5365c-1.624 1.624-2.5365 3.827-2.5365 6.1237s0.9125 4.4997 2.5365 6.1237c1.624 1.624 3.827 2.5365 6.1237 2.5365z"/>
</defs>
<g clip-path="url(#a)" fill="#ffffff" stroke="#ffffff">
<use x="89.818182" y="992.727273" xlink:href="#b"/>
<use x="96.406313" y="992.727273" xlink:href="#b"/>
<use x="105.190487" y="992.727273" xlink:href="#b"/>
<use x="116.170705" y="992.727273" xlink:href="#b"/>
<use x="129.346966" y="992.727273" xlink:href="#b"/>
<use x="144.719271" y="992.727273" xlink:href="#b"/>
<use x="162.287619" y="992.727273" xlink:href="#b"/>
<use x="182.052012" y="992.727273" xlink:href="#b"/>
<use x="204.012447" y="992.727273" xlink:href="#b"/>
<use x="228.168926" y="992.727273" xlink:href="#b"/>
<use x="256.717493" y="992.727273" xlink:href="#b"/>
<use x="285.266059" y="992.727273" xlink:href="#b"/>
<use x="316.010669" y="992.727273" xlink:href="#b"/>
<use x="348.951323" y="992.727273" xlink:href="#b"/>
<use x="384.08802" y="992.727273" xlink:href="#b"/>
<use x="421.42076" y="992.727273" xlink:href="#b"/>
<use x="460.949544" y="992.727273" xlink:href="#b"/>
<use x="502.674372" y="992.727273" xlink:href="#b"/>
<use x="546.595243" y="992.727273" xlink:href="#b"/>
<use x="592.712158" y="992.727273" xlink:href="#b"/>
<use x="641.025117" y="992.727273" xlink:href="#b"/>
<use x="691.534119" y="992.727273" xlink:href="#b"/>
<use x="744.239164" y="992.727273" xlink:href="#b"/>
<use x="799.140253" y="992.727273" xlink:href="#b"/>
<use x="856.237386" y="992.727273" xlink:href="#b"/>
<use x="915.530562" y="992.727273" xlink:href="#b"/>
<use x="977.019782" y="992.727273" xlink:href="#b"/>
<use x="1040.705046" y="992.727273" xlink:href="#b"/>
<use x="1106.586353" y="992.727273" xlink:href="#b"/>
<use x="1174.663703" y="992.727273" xlink:href="#b"/>
<use x="1244.937097" y="992.727273" xlink:href="#b"/>
<use x="1317.406535" y="992.727273" xlink:href="#b"/>
<use x="1392.072016" y="992.727273" xlink:href="#b"/>
<use x="1468.933541" y="992.727273" xlink:href="#b"/>
<use x="1547.991109" y="992.727273" xlink:href="#b"/>
<use x="1629.244721" y="992.727273" xlink:href="#b"/>
<use x="1712.694377" y="992.727273" xlink:href="#b"/>
<use x="1798.340076" y="992.727273" xlink:href="#b"/>
<use x="1886.181818" y="992.727273" xlink:href="#b"/>
<use x="230.36497" y="889.95979" xlink:href="#b"/>
<use x="198.757774" y="47.272727" xlink:href="#b"/>
<use x="89.818182" y="889.95979" xlink:href="#b"/>
<use x="108.484552" y="681.019102" xlink:href="#b"/>
<use x="129.621471" y="575.919019" xlink:href="#b"/>
<use x="204.012447" y="889.95979" xlink:href="#b"/>
<use x="228.168926" y="785.762698" xlink:href="#b"/>
<use x="374.481346" y="153.312503" xlink:href="#b"/>
<use x="285.266059" y="889.95979" xlink:href="#b"/>
<use x="316.010669" y="889.95979" xlink:href="#b"/>
<use x="522.167309" y="259.219467" xlink:href="#b"/>
<use x="348.951323" y="889.95979" xlink:href="#b"/>
<use x="384.08802" y="889.95979" xlink:href="#b"/>
<use x="441.185152" y="785.762698" xlink:href="#b"/>
<use x="502.674372" y="889.95979" xlink:href="#b"/>
<use x="933.937678" y="364.974727" xlink:href="#b"/>
<use x="630.639661" y="470.553056" xlink:href="#b"/>
<use x="977.019782" y="889.95979" xlink:href="#b"/>
<use x="1194.15359" y="575.919019" xlink:href="#b"/>
<use x="1040.705046" y="889.95979" xlink:href="#b"/>
<use x="1106.586353" y="889.95979" xlink:href="#b"/>
<use x="1174.663703" y="889.95979" xlink:href="#b"/>
<use x="1454.659258" y="681.019102" xlink:href="#b"/>
<use x="1244.937097" y="889.95979" xlink:href="#b"/>
<use x="1317.406535" y="889.95979" xlink:href="#b"/>
<use x="1392.072016" y="889.95979" xlink:href="#b"/>
<use x="1468.933541" y="889.95979" xlink:href="#b"/>
<use x="1547.991109" y="889.95979" xlink:href="#b"/>
<use x="1756.615248" y="785.762698" xlink:href="#b"/>
<use x="1629.244721" y="889.95979" xlink:href="#b"/>
<use x="1712.694377" y="889.95979" xlink:href="#b"/>
<use x="1798.340076" y="889.95979" xlink:href="#b"/>
<use x="546.595243" y="889.95979" xlink:href="#b"/>
<use x="592.712158" y="889.95979" xlink:href="#b"/>
<use x="641.025117" y="889.95979" xlink:href="#b"/>
<use x="742.226124" y="575.919019" xlink:href="#b"/>
<use x="692.266133" y="785.762698" xlink:href="#b"/>
<use x="792.186115" y="681.019102" xlink:href="#b"/>
<use x="799.140253" y="889.95979" xlink:href="#b"/>
<use x="885.883974" y="785.762698" xlink:href="#b"/>
<use x="856.237386" y="889.95979" xlink:href="#b"/>
<use x="915.530562" y="889.95979" xlink:href="#b"/>
<use x="691.534119" y="889.95979" xlink:href="#b"/>
<use x="744.239164" y="889.95979" xlink:href="#b"/>
<use x="421.42076" y="889.95979" xlink:href="#b"/>
<use x="460.949544" y="889.95979" xlink:href="#b"/>
<use x="228.168926" y="889.95979" xlink:href="#b"/>
<use x="167.777728" y="681.019102" xlink:href="#b"/>
<use x="153.503445" y="785.762698" xlink:href="#b"/>
<use x="182.052012" y="889.95979" xlink:href="#b"/>
<use x="144.719271" y="889.95979" xlink:href="#b"/>
<use x="162.287619" y="889.95979" xlink:href="#b"/>
<use x="100.7984" y="785.762698" xlink:href="#b"/>
<use x="116.170705" y="889.95979" xlink:href="#b"/>
<use x="96.406313" y="889.95979" xlink:href="#b"/>
<use x="105.190487" y="889.95979" xlink:href="#b"/>
<use x="129.346966" y="889.95979" xlink:href="#b"/>
<use x="256.717493" y="889.95979" xlink:href="#b"/>
<use x="1886.181818" y="889.95979" xlink:href="#b"/>
</g>
<g clip-path="url(#a)">
<g transform="translate(75.46 995.49) scale(.1 -.1)">
<defs>
<path id="av" d="m3.3281 72.906h9.9531l15.328-61.625 15.281 61.625h11.094l15.328-61.625 15.281 61.625h10.016l-18.312-72.906h-12.406l-15.375 63.281-15.531-63.281h-12.406z"/>
<path id="u" d="m54.891 33.016v-33.016h-8.9844v32.719q0 7.7656-3.0312 11.609-3.0312 3.8594-9.0781 3.8594-7.2812 0-11.484-4.6406-4.2031-4.625-4.2031-12.641v-30.906h-9.0312v75.984h9.0312v-29.797q3.2344 4.9375 7.5938 7.375 4.375 2.4375 10.094 2.4375 9.4219 0 14.25-5.8281 4.8438-5.8281 4.8438-17.156z"/>
</defs>
<use xlink:href="#av"/>
<use x="98.876953" xlink:href="#u"/>
<use x="162.255859" xlink:href="#e"/>
<use x="223.779297" xlink:href="#h"/>
</g>
</g>
<g clip-path="url(#a)">
<g transform="translate(88.201 995.49) scale(.1 -.1)">
<defs>
<path id="o" d="m18.312 70.219v-15.531h18.5v-6.9844h-18.5v-29.688q0-6.6875 1.8281-8.5938t7.4531-1.9062h9.2188v-7.5156h-9.2188q-10.406 0-14.359 3.875-3.9531 3.8906-3.9531 14.141v29.688h-6.5938v6.9844h6.5938v15.531z"/>
</defs>
<use xlink:href="#o"/>
<use x="39.208984" xlink:href="#u"/>
<use x="102.587891" xlink:href="#e"/>
</g>
</g>
<g clip-path="url(#a)">
<g transform="translate(93.283 995.49) scale(.1 -.1)">
<defs>
<path id="ao" d="m45.406 27.984q0 9.7656-4.0312 15.125-4.0156 5.375-11.297 5.375-7.2188 0-11.25-5.375-4.0312-5.3594-4.0312-15.125 0-9.7188 4.0312-15.094t11.25-5.375q7.2812 0 11.297 5.375 4.0312 5.375 4.0312 15.094zm8.9844-21.203q0-13.953-6.2031-20.766-6.1875-6.8125-18.984-6.8125-4.7344 0-8.9375 0.70312t-8.1562 2.1719v8.7344q3.9531-2.1406 7.8125-3.1562 3.8594-1.0312 7.8594-1.0312 8.8438 0 13.234 4.6094t4.3906 13.938v4.4531q-2.7812-4.8438-7.125-7.2344t-10.406-2.3906q-10.047 0-16.203 7.6562-6.1562 7.6719-6.1562 20.328 0 12.688 6.1562 20.344 6.1562 7.6719 16.203 7.6719 6.0625 0 10.406-2.3906t7.125-7.2188v8.2969h8.9844z"/>
<path id="ah" d="m8.5 21.578v33.109h8.9844v-32.766q0-7.7656 3.0156-11.656 3.0312-3.875 9.0938-3.875 7.2656 0 11.484 4.6406 4.2344 4.6406 4.2344 12.656v31h8.9844v-54.688h-8.9844v8.4062q-3.2656-4.9844-7.5938-7.4062-4.3125-2.4219-10.031-2.4219-9.4219 0-14.312 5.8594-4.875 5.8594-4.875 17.141z"/>
<path id="y" d="m32.172-5.0781q-3.7969-9.7656-7.4219-12.734-3.6094-2.9844-9.6562-2.9844h-7.1875v7.5156h5.2812q3.7031 0 5.75 1.7656 2.0625 1.75 4.5469 8.2969l1.6094 4.0938-22.109 53.812h9.5156l17.094-42.766 17.094 42.766h9.5156z"/>
<path id="ai" d="m44.281 53.078v-8.5q-3.7969 1.9531-7.9062 2.9219-4.0938 0.98438-8.5 0.98438-6.6875 0-10.031-2.0469t-3.3438-6.1562q0-3.125 2.3906-4.9062t9.625-3.3906l3.0781-0.6875q9.5625-2.0469 13.594-5.7812t4.0312-10.422q0-7.625-6.0312-12.078-6.0312-4.4375-16.578-4.4375-4.3906 0-9.1562 0.85938t-10.031 2.5625v9.2812q4.9844-2.5938 9.8125-3.8906 4.8281-1.2812 9.5781-1.2812 6.3438 0 9.75 2.1719 3.4219 2.1719 3.4219 6.125 0 3.6562-2.4688 5.6094-2.4531 1.9531-10.812 3.7656l-3.125 0.73438q-8.3438 1.75-12.062 5.3906-3.7031 3.6406-3.7031 9.9844 0 7.7188 5.4688 11.906 5.4688 4.2031 15.531 4.2031 4.9688 0 9.3594-0.73438 4.4062-0.71875 8.1094-2.1875z"/>
</defs>
<use xlink:href="#ao"/>
<use x="63.476562" xlink:href="#ah"/>
<use x="126.855469" xlink:href="#y"/>
<use x="186.035156" xlink:href="#ai"/>
</g>
</g>
<g clip-path="url(#a)">
<g transform="translate(98.484 995.49) scale(.1 -.1)">
<defs>
<path id="an" d="m2.9844 54.688h9.5156l17.094-45.891 17.094 45.891h9.5156l-20.516-54.688h-12.203z"/>
<path id="z" d="m45.406 46.391v29.594h8.9844v-75.984h-8.9844v8.2031q-2.8281-4.875-7.1562-7.25-4.3125-2.375-10.375-2.375-9.9062 0-16.141 7.9062-6.2188 7.9219-6.2188 20.812t6.2188 20.797q6.2344 7.9062 16.141 7.9062 6.0625 0 10.375-2.375 4.3281-2.3594 7.1562-7.2344zm-30.609-19.094q0-9.9062 4.0781-15.547t11.203-5.6406 11.219 5.6406q4.1094 5.6406 4.1094 15.547t-4.1094 15.547q-4.0938 5.6406-11.219 5.6406t-11.203-5.6406-4.0781-15.547z"/>
</defs>
<use xlink:href="#f"/>
<use x="61.279297" xlink:href="#g"/>
<use x="100.642578" xlink:href="#g"/>
<use x="141.755859" xlink:href="#j"/>
<use x="169.539062" xlink:href="#an"/>
<use x="228.71875" xlink:href="#e"/>
<use x="290.242188" xlink:href="#z"/>
</g>
</g>
<g clip-path="url(#a)">
<g transform="translate(127.4 995.49) scale(.1 -.1)">
<defs>
<path id="ba" d="m31 75.875q-6.5312-11.219-9.7188-22.219-3.1719-10.984-3.1719-22.266 0-11.266 3.2031-22.328t9.6875-22.25h-7.8125q-7.3125 11.484-10.953 22.562t-3.6406 22.016q0 10.891 3.6094 21.922 3.625 11.047 10.984 22.562z"/>
</defs>
<use xlink:href="#ba"/>
</g>
</g>
<g clip-path="url(#a)">
<g transform="translate(141.54 995.49) scale(.1 -.1)">
<defs>
<path id="m" d="m19.188 8.2969h34.422v-8.2969h-46.281v8.2969q5.6094 5.8125 15.297 15.594 9.7031 9.7969 12.188 12.641 4.7344 5.3125 6.6094 9 1.8906 3.6875 1.8906 7.25 0 5.8125-4.0781 9.4688-4.0781 3.6719-10.625 3.6719-4.6406 0-9.7969-1.6094-5.1406-1.6094-11-4.8906v9.9688q5.9531 2.3906 11.125 3.6094 5.1875 1.2188 9.4844 1.2188 11.328 0 18.062-5.6719 6.7344-5.6562 6.7344-15.125 0-4.5-1.6875-8.5312-1.6719-4.0156-6.125-9.4844-1.2188-1.4219-7.7656-8.1875-6.5312-6.7656-18.453-18.922z"/>
</defs>
<use xlink:href="#m"/>
</g>
</g>
<g clip-path="url(#a)">
<g transform="translate(148.23 995.49) scale(.1 -.1)">
<defs>
<path id="r" d="m30.609 48.391q-7.2188 0-11.422-5.6406t-4.2031-15.453 4.1719-15.453q4.1875-5.6406 11.453-5.6406 7.1875 0 11.375 5.6562 4.2031 5.6719 4.2031 15.438 0 9.7188-4.2031 15.406-4.1875 5.6875-11.375 5.6875zm0 7.6094q11.719 0 18.406-7.625 6.7031-7.6094 6.7031-21.078 0-13.422-6.7031-21.078-6.6875-7.6406-18.406-7.6406-11.766 0-18.438 7.6406-6.6562 7.6562-6.6562 21.078 0 13.469 6.6562 21.078 6.6719 7.625 18.438 7.625z"/>
</defs>
<use xlink:href="#u"/>
<use x="63.378906" xlink:href="#r"/>
<use x="124.560547" xlink:href="#ah"/>
<use x="187.939453" xlink:href="#g"/>
<use x="229.052734" xlink:href="#ai"/>
</g>
</g>
<g clip-path="url(#a)">
<g transform="translate(170.51 995.49) scale(.1 -.1)">
<use xlink:href="#i"/>
<use x="27.783203" xlink:href="#f"/>
<use x="89.0625" xlink:href="#o"/>
<use x="128.271484" xlink:href="#e"/>
<use x="189.794922" xlink:href="#g"/>
</g>
</g>
<g clip-path="url(#a)">
<g transform="translate(192.65 995.49) scale(.1 -.1)">
<use xlink:href="#o"/>
<use x="39.208984" xlink:href="#u"/>
<use x="102.587891" xlink:href="#f"/>
<use x="163.867188" xlink:href="#h"/>
</g>
</g>
<g clip-path="url(#a)">
<g transform="translate(210.66 995.49) scale(.1 -.1)">
<use xlink:href="#f"/>
<use x="61.279297" xlink:href="#ao"/>
<use x="124.755859" xlink:href="#g"/>
<use x="163.619141" xlink:href="#e"/>
<use x="225.142578" xlink:href="#e"/>
<use x="286.666016" xlink:href="#z"/>
</g>
</g>
<g clip-path="url(#a)">
<g transform="translate(254.77 995.49) scale(.1 -.1)">
<defs>
<path id="az" d="m8.0156 75.875h7.8125q7.3125-11.516 10.953-22.562 3.6406-11.031 3.6406-21.922 0-10.938-3.6406-22.016t-10.953-22.562h-7.8125q6.4844 11.188 9.6875 22.25t3.2031 22.328q0 11.281-3.2031 22.266-3.2031 11-9.6875 22.219z"/>
</defs>
<use xlink:href="#az"/>
</g>
</g>
<g clip-path="url(#a)">
<g transform="translate(274.1 995.49) scale(.1 -.1)">
<use xlink:href="#o"/>
<use x="39.208984" xlink:href="#u"/>
<use x="102.587891" xlink:href="#e"/>
<use x="164.111328" xlink:href="#y"/>
</g>
</g>
<g clip-path="url(#a)">
<g transform="translate(306.43 995.49) scale(.1 -.1)">
<use xlink:href="#o"/>
<use x="39.208984" xlink:href="#r"/>
<use x="100.390625" xlink:href="#i"/>
<use x="128.173828" xlink:href="#z"/>
</g>
</g>
<g clip-path="url(#a)">
<g transform="translate(338.8 995.49) scale(.1 -.1)">
<use xlink:href="#o"/>
<use x="39.208984" xlink:href="#u"/>
<use x="102.587891" xlink:href="#f"/>
<use x="163.867188" xlink:href="#o"/>
</g>
</g>
<g clip-path="url(#a)">
<g transform="translate(374.9 995.49) scale(.1 -.1)">
<use xlink:href="#y"/>
<use x="59.179688" xlink:href="#r"/>
<use x="120.361328" xlink:href="#ah"/>
</g>
</g>
<g clip-path="url(#a)">
<g transform="translate(409.15 995.49) scale(.1 -.1)">
<use xlink:href="#u"/>
<use x="63.378906" xlink:href="#f"/>
<use x="124.658203" xlink:href="#an"/>
<use x="183.837891" xlink:href="#e"/>
</g>
</g>
<g clip-path="url(#a)">
<g transform="translate(455.93 995.49) scale(.1 -.1)">
<use xlink:href="#o"/>
<use x="39.208984" xlink:href="#r"/>
</g>
</g>
<g clip-path="url(#a)">
<g transform="translate(493.48 995.49) scale(.1 -.1)">
<defs>
<path id="as" d="m18.109 8.2031v-29h-9.0312v75.484h9.0312v-8.2969q2.8438 4.875 7.1562 7.2344 4.3281 2.375 10.328 2.375 9.9688 0 16.188-7.9062 6.2344-7.9062 6.2344-20.797t-6.2344-20.812q-6.2188-7.9062-16.188-7.9062-6 0-10.328 2.375-4.3125 2.375-7.1562 7.25zm30.578 19.094q0 9.9062-4.0781 15.547t-11.203 5.6406q-7.1406 0-11.219-5.6406t-4.0781-15.547 4.0781-15.547 11.219-5.6406q7.125 0 11.203 5.6406t4.0781 15.547z"/>
</defs>
<use xlink:href="#as"/>
<use x="63.476562" xlink:href="#f"/>
<use x="124.755859" xlink:href="#y"/>
</g>
</g>
<g clip-path="url(#a)">
<g transform="translate(540.75 995.49) scale(.1 -.1)">
<use xlink:href="#f"/>
<use x="61.279297" xlink:href="#i"/>
<use x="89.0625" xlink:href="#i"/>
</g>
</g>
<g clip-path="url(#a)">
<g transform="translate(584.51 995.49) scale(.1 -.1)">
<use xlink:href="#o"/>
<use x="39.208984" xlink:href="#u"/>
<use x="102.587891" xlink:href="#e"/>
</g>
</g>
<g clip-path="url(#a)">
<g transform="translate(630.62 995.49) scale(.1 -.1)">
<use xlink:href="#o"/>
<use x="39.208984" xlink:href="#r"/>
<use x="100.390625" xlink:href="#i"/>
<use x="128.173828" xlink:href="#i"/>
<use x="155.957031" xlink:href="#ai"/>
</g>
</g>
<g clip-path="url(#a)">
<g transform="translate(680.37 995.49) scale(.1 -.1)">
<use xlink:href="#o"/>
<use x="39.208984" xlink:href="#u"/>
<use x="102.587891" xlink:href="#e"/>
<use x="164.111328" xlink:href="#y"/>
</g>
</g>
<g clip-path="url(#a)">
<g transform="translate(728.79 995.49) scale(.1 -.1)">
<use xlink:href="#as"/>
<use x="63.476562" xlink:href="#f"/>
<use x="124.755859" xlink:href="#y"/>
<use x="183.935547" xlink:href="#e"/>
<use x="245.458984" xlink:href="#z"/>
</g>
</g>
<g clip-path="url(#a)">
<g transform="translate(780.73 995.49) scale(.1 -.1)">
<defs>
<path id="aq" d="m48.781 52.594v-8.4062q-3.8125 2.1094-7.6406 3.1562t-7.7344 1.0469q-8.75 0-13.594-5.5469-4.8281-5.5312-4.8281-15.547t4.8281-15.562q4.8438-5.5312 13.594-5.5312 3.9062 0 7.7344 1.0469t7.6406 3.1562v-8.3125q-3.7656-1.75-7.7969-2.625-4.0156-0.89062-8.5625-0.89062-12.359 0-19.641 7.7656-7.2656 7.7656-7.2656 20.953 0 13.375 7.3438 21.031 7.3594 7.6719 20.156 7.6719 4.1406 0 8.0938-0.85938 3.9531-0.84375 7.6719-2.5469z"/>
</defs>
<use xlink:href="#aq"/>
<use x="54.980469" xlink:href="#r"/>
<use x="116.162109" xlink:href="#k"/>
<use x="213.574219" xlink:href="#j"/>
<use x="241.357422" xlink:href="#h"/>
<use x="304.736328" xlink:href="#ao"/>
</g>
</g>
<g clip-path="url(#a)">
<g transform="translate(844.6 995.49) scale(.1 -.1)">
<defs>
<path id="ap" d="m37.109 75.984v-7.4844h-8.5938q-4.8281 0-6.7188-1.9531-1.875-1.9531-1.875-7.0312v-4.8281h14.797v-6.9844h-14.797v-47.703h-9.0312v47.703h-8.5938v6.9844h8.5938v3.8125q0 9.125 4.25 13.297 4.25 4.1875 13.469 4.1875z"/>
</defs>
<use xlink:href="#ap"/>
<use x="35.205078" xlink:href="#g"/>
<use x="74.068359" xlink:href="#r"/>
<use x="135.25" xlink:href="#k"/>
</g>
</g>
<g clip-path="url(#a)">
<g transform="translate(893.63 995.49) scale(.1 -.1)">
<defs>
<path id="ay" d="m19.672 34.812v-26.703h15.828q7.9531 0 11.781 3.2969 3.8438 3.2969 3.8438 10.078 0 6.8438-3.8438 10.078-3.8281 3.25-11.781 3.25zm0 29.984v-21.969h14.609q7.2188 0 10.75 2.7031 3.5469 2.7188 3.5469 8.2812 0 5.5156-3.5469 8.25-3.5312 2.7344-10.75 2.7344zm-9.8594 8.1094h25.203q11.281 0 17.375-4.6875 6.1094-4.6875 6.1094-13.328 0-6.7031-3.125-10.656t-9.1875-4.9219q7.2812-1.5625 11.312-6.5312 4.0312-4.9531 4.0312-12.375 0-9.7656-6.6406-15.094-6.6406-5.3125-18.906-5.3125h-26.172z"/>
<path id="at" d="m9.0781 75.984h9.0312v-44.875l26.812 23.578h11.469l-29-25.578 30.234-29.109h-11.719l-27.797 26.703v-26.703h-9.0312z"/>
</defs>
<use xlink:href="#ay"/>
<use x="68.603516" xlink:href="#g"/>
<use x="107.466797" xlink:href="#r"/>
<use x="168.648438" xlink:href="#r"/>
<use x="229.830078" xlink:href="#at"/>
<use x="287.740234" xlink:href="#i"/>
<use x="315.523438" xlink:href="#y"/>
<use x="374.703125" xlink:href="#h"/>
</g>
</g>
<g clip-path="url(#a)">
<g transform="translate(967.61 995.49) scale(.1 -.1)">
<use xlink:href="#f"/>
<use x="61.279297" xlink:href="#h"/>
<use x="124.658203" xlink:href="#z"/>
</g>
</g>
<g clip-path="url(#a)">
<g transform="translate(1027.7 995.49) scale(.1 -.1)">
<defs>
<path id="bc" d="m54.891 54.688-19.781-26.609 20.797-28.078h-10.594l-15.922 21.484-15.906-21.484h-10.609l21.25 28.609-19.438 26.078h10.594l14.5-19.484 14.5 19.484z"/>
</defs>
<use xlink:href="#e"/>
<use x="59.773438" xlink:href="#bc"/>
<use x="118.953125" xlink:href="#o"/>
<use x="158.162109" xlink:href="#g"/>
<use x="199.275391" xlink:href="#f"/>
</g>
</g>
<g clip-path="url(#a)">
<g transform="translate(1103.4 995.49) scale(.1 -.1)">
<defs>
<path id="bb" d="m33.797-14.703h-4.8906l-0.046875 14.703q-5.125 0.09375-10.25 1.1875-5.125 1.1094-10.312 3.3125v8.7812q4.9844-3.125 10.078-4.7188 5.1094-1.5781 10.531-1.625v22.266q-10.797 1.75-15.703 5.9531t-4.9062 11.531q0 7.9531 5.3281 12.531 5.3281 4.5938 15.281 5.2812v11.484h4.8906v-11.328q4.5312-0.20312 8.7812-0.96875 4.25-0.75 8.2969-2.0625v-8.5469q-4.0469 2.0469-8.3281 3.1719-4.2656 1.125-8.75 1.3125v-20.844q11.078-1.7031 16.297-6.1094 5.2344-4.3906 5.2344-12 0-8.25-5.5469-13.016t-15.984-5.5zm-4.8906 52.297v20.031q-5.6562-0.64062-8.6406-3.2344-2.9844-2.5781-2.9844-6.875 0-4.2031 2.75-6.5469 2.7656-2.3438 8.875-3.375zm4.8906-9.375v-21.141q6.1875 0.82812 9.3438 3.5156t3.1562 7.0781q0 4.2969-3.0156 6.8281-3 2.5469-9.4844 3.7188z"/>
</defs>
<use xlink:href="#bb"/>
</g>
</g>
<g clip-path="url(#a)">
<g transform="translate(1165.1 995.49) scale(.1 -.1)">
<defs>
<path id="c" d="m12.406 8.2969h16.109v55.625l-17.531-3.5156v8.9844l17.438 3.5156h9.8594v-64.609h16.109v-8.2969h-41.984z"/>
<path id="x" d="m31.781 66.406q-7.6094 0-11.453-7.5-3.8281-7.4844-3.8281-22.531 0-14.984 3.8281-22.484 3.8438-7.5 11.453-7.5 7.6719 0 11.5 7.5 3.8438 7.5 3.8438 22.484 0 15.047-3.8438 22.531-3.8281 7.5-11.5 7.5zm0 7.8125q12.266 0 18.734-9.7031 6.4688-9.6875 6.4688-28.141 0-18.406-6.4688-28.109-6.4688-9.6875-18.734-9.6875-12.25 0-18.719 9.6875-6.4688 9.7031-6.4688 28.109 0 18.453 6.4688 28.141 6.4688 9.7031 18.719 9.7031z"/>
</defs>
<use xlink:href="#c"/>
<use x="63.623047" xlink:href="#x"/>
<use x="127.246094" xlink:href="#x"/>
</g>
</g>
<g clip-path="url(#a)">
<g transform="translate(1238.1 995.49) scale(.1 -.1)">
<use xlink:href="#ap"/>
<use x="35.205078" xlink:href="#r"/>
<use x="96.386719" xlink:href="#g"/>
</g>
</g>
<g clip-path="url(#a)">
<g transform="translate(1304.3 995.49) scale(.1 -.1)">
<use xlink:href="#o"/>
<use x="39.208984" xlink:href="#u"/>
<use x="102.587891" xlink:href="#e"/>
<use x="164.111328" xlink:href="#k"/>
</g>
</g>
<g clip-path="url(#a)">
<g transform="translate(1387.1 995.49) scale(.1 -.1)">
<use xlink:href="#o"/>
<use x="39.208984" xlink:href="#r"/>
</g>
</g>
<g clip-path="url(#a)">
<g transform="translate(1456.3 995.49) scale(.1 -.1)">
<use xlink:href="#z"/>
<use x="63.476562" xlink:href="#g"/>
<use x="104.589844" xlink:href="#j"/>
<use x="132.373047" xlink:href="#an"/>
<use x="191.552734" xlink:href="#e"/>
</g>
</g>
<g clip-path="url(#a)">
<g transform="translate(1536.1 995.49) scale(.1 -.1)">
<defs>
<path id="au" d="m48.688 27.297q0 9.9062-4.0781 15.547t-11.203 5.6406q-7.1406 0-11.219-5.6406t-4.0781-15.547 4.0781-15.547 11.219-5.6406q7.125 0 11.203 5.6406t4.0781 15.547zm-30.578 19.094q2.8438 4.875 7.1562 7.2344 4.3281 2.375 10.328 2.375 9.9688 0 16.188-7.9062 6.2344-7.9062 6.2344-20.797t-6.2344-20.812q-6.2188-7.9062-16.188-7.9062-6 0-10.328 2.375-4.3125 2.375-7.1562 7.25v-8.2031h-9.0312v75.984h9.0312z"/>
</defs>
<use xlink:href="#au"/>
<use x="63.476562" xlink:href="#f"/>
<use x="124.755859" xlink:href="#aq"/>
<use x="179.736328" xlink:href="#at"/>
</g>
</g>
<g clip-path="url(#a)">
<g transform="translate(1617.6 995.49) scale(.1 -.1)">
<use xlink:href="#ap"/>
<use x="35.205078" xlink:href="#g"/>
<use x="74.068359" xlink:href="#r"/>
<use x="135.25" xlink:href="#k"/>
</g>
</g>
<g clip-path="url(#a)">
<g transform="translate(1701.5 995.49) scale(.1 -.1)">
<use xlink:href="#y"/>
<use x="59.179688" xlink:href="#r"/>
<use x="120.361328" xlink:href="#ah"/>
<use x="183.740234" xlink:href="#g"/>
</g>
</g>
<g clip-path="url(#a)">
<g transform="translate(1770.3 995.49) scale(.1 -.1)">
<use xlink:href="#z"/>
<use x="63.476562" xlink:href="#e"/>
<use x="125" xlink:href="#ai"/>
<use x="177.099609" xlink:href="#o"/>
<use x="216.308594" xlink:href="#j"/>
<use x="244.091797" xlink:href="#h"/>
<use x="307.470703" xlink:href="#f"/>
<use x="368.75" xlink:href="#o"/>
<use x="407.958984" xlink:href="#j"/>
<use x="435.742188" xlink:href="#r"/>
<use x="496.923828" xlink:href="#h"/>
</g>
</g>
<g clip-path="url(#a)">
<g transform="translate(1884.6 995.49) scale(.1 -.1)">
<defs>
<path id="d" d="m10.688 12.406h10.312v-12.406h-10.312z"/>
</defs>
<use xlink:href="#d"/>
</g>
</g>
<g clip-path="url(#a)">
<g transform="translate(209.28 892.72) scale(.1 -.1)">
<defs>
<path id="am" d="m9.8125 72.906h9.8594v-72.906h-9.8594z"/>
<path id="ax" d="m9.8125 72.906h14.703l18.594-49.609 18.703 49.609h14.703v-72.906h-9.625v64.016l-18.797-50h-9.9062l-18.797 50v-64.016h-9.5781z"/>
</defs>
<use xlink:href="#am"/>
<use x="29.492188" xlink:href="#ax"/>
<use x="115.771484" xlink:href="#v"/>
<use x="176.074219" xlink:href="#al"/>
<use x="231.787109" xlink:href="#am"/>
<use x="261.279297" xlink:href="#t"/>
<use x="331.103516" xlink:href="#am"/>
<use x="360.595703" xlink:href="#l"/>
</g>
</g>
<g clip-path="url(#a)">
<g transform="translate(190.81 50.032) scale(.1 -.1)">
<use xlink:href="#c"/>
<use x="63.623047" xlink:href="#d"/>
<use x="95.410156" xlink:href="#c"/>
</g>
</g>
<g clip-path="url(#a)">
<g transform="translate(81.867 892.72) scale(.1 -.1)">
<use xlink:href="#c"/>
<use x="63.623047" xlink:href="#d"/>
<use x="95.410156" xlink:href="#m"/>
</g>
</g>
<g clip-path="url(#a)">
<g transform="translate(100.53 683.78) scale(.1 -.1)">
<defs>
<path id="n" d="m40.578 39.312q7.0781-1.5156 11.047-6.3125 3.9844-4.7812 3.9844-11.812 0-10.781-7.4219-16.703-7.4219-5.9062-21.094-5.9062-4.5781 0-9.4375 0.90625t-10.031 2.7188v9.5156q4.0938-2.3906 8.9688-3.6094 4.8906-1.2188 10.219-1.2188 9.2656 0 14.125 3.6562t4.8594 10.641q0 6.4531-4.5156 10.078-4.5156 3.6406-12.562 3.6406h-8.5v8.1094h8.8906q7.2656 0 11.125 2.9062t3.8594 8.375q0 5.6094-3.9844 8.6094-3.9688 3.0156-11.391 3.0156-4.0625 0-8.7031-0.89062-4.6406-0.875-10.203-2.7188v8.7812q5.625 1.5625 10.531 2.3438t9.25 0.78125q11.234 0 17.766-5.1094 6.5469-5.0938 6.5469-13.781 0-6.0625-3.4688-10.234t-9.8594-5.7812z"/>
</defs>
<use xlink:href="#c"/>
<use x="63.623047" xlink:href="#d"/>
<use x="95.410156" xlink:href="#n"/>
</g>
</g>
<g clip-path="url(#a)">
<g transform="translate(121.67 578.68) scale(.1 -.1)">
<defs>
<path id="q" d="m37.797 64.312-24.906-38.922h24.906zm-2.5938 8.5938h12.406v-47.516h10.406v-8.2031h-10.406v-17.188h-9.8125v17.188h-32.906v9.5156z"/>
</defs>
<use xlink:href="#c"/>
<use x="63.623047" xlink:href="#d"/>
<use x="95.410156" xlink:href="#q"/>
</g>
</g>
<g clip-path="url(#a)">
<g transform="translate(196.06 892.72) scale(.1 -.1)">
<defs>
<path id="p" d="m10.797 72.906h38.719v-8.3125h-29.688v-17.859q2.1406 0.73438 4.2812 1.0938 2.1562 0.35938 4.3125 0.35938 12.203 0 19.328-6.6875 7.1406-6.6875 7.1406-18.109 0-11.766-7.3281-18.297-7.3281-6.5156-20.656-6.5156-4.5938 0-9.3594 0.78125-4.75 0.78125-9.8281 2.3438v9.9219q4.3906-2.3906 9.0781-3.5625t9.9062-1.1719q8.4531 0 13.375 4.4375 4.9375 4.4375 4.9375 12.062 0 7.6094-4.9375 12.047-4.9219 4.4531-13.375 4.4531-3.9531 0-7.8906-0.875-3.9219-0.875-8.0156-2.7344z"/>
</defs>
<use xlink:href="#c"/>
<use x="63.623047" xlink:href="#d"/>
<use x="95.410156" xlink:href="#p"/>
</g>
</g>
<g clip-path="url(#a)">
<g transform="translate(220.22 788.52) scale(.1 -.1)">
<defs>
<path id="w" d="m33.016 40.375q-6.6406 0-10.531-4.5469-3.875-4.5312-3.875-12.438 0-7.8594 3.875-12.438 3.8906-4.5625 10.531-4.5625t10.516 4.5625q3.875 4.5781 3.875 12.438 0 7.9062-3.875 12.438-3.875 4.5469-10.516 4.5469zm19.578 30.922v-8.9844q-3.7188 1.75-7.5 2.6719-3.7812 0.9375-7.5 0.9375-9.7656 0-14.922-6.5938-5.1406-6.5938-5.875-19.922 2.875 4.25 7.2188 6.5156 4.3594 2.2656 9.5781 2.2656 10.984 0 17.359-6.6719 6.375-6.6562 6.375-18.125 0-11.234-6.6406-18.031-6.6406-6.7812-17.672-6.7812-12.656 0-19.344 9.6875-6.6875 9.7031-6.6875 28.109 0 17.281 8.2031 27.562t22.016 10.281q3.7188 0 7.5-0.73438t7.8906-2.1875z"/>
</defs>
<use xlink:href="#c"/>
<use x="63.623047" xlink:href="#d"/>
<use x="95.410156" xlink:href="#w"/>
</g>
</g>
<g clip-path="url(#a)">
<g transform="translate(366.53 156.07) scale(.1 -.1)">
<defs>
<path id="ab" d="m8.2031 72.906h46.875v-4.2031l-26.469-68.703h-10.297l24.906 64.594h-35.016z"/>
</defs>
<use xlink:href="#c"/>
<use x="63.623047" xlink:href="#d"/>
<use x="95.410156" xlink:href="#ab"/>
</g>
</g>
<g clip-path="url(#a)">
<g transform="translate(274.13 892.72) scale(.1 -.1)">
<use xlink:href="#c"/>
<use x="63.623047" xlink:href="#d"/>
<use x="95.410156" xlink:href="#c"/>
<use x="159.033203" xlink:href="#x"/>
</g>
</g>
<g clip-path="url(#a)">
<g transform="translate(304.88 892.72) scale(.1 -.1)">
<use xlink:href="#c"/>
<use x="63.623047" xlink:href="#d"/>
<use x="95.410156" xlink:href="#c"/>
<use x="159.033203" xlink:href="#c"/>
</g>
</g>
<g clip-path="url(#a)">
<g transform="translate(511.03 261.98) scale(.1 -.1)">
<use xlink:href="#c"/>
<use x="63.623047" xlink:href="#d"/>
<use x="95.410156" xlink:href="#c"/>
<use x="159.033203" xlink:href="#m"/>
</g>
</g>
<g clip-path="url(#a)">
<g transform="translate(337.82 892.72) scale(.1 -.1)">
<use xlink:href="#c"/>
<use x="63.623047" xlink:href="#d"/>
<use x="95.410156" xlink:href="#c"/>
<use x="159.033203" xlink:href="#n"/>
</g>
</g>
<g clip-path="url(#a)">
<g transform="translate(372.96 892.72) scale(.1 -.1)">
<use xlink:href="#c"/>
<use x="63.623047" xlink:href="#d"/>
<use x="95.410156" xlink:href="#c"/>
<use x="159.033203" xlink:href="#q"/>
</g>
</g>
<g clip-path="url(#a)">
<g transform="translate(430.05 788.52) scale(.1 -.1)">
<use xlink:href="#c"/>
<use x="63.623047" xlink:href="#d"/>
<use x="95.410156" xlink:href="#c"/>
<use x="159.033203" xlink:href="#p"/>
</g>
</g>
<g clip-path="url(#a)">
<g transform="translate(491.54 892.72) scale(.1 -.1)">
<use xlink:href="#c"/>
<use x="63.623047" xlink:href="#d"/>
<use x="95.410156" xlink:href="#c"/>
<use x="159.033203" xlink:href="#w"/>
</g>
</g>
<g clip-path="url(#a)">
<g transform="translate(922.8 367.73) scale(.1 -.1)">
<use xlink:href="#c"/>
<use x="63.623047" xlink:href="#d"/>
<use x="95.410156" xlink:href="#c"/>
<use x="159.033203" xlink:href="#ab"/>
</g>
</g>
<g clip-path="url(#a)">
<g transform="translate(619.51 473.31) scale(.1 -.1)">
<defs>
<path id="ag" d="m31.781 34.625q-7.0312 0-11.062-3.7656-4.0156-3.7656-4.0156-10.344 0-6.5938 4.0156-10.359 4.0312-3.7656 11.062-3.7656t11.078 3.7812q4.0625 3.7969 4.0625 10.344 0 6.5781-4.0312 10.344-4.0156 3.7656-11.109 3.7656zm-9.8594 4.1875q-6.3438 1.5625-9.8906 5.9062-3.5312 4.3594-3.5312 10.609 0 8.7344 6.2188 13.812 6.2344 5.0781 17.062 5.0781 10.891 0 17.094-5.0781t6.2031-13.812q0-6.25-3.5469-10.609-3.5312-4.3438-9.8281-5.9062 7.125-1.6562 11.094-6.5 3.9844-4.8281 3.9844-11.797 0-10.609-6.4688-16.281-6.4688-5.6562-18.531-5.6562-12.047 0-18.531 5.6562-6.4688 5.6719-6.4688 16.281 0 6.9688 4 11.797 4.0156 4.8438 11.141 6.5zm-3.6094 15.578q0-5.6562 3.5312-8.8281 3.5469-3.1719 9.9375-3.1719 6.3594 0 9.9375 3.1719 3.5938 3.1719 3.5938 8.8281 0 5.6719-3.5938 8.8438-3.5781 3.1719-9.9375 3.1719-6.3906 0-9.9375-3.1719-3.5312-3.1719-3.5312-8.8438z"/>
</defs>
<use xlink:href="#c"/>
<use x="63.623047" xlink:href="#d"/>
<use x="95.410156" xlink:href="#c"/>
<use x="159.033203" xlink:href="#ag"/>
</g>
</g>
<g clip-path="url(#a)">
<g transform="translate(965.89 892.72) scale(.1 -.1)">
<defs>
<path id="ad" d="m10.984 1.5156v8.9844q3.7188-1.7656 7.5156-2.6875 3.8125-0.92188 7.4844-0.92188 9.7656 0 14.906 6.5625 5.1562 6.5625 5.8906 19.953-2.8281-4.2031-7.1875-6.4531-4.3438-2.25-9.6094-2.25-10.938 0-17.312 6.6094-6.375 6.625-6.375 18.109 0 11.219 6.6406 18 6.6406 6.7969 17.672 6.7969 12.656 0 19.312-9.7031 6.6719-9.6875 6.6719-28.141 0-17.234-8.1875-27.516-8.1719-10.281-21.984-10.281-3.7188 0-7.5312 0.73438-3.7969 0.73438-7.9062 2.2031zm19.625 30.906q6.6406 0 10.516 4.5312 3.8906 4.5469 3.8906 12.469 0 7.8594-3.8906 12.422-3.875 4.5625-10.516 4.5625t-10.516-4.5625-3.875-12.422q0-7.9219 3.875-12.469 3.875-4.5312 10.516-4.5312z"/>
</defs>
<use xlink:href="#c"/>
<use x="63.623047" xlink:href="#d"/>
<use x="95.410156" xlink:href="#c"/>
<use x="159.033203" xlink:href="#ad"/>
</g>
</g>
<g clip-path="url(#a)">
<g transform="translate(1183 578.68) scale(.1 -.1)">
<use xlink:href="#c"/>
<use x="63.623047" xlink:href="#d"/>
<use x="95.410156" xlink:href="#m"/>
<use x="159.033203" xlink:href="#x"/>
</g>
</g>
<g clip-path="url(#a)">
<g transform="translate(1029.6 892.72) scale(.1 -.1)">
<use xlink:href="#c"/>
<use x="63.623047" xlink:href="#d"/>
<use x="95.410156" xlink:href="#m"/>
<use x="159.033203" xlink:href="#c"/>
</g>
</g>
<g clip-path="url(#a)">
<g transform="translate(1095.5 892.72) scale(.1 -.1)">
<use xlink:href="#c"/>
<use x="63.623047" xlink:href="#d"/>
<use x="95.410156" xlink:href="#m"/>
<use x="159.033203" xlink:href="#m"/>
</g>
</g>
<g clip-path="url(#a)">
<g transform="translate(1163.5 892.72) scale(.1 -.1)">
<use xlink:href="#c"/>
<use x="63.623047" xlink:href="#d"/>
<use x="95.410156" xlink:href="#m"/>
<use x="159.033203" xlink:href="#n"/>
</g>
</g>
<g clip-path="url(#a)">
<g transform="translate(1443.5 683.78) scale(.1 -.1)">
<use xlink:href="#c"/>
<use x="63.623047" xlink:href="#d"/>
<use x="95.410156" xlink:href="#m"/>
<use x="159.033203" xlink:href="#q"/>
</g>
</g>
<g clip-path="url(#a)">
<g transform="translate(1233.8 892.72) scale(.1 -.1)">
<use xlink:href="#c"/>
<use x="63.623047" xlink:href="#d"/>
<use x="95.410156" xlink:href="#m"/>
<use x="159.033203" xlink:href="#p"/>
</g>
</g>
<g clip-path="url(#a)">
<g transform="translate(1306.3 892.72) scale(.1 -.1)">
<use xlink:href="#c"/>
<use x="63.623047" xlink:href="#d"/>
<use x="95.410156" xlink:href="#m"/>
<use x="159.033203" xlink:href="#w"/>
</g>
</g>
<g clip-path="url(#a)">
<g transform="translate(1380.9 892.72) scale(.1 -.1)">
<use xlink:href="#c"/>
<use x="63.623047" xlink:href="#d"/>
<use x="95.410156" xlink:href="#m"/>
<use x="159.033203" xlink:href="#ab"/>
</g>
</g>
<g clip-path="url(#a)">
<g transform="translate(1457.8 892.72) scale(.1 -.1)">
<use xlink:href="#c"/>
<use x="63.623047" xlink:href="#d"/>
<use x="95.410156" xlink:href="#m"/>
<use x="159.033203" xlink:href="#ag"/>
</g>
</g>
<g clip-path="url(#a)">
<g transform="translate(1536.9 892.72) scale(.1 -.1)">
<use xlink:href="#c"/>
<use x="63.623047" xlink:href="#d"/>
<use x="95.410156" xlink:href="#m"/>
<use x="159.033203" xlink:href="#ad"/>
</g>
</g>
<g clip-path="url(#a)">
<g transform="translate(1745.5 788.52) scale(.1 -.1)">
<use xlink:href="#c"/>
<use x="63.623047" xlink:href="#d"/>
<use x="95.410156" xlink:href="#n"/>
<use x="159.033203" xlink:href="#x"/>
</g>
</g>
<g clip-path="url(#a)">
<g transform="translate(1618.1 892.72) scale(.1 -.1)">
<use xlink:href="#c"/>
<use x="63.623047" xlink:href="#d"/>
<use x="95.410156" xlink:href="#n"/>
<use x="159.033203" xlink:href="#c"/>
</g>
</g>
<g clip-path="url(#a)">
<g transform="translate(1701.6 892.72) scale(.1 -.1)">
<use xlink:href="#c"/>
<use x="63.623047" xlink:href="#d"/>
<use x="95.410156" xlink:href="#n"/>
<use x="159.033203" xlink:href="#m"/>
</g>
</g>
<g clip-path="url(#a)">
<g transform="translate(1787.2 892.72) scale(.1 -.1)">
<use xlink:href="#c"/>
<use x="63.623047" xlink:href="#d"/>
<use x="95.410156" xlink:href="#n"/>
<use x="159.033203" xlink:href="#n"/>
</g>
</g>
<g clip-path="url(#a)">
<g transform="translate(535.46 892.72) scale(.1 -.1)">
<use xlink:href="#c"/>
<use x="63.623047" xlink:href="#d"/>
<use x="95.410156" xlink:href="#n"/>
<use x="159.033203" xlink:href="#q"/>
</g>
</g>
<g clip-path="url(#a)">
<g transform="translate(581.58 892.72) scale(.1 -.1)">
<use xlink:href="#c"/>
<use x="63.623047" xlink:href="#d"/>
<use x="95.410156" xlink:href="#n"/>
<use x="159.033203" xlink:href="#p"/>
</g>
</g>
<g clip-path="url(#a)">
<g transform="translate(629.89 892.72) scale(.1 -.1)">
<use xlink:href="#c"/>
<use x="63.623047" xlink:href="#d"/>
<use x="95.410156" xlink:href="#n"/>
<use x="159.033203" xlink:href="#w"/>
</g>
</g>
<g clip-path="url(#a)">
<g transform="translate(731.09 578.68) scale(.1 -.1)">
<use xlink:href="#c"/>
<use x="63.623047" xlink:href="#d"/>
<use x="95.410156" xlink:href="#n"/>
<use x="159.033203" xlink:href="#ab"/>
</g>
</g>
<g clip-path="url(#a)">
<g transform="translate(681.13 788.52) scale(.1 -.1)">
<use xlink:href="#c"/>
<use x="63.623047" xlink:href="#d"/>
<use x="95.410156" xlink:href="#n"/>
<use x="159.033203" xlink:href="#ag"/>
</g>
</g>
<g clip-path="url(#a)">
<g transform="translate(781.05 683.78) scale(.1 -.1)">
<use xlink:href="#c"/>
<use x="63.623047" xlink:href="#d"/>
<use x="95.410156" xlink:href="#n"/>
<use x="159.033203" xlink:href="#ad"/>
</g>
</g>
<g clip-path="url(#a)">
<g transform="translate(788.01 892.72) scale(.1 -.1)">
<use xlink:href="#c"/>
<use x="63.623047" xlink:href="#d"/>
<use x="95.410156" xlink:href="#q"/>
<use x="159.033203" xlink:href="#x"/>
</g>
</g>
<g clip-path="url(#a)">
<g transform="translate(874.75 788.52) scale(.1 -.1)">
<use xlink:href="#c"/>
<use x="63.623047" xlink:href="#d"/>
<use x="95.410156" xlink:href="#q"/>
<use x="159.033203" xlink:href="#c"/>
</g>
</g>
<g clip-path="url(#a)">
<g transform="translate(845.1 892.72) scale(.1 -.1)">
<use xlink:href="#c"/>
<use x="63.623047" xlink:href="#d"/>
<use x="95.410156" xlink:href="#q"/>
<use x="159.033203" xlink:href="#m"/>
</g>
</g>
<g clip-path="url(#a)">
<g transform="translate(904.4 892.72) scale(.1 -.1)">
<use xlink:href="#c"/>
<use x="63.623047" xlink:href="#d"/>
<use x="95.410156" xlink:href="#q"/>
<use x="159.033203" xlink:href="#n"/>
</g>
</g>
<g clip-path="url(#a)">
<g transform="translate(680.4 892.72) scale(.1 -.1)">
<use xlink:href="#c"/>
<use x="63.623047" xlink:href="#d"/>
<use x="95.410156" xlink:href="#q"/>
<use x="159.033203" xlink:href="#q"/>
</g>
</g>
<g clip-path="url(#a)">
<g transform="translate(733.11 892.72) scale(.1 -.1)">
<use xlink:href="#c"/>
<use x="63.623047" xlink:href="#d"/>
<use x="95.410156" xlink:href="#q"/>
<use x="159.033203" xlink:href="#p"/>
</g>
</g>
<g clip-path="url(#a)">
<g transform="translate(410.29 892.72) scale(.1 -.1)">
<use xlink:href="#c"/>
<use x="63.623047" xlink:href="#d"/>
<use x="95.410156" xlink:href="#q"/>
<use x="159.033203" xlink:href="#w"/>
</g>
</g>
<g clip-path="url(#a)">
<g transform="translate(449.82 892.72) scale(.1 -.1)">
<use xlink:href="#c"/>
<use x="63.623047" xlink:href="#d"/>
<use x="95.410156" xlink:href="#q"/>
<use x="159.033203" xlink:href="#ab"/>
</g>
</g>
<g clip-path="url(#a)">
<g transform="translate(217.04 892.72) scale(.1 -.1)">
<use xlink:href="#c"/>
<use x="63.623047" xlink:href="#d"/>
<use x="95.410156" xlink:href="#q"/>
<use x="159.033203" xlink:href="#ad"/>
</g>
</g>
<g clip-path="url(#a)">
<g transform="translate(156.64 683.78) scale(.1 -.1)">
<use xlink:href="#c"/>
<use x="63.623047" xlink:href="#d"/>
<use x="95.410156" xlink:href="#p"/>
<use x="159.033203" xlink:href="#x"/>
</g>
</g>
<g clip-path="url(#a)">
<g transform="translate(142.37 788.52) scale(.1 -.1)">
<use xlink:href="#c"/>
<use x="63.623047" xlink:href="#d"/>
<use x="95.410156" xlink:href="#p"/>
<use x="159.033203" xlink:href="#m"/>
</g>
</g>
<g clip-path="url(#a)">
<g transform="translate(170.92 892.72) scale(.1 -.1)">
<use xlink:href="#c"/>
<use x="63.623047" xlink:href="#d"/>
<use x="95.410156" xlink:href="#p"/>
<use x="159.033203" xlink:href="#n"/>
</g>
</g>
<g clip-path="url(#a)">
<g transform="translate(133.59 892.72) scale(.1 -.1)">
<use xlink:href="#c"/>
<use x="63.623047" xlink:href="#d"/>
<use x="95.410156" xlink:href="#p"/>
<use x="159.033203" xlink:href="#q"/>
</g>
</g>
<g clip-path="url(#a)">
<g transform="translate(151.15 892.72) scale(.1 -.1)">
<use xlink:href="#c"/>
<use x="63.623047" xlink:href="#d"/>
<use x="95.410156" xlink:href="#p"/>
<use x="159.033203" xlink:href="#p"/>
</g>
</g>
<g clip-path="url(#a)">
<g transform="translate(89.666 788.52) scale(.1 -.1)">
<use xlink:href="#c"/>
<use x="63.623047" xlink:href="#d"/>
<use x="95.410156" xlink:href="#p"/>
<use x="159.033203" xlink:href="#w"/>
</g>
</g>
<g clip-path="url(#a)">
<g transform="translate(105.04 892.72) scale(.1 -.1)">
<use xlink:href="#c"/>
<use x="63.623047" xlink:href="#d"/>
<use x="95.410156" xlink:href="#p"/>
<use x="159.033203" xlink:href="#ab"/>
</g>
</g>
<g clip-path="url(#a)">
<g transform="translate(85.274 892.72) scale(.1 -.1)">
<use xlink:href="#c"/>
<use x="63.623047" xlink:href="#d"/>
<use x="95.410156" xlink:href="#p"/>
<use x="159.033203" xlink:href="#ag"/>
</g>
</g>
<g clip-path="url(#a)">
<g transform="translate(94.058 892.72) scale(.1 -.1)">
<use xlink:href="#c"/>
<use x="63.623047" xlink:href="#d"/>
<use x="95.410156" xlink:href="#p"/>
<use x="159.033203" xlink:href="#ad"/>
</g>
</g>
<g clip-path="url(#a)">
<g transform="translate(118.21 892.72) scale(.1 -.1)">
<use xlink:href="#c"/>
<use x="63.623047" xlink:href="#d"/>
<use x="95.410156" xlink:href="#w"/>
<use x="159.033203" xlink:href="#x"/>
</g>
</g>
<g clip-path="url(#a)">
<g transform="translate(245.58 892.72) scale(.1 -.1)">
<use xlink:href="#c"/>
<use x="63.623047" xlink:href="#d"/>
<use x="95.410156" xlink:href="#w"/>
<use x="159.033203" xlink:href="#c"/>
</g>
</g>
<g clip-path="url(#a)">
<g transform="translate(1875 892.72) scale(.1 -.1)">
<use xlink:href="#c"/>
<use x="63.623047" xlink:href="#d"/>
<use x="95.410156" xlink:href="#w"/>
<use x="159.033203" xlink:href="#m"/>
</g>
</g>
<defs>
<clipPath id="a">
<rect width="1976" height="1040"/>
</clipPath>
</defs>
</svg>
