<?xml version="1.0" encoding="UTF-8"?>
<!DOCTYPE svg  PUBLIC '-//W3C//DTD SVG 1.1//EN'  'http://www.w3.org/Graphics/SVG/1.1/DTD/svg11.dtd'>
<svg width="810.67pt" height="426.67pt" version="1.1" viewBox="0 0 810.67 426.67" xmlns="http://www.w3.org/2000/svg" xmlns:xlink="http://www.w3.org/1999/xlink">
<metadata>
<rdf:RDF xmlns:cc="http://creativecommons.org/ns#" xmlns:dc="http://purl.org/dc/elements/1.1/" xmlns:rdf="http://www.w3.org/1999/02/22-rdf-syntax-ns#">
<cc:Work>
<dc:type rdf:resource="http://purl.org/dc/dcmitype/StillImage"/>
<dc:date>2021-02-25T11:28:42.019821</dc:date>
<dc:format>image/svg+xml</dc:format>
<dc:creator>
<cc:Agent>
<dc:title>Matplotlib v3.3.3, https://matplotlib.org/</dc:title>
</cc:Agent>
</dc:creator>
</cc:Work>
</rdf:RDF>
</metadata>
<defs>
<style type="text/css">*{stroke-linecap:butt;stroke-linejoin:round;}</style>
</defs>
<path d="m0 426.67h810.67v-426.67h-810.67z" fill="#fff"/>
<g fill="none" stroke="#000">
<path d="m289.25 19.394-191.81 78.267" clip-path="url(#a)"/>
<path d="m289.25 19.394-46.051 311.54" clip-path="url(#a)"/>
<path d="m289.25 19.394 237.86 234.14" clip-path="url(#a)"/>
<path d="m97.444 97.661-60.595 233.27" clip-path="url(#a)"/>
<path d="m97.444 97.661-45.856 233.27" clip-path="url(#a)"/>
<path d="m97.444 97.661 37.667 155.88" clip-path="url(#a)"/>
<path d="m97.444 97.661 68.784 78.07" clip-path="url(#a)"/>
<path d="m243.2 330.94v76.337" clip-path="url(#a)"/>
<path d="m527.11 253.54-234.78 77.399" clip-path="url(#a)"/>
<path d="m527.11 253.54-180.73 77.399" clip-path="url(#a)"/>
<path d="m527.11 253.54-89.84 77.399" clip-path="url(#a)"/>
<path d="m527.11 253.54 10.879 77.399" clip-path="url(#a)"/>
<path d="m527.11 253.54 84.576 77.399" clip-path="url(#a)"/>
<path d="m527.11 253.54 163.19 77.399" clip-path="url(#a)"/>
<path d="m527.11 253.54 246.71 77.399" clip-path="url(#a)"/>
<path d="m292.33 330.94v76.337" clip-path="url(#a)"/>
<path d="m346.38 330.94v76.337" clip-path="url(#a)"/>
<path d="m437.27 330.94-31.935 76.337" clip-path="url(#a)"/>
<path d="m437.27 330.94 31.935 76.337" clip-path="url(#a)"/>
<path d="m537.99 330.94v76.337" clip-path="url(#a)"/>
<path d="m611.68 330.94v76.337" clip-path="url(#a)"/>
<path d="m690.29 330.94v76.337" clip-path="url(#a)"/>
<path d="m36.848 330.94v76.337" clip-path="url(#a)"/>
<path d="m51.588 330.94v76.337" clip-path="url(#a)"/>
<path d="m135.11 253.54 63.871 77.399" clip-path="url(#a)" stroke-dasharray="3.7,1.6"/>
<path d="m135.11 253.54-63.871 77.399" clip-path="url(#a)"/>
<path d="m166.23 175.73-26.203 77.805" clip-path="url(#a)"/>
<path d="m166.23 175.73-6.5508 77.805" clip-path="url(#a)"/>
<path d="m166.23 175.73 32.754 155.2" clip-path="url(#a)"/>
<path d="m140.02 253.54 58.958 77.399" clip-path="url(#a)" stroke-dasharray="3.7,1.6"/>
<path d="m140.02 253.54-44.218 77.399" clip-path="url(#a)"/>
<path d="m140.02 253.54-14.739 77.399" clip-path="url(#a)"/>
<path d="m159.68 253.54v77.399" clip-path="url(#a)"/>
<path d="m198.98 330.94v76.337" clip-path="url(#a)"/>
<path d="m159.68 330.94v76.337" clip-path="url(#a)"/>
<path d="m95.806 330.94v76.337" clip-path="url(#a)"/>
<path d="m125.28 330.94v76.337" clip-path="url(#a)"/>
<path d="m71.24 330.94v76.337" clip-path="url(#a)"/>
<path d="m773.82 330.94v76.337" clip-path="url(#a)"/>
</g>
<path d="m192.93 65.471 5.5703-2.273q2.2221-0.90674 1.3154-3.1289l-2.9252-7.1687q-0.90674-2.2221-3.1289-1.3154l-5.5703 2.273q-2.2221 0.90674-1.3154 3.1289l2.9252 7.1687q0.90674 2.2221 3.1289 1.3154z" clip-path="url(#a)" fill="#fff" stroke="#fff"/>
<g clip-path="url(#a)">
<g transform="translate(191.4 61.708) rotate(-22.198) scale(.08 -.08)">
<defs>
<path id="y" d="m9.8125 72.906h9.8594v-29.891h35.844v29.891h9.8594v-72.906h-9.8594v34.719h-35.844v-34.719h-9.8594z"/>
</defs>
<use xlink:href="#y"/>
</g>
</g>
<path d="m272.1 178.29 0.65181-4.4096q0.35095-2.3742-2.0233-2.7251l-7.6593-1.1322q-2.3742-0.35095-2.7251 2.0233l-0.65181 4.4096q-0.35094 2.3742 2.0233 2.7251l7.6593 1.1322q2.3742 0.35095 2.7251-2.0233z" clip-path="url(#a)" fill="#fff" stroke="#fff"/>
<g clip-path="url(#a)">
<g transform="translate(268.08 177.69) rotate(-81.592) scale(.08 -.08)">
<defs>
<path id="ao" d="m9.8125 72.906h9.8594v-64.609h35.5v-8.2969h-45.359z"/>
</defs>
<use xlink:href="#ao"/>
</g>
</g>
<path d="m401.64 138.82 4.2875 4.2205q1.7104 1.6836 3.394-0.026717l5.4315-5.5177q1.6836-1.7104-0.026717-3.394l-4.2875-4.2205q-1.7104-1.6836-3.394 0.026717l-5.4315 5.5177q-1.6836 1.7104 0.026717 3.394z" clip-path="url(#a)" fill="#fff" stroke="#fff"/>
<g clip-path="url(#a)">
<g transform="translate(404.49 135.93) rotate(44.549) scale(.08 -.08)">
<use xlink:href="#y"/>
</g>
</g>
<path d="m72.528 218.52 1.3759-5.2967q0.6034-2.3229-1.7195-2.9263l-7.4938-1.9466q-2.3229-0.6034-2.9263 1.7195l-1.3759 5.2967q-0.6034 2.3229 1.7195 2.9263l7.4938 1.9466q2.3229 0.6034 2.9263-1.7195z" clip-path="url(#a)" fill="#fff" stroke="#fff"/>
<g clip-path="url(#a)">
<g transform="translate(68.595 217.5) rotate(-75.439) scale(.08 -.08)">
<defs>
<path id="m" d="m34.188 63.188-13.391-36.281h26.812zm-5.5781 9.7188h11.188l27.781-72.906h-10.25l-6.6406 18.703h-32.859l-6.6406-18.703h-10.406z"/>
</defs>
<use xlink:href="#m"/>
</g>
</g>
<path d="m80.204 217.87 0.93042-4.7332q0.46292-2.3549-1.892-2.8179l-7.5971-1.4934q-2.3549-0.46292-2.8179 1.892l-0.93042 4.7332q-0.46292 2.3549 1.892 2.8179l7.5971 1.4934q2.3549 0.46292 2.8179-1.892z" clip-path="url(#a)" fill="#fff" stroke="#fff"/>
<g clip-path="url(#a)">
<g transform="translate(76.217 217.09) rotate(-78.879) scale(.08 -.08)">
<defs>
<path id="t" d="m19.672 64.797v-27.391h12.406q6.8906 0 10.641 3.5625 3.7656 3.5625 3.7656 10.156 0 6.5469-3.7656 10.109-3.75 3.5625-10.641 3.5625zm-9.8594 8.1094h22.266q12.266 0 18.531-5.5469 6.2812-5.5469 6.2812-16.234 0-10.797-6.2812-16.312-6.2656-5.5156-18.531-5.5156h-12.406v-29.297h-9.8594z"/>
</defs>
<use xlink:href="#t"/>
</g>
</g>
<path d="m109.54 174.41 1.2854 5.3194q0.56374 2.3329 2.8966 1.7691l7.5259-1.8186q2.3329-0.56374 1.7691-2.8966l-1.2854-5.3194q-0.56374-2.3329-2.8966-1.7691l-7.5259 1.8186q-2.3329 0.56374-1.7691 2.8966z" clip-path="url(#a)" fill="#fff" stroke="#fff"/>
<g clip-path="url(#a)">
<g transform="translate(113.49 173.46) rotate(76.415) scale(.08 -.08)">
<use xlink:href="#m"/>
</g>
</g>
<path d="m125.32 138.79 3.6177 4.1061q1.5866 1.8008 3.3873 0.21419l5.8094-5.1184q1.8008-1.5866 0.21419-3.3873l-3.6177-4.1061q-1.5866-1.8008-3.3873-0.21419l-5.8094 5.1184q-1.8008 1.5866-0.21419 3.3873z" clip-path="url(#a)" fill="#fff" stroke="#fff"/>
<g clip-path="url(#a)">
<g transform="translate(128.37 136.1) rotate(48.618) scale(.08 -.08)">
<use xlink:href="#m"/>
</g>
</g>
<path d="m236.93 352.2v33.808q0 2.4 2.4 2.4h7.7425q2.4 0 2.4-2.4v-33.808q0-2.4-2.4-2.4h-7.7425q-2.4 0-2.4 2.4z" clip-path="url(#a)" fill="#fff" stroke="#fff"/>
<g clip-path="url(#a)">
<g transform="translate(240.99 352.2) rotate(90) scale(.08 -.08)">
<defs>
<path id="l" d="m-0.29688 72.906h61.672v-8.3125h-25.875v-64.594h-9.9062v64.594h-25.891z"/>
<path id="g" d="m56.203 29.594v-4.3906h-41.312q0.59375-9.2812 5.5938-14.141t13.938-4.8594q5.1719 0 10.031 1.2656t9.6562 3.8125v-8.5q-4.8438-2.0469-9.9219-3.125t-10.297-1.0781q-13.094 0-20.734 7.6094-7.6406 7.625-7.6406 20.625 0 13.422 7.25 21.297 7.25 7.8906 19.562 7.8906 11.031 0 17.453-7.1094 6.4219-7.0938 6.4219-19.297zm-8.9844 2.6406q-0.09375 7.3594-4.125 11.75-4.0312 4.4062-10.672 4.4062-7.5156 0-12.031-4.25t-5.2031-11.969z"/>
<path id="i" d="m41.109 46.297q-1.5156 0.875-3.2969 1.2812-1.7812 0.42188-3.9219 0.42188-7.625 0-11.703-4.9531t-4.0781-14.234v-28.812h-9.0312v54.688h9.0312v-8.5q2.8438 4.9844 7.375 7.3906 4.5469 2.4219 11.047 2.4219 0.92188 0 2.0469-0.125 1.125-0.10938 2.4844-0.35938z"/>
<path id="k" d="m52 44.188q3.375 6.0625 8.0625 8.9375t11.031 2.875q8.5469 0 13.188-5.9844 4.6406-5.9688 4.6406-17v-33.016h-9.0312v32.719q0 7.8594-2.7969 11.656-2.7812 3.8125-8.4844 3.8125-6.9844 0-11.047-4.6406-4.0469-4.625-4.0469-12.641v-30.906h-9.0312v32.719q0 7.9062-2.7812 11.688t-8.5938 3.7812q-6.8906 0-10.953-4.6562-4.0469-4.6562-4.0469-12.625v-30.906h-9.0312v54.688h9.0312v-8.5q3.0781 5.0312 7.375 7.4219t10.203 2.3906q5.9688 0 10.141-3.0312 4.1719-3.0156 6.1719-8.7812z"/>
<path id="d" d="m9.4219 54.688h8.9844v-54.688h-8.9844zm0 21.297h8.9844v-11.391h-8.9844z"/>
<path id="j" d="m54.891 33.016v-33.016h-8.9844v32.719q0 7.7656-3.0312 11.609-3.0312 3.8594-9.0781 3.8594-7.2812 0-11.484-4.6406-4.2031-4.625-4.2031-12.641v-30.906h-9.0312v54.688h9.0312v-8.5q3.2344 4.9375 7.5938 7.375 4.375 2.4375 10.094 2.4375 9.4219 0 14.25-5.8281 4.8438-5.8281 4.8438-17.156z"/>
<path id="f" d="m34.281 27.484q-10.891 0-15.094-2.4844t-4.2031-8.5q0-4.7812 3.1562-7.5938 3.1562-2.7969 8.5625-2.7969 7.4844 0 12 5.2969t4.5156 14.078v2zm17.922 3.7188v-31.203h-8.9844v8.2969q-3.0781-4.9688-7.6719-7.3438t-11.234-2.375q-8.3906 0-13.359 4.7188-4.9531 4.7188-4.9531 12.625 0 9.2188 6.1719 13.906 6.1875 4.6875 18.438 4.6875h12.609v0.89062q0 6.2031-4.0781 9.5938t-11.453 3.3906q-4.6875 0-9.1406-1.125-4.4375-1.125-8.5312-3.375v8.3125q4.9219 1.9062 9.5625 2.8438 4.6406 0.95312 9.0312 0.95312 11.875 0 17.734-6.1562 5.8594-6.1406 5.8594-18.641z"/>
<path id="h" d="m9.4219 75.984h8.9844v-75.984h-8.9844z"/>
</defs>
<use xlink:href="#l"/>
<use x="44.083984" xlink:href="#g"/>
<use x="105.607422" xlink:href="#i"/>
<use x="144.970703" xlink:href="#k"/>
<use x="242.382812" xlink:href="#d"/>
<use x="270.166016" xlink:href="#j"/>
<use x="333.544922" xlink:href="#f"/>
<use x="394.824219" xlink:href="#h"/>
</g>
</g>
<path d="m408.76 299.16 5.8503-1.9287q2.2793-0.75143 1.5279-3.0308l-2.4241-7.3532q-0.75143-2.2793-3.0308-1.5279l-5.8503 1.9287q-2.2793 0.75143-1.5279 3.0308l2.4241 7.3532q0.75143 2.2793 3.0308 1.5279z" clip-path="url(#a)" fill="#fff" stroke="#fff"/>
<g clip-path="url(#a)">
<g transform="translate(407.49 295.3) rotate(-18.246) scale(.08 -.08)">
<defs>
<path id="aa" d="m19.672 64.797v-56.688h11.922q15.094 0 22.094 6.8281 7 6.8438 7 21.594 0 14.641-7 21.453t-22.094 6.8125zm-9.8594 8.1094h20.266q21.188 0 31.094-8.8125 9.9219-8.8125 9.9219-27.562 0-18.859-9.9688-27.703-9.9531-8.8281-31.047-8.8281h-20.266z"/>
</defs>
<use xlink:href="#aa"/>
</g>
</g>
<path d="m436.7 299.08 5.0306-2.1544q2.2062-0.94481 1.2614-3.151l-3.048-7.1173q-0.94481-2.2062-3.151-1.2614l-5.0306 2.1544q-2.2062 0.94481-1.2614 3.151l3.048 7.1173q0.94481 2.2062 3.151 1.2614z" clip-path="url(#a)" fill="#fff" stroke="#fff"/>
<g clip-path="url(#a)">
<g transform="translate(435.1 295.34) rotate(-23.183) scale(.08 -.08)">
<use xlink:href="#m"/>
</g>
</g>
<path d="m483.95 299 4.6669-4.0206q1.8183-1.5665 0.25179-3.3848l-5.0535-5.8658q-1.5665-1.8183-3.3848-0.25179l-4.6669 4.0206q-1.8183 1.5665-0.25179 3.3848l5.0535 5.8658q1.5665 1.8183 3.3848 0.25179z" clip-path="url(#a)" fill="#fff" stroke="#fff"/>
<g clip-path="url(#a)">
<g transform="translate(481.3 295.92) rotate(-40.746) scale(.08 -.08)">
<use xlink:href="#aa"/>
</g>
</g>
<path d="m526 290.72 0.67142 4.7768q0.33406 2.3766 2.7107 2.0426l7.6671-1.0777q2.3766-0.33406 2.0426-2.7107l-0.67142-4.7768q-0.33406-2.3766-2.7107-2.0426l-7.6671 1.0777q-2.3766 0.33406-2.0426 2.7107z" clip-path="url(#a)" fill="#fff" stroke="#fff"/>
<g clip-path="url(#a)">
<g transform="translate(530.03 290.15) rotate(81.999) scale(.08 -.08)">
<use xlink:href="#t"/>
</g>
</g>
<path d="m563.47 295.31 3.3944 3.1064q1.7705 1.6203 3.3908-0.15024l5.2271-5.7118q1.6203-1.7705-0.15024-3.3908l-3.3944-3.1064q-1.7705-1.6203-3.3908 0.15024l-5.2271 5.7117q-1.6203 1.7705 0.15024 3.3908z" clip-path="url(#a)" fill="#fff" stroke="#fff"/>
<g clip-path="url(#a)">
<g transform="translate(566.21 292.31) rotate(42.463) scale(.08 -.08)">
<defs>
<path id="ap" d="m9.8125 72.906h41.891v-8.3125h-32.031v-21.484h28.906v-8.2969h-28.906v-34.812h-9.8594z"/>
</defs>
<use xlink:href="#ap"/>
</g>
</g>
<path d="m603.54 296.73 4.9445 2.3452q2.1685 1.0285 3.197-1.14l3.318-6.9955q1.0285-2.1685-1.14-3.197l-4.9445-2.3452q-2.1685-1.0285-3.197 1.14l-3.318 6.9955q-1.0285 2.1685 1.14 3.197z" clip-path="url(#a)" fill="#fff" stroke="#fff"/>
<g clip-path="url(#a)">
<g transform="translate(605.28 293.06) rotate(25.375) scale(.08 -.08)">
<use xlink:href="#m"/>
</g>
</g>
<path d="m645.79 297.34 5.5865 1.7526q2.29 0.71842 3.0084-1.5715l2.3176-7.3875q0.71842-2.29-1.5715-3.0084l-5.5865-1.7526q-2.29-0.71842-3.0084 1.5715l-2.3176 7.3875q-0.71842 2.29 1.5715 3.0084z" clip-path="url(#a)" fill="#fff" stroke="#fff"/>
<g clip-path="url(#a)">
<g transform="translate(647.01 293.47) rotate(17.418) scale(.08 -.08)">
<defs>
<path id="am" d="m8.6875 72.906h9.9219v-44.297q0-11.719 4.2344-16.875 4.25-5.1406 13.781-5.1406 9.4688 0 13.719 5.1406 4.25 5.1562 4.25 16.875v44.297h9.9062v-45.516q0-14.25-7.0625-21.531-7.0469-7.2812-20.812-7.2812-13.828 0-20.891 7.2812-7.0469 7.2812-7.0469 21.531z"/>
</defs>
<use xlink:href="#am"/>
</g>
</g>
<path d="m286.06 352.2v33.808q0 2.4 2.4 2.4h7.7425q2.4 0 2.4-2.4v-33.808q0-2.4-2.4-2.4h-7.7425q-2.4 0-2.4 2.4z" clip-path="url(#a)" fill="#fff" stroke="#fff"/>
<g clip-path="url(#a)">
<g transform="translate(290.12 352.2) rotate(90) scale(.08 -.08)">
<use xlink:href="#l"/>
<use x="44.083984" xlink:href="#g"/>
<use x="105.607422" xlink:href="#i"/>
<use x="144.970703" xlink:href="#k"/>
<use x="242.382812" xlink:href="#d"/>
<use x="270.166016" xlink:href="#j"/>
<use x="333.544922" xlink:href="#f"/>
<use x="394.824219" xlink:href="#h"/>
</g>
</g>
<path d="m340.1 352.2v33.808q0 2.4 2.4 2.4h7.7425q2.4 0 2.4-2.4v-33.808q0-2.4-2.4-2.4h-7.7425q-2.4 0-2.4 2.4z" clip-path="url(#a)" fill="#fff" stroke="#fff"/>
<g clip-path="url(#a)">
<g transform="translate(344.17 352.2) rotate(90) scale(.08 -.08)">
<use xlink:href="#l"/>
<use x="44.083984" xlink:href="#g"/>
<use x="105.607422" xlink:href="#i"/>
<use x="144.970703" xlink:href="#k"/>
<use x="242.382812" xlink:href="#d"/>
<use x="270.166016" xlink:href="#j"/>
<use x="333.544922" xlink:href="#f"/>
<use x="394.824219" xlink:href="#h"/>
</g>
</g>
<path d="m420.56 387.12 13.047-31.188q0.92624-2.2141-1.2878-3.1403l-7.1427-2.9881q-2.2141-0.92624-3.1403 1.2878l-13.047 31.188q-0.92624 2.2141 1.2878 3.1403l7.1427 2.9881q2.2141 0.92624 3.1403-1.2878z" clip-path="url(#a)" fill="#fff" stroke="#fff"/>
<g clip-path="url(#a)">
<g transform="translate(416.81 385.55) rotate(-67.298) scale(.08 -.08)">
<use xlink:href="#l"/>
<use x="44.083984" xlink:href="#g"/>
<use x="105.607422" xlink:href="#i"/>
<use x="144.970703" xlink:href="#k"/>
<use x="242.382812" xlink:href="#d"/>
<use x="270.166016" xlink:href="#j"/>
<use x="333.544922" xlink:href="#f"/>
<use x="394.824219" xlink:href="#h"/>
</g>
</g>
<path d="m440.93 355.93 13.047 31.188q0.92624 2.2141 3.1403 1.2878l7.1427-2.9881q2.2141-0.92624 1.2878-3.1403l-13.047-31.188q-0.92624-2.2141-3.1403-1.2878l-7.1427 2.9881q-2.2141 0.92624-1.2878 3.1403z" clip-path="url(#a)" fill="#fff" stroke="#fff"/>
<g clip-path="url(#a)">
<g transform="translate(444.68 354.36) rotate(67.298) scale(.08 -.08)">
<use xlink:href="#l"/>
<use x="44.083984" xlink:href="#g"/>
<use x="105.607422" xlink:href="#i"/>
<use x="144.970703" xlink:href="#k"/>
<use x="242.382812" xlink:href="#d"/>
<use x="270.166016" xlink:href="#j"/>
<use x="333.544922" xlink:href="#f"/>
<use x="394.824219" xlink:href="#h"/>
</g>
</g>
<path d="m531.72 352.2v33.808q0 2.4 2.4 2.4h7.7425q2.4 0 2.4-2.4v-33.808q0-2.4-2.4-2.4h-7.7425q-2.4 0-2.4 2.4z" clip-path="url(#a)" fill="#fff" stroke="#fff"/>
<g clip-path="url(#a)">
<g transform="translate(535.78 352.2) rotate(90) scale(.08 -.08)">
<use xlink:href="#l"/>
<use x="44.083984" xlink:href="#g"/>
<use x="105.607422" xlink:href="#i"/>
<use x="144.970703" xlink:href="#k"/>
<use x="242.382812" xlink:href="#d"/>
<use x="270.166016" xlink:href="#j"/>
<use x="333.544922" xlink:href="#f"/>
<use x="394.824219" xlink:href="#h"/>
</g>
</g>
<path d="m605.41 352.2v33.808q0 2.4 2.4 2.4h7.7425q2.4 0 2.4-2.4v-33.808q0-2.4-2.4-2.4h-7.7425q-2.4 0-2.4 2.4z" clip-path="url(#a)" fill="#fff" stroke="#fff"/>
<g clip-path="url(#a)">
<g transform="translate(609.48 352.2) rotate(90) scale(.08 -.08)">
<use xlink:href="#l"/>
<use x="44.083984" xlink:href="#g"/>
<use x="105.607422" xlink:href="#i"/>
<use x="144.970703" xlink:href="#k"/>
<use x="242.382812" xlink:href="#d"/>
<use x="270.166016" xlink:href="#j"/>
<use x="333.544922" xlink:href="#f"/>
<use x="394.824219" xlink:href="#h"/>
</g>
</g>
<path d="m684.02 352.2v33.808q0 2.4 2.4 2.4h7.7425q2.4 0 2.4-2.4v-33.808q0-2.4-2.4-2.4h-7.7425q-2.4 0-2.4 2.4z" clip-path="url(#a)" fill="#fff" stroke="#fff"/>
<g clip-path="url(#a)">
<g transform="translate(688.09 352.2) rotate(90) scale(.08 -.08)">
<use xlink:href="#l"/>
<use x="44.083984" xlink:href="#g"/>
<use x="105.607422" xlink:href="#i"/>
<use x="144.970703" xlink:href="#k"/>
<use x="242.382812" xlink:href="#d"/>
<use x="270.166016" xlink:href="#j"/>
<use x="333.544922" xlink:href="#f"/>
<use x="394.824219" xlink:href="#h"/>
</g>
</g>
<path d="m30.577 352.2v33.808q0 2.4 2.4 2.4h7.7425q2.4 0 2.4-2.4v-33.808q0-2.4-2.4-2.4h-7.7425q-2.4 0-2.4 2.4z" clip-path="url(#a)" fill="#fff" stroke="#fff"/>
<g clip-path="url(#a)">
<g transform="translate(34.641 352.2) rotate(90) scale(.08 -.08)">
<use xlink:href="#l"/>
<use x="44.083984" xlink:href="#g"/>
<use x="105.607422" xlink:href="#i"/>
<use x="144.970703" xlink:href="#k"/>
<use x="242.382812" xlink:href="#d"/>
<use x="270.166016" xlink:href="#j"/>
<use x="333.544922" xlink:href="#f"/>
<use x="394.824219" xlink:href="#h"/>
</g>
</g>
<path d="m45.317 352.2v33.808q0 2.4 2.4 2.4h7.7425q2.4 0 2.4-2.4v-33.808q0-2.4-2.4-2.4h-7.7425q-2.4 0-2.4 2.4z" clip-path="url(#a)" fill="#fff" stroke="#fff"/>
<g clip-path="url(#a)">
<g transform="translate(49.38 352.2) rotate(90) scale(.08 -.08)">
<use xlink:href="#l"/>
<use x="44.083984" xlink:href="#g"/>
<use x="105.607422" xlink:href="#i"/>
<use x="144.970703" xlink:href="#k"/>
<use x="242.382812" xlink:href="#d"/>
<use x="270.166016" xlink:href="#j"/>
<use x="333.544922" xlink:href="#f"/>
<use x="394.824219" xlink:href="#h"/>
</g>
</g>
<path d="m160.47 294.12 3.4831 4.2209q1.5276 1.8511 3.3787 0.32355l5.9717-4.9279q1.8511-1.5276 0.32355-3.3787l-3.4831-4.2209q-1.5276-1.8511-3.3787-0.32355l-5.9717 4.9279q-1.8511 1.5276-0.32355 3.3787z" clip-path="url(#a)" fill="#fff" stroke="#fff"/>
<g clip-path="url(#a)">
<g transform="translate(163.6 291.53) rotate(50.47) scale(.08 -.08)">
<use xlink:href="#m"/>
</g>
</g>
<path d="m103.9 301.42 8.431-10.217q1.5276-1.8511-0.32355-3.3787l-6.1703-5.0918q-1.8511-1.5276-3.3787 0.32355l-8.431 10.217q-1.5276 1.8511 0.32355 3.3787l6.1703 5.0918q1.8511 1.5276 3.3787-0.32355z" clip-path="url(#a)" fill="#fff" stroke="#fff"/>
<g clip-path="url(#a)">
<g transform="translate(100.59 298.69) rotate(-50.47) scale(.08 -.08)">
<defs>
<path id="ar" d="m21 76.422v-100h-8.2969v100z"/>
<path id="w" d="m53.516 70.516v-9.625q-5.6094 2.6875-10.594 4-4.9844 1.3281-9.625 1.3281-8.0469 0-12.422-3.125t-4.375-8.8906q0-4.8438 2.9062-7.3125 2.9062-2.4531 11.016-3.9688l5.9531-1.2188q11.031-2.1094 16.281-7.4062t5.25-14.172q0-10.609-7.1094-16.078-7.0938-5.4688-20.812-5.4688-5.1719 0-11.016 1.1719-5.8281 1.1719-12.078 3.4688v10.156q6-3.3594 11.766-5.0781 5.7656-1.7031 11.328-1.7031 8.4375 0 13.031 3.3125 4.5938 3.3281 4.5938 9.4844 0 5.3594-3.2969 8.3906t-10.812 4.5469l-6.0156 1.1719q-11.031 2.1875-15.969 6.875-4.9219 4.6875-4.9219 13.047 0 9.6719 6.8125 15.234t18.766 5.5625q5.1406 0 10.453-0.9375 5.3281-0.92188 10.891-2.7656z"/>
</defs>
<use xlink:href="#m"/>
<use x="68.408203" xlink:href="#ar"/>
<use x="102.099609" xlink:href="#w"/>
</g>
</g>
<path d="m158.26 219.03 1.6134-4.7906q0.766-2.2745-1.5085-3.0405l-7.3376-2.4712q-2.2745-0.766-3.0405 1.5085l-1.6134 4.7906q-0.766 2.2745 1.5085 3.0405l7.3376 2.4712q2.2745 0.766 3.0405-1.5085z" clip-path="url(#a)" fill="#fff" stroke="#fff"/>
<g clip-path="url(#a)">
<g transform="translate(154.41 217.73) rotate(-71.387) scale(.08 -.08)">
<defs>
<path id="z" d="m9.8125 72.906h46.094v-8.3125h-36.234v-21.578h34.719v-8.2969h-34.719v-26.422h37.109v-8.2969h-46.969z"/>
</defs>
<use xlink:href="#z"/>
</g>
</g>
<path d="m168.99 217.68 0.42411-5.0372q0.20136-2.3915-2.1902-2.5929l-7.7152-0.64958q-2.3915-0.20136-2.5929 2.1902l-0.42411 5.0372q-0.20136 2.3915 2.1902 2.5929l7.7152 0.64959q2.3915 0.20136 2.5929-2.1902z" clip-path="url(#a)" fill="#fff" stroke="#fff"/>
<g clip-path="url(#a)">
<g transform="translate(164.94 217.34) rotate(-85.187) scale(.08 -.08)">
<use xlink:href="#z"/>
</g>
</g>
<path d="m175.89 251.9 1.1535 5.4659q0.49558 2.3483 2.8439 1.8527l7.5756-1.5988q2.3483-0.49558 1.8527-2.8439l-1.1535-5.4659q-0.49558-2.3483-2.8439-1.8527l-7.5756 1.5988q-2.3483 0.49558-1.8527 2.8439z" clip-path="url(#a)" fill="#fff" stroke="#fff"/>
<g clip-path="url(#a)">
<g transform="translate(179.87 251.06) rotate(78.083) scale(.08 -.08)">
<defs>
<path id="ab" d="m64.406 67.281v-10.391q-4.9844 4.6406-10.625 6.9219-5.6406 2.2969-11.984 2.2969-12.5 0-19.141-7.6406t-6.6406-22.094q0-14.406 6.6406-22.047t19.141-7.6406q6.3438 0 11.984 2.2969t10.625 6.9375v-10.312q-5.1719-3.5156-10.969-5.2812-5.7812-1.75-12.219-1.75-16.562 0-26.094 10.125-9.5156 10.141-9.5156 27.672 0 17.578 9.5156 27.703 9.5312 10.141 26.094 10.141 6.5312 0 12.312-1.7344 5.7969-1.7344 10.875-5.2031z"/>
</defs>
<use xlink:href="#ab"/>
</g>
</g>
<path d="m162.86 293.86 3.3161 4.3534q1.4543 1.9092 3.3635 0.4549l6.1591-4.6916q1.9092-1.4543 0.4549-3.3635l-3.3161-4.3534q-1.4543-1.9092-3.3635-0.4549l-6.1591 4.6916q-1.9092 1.4543-0.4549 3.3635z" clip-path="url(#a)" fill="#fff" stroke="#fff"/>
<g clip-path="url(#a)">
<g transform="translate(166.09 291.4) rotate(52.702) scale(.08 -.08)">
<use xlink:href="#m"/>
</g>
</g>
<path d="m122.1 297.55 2.5193-4.4098q1.1905-2.0839-0.89337-3.2744l-6.7227-3.8407q-2.0839-1.1905-3.2744 0.89337l-2.5193 4.4098q-1.1905 2.0839 0.89337 3.2744l6.7227 3.8407q2.0839 1.1905 3.2744-0.89337z" clip-path="url(#a)" fill="#fff" stroke="#fff"/>
<g clip-path="url(#a)">
<g transform="translate(118.57 295.54) rotate(-60.261) scale(.08 -.08)">
<use xlink:href="#w"/>
</g>
</g>
<path d="m138.3 296.1 1.0237-5.3759q0.44897-2.3576-1.9087-2.8066l-7.6058-1.4484q-2.3576-0.44897-2.8066 1.9087l-1.0237 5.3759q-0.44897 2.3576 1.9087 2.8066l7.6058 1.4484q2.3576 0.44897 2.8066-1.9087z" clip-path="url(#a)" fill="#fff" stroke="#fff"/>
<g clip-path="url(#a)">
<g transform="translate(134.31 295.34) rotate(-79.218) scale(.08 -.08)">
<use xlink:href="#m"/>
</g>
</g>
<path d="m153.41 289.82v4.8238q0 2.4 2.4 2.4h7.7425q2.4 0 2.4-2.4v-4.8238q0-2.4-2.4-2.4h-7.7425q-2.4 0-2.4 2.4z" clip-path="url(#a)" fill="#fff" stroke="#fff"/>
<g clip-path="url(#a)">
<g transform="translate(157.47 289.82) rotate(90) scale(.08 -.08)">
<use xlink:href="#t"/>
</g>
</g>
<path d="m192.71 352.2v33.808q0 2.4 2.4 2.4h7.7425q2.4 0 2.4-2.4v-33.808q0-2.4-2.4-2.4h-7.7425q-2.4 0-2.4 2.4z" clip-path="url(#a)" fill="#fff" stroke="#fff"/>
<g clip-path="url(#a)">
<g transform="translate(196.77 352.2) rotate(90) scale(.08 -.08)">
<use xlink:href="#l"/>
<use x="44.083984" xlink:href="#g"/>
<use x="105.607422" xlink:href="#i"/>
<use x="144.970703" xlink:href="#k"/>
<use x="242.382812" xlink:href="#d"/>
<use x="270.166016" xlink:href="#j"/>
<use x="333.544922" xlink:href="#f"/>
<use x="394.824219" xlink:href="#h"/>
</g>
</g>
<path d="m153.41 352.2v33.808q0 2.4 2.4 2.4h7.7425q2.4 0 2.4-2.4v-33.808q0-2.4-2.4-2.4h-7.7425q-2.4 0-2.4 2.4z" clip-path="url(#a)" fill="#fff" stroke="#fff"/>
<g clip-path="url(#a)">
<g transform="translate(157.47 352.2) rotate(90) scale(.08 -.08)">
<use xlink:href="#l"/>
<use x="44.083984" xlink:href="#g"/>
<use x="105.607422" xlink:href="#i"/>
<use x="144.970703" xlink:href="#k"/>
<use x="242.382812" xlink:href="#d"/>
<use x="270.166016" xlink:href="#j"/>
<use x="333.544922" xlink:href="#f"/>
<use x="394.824219" xlink:href="#h"/>
</g>
</g>
<path d="m89.535 352.2v33.808q0 2.4 2.4 2.4h7.7425q2.4 0 2.4-2.4v-33.808q0-2.4-2.4-2.4h-7.7425q-2.4 0-2.4 2.4z" clip-path="url(#a)" fill="#fff" stroke="#fff"/>
<g clip-path="url(#a)">
<g transform="translate(93.599 352.2) rotate(90) scale(.08 -.08)">
<use xlink:href="#l"/>
<use x="44.083984" xlink:href="#g"/>
<use x="105.607422" xlink:href="#i"/>
<use x="144.970703" xlink:href="#k"/>
<use x="242.382812" xlink:href="#d"/>
<use x="270.166016" xlink:href="#j"/>
<use x="333.544922" xlink:href="#f"/>
<use x="394.824219" xlink:href="#h"/>
</g>
</g>
<path d="m119.01 352.2v33.808q0 2.4 2.4 2.4h7.7425q2.4 0 2.4-2.4v-33.808q0-2.4-2.4-2.4h-7.7425q-2.4 0-2.4 2.4z" clip-path="url(#a)" fill="#fff" stroke="#fff"/>
<g clip-path="url(#a)">
<g transform="translate(123.08 352.2) rotate(90) scale(.08 -.08)">
<use xlink:href="#l"/>
<use x="44.083984" xlink:href="#g"/>
<use x="105.607422" xlink:href="#i"/>
<use x="144.970703" xlink:href="#k"/>
<use x="242.382812" xlink:href="#d"/>
<use x="270.166016" xlink:href="#j"/>
<use x="333.544922" xlink:href="#f"/>
<use x="394.824219" xlink:href="#h"/>
</g>
</g>
<path d="m64.969 352.2v33.808q0 2.4 2.4 2.4h7.7425q2.4 0 2.4-2.4v-33.808q0-2.4-2.4-2.4h-7.7425q-2.4 0-2.4 2.4z" clip-path="url(#a)" fill="#fff" stroke="#fff"/>
<g clip-path="url(#a)">
<g transform="translate(69.033 352.2) rotate(90) scale(.08 -.08)">
<use xlink:href="#l"/>
<use x="44.083984" xlink:href="#g"/>
<use x="105.607422" xlink:href="#i"/>
<use x="144.970703" xlink:href="#k"/>
<use x="242.382812" xlink:href="#d"/>
<use x="270.166016" xlink:href="#j"/>
<use x="333.544922" xlink:href="#f"/>
<use x="394.824219" xlink:href="#h"/>
</g>
</g>
<path d="m767.55 352.2v33.808q0 2.4 2.4 2.4h7.7425q2.4 0 2.4-2.4v-33.808q0-2.4-2.4-2.4h-7.7425q-2.4 0-2.4 2.4z" clip-path="url(#a)" fill="#fff" stroke="#fff"/>
<g clip-path="url(#a)">
<g transform="translate(771.61 352.2) rotate(90) scale(.08 -.08)">
<use xlink:href="#l"/>
<use x="44.083984" xlink:href="#g"/>
<use x="105.607422" xlink:href="#i"/>
<use x="144.970703" xlink:href="#k"/>
<use x="242.382812" xlink:href="#d"/>
<use x="270.166016" xlink:href="#j"/>
<use x="333.544922" xlink:href="#f"/>
<use x="394.824219" xlink:href="#h"/>
</g>
</g>
<defs>
<path id="b" d="m0 8.6603c2.2967 0 4.4997-0.9125 6.1237-2.5365 1.624-1.624 2.5365-3.827 2.5365-6.1237s-0.9125-4.4997-2.5365-6.1237c-1.624-1.624-3.827-2.5365-6.1237-2.5365s-4.4997 0.9125-6.1237 2.5365c-1.624 1.624-2.5365 3.827-2.5365 6.1237s0.9125 4.4997 2.5365 6.1237c1.624 1.624 3.827 2.5365 6.1237 2.5365z"/>
</defs>
<g clip-path="url(#a)" fill="#ffffff" stroke="#ffffff">
<use x="36.848485" y="407.272727" xlink:href="#b"/>
<use x="51.587879" y="407.272727" xlink:href="#b"/>
<use x="71.240404" y="407.272727" xlink:href="#b"/>
<use x="95.806061" y="407.272727" xlink:href="#b"/>
<use x="125.284848" y="407.272727" xlink:href="#b"/>
<use x="159.676768" y="407.272727" xlink:href="#b"/>
<use x="198.981818" y="407.272727" xlink:href="#b"/>
<use x="243.2" y="407.272727" xlink:href="#b"/>
<use x="292.331313" y="407.272727" xlink:href="#b"/>
<use x="346.375758" y="407.272727" xlink:href="#b"/>
<use x="405.333333" y="407.272727" xlink:href="#b"/>
<use x="469.20404" y="407.272727" xlink:href="#b"/>
<use x="537.987879" y="407.272727" xlink:href="#b"/>
<use x="611.684848" y="407.272727" xlink:href="#b"/>
<use x="690.294949" y="407.272727" xlink:href="#b"/>
<use x="773.818182" y="407.272727" xlink:href="#b"/>
<use x="289.250858" y="19.393939" xlink:href="#b"/>
<use x="97.443771" y="97.661346" xlink:href="#b"/>
<use x="243.2" y="330.93551" xlink:href="#b"/>
<use x="527.108802" y="253.536358" xlink:href="#b"/>
<use x="292.331313" y="330.93551" xlink:href="#b"/>
<use x="346.375758" y="330.93551" xlink:href="#b"/>
<use x="437.268687" y="330.93551" xlink:href="#b"/>
<use x="537.987879" y="330.93551" xlink:href="#b"/>
<use x="611.684848" y="330.93551" xlink:href="#b"/>
<use x="690.294949" y="330.93551" xlink:href="#b"/>
<use x="36.848485" y="330.93551" xlink:href="#b"/>
<use x="51.587879" y="330.93551" xlink:href="#b"/>
<use x="135.111111" y="253.536358" xlink:href="#b"/>
<use x="166.227609" y="175.731254" xlink:href="#b"/>
<use x="140.024242" y="253.536358" xlink:href="#b"/>
<use x="159.676768" y="253.536358" xlink:href="#b"/>
<use x="198.981818" y="330.93551" xlink:href="#b"/>
<use x="159.676768" y="330.93551" xlink:href="#b"/>
<use x="95.806061" y="330.93551" xlink:href="#b"/>
<use x="125.284848" y="330.93551" xlink:href="#b"/>
<use x="71.240404" y="330.93551" xlink:href="#b"/>
<use x="773.818182" y="330.93551" xlink:href="#b"/>
</g>
<g clip-path="url(#a)">
<g transform="translate(35.373 410.03) scale(.1 -.1)">
<defs>
<path id="x" d="m9.8125 72.906h9.8594v-72.906h-9.8594z"/>
</defs>
<use xlink:href="#x"/>
</g>
</g>
<g clip-path="url(#a)">
<g transform="translate(35.035 410.03) scale(.1 -.1)">
<defs>
<path id="aj" d="m2.9844 54.688h9.5156l17.094-45.891 17.094 45.891h9.5156l-20.516-54.688h-12.203z"/>
<path id="r" d="m44.281 53.078v-8.5q-3.7969 1.9531-7.9062 2.9219-4.0938 0.98438-8.5 0.98438-6.6875 0-10.031-2.0469t-3.3438-6.1562q0-3.125 2.3906-4.9062t9.625-3.3906l3.0781-0.6875q9.5625-2.0469 13.594-5.7812t4.0312-10.422q0-7.625-6.0312-12.078-6.0312-4.4375-16.578-4.4375-4.3906 0-9.1562 0.85938t-10.031 2.5625v9.2812q4.9844-2.5938 9.8125-3.8906 4.8281-1.2812 9.5781-1.2812 6.3438 0 9.75 2.1719 3.4219 2.1719 3.4219 6.125 0 3.6562-2.4688 5.6094-2.4531 1.9531-10.812 3.7656l-3.125 0.73438q-8.3438 1.75-12.062 5.3906-3.7031 3.6406-3.7031 9.9844 0 7.7188 5.4688 11.906 5.4688 4.2031 15.531 4.2031 4.9688 0 9.3594-0.73438 4.4062-0.71875 8.1094-2.1875z"/>
<path id="q" d="m18.312 70.219v-15.531h18.5v-6.9844h-18.5v-29.688q0-6.6875 1.8281-8.5938t7.4531-1.9062h9.2188v-7.5156h-9.2188q-10.406 0-14.359 3.875-3.9531 3.8906-3.9531 14.141v29.688h-6.5938v6.9844h6.5938v15.531z"/>
<path id="ak" d="m45.406 46.391v29.594h8.9844v-75.984h-8.9844v8.2031q-2.8281-4.875-7.1562-7.25-4.3125-2.375-10.375-2.375-9.9062 0-16.141 7.9062-6.2188 7.9219-6.2188 20.812t6.2188 20.797q6.2344 7.9062 16.141 7.9062 6.0625 0 10.375-2.375 4.3281-2.3594 7.1562-7.2344zm-30.609-19.094q0-9.9062 4.0781-15.547t11.203-5.6406 11.219 5.6406q4.1094 5.6406 4.1094 15.547t-4.1094 15.547q-4.0938 5.6406-11.219 5.6406t-11.203-5.6406-4.0781-15.547z"/>
</defs>
<use xlink:href="#aj"/>
<use x="59.179688" xlink:href="#d"/>
<use x="86.962891" xlink:href="#r"/>
<use x="139.0625" xlink:href="#d"/>
<use x="166.845703" xlink:href="#q"/>
<use x="206.054688" xlink:href="#g"/>
<use x="267.578125" xlink:href="#ak"/>
</g>
</g>
<g clip-path="url(#a)">
<g transform="translate(59.59 410.03) scale(.1 -.1)">
<defs>
<path id="o" d="m54.891 33.016v-33.016h-8.9844v32.719q0 7.7656-3.0312 11.609-3.0312 3.8594-9.0781 3.8594-7.2812 0-11.484-4.6406-4.2031-4.625-4.2031-12.641v-30.906h-9.0312v75.984h9.0312v-29.797q3.2344 4.9375 7.5938 7.375 4.375 2.4375 10.094 2.4375 9.4219 0 14.25-5.8281 4.8438-5.8281 4.8438-17.156z"/>
</defs>
<use xlink:href="#q"/>
<use x="39.208984" xlink:href="#o"/>
<use x="102.587891" xlink:href="#g"/>
<use x="164.111328" xlink:href="#d"/>
<use x="191.894531" xlink:href="#i"/>
</g>
</g>
<g clip-path="url(#a)">
<g transform="translate(83.218 410.03) scale(.1 -.1)">
<defs>
<path id="au" d="m8.5 21.578v33.109h8.9844v-32.766q0-7.7656 3.0156-11.656 3.0312-3.875 9.0938-3.875 7.2656 0 11.484 4.6406 4.2344 4.6406 4.2344 12.656v31h8.9844v-54.688h-8.9844v8.4062q-3.2656-4.9844-7.5938-7.4062-4.3125-2.4219-10.031-2.4219-9.4219 0-14.312 5.8594-4.875 5.8594-4.875 17.141z"/>
<path id="s" d="m45.406 27.984q0 9.7656-4.0312 15.125-4.0156 5.375-11.297 5.375-7.2188 0-11.25-5.375-4.0312-5.3594-4.0312-15.125 0-9.7188 4.0312-15.094t11.25-5.375q7.2812 0 11.297 5.375 4.0312 5.375 4.0312 15.094zm8.9844-21.203q0-13.953-6.2031-20.766-6.1875-6.8125-18.984-6.8125-4.7344 0-8.9375 0.70312t-8.1562 2.1719v8.7344q3.9531-2.1406 7.8125-3.1562 3.8594-1.0312 7.8594-1.0312 8.8438 0 13.234 4.6094t4.3906 13.938v4.4531q-2.7812-4.8438-7.125-7.2344t-10.406-2.3906q-10.047 0-16.203 7.6562-6.1562 7.6719-6.1562 20.328 0 12.688 6.1562 20.344 6.1562 7.6719 16.203 7.6719 6.0625 0 10.406-2.3906t7.125-7.2188v8.2969h8.9844z"/>
</defs>
<use xlink:href="#o"/>
<use x="63.378906" xlink:href="#au"/>
<use x="126.757812" xlink:href="#s"/>
<use x="190.234375" xlink:href="#g"/>
</g>
</g>
<g clip-path="url(#a)">
<g transform="translate(105.19 410.03) scale(.1 -.1)">
<defs>
<path id="al" d="m48.781 52.594v-8.4062q-3.8125 2.1094-7.6406 3.1562t-7.7344 1.0469q-8.75 0-13.594-5.5469-4.8281-5.5312-4.8281-15.547t4.8281-15.562q4.8438-5.5312 13.594-5.5312 3.9062 0 7.7344 1.0469t7.6406 3.1562v-8.3125q-3.7656-1.75-7.7969-2.625-4.0156-0.89062-8.5625-0.89062-12.359 0-19.641 7.7656-7.2656 7.7656-7.2656 20.953 0 13.375 7.3438 21.031 7.3594 7.6719 20.156 7.6719 4.1406 0 8.0938-0.85938 3.9531-0.84375 7.6719-2.5469z"/>
<path id="p" d="m30.609 48.391q-7.2188 0-11.422-5.6406t-4.2031-15.453 4.1719-15.453q4.1875-5.6406 11.453-5.6406 7.1875 0 11.375 5.6562 4.2031 5.6719 4.2031 15.438 0 9.7188-4.2031 15.406-4.1875 5.6875-11.375 5.6875zm0 7.6094q11.719 0 18.406-7.625 6.7031-7.6094 6.7031-21.078 0-13.422-6.7031-21.078-6.6875-7.6406-18.406-7.6406-11.766 0-18.438 7.6406-6.6562 7.6562-6.6562 21.078 0 13.469 6.6562 21.078 6.6719 7.625 18.438 7.625z"/>
</defs>
<use xlink:href="#ab"/>
<use x="69.824219" xlink:href="#o"/>
<use x="133.203125" xlink:href="#d"/>
<use x="160.986328" xlink:href="#al"/>
<use x="215.966797" xlink:href="#f"/>
<use x="277.246094" xlink:href="#s"/>
<use x="340.722656" xlink:href="#p"/>
</g>
</g>
<g clip-path="url(#a)">
<g transform="translate(140.86 410.03) scale(.1 -.1)">
<use xlink:href="#h"/>
<use x="27.783203" xlink:href="#d"/>
<use x="55.566406" xlink:href="#s"/>
<use x="119.042969" xlink:href="#o"/>
<use x="182.421875" xlink:href="#q"/>
<use x="221.630859" xlink:href="#d"/>
<use x="249.414062" xlink:href="#j"/>
<use x="312.792969" xlink:href="#s"/>
</g>
</g>
<g clip-path="url(#a)">
<g transform="translate(173.13 410.03) scale(.1 -.1)">
<defs>
<path id="at" d="m4.2031 54.688h8.9844l11.234-42.672 11.172 42.672h10.594l11.234-42.672 11.188 42.672h8.9844l-14.312-54.688h-10.594l-11.766 44.828-11.812-44.828h-10.609z"/>
</defs>
<use xlink:href="#r"/>
<use x="52.099609" xlink:href="#o"/>
<use x="115.478516" xlink:href="#p"/>
<use x="176.660156" xlink:href="#at"/>
<use x="258.447266" xlink:href="#i"/>
<use x="297.310547" xlink:href="#p"/>
<use x="358.492188" xlink:href="#p"/>
<use x="419.673828" xlink:href="#k"/>
</g>
</g>
<g clip-path="url(#a)">
<g transform="translate(233.79 410.03) scale(.1 -.1)">
<use xlink:href="#f"/>
<use x="61.279297" xlink:href="#j"/>
<use x="124.658203" xlink:href="#ak"/>
</g>
</g>
<g clip-path="url(#a)">
<g transform="translate(286.49 410.03) scale(.1 -.1)">
<use xlink:href="#f"/>
<use x="61.279297" xlink:href="#h"/>
<use x="89.0625" xlink:href="#h"/>
</g>
</g>
<g clip-path="url(#a)">
<g transform="translate(344.9 410.03) scale(.1 -.1)">
<use xlink:href="#x"/>
</g>
</g>
<g clip-path="url(#a)">
<g transform="translate(393.06 410.03) scale(.1 -.1)">
<use xlink:href="#o"/>
<use x="63.378906" xlink:href="#f"/>
<use x="124.658203" xlink:href="#aj"/>
<use x="183.837891" xlink:href="#g"/>
</g>
</g>
<g clip-path="url(#a)">
<g transform="translate(464.18 410.03) scale(.1 -.1)">
<use xlink:href="#q"/>
<use x="39.208984" xlink:href="#p"/>
</g>
</g>
<g clip-path="url(#a)">
<g transform="translate(529.36 410.03) scale(.1 -.1)">
<defs>
<path id="as" d="m32.172-5.0781q-3.7969-9.7656-7.4219-12.734-3.6094-2.9844-9.6562-2.9844h-7.1875v7.5156h5.2812q3.7031 0 5.75 1.7656 2.0625 1.75 4.5469 8.2969l1.6094 4.0938-22.109 53.812h9.5156l17.094-42.766 17.094 42.766h9.5156z"/>
</defs>
<use xlink:href="#r"/>
<use x="52.099609" xlink:href="#f"/>
<use x="113.378906" xlink:href="#as"/>
</g>
</g>
<g clip-path="url(#a)">
<g transform="translate(607.69 410.03) scale(.1 -.1)">
<use xlink:href="#d"/>
<use x="27.783203" xlink:href="#r"/>
</g>
</g>
<g clip-path="url(#a)">
<g transform="translate(676.47 410.03) scale(.1 -.1)">
<defs>
<path id="v" d="m3.3281 72.906h9.9531l15.328-61.625 15.281 61.625h11.094l15.328-61.625 15.281 61.625h10.016l-18.312-72.906h-12.406l-15.375 63.281-15.531-63.281h-12.406z"/>
<path id="an" d="m39.406 66.219q-10.75 0-17.078-8.0156-6.3125-8-6.3125-21.828 0-13.766 6.3125-21.781 6.3281-8 17.078-8 10.734 0 17.016 8 6.2812 8.0156 6.2812 21.781 0 13.828-6.2812 21.828-6.2812 8.0156-17.016 8.0156zm0 8q15.328 0 24.5-10.281 9.1875-10.281 9.1875-27.562 0-17.234-9.1875-27.516-9.1719-10.281-24.5-10.281-15.375 0-24.594 10.25-9.2031 10.266-9.2031 27.547t9.2031 27.562q9.2188 10.281 24.594 10.281z"/>
</defs>
<use xlink:href="#v"/>
<use x="98.876953" xlink:href="#an"/>
<use x="177.587891" xlink:href="#v"/>
</g>
</g>
<g clip-path="url(#a)">
<g transform="translate(769.81 410.03) scale(.1 -.1)">
<defs>
<path id="ai" d="m15.094 12.406h9.9062v-12.406h-9.9062zm0 60.5h9.9062v-31.984l-0.96875-17.438h-7.9219l-1.0156 17.438z"/>
</defs>
<use xlink:href="#ai"/>
<use x="40.087891" xlink:href="#ai"/>
</g>
</g>
<g clip-path="url(#a)">
<g transform="translate(281.3 22.153) scale(.1 -.1)">
<defs>
<path id="c" d="m12.406 8.2969h16.109v55.625l-17.531-3.5156v8.9844l17.438 3.5156h9.8594v-64.609h16.109v-8.2969h-41.984z"/>
<path id="e" d="m10.688 12.406h10.312v-12.406h-10.312z"/>
</defs>
<use xlink:href="#c"/>
<use x="63.623047" xlink:href="#e"/>
<use x="95.410156" xlink:href="#c"/>
</g>
</g>
<g clip-path="url(#a)">
<g transform="translate(89.492 100.42) scale(.1 -.1)">
<defs>
<path id="n" d="m19.188 8.2969h34.422v-8.2969h-46.281v8.2969q5.6094 5.8125 15.297 15.594 9.7031 9.7969 12.188 12.641 4.7344 5.3125 6.6094 9 1.8906 3.6875 1.8906 7.25 0 5.8125-4.0781 9.4688-4.0781 3.6719-10.625 3.6719-4.6406 0-9.7969-1.6094-5.1406-1.6094-11-4.8906v9.9688q5.9531 2.3906 11.125 3.6094 5.1875 1.2188 9.4844 1.2188 11.328 0 18.062-5.6719 6.7344-5.6562 6.7344-15.125 0-4.5-1.6875-8.5312-1.6719-4.0156-6.125-9.4844-1.2188-1.4219-7.7656-8.1875-6.5312-6.7656-18.453-18.922z"/>
</defs>
<use xlink:href="#c"/>
<use x="63.623047" xlink:href="#e"/>
<use x="95.410156" xlink:href="#n"/>
</g>
</g>
<g clip-path="url(#a)">
<g transform="translate(235.25 333.69) scale(.1 -.1)">
<defs>
<path id="u" d="m40.578 39.312q7.0781-1.5156 11.047-6.3125 3.9844-4.7812 3.9844-11.812 0-10.781-7.4219-16.703-7.4219-5.9062-21.094-5.9062-4.5781 0-9.4375 0.90625t-10.031 2.7188v9.5156q4.0938-2.3906 8.9688-3.6094 4.8906-1.2188 10.219-1.2188 9.2656 0 14.125 3.6562t4.8594 10.641q0 6.4531-4.5156 10.078-4.5156 3.6406-12.562 3.6406h-8.5v8.1094h8.8906q7.2656 0 11.125 2.9062t3.8594 8.375q0 5.6094-3.9844 8.6094-3.9688 3.0156-11.391 3.0156-4.0625 0-8.7031-0.89062-4.6406-0.875-10.203-2.7188v8.7812q5.625 1.5625 10.531 2.3438t9.25 0.78125q11.234 0 17.766-5.1094 6.5469-5.0938 6.5469-13.781 0-6.0625-3.4688-10.234t-9.8594-5.7812z"/>
</defs>
<use xlink:href="#c"/>
<use x="63.623047" xlink:href="#e"/>
<use x="95.410156" xlink:href="#u"/>
</g>
</g>
<g clip-path="url(#a)">
<g transform="translate(519.16 256.3) scale(.1 -.1)">
<defs>
<path id="ag" d="m37.797 64.312-24.906-38.922h24.906zm-2.5938 8.5938h12.406v-47.516h10.406v-8.2031h-10.406v-17.188h-9.8125v17.188h-32.906v9.5156z"/>
</defs>
<use xlink:href="#c"/>
<use x="63.623047" xlink:href="#e"/>
<use x="95.410156" xlink:href="#ag"/>
</g>
</g>
<g clip-path="url(#a)">
<g transform="translate(284.38 333.69) scale(.1 -.1)">
<defs>
<path id="af" d="m33.016 40.375q-6.6406 0-10.531-4.5469-3.875-4.5312-3.875-12.438 0-7.8594 3.875-12.438 3.8906-4.5625 10.531-4.5625t10.516 4.5625q3.875 4.5781 3.875 12.438 0 7.9062-3.875 12.438-3.875 4.5469-10.516 4.5469zm19.578 30.922v-8.9844q-3.7188 1.75-7.5 2.6719-3.7812 0.9375-7.5 0.9375-9.7656 0-14.922-6.5938-5.1406-6.5938-5.875-19.922 2.875 4.25 7.2188 6.5156 4.3594 2.2656 9.5781 2.2656 10.984 0 17.359-6.6719 6.375-6.6562 6.375-18.125 0-11.234-6.6406-18.031-6.6406-6.7812-17.672-6.7812-12.656 0-19.344 9.6875-6.6875 9.7031-6.6875 28.109 0 17.281 8.2031 27.562t22.016 10.281q3.7188 0 7.5-0.73438t7.8906-2.1875z"/>
</defs>
<use xlink:href="#c"/>
<use x="63.623047" xlink:href="#e"/>
<use x="95.410156" xlink:href="#af"/>
</g>
</g>
<g clip-path="url(#a)">
<g transform="translate(338.42 333.69) scale(.1 -.1)">
<defs>
<path id="ae" d="m8.2031 72.906h46.875v-4.2031l-26.469-68.703h-10.297l24.906 64.594h-35.016z"/>
</defs>
<use xlink:href="#c"/>
<use x="63.623047" xlink:href="#e"/>
<use x="95.410156" xlink:href="#ae"/>
</g>
</g>
<g clip-path="url(#a)">
<g transform="translate(429.32 333.69) scale(.1 -.1)">
<defs>
<path id="ad" d="m31.781 34.625q-7.0312 0-11.062-3.7656-4.0156-3.7656-4.0156-10.344 0-6.5938 4.0156-10.359 4.0312-3.7656 11.062-3.7656t11.078 3.7812q4.0625 3.7969 4.0625 10.344 0 6.5781-4.0312 10.344-4.0156 3.7656-11.109 3.7656zm-9.8594 4.1875q-6.3438 1.5625-9.8906 5.9062-3.5312 4.3594-3.5312 10.609 0 8.7344 6.2188 13.812 6.2344 5.0781 17.062 5.0781 10.891 0 17.094-5.0781t6.2031-13.812q0-6.25-3.5469-10.609-3.5312-4.3438-9.8281-5.9062 7.125-1.6562 11.094-6.5 3.9844-4.8281 3.9844-11.797 0-10.609-6.4688-16.281-6.4688-5.6562-18.531-5.6562-12.047 0-18.531 5.6562-6.4688 5.6719-6.4688 16.281 0 6.9688 4 11.797 4.0156 4.8438 11.141 6.5zm-3.6094 15.578q0-5.6562 3.5312-8.8281 3.5469-3.1719 9.9375-3.1719 6.3594 0 9.9375 3.1719 3.5938 3.1719 3.5938 8.8281 0 5.6719-3.5938 8.8438-3.5781 3.1719-9.9375 3.1719-6.3906 0-9.9375-3.1719-3.5312-3.1719-3.5312-8.8438z"/>
</defs>
<use xlink:href="#c"/>
<use x="63.623047" xlink:href="#e"/>
<use x="95.410156" xlink:href="#ad"/>
</g>
</g>
<g clip-path="url(#a)">
<g transform="translate(530.04 333.69) scale(.1 -.1)">
<defs>
<path id="ac" d="m10.984 1.5156v8.9844q3.7188-1.7656 7.5156-2.6875 3.8125-0.92188 7.4844-0.92188 9.7656 0 14.906 6.5625 5.1562 6.5625 5.8906 19.953-2.8281-4.2031-7.1875-6.4531-4.3438-2.25-9.6094-2.25-10.938 0-17.312 6.6094-6.375 6.625-6.375 18.109 0 11.219 6.6406 18 6.6406 6.7969 17.672 6.7969 12.656 0 19.312-9.7031 6.6719-9.6875 6.6719-28.141 0-17.234-8.1875-27.516-8.1719-10.281-21.984-10.281-3.7188 0-7.5312 0.73438-3.7969 0.73438-7.9062 2.2031zm19.625 30.906q6.6406 0 10.516 4.5312 3.8906 4.5469 3.8906 12.469 0 7.8594-3.8906 12.422-3.875 4.5625-10.516 4.5625t-10.516-4.5625-3.875-12.422q0-7.9219 3.875-12.469 3.875-4.5312 10.516-4.5312z"/>
</defs>
<use xlink:href="#c"/>
<use x="63.623047" xlink:href="#e"/>
<use x="95.410156" xlink:href="#ac"/>
</g>
</g>
<g clip-path="url(#a)">
<g transform="translate(600.55 333.69) scale(.1 -.1)">
<defs>
<path id="ah" d="m31.781 66.406q-7.6094 0-11.453-7.5-3.8281-7.4844-3.8281-22.531 0-14.984 3.8281-22.484 3.8438-7.5 11.453-7.5 7.6719 0 11.5 7.5 3.8438 7.5 3.8438 22.484 0 15.047-3.8438 22.531-3.8281 7.5-11.5 7.5zm0 7.8125q12.266 0 18.734-9.7031 6.4688-9.6875 6.4688-28.141 0-18.406-6.4688-28.109-6.4688-9.6875-18.734-9.6875-12.25 0-18.719 9.6875-6.4688 9.7031-6.4688 28.109 0 18.453 6.4688 28.141 6.4688 9.7031 18.719 9.7031z"/>
</defs>
<use xlink:href="#c"/>
<use x="63.623047" xlink:href="#e"/>
<use x="95.410156" xlink:href="#c"/>
<use x="159.033203" xlink:href="#ah"/>
</g>
</g>
<g clip-path="url(#a)">
<g transform="translate(679.16 333.69) scale(.1 -.1)">
<use xlink:href="#c"/>
<use x="63.623047" xlink:href="#e"/>
<use x="95.410156" xlink:href="#c"/>
<use x="159.033203" xlink:href="#c"/>
</g>
</g>
<g clip-path="url(#a)">
<g transform="translate(25.716 333.69) scale(.1 -.1)">
<use xlink:href="#c"/>
<use x="63.623047" xlink:href="#e"/>
<use x="95.410156" xlink:href="#c"/>
<use x="159.033203" xlink:href="#n"/>
</g>
</g>
<g clip-path="url(#a)">
<g transform="translate(40.455 333.69) scale(.1 -.1)">
<use xlink:href="#c"/>
<use x="63.623047" xlink:href="#e"/>
<use x="95.410156" xlink:href="#c"/>
<use x="159.033203" xlink:href="#u"/>
</g>
</g>
<g clip-path="url(#a)">
<g transform="translate(123.98 256.3) scale(.1 -.1)">
<use xlink:href="#c"/>
<use x="63.623047" xlink:href="#e"/>
<use x="95.410156" xlink:href="#c"/>
<use x="159.033203" xlink:href="#ag"/>
</g>
</g>
<g clip-path="url(#a)">
<g transform="translate(155.09 178.49) scale(.1 -.1)">
<defs>
<path id="aq" d="m10.797 72.906h38.719v-8.3125h-29.688v-17.859q2.1406 0.73438 4.2812 1.0938 2.1562 0.35938 4.3125 0.35938 12.203 0 19.328-6.6875 7.1406-6.6875 7.1406-18.109 0-11.766-7.3281-18.297-7.3281-6.5156-20.656-6.5156-4.5938 0-9.3594 0.78125-4.75 0.78125-9.8281 2.3438v9.9219q4.3906-2.3906 9.0781-3.5625t9.9062-1.1719q8.4531 0 13.375 4.4375 4.9375 4.4375 4.9375 12.062 0 7.6094-4.9375 12.047-4.9219 4.4531-13.375 4.4531-3.9531 0-7.8906-0.875-3.9219-0.875-8.0156-2.7344z"/>
</defs>
<use xlink:href="#c"/>
<use x="63.623047" xlink:href="#e"/>
<use x="95.410156" xlink:href="#c"/>
<use x="159.033203" xlink:href="#aq"/>
</g>
</g>
<g clip-path="url(#a)">
<g transform="translate(128.89 256.3) scale(.1 -.1)">
<use xlink:href="#c"/>
<use x="63.623047" xlink:href="#e"/>
<use x="95.410156" xlink:href="#c"/>
<use x="159.033203" xlink:href="#af"/>
</g>
</g>
<g clip-path="url(#a)">
<g transform="translate(148.54 256.3) scale(.1 -.1)">
<use xlink:href="#c"/>
<use x="63.623047" xlink:href="#e"/>
<use x="95.410156" xlink:href="#c"/>
<use x="159.033203" xlink:href="#ae"/>
</g>
</g>
<g clip-path="url(#a)">
<g transform="translate(187.85 333.69) scale(.1 -.1)">
<use xlink:href="#c"/>
<use x="63.623047" xlink:href="#e"/>
<use x="95.410156" xlink:href="#c"/>
<use x="159.033203" xlink:href="#ad"/>
</g>
</g>
<g clip-path="url(#a)">
<g transform="translate(148.54 333.69) scale(.1 -.1)">
<use xlink:href="#c"/>
<use x="63.623047" xlink:href="#e"/>
<use x="95.410156" xlink:href="#c"/>
<use x="159.033203" xlink:href="#ac"/>
</g>
</g>
<g clip-path="url(#a)">
<g transform="translate(84.673 333.69) scale(.1 -.1)">
<use xlink:href="#c"/>
<use x="63.623047" xlink:href="#e"/>
<use x="95.410156" xlink:href="#n"/>
<use x="159.033203" xlink:href="#ah"/>
</g>
</g>
<g clip-path="url(#a)">
<g transform="translate(114.15 333.69) scale(.1 -.1)">
<use xlink:href="#c"/>
<use x="63.623047" xlink:href="#e"/>
<use x="95.410156" xlink:href="#n"/>
<use x="159.033203" xlink:href="#c"/>
</g>
</g>
<g clip-path="url(#a)">
<g transform="translate(60.108 333.69) scale(.1 -.1)">
<use xlink:href="#c"/>
<use x="63.623047" xlink:href="#e"/>
<use x="95.410156" xlink:href="#n"/>
<use x="159.033203" xlink:href="#n"/>
</g>
</g>
<g clip-path="url(#a)">
<g transform="translate(762.69 333.69) scale(.1 -.1)">
<use xlink:href="#c"/>
<use x="63.623047" xlink:href="#e"/>
<use x="95.410156" xlink:href="#n"/>
<use x="159.033203" xlink:href="#u"/>
</g>
</g>
<defs>
<clipPath id="a">
<rect width="810.67" height="426.67"/>
</clipPath>
</defs>
</svg>
