<?xml version="1.0" encoding="UTF-8"?>
<!DOCTYPE svg  PUBLIC '-//W3C//DTD SVG 1.1//EN'  'http://www.w3.org/Graphics/SVG/1.1/DTD/svg11.dtd'>
<svg width="1773.3pt" height="933.33pt" version="1.1" viewBox="0 0 1773.3 933.33" xmlns="http://www.w3.org/2000/svg" xmlns:xlink="http://www.w3.org/1999/xlink">
<defs>
<style type="text/css">*{stroke-linecap:butt;stroke-linejoin:round;}</style>
</defs>
<path d="m0 933.33h1773.3v-933.33h-1773.3z" fill="#fff"/>
<g fill="none" stroke="#000">
<path d="m787 42.424-600.08 171.21" clip-path="url(#a)"/>
<path d="m787 42.424-457.57 512.19" clip-path="url(#a)"/>
<path d="m787 42.424-319.78 512.19" clip-path="url(#a)"/>
<path d="m787 42.424-262.03 341.99" clip-path="url(#a)"/>
<path d="m787 42.424 76.563 681.5" clip-path="url(#a)"/>
<path d="m787 42.424 275.95 512.19" clip-path="url(#a)"/>
<path d="m787 42.424 610.29 512.19" clip-path="url(#a)"/>
<path d="m787 42.424 819 512.19" clip-path="url(#a)"/>
<path d="m787 42.424-383 681.5" clip-path="url(#a)"/>
<path d="m787 42.424-251.7 681.5" clip-path="url(#a)"/>
<path d="m787 42.424 492.36 681.5" clip-path="url(#a)"/>
<path d="m186.93 213.63-95.074 170.78" clip-path="url(#a)"/>
<path d="m186.93 213.63-4.1944 510.29" clip-path="url(#a)"/>
<path d="m186.93 213.63 63.889 340.98" clip-path="url(#a)"/>
<path d="m186.93 213.63 61.458 340.98" clip-path="url(#a)"/>
<path d="m186.93 213.63-26.078 510.29" clip-path="url(#a)"/>
<path d="m329.44 554.61-0.81052 169.31" clip-path="url(#a)"/>
<path d="m329.44 554.61 35.663 169.31" clip-path="url(#a)"/>
<path d="m329.44 554.61-34.852 169.31" clip-path="url(#a)" stroke-dasharray="3.7,1.6"/>
<path d="m467.22 554.61-21.884 169.31" clip-path="url(#a)"/>
<path d="m467.22 554.61 21.884 169.31" clip-path="url(#a)"/>
<path d="m524.97 384.41 58.965 339.51" clip-path="url(#a)"/>
<path d="m524.97 384.41 136.77 170.2" clip-path="url(#a)"/>
<path d="m524.97 384.41 248.63 170.2" clip-path="url(#a)"/>
<path d="m524.97 384.41-444.37 339.51" clip-path="url(#a)" stroke-dasharray="3.7,1.6"/>
<path d="m863.57 723.92v166.99" clip-path="url(#a)"/>
<path d="m1063 554.61-136.17 169.31" clip-path="url(#a)"/>
<path d="m1063 554.61-70.515 169.31" clip-path="url(#a)"/>
<path d="m1063 554.61-2.4316 169.31" clip-path="url(#a)"/>
<path d="m1063 554.61 68.084 169.31" clip-path="url(#a)"/>
<path d="m1063 554.61 141.03 169.31" clip-path="url(#a)"/>
<path d="m1397.3 554.61-40.121 169.31" clip-path="url(#a)"/>
<path d="m1397.3 554.61 40.121 169.31" clip-path="url(#a)"/>
<path d="m1606 554.61-85.915 169.31" clip-path="url(#a)"/>
<path d="m1606 554.61-0.81052 169.31" clip-path="url(#a)"/>
<path d="m1606 554.61 86.725 169.31" clip-path="url(#a)"/>
<path d="m1520.1 723.92v166.99" clip-path="url(#a)"/>
<path d="m1605.2 723.92v166.99" clip-path="url(#a)"/>
<path d="m1357.2 723.92v166.99" clip-path="url(#a)"/>
<path d="m1437.4 723.92v166.99" clip-path="url(#a)"/>
<path d="m926.79 723.92v166.99" clip-path="url(#a)"/>
<path d="m992.44 723.92v166.99" clip-path="url(#a)"/>
<path d="m1060.5 723.92v166.99" clip-path="url(#a)"/>
<path d="m1131 723.92v166.99" clip-path="url(#a)"/>
<path d="m1204 723.92v166.99" clip-path="url(#a)"/>
<path d="m583.94 723.92v166.99" clip-path="url(#a)"/>
<path d="m661.75 554.61-26.747 169.31" clip-path="url(#a)"/>
<path d="m661.75 554.61 26.747 169.31" clip-path="url(#a)"/>
<path d="m773.6 554.61-29.179 169.31" clip-path="url(#a)"/>
<path d="m773.6 554.61 29.179 169.31" clip-path="url(#a)"/>
<path d="m744.42 723.92v166.99" clip-path="url(#a)"/>
<path d="m802.78 723.92v166.99" clip-path="url(#a)"/>
<path d="m635 723.92v166.99" clip-path="url(#a)"/>
<path d="m688.49 723.92v166.99" clip-path="url(#a)"/>
<path d="m445.34 723.92v166.99" clip-path="url(#a)"/>
<path d="m489.11 723.92v166.99" clip-path="url(#a)"/>
<path d="m328.62 723.92v166.99" clip-path="url(#a)"/>
<path d="m365.1 723.92v166.99" clip-path="url(#a)"/>
<path d="m91.852 384.41-11.246 339.51" clip-path="url(#a)"/>
<path d="m91.852 384.41 11.246 170.2" clip-path="url(#a)"/>
<path d="m182.73 723.92v166.99" clip-path="url(#a)"/>
<path d="m250.81 554.61-43.768 169.31" clip-path="url(#a)"/>
<path d="m250.81 554.61 43.768 169.31" clip-path="url(#a)"/>
<path d="m248.38 554.61-14.589 169.31" clip-path="url(#a)"/>
<path d="m248.38 554.61 14.589 169.31" clip-path="url(#a)"/>
<path d="m233.79 723.92v166.99" clip-path="url(#a)"/>
<path d="m262.97 723.92v166.99" clip-path="url(#a)"/>
<path d="m207.05 723.92v166.99" clip-path="url(#a)"/>
<path d="m294.58 723.92v166.99" clip-path="url(#a)"/>
<path d="m80.606 723.92v166.99" clip-path="url(#a)"/>
<path d="m103.1 554.61-15.197 169.31" clip-path="url(#a)"/>
<path d="m103.1 554.61 15.197 169.31" clip-path="url(#a)"/>
<path d="m87.901 723.92v166.99" clip-path="url(#a)"/>
<path d="m118.3 723.92-20.668 166.99" clip-path="url(#a)"/>
<path d="m118.3 723.92-8.5104 166.99" clip-path="url(#a)"/>
<path d="m118.3 723.92 6.0789 166.99" clip-path="url(#a)"/>
<path d="m118.3 723.92 23.1 166.99" clip-path="url(#a)"/>
<path d="m160.85 723.92v166.99" clip-path="url(#a)"/>
<path d="m404 723.92v166.99" clip-path="url(#a)"/>
<path d="m535.31 723.92v166.99" clip-path="url(#a)"/>
<path d="m1279.4 723.92v166.99" clip-path="url(#a)"/>
<path d="m1692.7 723.92v166.99" clip-path="url(#a)"/>
</g>
<path d="m485.79 134.89 5.7854-1.6506q2.3079-0.65847 1.6494-2.9664l-2.1243-7.4454q-0.65847-2.3079-2.9664-1.6494l-5.7854 1.6506q-2.3079 0.65847-1.6494 2.9664l2.1243 7.4454q0.65847 2.3079 2.9664 1.6494z" clip-path="url(#a)" fill="#fff" stroke="#fff"/>
<g clip-path="url(#a)">
<defs>
<path id="t" d="m9.8125 72.906h9.8594v-29.891h35.844v29.891h9.8594v-72.906h-9.8594v34.719h-35.844v-34.719h-9.8594z"/>
</defs>
<g transform="translate(484.68 130.98) rotate(-15.924) scale(.08 -.08)">
<use xlink:href="#t"/>
</g>
</g>
<path d="m560.89 304.94 4.0082-4.4866q1.5989-1.7898-0.19086-3.3887l-5.774-5.1583q-1.7898-1.5989-3.3887 0.19086l-4.0082 4.4866q-1.5989 1.7898 0.19086 3.3887l5.774 5.1583q1.7898 1.5989 3.3887-0.19086z" clip-path="url(#a)" fill="#fff" stroke="#fff"/>
<g clip-path="url(#a)">
<g transform="translate(557.86 302.23) rotate(-48.224) scale(.08 -.08)">
<use xlink:href="#t"/>
</g>
</g>
<path d="m630.84 304.39 3.1862-5.1033q1.271-2.0358-0.76476-3.3068l-6.5676-4.1004q-2.0358-1.271-3.3068 0.76476l-3.1862 5.1033q-1.271 2.0358 0.76476 3.3068l6.5676 4.1004q2.0358 1.271 3.3068-0.76476z" clip-path="url(#a)" fill="#fff" stroke="#fff"/>
<g clip-path="url(#a)">
<g transform="translate(627.39 302.24) rotate(-58.022) scale(.08 -.08)">
<use xlink:href="#t"/>
</g>
</g>
<path d="m659.14 219.62 3.6591-4.7756q1.4597-1.9051-0.44541-3.3648l-6.1459-4.709q-1.9051-1.4597-3.3648 0.44541l-3.6591 4.7756q-1.4597 1.9051 0.44541 3.3648l6.1459 4.709q1.9051 1.4597 3.3648-0.44541z" clip-path="url(#a)" fill="#fff" stroke="#fff"/>
<g clip-path="url(#a)">
<g transform="translate(655.91 217.15) rotate(-52.541) scale(.08 -.08)">
<use xlink:href="#t"/>
</g>
</g>
<path d="m818.8 381.66 0.49765 4.4296q0.26794 2.385 2.6529 2.1171l7.6941-0.86439q2.385-0.26794 2.1171-2.6529l-0.49765-4.4296q-0.26794-2.385-2.6529-2.1171l-7.6941 0.86439q-2.385 0.26794-2.1171 2.6529z" clip-path="url(#a)" fill="#fff" stroke="#fff"/>
<g clip-path="url(#a)">
<defs>
<path id="ao" d="m9.8125 72.906h9.8594v-64.609h35.5v-8.2969h-45.359z"/>
</defs>
<g transform="translate(822.84 381.2) rotate(83.59) scale(.08 -.08)">
<use xlink:href="#ao"/>
</g>
</g>
<path d="m918.03 298.84 2.8536 5.2965q1.1383 2.1129 3.2512 0.97452l6.8162-3.6723q2.1129-1.1383 0.97452-3.2512l-2.8536-5.2965q-1.1383-2.1129-3.2512-0.97452l-6.8162 3.6723q-2.1129 1.1383-0.97452 3.2512z" clip-path="url(#a)" fill="#fff" stroke="#fff"/>
<g clip-path="url(#a)">
<g transform="translate(921.61 296.92) rotate(61.686) scale(.08 -.08)">
<use xlink:href="#t"/>
</g>
</g>
<path d="m1085.8 301.39 4.6084 3.8676q1.8384 1.5429 3.3812-0.29551l4.9773-5.9307q1.5429-1.8384-0.29551-3.3812l-4.6084-3.8676q-1.8384-1.5429-3.3812 0.29551l-4.9773 5.9307q-1.5429 1.8384 0.29551 3.3812z" clip-path="url(#a)" fill="#fff" stroke="#fff"/>
<g clip-path="url(#a)">
<g transform="translate(1088.4 298.27) rotate(40.005) scale(.08 -.08)">
<use xlink:href="#t"/>
</g>
</g>
<path d="m1190.6 302.24 5.1009 3.19q2.0348 1.2726 3.3074-0.76229l4.1053-6.5645q1.2726-2.0348-0.76229-3.3074l-5.1009-3.19q-2.0348-1.2726-3.3074 0.76229l-4.1053 6.5645q-1.2726 2.0348 0.76229 3.3074z" clip-path="url(#a)" fill="#fff" stroke="#fff"/>
<g clip-path="url(#a)">
<g transform="translate(1192.8 298.79) rotate(32.021) scale(.08 -.08)">
<use xlink:href="#t"/>
</g>
</g>
<path d="m599.54 388.8 2.8685-5.1042q1.1758-2.0922-0.9164-3.2681l-6.7496-3.7933q-2.0922-1.1758-3.2681 0.9164l-2.8685 5.1042q-1.1758 2.0922 0.9164 3.2681l6.7496 3.7933q2.0922 1.1758 3.2681-0.9164z" clip-path="url(#a)" fill="#fff" stroke="#fff"/>
<g clip-path="url(#a)">
<defs>
<path id="x" d="m8.6875 72.906h9.9219v-44.297q0-11.719 4.2344-16.875 4.25-5.1406 13.781-5.1406 9.4688 0 13.719 5.1406 4.25 5.1562 4.25 16.875v44.297h9.9062v-45.516q0-14.25-7.0625-21.531-7.0469-7.2812-20.812-7.2812-13.828 0-20.891 7.2812-7.0469 7.2812-7.0469 21.531z"/>
</defs>
<g transform="translate(595.99 386.81) rotate(-60.664) scale(.08 -.08)">
<use xlink:href="#x"/>
</g>
</g>
<path d="m666.02 388.09 2.0285-5.4924q0.8315-2.2514-1.4199-3.0829l-7.263-2.6824q-2.2514-0.8315-3.0829 1.4199l-2.0285 5.4924q-0.83149 2.2514 1.4199 3.0829l7.263 2.6824q2.2514 0.83149 3.0829-1.4199z" clip-path="url(#a)" fill="#fff" stroke="#fff"/>
<g clip-path="url(#a)">
<g transform="translate(662.21 386.68) rotate(-69.729) scale(.08 -.08)">
<use xlink:href="#x"/>
</g>
</g>
<path d="m1026.4 384.47 3.4288 4.746q1.4055 1.9454 3.3509 0.53992l6.276-4.5342q1.9454-1.4055 0.53992-3.3509l-3.4288-4.746q-1.4055-1.9454-3.3509-0.53992l-6.276 4.5342q-1.9454 1.4055-0.53992 3.3509z" clip-path="url(#a)" fill="#fff" stroke="#fff"/>
<g clip-path="url(#a)">
<g transform="translate(1029.7 382.09) rotate(54.153) scale(.08 -.08)">
<use xlink:href="#x"/>
</g>
</g>
<path d="m143.54 304.46 2.6619-4.7815q1.1674-2.0969-0.92956-3.2643l-6.7648-3.7661q-2.0969-1.1674-3.2643 0.92956l-2.6619 4.7815q-1.1674 2.0969 0.92956 3.2643l6.7648 3.7661q2.0969 1.1674 3.2643-0.92956z" clip-path="url(#a)" fill="#fff" stroke="#fff"/>
<g clip-path="url(#a)">
<defs>
<path id="q" d="m34.188 63.188-13.391-36.281h26.812zm-5.5781 9.7188h11.188l27.781-72.906h-10.25l-6.6406 18.703h-32.859l-6.6406-18.703h-10.406z"/>
</defs>
<g transform="translate(139.99 302.49) rotate(-60.895) scale(.08 -.08)">
<use xlink:href="#q"/>
</g>
</g>
<path d="m191.08 471.13 0.03782-4.6011q0.019727-2.3999-2.3802-2.4196l-7.7422-0.06364q-2.3999-0.019726-2.4196 2.3802l-0.03782 4.6011q-0.019727 2.3999 2.3802 2.4196l7.7422 0.063639q2.3999 0.019727 2.4196-2.3802z" clip-path="url(#a)" fill="#fff" stroke="#fff"/>
<g clip-path="url(#a)">
<defs>
<path id="ai" d="m9.8125 72.906h41.891v-8.3125h-32.031v-21.484h28.906v-8.2969h-28.906v-34.812h-9.8594z"/>
</defs>
<g transform="translate(187.02 471.1) rotate(-89.529) scale(.08 -.08)">
<use xlink:href="#ai"/>
</g>
</g>
<path d="m212.26 382.91 0.88837 4.7412q0.442 2.3589 2.8009 1.917l7.6101-1.4259q2.3589-0.442 1.917-2.8009l-0.88837-4.7412q-0.442-2.3589-2.8009-1.917l-7.6101 1.4259q-2.3589 0.442-1.917 2.8009z" clip-path="url(#a)" fill="#fff" stroke="#fff"/>
<g clip-path="url(#a)">
<defs>
<path id="v" d="m19.672 64.797v-27.391h12.406q6.8906 0 10.641 3.5625 3.7656 3.5625 3.7656 10.156 0 6.5469-3.7656 10.109-3.75 3.5625-10.641 3.5625zm-9.8594 8.1094h22.266q12.266 0 18.531-5.5469 6.2812-5.5469 6.2812-16.234 0-10.797-6.2812-16.312-6.2656-5.5156-18.531-5.5156h-12.406v-29.297h-9.8594z"/>
</defs>
<g transform="translate(216.26 382.16) rotate(79.387) scale(.08 -.08)">
<use xlink:href="#v"/>
</g>
</g>
<path d="m210.94 382.2 1.0927 6.0623q0.42572 2.3619 2.7877 1.9362l7.6197-1.3734q2.3619-0.42572 1.9362-2.7877l-1.0927-6.0623q-0.42572-2.3619-2.7877-1.9362l-7.6197 1.3734q-2.3619 0.42572-1.9362 2.7877z" clip-path="url(#a)" fill="#fff" stroke="#fff"/>
<g clip-path="url(#a)">
<defs>
<path id="y" d="m19.672 64.797v-56.688h11.922q15.094 0 22.094 6.8281 7 6.8438 7 21.594 0 14.641-7 21.453t-22.094 6.8125zm-9.8594 8.1094h20.266q21.188 0 31.094-8.8125 9.9219-8.8125 9.9219-27.562 0-18.859-9.9688-27.703-9.9531-8.8281-31.047-8.8281h-20.266z"/>
</defs>
<g transform="translate(214.94 381.48) rotate(79.783) scale(.08 -.08)">
<use xlink:href="#y"/>
</g>
</g>
<path d="m180 472.02 0.29883-5.8474q0.12249-2.3969-2.2744-2.5194l-7.7324-0.39517q-2.3969-0.12249-2.5194 2.2744l-0.29883 5.8474q-0.12249 2.3969 2.2744 2.5194l7.7324 0.39517q2.3969 0.12249 2.5194-2.2744z" clip-path="url(#a)" fill="#fff" stroke="#fff"/>
<g clip-path="url(#a)">
<g transform="translate(175.94 471.81) rotate(-87.074) scale(.08 -.08)">
<use xlink:href="#x"/>
</g>
</g>
<path d="m335.29 642.38 0.029488-6.1599q0.011489-2.4-2.3885-2.4115l-7.7424-0.037064q-2.4-0.011489-2.4115 2.3885l-0.029489 6.1599q-0.011489 2.4 2.3885 2.4115l7.7424 0.037065q2.4 0.011489 2.4115-2.3885z" clip-path="url(#a)" fill="#fff" stroke="#fff"/>
<g clip-path="url(#a)">
<g transform="translate(331.22 642.36) rotate(-89.726) scale(.08 -.08)">
<use xlink:href="#y"/>
</g>
</g>
<path d="m340.61 638.07 1.0468 4.9697q0.49467 2.3485 2.8431 1.8538l7.5763-1.5958q2.3485-0.49467 1.8538-2.8431l-1.0468-4.9697q-0.49467-2.3485-2.8431-1.8538l-7.5763 1.5958q-2.3485 0.49467-1.8538 2.8431z" clip-path="url(#a)" fill="#fff" stroke="#fff"/>
<g clip-path="url(#a)">
<defs>
<path id="am" d="m53.516 70.516v-9.625q-5.6094 2.6875-10.594 4-4.9844 1.3281-9.625 1.3281-8.0469 0-12.422-3.125t-4.375-8.8906q0-4.8438 2.9062-7.3125 2.9062-2.4531 11.016-3.9688l5.9531-1.2188q11.031-2.1094 16.281-7.4062t5.25-14.172q0-10.609-7.1094-16.078-7.0938-5.4688-20.812-5.4688-5.1719 0-11.016 1.1719-5.8281 1.1719-12.078 3.4688v10.156q6-3.3594 11.766-5.0781 5.7656-1.7031 11.328-1.7031 8.4375 0 13.031 3.3125 4.5938 3.3281 4.5938 9.4844 0 5.3594-3.2969 8.3906t-10.812 4.5469l-6.0156 1.1719q-11.031 2.1875-15.969 6.875-4.9219 4.6875-4.9219 13.047 0 9.6719 6.8125 15.234t18.766 5.5625q5.1406 0 10.453-0.9375 5.3281-0.92188 10.891-2.7656z"/>
</defs>
<g transform="translate(344.58 637.24) rotate(78.105) scale(.08 -.08)">
<use xlink:href="#am"/>
</g>
</g>
<path d="m317.6 643.21 1.1034-5.3601q0.48389-2.3507-1.8668-2.8346l-7.5835-1.561q-2.3507-0.48389-2.8346 1.8668l-1.1034 5.3601q-0.48389 2.3507 1.8668 2.8346l7.5835 1.561q2.3507 0.48389 2.8346-1.8668z" clip-path="url(#a)" fill="#fff" stroke="#fff"/>
<g clip-path="url(#a)">
<g transform="translate(313.62 642.39) rotate(-78.368) scale(.08 -.08)">
<use xlink:href="#q"/>
</g>
</g>
<path d="m462.11 643.12 0.78963-6.1092q0.30765-2.3802-2.0726-2.6878l-7.6786-0.99249q-2.3802-0.30765-2.6878 2.0726l-0.78963 6.1092q-0.30765 2.3802 2.0726 2.6878l7.6786 0.99249q2.3802 0.30765 2.6878-2.0726z" clip-path="url(#a)" fill="#fff" stroke="#fff"/>
<g clip-path="url(#a)">
<g transform="translate(458.08 642.6) rotate(-82.635) scale(.08 -.08)">
<use xlink:href="#y"/>
</g>
</g>
<path d="m471.64 637.68 0.61834 4.784q0.30765 2.3802 2.6878 2.0726l7.6786-0.99249q2.3802-0.30765 2.0726-2.6878l-0.61834-4.784q-0.30765-2.3802-2.6878-2.0726l-7.6786 0.99249q-2.3802 0.30765-2.0726 2.6878z" clip-path="url(#a)" fill="#fff" stroke="#fff"/>
<g clip-path="url(#a)">
<g transform="translate(475.67 637.16) rotate(82.635) scale(.08 -.08)">
<use xlink:href="#v"/>
</g>
</g>
<path d="m547.86 552.86 0.82542 4.7526q0.41068 2.3646 2.7753 1.9539l7.6283-1.3249q2.3646-0.41068 1.9539-2.7753l-0.82542-4.7526q-0.41068-2.3646-2.7753-1.9539l-7.6283 1.3249q-2.3646 0.41068-1.9539 2.7753z" clip-path="url(#a)" fill="#fff" stroke="#fff"/>
<g clip-path="url(#a)">
<g transform="translate(551.87 552.17) rotate(80.147) scale(.08 -.08)">
<use xlink:href="#v"/>
</g>
</g>
<path d="m586.76 471.31 3.4281 4.2658q1.5034 1.8708 3.3742 0.36738l6.0352-4.85q1.8708-1.5034 0.36738-3.3742l-3.428-4.2658q-1.5034-1.8708-3.3742-0.36738l-6.0352 4.85q-1.8708 1.5034-0.36738 3.3742z" clip-path="url(#a)" fill="#fff" stroke="#fff"/>
<g clip-path="url(#a)">
<g transform="translate(589.93 468.76) rotate(51.214) scale(.08 -.08)">
<use xlink:href="#q"/>
</g>
</g>
<path d="m643.49 473.14 4.5158 3.0913q1.9804 1.3557 3.3361-0.62471l4.3736-6.3889q1.3557-1.9804-0.62471-3.3361l-4.5158-3.0913q-1.9804-1.3557-3.3361 0.62471l-4.3736 6.3889q-1.3557 1.9804 0.62471 3.3361z" clip-path="url(#a)" fill="#fff" stroke="#fff"/>
<g clip-path="url(#a)">
<g transform="translate(645.78 469.79) rotate(34.394) scale(.08 -.08)">
<use xlink:href="#q"/>
</g>
</g>
<path d="m304.42 560.81 4.3485-3.3224q1.9071-1.4571 0.45002-3.3641l-4.7006-6.1523q-1.4571-1.9071-3.3641-0.45002l-4.3485 3.3224q-1.9071 1.4571-0.45001 3.3641l4.7006 6.1523q1.4571 1.9071 3.3641 0.45001z" clip-path="url(#a)" fill="#fff" stroke="#fff"/>
<g clip-path="url(#a)">
<g transform="translate(301.96 557.58) rotate(-37.381) scale(.08 -.08)">
<use xlink:href="#q"/>
</g>
</g>
<path d="m857.3 790.51v33.808q0 2.4 2.4 2.4h7.7425q2.4 0 2.4-2.4v-33.808q0-2.4-2.4-2.4h-7.7425q-2.4 0-2.4 2.4z" clip-path="url(#a)" fill="#fff" stroke="#fff"/>
<g clip-path="url(#a)">
<defs>
<path id="l" d="m-0.29688 72.906h61.672v-8.3125h-25.875v-64.594h-9.9062v64.594h-25.891z"/>
<path id="d" d="m56.203 29.594v-4.3906h-41.312q0.59375-9.2812 5.5938-14.141t13.938-4.8594q5.1719 0 10.031 1.2656t9.6562 3.8125v-8.5q-4.8438-2.0469-9.9219-3.125t-10.297-1.0781q-13.094 0-20.734 7.6094-7.6406 7.625-7.6406 20.625 0 13.422 7.25 21.297 7.25 7.8906 19.562 7.8906 11.031 0 17.453-7.1094 6.4219-7.0938 6.4219-19.297zm-8.9844 2.6406q-0.09375 7.3594-4.125 11.75-4.0312 4.4062-10.672 4.4062-7.5156 0-12.031-4.25t-5.2031-11.969z"/>
<path id="f" d="m41.109 46.297q-1.5156 0.875-3.2969 1.2812-1.7812 0.42188-3.9219 0.42188-7.625 0-11.703-4.9531t-4.0781-14.234v-28.812h-9.0312v54.688h9.0312v-8.5q2.8438 4.9844 7.375 7.3906 4.5469 2.4219 11.047 2.4219 0.92188 0 2.0469-0.125 1.125-0.10938 2.4844-0.35938z"/>
<path id="j" d="m52 44.188q3.375 6.0625 8.0625 8.9375t11.031 2.875q8.5469 0 13.188-5.9844 4.6406-5.9688 4.6406-17v-33.016h-9.0312v32.719q0 7.8594-2.7969 11.656-2.7812 3.8125-8.4844 3.8125-6.9844 0-11.047-4.6406-4.0469-4.625-4.0469-12.641v-30.906h-9.0312v32.719q0 7.9062-2.7812 11.688t-8.5938 3.7812q-6.8906 0-10.953-4.6562-4.0469-4.6562-4.0469-12.625v-30.906h-9.0312v54.688h9.0312v-8.5q3.0781 5.0312 7.375 7.4219t10.203 2.3906q5.9688 0 10.141-3.0312 4.1719-3.0156 6.1719-8.7812z"/>
<path id="h" d="m9.4219 54.688h8.9844v-54.688h-8.9844zm0 21.297h8.9844v-11.391h-8.9844z"/>
<path id="i" d="m54.891 33.016v-33.016h-8.9844v32.719q0 7.7656-3.0312 11.609-3.0312 3.8594-9.0781 3.8594-7.2812 0-11.484-4.6406-4.2031-4.625-4.2031-12.641v-30.906h-9.0312v54.688h9.0312v-8.5q3.2344 4.9375 7.5938 7.375 4.375 2.4375 10.094 2.4375 9.4219 0 14.25-5.8281 4.8438-5.8281 4.8438-17.156z"/>
<path id="e" d="m34.281 27.484q-10.891 0-15.094-2.4844t-4.2031-8.5q0-4.7812 3.1562-7.5938 3.1562-2.7969 8.5625-2.7969 7.4844 0 12 5.2969t4.5156 14.078v2zm17.922 3.7188v-31.203h-8.9844v8.2969q-3.0781-4.9688-7.6719-7.3438t-11.234-2.375q-8.3906 0-13.359 4.7188-4.9531 4.7188-4.9531 12.625 0 9.2188 6.1719 13.906 6.1875 4.6875 18.438 4.6875h12.609v0.89062q0 6.2031-4.0781 9.5938t-11.453 3.3906q-4.6875 0-9.1406-1.125-4.4375-1.125-8.5312-3.375v8.3125q4.9219 1.9062 9.5625 2.8438 4.6406 0.95312 9.0312 0.95312 11.875 0 17.734-6.1562 5.8594-6.1406 5.8594-18.641z"/>
<path id="k" d="m9.4219 75.984h8.9844v-75.984h-8.9844z"/>
</defs>
<g transform="translate(861.36 790.51) rotate(90) scale(.08 -.08)">
<use xlink:href="#l"/>
<use x="44.083984" xlink:href="#d"/>
<use x="105.607422" xlink:href="#f"/>
<use x="144.970703" xlink:href="#j"/>
<use x="242.382812" xlink:href="#h"/>
<use x="270.166016" xlink:href="#i"/>
<use x="333.544922" xlink:href="#e"/>
<use x="394.824219" xlink:href="#k"/>
</g>
</g>
<path d="m998.04 645.33 3.4297-4.2645q1.5041-1.8702-0.3661-3.3743l-6.0334-4.8523q-1.8702-1.5041-3.3743 0.3661l-3.4297 4.2645q-1.5041 1.8702 0.3661 3.3743l6.0334 4.8523q1.8702 1.5041 3.3743-0.3661z" clip-path="url(#a)" fill="#fff" stroke="#fff"/>
<g clip-path="url(#a)">
<g transform="translate(994.88 642.78) rotate(-51.192) scale(.08 -.08)">
<use xlink:href="#q"/>
</g>
</g>
<path d="m1032.6 643.9 1.8546-4.453q0.92273-2.2155-1.2928-3.1383l-7.1474-2.9768q-2.2155-0.92273-3.1383 1.2928l-1.8546 4.453q-0.92273 2.2155 1.2928 3.1383l7.1474 2.9768q2.2155 0.92273 3.1383-1.2928z" clip-path="url(#a)" fill="#fff" stroke="#fff"/>
<g clip-path="url(#a)">
<g transform="translate(1028.8 642.34) rotate(-67.389) scale(.08 -.08)">
<use xlink:href="#v"/>
</g>
</g>
<path d="m1068 642.09 0.078585-5.4719q0.034465-2.3998-2.3653-2.4342l-7.7417-0.11118q-2.3998-0.034465-2.4342 2.3653l-0.078585 5.4719q-0.034465 2.3998 2.3653 2.4342l7.7417 0.11118q2.3998 0.034464 2.4342-2.3653z" clip-path="url(#a)" fill="#fff" stroke="#fff"/>
<g clip-path="url(#a)">
<g transform="translate(1063.9 642.03) rotate(-89.177) scale(.08 -.08)">
<use xlink:href="#q"/>
</g>
</g>
<path d="m1090 638.75 2.2982 5.7152q0.89541 2.2267 3.1221 1.3313l7.1835-2.8886q2.2267-0.89541 1.3313-3.1221l-2.2982-5.7152q-0.89541-2.2267-3.1221-1.3313l-7.1835 2.8886q-2.2267 0.89541-1.3313 3.1221z" clip-path="url(#a)" fill="#fff" stroke="#fff"/>
<g clip-path="url(#a)">
<g transform="translate(1093.8 637.23) rotate(68.094) scale(.08 -.08)">
<use xlink:href="#y"/>
</g>
</g>
<path d="m1126.9 641.18 3.5025 4.2048q1.536 1.8441 3.3801 0.30802l5.949-4.9553q1.8441-1.536 0.30802-3.3801l-3.5025-4.2048q-1.536-1.8441-3.3801-0.30802l-5.949 4.9553q-1.8441 1.536-0.30802 3.3801z" clip-path="url(#a)" fill="#fff" stroke="#fff"/>
<g clip-path="url(#a)">
<g transform="translate(1130 638.58) rotate(50.207) scale(.08 -.08)">
<use xlink:href="#q"/>
</g>
</g>
<path d="m1382.6 643.71 1.4204-5.994q0.55339-2.3353-1.7819-2.8887l-7.5339-1.7853q-2.3353-0.55339-2.8887 1.7819l-1.4204 5.994q-0.55339 2.3353 1.7819 2.8887l7.5339 1.7853q2.3353 0.55339 2.8887-1.7819z" clip-path="url(#a)" fill="#fff" stroke="#fff"/>
<g clip-path="url(#a)">
<g transform="translate(1378.7 642.77) rotate(-76.669) scale(.08 -.08)">
<use xlink:href="#y"/>
</g>
</g>
<path d="m1410.7 638.37 1.1123 4.6938q0.55339 2.3353 2.8887 1.7819l7.5339-1.7853q2.3353-0.55339 1.7819-2.8887l-1.1123-4.6938q-0.55339-2.3353-2.8887-1.7819l-7.5339 1.7853q-2.3353 0.55339-1.7819 2.8887z" clip-path="url(#a)" fill="#fff" stroke="#fff"/>
<g clip-path="url(#a)">
<g transform="translate(1414.6 637.43) rotate(76.669) scale(.08 -.08)">
<use xlink:href="#v"/>
</g>
</g>
<path d="m1567.5 644.37 2.2982-4.529q1.086-2.1402-1.0542-3.2262l-6.9044-3.5036q-2.1402-1.086-3.2263 1.0542l-2.2982 4.529q-1.086 2.1402 1.0542 3.2262l6.9044 3.5036q2.1402 1.086 3.2263-1.0542z" clip-path="url(#a)" fill="#fff" stroke="#fff"/>
<g clip-path="url(#a)">
<g transform="translate(1563.9 642.53) rotate(-63.095) scale(.08 -.08)">
<use xlink:href="#am"/>
</g>
</g>
<path d="m1611.9 642.03 0.026197-5.4724q0.011489-2.4-2.3885-2.4115l-7.7424-0.037064q-2.4-0.011489-2.4115 2.3885l-0.026197 5.4724q-0.011489 2.4 2.3885 2.4115l7.7424 0.037064q2.4 0.01149 2.4115-2.3885z" clip-path="url(#a)" fill="#fff" stroke="#fff"/>
<g clip-path="url(#a)">
<g transform="translate(1607.8 642.01) rotate(-89.726) scale(.08 -.08)">
<use xlink:href="#q"/>
</g>
</g>
<path d="m1642.4 639.52 2.6693 5.2111q1.0942 2.1361 3.2302 1.0419l6.8911-3.5298q2.1361-1.0942 1.0419-3.2302l-2.6693-5.2111q-1.0942-2.1361-3.2302-1.0419l-6.8911 3.5298q-2.1361 1.0942-1.0419 3.2302z" clip-path="url(#a)" fill="#fff" stroke="#fff"/>
<g clip-path="url(#a)">
<g transform="translate(1646.1 637.67) rotate(62.877) scale(.08 -.08)">
<use xlink:href="#x"/>
</g>
</g>
<path d="m1513.8 790.51v33.808q0 2.4 2.4 2.4h7.7425q2.4 0 2.4-2.4v-33.808q0-2.4-2.4-2.4h-7.7425q-2.4 0-2.4 2.4z" clip-path="url(#a)" fill="#fff" stroke="#fff"/>
<g clip-path="url(#a)">
<g transform="translate(1517.9 790.51) rotate(90) scale(.08 -.08)">
<use xlink:href="#l"/>
<use x="44.083984" xlink:href="#d"/>
<use x="105.607422" xlink:href="#f"/>
<use x="144.970703" xlink:href="#j"/>
<use x="242.382812" xlink:href="#h"/>
<use x="270.166016" xlink:href="#i"/>
<use x="333.544922" xlink:href="#e"/>
<use x="394.824219" xlink:href="#k"/>
</g>
</g>
<path d="m1598.9 790.51v33.808q0 2.4 2.4 2.4h7.7425q2.4 0 2.4-2.4v-33.808q0-2.4-2.4-2.4h-7.7425q-2.4 0-2.4 2.4z" clip-path="url(#a)" fill="#fff" stroke="#fff"/>
<g clip-path="url(#a)">
<g transform="translate(1603 790.51) rotate(90) scale(.08 -.08)">
<use xlink:href="#l"/>
<use x="44.083984" xlink:href="#d"/>
<use x="105.607422" xlink:href="#f"/>
<use x="144.970703" xlink:href="#j"/>
<use x="242.382812" xlink:href="#h"/>
<use x="270.166016" xlink:href="#i"/>
<use x="333.544922" xlink:href="#e"/>
<use x="394.824219" xlink:href="#k"/>
</g>
</g>
<path d="m1350.9 790.51v33.808q0 2.4 2.4 2.4h7.7425q2.4 0 2.4-2.4v-33.808q0-2.4-2.4-2.4h-7.7425q-2.4 0-2.4 2.4z" clip-path="url(#a)" fill="#fff" stroke="#fff"/>
<g clip-path="url(#a)">
<g transform="translate(1355 790.51) rotate(90) scale(.08 -.08)">
<use xlink:href="#l"/>
<use x="44.083984" xlink:href="#d"/>
<use x="105.607422" xlink:href="#f"/>
<use x="144.970703" xlink:href="#j"/>
<use x="242.382812" xlink:href="#h"/>
<use x="270.166016" xlink:href="#i"/>
<use x="333.544922" xlink:href="#e"/>
<use x="394.824219" xlink:href="#k"/>
</g>
</g>
<path d="m1431.1 790.51v33.808q0 2.4 2.4 2.4h7.7425q2.4 0 2.4-2.4v-33.808q0-2.4-2.4-2.4h-7.7425q-2.4 0-2.4 2.4z" clip-path="url(#a)" fill="#fff" stroke="#fff"/>
<g clip-path="url(#a)">
<g transform="translate(1435.2 790.51) rotate(90) scale(.08 -.08)">
<use xlink:href="#l"/>
<use x="44.083984" xlink:href="#d"/>
<use x="105.607422" xlink:href="#f"/>
<use x="144.970703" xlink:href="#j"/>
<use x="242.382812" xlink:href="#h"/>
<use x="270.166016" xlink:href="#i"/>
<use x="333.544922" xlink:href="#e"/>
<use x="394.824219" xlink:href="#k"/>
</g>
</g>
<path d="m920.52 790.51v33.808q0 2.4 2.4 2.4h7.7425q2.4 0 2.4-2.4v-33.808q0-2.4-2.4-2.4h-7.7425q-2.4 0-2.4 2.4z" clip-path="url(#a)" fill="#fff" stroke="#fff"/>
<g clip-path="url(#a)">
<g transform="translate(924.58 790.51) rotate(90) scale(.08 -.08)">
<use xlink:href="#l"/>
<use x="44.083984" xlink:href="#d"/>
<use x="105.607422" xlink:href="#f"/>
<use x="144.970703" xlink:href="#j"/>
<use x="242.382812" xlink:href="#h"/>
<use x="270.166016" xlink:href="#i"/>
<use x="333.544922" xlink:href="#e"/>
<use x="394.824219" xlink:href="#k"/>
</g>
</g>
<path d="m986.17 790.51v33.808q0 2.4 2.4 2.4h7.7425q2.4 0 2.4-2.4v-33.808q0-2.4-2.4-2.4h-7.7425q-2.4 0-2.4 2.4z" clip-path="url(#a)" fill="#fff" stroke="#fff"/>
<g clip-path="url(#a)">
<g transform="translate(990.23 790.51) rotate(90) scale(.08 -.08)">
<use xlink:href="#l"/>
<use x="44.083984" xlink:href="#d"/>
<use x="105.607422" xlink:href="#f"/>
<use x="144.970703" xlink:href="#j"/>
<use x="242.382812" xlink:href="#h"/>
<use x="270.166016" xlink:href="#i"/>
<use x="333.544922" xlink:href="#e"/>
<use x="394.824219" xlink:href="#k"/>
</g>
</g>
<path d="m1054.3 790.51v33.808q0 2.4 2.4 2.4h7.7425q2.4 0 2.4-2.4v-33.808q0-2.4-2.4-2.4h-7.7425q-2.4 0-2.4 2.4z" clip-path="url(#a)" fill="#fff" stroke="#fff"/>
<g clip-path="url(#a)">
<g transform="translate(1058.3 790.51) rotate(90) scale(.08 -.08)">
<use xlink:href="#l"/>
<use x="44.083984" xlink:href="#d"/>
<use x="105.607422" xlink:href="#f"/>
<use x="144.970703" xlink:href="#j"/>
<use x="242.382812" xlink:href="#h"/>
<use x="270.166016" xlink:href="#i"/>
<use x="333.544922" xlink:href="#e"/>
<use x="394.824219" xlink:href="#k"/>
</g>
</g>
<path d="m1124.8 790.51v33.808q0 2.4 2.4 2.4h7.7425q2.4 0 2.4-2.4v-33.808q0-2.4-2.4-2.4h-7.7425q-2.4 0-2.4 2.4z" clip-path="url(#a)" fill="#fff" stroke="#fff"/>
<g clip-path="url(#a)">
<g transform="translate(1128.8 790.51) rotate(90) scale(.08 -.08)">
<use xlink:href="#l"/>
<use x="44.083984" xlink:href="#d"/>
<use x="105.607422" xlink:href="#f"/>
<use x="144.970703" xlink:href="#j"/>
<use x="242.382812" xlink:href="#h"/>
<use x="270.166016" xlink:href="#i"/>
<use x="333.544922" xlink:href="#e"/>
<use x="394.824219" xlink:href="#k"/>
</g>
</g>
<path d="m1197.7 790.51v33.808q0 2.4 2.4 2.4h7.7425q2.4 0 2.4-2.4v-33.808q0-2.4-2.4-2.4h-7.7425q-2.4 0-2.4 2.4z" clip-path="url(#a)" fill="#fff" stroke="#fff"/>
<g clip-path="url(#a)">
<g transform="translate(1201.8 790.51) rotate(90) scale(.08 -.08)">
<use xlink:href="#l"/>
<use x="44.083984" xlink:href="#d"/>
<use x="105.607422" xlink:href="#f"/>
<use x="144.970703" xlink:href="#j"/>
<use x="242.382812" xlink:href="#h"/>
<use x="270.166016" xlink:href="#i"/>
<use x="333.544922" xlink:href="#e"/>
<use x="394.824219" xlink:href="#k"/>
</g>
</g>
<path d="m577.67 790.51v33.808q0 2.4 2.4 2.4h7.7425q2.4 0 2.4-2.4v-33.808q0-2.4-2.4-2.4h-7.7425q-2.4 0-2.4 2.4z" clip-path="url(#a)" fill="#fff" stroke="#fff"/>
<g clip-path="url(#a)">
<g transform="translate(581.73 790.51) rotate(90) scale(.08 -.08)">
<use xlink:href="#l"/>
<use x="44.083984" xlink:href="#d"/>
<use x="105.607422" xlink:href="#f"/>
<use x="144.970703" xlink:href="#j"/>
<use x="242.382812" xlink:href="#h"/>
<use x="270.166016" xlink:href="#i"/>
<use x="333.544922" xlink:href="#e"/>
<use x="394.824219" xlink:href="#k"/>
</g>
</g>
<path d="m654.21 642.52 0.71798-4.5449q0.3745-2.3706-1.9961-2.7451l-7.6477-1.2082q-2.3706-0.3745-2.7451 1.9961l-0.71798 4.5449q-0.3745 2.3706 1.9961 2.7451l7.6477 1.2082q2.3706 0.3745 2.7451-1.9961z" clip-path="url(#a)" fill="#fff" stroke="#fff"/>
<g clip-path="url(#a)">
<g transform="translate(650.2 641.88) rotate(-81.023) scale(.08 -.08)">
<use xlink:href="#ai"/>
</g>
</g>
<path d="m668.49 637.49 0.87169 5.5178q0.3745 2.3706 2.7451 1.9961l7.6477-1.2082q2.3706-0.3745 1.9961-2.7451l-0.87169-5.5178q-0.3745-2.3706-2.7451-1.9961l-7.6477 1.2082q-2.3706 0.3745-1.9961 2.7451z" clip-path="url(#a)" fill="#fff" stroke="#fff"/>
<g clip-path="url(#a)">
<defs>
<path id="w" d="m64.406 67.281v-10.391q-4.9844 4.6406-10.625 6.9219-5.6406 2.2969-11.984 2.2969-12.5 0-19.141-7.6406t-6.6406-22.094q0-14.406 6.6406-22.047t19.141-7.6406q6.3438 0 11.984 2.2969t10.625 6.9375v-10.312q-5.1719-3.5156-10.969-5.2812-5.7812-1.75-12.219-1.75-16.562 0-26.094 10.125-9.5156 10.141-9.5156 27.672 0 17.578 9.5156 27.703 9.5312 10.141 26.094 10.141 6.5312 0 12.312-1.7344 5.7969-1.7344 10.875-5.2031z"/>
</defs>
<g transform="translate(672.51 636.85) rotate(81.023) scale(.08 -.08)">
<use xlink:href="#w"/>
</g>
</g>
<path d="m764.72 643.07 0.94407-5.478q0.4076-2.3651-1.9575-2.7727l-7.63-1.3149q-2.3651-0.4076-2.7727 1.9575l-0.94407 5.478q-0.4076 2.3651 1.9575 2.7727l7.63 1.3149q2.3651 0.4076 2.7727-1.9575z" clip-path="url(#a)" fill="#fff" stroke="#fff"/>
<g clip-path="url(#a)">
<defs>
<path id="an" d="m44.391 34.188q3.1719-1.0781 6.1719-4.5938t6.0312-9.6719l10.016-19.922h-10.609l-9.3125 18.703q-3.625 7.3281-7.0156 9.7188t-9.25 2.3906h-10.75v-30.812h-9.8594v72.906h22.266q12.5 0 18.656-5.2344 6.1562-5.2188 6.1562-15.766 0-6.8906-3.2031-11.438-3.2031-4.5312-9.2969-6.2812zm-24.719 30.609v-25.875h12.406q7.125 0 10.766 3.2969t3.6406 9.6875-3.6406 9.6406-10.766 3.25z"/>
</defs>
<g transform="translate(760.71 642.38) rotate(-80.222) scale(.08 -.08)">
<use xlink:href="#an"/>
</g>
</g>
<path d="m781.53 637.58 0.94874 5.5051q0.4076 2.3651 2.7727 1.9575l7.63-1.3149q2.3651-0.4076 1.9575-2.7727l-0.94874-5.5051q-0.4076-2.3651-2.7727-1.9575l-7.63 1.3149q-2.3651 0.4076-1.9575 2.7727z" clip-path="url(#a)" fill="#fff" stroke="#fff"/>
<g clip-path="url(#a)">
<g transform="translate(785.54 636.89) rotate(80.222) scale(.08 -.08)">
<use xlink:href="#w"/>
</g>
</g>
<path d="m738.15 790.51v33.808q0 2.4 2.4 2.4h7.7425q2.4 0 2.4-2.4v-33.808q0-2.4-2.4-2.4h-7.7425q-2.4 0-2.4 2.4z" clip-path="url(#a)" fill="#fff" stroke="#fff"/>
<g clip-path="url(#a)">
<g transform="translate(742.21 790.51) rotate(90) scale(.08 -.08)">
<use xlink:href="#l"/>
<use x="44.083984" xlink:href="#d"/>
<use x="105.607422" xlink:href="#f"/>
<use x="144.970703" xlink:href="#j"/>
<use x="242.382812" xlink:href="#h"/>
<use x="270.166016" xlink:href="#i"/>
<use x="333.544922" xlink:href="#e"/>
<use x="394.824219" xlink:href="#k"/>
</g>
</g>
<path d="m796.51 790.51v33.808q0 2.4 2.4 2.4h7.7425q2.4 0 2.4-2.4v-33.808q0-2.4-2.4-2.4h-7.7425q-2.4 0-2.4 2.4z" clip-path="url(#a)" fill="#fff" stroke="#fff"/>
<g clip-path="url(#a)">
<g transform="translate(800.57 790.51) rotate(90) scale(.08 -.08)">
<use xlink:href="#l"/>
<use x="44.083984" xlink:href="#d"/>
<use x="105.607422" xlink:href="#f"/>
<use x="144.970703" xlink:href="#j"/>
<use x="242.382812" xlink:href="#h"/>
<use x="270.166016" xlink:href="#i"/>
<use x="333.544922" xlink:href="#e"/>
<use x="394.824219" xlink:href="#k"/>
</g>
</g>
<path d="m628.73 790.51v33.808q0 2.4 2.4 2.4h7.7425q2.4 0 2.4-2.4v-33.808q0-2.4-2.4-2.4h-7.7425q-2.4 0-2.4 2.4z" clip-path="url(#a)" fill="#fff" stroke="#fff"/>
<g clip-path="url(#a)">
<g transform="translate(632.79 790.51) rotate(90) scale(.08 -.08)">
<use xlink:href="#l"/>
<use x="44.083984" xlink:href="#d"/>
<use x="105.607422" xlink:href="#f"/>
<use x="144.970703" xlink:href="#j"/>
<use x="242.382812" xlink:href="#h"/>
<use x="270.166016" xlink:href="#i"/>
<use x="333.544922" xlink:href="#e"/>
<use x="394.824219" xlink:href="#k"/>
</g>
</g>
<path d="m682.22 790.51v33.808q0 2.4 2.4 2.4h7.7425q2.4 0 2.4-2.4v-33.808q0-2.4-2.4-2.4h-7.7425q-2.4 0-2.4 2.4z" clip-path="url(#a)" fill="#fff" stroke="#fff"/>
<g clip-path="url(#a)">
<g transform="translate(686.29 790.51) rotate(90) scale(.08 -.08)">
<use xlink:href="#l"/>
<use x="44.083984" xlink:href="#d"/>
<use x="105.607422" xlink:href="#f"/>
<use x="144.970703" xlink:href="#j"/>
<use x="242.382812" xlink:href="#h"/>
<use x="270.166016" xlink:href="#i"/>
<use x="333.544922" xlink:href="#e"/>
<use x="394.824219" xlink:href="#k"/>
</g>
</g>
<path d="m439.07 790.51v33.808q0 2.4 2.4 2.4h7.7425q2.4 0 2.4-2.4v-33.808q0-2.4-2.4-2.4h-7.7425q-2.4 0-2.4 2.4z" clip-path="url(#a)" fill="#fff" stroke="#fff"/>
<g clip-path="url(#a)">
<g transform="translate(443.13 790.51) rotate(90) scale(.08 -.08)">
<use xlink:href="#l"/>
<use x="44.083984" xlink:href="#d"/>
<use x="105.607422" xlink:href="#f"/>
<use x="144.970703" xlink:href="#j"/>
<use x="242.382812" xlink:href="#h"/>
<use x="270.166016" xlink:href="#i"/>
<use x="333.544922" xlink:href="#e"/>
<use x="394.824219" xlink:href="#k"/>
</g>
</g>
<path d="m482.84 790.51v33.808q0 2.4 2.4 2.4h7.7425q2.4 0 2.4-2.4v-33.808q0-2.4-2.4-2.4h-7.7425q-2.4 0-2.4 2.4z" clip-path="url(#a)" fill="#fff" stroke="#fff"/>
<g clip-path="url(#a)">
<g transform="translate(486.9 790.51) rotate(90) scale(.08 -.08)">
<use xlink:href="#l"/>
<use x="44.083984" xlink:href="#d"/>
<use x="105.607422" xlink:href="#f"/>
<use x="144.970703" xlink:href="#j"/>
<use x="242.382812" xlink:href="#h"/>
<use x="270.166016" xlink:href="#i"/>
<use x="333.544922" xlink:href="#e"/>
<use x="394.824219" xlink:href="#k"/>
</g>
</g>
<path d="m322.35 790.51v33.808q0 2.4 2.4 2.4h7.7425q2.4 0 2.4-2.4v-33.808q0-2.4-2.4-2.4h-7.7425q-2.4 0-2.4 2.4z" clip-path="url(#a)" fill="#fff" stroke="#fff"/>
<g clip-path="url(#a)">
<g transform="translate(326.42 790.51) rotate(90) scale(.08 -.08)">
<use xlink:href="#l"/>
<use x="44.083984" xlink:href="#d"/>
<use x="105.607422" xlink:href="#f"/>
<use x="144.970703" xlink:href="#j"/>
<use x="242.382812" xlink:href="#h"/>
<use x="270.166016" xlink:href="#i"/>
<use x="333.544922" xlink:href="#e"/>
<use x="394.824219" xlink:href="#k"/>
</g>
</g>
<path d="m358.83 790.51v33.808q0 2.4 2.4 2.4h7.7425q2.4 0 2.4-2.4v-33.808q0-2.4-2.4-2.4h-7.7425q-2.4 0-2.4 2.4z" clip-path="url(#a)" fill="#fff" stroke="#fff"/>
<g clip-path="url(#a)">
<g transform="translate(362.89 790.51) rotate(90) scale(.08 -.08)">
<use xlink:href="#l"/>
<use x="44.083984" xlink:href="#d"/>
<use x="105.607422" xlink:href="#f"/>
<use x="144.970703" xlink:href="#j"/>
<use x="242.382812" xlink:href="#h"/>
<use x="270.166016" xlink:href="#i"/>
<use x="333.544922" xlink:href="#e"/>
<use x="394.824219" xlink:href="#k"/>
</g>
</g>
<path d="m92.404 557.17 0.18494-5.5832q0.079454-2.3987-2.3192-2.4781l-7.7383-0.25632q-2.3987-0.079454-2.4781 2.3192l-0.18494 5.5832q-0.079454 2.3987 2.3192 2.4781l7.7383 0.25632q2.3987 0.079454 2.4781-2.3192z" clip-path="url(#a)" fill="#fff" stroke="#fff"/>
<g clip-path="url(#a)">
<g transform="translate(88.343 557.03) rotate(-88.103) scale(.08 -.08)">
<use xlink:href="#w"/>
</g>
</g>
<path d="m91.051 467.4 0.33328 5.044q0.15824 2.3948 2.553 2.2365l7.7257-0.51048q2.3948-0.15824 2.2365-2.553l-0.33328-5.044q-0.15824-2.3948-2.553-2.2365l-7.7257 0.51048q-2.3948 0.15824-2.2365 2.553z" clip-path="url(#a)" fill="#fff" stroke="#fff"/>
<g clip-path="url(#a)">
<defs>
<path id="aq" d="m9.8125 72.906h46.094v-8.3125h-36.234v-21.578h34.719v-8.2969h-34.719v-26.422h37.109v-8.2969h-46.969z"/>
</defs>
<g transform="translate(95.106 467.13) rotate(86.22) scale(.08 -.08)">
<use xlink:href="#aq"/>
</g>
</g>
<path d="m176.46 790.51v33.808q0 2.4 2.4 2.4h7.7425q2.4 0 2.4-2.4v-33.808q0-2.4-2.4-2.4h-7.7425q-2.4 0-2.4 2.4z" clip-path="url(#a)" fill="#fff" stroke="#fff"/>
<g clip-path="url(#a)">
<g transform="translate(180.52 790.51) rotate(90) scale(.08 -.08)">
<use xlink:href="#l"/>
<use x="44.083984" xlink:href="#d"/>
<use x="105.607422" xlink:href="#f"/>
<use x="144.970703" xlink:href="#j"/>
<use x="242.382812" xlink:href="#h"/>
<use x="270.166016" xlink:href="#i"/>
<use x="333.544922" xlink:href="#e"/>
<use x="394.824219" xlink:href="#k"/>
</g>
</g>
<path d="m234.43 643.06 1.1516-4.4548q0.60067-2.3236-1.7229-2.9243l-7.4961-1.9378q-2.3236-0.60067-2.9243 1.7229l-1.1516 4.4548q-0.60067 2.3236 1.7229 2.9243l7.4961 1.9378q2.3236 0.60067 2.9243-1.7229z" clip-path="url(#a)" fill="#fff" stroke="#fff"/>
<g clip-path="url(#a)">
<g transform="translate(230.49 642.05) rotate(-75.506) scale(.08 -.08)">
<use xlink:href="#ai"/>
</g>
</g>
<path d="m265.93 638.13 1.3981 5.4085q0.60067 2.3236 2.9243 1.7229l7.4961-1.9378q2.3236-0.60067 1.7229-2.9243l-1.3981-5.4085q-0.60067-2.3236-2.9243-1.7229l-7.4961 1.9378q-2.3236 0.60067-1.7229 2.9243z" clip-path="url(#a)" fill="#fff" stroke="#fff"/>
<g clip-path="url(#a)">
<g transform="translate(269.86 637.11) rotate(75.506) scale(.08 -.08)">
<use xlink:href="#w"/>
</g>
</g>
<path d="m247.12 642.32 0.43398-5.0363q0.20604-2.3911-2.1851-2.5972l-7.7139-0.6647q-2.3911-0.20604-2.5972 2.1851l-0.43398 5.0363q-0.20604 2.3911 2.1851 2.5972l7.7139 0.6647q2.3911 0.20604 2.5972-2.1851z" clip-path="url(#a)" fill="#fff" stroke="#fff"/>
<g clip-path="url(#a)">
<g transform="translate(243.07 641.97) rotate(-85.075) scale(.08 -.08)">
<use xlink:href="#aq"/>
</g>
</g>
<path d="m249.19 637.02 0.47958 5.5656q0.20604 2.3911 2.5972 2.1851l7.7139-0.6647q2.3911-0.20604 2.1851-2.5972l-0.47958-5.5656q-0.20604-2.3911-2.5972-2.1851l-7.7139 0.6647q-2.3911 0.20604-2.1851 2.5972z" clip-path="url(#a)" fill="#fff" stroke="#fff"/>
<g clip-path="url(#a)">
<g transform="translate(253.24 636.67) rotate(85.075) scale(.08 -.08)">
<use xlink:href="#w"/>
</g>
</g>
<path d="m227.52 790.51v33.808q0 2.4 2.4 2.4h7.7425q2.4 0 2.4-2.4v-33.808q0-2.4-2.4-2.4h-7.7425q-2.4 0-2.4 2.4z" clip-path="url(#a)" fill="#fff" stroke="#fff"/>
<g clip-path="url(#a)">
<g transform="translate(231.59 790.51) rotate(90) scale(.08 -.08)">
<use xlink:href="#l"/>
<use x="44.083984" xlink:href="#d"/>
<use x="105.607422" xlink:href="#f"/>
<use x="144.970703" xlink:href="#j"/>
<use x="242.382812" xlink:href="#h"/>
<use x="270.166016" xlink:href="#i"/>
<use x="333.544922" xlink:href="#e"/>
<use x="394.824219" xlink:href="#k"/>
</g>
</g>
<path d="m256.7 790.51v33.808q0 2.4 2.4 2.4h7.7425q2.4 0 2.4-2.4v-33.808q0-2.4-2.4-2.4h-7.7425q-2.4 0-2.4 2.4z" clip-path="url(#a)" fill="#fff" stroke="#fff"/>
<g clip-path="url(#a)">
<g transform="translate(260.77 790.51) rotate(90) scale(.08 -.08)">
<use xlink:href="#l"/>
<use x="44.083984" xlink:href="#d"/>
<use x="105.607422" xlink:href="#f"/>
<use x="144.970703" xlink:href="#j"/>
<use x="242.382812" xlink:href="#h"/>
<use x="270.166016" xlink:href="#i"/>
<use x="333.544922" xlink:href="#e"/>
<use x="394.824219" xlink:href="#k"/>
</g>
</g>
<path d="m200.78 790.51v33.808q0 2.4 2.4 2.4h7.7425q2.4 0 2.4-2.4v-33.808q0-2.4-2.4-2.4h-7.7425q-2.4 0-2.4 2.4z" clip-path="url(#a)" fill="#fff" stroke="#fff"/>
<g clip-path="url(#a)">
<g transform="translate(204.84 790.51) rotate(90) scale(.08 -.08)">
<use xlink:href="#l"/>
<use x="44.083984" xlink:href="#d"/>
<use x="105.607422" xlink:href="#f"/>
<use x="144.970703" xlink:href="#j"/>
<use x="242.382812" xlink:href="#h"/>
<use x="270.166016" xlink:href="#i"/>
<use x="333.544922" xlink:href="#e"/>
<use x="394.824219" xlink:href="#k"/>
</g>
</g>
<path d="m288.31 790.51v33.808q0 2.4 2.4 2.4h7.7425q2.4 0 2.4-2.4v-33.808q0-2.4-2.4-2.4h-7.7425q-2.4 0-2.4 2.4z" clip-path="url(#a)" fill="#fff" stroke="#fff"/>
<g clip-path="url(#a)">
<g transform="translate(292.38 790.51) rotate(90) scale(.08 -.08)">
<use xlink:href="#l"/>
<use x="44.083984" xlink:href="#d"/>
<use x="105.607422" xlink:href="#f"/>
<use x="144.970703" xlink:href="#j"/>
<use x="242.382812" xlink:href="#h"/>
<use x="270.166016" xlink:href="#i"/>
<use x="333.544922" xlink:href="#e"/>
<use x="394.824219" xlink:href="#k"/>
</g>
</g>
<path d="m74.335 790.51v33.808q0 2.4 2.4 2.4h7.7425q2.4 0 2.4-2.4v-33.808q0-2.4-2.4-2.4h-7.7425q-2.4 0-2.4 2.4z" clip-path="url(#a)" fill="#fff" stroke="#fff"/>
<g clip-path="url(#a)">
<g transform="translate(78.399 790.51) rotate(90) scale(.08 -.08)">
<use xlink:href="#l"/>
<use x="44.083984" xlink:href="#d"/>
<use x="105.607422" xlink:href="#f"/>
<use x="144.970703" xlink:href="#j"/>
<use x="242.382812" xlink:href="#h"/>
<use x="270.166016" xlink:href="#i"/>
<use x="333.544922" xlink:href="#e"/>
<use x="394.824219" xlink:href="#k"/>
</g>
</g>
<path d="m101.5 642.6 0.49695-5.5365q0.21456-2.3904-2.1758-2.605l-7.7115-0.69218q-2.3904-0.21456-2.605 2.1758l-0.49695 5.5365q-0.21456 2.3904 2.1758 2.605l7.7115 0.69218q2.3904 0.21456 2.605-2.1758z" clip-path="url(#a)" fill="#fff" stroke="#fff"/>
<g clip-path="url(#a)">
<g transform="translate(97.45 642.23) rotate(-84.871) scale(.08 -.08)">
<use xlink:href="#an"/>
</g>
</g>
<path d="m104.2 637.04 0.49941 5.5639q0.21456 2.3904 2.605 2.1758l7.7115-0.69218q2.3904-0.21456 2.1758-2.605l-0.49941-5.5639q-0.21456-2.3904-2.605-2.1758l-7.7115 0.69218q-2.3904 0.21456-2.1758 2.605z" clip-path="url(#a)" fill="#fff" stroke="#fff"/>
<g clip-path="url(#a)">
<g transform="translate(108.25 636.68) rotate(84.871) scale(.08 -.08)">
<use xlink:href="#w"/>
</g>
</g>
<path d="m81.629 790.51v33.808q0 2.4 2.4 2.4h7.7425q2.4 0 2.4-2.4v-33.808q0-2.4-2.4-2.4h-7.7425q-2.4 0-2.4 2.4z" clip-path="url(#a)" fill="#fff" stroke="#fff"/>
<g clip-path="url(#a)">
<g transform="translate(85.693 790.51) rotate(90) scale(.08 -.08)">
<use xlink:href="#l"/>
<use x="44.083984" xlink:href="#d"/>
<use x="105.607422" xlink:href="#f"/>
<use x="144.970703" xlink:href="#j"/>
<use x="242.382812" xlink:href="#h"/>
<use x="270.166016" xlink:href="#i"/>
<use x="333.544922" xlink:href="#e"/>
<use x="394.824219" xlink:href="#k"/>
</g>
</g>
<path d="m112.11 824.96 4.1527-33.551q0.2948-2.3818-2.087-2.6766l-7.6839-0.95104q-2.3818-0.2948-2.6766 2.087l-4.1527 33.551q-0.2948 2.3818 2.087 2.6766l7.6839 0.95104q2.3818 0.2948 2.6766-2.087z" clip-path="url(#a)" fill="#fff" stroke="#fff"/>
<g clip-path="url(#a)">
<g transform="translate(108.08 824.46) rotate(-82.944) scale(.08 -.08)">
<use xlink:href="#l"/>
<use x="44.083984" xlink:href="#d"/>
<use x="105.607422" xlink:href="#f"/>
<use x="144.970703" xlink:href="#j"/>
<use x="242.382812" xlink:href="#h"/>
<use x="270.166016" xlink:href="#i"/>
<use x="333.544922" xlink:href="#e"/>
<use x="394.824219" xlink:href="#k"/>
</g>
</g>
<path d="m119.44 824.62 1.7207-33.764q0.12216-2.3969-2.2747-2.519l-7.7325-0.39408q-2.3969-0.12216-2.519 2.2747l-1.7207 33.764q-0.12216 2.3969 2.2747 2.519l7.7325 0.39408q2.3969 0.12216 2.519-2.2747z" clip-path="url(#a)" fill="#fff" stroke="#fff"/>
<g clip-path="url(#a)">
<g transform="translate(115.38 824.41) rotate(-87.082) scale(.08 -.08)">
<use xlink:href="#l"/>
<use x="44.083984" xlink:href="#d"/>
<use x="105.607422" xlink:href="#f"/>
<use x="144.970703" xlink:href="#j"/>
<use x="242.382812" xlink:href="#h"/>
<use x="270.166016" xlink:href="#i"/>
<use x="333.544922" xlink:href="#e"/>
<use x="394.824219" xlink:href="#k"/>
</g>
</g>
<path d="m114.45 790.75 1.2299 33.785q0.08731 2.3984 2.4857 2.3111l7.7374-0.28166q2.3984-0.08731 2.3111-2.4857l-1.2299-33.785q-0.08731-2.3984-2.4857-2.3111l-7.7374 0.28166q-2.3984 0.08731-2.3111 2.4857z" clip-path="url(#a)" fill="#fff" stroke="#fff"/>
<g clip-path="url(#a)">
<g transform="translate(118.51 790.6) rotate(87.915) scale(.08 -.08)">
<use xlink:href="#l"/>
<use x="44.083984" xlink:href="#d"/>
<use x="105.607422" xlink:href="#f"/>
<use x="144.970703" xlink:href="#j"/>
<use x="242.382812" xlink:href="#h"/>
<use x="270.166016" xlink:href="#i"/>
<use x="333.544922" xlink:href="#e"/>
<use x="394.824219" xlink:href="#k"/>
</g>
</g>
<path d="m121.32 791.53 4.6326 33.489q0.32886 2.3774 2.7062 2.0485l7.6695-1.0609q2.3774-0.32887 2.0485-2.7062l-4.6326-33.489q-0.32886-2.3774-2.7062-2.0485l-7.6695 1.0609q-2.3774 0.32887-2.0485 2.7062z" clip-path="url(#a)" fill="#fff" stroke="#fff"/>
<g clip-path="url(#a)">
<g transform="translate(125.34 790.97) rotate(82.124) scale(.08 -.08)">
<use xlink:href="#l"/>
<use x="44.083984" xlink:href="#d"/>
<use x="105.607422" xlink:href="#f"/>
<use x="144.970703" xlink:href="#j"/>
<use x="242.382812" xlink:href="#h"/>
<use x="270.166016" xlink:href="#i"/>
<use x="333.544922" xlink:href="#e"/>
<use x="394.824219" xlink:href="#k"/>
</g>
</g>
<path d="m154.58 790.51v33.808q0 2.4 2.4 2.4h7.7425q2.4 0 2.4-2.4v-33.808q0-2.4-2.4-2.4h-7.7425q-2.4 0-2.4 2.4z" clip-path="url(#a)" fill="#fff" stroke="#fff"/>
<g clip-path="url(#a)">
<g transform="translate(158.64 790.51) rotate(90) scale(.08 -.08)">
<use xlink:href="#l"/>
<use x="44.083984" xlink:href="#d"/>
<use x="105.607422" xlink:href="#f"/>
<use x="144.970703" xlink:href="#j"/>
<use x="242.382812" xlink:href="#h"/>
<use x="270.166016" xlink:href="#i"/>
<use x="333.544922" xlink:href="#e"/>
<use x="394.824219" xlink:href="#k"/>
</g>
</g>
<path d="m397.73 790.51v33.808q0 2.4 2.4 2.4h7.7425q2.4 0 2.4-2.4v-33.808q0-2.4-2.4-2.4h-7.7425q-2.4 0-2.4 2.4z" clip-path="url(#a)" fill="#fff" stroke="#fff"/>
<g clip-path="url(#a)">
<g transform="translate(401.8 790.51) rotate(90) scale(.08 -.08)">
<use xlink:href="#l"/>
<use x="44.083984" xlink:href="#d"/>
<use x="105.607422" xlink:href="#f"/>
<use x="144.970703" xlink:href="#j"/>
<use x="242.382812" xlink:href="#h"/>
<use x="270.166016" xlink:href="#i"/>
<use x="333.544922" xlink:href="#e"/>
<use x="394.824219" xlink:href="#k"/>
</g>
</g>
<path d="m529.04 790.51v33.808q0 2.4 2.4 2.4h7.7425q2.4 0 2.4-2.4v-33.808q0-2.4-2.4-2.4h-7.7425q-2.4 0-2.4 2.4z" clip-path="url(#a)" fill="#fff" stroke="#fff"/>
<g clip-path="url(#a)">
<g transform="translate(533.1 790.51) rotate(90) scale(.08 -.08)">
<use xlink:href="#l"/>
<use x="44.083984" xlink:href="#d"/>
<use x="105.607422" xlink:href="#f"/>
<use x="144.970703" xlink:href="#j"/>
<use x="242.382812" xlink:href="#h"/>
<use x="270.166016" xlink:href="#i"/>
<use x="333.544922" xlink:href="#e"/>
<use x="394.824219" xlink:href="#k"/>
</g>
</g>
<path d="m1273.1 790.51v33.808q0 2.4 2.4 2.4h7.7425q2.4 0 2.4-2.4v-33.808q0-2.4-2.4-2.4h-7.7425q-2.4 0-2.4 2.4z" clip-path="url(#a)" fill="#fff" stroke="#fff"/>
<g clip-path="url(#a)">
<g transform="translate(1277.2 790.51) rotate(90) scale(.08 -.08)">
<use xlink:href="#l"/>
<use x="44.083984" xlink:href="#d"/>
<use x="105.607422" xlink:href="#f"/>
<use x="144.970703" xlink:href="#j"/>
<use x="242.382812" xlink:href="#h"/>
<use x="270.166016" xlink:href="#i"/>
<use x="333.544922" xlink:href="#e"/>
<use x="394.824219" xlink:href="#k"/>
</g>
</g>
<path d="m1686.5 790.51v33.808q0 2.4 2.4 2.4h7.7425q2.4 0 2.4-2.4v-33.808q0-2.4-2.4-2.4h-7.7425q-2.4 0-2.4 2.4z" clip-path="url(#a)" fill="#fff" stroke="#fff"/>
<g clip-path="url(#a)">
<g transform="translate(1690.5 790.51) rotate(90) scale(.08 -.08)">
<use xlink:href="#l"/>
<use x="44.083984" xlink:href="#d"/>
<use x="105.607422" xlink:href="#f"/>
<use x="144.970703" xlink:href="#j"/>
<use x="242.382812" xlink:href="#h"/>
<use x="270.166016" xlink:href="#i"/>
<use x="333.544922" xlink:href="#e"/>
<use x="394.824219" xlink:href="#k"/>
</g>
</g>
<defs>
<path id="b" d="m0 8.6603c2.2967 0 4.4997-0.9125 6.1237-2.5365 1.624-1.624 2.5365-3.827 2.5365-6.1237s-0.9125-4.4997-2.5365-6.1237c-1.624-1.624-3.827-2.5365-6.1237-2.5365s-4.4997 0.9125-6.1237 2.5365c-1.624 1.624-2.5365 3.827-2.5365 6.1237s0.9125 4.4997 2.5365 6.1237c1.624 1.624 3.827 2.5365 6.1237 2.5365z"/>
</defs>
<g clip-path="url(#a)">
<use x="80.606061" y="890.909091" fill="#ffffff" stroke="#ffffff" xlink:href="#b"/>
</g>
<g clip-path="url(#a)">
<use x="87.900727" y="890.909091" fill="#ffffff" stroke="#ffffff" xlink:href="#b"/>
</g>
<g clip-path="url(#a)">
<use x="97.626948" y="890.909091" fill="#ffffff" stroke="#ffffff" xlink:href="#b"/>
</g>
<g clip-path="url(#a)">
<use x="109.784725" y="890.909091" fill="#ffffff" stroke="#ffffff" xlink:href="#b"/>
</g>
<g clip-path="url(#a)">
<use x="124.374057" y="890.909091" fill="#ffffff" stroke="#ffffff" xlink:href="#b"/>
</g>
<g clip-path="url(#a)">
<use x="141.394945" y="890.909091" fill="#ffffff" stroke="#ffffff" xlink:href="#b"/>
</g>
<g clip-path="url(#a)">
<use x="160.847388" y="890.909091" fill="#ffffff" stroke="#ffffff" xlink:href="#b"/>
</g>
<g clip-path="url(#a)">
<use x="182.731386" y="890.909091" fill="#ffffff" stroke="#ffffff" xlink:href="#b"/>
</g>
<g clip-path="url(#a)">
<use x="207.04694" y="890.909091" fill="#ffffff" stroke="#ffffff" xlink:href="#b"/>
</g>
<g clip-path="url(#a)">
<use x="233.794049" y="890.909091" fill="#ffffff" stroke="#ffffff" xlink:href="#b"/>
</g>
<g clip-path="url(#a)">
<use x="262.972714" y="890.909091" fill="#ffffff" stroke="#ffffff" xlink:href="#b"/>
</g>
<g clip-path="url(#a)">
<use x="294.582933" y="890.909091" fill="#ffffff" stroke="#ffffff" xlink:href="#b"/>
</g>
<g clip-path="url(#a)">
<use x="328.624709" y="890.909091" fill="#ffffff" stroke="#ffffff" xlink:href="#b"/>
</g>
<g clip-path="url(#a)">
<use x="365.098039" y="890.909091" fill="#ffffff" stroke="#ffffff" xlink:href="#b"/>
</g>
<g clip-path="url(#a)">
<use x="404.002925" y="890.909091" fill="#ffffff" stroke="#ffffff" xlink:href="#b"/>
</g>
<g clip-path="url(#a)">
<use x="445.339367" y="890.909091" fill="#ffffff" stroke="#ffffff" xlink:href="#b"/>
</g>
<g clip-path="url(#a)">
<use x="489.107363" y="890.909091" fill="#ffffff" stroke="#ffffff" xlink:href="#b"/>
</g>
<g clip-path="url(#a)">
<use x="535.306915" y="890.909091" fill="#ffffff" stroke="#ffffff" xlink:href="#b"/>
</g>
<g clip-path="url(#a)">
<use x="583.938023" y="890.909091" fill="#ffffff" stroke="#ffffff" xlink:href="#b"/>
</g>
<g clip-path="url(#a)">
<use x="635.000686" y="890.909091" fill="#ffffff" stroke="#ffffff" xlink:href="#b"/>
</g>
<g clip-path="url(#a)">
<use x="688.494904" y="890.909091" fill="#ffffff" stroke="#ffffff" xlink:href="#b"/>
</g>
<g clip-path="url(#a)">
<use x="744.420677" y="890.909091" fill="#ffffff" stroke="#ffffff" xlink:href="#b"/>
</g>
<g clip-path="url(#a)">
<use x="802.778006" y="890.909091" fill="#ffffff" stroke="#ffffff" xlink:href="#b"/>
</g>
<g clip-path="url(#a)">
<use x="863.566891" y="890.909091" fill="#ffffff" stroke="#ffffff" xlink:href="#b"/>
</g>
<g clip-path="url(#a)">
<use x="926.78733" y="890.909091" fill="#ffffff" stroke="#ffffff" xlink:href="#b"/>
</g>
<g clip-path="url(#a)">
<use x="992.439325" y="890.909091" fill="#ffffff" stroke="#ffffff" xlink:href="#b"/>
</g>
<g clip-path="url(#a)">
<use x="1060.522876" y="890.909091" fill="#ffffff" stroke="#ffffff" xlink:href="#b"/>
</g>
<g clip-path="url(#a)">
<use x="1131.037982" y="890.909091" fill="#ffffff" stroke="#ffffff" xlink:href="#b"/>
</g>
<g clip-path="url(#a)">
<use x="1203.984643" y="890.909091" fill="#ffffff" stroke="#ffffff" xlink:href="#b"/>
</g>
<g clip-path="url(#a)">
<use x="1279.362859" y="890.909091" fill="#ffffff" stroke="#ffffff" xlink:href="#b"/>
</g>
<g clip-path="url(#a)">
<use x="1357.172631" y="890.909091" fill="#ffffff" stroke="#ffffff" xlink:href="#b"/>
</g>
<g clip-path="url(#a)">
<use x="1437.413959" y="890.909091" fill="#ffffff" stroke="#ffffff" xlink:href="#b"/>
</g>
<g clip-path="url(#a)">
<use x="1520.086841" y="890.909091" fill="#ffffff" stroke="#ffffff" xlink:href="#b"/>
</g>
<g clip-path="url(#a)">
<use x="1605.191279" y="890.909091" fill="#ffffff" stroke="#ffffff" xlink:href="#b"/>
</g>
<g clip-path="url(#a)">
<use x="1692.727273" y="890.909091" fill="#ffffff" stroke="#ffffff" xlink:href="#b"/>
</g>
<g clip-path="url(#a)">
<use x="787.004212" y="42.424242" fill="#ffffff" stroke="#ffffff" xlink:href="#b"/>
</g>
<g clip-path="url(#a)">
<use x="186.925819" y="213.634195" fill="#ffffff" stroke="#ffffff" xlink:href="#b"/>
</g>
<g clip-path="url(#a)">
<use x="329.435227" y="554.610783" fill="#ffffff" stroke="#ffffff" xlink:href="#b"/>
</g>
<g clip-path="url(#a)">
<use x="467.223365" y="554.610783" fill="#ffffff" stroke="#ffffff" xlink:href="#b"/>
</g>
<g clip-path="url(#a)">
<use x="524.972805" y="384.412118" fill="#ffffff" stroke="#ffffff" xlink:href="#b"/>
</g>
<g clip-path="url(#a)">
<use x="863.566891" y="723.921428" fill="#ffffff" stroke="#ffffff" xlink:href="#b"/>
</g>
<g clip-path="url(#a)">
<use x="1062.954431" y="554.610783" fill="#ffffff" stroke="#ffffff" xlink:href="#b"/>
</g>
<g clip-path="url(#a)">
<use x="1397.293295" y="554.610783" fill="#ffffff" stroke="#ffffff" xlink:href="#b"/>
</g>
<g clip-path="url(#a)">
<use x="1606.001798" y="554.610783" fill="#ffffff" stroke="#ffffff" xlink:href="#b"/>
</g>
<g clip-path="url(#a)">
<use x="1520.086841" y="723.921428" fill="#ffffff" stroke="#ffffff" xlink:href="#b"/>
</g>
<g clip-path="url(#a)">
<use x="1605.191279" y="723.921428" fill="#ffffff" stroke="#ffffff" xlink:href="#b"/>
</g>
<g clip-path="url(#a)">
<use x="1357.172631" y="723.921428" fill="#ffffff" stroke="#ffffff" xlink:href="#b"/>
</g>
<g clip-path="url(#a)">
<use x="1437.413959" y="723.921428" fill="#ffffff" stroke="#ffffff" xlink:href="#b"/>
</g>
<g clip-path="url(#a)">
<use x="926.78733" y="723.921428" fill="#ffffff" stroke="#ffffff" xlink:href="#b"/>
</g>
<g clip-path="url(#a)">
<use x="992.439325" y="723.921428" fill="#ffffff" stroke="#ffffff" xlink:href="#b"/>
</g>
<g clip-path="url(#a)">
<use x="1060.522876" y="723.921428" fill="#ffffff" stroke="#ffffff" xlink:href="#b"/>
</g>
<g clip-path="url(#a)">
<use x="1131.037982" y="723.921428" fill="#ffffff" stroke="#ffffff" xlink:href="#b"/>
</g>
<g clip-path="url(#a)">
<use x="1203.984643" y="723.921428" fill="#ffffff" stroke="#ffffff" xlink:href="#b"/>
</g>
<g clip-path="url(#a)">
<use x="583.938023" y="723.921428" fill="#ffffff" stroke="#ffffff" xlink:href="#b"/>
</g>
<g clip-path="url(#a)">
<use x="661.747795" y="554.610783" fill="#ffffff" stroke="#ffffff" xlink:href="#b"/>
</g>
<g clip-path="url(#a)">
<use x="773.599342" y="554.610783" fill="#ffffff" stroke="#ffffff" xlink:href="#b"/>
</g>
<g clip-path="url(#a)">
<use x="744.420677" y="723.921428" fill="#ffffff" stroke="#ffffff" xlink:href="#b"/>
</g>
<g clip-path="url(#a)">
<use x="802.778006" y="723.921428" fill="#ffffff" stroke="#ffffff" xlink:href="#b"/>
</g>
<g clip-path="url(#a)">
<use x="635.000686" y="723.921428" fill="#ffffff" stroke="#ffffff" xlink:href="#b"/>
</g>
<g clip-path="url(#a)">
<use x="688.494904" y="723.921428" fill="#ffffff" stroke="#ffffff" xlink:href="#b"/>
</g>
<g clip-path="url(#a)">
<use x="445.339367" y="723.921428" fill="#ffffff" stroke="#ffffff" xlink:href="#b"/>
</g>
<g clip-path="url(#a)">
<use x="489.107363" y="723.921428" fill="#ffffff" stroke="#ffffff" xlink:href="#b"/>
</g>
<g clip-path="url(#a)">
<use x="328.624709" y="723.921428" fill="#ffffff" stroke="#ffffff" xlink:href="#b"/>
</g>
<g clip-path="url(#a)">
<use x="365.098039" y="723.921428" fill="#ffffff" stroke="#ffffff" xlink:href="#b"/>
</g>
<g clip-path="url(#a)">
<use x="91.852004" y="384.412118" fill="#ffffff" stroke="#ffffff" xlink:href="#b"/>
</g>
<g clip-path="url(#a)">
<use x="182.731386" y="723.921428" fill="#ffffff" stroke="#ffffff" xlink:href="#b"/>
</g>
<g clip-path="url(#a)">
<use x="250.814937" y="554.610783" fill="#ffffff" stroke="#ffffff" xlink:href="#b"/>
</g>
<g clip-path="url(#a)">
<use x="248.383381" y="554.610783" fill="#ffffff" stroke="#ffffff" xlink:href="#b"/>
</g>
<g clip-path="url(#a)">
<use x="233.794049" y="723.921428" fill="#ffffff" stroke="#ffffff" xlink:href="#b"/>
</g>
<g clip-path="url(#a)">
<use x="262.972714" y="723.921428" fill="#ffffff" stroke="#ffffff" xlink:href="#b"/>
</g>
<g clip-path="url(#a)">
<use x="207.04694" y="723.921428" fill="#ffffff" stroke="#ffffff" xlink:href="#b"/>
</g>
<g clip-path="url(#a)">
<use x="294.582933" y="723.921428" fill="#ffffff" stroke="#ffffff" xlink:href="#b"/>
</g>
<g clip-path="url(#a)">
<use x="80.606061" y="723.921428" fill="#ffffff" stroke="#ffffff" xlink:href="#b"/>
</g>
<g clip-path="url(#a)">
<use x="103.097948" y="554.610783" fill="#ffffff" stroke="#ffffff" xlink:href="#b"/>
</g>
<g clip-path="url(#a)">
<use x="87.900727" y="723.921428" fill="#ffffff" stroke="#ffffff" xlink:href="#b"/>
</g>
<g clip-path="url(#a)">
<use x="118.295169" y="723.921428" fill="#ffffff" stroke="#ffffff" xlink:href="#b"/>
</g>
<g clip-path="url(#a)">
<use x="160.847388" y="723.921428" fill="#ffffff" stroke="#ffffff" xlink:href="#b"/>
</g>
<g clip-path="url(#a)">
<use x="404.002925" y="723.921428" fill="#ffffff" stroke="#ffffff" xlink:href="#b"/>
</g>
<g clip-path="url(#a)">
<use x="535.306915" y="723.921428" fill="#ffffff" stroke="#ffffff" xlink:href="#b"/>
</g>
<g clip-path="url(#a)">
<use x="1279.362859" y="723.921428" fill="#ffffff" stroke="#ffffff" xlink:href="#b"/>
</g>
<g clip-path="url(#a)">
<use x="1692.727273" y="723.921428" fill="#ffffff" stroke="#ffffff" xlink:href="#b"/>
</g>
<g clip-path="url(#a)">
<defs>
<path id="aw" d="m9.8125 72.906h14.703l18.594-49.609 18.703 49.609h14.703v-72.906h-9.625v64.016l-18.797-50h-9.9062l-18.797 50v-64.016h-9.5781z"/>
<path id="aj" d="m9.0781 75.984h9.0312v-44.875l26.812 23.578h11.469l-29-25.578 30.234-29.109h-11.719l-27.797 26.703v-26.703h-9.0312z"/>
</defs>
<g transform="translate(68.277 893.67) scale(.1 -.1)">
<use xlink:href="#aw"/>
<use x="86.279297" xlink:href="#e"/>
<use x="147.558594" xlink:href="#f"/>
<use x="188.671875" xlink:href="#aj"/>
</g>
</g>
<g clip-path="url(#a)">
<defs>
<path id="p" d="m18.312 70.219v-15.531h18.5v-6.9844h-18.5v-29.688q0-6.6875 1.8281-8.5938t7.4531-1.9062h9.2188v-7.5156h-9.2188q-10.406 0-14.359 3.875-3.9531 3.8906-3.9531 14.141v29.688h-6.5938v6.9844h6.5938v15.531z"/>
</defs>
<g transform="translate(82.877 893.67) scale(.1 -.1)">
<use xlink:href="#e"/>
<use x="61.279297" xlink:href="#p"/>
</g>
</g>
<g clip-path="url(#a)">
<g transform="translate(77.108 893.67) scale(.1 -.1)">
<use xlink:href="#l"/>
<use x="57.958984" xlink:href="#h"/>
<use x="85.742188" xlink:href="#i"/>
<use x="149.121094" xlink:href="#p"/>
<use x="188.330078" xlink:href="#j"/>
<use x="285.742188" xlink:href="#e"/>
<use x="347.021484" xlink:href="#i"/>
</g>
</g>
<g clip-path="url(#a)">
<defs>
<path id="av" d="m9.8125 72.906h13.281l32.328-60.984v60.984h9.5625v-72.906h-13.281l-32.312 60.984v-60.984h-9.5781z"/>
<path id="r" d="m30.609 48.391q-7.2188 0-11.422-5.6406t-4.2031-15.453 4.1719-15.453q4.1875-5.6406 11.453-5.6406 7.1875 0 11.375 5.6562 4.2031 5.6719 4.2031 15.438 0 9.7188-4.2031 15.406-4.1875 5.6875-11.375 5.6875zm0 7.6094q11.719 0 18.406-7.625 6.7031-7.6094 6.7031-21.078 0-13.422-6.7031-21.078-6.6875-7.6406-18.406-7.6406-11.766 0-18.438 7.6406-6.6562 7.6562-6.6562 21.078 0 13.469 6.6562 21.078 6.6719 7.625 18.438 7.625z"/>
<path id="ay" d="m4.2031 54.688h8.9844l11.234-42.672 11.172 42.672h10.594l11.234-42.672 11.188 42.672h8.9844l-14.312-54.688h-10.594l-11.766 44.828-11.812-44.828h-10.609z"/>
<path id="s" d="m45.406 46.391v29.594h8.9844v-75.984h-8.9844v8.2031q-2.8281-4.875-7.1562-7.25-4.3125-2.375-10.375-2.375-9.9062 0-16.141 7.9062-6.2188 7.9219-6.2188 20.812t6.2188 20.797q6.2344 7.9062 16.141 7.9062 6.0625 0 10.375-2.375 4.3281-2.3594 7.1562-7.2344zm-30.609-19.094q0-9.9062 4.0781-15.547t11.203-5.6406 11.219 5.6406q4.1094 5.6406 4.1094 15.547t-4.1094 15.547q-4.0938 5.6406-11.219 5.6406t-11.203-5.6406-4.0781-15.547z"/>
</defs>
<g transform="translate(81.674 893.67) scale(.1 -.1)">
<use xlink:href="#av"/>
<use x="74.804688" xlink:href="#e"/>
<use x="136.083984" xlink:href="#p"/>
<use x="175.292969" xlink:href="#h"/>
<use x="203.076172" xlink:href="#r"/>
<use x="264.257812" xlink:href="#i"/>
<use x="327.636719" xlink:href="#ay"/>
<use x="409.423828" xlink:href="#h"/>
<use x="437.207031" xlink:href="#s"/>
<use x="500.683594" xlink:href="#d"/>
</g>
</g>
<g clip-path="url(#a)">
<defs>
<path id="ac" d="m44.281 53.078v-8.5q-3.7969 1.9531-7.9062 2.9219-4.0938 0.98438-8.5 0.98438-6.6875 0-10.031-2.0469t-3.3438-6.1562q0-3.125 2.3906-4.9062t9.625-3.3906l3.0781-0.6875q9.5625-2.0469 13.594-5.7812t4.0312-10.422q0-7.625-6.0312-12.078-6.0312-4.4375-16.578-4.4375-4.3906 0-9.1562 0.85938t-10.031 2.5625v9.2812q4.9844-2.5938 9.8125-3.8906 4.8281-1.2812 9.5781-1.2812 6.3438 0 9.75 2.1719 3.4219 2.1719 3.4219 6.125 0 3.6562-2.4688 5.6094-2.4531 1.9531-10.812 3.7656l-3.125 0.73438q-8.3438 1.75-12.062 5.3906-3.7031 3.6406-3.7031 9.9844 0 7.7188 5.4688 11.906 5.4688 4.2031 15.531 4.2031 4.9688 0 9.3594-0.73438 4.4062-0.71875 8.1094-2.1875z"/>
</defs>
<g transform="translate(113.29 893.67) scale(.1 -.1)">
<use xlink:href="#p"/>
<use x="39.208984" xlink:href="#h"/>
<use x="66.992188" xlink:href="#i"/>
<use x="130.371094" xlink:href="#p"/>
<use x="169.580078" xlink:href="#ac"/>
</g>
</g>
<g clip-path="url(#a)">
<g transform="translate(133.47 893.67) scale(.1 -.1)">
<use xlink:href="#ao"/>
<use x="55.712891" xlink:href="#p"/>
<use x="94.921875" xlink:href="#s"/>
</g>
</g>
<g clip-path="url(#a)">
<defs>
<path id="ag" d="m11.719 12.406h10.297v-8.4062l-8-15.625h-6.2969l4 15.625z"/>
</defs>
<g transform="translate(159.26 893.67) scale(.1 -.1)">
<use xlink:href="#ag"/>
</g>
</g>
<g clip-path="url(#a)">
<g transform="translate(174.99 893.67) scale(.1 -.1)">
<use xlink:href="#s"/>
<use x="63.476562" xlink:href="#h"/>
<use x="91.259766" xlink:href="#s"/>
</g>
</g>
<g clip-path="url(#a)">
<g transform="translate(203.98 893.67) scale(.1 -.1)">
<use xlink:href="#e"/>
</g>
</g>
<g clip-path="url(#a)">
<defs>
<path id="ah" d="m2.9844 54.688h9.5156l17.094-45.891 17.094 45.891h9.5156l-20.516-54.688h-12.203z"/>
<path id="as" d="m32.172-5.0781q-3.7969-9.7656-7.4219-12.734-3.6094-2.9844-9.6562-2.9844h-7.1875v7.5156h5.2812q3.7031 0 5.75 1.7656 2.0625 1.75 4.5469 8.2969l1.6094 4.0938-22.109 53.812h9.5156l17.094-42.766 17.094 42.766h9.5156z"/>
</defs>
<g transform="translate(222.74 893.67) scale(.1 -.1)">
<use xlink:href="#ah"/>
<use x="59.179688" xlink:href="#d"/>
<use x="120.703125" xlink:href="#f"/>
<use x="161.816406" xlink:href="#as"/>
</g>
</g>
<g clip-path="url(#a)">
<defs>
<path id="au" d="m37.109 75.984v-7.4844h-8.5938q-4.8281 0-6.7188-1.9531-1.875-1.9531-1.875-7.0312v-4.8281h14.797v-6.9844h-14.797v-47.703h-9.0312v47.703h-8.5938v6.9844h8.5938v3.8125q0 9.125 4.25 13.297 4.25 4.1875 13.469 4.1875z"/>
</defs>
<g transform="translate(232.93 893.67) scale(.1 -.1)">
<use xlink:href="#v"/>
<use x="58.552734" xlink:href="#f"/>
<use x="97.416016" xlink:href="#r"/>
<use x="158.597656" xlink:href="#au"/>
<use x="193.802734" xlink:href="#d"/>
<use x="255.326172" xlink:href="#ac"/>
<use x="307.425781" xlink:href="#ac"/>
<use x="359.525391" xlink:href="#h"/>
<use x="387.308594" xlink:href="#r"/>
<use x="448.490234" xlink:href="#i"/>
<use x="511.869141" xlink:href="#e"/>
<use x="573.148438" xlink:href="#k"/>
</g>
</g>
<g clip-path="url(#a)">
<defs>
<path id="bb" d="m9.4219 54.688h8.9844v-55.672q0-10.438-3.9844-15.125-3.9688-4.6875-12.812-4.6875h-3.4219v7.6094h2.4062q5.125 0 6.9688 2.375 1.8594 2.3594 1.8594 9.8281zm0 21.297h8.9844v-11.391h-8.9844z"/>
<path id="al" d="m48.688 27.297q0 9.9062-4.0781 15.547t-11.203 5.6406q-7.1406 0-11.219-5.6406t-4.0781-15.547 4.0781-15.547 11.219-5.6406q7.125 0 11.203 5.6406t4.0781 15.547zm-30.578 19.094q2.8438 4.875 7.1562 7.2344 4.3281 2.375 10.328 2.375 9.9688 0 16.188-7.9062 6.2344-7.9062 6.2344-20.797t-6.2344-20.812q-6.2188-7.9062-16.188-7.9062-6 0-10.328 2.375-4.3125 2.375-7.1562 7.25v-8.2031h-9.0312v75.984h9.0312z"/>
</defs>
<g transform="translate(286.96 893.67) scale(.1 -.1)">
<use xlink:href="#bb"/>
<use x="27.783203" xlink:href="#r"/>
<use x="88.964844" xlink:href="#al"/>
</g>
</g>
<g clip-path="url(#a)">
<g transform="translate(317.57 893.67) scale(.1 -.1)">
<use xlink:href="#ah"/>
<use x="59.179688" xlink:href="#d"/>
<use x="120.703125" xlink:href="#f"/>
<use x="161.816406" xlink:href="#as"/>
</g>
</g>
<g clip-path="url(#a)">
<defs>
<path id="az" d="m14.797 27.297q0-9.9062 4.0781-15.547t11.203-5.6406 11.219 5.6406q4.1094 5.6406 4.1094 15.547t-4.1094 15.547q-4.0938 5.6406-11.219 5.6406t-11.203-5.6406-4.0781-15.547zm30.609-19.094q-2.8281-4.875-7.1562-7.25-4.3125-2.375-10.375-2.375-9.9062 0-16.141 7.9062-6.2188 7.9219-6.2188 20.812t6.2188 20.797q6.2344 7.9062 16.141 7.9062 6.0625 0 10.375-2.375 4.3281-2.3594 7.1562-7.2344v8.2969h8.9844v-75.484h-8.9844z"/>
<path id="at" d="m8.5 21.578v33.109h8.9844v-32.766q0-7.7656 3.0156-11.656 3.0312-3.875 9.0938-3.875 7.2656 0 11.484 4.6406 4.2344 4.6406 4.2344 12.656v31h8.9844v-54.688h-8.9844v8.4062q-3.2656-4.9844-7.5938-7.4062-4.3125-2.4219-10.031-2.4219-9.4219 0-14.312 5.8594-4.875 5.8594-4.875 17.141z"/>
<path id="ad" d="m48.781 52.594v-8.4062q-3.8125 2.1094-7.6406 3.1562t-7.7344 1.0469q-8.75 0-13.594-5.5469-4.8281-5.5312-4.8281-15.547t4.8281-15.562q4.8438-5.5312 13.594-5.5312 3.9062 0 7.7344 1.0469t7.6406 3.1562v-8.3125q-3.7656-1.75-7.7969-2.625-4.0156-0.89062-8.5625-0.89062-12.359 0-19.641 7.7656-7.2656 7.7656-7.2656 20.953 0 13.375 7.3438 21.031 7.3594 7.6719 20.156 7.6719 4.1406 0 8.0938-0.85938 3.9531-0.84375 7.6719-2.5469z"/>
</defs>
<g transform="translate(351.72 893.67) scale(.1 -.1)">
<use xlink:href="#az"/>
<use x="63.476562" xlink:href="#at"/>
<use x="126.855469" xlink:href="#h"/>
<use x="154.638672" xlink:href="#ad"/>
<use x="209.619141" xlink:href="#aj"/>
</g>
</g>
<g clip-path="url(#a)">
<g transform="translate(402.41 893.67) scale(.1 -.1)">
<use xlink:href="#ag"/>
</g>
</g>
<g clip-path="url(#a)">
<g transform="translate(439.11 893.67) scale(.1 -.1)">
<use xlink:href="#i"/>
<use x="63.378906" xlink:href="#r"/>
</g>
</g>
<g clip-path="url(#a)">
<g transform="translate(478.97 893.67) scale(.1 -.1)">
<use xlink:href="#au"/>
<use x="35.205078" xlink:href="#at"/>
<use x="98.583984" xlink:href="#ac"/>
<use x="150.683594" xlink:href="#ac"/>
</g>
</g>
<g clip-path="url(#a)">
<g transform="translate(533.72 893.67) scale(.1 -.1)">
<use xlink:href="#ag"/>
</g>
</g>
<g clip-path="url(#a)">
<g transform="translate(563.73 893.67) scale(.1 -.1)">
<use xlink:href="#s"/>
<use x="63.476562" xlink:href="#d"/>
<use x="125" xlink:href="#k"/>
<use x="152.783203" xlink:href="#h"/>
<use x="180.566406" xlink:href="#ah"/>
<use x="239.746094" xlink:href="#d"/>
<use x="301.269531" xlink:href="#f"/>
<use x="340.632812" xlink:href="#s"/>
</g>
</g>
<g clip-path="url(#a)">
<defs>
<path id="ak" d="m54.891 33.016v-33.016h-8.9844v32.719q0 7.7656-3.0312 11.609-3.0312 3.8594-9.0781 3.8594-7.2812 0-11.484-4.6406-4.2031-4.625-4.2031-12.641v-30.906h-9.0312v75.984h9.0312v-29.797q3.2344 4.9375 7.5938 7.375 4.375 2.4375 10.094 2.4375 9.4219 0 14.25-5.8281 4.8438-5.8281 4.8438-17.156z"/>
</defs>
<g transform="translate(626.8 893.67) scale(.1 -.1)">
<use xlink:href="#p"/>
<use x="39.208984" xlink:href="#ak"/>
<use x="102.587891" xlink:href="#d"/>
</g>
</g>
<g clip-path="url(#a)">
<g transform="translate(680.63 893.67) scale(.1 -.1)">
<use xlink:href="#ad"/>
<use x="54.980469" xlink:href="#e"/>
<use x="116.259766" xlink:href="#f"/>
</g>
</g>
<g clip-path="url(#a)">
<g transform="translate(739.4 893.67) scale(.1 -.1)">
<use xlink:href="#p"/>
<use x="39.208984" xlink:href="#r"/>
</g>
</g>
<g clip-path="url(#a)">
<g transform="translate(794.83 893.67) scale(.1 -.1)">
<use xlink:href="#j"/>
<use x="97.412109" xlink:href="#d"/>
</g>
</g>
<g clip-path="url(#a)">
<g transform="translate(854.16 893.67) scale(.1 -.1)">
<use xlink:href="#e"/>
<use x="61.279297" xlink:href="#i"/>
<use x="124.658203" xlink:href="#s"/>
</g>
</g>
<g clip-path="url(#a)">
<defs>
<path id="ax" d="m9.8125 72.906h9.8594v-72.906h-9.8594z"/>
</defs>
<g transform="translate(925.31 893.67) scale(.1 -.1)">
<use xlink:href="#ax"/>
</g>
</g>
<g clip-path="url(#a)">
<g transform="translate(978.23 893.67) scale(.1 -.1)">
<use xlink:href="#s"/>
<use x="63.476562" xlink:href="#f"/>
<use x="102.339844" xlink:href="#r"/>
<use x="163.521484" xlink:href="#ah"/>
<use x="222.701172" xlink:href="#d"/>
</g>
</g>
<g clip-path="url(#a)">
<g transform="translate(1051.1 893.67) scale(.1 -.1)">
<use xlink:href="#ak"/>
<use x="63.378906" xlink:href="#h"/>
<use x="91.162109" xlink:href="#j"/>
</g>
</g>
<g clip-path="url(#a)">
<g transform="translate(1119.2 893.67) scale(.1 -.1)">
<use xlink:href="#al"/>
<use x="63.476562" xlink:href="#e"/>
<use x="124.755859" xlink:href="#ad"/>
<use x="179.736328" xlink:href="#aj"/>
</g>
</g>
<g clip-path="url(#a)">
<g transform="translate(1189.8 893.67) scale(.1 -.1)">
<use xlink:href="#ak"/>
<use x="63.378906" xlink:href="#r"/>
<use x="124.560547" xlink:href="#j"/>
<use x="221.972656" xlink:href="#d"/>
</g>
</g>
<g clip-path="url(#a)">
<g transform="translate(1277.8 893.67) scale(.1 -.1)">
<use xlink:href="#ag"/>
</g>
</g>
<g clip-path="url(#a)">
<defs>
<path id="ap" d="m59.516 10.406v19.578h-16.109v8.1094h25.875v-31.312q-5.7031-4.0469-12.594-6.125-6.875-2.0781-14.688-2.0781-17.094 0-26.75 9.9844-9.6406 10-9.6406 27.812 0 17.875 9.6406 27.859 9.6562 9.9844 26.75 9.9844 7.125 0 13.547-1.7656 6.4219-1.75 11.844-5.1719v-10.5q-5.4688 4.6406-11.625 6.9844t-12.938 2.3438q-13.391 0-20.109-7.4688-6.7031-7.4688-6.7031-22.266 0-14.75 6.7031-22.219 6.7188-7.4688 20.109-7.4688 5.2188 0 9.3125 0.90625 4.1094 0.90625 7.375 2.8125z"/>
</defs>
<g transform="translate(1343.3 893.67) scale(.1 -.1)">
<use xlink:href="#ap"/>
<use x="77.490234" xlink:href="#f"/>
<use x="116.353516" xlink:href="#d"/>
<use x="177.876953" xlink:href="#e"/>
<use x="239.15625" xlink:href="#p"/>
</g>
</g>
<g clip-path="url(#a)">
<defs>
<path id="bc" d="m45.406 27.984q0 9.7656-4.0312 15.125-4.0156 5.375-11.297 5.375-7.2188 0-11.25-5.375-4.0312-5.3594-4.0312-15.125 0-9.7188 4.0312-15.094t11.25-5.375q7.2812 0 11.297 5.375 4.0312 5.375 4.0312 15.094zm8.9844-21.203q0-13.953-6.2031-20.766-6.1875-6.8125-18.984-6.8125-4.7344 0-8.9375 0.70312t-8.1562 2.1719v8.7344q3.9531-2.1406 7.8125-3.1562 3.8594-1.0312 7.8594-1.0312 8.8438 0 13.234 4.6094t4.3906 13.938v4.4531q-2.7812-4.8438-7.125-7.2344t-10.406-2.3906q-10.047 0-16.203 7.6562-6.1562 7.6719-6.1562 20.328 0 12.688 6.1562 20.344 6.1562 7.6719 16.203 7.6719 6.0625 0 10.406-2.3906t7.125-7.2188v8.2969h8.9844z"/>
</defs>
<g transform="translate(1404.8 893.67) scale(.1 -.1)">
<use xlink:href="#e"/>
<use x="61.279297" xlink:href="#f"/>
<use x="100.642578" xlink:href="#f"/>
<use x="141.755859" xlink:href="#e"/>
<use x="203.035156" xlink:href="#i"/>
<use x="266.414062" xlink:href="#bc"/>
<use x="329.890625" xlink:href="#d"/>
<use x="391.414062" xlink:href="#j"/>
<use x="488.826172" xlink:href="#d"/>
<use x="550.349609" xlink:href="#i"/>
<use x="613.728516" xlink:href="#p"/>
</g>
</g>
<g clip-path="url(#a)">
<g transform="translate(1506.2 893.67) scale(.1 -.1)">
<use xlink:href="#ap"/>
<use x="77.490234" xlink:href="#f"/>
<use x="116.353516" xlink:href="#d"/>
<use x="177.876953" xlink:href="#e"/>
<use x="239.15625" xlink:href="#p"/>
</g>
</g>
<g clip-path="url(#a)">
<defs>
<path id="ba" d="m18.109 8.2031v-29h-9.0312v75.484h9.0312v-8.2969q2.8438 4.875 7.1562 7.2344 4.3281 2.375 10.328 2.375 9.9688 0 16.188-7.9062 6.2344-7.9062 6.2344-20.797t-6.2344-20.812q-6.2188-7.9062-16.188-7.9062-6 0-10.328 2.375-4.3125 2.375-7.1562 7.25zm30.578 19.094q0 9.9062-4.0781 15.547t-11.203 5.6406q-7.1406 0-11.219-5.6406t-4.0781-15.547 4.0781-15.547 11.219-5.6406q7.125 0 11.203 5.6406t4.0781 15.547z"/>
</defs>
<g transform="translate(1592.7 893.67) scale(.1 -.1)">
<use xlink:href="#ba"/>
<use x="63.476562" xlink:href="#f"/>
<use x="104.589844" xlink:href="#h"/>
<use x="132.373047" xlink:href="#ad"/>
<use x="187.353516" xlink:href="#d"/>
</g>
</g>
<g clip-path="url(#a)">
<defs>
<path id="ar" d="m15.094 12.406h9.9062v-12.406h-9.9062zm0 60.5h9.9062v-31.984l-0.96875-17.438h-7.9219l-1.0156 17.438z"/>
</defs>
<g transform="translate(1688.7 893.67) scale(.1 -.1)">
<use xlink:href="#ar"/>
<use x="40.087891" xlink:href="#ar"/>
</g>
</g>
<g clip-path="url(#a)">
<defs>
<path id="c" d="m12.406 8.2969h16.109v55.625l-17.531-3.5156v8.9844l17.438 3.5156h9.8594v-64.609h16.109v-8.2969h-41.984z"/>
<path id="g" d="m10.688 12.406h10.312v-12.406h-10.312z"/>
</defs>
<g transform="translate(779.05 45.184) scale(.1 -.1)">
<use xlink:href="#c"/>
<use x="63.623047" xlink:href="#g"/>
<use x="95.410156" xlink:href="#c"/>
</g>
</g>
<g clip-path="url(#a)">
<defs>
<path id="n" d="m19.188 8.2969h34.422v-8.2969h-46.281v8.2969q5.6094 5.8125 15.297 15.594 9.7031 9.7969 12.188 12.641 4.7344 5.3125 6.6094 9 1.8906 3.6875 1.8906 7.25 0 5.8125-4.0781 9.4688-4.0781 3.6719-10.625 3.6719-4.6406 0-9.7969-1.6094-5.1406-1.6094-11-4.8906v9.9688q5.9531 2.3906 11.125 3.6094 5.1875 1.2188 9.4844 1.2188 11.328 0 18.062-5.6719 6.7344-5.6562 6.7344-15.125 0-4.5-1.6875-8.5312-1.6719-4.0156-6.125-9.4844-1.2188-1.4219-7.7656-8.1875-6.5312-6.7656-18.453-18.922z"/>
</defs>
<g transform="translate(178.97 216.39) scale(.1 -.1)">
<use xlink:href="#c"/>
<use x="63.623047" xlink:href="#g"/>
<use x="95.410156" xlink:href="#n"/>
</g>
</g>
<g clip-path="url(#a)">
<defs>
<path id="o" d="m40.578 39.312q7.0781-1.5156 11.047-6.3125 3.9844-4.7812 3.9844-11.812 0-10.781-7.4219-16.703-7.4219-5.9062-21.094-5.9062-4.5781 0-9.4375 0.90625t-10.031 2.7188v9.5156q4.0938-2.3906 8.9688-3.6094 4.8906-1.2188 10.219-1.2188 9.2656 0 14.125 3.6562t4.8594 10.641q0 6.4531-4.5156 10.078-4.5156 3.6406-12.562 3.6406h-8.5v8.1094h8.8906q7.2656 0 11.125 2.9062t3.8594 8.375q0 5.6094-3.9844 8.6094-3.9688 3.0156-11.391 3.0156-4.0625 0-8.7031-0.89062-4.6406-0.875-10.203-2.7188v8.7812q5.625 1.5625 10.531 2.3438t9.25 0.78125q11.234 0 17.766-5.1094 6.5469-5.0938 6.5469-13.781 0-6.0625-3.4688-10.234t-9.8594-5.7812z"/>
</defs>
<g transform="translate(321.48 557.37) scale(.1 -.1)">
<use xlink:href="#c"/>
<use x="63.623047" xlink:href="#g"/>
<use x="95.410156" xlink:href="#o"/>
</g>
</g>
<g clip-path="url(#a)">
<defs>
<path id="m" d="m37.797 64.312-24.906-38.922h24.906zm-2.5938 8.5938h12.406v-47.516h10.406v-8.2031h-10.406v-17.188h-9.8125v17.188h-32.906v9.5156z"/>
</defs>
<g transform="translate(459.27 557.37) scale(.1 -.1)">
<use xlink:href="#c"/>
<use x="63.623047" xlink:href="#g"/>
<use x="95.410156" xlink:href="#m"/>
</g>
</g>
<g clip-path="url(#a)">
<defs>
<path id="u" d="m10.797 72.906h38.719v-8.3125h-29.688v-17.859q2.1406 0.73438 4.2812 1.0938 2.1562 0.35938 4.3125 0.35938 12.203 0 19.328-6.6875 7.1406-6.6875 7.1406-18.109 0-11.766-7.3281-18.297-7.3281-6.5156-20.656-6.5156-4.5938 0-9.3594 0.78125-4.75 0.78125-9.8281 2.3438v9.9219q4.3906-2.3906 9.0781-3.5625t9.9062-1.1719q8.4531 0 13.375 4.4375 4.9375 4.4375 4.9375 12.062 0 7.6094-4.9375 12.047-4.9219 4.4531-13.375 4.4531-3.9531 0-7.8906-0.875-3.9219-0.875-8.0156-2.7344z"/>
</defs>
<g transform="translate(517.02 387.17) scale(.1 -.1)">
<use xlink:href="#c"/>
<use x="63.623047" xlink:href="#g"/>
<use x="95.410156" xlink:href="#u"/>
</g>
</g>
<g clip-path="url(#a)">
<defs>
<path id="ab" d="m33.016 40.375q-6.6406 0-10.531-4.5469-3.875-4.5312-3.875-12.438 0-7.8594 3.875-12.438 3.8906-4.5625 10.531-4.5625t10.516 4.5625q3.875 4.5781 3.875 12.438 0 7.9062-3.875 12.438-3.875 4.5469-10.516 4.5469zm19.578 30.922v-8.9844q-3.7188 1.75-7.5 2.6719-3.7812 0.9375-7.5 0.9375-9.7656 0-14.922-6.5938-5.1406-6.5938-5.875-19.922 2.875 4.25 7.2188 6.5156 4.3594 2.2656 9.5781 2.2656 10.984 0 17.359-6.6719 6.375-6.6562 6.375-18.125 0-11.234-6.6406-18.031-6.6406-6.7812-17.672-6.7812-12.656 0-19.344 9.6875-6.6875 9.7031-6.6875 28.109 0 17.281 8.2031 27.562t22.016 10.281q3.7188 0 7.5-0.73438t7.8906-2.1875z"/>
</defs>
<g transform="translate(855.62 726.68) scale(.1 -.1)">
<use xlink:href="#c"/>
<use x="63.623047" xlink:href="#g"/>
<use x="95.410156" xlink:href="#ab"/>
</g>
</g>
<g clip-path="url(#a)">
<defs>
<path id="aa" d="m8.2031 72.906h46.875v-4.2031l-26.469-68.703h-10.297l24.906 64.594h-35.016z"/>
</defs>
<g transform="translate(1055 557.37) scale(.1 -.1)">
<use xlink:href="#c"/>
<use x="63.623047" xlink:href="#g"/>
<use x="95.410156" xlink:href="#aa"/>
</g>
</g>
<g clip-path="url(#a)">
<defs>
<path id="ae" d="m31.781 34.625q-7.0312 0-11.062-3.7656-4.0156-3.7656-4.0156-10.344 0-6.5938 4.0156-10.359 4.0312-3.7656 11.062-3.7656t11.078 3.7812q4.0625 3.7969 4.0625 10.344 0 6.5781-4.0312 10.344-4.0156 3.7656-11.109 3.7656zm-9.8594 4.1875q-6.3438 1.5625-9.8906 5.9062-3.5312 4.3594-3.5312 10.609 0 8.7344 6.2188 13.812 6.2344 5.0781 17.062 5.0781 10.891 0 17.094-5.0781t6.2031-13.812q0-6.25-3.5469-10.609-3.5312-4.3438-9.8281-5.9062 7.125-1.6562 11.094-6.5 3.9844-4.8281 3.9844-11.797 0-10.609-6.4688-16.281-6.4688-5.6562-18.531-5.6562-12.047 0-18.531 5.6562-6.4688 5.6719-6.4688 16.281 0 6.9688 4 11.797 4.0156 4.8438 11.141 6.5zm-3.6094 15.578q0-5.6562 3.5312-8.8281 3.5469-3.1719 9.9375-3.1719 6.3594 0 9.9375 3.1719 3.5938 3.1719 3.5938 8.8281 0 5.6719-3.5938 8.8438-3.5781 3.1719-9.9375 3.1719-6.3906 0-9.9375-3.1719-3.5312-3.1719-3.5312-8.8438z"/>
</defs>
<g transform="translate(1389.3 557.37) scale(.1 -.1)">
<use xlink:href="#c"/>
<use x="63.623047" xlink:href="#g"/>
<use x="95.410156" xlink:href="#ae"/>
</g>
</g>
<g clip-path="url(#a)">
<defs>
<path id="z" d="m10.984 1.5156v8.9844q3.7188-1.7656 7.5156-2.6875 3.8125-0.92188 7.4844-0.92188 9.7656 0 14.906 6.5625 5.1562 6.5625 5.8906 19.953-2.8281-4.2031-7.1875-6.4531-4.3438-2.25-9.6094-2.25-10.938 0-17.312 6.6094-6.375 6.625-6.375 18.109 0 11.219 6.6406 18 6.6406 6.7969 17.672 6.7969 12.656 0 19.312-9.7031 6.6719-9.6875 6.6719-28.141 0-17.234-8.1875-27.516-8.1719-10.281-21.984-10.281-3.7188 0-7.5312 0.73438-3.7969 0.73438-7.9062 2.2031zm19.625 30.906q6.6406 0 10.516 4.5312 3.8906 4.5469 3.8906 12.469 0 7.8594-3.8906 12.422-3.875 4.5625-10.516 4.5625t-10.516-4.5625-3.875-12.422q0-7.9219 3.875-12.469 3.875-4.5312 10.516-4.5312z"/>
</defs>
<g transform="translate(1598.1 557.37) scale(.1 -.1)">
<use xlink:href="#c"/>
<use x="63.623047" xlink:href="#g"/>
<use x="95.410156" xlink:href="#z"/>
</g>
</g>
<g clip-path="url(#a)">
<g transform="translate(1509 726.68) scale(.1 -.1)">
<use xlink:href="#c"/>
<use x="63.623047" xlink:href="#g"/>
<use x="95.410156" xlink:href="#c"/>
<use x="159.033203" xlink:href="#m"/>
</g>
</g>
<g clip-path="url(#a)">
<g transform="translate(1594.1 726.68) scale(.1 -.1)">
<use xlink:href="#c"/>
<use x="63.623047" xlink:href="#g"/>
<use x="95.410156" xlink:href="#c"/>
<use x="159.033203" xlink:href="#u"/>
</g>
</g>
<g clip-path="url(#a)">
<g transform="translate(1346 726.68) scale(.1 -.1)">
<use xlink:href="#c"/>
<use x="63.623047" xlink:href="#g"/>
<use x="95.410156" xlink:href="#c"/>
<use x="159.033203" xlink:href="#ab"/>
</g>
</g>
<g clip-path="url(#a)">
<g transform="translate(1426.3 726.68) scale(.1 -.1)">
<use xlink:href="#c"/>
<use x="63.623047" xlink:href="#g"/>
<use x="95.410156" xlink:href="#c"/>
<use x="159.033203" xlink:href="#aa"/>
</g>
</g>
<g clip-path="url(#a)">
<g transform="translate(915.65 726.68) scale(.1 -.1)">
<use xlink:href="#c"/>
<use x="63.623047" xlink:href="#g"/>
<use x="95.410156" xlink:href="#c"/>
<use x="159.033203" xlink:href="#ae"/>
</g>
</g>
<g clip-path="url(#a)">
<g transform="translate(981.31 726.68) scale(.1 -.1)">
<use xlink:href="#c"/>
<use x="63.623047" xlink:href="#g"/>
<use x="95.410156" xlink:href="#c"/>
<use x="159.033203" xlink:href="#z"/>
</g>
</g>
<g clip-path="url(#a)">
<defs>
<path id="af" d="m31.781 66.406q-7.6094 0-11.453-7.5-3.8281-7.4844-3.8281-22.531 0-14.984 3.8281-22.484 3.8438-7.5 11.453-7.5 7.6719 0 11.5 7.5 3.8438 7.5 3.8438 22.484 0 15.047-3.8438 22.531-3.8281 7.5-11.5 7.5zm0 7.8125q12.266 0 18.734-9.7031 6.4688-9.6875 6.4688-28.141 0-18.406-6.4688-28.109-6.4688-9.6875-18.734-9.6875-12.25 0-18.719 9.6875-6.4688 9.7031-6.4688 28.109 0 18.453 6.4688 28.141 6.4688 9.7031 18.719 9.7031z"/>
</defs>
<g transform="translate(1049.4 726.68) scale(.1 -.1)">
<use xlink:href="#c"/>
<use x="63.623047" xlink:href="#g"/>
<use x="95.410156" xlink:href="#n"/>
<use x="159.033203" xlink:href="#af"/>
</g>
</g>
<g clip-path="url(#a)">
<g transform="translate(1119.9 726.68) scale(.1 -.1)">
<use xlink:href="#c"/>
<use x="63.623047" xlink:href="#g"/>
<use x="95.410156" xlink:href="#n"/>
<use x="159.033203" xlink:href="#c"/>
</g>
</g>
<g clip-path="url(#a)">
<g transform="translate(1192.9 726.68) scale(.1 -.1)">
<use xlink:href="#c"/>
<use x="63.623047" xlink:href="#g"/>
<use x="95.410156" xlink:href="#n"/>
<use x="159.033203" xlink:href="#n"/>
</g>
</g>
<g clip-path="url(#a)">
<g transform="translate(572.81 726.68) scale(.1 -.1)">
<use xlink:href="#c"/>
<use x="63.623047" xlink:href="#g"/>
<use x="95.410156" xlink:href="#n"/>
<use x="159.033203" xlink:href="#o"/>
</g>
</g>
<g clip-path="url(#a)">
<g transform="translate(650.61 557.37) scale(.1 -.1)">
<use xlink:href="#c"/>
<use x="63.623047" xlink:href="#g"/>
<use x="95.410156" xlink:href="#n"/>
<use x="159.033203" xlink:href="#m"/>
</g>
</g>
<g clip-path="url(#a)">
<g transform="translate(762.47 557.37) scale(.1 -.1)">
<use xlink:href="#c"/>
<use x="63.623047" xlink:href="#g"/>
<use x="95.410156" xlink:href="#n"/>
<use x="159.033203" xlink:href="#u"/>
</g>
</g>
<g clip-path="url(#a)">
<g transform="translate(733.29 726.68) scale(.1 -.1)">
<use xlink:href="#c"/>
<use x="63.623047" xlink:href="#g"/>
<use x="95.410156" xlink:href="#n"/>
<use x="159.033203" xlink:href="#ab"/>
</g>
</g>
<g clip-path="url(#a)">
<g transform="translate(791.65 726.68) scale(.1 -.1)">
<use xlink:href="#c"/>
<use x="63.623047" xlink:href="#g"/>
<use x="95.410156" xlink:href="#n"/>
<use x="159.033203" xlink:href="#aa"/>
</g>
</g>
<g clip-path="url(#a)">
<g transform="translate(623.87 726.68) scale(.1 -.1)">
<use xlink:href="#c"/>
<use x="63.623047" xlink:href="#g"/>
<use x="95.410156" xlink:href="#n"/>
<use x="159.033203" xlink:href="#ae"/>
</g>
</g>
<g clip-path="url(#a)">
<g transform="translate(677.36 726.68) scale(.1 -.1)">
<use xlink:href="#c"/>
<use x="63.623047" xlink:href="#g"/>
<use x="95.410156" xlink:href="#n"/>
<use x="159.033203" xlink:href="#z"/>
</g>
</g>
<g clip-path="url(#a)">
<g transform="translate(434.21 726.68) scale(.1 -.1)">
<use xlink:href="#c"/>
<use x="63.623047" xlink:href="#g"/>
<use x="95.410156" xlink:href="#o"/>
<use x="159.033203" xlink:href="#af"/>
</g>
</g>
<g clip-path="url(#a)">
<g transform="translate(477.97 726.68) scale(.1 -.1)">
<use xlink:href="#c"/>
<use x="63.623047" xlink:href="#g"/>
<use x="95.410156" xlink:href="#o"/>
<use x="159.033203" xlink:href="#c"/>
</g>
</g>
<g clip-path="url(#a)">
<g transform="translate(317.49 726.68) scale(.1 -.1)">
<use xlink:href="#c"/>
<use x="63.623047" xlink:href="#g"/>
<use x="95.410156" xlink:href="#o"/>
<use x="159.033203" xlink:href="#n"/>
</g>
</g>
<g clip-path="url(#a)">
<g transform="translate(353.97 726.68) scale(.1 -.1)">
<use xlink:href="#c"/>
<use x="63.623047" xlink:href="#g"/>
<use x="95.410156" xlink:href="#o"/>
<use x="159.033203" xlink:href="#o"/>
</g>
</g>
<g clip-path="url(#a)">
<g transform="translate(80.719 387.17) scale(.1 -.1)">
<use xlink:href="#c"/>
<use x="63.623047" xlink:href="#g"/>
<use x="95.410156" xlink:href="#o"/>
<use x="159.033203" xlink:href="#m"/>
</g>
</g>
<g clip-path="url(#a)">
<g transform="translate(171.6 726.68) scale(.1 -.1)">
<use xlink:href="#c"/>
<use x="63.623047" xlink:href="#g"/>
<use x="95.410156" xlink:href="#o"/>
<use x="159.033203" xlink:href="#u"/>
</g>
</g>
<g clip-path="url(#a)">
<g transform="translate(239.68 557.37) scale(.1 -.1)">
<use xlink:href="#c"/>
<use x="63.623047" xlink:href="#g"/>
<use x="95.410156" xlink:href="#o"/>
<use x="159.033203" xlink:href="#ab"/>
</g>
</g>
<g clip-path="url(#a)">
<g transform="translate(237.25 557.37) scale(.1 -.1)">
<use xlink:href="#c"/>
<use x="63.623047" xlink:href="#g"/>
<use x="95.410156" xlink:href="#o"/>
<use x="159.033203" xlink:href="#aa"/>
</g>
</g>
<g clip-path="url(#a)">
<g transform="translate(222.66 726.68) scale(.1 -.1)">
<use xlink:href="#c"/>
<use x="63.623047" xlink:href="#g"/>
<use x="95.410156" xlink:href="#o"/>
<use x="159.033203" xlink:href="#z"/>
</g>
</g>
<g clip-path="url(#a)">
<g transform="translate(251.84 726.68) scale(.1 -.1)">
<use xlink:href="#c"/>
<use x="63.623047" xlink:href="#g"/>
<use x="95.410156" xlink:href="#m"/>
<use x="159.033203" xlink:href="#af"/>
</g>
</g>
<g clip-path="url(#a)">
<g transform="translate(195.91 726.68) scale(.1 -.1)">
<use xlink:href="#c"/>
<use x="63.623047" xlink:href="#g"/>
<use x="95.410156" xlink:href="#m"/>
<use x="159.033203" xlink:href="#c"/>
</g>
</g>
<g clip-path="url(#a)">
<g transform="translate(283.45 726.68) scale(.1 -.1)">
<use xlink:href="#c"/>
<use x="63.623047" xlink:href="#g"/>
<use x="95.410156" xlink:href="#m"/>
<use x="159.033203" xlink:href="#n"/>
</g>
</g>
<g clip-path="url(#a)">
<g transform="translate(69.473 726.68) scale(.1 -.1)">
<use xlink:href="#c"/>
<use x="63.623047" xlink:href="#g"/>
<use x="95.410156" xlink:href="#m"/>
<use x="159.033203" xlink:href="#o"/>
</g>
</g>
<g clip-path="url(#a)">
<g transform="translate(91.965 557.37) scale(.1 -.1)">
<use xlink:href="#c"/>
<use x="63.623047" xlink:href="#g"/>
<use x="95.410156" xlink:href="#m"/>
<use x="159.033203" xlink:href="#m"/>
</g>
</g>
<g clip-path="url(#a)">
<g transform="translate(76.768 726.68) scale(.1 -.1)">
<use xlink:href="#c"/>
<use x="63.623047" xlink:href="#g"/>
<use x="95.410156" xlink:href="#m"/>
<use x="159.033203" xlink:href="#u"/>
</g>
</g>
<g clip-path="url(#a)">
<g transform="translate(107.16 726.68) scale(.1 -.1)">
<use xlink:href="#c"/>
<use x="63.623047" xlink:href="#g"/>
<use x="95.410156" xlink:href="#m"/>
<use x="159.033203" xlink:href="#ab"/>
</g>
</g>
<g clip-path="url(#a)">
<g transform="translate(149.71 726.68) scale(.1 -.1)">
<use xlink:href="#c"/>
<use x="63.623047" xlink:href="#g"/>
<use x="95.410156" xlink:href="#m"/>
<use x="159.033203" xlink:href="#aa"/>
</g>
</g>
<g clip-path="url(#a)">
<g transform="translate(392.87 726.68) scale(.1 -.1)">
<use xlink:href="#c"/>
<use x="63.623047" xlink:href="#g"/>
<use x="95.410156" xlink:href="#m"/>
<use x="159.033203" xlink:href="#ae"/>
</g>
</g>
<g clip-path="url(#a)">
<g transform="translate(524.17 726.68) scale(.1 -.1)">
<use xlink:href="#c"/>
<use x="63.623047" xlink:href="#g"/>
<use x="95.410156" xlink:href="#m"/>
<use x="159.033203" xlink:href="#z"/>
</g>
</g>
<g clip-path="url(#a)">
<g transform="translate(1268.2 726.68) scale(.1 -.1)">
<use xlink:href="#c"/>
<use x="63.623047" xlink:href="#g"/>
<use x="95.410156" xlink:href="#u"/>
<use x="159.033203" xlink:href="#af"/>
</g>
</g>
<g clip-path="url(#a)">
<g transform="translate(1681.6 726.68) scale(.1 -.1)">
<use xlink:href="#c"/>
<use x="63.623047" xlink:href="#g"/>
<use x="95.410156" xlink:href="#u"/>
<use x="159.033203" xlink:href="#c"/>
</g>
</g>
<defs>
<clipPath id="a">
<rect width="1773.3" height="933.33"/>
</clipPath>
</defs>
</svg>
