<?xml version="1.0" encoding="UTF-8"?>
<!DOCTYPE svg  PUBLIC '-//W3C//DTD SVG 1.1//EN'  'http://www.w3.org/Graphics/SVG/1.1/DTD/svg11.dtd'>
<svg width="1064pt" height="560pt" version="1.1" viewBox="0 0 1064 560" xmlns="http://www.w3.org/2000/svg" xmlns:xlink="http://www.w3.org/1999/xlink">
<defs>
<style type="text/css">*{stroke-linecap:butt;stroke-linejoin:round;}</style>
</defs>
<path d="m0 560h1064v-560h-1064z" fill="#fff"/>
<g fill="none" stroke="#000">
<path d="m111.62 25.455v73.399" clip-path="url(#a)"/>
<path d="m111.62 98.854-63.258 364.37" clip-path="url(#a)"/>
<path d="m111.62 98.854-27.146 292.05" clip-path="url(#a)"/>
<path d="m111.62 98.854-16.829 364.37" clip-path="url(#a)"/>
<path d="m111.62 98.854 107.23 73.277" clip-path="url(#a)"/>
<path d="m48.364 463.22v71.326" clip-path="url(#a)"/>
<path d="m84.475 390.9-24.504 72.318" clip-path="url(#a)"/>
<path d="m84.475 390.9-9.0279 72.318" clip-path="url(#a)"/>
<path d="m84.475 390.9 33.532 72.318" clip-path="url(#a)"/>
<path d="m94.793 463.22v71.326" clip-path="url(#a)"/>
<path d="m218.85 172.13-73.764 291.09" clip-path="url(#a)"/>
<path d="m218.85 172.13-106.65 218.77" clip-path="url(#a)"/>
<path d="m218.85 172.13-69.894 218.77" clip-path="url(#a)"/>
<path d="m218.85 172.13 73.262 291.09" clip-path="url(#a)"/>
<path d="m218.85 172.13 185.04 73.129" clip-path="url(#a)"/>
<path d="m218.85 172.13-7.989 291.09" clip-path="url(#a)"/>
<path d="m145.09 463.22v71.326" clip-path="url(#a)"/>
<path d="m112.2 390.9-63.84 72.318" clip-path="url(#a)" stroke-dasharray="3.7,1.6"/>
<path d="m112.2 390.9 63.84 72.318" clip-path="url(#a)"/>
<path d="m148.96 390.9-100.6 72.318" clip-path="url(#a)" stroke-dasharray="3.7,1.6"/>
<path d="m148.96 390.9 100.6 72.318" clip-path="url(#a)"/>
<path d="m292.12 463.22v71.326" clip-path="url(#a)"/>
<path d="m403.89 245.26-355.53 217.96" clip-path="url(#a)" stroke-dasharray="3.7,1.6"/>
<path d="m403.89 245.26-40.196 145.64" clip-path="url(#a)"/>
<path d="m403.89 245.26 68.139 145.64" clip-path="url(#a)"/>
<path d="m403.89 245.26 327.58 72.945" clip-path="url(#a)"/>
<path d="m363.69 390.9-25.149 72.318" clip-path="url(#a)"/>
<path d="m363.69 390.9 25.149 72.318" clip-path="url(#a)"/>
<path d="m472.03 390.9-29.018 72.318" clip-path="url(#a)"/>
<path d="m472.03 390.9 29.018 72.318" clip-path="url(#a)"/>
<path d="m731.47 318.2-168.52 145.02" clip-path="url(#a)"/>
<path d="m731.47 318.2-31.813 72.697" clip-path="url(#a)"/>
<path d="m731.47 318.2 200.33 72.697" clip-path="url(#a)"/>
<path d="m562.95 463.22v71.326" clip-path="url(#a)"/>
<path d="m699.66 390.9-70.933 72.318" clip-path="url(#a)"/>
<path d="m699.66 390.9 72.223 72.318" clip-path="url(#a)"/>
<path d="m699.66 390.9-1.2897 72.318" clip-path="url(#a)"/>
<path d="m931.81 390.9-82.541 72.318" clip-path="url(#a)"/>
<path d="m931.81 390.9-1.2897 72.318" clip-path="url(#a)"/>
<path d="m931.81 390.9 83.83 72.318" clip-path="url(#a)"/>
<path d="m849.27 463.22v71.326" clip-path="url(#a)"/>
<path d="m930.52 463.22v71.326" clip-path="url(#a)"/>
<path d="m628.73 463.22v71.326" clip-path="url(#a)"/>
<path d="m771.88 463.22v71.326" clip-path="url(#a)"/>
<path d="m443.01 463.22v71.326" clip-path="url(#a)"/>
<path d="m501.05 463.22v71.326" clip-path="url(#a)"/>
<path d="m338.55 463.22v71.326" clip-path="url(#a)"/>
<path d="m388.84 463.22v71.326" clip-path="url(#a)"/>
<path d="m249.56 463.22v71.326" clip-path="url(#a)"/>
<path d="m176.04 463.22v71.326" clip-path="url(#a)"/>
<path d="m59.971 463.22v71.326" clip-path="url(#a)"/>
<path d="m75.447 463.22v71.326" clip-path="url(#a)"/>
<path d="m118.01 463.22v71.326" clip-path="url(#a)"/>
<path d="m210.87 463.22v71.326" clip-path="url(#a)"/>
<path d="m698.37 463.22v71.326" clip-path="url(#a)"/>
<path d="m1015.6 463.22v71.326" clip-path="url(#a)"/>
</g>
<path d="m105.35 59.146v6.0162q0 2.4 2.4 2.4h7.7425q2.4 0 2.4-2.4v-6.0162q0-2.4-2.4-2.4h-7.7425q-2.4 0-2.4 2.4z" clip-path="url(#a)" fill="#fff" stroke="#fff"/>
<g clip-path="url(#a)">
<defs>
<path id="t" d="m9.8125 72.906h9.8594v-29.891h35.844v29.891h9.8594v-72.906h-9.8594v34.719h-35.844v-34.719h-9.8594z"/>
</defs>
<g transform="translate(109.41 59.146) rotate(90) scale(.08 -.08)">
<use xlink:href="#t"/>
</g>
</g>
<path d="m85.703 284.81 0.93608-5.3918q0.41052-2.3646-1.9541-2.7752l-7.6284-1.3244q-2.3646-0.41053-2.7752 1.9541l-0.93608 5.3918q-0.41052 2.3646 1.9541 2.7752l7.6284 1.3244q2.3646 0.41052 2.7752-1.9541z" clip-path="url(#a)" fill="#fff" stroke="#fff"/>
<g clip-path="url(#a)">
<defs>
<path id="r" d="m34.188 63.188-13.391-36.281h26.812zm-5.5781 9.7188h11.188l27.781-72.906h-10.25l-6.6406 18.703h-32.859l-6.6406-18.703h-10.406z"/>
</defs>
<g transform="translate(81.699 284.11) rotate(-80.151) scale(.08 -.08)">
<use xlink:href="#r"/>
</g>
</g>
<path d="m104.06 247.99 0.47005-5.057q0.22213-2.3897-2.1676-2.6118l-7.7093-0.71659q-2.3897-0.22213-2.6118 2.1676l-0.47005 5.057q-0.22213 2.3897 2.1676 2.6118l7.7093 0.71659q2.3897 0.22213 2.6118-2.1676z" clip-path="url(#a)" fill="#fff" stroke="#fff"/>
<g clip-path="url(#a)">
<defs>
<path id="y" d="m53.516 70.516v-9.625q-5.6094 2.6875-10.594 4-4.9844 1.3281-9.625 1.3281-8.0469 0-12.422-3.125t-4.375-8.8906q0-4.8438 2.9062-7.3125 2.9062-2.4531 11.016-3.9688l5.9531-1.2188q11.031-2.1094 16.281-7.4062t5.25-14.172q0-10.609-7.1094-16.078-7.0938-5.4688-20.812-5.4688-5.1719 0-11.016 1.1719-5.8281 1.1719-12.078 3.4688v10.156q6-3.3594 11.766-5.0781 5.7656-1.7031 11.328-1.7031 8.4375 0 13.031 3.3125 4.5938 3.3281 4.5938 9.4844 0 5.3594-3.2969 8.3906t-10.812 4.5469l-6.0156 1.1719q-11.031 2.1875-15.969 6.875-4.9219 4.6875-4.9219 13.047 0 9.6719 6.8125 15.234t18.766 5.5625q5.1406 0 10.453-0.9375 5.3281-0.92188 10.891-2.7656z"/>
</defs>
<g transform="translate(100.01 247.61) rotate(-84.69) scale(.08 -.08)">
<use xlink:href="#y"/>
</g>
</g>
<path d="m109.33 284.4 0.28421-6.1534q0.11073-2.3974-2.2867-2.5082l-7.7343-0.35722q-2.3974-0.11073-2.5082 2.2867l-0.2842 6.1534q-0.11073 2.3974 2.2867 2.5082l7.7343 0.35722q2.3974 0.11073 2.5082-2.2867z" clip-path="url(#a)" fill="#fff" stroke="#fff"/>
<g clip-path="url(#a)">
<defs>
<path id="ai" d="m19.672 64.797v-56.688h11.922q15.094 0 22.094 6.8281 7 6.8438 7 21.594 0 14.641-7 21.453t-22.094 6.8125zm-9.8594 8.1094h20.266q21.188 0 31.094-8.8125 9.9219-8.8125 9.9219-27.562 0-18.859-9.9688-27.703-9.9531-8.8281-31.047-8.8281h-20.266z"/>
</defs>
<g transform="translate(105.27 284.22) rotate(-87.356) scale(.08 -.08)">
<use xlink:href="#ai"/>
</g>
</g>
<path d="m159.44 139.13 4.5183 3.0876q1.9815 1.3541 3.3356-0.62747l4.3683-6.3925q1.3541-1.9815-0.62747-3.3356l-4.5183-3.0876q-1.9815-1.3541-3.3356 0.62747l-4.3683 6.3925q-1.3541 1.9815 0.62747 3.3356z" clip-path="url(#a)" fill="#fff" stroke="#fff"/>
<g clip-path="url(#a)">
<g transform="translate(161.73 135.77) rotate(34.346) scale(.08 -.08)">
<use xlink:href="#r"/>
</g>
</g>
<path d="m42.092 481.98v33.808q0 2.4 2.4 2.4h7.7425q2.4 0 2.4-2.4v-33.808q0-2.4-2.4-2.4h-7.7425q-2.4 0-2.4 2.4z" clip-path="url(#a)" fill="#fff" stroke="#fff"/>
<g clip-path="url(#a)">
<defs>
<path id="l" d="m-0.29688 72.906h61.672v-8.3125h-25.875v-64.594h-9.9062v64.594h-25.891z"/>
<path id="i" d="m56.203 29.594v-4.3906h-41.312q0.59375-9.2812 5.5938-14.141t13.938-4.8594q5.1719 0 10.031 1.2656t9.6562 3.8125v-8.5q-4.8438-2.0469-9.9219-3.125t-10.297-1.0781q-13.094 0-20.734 7.6094-7.6406 7.625-7.6406 20.625 0 13.422 7.25 21.297 7.25 7.8906 19.562 7.8906 11.031 0 17.453-7.1094 6.4219-7.0938 6.4219-19.297zm-8.9844 2.6406q-0.09375 7.3594-4.125 11.75-4.0312 4.4062-10.672 4.4062-7.5156 0-12.031-4.25t-5.2031-11.969z"/>
<path id="g" d="m41.109 46.297q-1.5156 0.875-3.2969 1.2812-1.7812 0.42188-3.9219 0.42188-7.625 0-11.703-4.9531t-4.0781-14.234v-28.812h-9.0312v54.688h9.0312v-8.5q2.8438 4.9844 7.375 7.3906 4.5469 2.4219 11.047 2.4219 0.92188 0 2.0469-0.125 1.125-0.10938 2.4844-0.35938z"/>
<path id="j" d="m52 44.188q3.375 6.0625 8.0625 8.9375t11.031 2.875q8.5469 0 13.188-5.9844 4.6406-5.9688 4.6406-17v-33.016h-9.0312v32.719q0 7.8594-2.7969 11.656-2.7812 3.8125-8.4844 3.8125-6.9844 0-11.047-4.6406-4.0469-4.625-4.0469-12.641v-30.906h-9.0312v32.719q0 7.9062-2.7812 11.688t-8.5938 3.7812q-6.8906 0-10.953-4.6562-4.0469-4.6562-4.0469-12.625v-30.906h-9.0312v54.688h9.0312v-8.5q3.0781 5.0312 7.375 7.4219t10.203 2.3906q5.9688 0 10.141-3.0312 4.1719-3.0156 6.1719-8.7812z"/>
<path id="f" d="m9.4219 54.688h8.9844v-54.688h-8.9844zm0 21.297h8.9844v-11.391h-8.9844z"/>
<path id="h" d="m54.891 33.016v-33.016h-8.9844v32.719q0 7.7656-3.0312 11.609-3.0312 3.8594-9.0781 3.8594-7.2812 0-11.484-4.6406-4.2031-4.625-4.2031-12.641v-30.906h-9.0312v54.688h9.0312v-8.5q3.2344 4.9375 7.5938 7.375 4.375 2.4375 10.094 2.4375 9.4219 0 14.25-5.8281 4.8438-5.8281 4.8438-17.156z"/>
<path id="e" d="m34.281 27.484q-10.891 0-15.094-2.4844t-4.2031-8.5q0-4.7812 3.1562-7.5938 3.1562-2.7969 8.5625-2.7969 7.4844 0 12 5.2969t4.5156 14.078v2zm17.922 3.7188v-31.203h-8.9844v8.2969q-3.0781-4.9688-7.6719-7.3438t-11.234-2.375q-8.3906 0-13.359 4.7188-4.9531 4.7188-4.9531 12.625 0 9.2188 6.1719 13.906 6.1875 4.6875 18.438 4.6875h12.609v0.89062q0 6.2031-4.0781 9.5938t-11.453 3.3906q-4.6875 0-9.1406-1.125-4.4375-1.125-8.5312-3.375v8.3125q4.9219 1.9062 9.5625 2.8438 4.6406 0.95312 9.0312 0.95312 11.875 0 17.734-6.1562 5.8594-6.1406 5.8594-18.641z"/>
<path id="k" d="m9.4219 75.984h8.9844v-75.984h-8.9844z"/>
</defs>
<g transform="translate(46.156 481.98) rotate(90) scale(.08 -.08)">
<use xlink:href="#l"/>
<use x="44.083984" xlink:href="#i"/>
<use x="105.607422" xlink:href="#g"/>
<use x="144.970703" xlink:href="#j"/>
<use x="242.382812" xlink:href="#f"/>
<use x="270.166016" xlink:href="#h"/>
<use x="333.544922" xlink:href="#e"/>
<use x="394.824219" xlink:href="#k"/>
</g>
</g>
<path d="m77.424 431.25 1.4766-4.3579q0.7702-2.2731-1.5029-3.0433l-7.333-2.4847q-2.2731-0.7702-3.0433 1.5029l-1.4766 4.3579q-0.7702 2.2731 1.5029 3.0433l7.333 2.4847q2.2731 0.7702 3.0433-1.5029z" clip-path="url(#a)" fill="#fff" stroke="#fff"/>
<g clip-path="url(#a)">
<defs>
<path id="u" d="m9.8125 72.906h41.891v-8.3125h-32.031v-21.484h28.906v-8.2969h-28.906v-34.812h-9.8594z"/>
</defs>
<g transform="translate(73.575 429.95) rotate(-71.282) scale(.08 -.08)">
<use xlink:href="#u"/>
</g>
</g>
<path d="m85.899 430.12 0.56998-4.5658q0.2973-2.3815-2.0842-2.6788l-7.6829-0.9591q-2.3815-0.2973-2.6788 2.0842l-0.56998 4.5658q-0.2973 2.3815 2.0842 2.6788l7.6829 0.9591q2.3815 0.2973 2.6788-2.0842z" clip-path="url(#a)" fill="#fff" stroke="#fff"/>
<g clip-path="url(#a)">
<g transform="translate(81.867 429.62) rotate(-82.884) scale(.08 -.08)">
<use xlink:href="#u"/>
</g>
</g>
<path d="m94.377 427.16 2.3499 5.068q1.0096 2.1773 3.1869 1.1678l7.0242-3.2569q2.1773-1.0096 1.1678-3.1869l-2.3499-5.068q-1.0096-2.1773-3.1869-1.1678l-7.0242 3.2569q-2.1773 1.0096-1.1678 3.1869z" clip-path="url(#a)" fill="#fff" stroke="#fff"/>
<g clip-path="url(#a)">
<defs>
<path id="p" d="m64.406 67.281v-10.391q-4.9844 4.6406-10.625 6.9219-5.6406 2.2969-11.984 2.2969-12.5 0-19.141-7.6406t-6.6406-22.094q0-14.406 6.6406-22.047t19.141-7.6406q6.3438 0 11.984 2.2969t10.625 6.9375v-10.312q-5.1719-3.5156-10.969-5.2812-5.7812-1.75-12.219-1.75-16.562 0-26.094 10.125-9.5156 10.141-9.5156 27.672 0 17.578 9.5156 27.703 9.5312 10.141 26.094 10.141 6.5312 0 12.312-1.7344 5.7969-1.7344 10.875-5.2031z"/>
</defs>
<g transform="translate(98.064 425.46) rotate(65.124) scale(.08 -.08)">
<use xlink:href="#p"/>
</g>
</g>
<path d="m88.521 481.98v33.808q0 2.4 2.4 2.4h7.7425q2.4 0 2.4-2.4v-33.808q0-2.4-2.4-2.4h-7.7425q-2.4 0-2.4 2.4z" clip-path="url(#a)" fill="#fff" stroke="#fff"/>
<g clip-path="url(#a)">
<g transform="translate(92.585 481.98) rotate(90) scale(.08 -.08)">
<use xlink:href="#l"/>
<use x="44.083984" xlink:href="#i"/>
<use x="105.607422" xlink:href="#g"/>
<use x="144.970703" xlink:href="#j"/>
<use x="242.382812" xlink:href="#f"/>
<use x="270.166016" xlink:href="#h"/>
<use x="333.544922" xlink:href="#e"/>
<use x="394.824219" xlink:href="#k"/>
</g>
</g>
<path d="m187.37 321.91 1.3655-5.3884q0.58954-2.3265-1.7369-2.916l-7.5053-1.9019q-2.3265-0.58954-2.916 1.7369l-1.3655 5.3884q-0.58954 2.3265 1.7369 2.916l7.5053 1.9019q2.3265 0.58954 2.916-1.7369z" clip-path="url(#a)" fill="#fff" stroke="#fff"/>
<g clip-path="url(#a)">
<defs>
<path id="ap" d="m44.391 34.188q3.1719-1.0781 6.1719-4.5938t6.0312-9.6719l10.016-19.922h-10.609l-9.3125 18.703q-3.625 7.3281-7.0156 9.7188t-9.25 2.3906h-10.75v-30.812h-9.8594v72.906h22.266q12.5 0 18.656-5.2344 6.1562-5.2188 6.1562-15.766 0-6.8906-3.2031-11.438-3.2031-4.5312-9.2969-6.2812zm-24.719 30.609v-25.875h12.406q7.125 0 10.766 3.2969t3.6406 9.6875-3.6406 9.6406-10.766 3.25z"/>
</defs>
<g transform="translate(183.43 320.91) rotate(-75.78) scale(.08 -.08)">
<use xlink:href="#ap"/>
</g>
</g>
<path d="m169.85 286.97 2.6363-5.4079q1.0517-2.1573-1.1056-3.209l-6.9596-3.3928q-2.1573-1.0517-3.209 1.1056l-2.6363 5.4079q-1.0517 2.1573 1.1056 3.209l6.9596 3.3928q2.1573 1.0517 3.209-1.1056z" clip-path="url(#a)" fill="#fff" stroke="#fff"/>
<g clip-path="url(#a)">
<g transform="translate(166.2 285.19) rotate(-64.011) scale(.08 -.08)">
<use xlink:href="#t"/>
</g>
</g>
<path d="m188.97 286.29 1.8309-5.7309q0.7304-2.2862-1.5558-3.0166l-7.3752-2.3563q-2.2862-0.7304-3.0166 1.5558l-1.8309 5.7309q-0.7304 2.2862 1.5558 3.0166l7.3752 2.3563q2.2862 0.7304 3.0166-1.5558z" clip-path="url(#a)" fill="#fff" stroke="#fff"/>
<g clip-path="url(#a)">
<g transform="translate(185.09 285.05) rotate(-72.282) scale(.08 -.08)">
<use xlink:href="#t"/>
</g>
</g>
<path d="m248.86 317.04 1.0879 4.3227q0.58577 2.3274 2.9132 1.7416l7.5083-1.8897q2.3274-0.58577 1.7416-2.9132l-1.0879-4.3227q-0.58577-2.3274-2.9132-1.7416l-7.5083 1.8897q-2.3274 0.58577-1.7416 2.9132z" clip-path="url(#a)" fill="#fff" stroke="#fff"/>
<g clip-path="url(#a)">
<defs>
<path id="ar" d="m9.8125 72.906h9.8594v-64.609h35.5v-8.2969h-45.359z"/>
</defs>
<g transform="translate(252.8 316.05) rotate(75.873) scale(.08 -.08)">
<use xlink:href="#ar"/>
</g>
</g>
<path d="m306.27 213.42 5.5951 2.2113q2.232 0.88213 3.1141-1.3499l2.8458-7.2005q0.88213-2.232-1.3499-3.1141l-5.5951-2.2113q-2.232-0.88213-3.1141 1.3499l-2.8458 7.2005q-0.88213 2.232 1.3499 3.1141z" clip-path="url(#a)" fill="#fff" stroke="#fff"/>
<g clip-path="url(#a)">
<g transform="translate(307.76 209.64) rotate(21.565) scale(.08 -.08)">
<use xlink:href="#t"/>
</g>
</g>
<path d="m221.05 320.77 0.16063-5.8528q0.065844-2.3991-2.3333-2.4649l-7.7396-0.21241q-2.3991-0.065843-2.4649 2.3333l-0.16063 5.8528q-0.065843 2.3991 2.3333 2.4649l7.7396 0.21241q2.3991 0.065843 2.4649-2.3333z" clip-path="url(#a)" fill="#fff" stroke="#fff"/>
<g clip-path="url(#a)">
<defs>
<path id="x" d="m8.6875 72.906h9.9219v-44.297q0-11.719 4.2344-16.875 4.25-5.1406 13.781-5.1406 9.4688 0 13.719 5.1406 4.25 5.1562 4.25 16.875v44.297h9.9062v-45.516q0-14.25-7.0625-21.531-7.0469-7.2812-20.812-7.2812-13.828 0-20.891 7.2812-7.0469 7.2812-7.0469 21.531z"/>
</defs>
<g transform="translate(216.99 320.66) rotate(-88.428) scale(.08 -.08)">
<use xlink:href="#x"/>
</g>
</g>
<path d="m138.82 481.98v33.808q0 2.4 2.4 2.4h7.7425q2.4 0 2.4-2.4v-33.808q0-2.4-2.4-2.4h-7.7425q-2.4 0-2.4 2.4z" clip-path="url(#a)" fill="#fff" stroke="#fff"/>
<g clip-path="url(#a)">
<g transform="translate(142.88 481.98) rotate(90) scale(.08 -.08)">
<use xlink:href="#l"/>
<use x="44.083984" xlink:href="#i"/>
<use x="105.607422" xlink:href="#g"/>
<use x="144.970703" xlink:href="#j"/>
<use x="242.382812" xlink:href="#f"/>
<use x="270.166016" xlink:href="#h"/>
<use x="333.544922" xlink:href="#e"/>
<use x="394.824219" xlink:href="#k"/>
</g>
</g>
<path d="m83.174 433.26 3.6217-4.1026q1.5883-1.7992-0.21093-3.3876l-5.8044-5.124q-1.7992-1.5883-3.3876 0.21093l-3.6217 4.1026q-1.5883 1.7992 0.21093 3.3876l5.8044 5.124q1.7992 1.5883 3.3876-0.21093z" clip-path="url(#a)" fill="#fff" stroke="#fff"/>
<g clip-path="url(#a)">
<g transform="translate(80.128 430.57) rotate(-48.563) scale(.08 -.08)">
<use xlink:href="#r"/>
</g>
</g>
<path d="m137.74 429.31 3.3611 3.8075q1.5883 1.7992 3.3876 0.21093l5.8044-5.124q1.7992-1.5883 0.21093-3.3876l-3.3611-3.8075q-1.5883-1.7992-3.3876-0.21093l-5.8044 5.124q-1.7992 1.5883-0.21093 3.3876z" clip-path="url(#a)" fill="#fff" stroke="#fff"/>
<g clip-path="url(#a)">
<g transform="translate(140.79 426.62) rotate(48.563) scale(.08 -.08)">
<use xlink:href="#y"/>
</g>
</g>
<path d="m100.1 433.75 4.4435-3.1944q1.9487-1.4009 0.5478-3.3496l-4.5194-6.2866q-1.4009-1.9487-3.3496-0.5478l-4.4435 3.1944q-1.9487 1.4009-0.5478 3.3496l4.5194 6.2866q1.4009 1.9487 3.3496 0.5478z" clip-path="url(#a)" fill="#fff" stroke="#fff"/>
<g clip-path="url(#a)">
<g transform="translate(97.729 430.45) rotate(-35.712) scale(.08 -.08)">
<use xlink:href="#r"/>
</g>
</g>
<path d="m193.54 430.67 4.1237 2.9645q1.9487 1.4009 3.3496-0.5478l4.5194-6.2866q1.4009-1.9487-0.5478-3.3496l-4.1237-2.9645q-1.9487-1.4009-3.3496 0.5478l-4.5194 6.2866q-1.4009 1.9487 0.5478 3.3496z" clip-path="url(#a)" fill="#fff" stroke="#fff"/>
<g clip-path="url(#a)">
<g transform="translate(195.91 427.37) rotate(35.712) scale(.08 -.08)">
<use xlink:href="#y"/>
</g>
</g>
<path d="m285.85 481.98v33.808q0 2.4 2.4 2.4h7.7425q2.4 0 2.4-2.4v-33.808q0-2.4-2.4-2.4h-7.7425q-2.4 0-2.4 2.4z" clip-path="url(#a)" fill="#fff" stroke="#fff"/>
<g clip-path="url(#a)">
<g transform="translate(289.91 481.98) rotate(90) scale(.08 -.08)">
<use xlink:href="#l"/>
<use x="44.083984" xlink:href="#i"/>
<use x="105.607422" xlink:href="#g"/>
<use x="144.970703" xlink:href="#j"/>
<use x="242.382812" xlink:href="#f"/>
<use x="270.166016" xlink:href="#h"/>
<use x="333.544922" xlink:href="#e"/>
<use x="394.824219" xlink:href="#k"/>
</g>
</g>
<path d="m227.07 361.02 4.6655-2.8603q2.0461-1.2544 0.79171-3.3005l-4.0467-6.6008q-1.2544-2.0461-3.3005-0.79171l-4.6655 2.8603q-2.0461 1.2544-0.79171 3.3005l4.0467 6.6008q1.2544 2.0461 3.3005 0.79171z" clip-path="url(#a)" fill="#fff" stroke="#fff"/>
<g clip-path="url(#a)">
<g transform="translate(224.95 357.55) rotate(-31.511) scale(.08 -.08)">
<use xlink:href="#r"/>
</g>
</g>
<path d="m389.02 322.72 1.6388-5.938q0.6385-2.3135-1.675-2.952l-7.4635-2.0598q-2.3135-0.6385-2.952 1.675l-1.6388 5.938q-0.6385 2.3135 1.675 2.952l7.4635 2.0598q2.3135 0.6385 2.952-1.675z" clip-path="url(#a)" fill="#fff" stroke="#fff"/>
<g clip-path="url(#a)">
<g transform="translate(385.1 321.64) rotate(-74.571) scale(.08 -.08)">
<use xlink:href="#ai"/>
</g>
</g>
<path d="m431.26 318.55 2.0441 4.3692q1.017 2.1738 3.1909 1.1568l7.0129-3.281q2.1739-1.017 1.1568-3.1909l-2.0441-4.3692q-1.017-2.1739-3.1909-1.1568l-7.0129 3.281q-2.1739 1.017-1.1568 3.1909z" clip-path="url(#a)" fill="#fff" stroke="#fff"/>
<g clip-path="url(#a)">
<defs>
<path id="ah" d="m19.672 64.797v-27.391h12.406q6.8906 0 10.641 3.5625 3.7656 3.5625 3.7656 10.156 0 6.5469-3.7656 10.109-3.75 3.5625-10.641 3.5625zm-9.8594 8.1094h22.266q12.266 0 18.531-5.5469 6.2812-5.5469 6.2812-16.234 0-10.797-6.2812-16.312-6.2656-5.5156-18.531-5.5156h-12.406v-29.297h-9.8594z"/>
</defs>
<g transform="translate(434.94 316.83) rotate(64.927) scale(.08 -.08)">
<use xlink:href="#ah"/>
</g>
</g>
<path d="m563.65 287.26 5.3417 1.1895q2.3426 0.52164 2.8643-1.821l1.6828-7.5574q0.52164-2.3426-1.821-2.8643l-5.3417-1.1895q-2.3426-0.52164-2.8643 1.821l-1.6828 7.5574q-0.52164 2.3426 1.821 2.8643z" clip-path="url(#a)" fill="#fff" stroke="#fff"/>
<g clip-path="url(#a)">
<g transform="translate(564.53 283.29) rotate(12.554) scale(.08 -.08)">
<use xlink:href="#r"/>
</g>
</g>
<path d="m356.29 431.29 1.5113-4.346q0.78831-2.2668-1.4785-3.0552l-7.3129-2.5431q-2.2668-0.78831-3.0552 1.4785l-1.5113 4.346q-0.78831 2.2668 1.4785 3.0552l7.3129 2.5431q2.2668 0.78831 3.0552-1.4785z" clip-path="url(#a)" fill="#fff" stroke="#fff"/>
<g clip-path="url(#a)">
<g transform="translate(352.45 429.96) rotate(-70.825) scale(.08 -.08)">
<use xlink:href="#u"/>
</g>
</g>
<path d="m369.43 426.48 1.8349 5.2763q0.78831 2.2668 3.0552 1.4785l7.3129-2.5431q2.2668-0.78831 1.4785-3.0552l-1.8349-5.2763q-0.78831-2.2668-3.0552-1.4785l-7.3129 2.5431q-2.2668 0.78831-1.4785 3.0552z" clip-path="url(#a)" fill="#fff" stroke="#fff"/>
<g clip-path="url(#a)">
<g transform="translate(373.27 425.15) rotate(70.825) scale(.08 -.08)">
<use xlink:href="#p"/>
</g>
</g>
<path d="m462.48 431.53 1.7135-4.2703q0.89375-2.2274-1.3336-3.1211l-7.1856-2.8833q-2.2274-0.89375-3.1211 1.3336l-1.7135 4.2703q-0.89375 2.2274 1.3336 3.1211l7.1856 2.8833q2.2274 0.89375 3.1211-1.3336z" clip-path="url(#a)" fill="#fff" stroke="#fff"/>
<g clip-path="url(#a)">
<g transform="translate(458.71 430.02) rotate(-68.136) scale(.08 -.08)">
<use xlink:href="#u"/>
</g>
</g>
<path d="m479.68 426.8 2.0803 5.1844q0.89375 2.2274 3.1211 1.3336l7.1856-2.8833q2.2274-0.89375 1.3336-3.1211l-2.0803-5.1845q-0.89375-2.2274-3.1211-1.3336l-7.1856 2.8833q-2.2274 0.89375-1.3336 3.1211z" clip-path="url(#a)" fill="#fff" stroke="#fff"/>
<g clip-path="url(#a)">
<g transform="translate(483.45 425.29) rotate(68.136) scale(.08 -.08)">
<use xlink:href="#p"/>
</g>
</g>
<path d="m649.19 397.29 4.2343-3.6437q1.8192-1.5654 0.25374-3.3846l-5.0502-5.8687q-1.5654-1.8192-3.3846-0.25374l-4.2343 3.6437q-1.8192 1.5654-0.25374 3.3846l5.0502 5.8687q1.5654 1.8192 3.3846 0.25374z" clip-path="url(#a)" fill="#fff" stroke="#fff"/>
<g clip-path="url(#a)">
<g transform="translate(646.54 394.21) rotate(-40.713) scale(.08 -.08)">
<use xlink:href="#p"/>
</g>
</g>
<path d="m720.11 359.81 2.3994-5.483q0.96216-2.1987-1.2365-3.1608l-7.0931-3.104q-2.1987-0.96216-3.1608 1.2365l-2.3994 5.483q-0.96216 2.1987 1.2365 3.1608l7.0931 3.104q2.1987 0.96216 3.1608-1.2365z" clip-path="url(#a)" fill="#fff" stroke="#fff"/>
<g clip-path="url(#a)">
<defs>
<path id="aq" d="m9.8125 72.906h13.281l32.328-60.984v60.984h9.5625v-72.906h-13.281l-32.312 60.984v-60.984h-9.5781z"/>
</defs>
<g transform="translate(716.39 358.18) rotate(-66.366) scale(.08 -.08)">
<use xlink:href="#aq"/>
</g>
</g>
<path d="m826.87 359.5 5.2512 1.9056q2.2561 0.81868 3.0747-1.4374l2.6411-7.2781q0.81868-2.256-1.4374-3.0747l-5.2512-1.9056q-2.2561-0.81868-3.0747 1.4374l-2.6411 7.2781q-0.81868 2.256 1.4374 3.0747z" clip-path="url(#a)" fill="#fff" stroke="#fff"/>
<g clip-path="url(#a)">
<g transform="translate(828.26 355.68) rotate(19.945) scale(.08 -.08)">
<use xlink:href="#p"/>
</g>
</g>
<path d="m556.68 481.98v33.808q0 2.4 2.4 2.4h7.7425q2.4 0 2.4-2.4v-33.808q0-2.4-2.4-2.4h-7.7425q-2.4 0-2.4 2.4z" clip-path="url(#a)" fill="#fff" stroke="#fff"/>
<g clip-path="url(#a)">
<g transform="translate(560.75 481.98) rotate(90) scale(.08 -.08)">
<use xlink:href="#l"/>
<use x="44.083984" xlink:href="#i"/>
<use x="105.607422" xlink:href="#g"/>
<use x="144.970703" xlink:href="#j"/>
<use x="242.382812" xlink:href="#f"/>
<use x="270.166016" xlink:href="#h"/>
<use x="333.544922" xlink:href="#e"/>
<use x="394.824219" xlink:href="#k"/>
</g>
</g>
<path d="m666.72 433.45 3.9117-3.9881q1.6806-1.7134-0.032805-3.394l-5.5274-5.4216q-1.7134-1.6806-3.394 0.032805l-3.9117 3.9881q-1.6806 1.7134 0.032805 3.394l5.5274 5.4216q1.7134 1.6806 3.394-0.032805z" clip-path="url(#a)" fill="#fff" stroke="#fff"/>
<g clip-path="url(#a)">
<g transform="translate(663.81 430.6) rotate(-45.554) scale(.08 -.08)">
<use xlink:href="#p"/>
</g>
</g>
<path d="m729.36 429.52 3.9475 3.9527q1.6959 1.6982 3.3941 0.00223l5.4784-5.4712q1.6982-1.6959 0.002229-3.3941l-3.9475-3.9527q-1.6959-1.6982-3.3941-0.00223l-5.4784 5.4712q-1.6982 1.6959-0.002229 3.3941z" clip-path="url(#a)" fill="#fff" stroke="#fff"/>
<g clip-path="url(#a)">
<g transform="translate(732.24 426.64) rotate(45.038) scale(.08 -.08)">
<use xlink:href="#p"/>
</g>
</g>
<path d="m705.23 430.1 0.1044-5.8541q0.042794-2.3996-2.3568-2.4424l-7.7413-0.13806q-2.3996-0.042794-2.4424 2.3568l-0.1044 5.8541q-0.042794 2.3996 2.3568 2.4424l7.7413 0.13806q2.3996 0.042794 2.4424-2.3568z" clip-path="url(#a)" fill="#fff" stroke="#fff"/>
<g clip-path="url(#a)">
<g transform="translate(701.17 430.03) rotate(-88.978) scale(.08 -.08)">
<use xlink:href="#x"/>
</g>
</g>
<path d="m892.77 433.44 3.8021-3.3312q1.8052-1.5816 0.22357-3.3867l-5.1023-5.8235q-1.5816-1.8052-3.3867-0.22357l-3.8021 3.3312q-1.8052 1.5816-0.22357 3.3867l5.1023 5.8235q1.5816 1.8052 3.3867 0.22357z" clip-path="url(#a)" fill="#fff" stroke="#fff"/>
<g clip-path="url(#a)">
<defs>
<path id="as" d="m9.8125 72.906h46.094v-8.3125h-36.234v-21.578h34.719v-8.2969h-34.719v-26.422h37.109v-8.2969h-46.969z"/>
</defs>
<g transform="translate(890.09 430.39) rotate(-41.223) scale(.08 -.08)">
<use xlink:href="#as"/>
</g>
</g>
<path d="m937.38 429.97 0.099608-5.5854q0.042794-2.3996-2.3568-2.4424l-7.7413-0.13806q-2.3996-0.042794-2.4424 2.3568l-0.099608 5.5854q-0.042794 2.3996 2.3568 2.4424l7.7413 0.13806q2.3996 0.042794 2.4424-2.3568z" clip-path="url(#a)" fill="#fff" stroke="#fff"/>
<g clip-path="url(#a)">
<g transform="translate(933.32 429.89) rotate(-88.978) scale(.08 -.08)">
<use xlink:href="#p"/>
</g>
</g>
<path d="m967.41 429.9 4.4333 3.8245q1.8172 1.5677 3.3849-0.24956l5.0574-5.8625q1.5677-1.8172-0.24956-3.3849l-4.4333-3.8245q-1.8172-1.5677-3.3849 0.24956l-5.0574 5.8625q-1.5677 1.8172 0.24956 3.3849z" clip-path="url(#a)" fill="#fff" stroke="#fff"/>
<g clip-path="url(#a)">
<g transform="translate(970.06 426.82) rotate(40.783) scale(.08 -.08)">
<use xlink:href="#x"/>
</g>
</g>
<path d="m842.99 481.98v33.808q0 2.4 2.4 2.4h7.7425q2.4 0 2.4-2.4v-33.808q0-2.4-2.4-2.4h-7.7425q-2.4 0-2.4 2.4z" clip-path="url(#a)" fill="#fff" stroke="#fff"/>
<g clip-path="url(#a)">
<g transform="translate(847.06 481.98) rotate(90) scale(.08 -.08)">
<use xlink:href="#l"/>
<use x="44.083984" xlink:href="#i"/>
<use x="105.607422" xlink:href="#g"/>
<use x="144.970703" xlink:href="#j"/>
<use x="242.382812" xlink:href="#f"/>
<use x="270.166016" xlink:href="#h"/>
<use x="333.544922" xlink:href="#e"/>
<use x="394.824219" xlink:href="#k"/>
</g>
</g>
<path d="m924.25 481.98v33.808q0 2.4 2.4 2.4h7.7425q2.4 0 2.4-2.4v-33.808q0-2.4-2.4-2.4h-7.7425q-2.4 0-2.4 2.4z" clip-path="url(#a)" fill="#fff" stroke="#fff"/>
<g clip-path="url(#a)">
<g transform="translate(928.31 481.98) rotate(90) scale(.08 -.08)">
<use xlink:href="#l"/>
<use x="44.083984" xlink:href="#i"/>
<use x="105.607422" xlink:href="#g"/>
<use x="144.970703" xlink:href="#j"/>
<use x="242.382812" xlink:href="#f"/>
<use x="270.166016" xlink:href="#h"/>
<use x="333.544922" xlink:href="#e"/>
<use x="394.824219" xlink:href="#k"/>
</g>
</g>
<path d="m622.46 481.98v33.808q0 2.4 2.4 2.4h7.7425q2.4 0 2.4-2.4v-33.808q0-2.4-2.4-2.4h-7.7425q-2.4 0-2.4 2.4z" clip-path="url(#a)" fill="#fff" stroke="#fff"/>
<g clip-path="url(#a)">
<g transform="translate(626.52 481.98) rotate(90) scale(.08 -.08)">
<use xlink:href="#l"/>
<use x="44.083984" xlink:href="#i"/>
<use x="105.607422" xlink:href="#g"/>
<use x="144.970703" xlink:href="#j"/>
<use x="242.382812" xlink:href="#f"/>
<use x="270.166016" xlink:href="#h"/>
<use x="333.544922" xlink:href="#e"/>
<use x="394.824219" xlink:href="#k"/>
</g>
</g>
<path d="m765.61 481.98v33.808q0 2.4 2.4 2.4h7.7425q2.4 0 2.4-2.4v-33.808q0-2.4-2.4-2.4h-7.7425q-2.4 0-2.4 2.4z" clip-path="url(#a)" fill="#fff" stroke="#fff"/>
<g clip-path="url(#a)">
<g transform="translate(769.68 481.98) rotate(90) scale(.08 -.08)">
<use xlink:href="#l"/>
<use x="44.083984" xlink:href="#i"/>
<use x="105.607422" xlink:href="#g"/>
<use x="144.970703" xlink:href="#j"/>
<use x="242.382812" xlink:href="#f"/>
<use x="270.166016" xlink:href="#h"/>
<use x="333.544922" xlink:href="#e"/>
<use x="394.824219" xlink:href="#k"/>
</g>
</g>
<path d="m436.74 481.98v33.808q0 2.4 2.4 2.4h7.7425q2.4 0 2.4-2.4v-33.808q0-2.4-2.4-2.4h-7.7425q-2.4 0-2.4 2.4z" clip-path="url(#a)" fill="#fff" stroke="#fff"/>
<g clip-path="url(#a)">
<g transform="translate(440.8 481.98) rotate(90) scale(.08 -.08)">
<use xlink:href="#l"/>
<use x="44.083984" xlink:href="#i"/>
<use x="105.607422" xlink:href="#g"/>
<use x="144.970703" xlink:href="#j"/>
<use x="242.382812" xlink:href="#f"/>
<use x="270.166016" xlink:href="#h"/>
<use x="333.544922" xlink:href="#e"/>
<use x="394.824219" xlink:href="#k"/>
</g>
</g>
<path d="m494.78 481.98v33.808q0 2.4 2.4 2.4h7.7425q2.4 0 2.4-2.4v-33.808q0-2.4-2.4-2.4h-7.7425q-2.4 0-2.4 2.4z" clip-path="url(#a)" fill="#fff" stroke="#fff"/>
<g clip-path="url(#a)">
<g transform="translate(498.84 481.98) rotate(90) scale(.08 -.08)">
<use xlink:href="#l"/>
<use x="44.083984" xlink:href="#i"/>
<use x="105.607422" xlink:href="#g"/>
<use x="144.970703" xlink:href="#j"/>
<use x="242.382812" xlink:href="#f"/>
<use x="270.166016" xlink:href="#h"/>
<use x="333.544922" xlink:href="#e"/>
<use x="394.824219" xlink:href="#k"/>
</g>
</g>
<path d="m332.27 481.98v33.808q0 2.4 2.4 2.4h7.7425q2.4 0 2.4-2.4v-33.808q0-2.4-2.4-2.4h-7.7425q-2.4 0-2.4 2.4z" clip-path="url(#a)" fill="#fff" stroke="#fff"/>
<g clip-path="url(#a)">
<g transform="translate(336.34 481.98) rotate(90) scale(.08 -.08)">
<use xlink:href="#l"/>
<use x="44.083984" xlink:href="#i"/>
<use x="105.607422" xlink:href="#g"/>
<use x="144.970703" xlink:href="#j"/>
<use x="242.382812" xlink:href="#f"/>
<use x="270.166016" xlink:href="#h"/>
<use x="333.544922" xlink:href="#e"/>
<use x="394.824219" xlink:href="#k"/>
</g>
</g>
<path d="m382.57 481.98v33.808q0 2.4 2.4 2.4h7.7425q2.4 0 2.4-2.4v-33.808q0-2.4-2.4-2.4h-7.7425q-2.4 0-2.4 2.4z" clip-path="url(#a)" fill="#fff" stroke="#fff"/>
<g clip-path="url(#a)">
<g transform="translate(386.64 481.98) rotate(90) scale(.08 -.08)">
<use xlink:href="#l"/>
<use x="44.083984" xlink:href="#i"/>
<use x="105.607422" xlink:href="#g"/>
<use x="144.970703" xlink:href="#j"/>
<use x="242.382812" xlink:href="#f"/>
<use x="270.166016" xlink:href="#h"/>
<use x="333.544922" xlink:href="#e"/>
<use x="394.824219" xlink:href="#k"/>
</g>
</g>
<path d="m243.29 481.98v33.808q0 2.4 2.4 2.4h7.7425q2.4 0 2.4-2.4v-33.808q0-2.4-2.4-2.4h-7.7425q-2.4 0-2.4 2.4z" clip-path="url(#a)" fill="#fff" stroke="#fff"/>
<g clip-path="url(#a)">
<g transform="translate(247.35 481.98) rotate(90) scale(.08 -.08)">
<use xlink:href="#l"/>
<use x="44.083984" xlink:href="#i"/>
<use x="105.607422" xlink:href="#g"/>
<use x="144.970703" xlink:href="#j"/>
<use x="242.382812" xlink:href="#f"/>
<use x="270.166016" xlink:href="#h"/>
<use x="333.544922" xlink:href="#e"/>
<use x="394.824219" xlink:href="#k"/>
</g>
</g>
<path d="m169.77 481.98v33.808q0 2.4 2.4 2.4h7.7425q2.4 0 2.4-2.4v-33.808q0-2.4-2.4-2.4h-7.7425q-2.4 0-2.4 2.4z" clip-path="url(#a)" fill="#fff" stroke="#fff"/>
<g clip-path="url(#a)">
<g transform="translate(173.84 481.98) rotate(90) scale(.08 -.08)">
<use xlink:href="#l"/>
<use x="44.083984" xlink:href="#i"/>
<use x="105.607422" xlink:href="#g"/>
<use x="144.970703" xlink:href="#j"/>
<use x="242.382812" xlink:href="#f"/>
<use x="270.166016" xlink:href="#h"/>
<use x="333.544922" xlink:href="#e"/>
<use x="394.824219" xlink:href="#k"/>
</g>
</g>
<path d="m53.7 481.98v33.808q0 2.4 2.4 2.4h7.7425q2.4 0 2.4-2.4v-33.808q0-2.4-2.4-2.4h-7.7425q-2.4 0-2.4 2.4z" clip-path="url(#a)" fill="#fff" stroke="#fff"/>
<g clip-path="url(#a)">
<g transform="translate(57.763 481.98) rotate(90) scale(.08 -.08)">
<use xlink:href="#l"/>
<use x="44.083984" xlink:href="#i"/>
<use x="105.607422" xlink:href="#g"/>
<use x="144.970703" xlink:href="#j"/>
<use x="242.382812" xlink:href="#f"/>
<use x="270.166016" xlink:href="#h"/>
<use x="333.544922" xlink:href="#e"/>
<use x="394.824219" xlink:href="#k"/>
</g>
</g>
<path d="m69.176 481.98v33.808q0 2.4 2.4 2.4h7.7425q2.4 0 2.4-2.4v-33.808q0-2.4-2.4-2.4h-7.7425q-2.4 0-2.4 2.4z" clip-path="url(#a)" fill="#fff" stroke="#fff"/>
<g clip-path="url(#a)">
<g transform="translate(73.24 481.98) rotate(90) scale(.08 -.08)">
<use xlink:href="#l"/>
<use x="44.083984" xlink:href="#i"/>
<use x="105.607422" xlink:href="#g"/>
<use x="144.970703" xlink:href="#j"/>
<use x="242.382812" xlink:href="#f"/>
<use x="270.166016" xlink:href="#h"/>
<use x="333.544922" xlink:href="#e"/>
<use x="394.824219" xlink:href="#k"/>
</g>
</g>
<path d="m111.74 481.98v33.808q0 2.4 2.4 2.4h7.7425q2.4 0 2.4-2.4v-33.808q0-2.4-2.4-2.4h-7.7425q-2.4 0-2.4 2.4z" clip-path="url(#a)" fill="#fff" stroke="#fff"/>
<g clip-path="url(#a)">
<g transform="translate(115.8 481.98) rotate(90) scale(.08 -.08)">
<use xlink:href="#l"/>
<use x="44.083984" xlink:href="#i"/>
<use x="105.607422" xlink:href="#g"/>
<use x="144.970703" xlink:href="#j"/>
<use x="242.382812" xlink:href="#f"/>
<use x="270.166016" xlink:href="#h"/>
<use x="333.544922" xlink:href="#e"/>
<use x="394.824219" xlink:href="#k"/>
</g>
</g>
<path d="m204.59 481.98v33.808q0 2.4 2.4 2.4h7.7425q2.4 0 2.4-2.4v-33.808q0-2.4-2.4-2.4h-7.7425q-2.4 0-2.4 2.4z" clip-path="url(#a)" fill="#fff" stroke="#fff"/>
<g clip-path="url(#a)">
<g transform="translate(208.66 481.98) rotate(90) scale(.08 -.08)">
<use xlink:href="#l"/>
<use x="44.083984" xlink:href="#i"/>
<use x="105.607422" xlink:href="#g"/>
<use x="144.970703" xlink:href="#j"/>
<use x="242.382812" xlink:href="#f"/>
<use x="270.166016" xlink:href="#h"/>
<use x="333.544922" xlink:href="#e"/>
<use x="394.824219" xlink:href="#k"/>
</g>
</g>
<path d="m692.1 481.98v33.808q0 2.4 2.4 2.4h7.7425q2.4 0 2.4-2.4v-33.808q0-2.4-2.4-2.4h-7.7425q-2.4 0-2.4 2.4z" clip-path="url(#a)" fill="#fff" stroke="#fff"/>
<g clip-path="url(#a)">
<g transform="translate(696.16 481.98) rotate(90) scale(.08 -.08)">
<use xlink:href="#l"/>
<use x="44.083984" xlink:href="#i"/>
<use x="105.607422" xlink:href="#g"/>
<use x="144.970703" xlink:href="#j"/>
<use x="242.382812" xlink:href="#f"/>
<use x="270.166016" xlink:href="#h"/>
<use x="333.544922" xlink:href="#e"/>
<use x="394.824219" xlink:href="#k"/>
</g>
</g>
<path d="m1009.4 481.98v33.808q0 2.4 2.4 2.4h7.7425q2.4 0 2.4-2.4v-33.808q0-2.4-2.4-2.4h-7.7425q-2.4 0-2.4 2.4z" clip-path="url(#a)" fill="#fff" stroke="#fff"/>
<g clip-path="url(#a)">
<g transform="translate(1013.4 481.98) rotate(90) scale(.08 -.08)">
<use xlink:href="#l"/>
<use x="44.083984" xlink:href="#i"/>
<use x="105.607422" xlink:href="#g"/>
<use x="144.970703" xlink:href="#j"/>
<use x="242.382812" xlink:href="#f"/>
<use x="270.166016" xlink:href="#h"/>
<use x="333.544922" xlink:href="#e"/>
<use x="394.824219" xlink:href="#k"/>
</g>
</g>
<defs>
<path id="b" d="m0 8.6603c2.2967 0 4.4997-0.9125 6.1237-2.5365 1.624-1.624 2.5365-3.827 2.5365-6.1237s-0.9125-4.4997-2.5365-6.1237c-1.624-1.624-3.827-2.5365-6.1237-2.5365s-4.4997 0.9125-6.1237 2.5365c-1.624 1.624-2.5365 3.827-2.5365 6.1237s0.9125 4.4997 2.5365 6.1237c1.624 1.624 3.827 2.5365 6.1237 2.5365z"/>
</defs>
<g clip-path="url(#a)" fill="#ffffff" stroke="#ffffff">
<use x="48.363636" y="534.545455" xlink:href="#b"/>
<use x="59.970909" y="534.545455" xlink:href="#b"/>
<use x="75.447273" y="534.545455" xlink:href="#b"/>
<use x="94.792727" y="534.545455" xlink:href="#b"/>
<use x="118.007273" y="534.545455" xlink:href="#b"/>
<use x="145.090909" y="534.545455" xlink:href="#b"/>
<use x="176.043636" y="534.545455" xlink:href="#b"/>
<use x="210.865455" y="534.545455" xlink:href="#b"/>
<use x="249.556364" y="534.545455" xlink:href="#b"/>
<use x="292.116364" y="534.545455" xlink:href="#b"/>
<use x="338.545455" y="534.545455" xlink:href="#b"/>
<use x="388.843636" y="534.545455" xlink:href="#b"/>
<use x="443.010909" y="534.545455" xlink:href="#b"/>
<use x="501.047273" y="534.545455" xlink:href="#b"/>
<use x="562.952727" y="534.545455" xlink:href="#b"/>
<use x="628.727273" y="534.545455" xlink:href="#b"/>
<use x="698.370909" y="534.545455" xlink:href="#b"/>
<use x="771.883636" y="534.545455" xlink:href="#b"/>
<use x="849.265455" y="534.545455" xlink:href="#b"/>
<use x="930.516364" y="534.545455" xlink:href="#b"/>
<use x="1015.636364" y="534.545455" xlink:href="#b"/>
<use x="111.621481" y="25.454545" xlink:href="#b"/>
<use x="111.621481" y="98.853958" xlink:href="#b"/>
<use x="48.363636" y="463.219709" xlink:href="#b"/>
<use x="84.475152" y="390.901743" xlink:href="#b"/>
<use x="94.792727" y="463.219709" xlink:href="#b"/>
<use x="218.854411" y="172.13057" xlink:href="#b"/>
<use x="145.090909" y="463.219709" xlink:href="#b"/>
<use x="112.203636" y="390.901743" xlink:href="#b"/>
<use x="148.96" y="390.901743" xlink:href="#b"/>
<use x="292.116364" y="463.219709" xlink:href="#b"/>
<use x="403.890101" y="245.25979" xlink:href="#b"/>
<use x="363.694545" y="390.901743" xlink:href="#b"/>
<use x="472.029091" y="390.901743" xlink:href="#b"/>
<use x="731.473131" y="318.204477" xlink:href="#b"/>
<use x="562.952727" y="463.219709" xlink:href="#b"/>
<use x="699.660606" y="390.901743" xlink:href="#b"/>
<use x="931.806061" y="390.901743" xlink:href="#b"/>
<use x="849.265455" y="463.219709" xlink:href="#b"/>
<use x="930.516364" y="463.219709" xlink:href="#b"/>
<use x="628.727273" y="463.219709" xlink:href="#b"/>
<use x="771.883636" y="463.219709" xlink:href="#b"/>
<use x="443.010909" y="463.219709" xlink:href="#b"/>
<use x="501.047273" y="463.219709" xlink:href="#b"/>
<use x="338.545455" y="463.219709" xlink:href="#b"/>
<use x="388.843636" y="463.219709" xlink:href="#b"/>
<use x="249.556364" y="463.219709" xlink:href="#b"/>
<use x="176.043636" y="463.219709" xlink:href="#b"/>
<use x="59.970909" y="463.219709" xlink:href="#b"/>
<use x="75.447273" y="463.219709" xlink:href="#b"/>
<use x="118.007273" y="463.219709" xlink:href="#b"/>
<use x="210.865455" y="463.219709" xlink:href="#b"/>
<use x="698.370909" y="463.219709" xlink:href="#b"/>
<use x="1015.636364" y="463.219709" xlink:href="#b"/>
</g>
<g clip-path="url(#a)">
<defs>
<path id="al" d="m8.5 21.578v33.109h8.9844v-32.766q0-7.7656 3.0156-11.656 3.0312-3.875 9.0938-3.875 7.2656 0 11.484 4.6406 4.2344 4.6406 4.2344 12.656v31h8.9844v-54.688h-8.9844v8.4062q-3.2656-4.9844-7.5938-7.4062-4.3125-2.4219-10.031-2.4219-9.4219 0-14.312 5.8594-4.875 5.8594-4.875 17.141z"/>
</defs>
<g transform="translate(34.888 537.3) scale(.1 -.1)">
<use xlink:href="#ah"/>
<use x="55.802734" xlink:href="#e"/>
<use x="117.082031" xlink:href="#al"/>
<use x="180.460938" xlink:href="#k"/>
<use x="208.244141" xlink:href="#e"/>
</g>
</g>
<g clip-path="url(#a)">
<defs>
<path id="af" d="m54.891 33.016v-33.016h-8.9844v32.719q0 7.7656-3.0312 11.609-3.0312 3.8594-9.0781 3.8594-7.2812 0-11.484-4.6406-4.2031-4.625-4.2031-12.641v-30.906h-9.0312v75.984h9.0312v-29.797q3.2344 4.9375 7.5938 7.375 4.375 2.4375 10.094 2.4375 9.4219 0 14.25-5.8281 4.8438-5.8281 4.8438-17.156z"/>
<path id="ae" d="m44.281 53.078v-8.5q-3.7969 1.9531-7.9062 2.9219-4.0938 0.98438-8.5 0.98438-6.6875 0-10.031-2.0469t-3.3438-6.1562q0-3.125 2.3906-4.9062t9.625-3.3906l3.0781-0.6875q9.5625-2.0469 13.594-5.7812t4.0312-10.422q0-7.625-6.0312-12.078-6.0312-4.4375-16.578-4.4375-4.3906 0-9.1562 0.85938t-10.031 2.5625v9.2812q4.9844-2.5938 9.8125-3.8906 4.8281-1.2812 9.5781-1.2812 6.3438 0 9.75 2.1719 3.4219 2.1719 3.4219 6.125 0 3.6562-2.4688 5.6094-2.4531 1.9531-10.812 3.7656l-3.125 0.73438q-8.3438 1.75-12.062 5.3906-3.7031 3.6406-3.7031 9.9844 0 7.7188 5.4688 11.906 5.4688 4.2031 15.531 4.2031 4.9688 0 9.3594-0.73438 4.4062-0.71875 8.1094-2.1875z"/>
</defs>
<g transform="translate(51.133 537.3) scale(.1 -.1)">
<use xlink:href="#af"/>
<use x="63.378906" xlink:href="#e"/>
<use x="124.658203" xlink:href="#ae"/>
</g>
</g>
<g clip-path="url(#a)">
<g transform="translate(69.214 537.3) scale(.1 -.1)">
<use xlink:href="#e"/>
<use x="61.279297" xlink:href="#h"/>
</g>
</g>
<g clip-path="url(#a)">
<defs>
<path id="av" d="m5.5156 54.688h42.672v-8.2031l-33.781-39.312h33.781v-7.1719h-43.891v8.2031l33.797 39.312h-32.578z"/>
<path id="an" d="m45.406 27.984q0 9.7656-4.0312 15.125-4.0156 5.375-11.297 5.375-7.2188 0-11.25-5.375-4.0312-5.3594-4.0312-15.125 0-9.7188 4.0312-15.094t11.25-5.375q7.2812 0 11.297 5.375 4.0312 5.375 4.0312 15.094zm8.9844-21.203q0-13.953-6.2031-20.766-6.1875-6.8125-18.984-6.8125-4.7344 0-8.9375 0.70312t-8.1562 2.1719v8.7344q3.9531-2.1406 7.8125-3.1562 3.8594-1.0312 7.8594-1.0312 8.8438 0 13.234 4.6094t4.3906 13.938v4.4531q-2.7812-4.8438-7.125-7.2344t-10.406-2.3906q-10.047 0-16.203 7.6562-6.1562 7.6719-6.1562 20.328 0 12.688 6.1562 20.344 6.1562 7.6719 16.203 7.6719 6.0625 0 10.406-2.3906t7.125-7.2188v8.2969h8.9844z"/>
</defs>
<g transform="translate(73.438 537.3) scale(.1 -.1)">
<use xlink:href="#e"/>
<use x="61.279297" xlink:href="#j"/>
<use x="158.691406" xlink:href="#e"/>
<use x="219.970703" xlink:href="#av"/>
<use x="272.460938" xlink:href="#f"/>
<use x="300.244141" xlink:href="#h"/>
<use x="363.623047" xlink:href="#an"/>
</g>
</g>
<g clip-path="url(#a)">
<defs>
<path id="ao" d="m37.109 75.984v-7.4844h-8.5938q-4.8281 0-6.7188-1.9531-1.875-1.9531-1.875-7.0312v-4.8281h14.797v-6.9844h-14.797v-47.703h-9.0312v47.703h-8.5938v6.9844h8.5938v3.8125q0 9.125 4.25 13.297 4.25 4.1875 13.469 4.1875z"/>
<path id="o" d="m18.312 70.219v-15.531h18.5v-6.9844h-18.5v-29.688q0-6.6875 1.8281-8.5938t7.4531-1.9062h9.2188v-7.5156h-9.2188q-10.406 0-14.359 3.875-3.9531 3.8906-3.9531 14.141v29.688h-6.5938v6.9844h6.5938v15.531z"/>
</defs>
<g transform="translate(109.81 537.3) scale(.1 -.1)">
<use xlink:href="#an"/>
<use x="63.476562" xlink:href="#f"/>
<use x="91.259766" xlink:href="#ao"/>
<use x="124.714844" xlink:href="#o"/>
</g>
</g>
<g clip-path="url(#a)">
<defs>
<path id="q" d="m30.609 48.391q-7.2188 0-11.422-5.6406t-4.2031-15.453 4.1719-15.453q4.1875-5.6406 11.453-5.6406 7.1875 0 11.375 5.6562 4.2031 5.6719 4.2031 15.438 0 9.7188-4.2031 15.406-4.1875 5.6875-11.375 5.6875zm0 7.6094q11.719 0 18.406-7.625 6.7031-7.6094 6.7031-21.078 0-13.422-6.7031-21.078-6.6875-7.6406-18.406-7.6406-11.766 0-18.438 7.6406-6.6562 7.6562-6.6562 21.078 0 13.469 6.6562 21.078 6.6719 7.625 18.438 7.625z"/>
</defs>
<g transform="translate(138.22 537.3) scale(.1 -.1)">
<use xlink:href="#ao"/>
<use x="35.205078" xlink:href="#q"/>
<use x="96.386719" xlink:href="#g"/>
</g>
</g>
<g clip-path="url(#a)">
<defs>
<path id="s" d="m48.781 52.594v-8.4062q-3.8125 2.1094-7.6406 3.1562t-7.7344 1.0469q-8.75 0-13.594-5.5469-4.8281-5.5312-4.8281-15.547t4.8281-15.562q4.8438-5.5312 13.594-5.5312 3.9062 0 7.7344 1.0469t7.6406 3.1562v-8.3125q-3.7656-1.75-7.7969-2.625-4.0156-0.89062-8.5625-0.89062-12.359 0-19.641 7.7656-7.2656 7.7656-7.2656 20.953 0 13.375 7.3438 21.031 7.3594 7.6719 20.156 7.6719 4.1406 0 8.0938-0.85938 3.9531-0.84375 7.6719-2.5469z"/>
<path id="ak" d="m2.9844 54.688h9.5156l17.094-45.891 17.094 45.891h9.5156l-20.516-54.688h-12.203z"/>
<path id="aj" d="m32.172-5.0781q-3.7969-9.7656-7.4219-12.734-3.6094-2.9844-9.6562-2.9844h-7.1875v7.5156h5.2812q3.7031 0 5.75 1.7656 2.0625 1.75 4.5469 8.2969l1.6094 4.0938-22.109 53.812h9.5156l17.094-42.766 17.094 42.766h9.5156z"/>
</defs>
<g transform="translate(152.59 537.3) scale(.1 -.1)">
<use xlink:href="#s"/>
<use x="54.980469" xlink:href="#g"/>
<use x="93.84375" xlink:href="#i"/>
<use x="155.367188" xlink:href="#e"/>
<use x="216.646484" xlink:href="#o"/>
<use x="255.855469" xlink:href="#f"/>
<use x="283.638672" xlink:href="#ak"/>
<use x="342.818359" xlink:href="#f"/>
<use x="370.601562" xlink:href="#o"/>
<use x="409.810547" xlink:href="#aj"/>
</g>
</g>
<g clip-path="url(#a)">
<defs>
<path id="au" d="m11.719 12.406h10.297v-8.4062l-8-15.625h-6.2969l4 15.625z"/>
</defs>
<g transform="translate(209.28 537.3) scale(.1 -.1)">
<use xlink:href="#au"/>
</g>
</g>
<g clip-path="url(#a)">
<g transform="translate(234.99 537.3) scale(.1 -.1)">
<use xlink:href="#ak"/>
<use x="59.179688" xlink:href="#f"/>
<use x="86.962891" xlink:href="#ae"/>
<use x="139.0625" xlink:href="#f"/>
<use x="166.845703" xlink:href="#q"/>
<use x="228.027344" xlink:href="#h"/>
</g>
</g>
<g clip-path="url(#a)">
<defs>
<path id="ax" d="m45.406 46.391v29.594h8.9844v-75.984h-8.9844v8.2031q-2.8281-4.875-7.1562-7.25-4.3125-2.375-10.375-2.375-9.9062 0-16.141 7.9062-6.2188 7.9219-6.2188 20.812t6.2188 20.797q6.2344 7.9062 16.141 7.9062 6.0625 0 10.375-2.375 4.3281-2.3594 7.1562-7.2344zm-30.609-19.094q0-9.9062 4.0781-15.547t11.203-5.6406 11.219 5.6406q4.1094 5.6406 4.1094 15.547t-4.1094 15.547q-4.0938 5.6406-11.219 5.6406t-11.203-5.6406-4.0781-15.547z"/>
</defs>
<g transform="translate(282.71 537.3) scale(.1 -.1)">
<use xlink:href="#e"/>
<use x="61.279297" xlink:href="#h"/>
<use x="124.658203" xlink:href="#ax"/>
</g>
</g>
<g clip-path="url(#a)">
<g transform="translate(330.34 537.3) scale(.1 -.1)">
<use xlink:href="#o"/>
<use x="39.208984" xlink:href="#af"/>
<use x="102.587891" xlink:href="#i"/>
</g>
</g>
<g clip-path="url(#a)">
<defs>
<path id="ag" d="m48.688 27.297q0 9.9062-4.0781 15.547t-11.203 5.6406q-7.1406 0-11.219-5.6406t-4.0781-15.547 4.0781-15.547 11.219-5.6406q7.125 0 11.203 5.6406t4.0781 15.547zm-30.578 19.094q2.8438 4.875 7.1562 7.2344 4.3281 2.375 10.328 2.375 9.9688 0 16.188-7.9062 6.2344-7.9062 6.2344-20.797t-6.2344-20.812q-6.2188-7.9062-16.188-7.9062-6 0-10.328 2.375-4.3125 2.375-7.1562 7.25v-8.2031h-9.0312v75.984h9.0312z"/>
</defs>
<g transform="translate(373.52 537.3) scale(.1 -.1)">
<use xlink:href="#e"/>
<use x="61.279297" xlink:href="#ag"/>
<use x="124.755859" xlink:href="#f"/>
<use x="152.539062" xlink:href="#k"/>
<use x="180.322266" xlink:href="#f"/>
<use x="208.105469" xlink:href="#o"/>
<use x="247.314453" xlink:href="#aj"/>
</g>
</g>
<g clip-path="url(#a)">
<g transform="translate(437.99 537.3) scale(.1 -.1)">
<use xlink:href="#o"/>
<use x="39.208984" xlink:href="#q"/>
</g>
</g>
<g clip-path="url(#a)">
<g transform="translate(479.56 537.3) scale(.1 -.1)">
<use xlink:href="#s"/>
<use x="54.980469" xlink:href="#q"/>
<use x="116.162109" xlink:href="#j"/>
<use x="213.574219" xlink:href="#ag"/>
<use x="277.050781" xlink:href="#f"/>
<use x="304.833984" xlink:href="#h"/>
<use x="368.212891" xlink:href="#i"/>
</g>
</g>
<g clip-path="url(#a)">
<g transform="translate(555.87 537.3) scale(.1 -.1)">
<use xlink:href="#e"/>
<use x="61.279297" xlink:href="#g"/>
<use x="102.392578" xlink:href="#o"/>
</g>
</g>
<g clip-path="url(#a)">
<g transform="translate(623.71 537.3) scale(.1 -.1)">
<use xlink:href="#o"/>
<use x="39.208984" xlink:href="#q"/>
</g>
</g>
<g clip-path="url(#a)">
<defs>
<path id="at" d="m25.391 72.906h8.2969l-25.391-82.188h-8.2969z"/>
</defs>
<g transform="translate(696.69 537.3) scale(.1 -.1)">
<use xlink:href="#at"/>
</g>
</g>
<g clip-path="url(#a)">
<defs>
<path id="aw" d="m4.2031 54.688h8.9844l11.234-42.672 11.172 42.672h10.594l11.234-42.672 11.188 42.672h8.9844l-14.312-54.688h-10.594l-11.766 44.828-11.812-44.828h-10.609z"/>
</defs>
<g transform="translate(761.28 537.3) scale(.1 -.1)">
<use xlink:href="#aw"/>
<use x="81.787109" xlink:href="#f"/>
<use x="109.570312" xlink:href="#o"/>
<use x="148.779297" xlink:href="#af"/>
</g>
</g>
<g clip-path="url(#a)">
<g transform="translate(820.11 537.3) scale(.1 -.1)">
<use xlink:href="#s"/>
<use x="54.980469" xlink:href="#q"/>
<use x="116.162109" xlink:href="#j"/>
<use x="213.574219" xlink:href="#j"/>
<use x="310.986328" xlink:href="#i"/>
<use x="372.509766" xlink:href="#g"/>
<use x="411.373047" xlink:href="#s"/>
<use x="466.353516" xlink:href="#f"/>
<use x="494.136719" xlink:href="#e"/>
<use x="555.416016" xlink:href="#k"/>
</g>
</g>
<g clip-path="url(#a)">
<defs>
<path id="am" d="m18.109 8.2031v-29h-9.0312v75.484h9.0312v-8.2969q2.8438 4.875 7.1562 7.2344 4.3281 2.375 10.328 2.375 9.9688 0 16.188-7.9062 6.2344-7.9062 6.2344-20.797t-6.2344-20.812q-6.2188-7.9062-16.188-7.9062-6 0-10.328 2.375-4.3125 2.375-7.1562 7.25zm30.578 19.094q0 9.9062-4.0781 15.547t-11.203 5.6406q-7.1406 0-11.219-5.6406t-4.0781-15.547 4.0781-15.547 11.219-5.6406q7.125 0 11.203 5.6406t4.0781 15.547z"/>
</defs>
<g transform="translate(910.2 537.3) scale(.1 -.1)">
<use xlink:href="#am"/>
<use x="63.476562" xlink:href="#al"/>
<use x="126.855469" xlink:href="#g"/>
<use x="167.96875" xlink:href="#am"/>
<use x="231.445312" xlink:href="#q"/>
<use x="292.626953" xlink:href="#ae"/>
<use x="344.726562" xlink:href="#i"/>
</g>
</g>
<g clip-path="url(#a)">
<defs>
<path id="d" d="m10.688 12.406h10.312v-12.406h-10.312z"/>
</defs>
<g transform="translate(1014 537.3) scale(.1 -.1)">
<use xlink:href="#d"/>
</g>
</g>
<g clip-path="url(#a)">
<defs>
<path id="c" d="m12.406 8.2969h16.109v55.625l-17.531-3.5156v8.9844l17.438 3.5156h9.8594v-64.609h16.109v-8.2969h-41.984z"/>
</defs>
<g transform="translate(103.67 28.214) scale(.1 -.1)">
<use xlink:href="#c"/>
<use x="63.623047" xlink:href="#d"/>
<use x="95.410156" xlink:href="#c"/>
</g>
</g>
<g clip-path="url(#a)">
<defs>
<path id="m" d="m19.188 8.2969h34.422v-8.2969h-46.281v8.2969q5.6094 5.8125 15.297 15.594 9.7031 9.7969 12.188 12.641 4.7344 5.3125 6.6094 9 1.8906 3.6875 1.8906 7.25 0 5.8125-4.0781 9.4688-4.0781 3.6719-10.625 3.6719-4.6406 0-9.7969-1.6094-5.1406-1.6094-11-4.8906v9.9688q5.9531 2.3906 11.125 3.6094 5.1875 1.2188 9.4844 1.2188 11.328 0 18.062-5.6719 6.7344-5.6562 6.7344-15.125 0-4.5-1.6875-8.5312-1.6719-4.0156-6.125-9.4844-1.2188-1.4219-7.7656-8.1875-6.5312-6.7656-18.453-18.922z"/>
</defs>
<g transform="translate(103.67 101.61) scale(.1 -.1)">
<use xlink:href="#c"/>
<use x="63.623047" xlink:href="#d"/>
<use x="95.410156" xlink:href="#m"/>
</g>
</g>
<g clip-path="url(#a)">
<defs>
<path id="ac" d="m37.797 64.312-24.906-38.922h24.906zm-2.5938 8.5938h12.406v-47.516h10.406v-8.2031h-10.406v-17.188h-9.8125v17.188h-32.906v9.5156z"/>
</defs>
<g transform="translate(40.412 465.98) scale(.1 -.1)">
<use xlink:href="#c"/>
<use x="63.623047" xlink:href="#d"/>
<use x="95.410156" xlink:href="#ac"/>
</g>
</g>
<g clip-path="url(#a)">
<defs>
<path id="w" d="m10.797 72.906h38.719v-8.3125h-29.688v-17.859q2.1406 0.73438 4.2812 1.0938 2.1562 0.35938 4.3125 0.35938 12.203 0 19.328-6.6875 7.1406-6.6875 7.1406-18.109 0-11.766-7.3281-18.297-7.3281-6.5156-20.656-6.5156-4.5938 0-9.3594 0.78125-4.75 0.78125-9.8281 2.3438v9.9219q4.3906-2.3906 9.0781-3.5625t9.9062-1.1719q8.4531 0 13.375 4.4375 4.9375 4.4375 4.9375 12.062 0 7.6094-4.9375 12.047-4.9219 4.4531-13.375 4.4531-3.9531 0-7.8906-0.875-3.9219-0.875-8.0156-2.7344z"/>
</defs>
<g transform="translate(76.524 393.66) scale(.1 -.1)">
<use xlink:href="#c"/>
<use x="63.623047" xlink:href="#d"/>
<use x="95.410156" xlink:href="#w"/>
</g>
</g>
<g clip-path="url(#a)">
<defs>
<path id="v" d="m33.016 40.375q-6.6406 0-10.531-4.5469-3.875-4.5312-3.875-12.438 0-7.8594 3.875-12.438 3.8906-4.5625 10.531-4.5625t10.516 4.5625q3.875 4.5781 3.875 12.438 0 7.9062-3.875 12.438-3.875 4.5469-10.516 4.5469zm19.578 30.922v-8.9844q-3.7188 1.75-7.5 2.6719-3.7812 0.9375-7.5 0.9375-9.7656 0-14.922-6.5938-5.1406-6.5938-5.875-19.922 2.875 4.25 7.2188 6.5156 4.3594 2.2656 9.5781 2.2656 10.984 0 17.359-6.6719 6.375-6.6562 6.375-18.125 0-11.234-6.6406-18.031-6.6406-6.7812-17.672-6.7812-12.656 0-19.344 9.6875-6.6875 9.7031-6.6875 28.109 0 17.281 8.2031 27.562t22.016 10.281q3.7188 0 7.5-0.73438t7.8906-2.1875z"/>
</defs>
<g transform="translate(86.841 465.98) scale(.1 -.1)">
<use xlink:href="#c"/>
<use x="63.623047" xlink:href="#d"/>
<use x="95.410156" xlink:href="#v"/>
</g>
</g>
<g clip-path="url(#a)">
<defs>
<path id="ab" d="m8.2031 72.906h46.875v-4.2031l-26.469-68.703h-10.297l24.906 64.594h-35.016z"/>
</defs>
<g transform="translate(210.9 174.89) scale(.1 -.1)">
<use xlink:href="#c"/>
<use x="63.623047" xlink:href="#d"/>
<use x="95.410156" xlink:href="#ab"/>
</g>
</g>
<g clip-path="url(#a)">
<defs>
<path id="aa" d="m31.781 34.625q-7.0312 0-11.062-3.7656-4.0156-3.7656-4.0156-10.344 0-6.5938 4.0156-10.359 4.0312-3.7656 11.062-3.7656t11.078 3.7812q4.0625 3.7969 4.0625 10.344 0 6.5781-4.0312 10.344-4.0156 3.7656-11.109 3.7656zm-9.8594 4.1875q-6.3438 1.5625-9.8906 5.9062-3.5312 4.3594-3.5312 10.609 0 8.7344 6.2188 13.812 6.2344 5.0781 17.062 5.0781 10.891 0 17.094-5.0781t6.2031-13.812q0-6.25-3.5469-10.609-3.5312-4.3438-9.8281-5.9062 7.125-1.6562 11.094-6.5 3.9844-4.8281 3.9844-11.797 0-10.609-6.4688-16.281-6.4688-5.6562-18.531-5.6562-12.047 0-18.531 5.6562-6.4688 5.6719-6.4688 16.281 0 6.9688 4 11.797 4.0156 4.8438 11.141 6.5zm-3.6094 15.578q0-5.6562 3.5312-8.8281 3.5469-3.1719 9.9375-3.1719 6.3594 0 9.9375 3.1719 3.5938 3.1719 3.5938 8.8281 0 5.6719-3.5938 8.8438-3.5781 3.1719-9.9375 3.1719-6.3906 0-9.9375-3.1719-3.5312-3.1719-3.5312-8.8438z"/>
</defs>
<g transform="translate(137.14 465.98) scale(.1 -.1)">
<use xlink:href="#c"/>
<use x="63.623047" xlink:href="#d"/>
<use x="95.410156" xlink:href="#aa"/>
</g>
</g>
<g clip-path="url(#a)">
<defs>
<path id="z" d="m10.984 1.5156v8.9844q3.7188-1.7656 7.5156-2.6875 3.8125-0.92188 7.4844-0.92188 9.7656 0 14.906 6.5625 5.1562 6.5625 5.8906 19.953-2.8281-4.2031-7.1875-6.4531-4.3438-2.25-9.6094-2.25-10.938 0-17.312 6.6094-6.375 6.625-6.375 18.109 0 11.219 6.6406 18 6.6406 6.7969 17.672 6.7969 12.656 0 19.312-9.7031 6.6719-9.6875 6.6719-28.141 0-17.234-8.1875-27.516-8.1719-10.281-21.984-10.281-3.7188 0-7.5312 0.73438-3.7969 0.73438-7.9062 2.2031zm19.625 30.906q6.6406 0 10.516 4.5312 3.8906 4.5469 3.8906 12.469 0 7.8594-3.8906 12.422-3.875 4.5625-10.516 4.5625t-10.516-4.5625-3.875-12.422q0-7.9219 3.875-12.469 3.875-4.5312 10.516-4.5312z"/>
</defs>
<g transform="translate(104.25 393.66) scale(.1 -.1)">
<use xlink:href="#c"/>
<use x="63.623047" xlink:href="#d"/>
<use x="95.410156" xlink:href="#z"/>
</g>
</g>
<g clip-path="url(#a)">
<defs>
<path id="ad" d="m31.781 66.406q-7.6094 0-11.453-7.5-3.8281-7.4844-3.8281-22.531 0-14.984 3.8281-22.484 3.8438-7.5 11.453-7.5 7.6719 0 11.5 7.5 3.8438 7.5 3.8438 22.484 0 15.047-3.8438 22.531-3.8281 7.5-11.5 7.5zm0 7.8125q12.266 0 18.734-9.7031 6.4688-9.6875 6.4688-28.141 0-18.406-6.4688-28.109-6.4688-9.6875-18.734-9.6875-12.25 0-18.719 9.6875-6.4688 9.7031-6.4688 28.109 0 18.453 6.4688 28.141 6.4688 9.7031 18.719 9.7031z"/>
</defs>
<g transform="translate(137.83 393.66) scale(.1 -.1)">
<use xlink:href="#c"/>
<use x="63.623047" xlink:href="#d"/>
<use x="95.410156" xlink:href="#c"/>
<use x="159.033203" xlink:href="#ad"/>
</g>
</g>
<g clip-path="url(#a)">
<g transform="translate(280.98 465.98) scale(.1 -.1)">
<use xlink:href="#c"/>
<use x="63.623047" xlink:href="#d"/>
<use x="95.410156" xlink:href="#c"/>
<use x="159.033203" xlink:href="#c"/>
</g>
</g>
<g clip-path="url(#a)">
<g transform="translate(392.76 248.02) scale(.1 -.1)">
<use xlink:href="#c"/>
<use x="63.623047" xlink:href="#d"/>
<use x="95.410156" xlink:href="#c"/>
<use x="159.033203" xlink:href="#m"/>
</g>
</g>
<g clip-path="url(#a)">
<g transform="translate(352.56 393.66) scale(.1 -.1)">
<use xlink:href="#c"/>
<use x="63.623047" xlink:href="#d"/>
<use x="95.410156" xlink:href="#c"/>
<use x="159.033203" xlink:href="#ac"/>
</g>
</g>
<g clip-path="url(#a)">
<g transform="translate(460.9 393.66) scale(.1 -.1)">
<use xlink:href="#c"/>
<use x="63.623047" xlink:href="#d"/>
<use x="95.410156" xlink:href="#c"/>
<use x="159.033203" xlink:href="#w"/>
</g>
</g>
<g clip-path="url(#a)">
<g transform="translate(720.34 320.96) scale(.1 -.1)">
<use xlink:href="#c"/>
<use x="63.623047" xlink:href="#d"/>
<use x="95.410156" xlink:href="#c"/>
<use x="159.033203" xlink:href="#v"/>
</g>
</g>
<g clip-path="url(#a)">
<g transform="translate(551.82 465.98) scale(.1 -.1)">
<use xlink:href="#c"/>
<use x="63.623047" xlink:href="#d"/>
<use x="95.410156" xlink:href="#c"/>
<use x="159.033203" xlink:href="#ab"/>
</g>
</g>
<g clip-path="url(#a)">
<g transform="translate(688.53 393.66) scale(.1 -.1)">
<use xlink:href="#c"/>
<use x="63.623047" xlink:href="#d"/>
<use x="95.410156" xlink:href="#c"/>
<use x="159.033203" xlink:href="#aa"/>
</g>
</g>
<g clip-path="url(#a)">
<g transform="translate(920.67 393.66) scale(.1 -.1)">
<use xlink:href="#c"/>
<use x="63.623047" xlink:href="#d"/>
<use x="95.410156" xlink:href="#c"/>
<use x="159.033203" xlink:href="#z"/>
</g>
</g>
<g clip-path="url(#a)">
<g transform="translate(838.13 465.98) scale(.1 -.1)">
<use xlink:href="#c"/>
<use x="63.623047" xlink:href="#d"/>
<use x="95.410156" xlink:href="#m"/>
<use x="159.033203" xlink:href="#ad"/>
</g>
</g>
<g clip-path="url(#a)">
<g transform="translate(919.38 465.98) scale(.1 -.1)">
<use xlink:href="#c"/>
<use x="63.623047" xlink:href="#d"/>
<use x="95.410156" xlink:href="#m"/>
<use x="159.033203" xlink:href="#c"/>
</g>
</g>
<g clip-path="url(#a)">
<g transform="translate(617.59 465.98) scale(.1 -.1)">
<use xlink:href="#c"/>
<use x="63.623047" xlink:href="#d"/>
<use x="95.410156" xlink:href="#m"/>
<use x="159.033203" xlink:href="#m"/>
</g>
</g>
<g clip-path="url(#a)">
<defs>
<path id="n" d="m40.578 39.312q7.0781-1.5156 11.047-6.3125 3.9844-4.7812 3.9844-11.812 0-10.781-7.4219-16.703-7.4219-5.9062-21.094-5.9062-4.5781 0-9.4375 0.90625t-10.031 2.7188v9.5156q4.0938-2.3906 8.9688-3.6094 4.8906-1.2188 10.219-1.2188 9.2656 0 14.125 3.6562t4.8594 10.641q0 6.4531-4.5156 10.078-4.5156 3.6406-12.562 3.6406h-8.5v8.1094h8.8906q7.2656 0 11.125 2.9062t3.8594 8.375q0 5.6094-3.9844 8.6094-3.9688 3.0156-11.391 3.0156-4.0625 0-8.7031-0.89062-4.6406-0.875-10.203-2.7188v8.7812q5.625 1.5625 10.531 2.3438t9.25 0.78125q11.234 0 17.766-5.1094 6.5469-5.0938 6.5469-13.781 0-6.0625-3.4688-10.234t-9.8594-5.7812z"/>
</defs>
<g transform="translate(760.75 465.98) scale(.1 -.1)">
<use xlink:href="#c"/>
<use x="63.623047" xlink:href="#d"/>
<use x="95.410156" xlink:href="#m"/>
<use x="159.033203" xlink:href="#n"/>
</g>
</g>
<g clip-path="url(#a)">
<g transform="translate(431.88 465.98) scale(.1 -.1)">
<use xlink:href="#c"/>
<use x="63.623047" xlink:href="#d"/>
<use x="95.410156" xlink:href="#m"/>
<use x="159.033203" xlink:href="#w"/>
</g>
</g>
<g clip-path="url(#a)">
<g transform="translate(489.91 465.98) scale(.1 -.1)">
<use xlink:href="#c"/>
<use x="63.623047" xlink:href="#d"/>
<use x="95.410156" xlink:href="#m"/>
<use x="159.033203" xlink:href="#v"/>
</g>
</g>
<g clip-path="url(#a)">
<g transform="translate(327.41 465.98) scale(.1 -.1)">
<use xlink:href="#c"/>
<use x="63.623047" xlink:href="#d"/>
<use x="95.410156" xlink:href="#m"/>
<use x="159.033203" xlink:href="#ab"/>
</g>
</g>
<g clip-path="url(#a)">
<g transform="translate(377.71 465.98) scale(.1 -.1)">
<use xlink:href="#c"/>
<use x="63.623047" xlink:href="#d"/>
<use x="95.410156" xlink:href="#m"/>
<use x="159.033203" xlink:href="#aa"/>
</g>
</g>
<g clip-path="url(#a)">
<g transform="translate(238.42 465.98) scale(.1 -.1)">
<use xlink:href="#c"/>
<use x="63.623047" xlink:href="#d"/>
<use x="95.410156" xlink:href="#m"/>
<use x="159.033203" xlink:href="#z"/>
</g>
</g>
<g clip-path="url(#a)">
<g transform="translate(164.91 465.98) scale(.1 -.1)">
<use xlink:href="#c"/>
<use x="63.623047" xlink:href="#d"/>
<use x="95.410156" xlink:href="#n"/>
<use x="159.033203" xlink:href="#ad"/>
</g>
</g>
<g clip-path="url(#a)">
<g transform="translate(48.838 465.98) scale(.1 -.1)">
<use xlink:href="#c"/>
<use x="63.623047" xlink:href="#d"/>
<use x="95.410156" xlink:href="#n"/>
<use x="159.033203" xlink:href="#c"/>
</g>
</g>
<g clip-path="url(#a)">
<g transform="translate(64.314 465.98) scale(.1 -.1)">
<use xlink:href="#c"/>
<use x="63.623047" xlink:href="#d"/>
<use x="95.410156" xlink:href="#n"/>
<use x="159.033203" xlink:href="#m"/>
</g>
</g>
<g clip-path="url(#a)">
<g transform="translate(106.87 465.98) scale(.1 -.1)">
<use xlink:href="#c"/>
<use x="63.623047" xlink:href="#d"/>
<use x="95.410156" xlink:href="#n"/>
<use x="159.033203" xlink:href="#n"/>
</g>
</g>
<g clip-path="url(#a)">
<g transform="translate(199.73 465.98) scale(.1 -.1)">
<use xlink:href="#c"/>
<use x="63.623047" xlink:href="#d"/>
<use x="95.410156" xlink:href="#n"/>
<use x="159.033203" xlink:href="#ac"/>
</g>
</g>
<g clip-path="url(#a)">
<g transform="translate(687.24 465.98) scale(.1 -.1)">
<use xlink:href="#c"/>
<use x="63.623047" xlink:href="#d"/>
<use x="95.410156" xlink:href="#n"/>
<use x="159.033203" xlink:href="#w"/>
</g>
</g>
<g clip-path="url(#a)">
<g transform="translate(1004.5 465.98) scale(.1 -.1)">
<use xlink:href="#c"/>
<use x="63.623047" xlink:href="#d"/>
<use x="95.410156" xlink:href="#n"/>
<use x="159.033203" xlink:href="#v"/>
</g>
</g>
<defs>
<clipPath id="a">
<rect width="1064" height="560"/>
</clipPath>
</defs>
</svg>
