<?xml version="1.0" encoding="UTF-8"?>
<!DOCTYPE svg  PUBLIC '-//W3C//DTD SVG 1.1//EN'  'http://www.w3.org/Graphics/SVG/1.1/DTD/svg11.dtd'>
<svg width="760pt" height="400pt" version="1.1" viewBox="0 0 760 400" xmlns="http://www.w3.org/2000/svg" xmlns:xlink="http://www.w3.org/1999/xlink">
<defs>
<style type="text/css">*{stroke-linecap:butt;stroke-linejoin:round;}</style>
</defs>
<path d="m0 400h760v-400h-760z" fill="#fff"/>
<g fill="none" stroke="#000">
<path d="m232.97 18.182-190.69 219.51" clip-path="url(#a)"/>
<path d="m232.97 18.182-157.17 292.07" clip-path="url(#a)"/>
<path d="m232.97 18.182-121.51 73.376" clip-path="url(#a)"/>
<path d="m232.97 18.182 131.56 292.07" clip-path="url(#a)"/>
<path d="m232.97 18.182 337.81 219.51" clip-path="url(#a)"/>
<path d="m42.28 237.69 12.89 72.562" clip-path="url(#a)"/>
<path d="m42.28 237.69-7.7341 72.562" clip-path="url(#a)"/>
<path d="m42.28 237.69 7.7341 72.562" clip-path="url(#a)"/>
<path d="m75.794 310.25v71.566" clip-path="url(#a)"/>
<path d="m111.46 91.558-9.8824 218.69" clip-path="url(#a)"/>
<path d="m111.46 91.558 86.793 73.191" clip-path="url(#a)"/>
<path d="m111.46 91.558-76.911 218.69" clip-path="url(#a)" stroke-dasharray="3.7,1.6"/>
<path d="m364.53 310.25v71.566" clip-path="url(#a)"/>
<path d="m570.77 237.69-144.37 72.562" clip-path="url(#a)"/>
<path d="m570.77 237.69-77.341 72.562" clip-path="url(#a)"/>
<path d="m570.77 237.69-5.156 72.562" clip-path="url(#a)"/>
<path d="m570.77 237.69 72.185 72.562" clip-path="url(#a)"/>
<path d="m570.77 237.69 154.68 72.562" clip-path="url(#a)"/>
<path d="m426.4 310.25v71.566" clip-path="url(#a)"/>
<path d="m493.43 310.25v71.566" clip-path="url(#a)"/>
<path d="m565.62 310.25v71.566" clip-path="url(#a)"/>
<path d="m642.96 310.25v71.566" clip-path="url(#a)"/>
<path d="m101.57 310.25v71.566" clip-path="url(#a)"/>
<path d="m198.25 164.75-65.739 145.5" clip-path="url(#a)"/>
<path d="m198.25 164.75-29.647 145.5" clip-path="url(#a)"/>
<path d="m198.25 164.75 11.601 145.5" clip-path="url(#a)"/>
<path d="m198.25 164.75 83.786 72.942" clip-path="url(#a)"/>
<path d="m132.51 310.25v71.566" clip-path="url(#a)"/>
<path d="m168.6 310.25v71.566" clip-path="url(#a)"/>
<path d="m209.85 310.25v71.566" clip-path="url(#a)"/>
<path d="m282.04 237.69-25.78 72.562" clip-path="url(#a)"/>
<path d="m282.04 237.69 25.78 72.562" clip-path="url(#a)"/>
<path d="m256.26 310.25v71.566" clip-path="url(#a)"/>
<path d="m307.82 310.25v71.566" clip-path="url(#a)"/>
<path d="m34.545 310.25v71.566" clip-path="url(#a)"/>
<path d="m50.014 310.25v71.566" clip-path="url(#a)"/>
<path d="m725.45 310.25v71.566" clip-path="url(#a)"/>
</g>
<path d="m140.38 134.32 3.9455-4.5418q1.5739-1.8118-0.23789-3.3858l-5.845-5.0776q-1.8118-1.5739-3.3858 0.23789l-3.9455 4.5418q-1.5739 1.8118 0.23789 3.3858l5.845 5.0776q1.8118 1.5739 3.3858-0.23789z" clip-path="url(#a)" fill="#fff" stroke="#fff"/>
<g clip-path="url(#a)">
<defs>
<path id="u" d="m9.8125 72.906h9.8594v-29.891h35.844v29.891h9.8594v-72.906h-9.8594v34.719h-35.844v-34.719h-9.8594z"/>
</defs>
<g transform="translate(137.32 131.65) rotate(-49.019) scale(.08 -.08)">
<use xlink:href="#u"/>
</g>
</g>
<path d="m158.85 169.15 2.1123-3.9252q1.1373-2.1134-0.97611-3.2507l-6.818-3.669q-2.1134-1.1373-3.2507 0.97611l-2.1123 3.9252q-1.1373 2.1134 0.97611 3.2507l6.818 3.669q2.1134 1.1373 3.2507-0.97611z" clip-path="url(#a)" fill="#fff" stroke="#fff"/>
<g clip-path="url(#a)">
<defs>
<path id="t" d="m9.8125 72.906h9.8594v-64.609h35.5v-8.2969h-45.359z"/>
</defs>
<g transform="translate(155.27 167.23) rotate(-61.714) scale(.08 -.08)">
<use xlink:href="#t"/>
</g>
</g>
<path d="m172.88 61.793 5.1501-3.1099q2.0545-1.2406 0.81386-3.2951l-4.0023-6.6278q-1.2406-2.0545-3.2951-0.81386l-5.1501 3.1099q-2.0545 1.2406-0.81386 3.2951l4.0023 6.6278q1.2406 2.0545 3.2951 0.81386z" clip-path="url(#a)" fill="#fff" stroke="#fff"/>
<g clip-path="url(#a)">
<g transform="translate(170.78 58.314) rotate(-31.126) scale(.08 -.08)">
<use xlink:href="#u"/>
</g>
</g>
<path d="m292.12 164.76 1.8307 4.0642q0.98571 2.1882 3.1739 1.2025l7.0593-3.1799q2.1882-0.98571 1.2025-3.1739l-1.8307-4.0642q-0.98571-2.1882-3.1739-1.2025l-7.0593 3.1799q-2.1882 0.9857-1.2025 3.1739z" clip-path="url(#a)" fill="#fff" stroke="#fff"/>
<g clip-path="url(#a)">
<g transform="translate(295.82 163.09) rotate(65.751) scale(.08 -.08)">
<use xlink:href="#t"/>
</g>
</g>
<path d="m395.93 131.56 5.0447 3.2781q2.0124 1.3077 3.3201-0.70475l4.2187-6.4922q1.3077-2.0124-0.70475-3.3201l-5.0447-3.2781q-2.0124-1.3077-3.3201 0.70475l-4.2187 6.4922q-1.3077 2.0124 0.70475 3.3201z" clip-path="url(#a)" fill="#fff" stroke="#fff"/>
<g clip-path="url(#a)">
<g transform="translate(398.15 128.15) rotate(33.016) scale(.08 -.08)">
<use xlink:href="#u"/>
</g>
</g>
<path d="m42.071 272.37 0.95717 5.3881q0.41977 2.363 2.7828 1.9432l7.6232-1.3542q2.363-0.41977 1.9432-2.7828l-0.95717-5.3881q-0.41977-2.363-2.7828-1.9432l-7.6232 1.3542q-2.363 0.41977-1.9432 2.7828z" clip-path="url(#a)" fill="#fff" stroke="#fff"/>
<g clip-path="url(#a)">
<defs>
<path id="n" d="m34.188 63.188-13.391-36.281h26.812zm-5.5781 9.7188h11.188l27.781-72.906h-10.25l-6.6406 18.703h-32.859l-6.6406-18.703h-10.406z"/>
</defs>
<g transform="translate(46.073 271.66) rotate(79.927) scale(.08 -.08)">
<use xlink:href="#n"/>
</g>
</g>
<path d="m44.358 277.36 0.58001-5.4417q0.25437-2.3865-2.1321-2.6408l-7.6989-0.82059q-2.3865-0.25436-2.6408 2.1321l-0.58001 5.4417q-0.25437 2.3865 2.1321 2.6408l7.6989 0.82059q2.3865 0.25436 2.6408-2.1321z" clip-path="url(#a)" fill="#fff" stroke="#fff"/>
<g clip-path="url(#a)">
<g transform="translate(40.318 276.93) rotate(-83.916) scale(.08 -.08)">
<use xlink:href="#n"/>
</g>
</g>
<path d="m39.655 272.24 0.51125 4.7966q0.25436 2.3865 2.6408 2.1321l7.6989-0.82059q2.3865-0.25436 2.1321-2.6408l-0.51125-4.7966q-0.25436-2.3865-2.6408-2.1321l-7.6989 0.82059q-2.3865 0.25436-2.1321 2.6408z" clip-path="url(#a)" fill="#fff" stroke="#fff"/>
<g clip-path="url(#a)">
<defs>
<path id="q" d="m19.672 64.797v-27.391h12.406q6.8906 0 10.641 3.5625 3.7656 3.5625 3.7656 10.156 0 6.5469-3.7656 10.109-3.75 3.5625-10.641 3.5625zm-9.8594 8.1094h22.266q12.266 0 18.531-5.5469 6.2812-5.5469 6.2812-16.234 0-10.797-6.2812-16.312-6.2656-5.5156-18.531-5.5156h-12.406v-29.297h-9.8594z"/>
</defs>
<g transform="translate(43.696 271.81) rotate(83.916) scale(.08 -.08)">
<use xlink:href="#q"/>
</g>
</g>
<path d="m69.523 329.13v33.808q0 2.4 2.4 2.4h7.7425q2.4 0 2.4-2.4v-33.808q0-2.4-2.4-2.4h-7.7425q-2.4 0-2.4 2.4z" clip-path="url(#a)" fill="#fff" stroke="#fff"/>
<g clip-path="url(#a)">
<defs>
<path id="j" d="m-0.29688 72.906h61.672v-8.3125h-25.875v-64.594h-9.9062v64.594h-25.891z"/>
<path id="h" d="m56.203 29.594v-4.3906h-41.312q0.59375-9.2812 5.5938-14.141t13.938-4.8594q5.1719 0 10.031 1.2656t9.6562 3.8125v-8.5q-4.8438-2.0469-9.9219-3.125t-10.297-1.0781q-13.094 0-20.734 7.6094-7.6406 7.625-7.6406 20.625 0 13.422 7.25 21.297 7.25 7.8906 19.562 7.8906 11.031 0 17.453-7.1094 6.4219-7.0938 6.4219-19.297zm-8.9844 2.6406q-0.09375 7.3594-4.125 11.75-4.0312 4.4062-10.672 4.4062-7.5156 0-12.031-4.25t-5.2031-11.969z"/>
<path id="i" d="m41.109 46.297q-1.5156 0.875-3.2969 1.2812-1.7812 0.42188-3.9219 0.42188-7.625 0-11.703-4.9531t-4.0781-14.234v-28.812h-9.0312v54.688h9.0312v-8.5q2.8438 4.9844 7.375 7.3906 4.5469 2.4219 11.047 2.4219 0.92188 0 2.0469-0.125 1.125-0.10938 2.4844-0.35938z"/>
<path id="k" d="m52 44.188q3.375 6.0625 8.0625 8.9375t11.031 2.875q8.5469 0 13.188-5.9844 4.6406-5.9688 4.6406-17v-33.016h-9.0312v32.719q0 7.8594-2.7969 11.656-2.7812 3.8125-8.4844 3.8125-6.9844 0-11.047-4.6406-4.0469-4.625-4.0469-12.641v-30.906h-9.0312v32.719q0 7.9062-2.7812 11.688t-8.5938 3.7812q-6.8906 0-10.953-4.6562-4.0469-4.6562-4.0469-12.625v-30.906h-9.0312v54.688h9.0312v-8.5q3.0781 5.0312 7.375 7.4219t10.203 2.3906q5.9688 0 10.141-3.0312 4.1719-3.0156 6.1719-8.7812z"/>
<path id="l" d="m9.4219 54.688h8.9844v-54.688h-8.9844zm0 21.297h8.9844v-11.391h-8.9844z"/>
<path id="f" d="m54.891 33.016v-33.016h-8.9844v32.719q0 7.7656-3.0312 11.609-3.0312 3.8594-9.0781 3.8594-7.2812 0-11.484-4.6406-4.2031-4.625-4.2031-12.641v-30.906h-9.0312v54.688h9.0312v-8.5q3.2344 4.9375 7.5938 7.375 4.375 2.4375 10.094 2.4375 9.4219 0 14.25-5.8281 4.8438-5.8281 4.8438-17.156z"/>
<path id="d" d="m34.281 27.484q-10.891 0-15.094-2.4844t-4.2031-8.5q0-4.7812 3.1562-7.5938 3.1562-2.7969 8.5625-2.7969 7.4844 0 12 5.2969t4.5156 14.078v2zm17.922 3.7188v-31.203h-8.9844v8.2969q-3.0781-4.9688-7.6719-7.3438t-11.234-2.375q-8.3906 0-13.359 4.7188-4.9531 4.7188-4.9531 12.625 0 9.2188 6.1719 13.906 6.1875 4.6875 18.438 4.6875h12.609v0.89062q0 6.2031-4.0781 9.5938t-11.453 3.3906q-4.6875 0-9.1406-1.125-4.4375-1.125-8.5312-3.375v8.3125q4.9219 1.9062 9.5625 2.8438 4.6406 0.95312 9.0312 0.95312 11.875 0 17.734-6.1562 5.8594-6.1406 5.8594-18.641z"/>
<path id="g" d="m9.4219 75.984h8.9844v-75.984h-8.9844z"/>
</defs>
<g transform="translate(73.586 329.13) rotate(90) scale(.08 -.08)">
<use xlink:href="#j"/>
<use x="44.083984" xlink:href="#h"/>
<use x="105.607422" xlink:href="#i"/>
<use x="144.970703" xlink:href="#k"/>
<use x="242.382812" xlink:href="#l"/>
<use x="270.166016" xlink:href="#f"/>
<use x="333.544922" xlink:href="#d"/>
<use x="394.824219" xlink:href="#g"/>
</g>
</g>
<path d="m112.67 203.6 0.21776-4.8188q0.10834-2.3976-2.2892-2.5059l-7.7346-0.34951q-2.3976-0.10834-2.5059 2.2892l-0.21776 4.8188q-0.10834 2.3976 2.2892 2.5059l7.7346 0.34951q2.3976 0.10834 2.5059-2.2892z" clip-path="url(#a)" fill="#fff" stroke="#fff"/>
<g clip-path="url(#a)">
<g transform="translate(108.61 203.41) rotate(-87.413) scale(.08 -.08)">
<use xlink:href="#q"/>
</g>
</g>
<path d="m148.72 131.18 4.1836 3.5279q1.8347 1.5472 3.3819-0.28755l4.9913-5.9189q1.5472-1.8347-0.28755-3.3819l-4.1836-3.5279q-1.8347-1.5472-3.3819 0.28755l-4.9913 5.9189q-1.5472 1.8347 0.28755 3.3819z" clip-path="url(#a)" fill="#fff" stroke="#fff"/>
<g clip-path="url(#a)">
<g transform="translate(151.34 128.08) rotate(40.14) scale(.08 -.08)">
<use xlink:href="#n"/>
</g>
</g>
<path d="m78.009 205.57 1.8156-5.1626q0.79623-2.2641-1.4678-3.0603l-7.304-2.5687q-2.2641-0.79623-3.0603 1.4678l-1.8156 5.1626q-0.79623 2.2641 1.4678 3.0603l7.304 2.5687q2.2641 0.79623 3.0603-1.4678z" clip-path="url(#a)" fill="#fff" stroke="#fff"/>
<g clip-path="url(#a)">
<g transform="translate(74.176 204.22) rotate(-70.624) scale(.08 -.08)">
<use xlink:href="#n"/>
</g>
</g>
<path d="m358.26 329.13v33.808q0 2.4 2.4 2.4h7.7425q2.4 0 2.4-2.4v-33.808q0-2.4-2.4-2.4h-7.7425q-2.4 0-2.4 2.4z" clip-path="url(#a)" fill="#fff" stroke="#fff"/>
<g clip-path="url(#a)">
<g transform="translate(362.32 329.13) rotate(90) scale(.08 -.08)">
<use xlink:href="#j"/>
<use x="44.083984" xlink:href="#h"/>
<use x="105.607422" xlink:href="#i"/>
<use x="144.970703" xlink:href="#k"/>
<use x="242.382812" xlink:href="#l"/>
<use x="270.166016" xlink:href="#f"/>
<use x="333.544922" xlink:href="#d"/>
<use x="394.824219" xlink:href="#g"/>
</g>
</g>
<path d="m498.96 280.8 4.8896-2.4576q2.1444-1.0778 1.0666-3.2222l-3.477-6.9179q-1.0778-2.1444-3.2222-1.0666l-4.8896 2.4576q-2.1444 1.0778-1.0666 3.2222l3.477 6.9179q1.0778 2.1444 3.2222 1.0666z" clip-path="url(#a)" fill="#fff" stroke="#fff"/>
<g clip-path="url(#a)">
<g transform="translate(497.14 277.17) rotate(-26.685) scale(.08 -.08)">
<use xlink:href="#n"/>
</g>
</g>
<path d="m534.64 280.19 3.5179-3.3005q1.7503-1.6421 0.10815-3.3924l-5.2975-5.6464q-1.6421-1.7503-3.3924-0.10815l-3.5179 3.3005q-1.7503 1.6421-0.10815 3.3924l5.2975 5.6464q1.6421 1.7503 3.3924 0.10815z" clip-path="url(#a)" fill="#fff" stroke="#fff"/>
<g clip-path="url(#a)">
<g transform="translate(531.85 277.23) rotate(-43.174) scale(.08 -.08)">
<use xlink:href="#q"/>
</g>
</g>
<path d="m574.26 277.15 0.38788-5.4587q0.17011-2.394-2.2239-2.5641l-7.723-0.54878q-2.394-0.17011-2.5641 2.2239l-0.38788 5.4587q-0.17011 2.394 2.2239 2.5641l7.723 0.54878q2.394 0.17011 2.5641-2.2239z" clip-path="url(#a)" fill="#fff" stroke="#fff"/>
<g clip-path="url(#a)">
<g transform="translate(570.2 276.86) rotate(-85.936) scale(.08 -.08)">
<use xlink:href="#n"/>
</g>
</g>
<path d="m600.25 276.21 4.3444 4.3671q1.6926 1.7015 3.3941 0.008844l5.489-5.4605q1.7015-1.6926 0.008844-3.3941l-4.3444-4.3671q-1.6926-1.7015-3.3941-0.008844l-5.489 5.4605q-1.7015 1.6926-0.008844 3.3941z" clip-path="url(#a)" fill="#fff" stroke="#fff"/>
<g clip-path="url(#a)">
<defs>
<path id="am" d="m19.672 64.797v-56.688h11.922q15.094 0 22.094 6.8281 7 6.8438 7 21.594 0 14.641-7 21.453t-22.094 6.8125zm-9.8594 8.1094h20.266q21.188 0 31.094-8.8125 9.9219-8.8125 9.9219-27.562 0-18.859-9.9688-27.703-9.9531-8.8281-31.047-8.8281h-20.266z"/>
</defs>
<g transform="translate(603.13 273.34) rotate(45.149) scale(.08 -.08)">
<use xlink:href="#am"/>
</g>
</g>
<path d="m642.8 278.41 5.3007 2.4866q2.1728 1.0193 3.1921-1.1535l3.2882-7.0096q1.0193-2.1728-1.1535-3.1921l-5.3007-2.4866q-2.1728-1.0193-3.1921 1.1535l-3.2882 7.0096q-1.0193 2.1728 1.1535 3.1921z" clip-path="url(#a)" fill="#fff" stroke="#fff"/>
<g clip-path="url(#a)">
<defs>
<path id="ai" d="m8.6875 72.906h9.9219v-44.297q0-11.719 4.2344-16.875 4.25-5.1406 13.781-5.1406 9.4688 0 13.719 5.1406 4.25 5.1562 4.25 16.875v44.297h9.9062v-45.516q0-14.25-7.0625-21.531-7.0469-7.2812-20.812-7.2812-13.828 0-20.891 7.2812-7.0469 7.2812-7.0469 21.531z"/>
</defs>
<g transform="translate(644.53 274.73) rotate(25.132) scale(.08 -.08)">
<use xlink:href="#ai"/>
</g>
</g>
<path d="m420.13 329.13v33.808q0 2.4 2.4 2.4h7.7425q2.4 0 2.4-2.4v-33.808q0-2.4-2.4-2.4h-7.7425q-2.4 0-2.4 2.4z" clip-path="url(#a)" fill="#fff" stroke="#fff"/>
<g clip-path="url(#a)">
<g transform="translate(424.2 329.13) rotate(90) scale(.08 -.08)">
<use xlink:href="#j"/>
<use x="44.083984" xlink:href="#h"/>
<use x="105.607422" xlink:href="#i"/>
<use x="144.970703" xlink:href="#k"/>
<use x="242.382812" xlink:href="#l"/>
<use x="270.166016" xlink:href="#f"/>
<use x="333.544922" xlink:href="#d"/>
<use x="394.824219" xlink:href="#g"/>
</g>
</g>
<path d="m487.16 329.13v33.808q0 2.4 2.4 2.4h7.7425q2.4 0 2.4-2.4v-33.808q0-2.4-2.4-2.4h-7.7425q-2.4 0-2.4 2.4z" clip-path="url(#a)" fill="#fff" stroke="#fff"/>
<g clip-path="url(#a)">
<g transform="translate(491.23 329.13) rotate(90) scale(.08 -.08)">
<use xlink:href="#j"/>
<use x="44.083984" xlink:href="#h"/>
<use x="105.607422" xlink:href="#i"/>
<use x="144.970703" xlink:href="#k"/>
<use x="242.382812" xlink:href="#l"/>
<use x="270.166016" xlink:href="#f"/>
<use x="333.544922" xlink:href="#d"/>
<use x="394.824219" xlink:href="#g"/>
</g>
</g>
<path d="m559.35 329.13v33.808q0 2.4 2.4 2.4h7.7425q2.4 0 2.4-2.4v-33.808q0-2.4-2.4-2.4h-7.7425q-2.4 0-2.4 2.4z" clip-path="url(#a)" fill="#fff" stroke="#fff"/>
<g clip-path="url(#a)">
<g transform="translate(563.41 329.13) rotate(90) scale(.08 -.08)">
<use xlink:href="#j"/>
<use x="44.083984" xlink:href="#h"/>
<use x="105.607422" xlink:href="#i"/>
<use x="144.970703" xlink:href="#k"/>
<use x="242.382812" xlink:href="#l"/>
<use x="270.166016" xlink:href="#f"/>
<use x="333.544922" xlink:href="#d"/>
<use x="394.824219" xlink:href="#g"/>
</g>
</g>
<path d="m636.69 329.13v33.808q0 2.4 2.4 2.4h7.7425q2.4 0 2.4-2.4v-33.808q0-2.4-2.4-2.4h-7.7425q-2.4 0-2.4 2.4z" clip-path="url(#a)" fill="#fff" stroke="#fff"/>
<g clip-path="url(#a)">
<g transform="translate(640.75 329.13) rotate(90) scale(.08 -.08)">
<use xlink:href="#j"/>
<use x="44.083984" xlink:href="#h"/>
<use x="105.607422" xlink:href="#i"/>
<use x="144.970703" xlink:href="#k"/>
<use x="242.382812" xlink:href="#l"/>
<use x="270.166016" xlink:href="#f"/>
<use x="333.544922" xlink:href="#d"/>
<use x="394.824219" xlink:href="#g"/>
</g>
</g>
<path d="m95.303 329.13v33.808q0 2.4 2.4 2.4h7.7425q2.4 0 2.4-2.4v-33.808q0-2.4-2.4-2.4h-7.7425q-2.4 0-2.4 2.4z" clip-path="url(#a)" fill="#fff" stroke="#fff"/>
<g clip-path="url(#a)">
<g transform="translate(99.366 329.13) rotate(90) scale(.08 -.08)">
<use xlink:href="#j"/>
<use x="44.083984" xlink:href="#h"/>
<use x="105.607422" xlink:href="#i"/>
<use x="144.970703" xlink:href="#k"/>
<use x="242.382812" xlink:href="#l"/>
<use x="270.166016" xlink:href="#f"/>
<use x="333.544922" xlink:href="#d"/>
<use x="394.824219" xlink:href="#g"/>
</g>
</g>
<path d="m170.15 242.18 1.8945-4.1931q0.98816-2.1871-1.199-3.1753l-7.0558-3.1878q-2.1871-0.98816-3.1753 1.199l-1.8945 4.1931q-0.98816 2.1871 1.199 3.1753l7.0558 3.1878q2.1871 0.98816 3.1753-1.199z" clip-path="url(#a)" fill="#fff" stroke="#fff"/>
<g clip-path="url(#a)">
<defs>
<path id="al" d="m9.8125 72.906h41.891v-8.3125h-32.031v-21.484h28.906v-8.2969h-28.906v-34.812h-9.8594z"/>
</defs>
<g transform="translate(166.44 240.51) rotate(-65.686) scale(.08 -.08)">
<use xlink:href="#al"/>
</g>
</g>
<path d="m189.07 241.23 1.0092-4.9532q0.47917-2.3517-1.8725-2.8308l-7.5866-1.5458q-2.3517-0.47917-2.8308 1.8725l-1.0092 4.9532q-0.47917 2.3517 1.8725 2.8308l7.5866 1.5458q2.3517 0.47917 2.8308-1.8725z" clip-path="url(#a)" fill="#fff" stroke="#fff"/>
<g clip-path="url(#a)">
<defs>
<path id="y" d="m9.8125 72.906h46.094v-8.3125h-36.234v-21.578h34.719v-8.2969h-34.719v-26.422h37.109v-8.2969h-46.969z"/>
</defs>
<g transform="translate(185.08 240.42) rotate(-78.483) scale(.08 -.08)">
<use xlink:href="#y"/>
</g>
</g>
<path d="m197.58 235.21 0.44398 5.5686q0.19075 2.3924 2.5832 2.2017l7.718-0.61536q2.3924-0.19075 2.2017-2.5832l-0.44398-5.5686q-0.19075-2.3924-2.5832-2.2017l-7.718 0.61536q-2.3924 0.19075-2.2017 2.5832z" clip-path="url(#a)" fill="#fff" stroke="#fff"/>
<g clip-path="url(#a)">
<defs>
<path id="v" d="m64.406 67.281v-10.391q-4.9844 4.6406-10.625 6.9219-5.6406 2.2969-11.984 2.2969-12.5 0-19.141-7.6406t-6.6406-22.094q0-14.406 6.6406-22.047t19.141-7.6406q6.3438 0 11.984 2.2969t10.625 6.9375v-10.312q-5.1719-3.5156-10.969-5.2812-5.7812-1.75-12.219-1.75-16.562 0-26.094 10.125-9.5156 10.141-9.5156 27.672 0 17.578 9.5156 27.703 9.5312 10.141 26.094 10.141 6.5312 0 12.312-1.7344 5.7969-1.7344 10.875-5.2031z"/>
</defs>
<g transform="translate(201.63 234.89) rotate(85.441) scale(.08 -.08)">
<use xlink:href="#v"/>
</g>
</g>
<path d="m234.12 204.29 3.8126 3.3192q1.8101 1.5759 3.386-0.23426l5.0838-5.8396q1.5759-1.8101-0.23426-3.386l-3.8126-3.3192q-1.8101-1.5759-3.386 0.23426l-5.0838 5.8396q-1.5759 1.8101 0.23426 3.386z" clip-path="url(#a)" fill="#fff" stroke="#fff"/>
<g clip-path="url(#a)">
<g transform="translate(236.79 201.22) rotate(41.042) scale(.08 -.08)">
<use xlink:href="#y"/>
</g>
</g>
<path d="m126.24 329.13v33.808q0 2.4 2.4 2.4h7.7425q2.4 0 2.4-2.4v-33.808q0-2.4-2.4-2.4h-7.7425q-2.4 0-2.4 2.4z" clip-path="url(#a)" fill="#fff" stroke="#fff"/>
<g clip-path="url(#a)">
<g transform="translate(130.3 329.13) rotate(90) scale(.08 -.08)">
<use xlink:href="#j"/>
<use x="44.083984" xlink:href="#h"/>
<use x="105.607422" xlink:href="#i"/>
<use x="144.970703" xlink:href="#k"/>
<use x="242.382812" xlink:href="#l"/>
<use x="270.166016" xlink:href="#f"/>
<use x="333.544922" xlink:href="#d"/>
<use x="394.824219" xlink:href="#g"/>
</g>
</g>
<path d="m162.33 329.13v33.808q0 2.4 2.4 2.4h7.7425q2.4 0 2.4-2.4v-33.808q0-2.4-2.4-2.4h-7.7425q-2.4 0-2.4 2.4z" clip-path="url(#a)" fill="#fff" stroke="#fff"/>
<g clip-path="url(#a)">
<g transform="translate(166.39 329.13) rotate(90) scale(.08 -.08)">
<use xlink:href="#j"/>
<use x="44.083984" xlink:href="#h"/>
<use x="105.607422" xlink:href="#i"/>
<use x="144.970703" xlink:href="#k"/>
<use x="242.382812" xlink:href="#l"/>
<use x="270.166016" xlink:href="#f"/>
<use x="333.544922" xlink:href="#d"/>
<use x="394.824219" xlink:href="#g"/>
</g>
</g>
<path d="m203.58 329.13v33.808q0 2.4 2.4 2.4h7.7425q2.4 0 2.4-2.4v-33.808q0-2.4-2.4-2.4h-7.7425q-2.4 0-2.4 2.4z" clip-path="url(#a)" fill="#fff" stroke="#fff"/>
<g clip-path="url(#a)">
<g transform="translate(207.64 329.13) rotate(90) scale(.08 -.08)">
<use xlink:href="#j"/>
<use x="44.083984" xlink:href="#h"/>
<use x="105.607422" xlink:href="#i"/>
<use x="144.970703" xlink:href="#k"/>
<use x="242.382812" xlink:href="#l"/>
<use x="270.166016" xlink:href="#f"/>
<use x="333.544922" xlink:href="#d"/>
<use x="394.824219" xlink:href="#g"/>
</g>
</g>
<path d="m274.12 278.69 1.861-5.238q0.80348-2.2615-1.458-3.065l-7.2957-2.5921q-2.2615-0.80348-3.065 1.458l-1.861 5.238q-0.80348 2.2615 1.458 3.065l7.2957 2.5921q2.2615 0.80348 3.065-1.458z" clip-path="url(#a)" fill="#fff" stroke="#fff"/>
<g clip-path="url(#a)">
<defs>
<path id="aj" d="m44.391 34.188q3.1719-1.0781 6.1719-4.5938t6.0312-9.6719l10.016-19.922h-10.609l-9.3125 18.703q-3.625 7.3281-7.0156 9.7188t-9.25 2.3906h-10.75v-30.812h-9.8594v72.906h22.266q12.5 0 18.656-5.2344 6.1562-5.2188 6.1562-15.766 0-6.8906-3.2031-11.438-3.2031-4.5312-9.2969-6.2812zm-24.719 30.609v-25.875h12.406q7.125 0 10.766 3.2969t3.6406 9.6875-3.6406 9.6406-10.766 3.25z"/>
</defs>
<g transform="translate(270.29 277.33) rotate(-70.441) scale(.08 -.08)">
<use xlink:href="#aj"/>
</g>
</g>
<path d="m288.08 273.44 1.8702 5.2639q0.80348 2.2615 3.065 1.458l7.2957-2.5921q2.2615-0.80348 1.458-3.065l-1.8702-5.2639q-0.80348-2.2615-3.065-1.458l-7.2957 2.5921q-2.2615 0.80348-1.458 3.065z" clip-path="url(#a)" fill="#fff" stroke="#fff"/>
<g clip-path="url(#a)">
<g transform="translate(291.91 272.08) rotate(70.441) scale(.08 -.08)">
<use xlink:href="#v"/>
</g>
</g>
<path d="m249.98 329.13v33.808q0 2.4 2.4 2.4h7.7425q2.4 0 2.4-2.4v-33.808q0-2.4-2.4-2.4h-7.7425q-2.4 0-2.4 2.4z" clip-path="url(#a)" fill="#fff" stroke="#fff"/>
<g clip-path="url(#a)">
<g transform="translate(254.05 329.13) rotate(90) scale(.08 -.08)">
<use xlink:href="#j"/>
<use x="44.083984" xlink:href="#h"/>
<use x="105.607422" xlink:href="#i"/>
<use x="144.970703" xlink:href="#k"/>
<use x="242.382812" xlink:href="#l"/>
<use x="270.166016" xlink:href="#f"/>
<use x="333.544922" xlink:href="#d"/>
<use x="394.824219" xlink:href="#g"/>
</g>
</g>
<path d="m301.54 329.13v33.808q0 2.4 2.4 2.4h7.7425q2.4 0 2.4-2.4v-33.808q0-2.4-2.4-2.4h-7.7425q-2.4 0-2.4 2.4z" clip-path="url(#a)" fill="#fff" stroke="#fff"/>
<g clip-path="url(#a)">
<g transform="translate(305.61 329.13) rotate(90) scale(.08 -.08)">
<use xlink:href="#j"/>
<use x="44.083984" xlink:href="#h"/>
<use x="105.607422" xlink:href="#i"/>
<use x="144.970703" xlink:href="#k"/>
<use x="242.382812" xlink:href="#l"/>
<use x="270.166016" xlink:href="#f"/>
<use x="333.544922" xlink:href="#d"/>
<use x="394.824219" xlink:href="#g"/>
</g>
</g>
<path d="m28.274 329.13v33.808q0 2.4 2.4 2.4h7.7425q2.4 0 2.4-2.4v-33.808q0-2.4-2.4-2.4h-7.7425q-2.4 0-2.4 2.4z" clip-path="url(#a)" fill="#fff" stroke="#fff"/>
<g clip-path="url(#a)">
<g transform="translate(32.338 329.13) rotate(90) scale(.08 -.08)">
<use xlink:href="#j"/>
<use x="44.083984" xlink:href="#h"/>
<use x="105.607422" xlink:href="#i"/>
<use x="144.970703" xlink:href="#k"/>
<use x="242.382812" xlink:href="#l"/>
<use x="270.166016" xlink:href="#f"/>
<use x="333.544922" xlink:href="#d"/>
<use x="394.824219" xlink:href="#g"/>
</g>
</g>
<path d="m43.742 329.13v33.808q0 2.4 2.4 2.4h7.7425q2.4 0 2.4-2.4v-33.808q0-2.4-2.4-2.4h-7.7425q-2.4 0-2.4 2.4z" clip-path="url(#a)" fill="#fff" stroke="#fff"/>
<g clip-path="url(#a)">
<g transform="translate(47.806 329.13) rotate(90) scale(.08 -.08)">
<use xlink:href="#j"/>
<use x="44.083984" xlink:href="#h"/>
<use x="105.607422" xlink:href="#i"/>
<use x="144.970703" xlink:href="#k"/>
<use x="242.382812" xlink:href="#l"/>
<use x="270.166016" xlink:href="#f"/>
<use x="333.544922" xlink:href="#d"/>
<use x="394.824219" xlink:href="#g"/>
</g>
</g>
<path d="m719.18 329.13v33.808q0 2.4 2.4 2.4h7.7425q2.4 0 2.4-2.4v-33.808q0-2.4-2.4-2.4h-7.7425q-2.4 0-2.4 2.4z" clip-path="url(#a)" fill="#fff" stroke="#fff"/>
<g clip-path="url(#a)">
<g transform="translate(723.25 329.13) rotate(90) scale(.08 -.08)">
<use xlink:href="#j"/>
<use x="44.083984" xlink:href="#h"/>
<use x="105.607422" xlink:href="#i"/>
<use x="144.970703" xlink:href="#k"/>
<use x="242.382812" xlink:href="#l"/>
<use x="270.166016" xlink:href="#f"/>
<use x="333.544922" xlink:href="#d"/>
<use x="394.824219" xlink:href="#g"/>
</g>
</g>
<defs>
<path id="b" d="m0 8.6603c2.2967 0 4.4997-0.9125 6.1237-2.5365 1.624-1.624 2.5365-3.827 2.5365-6.1237s-0.9125-4.4997-2.5365-6.1237c-1.624-1.624-3.827-2.5365-6.1237-2.5365s-4.4997 0.9125-6.1237 2.5365c-1.624 1.624-2.5365 3.827-2.5365 6.1237s0.9125 4.4997 2.5365 6.1237c1.624 1.624 3.827 2.5365 6.1237 2.5365z"/>
</defs>
<g clip-path="url(#a)" fill="#ffffff" stroke="#ffffff">
<use x="34.545455" y="381.818182" xlink:href="#b"/>
<use x="50.013569" y="381.818182" xlink:href="#b"/>
<use x="75.793758" y="381.818182" xlink:href="#b"/>
<use x="101.573948" y="381.818182" xlink:href="#b"/>
<use x="132.510176" y="381.818182" xlink:href="#b"/>
<use x="168.602442" y="381.818182" xlink:href="#b"/>
<use x="209.850746" y="381.818182" xlink:href="#b"/>
<use x="256.255088" y="381.818182" xlink:href="#b"/>
<use x="307.815468" y="381.818182" xlink:href="#b"/>
<use x="364.531886" y="381.818182" xlink:href="#b"/>
<use x="426.404342" y="381.818182" xlink:href="#b"/>
<use x="493.432836" y="381.818182" xlink:href="#b"/>
<use x="565.617368" y="381.818182" xlink:href="#b"/>
<use x="642.957938" y="381.818182" xlink:href="#b"/>
<use x="725.454545" y="381.818182" xlink:href="#b"/>
<use x="55.169607" y="310.25204" xlink:href="#b"/>
<use x="232.966983" y="18.181818" xlink:href="#b"/>
<use x="42.279512" y="237.690335" xlink:href="#b"/>
<use x="75.793758" y="310.25204" xlink:href="#b"/>
<use x="111.456355" y="91.557512" xlink:href="#b"/>
<use x="364.531886" y="310.25204" xlink:href="#b"/>
<use x="570.773406" y="237.690335" xlink:href="#b"/>
<use x="426.404342" y="310.25204" xlink:href="#b"/>
<use x="493.432836" y="310.25204" xlink:href="#b"/>
<use x="565.617368" y="310.25204" xlink:href="#b"/>
<use x="642.957938" y="310.25204" xlink:href="#b"/>
<use x="101.573948" y="310.25204" xlink:href="#b"/>
<use x="198.249661" y="164.74805" xlink:href="#b"/>
<use x="132.510176" y="310.25204" xlink:href="#b"/>
<use x="168.602442" y="310.25204" xlink:href="#b"/>
<use x="209.850746" y="310.25204" xlink:href="#b"/>
<use x="282.035278" y="237.690335" xlink:href="#b"/>
<use x="256.255088" y="310.25204" xlink:href="#b"/>
<use x="307.815468" y="310.25204" xlink:href="#b"/>
<use x="34.545455" y="310.25204" xlink:href="#b"/>
<use x="50.013569" y="310.25204" xlink:href="#b"/>
<use x="725.454545" y="310.25204" xlink:href="#b"/>
</g>
<g clip-path="url(#a)">
<defs>
<path id="r" d="m9.8125 72.906h9.8594v-72.906h-9.8594z"/>
</defs>
<g transform="translate(33.07 384.58) scale(.1 -.1)">
<use xlink:href="#r"/>
</g>
</g>
<g clip-path="url(#a)">
<defs>
<path id="s" d="m48.781 52.594v-8.4062q-3.8125 2.1094-7.6406 3.1562t-7.7344 1.0469q-8.75 0-13.594-5.5469-4.8281-5.5312-4.8281-15.547t4.8281-15.562q4.8438-5.5312 13.594-5.5312 3.9062 0 7.7344 1.0469t7.6406 3.1562v-8.3125q-3.7656-1.75-7.7969-2.625-4.0156-0.89062-8.5625-0.89062-12.359 0-19.641 7.7656-7.2656 7.7656-7.2656 20.953 0 13.375 7.3438 21.031 7.3594 7.6719 20.156 7.6719 4.1406 0 8.0938-0.85938 3.9531-0.84375 7.6719-2.5469z"/>
<path id="p" d="m45.406 46.391v29.594h8.9844v-75.984h-8.9844v8.2031q-2.8281-4.875-7.1562-7.25-4.3125-2.375-10.375-2.375-9.9062 0-16.141 7.9062-6.2188 7.9219-6.2188 20.812t6.2188 20.797q6.2344 7.9062 16.141 7.9062 6.0625 0 10.375-2.375 4.3281-2.3594 7.1562-7.2344zm-30.609-19.094q0-9.9062 4.0781-15.547t11.203-5.6406 11.219 5.6406q4.1094 5.6406 4.1094 15.547t-4.1094 15.547q-4.0938 5.6406-11.219 5.6406t-11.203-5.6406-4.0781-15.547z"/>
</defs>
<g transform="translate(35.171 384.58) scale(.1 -.1)">
<use xlink:href="#s"/>
<use x="54.980469" xlink:href="#d"/>
<use x="116.259766" xlink:href="#g"/>
<use x="144.042969" xlink:href="#g"/>
<use x="171.826172" xlink:href="#h"/>
<use x="233.349609" xlink:href="#p"/>
</g>
</g>
<g clip-path="url(#a)">
<g transform="translate(66.387 384.58) scale(.1 -.1)">
<use xlink:href="#d"/>
<use x="61.279297" xlink:href="#f"/>
<use x="124.658203" xlink:href="#p"/>
</g>
</g>
<g clip-path="url(#a)">
<defs>
<path id="ar" d="m45.406 27.984q0 9.7656-4.0312 15.125-4.0156 5.375-11.297 5.375-7.2188 0-11.25-5.375-4.0312-5.3594-4.0312-15.125 0-9.7188 4.0312-15.094t11.25-5.375q7.2812 0 11.297 5.375 4.0312 5.375 4.0312 15.094zm8.9844-21.203q0-13.953-6.2031-20.766-6.1875-6.8125-18.984-6.8125-4.7344 0-8.9375 0.70312t-8.1562 2.1719v8.7344q3.9531-2.1406 7.8125-3.1562 3.8594-1.0312 7.8594-1.0312 8.8438 0 13.234 4.6094t4.3906 13.938v4.4531q-2.7812-4.8438-7.125-7.2344t-10.406-2.3906q-10.047 0-16.203 7.6562-6.1562 7.6719-6.1562 20.328 0 12.688 6.1562 20.344 6.1562 7.6719 16.203 7.6719 6.0625 0 10.406-2.3906t7.125-7.2188v8.2969h8.9844z"/>
<path id="m" d="m30.609 48.391q-7.2188 0-11.422-5.6406t-4.2031-15.453 4.1719-15.453q4.1875-5.6406 11.453-5.6406 7.1875 0 11.375 5.6562 4.2031 5.6719 4.2031 15.438 0 9.7188-4.2031 15.406-4.1875 5.6875-11.375 5.6875zm0 7.6094q11.719 0 18.406-7.625 6.7031-7.6094 6.7031-21.078 0-13.422-6.7031-21.078-6.6875-7.6406-18.406-7.6406-11.766 0-18.438 7.6406-6.6562 7.6562-6.6562 21.078 0 13.469 6.6562 21.078 6.6719 7.625 18.438 7.625z"/>
<path id="ae" d="m18.312 70.219v-15.531h18.5v-6.9844h-18.5v-29.688q0-6.6875 1.8281-8.5938t7.4531-1.9062h9.2188v-7.5156h-9.2188q-10.406 0-14.359 3.875-3.9531 3.8906-3.9531 14.141v29.688h-6.5938v6.9844h6.5938v15.531z"/>
</defs>
<g transform="translate(93.38 384.58) scale(.1 -.1)">
<use xlink:href="#ar"/>
<use x="63.476562" xlink:href="#m"/>
<use x="124.658203" xlink:href="#ae"/>
</g>
</g>
<g clip-path="url(#a)">
<defs>
<path id="ag" d="m54.891 33.016v-33.016h-8.9844v32.719q0 7.7656-3.0312 11.609-3.0312 3.8594-9.0781 3.8594-7.2812 0-11.484-4.6406-4.2031-4.625-4.2031-12.641v-30.906h-9.0312v75.984h9.0312v-29.797q3.2344 4.9375 7.5938 7.375 4.375 2.4375 10.094 2.4375 9.4219 0 14.25-5.8281 4.8438-5.8281 4.8438-17.156z"/>
</defs>
<g transform="translate(124.3 384.58) scale(.1 -.1)">
<use xlink:href="#ae"/>
<use x="39.208984" xlink:href="#ag"/>
<use x="102.587891" xlink:href="#h"/>
</g>
</g>
<g clip-path="url(#a)">
<defs>
<path id="af" d="m44.281 53.078v-8.5q-3.7969 1.9531-7.9062 2.9219-4.0938 0.98438-8.5 0.98438-6.6875 0-10.031-2.0469t-3.3438-6.1562q0-3.125 2.3906-4.9062t9.625-3.3906l3.0781-0.6875q9.5625-2.0469 13.594-5.7812t4.0312-10.422q0-7.625-6.0312-12.078-6.0312-4.4375-16.578-4.4375-4.3906 0-9.1562 0.85938t-10.031 2.5625v9.2812q4.9844-2.5938 9.8125-3.8906 4.8281-1.2812 9.5781-1.2812 6.3438 0 9.75 2.1719 3.4219 2.1719 3.4219 6.125 0 3.6562-2.4688 5.6094-2.4531 1.9531-10.812 3.7656l-3.125 0.73438q-8.3438 1.75-12.062 5.3906-3.7031 3.6406-3.7031 9.9844 0 7.7188 5.4688 11.906 5.4688 4.2031 15.531 4.2031 4.9688 0 9.3594-0.73438 4.4062-0.71875 8.1094-2.1875z"/>
</defs>
<g transform="translate(154.99 384.58) scale(.1 -.1)">
<use xlink:href="#af"/>
<use x="52.099609" xlink:href="#d"/>
<use x="113.378906" xlink:href="#k"/>
<use x="210.791016" xlink:href="#h"/>
</g>
</g>
<g clip-path="url(#a)">
<defs>
<path id="x" d="m8.5 21.578v33.109h8.9844v-32.766q0-7.7656 3.0156-11.656 3.0312-3.875 9.0938-3.875 7.2656 0 11.484 4.6406 4.2344 4.6406 4.2344 12.656v31h8.9844v-54.688h-8.9844v8.4062q-3.2656-4.9844-7.5938-7.4062-4.3125-2.4219-10.031-2.4219-9.4219 0-14.312 5.8594-4.875 5.8594-4.875 17.141z"/>
</defs>
<g transform="translate(183.88 384.58) scale(.1 -.1)">
<use xlink:href="#i"/>
<use x="41.113281" xlink:href="#x"/>
<use x="104.492188" xlink:href="#f"/>
<use x="167.871094" xlink:href="#d"/>
<use x="229.150391" xlink:href="#i"/>
<use x="268.013672" xlink:href="#m"/>
<use x="329.195312" xlink:href="#x"/>
<use x="392.574219" xlink:href="#f"/>
<use x="455.953125" xlink:href="#p"/>
</g>
</g>
<g clip-path="url(#a)">
<g transform="translate(250.03 384.58) scale(.1 -.1)">
<use xlink:href="#m"/>
<use x="61.181641" xlink:href="#f"/>
</g>
</g>
<g clip-path="url(#a)">
<g transform="translate(297.02 384.58) scale(.1 -.1)">
<use xlink:href="#ag"/>
<use x="63.378906" xlink:href="#m"/>
<use x="124.560547" xlink:href="#g"/>
<use x="152.34375" xlink:href="#p"/>
</g>
</g>
<g clip-path="url(#a)">
<g transform="translate(355.12 384.58) scale(.1 -.1)">
<use xlink:href="#d"/>
<use x="61.279297" xlink:href="#f"/>
<use x="124.658203" xlink:href="#p"/>
</g>
</g>
<g clip-path="url(#a)">
<g transform="translate(410.87 384.58) scale(.1 -.1)">
<use xlink:href="#f"/>
<use x="63.378906" xlink:href="#m"/>
<use x="124.560547" xlink:href="#m"/>
<use x="185.742188" xlink:href="#f"/>
<use x="249.121094" xlink:href="#h"/>
</g>
</g>
<g clip-path="url(#a)">
<g transform="translate(482.24 384.58) scale(.1 -.1)">
<use xlink:href="#s"/>
<use x="54.980469" xlink:href="#d"/>
<use x="116.259766" xlink:href="#g"/>
<use x="144.042969" xlink:href="#g"/>
<use x="171.826172" xlink:href="#af"/>
</g>
</g>
<g clip-path="url(#a)">
<defs>
<path id="ap" d="m32.172-5.0781q-3.7969-9.7656-7.4219-12.734-3.6094-2.9844-9.6562-2.9844h-7.1875v7.5156h5.2812q3.7031 0 5.75 1.7656 2.0625 1.75 4.5469 8.2969l1.6094 4.0938-22.109 53.812h9.5156l17.094-42.766 17.094 42.766h9.5156z"/>
</defs>
<g transform="translate(556.43 384.58) scale(.1 -.1)">
<use xlink:href="#ap"/>
<use x="59.179688" xlink:href="#m"/>
<use x="120.361328" xlink:href="#x"/>
</g>
</g>
<g clip-path="url(#a)">
<defs>
<path id="ah" d="m48.688 27.297q0 9.9062-4.0781 15.547t-11.203 5.6406q-7.1406 0-11.219-5.6406t-4.0781-15.547 4.0781-15.547 11.219-5.6406q7.125 0 11.203 5.6406t4.0781 15.547zm-30.578 19.094q2.8438 4.875 7.1562 7.2344 4.3281 2.375 10.328 2.375 9.9688 0 16.188-7.9062 6.2344-7.9062 6.2344-20.797t-6.2344-20.812q-6.2188-7.9062-16.188-7.9062-6 0-10.328 2.375-4.3125 2.375-7.1562 7.25v-8.2031h-9.0312v75.984h9.0312z"/>
<path id="aq" d="m9.0781 75.984h9.0312v-44.875l26.812 23.578h11.469l-29-25.578 30.234-29.109h-11.719l-27.797 26.703v-26.703h-9.0312z"/>
</defs>
<g transform="translate(631.08 384.58) scale(.1 -.1)">
<use xlink:href="#ah"/>
<use x="63.476562" xlink:href="#d"/>
<use x="124.755859" xlink:href="#s"/>
<use x="179.736328" xlink:href="#aq"/>
</g>
</g>
<g clip-path="url(#a)">
<defs>
<path id="e" d="m10.688 12.406h10.312v-12.406h-10.312z"/>
</defs>
<g transform="translate(723.87 384.58) scale(.1 -.1)">
<use xlink:href="#e"/>
</g>
</g>
<g clip-path="url(#a)">
<defs>
<path id="ak" d="m9.8125 72.906h14.703l18.594-49.609 18.703 49.609h14.703v-72.906h-9.625v64.016l-18.797-50h-9.9062l-18.797 50v-64.016h-9.5781z"/>
</defs>
<g transform="translate(34.084 313.01) scale(.1 -.1)">
<use xlink:href="#r"/>
<use x="29.492188" xlink:href="#ak"/>
<use x="115.771484" xlink:href="#q"/>
<use x="176.074219" xlink:href="#t"/>
<use x="231.787109" xlink:href="#r"/>
<use x="261.279297" xlink:href="#v"/>
<use x="331.103516" xlink:href="#r"/>
<use x="360.595703" xlink:href="#j"/>
</g>
</g>
<g clip-path="url(#a)">
<defs>
<path id="c" d="m12.406 8.2969h16.109v55.625l-17.531-3.5156v8.9844l17.438 3.5156h9.8594v-64.609h16.109v-8.2969h-41.984z"/>
</defs>
<g transform="translate(225.02 20.941) scale(.1 -.1)">
<use xlink:href="#c"/>
<use x="63.623047" xlink:href="#e"/>
<use x="95.410156" xlink:href="#c"/>
</g>
</g>
<g clip-path="url(#a)">
<defs>
<path id="o" d="m19.188 8.2969h34.422v-8.2969h-46.281v8.2969q5.6094 5.8125 15.297 15.594 9.7031 9.7969 12.188 12.641 4.7344 5.3125 6.6094 9 1.8906 3.6875 1.8906 7.25 0 5.8125-4.0781 9.4688-4.0781 3.6719-10.625 3.6719-4.6406 0-9.7969-1.6094-5.1406-1.6094-11-4.8906v9.9688q5.9531 2.3906 11.125 3.6094 5.1875 1.2188 9.4844 1.2188 11.328 0 18.062-5.6719 6.7344-5.6562 6.7344-15.125 0-4.5-1.6875-8.5312-1.6719-4.0156-6.125-9.4844-1.2188-1.4219-7.7656-8.1875-6.5312-6.7656-18.453-18.922z"/>
</defs>
<g transform="translate(34.328 240.45) scale(.1 -.1)">
<use xlink:href="#c"/>
<use x="63.623047" xlink:href="#e"/>
<use x="95.410156" xlink:href="#o"/>
</g>
</g>
<g clip-path="url(#a)">
<defs>
<path id="w" d="m40.578 39.312q7.0781-1.5156 11.047-6.3125 3.9844-4.7812 3.9844-11.812 0-10.781-7.4219-16.703-7.4219-5.9062-21.094-5.9062-4.5781 0-9.4375 0.90625t-10.031 2.7188v9.5156q4.0938-2.3906 8.9688-3.6094 4.8906-1.2188 10.219-1.2188 9.2656 0 14.125 3.6562t4.8594 10.641q0 6.4531-4.5156 10.078-4.5156 3.6406-12.562 3.6406h-8.5v8.1094h8.8906q7.2656 0 11.125 2.9062t3.8594 8.375q0 5.6094-3.9844 8.6094-3.9688 3.0156-11.391 3.0156-4.0625 0-8.7031-0.89062-4.6406-0.875-10.203-2.7188v8.7812q5.625 1.5625 10.531 2.3438t9.25 0.78125q11.234 0 17.766-5.1094 6.5469-5.0938 6.5469-13.781 0-6.0625-3.4688-10.234t-9.8594-5.7812z"/>
</defs>
<g transform="translate(67.842 313.01) scale(.1 -.1)">
<use xlink:href="#c"/>
<use x="63.623047" xlink:href="#e"/>
<use x="95.410156" xlink:href="#w"/>
</g>
</g>
<g clip-path="url(#a)">
<defs>
<path id="ad" d="m37.797 64.312-24.906-38.922h24.906zm-2.5938 8.5938h12.406v-47.516h10.406v-8.2031h-10.406v-17.188h-9.8125v17.188h-32.906v9.5156z"/>
</defs>
<g transform="translate(103.5 94.317) scale(.1 -.1)">
<use xlink:href="#c"/>
<use x="63.623047" xlink:href="#e"/>
<use x="95.410156" xlink:href="#ad"/>
</g>
</g>
<g clip-path="url(#a)">
<defs>
<path id="ac" d="m10.797 72.906h38.719v-8.3125h-29.688v-17.859q2.1406 0.73438 4.2812 1.0938 2.1562 0.35938 4.3125 0.35938 12.203 0 19.328-6.6875 7.1406-6.6875 7.1406-18.109 0-11.766-7.3281-18.297-7.3281-6.5156-20.656-6.5156-4.5938 0-9.3594 0.78125-4.75 0.78125-9.8281 2.3438v9.9219q4.3906-2.3906 9.0781-3.5625t9.9062-1.1719q8.4531 0 13.375 4.4375 4.9375 4.4375 4.9375 12.062 0 7.6094-4.9375 12.047-4.9219 4.4531-13.375 4.4531-3.9531 0-7.8906-0.875-3.9219-0.875-8.0156-2.7344z"/>
</defs>
<g transform="translate(356.58 313.01) scale(.1 -.1)">
<use xlink:href="#c"/>
<use x="63.623047" xlink:href="#e"/>
<use x="95.410156" xlink:href="#ac"/>
</g>
</g>
<g clip-path="url(#a)">
<defs>
<path id="ab" d="m33.016 40.375q-6.6406 0-10.531-4.5469-3.875-4.5312-3.875-12.438 0-7.8594 3.875-12.438 3.8906-4.5625 10.531-4.5625t10.516 4.5625q3.875 4.5781 3.875 12.438 0 7.9062-3.875 12.438-3.875 4.5469-10.516 4.5469zm19.578 30.922v-8.9844q-3.7188 1.75-7.5 2.6719-3.7812 0.9375-7.5 0.9375-9.7656 0-14.922-6.5938-5.1406-6.5938-5.875-19.922 2.875 4.25 7.2188 6.5156 4.3594 2.2656 9.5781 2.2656 10.984 0 17.359-6.6719 6.375-6.6562 6.375-18.125 0-11.234-6.6406-18.031-6.6406-6.7812-17.672-6.7812-12.656 0-19.344 9.6875-6.6875 9.7031-6.6875 28.109 0 17.281 8.2031 27.562t22.016 10.281q3.7188 0 7.5-0.73438t7.8906-2.1875z"/>
</defs>
<g transform="translate(562.82 240.45) scale(.1 -.1)">
<use xlink:href="#c"/>
<use x="63.623047" xlink:href="#e"/>
<use x="95.410156" xlink:href="#ab"/>
</g>
</g>
<g clip-path="url(#a)">
<defs>
<path id="aa" d="m31.781 34.625q-7.0312 0-11.062-3.7656-4.0156-3.7656-4.0156-10.344 0-6.5938 4.0156-10.359 4.0312-3.7656 11.062-3.7656t11.078 3.7812q4.0625 3.7969 4.0625 10.344 0 6.5781-4.0312 10.344-4.0156 3.7656-11.109 3.7656zm-9.8594 4.1875q-6.3438 1.5625-9.8906 5.9062-3.5312 4.3594-3.5312 10.609 0 8.7344 6.2188 13.812 6.2344 5.0781 17.062 5.0781 10.891 0 17.094-5.0781t6.2031-13.812q0-6.25-3.5469-10.609-3.5312-4.3438-9.8281-5.9062 7.125-1.6562 11.094-6.5 3.9844-4.8281 3.9844-11.797 0-10.609-6.4688-16.281-6.4688-5.6562-18.531-5.6562-12.047 0-18.531 5.6562-6.4688 5.6719-6.4688 16.281 0 6.9688 4 11.797 4.0156 4.8438 11.141 6.5zm-3.6094 15.578q0-5.6562 3.5312-8.8281 3.5469-3.1719 9.9375-3.1719 6.3594 0 9.9375 3.1719 3.5938 3.1719 3.5938 8.8281 0 5.6719-3.5938 8.8438-3.5781 3.1719-9.9375 3.1719-6.3906 0-9.9375-3.1719-3.5312-3.1719-3.5312-8.8438z"/>
</defs>
<g transform="translate(418.45 313.01) scale(.1 -.1)">
<use xlink:href="#c"/>
<use x="63.623047" xlink:href="#e"/>
<use x="95.410156" xlink:href="#aa"/>
</g>
</g>
<g clip-path="url(#a)">
<defs>
<path id="z" d="m10.984 1.5156v8.9844q3.7188-1.7656 7.5156-2.6875 3.8125-0.92188 7.4844-0.92188 9.7656 0 14.906 6.5625 5.1562 6.5625 5.8906 19.953-2.8281-4.2031-7.1875-6.4531-4.3438-2.25-9.6094-2.25-10.938 0-17.312 6.6094-6.375 6.625-6.375 18.109 0 11.219 6.6406 18 6.6406 6.7969 17.672 6.7969 12.656 0 19.312-9.7031 6.6719-9.6875 6.6719-28.141 0-17.234-8.1875-27.516-8.1719-10.281-21.984-10.281-3.7188 0-7.5312 0.73438-3.7969 0.73438-7.9062 2.2031zm19.625 30.906q6.6406 0 10.516 4.5312 3.8906 4.5469 3.8906 12.469 0 7.8594-3.8906 12.422-3.875 4.5625-10.516 4.5625t-10.516-4.5625-3.875-12.422q0-7.9219 3.875-12.469 3.875-4.5312 10.516-4.5312z"/>
</defs>
<g transform="translate(485.48 313.01) scale(.1 -.1)">
<use xlink:href="#c"/>
<use x="63.623047" xlink:href="#e"/>
<use x="95.410156" xlink:href="#z"/>
</g>
</g>
<g clip-path="url(#a)">
<defs>
<path id="ao" d="m31.781 66.406q-7.6094 0-11.453-7.5-3.8281-7.4844-3.8281-22.531 0-14.984 3.8281-22.484 3.8438-7.5 11.453-7.5 7.6719 0 11.5 7.5 3.8438 7.5 3.8438 22.484 0 15.047-3.8438 22.531-3.8281 7.5-11.5 7.5zm0 7.8125q12.266 0 18.734-9.7031 6.4688-9.6875 6.4688-28.141 0-18.406-6.4688-28.109-6.4688-9.6875-18.734-9.6875-12.25 0-18.719 9.6875-6.4688 9.7031-6.4688 28.109 0 18.453 6.4688 28.141 6.4688 9.7031 18.719 9.7031z"/>
</defs>
<g transform="translate(554.48 313.01) scale(.1 -.1)">
<use xlink:href="#c"/>
<use x="63.623047" xlink:href="#e"/>
<use x="95.410156" xlink:href="#c"/>
<use x="159.033203" xlink:href="#ao"/>
</g>
</g>
<g clip-path="url(#a)">
<g transform="translate(631.83 313.01) scale(.1 -.1)">
<use xlink:href="#c"/>
<use x="63.623047" xlink:href="#e"/>
<use x="95.410156" xlink:href="#c"/>
<use x="159.033203" xlink:href="#c"/>
</g>
</g>
<g clip-path="url(#a)">
<g transform="translate(90.441 313.01) scale(.1 -.1)">
<use xlink:href="#c"/>
<use x="63.623047" xlink:href="#e"/>
<use x="95.410156" xlink:href="#c"/>
<use x="159.033203" xlink:href="#o"/>
</g>
</g>
<g clip-path="url(#a)">
<g transform="translate(187.12 167.51) scale(.1 -.1)">
<use xlink:href="#c"/>
<use x="63.623047" xlink:href="#e"/>
<use x="95.410156" xlink:href="#c"/>
<use x="159.033203" xlink:href="#w"/>
</g>
</g>
<g clip-path="url(#a)">
<g transform="translate(121.38 313.01) scale(.1 -.1)">
<use xlink:href="#c"/>
<use x="63.623047" xlink:href="#e"/>
<use x="95.410156" xlink:href="#c"/>
<use x="159.033203" xlink:href="#ad"/>
</g>
</g>
<g clip-path="url(#a)">
<g transform="translate(157.47 313.01) scale(.1 -.1)">
<use xlink:href="#c"/>
<use x="63.623047" xlink:href="#e"/>
<use x="95.410156" xlink:href="#c"/>
<use x="159.033203" xlink:href="#ac"/>
</g>
</g>
<g clip-path="url(#a)">
<g transform="translate(198.72 313.01) scale(.1 -.1)">
<use xlink:href="#c"/>
<use x="63.623047" xlink:href="#e"/>
<use x="95.410156" xlink:href="#c"/>
<use x="159.033203" xlink:href="#ab"/>
</g>
</g>
<g clip-path="url(#a)">
<defs>
<path id="an" d="m8.2031 72.906h46.875v-4.2031l-26.469-68.703h-10.297l24.906 64.594h-35.016z"/>
</defs>
<g transform="translate(270.9 240.45) scale(.1 -.1)">
<use xlink:href="#c"/>
<use x="63.623047" xlink:href="#e"/>
<use x="95.410156" xlink:href="#c"/>
<use x="159.033203" xlink:href="#an"/>
</g>
</g>
<g clip-path="url(#a)">
<g transform="translate(245.12 313.01) scale(.1 -.1)">
<use xlink:href="#c"/>
<use x="63.623047" xlink:href="#e"/>
<use x="95.410156" xlink:href="#c"/>
<use x="159.033203" xlink:href="#aa"/>
</g>
</g>
<g clip-path="url(#a)">
<g transform="translate(296.68 313.01) scale(.1 -.1)">
<use xlink:href="#c"/>
<use x="63.623047" xlink:href="#e"/>
<use x="95.410156" xlink:href="#c"/>
<use x="159.033203" xlink:href="#z"/>
</g>
</g>
<g clip-path="url(#a)">
<g transform="translate(23.413 313.01) scale(.1 -.1)">
<use xlink:href="#c"/>
<use x="63.623047" xlink:href="#e"/>
<use x="95.410156" xlink:href="#o"/>
<use x="159.033203" xlink:href="#c"/>
</g>
</g>
<g clip-path="url(#a)">
<g transform="translate(38.881 313.01) scale(.1 -.1)">
<use xlink:href="#c"/>
<use x="63.623047" xlink:href="#e"/>
<use x="95.410156" xlink:href="#o"/>
<use x="159.033203" xlink:href="#o"/>
</g>
</g>
<g clip-path="url(#a)">
<g transform="translate(714.32 313.01) scale(.1 -.1)">
<use xlink:href="#c"/>
<use x="63.623047" xlink:href="#e"/>
<use x="95.410156" xlink:href="#o"/>
<use x="159.033203" xlink:href="#w"/>
</g>
</g>
<defs>
<clipPath id="a">
<rect width="760" height="400"/>
</clipPath>
</defs>
</svg>
