<?xml version="1.0" encoding="UTF-8"?>
<!DOCTYPE svg  PUBLIC '-//W3C//DTD SVG 1.1//EN'  'http://www.w3.org/Graphics/SVG/1.1/DTD/svg11.dtd'>
<svg width="912pt" height="480pt" version="1.1" viewBox="0 0 912 480" xmlns="http://www.w3.org/2000/svg" xmlns:xlink="http://www.w3.org/1999/xlink">
<defs>
<style type="text/css">*{stroke-linecap:butt;stroke-linejoin:round;}</style>
</defs>
<path d="m0 480h912v-480h-912z" fill="#fff"/>
<g fill="none" stroke="#000">
<path d="m99.949 21.818v62.914" clip-path="url(#a)"/>
<path d="m99.949 84.732 770.6 62.809" clip-path="url(#a)"/>
<path d="m99.949 84.732-58.495 312.31" clip-path="url(#a)"/>
<path d="m99.949 84.732-45.264 312.31" clip-path="url(#a)"/>
<path d="m99.949 84.732-27.624 312.31" clip-path="url(#a)"/>
<path d="m99.949 84.732 131.38 62.809" clip-path="url(#a)"/>
<path d="m41.455 397.05v61.136" clip-path="url(#a)"/>
<path d="m54.685 397.05v61.136" clip-path="url(#a)"/>
<path d="m72.325 397.05v61.136" clip-path="url(#a)"/>
<path d="m231.33 147.54-123.73 187.52" clip-path="url(#a)"/>
<path d="m231.33 147.54-79.626 249.5" clip-path="url(#a)"/>
<path d="m231.33 147.54-44.346 249.5" clip-path="url(#a)"/>
<path d="m231.33 147.54-4.6551 249.5" clip-path="url(#a)"/>
<path d="m231.33 147.54 252.35 62.682" clip-path="url(#a)"/>
<path d="m107.61 335.06-13.23 61.987" clip-path="url(#a)"/>
<path d="m107.61 335.06 13.23 61.987" clip-path="url(#a)"/>
<path d="m151.71 397.05v61.136" clip-path="url(#a)"/>
<path d="m186.99 397.05v61.136" clip-path="url(#a)"/>
<path d="m226.68 397.05v61.136" clip-path="url(#a)"/>
<path d="m483.69 210.22-162.93 186.82" clip-path="url(#a)"/>
<path d="m483.69 210.22-54.146 186.82" clip-path="url(#a)"/>
<path d="m483.69 210.22 217.07 62.524" clip-path="url(#a)"/>
<path d="m320.76 397.05-49.981 61.136" clip-path="url(#a)"/>
<path d="m320.76 397.05-1.47 61.136" clip-path="url(#a)"/>
<path d="m320.76 397.05 51.451 61.136" clip-path="url(#a)"/>
<path d="m429.54 397.05v61.136" clip-path="url(#a)"/>
<path d="m700.76 272.75-176.4 62.312" clip-path="url(#a)"/>
<path d="m700.76 272.75-72.766 124.3" clip-path="url(#a)"/>
<path d="m700.76 272.75 2.205 124.3" clip-path="url(#a)"/>
<path d="m700.76 272.75 81.586 124.3" clip-path="url(#a)"/>
<path d="m700.76 272.75 165.38 124.3" clip-path="url(#a)"/>
<path d="m524.36 335.06-33.075 61.987" clip-path="url(#a)"/>
<path d="m524.36 335.06 33.075 61.987" clip-path="url(#a)"/>
<path d="m627.99 397.05v61.136" clip-path="url(#a)"/>
<path d="m702.96 397.05v61.136" clip-path="url(#a)"/>
<path d="m782.34 397.05v61.136" clip-path="url(#a)"/>
<path d="m491.28 397.05v61.136" clip-path="url(#a)"/>
<path d="m557.43 397.05v61.136" clip-path="url(#a)"/>
<path d="m94.375 397.05v61.136" clip-path="url(#a)"/>
<path d="m120.84 397.05v61.136" clip-path="url(#a)"/>
<path d="m866.14 397.05v61.136" clip-path="url(#a)"/>
</g>
<path d="m93.678 50.267v6.0162q0 2.4 2.4 2.4h7.7425q2.4 0 2.4-2.4v-6.0162q0-2.4-2.4-2.4h-7.7425q-2.4 0-2.4 2.4z" clip-path="url(#a)" fill="#fff" stroke="#fff"/>
<g clip-path="url(#a)">
<defs>
<path id="aa" d="m9.8125 72.906h9.8594v-29.891h35.844v29.891h9.8594v-72.906h-9.8594v34.719h-35.844v-34.719h-9.8594z"/>
</defs>
<g transform="translate(97.742 50.267) rotate(90) scale(.08 -.08)">
<use xlink:href="#aa"/>
</g>
</g>
<path d="m482.01 122.16 5.4544 0.44457q2.3921 0.19497 2.587-2.1971l0.62898-7.7169q0.19497-2.3921-2.1971-2.587l-5.4544-0.44457q-2.3921-0.19497-2.587 2.1971l-0.62898 7.7169q-0.19497 2.3921 2.1971 2.587z" clip-path="url(#a)" fill="#fff" stroke="#fff"/>
<g clip-path="url(#a)">
<defs>
<path id="q" d="m34.188 63.188-13.391-36.281h26.812zm-5.5781 9.7188h11.188l27.781-72.906h-10.25l-6.6406 18.703h-32.859l-6.6406-18.703h-10.406z"/>
</defs>
<g transform="translate(482.34 118.11) rotate(4.6597) scale(.08 -.08)">
<use xlink:href="#q"/>
</g>
</g>
<path d="m76.442 244.3 0.84706-4.5226q0.44182-2.359-1.9172-2.8008l-7.6102-1.4253q-2.359-0.44182-2.8008 1.9172l-0.84706 4.5226q-0.44182 2.359 1.9172 2.8008l7.6102 1.4253q2.359 0.44182 2.8008-1.9172z" clip-path="url(#a)" fill="#fff" stroke="#fff"/>
<g clip-path="url(#a)">
<defs>
<path id="ab" d="m9.8125 72.906h41.891v-8.3125h-32.031v-21.484h28.906v-8.2969h-28.906v-34.812h-9.8594z"/>
</defs>
<g transform="translate(72.448 243.56) rotate(-79.392) scale(.08 -.08)">
<use xlink:href="#ab"/>
</g>
</g>
<path d="m83.082 244.84 0.88355-6.0963q0.34424-2.3752-2.0309-2.7194l-7.6624-1.1105q-2.3752-0.34424-2.7194 2.0309l-0.88355 6.0963q-0.34424 2.3752 2.0309 2.7194l7.6624 1.1105q2.3752 0.34424 2.7194-2.0309z" clip-path="url(#a)" fill="#fff" stroke="#fff"/>
<g clip-path="url(#a)">
<defs>
<path id="t" d="m19.672 64.797v-56.688h11.922q15.094 0 22.094 6.8281 7 6.8438 7 21.594 0 14.641-7 21.453t-22.094 6.8125zm-9.8594 8.1094h20.266q21.188 0 31.094-8.8125 9.9219-8.8125 9.9219-27.562 0-18.859-9.9688-27.703-9.9531-8.8281-31.047-8.8281h-20.266z"/>
</defs>
<g transform="translate(79.06 244.25) rotate(-81.753) scale(.08 -.08)">
<use xlink:href="#t"/>
</g>
</g>
<path d="m92.171 243.84 0.425-4.805q0.21145-2.3907-2.1792-2.6021l-7.7124-0.68216q-2.3907-0.21146-2.6021 2.1792l-0.425 4.805q-0.21145 2.3907 2.1792 2.6021l7.7124 0.68216q2.3907 0.21145 2.6021-2.1792z" clip-path="url(#a)" fill="#fff" stroke="#fff"/>
<g clip-path="url(#a)">
<defs>
<path id="p" d="m19.672 64.797v-27.391h12.406q6.8906 0 10.641 3.5625 3.7656 3.5625 3.7656 10.156 0 6.5469-3.7656 10.109-3.75 3.5625-10.641 3.5625zm-9.8594 8.1094h22.266q12.266 0 18.531-5.5469 6.2812-5.5469 6.2812-16.234 0-10.797-6.2812-16.312-6.2656-5.5156-18.531-5.5156h-12.406v-29.297h-9.8594z"/>
</defs>
<g transform="translate(88.123 243.49) rotate(-84.945) scale(.08 -.08)">
<use xlink:href="#p"/>
</g>
</g>
<path d="m160.47 120.61 4.9373 2.3603q2.1653 1.0351 3.2004-1.1302l3.3394-6.9853q1.0351-2.1653-1.1302-3.2004l-4.9373-2.3603q-2.1653-1.0351-3.2004 1.1302l-3.3394 6.9853q-1.0351 2.1653 1.1302 3.2004z" clip-path="url(#a)" fill="#fff" stroke="#fff"/>
<g clip-path="url(#a)">
<g transform="translate(162.22 116.95) rotate(25.55) scale(.08 -.08)">
<use xlink:href="#q"/>
</g>
</g>
<path d="m35.183 410.71v33.808q0 2.4 2.4 2.4h7.7425q2.4 0 2.4-2.4v-33.808q0-2.4-2.4-2.4h-7.7425q-2.4 0-2.4 2.4z" clip-path="url(#a)" fill="#fff" stroke="#fff"/>
<g clip-path="url(#a)">
<defs>
<path id="k" d="m-0.29688 72.906h61.672v-8.3125h-25.875v-64.594h-9.9062v64.594h-25.891z"/>
<path id="d" d="m56.203 29.594v-4.3906h-41.312q0.59375-9.2812 5.5938-14.141t13.938-4.8594q5.1719 0 10.031 1.2656t9.6562 3.8125v-8.5q-4.8438-2.0469-9.9219-3.125t-10.297-1.0781q-13.094 0-20.734 7.6094-7.6406 7.625-7.6406 20.625 0 13.422 7.25 21.297 7.25 7.8906 19.562 7.8906 11.031 0 17.453-7.1094 6.4219-7.0938 6.4219-19.297zm-8.9844 2.6406q-0.09375 7.3594-4.125 11.75-4.0312 4.4062-10.672 4.4062-7.5156 0-12.031-4.25t-5.2031-11.969z"/>
<path id="i" d="m41.109 46.297q-1.5156 0.875-3.2969 1.2812-1.7812 0.42188-3.9219 0.42188-7.625 0-11.703-4.9531t-4.0781-14.234v-28.812h-9.0312v54.688h9.0312v-8.5q2.8438 4.9844 7.375 7.3906 4.5469 2.4219 11.047 2.4219 0.92188 0 2.0469-0.125 1.125-0.10938 2.4844-0.35938z"/>
<path id="l" d="m52 44.188q3.375 6.0625 8.0625 8.9375t11.031 2.875q8.5469 0 13.188-5.9844 4.6406-5.9688 4.6406-17v-33.016h-9.0312v32.719q0 7.8594-2.7969 11.656-2.7812 3.8125-8.4844 3.8125-6.9844 0-11.047-4.6406-4.0469-4.625-4.0469-12.641v-30.906h-9.0312v32.719q0 7.9062-2.7812 11.688t-8.5938 3.7812q-6.8906 0-10.953-4.6562-4.0469-4.6562-4.0469-12.625v-30.906h-9.0312v54.688h9.0312v-8.5q3.0781 5.0312 7.375 7.4219t10.203 2.3906q5.9688 0 10.141-3.0312 4.1719-3.0156 6.1719-8.7812z"/>
<path id="j" d="m9.4219 54.688h8.9844v-54.688h-8.9844zm0 21.297h8.9844v-11.391h-8.9844z"/>
<path id="f" d="m54.891 33.016v-33.016h-8.9844v32.719q0 7.7656-3.0312 11.609-3.0312 3.8594-9.0781 3.8594-7.2812 0-11.484-4.6406-4.2031-4.625-4.2031-12.641v-30.906h-9.0312v54.688h9.0312v-8.5q3.2344 4.9375 7.5938 7.375 4.375 2.4375 10.094 2.4375 9.4219 0 14.25-5.8281 4.8438-5.8281 4.8438-17.156z"/>
<path id="h" d="m34.281 27.484q-10.891 0-15.094-2.4844t-4.2031-8.5q0-4.7812 3.1562-7.5938 3.1562-2.7969 8.5625-2.7969 7.4844 0 12 5.2969t4.5156 14.078v2zm17.922 3.7188v-31.203h-8.9844v8.2969q-3.0781-4.9688-7.6719-7.3438t-11.234-2.375q-8.3906 0-13.359 4.7188-4.9531 4.7188-4.9531 12.625 0 9.2188 6.1719 13.906 6.1875 4.6875 18.438 4.6875h12.609v0.89062q0 6.2031-4.0781 9.5938t-11.453 3.3906q-4.6875 0-9.1406-1.125-4.4375-1.125-8.5312-3.375v8.3125q4.9219 1.9062 9.5625 2.8438 4.6406 0.95312 9.0312 0.95312 11.875 0 17.734-6.1562 5.8594-6.1406 5.8594-18.641z"/>
<path id="g" d="m9.4219 75.984h8.9844v-75.984h-8.9844z"/>
</defs>
<g transform="translate(39.247 410.71) rotate(90) scale(.08 -.08)">
<use xlink:href="#k"/>
<use x="44.083984" xlink:href="#d"/>
<use x="105.607422" xlink:href="#i"/>
<use x="144.970703" xlink:href="#l"/>
<use x="242.382812" xlink:href="#j"/>
<use x="270.166016" xlink:href="#f"/>
<use x="333.544922" xlink:href="#h"/>
<use x="394.824219" xlink:href="#g"/>
</g>
</g>
<path d="m48.413 410.71v33.808q0 2.4 2.4 2.4h7.7425q2.4 0 2.4-2.4v-33.808q0-2.4-2.4-2.4h-7.7425q-2.4 0-2.4 2.4z" clip-path="url(#a)" fill="#fff" stroke="#fff"/>
<g clip-path="url(#a)">
<g transform="translate(52.477 410.71) rotate(90) scale(.08 -.08)">
<use xlink:href="#k"/>
<use x="44.083984" xlink:href="#d"/>
<use x="105.607422" xlink:href="#i"/>
<use x="144.970703" xlink:href="#l"/>
<use x="242.382812" xlink:href="#j"/>
<use x="270.166016" xlink:href="#f"/>
<use x="333.544922" xlink:href="#h"/>
<use x="394.824219" xlink:href="#g"/>
</g>
</g>
<path d="m66.054 410.71v33.808q0 2.4 2.4 2.4h7.7425q2.4 0 2.4-2.4v-33.808q0-2.4-2.4-2.4h-7.7425q-2.4 0-2.4 2.4z" clip-path="url(#a)" fill="#fff" stroke="#fff"/>
<g clip-path="url(#a)">
<g transform="translate(70.117 410.71) rotate(90) scale(.08 -.08)">
<use xlink:href="#k"/>
<use x="44.083984" xlink:href="#d"/>
<use x="105.607422" xlink:href="#i"/>
<use x="144.970703" xlink:href="#l"/>
<use x="242.382812" xlink:href="#j"/>
<use x="270.166016" xlink:href="#f"/>
<use x="333.544922" xlink:href="#h"/>
<use x="394.824219" xlink:href="#g"/>
</g>
</g>
<path d="m173.2 247.04 3.0139-4.5678q1.3218-2.0032-0.68148-3.325l-6.4625-4.264q-2.0032-1.3218-3.325 0.68148l-3.0139 4.5678q-1.3218 2.0032 0.68148 3.325l6.4625 4.264q2.0032 1.3218 3.325-0.68148z" clip-path="url(#a)" fill="#fff" stroke="#fff"/>
<g clip-path="url(#a)">
<g transform="translate(169.8 244.8) rotate(-56.583) scale(.08 -.08)">
<use xlink:href="#q"/>
</g>
</g>
<path d="m196.66 276.81 1.6638-5.2134q0.72967-2.2864-1.5567-3.0161l-7.376-2.3539q-2.2864-0.72967-3.0161 1.5567l-1.6638 5.2134q-0.72967 2.2864 1.5567 3.0161l7.376 2.3539q2.2864 0.72967 3.0161-1.5567z" clip-path="url(#a)" fill="#fff" stroke="#fff"/>
<g clip-path="url(#a)">
<g transform="translate(192.79 275.57) rotate(-72.3) scale(.08 -.08)">
<use xlink:href="#q"/>
</g>
</g>
<path d="m214.79 276.42 1.078-6.065q0.41998-2.363-1.943-2.7829l-7.623-1.3549q-2.363-0.41998-2.7829 1.943l-1.078 6.065q-0.41998 2.363 1.943 2.7829l7.623 1.3549q2.363 0.41998 2.7829-1.943z" clip-path="url(#a)" fill="#fff" stroke="#fff"/>
<g clip-path="url(#a)">
<g transform="translate(210.79 275.71) rotate(-79.922) scale(.08 -.08)">
<use xlink:href="#t"/>
</g>
</g>
<path d="m235.23 274.82 0.089982-4.8229q0.044769-2.3996-2.3548-2.4444l-7.7412-0.14443q-2.3996-0.04477-2.4444 2.3548l-0.089982 4.8229q-0.044769 2.3996 2.3548 2.4444l7.7412 0.14443q2.3996 0.04477 2.4444-2.3548z" clip-path="url(#a)" fill="#fff" stroke="#fff"/>
<g clip-path="url(#a)">
<g transform="translate(231.17 274.75) rotate(-88.931) scale(.08 -.08)">
<use xlink:href="#p"/>
</g>
</g>
<path d="m353.34 184.31 5.3111 1.3192q2.3292 0.57856 2.9078-1.7507l1.8664-7.5142q0.57856-2.3292-1.7507-2.9078l-5.3111-1.3192q-2.3292-0.57856-2.9078 1.7507l-1.8664 7.5142q-0.57856 2.3292 1.7507 2.9078z" clip-path="url(#a)" fill="#fff" stroke="#fff"/>
<g clip-path="url(#a)">
<g transform="translate(354.32 180.36) rotate(13.949) scale(.08 -.08)">
<use xlink:href="#q"/>
</g>
</g>
<path d="m106.54 370.09 1.166-5.4632q0.50096-2.3471-1.8462-2.8481l-7.572-1.6161q-2.3471-0.50096-2.8481 1.8462l-1.166 5.4632q-0.50096 2.3471 1.8462 2.8481l7.572 1.6161q2.3471 0.50096 2.8481-1.8462z" clip-path="url(#a)" fill="#fff" stroke="#fff"/>
<g clip-path="url(#a)">
<defs>
<path id="n" d="m64.406 67.281v-10.391q-4.9844 4.6406-10.625 6.9219-5.6406 2.2969-11.984 2.2969-12.5 0-19.141-7.6406t-6.6406-22.094q0-14.406 6.6406-22.047t19.141-7.6406q6.3438 0 11.984 2.2969t10.625 6.9375v-10.312q-5.1719-3.5156-10.969-5.2812-5.7812-1.75-12.219-1.75-16.562 0-26.094 10.125-9.5156 10.141-9.5156 27.672 0 17.578 9.5156 27.703 9.5312 10.141 26.094 10.141 6.5312 0 12.312-1.7344 5.7969-1.7344 10.875-5.2031z"/>
</defs>
<g transform="translate(102.57 369.24) rotate(-77.952) scale(.08 -.08)">
<use xlink:href="#n"/>
</g>
</g>
<path d="m107.51 364.64 1.1603 5.4363q0.50096 2.3471 2.8481 1.8462l7.572-1.6161q2.3471-0.50096 1.8462-2.8481l-1.1603-5.4363q-0.50096-2.3471-2.8481-1.8462l-7.572 1.6161q-2.3471 0.50096-1.8462 2.8481z" clip-path="url(#a)" fill="#fff" stroke="#fff"/>
<g clip-path="url(#a)">
<defs>
<path id="z" d="m44.391 34.188q3.1719-1.0781 6.1719-4.5938t6.0312-9.6719l10.016-19.922h-10.609l-9.3125 18.703q-3.625 7.3281-7.0156 9.7188t-9.25 2.3906h-10.75v-30.812h-9.8594v72.906h22.266q12.5 0 18.656-5.2344 6.1562-5.2188 6.1562-15.766 0-6.8906-3.2031-11.438-3.2031-4.5312-9.2969-6.2812zm-24.719 30.609v-25.875h12.406q7.125 0 10.766 3.2969t3.6406 9.6875-3.6406 9.6406-10.766 3.25z"/>
</defs>
<g transform="translate(111.48 363.79) rotate(77.952) scale(.08 -.08)">
<use xlink:href="#z"/>
</g>
</g>
<path d="m145.43 410.71v33.808q0 2.4 2.4 2.4h7.7425q2.4 0 2.4-2.4v-33.808q0-2.4-2.4-2.4h-7.7425q-2.4 0-2.4 2.4z" clip-path="url(#a)" fill="#fff" stroke="#fff"/>
<g clip-path="url(#a)">
<g transform="translate(149.5 410.71) rotate(90) scale(.08 -.08)">
<use xlink:href="#k"/>
<use x="44.083984" xlink:href="#d"/>
<use x="105.607422" xlink:href="#i"/>
<use x="144.970703" xlink:href="#l"/>
<use x="242.382812" xlink:href="#j"/>
<use x="270.166016" xlink:href="#f"/>
<use x="333.544922" xlink:href="#h"/>
<use x="394.824219" xlink:href="#g"/>
</g>
</g>
<path d="m180.72 410.71v33.808q0 2.4 2.4 2.4h7.7425q2.4 0 2.4-2.4v-33.808q0-2.4-2.4-2.4h-7.7425q-2.4 0-2.4 2.4z" clip-path="url(#a)" fill="#fff" stroke="#fff"/>
<g clip-path="url(#a)">
<g transform="translate(184.78 410.71) rotate(90) scale(.08 -.08)">
<use xlink:href="#k"/>
<use x="44.083984" xlink:href="#d"/>
<use x="105.607422" xlink:href="#i"/>
<use x="144.970703" xlink:href="#l"/>
<use x="242.382812" xlink:href="#j"/>
<use x="270.166016" xlink:href="#f"/>
<use x="333.544922" xlink:href="#h"/>
<use x="394.824219" xlink:href="#g"/>
</g>
</g>
<path d="m220.41 410.71v33.808q0 2.4 2.4 2.4h7.7425q2.4 0 2.4-2.4v-33.808q0-2.4-2.4-2.4h-7.7425q-2.4 0-2.4 2.4z" clip-path="url(#a)" fill="#fff" stroke="#fff"/>
<g clip-path="url(#a)">
<g transform="translate(224.47 410.71) rotate(90) scale(.08 -.08)">
<use xlink:href="#k"/>
<use x="44.083984" xlink:href="#d"/>
<use x="105.607422" xlink:href="#i"/>
<use x="144.970703" xlink:href="#l"/>
<use x="242.382812" xlink:href="#j"/>
<use x="270.166016" xlink:href="#f"/>
<use x="333.544922" xlink:href="#h"/>
<use x="394.824219" xlink:href="#g"/>
</g>
</g>
<path d="m405.11 309.86 3.6716-4.2101q1.5774-1.8088-0.23135-3.3862l-5.8352-5.0889q-1.8088-1.5774-3.3862 0.23135l-3.6716 4.2101q-1.5774 1.8088 0.23135 3.3862l5.8352 5.0889q1.8088 1.5774 3.3862-0.23135z" clip-path="url(#a)" fill="#fff" stroke="#fff"/>
<g clip-path="url(#a)">
<g transform="translate(402.05 307.19) rotate(-48.908) scale(.08 -.08)">
<use xlink:href="#n"/>
</g>
</g>
<path d="m461.8 308.25 1.666-5.7484q0.66808-2.3051-1.6371-2.9732l-7.4365-2.1553q-2.3051-0.66808-2.9732 1.6371l-1.666 5.7484q-0.66808 2.3051 1.6371 2.9732l7.4365 2.1553q2.3051 0.66808 2.9732-1.6371z" clip-path="url(#a)" fill="#fff" stroke="#fff"/>
<g clip-path="url(#a)">
<defs>
<path id="ao" d="m9.8125 72.906h13.281l32.328-60.984v60.984h9.5625v-72.906h-13.281l-32.312 60.984v-60.984h-9.5781z"/>
</defs>
<g transform="translate(457.9 307.12) rotate(-73.837) scale(.08 -.08)">
<use xlink:href="#ao"/>
</g>
</g>
<path d="m587.8 246.74 5.368 1.5462q2.3062 0.66427 2.9705-1.642l2.143-7.44q0.66427-2.3062-1.642-2.9705l-5.368-1.5462q-2.3062-0.66427-2.9705 1.642l-2.143 7.44q-0.66427 2.3062 1.642 2.9705z" clip-path="url(#a)" fill="#fff" stroke="#fff"/>
<g clip-path="url(#a)">
<g transform="translate(588.93 242.83) rotate(16.068) scale(.08 -.08)">
<use xlink:href="#n"/>
</g>
</g>
<path d="m289.92 444.67 21.398-26.174q1.519-1.8581-0.33905-3.3771l-5.9943-4.9005q-1.8581-1.519-3.3771 0.33905l-21.398 26.174q-1.519 1.8581 0.33905 3.3771l5.9943 4.9005q1.8581 1.519 3.3771-0.33905z" clip-path="url(#a)" fill="#fff" stroke="#fff"/>
<g clip-path="url(#a)">
<g transform="translate(286.78 442.1) rotate(-50.733) scale(.08 -.08)">
<use xlink:href="#k"/>
<use x="44.083984" xlink:href="#d"/>
<use x="105.607422" xlink:href="#i"/>
<use x="144.970703" xlink:href="#l"/>
<use x="242.382812" xlink:href="#j"/>
<use x="270.166016" xlink:href="#f"/>
<use x="333.544922" xlink:href="#h"/>
<use x="394.824219" xlink:href="#g"/>
</g>
</g>
<path d="m325.89 444.66 0.81266-33.798q0.057691-2.3993-2.3416-2.457l-7.7403-0.18611q-2.3993-0.057691-2.457 2.3416l-0.81266 33.798q-0.057691 2.3993 2.3416 2.457l7.7403 0.18612q2.3993 0.057691 2.457-2.3416z" clip-path="url(#a)" fill="#fff" stroke="#fff"/>
<g clip-path="url(#a)">
<g transform="translate(321.82 444.57) rotate(-88.623) scale(.08 -.08)">
<use xlink:href="#k"/>
<use x="44.083984" xlink:href="#d"/>
<use x="105.607422" xlink:href="#i"/>
<use x="144.970703" xlink:href="#l"/>
<use x="242.382812" xlink:href="#j"/>
<use x="270.166016" xlink:href="#f"/>
<use x="333.544922" xlink:href="#h"/>
<use x="394.824219" xlink:href="#g"/>
</g>
</g>
<path d="m330.8 418.72 21.769 25.867q1.5454 1.8363 3.3816 0.29092l5.9239-4.9854q1.8363-1.5454 0.29092-3.3816l-21.769-25.867q-1.5454-1.8363-3.3816-0.29092l-5.9239 4.9854q-1.8363 1.5454-0.29092 3.3816z" clip-path="url(#a)" fill="#fff" stroke="#fff"/>
<g clip-path="url(#a)">
<g transform="translate(333.91 416.1) rotate(49.917) scale(.08 -.08)">
<use xlink:href="#k"/>
<use x="44.083984" xlink:href="#d"/>
<use x="105.607422" xlink:href="#i"/>
<use x="144.970703" xlink:href="#l"/>
<use x="242.382812" xlink:href="#j"/>
<use x="270.166016" xlink:href="#f"/>
<use x="333.544922" xlink:href="#h"/>
<use x="394.824219" xlink:href="#g"/>
</g>
</g>
<path d="m423.27 410.71v33.808q0 2.4 2.4 2.4h7.7425q2.4 0 2.4-2.4v-33.808q0-2.4-2.4-2.4h-7.7425q-2.4 0-2.4 2.4z" clip-path="url(#a)" fill="#fff" stroke="#fff"/>
<g clip-path="url(#a)">
<g transform="translate(427.33 410.71) rotate(90) scale(.08 -.08)">
<use xlink:href="#k"/>
<use x="44.083984" xlink:href="#d"/>
<use x="105.607422" xlink:href="#i"/>
<use x="144.970703" xlink:href="#l"/>
<use x="242.382812" xlink:href="#j"/>
<use x="270.166016" xlink:href="#f"/>
<use x="333.544922" xlink:href="#h"/>
<use x="394.824219" xlink:href="#g"/>
</g>
</g>
<path d="m611.68 310.86 5.9379-2.0975q2.263-0.79936 1.4636-3.0623l-2.5788-7.3004q-0.79936-2.263-3.0623-1.4636l-5.9379 2.0975q-2.263 0.79936-1.4636 3.0623l2.5788 7.3004q0.79936 2.263 3.0623 1.4636z" clip-path="url(#a)" fill="#fff" stroke="#fff"/>
<g clip-path="url(#a)">
<defs>
<path id="an" d="m39.406 66.219q-10.75 0-17.078-8.0156-6.3125-8-6.3125-21.828 0-13.766 6.3125-21.781 6.3281-8 17.078-8 10.734 0 17.016 8 6.2812 8.0156 6.2812 21.781 0 13.828-6.2812 21.828-6.2812 8.0156-17.016 8.0156zm13.812-64.906 13-14.203h-11.922l-10.797 11.672q-1.6094-0.09375-2.4688-0.14062-0.84375-0.0625-1.625-0.0625-15.375 0-24.594 10.281-9.2031 10.281-9.2031 27.516 0 17.281 9.2031 27.562 9.2188 10.281 24.594 10.281 15.328 0 24.5-10.281 9.1875-10.281 9.1875-27.562 0-12.688-5.1094-21.734-5.0938-9.0312-14.766-13.328z"/>
</defs>
<g transform="translate(610.32 307.03) rotate(-19.455) scale(.08 -.08)">
<use xlink:href="#an"/>
</g>
</g>
<path d="m668.63 340.05 2.3246-3.9709q1.2125-2.0712-0.85869-3.2837l-6.6818-3.9116q-2.0712-1.2125-3.2837 0.85869l-2.3246 3.9709q-1.2125 2.0712 0.85869 3.2837l6.6818 3.9116q2.0712 1.2125 3.2837-0.85869z" clip-path="url(#a)" fill="#fff" stroke="#fff"/>
<g clip-path="url(#a)">
<g transform="translate(665.12 338) rotate(-59.655) scale(.08 -.08)">
<use xlink:href="#ab"/>
</g>
</g>
<path d="m695.55 332.48 0.089661 5.0542q0.042568 2.3996 2.4422 2.3571l7.7413-0.13733q2.3996-0.042569 2.3571-2.4422l-0.089661-5.0542q-0.042568-2.3996-2.4422-2.3571l-7.7413 0.13733q-2.3996 0.042568-2.3571 2.4422z" clip-path="url(#a)" fill="#fff" stroke="#fff"/>
<g clip-path="url(#a)">
<defs>
<path id="ar" d="m9.8125 72.906h46.094v-8.3125h-36.234v-21.578h34.719v-8.2969h-34.719v-26.422h37.109v-8.2969h-46.969z"/>
</defs>
<g transform="translate(699.61 332.41) rotate(88.984) scale(.08 -.08)">
<use xlink:href="#ar"/>
</g>
</g>
<path d="m734.78 336 3.0653 4.6701q1.3169 2.0064 3.3233 0.68946l6.4727-4.2485q2.0064-1.3169 0.68946-3.3233l-3.0653-4.6701q-1.3169-2.0064-3.3233-0.68946l-6.4727 4.2485q-2.0064 1.3169-0.68946 3.3233z" clip-path="url(#a)" fill="#fff" stroke="#fff"/>
<g clip-path="url(#a)">
<g transform="translate(738.17 333.77) rotate(56.72) scale(.08 -.08)">
<use xlink:href="#n"/>
</g>
</g>
<path d="m777.34 338.15 4.6804 3.5178q1.9185 1.442 3.3605-0.47654l4.6519-6.1892q1.442-1.9185-0.47654-3.3605l-4.6804-3.5178q-1.9185-1.442-3.3605 0.47654l-4.6519 6.1892q-1.442 1.9185 0.47654 3.3605z" clip-path="url(#a)" fill="#fff" stroke="#fff"/>
<g clip-path="url(#a)">
<defs>
<path id="am" d="m8.6875 72.906h9.9219v-44.297q0-11.719 4.2344-16.875 4.25-5.1406 13.781-5.1406 9.4688 0 13.719 5.1406 4.25 5.1562 4.25 16.875v44.297h9.9062v-45.516q0-14.25-7.0625-21.531-7.0469-7.2812-20.812-7.2812-13.828 0-20.891 7.2812-7.0469 7.2812-7.0469 21.531z"/>
</defs>
<g transform="translate(779.78 334.9) rotate(36.929) scale(.08 -.08)">
<use xlink:href="#am"/>
</g>
</g>
<path d="m512.04 371.47 2.6298-4.9285q1.1298-2.1174-0.98759-3.2473l-6.8309-3.6449q-2.1174-1.1298-3.2473 0.98759l-2.6298 4.9285q-1.1298 2.1174 0.98759 3.2473l6.8309 3.6449q2.1174 1.1298 3.2473-0.98759z" clip-path="url(#a)" fill="#fff" stroke="#fff"/>
<g clip-path="url(#a)">
<g transform="translate(508.45 369.56) rotate(-61.916) scale(.08 -.08)">
<use xlink:href="#n"/>
</g>
</g>
<path d="m534.05 366.55 2.6169 4.9043q1.1298 2.1174 3.2473 0.98759l6.8309-3.6449q2.1174-1.1298 0.98759-3.2473l-2.6169-4.9043q-1.1298-2.1174-3.2473-0.98759l-6.8309 3.6449q-2.1174 1.1298-0.98759 3.2473z" clip-path="url(#a)" fill="#fff" stroke="#fff"/>
<g clip-path="url(#a)">
<g transform="translate(537.64 364.64) rotate(61.916) scale(.08 -.08)">
<use xlink:href="#z"/>
</g>
</g>
<path d="m621.72 410.71v33.808q0 2.4 2.4 2.4h7.7425q2.4 0 2.4-2.4v-33.808q0-2.4-2.4-2.4h-7.7425q-2.4 0-2.4 2.4z" clip-path="url(#a)" fill="#fff" stroke="#fff"/>
<g clip-path="url(#a)">
<g transform="translate(625.78 410.71) rotate(90) scale(.08 -.08)">
<use xlink:href="#k"/>
<use x="44.083984" xlink:href="#d"/>
<use x="105.607422" xlink:href="#i"/>
<use x="144.970703" xlink:href="#l"/>
<use x="242.382812" xlink:href="#j"/>
<use x="270.166016" xlink:href="#f"/>
<use x="333.544922" xlink:href="#h"/>
<use x="394.824219" xlink:href="#g"/>
</g>
</g>
<path d="m696.69 410.71v33.808q0 2.4 2.4 2.4h7.7425q2.4 0 2.4-2.4v-33.808q0-2.4-2.4-2.4h-7.7425q-2.4 0-2.4 2.4z" clip-path="url(#a)" fill="#fff" stroke="#fff"/>
<g clip-path="url(#a)">
<g transform="translate(700.76 410.71) rotate(90) scale(.08 -.08)">
<use xlink:href="#k"/>
<use x="44.083984" xlink:href="#d"/>
<use x="105.607422" xlink:href="#i"/>
<use x="144.970703" xlink:href="#l"/>
<use x="242.382812" xlink:href="#j"/>
<use x="270.166016" xlink:href="#f"/>
<use x="333.544922" xlink:href="#h"/>
<use x="394.824219" xlink:href="#g"/>
</g>
</g>
<path d="m776.07 410.71v33.808q0 2.4 2.4 2.4h7.7425q2.4 0 2.4-2.4v-33.808q0-2.4-2.4-2.4h-7.7425q-2.4 0-2.4 2.4z" clip-path="url(#a)" fill="#fff" stroke="#fff"/>
<g clip-path="url(#a)">
<g transform="translate(780.14 410.71) rotate(90) scale(.08 -.08)">
<use xlink:href="#k"/>
<use x="44.083984" xlink:href="#d"/>
<use x="105.607422" xlink:href="#i"/>
<use x="144.970703" xlink:href="#l"/>
<use x="242.382812" xlink:href="#j"/>
<use x="270.166016" xlink:href="#f"/>
<use x="333.544922" xlink:href="#h"/>
<use x="394.824219" xlink:href="#g"/>
</g>
</g>
<path d="m485.01 410.71v33.808q0 2.4 2.4 2.4h7.7425q2.4 0 2.4-2.4v-33.808q0-2.4-2.4-2.4h-7.7425q-2.4 0-2.4 2.4z" clip-path="url(#a)" fill="#fff" stroke="#fff"/>
<g clip-path="url(#a)">
<g transform="translate(489.07 410.71) rotate(90) scale(.08 -.08)">
<use xlink:href="#k"/>
<use x="44.083984" xlink:href="#d"/>
<use x="105.607422" xlink:href="#i"/>
<use x="144.970703" xlink:href="#l"/>
<use x="242.382812" xlink:href="#j"/>
<use x="270.166016" xlink:href="#f"/>
<use x="333.544922" xlink:href="#h"/>
<use x="394.824219" xlink:href="#g"/>
</g>
</g>
<path d="m551.16 410.71v33.808q0 2.4 2.4 2.4h7.7425q2.4 0 2.4-2.4v-33.808q0-2.4-2.4-2.4h-7.7425q-2.4 0-2.4 2.4z" clip-path="url(#a)" fill="#fff" stroke="#fff"/>
<g clip-path="url(#a)">
<g transform="translate(555.22 410.71) rotate(90) scale(.08 -.08)">
<use xlink:href="#k"/>
<use x="44.083984" xlink:href="#d"/>
<use x="105.607422" xlink:href="#i"/>
<use x="144.970703" xlink:href="#l"/>
<use x="242.382812" xlink:href="#j"/>
<use x="270.166016" xlink:href="#f"/>
<use x="333.544922" xlink:href="#h"/>
<use x="394.824219" xlink:href="#g"/>
</g>
</g>
<path d="m88.104 410.71v33.808q0 2.4 2.4 2.4h7.7425q2.4 0 2.4-2.4v-33.808q0-2.4-2.4-2.4h-7.7425q-2.4 0-2.4 2.4z" clip-path="url(#a)" fill="#fff" stroke="#fff"/>
<g clip-path="url(#a)">
<g transform="translate(92.168 410.71) rotate(90) scale(.08 -.08)">
<use xlink:href="#k"/>
<use x="44.083984" xlink:href="#d"/>
<use x="105.607422" xlink:href="#i"/>
<use x="144.970703" xlink:href="#l"/>
<use x="242.382812" xlink:href="#j"/>
<use x="270.166016" xlink:href="#f"/>
<use x="333.544922" xlink:href="#h"/>
<use x="394.824219" xlink:href="#g"/>
</g>
</g>
<path d="m114.56 410.71v33.808q0 2.4 2.4 2.4h7.7425q2.4 0 2.4-2.4v-33.808q0-2.4-2.4-2.4h-7.7425q-2.4 0-2.4 2.4z" clip-path="url(#a)" fill="#fff" stroke="#fff"/>
<g clip-path="url(#a)">
<g transform="translate(118.63 410.71) rotate(90) scale(.08 -.08)">
<use xlink:href="#k"/>
<use x="44.083984" xlink:href="#d"/>
<use x="105.607422" xlink:href="#i"/>
<use x="144.970703" xlink:href="#l"/>
<use x="242.382812" xlink:href="#j"/>
<use x="270.166016" xlink:href="#f"/>
<use x="333.544922" xlink:href="#h"/>
<use x="394.824219" xlink:href="#g"/>
</g>
</g>
<path d="m859.86 410.71v33.808q0 2.4 2.4 2.4h7.7425q2.4 0 2.4-2.4v-33.808q0-2.4-2.4-2.4h-7.7425q-2.4 0-2.4 2.4z" clip-path="url(#a)" fill="#fff" stroke="#fff"/>
<g clip-path="url(#a)">
<g transform="translate(863.93 410.71) rotate(90) scale(.08 -.08)">
<use xlink:href="#k"/>
<use x="44.083984" xlink:href="#d"/>
<use x="105.607422" xlink:href="#i"/>
<use x="144.970703" xlink:href="#l"/>
<use x="242.382812" xlink:href="#j"/>
<use x="270.166016" xlink:href="#f"/>
<use x="333.544922" xlink:href="#h"/>
<use x="394.824219" xlink:href="#g"/>
</g>
</g>
<defs>
<path id="b" d="m0 8.6603c2.2967 0 4.4997-0.9125 6.1237-2.5365 1.624-1.624 2.5365-3.827 2.5365-6.1237s-0.9125-4.4997-2.5365-6.1237c-1.624-1.624-3.827-2.5365-6.1237-2.5365s-4.4997 0.9125-6.1237 2.5365c-1.624 1.624-2.5365 3.827-2.5365 6.1237s0.9125 4.4997 2.5365 6.1237c1.624 1.624 3.827 2.5365 6.1237 2.5365z"/>
</defs>
<g clip-path="url(#a)">
<use x="41.454545" y="458.181818" fill="#ffffff" stroke="#ffffff" xlink:href="#b"/>
</g>
<g clip-path="url(#a)">
<use x="54.68472" y="458.181818" fill="#ffffff" stroke="#ffffff" xlink:href="#b"/>
</g>
<g clip-path="url(#a)">
<use x="72.324952" y="458.181818" fill="#ffffff" stroke="#ffffff" xlink:href="#b"/>
</g>
<g clip-path="url(#a)">
<use x="94.375242" y="458.181818" fill="#ffffff" stroke="#ffffff" xlink:href="#b"/>
</g>
<g clip-path="url(#a)">
<use x="120.83559" y="458.181818" fill="#ffffff" stroke="#ffffff" xlink:href="#b"/>
</g>
<g clip-path="url(#a)">
<use x="151.705996" y="458.181818" fill="#ffffff" stroke="#ffffff" xlink:href="#b"/>
</g>
<g clip-path="url(#a)">
<use x="186.98646" y="458.181818" fill="#ffffff" stroke="#ffffff" xlink:href="#b"/>
</g>
<g clip-path="url(#a)">
<use x="226.676983" y="458.181818" fill="#ffffff" stroke="#ffffff" xlink:href="#b"/>
</g>
<g clip-path="url(#a)">
<use x="270.777563" y="458.181818" fill="#ffffff" stroke="#ffffff" xlink:href="#b"/>
</g>
<g clip-path="url(#a)">
<use x="319.288201" y="458.181818" fill="#ffffff" stroke="#ffffff" xlink:href="#b"/>
</g>
<g clip-path="url(#a)">
<use x="372.208897" y="458.181818" fill="#ffffff" stroke="#ffffff" xlink:href="#b"/>
</g>
<g clip-path="url(#a)">
<use x="429.539652" y="458.181818" fill="#ffffff" stroke="#ffffff" xlink:href="#b"/>
</g>
<g clip-path="url(#a)">
<use x="491.280464" y="458.181818" fill="#ffffff" stroke="#ffffff" xlink:href="#b"/>
</g>
<g clip-path="url(#a)">
<use x="557.431335" y="458.181818" fill="#ffffff" stroke="#ffffff" xlink:href="#b"/>
</g>
<g clip-path="url(#a)">
<use x="627.992263" y="458.181818" fill="#ffffff" stroke="#ffffff" xlink:href="#b"/>
</g>
<g clip-path="url(#a)">
<use x="702.96325" y="458.181818" fill="#ffffff" stroke="#ffffff" xlink:href="#b"/>
</g>
<g clip-path="url(#a)">
<use x="782.344294" y="458.181818" fill="#ffffff" stroke="#ffffff" xlink:href="#b"/>
</g>
<g clip-path="url(#a)">
<use x="866.135397" y="458.181818" fill="#ffffff" stroke="#ffffff" xlink:href="#b"/>
</g>
<g clip-path="url(#a)">
<use x="870.545455" y="147.540489" fill="#ffffff" stroke="#ffffff" xlink:href="#b"/>
</g>
<g clip-path="url(#a)">
<use x="99.949065" y="21.818182" fill="#ffffff" stroke="#ffffff" xlink:href="#b"/>
</g>
<g clip-path="url(#a)">
<use x="99.949065" y="84.731964" fill="#ffffff" stroke="#ffffff" xlink:href="#b"/>
</g>
<g clip-path="url(#a)">
<use x="41.454545" y="397.045465" fill="#ffffff" stroke="#ffffff" xlink:href="#b"/>
</g>
<g clip-path="url(#a)">
<use x="54.68472" y="397.045465" fill="#ffffff" stroke="#ffffff" xlink:href="#b"/>
</g>
<g clip-path="url(#a)">
<use x="72.324952" y="397.045465" fill="#ffffff" stroke="#ffffff" xlink:href="#b"/>
</g>
<g clip-path="url(#a)">
<use x="231.332044" y="147.540489" fill="#ffffff" stroke="#ffffff" xlink:href="#b"/>
</g>
<g clip-path="url(#a)">
<use x="107.605416" y="335.058637" fill="#ffffff" stroke="#ffffff" xlink:href="#b"/>
</g>
<g clip-path="url(#a)">
<use x="151.705996" y="397.045465" fill="#ffffff" stroke="#ffffff" xlink:href="#b"/>
</g>
<g clip-path="url(#a)">
<use x="186.98646" y="397.045465" fill="#ffffff" stroke="#ffffff" xlink:href="#b"/>
</g>
<g clip-path="url(#a)">
<use x="226.676983" y="397.045465" fill="#ffffff" stroke="#ffffff" xlink:href="#b"/>
</g>
<g clip-path="url(#a)">
<use x="483.685364" y="210.222677" fill="#ffffff" stroke="#ffffff" xlink:href="#b"/>
</g>
<g clip-path="url(#a)">
<use x="320.758221" y="397.045465" fill="#ffffff" stroke="#ffffff" xlink:href="#b"/>
</g>
<g clip-path="url(#a)">
<use x="429.539652" y="397.045465" fill="#ffffff" stroke="#ffffff" xlink:href="#b"/>
</g>
<g clip-path="url(#a)">
<use x="700.758221" y="272.746694" fill="#ffffff" stroke="#ffffff" xlink:href="#b"/>
</g>
<g clip-path="url(#a)">
<use x="524.355899" y="335.058637" fill="#ffffff" stroke="#ffffff" xlink:href="#b"/>
</g>
<g clip-path="url(#a)">
<use x="627.992263" y="397.045465" fill="#ffffff" stroke="#ffffff" xlink:href="#b"/>
</g>
<g clip-path="url(#a)">
<use x="702.96325" y="397.045465" fill="#ffffff" stroke="#ffffff" xlink:href="#b"/>
</g>
<g clip-path="url(#a)">
<use x="782.344294" y="397.045465" fill="#ffffff" stroke="#ffffff" xlink:href="#b"/>
</g>
<g clip-path="url(#a)">
<use x="491.280464" y="397.045465" fill="#ffffff" stroke="#ffffff" xlink:href="#b"/>
</g>
<g clip-path="url(#a)">
<use x="557.431335" y="397.045465" fill="#ffffff" stroke="#ffffff" xlink:href="#b"/>
</g>
<g clip-path="url(#a)">
<use x="94.375242" y="397.045465" fill="#ffffff" stroke="#ffffff" xlink:href="#b"/>
</g>
<g clip-path="url(#a)">
<use x="120.83559" y="397.045465" fill="#ffffff" stroke="#ffffff" xlink:href="#b"/>
</g>
<g clip-path="url(#a)">
<use x="866.135397" y="397.045465" fill="#ffffff" stroke="#ffffff" xlink:href="#b"/>
</g>
<g clip-path="url(#a)">
<defs>
<path id="o" d="m30.609 48.391q-7.2188 0-11.422-5.6406t-4.2031-15.453 4.1719-15.453q4.1875-5.6406 11.453-5.6406 7.1875 0 11.375 5.6562 4.2031 5.6719 4.2031 15.438 0 9.7188-4.2031 15.406-4.1875 5.6875-11.375 5.6875zm0 7.6094q11.719 0 18.406-7.625 6.7031-7.6094 6.7031-21.078 0-13.422-6.7031-21.078-6.6875-7.6406-18.406-7.6406-11.766 0-18.438 7.6406-6.6562 7.6562-6.6562 21.078 0 13.469 6.6562 21.078 6.6719 7.625 18.438 7.625z"/>
</defs>
<g transform="translate(34.545 460.94) scale(.1 -.1)">
<use xlink:href="#t"/>
<use x="77.001953" xlink:href="#o"/>
</g>
</g>
<g clip-path="url(#a)">
<defs>
<path id="as" d="m17.922 72.906v-27.109h-8.2969v27.109z"/>
<path id="w" d="m18.312 70.219v-15.531h18.5v-6.9844h-18.5v-29.688q0-6.6875 1.8281-8.5938t7.4531-1.9062h9.2188v-7.5156h-9.2188q-10.406 0-14.359 3.875-3.9531 3.8906-3.9531 14.141v29.688h-6.5938v6.9844h6.5938v15.531z"/>
</defs>
<g transform="translate(48.182 460.94) scale(.1 -.1)">
<use xlink:href="#f"/>
<use x="63.378906" xlink:href="#as"/>
<use x="90.869141" xlink:href="#w"/>
</g>
</g>
<g clip-path="url(#a)">
<defs>
<path id="av" d="m9.0781 75.984h9.0312v-44.875l26.812 23.578h11.469l-29-25.578 30.234-29.109h-11.719l-27.797 26.703v-26.703h-9.0312z"/>
<path id="aj" d="m4.2031 54.688h8.9844l11.234-42.672 11.172 42.672h10.594l11.234-42.672 11.188 42.672h8.9844l-14.312-54.688h-10.594l-11.766 44.828-11.812-44.828h-10.609z"/>
</defs>
<g transform="translate(59.112 460.94) scale(.1 -.1)">
<use xlink:href="#av"/>
<use x="57.910156" xlink:href="#f"/>
<use x="121.289062" xlink:href="#o"/>
<use x="182.470703" xlink:href="#aj"/>
</g>
</g>
<g clip-path="url(#a)">
<defs>
<path id="x" d="m54.891 33.016v-33.016h-8.9844v32.719q0 7.7656-3.0312 11.609-3.0312 3.8594-9.0781 3.8594-7.2812 0-11.484-4.6406-4.2031-4.625-4.2031-12.641v-30.906h-9.0312v75.984h9.0312v-29.797q3.2344 4.9375 7.5938 7.375 4.375 2.4375 10.094 2.4375 9.4219 0 14.25-5.8281 4.8438-5.8281 4.8438-17.156z"/>
</defs>
<g transform="translate(79.021 460.94) scale(.1 -.1)">
<use xlink:href="#aj"/>
<use x="81.787109" xlink:href="#x"/>
<use x="145.166016" xlink:href="#d"/>
<use x="206.689453" xlink:href="#i"/>
<use x="245.552734" xlink:href="#d"/>
</g>
</g>
<g clip-path="url(#a)">
<defs>
<path id="r" d="m44.281 53.078v-8.5q-3.7969 1.9531-7.9062 2.9219-4.0938 0.98438-8.5 0.98438-6.6875 0-10.031-2.0469t-3.3438-6.1562q0-3.125 2.3906-4.9062t9.625-3.3906l3.0781-0.6875q9.5625-2.0469 13.594-5.7812t4.0312-10.422q0-7.625-6.0312-12.078-6.0312-4.4375-16.578-4.4375-4.3906 0-9.1562 0.85938t-10.031 2.5625v9.2812q4.9844-2.5938 9.8125-3.8906 4.8281-1.2812 9.5781-1.2812 6.3438 0 9.75 2.1719 3.4219 2.1719 3.4219 6.125 0 3.6562-2.4688 5.6094-2.4531 1.9531-10.812 3.7656l-3.125 0.73438q-8.3438 1.75-12.062 5.3906-3.7031 3.6406-3.7031 9.9844 0 7.7188 5.4688 11.906 5.4688 4.2031 15.531 4.2031 4.9688 0 9.3594-0.73438 4.4062-0.71875 8.1094-2.1875z"/>
</defs>
<g transform="translate(110.69 460.94) scale(.1 -.1)">
<use xlink:href="#d"/>
<use x="61.523438" xlink:href="#g"/>
<use x="89.306641" xlink:href="#r"/>
<use x="141.40625" xlink:href="#d"/>
</g>
</g>
<g clip-path="url(#a)">
<defs>
<path id="at" d="m32.172-5.0781q-3.7969-9.7656-7.4219-12.734-3.6094-2.9844-9.6562-2.9844h-7.1875v7.5156h5.2812q3.7031 0 5.75 1.7656 2.0625 1.75 4.5469 8.2969l1.6094 4.0938-22.109 53.812h9.5156l17.094-42.766 17.094 42.766h9.5156z"/>
<path id="v" d="m8.5 21.578v33.109h8.9844v-32.766q0-7.7656 3.0156-11.656 3.0312-3.875 9.0938-3.875 7.2656 0 11.484 4.6406 4.2344 4.6406 4.2344 12.656v31h8.9844v-54.688h-8.9844v8.4062q-3.2656-4.9844-7.5938-7.4062-4.3125-2.4219-10.031-2.4219-9.4219 0-14.312 5.8594-4.875 5.8594-4.875 17.141z"/>
</defs>
<g transform="translate(142.52 460.94) scale(.1 -.1)">
<use xlink:href="#at"/>
<use x="59.179688" xlink:href="#o"/>
<use x="120.361328" xlink:href="#v"/>
</g>
</g>
<g clip-path="url(#a)">
<defs>
<path id="al" d="m48.781 52.594v-8.4062q-3.8125 2.1094-7.6406 3.1562t-7.7344 1.0469q-8.75 0-13.594-5.5469-4.8281-5.5312-4.8281-15.547t4.8281-15.562q4.8438-5.5312 13.594-5.5312 3.9062 0 7.7344 1.0469t7.6406 3.1562v-8.3125q-3.7656-1.75-7.7969-2.625-4.0156-0.89062-8.5625-0.89062-12.359 0-19.641 7.7656-7.2656 7.7656-7.2656 20.953 0 13.375 7.3438 21.031 7.3594 7.6719 20.156 7.6719 4.1406 0 8.0938-0.85938 3.9531-0.84375 7.6719-2.5469z"/>
</defs>
<g transform="translate(178 460.94) scale(.1 -.1)">
<use xlink:href="#al"/>
<use x="54.980469" xlink:href="#h"/>
<use x="116.259766" xlink:href="#f"/>
</g>
</g>
<g clip-path="url(#a)">
<defs>
<path id="ak" d="m37.109 75.984v-7.4844h-8.5938q-4.8281 0-6.7188-1.9531-1.875-1.9531-1.875-7.0312v-4.8281h14.797v-6.9844h-14.797v-47.703h-9.0312v47.703h-8.5938v6.9844h8.5938v3.8125q0 9.125 4.25 13.297 4.25 4.1875 13.469 4.1875z"/>
<path id="y" d="m45.406 46.391v29.594h8.9844v-75.984h-8.9844v8.2031q-2.8281-4.875-7.1562-7.25-4.3125-2.375-10.375-2.375-9.9062 0-16.141 7.9062-6.2188 7.9219-6.2188 20.812t6.2188 20.797q6.2344 7.9062 16.141 7.9062 6.0625 0 10.375-2.375 4.3281-2.3594 7.1562-7.2344zm-30.609-19.094q0-9.9062 4.0781-15.547t11.203-5.6406 11.219 5.6406q4.1094 5.6406 4.1094 15.547t-4.1094 15.547q-4.0938 5.6406-11.219 5.6406t-11.203-5.6406-4.0781-15.547z"/>
</defs>
<g transform="translate(217.18 460.94) scale(.1 -.1)">
<use xlink:href="#ak"/>
<use x="35.205078" xlink:href="#j"/>
<use x="62.988281" xlink:href="#f"/>
<use x="126.367188" xlink:href="#y"/>
</g>
</g>
<g clip-path="url(#a)">
<defs>
<path id="au" d="m18.109 8.2031v-29h-9.0312v75.484h9.0312v-8.2969q2.8438 4.875 7.1562 7.2344 4.3281 2.375 10.328 2.375 9.9688 0 16.188-7.9062 6.2344-7.9062 6.2344-20.797t-6.2344-20.812q-6.2188-7.9062-16.188-7.9062-6 0-10.328 2.375-4.3125 2.375-7.1562 7.25zm30.578 19.094q0 9.9062-4.0781 15.547t-11.203 5.6406q-7.1406 0-11.219-5.6406t-4.0781-15.547 4.0781-15.547 11.219-5.6406q7.125 0 11.203 5.6406t4.0781 15.547z"/>
</defs>
<g transform="translate(254.99 460.94) scale(.1 -.1)">
<use xlink:href="#p"/>
<use x="58.552734" xlink:href="#v"/>
<use x="121.931641" xlink:href="#i"/>
<use x="163.044922" xlink:href="#au"/>
<use x="226.521484" xlink:href="#g"/>
<use x="254.304688" xlink:href="#d"/>
</g>
</g>
<g clip-path="url(#a)">
<g transform="translate(309.58 460.94) scale(.1 -.1)">
<use xlink:href="#aa"/>
<use x="75.195312" xlink:href="#v"/>
<use x="138.574219" xlink:href="#g"/>
<use x="166.357422" xlink:href="#g"/>
</g>
</g>
<g clip-path="url(#a)">
<g transform="translate(360.63 460.94) scale(.1 -.1)">
<use xlink:href="#p"/>
<use x="56.677734" xlink:href="#d"/>
<use x="118.201172" xlink:href="#h"/>
<use x="179.480469" xlink:href="#r"/>
</g>
</g>
<g clip-path="url(#a)">
<g transform="translate(420.13 460.94) scale(.1 -.1)">
<use xlink:href="#h"/>
<use x="61.279297" xlink:href="#f"/>
<use x="124.658203" xlink:href="#y"/>
</g>
</g>
<g clip-path="url(#a)">
<g transform="translate(477.67 460.94) scale(.1 -.1)">
<use xlink:href="#r"/>
<use x="52.099609" xlink:href="#o"/>
<use x="113.28125" xlink:href="#l"/>
<use x="210.693359" xlink:href="#d"/>
</g>
</g>
<g clip-path="url(#a)">
<g transform="translate(552.61 460.94) scale(.1 -.1)">
<use xlink:href="#o"/>
<use x="61.181641" xlink:href="#ak"/>
</g>
</g>
<g clip-path="url(#a)">
<g transform="translate(619.79 460.94) scale(.1 -.1)">
<use xlink:href="#w"/>
<use x="39.208984" xlink:href="#x"/>
<use x="102.587891" xlink:href="#d"/>
</g>
</g>
<g clip-path="url(#a)">
<g transform="translate(689.64 460.94) scale(.1 -.1)">
<use xlink:href="#o"/>
<use x="61.181641" xlink:href="#w"/>
<use x="100.390625" xlink:href="#x"/>
<use x="163.769531" xlink:href="#d"/>
<use x="225.292969" xlink:href="#i"/>
</g>
</g>
<g clip-path="url(#a)">
<g transform="translate(769.5 460.94) scale(.1 -.1)">
<use xlink:href="#r"/>
<use x="52.099609" xlink:href="#j"/>
<use x="79.882812" xlink:href="#y"/>
<use x="143.359375" xlink:href="#d"/>
<use x="204.882812" xlink:href="#r"/>
</g>
</g>
<g clip-path="url(#a)">
<defs>
<path id="e" d="m10.688 12.406h10.312v-12.406h-10.312z"/>
</defs>
<g transform="translate(864.55 460.94) scale(.1 -.1)">
<use xlink:href="#e"/>
</g>
</g>
<g clip-path="url(#a)">
<defs>
<path id="s" d="m9.8125 72.906h9.8594v-72.906h-9.8594z"/>
<path id="ap" d="m9.8125 72.906h14.703l18.594-49.609 18.703 49.609h14.703v-72.906h-9.625v64.016l-18.797-50h-9.9062l-18.797 50v-64.016h-9.5781z"/>
<path id="aq" d="m9.8125 72.906h9.8594v-64.609h35.5v-8.2969h-45.359z"/>
</defs>
<g transform="translate(849.46 150.3) scale(.1 -.1)">
<use xlink:href="#s"/>
<use x="29.492188" xlink:href="#ap"/>
<use x="115.771484" xlink:href="#p"/>
<use x="176.074219" xlink:href="#aq"/>
<use x="231.787109" xlink:href="#s"/>
<use x="261.279297" xlink:href="#n"/>
<use x="331.103516" xlink:href="#s"/>
<use x="360.595703" xlink:href="#k"/>
</g>
</g>
<g clip-path="url(#a)">
<defs>
<path id="c" d="m12.406 8.2969h16.109v55.625l-17.531-3.5156v8.9844l17.438 3.5156h9.8594v-64.609h16.109v-8.2969h-41.984z"/>
</defs>
<g transform="translate(91.998 24.578) scale(.1 -.1)">
<use xlink:href="#c"/>
<use x="63.623047" xlink:href="#e"/>
<use x="95.410156" xlink:href="#c"/>
</g>
</g>
<g clip-path="url(#a)">
<defs>
<path id="m" d="m19.188 8.2969h34.422v-8.2969h-46.281v8.2969q5.6094 5.8125 15.297 15.594 9.7031 9.7969 12.188 12.641 4.7344 5.3125 6.6094 9 1.8906 3.6875 1.8906 7.25 0 5.8125-4.0781 9.4688-4.0781 3.6719-10.625 3.6719-4.6406 0-9.7969-1.6094-5.1406-1.6094-11-4.8906v9.9688q5.9531 2.3906 11.125 3.6094 5.1875 1.2188 9.4844 1.2188 11.328 0 18.062-5.6719 6.7344-5.6562 6.7344-15.125 0-4.5-1.6875-8.5312-1.6719-4.0156-6.125-9.4844-1.2188-1.4219-7.7656-8.1875-6.5312-6.7656-18.453-18.922z"/>
</defs>
<g transform="translate(91.998 87.491) scale(.1 -.1)">
<use xlink:href="#c"/>
<use x="63.623047" xlink:href="#e"/>
<use x="95.410156" xlink:href="#m"/>
</g>
</g>
<g clip-path="url(#a)">
<defs>
<path id="u" d="m10.797 72.906h38.719v-8.3125h-29.688v-17.859q2.1406 0.73438 4.2812 1.0938 2.1562 0.35938 4.3125 0.35938 12.203 0 19.328-6.6875 7.1406-6.6875 7.1406-18.109 0-11.766-7.3281-18.297-7.3281-6.5156-20.656-6.5156-4.5938 0-9.3594 0.78125-4.75 0.78125-9.8281 2.3438v9.9219q4.3906-2.3906 9.0781-3.5625t9.9062-1.1719q8.4531 0 13.375 4.4375 4.9375 4.4375 4.9375 12.062 0 7.6094-4.9375 12.047-4.9219 4.4531-13.375 4.4531-3.9531 0-7.8906-0.875-3.9219-0.875-8.0156-2.7344z"/>
</defs>
<g transform="translate(33.503 399.8) scale(.1 -.1)">
<use xlink:href="#c"/>
<use x="63.623047" xlink:href="#e"/>
<use x="95.410156" xlink:href="#u"/>
</g>
</g>
<g clip-path="url(#a)">
<defs>
<path id="af" d="m33.016 40.375q-6.6406 0-10.531-4.5469-3.875-4.5312-3.875-12.438 0-7.8594 3.875-12.438 3.8906-4.5625 10.531-4.5625t10.516 4.5625q3.875 4.5781 3.875 12.438 0 7.9062-3.875 12.438-3.875 4.5469-10.516 4.5469zm19.578 30.922v-8.9844q-3.7188 1.75-7.5 2.6719-3.7812 0.9375-7.5 0.9375-9.7656 0-14.922-6.5938-5.1406-6.5938-5.875-19.922 2.875 4.25 7.2188 6.5156 4.3594 2.2656 9.5781 2.2656 10.984 0 17.359-6.6719 6.375-6.6562 6.375-18.125 0-11.234-6.6406-18.031-6.6406-6.7812-17.672-6.7812-12.656 0-19.344 9.6875-6.6875 9.7031-6.6875 28.109 0 17.281 8.2031 27.562t22.016 10.281q3.7188 0 7.5-0.73438t7.8906-2.1875z"/>
</defs>
<g transform="translate(46.733 399.8) scale(.1 -.1)">
<use xlink:href="#c"/>
<use x="63.623047" xlink:href="#e"/>
<use x="95.410156" xlink:href="#af"/>
</g>
</g>
<g clip-path="url(#a)">
<defs>
<path id="ae" d="m8.2031 72.906h46.875v-4.2031l-26.469-68.703h-10.297l24.906 64.594h-35.016z"/>
</defs>
<g transform="translate(64.373 399.8) scale(.1 -.1)">
<use xlink:href="#c"/>
<use x="63.623047" xlink:href="#e"/>
<use x="95.410156" xlink:href="#ae"/>
</g>
</g>
<g clip-path="url(#a)">
<defs>
<path id="ad" d="m31.781 34.625q-7.0312 0-11.062-3.7656-4.0156-3.7656-4.0156-10.344 0-6.5938 4.0156-10.359 4.0312-3.7656 11.062-3.7656t11.078 3.7812q4.0625 3.7969 4.0625 10.344 0 6.5781-4.0312 10.344-4.0156 3.7656-11.109 3.7656zm-9.8594 4.1875q-6.3438 1.5625-9.8906 5.9062-3.5312 4.3594-3.5312 10.609 0 8.7344 6.2188 13.812 6.2344 5.0781 17.062 5.0781 10.891 0 17.094-5.0781t6.2031-13.812q0-6.25-3.5469-10.609-3.5312-4.3438-9.8281-5.9062 7.125-1.6562 11.094-6.5 3.9844-4.8281 3.9844-11.797 0-10.609-6.4688-16.281-6.4688-5.6562-18.531-5.6562-12.047 0-18.531 5.6562-6.4688 5.6719-6.4688 16.281 0 6.9688 4 11.797 4.0156 4.8438 11.141 6.5zm-3.6094 15.578q0-5.6562 3.5312-8.8281 3.5469-3.1719 9.9375-3.1719 6.3594 0 9.9375 3.1719 3.5938 3.1719 3.5938 8.8281 0 5.6719-3.5938 8.8438-3.5781 3.1719-9.9375 3.1719-6.3906 0-9.9375-3.1719-3.5312-3.1719-3.5312-8.8438z"/>
</defs>
<g transform="translate(223.38 150.3) scale(.1 -.1)">
<use xlink:href="#c"/>
<use x="63.623047" xlink:href="#e"/>
<use x="95.410156" xlink:href="#ad"/>
</g>
</g>
<g clip-path="url(#a)">
<defs>
<path id="ac" d="m10.984 1.5156v8.9844q3.7188-1.7656 7.5156-2.6875 3.8125-0.92188 7.4844-0.92188 9.7656 0 14.906 6.5625 5.1562 6.5625 5.8906 19.953-2.8281-4.2031-7.1875-6.4531-4.3438-2.25-9.6094-2.25-10.938 0-17.312 6.6094-6.375 6.625-6.375 18.109 0 11.219 6.6406 18 6.6406 6.7969 17.672 6.7969 12.656 0 19.312-9.7031 6.6719-9.6875 6.6719-28.141 0-17.234-8.1875-27.516-8.1719-10.281-21.984-10.281-3.7188 0-7.5312 0.73438-3.7969 0.73438-7.9062 2.2031zm19.625 30.906q6.6406 0 10.516 4.5312 3.8906 4.5469 3.8906 12.469 0 7.8594-3.8906 12.422-3.875 4.5625-10.516 4.5625t-10.516-4.5625-3.875-12.422q0-7.9219 3.875-12.469 3.875-4.5312 10.516-4.5312z"/>
</defs>
<g transform="translate(99.654 337.82) scale(.1 -.1)">
<use xlink:href="#c"/>
<use x="63.623047" xlink:href="#e"/>
<use x="95.410156" xlink:href="#ac"/>
</g>
</g>
<g clip-path="url(#a)">
<defs>
<path id="ai" d="m31.781 66.406q-7.6094 0-11.453-7.5-3.8281-7.4844-3.8281-22.531 0-14.984 3.8281-22.484 3.8438-7.5 11.453-7.5 7.6719 0 11.5 7.5 3.8438 7.5 3.8438 22.484 0 15.047-3.8438 22.531-3.8281 7.5-11.5 7.5zm0 7.8125q12.266 0 18.734-9.7031 6.4688-9.6875 6.4688-28.141 0-18.406-6.4688-28.109-6.4688-9.6875-18.734-9.6875-12.25 0-18.719 9.6875-6.4688 9.7031-6.4688 28.109 0 18.453 6.4688 28.141 6.4688 9.7031 18.719 9.7031z"/>
</defs>
<g transform="translate(140.57 399.8) scale(.1 -.1)">
<use xlink:href="#c"/>
<use x="63.623047" xlink:href="#e"/>
<use x="95.410156" xlink:href="#c"/>
<use x="159.033203" xlink:href="#ai"/>
</g>
</g>
<g clip-path="url(#a)">
<g transform="translate(175.85 399.8) scale(.1 -.1)">
<use xlink:href="#c"/>
<use x="63.623047" xlink:href="#e"/>
<use x="95.410156" xlink:href="#c"/>
<use x="159.033203" xlink:href="#c"/>
</g>
</g>
<g clip-path="url(#a)">
<g transform="translate(215.54 399.8) scale(.1 -.1)">
<use xlink:href="#c"/>
<use x="63.623047" xlink:href="#e"/>
<use x="95.410156" xlink:href="#c"/>
<use x="159.033203" xlink:href="#m"/>
</g>
</g>
<g clip-path="url(#a)">
<defs>
<path id="ah" d="m40.578 39.312q7.0781-1.5156 11.047-6.3125 3.9844-4.7812 3.9844-11.812 0-10.781-7.4219-16.703-7.4219-5.9062-21.094-5.9062-4.5781 0-9.4375 0.90625t-10.031 2.7188v9.5156q4.0938-2.3906 8.9688-3.6094 4.8906-1.2188 10.219-1.2188 9.2656 0 14.125 3.6562t4.8594 10.641q0 6.4531-4.5156 10.078-4.5156 3.6406-12.562 3.6406h-8.5v8.1094h8.8906q7.2656 0 11.125 2.9062t3.8594 8.375q0 5.6094-3.9844 8.6094-3.9688 3.0156-11.391 3.0156-4.0625 0-8.7031-0.89062-4.6406-0.875-10.203-2.7188v8.7812q5.625 1.5625 10.531 2.3438t9.25 0.78125q11.234 0 17.766-5.1094 6.5469-5.0938 6.5469-13.781 0-6.0625-3.4688-10.234t-9.8594-5.7812z"/>
</defs>
<g transform="translate(472.55 212.98) scale(.1 -.1)">
<use xlink:href="#c"/>
<use x="63.623047" xlink:href="#e"/>
<use x="95.410156" xlink:href="#c"/>
<use x="159.033203" xlink:href="#ah"/>
</g>
</g>
<g clip-path="url(#a)">
<defs>
<path id="ag" d="m37.797 64.312-24.906-38.922h24.906zm-2.5938 8.5938h12.406v-47.516h10.406v-8.2031h-10.406v-17.188h-9.8125v17.188h-32.906v9.5156z"/>
</defs>
<g transform="translate(309.63 399.8) scale(.1 -.1)">
<use xlink:href="#c"/>
<use x="63.623047" xlink:href="#e"/>
<use x="95.410156" xlink:href="#c"/>
<use x="159.033203" xlink:href="#ag"/>
</g>
</g>
<g clip-path="url(#a)">
<g transform="translate(418.41 399.8) scale(.1 -.1)">
<use xlink:href="#c"/>
<use x="63.623047" xlink:href="#e"/>
<use x="95.410156" xlink:href="#c"/>
<use x="159.033203" xlink:href="#u"/>
</g>
</g>
<g clip-path="url(#a)">
<g transform="translate(689.63 275.51) scale(.1 -.1)">
<use xlink:href="#c"/>
<use x="63.623047" xlink:href="#e"/>
<use x="95.410156" xlink:href="#c"/>
<use x="159.033203" xlink:href="#af"/>
</g>
</g>
<g clip-path="url(#a)">
<g transform="translate(513.22 337.82) scale(.1 -.1)">
<use xlink:href="#c"/>
<use x="63.623047" xlink:href="#e"/>
<use x="95.410156" xlink:href="#c"/>
<use x="159.033203" xlink:href="#ae"/>
</g>
</g>
<g clip-path="url(#a)">
<g transform="translate(616.86 399.8) scale(.1 -.1)">
<use xlink:href="#c"/>
<use x="63.623047" xlink:href="#e"/>
<use x="95.410156" xlink:href="#c"/>
<use x="159.033203" xlink:href="#ad"/>
</g>
</g>
<g clip-path="url(#a)">
<g transform="translate(691.83 399.8) scale(.1 -.1)">
<use xlink:href="#c"/>
<use x="63.623047" xlink:href="#e"/>
<use x="95.410156" xlink:href="#c"/>
<use x="159.033203" xlink:href="#ac"/>
</g>
</g>
<g clip-path="url(#a)">
<g transform="translate(771.21 399.8) scale(.1 -.1)">
<use xlink:href="#c"/>
<use x="63.623047" xlink:href="#e"/>
<use x="95.410156" xlink:href="#m"/>
<use x="159.033203" xlink:href="#ai"/>
</g>
</g>
<g clip-path="url(#a)">
<g transform="translate(480.15 399.8) scale(.1 -.1)">
<use xlink:href="#c"/>
<use x="63.623047" xlink:href="#e"/>
<use x="95.410156" xlink:href="#m"/>
<use x="159.033203" xlink:href="#c"/>
</g>
</g>
<g clip-path="url(#a)">
<g transform="translate(546.3 399.8) scale(.1 -.1)">
<use xlink:href="#c"/>
<use x="63.623047" xlink:href="#e"/>
<use x="95.410156" xlink:href="#m"/>
<use x="159.033203" xlink:href="#m"/>
</g>
</g>
<g clip-path="url(#a)">
<g transform="translate(83.242 399.8) scale(.1 -.1)">
<use xlink:href="#c"/>
<use x="63.623047" xlink:href="#e"/>
<use x="95.410156" xlink:href="#m"/>
<use x="159.033203" xlink:href="#ah"/>
</g>
</g>
<g clip-path="url(#a)">
<g transform="translate(109.7 399.8) scale(.1 -.1)">
<use xlink:href="#c"/>
<use x="63.623047" xlink:href="#e"/>
<use x="95.410156" xlink:href="#m"/>
<use x="159.033203" xlink:href="#ag"/>
</g>
</g>
<g clip-path="url(#a)">
<g transform="translate(855 399.8) scale(.1 -.1)">
<use xlink:href="#c"/>
<use x="63.623047" xlink:href="#e"/>
<use x="95.410156" xlink:href="#m"/>
<use x="159.033203" xlink:href="#u"/>
</g>
</g>
<defs>
<clipPath id="a">
<rect width="912" height="480"/>
</clipPath>
</defs>
</svg>
