<?xml version="1.0" encoding="UTF-8"?>
<!DOCTYPE svg  PUBLIC '-//W3C//DTD SVG 1.1//EN'  'http://www.w3.org/Graphics/SVG/1.1/DTD/svg11.dtd'>
<svg width="1570.7pt" height="826.67pt" version="1.1" viewBox="0 0 1570.7 826.67" xmlns="http://www.w3.org/2000/svg" xmlns:xlink="http://www.w3.org/1999/xlink">
<metadata>
<rdf:RDF xmlns:cc="http://creativecommons.org/ns#" xmlns:dc="http://purl.org/dc/elements/1.1/" xmlns:rdf="http://www.w3.org/1999/02/22-rdf-syntax-ns#">
<cc:Work>
<dc:type rdf:resource="http://purl.org/dc/dcmitype/StillImage"/>
<dc:date>2021-02-25T11:30:13.568560</dc:date>
<dc:format>image/svg+xml</dc:format>
<dc:creator>
<cc:Agent>
<dc:title>Matplotlib v3.3.3, https://matplotlib.org/</dc:title>
</cc:Agent>
</dc:creator>
</cc:Work>
</rdf:RDF>
</metadata>
<defs>
<style type="text/css">*{stroke-linecap:butt;stroke-linejoin:round;}</style>
</defs>
<path d="m0 826.67h1570.7v-826.67h-1570.7z" fill="#fff"/>
<g fill="none" stroke="#000">
<path d="m418.62 37.576-347.23 453.65" clip-path="url(#a)"/>
<path d="m418.62 37.576-274.35 302.9" clip-path="url(#a)"/>
<path d="m418.62 37.576-105.9 151.64" clip-path="url(#a)"/>
<path d="m418.62 37.576 187.22 453.65" clip-path="url(#a)"/>
<path d="m418.62 37.576-8.4764 453.65" clip-path="url(#a)"/>
<path d="m418.62 37.576 642.78 151.64" clip-path="url(#a)"/>
<path d="m418.62 37.576-336.43 603.61" clip-path="url(#a)"/>
<path d="m418.62 37.576-325.63 603.61" clip-path="url(#a)"/>
<path d="m418.62 37.576-204.17 603.61" clip-path="url(#a)"/>
<path d="m418.62 37.576 108.94 603.61" clip-path="url(#a)"/>
<path d="m418.62 37.576 270.89 603.61" clip-path="url(#a)"/>
<path d="m418.62 37.576 392.36 603.61" clip-path="url(#a)"/>
<path d="m71.394 491.23 2.6992 149.96" clip-path="url(#a)"/>
<path d="m71.394 491.23v149.96" clip-path="url(#a)"/>
<path d="m144.27 340.48-37.789 150.75" clip-path="url(#a)"/>
<path d="m144.27 340.48-21.594 300.71" clip-path="url(#a)"/>
<path d="m144.27 340.48-2.6992 300.71" clip-path="url(#a)"/>
<path d="m144.27 340.48 18.894 300.71" clip-path="url(#a)"/>
<path d="m144.27 340.48 43.187 300.71" clip-path="url(#a)"/>
<path d="m312.72 189.22-68.577 451.97" clip-path="url(#a)"/>
<path d="m312.72 189.22-36.186 451.97" clip-path="url(#a)"/>
<path d="m312.72 189.22-1.0966 451.97" clip-path="url(#a)"/>
<path d="m312.72 189.22 105.86 151.26" clip-path="url(#a)"/>
<path d="m605.84 491.23-26.992 149.96" clip-path="url(#a)"/>
<path d="m605.84 491.23 26.992 149.96" clip-path="url(#a)"/>
<path d="m410.14 491.23 338.75 149.96" clip-path="url(#a)"/>
<path d="m410.14 491.23-338.75 149.96" clip-path="url(#a)" stroke-dasharray="3.7,1.6"/>
<path d="m1061.4 189.22 437.87 151.26" clip-path="url(#a)"/>
<path d="m1061.4 189.22-185.65 451.97" clip-path="url(#a)"/>
<path d="m1061.4 189.22-47.086 302.01" clip-path="url(#a)"/>
<path d="m1061.4 189.22 232.73 151.26" clip-path="url(#a)"/>
<path d="m875.76 641.19v147.9" clip-path="url(#a)"/>
<path d="m1014.3 491.23-71.079 149.96" clip-path="url(#a)"/>
<path d="m1014.3 491.23-0.89973 149.96" clip-path="url(#a)"/>
<path d="m1014.3 491.23 71.979 149.96" clip-path="url(#a)"/>
<path d="m1294.1 340.48-132.26 300.71" clip-path="url(#a)"/>
<path d="m1294.1 340.48-53.984 150.75" clip-path="url(#a)"/>
<path d="m1294.1 340.48 29.691 300.71" clip-path="url(#a)"/>
<path d="m1294.1 340.48 156.55 150.75" clip-path="url(#a)"/>
<path d="m1161.9 641.19v147.9" clip-path="url(#a)"/>
<path d="m1240.1 491.23 2.6992 149.96" clip-path="url(#a)"/>
<path d="m1240.1 491.23v149.96" clip-path="url(#a)"/>
<path d="m1323.8 641.19v147.9" clip-path="url(#a)"/>
<path d="m1450.7 491.23 48.586 149.96" clip-path="url(#a)"/>
<path d="m1450.7 491.23-43.187 149.96" clip-path="url(#a)"/>
<path d="m1450.7 491.23 43.187 149.96" clip-path="url(#a)"/>
<path d="m1407.5 641.19v147.9" clip-path="url(#a)"/>
<path d="m1240.1 641.19v147.9" clip-path="url(#a)"/>
<path d="m943.24 641.19v147.9" clip-path="url(#a)"/>
<path d="m1013.4 641.19v147.9" clip-path="url(#a)"/>
<path d="m1086.3 641.19v147.9" clip-path="url(#a)"/>
<path d="m748.89 641.19v147.9" clip-path="url(#a)"/>
<path d="m578.84 641.19v147.9" clip-path="url(#a)"/>
<path d="m632.83 641.19v147.9" clip-path="url(#a)"/>
<path d="m244.14 641.19v147.9" clip-path="url(#a)"/>
<path d="m276.53 641.19v147.9" clip-path="url(#a)"/>
<path d="m311.62 641.19v147.9" clip-path="url(#a)"/>
<path d="m418.58 340.48-69.167 300.71" clip-path="url(#a)"/>
<path d="m418.58 340.48-28.679 300.71" clip-path="url(#a)"/>
<path d="m418.58 340.48 37.451 150.75" clip-path="url(#a)"/>
<path d="m418.58 340.48 60.395 300.71" clip-path="url(#a)"/>
<path d="m349.41 641.19v147.9" clip-path="url(#a)"/>
<path d="m389.9 641.19v147.9" clip-path="url(#a)"/>
<path d="m456.03 491.23 22.943 149.96" clip-path="url(#a)" stroke-dasharray="3.7,1.6"/>
<path d="m456.03 491.23-22.943 149.96" clip-path="url(#a)"/>
<path d="m478.97 641.19v147.9" clip-path="url(#a)"/>
<path d="m433.09 641.19v147.9" clip-path="url(#a)"/>
<path d="m106.48 491.23v149.96" clip-path="url(#a)"/>
<path d="m122.68 641.19v147.9" clip-path="url(#a)"/>
<path d="m141.57 641.19v147.9" clip-path="url(#a)"/>
<path d="m163.17 641.19v147.9" clip-path="url(#a)"/>
<path d="m187.46 641.19v147.9" clip-path="url(#a)"/>
<path d="m106.48 641.19v147.9" clip-path="url(#a)"/>
<path d="m71.394 641.19v147.9" clip-path="url(#a)"/>
<path d="m82.191 641.19v147.9" clip-path="url(#a)"/>
<path d="m92.988 641.19v147.9" clip-path="url(#a)"/>
<path d="m214.45 641.19v147.9" clip-path="url(#a)"/>
<path d="m527.56 641.19v147.9" clip-path="url(#a)"/>
<path d="m689.51 641.19v147.9" clip-path="url(#a)"/>
<path d="m810.98 641.19v147.9" clip-path="url(#a)"/>
<path d="m1493.9 641.19v147.9" clip-path="url(#a)"/>
</g>
<path d="m248.16 270.6 3.6567-4.7774q1.4587-1.9058-0.4471-3.3645l-6.1482-4.7059q-1.9058-1.4587-3.3645 0.4471l-3.6567 4.7774q-1.4587 1.9058 0.4471 3.3645l6.1482 4.7059q1.9058 1.4587 3.3645-0.4471z" clip-path="url(#a)" fill="#fff" stroke="#fff"/>
<g clip-path="url(#a)">
<g transform="translate(244.93 268.13) rotate(-52.569) scale(.08 -.08)">
<defs>
<path id="v" d="m9.8125 72.906h9.8594v-29.891h35.844v29.891h9.8594v-72.906h-9.8594v34.719h-35.844v-34.719h-9.8594z"/>
</defs>
<use xlink:href="#v"/>
</g>
</g>
<path d="m284.08 195.47 4.0387-4.4591q1.6111-1.7788-0.1677-3.39l-5.7386-5.1976q-1.7788-1.6111-3.39 0.1677l-4.0387 4.4591q-1.6111 1.7788 0.1677 3.39l5.7386 5.1976q1.7788 1.6111 3.39-0.1677z" clip-path="url(#a)" fill="#fff" stroke="#fff"/>
<g clip-path="url(#a)">
<g transform="translate(281.06 192.74) rotate(-47.832) scale(.08 -.08)">
<use xlink:href="#v"/>
</g>
</g>
<path d="m369.09 119.45 3.4446-4.9325q1.3741-1.9677-0.59354-3.3418l-6.3478-4.433q-1.9677-1.3741-3.3418 0.59354l-3.4446 4.9325q-1.3741 1.9677 0.59354 3.3418l6.3478 4.433q1.9677 1.3741 3.3418-0.59354z" clip-path="url(#a)" fill="#fff" stroke="#fff"/>
<g clip-path="url(#a)">
<g transform="translate(365.76 117.13) rotate(-55.071) scale(.08 -.08)">
<use xlink:href="#v"/>
</g>
</g>
<path d="m505.28 264.01 2.2951 5.5613q0.91555 2.2185 3.1341 1.303l7.157-2.9536q2.2185-0.91555 1.303-3.1341l-2.2951-5.5613q-0.91555-2.2185-3.1341-1.303l-7.157 2.9536q-2.2185 0.91555-1.303 3.1341z" clip-path="url(#a)" fill="#fff" stroke="#fff"/>
<g clip-path="url(#a)">
<g transform="translate(509.04 262.46) rotate(67.575) scale(.08 -.08)">
<use xlink:href="#v"/>
</g>
</g>
<path d="m420.6 267.53 0.11239-6.0152q0.044836-2.3996-2.3547-2.4444l-7.7411-0.14464q-2.3996-0.044836-2.4444 2.3547l-0.11239 6.0152q-0.044836 2.3996 2.3547 2.4444l7.7411 0.14464q2.3996 0.044836 2.4444-2.3547z" clip-path="url(#a)" fill="#fff" stroke="#fff"/>
<g clip-path="url(#a)">
<g transform="translate(416.53 267.45) rotate(-88.93) scale(.08 -.08)">
<use xlink:href="#v"/>
</g>
</g>
<path d="m735.64 118.81 5.8555 1.3814q2.3359 0.55107 2.887-1.7848l1.7778-7.5356q0.55107-2.3359-1.7848-2.887l-5.8555-1.3814q-2.3359-0.55107-2.8869 1.7848l-1.7778 7.5356q-0.55107 2.3359 1.7848 2.887z" clip-path="url(#a)" fill="#fff" stroke="#fff"/>
<g clip-path="url(#a)">
<g transform="translate(736.58 114.86) rotate(13.274) scale(.08 -.08)">
<use xlink:href="#v"/>
</g>
</g>
<path d="m254.46 344.99 2.8505-5.1143q1.1684-2.0964-0.92794-3.2648l-6.763-3.7694q-2.0964-1.1684-3.2648 0.92793l-2.8505 5.1143q-1.1684 2.0964 0.92794 3.2648l6.763 3.7694q2.0964 1.1684 3.2648-0.92793z" clip-path="url(#a)" fill="#fff" stroke="#fff"/>
<g clip-path="url(#a)">
<g transform="translate(250.91 343.01) rotate(-60.866) scale(.08 -.08)">
<defs>
<path id="w" d="m8.6875 72.906h9.9219v-44.297q0-11.719 4.2344-16.875 4.25-5.1406 13.781-5.1406 9.4688 0 13.719 5.1406 4.25 5.1562 4.25 16.875v44.297h9.9062v-45.516q0-14.25-7.0625-21.531-7.0469-7.2812-20.812-7.2812-13.828 0-20.891 7.2812-7.0469 7.2812-7.0469 21.531z"/>
</defs>
<use xlink:href="#w"/>
</g>
</g>
<path d="m259.93 344.94 2.7799-5.153q1.1395-2.1122-0.97274-3.2517l-6.8142-3.6761q-2.1122-1.1395-3.2517 0.97274l-2.7799 5.153q-1.1395 2.1122 0.97274 3.2517l6.8142 3.6761q2.1122 1.1395 3.2517-0.97274z" clip-path="url(#a)" fill="#fff" stroke="#fff"/>
<g clip-path="url(#a)">
<g transform="translate(256.36 343.01) rotate(-61.654) scale(.08 -.08)">
<use xlink:href="#w"/>
</g>
</g>
<path d="m321.54 344.16 1.876-5.5463q0.76899-2.2735-1.5045-3.0425l-7.3343-2.4808q-2.2735-0.76899-3.0425 1.5045l-1.876 5.5463q-0.76899 2.2735 1.5045 3.0425l7.3343 2.4808q2.2735 0.76899 3.0425-1.5045z" clip-path="url(#a)" fill="#fff" stroke="#fff"/>
<g clip-path="url(#a)">
<g transform="translate(317.69 342.86) rotate(-71.312) scale(.08 -.08)">
<use xlink:href="#w"/>
</g>
</g>
<path d="m466.4 337.61 1.0399 5.7619q0.42626 2.3618 2.7881 1.9356l7.6194-1.3751q2.3618-0.42626 1.9356-2.7881l-1.0399-5.7619q-0.42626-2.3618-2.7881-1.9356l-7.6194 1.3751q-2.3618 0.42626-1.9356 2.7881z" clip-path="url(#a)" fill="#fff" stroke="#fff"/>
<g clip-path="url(#a)">
<g transform="translate(470.4 336.89) rotate(79.769) scale(.08 -.08)">
<use xlink:href="#w"/>
</g>
</g>
<path d="m547.15 339.28 2.3973 5.3417q0.98266 2.1896 3.1723 1.2069l7.0638-3.1701q2.1896-0.98266 1.2069-3.1723l-2.3973-5.3417q-0.98266-2.1896-3.1723-1.2069l-7.0638 3.1701q-2.1896 0.98266-1.2069 3.1723z" clip-path="url(#a)" fill="#fff" stroke="#fff"/>
<g clip-path="url(#a)">
<g transform="translate(550.85 337.61) rotate(65.83) scale(.08 -.08)">
<use xlink:href="#w"/>
</g>
</g>
<path d="m607.94 340.34 3.191 4.9091q1.308 2.0123 3.3202 0.70426l6.4916-4.2196q2.0123-1.308 0.70426-3.3202l-3.191-4.9091q-1.308-2.0123-3.3202-0.70426l-6.4916 4.2196q-2.0123 1.308-0.70426 3.3202z" clip-path="url(#a)" fill="#fff" stroke="#fff"/>
<g clip-path="url(#a)">
<g transform="translate(611.35 338.13) rotate(56.976) scale(.08 -.08)">
<use xlink:href="#w"/>
</g>
</g>
<path d="m66.424 563.58 0.098486 5.4716q0.043191 2.3996 2.4428 2.3564l7.7412-0.13934q2.3996-0.043191 2.3564-2.4428l-0.098485-5.4716q-0.043192-2.3996-2.4428-2.3564l-7.7412 0.13934q-2.3996 0.043192-2.3564 2.4428z" clip-path="url(#a)" fill="#fff" stroke="#fff"/>
<g clip-path="url(#a)">
<g transform="translate(70.487 563.51) rotate(88.969) scale(.08 -.08)">
<defs>
<path id="r" d="m34.188 63.188-13.391-36.281h26.812zm-5.5781 9.7188h11.188l27.781-72.906h-10.25l-6.6406 18.703h-32.859l-6.6406-18.703h-10.406z"/>
</defs>
<use xlink:href="#r"/>
</g>
</g>
<path d="m65.123 563.67v5.0788q0 2.4 2.4 2.4h7.7425q2.4 0 2.4-2.4v-5.0788q0-2.4-2.4-2.4h-7.7425q-2.4 0-2.4 2.4z" clip-path="url(#a)" fill="#fff" stroke="#fff"/>
<g clip-path="url(#a)">
<g transform="translate(69.186 563.67) rotate(90) scale(.08 -.08)">
<defs>
<path id="x" d="m53.516 70.516v-9.625q-5.6094 2.6875-10.594 4-4.9844 1.3281-9.625 1.3281-8.0469 0-12.422-3.125t-4.375-8.8906q0-4.8438 2.9062-7.3125 2.9062-2.4531 11.016-3.9688l5.9531-1.2188q11.031-2.1094 16.281-7.4062t5.25-14.172q0-10.609-7.1094-16.078-7.0938-5.4688-20.812-5.4688-5.1719 0-11.016 1.1719-5.8281 1.1719-12.078 3.4688v10.156q6-3.3594 11.766-5.0781 5.7656-1.7031 11.328-1.7031 8.4375 0 13.031 3.3125 4.5938 3.3281 4.5938 9.4844 0 5.3594-3.2969 8.3906t-10.812 4.5469l-6.0156 1.1719q-11.031 2.1875-15.969 6.875-4.9219 4.6875-4.9219 13.047 0 9.6719 6.8125 15.234t18.766 5.5625q5.1406 0 10.453-0.9375 5.3281-0.92188 10.891-2.7656z"/>
</defs>
<use xlink:href="#x"/>
</g>
</g>
<path d="m130.8 420.03 1.3307-5.3083q0.58357-2.328-1.7444-2.9115l-7.5101-1.8826q-2.328-0.58357-2.9115 1.7444l-1.3307 5.3083q-0.58357 2.328 1.7444 2.9115l7.5101 1.8826q2.328 0.58357 2.9115-1.7444z" clip-path="url(#a)" fill="#fff" stroke="#fff"/>
<g clip-path="url(#a)">
<g transform="translate(126.85 419.04) rotate(-75.927) scale(.08 -.08)">
<use xlink:href="#r"/>
</g>
</g>
<path d="m139.57 493.58 0.32956-4.5894q0.1719-2.3938-2.2219-2.5657l-7.7226-0.55456q-2.3938-0.1719-2.5657 2.2219l-0.32956 4.5894q-0.1719 2.3938 2.2219 2.5657l7.7226 0.55456q2.3938 0.1719 2.5657-2.2219z" clip-path="url(#a)" fill="#fff" stroke="#fff"/>
<g clip-path="url(#a)">
<g transform="translate(135.51 493.29) rotate(-85.893) scale(.08 -.08)">
<defs>
<path id="ap" d="m9.8125 72.906h41.891v-8.3125h-32.031v-21.484h28.906v-8.2969h-28.906v-34.812h-9.8594z"/>
</defs>
<use xlink:href="#ap"/>
</g>
</g>
<path d="m149.17 493.97 0.055291-6.1598q0.021542-2.3999-2.3784-2.4214l-7.7422-0.069495q-2.3999-0.021542-2.4214 2.3784l-0.055291 6.1598q-0.021542 2.3999 2.3784 2.4214l7.7422 0.069495q2.3999 0.021542 2.4214-2.3784z" clip-path="url(#a)" fill="#fff" stroke="#fff"/>
<g clip-path="url(#a)">
<g transform="translate(145.1 493.93) rotate(-89.486) scale(.08 -.08)">
<defs>
<path id="aj" d="m19.672 64.797v-56.688h11.922q15.094 0 22.094 6.8281 7 6.8438 7 21.594 0 14.641-7 21.453t-22.094 6.8125zm-9.8594 8.1094h20.266q21.188 0 31.094-8.8125 9.9219-8.8125 9.9219-27.562 0-18.859-9.9688-27.703-9.9531-8.8281-31.047-8.8281h-20.266z"/>
</defs>
<use xlink:href="#aj"/>
</g>
</g>
<path d="m147.27 488.15 0.38629 6.1479q0.1505 2.3953 2.5458 2.2448l7.7273-0.48553q2.3953-0.1505 2.2448-2.5458l-0.38629-6.1479q-0.1505-2.3953-2.5458-2.2448l-7.7273 0.48553q-2.3953 0.1505-2.2448 2.5458z" clip-path="url(#a)" fill="#fff" stroke="#fff"/>
<g clip-path="url(#a)">
<g transform="translate(151.32 487.9) rotate(86.405) scale(.08 -.08)">
<use xlink:href="#aj"/>
</g>
</g>
<path d="m159.3 489.21 0.722 5.0272q0.34118 2.3756 2.7168 2.0344l7.6639-1.1007q2.3756-0.34118 2.0344-2.7168l-0.72199-5.0272q-0.34118-2.3756-2.7168-2.0344l-7.6639 1.1007q-2.3756 0.34118-2.0344 2.7168z" clip-path="url(#a)" fill="#fff" stroke="#fff"/>
<g clip-path="url(#a)">
<g transform="translate(163.32 488.63) rotate(81.827) scale(.08 -.08)">
<use xlink:href="#x"/>
</g>
</g>
<path d="m284.17 419.19 0.92407-6.0903q0.36003-2.3728-2.0128-2.7329l-7.6549-1.1615q-2.3728-0.36003-2.7329 2.0128l-0.92407 6.0903q-0.36003 2.3728 2.0128 2.7329l7.6549 1.1615q2.3728 0.36003 2.7329-2.0128z" clip-path="url(#a)" fill="#fff" stroke="#fff"/>
<g clip-path="url(#a)">
<g transform="translate(280.15 418.58) rotate(-81.372) scale(.08 -.08)">
<use xlink:href="#aj"/>
</g>
</g>
<path d="m300.68 418.23 0.40532-5.0626q0.19154-2.3923-2.2008-2.5839l-7.7178-0.61792q-2.3923-0.19154-2.5839 2.2008l-0.40533 5.0626q-0.19154 2.3923 2.2008 2.5839l7.7178 0.61791q2.3923 0.19154 2.5839-2.2008z" clip-path="url(#a)" fill="#fff" stroke="#fff"/>
<g clip-path="url(#a)">
<g transform="translate(296.62 417.91) rotate(-85.422) scale(.08 -.08)">
<use xlink:href="#x"/>
</g>
</g>
<path d="m318.44 417.95 0.013277-5.4725q0.005823-2.4-2.3942-2.4058l-7.7425-0.018785q-2.4-0.005823-2.4058 2.3942l-0.013278 5.4725q-0.005822 2.4 2.3942 2.4058l7.7425 0.018784q2.4 0.005823 2.4058-2.3942z" clip-path="url(#a)" fill="#fff" stroke="#fff"/>
<g clip-path="url(#a)">
<g transform="translate(314.37 417.94) rotate(-89.861) scale(.08 -.08)">
<use xlink:href="#r"/>
</g>
</g>
<path d="m358.94 266.2 3.1378 4.4836q1.3761 1.9663 3.3424 0.59019l6.3434-4.4394q1.9663-1.3761 0.59019-3.3424l-3.1378-4.4836q-1.3761-1.9663-3.3424-0.59019l-6.3434 4.4394q-1.9663 1.3761-0.59019 3.3424z" clip-path="url(#a)" fill="#fff" stroke="#fff"/>
<g clip-path="url(#a)">
<g transform="translate(362.27 263.87) rotate(55.014) scale(.08 -.08)">
<use xlink:href="#r"/>
</g>
</g>
<path d="m598.06 569.82 0.89969-4.9984q0.42515-2.362-1.9369-2.7872l-7.62-1.3716q-2.362-0.42515-2.7872 1.9369l-0.89969 4.9984q-0.42515 2.362 1.9369 2.7872l7.62 1.3716q2.362 0.42515 2.7872-1.9369z" clip-path="url(#a)" fill="#fff" stroke="#fff"/>
<g clip-path="url(#a)">
<g transform="translate(594.06 569.1) rotate(-79.796) scale(.08 -.08)">
<use xlink:href="#x"/>
</g>
</g>
<path d="m612.68 564.63 0.96944 5.3859q0.42515 2.362 2.7872 1.9369l7.62-1.3716q2.362-0.42515 1.9369-2.7872l-0.96944-5.3859q-0.42515-2.362-2.7872-1.9369l-7.62 1.3716q-2.362 0.42515-1.9369 2.7872z" clip-path="url(#a)" fill="#fff" stroke="#fff"/>
<g clip-path="url(#a)">
<g transform="translate(616.67 563.91) rotate(79.796) scale(.08 -.08)">
<use xlink:href="#r"/>
</g>
</g>
<path d="m574.48 570.83 5.0041 2.2153q2.1946 0.97151 3.1661-1.2231l3.1341-7.0798q0.97151-2.1946-1.2231-3.1661l-5.0041-2.2153q-2.1946-0.97151-3.1661 1.2231l-3.1341 7.0798q-0.97151 2.1946 1.2231 3.1661z" clip-path="url(#a)" fill="#fff" stroke="#fff"/>
<g clip-path="url(#a)">
<g transform="translate(576.12 567.12) rotate(23.878) scale(.08 -.08)">
<use xlink:href="#r"/>
</g>
</g>
<path d="m240.99 572.97 4.644-2.0559q2.1946-0.97151 1.2231-3.1661l-3.1341-7.0798q-0.97151-2.1946-3.1661-1.2231l-4.644 2.0559q-2.1946 0.97151-1.2231 3.1661l3.1341 7.0798q0.97151 2.1946 3.1661 1.2231z" clip-path="url(#a)" fill="#fff" stroke="#fff"/>
<g clip-path="url(#a)">
<g transform="translate(239.34 569.25) rotate(-23.878) scale(.08 -.08)">
<use xlink:href="#x"/>
</g>
</g>
<path d="m1275.7 269.88 5.1726 1.7868q2.2685 0.78363 3.0521-1.4848l2.528-7.3182q0.78363-2.2685-1.4848-3.0521l-5.1726-1.7868q-2.2685-0.78363-3.0521 1.4848l-2.528 7.3182q-0.78363 2.2685 1.4848 3.0521z" clip-path="url(#a)" fill="#fff" stroke="#fff"/>
<g clip-path="url(#a)">
<g transform="translate(1277 266.04) rotate(19.057) scale(.08 -.08)">
<use xlink:href="#r"/>
</g>
</g>
<path d="m973.46 419.82 1.8328-4.462q0.91187-2.22-1.3082-3.1319l-7.1619-2.9417q-2.22-0.91187-3.1319 1.3082l-1.8328 4.462q-0.91187 2.22 1.3082 3.1319l7.1619 2.9417q2.22 0.91187 3.1319-1.3082z" clip-path="url(#a)" fill="#fff" stroke="#fff"/>
<g clip-path="url(#a)">
<g transform="translate(969.7 418.27) rotate(-67.67) scale(.08 -.08)">
<defs>
<path id="u" d="m19.672 64.797v-27.391h12.406q6.8906 0 10.641 3.5625 3.7656 3.5625 3.7656 10.156 0 6.5469-3.7656 10.109-3.75 3.5625-10.641 3.5625zm-9.8594 8.1094h22.266q12.266 0 18.531-5.5469 6.2812-5.5469 6.2812-16.234 0-10.797-6.2812-16.312-6.2656-5.5156-18.531-5.5156h-12.406v-29.297h-9.8594z"/>
</defs>
<use xlink:href="#u"/>
</g>
</g>
<path d="m1043.7 343.6 0.75272-4.8279q0.36972-2.3714-2.0016-2.7411l-7.6501-1.1927q-2.3714-0.36972-2.7411 2.0016l-0.75272 4.8279q-0.36972 2.3714 2.0016 2.7411l7.6501 1.1927q2.3714 0.36972 2.7411-2.0016z" clip-path="url(#a)" fill="#fff" stroke="#fff"/>
<g clip-path="url(#a)">
<g transform="translate(1039.7 342.98) rotate(-81.138) scale(.08 -.08)">
<defs>
<path id="i" d="m-0.29688 72.906h61.672v-8.3125h-25.875v-64.594h-9.9062v64.594h-25.891z"/>
</defs>
<use xlink:href="#i"/>
</g>
</g>
<path d="m1172.1 268.62 4.5885 2.9822q2.0123 1.3079 3.3202-0.70444l4.2193-6.4918q1.3079-2.0123-0.70444-3.3202l-4.5885-2.9822q-2.0123-1.3079-3.3202 0.70444l-4.2193 6.4918q-1.3079 2.0123 0.70444 3.3202z" clip-path="url(#a)" fill="#fff" stroke="#fff"/>
<g clip-path="url(#a)">
<g transform="translate(1174.3 265.21) rotate(33.021) scale(.08 -.08)">
<use xlink:href="#r"/>
</g>
</g>
<path d="m869.49 698.24v33.808q0 2.4 2.4 2.4h7.7425q2.4 0 2.4-2.4v-33.808q0-2.4-2.4-2.4h-7.7425q-2.4 0-2.4 2.4z" clip-path="url(#a)" fill="#fff" stroke="#fff"/>
<g clip-path="url(#a)">
<g transform="translate(873.55 698.24) rotate(90) scale(.08 -.08)">
<defs>
<path id="e" d="m56.203 29.594v-4.3906h-41.312q0.59375-9.2812 5.5938-14.141t13.938-4.8594q5.1719 0 10.031 1.2656t9.6562 3.8125v-8.5q-4.8438-2.0469-9.9219-3.125t-10.297-1.0781q-13.094 0-20.734 7.6094-7.6406 7.625-7.6406 20.625 0 13.422 7.25 21.297 7.25 7.8906 19.562 7.8906 11.031 0 17.453-7.1094 6.4219-7.0938 6.4219-19.297zm-8.9844 2.6406q-0.09375 7.3594-4.125 11.75-4.0312 4.4062-10.672 4.4062-7.5156 0-12.031-4.25t-5.2031-11.969z"/>
<path id="f" d="m41.109 46.297q-1.5156 0.875-3.2969 1.2812-1.7812 0.42188-3.9219 0.42188-7.625 0-11.703-4.9531t-4.0781-14.234v-28.812h-9.0312v54.688h9.0312v-8.5q2.8438 4.9844 7.375 7.3906 4.5469 2.4219 11.047 2.4219 0.92188 0 2.0469-0.125 1.125-0.10938 2.4844-0.35938z"/>
<path id="k" d="m52 44.188q3.375 6.0625 8.0625 8.9375t11.031 2.875q8.5469 0 13.188-5.9844 4.6406-5.9688 4.6406-17v-33.016h-9.0312v32.719q0 7.8594-2.7969 11.656-2.7812 3.8125-8.4844 3.8125-6.9844 0-11.047-4.6406-4.0469-4.625-4.0469-12.641v-30.906h-9.0312v32.719q0 7.9062-2.7812 11.688t-8.5938 3.7812q-6.8906 0-10.953-4.6562-4.0469-4.6562-4.0469-12.625v-30.906h-9.0312v54.688h9.0312v-8.5q3.0781 5.0312 7.375 7.4219t10.203 2.3906q5.9688 0 10.141-3.0312 4.1719-3.0156 6.1719-8.7812z"/>
<path id="j" d="m9.4219 54.688h8.9844v-54.688h-8.9844zm0 21.297h8.9844v-11.391h-8.9844z"/>
<path id="g" d="m54.891 33.016v-33.016h-8.9844v32.719q0 7.7656-3.0312 11.609-3.0312 3.8594-9.0781 3.8594-7.2812 0-11.484-4.6406-4.2031-4.625-4.2031-12.641v-30.906h-9.0312v54.688h9.0312v-8.5q3.2344 4.9375 7.5938 7.375 4.375 2.4375 10.094 2.4375 9.4219 0 14.25-5.8281 4.8438-5.8281 4.8438-17.156z"/>
<path id="h" d="m34.281 27.484q-10.891 0-15.094-2.4844t-4.2031-8.5q0-4.7812 3.1562-7.5938 3.1562-2.7969 8.5625-2.7969 7.4844 0 12 5.2969t4.5156 14.078v2zm17.922 3.7188v-31.203h-8.9844v8.2969q-3.0781-4.9688-7.6719-7.3438t-11.234-2.375q-8.3906 0-13.359 4.7188-4.9531 4.7188-4.9531 12.625 0 9.2188 6.1719 13.906 6.1875 4.6875 18.438 4.6875h12.609v0.89062q0 6.2031-4.0781 9.5938t-11.453 3.3906q-4.6875 0-9.1406-1.125-4.4375-1.125-8.5312-3.375v8.3125q4.9219 1.9062 9.5625 2.8438 4.6406 0.95312 9.0312 0.95312 11.875 0 17.734-6.1562 5.8594-6.1406 5.8594-18.641z"/>
<path id="l" d="m9.4219 75.984h8.9844v-75.984h-8.9844z"/>
</defs>
<use xlink:href="#i"/>
<use x="44.083984" xlink:href="#e"/>
<use x="105.607422" xlink:href="#f"/>
<use x="144.970703" xlink:href="#k"/>
<use x="242.382812" xlink:href="#j"/>
<use x="270.166016" xlink:href="#g"/>
<use x="333.544922" xlink:href="#h"/>
<use x="394.824219" xlink:href="#l"/>
</g>
</g>
<path d="m983.36 571.18 2.1651-4.5679q1.0279-2.1687-1.1408-3.1967l-6.9964-3.3162q-2.1687-1.0279-3.1967 1.1408l-2.1651 4.5679q-1.0279 2.1687 1.1408 3.1967l6.9964 3.3162q2.1687 1.0279 3.1967-1.1408z" clip-path="url(#a)" fill="#fff" stroke="#fff"/>
<g clip-path="url(#a)">
<g transform="translate(979.69 569.44) rotate(-64.64) scale(.08 -.08)">
<defs>
<path id="aq" d="m9.8125 72.906h46.094v-8.3125h-36.234v-21.578h34.719v-8.2969h-34.719v-26.422h37.109v-8.2969h-46.969z"/>
</defs>
<use xlink:href="#aq"/>
</g>
</g>
<path d="m1020.1 569.39 0.037783-6.2974q0.014399-2.4-2.3856-2.4144l-7.7424-0.046453q-2.4-0.014399-2.4144 2.3856l-0.037783 6.2974q-0.0144 2.4 2.3856 2.4144l7.7424 0.046452q2.4 0.014399 2.4144-2.3856z" clip-path="url(#a)" fill="#fff" stroke="#fff"/>
<g clip-path="url(#a)">
<g transform="translate(1016.1 569.37) rotate(-89.656) scale(.08 -.08)">
<defs>
<path id="ax" d="m39.406 66.219q-10.75 0-17.078-8.0156-6.3125-8-6.3125-21.828 0-13.766 6.3125-21.781 6.3281-8 17.078-8 10.734 0 17.016 8 6.2812 8.0156 6.2812 21.781 0 13.828-6.2812 21.828-6.2812 8.0156-17.016 8.0156zm13.812-64.906 13-14.203h-11.922l-10.797 11.672q-1.6094-0.09375-2.4688-0.14062-0.84375-0.0625-1.625-0.0625-15.375 0-24.594 10.281-9.2031 10.281-9.2031 27.516 0 17.281 9.2031 27.562 9.2188 10.281 24.594 10.281 15.328 0 24.5-10.281 9.1875-10.281 9.1875-27.562 0-12.688-5.1094-21.734-5.0938-9.0312-14.766-13.328z"/>
</defs>
<use xlink:href="#ax"/>
</g>
</g>
<path d="m1043.4 566.4 2.4173 5.0362q1.0385 2.1637 3.2022 1.1251l6.9801-3.3503q2.1637-1.0385 1.1251-3.2022l-2.4173-5.0362q-1.0385-2.1637-3.2022-1.1251l-6.9801 3.3503q-2.1637 1.0385-1.1251 3.2022z" clip-path="url(#a)" fill="#fff" stroke="#fff"/>
<g clip-path="url(#a)">
<g transform="translate(1047.1 564.64) rotate(64.36) scale(.08 -.08)">
<defs>
<path id="y" d="m64.406 67.281v-10.391q-4.9844 4.6406-10.625 6.9219-5.6406 2.2969-11.984 2.2969-12.5 0-19.141-7.6406t-6.6406-22.094q0-14.406 6.6406-22.047t19.141-7.6406q6.3438 0 11.984 2.2969t10.625 6.9375v-10.312q-5.1719-3.5156-10.969-5.2812-5.7812-1.75-12.219-1.75-16.562 0-26.094 10.125-9.5156 10.141-9.5156 27.672 0 17.578 9.5156 27.703 9.5312 10.141 26.094 10.141 6.5312 0 12.312-1.7344 5.7969-1.7344 10.875-5.2031z"/>
</defs>
<use xlink:href="#y"/>
</g>
</g>
<path d="m1232.8 495.4 1.7946-4.0803q0.96626-2.1969-1.2306-3.1632l-7.0873-3.1172q-2.1969-0.96626-3.1632 1.2306l-1.7946 4.0803q-0.96626 2.1969 1.2306 3.1632l7.0873 3.1172q2.1969 0.96626 3.1632-1.2306z" clip-path="url(#a)" fill="#fff" stroke="#fff"/>
<g clip-path="url(#a)">
<g transform="translate(1229.1 493.76) rotate(-66.259) scale(.08 -.08)">
<defs>
<path id="z" d="m9.8125 72.906h9.8594v-64.609h35.5v-8.2969h-45.359z"/>
</defs>
<use xlink:href="#z"/>
</g>
</g>
<path d="m1272 420.8 2.0283-5.664q0.80914-2.2595-1.4503-3.0686l-7.2892-2.6103q-2.2595-0.80914-3.0686 1.4503l-2.0283 5.664q-0.80914 2.2595 1.4503 3.0686l7.2892 2.6103q2.2595 0.80914 3.0686-1.4503z" clip-path="url(#a)" fill="#fff" stroke="#fff"/>
<g clip-path="url(#a)">
<g transform="translate(1268.2 419.43) rotate(-70.297) scale(.08 -.08)">
<use xlink:href="#v"/>
</g>
</g>
<path d="m1302.5 489.23 0.43799 4.4359q0.23582 2.3884 2.6242 2.1526l7.705-0.76078q2.3884-0.23582 2.1526-2.6242l-0.43799-4.4359q-0.23582-2.3884-2.6242-2.1526l-7.705 0.76078q-2.3884 0.23582-2.1526 2.6242z" clip-path="url(#a)" fill="#fff" stroke="#fff"/>
<g clip-path="url(#a)">
<g transform="translate(1306.6 488.83) rotate(84.361) scale(.08 -.08)">
<use xlink:href="#z"/>
</g>
</g>
<path d="m1365.9 418.28 4.3337 4.173q1.7288 1.6647 3.3935-0.06412l5.3704-5.5772q1.6647-1.7288-0.06412-3.3935l-4.3337-4.173q-1.7288-1.6647-3.3935 0.06412l-5.3704 5.5772q-1.6647 1.7288 0.06412 3.3935z" clip-path="url(#a)" fill="#fff" stroke="#fff"/>
<g clip-path="url(#a)">
<g transform="translate(1368.7 415.36) rotate(43.918) scale(.08 -.08)">
<use xlink:href="#v"/>
</g>
</g>
<path d="m1155.6 698.24v33.808q0 2.4 2.4 2.4h7.7425q2.4 0 2.4-2.4v-33.808q0-2.4-2.4-2.4h-7.7425q-2.4 0-2.4 2.4z" clip-path="url(#a)" fill="#fff" stroke="#fff"/>
<g clip-path="url(#a)">
<g transform="translate(1159.7 698.24) rotate(90) scale(.08 -.08)">
<use xlink:href="#i"/>
<use x="44.083984" xlink:href="#e"/>
<use x="105.607422" xlink:href="#f"/>
<use x="144.970703" xlink:href="#k"/>
<use x="242.382812" xlink:href="#j"/>
<use x="270.166016" xlink:href="#g"/>
<use x="333.544922" xlink:href="#h"/>
<use x="394.824219" xlink:href="#l"/>
</g>
</g>
<path d="m1235.2 563.58 0.098486 5.4716q0.043191 2.3996 2.4428 2.3564l7.7412-0.13934q2.3996-0.043191 2.3564-2.4428l-0.098486-5.4716q-0.043192-2.3996-2.4428-2.3564l-7.7412 0.13934q-2.3996 0.043192-2.3564 2.4428z" clip-path="url(#a)" fill="#fff" stroke="#fff"/>
<g clip-path="url(#a)">
<g transform="translate(1239.2 563.51) rotate(88.969) scale(.08 -.08)">
<use xlink:href="#r"/>
</g>
</g>
<path d="m1233.9 563.8v4.8238q0 2.4 2.4 2.4h7.7425q2.4 0 2.4-2.4v-4.8238q0-2.4-2.4-2.4h-7.7425q-2.4 0-2.4 2.4z" clip-path="url(#a)" fill="#fff" stroke="#fff"/>
<g clip-path="url(#a)">
<g transform="translate(1237.9 563.8) rotate(90) scale(.08 -.08)">
<use xlink:href="#u"/>
</g>
</g>
<path d="m1317.6 698.24v33.808q0 2.4 2.4 2.4h7.7425q2.4 0 2.4-2.4v-33.808q0-2.4-2.4-2.4h-7.7425q-2.4 0-2.4 2.4z" clip-path="url(#a)" fill="#fff" stroke="#fff"/>
<g clip-path="url(#a)">
<g transform="translate(1321.6 698.24) rotate(90) scale(.08 -.08)">
<use xlink:href="#i"/>
<use x="44.083984" xlink:href="#e"/>
<use x="105.607422" xlink:href="#f"/>
<use x="144.970703" xlink:href="#k"/>
<use x="242.382812" xlink:href="#j"/>
<use x="270.166016" xlink:href="#g"/>
<use x="333.544922" xlink:href="#h"/>
<use x="394.824219" xlink:href="#l"/>
</g>
</g>
<path d="m1468.2 565.54 1.6867 5.2061q0.73972 2.2832 3.0229 1.5434l7.3656-2.3864q2.2832-0.73972 1.5434-3.0229l-1.6867-5.2061q-0.73972-2.2832-3.0229-1.5434l-7.3656 2.3864q-2.2832 0.73972-1.5434 3.0229z" clip-path="url(#a)" fill="#fff" stroke="#fff"/>
<g clip-path="url(#a)">
<g transform="translate(1472 564.28) rotate(72.048) scale(.08 -.08)">
<use xlink:href="#r"/>
</g>
</g>
<path d="m1434.5 570.26 1.3349-4.6354q0.66418-2.3063-1.6421-2.9704l-7.4401-2.1427q-2.3063-0.66418-2.9704 1.6421l-1.3349 4.6354q-0.66418 2.3063 1.6421 2.9704l7.4401 2.1427q2.3063 0.66418 2.9704-1.6421z" clip-path="url(#a)" fill="#fff" stroke="#fff"/>
<g clip-path="url(#a)">
<g transform="translate(1430.5 569.14) rotate(-73.934) scale(.08 -.08)">
<use xlink:href="#u"/>
</g>
</g>
<path d="m1465.4 565.13 1.6203 5.6263q0.66418 2.3063 2.9704 1.6421l7.4401-2.1427q2.3063-0.66418 1.6421-2.9704l-1.6203-5.6263q-0.66418-2.3063-2.9704-1.6421l-7.4401 2.1427q-2.3063 0.66418-1.6421 2.9704z" clip-path="url(#a)" fill="#fff" stroke="#fff"/>
<g clip-path="url(#a)">
<g transform="translate(1469.3 564) rotate(73.934) scale(.08 -.08)">
<use xlink:href="#w"/>
</g>
</g>
<path d="m1401.2 698.24v33.808q0 2.4 2.4 2.4h7.7425q2.4 0 2.4-2.4v-33.808q0-2.4-2.4-2.4h-7.7425q-2.4 0-2.4 2.4z" clip-path="url(#a)" fill="#fff" stroke="#fff"/>
<g clip-path="url(#a)">
<g transform="translate(1405.3 698.24) rotate(90) scale(.08 -.08)">
<use xlink:href="#i"/>
<use x="44.083984" xlink:href="#e"/>
<use x="105.607422" xlink:href="#f"/>
<use x="144.970703" xlink:href="#k"/>
<use x="242.382812" xlink:href="#j"/>
<use x="270.166016" xlink:href="#g"/>
<use x="333.544922" xlink:href="#h"/>
<use x="394.824219" xlink:href="#l"/>
</g>
</g>
<path d="m1233.9 698.24v33.808q0 2.4 2.4 2.4h7.7425q2.4 0 2.4-2.4v-33.808q0-2.4-2.4-2.4h-7.7425q-2.4 0-2.4 2.4z" clip-path="url(#a)" fill="#fff" stroke="#fff"/>
<g clip-path="url(#a)">
<g transform="translate(1237.9 698.24) rotate(90) scale(.08 -.08)">
<use xlink:href="#i"/>
<use x="44.083984" xlink:href="#e"/>
<use x="105.607422" xlink:href="#f"/>
<use x="144.970703" xlink:href="#k"/>
<use x="242.382812" xlink:href="#j"/>
<use x="270.166016" xlink:href="#g"/>
<use x="333.544922" xlink:href="#h"/>
<use x="394.824219" xlink:href="#l"/>
</g>
</g>
<path d="m936.97 698.24v33.808q0 2.4 2.4 2.4h7.7425q2.4 0 2.4-2.4v-33.808q0-2.4-2.4-2.4h-7.7425q-2.4 0-2.4 2.4z" clip-path="url(#a)" fill="#fff" stroke="#fff"/>
<g clip-path="url(#a)">
<g transform="translate(941.03 698.24) rotate(90) scale(.08 -.08)">
<use xlink:href="#i"/>
<use x="44.083984" xlink:href="#e"/>
<use x="105.607422" xlink:href="#f"/>
<use x="144.970703" xlink:href="#k"/>
<use x="242.382812" xlink:href="#j"/>
<use x="270.166016" xlink:href="#g"/>
<use x="333.544922" xlink:href="#h"/>
<use x="394.824219" xlink:href="#l"/>
</g>
</g>
<path d="m1007.1 698.24v33.808q0 2.4 2.4 2.4h7.7425q2.4 0 2.4-2.4v-33.808q0-2.4-2.4-2.4h-7.7425q-2.4 0-2.4 2.4z" clip-path="url(#a)" fill="#fff" stroke="#fff"/>
<g clip-path="url(#a)">
<g transform="translate(1011.2 698.24) rotate(90) scale(.08 -.08)">
<use xlink:href="#i"/>
<use x="44.083984" xlink:href="#e"/>
<use x="105.607422" xlink:href="#f"/>
<use x="144.970703" xlink:href="#k"/>
<use x="242.382812" xlink:href="#j"/>
<use x="270.166016" xlink:href="#g"/>
<use x="333.544922" xlink:href="#h"/>
<use x="394.824219" xlink:href="#l"/>
</g>
</g>
<path d="m1080 698.24v33.808q0 2.4 2.4 2.4h7.7425q2.4 0 2.4-2.4v-33.808q0-2.4-2.4-2.4h-7.7425q-2.4 0-2.4 2.4z" clip-path="url(#a)" fill="#fff" stroke="#fff"/>
<g clip-path="url(#a)">
<g transform="translate(1084.1 698.24) rotate(90) scale(.08 -.08)">
<use xlink:href="#i"/>
<use x="44.083984" xlink:href="#e"/>
<use x="105.607422" xlink:href="#f"/>
<use x="144.970703" xlink:href="#k"/>
<use x="242.382812" xlink:href="#j"/>
<use x="270.166016" xlink:href="#g"/>
<use x="333.544922" xlink:href="#h"/>
<use x="394.824219" xlink:href="#l"/>
</g>
</g>
<path d="m742.62 698.24v33.808q0 2.4 2.4 2.4h7.7425q2.4 0 2.4-2.4v-33.808q0-2.4-2.4-2.4h-7.7425q-2.4 0-2.4 2.4z" clip-path="url(#a)" fill="#fff" stroke="#fff"/>
<g clip-path="url(#a)">
<g transform="translate(746.69 698.24) rotate(90) scale(.08 -.08)">
<use xlink:href="#i"/>
<use x="44.083984" xlink:href="#e"/>
<use x="105.607422" xlink:href="#f"/>
<use x="144.970703" xlink:href="#k"/>
<use x="242.382812" xlink:href="#j"/>
<use x="270.166016" xlink:href="#g"/>
<use x="333.544922" xlink:href="#h"/>
<use x="394.824219" xlink:href="#l"/>
</g>
</g>
<path d="m572.57 698.24v33.808q0 2.4 2.4 2.4h7.7425q2.4 0 2.4-2.4v-33.808q0-2.4-2.4-2.4h-7.7425q-2.4 0-2.4 2.4z" clip-path="url(#a)" fill="#fff" stroke="#fff"/>
<g clip-path="url(#a)">
<g transform="translate(576.64 698.24) rotate(90) scale(.08 -.08)">
<use xlink:href="#i"/>
<use x="44.083984" xlink:href="#e"/>
<use x="105.607422" xlink:href="#f"/>
<use x="144.970703" xlink:href="#k"/>
<use x="242.382812" xlink:href="#j"/>
<use x="270.166016" xlink:href="#g"/>
<use x="333.544922" xlink:href="#h"/>
<use x="394.824219" xlink:href="#l"/>
</g>
</g>
<path d="m626.56 698.24v33.808q0 2.4 2.4 2.4h7.7425q2.4 0 2.4-2.4v-33.808q0-2.4-2.4-2.4h-7.7425q-2.4 0-2.4 2.4z" clip-path="url(#a)" fill="#fff" stroke="#fff"/>
<g clip-path="url(#a)">
<g transform="translate(630.62 698.24) rotate(90) scale(.08 -.08)">
<use xlink:href="#i"/>
<use x="44.083984" xlink:href="#e"/>
<use x="105.607422" xlink:href="#f"/>
<use x="144.970703" xlink:href="#k"/>
<use x="242.382812" xlink:href="#j"/>
<use x="270.166016" xlink:href="#g"/>
<use x="333.544922" xlink:href="#h"/>
<use x="394.824219" xlink:href="#l"/>
</g>
</g>
<path d="m237.87 698.24v33.808q0 2.4 2.4 2.4h7.7425q2.4 0 2.4-2.4v-33.808q0-2.4-2.4-2.4h-7.7425q-2.4 0-2.4 2.4z" clip-path="url(#a)" fill="#fff" stroke="#fff"/>
<g clip-path="url(#a)">
<g transform="translate(241.94 698.24) rotate(90) scale(.08 -.08)">
<use xlink:href="#i"/>
<use x="44.083984" xlink:href="#e"/>
<use x="105.607422" xlink:href="#f"/>
<use x="144.970703" xlink:href="#k"/>
<use x="242.382812" xlink:href="#j"/>
<use x="270.166016" xlink:href="#g"/>
<use x="333.544922" xlink:href="#h"/>
<use x="394.824219" xlink:href="#l"/>
</g>
</g>
<path d="m270.26 698.24v33.808q0 2.4 2.4 2.4h7.7425q2.4 0 2.4-2.4v-33.808q0-2.4-2.4-2.4h-7.7425q-2.4 0-2.4 2.4z" clip-path="url(#a)" fill="#fff" stroke="#fff"/>
<g clip-path="url(#a)">
<g transform="translate(274.33 698.24) rotate(90) scale(.08 -.08)">
<use xlink:href="#i"/>
<use x="44.083984" xlink:href="#e"/>
<use x="105.607422" xlink:href="#f"/>
<use x="144.970703" xlink:href="#k"/>
<use x="242.382812" xlink:href="#j"/>
<use x="270.166016" xlink:href="#g"/>
<use x="333.544922" xlink:href="#h"/>
<use x="394.824219" xlink:href="#l"/>
</g>
</g>
<path d="m305.35 698.24v33.808q0 2.4 2.4 2.4h7.7425q2.4 0 2.4-2.4v-33.808q0-2.4-2.4-2.4h-7.7425q-2.4 0-2.4 2.4z" clip-path="url(#a)" fill="#fff" stroke="#fff"/>
<g clip-path="url(#a)">
<g transform="translate(309.42 698.24) rotate(90) scale(.08 -.08)">
<use xlink:href="#i"/>
<use x="44.083984" xlink:href="#e"/>
<use x="105.607422" xlink:href="#f"/>
<use x="144.970703" xlink:href="#k"/>
<use x="242.382812" xlink:href="#j"/>
<use x="270.166016" xlink:href="#g"/>
<use x="333.544922" xlink:href="#h"/>
<use x="394.824219" xlink:href="#l"/>
</g>
</g>
<path d="m389.48 494.95 1.2461-5.4173q0.53798-2.3389-1.8009-2.8769l-7.5455-1.7356q-2.3389-0.53798-2.8769 1.8009l-1.2461 5.4173q-0.53799 2.3389 1.8009 2.8769l7.5455 1.7356q2.3389 0.53799 2.8769-1.8009z" clip-path="url(#a)" fill="#fff" stroke="#fff"/>
<g clip-path="url(#a)">
<g transform="translate(385.52 494.04) rotate(-77.046) scale(.08 -.08)">
<defs>
<path id="aw" d="m44.391 34.188q3.1719-1.0781 6.1719-4.5938t6.0312-9.6719l10.016-19.922h-10.609l-9.3125 18.703q-3.625 7.3281-7.0156 9.7188t-9.25 2.3906h-10.75v-30.812h-9.8594v72.906h22.266q12.5 0 18.656-5.2344 6.1562-5.2188 6.1562-15.766 0-6.8906-3.2031-11.438-3.2031-4.5312-9.2969-6.2812zm-24.719 30.609v-25.875h12.406q7.125 0 10.766 3.2969t3.6406 9.6875-3.6406 9.6406-10.766 3.25z"/>
</defs>
<use xlink:href="#aw"/>
</g>
</g>
<path d="m410.26 493.72 0.43685-4.5805q0.22786-2.3892-2.1613-2.617l-7.7075-0.73508q-2.3892-0.22786-2.617 2.1613l-0.43685 4.5805q-0.22786 2.3892 2.1613 2.617l7.7075 0.73508q2.3892 0.22786 2.617-2.1613z" clip-path="url(#a)" fill="#fff" stroke="#fff"/>
<g clip-path="url(#a)">
<g transform="translate(406.22 493.33) rotate(-84.552) scale(.08 -.08)">
<use xlink:href="#ap"/>
</g>
</g>
<path d="m430.61 414.91 1.2188 4.9059q0.57866 2.3292 2.9079 1.7505l7.5141-1.8668q2.3292-0.57866 1.7505-2.9079l-1.2188-4.9059q-0.57866-2.3292-2.9079-1.7505l-7.5141 1.8668q-2.3292 0.57866-1.7505 2.9079z" clip-path="url(#a)" fill="#fff" stroke="#fff"/>
<g clip-path="url(#a)">
<g transform="translate(434.55 413.93) rotate(76.048) scale(.08 -.08)">
<use xlink:href="#aq"/>
</g>
</g>
<path d="m442.08 489.33 1.1 5.4769q0.47258 2.353 2.8256 1.8804l7.5909-1.5246q2.353-0.47258 1.8804-2.8256l-1.1-5.4769q-0.47258-2.353-2.8256-1.8804l-7.5909 1.5246q-2.353 0.47258-1.8804 2.8256z" clip-path="url(#a)" fill="#fff" stroke="#fff"/>
<g clip-path="url(#a)">
<g transform="translate(446.06 488.53) rotate(78.644) scale(.08 -.08)">
<use xlink:href="#y"/>
</g>
</g>
<path d="m343.14 698.24v33.808q0 2.4 2.4 2.4h7.7425q2.4 0 2.4-2.4v-33.808q0-2.4-2.4-2.4h-7.7425q-2.4 0-2.4 2.4z" clip-path="url(#a)" fill="#fff" stroke="#fff"/>
<g clip-path="url(#a)">
<g transform="translate(347.2 698.24) rotate(90) scale(.08 -.08)">
<use xlink:href="#i"/>
<use x="44.083984" xlink:href="#e"/>
<use x="105.607422" xlink:href="#f"/>
<use x="144.970703" xlink:href="#k"/>
<use x="242.382812" xlink:href="#j"/>
<use x="270.166016" xlink:href="#g"/>
<use x="333.544922" xlink:href="#h"/>
<use x="394.824219" xlink:href="#l"/>
</g>
</g>
<path d="m383.63 698.24v33.808q0 2.4 2.4 2.4h7.7425q2.4 0 2.4-2.4v-33.808q0-2.4-2.4-2.4h-7.7425q-2.4 0-2.4 2.4z" clip-path="url(#a)" fill="#fff" stroke="#fff"/>
<g clip-path="url(#a)">
<g transform="translate(387.69 698.24) rotate(90) scale(.08 -.08)">
<use xlink:href="#i"/>
<use x="44.083984" xlink:href="#e"/>
<use x="105.607422" xlink:href="#f"/>
<use x="144.970703" xlink:href="#k"/>
<use x="242.382812" xlink:href="#j"/>
<use x="270.166016" xlink:href="#g"/>
<use x="333.544922" xlink:href="#h"/>
<use x="394.824219" xlink:href="#l"/>
</g>
</g>
<path d="m460.89 564.45 0.82763 5.4096q0.36296 2.3724 2.7354 2.0094l7.6534-1.1709q2.3724-0.36296 2.0094-2.7354l-0.82763-5.4096q-0.36296-2.3724-2.7354-2.0094l-7.6534 1.1709q-2.3724 0.36296-2.0094 2.7354z" clip-path="url(#a)" fill="#fff" stroke="#fff"/>
<g clip-path="url(#a)">
<g transform="translate(464.91 563.84) rotate(81.301) scale(.08 -.08)">
<use xlink:href="#r"/>
</g>
</g>
<path d="m450.37 569.67 0.76808-5.0203q0.36296-2.3724-2.0094-2.7354l-7.6534-1.1709q-2.3724-0.36296-2.7354 2.0094l-0.76808 5.0203q-0.36296 2.3724 2.0094 2.7354l7.6534 1.1709q2.3724 0.36296 2.7354-2.0094z" clip-path="url(#a)" fill="#fff" stroke="#fff"/>
<g clip-path="url(#a)">
<g transform="translate(446.36 569.05) rotate(-81.301) scale(.08 -.08)">
<use xlink:href="#x"/>
</g>
</g>
<path d="m472.7 698.24v33.808q0 2.4 2.4 2.4h7.7425q2.4 0 2.4-2.4v-33.808q0-2.4-2.4-2.4h-7.7425q-2.4 0-2.4 2.4z" clip-path="url(#a)" fill="#fff" stroke="#fff"/>
<g clip-path="url(#a)">
<g transform="translate(476.77 698.24) rotate(90) scale(.08 -.08)">
<use xlink:href="#i"/>
<use x="44.083984" xlink:href="#e"/>
<use x="105.607422" xlink:href="#f"/>
<use x="144.970703" xlink:href="#k"/>
<use x="242.382812" xlink:href="#j"/>
<use x="270.166016" xlink:href="#g"/>
<use x="333.544922" xlink:href="#h"/>
<use x="394.824219" xlink:href="#l"/>
</g>
</g>
<path d="m426.82 698.24v33.808q0 2.4 2.4 2.4h7.7425q2.4 0 2.4-2.4v-33.808q0-2.4-2.4-2.4h-7.7425q-2.4 0-2.4 2.4z" clip-path="url(#a)" fill="#fff" stroke="#fff"/>
<g clip-path="url(#a)">
<g transform="translate(430.88 698.24) rotate(90) scale(.08 -.08)">
<use xlink:href="#i"/>
<use x="44.083984" xlink:href="#e"/>
<use x="105.607422" xlink:href="#f"/>
<use x="144.970703" xlink:href="#k"/>
<use x="242.382812" xlink:href="#j"/>
<use x="270.166016" xlink:href="#g"/>
<use x="333.544922" xlink:href="#h"/>
<use x="394.824219" xlink:href="#l"/>
</g>
</g>
<path d="m100.08 559.71v12.991q0 2.4 2.4 2.4h8q2.4 0 2.4-2.4v-12.991q0-2.4-2.4-2.4h-8q-2.4 0-2.4 2.4z" clip-path="url(#a)" fill="#fff" stroke="#fff"/>
<g clip-path="url(#a)">
<g transform="translate(104.37 559.71) rotate(90) scale(.08 -.08)">
<defs>
<path id="bc" d="m21 76.422v-100h-8.2969v100z"/>
</defs>
<use xlink:href="#u"/>
<use x="60.302734" xlink:href="#bc"/>
<use x="93.994141" xlink:href="#r"/>
</g>
</g>
<path d="m116.41 698.24v33.808q0 2.4 2.4 2.4h7.7425q2.4 0 2.4-2.4v-33.808q0-2.4-2.4-2.4h-7.7425q-2.4 0-2.4 2.4z" clip-path="url(#a)" fill="#fff" stroke="#fff"/>
<g clip-path="url(#a)">
<g transform="translate(120.47 698.24) rotate(90) scale(.08 -.08)">
<use xlink:href="#i"/>
<use x="44.083984" xlink:href="#e"/>
<use x="105.607422" xlink:href="#f"/>
<use x="144.970703" xlink:href="#k"/>
<use x="242.382812" xlink:href="#j"/>
<use x="270.166016" xlink:href="#g"/>
<use x="333.544922" xlink:href="#h"/>
<use x="394.824219" xlink:href="#l"/>
</g>
</g>
<path d="m135.3 698.24v33.808q0 2.4 2.4 2.4h7.7425q2.4 0 2.4-2.4v-33.808q0-2.4-2.4-2.4h-7.7425q-2.4 0-2.4 2.4z" clip-path="url(#a)" fill="#fff" stroke="#fff"/>
<g clip-path="url(#a)">
<g transform="translate(139.37 698.24) rotate(90) scale(.08 -.08)">
<use xlink:href="#i"/>
<use x="44.083984" xlink:href="#e"/>
<use x="105.607422" xlink:href="#f"/>
<use x="144.970703" xlink:href="#k"/>
<use x="242.382812" xlink:href="#j"/>
<use x="270.166016" xlink:href="#g"/>
<use x="333.544922" xlink:href="#h"/>
<use x="394.824219" xlink:href="#l"/>
</g>
</g>
<path d="m156.9 698.24v33.808q0 2.4 2.4 2.4h7.7425q2.4 0 2.4-2.4v-33.808q0-2.4-2.4-2.4h-7.7425q-2.4 0-2.4 2.4z" clip-path="url(#a)" fill="#fff" stroke="#fff"/>
<g clip-path="url(#a)">
<g transform="translate(160.96 698.24) rotate(90) scale(.08 -.08)">
<use xlink:href="#i"/>
<use x="44.083984" xlink:href="#e"/>
<use x="105.607422" xlink:href="#f"/>
<use x="144.970703" xlink:href="#k"/>
<use x="242.382812" xlink:href="#j"/>
<use x="270.166016" xlink:href="#g"/>
<use x="333.544922" xlink:href="#h"/>
<use x="394.824219" xlink:href="#l"/>
</g>
</g>
<path d="m181.19 698.24v33.808q0 2.4 2.4 2.4h7.7425q2.4 0 2.4-2.4v-33.808q0-2.4-2.4-2.4h-7.7425q-2.4 0-2.4 2.4z" clip-path="url(#a)" fill="#fff" stroke="#fff"/>
<g clip-path="url(#a)">
<g transform="translate(185.25 698.24) rotate(90) scale(.08 -.08)">
<use xlink:href="#i"/>
<use x="44.083984" xlink:href="#e"/>
<use x="105.607422" xlink:href="#f"/>
<use x="144.970703" xlink:href="#k"/>
<use x="242.382812" xlink:href="#j"/>
<use x="270.166016" xlink:href="#g"/>
<use x="333.544922" xlink:href="#h"/>
<use x="394.824219" xlink:href="#l"/>
</g>
</g>
<path d="m100.21 698.24v33.808q0 2.4 2.4 2.4h7.7425q2.4 0 2.4-2.4v-33.808q0-2.4-2.4-2.4h-7.7425q-2.4 0-2.4 2.4z" clip-path="url(#a)" fill="#fff" stroke="#fff"/>
<g clip-path="url(#a)">
<g transform="translate(104.28 698.24) rotate(90) scale(.08 -.08)">
<use xlink:href="#i"/>
<use x="44.083984" xlink:href="#e"/>
<use x="105.607422" xlink:href="#f"/>
<use x="144.970703" xlink:href="#k"/>
<use x="242.382812" xlink:href="#j"/>
<use x="270.166016" xlink:href="#g"/>
<use x="333.544922" xlink:href="#h"/>
<use x="394.824219" xlink:href="#l"/>
</g>
</g>
<path d="m65.123 698.24v33.808q0 2.4 2.4 2.4h7.7425q2.4 0 2.4-2.4v-33.808q0-2.4-2.4-2.4h-7.7425q-2.4 0-2.4 2.4z" clip-path="url(#a)" fill="#fff" stroke="#fff"/>
<g clip-path="url(#a)">
<g transform="translate(69.186 698.24) rotate(90) scale(.08 -.08)">
<use xlink:href="#i"/>
<use x="44.083984" xlink:href="#e"/>
<use x="105.607422" xlink:href="#f"/>
<use x="144.970703" xlink:href="#k"/>
<use x="242.382812" xlink:href="#j"/>
<use x="270.166016" xlink:href="#g"/>
<use x="333.544922" xlink:href="#h"/>
<use x="394.824219" xlink:href="#l"/>
</g>
</g>
<path d="m75.92 698.24v33.808q0 2.4 2.4 2.4h7.7425q2.4 0 2.4-2.4v-33.808q0-2.4-2.4-2.4h-7.7425q-2.4 0-2.4 2.4z" clip-path="url(#a)" fill="#fff" stroke="#fff"/>
<g clip-path="url(#a)">
<g transform="translate(79.983 698.24) rotate(90) scale(.08 -.08)">
<use xlink:href="#i"/>
<use x="44.083984" xlink:href="#e"/>
<use x="105.607422" xlink:href="#f"/>
<use x="144.970703" xlink:href="#k"/>
<use x="242.382812" xlink:href="#j"/>
<use x="270.166016" xlink:href="#g"/>
<use x="333.544922" xlink:href="#h"/>
<use x="394.824219" xlink:href="#l"/>
</g>
</g>
<path d="m86.716 698.24v33.808q0 2.4 2.4 2.4h7.7425q2.4 0 2.4-2.4v-33.808q0-2.4-2.4-2.4h-7.7425q-2.4 0-2.4 2.4z" clip-path="url(#a)" fill="#fff" stroke="#fff"/>
<g clip-path="url(#a)">
<g transform="translate(90.78 698.24) rotate(90) scale(.08 -.08)">
<use xlink:href="#i"/>
<use x="44.083984" xlink:href="#e"/>
<use x="105.607422" xlink:href="#f"/>
<use x="144.970703" xlink:href="#k"/>
<use x="242.382812" xlink:href="#j"/>
<use x="270.166016" xlink:href="#g"/>
<use x="333.544922" xlink:href="#h"/>
<use x="394.824219" xlink:href="#l"/>
</g>
</g>
<path d="m208.18 698.24v33.808q0 2.4 2.4 2.4h7.7425q2.4 0 2.4-2.4v-33.808q0-2.4-2.4-2.4h-7.7425q-2.4 0-2.4 2.4z" clip-path="url(#a)" fill="#fff" stroke="#fff"/>
<g clip-path="url(#a)">
<g transform="translate(212.24 698.24) rotate(90) scale(.08 -.08)">
<use xlink:href="#i"/>
<use x="44.083984" xlink:href="#e"/>
<use x="105.607422" xlink:href="#f"/>
<use x="144.970703" xlink:href="#k"/>
<use x="242.382812" xlink:href="#j"/>
<use x="270.166016" xlink:href="#g"/>
<use x="333.544922" xlink:href="#h"/>
<use x="394.824219" xlink:href="#l"/>
</g>
</g>
<path d="m521.29 698.24v33.808q0 2.4 2.4 2.4h7.7425q2.4 0 2.4-2.4v-33.808q0-2.4-2.4-2.4h-7.7425q-2.4 0-2.4 2.4z" clip-path="url(#a)" fill="#fff" stroke="#fff"/>
<g clip-path="url(#a)">
<g transform="translate(525.35 698.24) rotate(90) scale(.08 -.08)">
<use xlink:href="#i"/>
<use x="44.083984" xlink:href="#e"/>
<use x="105.607422" xlink:href="#f"/>
<use x="144.970703" xlink:href="#k"/>
<use x="242.382812" xlink:href="#j"/>
<use x="270.166016" xlink:href="#g"/>
<use x="333.544922" xlink:href="#h"/>
<use x="394.824219" xlink:href="#l"/>
</g>
</g>
<path d="m683.24 698.24v33.808q0 2.4 2.4 2.4h7.7425q2.4 0 2.4-2.4v-33.808q0-2.4-2.4-2.4h-7.7425q-2.4 0-2.4 2.4z" clip-path="url(#a)" fill="#fff" stroke="#fff"/>
<g clip-path="url(#a)">
<g transform="translate(687.3 698.24) rotate(90) scale(.08 -.08)">
<use xlink:href="#i"/>
<use x="44.083984" xlink:href="#e"/>
<use x="105.607422" xlink:href="#f"/>
<use x="144.970703" xlink:href="#k"/>
<use x="242.382812" xlink:href="#j"/>
<use x="270.166016" xlink:href="#g"/>
<use x="333.544922" xlink:href="#h"/>
<use x="394.824219" xlink:href="#l"/>
</g>
</g>
<path d="m804.7 698.24v33.808q0 2.4 2.4 2.4h7.7425q2.4 0 2.4-2.4v-33.808q0-2.4-2.4-2.4h-7.7425q-2.4 0-2.4 2.4z" clip-path="url(#a)" fill="#fff" stroke="#fff"/>
<g clip-path="url(#a)">
<g transform="translate(808.77 698.24) rotate(90) scale(.08 -.08)">
<use xlink:href="#i"/>
<use x="44.083984" xlink:href="#e"/>
<use x="105.607422" xlink:href="#f"/>
<use x="144.970703" xlink:href="#k"/>
<use x="242.382812" xlink:href="#j"/>
<use x="270.166016" xlink:href="#g"/>
<use x="333.544922" xlink:href="#h"/>
<use x="394.824219" xlink:href="#l"/>
</g>
</g>
<path d="m1487.6 698.24v33.808q0 2.4 2.4 2.4h7.7425q2.4 0 2.4-2.4v-33.808q0-2.4-2.4-2.4h-7.7425q-2.4 0-2.4 2.4z" clip-path="url(#a)" fill="#fff" stroke="#fff"/>
<g clip-path="url(#a)">
<g transform="translate(1491.7 698.24) rotate(90) scale(.08 -.08)">
<use xlink:href="#i"/>
<use x="44.083984" xlink:href="#e"/>
<use x="105.607422" xlink:href="#f"/>
<use x="144.970703" xlink:href="#k"/>
<use x="242.382812" xlink:href="#j"/>
<use x="270.166016" xlink:href="#g"/>
<use x="333.544922" xlink:href="#h"/>
<use x="394.824219" xlink:href="#l"/>
</g>
</g>
<defs>
<path id="b" d="m0 8.6603c2.2967 0 4.4997-0.9125 6.1237-2.5365 1.624-1.624 2.5365-3.827 2.5365-6.1237s-0.9125-4.4997-2.5365-6.1237c-1.624-1.624-3.827-2.5365-6.1237-2.5365s-4.4997 0.9125-6.1237 2.5365c-1.624 1.624-2.5365 3.827-2.5365 6.1237s0.9125 4.4997 2.5365 6.1237c1.624 1.624 3.827 2.5365 6.1237 2.5365z"/>
</defs>
<g clip-path="url(#a)" fill="#ffffff" stroke="#ffffff">
<use x="71.393939" y="789.090909" xlink:href="#b"/>
<use x="82.190754" y="789.090909" xlink:href="#b"/>
<use x="92.987569" y="789.090909" xlink:href="#b"/>
<use x="106.483588" y="789.090909" xlink:href="#b"/>
<use x="122.678811" y="789.090909" xlink:href="#b"/>
<use x="141.573237" y="789.090909" xlink:href="#b"/>
<use x="163.166867" y="789.090909" xlink:href="#b"/>
<use x="187.459701" y="789.090909" xlink:href="#b"/>
<use x="214.451739" y="789.090909" xlink:href="#b"/>
<use x="244.14298" y="789.090909" xlink:href="#b"/>
<use x="276.533425" y="789.090909" xlink:href="#b"/>
<use x="311.623074" y="789.090909" xlink:href="#b"/>
<use x="349.411926" y="789.090909" xlink:href="#b"/>
<use x="389.899983" y="789.090909" xlink:href="#b"/>
<use x="433.087243" y="789.090909" xlink:href="#b"/>
<use x="478.973707" y="789.090909" xlink:href="#b"/>
<use x="527.559374" y="789.090909" xlink:href="#b"/>
<use x="578.844246" y="789.090909" xlink:href="#b"/>
<use x="632.828321" y="789.090909" xlink:href="#b"/>
<use x="689.5116" y="789.090909" xlink:href="#b"/>
<use x="748.894083" y="789.090909" xlink:href="#b"/>
<use x="810.975769" y="789.090909" xlink:href="#b"/>
<use x="875.756659" y="789.090909" xlink:href="#b"/>
<use x="943.236753" y="789.090909" xlink:href="#b"/>
<use x="1013.416051" y="789.090909" xlink:href="#b"/>
<use x="1086.294552" y="789.090909" xlink:href="#b"/>
<use x="1161.872258" y="789.090909" xlink:href="#b"/>
<use x="1240.149167" y="789.090909" xlink:href="#b"/>
<use x="1323.824483" y="789.090909" xlink:href="#b"/>
<use x="1407.4998" y="789.090909" xlink:href="#b"/>
<use x="1493.87432" y="789.090909" xlink:href="#b"/>
<use x="1499.272727" y="340.479304" xlink:href="#b"/>
<use x="1499.272727" y="641.18755" xlink:href="#b"/>
<use x="1242.84837" y="641.18755" xlink:href="#b"/>
<use x="74.093143" y="641.18755" xlink:href="#b"/>
<use x="418.620417" y="37.575758" xlink:href="#b"/>
<use x="71.393939" y="491.226693" xlink:href="#b"/>
<use x="144.272441" y="340.479304" xlink:href="#b"/>
<use x="312.719625" y="189.218858" xlink:href="#b"/>
<use x="605.836283" y="491.226693" xlink:href="#b"/>
<use x="410.144011" y="491.226693" xlink:href="#b"/>
<use x="1061.401895" y="189.218858" xlink:href="#b"/>
<use x="875.756659" y="641.18755" xlink:href="#b"/>
<use x="1014.315785" y="491.226693" xlink:href="#b"/>
<use x="1294.133242" y="340.479304" xlink:href="#b"/>
<use x="1161.872258" y="641.18755" xlink:href="#b"/>
<use x="1240.149167" y="491.226693" xlink:href="#b"/>
<use x="1323.824483" y="641.18755" xlink:href="#b"/>
<use x="1450.68706" y="491.226693" xlink:href="#b"/>
<use x="1407.4998" y="641.18755" xlink:href="#b"/>
<use x="1240.149167" y="641.18755" xlink:href="#b"/>
<use x="943.236753" y="641.18755" xlink:href="#b"/>
<use x="1013.416051" y="641.18755" xlink:href="#b"/>
<use x="1086.294552" y="641.18755" xlink:href="#b"/>
<use x="748.894083" y="641.18755" xlink:href="#b"/>
<use x="578.844246" y="641.18755" xlink:href="#b"/>
<use x="632.828321" y="641.18755" xlink:href="#b"/>
<use x="244.14298" y="641.18755" xlink:href="#b"/>
<use x="276.533425" y="641.18755" xlink:href="#b"/>
<use x="311.623074" y="641.18755" xlink:href="#b"/>
<use x="418.579023" y="340.479304" xlink:href="#b"/>
<use x="349.411926" y="641.18755" xlink:href="#b"/>
<use x="389.899983" y="641.18755" xlink:href="#b"/>
<use x="456.030475" y="491.226693" xlink:href="#b"/>
<use x="478.973707" y="641.18755" xlink:href="#b"/>
<use x="433.087243" y="641.18755" xlink:href="#b"/>
<use x="106.483588" y="491.226693" xlink:href="#b"/>
<use x="122.678811" y="641.18755" xlink:href="#b"/>
<use x="141.573237" y="641.18755" xlink:href="#b"/>
<use x="163.166867" y="641.18755" xlink:href="#b"/>
<use x="187.459701" y="641.18755" xlink:href="#b"/>
<use x="106.483588" y="641.18755" xlink:href="#b"/>
<use x="71.393939" y="641.18755" xlink:href="#b"/>
<use x="82.190754" y="641.18755" xlink:href="#b"/>
<use x="92.987569" y="641.18755" xlink:href="#b"/>
<use x="214.451739" y="641.18755" xlink:href="#b"/>
<use x="527.559374" y="641.18755" xlink:href="#b"/>
<use x="689.5116" y="641.18755" xlink:href="#b"/>
<use x="810.975769" y="641.18755" xlink:href="#b"/>
<use x="1493.87432" y="641.18755" xlink:href="#b"/>
</g>
<g clip-path="url(#a)">
<g transform="translate(59.07 791.85) scale(.1 -.1)">
<defs>
<path id="p" d="m30.609 48.391q-7.2188 0-11.422-5.6406t-4.2031-15.453 4.1719-15.453q4.1875-5.6406 11.453-5.6406 7.1875 0 11.375 5.6562 4.2031 5.6719 4.2031 15.438 0 9.7188-4.2031 15.406-4.1875 5.6875-11.375 5.6875zm0 7.6094q11.719 0 18.406-7.625 6.7031-7.6094 6.7031-21.078 0-13.422-6.7031-21.078-6.6875-7.6406-18.406-7.6406-11.766 0-18.438 7.6406-6.6562 7.6562-6.6562 21.078 0 13.469 6.6562 21.078 6.6719 7.625 18.438 7.625z"/>
<path id="ab" d="m44.281 53.078v-8.5q-3.7969 1.9531-7.9062 2.9219-4.0938 0.98438-8.5 0.98438-6.6875 0-10.031-2.0469t-3.3438-6.1562q0-3.125 2.3906-4.9062t9.625-3.3906l3.0781-0.6875q9.5625-2.0469 13.594-5.7812t4.0312-10.422q0-7.625-6.0312-12.078-6.0312-4.4375-16.578-4.4375-4.3906 0-9.1562 0.85938t-10.031 2.5625v9.2812q4.9844-2.5938 9.8125-3.8906 4.8281-1.2812 9.5781-1.2812 6.3438 0 9.75 2.1719 3.4219 2.1719 3.4219 6.125 0 3.6562-2.4688 5.6094-2.4531 1.9531-10.812 3.7656l-3.125 0.73438q-8.3438 1.75-12.062 5.3906-3.7031 3.6406-3.7031 9.9844 0 7.7188 5.4688 11.906 5.4688 4.2031 15.531 4.2031 4.9688 0 9.3594-0.73438 4.4062-0.71875 8.1094-2.1875z"/>
</defs>
<use xlink:href="#y"/>
<use x="69.824219" xlink:href="#p"/>
<use x="131.005859" xlink:href="#g"/>
<use x="194.384766" xlink:href="#ab"/>
</g>
</g>
<g clip-path="url(#a)">
<g transform="translate(80.506 791.85) scale(.1 -.1)">
<defs>
<path id="az" d="m11.719 12.406h10.297v-12.406h-10.297zm0 39.297h10.297v-12.391h-10.297z"/>
</defs>
<use xlink:href="#az"/>
</g>
</g>
<g clip-path="url(#a)">
<g transform="translate(90.488 791.85) scale(.1 -.1)">
<defs>
<path id="ag" d="m47.016 60.891-17.516-9.4688 17.516-9.5312-2.8281-4.7812-16.406 9.9062v-18.406h-5.5625v18.406l-16.406-9.9062-2.8281 4.7812 17.531 9.5312-17.531 9.4688 2.8281 4.8281 16.406-9.9062v18.406h5.5625v-18.406l16.406 9.9062z"/>
</defs>
<use xlink:href="#ag"/>
</g>
</g>
<g clip-path="url(#a)">
<g transform="translate(90.086 791.85) scale(.1 -.1)">
<defs>
<path id="al" d="m2.9844 54.688h9.5156l17.094-45.891 17.094 45.891h9.5156l-20.516-54.688h-12.203z"/>
</defs>
<use xlink:href="#x"/>
<use x="63.476562" xlink:href="#e"/>
<use x="125" xlink:href="#f"/>
<use x="166.113281" xlink:href="#al"/>
<use x="225.292969" xlink:href="#e"/>
<use x="286.816406" xlink:href="#f"/>
</g>
</g>
<g clip-path="url(#a)">
<g transform="translate(112.92 791.85) scale(.1 -.1)">
<defs>
<path id="bd" d="m4.2031 54.688h8.9844l11.234-42.672 11.172 42.672h10.594l11.234-42.672 11.188 42.672h8.9844l-14.312-54.688h-10.594l-11.766 44.828-11.812-44.828h-10.609z"/>
</defs>
<use xlink:href="#bd"/>
<use x="81.787109" xlink:href="#h"/>
<use x="143.066406" xlink:href="#ab"/>
</g>
</g>
<g clip-path="url(#a)">
<g transform="translate(135.07 791.85) scale(.1 -.1)">
<defs>
<path id="bb" d="m17.922 72.906v-27.109h-8.2969v27.109z"/>
<path id="t" d="m18.312 70.219v-15.531h18.5v-6.9844h-18.5v-29.688q0-6.6875 1.8281-8.5938t7.4531-1.9062h9.2188v-7.5156h-9.2188q-10.406 0-14.359 3.875-3.9531 3.8906-3.9531 14.141v29.688h-6.5938v6.9844h6.5938v15.531z"/>
</defs>
<use xlink:href="#g"/>
<use x="63.378906" xlink:href="#bb"/>
<use x="90.869141" xlink:href="#t"/>
</g>
</g>
<g clip-path="url(#a)">
<g transform="translate(152.12 791.85) scale(.1 -.1)">
<defs>
<path id="ar" d="m32.172-5.0781q-3.7969-9.7656-7.4219-12.734-3.6094-2.9844-9.6562-2.9844h-7.1875v7.5156h5.2812q3.7031 0 5.75 1.7656 2.0625 1.75 4.5469 8.2969l1.6094 4.0938-22.109 53.812h9.5156l17.094-42.766 17.094 42.766h9.5156z"/>
</defs>
<use xlink:href="#al"/>
<use x="59.179688" xlink:href="#e"/>
<use x="120.703125" xlink:href="#f"/>
<use x="161.816406" xlink:href="#ar"/>
</g>
</g>
<g clip-path="url(#a)">
<g transform="translate(165.96 791.85) scale(.1 -.1)">
<defs>
<path id="at" d="m18.109 8.2031v-29h-9.0312v75.484h9.0312v-8.2969q2.8438 4.875 7.1562 7.2344 4.3281 2.375 10.328 2.375 9.9688 0 16.188-7.9062 6.2344-7.9062 6.2344-20.797t-6.2344-20.812q-6.2188-7.9062-16.188-7.9062-6 0-10.328 2.375-4.3125 2.375-7.1562 7.25zm30.578 19.094q0 9.9062-4.0781 15.547t-11.203 5.6406q-7.1406 0-11.219-5.6406t-4.0781-15.547 4.0781-15.547 11.219-5.6406q7.125 0 11.203 5.6406t4.0781 15.547z"/>
</defs>
<use xlink:href="#at"/>
<use x="63.476562" xlink:href="#l"/>
<use x="91.259766" xlink:href="#e"/>
<use x="152.783203" xlink:href="#h"/>
<use x="214.0625" xlink:href="#ab"/>
<use x="266.162109" xlink:href="#h"/>
<use x="327.441406" xlink:href="#g"/>
<use x="390.820312" xlink:href="#t"/>
</g>
</g>
<g clip-path="url(#a)">
<g transform="translate(211.95 791.85) scale(.1 -.1)">
<use xlink:href="#ag"/>
</g>
</g>
<g clip-path="url(#a)">
<g transform="translate(229.32 791.85) scale(.1 -.1)">
<use xlink:href="#u"/>
<use x="58.552734" xlink:href="#f"/>
<use x="97.416016" xlink:href="#e"/>
<use x="158.939453" xlink:href="#t"/>
<use x="198.148438" xlink:href="#t"/>
<use x="237.357422" xlink:href="#ar"/>
</g>
</g>
<g clip-path="url(#a)">
<g transform="translate(263.22 791.85) scale(.1 -.1)">
<use xlink:href="#ab"/>
<use x="52.099609" xlink:href="#k"/>
<use x="149.511719" xlink:href="#h"/>
<use x="210.791016" xlink:href="#l"/>
<use x="238.574219" xlink:href="#l"/>
</g>
</g>
<g clip-path="url(#a)">
<g transform="translate(293.76 791.85) scale(.1 -.1)">
<use xlink:href="#at"/>
<use x="63.476562" xlink:href="#p"/>
<use x="124.658203" xlink:href="#f"/>
<use x="165.771484" xlink:href="#t"/>
<use x="204.980469" xlink:href="#j"/>
<use x="232.763672" xlink:href="#p"/>
<use x="293.945312" xlink:href="#g"/>
</g>
</g>
<g clip-path="url(#a)">
<g transform="translate(343.18 791.85) scale(.1 -.1)">
<use xlink:href="#p"/>
<use x="61.181641" xlink:href="#g"/>
</g>
</g>
<g clip-path="url(#a)">
<g transform="translate(381.69 791.85) scale(.1 -.1)">
<defs>
<path id="au" d="m54.891 33.016v-33.016h-8.9844v32.719q0 7.7656-3.0312 11.609-3.0312 3.8594-9.0781 3.8594-7.2812 0-11.484-4.6406-4.2031-4.625-4.2031-12.641v-30.906h-9.0312v75.984h9.0312v-29.797q3.2344 4.9375 7.5938 7.375 4.375 2.4375 10.094 2.4375 9.4219 0 14.25-5.8281 4.8438-5.8281 4.8438-17.156z"/>
</defs>
<use xlink:href="#t"/>
<use x="39.208984" xlink:href="#au"/>
<use x="102.587891" xlink:href="#e"/>
</g>
</g>
<g clip-path="url(#a)">
<g transform="translate(407.5 791.85) scale(.1 -.1)">
<defs>
<path id="ao" d="m48.688 27.297q0 9.9062-4.0781 15.547t-11.203 5.6406q-7.1406 0-11.219-5.6406t-4.0781-15.547 4.0781-15.547 11.219-5.6406q7.125 0 11.203 5.6406t4.0781 15.547zm-30.578 19.094q2.8438 4.875 7.1562 7.2344 4.3281 2.375 10.328 2.375 9.9688 0 16.188-7.9062 6.2344-7.9062 6.2344-20.797t-6.2344-20.812q-6.2188-7.9062-16.188-7.9062-6 0-10.328 2.375-4.3125 2.375-7.1562 7.25v-8.2031h-9.0312v75.984h9.0312z"/>
<path id="ai" d="m48.781 52.594v-8.4062q-3.8125 2.1094-7.6406 3.1562t-7.7344 1.0469q-8.75 0-13.594-5.5469-4.8281-5.5312-4.8281-15.547t4.8281-15.562q4.8438-5.5312 13.594-5.5312 3.9062 0 7.7344 1.0469t7.6406 3.1562v-8.3125q-3.7656-1.75-7.7969-2.625-4.0156-0.89062-8.5625-0.89062-12.359 0-19.641 7.7656-7.2656 7.7656-7.2656 20.953 0 13.375 7.3438 21.031 7.3594 7.6719 20.156 7.6719 4.1406 0 8.0938-0.85938 3.9531-0.84375 7.6719-2.5469z"/>
<path id="am" d="m9.0781 75.984h9.0312v-44.875l26.812 23.578h11.469l-29-25.578 30.234-29.109h-11.719l-27.797 26.703v-26.703h-9.0312z"/>
<path id="ah" d="m45.406 46.391v29.594h8.9844v-75.984h-8.9844v8.2031q-2.8281-4.875-7.1562-7.25-4.3125-2.375-10.375-2.375-9.9062 0-16.141 7.9062-6.2188 7.9219-6.2188 20.812t6.2188 20.797q6.2344 7.9062 16.141 7.9062 6.0625 0 10.375-2.375 4.3281-2.3594 7.1562-7.2344zm-30.609-19.094q0-9.9062 4.0781-15.547t11.203-5.6406 11.219 5.6406q4.1094 5.6406 4.1094 15.547t-4.1094 15.547q-4.0938 5.6406-11.219 5.6406t-11.203-5.6406-4.0781-15.547z"/>
</defs>
<use xlink:href="#ao"/>
<use x="63.476562" xlink:href="#l"/>
<use x="91.259766" xlink:href="#h"/>
<use x="152.539062" xlink:href="#ai"/>
<use x="207.519531" xlink:href="#am"/>
<use x="261.804688" xlink:href="#e"/>
<use x="323.328125" xlink:href="#g"/>
<use x="386.707031" xlink:href="#e"/>
<use x="448.230469" xlink:href="#ah"/>
</g>
</g>
<g clip-path="url(#a)">
<g transform="translate(462.28 791.85) scale(.1 -.1)">
<defs>
<path id="an" d="m37.109 75.984v-7.4844h-8.5938q-4.8281 0-6.7188-1.9531-1.875-1.9531-1.875-7.0312v-4.8281h14.797v-6.9844h-14.797v-47.703h-9.0312v47.703h-8.5938v6.9844h8.5938v3.8125q0 9.125 4.25 13.297 4.25 4.1875 13.469 4.1875z"/>
</defs>
<use xlink:href="#ai"/>
<use x="54.980469" xlink:href="#h"/>
<use x="116.259766" xlink:href="#t"/>
<use x="155.46875" xlink:href="#an"/>
<use x="190.673828" xlink:href="#j"/>
<use x="218.457031" xlink:href="#ab"/>
<use x="270.556641" xlink:href="#au"/>
</g>
</g>
<g clip-path="url(#a)">
<g transform="translate(525.06 791.85) scale(.1 -.1)">
<use xlink:href="#ag"/>
</g>
</g>
<g clip-path="url(#a)">
<g transform="translate(549.1 791.85) scale(.1 -.1)">
<defs>
<path id="ay" d="m39.406 66.219q-10.75 0-17.078-8.0156-6.3125-8-6.3125-21.828 0-13.766 6.3125-21.781 6.3281-8 17.078-8 10.734 0 17.016 8 6.2812 8.0156 6.2812 21.781 0 13.828-6.2812 21.828-6.2812 8.0156-17.016 8.0156zm0 8q15.328 0 24.5-10.281 9.1875-10.281 9.1875-27.562 0-17.234-9.1875-27.516-9.1719-10.281-24.5-10.281-15.375 0-24.594 10.25-9.2031 10.266-9.2031 27.547t9.2031 27.562q9.2188 10.281 24.594 10.281z"/>
</defs>
<use xlink:href="#ay"/>
<use x="78.710938" xlink:href="#al"/>
<use x="137.890625" xlink:href="#e"/>
<use x="199.414062" xlink:href="#f"/>
<use x="238.277344" xlink:href="#ai"/>
<use x="293.257812" xlink:href="#p"/>
<use x="354.439453" xlink:href="#p"/>
<use x="415.621094" xlink:href="#am"/>
<use x="469.90625" xlink:href="#e"/>
<use x="531.429688" xlink:href="#ah"/>
</g>
</g>
<g clip-path="url(#a)">
<g transform="translate(621.78 791.85) scale(.1 -.1)">
<use xlink:href="#an"/>
<use x="35.205078" xlink:href="#p"/>
<use x="96.386719" xlink:href="#p"/>
<use x="157.568359" xlink:href="#ah"/>
</g>
</g>
<g clip-path="url(#a)">
<g transform="translate(687.01 791.85) scale(.1 -.1)">
<use xlink:href="#ag"/>
</g>
</g>
<g clip-path="url(#a)">
<g transform="translate(736.66 791.85) scale(.1 -.1)">
<use xlink:href="#i"/>
<use x="57.958984" xlink:href="#j"/>
<use x="85.742188" xlink:href="#k"/>
<use x="183.154297" xlink:href="#e"/>
</g>
</g>
<g clip-path="url(#a)">
<g transform="translate(809.39 791.85) scale(.1 -.1)">
<defs>
<path id="ba" d="m11.719 12.406h10.297v-8.4062l-8-15.625h-6.2969l4 15.625z"/>
</defs>
<use xlink:href="#ba"/>
</g>
</g>
<g clip-path="url(#a)">
<g transform="translate(864.78 791.85) scale(.1 -.1)">
<use xlink:href="#t"/>
<use x="39.208984" xlink:href="#p"/>
<use x="100.390625" xlink:href="#p"/>
<use x="161.572266" xlink:href="#am"/>
</g>
</g>
<g clip-path="url(#a)">
<g transform="translate(928.81 791.85) scale(.1 -.1)">
<defs>
<path id="as" d="m8.5 21.578v33.109h8.9844v-32.766q0-7.7656 3.0156-11.656 3.0312-3.875 9.0938-3.875 7.2656 0 11.484 4.6406 4.2344 4.6406 4.2344 12.656v31h8.9844v-54.688h-8.9844v8.4062q-3.2656-4.9844-7.5938-7.4062-4.3125-2.4219-10.031-2.4219-9.4219 0-14.312 5.8594-4.875 5.8594-4.875 17.141z"/>
</defs>
<use xlink:href="#h"/>
<use x="61.279297" xlink:href="#ao"/>
<use x="124.755859" xlink:href="#p"/>
<use x="185.9375" xlink:href="#as"/>
<use x="249.316406" xlink:href="#t"/>
</g>
</g>
<g clip-path="url(#a)">
<g transform="translate(1007.1 791.85) scale(.1 -.1)">
<defs>
<path id="o" d="m19.188 8.2969h34.422v-8.2969h-46.281v8.2969q5.6094 5.8125 15.297 15.594 9.7031 9.7969 12.188 12.641 4.7344 5.3125 6.6094 9 1.8906 3.6875 1.8906 7.25 0 5.8125-4.0781 9.4688-4.0781 3.6719-10.625 3.6719-4.6406 0-9.7969-1.6094-5.1406-1.6094-11-4.8906v9.9688q5.9531 2.3906 11.125 3.6094 5.1875 1.2188 9.4844 1.2188 11.328 0 18.062-5.6719 6.7344-5.6562 6.7344-15.125 0-4.5-1.6875-8.5312-1.6719-4.0156-6.125-9.4844-1.2188-1.4219-7.7656-8.1875-6.5312-6.7656-18.453-18.922z"/>
<path id="s" d="m10.797 72.906h38.719v-8.3125h-29.688v-17.859q2.1406 0.73438 4.2812 1.0938 2.1562 0.35938 4.3125 0.35938 12.203 0 19.328-6.6875 7.1406-6.6875 7.1406-18.109 0-11.766-7.3281-18.297-7.3281-6.5156-20.656-6.5156-4.5938 0-9.3594 0.78125-4.75 0.78125-9.8281 2.3438v9.9219q4.3906-2.3906 9.0781-3.5625t9.9062-1.1719q8.4531 0 13.375 4.4375 4.9375 4.4375 4.9375 12.062 0 7.6094-4.9375 12.047-4.9219 4.4531-13.375 4.4531-3.9531 0-7.8906-0.875-3.9219-0.875-8.0156-2.7344z"/>
</defs>
<use xlink:href="#o"/>
<use x="63.623047" xlink:href="#s"/>
</g>
</g>
<g clip-path="url(#a)">
<g transform="translate(1066.1 791.85) scale(.1 -.1)">
<use xlink:href="#k"/>
<use x="97.412109" xlink:href="#j"/>
<use x="125.195312" xlink:href="#g"/>
<use x="188.574219" xlink:href="#as"/>
<use x="251.953125" xlink:href="#t"/>
<use x="291.162109" xlink:href="#e"/>
<use x="352.685547" xlink:href="#ab"/>
</g>
</g>
<g clip-path="url(#a)">
<g transform="translate(1150.2 791.85) scale(.1 -.1)">
<use xlink:href="#an"/>
<use x="35.205078" xlink:href="#f"/>
<use x="74.068359" xlink:href="#p"/>
<use x="135.25" xlink:href="#k"/>
</g>
</g>
<g clip-path="url(#a)">
<g transform="translate(1219.1 791.85) scale(.1 -.1)">
<defs>
<path id="av" d="m45.406 27.984q0 9.7656-4.0312 15.125-4.0156 5.375-11.297 5.375-7.2188 0-11.25-5.375-4.0312-5.3594-4.0312-15.125 0-9.7188 4.0312-15.094t11.25-5.375q7.2812 0 11.297 5.375 4.0312 5.375 4.0312 15.094zm8.9844-21.203q0-13.953-6.2031-20.766-6.1875-6.8125-18.984-6.8125-4.7344 0-8.9375 0.70312t-8.1562 2.1719v8.7344q3.9531-2.1406 7.8125-3.1562 3.8594-1.0312 7.8594-1.0312 8.8438 0 13.234 4.6094t4.3906 13.938v4.4531q-2.7812-4.8438-7.125-7.2344t-10.406-2.3906q-10.047 0-16.203 7.6562-6.1562 7.6719-6.1562 20.328 0 12.688 6.1562 20.344 6.1562 7.6719 16.203 7.6719 6.0625 0 10.406-2.3906t7.125-7.2188v8.2969h8.9844z"/>
</defs>
<use xlink:href="#p"/>
<use x="61.181641" xlink:href="#f"/>
<use x="100.544922" xlink:href="#ah"/>
<use x="164.021484" xlink:href="#e"/>
<use x="225.544922" xlink:href="#f"/>
<use x="266.658203" xlink:href="#j"/>
<use x="294.441406" xlink:href="#g"/>
<use x="357.820312" xlink:href="#av"/>
</g>
</g>
<g clip-path="url(#a)">
<g transform="translate(1318.8 791.85) scale(.1 -.1)">
<use xlink:href="#t"/>
<use x="39.208984" xlink:href="#p"/>
</g>
</g>
<g clip-path="url(#a)">
<g transform="translate(1391.7 791.85) scale(.1 -.1)">
<use xlink:href="#e"/>
<use x="61.523438" xlink:href="#h"/>
<use x="122.802734" xlink:href="#t"/>
<use x="162.011719" xlink:href="#j"/>
<use x="189.794922" xlink:href="#g"/>
<use x="253.173828" xlink:href="#av"/>
</g>
</g>
<g clip-path="url(#a)">
<g transform="translate(1492.3 791.85) scale(.1 -.1)">
<defs>
<path id="d" d="m10.688 12.406h10.312v-12.406h-10.312z"/>
</defs>
<use xlink:href="#d"/>
</g>
</g>
<g clip-path="url(#a)">
<g transform="translate(1478.2 343.24) scale(.1 -.1)">
<defs>
<path id="q" d="m9.8125 72.906h9.8594v-72.906h-9.8594z"/>
<path id="ad" d="m9.8125 72.906h14.703l18.594-49.609 18.703 49.609h14.703v-72.906h-9.625v64.016l-18.797-50h-9.9062l-18.797 50v-64.016h-9.5781z"/>
</defs>
<use xlink:href="#q"/>
<use x="29.492188" xlink:href="#ad"/>
<use x="115.771484" xlink:href="#u"/>
<use x="176.074219" xlink:href="#z"/>
<use x="231.787109" xlink:href="#q"/>
<use x="261.279297" xlink:href="#y"/>
<use x="331.103516" xlink:href="#q"/>
<use x="360.595703" xlink:href="#i"/>
</g>
</g>
<g clip-path="url(#a)">
<g transform="translate(1478.2 643.95) scale(.1 -.1)">
<use xlink:href="#q"/>
<use x="29.492188" xlink:href="#ad"/>
<use x="115.771484" xlink:href="#u"/>
<use x="176.074219" xlink:href="#z"/>
<use x="231.787109" xlink:href="#q"/>
<use x="261.279297" xlink:href="#y"/>
<use x="331.103516" xlink:href="#q"/>
<use x="360.595703" xlink:href="#i"/>
</g>
</g>
<g clip-path="url(#a)">
<g transform="translate(1221.8 643.95) scale(.1 -.1)">
<use xlink:href="#q"/>
<use x="29.492188" xlink:href="#ad"/>
<use x="115.771484" xlink:href="#u"/>
<use x="176.074219" xlink:href="#z"/>
<use x="231.787109" xlink:href="#q"/>
<use x="261.279297" xlink:href="#y"/>
<use x="331.103516" xlink:href="#q"/>
<use x="360.595703" xlink:href="#i"/>
</g>
</g>
<g clip-path="url(#a)">
<g transform="translate(53.008 643.95) scale(.1 -.1)">
<use xlink:href="#q"/>
<use x="29.492188" xlink:href="#ad"/>
<use x="115.771484" xlink:href="#u"/>
<use x="176.074219" xlink:href="#z"/>
<use x="231.787109" xlink:href="#q"/>
<use x="261.279297" xlink:href="#y"/>
<use x="331.103516" xlink:href="#q"/>
<use x="360.595703" xlink:href="#i"/>
</g>
</g>
<g clip-path="url(#a)">
<g transform="translate(410.67 40.335) scale(.1 -.1)">
<defs>
<path id="c" d="m12.406 8.2969h16.109v55.625l-17.531-3.5156v8.9844l17.438 3.5156h9.8594v-64.609h16.109v-8.2969h-41.984z"/>
</defs>
<use xlink:href="#c"/>
<use x="63.623047" xlink:href="#d"/>
<use x="95.410156" xlink:href="#c"/>
</g>
</g>
<g clip-path="url(#a)">
<g transform="translate(63.442 493.99) scale(.1 -.1)">
<use xlink:href="#c"/>
<use x="63.623047" xlink:href="#d"/>
<use x="95.410156" xlink:href="#o"/>
</g>
</g>
<g clip-path="url(#a)">
<g transform="translate(136.32 343.24) scale(.1 -.1)">
<defs>
<path id="n" d="m40.578 39.312q7.0781-1.5156 11.047-6.3125 3.9844-4.7812 3.9844-11.812 0-10.781-7.4219-16.703-7.4219-5.9062-21.094-5.9062-4.5781 0-9.4375 0.90625t-10.031 2.7188v9.5156q4.0938-2.3906 8.9688-3.6094 4.8906-1.2188 10.219-1.2188 9.2656 0 14.125 3.6562t4.8594 10.641q0 6.4531-4.5156 10.078-4.5156 3.6406-12.562 3.6406h-8.5v8.1094h8.8906q7.2656 0 11.125 2.9062t3.8594 8.375q0 5.6094-3.9844 8.6094-3.9688 3.0156-11.391 3.0156-4.0625 0-8.7031-0.89062-4.6406-0.875-10.203-2.7188v8.7812q5.625 1.5625 10.531 2.3438t9.25 0.78125q11.234 0 17.766-5.1094 6.5469-5.0938 6.5469-13.781 0-6.0625-3.4688-10.234t-9.8594-5.7812z"/>
</defs>
<use xlink:href="#c"/>
<use x="63.623047" xlink:href="#d"/>
<use x="95.410156" xlink:href="#n"/>
</g>
</g>
<g clip-path="url(#a)">
<g transform="translate(304.77 191.98) scale(.1 -.1)">
<defs>
<path id="m" d="m37.797 64.312-24.906-38.922h24.906zm-2.5938 8.5938h12.406v-47.516h10.406v-8.2031h-10.406v-17.188h-9.8125v17.188h-32.906v9.5156z"/>
</defs>
<use xlink:href="#c"/>
<use x="63.623047" xlink:href="#d"/>
<use x="95.410156" xlink:href="#m"/>
</g>
</g>
<g clip-path="url(#a)">
<g transform="translate(597.88 493.99) scale(.1 -.1)">
<use xlink:href="#c"/>
<use x="63.623047" xlink:href="#d"/>
<use x="95.410156" xlink:href="#s"/>
</g>
</g>
<g clip-path="url(#a)">
<g transform="translate(402.19 493.99) scale(.1 -.1)">
<defs>
<path id="aa" d="m33.016 40.375q-6.6406 0-10.531-4.5469-3.875-4.5312-3.875-12.438 0-7.8594 3.875-12.438 3.8906-4.5625 10.531-4.5625t10.516 4.5625q3.875 4.5781 3.875 12.438 0 7.9062-3.875 12.438-3.875 4.5469-10.516 4.5469zm19.578 30.922v-8.9844q-3.7188 1.75-7.5 2.6719-3.7812 0.9375-7.5 0.9375-9.7656 0-14.922-6.5938-5.1406-6.5938-5.875-19.922 2.875 4.25 7.2188 6.5156 4.3594 2.2656 9.5781 2.2656 10.984 0 17.359-6.6719 6.375-6.6562 6.375-18.125 0-11.234-6.6406-18.031-6.6406-6.7812-17.672-6.7812-12.656 0-19.344 9.6875-6.6875 9.7031-6.6875 28.109 0 17.281 8.2031 27.562t22.016 10.281q3.7188 0 7.5-0.73438t7.8906-2.1875z"/>
</defs>
<use xlink:href="#c"/>
<use x="63.623047" xlink:href="#d"/>
<use x="95.410156" xlink:href="#aa"/>
</g>
</g>
<g clip-path="url(#a)">
<g transform="translate(1053.5 191.98) scale(.1 -.1)">
<defs>
<path id="ac" d="m8.2031 72.906h46.875v-4.2031l-26.469-68.703h-10.297l24.906 64.594h-35.016z"/>
</defs>
<use xlink:href="#c"/>
<use x="63.623047" xlink:href="#d"/>
<use x="95.410156" xlink:href="#ac"/>
</g>
</g>
<g clip-path="url(#a)">
<g transform="translate(864.62 643.95) scale(.1 -.1)">
<use xlink:href="#c"/>
<use x="63.623047" xlink:href="#d"/>
<use x="95.410156" xlink:href="#c"/>
<use x="159.033203" xlink:href="#aa"/>
</g>
</g>
<g clip-path="url(#a)">
<g transform="translate(1003.2 493.99) scale(.1 -.1)">
<use xlink:href="#c"/>
<use x="63.623047" xlink:href="#d"/>
<use x="95.410156" xlink:href="#c"/>
<use x="159.033203" xlink:href="#ac"/>
</g>
</g>
<g clip-path="url(#a)">
<g transform="translate(1283 343.24) scale(.1 -.1)">
<defs>
<path id="ak" d="m31.781 34.625q-7.0312 0-11.062-3.7656-4.0156-3.7656-4.0156-10.344 0-6.5938 4.0156-10.359 4.0312-3.7656 11.062-3.7656t11.078 3.7812q4.0625 3.7969 4.0625 10.344 0 6.5781-4.0312 10.344-4.0156 3.7656-11.109 3.7656zm-9.8594 4.1875q-6.3438 1.5625-9.8906 5.9062-3.5312 4.3594-3.5312 10.609 0 8.7344 6.2188 13.812 6.2344 5.0781 17.062 5.0781 10.891 0 17.094-5.0781t6.2031-13.812q0-6.25-3.5469-10.609-3.5312-4.3438-9.8281-5.9062 7.125-1.6562 11.094-6.5 3.9844-4.8281 3.9844-11.797 0-10.609-6.4688-16.281-6.4688-5.6562-18.531-5.6562-12.047 0-18.531 5.6562-6.4688 5.6719-6.4688 16.281 0 6.9688 4 11.797 4.0156 4.8438 11.141 6.5zm-3.6094 15.578q0-5.6562 3.5312-8.8281 3.5469-3.1719 9.9375-3.1719 6.3594 0 9.9375 3.1719 3.5938 3.1719 3.5938 8.8281 0 5.6719-3.5938 8.8438-3.5781 3.1719-9.9375 3.1719-6.3906 0-9.9375-3.1719-3.5312-3.1719-3.5312-8.8438z"/>
</defs>
<use xlink:href="#c"/>
<use x="63.623047" xlink:href="#d"/>
<use x="95.410156" xlink:href="#c"/>
<use x="159.033203" xlink:href="#ak"/>
</g>
</g>
<g clip-path="url(#a)">
<g transform="translate(1150.7 643.95) scale(.1 -.1)">
<defs>
<path id="ae" d="m10.984 1.5156v8.9844q3.7188-1.7656 7.5156-2.6875 3.8125-0.92188 7.4844-0.92188 9.7656 0 14.906 6.5625 5.1562 6.5625 5.8906 19.953-2.8281-4.2031-7.1875-6.4531-4.3438-2.25-9.6094-2.25-10.938 0-17.312 6.6094-6.375 6.625-6.375 18.109 0 11.219 6.6406 18 6.6406 6.7969 17.672 6.7969 12.656 0 19.312-9.7031 6.6719-9.6875 6.6719-28.141 0-17.234-8.1875-27.516-8.1719-10.281-21.984-10.281-3.7188 0-7.5312 0.73438-3.7969 0.73438-7.9062 2.2031zm19.625 30.906q6.6406 0 10.516 4.5312 3.8906 4.5469 3.8906 12.469 0 7.8594-3.8906 12.422-3.875 4.5625-10.516 4.5625t-10.516-4.5625-3.875-12.422q0-7.9219 3.875-12.469 3.875-4.5312 10.516-4.5312z"/>
</defs>
<use xlink:href="#c"/>
<use x="63.623047" xlink:href="#d"/>
<use x="95.410156" xlink:href="#c"/>
<use x="159.033203" xlink:href="#ae"/>
</g>
</g>
<g clip-path="url(#a)">
<g transform="translate(1229 493.99) scale(.1 -.1)">
<defs>
<path id="af" d="m31.781 66.406q-7.6094 0-11.453-7.5-3.8281-7.4844-3.8281-22.531 0-14.984 3.8281-22.484 3.8438-7.5 11.453-7.5 7.6719 0 11.5 7.5 3.8438 7.5 3.8438 22.484 0 15.047-3.8438 22.531-3.8281 7.5-11.5 7.5zm0 7.8125q12.266 0 18.734-9.7031 6.4688-9.6875 6.4688-28.141 0-18.406-6.4688-28.109-6.4688-9.6875-18.734-9.6875-12.25 0-18.719 9.6875-6.4688 9.7031-6.4688 28.109 0 18.453 6.4688 28.141 6.4688 9.7031 18.719 9.7031z"/>
</defs>
<use xlink:href="#c"/>
<use x="63.623047" xlink:href="#d"/>
<use x="95.410156" xlink:href="#o"/>
<use x="159.033203" xlink:href="#af"/>
</g>
</g>
<g clip-path="url(#a)">
<g transform="translate(1312.7 643.95) scale(.1 -.1)">
<use xlink:href="#c"/>
<use x="63.623047" xlink:href="#d"/>
<use x="95.410156" xlink:href="#o"/>
<use x="159.033203" xlink:href="#c"/>
</g>
</g>
<g clip-path="url(#a)">
<g transform="translate(1439.6 493.99) scale(.1 -.1)">
<use xlink:href="#c"/>
<use x="63.623047" xlink:href="#d"/>
<use x="95.410156" xlink:href="#o"/>
<use x="159.033203" xlink:href="#o"/>
</g>
</g>
<g clip-path="url(#a)">
<g transform="translate(1396.4 643.95) scale(.1 -.1)">
<use xlink:href="#c"/>
<use x="63.623047" xlink:href="#d"/>
<use x="95.410156" xlink:href="#o"/>
<use x="159.033203" xlink:href="#m"/>
</g>
</g>
<g clip-path="url(#a)">
<g transform="translate(1229 643.95) scale(.1 -.1)">
<use xlink:href="#c"/>
<use x="63.623047" xlink:href="#d"/>
<use x="95.410156" xlink:href="#o"/>
<use x="159.033203" xlink:href="#aa"/>
</g>
</g>
<g clip-path="url(#a)">
<g transform="translate(932.1 643.95) scale(.1 -.1)">
<use xlink:href="#c"/>
<use x="63.623047" xlink:href="#d"/>
<use x="95.410156" xlink:href="#o"/>
<use x="159.033203" xlink:href="#ac"/>
</g>
</g>
<g clip-path="url(#a)">
<g transform="translate(1002.3 643.95) scale(.1 -.1)">
<use xlink:href="#c"/>
<use x="63.623047" xlink:href="#d"/>
<use x="95.410156" xlink:href="#o"/>
<use x="159.033203" xlink:href="#ak"/>
</g>
</g>
<g clip-path="url(#a)">
<g transform="translate(1075.2 643.95) scale(.1 -.1)">
<use xlink:href="#c"/>
<use x="63.623047" xlink:href="#d"/>
<use x="95.410156" xlink:href="#o"/>
<use x="159.033203" xlink:href="#ae"/>
</g>
</g>
<g clip-path="url(#a)">
<g transform="translate(737.76 643.95) scale(.1 -.1)">
<use xlink:href="#c"/>
<use x="63.623047" xlink:href="#d"/>
<use x="95.410156" xlink:href="#n"/>
<use x="159.033203" xlink:href="#af"/>
</g>
</g>
<g clip-path="url(#a)">
<g transform="translate(567.71 643.95) scale(.1 -.1)">
<use xlink:href="#c"/>
<use x="63.623047" xlink:href="#d"/>
<use x="95.410156" xlink:href="#n"/>
<use x="159.033203" xlink:href="#c"/>
</g>
</g>
<g clip-path="url(#a)">
<g transform="translate(621.7 643.95) scale(.1 -.1)">
<use xlink:href="#c"/>
<use x="63.623047" xlink:href="#d"/>
<use x="95.410156" xlink:href="#n"/>
<use x="159.033203" xlink:href="#o"/>
</g>
</g>
<g clip-path="url(#a)">
<g transform="translate(233.01 643.95) scale(.1 -.1)">
<use xlink:href="#c"/>
<use x="63.623047" xlink:href="#d"/>
<use x="95.410156" xlink:href="#n"/>
<use x="159.033203" xlink:href="#n"/>
</g>
</g>
<g clip-path="url(#a)">
<g transform="translate(265.4 643.95) scale(.1 -.1)">
<use xlink:href="#c"/>
<use x="63.623047" xlink:href="#d"/>
<use x="95.410156" xlink:href="#n"/>
<use x="159.033203" xlink:href="#m"/>
</g>
</g>
<g clip-path="url(#a)">
<g transform="translate(300.49 643.95) scale(.1 -.1)">
<use xlink:href="#c"/>
<use x="63.623047" xlink:href="#d"/>
<use x="95.410156" xlink:href="#n"/>
<use x="159.033203" xlink:href="#s"/>
</g>
</g>
<g clip-path="url(#a)">
<g transform="translate(407.45 343.24) scale(.1 -.1)">
<use xlink:href="#c"/>
<use x="63.623047" xlink:href="#d"/>
<use x="95.410156" xlink:href="#n"/>
<use x="159.033203" xlink:href="#aa"/>
</g>
</g>
<g clip-path="url(#a)">
<g transform="translate(338.28 643.95) scale(.1 -.1)">
<use xlink:href="#c"/>
<use x="63.623047" xlink:href="#d"/>
<use x="95.410156" xlink:href="#n"/>
<use x="159.033203" xlink:href="#ac"/>
</g>
</g>
<g clip-path="url(#a)">
<g transform="translate(378.77 643.95) scale(.1 -.1)">
<use xlink:href="#c"/>
<use x="63.623047" xlink:href="#d"/>
<use x="95.410156" xlink:href="#n"/>
<use x="159.033203" xlink:href="#ak"/>
</g>
</g>
<g clip-path="url(#a)">
<g transform="translate(444.9 493.99) scale(.1 -.1)">
<use xlink:href="#c"/>
<use x="63.623047" xlink:href="#d"/>
<use x="95.410156" xlink:href="#n"/>
<use x="159.033203" xlink:href="#ae"/>
</g>
</g>
<g clip-path="url(#a)">
<g transform="translate(467.84 643.95) scale(.1 -.1)">
<use xlink:href="#c"/>
<use x="63.623047" xlink:href="#d"/>
<use x="95.410156" xlink:href="#m"/>
<use x="159.033203" xlink:href="#af"/>
</g>
</g>
<g clip-path="url(#a)">
<g transform="translate(421.95 643.95) scale(.1 -.1)">
<use xlink:href="#c"/>
<use x="63.623047" xlink:href="#d"/>
<use x="95.410156" xlink:href="#m"/>
<use x="159.033203" xlink:href="#c"/>
</g>
</g>
<g clip-path="url(#a)">
<g transform="translate(95.351 493.99) scale(.1 -.1)">
<use xlink:href="#c"/>
<use x="63.623047" xlink:href="#d"/>
<use x="95.410156" xlink:href="#m"/>
<use x="159.033203" xlink:href="#o"/>
</g>
</g>
<g clip-path="url(#a)">
<g transform="translate(111.55 643.95) scale(.1 -.1)">
<use xlink:href="#c"/>
<use x="63.623047" xlink:href="#d"/>
<use x="95.410156" xlink:href="#m"/>
<use x="159.033203" xlink:href="#n"/>
</g>
</g>
<g clip-path="url(#a)">
<g transform="translate(130.44 643.95) scale(.1 -.1)">
<use xlink:href="#c"/>
<use x="63.623047" xlink:href="#d"/>
<use x="95.410156" xlink:href="#m"/>
<use x="159.033203" xlink:href="#m"/>
</g>
</g>
<g clip-path="url(#a)">
<g transform="translate(152.03 643.95) scale(.1 -.1)">
<use xlink:href="#c"/>
<use x="63.623047" xlink:href="#d"/>
<use x="95.410156" xlink:href="#m"/>
<use x="159.033203" xlink:href="#s"/>
</g>
</g>
<g clip-path="url(#a)">
<g transform="translate(176.33 643.95) scale(.1 -.1)">
<use xlink:href="#c"/>
<use x="63.623047" xlink:href="#d"/>
<use x="95.410156" xlink:href="#m"/>
<use x="159.033203" xlink:href="#aa"/>
</g>
</g>
<g clip-path="url(#a)">
<g transform="translate(95.351 643.95) scale(.1 -.1)">
<use xlink:href="#c"/>
<use x="63.623047" xlink:href="#d"/>
<use x="95.410156" xlink:href="#m"/>
<use x="159.033203" xlink:href="#ac"/>
</g>
</g>
<g clip-path="url(#a)">
<g transform="translate(60.261 643.95) scale(.1 -.1)">
<use xlink:href="#c"/>
<use x="63.623047" xlink:href="#d"/>
<use x="95.410156" xlink:href="#m"/>
<use x="159.033203" xlink:href="#ae"/>
</g>
</g>
<g clip-path="url(#a)">
<g transform="translate(71.058 643.95) scale(.1 -.1)">
<use xlink:href="#c"/>
<use x="63.623047" xlink:href="#d"/>
<use x="95.410156" xlink:href="#s"/>
<use x="159.033203" xlink:href="#af"/>
</g>
</g>
<g clip-path="url(#a)">
<g transform="translate(81.855 643.95) scale(.1 -.1)">
<use xlink:href="#c"/>
<use x="63.623047" xlink:href="#d"/>
<use x="95.410156" xlink:href="#s"/>
<use x="159.033203" xlink:href="#c"/>
</g>
</g>
<g clip-path="url(#a)">
<g transform="translate(203.32 643.95) scale(.1 -.1)">
<use xlink:href="#c"/>
<use x="63.623047" xlink:href="#d"/>
<use x="95.410156" xlink:href="#s"/>
<use x="159.033203" xlink:href="#o"/>
</g>
</g>
<g clip-path="url(#a)">
<g transform="translate(516.43 643.95) scale(.1 -.1)">
<use xlink:href="#c"/>
<use x="63.623047" xlink:href="#d"/>
<use x="95.410156" xlink:href="#s"/>
<use x="159.033203" xlink:href="#n"/>
</g>
</g>
<g clip-path="url(#a)">
<g transform="translate(678.38 643.95) scale(.1 -.1)">
<use xlink:href="#c"/>
<use x="63.623047" xlink:href="#d"/>
<use x="95.410156" xlink:href="#s"/>
<use x="159.033203" xlink:href="#m"/>
</g>
</g>
<g clip-path="url(#a)">
<g transform="translate(799.84 643.95) scale(.1 -.1)">
<use xlink:href="#c"/>
<use x="63.623047" xlink:href="#d"/>
<use x="95.410156" xlink:href="#s"/>
<use x="159.033203" xlink:href="#s"/>
</g>
</g>
<g clip-path="url(#a)">
<g transform="translate(1482.7 643.95) scale(.1 -.1)">
<use xlink:href="#c"/>
<use x="63.623047" xlink:href="#d"/>
<use x="95.410156" xlink:href="#s"/>
<use x="159.033203" xlink:href="#aa"/>
</g>
</g>
<defs>
<clipPath id="a">
<rect width="1570.7" height="826.67"/>
</clipPath>
</defs>
</svg>
