<?xml version="1.0" encoding="UTF-8"?>
<!DOCTYPE svg  PUBLIC '-//W3C//DTD SVG 1.1//EN'  'http://www.w3.org/Graphics/SVG/1.1/DTD/svg11.dtd'>
<svg width="1266.7pt" height="666.67pt" version="1.1" viewBox="0 0 1266.7 666.67" xmlns="http://www.w3.org/2000/svg" xmlns:xlink="http://www.w3.org/1999/xlink">
<metadata>
<rdf:RDF xmlns:cc="http://creativecommons.org/ns#" xmlns:dc="http://purl.org/dc/elements/1.1/" xmlns:rdf="http://www.w3.org/1999/02/22-rdf-syntax-ns#">
<cc:Work>
<dc:type rdf:resource="http://purl.org/dc/dcmitype/StillImage"/>
<dc:date>2021-02-25T11:30:28.308362</dc:date>
<dc:format>image/svg+xml</dc:format>
<dc:creator>
<cc:Agent>
<dc:title>Matplotlib v3.3.3, https://matplotlib.org/</dc:title>
</cc:Agent>
</dc:creator>
</cc:Work>
</rdf:RDF>
</metadata>
<defs>
<style type="text/css">*{stroke-linecap:butt;stroke-linejoin:round;}</style>
</defs>
<path d="m0 666.67h1266.7v-666.67h-1266.7z" fill="#fff"/>
<g fill="none" stroke="#000">
<path d="m303.27 30.303-200.52 122.29" clip-path="url(#a)"/>
<path d="m303.27 30.303-106.72 486.78" clip-path="url(#a)"/>
<path d="m303.27 30.303-25.371 122.29" clip-path="url(#a)"/>
<path d="m303.27 30.303 91.821 486.78" clip-path="url(#a)"/>
<path d="m303.27 30.303 33.914 365.85" clip-path="url(#a)"/>
<path d="m303.27 30.303 206.88 122.29" clip-path="url(#a)"/>
<path d="m102.74 152.6-37.722 121.98" clip-path="url(#a)"/>
<path d="m102.74 152.6-22.005 364.49" clip-path="url(#a)"/>
<path d="m102.74 152.6-5.4598 364.49" clip-path="url(#a)"/>
<path d="m102.74 152.6 14.394 364.49" clip-path="url(#a)"/>
<path d="m102.74 152.6 50.792 243.55" clip-path="url(#a)"/>
<path d="m196.55 517.09v119.28" clip-path="url(#a)"/>
<path d="m277.9 152.6-48.256 364.49" clip-path="url(#a)"/>
<path d="m277.9 152.6-11.857 364.49" clip-path="url(#a)"/>
<path d="m277.9 152.6 60.113 121.98" clip-path="url(#a)"/>
<path d="m395.09 517.09v119.28" clip-path="url(#a)"/>
<path d="m337.18 396.15 107.54 120.94" clip-path="url(#a)"/>
<path d="m337.18 396.15-107.54 120.94" clip-path="url(#a)" stroke-dasharray="3.7,1.6"/>
<path d="m510.14 152.6-12.478 364.49" clip-path="url(#a)"/>
<path d="m510.14 152.6 249.21 121.98" clip-path="url(#a)"/>
<path d="m510.14 152.6-280.5 364.49" clip-path="url(#a)" stroke-dasharray="3.7,1.6"/>
<path d="m510.14 152.6 43.775 364.49" clip-path="url(#a)"/>
<path d="m497.67 517.09v119.28" clip-path="url(#a)"/>
<path d="m759.35 274.58-145.87 242.51" clip-path="url(#a)"/>
<path d="m759.35 274.58-83 242.51" clip-path="url(#a)"/>
<path d="m759.35 274.58-16.821 242.51" clip-path="url(#a)"/>
<path d="m759.35 274.58 245.69 121.57" clip-path="url(#a)"/>
<path d="m613.48 517.09v119.28" clip-path="url(#a)"/>
<path d="m676.35 517.09v119.28" clip-path="url(#a)"/>
<path d="m742.53 517.09v119.28" clip-path="url(#a)"/>
<path d="m1005 396.15-193.02 120.94" clip-path="url(#a)"/>
<path d="m1005 396.15-120.23 120.94" clip-path="url(#a)"/>
<path d="m1005 396.15-44.119 120.94" clip-path="url(#a)"/>
<path d="m1005 396.15 35.295 120.94" clip-path="url(#a)"/>
<path d="m1005 396.15 118.02 120.94" clip-path="url(#a)"/>
<path d="m1005 396.15 204.05 120.94" clip-path="url(#a)"/>
<path d="m812.02 517.09v119.28" clip-path="url(#a)"/>
<path d="m884.81 517.09v119.28" clip-path="url(#a)"/>
<path d="m960.92 517.09v119.28" clip-path="url(#a)"/>
<path d="m444.72 517.09v119.28" clip-path="url(#a)"/>
<path d="m229.64 517.09v119.28" clip-path="url(#a)"/>
<path d="m266.04 517.09v119.28" clip-path="url(#a)"/>
<path d="m338.01 274.58-10.754 121.57" clip-path="url(#a)"/>
<path d="m338.01 274.58 10.754 242.51" clip-path="url(#a)"/>
<path d="m327.26 396.15 21.508 120.94" clip-path="url(#a)" stroke-dasharray="3.7,1.6"/>
<path d="m327.26 396.15-21.508 120.94" clip-path="url(#a)"/>
<path d="m348.76 517.09v119.28" clip-path="url(#a)"/>
<path d="m305.75 517.09v119.28" clip-path="url(#a)"/>
<path d="m65.021 274.58-2.4817 121.57" clip-path="url(#a)"/>
<path d="m65.021 274.58 2.4817 242.51" clip-path="url(#a)"/>
<path d="m80.738 517.09v119.28" clip-path="url(#a)"/>
<path d="m97.283 517.09v119.28" clip-path="url(#a)"/>
<path d="m117.14 517.09v119.28" clip-path="url(#a)"/>
<path d="m153.54 396.15-13.236 120.94" clip-path="url(#a)"/>
<path d="m153.54 396.15 13.236 120.94" clip-path="url(#a)"/>
<path d="m140.3 517.09v119.28" clip-path="url(#a)"/>
<path d="m166.77 517.09v119.28" clip-path="url(#a)"/>
<path d="m62.539 396.15 4.9634 120.94" clip-path="url(#a)" stroke-dasharray="3.7,1.6"/>
<path d="m62.539 396.15-4.9634 120.94" clip-path="url(#a)"/>
<path d="m67.503 517.09v119.28" clip-path="url(#a)"/>
<path d="m57.576 517.09v119.28" clip-path="url(#a)"/>
<path d="m553.92 517.09v119.28" clip-path="url(#a)"/>
<path d="m1040.3 517.09v119.28" clip-path="url(#a)"/>
<path d="m1123.1 517.09v119.28" clip-path="url(#a)"/>
<path d="m1209.1 517.09v119.28" clip-path="url(#a)"/>
</g>
<path d="m203.7 98.37 5.1364-3.1325q2.049-1.2496 0.79939-3.2986l-4.0313-6.6102q-1.2496-2.049-3.2986-0.79939l-5.1364 3.1325q-2.049 1.2496-0.79939 3.2986l4.0313 6.6102q1.2496 2.049 3.2986 0.79939z" clip-path="url(#a)" fill="#fff" stroke="#fff"/>
<g clip-path="url(#a)">
<g transform="translate(201.59 94.9) rotate(-31.378) scale(.08 -.08)">
<defs>
<path id="x" d="m9.8125 72.906h9.8594v-29.891h35.844v29.891h9.8594v-72.906h-9.8594v34.719h-35.844v-34.719h-9.8594z"/>
</defs>
<use xlink:href="#x"/>
</g>
</g>
<path d="m255.56 277.21 0.95454-4.3541q0.51394-2.3443-1.8304-2.8583l-7.5629-1.658q-2.3443-0.51394-2.8583 1.8304l-0.95454 4.3541q-0.51394 2.3443 1.8304 2.8583l7.5629 1.658q2.3443 0.51394 2.8583-1.8304z" clip-path="url(#a)" fill="#fff" stroke="#fff"/>
<g clip-path="url(#a)">
<g transform="translate(251.59 276.34) rotate(-77.635) scale(.08 -.08)">
<defs>
<path id="am" d="m9.8125 72.906h9.8594v-64.609h35.5v-8.2969h-45.359z"/>
</defs>
<use xlink:href="#am"/>
</g>
</g>
<path d="m296.11 95.669 1.2221-5.8908q0.48752-2.35-1.8624-2.8375l-7.5811-1.5728q-2.35-0.48752-2.8375 1.8624l-1.2221 5.8908q-0.48752 2.35 1.8624 2.8375l7.5811 1.5728q2.35 0.48752 2.8375-1.8624z" clip-path="url(#a)" fill="#fff" stroke="#fff"/>
<g clip-path="url(#a)">
<g transform="translate(292.13 94.843) rotate(-78.28) scale(.08 -.08)">
<use xlink:href="#x"/>
</g>
</g>
<path d="m342.6 272.67 0.82624 4.3803q0.44486 2.3584 2.8033 1.9135l7.6083-1.4351q2.3584-0.44486 1.9135-2.8033l-0.82624-4.3803q-0.44486-2.3584-2.8033-1.9135l-7.6083 1.4351q-2.3584 0.44486-1.9135 2.8033z" clip-path="url(#a)" fill="#fff" stroke="#fff"/>
<g clip-path="url(#a)">
<g transform="translate(346.6 271.91) rotate(79.318) scale(.08 -.08)">
<use xlink:href="#am"/>
</g>
</g>
<path d="m313.7 210.81 0.55533 5.9906q0.22153 2.3898 2.6113 2.1682l7.7094-0.71467q2.3898-0.22153 2.1682-2.6113l-0.55533-5.9906q-0.22153-2.3898-2.6113-2.1682l-7.7094 0.71467q-2.3898 0.22153-2.1682 2.6113z" clip-path="url(#a)" fill="#fff" stroke="#fff"/>
<g clip-path="url(#a)">
<g transform="translate(317.75 210.44) rotate(84.704) scale(.08 -.08)">
<use xlink:href="#x"/>
</g>
</g>
<path d="m400.92 95.317 5.179 3.0615q2.066 1.2213 3.2873-0.84471l3.94-6.665q1.2213-2.066-0.84471-3.2873l-5.179-3.0615q-2.066-1.2213-3.2873 0.84471l-3.94 6.665q-1.2213 2.066 0.84471 3.2873z" clip-path="url(#a)" fill="#fff" stroke="#fff"/>
<g clip-path="url(#a)">
<g transform="translate(402.99 91.819) rotate(30.589) scale(.08 -.08)">
<use xlink:href="#x"/>
</g>
</g>
<path d="m89.065 218.05 1.6168-5.2282q0.70904-2.2929-1.5838-3.0019l-7.3969-2.2874q-2.2929-0.70904-3.0019 1.5838l-1.6168 5.2282q-0.70904 2.2929 1.5838 3.0019l7.3969 2.2874q2.2929 0.70904 3.0019-1.5838z" clip-path="url(#a)" fill="#fff" stroke="#fff"/>
<g clip-path="url(#a)">
<g transform="translate(85.183 216.85) rotate(-72.816) scale(.08 -.08)">
<defs>
<path id="o" d="m34.188 63.188-13.391-36.281h26.812zm-5.5781 9.7188h11.188l27.781-72.906h-10.25l-6.6406 18.703h-32.859l-6.6406-18.703h-10.406z"/>
</defs>
<use xlink:href="#o"/>
</g>
</g>
<path d="m97.862 337.52 0.27728-4.5929q0.14463-2.3956-2.251-2.5403l-7.7284-0.46657q-2.3956-0.14463-2.5403 2.251l-0.27728 4.5929q-0.14463 2.3956 2.251 2.5403l7.7284 0.46657q2.3956 0.14463 2.5403-2.251z" clip-path="url(#a)" fill="#fff" stroke="#fff"/>
<g clip-path="url(#a)">
<g transform="translate(93.806 337.27) rotate(-86.545) scale(.08 -.08)">
<defs>
<path id="an" d="m9.8125 72.906h41.891v-8.3125h-32.031v-21.484h28.906v-8.2969h-28.906v-34.812h-9.8594z"/>
</defs>
<use xlink:href="#an"/>
</g>
</g>
<path d="m106.25 337.35 0.072248-4.8232q0.035946-2.3997-2.3638-2.4357l-7.7416-0.11596q-2.3997-0.035946-2.4357 2.3638l-0.072248 4.8232q-0.035946 2.3997 2.3638 2.4357l7.7416 0.11596q2.3997 0.035946 2.4357-2.3638z" clip-path="url(#a)" fill="#fff" stroke="#fff"/>
<g clip-path="url(#a)">
<g transform="translate(102.18 337.29) rotate(-89.142) scale(.08 -.08)">
<defs>
<path id="w" d="m19.672 64.797v-27.391h12.406q6.8906 0 10.641 3.5625 3.7656 3.5625 3.7656 10.156 0 6.5469-3.7656 10.109-3.75 3.5625-10.641 3.5625zm-9.8594 8.1094h22.266q12.266 0 18.531-5.5469 6.2812-5.5469 6.2812-16.234 0-10.797-6.2812-16.312-6.2656-5.5156-18.531-5.5156h-12.406v-29.297h-9.8594z"/>
</defs>
<use xlink:href="#w"/>
</g>
</g>
<path d="m103.55 332.01 0.24307 6.1552q0.094703 2.3981 2.4928 2.3034l7.7365-0.30552q2.3981-0.094703 2.3034-2.4928l-0.24307-6.1552q-0.094703-2.3981-2.4928-2.3034l-7.7365 0.30552q-2.3981 0.094704-2.3034 2.4928z" clip-path="url(#a)" fill="#fff" stroke="#fff"/>
<g clip-path="url(#a)">
<g transform="translate(107.61 331.85) rotate(87.739) scale(.08 -.08)">
<defs>
<path id="av" d="m19.672 64.797v-56.688h11.922q15.094 0 22.094 6.8281 7 6.8438 7 21.594 0 14.641-7 21.453t-22.094 6.8125zm-9.8594 8.1094h20.266q21.188 0 31.094-8.8125 9.9219-8.8125 9.9219-27.562 0-18.859-9.9688-27.703-9.9531-8.8281-31.047-8.8281h-20.266z"/>
</defs>
<use xlink:href="#av"/>
</g>
</g>
<path d="m121.5 273.26 0.99755 4.7833q0.48997 2.3495 2.8394 1.8595l7.5794-1.5807q2.3495-0.48997 1.8595-2.8394l-0.99755-4.7833q-0.48997-2.3495-2.8394-1.8595l-7.5794 1.5807q-2.3495 0.48997-1.8595 2.8394z" clip-path="url(#a)" fill="#fff" stroke="#fff"/>
<g clip-path="url(#a)">
<g transform="translate(125.48 272.43) rotate(78.22) scale(.08 -.08)">
<defs>
<path id="k" d="m-0.29688 72.906h61.672v-8.3125h-25.875v-64.594h-9.9062v64.594h-25.891z"/>
</defs>
<use xlink:href="#k"/>
</g>
</g>
<path d="m190.28 559.82v33.808q0 2.4 2.4 2.4h7.7425q2.4 0 2.4-2.4v-33.808q0-2.4-2.4-2.4h-7.7425q-2.4 0-2.4 2.4z" clip-path="url(#a)" fill="#fff" stroke="#fff"/>
<g clip-path="url(#a)">
<g transform="translate(194.34 559.82) rotate(90) scale(.08 -.08)">
<defs>
<path id="f" d="m56.203 29.594v-4.3906h-41.312q0.59375-9.2812 5.5938-14.141t13.938-4.8594q5.1719 0 10.031 1.2656t9.6562 3.8125v-8.5q-4.8438-2.0469-9.9219-3.125t-10.297-1.0781q-13.094 0-20.734 7.6094-7.6406 7.625-7.6406 20.625 0 13.422 7.25 21.297 7.25 7.8906 19.562 7.8906 11.031 0 17.453-7.1094 6.4219-7.0938 6.4219-19.297zm-8.9844 2.6406q-0.09375 7.3594-4.125 11.75-4.0312 4.4062-10.672 4.4062-7.5156 0-12.031-4.25t-5.2031-11.969z"/>
<path id="i" d="m41.109 46.297q-1.5156 0.875-3.2969 1.2812-1.7812 0.42188-3.9219 0.42188-7.625 0-11.703-4.9531t-4.0781-14.234v-28.812h-9.0312v54.688h9.0312v-8.5q2.8438 4.9844 7.375 7.3906 4.5469 2.4219 11.047 2.4219 0.92188 0 2.0469-0.125 1.125-0.10938 2.4844-0.35938z"/>
<path id="l" d="m52 44.188q3.375 6.0625 8.0625 8.9375t11.031 2.875q8.5469 0 13.188-5.9844 4.6406-5.9688 4.6406-17v-33.016h-9.0312v32.719q0 7.8594-2.7969 11.656-2.7812 3.8125-8.4844 3.8125-6.9844 0-11.047-4.6406-4.0469-4.625-4.0469-12.641v-30.906h-9.0312v32.719q0 7.9062-2.7812 11.688t-8.5938 3.7812q-6.8906 0-10.953-4.6562-4.0469-4.6562-4.0469-12.625v-30.906h-9.0312v54.688h9.0312v-8.5q3.0781 5.0312 7.375 7.4219t10.203 2.3906q5.9688 0 10.141-3.0312 4.1719-3.0156 6.1719-8.7812z"/>
<path id="h" d="m9.4219 54.688h8.9844v-54.688h-8.9844zm0 21.297h8.9844v-11.391h-8.9844z"/>
<path id="g" d="m54.891 33.016v-33.016h-8.9844v32.719q0 7.7656-3.0312 11.609-3.0312 3.8594-9.0781 3.8594-7.2812 0-11.484-4.6406-4.2031-4.625-4.2031-12.641v-30.906h-9.0312v54.688h9.0312v-8.5q3.2344 4.9375 7.5938 7.375 4.375 2.4375 10.094 2.4375 9.4219 0 14.25-5.8281 4.8438-5.8281 4.8438-17.156z"/>
<path id="e" d="m34.281 27.484q-10.891 0-15.094-2.4844t-4.2031-8.5q0-4.7812 3.1562-7.5938 3.1562-2.7969 8.5625-2.7969 7.4844 0 12 5.2969t4.5156 14.078v2zm17.922 3.7188v-31.203h-8.9844v8.2969q-3.0781-4.9688-7.6719-7.3438t-11.234-2.375q-8.3906 0-13.359 4.7188-4.9531 4.7188-4.9531 12.625 0 9.2188 6.1719 13.906 6.1875 4.6875 18.438 4.6875h12.609v0.89062q0 6.2031-4.0781 9.5938t-11.453 3.3906q-4.6875 0-9.1406-1.125-4.4375-1.125-8.5312-3.375v8.3125q4.9219 1.9062 9.5625 2.8438 4.6406 0.95312 9.0312 0.95312 11.875 0 17.734-6.1562 5.8594-6.1406 5.8594-18.641z"/>
<path id="j" d="m9.4219 75.984h8.9844v-75.984h-8.9844z"/>
</defs>
<use xlink:href="#k"/>
<use x="44.083984" xlink:href="#f"/>
<use x="105.607422" xlink:href="#i"/>
<use x="144.970703" xlink:href="#l"/>
<use x="242.382812" xlink:href="#h"/>
<use x="270.166016" xlink:href="#g"/>
<use x="333.544922" xlink:href="#e"/>
<use x="394.824219" xlink:href="#j"/>
</g>
</g>
<path d="m259.63 338.38 0.71825-5.4252q0.31499-2.3792-2.0642-2.6942l-7.6755-1.0162q-2.3792-0.31499-2.6942 2.0642l-0.71825 5.4252q-0.31499 2.3792 2.0642 2.6942l7.6755 1.0162q2.3792 0.31499 2.6942-2.0642z" clip-path="url(#a)" fill="#fff" stroke="#fff"/>
<g clip-path="url(#a)">
<g transform="translate(255.6 337.84) rotate(-82.458) scale(.08 -.08)">
<use xlink:href="#o"/>
</g>
</g>
<path d="m278.15 337.58 0.16513-5.0761q0.078032-2.3987-2.3207-2.4768l-7.7384-0.25173q-2.3987-0.078032-2.4768 2.3207l-0.16513 5.0761q-0.078032 2.3987 2.3207 2.4768l7.7384 0.25174q2.3987 0.078031 2.4768-2.3207z" clip-path="url(#a)" fill="#fff" stroke="#fff"/>
<g clip-path="url(#a)">
<g transform="translate(274.09 337.45) rotate(-88.137) scale(.08 -.08)">
<defs>
<path id="ad" d="m53.516 70.516v-9.625q-5.6094 2.6875-10.594 4-4.9844 1.3281-9.625 1.3281-8.0469 0-12.422-3.125t-4.375-8.8906q0-4.8438 2.9062-7.3125 2.9062-2.4531 11.016-3.9688l5.9531-1.2188q11.031-2.1094 16.281-7.4062t5.25-14.172q0-10.609-7.1094-16.078-7.0938-5.4688-20.812-5.4688-5.1719 0-11.016 1.1719-5.8281 1.1719-12.078 3.4688v10.156q6-3.3594 11.766-5.0781 5.7656-1.7031 11.328-1.7031 8.4375 0 13.031 3.3125 4.5938 3.3281 4.5938 9.4844 0 5.3594-3.2969 8.3906t-10.812 4.5469l-6.0156 1.1719q-11.031 2.1875-15.969 6.875-4.9219 4.6875-4.9219 13.047 0 9.6719 6.8125 15.234t18.766 5.5625q5.1406 0 10.453-0.9375 5.3281-0.92188 10.891-2.7656z"/>
</defs>
<use xlink:href="#ad"/>
</g>
</g>
<path d="m301.12 213.91 2.419 4.9088q1.0609 2.1528 3.2137 1.0919l6.945-3.4224q2.1528-1.0609 1.0919-3.2137l-2.419-4.9088q-1.0609-2.1528-3.2137-1.0919l-6.945 3.4224q-2.1528 1.0609-1.0919 3.2137z" clip-path="url(#a)" fill="#fff" stroke="#fff"/>
<g clip-path="url(#a)">
<g transform="translate(304.76 212.11) rotate(63.766) scale(.08 -.08)">
<use xlink:href="#o"/>
</g>
</g>
<path d="m388.82 559.82v33.808q0 2.4 2.4 2.4h7.7425q2.4 0 2.4-2.4v-33.808q0-2.4-2.4-2.4h-7.7425q-2.4 0-2.4 2.4z" clip-path="url(#a)" fill="#fff" stroke="#fff"/>
<g clip-path="url(#a)">
<g transform="translate(392.88 559.82) rotate(90) scale(.08 -.08)">
<use xlink:href="#k"/>
<use x="44.083984" xlink:href="#f"/>
<use x="105.607422" xlink:href="#i"/>
<use x="144.970703" xlink:href="#l"/>
<use x="242.382812" xlink:href="#h"/>
<use x="270.166016" xlink:href="#g"/>
<use x="333.544922" xlink:href="#e"/>
<use x="394.824219" xlink:href="#j"/>
</g>
</g>
<path d="m384.66 458.98 3.2054 3.6047q1.5948 1.7935 3.3883 0.19865l5.7858-5.145q1.7935-1.5948 0.19865-3.3883l-3.2054-3.6047q-1.5948-1.7935-3.3883-0.19865l-5.7858 5.145q-1.7935 1.5948-0.19865 3.3883z" clip-path="url(#a)" fill="#fff" stroke="#fff"/>
<g clip-path="url(#a)">
<g transform="translate(387.7 456.28) rotate(48.355) scale(.08 -.08)">
<use xlink:href="#w"/>
</g>
</g>
<path d="m286.28 462.83 3.6365-4.0895q1.5948-1.7935-0.19865-3.3883l-5.7858-5.145q-1.7935-1.5948-3.3883 0.19865l-3.6365 4.0895q-1.5948 1.7935 0.19865 3.3883l5.7858 5.145q1.7935 1.5948 3.3883-0.19865z" clip-path="url(#a)" fill="#fff" stroke="#fff"/>
<g clip-path="url(#a)">
<g transform="translate(283.24 460.13) rotate(-48.355) scale(.08 -.08)">
<use xlink:href="#o"/>
</g>
</g>
<path d="m510.09 337.47 0.16503-4.8209q0.08211-2.3986-2.3165-2.4807l-7.738-0.26489q-2.3986-0.08211-2.4807 2.3165l-0.16503 4.8209q-0.082111 2.3986 2.3165 2.4807l7.738 0.26489q2.3986 0.08211 2.4807-2.3165z" clip-path="url(#a)" fill="#fff" stroke="#fff"/>
<g clip-path="url(#a)">
<g transform="translate(506.03 337.33) rotate(-88.039) scale(.08 -.08)">
<use xlink:href="#w"/>
</g>
</g>
<path d="m629.53 218.02 4.9152 2.406q2.1556 1.0552 3.2108-1.1005l3.404-6.9541q1.0552-2.1556-1.1005-3.2108l-4.9152-2.406q-2.1556-1.0552-3.2108 1.1005l-3.404 6.9541q-1.0552 2.1556 1.1005 3.2108z" clip-path="url(#a)" fill="#fff" stroke="#fff"/>
<g clip-path="url(#a)">
<g transform="translate(631.32 214.37) rotate(26.081) scale(.08 -.08)">
<use xlink:href="#o"/>
</g>
</g>
<path d="m373.19 340.83 3.3376-4.3369q1.4637-1.902-0.43827-3.3657l-6.1359-4.722q-1.902-1.4637-3.3657 0.43827l-3.3376 4.3369q-1.4637 1.902 0.43827 3.3657l6.1359 4.722q1.902 1.4637 3.3657-0.43827z" clip-path="url(#a)" fill="#fff" stroke="#fff"/>
<g clip-path="url(#a)">
<g transform="translate(369.97 338.36) rotate(-52.419) scale(.08 -.08)">
<use xlink:href="#o"/>
</g>
</g>
<path d="m525.46 332.68 0.69816 5.8132q0.28618 2.3829 2.6691 2.0967l7.6873-0.92322q2.3829-0.28618 2.0967-2.6691l-0.69816-5.8132q-0.28618-2.3829-2.6691-2.0967l-7.6873 0.92323q-2.3829 0.28618-2.0967 2.6691z" clip-path="url(#a)" fill="#fff" stroke="#fff"/>
<g clip-path="url(#a)">
<g transform="translate(529.49 332.2) rotate(83.152) scale(.08 -.08)">
<defs>
<path id="v" d="m8.6875 72.906h9.9219v-44.297q0-11.719 4.2344-16.875 4.25-5.1406 13.781-5.1406 9.4688 0 13.719 5.1406 4.25 5.1562 4.25 16.875v44.297h9.9062v-45.516q0-14.25-7.0625-21.531-7.0469-7.2812-20.812-7.2812-13.828 0-20.891 7.2812-7.0469 7.2812-7.0469 21.531z"/>
</defs>
<use xlink:href="#v"/>
</g>
</g>
<path d="m491.4 559.82v33.808q0 2.4 2.4 2.4h7.7425q2.4 0 2.4-2.4v-33.808q0-2.4-2.4-2.4h-7.7425q-2.4 0-2.4 2.4z" clip-path="url(#a)" fill="#fff" stroke="#fff"/>
<g clip-path="url(#a)">
<g transform="translate(495.46 559.82) rotate(90) scale(.08 -.08)">
<use xlink:href="#k"/>
<use x="44.083984" xlink:href="#f"/>
<use x="105.607422" xlink:href="#i"/>
<use x="144.970703" xlink:href="#l"/>
<use x="242.382812" xlink:href="#h"/>
<use x="270.166016" xlink:href="#g"/>
<use x="333.544922" xlink:href="#e"/>
<use x="394.824219" xlink:href="#j"/>
</g>
</g>
<path d="m690.38 401.41 2.8208-4.6895q1.2371-2.0566-0.81954-3.2937l-6.6347-3.9908q-2.0566-1.2371-3.2937 0.81954l-2.8208 4.6895q-1.2371 2.0566 0.81954 3.2937l6.6347 3.9908q2.0566 1.2371 3.2937-0.81954z" clip-path="url(#a)" fill="#fff" stroke="#fff"/>
<g clip-path="url(#a)">
<g transform="translate(686.9 399.32) rotate(-58.973) scale(.08 -.08)">
<use xlink:href="#o"/>
</g>
</g>
<path d="m723.04 400.04 1.49-4.3533q0.77716-2.2707-1.4935-3.0478l-7.3253-2.5071q-2.2707-0.77716-3.0478 1.4935l-1.49 4.3533q-0.77716 2.2707 1.4935 3.0478l7.3253 2.5071q2.2707 0.77716 3.0478-1.4935z" clip-path="url(#a)" fill="#fff" stroke="#fff"/>
<g clip-path="url(#a)">
<g transform="translate(719.19 398.72) rotate(-71.106) scale(.08 -.08)">
<use xlink:href="#an"/>
</g>
</g>
<path d="m757.03 398.67 0.33378-4.8122q0.16607-2.3942-2.2282-2.5603l-7.7239-0.53574q-2.3942-0.16607-2.5603 2.2282l-0.33378 4.8122q-0.16607 2.3942 2.2282 2.5603l7.7239 0.53574q2.3942 0.16607 2.5603-2.2282z" clip-path="url(#a)" fill="#fff" stroke="#fff"/>
<g clip-path="url(#a)">
<g transform="translate(752.97 398.39) rotate(-86.032) scale(.08 -.08)">
<use xlink:href="#w"/>
</g>
</g>
<path d="m877.22 339.9 4.3794 2.167q2.1511 1.0644 3.2154-1.0867l3.4337-6.9394q1.0644-2.1511-1.0867-3.2154l-4.3794-2.167q-2.1511-1.0644-3.2154 1.0867l-3.4337 6.9394q-1.0644 2.1511 1.0867 3.2154z" clip-path="url(#a)" fill="#fff" stroke="#fff"/>
<g clip-path="url(#a)">
<g transform="translate(879.03 336.26) rotate(26.327) scale(.08 -.08)">
<use xlink:href="#k"/>
</g>
</g>
<path d="m607.21 559.82v33.808q0 2.4 2.4 2.4h7.7425q2.4 0 2.4-2.4v-33.808q0-2.4-2.4-2.4h-7.7425q-2.4 0-2.4 2.4z" clip-path="url(#a)" fill="#fff" stroke="#fff"/>
<g clip-path="url(#a)">
<g transform="translate(611.27 559.82) rotate(90) scale(.08 -.08)">
<use xlink:href="#k"/>
<use x="44.083984" xlink:href="#f"/>
<use x="105.607422" xlink:href="#i"/>
<use x="144.970703" xlink:href="#l"/>
<use x="242.382812" xlink:href="#h"/>
<use x="270.166016" xlink:href="#g"/>
<use x="333.544922" xlink:href="#e"/>
<use x="394.824219" xlink:href="#j"/>
</g>
</g>
<path d="m670.08 559.82v33.808q0 2.4 2.4 2.4h7.7425q2.4 0 2.4-2.4v-33.808q0-2.4-2.4-2.4h-7.7425q-2.4 0-2.4 2.4z" clip-path="url(#a)" fill="#fff" stroke="#fff"/>
<g clip-path="url(#a)">
<g transform="translate(674.14 559.82) rotate(90) scale(.08 -.08)">
<use xlink:href="#k"/>
<use x="44.083984" xlink:href="#f"/>
<use x="105.607422" xlink:href="#i"/>
<use x="144.970703" xlink:href="#l"/>
<use x="242.382812" xlink:href="#h"/>
<use x="270.166016" xlink:href="#g"/>
<use x="333.544922" xlink:href="#e"/>
<use x="394.824219" xlink:href="#j"/>
</g>
</g>
<path d="m736.26 559.82v33.808q0 2.4 2.4 2.4h7.7425q2.4 0 2.4-2.4v-33.808q0-2.4-2.4-2.4h-7.7425q-2.4 0-2.4 2.4z" clip-path="url(#a)" fill="#fff" stroke="#fff"/>
<g clip-path="url(#a)">
<g transform="translate(740.32 559.82) rotate(90) scale(.08 -.08)">
<use xlink:href="#k"/>
<use x="44.083984" xlink:href="#f"/>
<use x="105.607422" xlink:href="#i"/>
<use x="144.970703" xlink:href="#l"/>
<use x="242.382812" xlink:href="#h"/>
<use x="270.166016" xlink:href="#g"/>
<use x="333.544922" xlink:href="#e"/>
<use x="394.824219" xlink:href="#j"/>
</g>
</g>
<path d="m909.5 463.41 4.7105-2.9513q2.0338-1.2742 0.75954-3.308l-4.1108-6.5611q-1.2742-2.0338-3.308-0.75954l-4.7105 2.9513q-2.0338 1.2742-0.75954 3.308l4.1108 6.5611q1.2742 2.0338 3.308 0.75954z" clip-path="url(#a)" fill="#fff" stroke="#fff"/>
<g clip-path="url(#a)">
<g transform="translate(907.34 459.96) rotate(-32.069) scale(.08 -.08)">
<defs>
<path id="al" d="m44.391 34.188q3.1719-1.0781 6.1719-4.5938t6.0312-9.6719l10.016-19.922h-10.609l-9.3125 18.703q-3.625 7.3281-7.0156 9.7188t-9.25 2.3906h-10.75v-30.812h-9.8594v72.906h22.266q12.5 0 18.656-5.2344 6.1562-5.2188 6.1562-15.766 0-6.8906-3.2031-11.438-3.2031-4.5312-9.2969-6.2812zm-24.719 30.609v-25.875h12.406q7.125 0 10.766 3.2969t3.6406 9.6875-3.6406 9.6406-10.766 3.25z"/>
</defs>
<use xlink:href="#al"/>
</g>
</g>
<path d="m947.15 463.27 4.4399-4.4661q1.692-1.7021-0.010006-3.3941l-5.4909-5.4586q-1.7021-1.692-3.3941 0.010006l-4.4399 4.4661q-1.692 1.7021 0.010006 3.3941l5.4909 5.4586q1.7021 1.692 3.3941-0.010005z" clip-path="url(#a)" fill="#fff" stroke="#fff"/>
<g clip-path="url(#a)">
<g transform="translate(944.27 460.41) rotate(-45.169) scale(.08 -.08)">
<defs>
<path id="at" d="m39.406 66.219q-10.75 0-17.078-8.0156-6.3125-8-6.3125-21.828 0-13.766 6.3125-21.781 6.3281-8 17.078-8 10.734 0 17.016 8 6.2812 8.0156 6.2812 21.781 0 13.828-6.2812 21.828-6.2812 8.0156-17.016 8.0156zm13.812-64.906 13-14.203h-11.922l-10.797 11.672q-1.6094-0.09375-2.4688-0.14062-0.84375-0.0625-1.625-0.0625-15.375 0-24.594 10.281-9.2031 10.281-9.2031 27.516 0 17.281 9.2031 27.562 9.2188 10.281 24.594 10.281 15.328 0 24.5-10.281 9.1875-10.281 9.1875-27.562 0-12.688-5.1094-21.734-5.0938-9.0312-14.766-13.328z"/>
</defs>
<use xlink:href="#at"/>
</g>
</g>
<path d="m987.91 461.39 1.9145-5.2479q0.82253-2.2546-1.4321-3.0772l-7.2736-2.6535q-2.2546-0.82253-3.0772 1.4321l-1.9145 5.2479q-0.82253 2.2546 1.4321 3.0772l7.2736 2.6535q2.2546 0.82253 3.0772-1.4321z" clip-path="url(#a)" fill="#fff" stroke="#fff"/>
<g clip-path="url(#a)">
<g transform="translate(984.1 460) rotate(-69.957) scale(.08 -.08)">
<defs>
<path id="y" d="m64.406 67.281v-10.391q-4.9844 4.6406-10.625 6.9219-5.6406 2.2969-11.984 2.2969-12.5 0-19.141-7.6406t-6.6406-22.094q0-14.406 6.6406-22.047t19.141-7.6406q6.3438 0 11.984 2.2969t10.625 6.9375v-10.312q-5.1719-3.5156-10.969-5.2812-5.7812-1.75-12.219-1.75-16.562 0-26.094 10.125-9.5156 10.141-9.5156 27.672 0 17.578 9.5156 27.703 9.5312 10.141 26.094 10.141 6.5312 0 12.312-1.7344 5.7969-1.7344 10.875-5.2031z"/>
</defs>
<use xlink:href="#y"/>
</g>
</g>
<path d="m1015.8 455.57 1.6404 5.6205q0.67239 2.3039 2.9763 1.6315l7.4324-2.1692q2.3039-0.67239 1.6315-2.9763l-1.6404-5.6205q-0.67239-2.3039-2.9763-1.6315l-7.4324 2.1692q-2.3039 0.67239-1.6315 2.9763z" clip-path="url(#a)" fill="#fff" stroke="#fff"/>
<g clip-path="url(#a)">
<g transform="translate(1019.7 454.43) rotate(73.73) scale(.08 -.08)">
<use xlink:href="#v"/>
</g>
</g>
<path d="m1057.5 458.9 4.0893 4.1903q1.6762 1.7176 3.3939 0.041428l5.5412-5.4075q1.7176-1.6762 0.041429-3.3939l-4.0893-4.1903q-1.6762-1.7176-3.3939-0.041428l-5.5412 5.4075q-1.7176 1.6762-0.041428 3.3939z" clip-path="url(#a)" fill="#fff" stroke="#fff"/>
<g clip-path="url(#a)">
<g transform="translate(1060.4 456.07) rotate(45.699) scale(.08 -.08)">
<use xlink:href="#v"/>
</g>
</g>
<path d="m1101.3 460.52 5.0368 2.9852q2.0646 1.2236 3.2883-0.84098l3.9475-6.6606q1.2236-2.0646-0.84098-3.2883l-5.0368-2.9852q-2.0646-1.2236-3.2883 0.84098l-3.9475 6.6606q-1.2236 2.0646 0.84098 3.2883z" clip-path="url(#a)" fill="#fff" stroke="#fff"/>
<g clip-path="url(#a)">
<g transform="translate(1103.4 457.03) rotate(30.654) scale(.08 -.08)">
<use xlink:href="#v"/>
</g>
</g>
<path d="m805.75 559.82v33.808q0 2.4 2.4 2.4h7.7425q2.4 0 2.4-2.4v-33.808q0-2.4-2.4-2.4h-7.7425q-2.4 0-2.4 2.4z" clip-path="url(#a)" fill="#fff" stroke="#fff"/>
<g clip-path="url(#a)">
<g transform="translate(809.81 559.82) rotate(90) scale(.08 -.08)">
<use xlink:href="#k"/>
<use x="44.083984" xlink:href="#f"/>
<use x="105.607422" xlink:href="#i"/>
<use x="144.970703" xlink:href="#l"/>
<use x="242.382812" xlink:href="#h"/>
<use x="270.166016" xlink:href="#g"/>
<use x="333.544922" xlink:href="#e"/>
<use x="394.824219" xlink:href="#j"/>
</g>
</g>
<path d="m878.54 559.82v33.808q0 2.4 2.4 2.4h7.7425q2.4 0 2.4-2.4v-33.808q0-2.4-2.4-2.4h-7.7425q-2.4 0-2.4 2.4z" clip-path="url(#a)" fill="#fff" stroke="#fff"/>
<g clip-path="url(#a)">
<g transform="translate(882.61 559.82) rotate(90) scale(.08 -.08)">
<use xlink:href="#k"/>
<use x="44.083984" xlink:href="#f"/>
<use x="105.607422" xlink:href="#i"/>
<use x="144.970703" xlink:href="#l"/>
<use x="242.382812" xlink:href="#h"/>
<use x="270.166016" xlink:href="#g"/>
<use x="333.544922" xlink:href="#e"/>
<use x="394.824219" xlink:href="#j"/>
</g>
</g>
<path d="m954.65 559.82v33.808q0 2.4 2.4 2.4h7.7425q2.4 0 2.4-2.4v-33.808q0-2.4-2.4-2.4h-7.7425q-2.4 0-2.4 2.4z" clip-path="url(#a)" fill="#fff" stroke="#fff"/>
<g clip-path="url(#a)">
<g transform="translate(958.71 559.82) rotate(90) scale(.08 -.08)">
<use xlink:href="#k"/>
<use x="44.083984" xlink:href="#f"/>
<use x="105.607422" xlink:href="#i"/>
<use x="144.970703" xlink:href="#l"/>
<use x="242.382812" xlink:href="#h"/>
<use x="270.166016" xlink:href="#g"/>
<use x="333.544922" xlink:href="#e"/>
<use x="394.824219" xlink:href="#j"/>
</g>
</g>
<path d="m438.45 559.82v33.808q0 2.4 2.4 2.4h7.7425q2.4 0 2.4-2.4v-33.808q0-2.4-2.4-2.4h-7.7425q-2.4 0-2.4 2.4z" clip-path="url(#a)" fill="#fff" stroke="#fff"/>
<g clip-path="url(#a)">
<g transform="translate(442.52 559.82) rotate(90) scale(.08 -.08)">
<use xlink:href="#k"/>
<use x="44.083984" xlink:href="#f"/>
<use x="105.607422" xlink:href="#i"/>
<use x="144.970703" xlink:href="#l"/>
<use x="242.382812" xlink:href="#h"/>
<use x="270.166016" xlink:href="#g"/>
<use x="333.544922" xlink:href="#e"/>
<use x="394.824219" xlink:href="#j"/>
</g>
</g>
<path d="m223.37 559.82v33.808q0 2.4 2.4 2.4h7.7425q2.4 0 2.4-2.4v-33.808q0-2.4-2.4-2.4h-7.7425q-2.4 0-2.4 2.4z" clip-path="url(#a)" fill="#fff" stroke="#fff"/>
<g clip-path="url(#a)">
<g transform="translate(227.43 559.82) rotate(90) scale(.08 -.08)">
<use xlink:href="#k"/>
<use x="44.083984" xlink:href="#f"/>
<use x="105.607422" xlink:href="#i"/>
<use x="144.970703" xlink:href="#l"/>
<use x="242.382812" xlink:href="#h"/>
<use x="270.166016" xlink:href="#g"/>
<use x="333.544922" xlink:href="#e"/>
<use x="394.824219" xlink:href="#j"/>
</g>
</g>
<path d="m259.77 559.82v33.808q0 2.4 2.4 2.4h7.7425q2.4 0 2.4-2.4v-33.808q0-2.4-2.4-2.4h-7.7425q-2.4 0-2.4 2.4z" clip-path="url(#a)" fill="#fff" stroke="#fff"/>
<g clip-path="url(#a)">
<g transform="translate(263.83 559.82) rotate(90) scale(.08 -.08)">
<use xlink:href="#k"/>
<use x="44.083984" xlink:href="#f"/>
<use x="105.607422" xlink:href="#i"/>
<use x="144.970703" xlink:href="#l"/>
<use x="242.382812" xlink:href="#h"/>
<use x="270.166016" xlink:href="#g"/>
<use x="333.544922" xlink:href="#e"/>
<use x="394.824219" xlink:href="#j"/>
</g>
</g>
<path d="m338.66 338.44 0.44542-5.0353q0.21148-2.3907-2.1792-2.6021l-7.7124-0.68224q-2.3907-0.21148-2.6021 2.1792l-0.44542 5.0353q-0.21148 2.3907 2.1792 2.6021l7.7124 0.68224q2.3907 0.21148 2.6021-2.1792z" clip-path="url(#a)" fill="#fff" stroke="#fff"/>
<g clip-path="url(#a)">
<g transform="translate(334.61 338.08) rotate(-84.945) scale(.08 -.08)">
<defs>
<path id="ao" d="m9.8125 72.906h46.094v-8.3125h-36.234v-21.578h34.719v-8.2969h-34.719v-26.422h37.109v-8.2969h-46.969z"/>
</defs>
<use xlink:href="#ao"/>
</g>
</g>
<path d="m337 393.32 0.24748 5.5808q0.10632 2.3976 2.504 2.2913l7.7349-0.34301q2.3976-0.10632 2.2913-2.504l-0.24748-5.5808q-0.10632-2.3976-2.504-2.2913l-7.7349 0.34301q-2.3976 0.10632-2.2913 2.504z" clip-path="url(#a)" fill="#fff" stroke="#fff"/>
<g clip-path="url(#a)">
<g transform="translate(341.06 393.14) rotate(87.461) scale(.08 -.08)">
<use xlink:href="#y"/>
</g>
</g>
<path d="m331.36 455.02 0.95823 5.388q0.42024 2.3629 2.7832 1.9427l7.6229-1.3557q2.3629-0.42024 1.9427-2.7832l-0.95823-5.388q-0.42024-2.3629-2.7832-1.9427l-7.6229 1.3557q-2.3629 0.42024-1.9427 2.7832z" clip-path="url(#a)" fill="#fff" stroke="#fff"/>
<g clip-path="url(#a)">
<g transform="translate(335.36 454.31) rotate(79.916) scale(.08 -.08)">
<use xlink:href="#o"/>
</g>
</g>
<path d="m321.64 464.26 2.3194-13.042q0.42024-2.3629-1.9427-2.7832l-7.8764-1.4008q-2.3629-0.42024-2.7832 1.9427l-2.3194 13.042q-0.42024 2.3629 1.9427 2.7832l7.8764 1.4008q2.3629 0.42024 2.7832-1.9427z" clip-path="url(#a)" fill="#fff" stroke="#fff"/>
<g clip-path="url(#a)">
<g transform="translate(317.42 463.51) rotate(-79.916) scale(.08 -.08)">
<defs>
<path id="aq" d="m21 76.422v-100h-8.2969v100z"/>
</defs>
<use xlink:href="#ad"/>
<use x="63.476562" xlink:href="#aq"/>
<use x="97.167969" xlink:href="#o"/>
</g>
</g>
<path d="m342.49 559.82v33.808q0 2.4 2.4 2.4h7.7425q2.4 0 2.4-2.4v-33.808q0-2.4-2.4-2.4h-7.7425q-2.4 0-2.4 2.4z" clip-path="url(#a)" fill="#fff" stroke="#fff"/>
<g clip-path="url(#a)">
<g transform="translate(346.56 559.82) rotate(90) scale(.08 -.08)">
<use xlink:href="#k"/>
<use x="44.083984" xlink:href="#f"/>
<use x="105.607422" xlink:href="#i"/>
<use x="144.970703" xlink:href="#l"/>
<use x="242.382812" xlink:href="#h"/>
<use x="270.166016" xlink:href="#g"/>
<use x="333.544922" xlink:href="#e"/>
<use x="394.824219" xlink:href="#j"/>
</g>
</g>
<path d="m299.48 559.82v33.808q0 2.4 2.4 2.4h7.7425q2.4 0 2.4-2.4v-33.808q0-2.4-2.4-2.4h-7.7425q-2.4 0-2.4 2.4z" clip-path="url(#a)" fill="#fff" stroke="#fff"/>
<g clip-path="url(#a)">
<g transform="translate(303.54 559.82) rotate(90) scale(.08 -.08)">
<use xlink:href="#k"/>
<use x="44.083984" xlink:href="#f"/>
<use x="105.607422" xlink:href="#i"/>
<use x="144.970703" xlink:href="#l"/>
<use x="242.382812" xlink:href="#h"/>
<use x="270.166016" xlink:href="#g"/>
<use x="333.544922" xlink:href="#e"/>
<use x="394.824219" xlink:href="#j"/>
</g>
</g>
<path d="m69.998 338.02 0.10317-5.0539q0.048982-2.3995-2.3505-2.4485l-7.7409-0.15802q-2.3995-0.048983-2.4485 2.3505l-0.10317 5.0539q-0.048983 2.3995 2.3505 2.4485l7.7409 0.15802q2.3995 0.048982 2.4485-2.3505z" clip-path="url(#a)" fill="#fff" stroke="#fff"/>
<g clip-path="url(#a)">
<g transform="translate(65.935 337.94) rotate(-88.831) scale(.08 -.08)">
<use xlink:href="#ao"/>
</g>
</g>
<path d="m59.962 393.1 0.057164 5.586q0.024559 2.3999 2.4244 2.3753l7.7421-0.079229q2.3999-0.02456 2.3753-2.4244l-0.057164-5.586q-0.024559-2.3999-2.4244-2.3753l-7.7421 0.07923q-2.3999 0.024559-2.3753 2.4244z" clip-path="url(#a)" fill="#fff" stroke="#fff"/>
<g clip-path="url(#a)">
<g transform="translate(64.026 393.06) rotate(89.414) scale(.08 -.08)">
<use xlink:href="#y"/>
</g>
</g>
<path d="m74.467 559.82v33.808q0 2.4 2.4 2.4h7.7425q2.4 0 2.4-2.4v-33.808q0-2.4-2.4-2.4h-7.7425q-2.4 0-2.4 2.4z" clip-path="url(#a)" fill="#fff" stroke="#fff"/>
<g clip-path="url(#a)">
<g transform="translate(78.531 559.82) rotate(90) scale(.08 -.08)">
<use xlink:href="#k"/>
<use x="44.083984" xlink:href="#f"/>
<use x="105.607422" xlink:href="#i"/>
<use x="144.970703" xlink:href="#l"/>
<use x="242.382812" xlink:href="#h"/>
<use x="270.166016" xlink:href="#g"/>
<use x="333.544922" xlink:href="#e"/>
<use x="394.824219" xlink:href="#j"/>
</g>
</g>
<path d="m91.012 559.82v33.808q0 2.4 2.4 2.4h7.7425q2.4 0 2.4-2.4v-33.808q0-2.4-2.4-2.4h-7.7425q-2.4 0-2.4 2.4z" clip-path="url(#a)" fill="#fff" stroke="#fff"/>
<g clip-path="url(#a)">
<g transform="translate(95.076 559.82) rotate(90) scale(.08 -.08)">
<use xlink:href="#k"/>
<use x="44.083984" xlink:href="#f"/>
<use x="105.607422" xlink:href="#i"/>
<use x="144.970703" xlink:href="#l"/>
<use x="242.382812" xlink:href="#h"/>
<use x="270.166016" xlink:href="#g"/>
<use x="333.544922" xlink:href="#e"/>
<use x="394.824219" xlink:href="#j"/>
</g>
</g>
<path d="m110.87 559.82v33.808q0 2.4 2.4 2.4h7.7425q2.4 0 2.4-2.4v-33.808q0-2.4-2.4-2.4h-7.7425q-2.4 0-2.4 2.4z" clip-path="url(#a)" fill="#fff" stroke="#fff"/>
<g clip-path="url(#a)">
<g transform="translate(114.93 559.82) rotate(90) scale(.08 -.08)">
<use xlink:href="#k"/>
<use x="44.083984" xlink:href="#f"/>
<use x="105.607422" xlink:href="#i"/>
<use x="144.970703" xlink:href="#l"/>
<use x="242.382812" xlink:href="#h"/>
<use x="270.166016" xlink:href="#g"/>
<use x="333.544922" xlink:href="#e"/>
<use x="394.824219" xlink:href="#j"/>
</g>
</g>
<path d="m152.85 460.06 0.60476-5.5258q0.26111-2.3858-2.1246-2.6469l-7.6965-0.84234q-2.3858-0.26111-2.6469 2.1246l-0.60476 5.5258q-0.26111 2.3858 2.1246 2.6469l7.6965 0.84234q2.3858 0.26111 2.6469-2.1246z" clip-path="url(#a)" fill="#fff" stroke="#fff"/>
<g clip-path="url(#a)">
<g transform="translate(148.81 459.62) rotate(-83.754) scale(.08 -.08)">
<use xlink:href="#al"/>
</g>
</g>
<path d="m153.62 454.52 0.60776 5.5531q0.26111 2.3858 2.6469 2.1246l7.6965-0.84234q2.3858-0.26111 2.1246-2.6469l-0.60776-5.5531q-0.26111-2.3858-2.6469-2.1246l-7.6965 0.84234q-2.3858 0.26111-2.1246 2.6469z" clip-path="url(#a)" fill="#fff" stroke="#fff"/>
<g clip-path="url(#a)">
<g transform="translate(157.65 454.08) rotate(83.754) scale(.08 -.08)">
<use xlink:href="#y"/>
</g>
</g>
<path d="m134.03 559.82v33.808q0 2.4 2.4 2.4h7.7425q2.4 0 2.4-2.4v-33.808q0-2.4-2.4-2.4h-7.7425q-2.4 0-2.4 2.4z" clip-path="url(#a)" fill="#fff" stroke="#fff"/>
<g clip-path="url(#a)">
<g transform="translate(138.09 559.82) rotate(90) scale(.08 -.08)">
<use xlink:href="#k"/>
<use x="44.083984" xlink:href="#f"/>
<use x="105.607422" xlink:href="#i"/>
<use x="144.970703" xlink:href="#l"/>
<use x="242.382812" xlink:href="#h"/>
<use x="270.166016" xlink:href="#g"/>
<use x="333.544922" xlink:href="#e"/>
<use x="394.824219" xlink:href="#j"/>
</g>
</g>
<path d="m160.5 559.82v33.808q0 2.4 2.4 2.4h7.7425q2.4 0 2.4-2.4v-33.808q0-2.4-2.4-2.4h-7.7425q-2.4 0-2.4 2.4z" clip-path="url(#a)" fill="#fff" stroke="#fff"/>
<g clip-path="url(#a)">
<g transform="translate(164.56 559.82) rotate(90) scale(.08 -.08)">
<use xlink:href="#k"/>
<use x="44.083984" xlink:href="#f"/>
<use x="105.607422" xlink:href="#i"/>
<use x="144.970703" xlink:href="#l"/>
<use x="242.382812" xlink:href="#h"/>
<use x="270.166016" xlink:href="#g"/>
<use x="333.544922" xlink:href="#e"/>
<use x="394.824219" xlink:href="#j"/>
</g>
</g>
<path d="m58.643 454.14 0.22441 5.4679q0.098417 2.398 2.4964 2.2996l7.736-0.3175q2.398-0.098417 2.2996-2.4964l-0.22441-5.4679q-0.098418-2.398-2.4964-2.2996l-7.736 0.3175q-2.398 0.098417-2.2996 2.4964z" clip-path="url(#a)" fill="#fff" stroke="#fff"/>
<g clip-path="url(#a)">
<g transform="translate(62.703 453.98) rotate(87.65) scale(.08 -.08)">
<use xlink:href="#o"/>
</g>
</g>
<path d="m66.18 463.5 0.54319-13.235q0.098417-2.398-2.2996-2.4964l-7.9933-0.32806q-2.398-0.098418-2.4964 2.2996l-0.54319 13.235q-0.098417 2.398 2.2996 2.4964l7.9933 0.32806q2.398 0.098417 2.4964-2.2996z" clip-path="url(#a)" fill="#fff" stroke="#fff"/>
<g clip-path="url(#a)">
<g transform="translate(61.898 463.32) rotate(-87.65) scale(.08 -.08)">
<use xlink:href="#ad"/>
<use x="63.476562" xlink:href="#aq"/>
<use x="97.167969" xlink:href="#o"/>
</g>
</g>
<path d="m61.231 559.82v33.808q0 2.4 2.4 2.4h7.7425q2.4 0 2.4-2.4v-33.808q0-2.4-2.4-2.4h-7.7425q-2.4 0-2.4 2.4z" clip-path="url(#a)" fill="#fff" stroke="#fff"/>
<g clip-path="url(#a)">
<g transform="translate(65.295 559.82) rotate(90) scale(.08 -.08)">
<use xlink:href="#k"/>
<use x="44.083984" xlink:href="#f"/>
<use x="105.607422" xlink:href="#i"/>
<use x="144.970703" xlink:href="#l"/>
<use x="242.382812" xlink:href="#h"/>
<use x="270.166016" xlink:href="#g"/>
<use x="333.544922" xlink:href="#e"/>
<use x="394.824219" xlink:href="#j"/>
</g>
</g>
<path d="m51.305 559.82v33.808q0 2.4 2.4 2.4h7.7425q2.4 0 2.4-2.4v-33.808q0-2.4-2.4-2.4h-7.7425q-2.4 0-2.4 2.4z" clip-path="url(#a)" fill="#fff" stroke="#fff"/>
<g clip-path="url(#a)">
<g transform="translate(55.368 559.82) rotate(90) scale(.08 -.08)">
<use xlink:href="#k"/>
<use x="44.083984" xlink:href="#f"/>
<use x="105.607422" xlink:href="#i"/>
<use x="144.970703" xlink:href="#l"/>
<use x="242.382812" xlink:href="#h"/>
<use x="270.166016" xlink:href="#g"/>
<use x="333.544922" xlink:href="#e"/>
<use x="394.824219" xlink:href="#j"/>
</g>
</g>
<path d="m547.65 559.82v33.808q0 2.4 2.4 2.4h7.7425q2.4 0 2.4-2.4v-33.808q0-2.4-2.4-2.4h-7.7425q-2.4 0-2.4 2.4z" clip-path="url(#a)" fill="#fff" stroke="#fff"/>
<g clip-path="url(#a)">
<g transform="translate(551.71 559.82) rotate(90) scale(.08 -.08)">
<use xlink:href="#k"/>
<use x="44.083984" xlink:href="#f"/>
<use x="105.607422" xlink:href="#i"/>
<use x="144.970703" xlink:href="#l"/>
<use x="242.382812" xlink:href="#h"/>
<use x="270.166016" xlink:href="#g"/>
<use x="333.544922" xlink:href="#e"/>
<use x="394.824219" xlink:href="#j"/>
</g>
</g>
<path d="m1034.1 559.82v33.808q0 2.4 2.4 2.4h7.7425q2.4 0 2.4-2.4v-33.808q0-2.4-2.4-2.4h-7.7425q-2.4 0-2.4 2.4z" clip-path="url(#a)" fill="#fff" stroke="#fff"/>
<g clip-path="url(#a)">
<g transform="translate(1038.1 559.82) rotate(90) scale(.08 -.08)">
<use xlink:href="#k"/>
<use x="44.083984" xlink:href="#f"/>
<use x="105.607422" xlink:href="#i"/>
<use x="144.970703" xlink:href="#l"/>
<use x="242.382812" xlink:href="#h"/>
<use x="270.166016" xlink:href="#g"/>
<use x="333.544922" xlink:href="#e"/>
<use x="394.824219" xlink:href="#j"/>
</g>
</g>
<path d="m1116.8 559.82v33.808q0 2.4 2.4 2.4h7.7425q2.4 0 2.4-2.4v-33.808q0-2.4-2.4-2.4h-7.7425q-2.4 0-2.4 2.4z" clip-path="url(#a)" fill="#fff" stroke="#fff"/>
<g clip-path="url(#a)">
<g transform="translate(1120.9 559.82) rotate(90) scale(.08 -.08)">
<use xlink:href="#k"/>
<use x="44.083984" xlink:href="#f"/>
<use x="105.607422" xlink:href="#i"/>
<use x="144.970703" xlink:href="#l"/>
<use x="242.382812" xlink:href="#h"/>
<use x="270.166016" xlink:href="#g"/>
<use x="333.544922" xlink:href="#e"/>
<use x="394.824219" xlink:href="#j"/>
</g>
</g>
<path d="m1202.8 559.82v33.808q0 2.4 2.4 2.4h7.7425q2.4 0 2.4-2.4v-33.808q0-2.4-2.4-2.4h-7.7425q-2.4 0-2.4 2.4z" clip-path="url(#a)" fill="#fff" stroke="#fff"/>
<g clip-path="url(#a)">
<g transform="translate(1206.9 559.82) rotate(90) scale(.08 -.08)">
<use xlink:href="#k"/>
<use x="44.083984" xlink:href="#f"/>
<use x="105.607422" xlink:href="#i"/>
<use x="144.970703" xlink:href="#l"/>
<use x="242.382812" xlink:href="#h"/>
<use x="270.166016" xlink:href="#g"/>
<use x="333.544922" xlink:href="#e"/>
<use x="394.824219" xlink:href="#j"/>
</g>
</g>
<defs>
<path id="b" d="m0 8.6603c2.2967 0 4.4997-0.9125 6.1237-2.5365 1.624-1.624 2.5365-3.827 2.5365-6.1237s-0.9125-4.4997-2.5365-6.1237c-1.624-1.624-3.827-2.5365-6.1237-2.5365s-4.4997 0.9125-6.1237 2.5365c-1.624 1.624-2.5365 3.827-2.5365 6.1237s0.9125 4.4997 2.5365 6.1237c1.624 1.624 3.827 2.5365 6.1237 2.5365z"/>
</defs>
<g clip-path="url(#a)" fill="#ffffff" stroke="#ffffff">
<use x="57.575758" y="636.363636" xlink:href="#b"/>
<use x="67.502612" y="636.363636" xlink:href="#b"/>
<use x="80.738419" y="636.363636" xlink:href="#b"/>
<use x="97.283177" y="636.363636" xlink:href="#b"/>
<use x="117.136886" y="636.363636" xlink:href="#b"/>
<use x="140.299547" y="636.363636" xlink:href="#b"/>
<use x="166.77116" y="636.363636" xlink:href="#b"/>
<use x="196.551724" y="636.363636" xlink:href="#b"/>
<use x="229.64124" y="636.363636" xlink:href="#b"/>
<use x="266.039707" y="636.363636" xlink:href="#b"/>
<use x="305.747126" y="636.363636" xlink:href="#b"/>
<use x="348.763497" y="636.363636" xlink:href="#b"/>
<use x="395.088819" y="636.363636" xlink:href="#b"/>
<use x="444.723093" y="636.363636" xlink:href="#b"/>
<use x="497.666318" y="636.363636" xlink:href="#b"/>
<use x="553.918495" y="636.363636" xlink:href="#b"/>
<use x="613.479624" y="636.363636" xlink:href="#b"/>
<use x="676.349704" y="636.363636" xlink:href="#b"/>
<use x="742.528736" y="636.363636" xlink:href="#b"/>
<use x="812.016719" y="636.363636" xlink:href="#b"/>
<use x="884.813654" y="636.363636" xlink:href="#b"/>
<use x="960.91954" y="636.363636" xlink:href="#b"/>
<use x="1040.334378" y="636.363636" xlink:href="#b"/>
<use x="1123.058168" y="636.363636" xlink:href="#b"/>
<use x="1209.090909" y="636.363636" xlink:href="#b"/>
<use x="303.267711" y="30.30303" xlink:href="#b"/>
<use x="102.742947" y="152.595853" xlink:href="#b"/>
<use x="196.551724" y="517.086734" xlink:href="#b"/>
<use x="277.896784" y="152.595853" xlink:href="#b"/>
<use x="395.088819" y="517.086734" xlink:href="#b"/>
<use x="337.182166" y="396.150559" xlink:href="#b"/>
<use x="510.143823" y="152.595853" xlink:href="#b"/>
<use x="497.666318" y="517.086734" xlink:href="#b"/>
<use x="759.34924" y="274.580084" xlink:href="#b"/>
<use x="613.479624" y="517.086734" xlink:href="#b"/>
<use x="676.349704" y="517.086734" xlink:href="#b"/>
<use x="742.528736" y="517.086734" xlink:href="#b"/>
<use x="1005.038895" y="396.150559" xlink:href="#b"/>
<use x="812.016719" y="517.086734" xlink:href="#b"/>
<use x="884.813654" y="517.086734" xlink:href="#b"/>
<use x="960.91954" y="517.086734" xlink:href="#b"/>
<use x="444.723093" y="517.086734" xlink:href="#b"/>
<use x="229.64124" y="517.086734" xlink:href="#b"/>
<use x="266.039707" y="517.086734" xlink:href="#b"/>
<use x="338.009404" y="274.580084" xlink:href="#b"/>
<use x="327.255312" y="396.150559" xlink:href="#b"/>
<use x="348.763497" y="517.086734" xlink:href="#b"/>
<use x="305.747126" y="517.086734" xlink:href="#b"/>
<use x="65.020899" y="274.580084" xlink:href="#b"/>
<use x="80.738419" y="517.086734" xlink:href="#b"/>
<use x="97.283177" y="517.086734" xlink:href="#b"/>
<use x="117.136886" y="517.086734" xlink:href="#b"/>
<use x="153.535354" y="396.150559" xlink:href="#b"/>
<use x="140.299547" y="517.086734" xlink:href="#b"/>
<use x="166.77116" y="517.086734" xlink:href="#b"/>
<use x="62.539185" y="396.150559" xlink:href="#b"/>
<use x="67.502612" y="517.086734" xlink:href="#b"/>
<use x="57.575758" y="517.086734" xlink:href="#b"/>
<use x="553.918495" y="517.086734" xlink:href="#b"/>
<use x="1040.334378" y="517.086734" xlink:href="#b"/>
<use x="1123.058168" y="517.086734" xlink:href="#b"/>
<use x="1209.090909" y="517.086734" xlink:href="#b"/>
</g>
<g clip-path="url(#a)">
<g transform="translate(48.416 639.12) scale(.1 -.1)">
<defs>
<path id="au" d="m39.406 66.219q-10.75 0-17.078-8.0156-6.3125-8-6.3125-21.828 0-13.766 6.3125-21.781 6.3281-8 17.078-8 10.734 0 17.016 8 6.2812 8.0156 6.2812 21.781 0 13.828-6.2812 21.828-6.2812 8.0156-17.016 8.0156zm0 8q15.328 0 24.5-10.281 9.1875-10.281 9.1875-27.562 0-17.234-9.1875-27.516-9.1719-10.281-24.5-10.281-15.375 0-24.594 10.25-9.2031 10.266-9.2031 27.547t9.2031 27.562q9.2188 10.281 24.594 10.281z"/>
<path id="t" d="m8.5 21.578v33.109h8.9844v-32.766q0-7.7656 3.0156-11.656 3.0312-3.875 9.0938-3.875 7.2656 0 11.484 4.6406 4.2344 4.6406 4.2344 12.656v31h8.9844v-54.688h-8.9844v8.4062q-3.2656-4.9844-7.5938-7.4062-4.3125-2.4219-10.031-2.4219-9.4219 0-14.312 5.8594-4.875 5.8594-4.875 17.141z"/>
</defs>
<use xlink:href="#au"/>
<use x="78.710938" xlink:href="#t"/>
<use x="142.089844" xlink:href="#i"/>
</g>
</g>
<g clip-path="url(#a)">
<g transform="translate(53.671 639.12) scale(.1 -.1)">
<defs>
<path id="aj" d="m37.109 75.984v-7.4844h-8.5938q-4.8281 0-6.7188-1.9531-1.875-1.9531-1.875-7.0312v-4.8281h14.797v-6.9844h-14.797v-47.703h-9.0312v47.703h-8.5938v6.9844h8.5938v3.8125q0 9.125 4.25 13.297 4.25 4.1875 13.469 4.1875z"/>
<path id="ak" d="m48.781 52.594v-8.4062q-3.8125 2.1094-7.6406 3.1562t-7.7344 1.0469q-8.75 0-13.594-5.5469-4.8281-5.5312-4.8281-15.547t4.8281-15.562q4.8438-5.5312 13.594-5.5312 3.9062 0 7.7344 1.0469t7.6406 3.1562v-8.3125q-3.7656-1.75-7.7969-2.625-4.0156-0.89062-8.5625-0.89062-12.359 0-19.641 7.7656-7.2656 7.7656-7.2656 20.953 0 13.375 7.3438 21.031 7.3594 7.6719 20.156 7.6719 4.1406 0 8.0938-0.85938 3.9531-0.84375 7.6719-2.5469z"/>
</defs>
<use xlink:href="#aj"/>
<use x="35.205078" xlink:href="#f"/>
<use x="96.728516" xlink:href="#g"/>
<use x="160.107422" xlink:href="#ak"/>
<use x="215.087891" xlink:href="#f"/>
</g>
</g>
<g clip-path="url(#a)">
<g transform="translate(70.981 639.12) scale(.1 -.1)">
<defs>
<path id="ax" d="m4.2031 54.688h8.9844l11.234-42.672 11.172 42.672h10.594l11.234-42.672 11.188 42.672h8.9844l-14.312-54.688h-10.594l-11.766 44.828-11.812-44.828h-10.609z"/>
<path id="r" d="m44.281 53.078v-8.5q-3.7969 1.9531-7.9062 2.9219-4.0938 0.98438-8.5 0.98438-6.6875 0-10.031-2.0469t-3.3438-6.1562q0-3.125 2.3906-4.9062t9.625-3.3906l3.0781-0.6875q9.5625-2.0469 13.594-5.7812t4.0312-10.422q0-7.625-6.0312-12.078-6.0312-4.4375-16.578-4.4375-4.3906 0-9.1562 0.85938t-10.031 2.5625v9.2812q4.9844-2.5938 9.8125-3.8906 4.8281-1.2812 9.5781-1.2812 6.3438 0 9.75 2.1719 3.4219 2.1719 3.4219 6.125 0 3.6562-2.4688 5.6094-2.4531 1.9531-10.812 3.7656l-3.125 0.73438q-8.3438 1.75-12.062 5.3906-3.7031 3.6406-3.7031 9.9844 0 7.7188 5.4688 11.906 5.4688 4.2031 15.531 4.2031 4.9688 0 9.3594-0.73438 4.4062-0.71875 8.1094-2.1875z"/>
</defs>
<use xlink:href="#ax"/>
<use x="81.787109" xlink:href="#e"/>
<use x="143.066406" xlink:href="#r"/>
</g>
</g>
<g clip-path="url(#a)">
<g transform="translate(76.068 639.12) scale(.1 -.1)">
<defs>
<path id="q" d="m18.312 70.219v-15.531h18.5v-6.9844h-18.5v-29.688q0-6.6875 1.8281-8.5938t7.4531-1.9062h9.2188v-7.5156h-9.2188q-10.406 0-14.359 3.875-3.9531 3.8906-3.9531 14.141v29.688h-6.5938v6.9844h6.5938v15.531z"/>
<path id="u" d="m45.406 46.391v29.594h8.9844v-75.984h-8.9844v8.2031q-2.8281-4.875-7.1562-7.25-4.3125-2.375-10.375-2.375-9.9062 0-16.141 7.9062-6.2188 7.9219-6.2188 20.812t6.2188 20.797q6.2344 7.9062 16.141 7.9062 6.0625 0 10.375-2.375 4.3281-2.3594 7.1562-7.2344zm-30.609-19.094q0-9.9062 4.0781-15.547t11.203-5.6406 11.219 5.6406q4.1094 5.6406 4.1094 15.547t-4.1094 15.547q-4.0938 5.6406-11.219 5.6406t-11.203-5.6406-4.0781-15.547z"/>
</defs>
<use xlink:href="#h"/>
<use x="27.783203" xlink:href="#g"/>
<use x="91.162109" xlink:href="#r"/>
<use x="143.261719" xlink:href="#q"/>
<use x="182.470703" xlink:href="#e"/>
<use x="243.75" xlink:href="#j"/>
<use x="271.533203" xlink:href="#j"/>
<use x="299.316406" xlink:href="#f"/>
<use x="360.839844" xlink:href="#u"/>
</g>
</g>
<g clip-path="url(#a)">
<g transform="translate(99.412 639.12) scale(.1 -.1)">
<defs>
<path id="ay" d="m14.797 27.297q0-9.9062 4.0781-15.547t11.203-5.6406 11.219 5.6406q4.1094 5.6406 4.1094 15.547t-4.1094 15.547q-4.0938 5.6406-11.219 5.6406t-11.203-5.6406-4.0781-15.547zm30.609-19.094q-2.8281-4.875-7.1562-7.25-4.3125-2.375-10.375-2.375-9.9062 0-16.141 7.9062-6.2188 7.9219-6.2188 20.812t6.2188 20.797q6.2344 7.9062 16.141 7.9062 6.0625 0 10.375-2.375 4.3281-2.3594 7.1562-7.2344v8.2969h8.9844v-75.484h-8.9844z"/>
<path id="ar" d="m9.0781 75.984h9.0312v-44.875l26.812 23.578h11.469l-29-25.578 30.234-29.109h-11.719l-27.797 26.703v-26.703h-9.0312z"/>
<path id="s" d="m32.172-5.0781q-3.7969-9.7656-7.4219-12.734-3.6094-2.9844-9.6562-2.9844h-7.1875v7.5156h5.2812q3.7031 0 5.75 1.7656 2.0625 1.75 4.5469 8.2969l1.6094 4.0938-22.109 53.812h9.5156l17.094-42.766 17.094 42.766h9.5156z"/>
</defs>
<use xlink:href="#ay"/>
<use x="63.476562" xlink:href="#t"/>
<use x="126.855469" xlink:href="#h"/>
<use x="154.638672" xlink:href="#ak"/>
<use x="209.619141" xlink:href="#ar"/>
<use x="267.529297" xlink:href="#j"/>
<use x="295.3125" xlink:href="#s"/>
</g>
</g>
<g clip-path="url(#a)">
<g transform="translate(135.74 639.12) scale(.1 -.1)">
<use xlink:href="#h"/>
<use x="27.783203" xlink:href="#g"/>
</g>
</g>
<g clip-path="url(#a)">
<g transform="translate(149.27 639.12) scale(.1 -.1)">
<defs>
<path id="ai" d="m45.406 27.984q0 9.7656-4.0312 15.125-4.0156 5.375-11.297 5.375-7.2188 0-11.25-5.375-4.0312-5.3594-4.0312-15.125 0-9.7188 4.0312-15.094t11.25-5.375q7.2812 0 11.297 5.375 4.0312 5.375 4.0312 15.094zm8.9844-21.203q0-13.953-6.2031-20.766-6.1875-6.8125-18.984-6.8125-4.7344 0-8.9375 0.70312t-8.1562 2.1719v8.7344q3.9531-2.1406 7.8125-3.1562 3.8594-1.0312 7.8594-1.0312 8.8438 0 13.234 4.6094t4.3906 13.938v4.4531q-2.7812-4.8438-7.125-7.2344t-10.406-2.3906q-10.047 0-16.203 7.6562-6.1562 7.6719-6.1562 20.328 0 12.688 6.1562 20.344 6.1562 7.6719 16.203 7.6719 6.0625 0 10.406-2.3906t7.125-7.2188v8.2969h8.9844z"/>
</defs>
<use xlink:href="#o"/>
<use x="68.408203" xlink:href="#t"/>
<use x="131.787109" xlink:href="#ai"/>
<use x="195.263672" xlink:href="#t"/>
<use x="258.642578" xlink:href="#r"/>
<use x="310.742188" xlink:href="#q"/>
</g>
</g>
<g clip-path="url(#a)">
<g transform="translate(187.14 639.12) scale(.1 -.1)">
<use xlink:href="#e"/>
<use x="61.279297" xlink:href="#g"/>
<use x="124.658203" xlink:href="#u"/>
</g>
</g>
<g clip-path="url(#a)">
<g transform="translate(218.48 639.12) scale(.1 -.1)">
<defs>
<path id="ac" d="m54.891 33.016v-33.016h-8.9844v32.719q0 7.7656-3.0312 11.609-3.0312 3.8594-9.0781 3.8594-7.2812 0-11.484-4.6406-4.2031-4.625-4.2031-12.641v-30.906h-9.0312v75.984h9.0312v-29.797q3.2344 4.9375 7.5938 7.375 4.375 2.4375 10.094 2.4375 9.4219 0 14.25-5.8281 4.8438-5.8281 4.8438-17.156z"/>
</defs>
<use xlink:href="#q"/>
<use x="39.208984" xlink:href="#ac"/>
<use x="102.587891" xlink:href="#f"/>
<use x="164.111328" xlink:href="#s"/>
</g>
</g>
<g clip-path="url(#a)">
<g transform="translate(256.63 639.12) scale(.1 -.1)">
<use xlink:href="#ac"/>
<use x="63.378906" xlink:href="#e"/>
<use x="124.658203" xlink:href="#u"/>
</g>
</g>
<g clip-path="url(#a)">
<g transform="translate(294.1 639.12) scale(.1 -.1)">
<use xlink:href="#q"/>
<use x="39.208984" xlink:href="#ac"/>
<use x="102.587891" xlink:href="#f"/>
<use x="164.111328" xlink:href="#h"/>
<use x="191.894531" xlink:href="#i"/>
</g>
</g>
<g clip-path="url(#a)">
<g transform="translate(331.63 639.12) scale(.1 -.1)">
<defs>
<path id="ah" d="m30.609 48.391q-7.2188 0-11.422-5.6406t-4.2031-15.453 4.1719-15.453q4.1875-5.6406 11.453-5.6406 7.1875 0 11.375 5.6562 4.2031 5.6719 4.2031 15.438 0 9.7188-4.2031 15.406-4.1875 5.6875-11.375 5.6875zm0 7.6094q11.719 0 18.406-7.625 6.7031-7.6094 6.7031-21.078 0-13.422-6.7031-21.078-6.6875-7.6406-18.406-7.6406-11.766 0-18.438 7.6406-6.6562 7.6562-6.6562 21.078 0 13.469 6.6562 21.078 6.6719 7.625 18.438 7.625z"/>
</defs>
<use xlink:href="#l"/>
<use x="97.412109" xlink:href="#ah"/>
<use x="158.59375" xlink:href="#g"/>
<use x="221.972656" xlink:href="#f"/>
<use x="283.496094" xlink:href="#s"/>
</g>
</g>
<g clip-path="url(#a)">
<g transform="translate(385.68 639.12) scale(.1 -.1)">
<use xlink:href="#e"/>
<use x="61.279297" xlink:href="#g"/>
<use x="124.658203" xlink:href="#u"/>
</g>
</g>
<g clip-path="url(#a)">
<g transform="translate(436.62 639.12) scale(.1 -.1)">
<use xlink:href="#j"/>
<use x="27.783203" xlink:href="#f"/>
<use x="89.306641" xlink:href="#aj"/>
<use x="122.761719" xlink:href="#q"/>
</g>
</g>
<g clip-path="url(#a)">
<g transform="translate(481.31 639.12) scale(.1 -.1)">
<use xlink:href="#r"/>
<use x="52.099609" xlink:href="#e"/>
<use x="113.378906" xlink:href="#s"/>
<use x="172.558594" xlink:href="#h"/>
<use x="200.341797" xlink:href="#g"/>
<use x="263.720703" xlink:href="#ai"/>
</g>
</g>
<g clip-path="url(#a)">
<g transform="translate(551.62 639.12) scale(.1 -.1)">
<defs>
<path id="ap" d="m17.922 72.906v-27.109h-8.2969v27.109zm18.453 0v-27.109h-8.2969v27.109z"/>
</defs>
<use xlink:href="#ap"/>
</g>
</g>
<g clip-path="url(#a)">
<g transform="translate(579.38 639.12) scale(.1 -.1)">
<defs>
<path id="as" d="m3.3281 72.906h9.9531l15.328-61.625 15.281 61.625h11.094l15.328-61.625 15.281 61.625h10.016l-18.312-72.906h-12.406l-15.375 63.281-15.531-63.281h-12.406z"/>
<path id="az" d="m18.109 8.2031v-29h-9.0312v75.484h9.0312v-8.2969q2.8438 4.875 7.1562 7.2344 4.3281 2.375 10.328 2.375 9.9688 0 16.188-7.9062 6.2344-7.9062 6.2344-20.797t-6.2344-20.812q-6.2188-7.9062-16.188-7.9062-6 0-10.328 2.375-4.3125 2.375-7.1562 7.25zm30.578 19.094q0 9.9062-4.0781 15.547t-11.203 5.6406q-7.1406 0-11.219-5.6406t-4.0781-15.547 4.0781-15.547 11.219-5.6406q7.125 0 11.203 5.6406t4.0781 15.547z"/>
</defs>
<use xlink:href="#as"/>
<use x="93.001953" xlink:href="#ah"/>
<use x="154.183594" xlink:href="#i"/>
<use x="195.296875" xlink:href="#ar"/>
<use x="253.207031" xlink:href="#l"/>
<use x="350.619141" xlink:href="#e"/>
<use x="411.898438" xlink:href="#g"/>
<use x="475.277344" xlink:href="#r"/>
<use x="527.376953" xlink:href="#ac"/>
<use x="590.755859" xlink:href="#h"/>
<use x="618.539062" xlink:href="#az"/>
</g>
</g>
<g clip-path="url(#a)">
<g transform="translate(672.36 639.12) scale(.1 -.1)">
<use xlink:href="#h"/>
<use x="27.783203" xlink:href="#r"/>
</g>
</g>
<g clip-path="url(#a)">
<g transform="translate(713.55 639.12) scale(.1 -.1)">
<use xlink:href="#ai"/>
<use x="63.476562" xlink:href="#t"/>
<use x="126.855469" xlink:href="#e"/>
<use x="188.134766" xlink:href="#i"/>
<use x="229.248047" xlink:href="#e"/>
<use x="290.527344" xlink:href="#g"/>
<use x="353.90625" xlink:href="#q"/>
<use x="393.115234" xlink:href="#f"/>
<use x="454.638672" xlink:href="#f"/>
<use x="516.162109" xlink:href="#u"/>
</g>
</g>
<g clip-path="url(#a)">
<g transform="translate(805.14 639.12) scale(.1 -.1)">
<use xlink:href="#aj"/>
<use x="35.205078" xlink:href="#ah"/>
<use x="96.386719" xlink:href="#i"/>
</g>
</g>
<g clip-path="url(#a)">
<g transform="translate(881.75 639.12) scale(.1 -.1)">
<use xlink:href="#e"/>
</g>
</g>
<g clip-path="url(#a)">
<g transform="translate(949.76 639.12) scale(.1 -.1)">
<use xlink:href="#s"/>
<use x="59.179688" xlink:href="#f"/>
<use x="120.703125" xlink:href="#e"/>
<use x="181.982422" xlink:href="#i"/>
</g>
</g>
<g clip-path="url(#a)">
<g transform="translate(1038.3 639.12) scale(.1 -.1)">
<defs>
<path id="aw" d="m15.094 12.406h9.9062v-12.406h-9.9062zm0 60.5h9.9062v-31.984l-0.96875-17.438h-7.9219l-1.0156 17.438z"/>
</defs>
<use xlink:href="#aw"/>
</g>
</g>
<g clip-path="url(#a)">
<g transform="translate(1120.8 639.12) scale(.1 -.1)">
<use xlink:href="#ap"/>
</g>
</g>
<g clip-path="url(#a)">
<g transform="translate(1207.5 639.12) scale(.1 -.1)">
<defs>
<path id="d" d="m10.688 12.406h10.312v-12.406h-10.312z"/>
</defs>
<use xlink:href="#d"/>
</g>
</g>
<g clip-path="url(#a)">
<g transform="translate(295.32 33.062) scale(.1 -.1)">
<defs>
<path id="c" d="m12.406 8.2969h16.109v55.625l-17.531-3.5156v8.9844l17.438 3.5156h9.8594v-64.609h16.109v-8.2969h-41.984z"/>
</defs>
<use xlink:href="#c"/>
<use x="63.623047" xlink:href="#d"/>
<use x="95.410156" xlink:href="#c"/>
</g>
</g>
<g clip-path="url(#a)">
<g transform="translate(94.791 155.36) scale(.1 -.1)">
<defs>
<path id="m" d="m19.188 8.2969h34.422v-8.2969h-46.281v8.2969q5.6094 5.8125 15.297 15.594 9.7031 9.7969 12.188 12.641 4.7344 5.3125 6.6094 9 1.8906 3.6875 1.8906 7.25 0 5.8125-4.0781 9.4688-4.0781 3.6719-10.625 3.6719-4.6406 0-9.7969-1.6094-5.1406-1.6094-11-4.8906v9.9688q5.9531 2.3906 11.125 3.6094 5.1875 1.2188 9.4844 1.2188 11.328 0 18.062-5.6719 6.7344-5.6562 6.7344-15.125 0-4.5-1.6875-8.5312-1.6719-4.0156-6.125-9.4844-1.2188-1.4219-7.7656-8.1875-6.5312-6.7656-18.453-18.922z"/>
</defs>
<use xlink:href="#c"/>
<use x="63.623047" xlink:href="#d"/>
<use x="95.410156" xlink:href="#m"/>
</g>
</g>
<g clip-path="url(#a)">
<g transform="translate(188.6 519.85) scale(.1 -.1)">
<defs>
<path id="n" d="m40.578 39.312q7.0781-1.5156 11.047-6.3125 3.9844-4.7812 3.9844-11.812 0-10.781-7.4219-16.703-7.4219-5.9062-21.094-5.9062-4.5781 0-9.4375 0.90625t-10.031 2.7188v9.5156q4.0938-2.3906 8.9688-3.6094 4.8906-1.2188 10.219-1.2188 9.2656 0 14.125 3.6562t4.8594 10.641q0 6.4531-4.5156 10.078-4.5156 3.6406-12.562 3.6406h-8.5v8.1094h8.8906q7.2656 0 11.125 2.9062t3.8594 8.375q0 5.6094-3.9844 8.6094-3.9688 3.0156-11.391 3.0156-4.0625 0-8.7031-0.89062-4.6406-0.875-10.203-2.7188v8.7812q5.625 1.5625 10.531 2.3438t9.25 0.78125q11.234 0 17.766-5.1094 6.5469-5.0938 6.5469-13.781 0-6.0625-3.4688-10.234t-9.8594-5.7812z"/>
</defs>
<use xlink:href="#c"/>
<use x="63.623047" xlink:href="#d"/>
<use x="95.410156" xlink:href="#n"/>
</g>
</g>
<g clip-path="url(#a)">
<g transform="translate(269.95 155.36) scale(.1 -.1)">
<defs>
<path id="p" d="m37.797 64.312-24.906-38.922h24.906zm-2.5938 8.5938h12.406v-47.516h10.406v-8.2031h-10.406v-17.188h-9.8125v17.188h-32.906v9.5156z"/>
</defs>
<use xlink:href="#c"/>
<use x="63.623047" xlink:href="#d"/>
<use x="95.410156" xlink:href="#p"/>
</g>
</g>
<g clip-path="url(#a)">
<g transform="translate(387.14 519.85) scale(.1 -.1)">
<defs>
<path id="ab" d="m10.797 72.906h38.719v-8.3125h-29.688v-17.859q2.1406 0.73438 4.2812 1.0938 2.1562 0.35938 4.3125 0.35938 12.203 0 19.328-6.6875 7.1406-6.6875 7.1406-18.109 0-11.766-7.3281-18.297-7.3281-6.5156-20.656-6.5156-4.5938 0-9.3594 0.78125-4.75 0.78125-9.8281 2.3438v9.9219q4.3906-2.3906 9.0781-3.5625t9.9062-1.1719q8.4531 0 13.375 4.4375 4.9375 4.4375 4.9375 12.062 0 7.6094-4.9375 12.047-4.9219 4.4531-13.375 4.4531-3.9531 0-7.8906-0.875-3.9219-0.875-8.0156-2.7344z"/>
</defs>
<use xlink:href="#c"/>
<use x="63.623047" xlink:href="#d"/>
<use x="95.410156" xlink:href="#ab"/>
</g>
</g>
<g clip-path="url(#a)">
<g transform="translate(329.23 398.91) scale(.1 -.1)">
<defs>
<path id="aa" d="m33.016 40.375q-6.6406 0-10.531-4.5469-3.875-4.5312-3.875-12.438 0-7.8594 3.875-12.438 3.8906-4.5625 10.531-4.5625t10.516 4.5625q3.875 4.5781 3.875 12.438 0 7.9062-3.875 12.438-3.875 4.5469-10.516 4.5469zm19.578 30.922v-8.9844q-3.7188 1.75-7.5 2.6719-3.7812 0.9375-7.5 0.9375-9.7656 0-14.922-6.5938-5.1406-6.5938-5.875-19.922 2.875 4.25 7.2188 6.5156 4.3594 2.2656 9.5781 2.2656 10.984 0 17.359-6.6719 6.375-6.6562 6.375-18.125 0-11.234-6.6406-18.031-6.6406-6.7812-17.672-6.7812-12.656 0-19.344 9.6875-6.6875 9.7031-6.6875 28.109 0 17.281 8.2031 27.562t22.016 10.281q3.7188 0 7.5-0.73438t7.8906-2.1875z"/>
</defs>
<use xlink:href="#c"/>
<use x="63.623047" xlink:href="#d"/>
<use x="95.410156" xlink:href="#aa"/>
</g>
</g>
<g clip-path="url(#a)">
<g transform="translate(502.19 155.36) scale(.1 -.1)">
<defs>
<path id="z" d="m8.2031 72.906h46.875v-4.2031l-26.469-68.703h-10.297l24.906 64.594h-35.016z"/>
</defs>
<use xlink:href="#c"/>
<use x="63.623047" xlink:href="#d"/>
<use x="95.410156" xlink:href="#z"/>
</g>
</g>
<g clip-path="url(#a)">
<g transform="translate(486.53 519.85) scale(.1 -.1)">
<use xlink:href="#c"/>
<use x="63.623047" xlink:href="#d"/>
<use x="95.410156" xlink:href="#c"/>
<use x="159.033203" xlink:href="#c"/>
</g>
</g>
<g clip-path="url(#a)">
<g transform="translate(748.22 277.34) scale(.1 -.1)">
<use xlink:href="#c"/>
<use x="63.623047" xlink:href="#d"/>
<use x="95.410156" xlink:href="#c"/>
<use x="159.033203" xlink:href="#m"/>
</g>
</g>
<g clip-path="url(#a)">
<g transform="translate(602.35 519.85) scale(.1 -.1)">
<use xlink:href="#c"/>
<use x="63.623047" xlink:href="#d"/>
<use x="95.410156" xlink:href="#c"/>
<use x="159.033203" xlink:href="#p"/>
</g>
</g>
<g clip-path="url(#a)">
<g transform="translate(665.22 519.85) scale(.1 -.1)">
<use xlink:href="#c"/>
<use x="63.623047" xlink:href="#d"/>
<use x="95.410156" xlink:href="#c"/>
<use x="159.033203" xlink:href="#ab"/>
</g>
</g>
<g clip-path="url(#a)">
<g transform="translate(731.4 519.85) scale(.1 -.1)">
<use xlink:href="#c"/>
<use x="63.623047" xlink:href="#d"/>
<use x="95.410156" xlink:href="#c"/>
<use x="159.033203" xlink:href="#aa"/>
</g>
</g>
<g clip-path="url(#a)">
<g transform="translate(993.91 398.91) scale(.1 -.1)">
<use xlink:href="#c"/>
<use x="63.623047" xlink:href="#d"/>
<use x="95.410156" xlink:href="#c"/>
<use x="159.033203" xlink:href="#z"/>
</g>
</g>
<g clip-path="url(#a)">
<g transform="translate(800.88 519.85) scale(.1 -.1)">
<defs>
<path id="af" d="m31.781 34.625q-7.0312 0-11.062-3.7656-4.0156-3.7656-4.0156-10.344 0-6.5938 4.0156-10.359 4.0312-3.7656 11.062-3.7656t11.078 3.7812q4.0625 3.7969 4.0625 10.344 0 6.5781-4.0312 10.344-4.0156 3.7656-11.109 3.7656zm-9.8594 4.1875q-6.3438 1.5625-9.8906 5.9062-3.5312 4.3594-3.5312 10.609 0 8.7344 6.2188 13.812 6.2344 5.0781 17.062 5.0781 10.891 0 17.094-5.0781t6.2031-13.812q0-6.25-3.5469-10.609-3.5312-4.3438-9.8281-5.9062 7.125-1.6562 11.094-6.5 3.9844-4.8281 3.9844-11.797 0-10.609-6.4688-16.281-6.4688-5.6562-18.531-5.6562-12.047 0-18.531 5.6562-6.4688 5.6719-6.4688 16.281 0 6.9688 4 11.797 4.0156 4.8438 11.141 6.5zm-3.6094 15.578q0-5.6562 3.5312-8.8281 3.5469-3.1719 9.9375-3.1719 6.3594 0 9.9375 3.1719 3.5938 3.1719 3.5938 8.8281 0 5.6719-3.5938 8.8438-3.5781 3.1719-9.9375 3.1719-6.3906 0-9.9375-3.1719-3.5312-3.1719-3.5312-8.8438z"/>
</defs>
<use xlink:href="#c"/>
<use x="63.623047" xlink:href="#d"/>
<use x="95.410156" xlink:href="#c"/>
<use x="159.033203" xlink:href="#af"/>
</g>
</g>
<g clip-path="url(#a)">
<g transform="translate(873.68 519.85) scale(.1 -.1)">
<defs>
<path id="ae" d="m10.984 1.5156v8.9844q3.7188-1.7656 7.5156-2.6875 3.8125-0.92188 7.4844-0.92188 9.7656 0 14.906 6.5625 5.1562 6.5625 5.8906 19.953-2.8281-4.2031-7.1875-6.4531-4.3438-2.25-9.6094-2.25-10.938 0-17.312 6.6094-6.375 6.625-6.375 18.109 0 11.219 6.6406 18 6.6406 6.7969 17.672 6.7969 12.656 0 19.312-9.7031 6.6719-9.6875 6.6719-28.141 0-17.234-8.1875-27.516-8.1719-10.281-21.984-10.281-3.7188 0-7.5312 0.73438-3.7969 0.73438-7.9062 2.2031zm19.625 30.906q6.6406 0 10.516 4.5312 3.8906 4.5469 3.8906 12.469 0 7.8594-3.8906 12.422-3.875 4.5625-10.516 4.5625t-10.516-4.5625-3.875-12.422q0-7.9219 3.875-12.469 3.875-4.5312 10.516-4.5312z"/>
</defs>
<use xlink:href="#c"/>
<use x="63.623047" xlink:href="#d"/>
<use x="95.410156" xlink:href="#c"/>
<use x="159.033203" xlink:href="#ae"/>
</g>
</g>
<g clip-path="url(#a)">
<g transform="translate(949.79 519.85) scale(.1 -.1)">
<defs>
<path id="ag" d="m31.781 66.406q-7.6094 0-11.453-7.5-3.8281-7.4844-3.8281-22.531 0-14.984 3.8281-22.484 3.8438-7.5 11.453-7.5 7.6719 0 11.5 7.5 3.8438 7.5 3.8438 22.484 0 15.047-3.8438 22.531-3.8281 7.5-11.5 7.5zm0 7.8125q12.266 0 18.734-9.7031 6.4688-9.6875 6.4688-28.141 0-18.406-6.4688-28.109-6.4688-9.6875-18.734-9.6875-12.25 0-18.719 9.6875-6.4688 9.7031-6.4688 28.109 0 18.453 6.4688 28.141 6.4688 9.7031 18.719 9.7031z"/>
</defs>
<use xlink:href="#c"/>
<use x="63.623047" xlink:href="#d"/>
<use x="95.410156" xlink:href="#m"/>
<use x="159.033203" xlink:href="#ag"/>
</g>
</g>
<g clip-path="url(#a)">
<g transform="translate(433.59 519.85) scale(.1 -.1)">
<use xlink:href="#c"/>
<use x="63.623047" xlink:href="#d"/>
<use x="95.410156" xlink:href="#m"/>
<use x="159.033203" xlink:href="#c"/>
</g>
</g>
<g clip-path="url(#a)">
<g transform="translate(218.51 519.85) scale(.1 -.1)">
<use xlink:href="#c"/>
<use x="63.623047" xlink:href="#d"/>
<use x="95.410156" xlink:href="#m"/>
<use x="159.033203" xlink:href="#m"/>
</g>
</g>
<g clip-path="url(#a)">
<g transform="translate(254.91 519.85) scale(.1 -.1)">
<use xlink:href="#c"/>
<use x="63.623047" xlink:href="#d"/>
<use x="95.410156" xlink:href="#m"/>
<use x="159.033203" xlink:href="#n"/>
</g>
</g>
<g clip-path="url(#a)">
<g transform="translate(326.88 277.34) scale(.1 -.1)">
<use xlink:href="#c"/>
<use x="63.623047" xlink:href="#d"/>
<use x="95.410156" xlink:href="#m"/>
<use x="159.033203" xlink:href="#p"/>
</g>
</g>
<g clip-path="url(#a)">
<g transform="translate(316.12 398.91) scale(.1 -.1)">
<use xlink:href="#c"/>
<use x="63.623047" xlink:href="#d"/>
<use x="95.410156" xlink:href="#m"/>
<use x="159.033203" xlink:href="#ab"/>
</g>
</g>
<g clip-path="url(#a)">
<g transform="translate(337.63 519.85) scale(.1 -.1)">
<use xlink:href="#c"/>
<use x="63.623047" xlink:href="#d"/>
<use x="95.410156" xlink:href="#m"/>
<use x="159.033203" xlink:href="#aa"/>
</g>
</g>
<g clip-path="url(#a)">
<g transform="translate(294.61 519.85) scale(.1 -.1)">
<use xlink:href="#c"/>
<use x="63.623047" xlink:href="#d"/>
<use x="95.410156" xlink:href="#m"/>
<use x="159.033203" xlink:href="#z"/>
</g>
</g>
<g clip-path="url(#a)">
<g transform="translate(53.888 277.34) scale(.1 -.1)">
<use xlink:href="#c"/>
<use x="63.623047" xlink:href="#d"/>
<use x="95.410156" xlink:href="#m"/>
<use x="159.033203" xlink:href="#af"/>
</g>
</g>
<g clip-path="url(#a)">
<g transform="translate(69.606 519.85) scale(.1 -.1)">
<use xlink:href="#c"/>
<use x="63.623047" xlink:href="#d"/>
<use x="95.410156" xlink:href="#m"/>
<use x="159.033203" xlink:href="#ae"/>
</g>
</g>
<g clip-path="url(#a)">
<g transform="translate(86.15 519.85) scale(.1 -.1)">
<use xlink:href="#c"/>
<use x="63.623047" xlink:href="#d"/>
<use x="95.410156" xlink:href="#n"/>
<use x="159.033203" xlink:href="#ag"/>
</g>
</g>
<g clip-path="url(#a)">
<g transform="translate(106 519.85) scale(.1 -.1)">
<use xlink:href="#c"/>
<use x="63.623047" xlink:href="#d"/>
<use x="95.410156" xlink:href="#n"/>
<use x="159.033203" xlink:href="#c"/>
</g>
</g>
<g clip-path="url(#a)">
<g transform="translate(142.4 398.91) scale(.1 -.1)">
<use xlink:href="#c"/>
<use x="63.623047" xlink:href="#d"/>
<use x="95.410156" xlink:href="#n"/>
<use x="159.033203" xlink:href="#m"/>
</g>
</g>
<g clip-path="url(#a)">
<g transform="translate(129.17 519.85) scale(.1 -.1)">
<use xlink:href="#c"/>
<use x="63.623047" xlink:href="#d"/>
<use x="95.410156" xlink:href="#n"/>
<use x="159.033203" xlink:href="#n"/>
</g>
</g>
<g clip-path="url(#a)">
<g transform="translate(155.64 519.85) scale(.1 -.1)">
<use xlink:href="#c"/>
<use x="63.623047" xlink:href="#d"/>
<use x="95.410156" xlink:href="#n"/>
<use x="159.033203" xlink:href="#p"/>
</g>
</g>
<g clip-path="url(#a)">
<g transform="translate(51.406 398.91) scale(.1 -.1)">
<use xlink:href="#c"/>
<use x="63.623047" xlink:href="#d"/>
<use x="95.410156" xlink:href="#n"/>
<use x="159.033203" xlink:href="#ab"/>
</g>
</g>
<g clip-path="url(#a)">
<g transform="translate(56.37 519.85) scale(.1 -.1)">
<use xlink:href="#c"/>
<use x="63.623047" xlink:href="#d"/>
<use x="95.410156" xlink:href="#n"/>
<use x="159.033203" xlink:href="#aa"/>
</g>
</g>
<g clip-path="url(#a)">
<g transform="translate(46.443 519.85) scale(.1 -.1)">
<use xlink:href="#c"/>
<use x="63.623047" xlink:href="#d"/>
<use x="95.410156" xlink:href="#n"/>
<use x="159.033203" xlink:href="#z"/>
</g>
</g>
<g clip-path="url(#a)">
<g transform="translate(542.79 519.85) scale(.1 -.1)">
<use xlink:href="#c"/>
<use x="63.623047" xlink:href="#d"/>
<use x="95.410156" xlink:href="#n"/>
<use x="159.033203" xlink:href="#af"/>
</g>
</g>
<g clip-path="url(#a)">
<g transform="translate(1029.2 519.85) scale(.1 -.1)">
<use xlink:href="#c"/>
<use x="63.623047" xlink:href="#d"/>
<use x="95.410156" xlink:href="#n"/>
<use x="159.033203" xlink:href="#ae"/>
</g>
</g>
<g clip-path="url(#a)">
<g transform="translate(1111.9 519.85) scale(.1 -.1)">
<use xlink:href="#c"/>
<use x="63.623047" xlink:href="#d"/>
<use x="95.410156" xlink:href="#p"/>
<use x="159.033203" xlink:href="#ag"/>
</g>
</g>
<g clip-path="url(#a)">
<g transform="translate(1198 519.85) scale(.1 -.1)">
<use xlink:href="#c"/>
<use x="63.623047" xlink:href="#d"/>
<use x="95.410156" xlink:href="#p"/>
<use x="159.033203" xlink:href="#c"/>
</g>
</g>
<defs>
<clipPath id="a">
<rect width="1266.7" height="666.67"/>
</clipPath>
</defs>
</svg>
