<?xml version="1.0" encoding="UTF-8"?>
<!DOCTYPE svg  PUBLIC '-//W3C//DTD SVG 1.1//EN'  'http://www.w3.org/Graphics/SVG/1.1/DTD/svg11.dtd'>
<svg width="1874.7pt" height="986.67pt" version="1.1" viewBox="0 0 1874.7 986.67" xmlns="http://www.w3.org/2000/svg" xmlns:xlink="http://www.w3.org/1999/xlink">
<metadata>
<rdf:RDF xmlns:cc="http://creativecommons.org/ns#" xmlns:dc="http://purl.org/dc/elements/1.1/" xmlns:rdf="http://www.w3.org/1999/02/22-rdf-syntax-ns#">
<cc:Work>
<dc:type rdf:resource="http://purl.org/dc/dcmitype/StillImage"/>
<dc:date>2021-02-25T11:30:54.853339</dc:date>
<dc:format>image/svg+xml</dc:format>
<dc:creator>
<cc:Agent>
<dc:title>Matplotlib v3.3.3, https://matplotlib.org/</dc:title>
</cc:Agent>
</dc:creator>
</cc:Work>
</rdf:RDF>
</metadata>
<defs>
<style type="text/css">*{stroke-linecap:butt;stroke-linejoin:round;}</style>
</defs>
<path d="m0 986.67h1874.7v-986.67h-1874.7z" fill="#fff"/>
<g fill="none" stroke="#000">
<path d="m726.19 44.848-595.33 361.53" clip-path="url(#a)"/>
<path d="m726.19 44.848-409.01 361.53" clip-path="url(#a)"/>
<path d="m726.19 44.848-251.24 720.44" clip-path="url(#a)"/>
<path d="m726.19 44.848-238.78 180.99" clip-path="url(#a)"/>
<path d="m726.19 44.848 382.95 361.53" clip-path="url(#a)"/>
<path d="m726.19 44.848 572.06 720.44" clip-path="url(#a)"/>
<path d="m726.19 44.848 868.86 180.99" clip-path="url(#a)"/>
<path d="m726.19 44.848-493.38 720.44" clip-path="url(#a)"/>
<path d="m726.19 44.848 163.87 720.44" clip-path="url(#a)"/>
<path d="m130.85 406.38 76.583 179.92" clip-path="url(#a)"/>
<path d="m130.85 406.38-37.955 179.92" clip-path="url(#a)"/>
<path d="m130.85 406.38 3.9397 358.91" clip-path="url(#a)"/>
<path d="m130.85 406.38 51.984 179.92" clip-path="url(#a)"/>
<path d="m130.85 406.38-17.969 358.91" clip-path="url(#a)"/>
<path d="m317.17 406.38-56.693 358.91" clip-path="url(#a)"/>
<path d="m317.17 406.38-26.713 358.91" clip-path="url(#a)"/>
<path d="m317.17 406.38 5.5732 358.91" clip-path="url(#a)"/>
<path d="m317.17 406.38 77.832 179.92" clip-path="url(#a)"/>
<path d="m474.95 765.29v176.53" clip-path="url(#a)"/>
<path d="m487.4 225.84 31.364 539.45" clip-path="url(#a)"/>
<path d="m487.4 225.84 195.56 180.54" clip-path="url(#a)"/>
<path d="m487.4 225.84-226.92 539.45" clip-path="url(#a)" stroke-dasharray="3.7,1.6"/>
<path d="m1109.1 406.38-124.53 179.92" clip-path="url(#a)"/>
<path d="m1109.1 406.38 9.2246 179.92" clip-path="url(#a)"/>
<path d="m1109.1 406.38 115.31 179.92" clip-path="url(#a)"/>
<path d="m1298.2 765.29v176.53" clip-path="url(#a)"/>
<path d="m1595 225.84-220.7 539.45" clip-path="url(#a)"/>
<path d="m1595 225.84-101.93 180.54" clip-path="url(#a)"/>
<path d="m1595 225.84 21.447 539.45" clip-path="url(#a)"/>
<path d="m1595 225.84 106.77 539.45" clip-path="url(#a)"/>
<path d="m1595 225.84 194.41 539.45" clip-path="url(#a)"/>
<path d="m1374.3 765.29v176.53" clip-path="url(#a)"/>
<path d="m1493.1 406.38-40.358 179.92" clip-path="url(#a)"/>
<path d="m1493.1 406.38 40.358 358.91" clip-path="url(#a)"/>
<path d="m1616.5 765.29v176.53" clip-path="url(#a)"/>
<path d="m1701.8 765.29v176.53" clip-path="url(#a)"/>
<path d="m1452.8 586.3v178.99" clip-path="url(#a)"/>
<path d="m1533.5 765.29v176.53" clip-path="url(#a)"/>
<path d="m1452.8 765.29v176.53" clip-path="url(#a)"/>
<path d="m984.61 586.3-32.286 178.99" clip-path="url(#a)"/>
<path d="m984.61 586.3 32.286 178.99" clip-path="url(#a)"/>
<path d="m1118.4 586.3-34.592 178.99" clip-path="url(#a)"/>
<path d="m1118.4 586.3 34.592 178.99" clip-path="url(#a)"/>
<path d="m1224.4 586.3v178.99" clip-path="url(#a)"/>
<path d="m1224.4 765.29v176.53" clip-path="url(#a)"/>
<path d="m1083.8 765.29v176.53" clip-path="url(#a)"/>
<path d="m1153 765.29v176.53" clip-path="url(#a)"/>
<path d="m952.32 765.29v176.53" clip-path="url(#a)"/>
<path d="m1016.9 765.29v176.53" clip-path="url(#a)"/>
<path d="m518.77 765.29v176.53" clip-path="url(#a)"/>
<path d="m682.97 406.38-118.07 358.91" clip-path="url(#a)"/>
<path d="m682.97 406.38-69.646 358.91" clip-path="url(#a)"/>
<path d="m682.97 406.38 64.111 179.92" clip-path="url(#a)"/>
<path d="m682.97 406.38 89.478 358.91" clip-path="url(#a)"/>
<path d="m682.97 406.38 34.131 358.91" clip-path="url(#a)"/>
<path d="m564.89 765.29v176.53" clip-path="url(#a)"/>
<path d="m613.32 765.29v176.53" clip-path="url(#a)"/>
<path d="m747.08 586.3-83.021 178.99" clip-path="url(#a)"/>
<path d="m747.08 586.3 83.021 178.99" clip-path="url(#a)"/>
<path d="m772.44 765.29v176.53" clip-path="url(#a)"/>
<path d="m664.05 765.29v176.53" clip-path="url(#a)"/>
<path d="m830.1 765.29v176.53" clip-path="url(#a)"/>
<path d="m260.48 765.29v176.53" clip-path="url(#a)"/>
<path d="m290.46 765.29v176.53" clip-path="url(#a)"/>
<path d="m322.75 765.29v176.53" clip-path="url(#a)"/>
<path d="m395 586.3-37.667 178.99" clip-path="url(#a)"/>
<path d="m395 586.3-0.76872 178.99" clip-path="url(#a)"/>
<path d="m395 586.3 38.436 178.99" clip-path="url(#a)"/>
<path d="m357.34 765.29v176.53" clip-path="url(#a)"/>
<path d="m394.24 765.29v176.53" clip-path="url(#a)"/>
<path d="m433.44 765.29v176.53" clip-path="url(#a)"/>
<path d="m92.899 586.3-7.6872 178.99" clip-path="url(#a)"/>
<path d="m92.899 586.3-0.76872 178.99" clip-path="url(#a)"/>
<path d="m92.899 586.3 8.4559 178.99" clip-path="url(#a)"/>
<path d="m134.79 765.29-8.0715 176.53" clip-path="url(#a)"/>
<path d="m134.79 765.29 8.0715 176.53" clip-path="url(#a)"/>
<path d="m182.84 586.3-21.524 178.99" clip-path="url(#a)"/>
<path d="m182.84 586.3-0.76872 178.99" clip-path="url(#a)"/>
<path d="m182.84 586.3 22.293 178.99" clip-path="url(#a)"/>
<path d="m161.31 765.29v176.53" clip-path="url(#a)"/>
<path d="m182.07 765.29v176.53" clip-path="url(#a)"/>
<path d="m205.13 765.29v176.53" clip-path="url(#a)"/>
<path d="m85.212 765.29v176.53" clip-path="url(#a)"/>
<path d="m92.131 765.29v176.53" clip-path="url(#a)"/>
<path d="m101.36 765.29v176.53" clip-path="url(#a)"/>
<path d="m112.89 765.29v176.53" clip-path="url(#a)"/>
<path d="m232.81 765.29v176.53" clip-path="url(#a)"/>
<path d="m717.1 765.29v176.53" clip-path="url(#a)"/>
<path d="m890.06 765.29v176.53" clip-path="url(#a)"/>
<path d="m1789.5 765.29v176.53" clip-path="url(#a)"/>
</g>
<path d="m429.2 232.54 5.1423-3.1228q2.0514-1.2457 0.80562-3.2971l-4.0188-6.6178q-1.2457-2.0514-3.2971-0.80562l-5.1423 3.1228q-2.0514 1.2457-0.80562 3.2971l4.0188 6.6178q1.2457 2.0514 3.2971 0.80562z" clip-path="url(#a)" fill="#fff" stroke="#fff"/>
<g clip-path="url(#a)">
<g transform="translate(427.1 229.06) rotate(-31.269) scale(.08 -.08)">
<defs>
<path id="ae" d="m9.8125 72.906h9.8594v-29.891h35.844v29.891h9.8594v-72.906h-9.8594v34.719h-35.844v-34.719h-9.8594z"/>
</defs>
<use xlink:href="#ae"/>
</g>
</g>
<path d="m523.58 232.3 4.5077-3.9844q1.7982-1.5895 0.20876-3.3877l-5.1277-5.8011q-1.5895-1.7982-3.3877-0.20876l-4.5077 3.9844q-1.7982 1.5895-0.20876 3.3877l5.1277 5.8011q1.5895 1.7982 3.3877 0.20876z" clip-path="url(#a)" fill="#fff" stroke="#fff"/>
<g clip-path="url(#a)">
<g transform="translate(520.89 229.26) rotate(-41.474) scale(.08 -.08)">
<use xlink:href="#ae"/>
</g>
</g>
<path d="m605.76 409.24 1.4678-4.2089q0.79027-2.2662-1.4759-3.0564l-7.3107-2.5494q-2.2662-0.79027-3.0564 1.4759l-1.4678 4.2089q-0.79027 2.2662 1.4759 3.0564l7.3107 2.5494q2.2662 0.79027 3.0564-1.4759z" clip-path="url(#a)" fill="#fff" stroke="#fff"/>
<g clip-path="url(#a)">
<g transform="translate(601.92 407.9) rotate(-70.775) scale(.08 -.08)">
<defs>
<path id="am" d="m9.8125 72.906h9.8594v-64.609h35.5v-8.2969h-45.359z"/>
</defs>
<use xlink:href="#am"/>
</g>
</g>
<path d="m608.19 142.16 4.7946-3.6342q1.9126-1.4498 0.46289-3.3624l-4.677-6.1703q-1.4498-1.9126-3.3624-0.46289l-4.7946 3.6342q-1.9126 1.4498-0.46289 3.3624l4.677 6.1703q1.4498 1.9126 3.3624 0.46289z" clip-path="url(#a)" fill="#fff" stroke="#fff"/>
<g clip-path="url(#a)">
<g transform="translate(605.73 138.92) rotate(-37.162) scale(.08 -.08)">
<use xlink:href="#ae"/>
</g>
</g>
<path d="m911.17 228.11 4.3747 4.13q1.7452 1.6475 3.3927-0.097636l5.315-5.63q1.6475-1.7452-0.097635-3.3927l-4.3747-4.13q-1.7452-1.6475-3.3927 0.097635l-5.315 5.63q-1.6475 1.7452 0.097635 3.3927z" clip-path="url(#a)" fill="#fff" stroke="#fff"/>
<g clip-path="url(#a)">
<g transform="translate(913.96 225.15) rotate(43.352) scale(.08 -.08)">
<use xlink:href="#ae"/>
</g>
</g>
<path d="m1005.9 407.22 2.7719 3.4908q1.4924 1.8795 3.372 0.38711l6.0635-4.8146q1.8795-1.4924 0.38711-3.372l-2.7719-3.4908q-1.4924-1.8795-3.372-0.38711l-6.0635 4.8146q-1.8795 1.4924-0.38711 3.372z" clip-path="url(#a)" fill="#fff" stroke="#fff"/>
<g clip-path="url(#a)">
<g transform="translate(1009.1 404.7) rotate(51.549) scale(.08 -.08)">
<use xlink:href="#am"/>
</g>
</g>
<path d="m1156.4 140.87 5.8898 1.2269q2.3496 0.48944 2.839-1.8601l1.579-7.5798q0.48944-2.3496-1.8601-2.839l-5.8898-1.2269q-2.3496-0.48944-2.839 1.8601l-1.579 7.5798q-0.48944 2.3496 1.8601 2.839z" clip-path="url(#a)" fill="#fff" stroke="#fff"/>
<g clip-path="url(#a)">
<g transform="translate(1157.2 136.89) rotate(11.767) scale(.08 -.08)">
<use xlink:href="#ae"/>
</g>
</g>
<path d="m483.02 411.03 3.3083-4.8308q1.3561-1.9802-0.62408-3.3362l-6.3881-4.3748q-1.9802-1.3561-3.3362 0.62408l-3.3083 4.8308q-1.3561 1.9802 0.62408 3.3362l6.3881 4.3748q1.9802 1.3561 3.3362-0.62408z" clip-path="url(#a)" fill="#fff" stroke="#fff"/>
<g clip-path="url(#a)">
<g transform="translate(479.66 408.73) rotate(-55.595) scale(.08 -.08)">
<defs>
<path id="ab" d="m8.6875 72.906h9.9219v-44.297q0-11.719 4.2344-16.875 4.25-5.1406 13.781-5.1406 9.4688 0 13.719 5.1406 4.25 5.1562 4.25 16.875v44.297h9.9062v-45.516q0-14.25-7.0625-21.531-7.0469-7.2812-20.812-7.2812-13.828 0-20.891 7.2812-7.0469 7.2812-7.0469 21.531z"/>
</defs>
<use xlink:href="#ab"/>
</g>
</g>
<path d="m801.36 403.6 1.2986 5.7092q0.53231 2.3402 2.8725 1.8079l7.5497-1.7172q2.3402-0.53231 1.8079-2.8725l-1.2986-5.7092q-0.53231-2.3402-2.8725-1.8079l-7.5497 1.7172q-2.3402 0.53231-1.8079 2.8725z" clip-path="url(#a)" fill="#fff" stroke="#fff"/>
<g clip-path="url(#a)">
<g transform="translate(805.32 402.7) rotate(77.186) scale(.08 -.08)">
<use xlink:href="#ab"/>
</g>
</g>
<path d="m162.3 496.28 2.1433 5.0353q0.93994 2.2083 3.1482 1.2683l7.124-3.0323q2.2083-0.93994 1.2683-3.1482l-2.1433-5.0353q-0.93994-2.2083-3.1482-1.2683l-7.124 3.0323q-2.2083 0.93994-1.2683 3.1482z" clip-path="url(#a)" fill="#fff" stroke="#fff"/>
<g clip-path="url(#a)">
<g transform="translate(166.04 494.69) rotate(66.943) scale(.08 -.08)">
<defs>
<path id="o" d="m34.188 63.188-13.391-36.281h26.812zm-5.5781 9.7188h11.188l27.781-72.906h-10.25l-6.6406 18.703h-32.859l-6.6406-18.703h-10.406z"/>
</defs>
<use xlink:href="#o"/>
</g>
</g>
<path d="m116.66 504.69 2.9653-14.057q0.49538-2.3483-1.8529-2.8437l-7.8277-1.6513q-2.3483-0.49538-2.8437 1.8529l-2.9653 14.057q-0.49538 2.3483 1.8529 2.8437l7.8277 1.6513q2.3483 0.49538 2.8437-1.8529z" clip-path="url(#a)" fill="#fff" stroke="#fff"/>
<g clip-path="url(#a)">
<g transform="translate(112.46 503.81) rotate(-78.088) scale(.08 -.08)">
<defs>
<path id="ar" d="m21 76.422v-100h-8.2969v100z"/>
<path id="ap" d="m59.516 10.406v19.578h-16.109v8.1094h25.875v-31.312q-5.7031-4.0469-12.594-6.125-6.875-2.0781-14.688-2.0781-17.094 0-26.75 9.9844-9.6406 10-9.6406 27.812 0 17.875 9.6406 27.859 9.6562 9.9844 26.75 9.9844 7.125 0 13.547-1.7656 6.4219-1.75 11.844-5.1719v-10.5q-5.4688 4.6406-11.625 6.9844t-12.938 2.3438q-13.391 0-20.109-7.4688-6.7031-7.4688-6.7031-22.266 0-14.75 6.7031-22.219 6.7188-7.4688 20.109-7.4688 5.2188 0 9.3125 0.90625 4.1094 0.90625 7.375 2.8125z"/>
</defs>
<use xlink:href="#o"/>
<use x="68.408203" xlink:href="#ar"/>
<use x="102.099609" xlink:href="#ap"/>
</g>
</g>
<path d="m126.53 583.49 0.052946 4.8235q0.026342 2.3999 2.4262 2.3735l7.742-0.084983q2.3999-0.026342 2.3735-2.4262l-0.052946-4.8235q-0.026342-2.3999-2.4262-2.3735l-7.742 0.084983q-2.3999 0.026342-2.3735 2.4262z" clip-path="url(#a)" fill="#fff" stroke="#fff"/>
<g clip-path="url(#a)">
<g transform="translate(130.59 583.45) rotate(89.371) scale(.08 -.08)">
<defs>
<path id="ac" d="m19.672 64.797v-27.391h12.406q6.8906 0 10.641 3.5625 3.7656 3.5625 3.7656 10.156 0 6.5469-3.7656 10.109-3.75 3.5625-10.641 3.5625zm-9.8594 8.1094h22.266q12.266 0 18.531-5.5469 6.2812-5.5469 6.2812-16.234 0-10.797-6.2812-16.312-6.2656-5.5156-18.531-5.5156h-12.406v-29.297h-9.8594z"/>
</defs>
<use xlink:href="#ac"/>
</g>
</g>
<path d="m150.06 495.45 1.519 5.2575q0.66617 2.3057 2.9719 1.6395l7.4383-2.1491q2.3057-0.66617 1.6395-2.9719l-1.519-5.2575q-0.66617-2.3057-2.9719-1.6395l-7.4383 2.1491q-2.3057 0.66617-1.6395 2.9719z" clip-path="url(#a)" fill="#fff" stroke="#fff"/>
<g clip-path="url(#a)">
<g transform="translate(153.97 494.32) rotate(73.885) scale(.08 -.08)">
<use xlink:href="#o"/>
</g>
</g>
<path d="m127.99 589.07 0.29276-5.8477q0.12-2.397-2.277-2.517l-7.7328-0.38714q-2.397-0.12-2.517 2.277l-0.29276 5.8477q-0.12001 2.397 2.277 2.517l7.7328 0.38714q2.397 0.12 2.517-2.277z" clip-path="url(#a)" fill="#fff" stroke="#fff"/>
<g clip-path="url(#a)">
<g transform="translate(123.93 588.87) rotate(-87.134) scale(.08 -.08)">
<use xlink:href="#ab"/>
</g>
</g>
<path d="m294.59 589.51 0.85384-5.4055q0.37446-2.3706-1.9962-2.7451l-7.6477-1.208q-2.3706-0.37446-2.7451 1.9962l-0.85384 5.4055q-0.37446 2.3706 1.9962 2.7451l7.6477 1.208q2.3706 0.37446 2.7451-1.9962z" clip-path="url(#a)" fill="#fff" stroke="#fff"/>
<g clip-path="url(#a)">
<g transform="translate(290.58 588.88) rotate(-81.024) scale(.08 -.08)">
<use xlink:href="#o"/>
</g>
</g>
<path d="m309.9 588.59 0.34152-4.5886q0.17813-2.3934-2.2152-2.5715l-7.7211-0.57467q-2.3934-0.17813-2.5715 2.2152l-0.34152 4.5886q-0.17813 2.3934 2.2152 2.5715l7.7211 0.57467q2.3934 0.17813 2.5715-2.2152z" clip-path="url(#a)" fill="#fff" stroke="#fff"/>
<g clip-path="url(#a)">
<g transform="translate(305.85 588.29) rotate(-85.743) scale(.08 -.08)">
<defs>
<path id="x" d="m9.8125 72.906h41.891v-8.3125h-32.031v-21.484h28.906v-8.2969h-28.906v-34.812h-9.8594z"/>
</defs>
<use xlink:href="#x"/>
</g>
</g>
<path d="m313.65 583.39 0.078854 5.0781q0.037263 2.3997 2.437 2.3624l7.7416-0.12021q2.3997-0.037263 2.3624-2.437l-0.078854-5.0781q-0.037263-2.3997-2.437-2.3624l-7.7416 0.12021q-2.3997 0.037263-2.3624 2.437z" clip-path="url(#a)" fill="#fff" stroke="#fff"/>
<g clip-path="url(#a)">
<g transform="translate(317.71 583.33) rotate(89.11) scale(.08 -.08)">
<defs>
<path id="v" d="m53.516 70.516v-9.625q-5.6094 2.6875-10.594 4-4.9844 1.3281-9.625 1.3281-8.0469 0-12.422-3.125t-4.375-8.8906q0-4.8438 2.9062-7.3125 2.9062-2.4531 11.016-3.9688l5.9531-1.2188q11.031-2.1094 16.281-7.4062t5.25-14.172q0-10.609-7.1094-16.078-7.0938-5.4688-20.812-5.4688-5.1719 0-11.016 1.1719-5.8281 1.1719-12.078 3.4688v10.156q6-3.3594 11.766-5.0781 5.7656-1.7031 11.328-1.7031 8.4375 0 13.031 3.3125 4.5938 3.3281 4.5938 9.4844 0 5.3594-3.2969 8.3906t-10.812 4.5469l-6.0156 1.1719q-11.031 2.1875-15.969 6.875-4.9219 4.6875-4.9219 13.047 0 9.6719 6.8125 15.234t18.766 5.5625q5.1406 0 10.453-0.9375 5.3281-0.92188 10.891-2.7656z"/>
</defs>
<use xlink:href="#v"/>
</g>
</g>
<path d="m349.25 496.32 2.1727 5.0227q0.95287 2.2027 3.1556 1.2499l7.1061-3.074q2.2027-0.95287 1.2499-3.1556l-2.1727-5.0227q-0.95287-2.2027-3.1556-1.2499l-7.1061 3.074q-2.2027 0.95287-1.2499 3.1556z" clip-path="url(#a)" fill="#fff" stroke="#fff"/>
<g clip-path="url(#a)">
<g transform="translate(352.98 494.71) rotate(66.607) scale(.08 -.08)">
<use xlink:href="#o"/>
</g>
</g>
<path d="m468.68 836.65v33.808q0 2.4 2.4 2.4h7.7425q2.4 0 2.4-2.4v-33.808q0-2.4-2.4-2.4h-7.7425q-2.4 0-2.4 2.4z" clip-path="url(#a)" fill="#fff" stroke="#fff"/>
<g clip-path="url(#a)">
<g transform="translate(472.74 836.65) rotate(90) scale(.08 -.08)">
<defs>
<path id="l" d="m-0.29688 72.906h61.672v-8.3125h-25.875v-64.594h-9.9062v64.594h-25.891z"/>
<path id="f" d="m56.203 29.594v-4.3906h-41.312q0.59375-9.2812 5.5938-14.141t13.938-4.8594q5.1719 0 10.031 1.2656t9.6562 3.8125v-8.5q-4.8438-2.0469-9.9219-3.125t-10.297-1.0781q-13.094 0-20.734 7.6094-7.6406 7.625-7.6406 20.625 0 13.422 7.25 21.297 7.25 7.8906 19.562 7.8906 11.031 0 17.453-7.1094 6.4219-7.0938 6.4219-19.297zm-8.9844 2.6406q-0.09375 7.3594-4.125 11.75-4.0312 4.4062-10.672 4.4062-7.5156 0-12.031-4.25t-5.2031-11.969z"/>
<path id="e" d="m41.109 46.297q-1.5156 0.875-3.2969 1.2812-1.7812 0.42188-3.9219 0.42188-7.625 0-11.703-4.9531t-4.0781-14.234v-28.812h-9.0312v54.688h9.0312v-8.5q2.8438 4.9844 7.375 7.3906 4.5469 2.4219 11.047 2.4219 0.92188 0 2.0469-0.125 1.125-0.10938 2.4844-0.35938z"/>
<path id="k" d="m52 44.188q3.375 6.0625 8.0625 8.9375t11.031 2.875q8.5469 0 13.188-5.9844 4.6406-5.9688 4.6406-17v-33.016h-9.0312v32.719q0 7.8594-2.7969 11.656-2.7812 3.8125-8.4844 3.8125-6.9844 0-11.047-4.6406-4.0469-4.625-4.0469-12.641v-30.906h-9.0312v32.719q0 7.9062-2.7812 11.688t-8.5938 3.7812q-6.8906 0-10.953-4.6562-4.0469-4.6562-4.0469-12.625v-30.906h-9.0312v54.688h9.0312v-8.5q3.0781 5.0312 7.375 7.4219t10.203 2.3906q5.9688 0 10.141-3.0312 4.1719-3.0156 6.1719-8.7812z"/>
<path id="h" d="m9.4219 54.688h8.9844v-54.688h-8.9844zm0 21.297h8.9844v-11.391h-8.9844z"/>
<path id="g" d="m54.891 33.016v-33.016h-8.9844v32.719q0 7.7656-3.0312 11.609-3.0312 3.8594-9.0781 3.8594-7.2812 0-11.484-4.6406-4.2031-4.625-4.2031-12.641v-30.906h-9.0312v54.688h9.0312v-8.5q3.2344 4.9375 7.5938 7.375 4.375 2.4375 10.094 2.4375 9.4219 0 14.25-5.8281 4.8438-5.8281 4.8438-17.156z"/>
<path id="i" d="m34.281 27.484q-10.891 0-15.094-2.4844t-4.2031-8.5q0-4.7812 3.1562-7.5938 3.1562-2.7969 8.5625-2.7969 7.4844 0 12 5.2969t4.5156 14.078v2zm17.922 3.7188v-31.203h-8.9844v8.2969q-3.0781-4.9688-7.6719-7.3438t-11.234-2.375q-8.3906 0-13.359 4.7188-4.9531 4.7188-4.9531 12.625 0 9.2188 6.1719 13.906 6.1875 4.6875 18.438 4.6875h12.609v0.89062q0 6.2031-4.0781 9.5938t-11.453 3.3906q-4.6875 0-9.1406-1.125-4.4375-1.125-8.5312-3.375v8.3125q4.9219 1.9062 9.5625 2.8438 4.6406 0.95312 9.0312 0.95312 11.875 0 17.734-6.1562 5.8594-6.1406 5.8594-18.641z"/>
<path id="j" d="m9.4219 75.984h8.9844v-75.984h-8.9844z"/>
</defs>
<use xlink:href="#l"/>
<use x="44.083984" xlink:href="#f"/>
<use x="105.607422" xlink:href="#e"/>
<use x="144.970703" xlink:href="#k"/>
<use x="242.382812" xlink:href="#h"/>
<use x="270.166016" xlink:href="#g"/>
<use x="333.544922" xlink:href="#i"/>
<use x="394.824219" xlink:href="#j"/>
</g>
</g>
<path d="m496.69 493.52 0.27998 4.8156q0.1393 2.396 2.5353 2.2567l7.7294-0.44939q2.396-0.1393 2.2567-2.5353l-0.27998-4.8156q-0.1393-2.396-2.5353-2.2567l-7.7294 0.44939q-2.396 0.1393-2.2567 2.5353z" clip-path="url(#a)" fill="#fff" stroke="#fff"/>
<g clip-path="url(#a)">
<g transform="translate(500.74 493.29) rotate(86.673) scale(.08 -.08)">
<use xlink:href="#ac"/>
</g>
</g>
<path d="m578.92 318.86 4.021 3.7121q1.7634 1.628 3.3914-0.13548l5.2519-5.6889q1.628-1.7634-0.13548-3.3914l-4.021-3.7121q-1.7634-1.628-3.3914 0.13548l-5.2519 5.6889q-1.628 1.7634 0.13548 3.3914z" clip-path="url(#a)" fill="#fff" stroke="#fff"/>
<g clip-path="url(#a)">
<g transform="translate(581.68 315.88) rotate(42.712) scale(.08 -.08)">
<use xlink:href="#o"/>
</g>
</g>
<path d="m378.66 500.52 2.122-5.0444q0.9306-2.2122-1.2816-3.1428l-7.1368-3.0022q-2.2122-0.9306-3.1428 1.2816l-2.122 5.0444q-0.9306 2.2122 1.2816 3.1428l7.1368 3.0022q2.2122 0.9306 3.1428-1.2816z" clip-path="url(#a)" fill="#fff" stroke="#fff"/>
<g clip-path="url(#a)">
<g transform="translate(374.92 498.94) rotate(-67.185) scale(.08 -.08)">
<use xlink:href="#o"/>
</g>
</g>
<path d="m1050.3 502.44 3.5057-5.0651q1.3659-1.9734-0.60755-3.3393l-6.3663-4.4064q-1.9734-1.3659-3.3393 0.60755l-3.5057 5.0651q-1.3659 1.9734 0.60755 3.3393l6.3663 4.4064q1.9734 1.3659 3.3393-0.60755z" clip-path="url(#a)" fill="#fff" stroke="#fff"/>
<g clip-path="url(#a)">
<g transform="translate(1046.9 500.13) rotate(-55.312) scale(.08 -.08)">
<defs>
<path id="ao" d="m19.672 64.797v-56.688h11.922q15.094 0 22.094 6.8281 7 6.8438 7 21.594 0 14.641-7 21.453t-22.094 6.8125zm-9.8594 8.1094h20.266q21.188 0 31.094-8.8125 9.9219-8.8125 9.9219-27.562 0-18.859-9.9688-27.703-9.9531-8.8281-31.047-8.8281h-20.266z"/>
</defs>
<use xlink:href="#ao"/>
</g>
</g>
<path d="m1107.4 494.13 0.26004 5.0721q0.12288 2.3969 2.5197 2.274l7.7323-0.39643q2.3969-0.12288 2.274-2.5197l-0.26004-5.0721q-0.12288-2.3969-2.5197-2.274l-7.7323 0.39643q-2.3969 0.12288-2.274 2.5197z" clip-path="url(#a)" fill="#fff" stroke="#fff"/>
<g clip-path="url(#a)">
<g transform="translate(1111.4 493.92) rotate(87.065) scale(.08 -.08)">
<use xlink:href="#v"/>
</g>
</g>
<path d="m1160 497.42 2.9528 4.6075q1.295 2.0207 3.3156 0.72569l6.5187-4.1776q2.0207-1.295 0.72569-3.3156l-2.9528-4.6075q-1.295-2.0207-3.3156-0.72569l-6.5187 4.1776q-2.0207 1.295-0.72569 3.3156z" clip-path="url(#a)" fill="#fff" stroke="#fff"/>
<g clip-path="url(#a)">
<g transform="translate(1163.5 495.23) rotate(57.346) scale(.08 -.08)">
<use xlink:href="#o"/>
</g>
</g>
<path d="m1292 836.65v33.808q0 2.4 2.4 2.4h7.7425q2.4 0 2.4-2.4v-33.808q0-2.4-2.4-2.4h-7.7425q-2.4 0-2.4 2.4z" clip-path="url(#a)" fill="#fff" stroke="#fff"/>
<g clip-path="url(#a)">
<g transform="translate(1296 836.65) rotate(90) scale(.08 -.08)">
<use xlink:href="#l"/>
<use x="44.083984" xlink:href="#f"/>
<use x="105.607422" xlink:href="#e"/>
<use x="144.970703" xlink:href="#k"/>
<use x="242.382812" xlink:href="#h"/>
<use x="270.166016" xlink:href="#g"/>
<use x="333.544922" xlink:href="#i"/>
<use x="394.824219" xlink:href="#j"/>
</g>
</g>
<path d="m1489.5 500.29 1.9231-4.7006q0.90877-2.2213-1.3125-3.1301l-7.166-2.9317q-2.2213-0.90877-3.1301 1.3125l-1.9231 4.7006q-0.90877 2.2213 1.3125 3.1301l7.166 2.9317q2.2213 0.90877 3.1301-1.3125z" clip-path="url(#a)" fill="#fff" stroke="#fff"/>
<g clip-path="url(#a)">
<g transform="translate(1485.8 498.75) rotate(-67.75) scale(.08 -.08)">
<use xlink:href="#v"/>
</g>
</g>
<path d="m1548.2 321.58 2.6906-4.7654q1.18-2.0899-0.90993-3.2699l-6.7421-3.8066q-2.0899-1.18-3.2699 0.90994l-2.6906 4.7654q-1.18 2.0899 0.90994 3.2699l6.7421 3.8066q2.0899 1.18 3.2699-0.90993z" clip-path="url(#a)" fill="#fff" stroke="#fff"/>
<g clip-path="url(#a)">
<g transform="translate(1544.7 319.58) rotate(-60.551) scale(.08 -.08)">
<use xlink:href="#o"/>
</g>
</g>
<path d="m1599.4 493.52 0.18279 4.5976q0.095344 2.3981 2.4934 2.3028l7.7364-0.30758q2.3981-0.095344 2.3028-2.4934l-0.18279-4.5976q-0.095343-2.3981-2.4934-2.3028l-7.7364 0.30758q-2.3981 0.095343-2.3028 2.4934z" clip-path="url(#a)" fill="#fff" stroke="#fff"/>
<g clip-path="url(#a)">
<g transform="translate(1603.5 493.35) rotate(87.723) scale(.08 -.08)">
<use xlink:href="#x"/>
</g>
</g>
<path d="m1641.8 494.53 0.89341 4.5137q0.466 2.3543 2.8203 1.8883l7.5951-1.5033q2.3543-0.466 1.8883-2.8203l-0.89341-4.5137q-0.466-2.3543-2.8203-1.8883l-7.5951 1.5033q-2.3543 0.466-1.8883 2.8203z" clip-path="url(#a)" fill="#fff" stroke="#fff"/>
<g clip-path="url(#a)">
<g transform="translate(1645.8 493.74) rotate(78.804) scale(.08 -.08)">
<use xlink:href="#x"/>
</g>
</g>
<path d="m1685.4 494.94 1.9851 5.5082q0.8137 2.2579 3.0715 1.4442l7.2839-2.625q2.2579-0.8137 1.4442-3.0715l-1.9851-5.5082q-0.8137-2.2579-3.0715-1.4442l-7.2839 2.625q-2.2579 0.8137-1.4442 3.0715z" clip-path="url(#a)" fill="#fff" stroke="#fff"/>
<g clip-path="url(#a)">
<g transform="translate(1689.2 493.56) rotate(70.182) scale(.08 -.08)">
<use xlink:href="#ab"/>
</g>
</g>
<path d="m1368.1 836.65v33.808q0 2.4 2.4 2.4h7.7425q2.4 0 2.4-2.4v-33.808q0-2.4-2.4-2.4h-7.7425q-2.4 0-2.4 2.4z" clip-path="url(#a)" fill="#fff" stroke="#fff"/>
<g clip-path="url(#a)">
<g transform="translate(1372.1 836.65) rotate(90) scale(.08 -.08)">
<use xlink:href="#l"/>
<use x="44.083984" xlink:href="#f"/>
<use x="105.607422" xlink:href="#e"/>
<use x="144.970703" xlink:href="#k"/>
<use x="242.382812" xlink:href="#h"/>
<use x="270.166016" xlink:href="#g"/>
<use x="333.544922" xlink:href="#i"/>
<use x="394.824219" xlink:href="#j"/>
</g>
</g>
<path d="m1478.5 500.18 1.1064-4.9324q0.52528-2.3418-1.8165-2.8671l-7.5548-1.6946q-2.3418-0.52528-2.8671 1.8165l-1.1064 4.9324q-0.52528 2.3418 1.8165 2.8671l7.5548 1.6946q2.3418 0.52528 2.8671-1.8165z" clip-path="url(#a)" fill="#fff" stroke="#fff"/>
<g clip-path="url(#a)">
<g transform="translate(1474.5 499.29) rotate(-77.358) scale(.08 -.08)">
<defs>
<path id="an" d="m9.8125 72.906h46.094v-8.3125h-36.234v-21.578h34.719v-8.2969h-34.719v-26.422h37.109v-8.2969h-46.969z"/>
</defs>
<use xlink:href="#an"/>
</g>
</g>
<path d="m1506.7 583.76 0.62421 5.5513q0.26818 2.385 2.6531 2.1168l7.694-0.86515q2.385-0.26818 2.1168-2.6531l-0.62421-5.5513q-0.26818-2.385-2.6531-2.1168l-7.694 0.86515q-2.385 0.26818-2.1168 2.6531z" clip-path="url(#a)" fill="#fff" stroke="#fff"/>
<g clip-path="url(#a)">
<g transform="translate(1510.8 583.3) rotate(83.584) scale(.08 -.08)">
<defs>
<path id="y" d="m64.406 67.281v-10.391q-4.9844 4.6406-10.625 6.9219-5.6406 2.2969-11.984 2.2969-12.5 0-19.141-7.6406t-6.6406-22.094q0-14.406 6.6406-22.047t19.141-7.6406q6.3438 0 11.984 2.2969t10.625 6.9375v-10.312q-5.1719-3.5156-10.969-5.2812-5.7812-1.75-12.219-1.75-16.562 0-26.094 10.125-9.5156 10.141-9.5156 27.672 0 17.578 9.5156 27.703 9.5312 10.141 26.094 10.141 6.5312 0 12.312-1.7344 5.7969-1.7344 10.875-5.2031z"/>
</defs>
<use xlink:href="#y"/>
</g>
</g>
<path d="m1610.2 836.65v33.808q0 2.4 2.4 2.4h7.7425q2.4 0 2.4-2.4v-33.808q0-2.4-2.4-2.4h-7.7425q-2.4 0-2.4 2.4z" clip-path="url(#a)" fill="#fff" stroke="#fff"/>
<g clip-path="url(#a)">
<g transform="translate(1614.3 836.65) rotate(90) scale(.08 -.08)">
<use xlink:href="#l"/>
<use x="44.083984" xlink:href="#f"/>
<use x="105.607422" xlink:href="#e"/>
<use x="144.970703" xlink:href="#k"/>
<use x="242.382812" xlink:href="#h"/>
<use x="270.166016" xlink:href="#g"/>
<use x="333.544922" xlink:href="#i"/>
<use x="394.824219" xlink:href="#j"/>
</g>
</g>
<path d="m1695.5 836.65v33.808q0 2.4 2.4 2.4h7.7425q2.4 0 2.4-2.4v-33.808q0-2.4-2.4-2.4h-7.7425q-2.4 0-2.4 2.4z" clip-path="url(#a)" fill="#fff" stroke="#fff"/>
<g clip-path="url(#a)">
<g transform="translate(1699.6 836.65) rotate(90) scale(.08 -.08)">
<use xlink:href="#l"/>
<use x="44.083984" xlink:href="#f"/>
<use x="105.607422" xlink:href="#e"/>
<use x="144.970703" xlink:href="#k"/>
<use x="242.382812" xlink:href="#h"/>
<use x="270.166016" xlink:href="#g"/>
<use x="333.544922" xlink:href="#i"/>
<use x="394.824219" xlink:href="#j"/>
</g>
</g>
<path d="m1446.5 673.38v4.8238q0 2.4 2.4 2.4h7.7425q2.4 0 2.4-2.4v-4.8238q0-2.4-2.4-2.4h-7.7425q-2.4 0-2.4 2.4z" clip-path="url(#a)" fill="#fff" stroke="#fff"/>
<g clip-path="url(#a)">
<g transform="translate(1450.5 673.38) rotate(90) scale(.08 -.08)">
<use xlink:href="#ac"/>
</g>
</g>
<path d="m1527.2 836.65v33.808q0 2.4 2.4 2.4h7.7425q2.4 0 2.4-2.4v-33.808q0-2.4-2.4-2.4h-7.7425q-2.4 0-2.4 2.4z" clip-path="url(#a)" fill="#fff" stroke="#fff"/>
<g clip-path="url(#a)">
<g transform="translate(1531.3 836.65) rotate(90) scale(.08 -.08)">
<use xlink:href="#l"/>
<use x="44.083984" xlink:href="#f"/>
<use x="105.607422" xlink:href="#e"/>
<use x="144.970703" xlink:href="#k"/>
<use x="242.382812" xlink:href="#h"/>
<use x="270.166016" xlink:href="#g"/>
<use x="333.544922" xlink:href="#i"/>
<use x="394.824219" xlink:href="#j"/>
</g>
</g>
<path d="m1446.5 836.65v33.808q0 2.4 2.4 2.4h7.7425q2.4 0 2.4-2.4v-33.808q0-2.4-2.4-2.4h-7.7425q-2.4 0-2.4 2.4z" clip-path="url(#a)" fill="#fff" stroke="#fff"/>
<g clip-path="url(#a)">
<g transform="translate(1450.5 836.65) rotate(90) scale(.08 -.08)">
<use xlink:href="#l"/>
<use x="44.083984" xlink:href="#f"/>
<use x="105.607422" xlink:href="#e"/>
<use x="144.970703" xlink:href="#k"/>
<use x="242.382812" xlink:href="#h"/>
<use x="270.166016" xlink:href="#g"/>
<use x="333.544922" xlink:href="#i"/>
<use x="394.824219" xlink:href="#j"/>
</g>
</g>
<path d="m974.19 679.4 0.89736-4.9747q0.42604-2.3619-1.9358-2.7879l-7.6195-1.3744q-2.3619-0.42604-2.7879 1.9358l-0.89736 4.9747q-0.42604 2.3619 1.9358 2.7879l7.6195 1.3744q2.3619 0.42604 2.7879-1.9358z" clip-path="url(#a)" fill="#fff" stroke="#fff"/>
<g clip-path="url(#a)">
<g transform="translate(970.19 678.67) rotate(-79.775) scale(.08 -.08)">
<use xlink:href="#an"/>
</g>
</g>
<path d="m994.08 674.16 0.99166 5.4975q0.42604 2.3619 2.7879 1.9358l7.6195-1.3744q2.3619-0.42604 1.9358-2.7879l-0.99166-5.4975q-0.42604-2.3619-2.7879-1.9358l-7.6195 1.3744q-2.3619 0.42604-1.9358 2.7879z" clip-path="url(#a)" fill="#fff" stroke="#fff"/>
<g clip-path="url(#a)">
<g transform="translate(998.08 673.44) rotate(79.775) scale(.08 -.08)">
<use xlink:href="#y"/>
</g>
</g>
<path d="m1106.8 679.24 0.87312-4.5177q0.45542-2.3564-1.901-2.8118l-7.6018-1.4692q-2.3564-0.45542-2.8118 1.901l-0.87312 4.5177q-0.45542 2.3564 1.901 2.8118l7.6018 1.4692q2.3564 0.45542 2.8118-1.901z" clip-path="url(#a)" fill="#fff" stroke="#fff"/>
<g clip-path="url(#a)">
<g transform="translate(1102.8 678.47) rotate(-79.061) scale(.08 -.08)">
<use xlink:href="#x"/>
</g>
</g>
<path d="m1129 674.24 1.06 5.4848q0.45542 2.3564 2.8118 1.901l7.6018-1.4692q2.3564-0.45542 1.901-2.8118l-1.06-5.4848q-0.45542-2.3564-2.8118-1.901l-7.6018 1.4692q-2.3564 0.45542-1.901 2.8118z" clip-path="url(#a)" fill="#fff" stroke="#fff"/>
<g clip-path="url(#a)">
<g transform="translate(1133 673.47) rotate(79.061) scale(.08 -.08)">
<use xlink:href="#y"/>
</g>
</g>
<path d="m1218 669.17v13.246q0 2.4 2.4 2.4h8q2.4 0 2.4-2.4v-13.246q0-2.4-2.4-2.4h-8q-2.4 0-2.4 2.4z" clip-path="url(#a)" fill="#fff" stroke="#fff"/>
<g clip-path="url(#a)">
<g transform="translate(1222.3 669.17) rotate(90) scale(.08 -.08)">
<use xlink:href="#v"/>
<use x="63.476562" xlink:href="#ar"/>
<use x="97.167969" xlink:href="#o"/>
</g>
</g>
<path d="m1218.2 836.65v33.808q0 2.4 2.4 2.4h7.7425q2.4 0 2.4-2.4v-33.808q0-2.4-2.4-2.4h-7.7425q-2.4 0-2.4 2.4z" clip-path="url(#a)" fill="#fff" stroke="#fff"/>
<g clip-path="url(#a)">
<g transform="translate(1222.2 836.65) rotate(90) scale(.08 -.08)">
<use xlink:href="#l"/>
<use x="44.083984" xlink:href="#f"/>
<use x="105.607422" xlink:href="#e"/>
<use x="144.970703" xlink:href="#k"/>
<use x="242.382812" xlink:href="#h"/>
<use x="270.166016" xlink:href="#g"/>
<use x="333.544922" xlink:href="#i"/>
<use x="394.824219" xlink:href="#j"/>
</g>
</g>
<path d="m1077.5 836.65v33.808q0 2.4 2.4 2.4h7.7425q2.4 0 2.4-2.4v-33.808q0-2.4-2.4-2.4h-7.7425q-2.4 0-2.4 2.4z" clip-path="url(#a)" fill="#fff" stroke="#fff"/>
<g clip-path="url(#a)">
<g transform="translate(1081.6 836.65) rotate(90) scale(.08 -.08)">
<use xlink:href="#l"/>
<use x="44.083984" xlink:href="#f"/>
<use x="105.607422" xlink:href="#e"/>
<use x="144.970703" xlink:href="#k"/>
<use x="242.382812" xlink:href="#h"/>
<use x="270.166016" xlink:href="#g"/>
<use x="333.544922" xlink:href="#i"/>
<use x="394.824219" xlink:href="#j"/>
</g>
</g>
<path d="m1146.7 836.65v33.808q0 2.4 2.4 2.4h7.7425q2.4 0 2.4-2.4v-33.808q0-2.4-2.4-2.4h-7.7425q-2.4 0-2.4 2.4z" clip-path="url(#a)" fill="#fff" stroke="#fff"/>
<g clip-path="url(#a)">
<g transform="translate(1150.8 836.65) rotate(90) scale(.08 -.08)">
<use xlink:href="#l"/>
<use x="44.083984" xlink:href="#f"/>
<use x="105.607422" xlink:href="#e"/>
<use x="144.970703" xlink:href="#k"/>
<use x="242.382812" xlink:href="#h"/>
<use x="270.166016" xlink:href="#g"/>
<use x="333.544922" xlink:href="#i"/>
<use x="394.824219" xlink:href="#j"/>
</g>
</g>
<path d="m946.05 836.65v33.808q0 2.4 2.4 2.4h7.7425q2.4 0 2.4-2.4v-33.808q0-2.4-2.4-2.4h-7.7425q-2.4 0-2.4 2.4z" clip-path="url(#a)" fill="#fff" stroke="#fff"/>
<g clip-path="url(#a)">
<g transform="translate(950.12 836.65) rotate(90) scale(.08 -.08)">
<use xlink:href="#l"/>
<use x="44.083984" xlink:href="#f"/>
<use x="105.607422" xlink:href="#e"/>
<use x="144.970703" xlink:href="#k"/>
<use x="242.382812" xlink:href="#h"/>
<use x="270.166016" xlink:href="#g"/>
<use x="333.544922" xlink:href="#i"/>
<use x="394.824219" xlink:href="#j"/>
</g>
</g>
<path d="m1010.6 836.65v33.808q0 2.4 2.4 2.4h7.7425q2.4 0 2.4-2.4v-33.808q0-2.4-2.4-2.4h-7.7425q-2.4 0-2.4 2.4z" clip-path="url(#a)" fill="#fff" stroke="#fff"/>
<g clip-path="url(#a)">
<g transform="translate(1014.7 836.65) rotate(90) scale(.08 -.08)">
<use xlink:href="#l"/>
<use x="44.083984" xlink:href="#f"/>
<use x="105.607422" xlink:href="#e"/>
<use x="144.970703" xlink:href="#k"/>
<use x="242.382812" xlink:href="#h"/>
<use x="270.166016" xlink:href="#g"/>
<use x="333.544922" xlink:href="#i"/>
<use x="394.824219" xlink:href="#j"/>
</g>
</g>
<path d="m512.5 836.65v33.808q0 2.4 2.4 2.4h7.7425q2.4 0 2.4-2.4v-33.808q0-2.4-2.4-2.4h-7.7425q-2.4 0-2.4 2.4z" clip-path="url(#a)" fill="#fff" stroke="#fff"/>
<g clip-path="url(#a)">
<g transform="translate(516.56 836.65) rotate(90) scale(.08 -.08)">
<use xlink:href="#l"/>
<use x="44.083984" xlink:href="#f"/>
<use x="105.607422" xlink:href="#e"/>
<use x="144.970703" xlink:href="#k"/>
<use x="242.382812" xlink:href="#h"/>
<use x="270.166016" xlink:href="#g"/>
<use x="333.544922" xlink:href="#i"/>
<use x="394.824219" xlink:href="#j"/>
</g>
</g>
<path d="m629.03 590.39 1.7102-5.1984q0.75001-2.2798-1.5298-3.0298l-7.3547-2.4196q-2.2798-0.75001-3.0298 1.5298l-1.7102 5.1984q-0.75001 2.2798 1.5298 3.0298l7.3547 2.4196q2.2798 0.75001 3.0298-1.5298z" clip-path="url(#a)" fill="#fff" stroke="#fff"/>
<g clip-path="url(#a)">
<g transform="translate(625.17 589.12) rotate(-71.79) scale(.08 -.08)">
<use xlink:href="#o"/>
</g>
</g>
<path d="m653.86 589.29 0.87651-4.517q0.45719-2.3561-1.8989-2.8132l-7.6007-1.4749q-2.3561-0.45719-2.8132 1.8989l-0.87651 4.517q-0.45719 2.3561 1.8989 2.8132l7.6007 1.4749q2.3561 0.45719 2.8132-1.8989z" clip-path="url(#a)" fill="#fff" stroke="#fff"/>
<g clip-path="url(#a)">
<g transform="translate(649.87 588.51) rotate(-79.018) scale(.08 -.08)">
<use xlink:href="#x"/>
</g>
</g>
<path d="m708.26 496.05 1.7047 4.7841q0.80556 2.2608 3.0663 1.4552l7.2933-2.5988q2.2608-0.80556 1.4552-3.0663l-1.7047-4.7841q-0.80556-2.2608-3.0663-1.4552l-7.2933 2.5988q-2.2608 0.80556-1.4552 3.0663z" clip-path="url(#a)" fill="#fff" stroke="#fff"/>
<g clip-path="url(#a)">
<g transform="translate(712.09 494.69) rotate(70.388) scale(.08 -.08)">
<use xlink:href="#v"/>
</g>
</g>
<path d="m720.87 584.36 1.4901 5.9771q0.58056 2.3287 2.9093 1.7482l7.5126-1.8729q2.3287-0.58056 1.7482-2.9093l-1.4901-5.9771q-0.58056-2.3287-2.9093-1.7482l-7.5126 1.8729q-2.3287 0.58056-1.7482 2.9093z" clip-path="url(#a)" fill="#fff" stroke="#fff"/>
<g clip-path="url(#a)">
<g transform="translate(724.82 583.38) rotate(76.001) scale(.08 -.08)">
<use xlink:href="#ao"/>
</g>
</g>
<path d="m693.51 583.51 0.55429 5.8287q0.22721 2.3892 2.6164 2.162l7.7077-0.73298q2.3892-0.22721 2.162-2.6164l-0.55429-5.8287q-0.22721-2.3892-2.6164-2.162l-7.7077 0.73298q-2.3892 0.22721-2.162 2.6164z" clip-path="url(#a)" fill="#fff" stroke="#fff"/>
<g clip-path="url(#a)">
<g transform="translate(697.56 583.13) rotate(84.568) scale(.08 -.08)">
<use xlink:href="#ab"/>
</g>
</g>
<path d="m558.62 836.65v33.808q0 2.4 2.4 2.4h7.7425q2.4 0 2.4-2.4v-33.808q0-2.4-2.4-2.4h-7.7425q-2.4 0-2.4 2.4z" clip-path="url(#a)" fill="#fff" stroke="#fff"/>
<g clip-path="url(#a)">
<g transform="translate(562.68 836.65) rotate(90) scale(.08 -.08)">
<use xlink:href="#l"/>
<use x="44.083984" xlink:href="#f"/>
<use x="105.607422" xlink:href="#e"/>
<use x="144.970703" xlink:href="#k"/>
<use x="242.382812" xlink:href="#h"/>
<use x="270.166016" xlink:href="#g"/>
<use x="333.544922" xlink:href="#i"/>
<use x="394.824219" xlink:href="#j"/>
</g>
</g>
<path d="m607.05 836.65v33.808q0 2.4 2.4 2.4h7.7425q2.4 0 2.4-2.4v-33.808q0-2.4-2.4-2.4h-7.7425q-2.4 0-2.4 2.4z" clip-path="url(#a)" fill="#fff" stroke="#fff"/>
<g clip-path="url(#a)">
<g transform="translate(611.11 836.65) rotate(90) scale(.08 -.08)">
<use xlink:href="#l"/>
<use x="44.083984" xlink:href="#f"/>
<use x="105.607422" xlink:href="#e"/>
<use x="144.970703" xlink:href="#k"/>
<use x="242.382812" xlink:href="#h"/>
<use x="270.166016" xlink:href="#g"/>
<use x="333.544922" xlink:href="#i"/>
<use x="394.824219" xlink:href="#j"/>
</g>
</g>
<path d="m710.29 680.52 1.9361-4.1741q1.0099-2.1772-1.1673-3.1871l-7.0237-3.2579q-2.1772-1.0099-3.1871 1.1673l-1.9361 4.1741q-1.0099 2.1772 1.1673 3.1871l7.0237 3.2579q2.1772 1.0099 3.1871-1.1673z" clip-path="url(#a)" fill="#fff" stroke="#fff"/>
<g clip-path="url(#a)">
<g transform="translate(706.6 678.81) rotate(-65.116) scale(.08 -.08)">
<use xlink:href="#x"/>
</g>
</g>
<path d="m781.72 675.9 2.3506 5.0676q1.0099 2.1772 3.1871 1.1673l7.0237-3.2579q2.1772-1.0099 1.1673-3.1871l-2.3506-5.0676q-1.0099-2.1772-3.1871-1.1673l-7.0237 3.2579q-2.1772 1.0099-1.1673 3.1871z" clip-path="url(#a)" fill="#fff" stroke="#fff"/>
<g clip-path="url(#a)">
<g transform="translate(785.41 674.19) rotate(65.116) scale(.08 -.08)">
<use xlink:href="#y"/>
</g>
</g>
<path d="m766.17 836.65v33.808q0 2.4 2.4 2.4h7.7425q2.4 0 2.4-2.4v-33.808q0-2.4-2.4-2.4h-7.7425q-2.4 0-2.4 2.4z" clip-path="url(#a)" fill="#fff" stroke="#fff"/>
<g clip-path="url(#a)">
<g transform="translate(770.24 836.65) rotate(90) scale(.08 -.08)">
<use xlink:href="#l"/>
<use x="44.083984" xlink:href="#f"/>
<use x="105.607422" xlink:href="#e"/>
<use x="144.970703" xlink:href="#k"/>
<use x="242.382812" xlink:href="#h"/>
<use x="270.166016" xlink:href="#g"/>
<use x="333.544922" xlink:href="#i"/>
<use x="394.824219" xlink:href="#j"/>
</g>
</g>
<path d="m657.78 836.65v33.808q0 2.4 2.4 2.4h7.7425q2.4 0 2.4-2.4v-33.808q0-2.4-2.4-2.4h-7.7425q-2.4 0-2.4 2.4z" clip-path="url(#a)" fill="#fff" stroke="#fff"/>
<g clip-path="url(#a)">
<g transform="translate(661.85 836.65) rotate(90) scale(.08 -.08)">
<use xlink:href="#l"/>
<use x="44.083984" xlink:href="#f"/>
<use x="105.607422" xlink:href="#e"/>
<use x="144.970703" xlink:href="#k"/>
<use x="242.382812" xlink:href="#h"/>
<use x="270.166016" xlink:href="#g"/>
<use x="333.544922" xlink:href="#i"/>
<use x="394.824219" xlink:href="#j"/>
</g>
</g>
<path d="m823.83 836.65v33.808q0 2.4 2.4 2.4h7.7425q2.4 0 2.4-2.4v-33.808q0-2.4-2.4-2.4h-7.7425q-2.4 0-2.4 2.4z" clip-path="url(#a)" fill="#fff" stroke="#fff"/>
<g clip-path="url(#a)">
<g transform="translate(827.89 836.65) rotate(90) scale(.08 -.08)">
<use xlink:href="#l"/>
<use x="44.083984" xlink:href="#f"/>
<use x="105.607422" xlink:href="#e"/>
<use x="144.970703" xlink:href="#k"/>
<use x="242.382812" xlink:href="#h"/>
<use x="270.166016" xlink:href="#g"/>
<use x="333.544922" xlink:href="#i"/>
<use x="394.824219" xlink:href="#j"/>
</g>
</g>
<path d="m254.21 836.65v33.808q0 2.4 2.4 2.4h7.7425q2.4 0 2.4-2.4v-33.808q0-2.4-2.4-2.4h-7.7425q-2.4 0-2.4 2.4z" clip-path="url(#a)" fill="#fff" stroke="#fff"/>
<g clip-path="url(#a)">
<g transform="translate(258.27 836.65) rotate(90) scale(.08 -.08)">
<use xlink:href="#l"/>
<use x="44.083984" xlink:href="#f"/>
<use x="105.607422" xlink:href="#e"/>
<use x="144.970703" xlink:href="#k"/>
<use x="242.382812" xlink:href="#h"/>
<use x="270.166016" xlink:href="#g"/>
<use x="333.544922" xlink:href="#i"/>
<use x="394.824219" xlink:href="#j"/>
</g>
</g>
<path d="m284.19 836.65v33.808q0 2.4 2.4 2.4h7.7425q2.4 0 2.4-2.4v-33.808q0-2.4-2.4-2.4h-7.7425q-2.4 0-2.4 2.4z" clip-path="url(#a)" fill="#fff" stroke="#fff"/>
<g clip-path="url(#a)">
<g transform="translate(288.25 836.65) rotate(90) scale(.08 -.08)">
<use xlink:href="#l"/>
<use x="44.083984" xlink:href="#f"/>
<use x="105.607422" xlink:href="#e"/>
<use x="144.970703" xlink:href="#k"/>
<use x="242.382812" xlink:href="#h"/>
<use x="270.166016" xlink:href="#g"/>
<use x="333.544922" xlink:href="#i"/>
<use x="394.824219" xlink:href="#j"/>
</g>
</g>
<path d="m316.47 836.65v33.808q0 2.4 2.4 2.4h7.7425q2.4 0 2.4-2.4v-33.808q0-2.4-2.4-2.4h-7.7425q-2.4 0-2.4 2.4z" clip-path="url(#a)" fill="#fff" stroke="#fff"/>
<g clip-path="url(#a)">
<g transform="translate(320.54 836.65) rotate(90) scale(.08 -.08)">
<use xlink:href="#l"/>
<use x="44.083984" xlink:href="#f"/>
<use x="105.607422" xlink:href="#e"/>
<use x="144.970703" xlink:href="#k"/>
<use x="242.382812" xlink:href="#h"/>
<use x="270.166016" xlink:href="#g"/>
<use x="333.544922" xlink:href="#i"/>
<use x="394.824219" xlink:href="#j"/>
</g>
</g>
<path d="m381.74 679.81 1.1448-5.4396q0.49425-2.3486-1.8543-2.8428l-7.5765-1.5945q-2.3486-0.49425-2.8428 1.8543l-1.1448 5.4396q-0.49425 2.3486 1.8543 2.8428l7.5765 1.5945q2.3486 0.49425 2.8428-1.8543z" clip-path="url(#a)" fill="#fff" stroke="#fff"/>
<g clip-path="url(#a)">
<g transform="translate(377.76 678.97) rotate(-78.116) scale(.08 -.08)">
<defs>
<path id="al" d="m44.391 34.188q3.1719-1.0781 6.1719-4.5938t6.0312-9.6719l10.016-19.922h-10.609l-9.3125 18.703q-3.625 7.3281-7.0156 9.7188t-9.25 2.3906h-10.75v-30.812h-9.8594v72.906h22.266q12.5 0 18.656-5.2344 6.1562-5.2188 6.1562-15.766 0-6.8906-3.2031-11.438-3.2031-4.5312-9.2969-6.2812zm-24.719 30.609v-25.875h12.406q7.125 0 10.766 3.2969t3.6406 9.6875-3.6406 9.6406-10.766 3.25z"/>
</defs>
<use xlink:href="#al"/>
</g>
</g>
<path d="m400.88 678.35 0.02171-5.055q0.010308-2.4-2.3897-2.4103l-7.7424-0.033253q-2.4-0.010307-2.4103 2.3897l-0.02171 5.055q-0.010308 2.4 2.3897 2.4103l7.7424 0.033253q2.4 0.010307 2.4103-2.3897z" clip-path="url(#a)" fill="#fff" stroke="#fff"/>
<g clip-path="url(#a)">
<g transform="translate(396.82 678.33) rotate(-89.754) scale(.08 -.08)">
<use xlink:href="#an"/>
</g>
</g>
<path d="m407.5 674.38 1.1729 5.4617q0.5039 2.3465 2.8504 1.8426l7.5699-1.6256q2.3465-0.5039 1.8426-2.8504l-1.1729-5.4617q-0.50389-2.3465-2.8504-1.8426l-7.5699 1.6256q-2.3465 0.50389-1.8426 2.8504z" clip-path="url(#a)" fill="#fff" stroke="#fff"/>
<g clip-path="url(#a)">
<g transform="translate(411.48 673.53) rotate(77.88) scale(.08 -.08)">
<use xlink:href="#y"/>
</g>
</g>
<path d="m351.07 836.65v33.808q0 2.4 2.4 2.4h7.7425q2.4 0 2.4-2.4v-33.808q0-2.4-2.4-2.4h-7.7425q-2.4 0-2.4 2.4z" clip-path="url(#a)" fill="#fff" stroke="#fff"/>
<g clip-path="url(#a)">
<g transform="translate(355.13 836.65) rotate(90) scale(.08 -.08)">
<use xlink:href="#l"/>
<use x="44.083984" xlink:href="#f"/>
<use x="105.607422" xlink:href="#e"/>
<use x="144.970703" xlink:href="#k"/>
<use x="242.382812" xlink:href="#h"/>
<use x="270.166016" xlink:href="#g"/>
<use x="333.544922" xlink:href="#i"/>
<use x="394.824219" xlink:href="#j"/>
</g>
</g>
<path d="m387.96 836.65v33.808q0 2.4 2.4 2.4h7.7425q2.4 0 2.4-2.4v-33.808q0-2.4-2.4-2.4h-7.7425q-2.4 0-2.4 2.4z" clip-path="url(#a)" fill="#fff" stroke="#fff"/>
<g clip-path="url(#a)">
<g transform="translate(392.03 836.65) rotate(90) scale(.08 -.08)">
<use xlink:href="#l"/>
<use x="44.083984" xlink:href="#f"/>
<use x="105.607422" xlink:href="#e"/>
<use x="144.970703" xlink:href="#k"/>
<use x="242.382812" xlink:href="#h"/>
<use x="270.166016" xlink:href="#g"/>
<use x="333.544922" xlink:href="#i"/>
<use x="394.824219" xlink:href="#j"/>
</g>
</g>
<path d="m427.17 836.65v33.808q0 2.4 2.4 2.4h7.7425q2.4 0 2.4-2.4v-33.808q0-2.4-2.4-2.4h-7.7425q-2.4 0-2.4 2.4z" clip-path="url(#a)" fill="#fff" stroke="#fff"/>
<g clip-path="url(#a)">
<g transform="translate(431.23 836.65) rotate(90) scale(.08 -.08)">
<use xlink:href="#l"/>
<use x="44.083984" xlink:href="#f"/>
<use x="105.607422" xlink:href="#e"/>
<use x="144.970703" xlink:href="#k"/>
<use x="242.382812" xlink:href="#h"/>
<use x="270.166016" xlink:href="#g"/>
<use x="333.544922" xlink:href="#i"/>
<use x="394.824219" xlink:href="#j"/>
</g>
</g>
<path d="m95.202 678.84 0.23852-5.5536q0.10298-2.3978-2.2948-2.5008l-7.7354-0.33222q-2.3978-0.10298-2.5008 2.2948l-0.23852 5.5536q-0.10298 2.3978 2.2948 2.5008l7.7354 0.33222q2.3978 0.10298 2.5008-2.2948z" clip-path="url(#a)" fill="#fff" stroke="#fff"/>
<g clip-path="url(#a)">
<g transform="translate(91.142 678.67) rotate(-87.541) scale(.08 -.08)">
<use xlink:href="#al"/>
</g>
</g>
<path d="m98.774 678.56 0.023503-5.4724q0.010308-2.4-2.3897-2.4103l-7.7424-0.033253q-2.4-0.010308-2.4103 2.3897l-0.023504 5.4724q-0.010307 2.4 2.3897 2.4103l7.7424 0.033253q2.4 0.010307 2.4103-2.3897z" clip-path="url(#a)" fill="#fff" stroke="#fff"/>
<g clip-path="url(#a)">
<g transform="translate(94.711 678.54) rotate(-89.754) scale(.08 -.08)">
<use xlink:href="#o"/>
</g>
</g>
<path d="m90.743 673.55 0.23967 5.0731q0.11326 2.3973 2.5106 2.2841l7.7339-0.36537q2.3973-0.11326 2.2841-2.5106l-0.23967-5.0731q-0.11326-2.3973-2.5106-2.2841l-7.7339 0.36537q-2.3973 0.11326-2.2841 2.5106z" clip-path="url(#a)" fill="#fff" stroke="#fff"/>
<g clip-path="url(#a)">
<g transform="translate(94.802 673.36) rotate(87.295) scale(.08 -.08)">
<use xlink:href="#v"/>
</g>
</g>
<path d="m136.25 870.73 1.5442-33.772q0.10962-2.3975-2.2879-2.5071l-7.7344-0.35364q-2.3975-0.10962-2.5071 2.2879l-1.5442 33.772q-0.10962 2.3975 2.2879 2.5071l7.7344 0.35364q2.3975 0.10962 2.5071-2.2879z" clip-path="url(#a)" fill="#fff" stroke="#fff"/>
<g clip-path="url(#a)">
<g transform="translate(132.19 870.54) rotate(-87.382) scale(.08 -.08)">
<use xlink:href="#l"/>
<use x="44.083984" xlink:href="#f"/>
<use x="105.607422" xlink:href="#e"/>
<use x="144.970703" xlink:href="#k"/>
<use x="242.382812" xlink:href="#h"/>
<use x="270.166016" xlink:href="#g"/>
<use x="333.544922" xlink:href="#i"/>
<use x="394.824219" xlink:href="#j"/>
</g>
</g>
<path d="m131.79 836.95 1.5442 33.772q0.10962 2.3975 2.5071 2.2879l7.7344-0.35364q2.3975-0.10962 2.2879-2.5071l-1.5442-33.772q-0.10962-2.3975-2.5071-2.2879l-7.7344 0.35364q-2.3975 0.10962-2.2879 2.5071z" clip-path="url(#a)" fill="#fff" stroke="#fff"/>
<g clip-path="url(#a)">
<g transform="translate(135.85 836.77) rotate(87.382) scale(.08 -.08)">
<use xlink:href="#l"/>
<use x="44.083984" xlink:href="#f"/>
<use x="105.607422" xlink:href="#e"/>
<use x="144.970703" xlink:href="#k"/>
<use x="242.382812" xlink:href="#h"/>
<use x="270.166016" xlink:href="#g"/>
<use x="333.544922" xlink:href="#i"/>
<use x="394.824219" xlink:href="#j"/>
</g>
</g>
<path d="m177.97 679.3 0.66369-5.519q0.28655-2.3828-2.0963-2.6694l-7.6871-0.92442q-2.3828-0.28655-2.6694 2.0963l-0.66369 5.519q-0.28655 2.3828 2.0963 2.6694l7.6871 0.92442q2.3828 0.28655 2.6694-2.0963z" clip-path="url(#a)" fill="#fff" stroke="#fff"/>
<g clip-path="url(#a)">
<g transform="translate(173.94 678.82) rotate(-83.143) scale(.08 -.08)">
<use xlink:href="#al"/>
</g>
</g>
<path d="m188.71 678.56 0.023503-5.4724q0.010308-2.4-2.3897-2.4103l-7.7424-0.033253q-2.4-0.010308-2.4103 2.3897l-0.023504 5.4724q-0.010307 2.4 2.3897 2.4103l7.7424 0.033253q2.4 0.010307 2.4103-2.3897z" clip-path="url(#a)" fill="#fff" stroke="#fff"/>
<g clip-path="url(#a)">
<g transform="translate(184.65 678.54) rotate(-89.754) scale(.08 -.08)">
<use xlink:href="#o"/>
</g>
</g>
<path d="m187.46 674.18 0.5962 4.7868q0.29663 2.3816 2.6782 2.085l7.6831-0.95694q2.3816-0.29663 2.085-2.6782l-0.59619-4.7868q-0.29663-2.3816-2.6782-2.085l-7.6831 0.95694q-2.3816 0.29663-2.085 2.6782z" clip-path="url(#a)" fill="#fff" stroke="#fff"/>
<g clip-path="url(#a)">
<g transform="translate(191.5 673.68) rotate(82.9) scale(.08 -.08)">
<use xlink:href="#ac"/>
</g>
</g>
<path d="m155.04 836.65v33.808q0 2.4 2.4 2.4h7.7425q2.4 0 2.4-2.4v-33.808q0-2.4-2.4-2.4h-7.7425q-2.4 0-2.4 2.4z" clip-path="url(#a)" fill="#fff" stroke="#fff"/>
<g clip-path="url(#a)">
<g transform="translate(159.11 836.65) rotate(90) scale(.08 -.08)">
<use xlink:href="#l"/>
<use x="44.083984" xlink:href="#f"/>
<use x="105.607422" xlink:href="#e"/>
<use x="144.970703" xlink:href="#k"/>
<use x="242.382812" xlink:href="#h"/>
<use x="270.166016" xlink:href="#g"/>
<use x="333.544922" xlink:href="#i"/>
<use x="394.824219" xlink:href="#j"/>
</g>
</g>
<path d="m175.8 836.65v33.808q0 2.4 2.4 2.4h7.7425q2.4 0 2.4-2.4v-33.808q0-2.4-2.4-2.4h-7.7425q-2.4 0-2.4 2.4z" clip-path="url(#a)" fill="#fff" stroke="#fff"/>
<g clip-path="url(#a)">
<g transform="translate(179.86 836.65) rotate(90) scale(.08 -.08)">
<use xlink:href="#l"/>
<use x="44.083984" xlink:href="#f"/>
<use x="105.607422" xlink:href="#e"/>
<use x="144.970703" xlink:href="#k"/>
<use x="242.382812" xlink:href="#h"/>
<use x="270.166016" xlink:href="#g"/>
<use x="333.544922" xlink:href="#i"/>
<use x="394.824219" xlink:href="#j"/>
</g>
</g>
<path d="m198.86 836.65v33.808q0 2.4 2.4 2.4h7.7425q2.4 0 2.4-2.4v-33.808q0-2.4-2.4-2.4h-7.7425q-2.4 0-2.4 2.4z" clip-path="url(#a)" fill="#fff" stroke="#fff"/>
<g clip-path="url(#a)">
<g transform="translate(202.92 836.65) rotate(90) scale(.08 -.08)">
<use xlink:href="#l"/>
<use x="44.083984" xlink:href="#f"/>
<use x="105.607422" xlink:href="#e"/>
<use x="144.970703" xlink:href="#k"/>
<use x="242.382812" xlink:href="#h"/>
<use x="270.166016" xlink:href="#g"/>
<use x="333.544922" xlink:href="#i"/>
<use x="394.824219" xlink:href="#j"/>
</g>
</g>
<path d="m78.941 836.65v33.808q0 2.4 2.4 2.4h7.7425q2.4 0 2.4-2.4v-33.808q0-2.4-2.4-2.4h-7.7425q-2.4 0-2.4 2.4z" clip-path="url(#a)" fill="#fff" stroke="#fff"/>
<g clip-path="url(#a)">
<g transform="translate(83.005 836.65) rotate(90) scale(.08 -.08)">
<use xlink:href="#l"/>
<use x="44.083984" xlink:href="#f"/>
<use x="105.607422" xlink:href="#e"/>
<use x="144.970703" xlink:href="#k"/>
<use x="242.382812" xlink:href="#h"/>
<use x="270.166016" xlink:href="#g"/>
<use x="333.544922" xlink:href="#i"/>
<use x="394.824219" xlink:href="#j"/>
</g>
</g>
<path d="m85.859 836.65v33.808q0 2.4 2.4 2.4h7.7425q2.4 0 2.4-2.4v-33.808q0-2.4-2.4-2.4h-7.7425q-2.4 0-2.4 2.4z" clip-path="url(#a)" fill="#fff" stroke="#fff"/>
<g clip-path="url(#a)">
<g transform="translate(89.923 836.65) rotate(90) scale(.08 -.08)">
<use xlink:href="#l"/>
<use x="44.083984" xlink:href="#f"/>
<use x="105.607422" xlink:href="#e"/>
<use x="144.970703" xlink:href="#k"/>
<use x="242.382812" xlink:href="#h"/>
<use x="270.166016" xlink:href="#g"/>
<use x="333.544922" xlink:href="#i"/>
<use x="394.824219" xlink:href="#j"/>
</g>
</g>
<path d="m95.084 836.65v33.808q0 2.4 2.4 2.4h7.7425q2.4 0 2.4-2.4v-33.808q0-2.4-2.4-2.4h-7.7425q-2.4 0-2.4 2.4z" clip-path="url(#a)" fill="#fff" stroke="#fff"/>
<g clip-path="url(#a)">
<g transform="translate(99.148 836.65) rotate(90) scale(.08 -.08)">
<use xlink:href="#l"/>
<use x="44.083984" xlink:href="#f"/>
<use x="105.607422" xlink:href="#e"/>
<use x="144.970703" xlink:href="#k"/>
<use x="242.382812" xlink:href="#h"/>
<use x="270.166016" xlink:href="#g"/>
<use x="333.544922" xlink:href="#i"/>
<use x="394.824219" xlink:href="#j"/>
</g>
</g>
<path d="m106.61 836.65v33.808q0 2.4 2.4 2.4h7.7425q2.4 0 2.4-2.4v-33.808q0-2.4-2.4-2.4h-7.7425q-2.4 0-2.4 2.4z" clip-path="url(#a)" fill="#fff" stroke="#fff"/>
<g clip-path="url(#a)">
<g transform="translate(110.68 836.65) rotate(90) scale(.08 -.08)">
<use xlink:href="#l"/>
<use x="44.083984" xlink:href="#f"/>
<use x="105.607422" xlink:href="#e"/>
<use x="144.970703" xlink:href="#k"/>
<use x="242.382812" xlink:href="#h"/>
<use x="270.166016" xlink:href="#g"/>
<use x="333.544922" xlink:href="#i"/>
<use x="394.824219" xlink:href="#j"/>
</g>
</g>
<path d="m226.53 836.65v33.808q0 2.4 2.4 2.4h7.7425q2.4 0 2.4-2.4v-33.808q0-2.4-2.4-2.4h-7.7425q-2.4 0-2.4 2.4z" clip-path="url(#a)" fill="#fff" stroke="#fff"/>
<g clip-path="url(#a)">
<g transform="translate(230.6 836.65) rotate(90) scale(.08 -.08)">
<use xlink:href="#l"/>
<use x="44.083984" xlink:href="#f"/>
<use x="105.607422" xlink:href="#e"/>
<use x="144.970703" xlink:href="#k"/>
<use x="242.382812" xlink:href="#h"/>
<use x="270.166016" xlink:href="#g"/>
<use x="333.544922" xlink:href="#i"/>
<use x="394.824219" xlink:href="#j"/>
</g>
</g>
<path d="m710.83 836.65v33.808q0 2.4 2.4 2.4h7.7425q2.4 0 2.4-2.4v-33.808q0-2.4-2.4-2.4h-7.7425q-2.4 0-2.4 2.4z" clip-path="url(#a)" fill="#fff" stroke="#fff"/>
<g clip-path="url(#a)">
<g transform="translate(714.89 836.65) rotate(90) scale(.08 -.08)">
<use xlink:href="#l"/>
<use x="44.083984" xlink:href="#f"/>
<use x="105.607422" xlink:href="#e"/>
<use x="144.970703" xlink:href="#k"/>
<use x="242.382812" xlink:href="#h"/>
<use x="270.166016" xlink:href="#g"/>
<use x="333.544922" xlink:href="#i"/>
<use x="394.824219" xlink:href="#j"/>
</g>
</g>
<path d="m883.79 836.65v33.808q0 2.4 2.4 2.4h7.7425q2.4 0 2.4-2.4v-33.808q0-2.4-2.4-2.4h-7.7425q-2.4 0-2.4 2.4z" clip-path="url(#a)" fill="#fff" stroke="#fff"/>
<g clip-path="url(#a)">
<g transform="translate(887.85 836.65) rotate(90) scale(.08 -.08)">
<use xlink:href="#l"/>
<use x="44.083984" xlink:href="#f"/>
<use x="105.607422" xlink:href="#e"/>
<use x="144.970703" xlink:href="#k"/>
<use x="242.382812" xlink:href="#h"/>
<use x="270.166016" xlink:href="#g"/>
<use x="333.544922" xlink:href="#i"/>
<use x="394.824219" xlink:href="#j"/>
</g>
</g>
<path d="m1783.2 836.65v33.808q0 2.4 2.4 2.4h7.7425q2.4 0 2.4-2.4v-33.808q0-2.4-2.4-2.4h-7.7425q-2.4 0-2.4 2.4z" clip-path="url(#a)" fill="#fff" stroke="#fff"/>
<g clip-path="url(#a)">
<g transform="translate(1787.2 836.65) rotate(90) scale(.08 -.08)">
<use xlink:href="#l"/>
<use x="44.083984" xlink:href="#f"/>
<use x="105.607422" xlink:href="#e"/>
<use x="144.970703" xlink:href="#k"/>
<use x="242.382812" xlink:href="#h"/>
<use x="270.166016" xlink:href="#g"/>
<use x="333.544922" xlink:href="#i"/>
<use x="394.824219" xlink:href="#j"/>
</g>
</g>
<defs>
<path id="b" d="m0 8.6603c2.2967 0 4.4997-0.9125 6.1237-2.5365 1.624-1.624 2.5365-3.827 2.5365-6.1237s-0.9125-4.4997-2.5365-6.1237c-1.624-1.624-3.827-2.5365-6.1237-2.5365s-4.4997 0.9125-6.1237 2.5365c-1.624 1.624-2.5365 3.827-2.5365 6.1237s0.9125 4.4997 2.5365 6.1237c1.624 1.624 3.827 2.5365 6.1237 2.5365z"/>
</defs>
<g clip-path="url(#a)" fill="#ffffff" stroke="#ffffff">
<use x="85.212121" y="941.818182" xlink:href="#b"/>
<use x="92.130561" y="941.818182" xlink:href="#b"/>
<use x="101.355148" y="941.818182" xlink:href="#b"/>
<use x="112.885882" y="941.818182" xlink:href="#b"/>
<use x="126.722762" y="941.818182" xlink:href="#b"/>
<use x="142.865789" y="941.818182" xlink:href="#b"/>
<use x="161.314963" y="941.818182" xlink:href="#b"/>
<use x="182.070283" y="941.818182" xlink:href="#b"/>
<use x="205.131751" y="941.818182" xlink:href="#b"/>
<use x="232.805511" y="941.818182" xlink:href="#b"/>
<use x="260.479272" y="941.818182" xlink:href="#b"/>
<use x="290.459179" y="941.818182" xlink:href="#b"/>
<use x="322.745233" y="941.818182" xlink:href="#b"/>
<use x="357.337434" y="941.818182" xlink:href="#b"/>
<use x="394.235781" y="941.818182" xlink:href="#b"/>
<use x="433.440276" y="941.818182" xlink:href="#b"/>
<use x="474.950916" y="941.818182" xlink:href="#b"/>
<use x="518.767704" y="941.818182" xlink:href="#b"/>
<use x="564.890638" y="941.818182" xlink:href="#b"/>
<use x="613.31972" y="941.818182" xlink:href="#b"/>
<use x="664.054947" y="941.818182" xlink:href="#b"/>
<use x="717.096322" y="941.818182" xlink:href="#b"/>
<use x="772.443843" y="941.818182" xlink:href="#b"/>
<use x="830.097511" y="941.818182" xlink:href="#b"/>
<use x="890.057326" y="941.818182" xlink:href="#b"/>
<use x="952.323287" y="941.818182" xlink:href="#b"/>
<use x="1016.895395" y="941.818182" xlink:href="#b"/>
<use x="1083.77365" y="941.818182" xlink:href="#b"/>
<use x="1152.958051" y="941.818182" xlink:href="#b"/>
<use x="1224.4486" y="941.818182" xlink:href="#b"/>
<use x="1298.245295" y="941.818182" xlink:href="#b"/>
<use x="1374.348136" y="941.818182" xlink:href="#b"/>
<use x="1452.757125" y="941.818182" xlink:href="#b"/>
<use x="1533.47226" y="941.818182" xlink:href="#b"/>
<use x="1616.493542" y="941.818182" xlink:href="#b"/>
<use x="1701.82097" y="941.818182" xlink:href="#b"/>
<use x="1789.454545" y="941.818182" xlink:href="#b"/>
<use x="207.437897" y="586.302827" xlink:href="#b"/>
<use x="726.186383" y="44.848485" xlink:href="#b"/>
<use x="130.854608" y="406.378524" xlink:href="#b"/>
<use x="317.172045" y="406.378524" xlink:href="#b"/>
<use x="474.950916" y="765.288367" xlink:href="#b"/>
<use x="487.404109" y="225.841863" xlink:href="#b"/>
<use x="1109.141264" y="406.378524" xlink:href="#b"/>
<use x="1298.245295" y="765.288367" xlink:href="#b"/>
<use x="1595.046377" y="225.841863" xlink:href="#b"/>
<use x="1374.348136" y="765.288367" xlink:href="#b"/>
<use x="1493.114692" y="406.378524" xlink:href="#b"/>
<use x="1616.493542" y="765.288367" xlink:href="#b"/>
<use x="1701.82097" y="765.288367" xlink:href="#b"/>
<use x="1452.757125" y="586.302827" xlink:href="#b"/>
<use x="1533.47226" y="765.288367" xlink:href="#b"/>
<use x="1452.757125" y="765.288367" xlink:href="#b"/>
<use x="984.609341" y="586.302827" xlink:href="#b"/>
<use x="1118.365851" y="586.302827" xlink:href="#b"/>
<use x="1224.4486" y="586.302827" xlink:href="#b"/>
<use x="1224.4486" y="765.288367" xlink:href="#b"/>
<use x="1083.77365" y="765.288367" xlink:href="#b"/>
<use x="1152.958051" y="765.288367" xlink:href="#b"/>
<use x="952.323287" y="765.288367" xlink:href="#b"/>
<use x="1016.895395" y="765.288367" xlink:href="#b"/>
<use x="518.767704" y="765.288367" xlink:href="#b"/>
<use x="682.96535" y="406.378524" xlink:href="#b"/>
<use x="564.890638" y="765.288367" xlink:href="#b"/>
<use x="613.31972" y="765.288367" xlink:href="#b"/>
<use x="747.076229" y="586.302827" xlink:href="#b"/>
<use x="772.443843" y="765.288367" xlink:href="#b"/>
<use x="664.054947" y="765.288367" xlink:href="#b"/>
<use x="830.097511" y="765.288367" xlink:href="#b"/>
<use x="260.479272" y="765.288367" xlink:href="#b"/>
<use x="290.459179" y="765.288367" xlink:href="#b"/>
<use x="322.745233" y="765.288367" xlink:href="#b"/>
<use x="395.004497" y="586.302827" xlink:href="#b"/>
<use x="357.337434" y="765.288367" xlink:href="#b"/>
<use x="394.235781" y="765.288367" xlink:href="#b"/>
<use x="433.440276" y="765.288367" xlink:href="#b"/>
<use x="92.899277" y="586.302827" xlink:href="#b"/>
<use x="134.794276" y="765.288367" xlink:href="#b"/>
<use x="182.838999" y="586.302827" xlink:href="#b"/>
<use x="161.314963" y="765.288367" xlink:href="#b"/>
<use x="182.070283" y="765.288367" xlink:href="#b"/>
<use x="205.131751" y="765.288367" xlink:href="#b"/>
<use x="85.212121" y="765.288367" xlink:href="#b"/>
<use x="92.130561" y="765.288367" xlink:href="#b"/>
<use x="101.355148" y="765.288367" xlink:href="#b"/>
<use x="112.885882" y="765.288367" xlink:href="#b"/>
<use x="232.805511" y="765.288367" xlink:href="#b"/>
<use x="717.096322" y="765.288367" xlink:href="#b"/>
<use x="890.057326" y="765.288367" xlink:href="#b"/>
<use x="1789.454545" y="765.288367" xlink:href="#b"/>
</g>
<g clip-path="url(#a)">
<g transform="translate(79.949 944.58) scale(.1 -.1)">
<defs>
<path id="n" d="m30.609 48.391q-7.2188 0-11.422-5.6406t-4.2031-15.453 4.1719-15.453q4.1875-5.6406 11.453-5.6406 7.1875 0 11.375 5.6562 4.2031 5.6719 4.2031 15.438 0 9.7188-4.2031 15.406-4.1875 5.6875-11.375 5.6875zm0 7.6094q11.719 0 18.406-7.625 6.7031-7.6094 6.7031-21.078 0-13.422-6.7031-21.078-6.6875-7.6406-18.406-7.6406-11.766 0-18.438 7.6406-6.6562 7.6562-6.6562 21.078 0 13.469 6.6562 21.078 6.6719 7.625 18.438 7.625z"/>
</defs>
<use xlink:href="#l"/>
<use x="44.083984" xlink:href="#n"/>
</g>
</g>
<g clip-path="url(#a)">
<g transform="translate(84.301 944.58) scale(.1 -.1)">
<defs>
<path id="u" d="m32.172-5.0781q-3.7969-9.7656-7.4219-12.734-3.6094-2.9844-9.6562-2.9844h-7.1875v7.5156h5.2812q3.7031 0 5.75 1.7656 2.0625 1.75 4.5469 8.2969l1.6094 4.0938-22.109 53.812h9.5156l17.094-42.766 17.094 42.766h9.5156z"/>
</defs>
<use xlink:href="#k"/>
<use x="97.412109" xlink:href="#u"/>
</g>
</g>
<g clip-path="url(#a)">
<g transform="translate(86.731 944.58) scale(.1 -.1)">
<defs>
<path id="au" d="m37.109 75.984v-7.4844h-8.5938q-4.8281 0-6.7188-1.9531-1.875-1.9531-1.875-7.0312v-4.8281h14.797v-6.9844h-14.797v-47.703h-9.0312v47.703h-8.5938v6.9844h8.5938v3.8125q0 9.125 4.25 13.297 4.25 4.1875 13.469 4.1875z"/>
<path id="ak" d="m45.406 46.391v29.594h8.9844v-75.984h-8.9844v8.2031q-2.8281-4.875-7.1562-7.25-4.3125-2.375-10.375-2.375-9.9062 0-16.141 7.9062-6.2188 7.9219-6.2188 20.812t6.2188 20.797q6.2344 7.9062 16.141 7.9062 6.0625 0 10.375-2.375 4.3281-2.3594 7.1562-7.2344zm-30.609-19.094q0-9.9062 4.0781-15.547t11.203-5.6406 11.219 5.6406q4.1094 5.6406 4.1094 15.547t-4.1094 15.547q-4.0938 5.6406-11.219 5.6406t-11.203-5.6406-4.0781-15.547z"/>
</defs>
<use xlink:href="#au"/>
<use x="35.205078" xlink:href="#e"/>
<use x="76.318359" xlink:href="#h"/>
<use x="104.101562" xlink:href="#f"/>
<use x="165.625" xlink:href="#g"/>
<use x="229.003906" xlink:href="#ak"/>
</g>
</g>
<g clip-path="url(#a)">
<g transform="translate(111.3 944.58) scale(.1 -.1)">
<defs>
<path id="ax" d="m11.719 12.406h10.297v-8.4062l-8-15.625h-6.2969l4 15.625z"/>
</defs>
<use xlink:href="#ax"/>
</g>
</g>
<g clip-path="url(#a)">
<g transform="translate(112.47 944.58) scale(.1 -.1)">
<defs>
<path id="r" d="m18.312 70.219v-15.531h18.5v-6.9844h-18.5v-29.688q0-6.6875 1.8281-8.5938t7.4531-1.9062h9.2188v-7.5156h-9.2188q-10.406 0-14.359 3.875-3.9531 3.8906-3.9531 14.141v29.688h-6.5938v6.9844h6.5938v15.531z"/>
<path id="aj" d="m54.891 33.016v-33.016h-8.9844v32.719q0 7.7656-3.0312 11.609-3.0312 3.8594-9.0781 3.8594-7.2812 0-11.484-4.6406-4.2031-4.625-4.2031-12.641v-30.906h-9.0312v75.984h9.0312v-29.797q3.2344 4.9375 7.5938 7.375 4.375 2.4375 10.094 2.4375 9.4219 0 14.25-5.8281 4.8438-5.8281 4.8438-17.156z"/>
<path id="bc" d="m9.0781 75.984h9.0312v-44.875l26.812 23.578h11.469l-29-25.578 30.234-29.109h-11.719l-27.797 26.703v-26.703h-9.0312z"/>
</defs>
<use xlink:href="#r"/>
<use x="39.208984" xlink:href="#aj"/>
<use x="102.587891" xlink:href="#i"/>
<use x="163.867188" xlink:href="#g"/>
<use x="227.246094" xlink:href="#bc"/>
</g>
</g>
<g clip-path="url(#a)">
<g transform="translate(133.68 944.58) scale(.1 -.1)">
<defs>
<path id="w" d="m8.5 21.578v33.109h8.9844v-32.766q0-7.7656 3.0156-11.656 3.0312-3.875 9.0938-3.875 7.2656 0 11.484 4.6406 4.2344 4.6406 4.2344 12.656v31h8.9844v-54.688h-8.9844v8.4062q-3.2656-4.9844-7.5938-7.4062-4.3125-2.4219-10.031-2.4219-9.4219 0-14.312 5.8594-4.875 5.8594-4.875 17.141z"/>
</defs>
<use xlink:href="#u"/>
<use x="59.179688" xlink:href="#n"/>
<use x="120.361328" xlink:href="#w"/>
</g>
</g>
<g clip-path="url(#a)">
<g transform="translate(154.44 944.58) scale(.1 -.1)">
<use xlink:href="#au"/>
<use x="35.205078" xlink:href="#n"/>
<use x="96.386719" xlink:href="#e"/>
</g>
</g>
<g clip-path="url(#a)">
<g transform="translate(170.83 944.58) scale(.1 -.1)">
<use xlink:href="#u"/>
<use x="59.179688" xlink:href="#n"/>
<use x="120.361328" xlink:href="#w"/>
<use x="183.740234" xlink:href="#e"/>
</g>
</g>
<g clip-path="url(#a)">
<g transform="translate(162.5 944.58) scale(.1 -.1)">
<defs>
<path id="ag" d="m48.781 52.594v-8.4062q-3.8125 2.1094-7.6406 3.1562t-7.7344 1.0469q-8.75 0-13.594-5.5469-4.8281-5.5312-4.8281-15.547t4.8281-15.562q4.8438-5.5312 13.594-5.5312 3.9062 0 7.7344 1.0469t7.6406 3.1562v-8.3125q-3.7656-1.75-7.7969-2.625-4.0156-0.89062-8.5625-0.89062-12.359 0-19.641 7.7656-7.2656 7.7656-7.2656 20.953 0 13.375 7.3438 21.031 7.3594 7.6719 20.156 7.6719 4.1406 0 8.0938-0.85938 3.9531-0.84375 7.6719-2.5469z"/>
</defs>
<use xlink:href="#e"/>
<use x="38.863281" xlink:href="#f"/>
<use x="100.386719" xlink:href="#ag"/>
<use x="155.367188" xlink:href="#n"/>
<use x="216.548828" xlink:href="#k"/>
<use x="313.960938" xlink:href="#k"/>
<use x="411.373047" xlink:href="#f"/>
<use x="472.896484" xlink:href="#g"/>
<use x="536.275391" xlink:href="#ak"/>
<use x="599.751953" xlink:href="#i"/>
<use x="661.03125" xlink:href="#r"/>
<use x="700.240234" xlink:href="#h"/>
<use x="728.023438" xlink:href="#n"/>
<use x="789.205078" xlink:href="#g"/>
</g>
</g>
<g clip-path="url(#a)">
<g transform="translate(228.04 944.58) scale(.1 -.1)">
<defs>
<path id="d" d="m10.688 12.406h10.312v-12.406h-10.312z"/>
</defs>
<use xlink:href="#d"/>
<use x="31.787109" xlink:href="#d"/>
<use x="63.574219" xlink:href="#d"/>
</g>
</g>
<g clip-path="url(#a)">
<g transform="translate(251.29 944.58) scale(.1 -.1)">
<use xlink:href="#u"/>
<use x="59.179688" xlink:href="#n"/>
<use x="120.361328" xlink:href="#w"/>
</g>
</g>
<g clip-path="url(#a)">
<g transform="translate(278.27 944.58) scale(.1 -.1)">
<defs>
<path id="as" d="m4.2031 54.688h8.9844l11.234-42.672 11.172 42.672h10.594l11.234-42.672 11.188 42.672h8.9844l-14.312-54.688h-10.594l-11.766 44.828-11.812-44.828h-10.609z"/>
</defs>
<use xlink:href="#as"/>
<use x="81.787109" xlink:href="#f"/>
<use x="143.310547" xlink:href="#e"/>
<use x="182.173828" xlink:href="#f"/>
</g>
</g>
<g clip-path="url(#a)">
<g transform="translate(312.48 944.58) scale(.1 -.1)">
<use xlink:href="#r"/>
<use x="39.208984" xlink:href="#e"/>
<use x="80.322266" xlink:href="#w"/>
<use x="143.701172" xlink:href="#f"/>
</g>
</g>
<g clip-path="url(#a)">
<g transform="translate(352.32 944.58) scale(.1 -.1)">
<use xlink:href="#r"/>
<use x="39.208984" xlink:href="#n"/>
</g>
</g>
<g clip-path="url(#a)">
<g transform="translate(382.99 944.58) scale(.1 -.1)">
<use xlink:href="#u"/>
<use x="59.179688" xlink:href="#n"/>
<use x="120.361328" xlink:href="#w"/>
<use x="183.740234" xlink:href="#e"/>
</g>
</g>
<g clip-path="url(#a)">
<g transform="translate(418.54 944.58) scale(.1 -.1)">
<defs>
<path id="t" d="m44.281 53.078v-8.5q-3.7969 1.9531-7.9062 2.9219-4.0938 0.98438-8.5 0.98438-6.6875 0-10.031-2.0469t-3.3438-6.1562q0-3.125 2.3906-4.9062t9.625-3.3906l3.0781-0.6875q9.5625-2.0469 13.594-5.7812t4.0312-10.422q0-7.625-6.0312-12.078-6.0312-4.4375-16.578-4.4375-4.3906 0-9.1562 0.85938t-10.031 2.5625v9.2812q4.9844-2.5938 9.8125-3.8906 4.8281-1.2812 9.5781-1.2812 6.3438 0 9.75 2.1719 3.4219 2.1719 3.4219 6.125 0 3.6562-2.4688 5.6094-2.4531 1.9531-10.812 3.7656l-3.125 0.73438q-8.3438 1.75-12.062 5.3906-3.7031 3.6406-3.7031 9.9844 0 7.7188 5.4688 11.906 5.4688 4.2031 15.531 4.2031 4.9688 0 9.3594-0.73438 4.4062-0.71875 8.1094-2.1875z"/>
</defs>
<use xlink:href="#as"/>
<use x="81.787109" xlink:href="#n"/>
<use x="142.96875" xlink:href="#e"/>
<use x="182.332031" xlink:href="#ak"/>
<use x="245.808594" xlink:href="#t"/>
</g>
</g>
<g clip-path="url(#a)">
<g transform="translate(470.39 944.58) scale(.1 -.1)">
<use xlink:href="#h"/>
<use x="27.783203" xlink:href="#g"/>
</g>
</g>
<g clip-path="url(#a)">
<g transform="translate(502.41 944.58) scale(.1 -.1)">
<defs>
<path id="at" d="m45.406 27.984q0 9.7656-4.0312 15.125-4.0156 5.375-11.297 5.375-7.2188 0-11.25-5.375-4.0312-5.3594-4.0312-15.125 0-9.7188 4.0312-15.094t11.25-5.375q7.2812 0 11.297 5.375 4.0312 5.375 4.0312 15.094zm8.9844-21.203q0-13.953-6.2031-20.766-6.1875-6.8125-18.984-6.8125-4.7344 0-8.9375 0.70312t-8.1562 2.1719v8.7344q3.9531-2.1406 7.8125-3.1562 3.8594-1.0312 7.8594-1.0312 8.8438 0 13.234 4.6094t4.3906 13.938v4.4531q-2.7812-4.8438-7.125-7.2344t-10.406-2.3906q-10.047 0-16.203 7.6562-6.1562 7.6719-6.1562 20.328 0 12.688 6.1562 20.344 6.1562 7.6719 16.203 7.6719 6.0625 0 10.406-2.3906t7.125-7.2188v8.2969h8.9844z"/>
</defs>
<use xlink:href="#t"/>
<use x="52.099609" xlink:href="#i"/>
<use x="113.378906" xlink:href="#u"/>
<use x="172.558594" xlink:href="#h"/>
<use x="200.341797" xlink:href="#g"/>
<use x="263.720703" xlink:href="#at"/>
</g>
</g>
<g clip-path="url(#a)">
<g transform="translate(550.96 944.58) scale(.1 -.1)">
<use xlink:href="#ap"/>
<use x="77.490234" xlink:href="#f"/>
<use x="139.013672" xlink:href="#e"/>
<use x="178.376953" xlink:href="#e"/>
<use x="219.490234" xlink:href="#u"/>
</g>
</g>
<g clip-path="url(#a)">
<g transform="translate(609.33 944.58) scale(.1 -.1)">
<use xlink:href="#h"/>
<use x="27.783203" xlink:href="#t"/>
</g>
</g>
<g clip-path="url(#a)">
<g transform="translate(660.99 944.58) scale(.1 -.1)">
<use xlink:href="#i"/>
</g>
</g>
<g clip-path="url(#a)">
<g transform="translate(714.8 944.58) scale(.1 -.1)">
<defs>
<path id="ay" d="m17.922 72.906v-27.109h-8.2969v27.109zm18.453 0v-27.109h-8.2969v27.109z"/>
</defs>
<use xlink:href="#ay"/>
</g>
</g>
<g clip-path="url(#a)">
<g transform="translate(755.34 944.58) scale(.1 -.1)">
<use xlink:href="#v"/>
<use x="63.476562" xlink:href="#i"/>
<use x="124.755859" xlink:href="#h"/>
<use x="152.539062" xlink:href="#g"/>
<use x="215.917969" xlink:href="#r"/>
<use x="255.126953" xlink:href="#j"/>
<use x="282.910156" xlink:href="#u"/>
</g>
</g>
<g clip-path="url(#a)">
<g transform="translate(805.84 944.58) scale(.1 -.1)">
<defs>
<path id="ad" d="m9.8125 72.906h9.8594v-72.906h-9.8594z"/>
</defs>
<use xlink:href="#ad"/>
<use x="29.492188" xlink:href="#g"/>
<use x="92.871094" xlink:href="#t"/>
<use x="144.970703" xlink:href="#r"/>
<use x="184.179688" xlink:href="#e"/>
<use x="225.292969" xlink:href="#w"/>
<use x="288.671875" xlink:href="#ag"/>
<use x="343.652344" xlink:href="#r"/>
<use x="382.861328" xlink:href="#n"/>
<use x="444.042969" xlink:href="#e"/>
</g>
</g>
<g clip-path="url(#a)">
<g transform="translate(885.29 944.58) scale(.1 -.1)">
<use xlink:href="#d"/>
<use x="31.787109" xlink:href="#d"/>
<use x="63.574219" xlink:href="#d"/>
</g>
</g>
<g clip-path="url(#a)">
<g transform="translate(926.12 944.58) scale(.1 -.1)">
<defs>
<path id="av" d="m48.688 27.297q0 9.9062-4.0781 15.547t-11.203 5.6406q-7.1406 0-11.219-5.6406t-4.0781-15.547 4.0781-15.547 11.219-5.6406q7.125 0 11.203 5.6406t4.0781 15.547zm-30.578 19.094q2.8438 4.875 7.1562 7.2344 4.3281 2.375 10.328 2.375 9.9688 0 16.188-7.9062 6.2344-7.9062 6.2344-20.797t-6.2344-20.812q-6.2188-7.9062-16.188-7.9062-6 0-10.328 2.375-4.3125 2.375-7.1562 7.25v-8.2031h-9.0312v75.984h9.0312z"/>
</defs>
<use xlink:href="#o"/>
<use x="68.408203" xlink:href="#av"/>
<use x="131.884766" xlink:href="#t"/>
<use x="183.984375" xlink:href="#n"/>
<use x="245.166016" xlink:href="#j"/>
<use x="272.949219" xlink:href="#w"/>
<use x="336.328125" xlink:href="#r"/>
<use x="375.537109" xlink:href="#f"/>
<use x="437.060547" xlink:href="#j"/>
<use x="464.84375" xlink:href="#u"/>
</g>
</g>
<g clip-path="url(#a)">
<g transform="translate(999.82 944.58) scale(.1 -.1)">
<defs>
<path id="bb" d="m18.109 8.2031v-29h-9.0312v75.484h9.0312v-8.2969q2.8438 4.875 7.1562 7.2344 4.3281 2.375 10.328 2.375 9.9688 0 16.188-7.9062 6.2344-7.9062 6.2344-20.797t-6.2344-20.812q-6.2188-7.9062-16.188-7.9062-6 0-10.328 2.375-4.3125 2.375-7.1562 7.25zm30.578 19.094q0 9.9062-4.0781 15.547t-11.203 5.6406q-7.1406 0-11.219-5.6406t-4.0781-15.547 4.0781-15.547 11.219-5.6406q7.125 0 11.203 5.6406t4.0781 15.547z"/>
</defs>
<use xlink:href="#v"/>
<use x="63.476562" xlink:href="#h"/>
<use x="91.259766" xlink:href="#k"/>
<use x="188.671875" xlink:href="#bb"/>
<use x="252.148438" xlink:href="#j"/>
<use x="279.931641" xlink:href="#f"/>
</g>
</g>
<g clip-path="url(#a)">
<g transform="translate(1075.6 944.58) scale(.1 -.1)">
<use xlink:href="#r"/>
<use x="39.208984" xlink:href="#aj"/>
<use x="102.587891" xlink:href="#f"/>
</g>
</g>
<g clip-path="url(#a)">
<g transform="translate(1141.9 944.58) scale(.1 -.1)">
<defs>
<path id="aq" d="m19.672 34.812v-26.703h15.828q7.9531 0 11.781 3.2969 3.8438 3.2969 3.8438 10.078 0 6.8438-3.8438 10.078-3.8281 3.25-11.781 3.25zm0 29.984v-21.969h14.609q7.2188 0 10.75 2.7031 3.5469 2.7188 3.5469 8.2812 0 5.5156-3.5469 8.25-3.5312 2.7344-10.75 2.7344zm-9.8594 8.1094h25.203q11.281 0 17.375-4.6875 6.1094-4.6875 6.1094-13.328 0-6.7031-3.125-10.656t-9.1875-4.9219q7.2812-1.5625 11.312-6.5312 4.0312-4.9531 4.0312-12.375 0-9.7656-6.6406-15.094-6.6406-5.3125-18.906-5.3125h-26.172z"/>
</defs>
<use xlink:href="#aq"/>
<use x="68.603516" xlink:href="#f"/>
<use x="130.126953" xlink:href="#t"/>
<use x="182.226562" xlink:href="#r"/>
</g>
</g>
<g clip-path="url(#a)">
<g transform="translate(1200.2 944.58) scale(.1 -.1)">
<use xlink:href="#ad"/>
<use x="29.492188" xlink:href="#g"/>
<use x="92.871094" xlink:href="#t"/>
<use x="144.970703" xlink:href="#r"/>
<use x="184.179688" xlink:href="#e"/>
<use x="225.292969" xlink:href="#w"/>
<use x="288.671875" xlink:href="#ag"/>
<use x="343.652344" xlink:href="#r"/>
<use x="382.861328" xlink:href="#n"/>
<use x="444.042969" xlink:href="#e"/>
</g>
</g>
<g clip-path="url(#a)">
<g transform="translate(1288.8 944.58) scale(.1 -.1)">
<use xlink:href="#i"/>
<use x="61.279297" xlink:href="#g"/>
<use x="124.658203" xlink:href="#ak"/>
</g>
</g>
<g clip-path="url(#a)">
<g transform="translate(1363.3 944.58) scale(.1 -.1)">
<use xlink:href="#aq"/>
<use x="68.603516" xlink:href="#f"/>
<use x="130.126953" xlink:href="#t"/>
<use x="182.226562" xlink:href="#r"/>
</g>
</g>
<g clip-path="url(#a)">
<g transform="translate(1434.8 944.58) scale(.1 -.1)">
<defs>
<path id="ba" d="m2.9844 54.688h9.5156l17.094-45.891 17.094 45.891h9.5156l-20.516-54.688h-12.203z"/>
</defs>
<use xlink:href="#ao"/>
<use x="77.001953" xlink:href="#e"/>
<use x="118.115234" xlink:href="#h"/>
<use x="145.898438" xlink:href="#ba"/>
<use x="205.078125" xlink:href="#h"/>
<use x="232.861328" xlink:href="#g"/>
<use x="296.240234" xlink:href="#at"/>
</g>
</g>
<g clip-path="url(#a)">
<g transform="translate(1517.4 944.58) scale(.1 -.1)">
<use xlink:href="#t"/>
<use x="52.099609" xlink:href="#ag"/>
<use x="107.080078" xlink:href="#aj"/>
<use x="170.458984" xlink:href="#n"/>
<use x="231.640625" xlink:href="#n"/>
<use x="292.822266" xlink:href="#j"/>
</g>
</g>
<g clip-path="url(#a)">
<g transform="translate(1603.3 944.58) scale(.1 -.1)">
<use xlink:href="#r"/>
<use x="39.208984" xlink:href="#aj"/>
<use x="102.587891" xlink:href="#f"/>
<use x="164.111328" xlink:href="#e"/>
<use x="202.974609" xlink:href="#f"/>
</g>
</g>
<g clip-path="url(#a)">
<g transform="translate(1697.8 944.58) scale(.1 -.1)">
<use xlink:href="#h"/>
<use x="27.783203" xlink:href="#t"/>
</g>
</g>
<g clip-path="url(#a)">
<g transform="translate(1787.4 944.58) scale(.1 -.1)">
<defs>
<path id="az" d="m15.094 12.406h9.9062v-12.406h-9.9062zm0 60.5h9.9062v-31.984l-0.96875-17.438h-7.9219l-1.0156 17.438z"/>
</defs>
<use xlink:href="#az"/>
</g>
</g>
<g clip-path="url(#a)">
<g transform="translate(186.35 589.06) scale(.1 -.1)">
<defs>
<path id="aw" d="m9.8125 72.906h14.703l18.594-49.609 18.703 49.609h14.703v-72.906h-9.625v64.016l-18.797-50h-9.9062l-18.797 50v-64.016h-9.5781z"/>
</defs>
<use xlink:href="#ad"/>
<use x="29.492188" xlink:href="#aw"/>
<use x="115.771484" xlink:href="#ac"/>
<use x="176.074219" xlink:href="#am"/>
<use x="231.787109" xlink:href="#ad"/>
<use x="261.279297" xlink:href="#y"/>
<use x="331.103516" xlink:href="#ad"/>
<use x="360.595703" xlink:href="#l"/>
</g>
</g>
<g clip-path="url(#a)">
<g transform="translate(718.23 47.608) scale(.1 -.1)">
<defs>
<path id="c" d="m12.406 8.2969h16.109v55.625l-17.531-3.5156v8.9844l17.438 3.5156h9.8594v-64.609h16.109v-8.2969h-41.984z"/>
</defs>
<use xlink:href="#c"/>
<use x="63.623047" xlink:href="#d"/>
<use x="95.410156" xlink:href="#c"/>
</g>
</g>
<g clip-path="url(#a)">
<g transform="translate(122.9 409.14) scale(.1 -.1)">
<defs>
<path id="m" d="m19.188 8.2969h34.422v-8.2969h-46.281v8.2969q5.6094 5.8125 15.297 15.594 9.7031 9.7969 12.188 12.641 4.7344 5.3125 6.6094 9 1.8906 3.6875 1.8906 7.25 0 5.8125-4.0781 9.4688-4.0781 3.6719-10.625 3.6719-4.6406 0-9.7969-1.6094-5.1406-1.6094-11-4.8906v9.9688q5.9531 2.3906 11.125 3.6094 5.1875 1.2188 9.4844 1.2188 11.328 0 18.062-5.6719 6.7344-5.6562 6.7344-15.125 0-4.5-1.6875-8.5312-1.6719-4.0156-6.125-9.4844-1.2188-1.4219-7.7656-8.1875-6.5312-6.7656-18.453-18.922z"/>
</defs>
<use xlink:href="#c"/>
<use x="63.623047" xlink:href="#d"/>
<use x="95.410156" xlink:href="#m"/>
</g>
</g>
<g clip-path="url(#a)">
<g transform="translate(309.22 409.14) scale(.1 -.1)">
<defs>
<path id="s" d="m40.578 39.312q7.0781-1.5156 11.047-6.3125 3.9844-4.7812 3.9844-11.812 0-10.781-7.4219-16.703-7.4219-5.9062-21.094-5.9062-4.5781 0-9.4375 0.90625t-10.031 2.7188v9.5156q4.0938-2.3906 8.9688-3.6094 4.8906-1.2188 10.219-1.2188 9.2656 0 14.125 3.6562t4.8594 10.641q0 6.4531-4.5156 10.078-4.5156 3.6406-12.562 3.6406h-8.5v8.1094h8.8906q7.2656 0 11.125 2.9062t3.8594 8.375q0 5.6094-3.9844 8.6094-3.9688 3.0156-11.391 3.0156-4.0625 0-8.7031-0.89062-4.6406-0.875-10.203-2.7188v8.7812q5.625 1.5625 10.531 2.3438t9.25 0.78125q11.234 0 17.766-5.1094 6.5469-5.0938 6.5469-13.781 0-6.0625-3.4688-10.234t-9.8594-5.7812z"/>
</defs>
<use xlink:href="#c"/>
<use x="63.623047" xlink:href="#d"/>
<use x="95.410156" xlink:href="#s"/>
</g>
</g>
<g clip-path="url(#a)">
<g transform="translate(467 768.05) scale(.1 -.1)">
<defs>
<path id="q" d="m37.797 64.312-24.906-38.922h24.906zm-2.5938 8.5938h12.406v-47.516h10.406v-8.2031h-10.406v-17.188h-9.8125v17.188h-32.906v9.5156z"/>
</defs>
<use xlink:href="#c"/>
<use x="63.623047" xlink:href="#d"/>
<use x="95.410156" xlink:href="#q"/>
</g>
</g>
<g clip-path="url(#a)">
<g transform="translate(479.45 228.6) scale(.1 -.1)">
<defs>
<path id="p" d="m10.797 72.906h38.719v-8.3125h-29.688v-17.859q2.1406 0.73438 4.2812 1.0938 2.1562 0.35938 4.3125 0.35938 12.203 0 19.328-6.6875 7.1406-6.6875 7.1406-18.109 0-11.766-7.3281-18.297-7.3281-6.5156-20.656-6.5156-4.5938 0-9.3594 0.78125-4.75 0.78125-9.8281 2.3438v9.9219q4.3906-2.3906 9.0781-3.5625t9.9062-1.1719q8.4531 0 13.375 4.4375 4.9375 4.4375 4.9375 12.062 0 7.6094-4.9375 12.047-4.9219 4.4531-13.375 4.4531-3.9531 0-7.8906-0.875-3.9219-0.875-8.0156-2.7344z"/>
</defs>
<use xlink:href="#c"/>
<use x="63.623047" xlink:href="#d"/>
<use x="95.410156" xlink:href="#p"/>
</g>
</g>
<g clip-path="url(#a)">
<g transform="translate(1101.2 409.14) scale(.1 -.1)">
<defs>
<path id="aa" d="m33.016 40.375q-6.6406 0-10.531-4.5469-3.875-4.5312-3.875-12.438 0-7.8594 3.875-12.438 3.8906-4.5625 10.531-4.5625t10.516 4.5625q3.875 4.5781 3.875 12.438 0 7.9062-3.875 12.438-3.875 4.5469-10.516 4.5469zm19.578 30.922v-8.9844q-3.7188 1.75-7.5 2.6719-3.7812 0.9375-7.5 0.9375-9.7656 0-14.922-6.5938-5.1406-6.5938-5.875-19.922 2.875 4.25 7.2188 6.5156 4.3594 2.2656 9.5781 2.2656 10.984 0 17.359-6.6719 6.375-6.6562 6.375-18.125 0-11.234-6.6406-18.031-6.6406-6.7812-17.672-6.7812-12.656 0-19.344 9.6875-6.6875 9.7031-6.6875 28.109 0 17.281 8.2031 27.562t22.016 10.281q3.7188 0 7.5-0.73438t7.8906-2.1875z"/>
</defs>
<use xlink:href="#c"/>
<use x="63.623047" xlink:href="#d"/>
<use x="95.410156" xlink:href="#aa"/>
</g>
</g>
<g clip-path="url(#a)">
<g transform="translate(1290.3 768.05) scale(.1 -.1)">
<defs>
<path id="af" d="m8.2031 72.906h46.875v-4.2031l-26.469-68.703h-10.297l24.906 64.594h-35.016z"/>
</defs>
<use xlink:href="#c"/>
<use x="63.623047" xlink:href="#d"/>
<use x="95.410156" xlink:href="#af"/>
</g>
</g>
<g clip-path="url(#a)">
<g transform="translate(1587.1 228.6) scale(.1 -.1)">
<defs>
<path id="z" d="m31.781 34.625q-7.0312 0-11.062-3.7656-4.0156-3.7656-4.0156-10.344 0-6.5938 4.0156-10.359 4.0312-3.7656 11.062-3.7656t11.078 3.7812q4.0625 3.7969 4.0625 10.344 0 6.5781-4.0312 10.344-4.0156 3.7656-11.109 3.7656zm-9.8594 4.1875q-6.3438 1.5625-9.8906 5.9062-3.5312 4.3594-3.5312 10.609 0 8.7344 6.2188 13.812 6.2344 5.0781 17.062 5.0781 10.891 0 17.094-5.0781t6.2031-13.812q0-6.25-3.5469-10.609-3.5312-4.3438-9.8281-5.9062 7.125-1.6562 11.094-6.5 3.9844-4.8281 3.9844-11.797 0-10.609-6.4688-16.281-6.4688-5.6562-18.531-5.6562-12.047 0-18.531 5.6562-6.4688 5.6719-6.4688 16.281 0 6.9688 4 11.797 4.0156 4.8438 11.141 6.5zm-3.6094 15.578q0-5.6562 3.5312-8.8281 3.5469-3.1719 9.9375-3.1719 6.3594 0 9.9375 3.1719 3.5938 3.1719 3.5938 8.8281 0 5.6719-3.5938 8.8438-3.5781 3.1719-9.9375 3.1719-6.3906 0-9.9375-3.1719-3.5312-3.1719-3.5312-8.8438z"/>
</defs>
<use xlink:href="#c"/>
<use x="63.623047" xlink:href="#d"/>
<use x="95.410156" xlink:href="#z"/>
</g>
</g>
<g clip-path="url(#a)">
<g transform="translate(1363.2 768.05) scale(.1 -.1)">
<use xlink:href="#c"/>
<use x="63.623047" xlink:href="#d"/>
<use x="95.410156" xlink:href="#c"/>
<use x="159.033203" xlink:href="#c"/>
</g>
</g>
<g clip-path="url(#a)">
<g transform="translate(1482 409.14) scale(.1 -.1)">
<use xlink:href="#c"/>
<use x="63.623047" xlink:href="#d"/>
<use x="95.410156" xlink:href="#c"/>
<use x="159.033203" xlink:href="#m"/>
</g>
</g>
<g clip-path="url(#a)">
<g transform="translate(1605.4 768.05) scale(.1 -.1)">
<use xlink:href="#c"/>
<use x="63.623047" xlink:href="#d"/>
<use x="95.410156" xlink:href="#c"/>
<use x="159.033203" xlink:href="#s"/>
</g>
</g>
<g clip-path="url(#a)">
<g transform="translate(1690.7 768.05) scale(.1 -.1)">
<use xlink:href="#c"/>
<use x="63.623047" xlink:href="#d"/>
<use x="95.410156" xlink:href="#c"/>
<use x="159.033203" xlink:href="#q"/>
</g>
</g>
<g clip-path="url(#a)">
<g transform="translate(1441.6 589.06) scale(.1 -.1)">
<use xlink:href="#c"/>
<use x="63.623047" xlink:href="#d"/>
<use x="95.410156" xlink:href="#c"/>
<use x="159.033203" xlink:href="#aa"/>
</g>
</g>
<g clip-path="url(#a)">
<g transform="translate(1522.3 768.05) scale(.1 -.1)">
<use xlink:href="#c"/>
<use x="63.623047" xlink:href="#d"/>
<use x="95.410156" xlink:href="#c"/>
<use x="159.033203" xlink:href="#af"/>
</g>
</g>
<g clip-path="url(#a)">
<g transform="translate(1441.6 768.05) scale(.1 -.1)">
<use xlink:href="#c"/>
<use x="63.623047" xlink:href="#d"/>
<use x="95.410156" xlink:href="#c"/>
<use x="159.033203" xlink:href="#z"/>
</g>
</g>
<g clip-path="url(#a)">
<g transform="translate(973.48 589.06) scale(.1 -.1)">
<defs>
<path id="ah" d="m10.984 1.5156v8.9844q3.7188-1.7656 7.5156-2.6875 3.8125-0.92188 7.4844-0.92188 9.7656 0 14.906 6.5625 5.1562 6.5625 5.8906 19.953-2.8281-4.2031-7.1875-6.4531-4.3438-2.25-9.6094-2.25-10.938 0-17.312 6.6094-6.375 6.625-6.375 18.109 0 11.219 6.6406 18 6.6406 6.7969 17.672 6.7969 12.656 0 19.312-9.7031 6.6719-9.6875 6.6719-28.141 0-17.234-8.1875-27.516-8.1719-10.281-21.984-10.281-3.7188 0-7.5312 0.73438-3.7969 0.73438-7.9062 2.2031zm19.625 30.906q6.6406 0 10.516 4.5312 3.8906 4.5469 3.8906 12.469 0 7.8594-3.8906 12.422-3.875 4.5625-10.516 4.5625t-10.516-4.5625-3.875-12.422q0-7.9219 3.875-12.469 3.875-4.5312 10.516-4.5312z"/>
</defs>
<use xlink:href="#c"/>
<use x="63.623047" xlink:href="#d"/>
<use x="95.410156" xlink:href="#c"/>
<use x="159.033203" xlink:href="#ah"/>
</g>
</g>
<g clip-path="url(#a)">
<g transform="translate(1107.2 589.06) scale(.1 -.1)">
<defs>
<path id="ai" d="m31.781 66.406q-7.6094 0-11.453-7.5-3.8281-7.4844-3.8281-22.531 0-14.984 3.8281-22.484 3.8438-7.5 11.453-7.5 7.6719 0 11.5 7.5 3.8438 7.5 3.8438 22.484 0 15.047-3.8438 22.531-3.8281 7.5-11.5 7.5zm0 7.8125q12.266 0 18.734-9.7031 6.4688-9.6875 6.4688-28.141 0-18.406-6.4688-28.109-6.4688-9.6875-18.734-9.6875-12.25 0-18.719 9.6875-6.4688 9.7031-6.4688 28.109 0 18.453 6.4688 28.141 6.4688 9.7031 18.719 9.7031z"/>
</defs>
<use xlink:href="#c"/>
<use x="63.623047" xlink:href="#d"/>
<use x="95.410156" xlink:href="#m"/>
<use x="159.033203" xlink:href="#ai"/>
</g>
</g>
<g clip-path="url(#a)">
<g transform="translate(1213.3 589.06) scale(.1 -.1)">
<use xlink:href="#c"/>
<use x="63.623047" xlink:href="#d"/>
<use x="95.410156" xlink:href="#m"/>
<use x="159.033203" xlink:href="#c"/>
</g>
</g>
<g clip-path="url(#a)">
<g transform="translate(1213.3 768.05) scale(.1 -.1)">
<use xlink:href="#c"/>
<use x="63.623047" xlink:href="#d"/>
<use x="95.410156" xlink:href="#m"/>
<use x="159.033203" xlink:href="#m"/>
</g>
</g>
<g clip-path="url(#a)">
<g transform="translate(1072.6 768.05) scale(.1 -.1)">
<use xlink:href="#c"/>
<use x="63.623047" xlink:href="#d"/>
<use x="95.410156" xlink:href="#m"/>
<use x="159.033203" xlink:href="#s"/>
</g>
</g>
<g clip-path="url(#a)">
<g transform="translate(1141.8 768.05) scale(.1 -.1)">
<use xlink:href="#c"/>
<use x="63.623047" xlink:href="#d"/>
<use x="95.410156" xlink:href="#m"/>
<use x="159.033203" xlink:href="#q"/>
</g>
</g>
<g clip-path="url(#a)">
<g transform="translate(941.19 768.05) scale(.1 -.1)">
<use xlink:href="#c"/>
<use x="63.623047" xlink:href="#d"/>
<use x="95.410156" xlink:href="#m"/>
<use x="159.033203" xlink:href="#p"/>
</g>
</g>
<g clip-path="url(#a)">
<g transform="translate(1005.8 768.05) scale(.1 -.1)">
<use xlink:href="#c"/>
<use x="63.623047" xlink:href="#d"/>
<use x="95.410156" xlink:href="#m"/>
<use x="159.033203" xlink:href="#aa"/>
</g>
</g>
<g clip-path="url(#a)">
<g transform="translate(507.63 768.05) scale(.1 -.1)">
<use xlink:href="#c"/>
<use x="63.623047" xlink:href="#d"/>
<use x="95.410156" xlink:href="#m"/>
<use x="159.033203" xlink:href="#af"/>
</g>
</g>
<g clip-path="url(#a)">
<g transform="translate(671.83 409.14) scale(.1 -.1)">
<use xlink:href="#c"/>
<use x="63.623047" xlink:href="#d"/>
<use x="95.410156" xlink:href="#m"/>
<use x="159.033203" xlink:href="#z"/>
</g>
</g>
<g clip-path="url(#a)">
<g transform="translate(553.76 768.05) scale(.1 -.1)">
<use xlink:href="#c"/>
<use x="63.623047" xlink:href="#d"/>
<use x="95.410156" xlink:href="#m"/>
<use x="159.033203" xlink:href="#ah"/>
</g>
</g>
<g clip-path="url(#a)">
<g transform="translate(602.19 768.05) scale(.1 -.1)">
<use xlink:href="#c"/>
<use x="63.623047" xlink:href="#d"/>
<use x="95.410156" xlink:href="#s"/>
<use x="159.033203" xlink:href="#ai"/>
</g>
</g>
<g clip-path="url(#a)">
<g transform="translate(735.94 589.06) scale(.1 -.1)">
<use xlink:href="#c"/>
<use x="63.623047" xlink:href="#d"/>
<use x="95.410156" xlink:href="#s"/>
<use x="159.033203" xlink:href="#c"/>
</g>
</g>
<g clip-path="url(#a)">
<g transform="translate(761.31 768.05) scale(.1 -.1)">
<use xlink:href="#c"/>
<use x="63.623047" xlink:href="#d"/>
<use x="95.410156" xlink:href="#s"/>
<use x="159.033203" xlink:href="#m"/>
</g>
</g>
<g clip-path="url(#a)">
<g transform="translate(652.92 768.05) scale(.1 -.1)">
<use xlink:href="#c"/>
<use x="63.623047" xlink:href="#d"/>
<use x="95.410156" xlink:href="#s"/>
<use x="159.033203" xlink:href="#q"/>
</g>
</g>
<g clip-path="url(#a)">
<g transform="translate(818.96 768.05) scale(.1 -.1)">
<use xlink:href="#c"/>
<use x="63.623047" xlink:href="#d"/>
<use x="95.410156" xlink:href="#s"/>
<use x="159.033203" xlink:href="#p"/>
</g>
</g>
<g clip-path="url(#a)">
<g transform="translate(249.35 768.05) scale(.1 -.1)">
<use xlink:href="#c"/>
<use x="63.623047" xlink:href="#d"/>
<use x="95.410156" xlink:href="#s"/>
<use x="159.033203" xlink:href="#aa"/>
</g>
</g>
<g clip-path="url(#a)">
<g transform="translate(279.33 768.05) scale(.1 -.1)">
<use xlink:href="#c"/>
<use x="63.623047" xlink:href="#d"/>
<use x="95.410156" xlink:href="#s"/>
<use x="159.033203" xlink:href="#af"/>
</g>
</g>
<g clip-path="url(#a)">
<g transform="translate(311.61 768.05) scale(.1 -.1)">
<use xlink:href="#c"/>
<use x="63.623047" xlink:href="#d"/>
<use x="95.410156" xlink:href="#s"/>
<use x="159.033203" xlink:href="#z"/>
</g>
</g>
<g clip-path="url(#a)">
<g transform="translate(383.87 589.06) scale(.1 -.1)">
<use xlink:href="#c"/>
<use x="63.623047" xlink:href="#d"/>
<use x="95.410156" xlink:href="#s"/>
<use x="159.033203" xlink:href="#ah"/>
</g>
</g>
<g clip-path="url(#a)">
<g transform="translate(346.2 768.05) scale(.1 -.1)">
<use xlink:href="#c"/>
<use x="63.623047" xlink:href="#d"/>
<use x="95.410156" xlink:href="#q"/>
<use x="159.033203" xlink:href="#ai"/>
</g>
</g>
<g clip-path="url(#a)">
<g transform="translate(383.1 768.05) scale(.1 -.1)">
<use xlink:href="#c"/>
<use x="63.623047" xlink:href="#d"/>
<use x="95.410156" xlink:href="#q"/>
<use x="159.033203" xlink:href="#c"/>
</g>
</g>
<g clip-path="url(#a)">
<g transform="translate(422.31 768.05) scale(.1 -.1)">
<use xlink:href="#c"/>
<use x="63.623047" xlink:href="#d"/>
<use x="95.410156" xlink:href="#q"/>
<use x="159.033203" xlink:href="#m"/>
</g>
</g>
<g clip-path="url(#a)">
<g transform="translate(81.766 589.06) scale(.1 -.1)">
<use xlink:href="#c"/>
<use x="63.623047" xlink:href="#d"/>
<use x="95.410156" xlink:href="#q"/>
<use x="159.033203" xlink:href="#q"/>
</g>
</g>
<g clip-path="url(#a)">
<g transform="translate(123.66 768.05) scale(.1 -.1)">
<use xlink:href="#c"/>
<use x="63.623047" xlink:href="#d"/>
<use x="95.410156" xlink:href="#q"/>
<use x="159.033203" xlink:href="#p"/>
</g>
</g>
<g clip-path="url(#a)">
<g transform="translate(171.71 589.06) scale(.1 -.1)">
<use xlink:href="#c"/>
<use x="63.623047" xlink:href="#d"/>
<use x="95.410156" xlink:href="#q"/>
<use x="159.033203" xlink:href="#aa"/>
</g>
</g>
<g clip-path="url(#a)">
<g transform="translate(150.18 768.05) scale(.1 -.1)">
<use xlink:href="#c"/>
<use x="63.623047" xlink:href="#d"/>
<use x="95.410156" xlink:href="#q"/>
<use x="159.033203" xlink:href="#z"/>
</g>
</g>
<g clip-path="url(#a)">
<g transform="translate(170.94 768.05) scale(.1 -.1)">
<use xlink:href="#c"/>
<use x="63.623047" xlink:href="#d"/>
<use x="95.410156" xlink:href="#q"/>
<use x="159.033203" xlink:href="#ah"/>
</g>
</g>
<g clip-path="url(#a)">
<g transform="translate(194 768.05) scale(.1 -.1)">
<use xlink:href="#c"/>
<use x="63.623047" xlink:href="#d"/>
<use x="95.410156" xlink:href="#p"/>
<use x="159.033203" xlink:href="#ai"/>
</g>
</g>
<g clip-path="url(#a)">
<g transform="translate(74.079 768.05) scale(.1 -.1)">
<use xlink:href="#c"/>
<use x="63.623047" xlink:href="#d"/>
<use x="95.410156" xlink:href="#p"/>
<use x="159.033203" xlink:href="#c"/>
</g>
</g>
<g clip-path="url(#a)">
<g transform="translate(80.998 768.05) scale(.1 -.1)">
<use xlink:href="#c"/>
<use x="63.623047" xlink:href="#d"/>
<use x="95.410156" xlink:href="#p"/>
<use x="159.033203" xlink:href="#m"/>
</g>
</g>
<g clip-path="url(#a)">
<g transform="translate(90.222 768.05) scale(.1 -.1)">
<use xlink:href="#c"/>
<use x="63.623047" xlink:href="#d"/>
<use x="95.410156" xlink:href="#p"/>
<use x="159.033203" xlink:href="#s"/>
</g>
</g>
<g clip-path="url(#a)">
<g transform="translate(101.75 768.05) scale(.1 -.1)">
<use xlink:href="#c"/>
<use x="63.623047" xlink:href="#d"/>
<use x="95.410156" xlink:href="#p"/>
<use x="159.033203" xlink:href="#q"/>
</g>
</g>
<g clip-path="url(#a)">
<g transform="translate(221.67 768.05) scale(.1 -.1)">
<use xlink:href="#c"/>
<use x="63.623047" xlink:href="#d"/>
<use x="95.410156" xlink:href="#p"/>
<use x="159.033203" xlink:href="#p"/>
</g>
</g>
<g clip-path="url(#a)">
<g transform="translate(705.96 768.05) scale(.1 -.1)">
<use xlink:href="#c"/>
<use x="63.623047" xlink:href="#d"/>
<use x="95.410156" xlink:href="#p"/>
<use x="159.033203" xlink:href="#aa"/>
</g>
</g>
<g clip-path="url(#a)">
<g transform="translate(878.92 768.05) scale(.1 -.1)">
<use xlink:href="#c"/>
<use x="63.623047" xlink:href="#d"/>
<use x="95.410156" xlink:href="#p"/>
<use x="159.033203" xlink:href="#af"/>
</g>
</g>
<g clip-path="url(#a)">
<g transform="translate(1778.3 768.05) scale(.1 -.1)">
<use xlink:href="#c"/>
<use x="63.623047" xlink:href="#d"/>
<use x="95.410156" xlink:href="#p"/>
<use x="159.033203" xlink:href="#z"/>
</g>
</g>
<defs>
<clipPath id="a">
<rect width="1874.7" height="986.67"/>
</clipPath>
</defs>
</svg>
