<?xml version="1.0" encoding="UTF-8"?>
<!DOCTYPE svg  PUBLIC '-//W3C//DTD SVG 1.1//EN'  'http://www.w3.org/Graphics/SVG/1.1/DTD/svg11.dtd'>
<svg width="1317.3pt" height="693.33pt" version="1.1" viewBox="0 0 1317.3 693.33" xmlns="http://www.w3.org/2000/svg" xmlns:xlink="http://www.w3.org/1999/xlink">
<metadata>
<rdf:RDF xmlns:cc="http://creativecommons.org/ns#" xmlns:dc="http://purl.org/dc/elements/1.1/" xmlns:rdf="http://www.w3.org/1999/02/22-rdf-syntax-ns#">
<cc:Work>
<dc:type rdf:resource="http://purl.org/dc/dcmitype/StillImage"/>
<dc:date>2021-02-25T11:30:57.281101</dc:date>
<dc:format>image/svg+xml</dc:format>
<dc:creator>
<cc:Agent>
<dc:title>Matplotlib v3.3.3, https://matplotlib.org/</dc:title>
</cc:Agent>
</dc:creator>
</cc:Work>
</rdf:RDF>
</metadata>
<defs>
<style type="text/css">*{stroke-linecap:butt;stroke-linejoin:round;}</style>
</defs>
<path d="m0 693.33h1317.3v-693.33h-1317.3z" fill="#fff"/>
<g fill="none" stroke="#000">
<path d="m219.75 31.515-151.89 422.5" clip-path="url(#a)"/>
<path d="m219.75 31.515 273.44 106.01" clip-path="url(#a)"/>
<path d="m219.75 31.515-121.55 527.12" clip-path="url(#a)"/>
<path d="m67.863 454.01-7.9838 104.62" clip-path="url(#a)"/>
<path d="m67.863 454.01 7.9838 104.62" clip-path="url(#a)"/>
<path d="m493.19 137.52-326.32 211.32" clip-path="url(#a)"/>
<path d="m493.19 137.52-59.664 421.11" clip-path="url(#a)"/>
<path d="m493.19 137.52-8.5673 421.11" clip-path="url(#a)"/>
<path d="m493.19 137.52 45.723 421.11" clip-path="url(#a)"/>
<path d="m493.19 137.52 103.21 421.11" clip-path="url(#a)"/>
<path d="m493.19 137.52 341.59 105.79" clip-path="url(#a)"/>
<path d="m493.19 137.52-152.28 421.11" clip-path="url(#a)"/>
<path d="m493.19 137.52-107.57 421.11" clip-path="url(#a)"/>
<path d="m493.19 137.52 163.88 421.11" clip-path="url(#a)"/>
<path d="m166.86 348.84-49.5 209.79" clip-path="url(#a)"/>
<path d="m166.86 348.84-27.145 209.79" clip-path="url(#a)"/>
<path d="m166.86 348.84-1.5968 209.79" clip-path="url(#a)"/>
<path d="m166.86 348.84 78.242 105.17" clip-path="url(#a)"/>
<path d="m433.52 558.63v103.19" clip-path="url(#a)"/>
<path d="m484.62 558.63v103.19" clip-path="url(#a)"/>
<path d="m538.91 558.63v103.19" clip-path="url(#a)"/>
<path d="m596.39 558.63v103.19" clip-path="url(#a)"/>
<path d="m834.77 243.32-113.83 315.32" clip-path="url(#a)"/>
<path d="m834.77 243.32-46.768 315.32" clip-path="url(#a)"/>
<path d="m834.77 243.32 160.6 105.53" clip-path="url(#a)"/>
<path d="m720.94 558.63v103.19" clip-path="url(#a)"/>
<path d="m788 558.63v103.19" clip-path="url(#a)"/>
<path d="m995.37 348.84 92.825 209.79" clip-path="url(#a)"/>
<path d="m995.37 348.84-98.787 105.17" clip-path="url(#a)"/>
<path d="m995.37 348.84 5.9613 105.17" clip-path="url(#a)"/>
<path d="m1088.2 558.63v103.19" clip-path="url(#a)"/>
<path d="m896.59 454.01-108.58 104.62" clip-path="url(#a)" stroke-dasharray="3.7,1.6"/>
<path d="m896.59 454.01-38.322 104.62" clip-path="url(#a)"/>
<path d="m896.59 454.01 35.129 104.62" clip-path="url(#a)"/>
<path d="m896.59 454.01 111.77 104.62" clip-path="url(#a)"/>
<path d="m1001.3 454.01-213.33 104.62" clip-path="url(#a)" stroke-dasharray="3.7,1.6"/>
<path d="m1001.3 454.01 169.9 104.62" clip-path="url(#a)"/>
<path d="m1001.3 454.01-143.07 104.62" clip-path="url(#a)" stroke-dasharray="3.7,1.6"/>
<path d="m1001.3 454.01-69.619 104.62" clip-path="url(#a)" stroke-dasharray="3.7,1.6"/>
<path d="m1001.3 454.01 256.12 104.62" clip-path="url(#a)"/>
<path d="m1171.2 558.63v103.19" clip-path="url(#a)"/>
<path d="m858.26 558.63v103.19" clip-path="url(#a)"/>
<path d="m931.71 558.63v103.19" clip-path="url(#a)"/>
<path d="m1008.4 558.63v103.19" clip-path="url(#a)"/>
<path d="m117.36 558.63v103.19" clip-path="url(#a)"/>
<path d="m139.72 558.63v103.19" clip-path="url(#a)"/>
<path d="m165.27 558.63v103.19" clip-path="url(#a)"/>
<path d="m245.1 454.01-51.097 104.62" clip-path="url(#a)"/>
<path d="m245.1 454.01-19.161 104.62" clip-path="url(#a)"/>
<path d="m245.1 454.01 15.968 104.62" clip-path="url(#a)"/>
<path d="m245.1 454.01 54.29 104.62" clip-path="url(#a)"/>
<path d="m194.01 558.63v103.19" clip-path="url(#a)"/>
<path d="m225.94 558.63v103.19" clip-path="url(#a)"/>
<path d="m261.07 558.63v103.19" clip-path="url(#a)"/>
<path d="m299.39 558.63v103.19" clip-path="url(#a)"/>
<path d="m59.879 558.63v103.19" clip-path="url(#a)"/>
<path d="m75.846 558.63-6.3871 103.19" clip-path="url(#a)"/>
<path d="m75.846 558.63 6.3871 103.19" clip-path="url(#a)"/>
<path d="m98.201 558.63v103.19" clip-path="url(#a)"/>
<path d="m340.91 558.63v103.19" clip-path="url(#a)"/>
<path d="m385.62 558.63v103.19" clip-path="url(#a)"/>
<path d="m657.07 558.63v103.19" clip-path="url(#a)"/>
<path d="m1257.5 558.63v103.19" clip-path="url(#a)"/>
</g>
<path d="m148.69 247.72 2.0353-5.6615q0.81192-2.2585-1.4466-3.0704l-7.286-2.6193q-2.2585-0.81192-3.0704 1.4466l-2.0353 5.6615q-0.81192 2.2585 1.4466 3.0704l7.286 2.6193q2.2585 0.81192 3.0704-1.4466z" clip-path="url(#a)" fill="#fff" stroke="#fff"/>
<g clip-path="url(#a)">
<g transform="translate(144.87 246.34) rotate(-70.227) scale(.08 -.08)">
<defs>
<path id="v" d="m9.8125 72.906h9.8594v-29.891h35.844v29.891h9.8594v-72.906h-9.8594v34.719h-35.844v-34.719h-9.8594z"/>
</defs>
<use xlink:href="#v"/>
</g>
</g>
<path d="m351.4 89.279 5.6094 2.1747q2.2377 0.86753 3.1053-1.3702l2.7987-7.219q0.86753-2.2377-1.3702-3.1053l-5.6095-2.1747q-2.2377-0.86753-3.1053 1.3702l-2.7987 7.219q-0.86753 2.2377 1.3702 3.1053z" clip-path="url(#a)" fill="#fff" stroke="#fff"/>
<g clip-path="url(#a)">
<g transform="translate(352.87 85.49) rotate(21.191) scale(.08 -.08)">
<use xlink:href="#v"/>
</g>
</g>
<path d="m164.43 299.34 1.3156-5.7053q0.53927-2.3386-1.7994-2.8779l-7.5445-1.7397q-2.3386-0.53927-2.8779 1.7994l-1.3156 5.7053q-0.53927 2.3386 1.7994 2.8779l7.5445 1.7397q2.3386 0.53927 2.8779-1.7994z" clip-path="url(#a)" fill="#fff" stroke="#fff"/>
<g clip-path="url(#a)">
<g transform="translate(160.47 298.42) rotate(-77.015) scale(.08 -.08)">
<defs>
<path id="r" d="m8.6875 72.906h9.9219v-44.297q0-11.719 4.2344-16.875 4.25-5.1406 13.781-5.1406 9.4688 0 13.719 5.1406 4.25 5.1562 4.25 16.875v44.297h9.9062v-45.516q0-14.25-7.0625-21.531-7.0469-7.2812-20.812-7.2812-13.828 0-20.891 7.2812-7.0469 7.2812-7.0469 21.531z"/>
</defs>
<use xlink:href="#r"/>
</g>
</g>
<path d="m69.931 509.33 0.38645-5.064q0.18262-2.393-2.2104-2.5757l-7.7201-0.58914q-2.393-0.18262-2.5757 2.2104l-0.38645 5.064q-0.18262 2.393 2.2104 2.5757l7.7201 0.58914q2.393 0.18262 2.5757-2.2104z" clip-path="url(#a)" fill="#fff" stroke="#fff"/>
<g clip-path="url(#a)">
<g transform="translate(65.879 509.02) rotate(-85.636) scale(.08 -.08)">
<defs>
<path id="t" d="m53.516 70.516v-9.625q-5.6094 2.6875-10.594 4-4.9844 1.3281-9.625 1.3281-8.0469 0-12.422-3.125t-4.375-8.8906q0-4.8438 2.9062-7.3125 2.9062-2.4531 11.016-3.9688l5.9531-1.2188q11.031-2.1094 16.281-7.4062t5.25-14.172q0-10.609-7.1094-16.078-7.0938-5.4688-20.812-5.4688-5.1719 0-11.016 1.1719-5.8281 1.1719-12.078 3.4688v10.156q6-3.3594 11.766-5.0781 5.7656-1.7031 11.328-1.7031 8.4375 0 13.031 3.3125 4.5938 3.3281 4.5938 9.4844 0 5.3594-3.2969 8.3906t-10.812 4.5469l-6.0156 1.1719q-11.031 2.1875-15.969 6.875-4.9219 4.6875-4.9219 13.047 0 9.6719 6.8125 15.234t18.766 5.5625q5.1406 0 10.453-0.9375 5.3281-0.92188 10.891-2.7656z"/>
</defs>
<use xlink:href="#t"/>
</g>
</g>
<path d="m65.393 504.07 0.41641 5.4566q0.18262 2.393 2.5757 2.2104l7.7201-0.58914q2.393-0.18262 2.2104-2.5757l-0.41641-5.4566q-0.18262-2.393-2.5757-2.2104l-7.7201 0.58914q-2.393 0.18262-2.2104 2.5757z" clip-path="url(#a)" fill="#fff" stroke="#fff"/>
<g clip-path="url(#a)">
<g transform="translate(69.445 503.76) rotate(85.636) scale(.08 -.08)">
<defs>
<path id="p" d="m34.188 63.188-13.391-36.281h26.812zm-5.5781 9.7188h11.188l27.781-72.906h-10.25l-6.6406 18.703h-32.859l-6.6406-18.703h-10.406z"/>
</defs>
<use xlink:href="#p"/>
</g>
</g>
<path d="m331.14 249.93 4.5935-2.9746q2.0145-1.3045 0.70994-3.319l-4.2085-6.4988q-1.3045-2.0145-3.319-0.70994l-4.5935 2.9746q-2.0145 1.3045-0.70994 3.319l4.2085 6.4988q1.3045 2.0145 3.319 0.70994z" clip-path="url(#a)" fill="#fff" stroke="#fff"/>
<g clip-path="url(#a)">
<g transform="translate(328.93 246.52) rotate(-32.926) scale(.08 -.08)">
<use xlink:href="#p"/>
</g>
</g>
<path d="m469.18 351.67 0.76769-5.4184q0.33668-2.3763-2.0396-2.7129l-7.6659-1.0861q-2.3763-0.33668-2.7129 2.0396l-0.76769 5.4184q-0.33668 2.3763 2.0396 2.7129l7.6659 1.0861q2.3763 0.33668 2.7129-2.0396z" clip-path="url(#a)" fill="#fff" stroke="#fff"/>
<g clip-path="url(#a)">
<g transform="translate(465.16 351.1) rotate(-81.936) scale(.08 -.08)">
<use xlink:href="#p"/>
</g>
</g>
<path d="m495.13 350.51 0.093591-4.6003q0.048817-2.3995-2.3507-2.4483l-7.7409-0.15749q-2.3995-0.048817-2.4483 2.3507l-0.093591 4.6003q-0.048817 2.3995 2.3507 2.4483l7.7409 0.15749q2.3995 0.048817 2.4483-2.3507z" clip-path="url(#a)" fill="#fff" stroke="#fff"/>
<g clip-path="url(#a)">
<g transform="translate(491.06 350.42) rotate(-88.834) scale(.08 -.08)">
<defs>
<path id="w" d="m9.8125 72.906h41.891v-8.3125h-32.031v-21.484h28.906v-8.2969h-28.906v-34.812h-9.8594z"/>
</defs>
<use xlink:href="#w"/>
</g>
</g>
<path d="m509.55 346.36 0.52069 4.7956q0.25906 2.386 2.645 2.1269l7.6973-0.83574q2.386-0.25906 2.1269-2.645l-0.52069-4.7956q-0.25906-2.386-2.645-2.1269l-7.6973 0.83574q-2.386 0.25906-2.1269 2.645z" clip-path="url(#a)" fill="#fff" stroke="#fff"/>
<g clip-path="url(#a)">
<g transform="translate(513.59 345.92) rotate(83.803) scale(.08 -.08)">
<defs>
<path id="as" d="m19.672 64.797v-27.391h12.406q6.8906 0 10.641 3.5625 3.7656 3.5625 3.7656 10.156 0 6.5469-3.7656 10.109-3.75 3.5625-10.641 3.5625zm-9.8594 8.1094h22.266q12.266 0 18.531-5.5469 6.2812-5.5469 6.2812-16.234 0-10.797-6.2812-16.312-6.2656-5.5156-18.531-5.5156h-12.406v-29.297h-9.8594z"/>
</defs>
<use xlink:href="#as"/>
</g>
</g>
<path d="m537.97 346.58 1.4663 5.9829q0.57129 2.331 2.9023 1.7597l7.52-1.843q2.331-0.57129 1.7597-2.9023l-1.4663-5.9829q-0.57129-2.331-2.9023-1.7597l-7.52 1.843q-2.331 0.57129-1.7597 2.9023z" clip-path="url(#a)" fill="#fff" stroke="#fff"/>
<g clip-path="url(#a)">
<g transform="translate(541.91 345.61) rotate(76.229) scale(.08 -.08)">
<defs>
<path id="ah" d="m19.672 64.797v-56.688h11.922q15.094 0 22.094 6.8281 7 6.8438 7 21.594 0 14.641-7 21.453t-22.094 6.8125zm-9.8594 8.1094h20.266q21.188 0 31.094-8.8125 9.9219-8.8125 9.9219-27.562 0-18.859-9.9688-27.703-9.9531-8.8281-31.047-8.8281h-20.266z"/>
</defs>
<use xlink:href="#ah"/>
</g>
</g>
<path d="m659.51 195.6 5.2275 1.619q2.2926 0.71004 3.0026-1.5825l2.2906-7.3959q0.71004-2.2926-1.5825-3.0026l-5.2275-1.619q-2.2926-0.71004-3.0026 1.5825l-2.2906 7.3959q-0.71004 2.2926 1.5825 3.0026z" clip-path="url(#a)" fill="#fff" stroke="#fff"/>
<g clip-path="url(#a)">
<g transform="translate(660.71 191.72) rotate(17.208) scale(.08 -.08)">
<use xlink:href="#p"/>
</g>
</g>
<path d="m421.95 352.96 1.991-5.5061q0.81614-2.257-1.4408-3.0731l-7.2811-2.6329q-2.257-0.81614-3.0731 1.4408l-1.991 5.5061q-0.81614 2.257 1.4408 3.0731l7.2811 2.6329q2.257 0.81614 3.0731-1.4408z" clip-path="url(#a)" fill="#fff" stroke="#fff"/>
<g clip-path="url(#a)">
<g transform="translate(418.13 351.58) rotate(-70.12) scale(.08 -.08)">
<use xlink:href="#r"/>
</g>
</g>
<path d="m444.75 352.47 1.4491-5.6729q0.59398-2.3253-1.7314-2.9193l-7.5016-1.9162q-2.3253-0.59398-2.9193 1.7314l-1.4491 5.6729q-0.59398 2.3253 1.7314 2.9193l7.5016 1.9162q2.3253 0.59398 2.9193-1.7314z" clip-path="url(#a)" fill="#fff" stroke="#fff"/>
<g clip-path="url(#a)">
<g transform="translate(440.82 351.46) rotate(-75.671) scale(.08 -.08)">
<use xlink:href="#r"/>
</g>
</g>
<path d="m568.22 347.62 2.1235 5.4564q0.87042 2.2366 3.107 1.3662l7.2154-2.808q2.2366-0.87042 1.3662-3.107l-2.1235-5.4564q-0.87042-2.2366-3.107-1.3662l-7.2154 2.808q-2.2366 0.87042-1.3662 3.107z" clip-path="url(#a)" fill="#fff" stroke="#fff"/>
<g clip-path="url(#a)">
<g transform="translate(572.01 346.15) rotate(68.736) scale(.08 -.08)">
<use xlink:href="#r"/>
</g>
</g>
<path d="m147.58 457.88 1.2765-5.4102q0.55114-2.3359-1.7847-2.887l-7.5356-1.778q-2.3359-0.55114-2.887 1.7847l-1.2765 5.4102q-0.55115 2.3359 1.7847 2.887l7.5356 1.778q2.3359 0.55114 2.887-1.7847z" clip-path="url(#a)" fill="#fff" stroke="#fff"/>
<g clip-path="url(#a)">
<g transform="translate(143.62 456.95) rotate(-76.724) scale(.08 -.08)">
<defs>
<path id="u" d="m44.391 34.188q3.1719-1.0781 6.1719-4.5938t6.0312-9.6719l10.016-19.922h-10.609l-9.3125 18.703q-3.625 7.3281-7.0156 9.7188t-9.25 2.3906h-10.75v-30.812h-9.8594v72.906h22.266q12.5 0 18.656-5.2344 6.1562-5.2188 6.1562-15.766 0-6.8906-3.2031-11.438-3.2031-4.5312-9.2969-6.2812zm-24.719 30.609v-25.875h12.406q7.125 0 10.766 3.2969t3.6406 9.6875-3.6406 9.6406-10.766 3.25z"/>
</defs>
<use xlink:href="#u"/>
</g>
</g>
<path d="m159.21 456.82 0.59044-4.5632q0.30797-2.3802-2.0722-2.6881l-7.6785-0.99353q-2.3802-0.30797-2.6881 2.0722l-0.59044 4.5632q-0.30797 2.3802 2.0722 2.6881l7.6785 0.99353q2.3802 0.30797 2.6881-2.0722z" clip-path="url(#a)" fill="#fff" stroke="#fff"/>
<g clip-path="url(#a)">
<g transform="translate(155.18 456.3) rotate(-82.627) scale(.08 -.08)">
<use xlink:href="#w"/>
</g>
</g>
<path d="m172.31 456.58 0.042517-5.5861q0.018267-2.3999-2.3817-2.4182l-7.7423-0.058929q-2.3999-0.018267-2.4182 2.3817l-0.042518 5.5861q-0.018266 2.3999 2.3817 2.4182l7.7423 0.058929q2.3999 0.018266 2.4182-2.3817z" clip-path="url(#a)" fill="#fff" stroke="#fff"/>
<g clip-path="url(#a)">
<g transform="translate(168.25 456.55) rotate(-89.564) scale(.08 -.08)">
<defs>
<path id="ai" d="m64.406 67.281v-10.391q-4.9844 4.6406-10.625 6.9219-5.6406 2.2969-11.984 2.2969-12.5 0-19.141-7.6406t-6.6406-22.094q0-14.406 6.6406-22.047t19.141-7.6406q6.3438 0 11.984 2.2969t10.625 6.9375v-10.312q-5.1719-3.5156-10.969-5.2812-5.7812-1.75-12.219-1.75-16.562 0-26.094 10.125-9.5156 10.141-9.5156 27.672 0 17.578 9.5156 27.703 9.5312 10.141 26.094 10.141 6.5312 0 12.312-1.7344 5.7969-1.7344 10.875-5.2031z"/>
</defs>
<use xlink:href="#ai"/>
</g>
</g>
<path d="m199.44 403.14 3.0173 4.0557q1.4325 1.9256 3.3581 0.49302l6.212-4.6215q1.9256-1.4325 0.49302-3.3581l-3.0173-4.0557q-1.4325-1.9256-3.3581-0.49302l-6.212 4.6215q-1.9256 1.4325-0.49302 3.3581z" clip-path="url(#a)" fill="#fff" stroke="#fff"/>
<g clip-path="url(#a)">
<g transform="translate(202.7 400.72) rotate(53.352) scale(.08 -.08)">
<defs>
<path id="ag" d="m9.8125 72.906h46.094v-8.3125h-36.234v-21.578h34.719v-8.2969h-34.719v-26.422h37.109v-8.2969h-46.969z"/>
</defs>
<use xlink:href="#ag"/>
</g>
</g>
<path d="m427.25 593.32v33.808q0 2.4 2.4 2.4h7.7425q2.4 0 2.4-2.4v-33.808q0-2.4-2.4-2.4h-7.7425q-2.4 0-2.4 2.4z" clip-path="url(#a)" fill="#fff" stroke="#fff"/>
<g clip-path="url(#a)">
<g transform="translate(431.31 593.32) rotate(90) scale(.08 -.08)">
<defs>
<path id="l" d="m-0.29688 72.906h61.672v-8.3125h-25.875v-64.594h-9.9062v64.594h-25.891z"/>
<path id="d" d="m56.203 29.594v-4.3906h-41.312q0.59375-9.2812 5.5938-14.141t13.938-4.8594q5.1719 0 10.031 1.2656t9.6562 3.8125v-8.5q-4.8438-2.0469-9.9219-3.125t-10.297-1.0781q-13.094 0-20.734 7.6094-7.6406 7.625-7.6406 20.625 0 13.422 7.25 21.297 7.25 7.8906 19.562 7.8906 11.031 0 17.453-7.1094 6.4219-7.0938 6.4219-19.297zm-8.9844 2.6406q-0.09375 7.3594-4.125 11.75-4.0312 4.4062-10.672 4.4062-7.5156 0-12.031-4.25t-5.2031-11.969z"/>
<path id="h" d="m41.109 46.297q-1.5156 0.875-3.2969 1.2812-1.7812 0.42188-3.9219 0.42188-7.625 0-11.703-4.9531t-4.0781-14.234v-28.812h-9.0312v54.688h9.0312v-8.5q2.8438 4.9844 7.375 7.3906 4.5469 2.4219 11.047 2.4219 0.92188 0 2.0469-0.125 1.125-0.10938 2.4844-0.35938z"/>
<path id="k" d="m52 44.188q3.375 6.0625 8.0625 8.9375t11.031 2.875q8.5469 0 13.188-5.9844 4.6406-5.9688 4.6406-17v-33.016h-9.0312v32.719q0 7.8594-2.7969 11.656-2.7812 3.8125-8.4844 3.8125-6.9844 0-11.047-4.6406-4.0469-4.625-4.0469-12.641v-30.906h-9.0312v32.719q0 7.9062-2.7812 11.688t-8.5938 3.7812q-6.8906 0-10.953-4.6562-4.0469-4.6562-4.0469-12.625v-30.906h-9.0312v54.688h9.0312v-8.5q3.0781 5.0312 7.375 7.4219t10.203 2.3906q5.9688 0 10.141-3.0312 4.1719-3.0156 6.1719-8.7812z"/>
<path id="j" d="m9.4219 54.688h8.9844v-54.688h-8.9844zm0 21.297h8.9844v-11.391h-8.9844z"/>
<path id="f" d="m54.891 33.016v-33.016h-8.9844v32.719q0 7.7656-3.0312 11.609-3.0312 3.8594-9.0781 3.8594-7.2812 0-11.484-4.6406-4.2031-4.625-4.2031-12.641v-30.906h-9.0312v54.688h9.0312v-8.5q3.2344 4.9375 7.5938 7.375 4.375 2.4375 10.094 2.4375 9.4219 0 14.25-5.8281 4.8438-5.8281 4.8438-17.156z"/>
<path id="g" d="m34.281 27.484q-10.891 0-15.094-2.4844t-4.2031-8.5q0-4.7812 3.1562-7.5938 3.1562-2.7969 8.5625-2.7969 7.4844 0 12 5.2969t4.5156 14.078v2zm17.922 3.7188v-31.203h-8.9844v8.2969q-3.0781-4.9688-7.6719-7.3438t-11.234-2.375q-8.3906 0-13.359 4.7188-4.9531 4.7188-4.9531 12.625 0 9.2188 6.1719 13.906 6.1875 4.6875 18.438 4.6875h12.609v0.89062q0 6.2031-4.0781 9.5938t-11.453 3.3906q-4.6875 0-9.1406-1.125-4.4375-1.125-8.5312-3.375v8.3125q4.9219 1.9062 9.5625 2.8438 4.6406 0.95312 9.0312 0.95312 11.875 0 17.734-6.1562 5.8594-6.1406 5.8594-18.641z"/>
<path id="i" d="m9.4219 75.984h8.9844v-75.984h-8.9844z"/>
</defs>
<use xlink:href="#l"/>
<use x="44.083984" xlink:href="#d"/>
<use x="105.607422" xlink:href="#h"/>
<use x="144.970703" xlink:href="#k"/>
<use x="242.382812" xlink:href="#j"/>
<use x="270.166016" xlink:href="#f"/>
<use x="333.544922" xlink:href="#g"/>
<use x="394.824219" xlink:href="#i"/>
</g>
</g>
<path d="m478.35 593.32v33.808q0 2.4 2.4 2.4h7.7425q2.4 0 2.4-2.4v-33.808q0-2.4-2.4-2.4h-7.7425q-2.4 0-2.4 2.4z" clip-path="url(#a)" fill="#fff" stroke="#fff"/>
<g clip-path="url(#a)">
<g transform="translate(482.41 593.32) rotate(90) scale(.08 -.08)">
<use xlink:href="#l"/>
<use x="44.083984" xlink:href="#d"/>
<use x="105.607422" xlink:href="#h"/>
<use x="144.970703" xlink:href="#k"/>
<use x="242.382812" xlink:href="#j"/>
<use x="270.166016" xlink:href="#f"/>
<use x="333.544922" xlink:href="#g"/>
<use x="394.824219" xlink:href="#i"/>
</g>
</g>
<path d="m532.64 593.32v33.808q0 2.4 2.4 2.4h7.7425q2.4 0 2.4-2.4v-33.808q0-2.4-2.4-2.4h-7.7425q-2.4 0-2.4 2.4z" clip-path="url(#a)" fill="#fff" stroke="#fff"/>
<g clip-path="url(#a)">
<g transform="translate(536.7 593.32) rotate(90) scale(.08 -.08)">
<use xlink:href="#l"/>
<use x="44.083984" xlink:href="#d"/>
<use x="105.607422" xlink:href="#h"/>
<use x="144.970703" xlink:href="#k"/>
<use x="242.382812" xlink:href="#j"/>
<use x="270.166016" xlink:href="#f"/>
<use x="333.544922" xlink:href="#g"/>
<use x="394.824219" xlink:href="#i"/>
</g>
</g>
<path d="m590.12 593.32v33.808q0 2.4 2.4 2.4h7.7425q2.4 0 2.4-2.4v-33.808q0-2.4-2.4-2.4h-7.7425q-2.4 0-2.4 2.4z" clip-path="url(#a)" fill="#fff" stroke="#fff"/>
<g clip-path="url(#a)">
<g transform="translate(594.19 593.32) rotate(90) scale(.08 -.08)">
<use xlink:href="#l"/>
<use x="44.083984" xlink:href="#d"/>
<use x="105.607422" xlink:href="#h"/>
<use x="144.970703" xlink:href="#k"/>
<use x="242.382812" xlink:href="#j"/>
<use x="270.166016" xlink:href="#f"/>
<use x="333.544922" xlink:href="#g"/>
<use x="394.824219" xlink:href="#i"/>
</g>
</g>
<path d="m782.97 405.27 1.5624-4.3279q0.81494-2.2574-1.4425-3.0723l-7.2825-2.629q-2.2574-0.81494-3.0723 1.4425l-1.5624 4.3279q-0.81494 2.2574 1.4425 3.0723l7.2825 2.629q2.2574 0.81494 3.0723-1.4425z" clip-path="url(#a)" fill="#fff" stroke="#fff"/>
<g clip-path="url(#a)">
<g transform="translate(779.15 403.89) rotate(-70.15) scale(.08 -.08)">
<use xlink:href="#w"/>
</g>
</g>
<path d="m817.18 404.66 0.81958-5.5258q0.35211-2.374-2.0219-2.7261l-7.6587-1.1359q-2.374-0.35211-2.7261 2.0219l-0.81958 5.5258q-0.35211 2.374 2.0219 2.7261l7.6587 1.1359q2.374 0.35212 2.7261-2.0219z" clip-path="url(#a)" fill="#fff" stroke="#fff"/>
<g clip-path="url(#a)">
<g transform="translate(813.16 404.06) rotate(-81.563) scale(.08 -.08)">
<use xlink:href="#ai"/>
</g>
</g>
<path d="m909.52 299.93 4.2246 2.7759q2.0057 1.3179 3.3237-0.6878l4.2517-6.4706q1.3179-2.0057-0.6878-3.3237l-4.2246-2.7759q-2.0057-1.3179-3.3237 0.6878l-4.2517 6.4706q-1.3179 2.0057 0.68781 3.3237z" clip-path="url(#a)" fill="#fff" stroke="#fff"/>
<g clip-path="url(#a)">
<g transform="translate(911.75 296.54) rotate(33.308) scale(.08 -.08)">
<use xlink:href="#ag"/>
</g>
</g>
<path d="m714.67 593.32v33.808q0 2.4 2.4 2.4h7.7425q2.4 0 2.4-2.4v-33.808q0-2.4-2.4-2.4h-7.7425q-2.4 0-2.4 2.4z" clip-path="url(#a)" fill="#fff" stroke="#fff"/>
<g clip-path="url(#a)">
<g transform="translate(718.73 593.32) rotate(90) scale(.08 -.08)">
<use xlink:href="#l"/>
<use x="44.083984" xlink:href="#d"/>
<use x="105.607422" xlink:href="#h"/>
<use x="144.970703" xlink:href="#k"/>
<use x="242.382812" xlink:href="#j"/>
<use x="270.166016" xlink:href="#f"/>
<use x="333.544922" xlink:href="#g"/>
<use x="394.824219" xlink:href="#i"/>
</g>
</g>
<path d="m781.73 593.32v33.808q0 2.4 2.4 2.4h7.7425q2.4 0 2.4-2.4v-33.808q0-2.4-2.4-2.4h-7.7425q-2.4 0-2.4 2.4z" clip-path="url(#a)" fill="#fff" stroke="#fff"/>
<g clip-path="url(#a)">
<g transform="translate(785.8 593.32) rotate(90) scale(.08 -.08)">
<use xlink:href="#l"/>
<use x="44.083984" xlink:href="#d"/>
<use x="105.607422" xlink:href="#h"/>
<use x="144.970703" xlink:href="#k"/>
<use x="242.382812" xlink:href="#j"/>
<use x="270.166016" xlink:href="#f"/>
<use x="333.544922" xlink:href="#g"/>
<use x="394.824219" xlink:href="#i"/>
</g>
</g>
<path d="m1035.1 454.24 1.8036 4.0763q0.97111 2.1948 3.1659 1.2236l7.0804-3.1328q2.1948-0.97111 1.2236-3.1659l-1.8036-4.0763q-0.97111-2.1948-3.1659-1.2236l-7.0804 3.1328q-2.1948 0.97111-1.2236 3.1659z" clip-path="url(#a)" fill="#fff" stroke="#fff"/>
<g clip-path="url(#a)">
<g transform="translate(1038.9 452.59) rotate(66.132) scale(.08 -.08)">
<defs>
<path id="au" d="m9.8125 72.906h9.8594v-64.609h35.5v-8.2969h-45.359z"/>
</defs>
<use xlink:href="#au"/>
</g>
</g>
<path d="m948.49 407.91 4.119-4.3851q1.6431-1.7493-0.10616-3.3925l-5.6433-5.3009q-1.7493-1.6431-3.3925 0.10616l-4.119 4.3851q-1.6431 1.7493 0.10616 3.3925l5.6433 5.3009q1.7493 1.6431 3.3925-0.10616z" clip-path="url(#a)" fill="#fff" stroke="#fff"/>
<g clip-path="url(#a)">
<g transform="translate(945.53 405.13) rotate(-46.792) scale(.08 -.08)">
<use xlink:href="#v"/>
</g>
</g>
<path d="m991.92 398.78 0.34047 6.0066q0.13582 2.3962 2.532 2.2603l7.7301-0.43816q2.3962-0.13582 2.2603-2.532l-0.34047-6.0066q-0.13582-2.3962-2.532-2.2603l-7.7301 0.43816q-2.3962 0.13582-2.2603 2.532z" clip-path="url(#a)" fill="#fff" stroke="#fff"/>
<g clip-path="url(#a)">
<g transform="translate(995.98 398.55) rotate(86.756) scale(.08 -.08)">
<use xlink:href="#v"/>
</g>
</g>
<path d="m1081.9 593.32v33.808q0 2.4 2.4 2.4h7.7425q2.4 0 2.4-2.4v-33.808q0-2.4-2.4-2.4h-7.7425q-2.4 0-2.4 2.4z" clip-path="url(#a)" fill="#fff" stroke="#fff"/>
<g clip-path="url(#a)">
<g transform="translate(1086 593.32) rotate(90) scale(.08 -.08)">
<use xlink:href="#l"/>
<use x="44.083984" xlink:href="#d"/>
<use x="105.607422" xlink:href="#h"/>
<use x="144.970703" xlink:href="#k"/>
<use x="242.382812" xlink:href="#j"/>
<use x="270.166016" xlink:href="#f"/>
<use x="333.544922" xlink:href="#g"/>
<use x="394.824219" xlink:href="#i"/>
</g>
</g>
<path d="m844.68 512.74 3.9408-3.7971q1.7283-1.6652 0.063028-3.3935l-5.3722-5.5755q-1.6652-1.7283-3.3935-0.063028l-3.9408 3.7971q-1.7283 1.6652-0.063028 3.3935l5.3722 5.5755q1.6652 1.7283 3.3935 0.063028z" clip-path="url(#a)" fill="#fff" stroke="#fff"/>
<g clip-path="url(#a)">
<g transform="translate(841.86 509.81) rotate(-43.936) scale(.08 -.08)">
<use xlink:href="#p"/>
</g>
</g>
<path d="m882.36 511.09 1.9119-5.2196q0.82548-2.2536-1.4281-3.0791l-7.2701-2.663q-2.2536-0.82548-3.0791 1.4281l-1.9119 5.2196q-0.82548 2.2536 1.4281 3.0791l7.2701 2.663q2.2536 0.82548 3.0791-1.4281z" clip-path="url(#a)" fill="#fff" stroke="#fff"/>
<g clip-path="url(#a)">
<g transform="translate(878.54 509.69) rotate(-69.882) scale(.08 -.08)">
<use xlink:href="#u"/>
</g>
</g>
<path d="m907.22 505.4 1.9608 5.8396q0.76394 2.2752 3.0391 1.5112l7.3398-2.4645q2.2752-0.76394 1.5112-3.0391l-1.9608-5.8396q-0.76394-2.2752-3.0391-1.5112l-7.3398 2.4645q-2.2752 0.76394-1.5112 3.0391z" clip-path="url(#a)" fill="#fff" stroke="#fff"/>
<g clip-path="url(#a)">
<g transform="translate(911.08 504.11) rotate(71.439) scale(.08 -.08)">
<use xlink:href="#ah"/>
</g>
</g>
<path d="m946.33 509.17 3.7079 3.4706q1.7522 1.6401 3.3923-0.11214l5.2909-5.6527q1.6401-1.7522-0.11214-3.3923l-3.7079-3.4706q-1.7522-1.6401-3.3923 0.11214l-5.2909 5.6527q-1.6401 1.7522 0.11214 3.3923z" clip-path="url(#a)" fill="#fff" stroke="#fff"/>
<g clip-path="url(#a)">
<g transform="translate(949.11 506.2) rotate(43.107) scale(.08 -.08)">
<use xlink:href="#t"/>
</g>
</g>
<path d="m894.97 513.16 4.9134-2.4096q2.1548-1.0568 1.0981-3.2116l-3.4092-6.9515q-1.0568-2.1548-3.2116-1.0981l-4.9134 2.4096q-2.1548 1.0568-1.0981 3.2116l3.4092 6.9515q1.0568 2.1548 3.2116 1.0981z" clip-path="url(#a)" fill="#fff" stroke="#fff"/>
<g clip-path="url(#a)">
<g transform="translate(893.18 509.51) rotate(-26.124) scale(.08 -.08)">
<use xlink:href="#p"/>
</g>
</g>
<path d="m1080.8 510.33 4.3246 2.663q2.0436 1.2584 3.302-0.78517l4.0598-6.5928q1.2584-2.0436-0.78517-3.302l-4.3246-2.663q-2.0436-1.2584-3.302 0.78517l-4.0598 6.5928q-1.2584 2.0436 0.78517 3.302z" clip-path="url(#a)" fill="#fff" stroke="#fff"/>
<g clip-path="url(#a)">
<g transform="translate(1083 506.87) rotate(31.624) scale(.08 -.08)">
<use xlink:href="#t"/>
</g>
</g>
<path d="m931.26 513.03 4.4871-3.2812q1.9373-1.4166 0.52064-3.3539l-4.5702-6.2498q-1.4166-1.9373-3.3539-0.52064l-4.4871 3.2812q-1.9373 1.4166-0.52064 3.3539l4.5702 6.2498q1.4166 1.9373 3.3539 0.52064z" clip-path="url(#a)" fill="#fff" stroke="#fff"/>
<g clip-path="url(#a)">
<g transform="translate(928.86 509.75) rotate(-36.176) scale(.08 -.08)">
<use xlink:href="#u"/>
</g>
</g>
<path d="m970.04 512.36 3.4126-5.1283q1.3296-1.998-0.66846-3.3276l-6.4458-4.2893q-1.998-1.3296-3.3276 0.66846l-3.4126 5.1283q-1.3296 1.998 0.66846 3.3276l6.4458 4.2893q1.998 1.3296 3.3276-0.66846z" clip-path="url(#a)" fill="#fff" stroke="#fff"/>
<g clip-path="url(#a)">
<g transform="translate(966.65 510.11) rotate(-56.358) scale(.08 -.08)">
<use xlink:href="#ah"/>
</g>
</g>
<path d="m1124.3 511.02 5.4202 2.2141q2.2218 0.90756 3.1293-1.3142l2.9278-7.1676q0.90756-2.2218-1.3142-3.1293l-5.4202-2.2141q-2.2218-0.90756-3.1293 1.3142l-2.9278 7.1676q-0.90756 2.2218 1.3142 3.1293z" clip-path="url(#a)" fill="#fff" stroke="#fff"/>
<g clip-path="url(#a)">
<g transform="translate(1125.8 507.26) rotate(22.219) scale(.08 -.08)">
<use xlink:href="#r"/>
</g>
</g>
<path d="m1165 593.32v33.808q0 2.4 2.4 2.4h7.7425q2.4 0 2.4-2.4v-33.808q0-2.4-2.4-2.4h-7.7425q-2.4 0-2.4 2.4z" clip-path="url(#a)" fill="#fff" stroke="#fff"/>
<g clip-path="url(#a)">
<g transform="translate(1169 593.32) rotate(90) scale(.08 -.08)">
<use xlink:href="#l"/>
<use x="44.083984" xlink:href="#d"/>
<use x="105.607422" xlink:href="#h"/>
<use x="144.970703" xlink:href="#k"/>
<use x="242.382812" xlink:href="#j"/>
<use x="270.166016" xlink:href="#f"/>
<use x="333.544922" xlink:href="#g"/>
<use x="394.824219" xlink:href="#i"/>
</g>
</g>
<path d="m851.99 593.32v33.808q0 2.4 2.4 2.4h7.7425q2.4 0 2.4-2.4v-33.808q0-2.4-2.4-2.4h-7.7425q-2.4 0-2.4 2.4z" clip-path="url(#a)" fill="#fff" stroke="#fff"/>
<g clip-path="url(#a)">
<g transform="translate(856.06 593.32) rotate(90) scale(.08 -.08)">
<use xlink:href="#l"/>
<use x="44.083984" xlink:href="#d"/>
<use x="105.607422" xlink:href="#h"/>
<use x="144.970703" xlink:href="#k"/>
<use x="242.382812" xlink:href="#j"/>
<use x="270.166016" xlink:href="#f"/>
<use x="333.544922" xlink:href="#g"/>
<use x="394.824219" xlink:href="#i"/>
</g>
</g>
<path d="m925.44 593.32v33.808q0 2.4 2.4 2.4h7.7425q2.4 0 2.4-2.4v-33.808q0-2.4-2.4-2.4h-7.7425q-2.4 0-2.4 2.4z" clip-path="url(#a)" fill="#fff" stroke="#fff"/>
<g clip-path="url(#a)">
<g transform="translate(929.51 593.32) rotate(90) scale(.08 -.08)">
<use xlink:href="#l"/>
<use x="44.083984" xlink:href="#d"/>
<use x="105.607422" xlink:href="#h"/>
<use x="144.970703" xlink:href="#k"/>
<use x="242.382812" xlink:href="#j"/>
<use x="270.166016" xlink:href="#f"/>
<use x="333.544922" xlink:href="#g"/>
<use x="394.824219" xlink:href="#i"/>
</g>
</g>
<path d="m1002.1 593.32v33.808q0 2.4 2.4 2.4h7.7425q2.4 0 2.4-2.4v-33.808q0-2.4-2.4-2.4h-7.7425q-2.4 0-2.4 2.4z" clip-path="url(#a)" fill="#fff" stroke="#fff"/>
<g clip-path="url(#a)">
<g transform="translate(1006.2 593.32) rotate(90) scale(.08 -.08)">
<use xlink:href="#l"/>
<use x="44.083984" xlink:href="#d"/>
<use x="105.607422" xlink:href="#h"/>
<use x="144.970703" xlink:href="#k"/>
<use x="242.382812" xlink:href="#j"/>
<use x="270.166016" xlink:href="#f"/>
<use x="333.544922" xlink:href="#g"/>
<use x="394.824219" xlink:href="#i"/>
</g>
</g>
<path d="m111.09 593.32v33.808q0 2.4 2.4 2.4h7.7425q2.4 0 2.4-2.4v-33.808q0-2.4-2.4-2.4h-7.7425q-2.4 0-2.4 2.4z" clip-path="url(#a)" fill="#fff" stroke="#fff"/>
<g clip-path="url(#a)">
<g transform="translate(115.15 593.32) rotate(90) scale(.08 -.08)">
<use xlink:href="#l"/>
<use x="44.083984" xlink:href="#d"/>
<use x="105.607422" xlink:href="#h"/>
<use x="144.970703" xlink:href="#k"/>
<use x="242.382812" xlink:href="#j"/>
<use x="270.166016" xlink:href="#f"/>
<use x="333.544922" xlink:href="#g"/>
<use x="394.824219" xlink:href="#i"/>
</g>
</g>
<path d="m133.45 593.32v33.808q0 2.4 2.4 2.4h7.7425q2.4 0 2.4-2.4v-33.808q0-2.4-2.4-2.4h-7.7425q-2.4 0-2.4 2.4z" clip-path="url(#a)" fill="#fff" stroke="#fff"/>
<g clip-path="url(#a)">
<g transform="translate(137.51 593.32) rotate(90) scale(.08 -.08)">
<use xlink:href="#l"/>
<use x="44.083984" xlink:href="#d"/>
<use x="105.607422" xlink:href="#h"/>
<use x="144.970703" xlink:href="#k"/>
<use x="242.382812" xlink:href="#j"/>
<use x="270.166016" xlink:href="#f"/>
<use x="333.544922" xlink:href="#g"/>
<use x="394.824219" xlink:href="#i"/>
</g>
</g>
<path d="m158.99 593.32v33.808q0 2.4 2.4 2.4h7.7425q2.4 0 2.4-2.4v-33.808q0-2.4-2.4-2.4h-7.7425q-2.4 0-2.4 2.4z" clip-path="url(#a)" fill="#fff" stroke="#fff"/>
<g clip-path="url(#a)">
<g transform="translate(163.06 593.32) rotate(90) scale(.08 -.08)">
<use xlink:href="#l"/>
<use x="44.083984" xlink:href="#d"/>
<use x="105.607422" xlink:href="#h"/>
<use x="144.970703" xlink:href="#k"/>
<use x="242.382812" xlink:href="#j"/>
<use x="270.166016" xlink:href="#f"/>
<use x="333.544922" xlink:href="#g"/>
<use x="394.824219" xlink:href="#i"/>
</g>
</g>
<path d="m223.97 511.57 2.4395-4.9949q1.0533-2.1565-1.1033-3.2098l-6.9571-3.3978q-2.1565-1.0533-3.2098 1.1033l-2.4395 4.9949q-1.0533 2.1565 1.1033 3.2098l6.9571 3.3978q2.1565 1.0533 3.2098-1.1033z" clip-path="url(#a)" fill="#fff" stroke="#fff"/>
<g clip-path="url(#a)">
<g transform="translate(220.32 509.79) rotate(-63.969) scale(.08 -.08)">
<use xlink:href="#u"/>
</g>
</g>
<path d="m241.28 509.72 0.82893-4.526q0.43237-2.3607-1.9284-2.7931l-7.6158-1.3948q-2.3607-0.43237-2.7931 1.9284l-0.82893 4.526q-0.43237 2.3607 1.9284 2.7931l7.6158 1.3948q2.3607 0.43237 2.7931-1.9284z" clip-path="url(#a)" fill="#fff" stroke="#fff"/>
<g clip-path="url(#a)">
<g transform="translate(237.28 508.98) rotate(-79.621) scale(.08 -.08)">
<use xlink:href="#w"/>
</g>
</g>
<path d="m246.51 504.77 0.76269 4.9971q0.36211 2.3725 2.7346 2.0104l7.6539-1.1682q2.3725-0.36211 2.0104-2.7346l-0.76269-4.9971q-0.36211-2.3725-2.7346-2.0104l-7.6539 1.1682q-2.3725 0.36211-2.0104 2.7346z" clip-path="url(#a)" fill="#fff" stroke="#fff"/>
<g clip-path="url(#a)">
<g transform="translate(250.52 504.16) rotate(81.322) scale(.08 -.08)">
<use xlink:href="#ag"/>
</g>
</g>
<path d="m265.4 506.73 2.573 4.9584q1.1054 2.1303 3.2357 1.0248l6.8723-3.5662q2.1303-1.1054 1.0248-3.2357l-2.573-4.9584q-1.1054-2.1303-3.2357-1.0248l-6.8723 3.5662q-2.1303 1.1054-1.0248 3.2357z" clip-path="url(#a)" fill="#fff" stroke="#fff"/>
<g clip-path="url(#a)">
<g transform="translate(269 504.86) rotate(62.574) scale(.08 -.08)">
<use xlink:href="#ai"/>
</g>
</g>
<path d="m187.74 593.32v33.808q0 2.4 2.4 2.4h7.7425q2.4 0 2.4-2.4v-33.808q0-2.4-2.4-2.4h-7.7425q-2.4 0-2.4 2.4z" clip-path="url(#a)" fill="#fff" stroke="#fff"/>
<g clip-path="url(#a)">
<g transform="translate(191.8 593.32) rotate(90) scale(.08 -.08)">
<use xlink:href="#l"/>
<use x="44.083984" xlink:href="#d"/>
<use x="105.607422" xlink:href="#h"/>
<use x="144.970703" xlink:href="#k"/>
<use x="242.382812" xlink:href="#j"/>
<use x="270.166016" xlink:href="#f"/>
<use x="333.544922" xlink:href="#g"/>
<use x="394.824219" xlink:href="#i"/>
</g>
</g>
<path d="m219.67 593.32v33.808q0 2.4 2.4 2.4h7.7425q2.4 0 2.4-2.4v-33.808q0-2.4-2.4-2.4h-7.7425q-2.4 0-2.4 2.4z" clip-path="url(#a)" fill="#fff" stroke="#fff"/>
<g clip-path="url(#a)">
<g transform="translate(223.74 593.32) rotate(90) scale(.08 -.08)">
<use xlink:href="#l"/>
<use x="44.083984" xlink:href="#d"/>
<use x="105.607422" xlink:href="#h"/>
<use x="144.970703" xlink:href="#k"/>
<use x="242.382812" xlink:href="#j"/>
<use x="270.166016" xlink:href="#f"/>
<use x="333.544922" xlink:href="#g"/>
<use x="394.824219" xlink:href="#i"/>
</g>
</g>
<path d="m254.8 593.32v33.808q0 2.4 2.4 2.4h7.7425q2.4 0 2.4-2.4v-33.808q0-2.4-2.4-2.4h-7.7425q-2.4 0-2.4 2.4z" clip-path="url(#a)" fill="#fff" stroke="#fff"/>
<g clip-path="url(#a)">
<g transform="translate(258.86 593.32) rotate(90) scale(.08 -.08)">
<use xlink:href="#l"/>
<use x="44.083984" xlink:href="#d"/>
<use x="105.607422" xlink:href="#h"/>
<use x="144.970703" xlink:href="#k"/>
<use x="242.382812" xlink:href="#j"/>
<use x="270.166016" xlink:href="#f"/>
<use x="333.544922" xlink:href="#g"/>
<use x="394.824219" xlink:href="#i"/>
</g>
</g>
<path d="m293.12 593.32v33.808q0 2.4 2.4 2.4h7.7425q2.4 0 2.4-2.4v-33.808q0-2.4-2.4-2.4h-7.7425q-2.4 0-2.4 2.4z" clip-path="url(#a)" fill="#fff" stroke="#fff"/>
<g clip-path="url(#a)">
<g transform="translate(297.19 593.32) rotate(90) scale(.08 -.08)">
<use xlink:href="#l"/>
<use x="44.083984" xlink:href="#d"/>
<use x="105.607422" xlink:href="#h"/>
<use x="144.970703" xlink:href="#k"/>
<use x="242.382812" xlink:href="#j"/>
<use x="270.166016" xlink:href="#f"/>
<use x="333.544922" xlink:href="#g"/>
<use x="394.824219" xlink:href="#i"/>
</g>
</g>
<path d="m53.608 593.32v33.808q0 2.4 2.4 2.4h7.7425q2.4 0 2.4-2.4v-33.808q0-2.4-2.4-2.4h-7.7425q-2.4 0-2.4 2.4z" clip-path="url(#a)" fill="#fff" stroke="#fff"/>
<g clip-path="url(#a)">
<g transform="translate(57.671 593.32) rotate(90) scale(.08 -.08)">
<use xlink:href="#l"/>
<use x="44.083984" xlink:href="#d"/>
<use x="105.607422" xlink:href="#h"/>
<use x="144.970703" xlink:href="#k"/>
<use x="242.382812" xlink:href="#j"/>
<use x="270.166016" xlink:href="#f"/>
<use x="333.544922" xlink:href="#g"/>
<use x="394.824219" xlink:href="#i"/>
</g>
</g>
<path d="m77.868 627.48 2.0887-33.743q0.14828-2.3954-2.2471-2.5437l-7.7277-0.47834q-2.3954-0.14827-2.5437 2.2471l-2.0887 33.743q-0.14827 2.3954 2.2471 2.5437l7.7277 0.47834q2.3954 0.14828 2.5437-2.2471z" clip-path="url(#a)" fill="#fff" stroke="#fff"/>
<g clip-path="url(#a)">
<g transform="translate(73.812 627.23) rotate(-86.458) scale(.08 -.08)">
<use xlink:href="#l"/>
<use x="44.083984" xlink:href="#d"/>
<use x="105.607422" xlink:href="#h"/>
<use x="144.970703" xlink:href="#k"/>
<use x="242.382812" xlink:href="#j"/>
<use x="270.166016" xlink:href="#f"/>
<use x="333.544922" xlink:href="#g"/>
<use x="394.824219" xlink:href="#i"/>
</g>
</g>
<path d="m71.736 593.74 2.0887 33.743q0.14827 2.3954 2.5437 2.2471l7.7277-0.47834q2.3954-0.14827 2.2471-2.5437l-2.0887-33.743q-0.14827-2.3954-2.5437-2.2471l-7.7277 0.47834q-2.3954 0.14827-2.2471 2.5437z" clip-path="url(#a)" fill="#fff" stroke="#fff"/>
<g clip-path="url(#a)">
<g transform="translate(75.792 593.49) rotate(86.458) scale(.08 -.08)">
<use xlink:href="#l"/>
<use x="44.083984" xlink:href="#d"/>
<use x="105.607422" xlink:href="#h"/>
<use x="144.970703" xlink:href="#k"/>
<use x="242.382812" xlink:href="#j"/>
<use x="270.166016" xlink:href="#f"/>
<use x="333.544922" xlink:href="#g"/>
<use x="394.824219" xlink:href="#i"/>
</g>
</g>
<path d="m91.93 593.32v33.808q0 2.4 2.4 2.4h7.7425q2.4 0 2.4-2.4v-33.808q0-2.4-2.4-2.4h-7.7425q-2.4 0-2.4 2.4z" clip-path="url(#a)" fill="#fff" stroke="#fff"/>
<g clip-path="url(#a)">
<g transform="translate(95.994 593.32) rotate(90) scale(.08 -.08)">
<use xlink:href="#l"/>
<use x="44.083984" xlink:href="#d"/>
<use x="105.607422" xlink:href="#h"/>
<use x="144.970703" xlink:href="#k"/>
<use x="242.382812" xlink:href="#j"/>
<use x="270.166016" xlink:href="#f"/>
<use x="333.544922" xlink:href="#g"/>
<use x="394.824219" xlink:href="#i"/>
</g>
</g>
<path d="m334.64 593.32v33.808q0 2.4 2.4 2.4h7.7425q2.4 0 2.4-2.4v-33.808q0-2.4-2.4-2.4h-7.7425q-2.4 0-2.4 2.4z" clip-path="url(#a)" fill="#fff" stroke="#fff"/>
<g clip-path="url(#a)">
<g transform="translate(338.7 593.32) rotate(90) scale(.08 -.08)">
<use xlink:href="#l"/>
<use x="44.083984" xlink:href="#d"/>
<use x="105.607422" xlink:href="#h"/>
<use x="144.970703" xlink:href="#k"/>
<use x="242.382812" xlink:href="#j"/>
<use x="270.166016" xlink:href="#f"/>
<use x="333.544922" xlink:href="#g"/>
<use x="394.824219" xlink:href="#i"/>
</g>
</g>
<path d="m379.35 593.32v33.808q0 2.4 2.4 2.4h7.7425q2.4 0 2.4-2.4v-33.808q0-2.4-2.4-2.4h-7.7425q-2.4 0-2.4 2.4z" clip-path="url(#a)" fill="#fff" stroke="#fff"/>
<g clip-path="url(#a)">
<g transform="translate(383.41 593.32) rotate(90) scale(.08 -.08)">
<use xlink:href="#l"/>
<use x="44.083984" xlink:href="#d"/>
<use x="105.607422" xlink:href="#h"/>
<use x="144.970703" xlink:href="#k"/>
<use x="242.382812" xlink:href="#j"/>
<use x="270.166016" xlink:href="#f"/>
<use x="333.544922" xlink:href="#g"/>
<use x="394.824219" xlink:href="#i"/>
</g>
</g>
<path d="m650.8 593.32v33.808q0 2.4 2.4 2.4h7.7425q2.4 0 2.4-2.4v-33.808q0-2.4-2.4-2.4h-7.7425q-2.4 0-2.4 2.4z" clip-path="url(#a)" fill="#fff" stroke="#fff"/>
<g clip-path="url(#a)">
<g transform="translate(654.86 593.32) rotate(90) scale(.08 -.08)">
<use xlink:href="#l"/>
<use x="44.083984" xlink:href="#d"/>
<use x="105.607422" xlink:href="#h"/>
<use x="144.970703" xlink:href="#k"/>
<use x="242.382812" xlink:href="#j"/>
<use x="270.166016" xlink:href="#f"/>
<use x="333.544922" xlink:href="#g"/>
<use x="394.824219" xlink:href="#i"/>
</g>
</g>
<path d="m1251.2 593.32v33.808q0 2.4 2.4 2.4h7.7425q2.4 0 2.4-2.4v-33.808q0-2.4-2.4-2.4h-7.7425q-2.4 0-2.4 2.4z" clip-path="url(#a)" fill="#fff" stroke="#fff"/>
<g clip-path="url(#a)">
<g transform="translate(1255.2 593.32) rotate(90) scale(.08 -.08)">
<use xlink:href="#l"/>
<use x="44.083984" xlink:href="#d"/>
<use x="105.607422" xlink:href="#h"/>
<use x="144.970703" xlink:href="#k"/>
<use x="242.382812" xlink:href="#j"/>
<use x="270.166016" xlink:href="#f"/>
<use x="333.544922" xlink:href="#g"/>
<use x="394.824219" xlink:href="#i"/>
</g>
</g>
<defs>
<path id="b" d="m0 8.6603c2.2967 0 4.4997-0.9125 6.1237-2.5365 1.624-1.624 2.5365-3.827 2.5365-6.1237s-0.9125-4.4997-2.5365-6.1237c-1.624-1.624-3.827-2.5365-6.1237-2.5365s-4.4997 0.9125-6.1237 2.5365c-1.624 1.624-2.5365 3.827-2.5365 6.1237s0.9125 4.4997 2.5365 6.1237c1.624 1.624 3.827 2.5365 6.1237 2.5365z"/>
</defs>
<g clip-path="url(#a)" fill="#ffffff" stroke="#ffffff">
<use x="59.878788" y="661.818182" xlink:href="#b"/>
<use x="69.459394" y="661.818182" xlink:href="#b"/>
<use x="82.233535" y="661.818182" xlink:href="#b"/>
<use x="98.201212" y="661.818182" xlink:href="#b"/>
<use x="117.362424" y="661.818182" xlink:href="#b"/>
<use x="139.717172" y="661.818182" xlink:href="#b"/>
<use x="165.265455" y="661.818182" xlink:href="#b"/>
<use x="194.007273" y="661.818182" xlink:href="#b"/>
<use x="225.942626" y="661.818182" xlink:href="#b"/>
<use x="261.071515" y="661.818182" xlink:href="#b"/>
<use x="299.393939" y="661.818182" xlink:href="#b"/>
<use x="340.909899" y="661.818182" xlink:href="#b"/>
<use x="385.619394" y="661.818182" xlink:href="#b"/>
<use x="433.522424" y="661.818182" xlink:href="#b"/>
<use x="484.61899" y="661.818182" xlink:href="#b"/>
<use x="538.909091" y="661.818182" xlink:href="#b"/>
<use x="596.392727" y="661.818182" xlink:href="#b"/>
<use x="657.069899" y="661.818182" xlink:href="#b"/>
<use x="720.940606" y="661.818182" xlink:href="#b"/>
<use x="788.004848" y="661.818182" xlink:href="#b"/>
<use x="858.262626" y="661.818182" xlink:href="#b"/>
<use x="931.713939" y="661.818182" xlink:href="#b"/>
<use x="1008.358788" y="661.818182" xlink:href="#b"/>
<use x="1088.197172" y="661.818182" xlink:href="#b"/>
<use x="1171.229091" y="661.818182" xlink:href="#b"/>
<use x="1257.454545" y="661.818182" xlink:href="#b"/>
<use x="219.750059" y="31.515152" xlink:href="#b"/>
<use x="67.862626" y="454.012734" xlink:href="#b"/>
<use x="493.186338" y="137.522433" xlink:href="#b"/>
<use x="166.862222" y="348.843577" xlink:href="#b"/>
<use x="433.522424" y="558.633167" xlink:href="#b"/>
<use x="484.61899" y="558.633167" xlink:href="#b"/>
<use x="538.909091" y="558.633167" xlink:href="#b"/>
<use x="596.392727" y="558.633167" xlink:href="#b"/>
<use x="834.7724" y="243.316485" xlink:href="#b"/>
<use x="720.940606" y="558.633167" xlink:href="#b"/>
<use x="788.004848" y="558.633167" xlink:href="#b"/>
<use x="995.371744" y="348.843577" xlink:href="#b"/>
<use x="1088.197172" y="558.633167" xlink:href="#b"/>
<use x="896.585051" y="454.012734" xlink:href="#b"/>
<use x="1001.33301" y="454.012734" xlink:href="#b"/>
<use x="1171.229091" y="558.633167" xlink:href="#b"/>
<use x="858.262626" y="558.633167" xlink:href="#b"/>
<use x="931.713939" y="558.633167" xlink:href="#b"/>
<use x="1008.358788" y="558.633167" xlink:href="#b"/>
<use x="117.362424" y="558.633167" xlink:href="#b"/>
<use x="139.717172" y="558.633167" xlink:href="#b"/>
<use x="165.265455" y="558.633167" xlink:href="#b"/>
<use x="245.103838" y="454.012734" xlink:href="#b"/>
<use x="194.007273" y="558.633167" xlink:href="#b"/>
<use x="225.942626" y="558.633167" xlink:href="#b"/>
<use x="261.071515" y="558.633167" xlink:href="#b"/>
<use x="299.393939" y="558.633167" xlink:href="#b"/>
<use x="59.878788" y="558.633167" xlink:href="#b"/>
<use x="75.846465" y="558.633167" xlink:href="#b"/>
<use x="98.201212" y="558.633167" xlink:href="#b"/>
<use x="340.909899" y="558.633167" xlink:href="#b"/>
<use x="385.619394" y="558.633167" xlink:href="#b"/>
<use x="657.069899" y="558.633167" xlink:href="#b"/>
<use x="1257.454545" y="558.633167" xlink:href="#b"/>
</g>
<g clip-path="url(#a)">
<g transform="translate(48.352 664.58) scale(.1 -.1)">
<defs>
<path id="q" d="m18.312 70.219v-15.531h18.5v-6.9844h-18.5v-29.688q0-6.6875 1.8281-8.5938t7.4531-1.9062h9.2188v-7.5156h-9.2188q-10.406 0-14.359 3.875-3.9531 3.8906-3.9531 14.141v29.688h-6.5938v6.9844h6.5938v15.531z"/>
<path id="o" d="m30.609 48.391q-7.2188 0-11.422-5.6406t-4.2031-15.453 4.1719-15.453q4.1875-5.6406 11.453-5.6406 7.1875 0 11.375 5.6562 4.2031 5.6719 4.2031 15.438 0 9.7188-4.2031 15.406-4.1875 5.6875-11.375 5.6875zm0 7.6094q11.719 0 18.406-7.625 6.7031-7.6094 6.7031-21.078 0-13.422-6.7031-21.078-6.6875-7.6406-18.406-7.6406-11.766 0-18.438 7.6406-6.6562 7.6562-6.6562 21.078 0 13.469 6.6562 21.078 6.6719 7.625 18.438 7.625z"/>
<path id="ad" d="m18.109 8.2031v-29h-9.0312v75.484h9.0312v-8.2969q2.8438 4.875 7.1562 7.2344 4.3281 2.375 10.328 2.375 9.9688 0 16.188-7.9062 6.2344-7.9062 6.2344-20.797t-6.2344-20.812q-6.2188-7.9062-16.188-7.9062-6 0-10.328 2.375-4.3125 2.375-7.1562 7.25zm30.578 19.094q0 9.9062-4.0781 15.547t-11.203 5.6406q-7.1406 0-11.219-5.6406t-4.0781-15.547 4.0781-15.547 11.219-5.6406q7.125 0 11.203 5.6406t4.0781 15.547z"/>
</defs>
<use xlink:href="#p"/>
<use x="66.658203" xlink:href="#q"/>
<use x="105.867188" xlink:href="#o"/>
<use x="167.048828" xlink:href="#ad"/>
</g>
</g>
<g clip-path="url(#a)">
<g transform="translate(53.323 664.58) scale(.1 -.1)">
<defs>
<path id="ap" d="m45.406 27.984q0 9.7656-4.0312 15.125-4.0156 5.375-11.297 5.375-7.2188 0-11.25-5.375-4.0312-5.3594-4.0312-15.125 0-9.7188 4.0312-15.094t11.25-5.375q7.2812 0 11.297 5.375 4.0312 5.375 4.0312 15.094zm8.9844-21.203q0-13.953-6.2031-20.766-6.1875-6.8125-18.984-6.8125-4.7344 0-8.9375 0.70312t-8.1562 2.1719v8.7344q3.9531-2.1406 7.8125-3.1562 3.8594-1.0312 7.8594-1.0312 8.8438 0 13.234 4.6094t4.3906 13.938v4.4531q-2.7812-4.8438-7.125-7.2344t-10.406-2.3906q-10.047 0-16.203 7.6562-6.1562 7.6719-6.1562 20.328 0 12.688 6.1562 20.344 6.1562 7.6719 16.203 7.6719 6.0625 0 10.406-2.3906t7.125-7.2188v8.2969h8.9844z"/>
</defs>
<use xlink:href="#t"/>
<use x="63.476562" xlink:href="#ad"/>
<use x="126.953125" xlink:href="#h"/>
<use x="168.066406" xlink:href="#j"/>
<use x="195.849609" xlink:href="#f"/>
<use x="259.228516" xlink:href="#ap"/>
</g>
</g>
<g clip-path="url(#a)">
<g transform="translate(58.941 664.58) scale(.1 -.1)">
<defs>
<path id="at" d="m9.8125 72.906h14.703l18.594-49.609 18.703 49.609h14.703v-72.906h-9.625v64.016l-18.797-50h-9.9062l-18.797 50v-64.016h-9.5781z"/>
<path id="ab" d="m8.5 21.578v33.109h8.9844v-32.766q0-7.7656 3.0156-11.656 3.0312-3.875 9.0938-3.875 7.2656 0 11.484 4.6406 4.2344 4.6406 4.2344 12.656v31h8.9844v-54.688h-8.9844v8.4062q-3.2656-4.9844-7.5938-7.4062-4.3125-2.4219-10.031-2.4219-9.4219 0-14.312 5.8594-4.875 5.8594-4.875 17.141z"/>
</defs>
<use xlink:href="#at"/>
<use x="86.279297" xlink:href="#o"/>
<use x="147.460938" xlink:href="#ab"/>
<use x="210.839844" xlink:href="#f"/>
<use x="274.21875" xlink:href="#q"/>
<use x="313.427734" xlink:href="#g"/>
<use x="374.707031" xlink:href="#j"/>
<use x="402.490234" xlink:href="#f"/>
</g>
</g>
<g clip-path="url(#a)">
<g transform="translate(96.612 664.58) scale(.1 -.1)">
<defs>
<path id="an" d="m11.719 12.406h10.297v-8.4062l-8-15.625h-6.2969l4 15.625z"/>
</defs>
<use xlink:href="#an"/>
</g>
</g>
<g clip-path="url(#a)">
<g transform="translate(105.73 664.58) scale(.1 -.1)">
<defs>
<path id="ae" d="m37.109 75.984v-7.4844h-8.5938q-4.8281 0-6.7188-1.9531-1.875-1.9531-1.875-7.0312v-4.8281h14.797v-6.9844h-14.797v-47.703h-9.0312v47.703h-8.5938v6.9844h8.5938v3.8125q0 9.125 4.25 13.297 4.25 4.1875 13.469 4.1875z"/>
</defs>
<use xlink:href="#ae"/>
<use x="35.205078" xlink:href="#h"/>
<use x="74.068359" xlink:href="#o"/>
<use x="135.25" xlink:href="#k"/>
</g>
</g>
<g clip-path="url(#a)">
<g transform="translate(131.51 664.58) scale(.1 -.1)">
<defs>
<path id="al" d="m54.891 33.016v-33.016h-8.9844v32.719q0 7.7656-3.0312 11.609-3.0312 3.8594-9.0781 3.8594-7.2812 0-11.484-4.6406-4.2031-4.625-4.2031-12.641v-30.906h-9.0312v75.984h9.0312v-29.797q3.2344 4.9375 7.5938 7.375 4.375 2.4375 10.094 2.4375 9.4219 0 14.25-5.8281 4.8438-5.8281 4.8438-17.156z"/>
</defs>
<use xlink:href="#q"/>
<use x="39.208984" xlink:href="#al"/>
<use x="102.587891" xlink:href="#d"/>
</g>
</g>
<g clip-path="url(#a)">
<g transform="translate(150.77 664.58) scale(.1 -.1)">
<defs>
<path id="af" d="m45.406 46.391v29.594h8.9844v-75.984h-8.9844v8.2031q-2.8281-4.875-7.1562-7.25-4.3125-2.375-10.375-2.375-9.9062 0-16.141 7.9062-6.2188 7.9219-6.2188 20.812t6.2188 20.797q6.2344 7.9062 16.141 7.9062 6.0625 0 10.375-2.375 4.3281-2.3594 7.1562-7.2344zm-30.609-19.094q0-9.9062 4.0781-15.547t11.203-5.6406 11.219 5.6406q4.1094 5.6406 4.1094 15.547t-4.1094 15.547q-4.0938 5.6406-11.219 5.6406t-11.203-5.6406-4.0781-15.547z"/>
<path id="s" d="m48.781 52.594v-8.4062q-3.8125 2.1094-7.6406 3.1562t-7.7344 1.0469q-8.75 0-13.594-5.5469-4.8281-5.5312-4.8281-15.547t4.8281-15.562q4.8438-5.5312 13.594-5.5312 3.9062 0 7.7344 1.0469t7.6406 3.1562v-8.3125q-3.7656-1.75-7.7969-2.625-4.0156-0.89062-8.5625-0.89062-12.359 0-19.641 7.7656-7.2656 7.7656-7.2656 20.953 0 13.375 7.3438 21.031 7.3594 7.6719 20.156 7.6719 4.1406 0 8.0938-0.85938 3.9531-0.84375 7.6719-2.5469z"/>
<path id="ax" d="m9.0781 75.984h9.0312v-44.875l26.812 23.578h11.469l-29-25.578 30.234-29.109h-11.719l-27.797 26.703v-26.703h-9.0312z"/>
<path id="ac" d="m44.281 53.078v-8.5q-3.7969 1.9531-7.9062 2.9219-4.0938 0.98438-8.5 0.98438-6.6875 0-10.031-2.0469t-3.3438-6.1562q0-3.125 2.3906-4.9062t9.625-3.3906l3.0781-0.6875q9.5625-2.0469 13.594-5.7812t4.0312-10.422q0-7.625-6.0312-12.078-6.0312-4.4375-16.578-4.4375-4.3906 0-9.1562 0.85938t-10.031 2.5625v9.2812q4.9844-2.5938 9.8125-3.8906 4.8281-1.2812 9.5781-1.2812 6.3438 0 9.75 2.1719 3.4219 2.1719 3.4219 6.125 0 3.6562-2.4688 5.6094-2.4531 1.9531-10.812 3.7656l-3.125 0.73438q-8.3438 1.75-12.062 5.3906-3.7031 3.6406-3.7031 9.9844 0 7.7188 5.4688 11.906 5.4688 4.2031 15.531 4.2031 4.9688 0 9.3594-0.73438 4.4062-0.71875 8.1094-2.1875z"/>
</defs>
<use xlink:href="#af"/>
<use x="63.476562" xlink:href="#d"/>
<use x="125" xlink:href="#s"/>
<use x="179.980469" xlink:href="#ax"/>
<use x="237.890625" xlink:href="#ac"/>
</g>
</g>
<g clip-path="url(#a)">
<g transform="translate(189.19 664.58) scale(.1 -.1)">
<use xlink:href="#o"/>
<use x="61.181641" xlink:href="#ae"/>
</g>
</g>
<g clip-path="url(#a)">
<g transform="translate(217.74 664.58) scale(.1 -.1)">
<use xlink:href="#q"/>
<use x="39.208984" xlink:href="#al"/>
<use x="102.587891" xlink:href="#d"/>
</g>
</g>
<g clip-path="url(#a)">
<g transform="translate(248.78 664.58) scale(.1 -.1)">
<defs>
<path id="ar" d="m3.3281 72.906h9.9531l15.328-61.625 15.281 61.625h11.094l15.328-61.625 15.281 61.625h10.016l-18.312-72.906h-12.406l-15.375 63.281-15.531-63.281h-12.406z"/>
</defs>
<use xlink:href="#ar"/>
<use x="93.001953" xlink:href="#d"/>
<use x="154.525391" xlink:href="#ac"/>
<use x="206.625" xlink:href="#q"/>
</g>
</g>
<g clip-path="url(#a)">
<g transform="translate(285.3 664.58) scale(.1 -.1)">
<use xlink:href="#ad"/>
<use x="63.476562" xlink:href="#o"/>
<use x="124.658203" xlink:href="#h"/>
<use x="163.521484" xlink:href="#s"/>
<use x="218.501953" xlink:href="#al"/>
</g>
</g>
<g clip-path="url(#a)">
<g transform="translate(339.32 664.58) scale(.1 -.1)">
<use xlink:href="#an"/>
</g>
</g>
<g clip-path="url(#a)">
<g transform="translate(383.32 664.58) scale(.1 -.1)">
<defs>
<path id="ao" d="m17.922 72.906v-27.109h-8.2969v27.109zm18.453 0v-27.109h-8.2969v27.109z"/>
</defs>
<use xlink:href="#ao"/>
</g>
</g>
<g clip-path="url(#a)">
<g transform="translate(424.22 664.58) scale(.1 -.1)">
<use xlink:href="#o"/>
<use x="61.181641" xlink:href="#f"/>
<use x="124.560547" xlink:href="#d"/>
</g>
</g>
<g clip-path="url(#a)">
<g transform="translate(475.64 664.58) scale(.1 -.1)">
<use xlink:href="#s"/>
<use x="54.980469" xlink:href="#g"/>
<use x="116.259766" xlink:href="#f"/>
</g>
</g>
<g clip-path="url(#a)">
<g transform="translate(530.15 664.58) scale(.1 -.1)">
<use xlink:href="#ac"/>
<use x="52.099609" xlink:href="#d"/>
<use x="113.623047" xlink:href="#d"/>
</g>
</g>
<g clip-path="url(#a)">
<g transform="translate(578.46 664.58) scale(.1 -.1)">
<defs>
<path id="aw" d="m2.9844 54.688h9.5156l17.094-45.891 17.094 45.891h9.5156l-20.516-54.688h-12.203z"/>
</defs>
<use xlink:href="#ae"/>
<use x="35.205078" xlink:href="#o"/>
<use x="96.386719" xlink:href="#h"/>
<use x="135.25" xlink:href="#d"/>
<use x="196.773438" xlink:href="#aw"/>
<use x="255.953125" xlink:href="#d"/>
<use x="317.476562" xlink:href="#h"/>
</g>
</g>
<g clip-path="url(#a)">
<g transform="translate(654.77 664.58) scale(.1 -.1)">
<use xlink:href="#ao"/>
</g>
</g>
<g clip-path="url(#a)">
<g transform="translate(717.88 664.58) scale(.1 -.1)">
<use xlink:href="#g"/>
</g>
</g>
<g clip-path="url(#a)">
<g transform="translate(773.33 664.58) scale(.1 -.1)">
<use xlink:href="#ac"/>
<use x="52.099609" xlink:href="#s"/>
<use x="107.080078" xlink:href="#d"/>
<use x="168.603516" xlink:href="#f"/>
<use x="231.982422" xlink:href="#d"/>
</g>
</g>
<g clip-path="url(#a)">
<g transform="translate(853.44 664.58) scale(.1 -.1)">
<use xlink:href="#o"/>
<use x="61.181641" xlink:href="#ae"/>
</g>
</g>
<g clip-path="url(#a)">
<g transform="translate(900.52 664.58) scale(.1 -.1)">
<use xlink:href="#ab"/>
<use x="63.378906" xlink:href="#f"/>
<use x="126.757812" xlink:href="#ad"/>
<use x="190.234375" xlink:href="#g"/>
<use x="251.513672" xlink:href="#h"/>
<use x="292.626953" xlink:href="#g"/>
<use x="353.90625" xlink:href="#i"/>
<use x="381.689453" xlink:href="#i"/>
<use x="409.472656" xlink:href="#d"/>
<use x="470.996094" xlink:href="#i"/>
<use x="498.779297" xlink:href="#d"/>
<use x="560.302734" xlink:href="#af"/>
</g>
</g>
<g clip-path="url(#a)">
<g transform="translate(990.96 664.58) scale(.1 -.1)">
<defs>
<path id="aq" d="m48.688 27.297q0 9.9062-4.0781 15.547t-11.203 5.6406q-7.1406 0-11.219-5.6406t-4.0781-15.547 4.0781-15.547 11.219-5.6406q7.125 0 11.203 5.6406t4.0781 15.547zm-30.578 19.094q2.8438 4.875 7.1562 7.2344 4.3281 2.375 10.328 2.375 9.9688 0 16.188-7.9062 6.2344-7.9062 6.2344-20.797t-6.2344-20.812q-6.2188-7.9062-16.188-7.9062-6 0-10.328 2.375-4.3125 2.375-7.1562 7.25v-8.2031h-9.0312v75.984h9.0312z"/>
<path id="av" d="m32.172-5.0781q-3.7969-9.7656-7.4219-12.734-3.6094-2.9844-9.6562-2.9844h-7.1875v7.5156h5.2812q3.7031 0 5.75 1.7656 2.0625 1.75 4.5469 8.2969l1.6094 4.0938-22.109 53.812h9.5156l17.094-42.766 17.094 42.766h9.5156z"/>
</defs>
<use xlink:href="#aq"/>
<use x="63.476562" xlink:href="#d"/>
<use x="125" xlink:href="#g"/>
<use x="186.279297" xlink:href="#ab"/>
<use x="249.658203" xlink:href="#q"/>
<use x="288.867188" xlink:href="#av"/>
</g>
</g>
<g clip-path="url(#a)">
<g transform="translate(1078.8 664.58) scale(.1 -.1)">
<use xlink:href="#g"/>
<use x="61.279297" xlink:href="#f"/>
<use x="124.658203" xlink:href="#af"/>
</g>
</g>
<g clip-path="url(#a)">
<g transform="translate(1148.3 664.58) scale(.1 -.1)">
<use xlink:href="#ap"/>
<use x="63.476562" xlink:href="#h"/>
<use x="104.589844" xlink:href="#g"/>
<use x="165.869141" xlink:href="#f"/>
<use x="229.248047" xlink:href="#af"/>
<use x="292.724609" xlink:href="#d"/>
<use x="354.248047" xlink:href="#ab"/>
<use x="417.626953" xlink:href="#h"/>
</g>
</g>
<g clip-path="url(#a)">
<g transform="translate(1255.9 664.58) scale(.1 -.1)">
<defs>
<path id="e" d="m10.688 12.406h10.312v-12.406h-10.312z"/>
</defs>
<use xlink:href="#e"/>
</g>
</g>
<g clip-path="url(#a)">
<g transform="translate(211.8 34.275) scale(.1 -.1)">
<defs>
<path id="c" d="m12.406 8.2969h16.109v55.625l-17.531-3.5156v8.9844l17.438 3.5156h9.8594v-64.609h16.109v-8.2969h-41.984z"/>
</defs>
<use xlink:href="#c"/>
<use x="63.623047" xlink:href="#e"/>
<use x="95.410156" xlink:href="#c"/>
</g>
</g>
<g clip-path="url(#a)">
<g transform="translate(59.911 456.77) scale(.1 -.1)">
<defs>
<path id="n" d="m19.188 8.2969h34.422v-8.2969h-46.281v8.2969q5.6094 5.8125 15.297 15.594 9.7031 9.7969 12.188 12.641 4.7344 5.3125 6.6094 9 1.8906 3.6875 1.8906 7.25 0 5.8125-4.0781 9.4688-4.0781 3.6719-10.625 3.6719-4.6406 0-9.7969-1.6094-5.1406-1.6094-11-4.8906v9.9688q5.9531 2.3906 11.125 3.6094 5.1875 1.2188 9.4844 1.2188 11.328 0 18.062-5.6719 6.7344-5.6562 6.7344-15.125 0-4.5-1.6875-8.5312-1.6719-4.0156-6.125-9.4844-1.2188-1.4219-7.7656-8.1875-6.5312-6.7656-18.453-18.922z"/>
</defs>
<use xlink:href="#c"/>
<use x="63.623047" xlink:href="#e"/>
<use x="95.410156" xlink:href="#n"/>
</g>
</g>
<g clip-path="url(#a)">
<g transform="translate(485.23 140.28) scale(.1 -.1)">
<defs>
<path id="m" d="m40.578 39.312q7.0781-1.5156 11.047-6.3125 3.9844-4.7812 3.9844-11.812 0-10.781-7.4219-16.703-7.4219-5.9062-21.094-5.9062-4.5781 0-9.4375 0.90625t-10.031 2.7188v9.5156q4.0938-2.3906 8.9688-3.6094 4.8906-1.2188 10.219-1.2188 9.2656 0 14.125 3.6562t4.8594 10.641q0 6.4531-4.5156 10.078-4.5156 3.6406-12.562 3.6406h-8.5v8.1094h8.8906q7.2656 0 11.125 2.9062t3.8594 8.375q0 5.6094-3.9844 8.6094-3.9688 3.0156-11.391 3.0156-4.0625 0-8.7031-0.89062-4.6406-0.875-10.203-2.7188v8.7812q5.625 1.5625 10.531 2.3438t9.25 0.78125q11.234 0 17.766-5.1094 6.5469-5.0938 6.5469-13.781 0-6.0625-3.4688-10.234t-9.8594-5.7812z"/>
</defs>
<use xlink:href="#c"/>
<use x="63.623047" xlink:href="#e"/>
<use x="95.410156" xlink:href="#m"/>
</g>
</g>
<g clip-path="url(#a)">
<g transform="translate(158.91 351.6) scale(.1 -.1)">
<defs>
<path id="aa" d="m33.016 40.375q-6.6406 0-10.531-4.5469-3.875-4.5312-3.875-12.438 0-7.8594 3.875-12.438 3.8906-4.5625 10.531-4.5625t10.516 4.5625q3.875 4.5781 3.875 12.438 0 7.9062-3.875 12.438-3.875 4.5469-10.516 4.5469zm19.578 30.922v-8.9844q-3.7188 1.75-7.5 2.6719-3.7812 0.9375-7.5 0.9375-9.7656 0-14.922-6.5938-5.1406-6.5938-5.875-19.922 2.875 4.25 7.2188 6.5156 4.3594 2.2656 9.5781 2.2656 10.984 0 17.359-6.6719 6.375-6.6562 6.375-18.125 0-11.234-6.6406-18.031-6.6406-6.7812-17.672-6.7812-12.656 0-19.344 9.6875-6.6875 9.7031-6.6875 28.109 0 17.281 8.2031 27.562t22.016 10.281q3.7188 0 7.5-0.73438t7.8906-2.1875z"/>
</defs>
<use xlink:href="#c"/>
<use x="63.623047" xlink:href="#e"/>
<use x="95.410156" xlink:href="#aa"/>
</g>
</g>
<g clip-path="url(#a)">
<g transform="translate(425.57 561.39) scale(.1 -.1)">
<defs>
<path id="z" d="m8.2031 72.906h46.875v-4.2031l-26.469-68.703h-10.297l24.906 64.594h-35.016z"/>
</defs>
<use xlink:href="#c"/>
<use x="63.623047" xlink:href="#e"/>
<use x="95.410156" xlink:href="#z"/>
</g>
</g>
<g clip-path="url(#a)">
<g transform="translate(476.67 561.39) scale(.1 -.1)">
<defs>
<path id="y" d="m31.781 34.625q-7.0312 0-11.062-3.7656-4.0156-3.7656-4.0156-10.344 0-6.5938 4.0156-10.359 4.0312-3.7656 11.062-3.7656t11.078 3.7812q4.0625 3.7969 4.0625 10.344 0 6.5781-4.0312 10.344-4.0156 3.7656-11.109 3.7656zm-9.8594 4.1875q-6.3438 1.5625-9.8906 5.9062-3.5312 4.3594-3.5312 10.609 0 8.7344 6.2188 13.812 6.2344 5.0781 17.062 5.0781 10.891 0 17.094-5.0781t6.2031-13.812q0-6.25-3.5469-10.609-3.5312-4.3438-9.8281-5.9062 7.125-1.6562 11.094-6.5 3.9844-4.8281 3.9844-11.797 0-10.609-6.4688-16.281-6.4688-5.6562-18.531-5.6562-12.047 0-18.531 5.6562-6.4688 5.6719-6.4688 16.281 0 6.9688 4 11.797 4.0156 4.8438 11.141 6.5zm-3.6094 15.578q0-5.6562 3.5312-8.8281 3.5469-3.1719 9.9375-3.1719 6.3594 0 9.9375 3.1719 3.5938 3.1719 3.5938 8.8281 0 5.6719-3.5938 8.8438-3.5781 3.1719-9.9375 3.1719-6.3906 0-9.9375-3.1719-3.5312-3.1719-3.5312-8.8438z"/>
</defs>
<use xlink:href="#c"/>
<use x="63.623047" xlink:href="#e"/>
<use x="95.410156" xlink:href="#y"/>
</g>
</g>
<g clip-path="url(#a)">
<g transform="translate(530.96 561.39) scale(.1 -.1)">
<defs>
<path id="x" d="m10.984 1.5156v8.9844q3.7188-1.7656 7.5156-2.6875 3.8125-0.92188 7.4844-0.92188 9.7656 0 14.906 6.5625 5.1562 6.5625 5.8906 19.953-2.8281-4.2031-7.1875-6.4531-4.3438-2.25-9.6094-2.25-10.938 0-17.312 6.6094-6.375 6.625-6.375 18.109 0 11.219 6.6406 18 6.6406 6.7969 17.672 6.7969 12.656 0 19.312-9.7031 6.6719-9.6875 6.6719-28.141 0-17.234-8.1875-27.516-8.1719-10.281-21.984-10.281-3.7188 0-7.5312 0.73438-3.7969 0.73438-7.9062 2.2031zm19.625 30.906q6.6406 0 10.516 4.5312 3.8906 4.5469 3.8906 12.469 0 7.8594-3.8906 12.422-3.875 4.5625-10.516 4.5625t-10.516-4.5625-3.875-12.422q0-7.9219 3.875-12.469 3.875-4.5312 10.516-4.5312z"/>
</defs>
<use xlink:href="#c"/>
<use x="63.623047" xlink:href="#e"/>
<use x="95.410156" xlink:href="#x"/>
</g>
</g>
<g clip-path="url(#a)">
<g transform="translate(585.26 561.39) scale(.1 -.1)">
<defs>
<path id="ak" d="m31.781 66.406q-7.6094 0-11.453-7.5-3.8281-7.4844-3.8281-22.531 0-14.984 3.8281-22.484 3.8438-7.5 11.453-7.5 7.6719 0 11.5 7.5 3.8438 7.5 3.8438 22.484 0 15.047-3.8438 22.531-3.8281 7.5-11.5 7.5zm0 7.8125q12.266 0 18.734-9.7031 6.4688-9.6875 6.4688-28.141 0-18.406-6.4688-28.109-6.4688-9.6875-18.734-9.6875-12.25 0-18.719 9.6875-6.4688 9.7031-6.4688 28.109 0 18.453 6.4688 28.141 6.4688 9.7031 18.719 9.7031z"/>
</defs>
<use xlink:href="#c"/>
<use x="63.623047" xlink:href="#e"/>
<use x="95.410156" xlink:href="#c"/>
<use x="159.033203" xlink:href="#ak"/>
</g>
</g>
<g clip-path="url(#a)">
<g transform="translate(823.64 246.08) scale(.1 -.1)">
<use xlink:href="#c"/>
<use x="63.623047" xlink:href="#e"/>
<use x="95.410156" xlink:href="#c"/>
<use x="159.033203" xlink:href="#c"/>
</g>
</g>
<g clip-path="url(#a)">
<g transform="translate(709.81 561.39) scale(.1 -.1)">
<defs>
<path id="aj" d="m10.797 72.906h38.719v-8.3125h-29.688v-17.859q2.1406 0.73438 4.2812 1.0938 2.1562 0.35938 4.3125 0.35938 12.203 0 19.328-6.6875 7.1406-6.6875 7.1406-18.109 0-11.766-7.3281-18.297-7.3281-6.5156-20.656-6.5156-4.5938 0-9.3594 0.78125-4.75 0.78125-9.8281 2.3438v9.9219q4.3906-2.3906 9.0781-3.5625t9.9062-1.1719q8.4531 0 13.375 4.4375 4.9375 4.4375 4.9375 12.062 0 7.6094-4.9375 12.047-4.9219 4.4531-13.375 4.4531-3.9531 0-7.8906-0.875-3.9219-0.875-8.0156-2.7344z"/>
</defs>
<use xlink:href="#c"/>
<use x="63.623047" xlink:href="#e"/>
<use x="95.410156" xlink:href="#c"/>
<use x="159.033203" xlink:href="#aj"/>
</g>
</g>
<g clip-path="url(#a)">
<g transform="translate(776.87 561.39) scale(.1 -.1)">
<use xlink:href="#c"/>
<use x="63.623047" xlink:href="#e"/>
<use x="95.410156" xlink:href="#c"/>
<use x="159.033203" xlink:href="#aa"/>
</g>
</g>
<g clip-path="url(#a)">
<g transform="translate(984.24 351.6) scale(.1 -.1)">
<use xlink:href="#c"/>
<use x="63.623047" xlink:href="#e"/>
<use x="95.410156" xlink:href="#c"/>
<use x="159.033203" xlink:href="#z"/>
</g>
</g>
<g clip-path="url(#a)">
<g transform="translate(1077.1 561.39) scale(.1 -.1)">
<use xlink:href="#c"/>
<use x="63.623047" xlink:href="#e"/>
<use x="95.410156" xlink:href="#c"/>
<use x="159.033203" xlink:href="#y"/>
</g>
</g>
<g clip-path="url(#a)">
<g transform="translate(885.45 456.77) scale(.1 -.1)">
<use xlink:href="#c"/>
<use x="63.623047" xlink:href="#e"/>
<use x="95.410156" xlink:href="#c"/>
<use x="159.033203" xlink:href="#x"/>
</g>
</g>
<g clip-path="url(#a)">
<g transform="translate(990.2 456.77) scale(.1 -.1)">
<use xlink:href="#c"/>
<use x="63.623047" xlink:href="#e"/>
<use x="95.410156" xlink:href="#n"/>
<use x="159.033203" xlink:href="#ak"/>
</g>
</g>
<g clip-path="url(#a)">
<g transform="translate(1160.1 561.39) scale(.1 -.1)">
<use xlink:href="#c"/>
<use x="63.623047" xlink:href="#e"/>
<use x="95.410156" xlink:href="#n"/>
<use x="159.033203" xlink:href="#c"/>
</g>
</g>
<g clip-path="url(#a)">
<g transform="translate(847.13 561.39) scale(.1 -.1)">
<use xlink:href="#c"/>
<use x="63.623047" xlink:href="#e"/>
<use x="95.410156" xlink:href="#n"/>
<use x="159.033203" xlink:href="#n"/>
</g>
</g>
<g clip-path="url(#a)">
<g transform="translate(920.58 561.39) scale(.1 -.1)">
<use xlink:href="#c"/>
<use x="63.623047" xlink:href="#e"/>
<use x="95.410156" xlink:href="#n"/>
<use x="159.033203" xlink:href="#m"/>
</g>
</g>
<g clip-path="url(#a)">
<g transform="translate(997.23 561.39) scale(.1 -.1)">
<defs>
<path id="am" d="m37.797 64.312-24.906-38.922h24.906zm-2.5938 8.5938h12.406v-47.516h10.406v-8.2031h-10.406v-17.188h-9.8125v17.188h-32.906v9.5156z"/>
</defs>
<use xlink:href="#c"/>
<use x="63.623047" xlink:href="#e"/>
<use x="95.410156" xlink:href="#n"/>
<use x="159.033203" xlink:href="#am"/>
</g>
</g>
<g clip-path="url(#a)">
<g transform="translate(106.23 561.39) scale(.1 -.1)">
<use xlink:href="#c"/>
<use x="63.623047" xlink:href="#e"/>
<use x="95.410156" xlink:href="#n"/>
<use x="159.033203" xlink:href="#aj"/>
</g>
</g>
<g clip-path="url(#a)">
<g transform="translate(128.58 561.39) scale(.1 -.1)">
<use xlink:href="#c"/>
<use x="63.623047" xlink:href="#e"/>
<use x="95.410156" xlink:href="#n"/>
<use x="159.033203" xlink:href="#aa"/>
</g>
</g>
<g clip-path="url(#a)">
<g transform="translate(154.13 561.39) scale(.1 -.1)">
<use xlink:href="#c"/>
<use x="63.623047" xlink:href="#e"/>
<use x="95.410156" xlink:href="#n"/>
<use x="159.033203" xlink:href="#z"/>
</g>
</g>
<g clip-path="url(#a)">
<g transform="translate(233.97 456.77) scale(.1 -.1)">
<use xlink:href="#c"/>
<use x="63.623047" xlink:href="#e"/>
<use x="95.410156" xlink:href="#n"/>
<use x="159.033203" xlink:href="#y"/>
</g>
</g>
<g clip-path="url(#a)">
<g transform="translate(182.87 561.39) scale(.1 -.1)">
<use xlink:href="#c"/>
<use x="63.623047" xlink:href="#e"/>
<use x="95.410156" xlink:href="#n"/>
<use x="159.033203" xlink:href="#x"/>
</g>
</g>
<g clip-path="url(#a)">
<g transform="translate(214.81 561.39) scale(.1 -.1)">
<use xlink:href="#c"/>
<use x="63.623047" xlink:href="#e"/>
<use x="95.410156" xlink:href="#m"/>
<use x="159.033203" xlink:href="#ak"/>
</g>
</g>
<g clip-path="url(#a)">
<g transform="translate(249.94 561.39) scale(.1 -.1)">
<use xlink:href="#c"/>
<use x="63.623047" xlink:href="#e"/>
<use x="95.410156" xlink:href="#m"/>
<use x="159.033203" xlink:href="#c"/>
</g>
</g>
<g clip-path="url(#a)">
<g transform="translate(288.26 561.39) scale(.1 -.1)">
<use xlink:href="#c"/>
<use x="63.623047" xlink:href="#e"/>
<use x="95.410156" xlink:href="#m"/>
<use x="159.033203" xlink:href="#n"/>
</g>
</g>
<g clip-path="url(#a)">
<g transform="translate(48.746 561.39) scale(.1 -.1)">
<use xlink:href="#c"/>
<use x="63.623047" xlink:href="#e"/>
<use x="95.410156" xlink:href="#m"/>
<use x="159.033203" xlink:href="#m"/>
</g>
</g>
<g clip-path="url(#a)">
<g transform="translate(64.714 561.39) scale(.1 -.1)">
<use xlink:href="#c"/>
<use x="63.623047" xlink:href="#e"/>
<use x="95.410156" xlink:href="#m"/>
<use x="159.033203" xlink:href="#am"/>
</g>
</g>
<g clip-path="url(#a)">
<g transform="translate(87.068 561.39) scale(.1 -.1)">
<use xlink:href="#c"/>
<use x="63.623047" xlink:href="#e"/>
<use x="95.410156" xlink:href="#m"/>
<use x="159.033203" xlink:href="#aj"/>
</g>
</g>
<g clip-path="url(#a)">
<g transform="translate(329.78 561.39) scale(.1 -.1)">
<use xlink:href="#c"/>
<use x="63.623047" xlink:href="#e"/>
<use x="95.410156" xlink:href="#m"/>
<use x="159.033203" xlink:href="#aa"/>
</g>
</g>
<g clip-path="url(#a)">
<g transform="translate(374.49 561.39) scale(.1 -.1)">
<use xlink:href="#c"/>
<use x="63.623047" xlink:href="#e"/>
<use x="95.410156" xlink:href="#m"/>
<use x="159.033203" xlink:href="#z"/>
</g>
</g>
<g clip-path="url(#a)">
<g transform="translate(645.94 561.39) scale(.1 -.1)">
<use xlink:href="#c"/>
<use x="63.623047" xlink:href="#e"/>
<use x="95.410156" xlink:href="#m"/>
<use x="159.033203" xlink:href="#y"/>
</g>
</g>
<g clip-path="url(#a)">
<g transform="translate(1246.3 561.39) scale(.1 -.1)">
<use xlink:href="#c"/>
<use x="63.623047" xlink:href="#e"/>
<use x="95.410156" xlink:href="#m"/>
<use x="159.033203" xlink:href="#x"/>
</g>
</g>
<defs>
<clipPath id="a">
<rect width="1317.3" height="693.33"/>
</clipPath>
</defs>
</svg>
