<?xml version="1.0" encoding="UTF-8"?>
<!DOCTYPE svg  PUBLIC '-//W3C//DTD SVG 1.1//EN'  'http://www.w3.org/Graphics/SVG/1.1/DTD/svg11.dtd'>
<svg width="1621.3pt" height="853.33pt" version="1.1" viewBox="0 0 1621.3 853.33" xmlns="http://www.w3.org/2000/svg" xmlns:xlink="http://www.w3.org/1999/xlink">
<defs>
<style type="text/css">*{stroke-linecap:butt;stroke-linejoin:round;}</style>
</defs>
<path d="m0 853.33h1621.3v-853.33h-1621.3z" fill="#fff"/>
<g fill="none" stroke="#000">
<path d="m994.39 39.563-920.52 668.18" clip-path="url(#a)"/>
<path d="m994.39 39.563-716.96 118.09" clip-path="url(#a)"/>
<path d="m994.39 39.563-68.143 454.65" clip-path="url(#a)"/>
<path d="m994.39 39.563 53.454 233.02" clip-path="url(#a)"/>
<path d="m994.39 39.563 206.35 668.18" clip-path="url(#a)"/>
<path d="m994.39 39.563 207.71 345.08" clip-path="url(#a)"/>
<path d="m994.39 39.563 336.38 668.18" clip-path="url(#a)"/>
<path d="m994.39 39.563-97.037 668.18" clip-path="url(#a)"/>
<path d="m994.39 39.563 32.987 668.18" clip-path="url(#a)"/>
<path d="m994.39 39.563 163.01 668.18" clip-path="url(#a)"/>
<path d="m994.39 39.563 379.72 668.18" clip-path="url(#a)"/>
<path d="m994.39 39.563 423.06 668.18" clip-path="url(#a)"/>
<path d="m73.864 707.74v106.03" clip-path="url(#a)"/>
<path d="m277.43 157.66-160.22 550.09" clip-path="url(#a)"/>
<path d="m277.43 157.66-116.88 550.09" clip-path="url(#a)"/>
<path d="m277.43 157.66 277.1 114.92" clip-path="url(#a)"/>
<path d="m926.24 494.22 621.23 319.55" clip-path="url(#a)"/>
<path d="m926.24 494.22 36.118 213.53" clip-path="url(#a)"/>
<path d="m926.24 494.22-657.34 107.5" clip-path="url(#a)" stroke-dasharray="3.7,1.6"/>
<path d="m1047.8 272.58 456.29 541.19" clip-path="url(#a)"/>
<path d="m1047.8 272.58 44.545 435.17" clip-path="url(#a)"/>
<path d="m1047.8 272.58-500.83 112.07" clip-path="url(#a)" stroke-dasharray="3.7,1.6"/>
<path d="m1200.7 707.74v106.03" clip-path="url(#a)"/>
<path d="m1202.1 384.65 41.987 429.13" clip-path="url(#a)"/>
<path d="m1202.1 384.65 258.69 429.13" clip-path="url(#a)"/>
<path d="m1202.1 384.65 85.328 323.1" clip-path="url(#a)"/>
<path d="m1202.1 384.65-386.01 109.57" clip-path="url(#a)" stroke-dasharray="3.7,1.6"/>
<path d="m1330.8 707.74v106.03" clip-path="url(#a)"/>
<path d="m1287.4 707.74v106.03" clip-path="url(#a)"/>
<path d="m1092.4 707.74-21.671 106.03" clip-path="url(#a)"/>
<path d="m1092.4 707.74 21.671 106.03" clip-path="url(#a)"/>
<path d="m962.36 707.74-21.671 106.03" clip-path="url(#a)"/>
<path d="m962.36 707.74 21.671 106.03" clip-path="url(#a)"/>
<path d="m117.21 707.74v106.03" clip-path="url(#a)"/>
<path d="m160.55 707.74v106.03" clip-path="url(#a)"/>
<path d="m554.53 272.58-285.63 329.14" clip-path="url(#a)"/>
<path d="m554.53 272.58-7.5245 112.07" clip-path="url(#a)"/>
<path d="m554.53 272.58 126.11 435.17" clip-path="url(#a)"/>
<path d="m554.53 272.58 261.55 221.64" clip-path="url(#a)"/>
<path d="m554.53 272.58-177.28 435.17" clip-path="url(#a)"/>
<path d="m554.53 272.58 82.77 435.17" clip-path="url(#a)"/>
<path d="m268.9 601.72-65.012 106.03" clip-path="url(#a)"/>
<path d="m268.9 601.72v106.03" clip-path="url(#a)"/>
<path d="m268.9 601.72 65.012 106.03" clip-path="url(#a)"/>
<path d="m547.01 384.65-46.953 109.57" clip-path="url(#a)"/>
<path d="m547.01 384.65 46.953 323.1" clip-path="url(#a)"/>
<path d="m680.64 707.74v106.03" clip-path="url(#a)"/>
<path d="m816.08 494.22-37.924 107.5" clip-path="url(#a)"/>
<path d="m816.08 494.22 37.924 213.53" clip-path="url(#a)"/>
<path d="m778.16 601.72-32.506 106.03" clip-path="url(#a)"/>
<path d="m778.16 601.72 32.506 106.03" clip-path="url(#a)"/>
<path d="m854.01 707.74v106.03" clip-path="url(#a)"/>
<path d="m745.65 707.74-21.671 106.03" clip-path="url(#a)"/>
<path d="m745.65 707.74 21.671 106.03" clip-path="url(#a)"/>
<path d="m810.67 707.74v106.03" clip-path="url(#a)"/>
<path d="m500.05 494.22-57.788 107.5" clip-path="url(#a)"/>
<path d="m500.05 494.22 7.2236 213.53" clip-path="url(#a)"/>
<path d="m500.05 494.22 50.565 213.53" clip-path="url(#a)"/>
<path d="m593.96 707.74v106.03" clip-path="url(#a)"/>
<path d="m442.27 601.72-21.671 106.03" clip-path="url(#a)"/>
<path d="m442.27 601.72 21.671 106.03" clip-path="url(#a)"/>
<path d="m507.28 707.74v106.03" clip-path="url(#a)"/>
<path d="m550.62 707.74v106.03" clip-path="url(#a)"/>
<path d="m420.59 707.74v106.03" clip-path="url(#a)"/>
<path d="m463.94 707.74v106.03" clip-path="url(#a)"/>
<path d="m203.89 707.74v106.03" clip-path="url(#a)"/>
<path d="m268.9 707.74-21.671 106.03" clip-path="url(#a)"/>
<path d="m268.9 707.74 21.671 106.03" clip-path="url(#a)"/>
<path d="m333.91 707.74v106.03" clip-path="url(#a)"/>
<path d="m377.25 707.74v106.03" clip-path="url(#a)"/>
<path d="m637.3 707.74v106.03" clip-path="url(#a)"/>
<path d="m897.35 707.74v106.03" clip-path="url(#a)"/>
<path d="m1027.4 707.74v106.03" clip-path="url(#a)"/>
<path d="m1157.4 707.74v106.03" clip-path="url(#a)"/>
<path d="m1374.1 707.74v106.03" clip-path="url(#a)"/>
<path d="m1417.4 707.74v106.03" clip-path="url(#a)"/>
</g>
<path d="m536.01 380.04 3.6073-2.6185q1.9423-1.4098 0.53243-3.3521l-4.5482-6.2658q-1.4098-1.9423-3.3521-0.53243l-3.6073 2.6185q-1.9423 1.4098-0.53243 3.3521l4.5482 6.2658q1.4098 1.9423 3.3521 0.53243z" clip-path="url(#a)" fill="#fff" stroke="#fff"/>
<g clip-path="url(#a)">
<defs>
<path id="u" d="m9.8125 72.906h9.8594v-64.609h35.5v-8.2969h-45.359z"/>
</defs>
<g transform="translate(533.62 376.75) rotate(-35.975) scale(.08 -.08)">
<use xlink:href="#u"/>
</g>
</g>
<path d="m633.96 105.29 5.9363-0.9778q2.3681-0.39006 1.978-2.7582l-1.2584-7.6396q-0.39006-2.3681-2.7582-1.978l-5.9363 0.9778q-2.3681 0.39006-1.978 2.7582l1.2584 7.6396q0.39006 2.3681 2.7582 1.978z" clip-path="url(#a)" fill="#fff" stroke="#fff"/>
<g clip-path="url(#a)">
<defs>
<path id="ac" d="m9.8125 72.906h9.8594v-29.891h35.844v29.891h9.8594v-72.906h-9.8594v34.719h-35.844v-34.719h-9.8594z"/>
</defs>
<g transform="translate(633.3 101.28) rotate(-9.3535) scale(.08 -.08)">
<use xlink:href="#ac"/>
</g>
</g>
<path d="m966.07 270.79 0.89175-5.9498q0.35574-2.3735-2.0178-2.7292l-7.657-1.1476q-2.3735-0.35574-2.7292 2.0178l-0.89175 5.9498q-0.35574 2.3735 2.0178 2.7292l7.657 1.1476q2.3735 0.35574 2.7292-2.0178z" clip-path="url(#a)" fill="#fff" stroke="#fff"/>
<g clip-path="url(#a)">
<g transform="translate(962.05 270.19) rotate(-81.476) scale(.08 -.08)">
<use xlink:href="#ac"/>
</g>
</g>
<path d="m1014.3 154.54 1.3452 5.8639q0.53662 2.3392 2.8759 1.8026l7.5465-1.7312q2.3392-0.53662 1.8026-2.8759l-1.3452-5.8639q-0.53662-2.3392-2.8759-1.8026l-7.5465 1.7312q-2.3392 0.53662-1.8026 2.8759z" clip-path="url(#a)" fill="#fff" stroke="#fff"/>
<g clip-path="url(#a)">
<g transform="translate(1018.3 153.63) rotate(77.08) scale(.08 -.08)">
<use xlink:href="#ac"/>
</g>
</g>
<path d="m1090.9 373.37 1.3153 4.259q0.70818 2.2931 3.0013 1.585l7.3978-2.2846q2.2931-0.70818 1.585-3.0013l-1.3153-4.259q-0.70818-2.2931-3.0013-1.585l-7.3978 2.2846q-2.2931 0.70818-1.585 3.0013z" clip-path="url(#a)" fill="#fff" stroke="#fff"/>
<g clip-path="url(#a)">
<g transform="translate(1094.8 372.18) rotate(72.838) scale(.08 -.08)">
<use xlink:href="#u"/>
</g>
</g>
<path d="m1091.3 212.76 3.1025 5.1546q1.2377 2.0563 3.2939 0.81859l6.6336-3.9928q2.0563-1.2377 0.81859-3.2939l-3.1025-5.1546q-1.2377-2.0563-3.2939-0.81859l-6.6336 3.9928q-2.0563 1.2377-0.81859 3.2939z" clip-path="url(#a)" fill="#fff" stroke="#fff"/>
<g clip-path="url(#a)">
<g transform="translate(1094.8 210.67) rotate(58.956) scale(.08 -.08)">
<use xlink:href="#ac"/>
</g>
</g>
<path d="m1156 374.48 2.0043 3.9814q1.0792 2.1437 3.2229 1.0645l6.9156-3.4815q2.1437-1.0792 1.0645-3.2229l-2.0043-3.9814q-1.0792-2.1437-3.2229-1.0645l-6.9156 3.4815q-2.1437 1.0792-1.0645 3.2229z" clip-path="url(#a)" fill="#fff" stroke="#fff"/>
<g clip-path="url(#a)">
<g transform="translate(1159.6 372.66) rotate(63.278) scale(.08 -.08)">
<use xlink:href="#u"/>
</g>
</g>
<path d="m951.65 377.45 0.84147-5.7942q0.34492-2.3751-2.0302-2.72l-7.6621-1.1127q-2.3751-0.34492-2.72 2.0302l-0.84147 5.7942q-0.34492 2.3751 2.0302 2.72l7.6621 1.1127q2.3751 0.34492 2.72-2.0302z" clip-path="url(#a)" fill="#fff" stroke="#fff"/>
<g clip-path="url(#a)">
<defs>
<path id="t" d="m8.6875 72.906h9.9219v-44.297q0-11.719 4.2344-16.875 4.25-5.1406 13.781-5.1406 9.4688 0 13.719 5.1406 4.25 5.1562 4.25 16.875v44.297h9.9062v-45.516q0-14.25-7.0625-21.531-7.0469-7.2812-20.812-7.2812-13.828 0-20.891 7.2812-7.0469 7.2812-7.0469 21.531z"/>
</defs>
<g transform="translate(947.63 376.87) rotate(-81.737) scale(.08 -.08)">
<use xlink:href="#t"/>
</g>
</g>
<path d="m1004.5 371.04 0.2887 5.8479q0.11834 2.3971 2.5154 2.2787l7.7331-0.38177q2.3971-0.11834 2.2787-2.5154l-0.2887-5.8479q-0.11834-2.3971-2.5154-2.2787l-7.7331 0.38177q-2.3971 0.11834-2.2787 2.5154z" clip-path="url(#a)" fill="#fff" stroke="#fff"/>
<g clip-path="url(#a)">
<g transform="translate(1008.5 370.84) rotate(87.174) scale(.08 -.08)">
<use xlink:href="#t"/>
</g>
</g>
<path d="m1069.1 372.3 1.3877 5.6882q0.56882 2.3316 2.9004 1.7628l7.5219-1.8351q2.3316-0.56883 1.7628-2.9004l-1.3877-5.6882q-0.56882-2.3316-2.9004-1.7628l-7.5219 1.8351q-2.3316 0.56883-1.7628 2.9004z" clip-path="url(#a)" fill="#fff" stroke="#fff"/>
<g clip-path="url(#a)">
<g transform="translate(1073.1 371.33) rotate(76.29) scale(.08 -.08)">
<use xlink:href="#t"/>
</g>
</g>
<path d="m1177.3 374.21 2.8928 5.0904q1.1858 2.0866 3.2724 0.90082l6.7315-3.8254q2.0866-1.1858 0.90082-3.2724l-2.8928-5.0904q-1.1858-2.0866-3.2724-0.90082l-6.7315 3.8254q-2.0866 1.1858-0.90082 3.2724z" clip-path="url(#a)" fill="#fff" stroke="#fff"/>
<g clip-path="url(#a)">
<g transform="translate(1180.9 372.2) rotate(60.391) scale(.08 -.08)">
<use xlink:href="#t"/>
</g>
</g>
<path d="m1199.1 374.53 3.1321 4.9468q1.2839 2.0277 3.3116 0.74388l6.5416-4.1418q2.0277-1.2839 0.74388-3.3116l-3.1321-4.9468q-1.2839-2.0277-3.3116-0.74388l-6.5416 4.1418q-2.0277 1.2839-0.74388 3.3116z" clip-path="url(#a)" fill="#fff" stroke="#fff"/>
<g clip-path="url(#a)">
<g transform="translate(1202.5 372.36) rotate(57.66) scale(.08 -.08)">
<use xlink:href="#t"/>
</g>
</g>
<path d="m67.592 743.12v35.285q0 2.4 2.4 2.4h7.7425q2.4 0 2.4-2.4v-35.285q0-2.4-2.4-2.4h-7.7425q-2.4 0-2.4 2.4z" clip-path="url(#a)" fill="#fff" stroke="#fff"/>
<g clip-path="url(#a)">
<defs>
<path id="k" d="m-0.29688 72.906h61.672v-8.3125h-25.875v-64.594h-9.9062v64.594h-25.891z"/>
<path id="e" d="m56.203 29.594v-4.3906h-41.312q0.59375-9.2812 5.5938-14.141t13.938-4.8594q5.1719 0 10.031 1.2656t9.6562 3.8125v-8.5q-4.8438-2.0469-9.9219-3.125t-10.297-1.0781q-13.094 0-20.734 7.6094-7.6406 7.625-7.6406 20.625 0 13.422 7.25 21.297 7.25 7.8906 19.562 7.8906 11.031 0 17.453-7.1094 6.4219-7.0938 6.4219-19.297zm-8.9844 2.6406q-0.09375 7.3594-4.125 11.75-4.0312 4.4062-10.672 4.4062-7.5156 0-12.031-4.25t-5.2031-11.969z"/>
<path id="h" d="m41.109 46.297q-1.5156 0.875-3.2969 1.2812-1.7812 0.42188-3.9219 0.42188-7.625 0-11.703-4.9531t-4.0781-14.234v-28.812h-9.0312v54.688h9.0312v-8.5q2.8438 4.9844 7.375 7.3906 4.5469 2.4219 11.047 2.4219 0.92188 0 2.0469-0.125 1.125-0.10938 2.4844-0.35938z"/>
<path id="l" d="m52 44.188q3.375 6.0625 8.0625 8.9375t11.031 2.875q8.5469 0 13.188-5.9844 4.6406-5.9688 4.6406-17v-33.016h-9.0312v32.719q0 7.8594-2.7969 11.656-2.7812 3.8125-8.4844 3.8125-6.9844 0-11.047-4.6406-4.0469-4.625-4.0469-12.641v-30.906h-9.0312v32.719q0 7.9062-2.7812 11.688t-8.5938 3.7812q-6.8906 0-10.953-4.6562-4.0469-4.6562-4.0469-12.625v-30.906h-9.0312v54.688h9.0312v-8.5q3.0781 5.0312 7.375 7.4219t10.203 2.3906q5.9688 0 10.141-3.0312 4.1719-3.0156 6.1719-8.7812z"/>
<path id="j" d="m9.4219 54.688h8.9844v-54.688h-8.9844zm0 21.297h8.9844v-11.391h-8.9844z"/>
<path id="i" d="m54.891 33.016v-33.016h-8.9844v32.719q0 7.7656-3.0312 11.609-3.0312 3.8594-9.0781 3.8594-7.2812 0-11.484-4.6406-4.2031-4.625-4.2031-12.641v-30.906h-9.0312v54.688h9.0312v-8.5q3.2344 4.9375 7.5938 7.375 4.375 2.4375 10.094 2.4375 9.4219 0 14.25-5.8281 4.8438-5.8281 4.8438-17.156z"/>
<path id="f" d="m34.281 27.484q-10.891 0-15.094-2.4844t-4.2031-8.5q0-4.7812 3.1562-7.5938 3.1562-2.7969 8.5625-2.7969 7.4844 0 12 5.2969t4.5156 14.078v2zm17.922 3.7188v-31.203h-8.9844v8.2969q-3.0781-4.9688-7.6719-7.3438t-11.234-2.375q-8.3906 0-13.359 4.7188-4.9531 4.7188-4.9531 12.625 0 9.2188 6.1719 13.906 6.1875 4.6875 18.438 4.6875h12.609v0.89062q0 6.2031-4.0781 9.5938t-11.453 3.3906q-4.6875 0-9.1406-1.125-4.4375-1.125-8.5312-3.375v8.3125q4.9219 1.9062 9.5625 2.8438 4.6406 0.95312 9.0312 0.95312 11.875 0 17.734-6.1562 5.8594-6.1406 5.8594-18.641z"/>
<path id="d" d="m9.4219 75.984h8.9844v-75.984h-8.9844z"/>
</defs>
<g transform="translate(71.656 743.12) rotate(90) scale(.08 -.08)">
<use xlink:href="#k"/>
<use x="60.818359" xlink:href="#e"/>
<use x="122.341797" xlink:href="#h"/>
<use x="163.439453" xlink:href="#l"/>
<use x="260.851562" xlink:href="#j"/>
<use x="288.634766" xlink:href="#i"/>
<use x="352.013672" xlink:href="#f"/>
<use x="413.292969" xlink:href="#d"/>
</g>
</g>
<path d="m202.57 437.08 1.5304-5.2542q0.67115-2.3042-1.6331-2.9754l-7.4336-2.1652q-2.3042-0.67115-2.9754 1.6331l-1.5304 5.2542q-0.67115 2.3042 1.6331 2.9754l7.4336 2.1652q2.3042 0.67115 2.9754-1.6331z" clip-path="url(#a)" fill="#fff" stroke="#fff"/>
<g clip-path="url(#a)">
<defs>
<path id="r" d="m34.188 63.188-13.391-36.281h26.812zm-5.5781 9.7188h11.188l27.781-72.906h-10.25l-6.6406 18.703h-32.859l-6.6406-18.703h-10.406z"/>
</defs>
<g transform="translate(198.67 435.95) rotate(-73.761) scale(.08 -.08)">
<use xlink:href="#r"/>
</g>
</g>
<path d="m224.62 436.36 1.0026-4.7184q0.49881-2.3476-1.8488-2.8464l-7.5734-1.6092q-2.3476-0.49881-2.8464 1.8488l-1.0026 4.7184q-0.49881 2.3476 1.8488 2.8464l7.5734 1.6092q2.3476 0.49881 2.8464-1.8488z" clip-path="url(#a)" fill="#fff" stroke="#fff"/>
<g clip-path="url(#a)">
<defs>
<path id="ab" d="m19.672 64.797v-27.391h12.406q6.8906 0 10.641 3.5625 3.7656 3.5625 3.7656 10.156 0 6.5469-3.7656 10.109-3.75 3.5625-10.641 3.5625zm-9.8594 8.1094h22.266q12.266 0 18.531-5.5469 6.2812-5.5469 6.2812-16.234 0-10.797-6.2812-16.312-6.2656-5.5156-18.531-5.5156h-12.406v-29.297h-9.8594z"/>
</defs>
<g transform="translate(220.64 435.52) rotate(-78.004) scale(.08 -.08)">
<use xlink:href="#ab"/>
</g>
</g>
<path d="m411.05 219.86 5.055 2.0964q2.2169 0.9194 3.1363-1.2975l2.966-7.1519q0.9194-2.2169-1.2975-3.1363l-5.055-2.0964q-2.2169-0.9194-3.1363 1.2975l-2.966 7.1519q-0.9194 2.2169 1.2975 3.1363z" clip-path="url(#a)" fill="#fff" stroke="#fff"/>
<g clip-path="url(#a)">
<g transform="translate(412.61 216.11) rotate(22.525) scale(.08 -.08)">
<use xlink:href="#r"/>
</g>
</g>
<path d="m1231.7 658.41 4.5163 2.3231q2.1342 1.0978 3.232-1.0364l3.5416-6.885q1.0978-2.1342-1.0364-3.232l-4.5163-2.3231q-2.1342-1.0978-3.232 1.0364l-3.5416 6.885q-1.0978 2.1342 1.0364 3.232z" clip-path="url(#a)" fill="#fff" stroke="#fff"/>
<g clip-path="url(#a)">
<defs>
<path id="ai" d="m53.516 70.516v-9.625q-5.6094 2.6875-10.594 4-4.9844 1.3281-9.625 1.3281-8.0469 0-12.422-3.125t-4.375-8.8906q0-4.8438 2.9062-7.3125 2.9062-2.4531 11.016-3.9688l5.9531-1.2188q11.031-2.1094 16.281-7.4062t5.25-14.172q0-10.609-7.1094-16.078-7.0938-5.4688-20.812-5.4688-5.1719 0-11.016 1.1719-5.8281 1.1719-12.078 3.4688v10.156q6-3.3594 11.766-5.0781 5.7656-1.7031 11.328-1.7031 8.4375 0 13.031 3.3125 4.5938 3.3281 4.5938 9.4844 0 5.3594-3.2969 8.3906t-10.812 4.5469l-6.0156 1.1719q-11.031 2.1875-15.969 6.875-4.9219 4.6875-4.9219 13.047 0 9.6719 6.8125 15.234t18.766 5.5625q5.1406 0 10.453-0.9375 5.3281-0.92188 10.891-2.7656z"/>
</defs>
<g transform="translate(1233.6 654.8) rotate(27.221) scale(.08 -.08)">
<use xlink:href="#ai"/>
</g>
</g>
<path d="m937.66 599.33 0.9127 5.3959q0.40027 2.3664 2.7667 1.9661l7.6341-1.2913q2.3664-0.40027 1.9661-2.7667l-0.9127-5.3959q-0.40027-2.3664-2.7667-1.9661l-7.6341 1.2913q-2.3664 0.40027-1.9661 2.7667z" clip-path="url(#a)" fill="#fff" stroke="#fff"/>
<g clip-path="url(#a)">
<g transform="translate(941.67 598.65) rotate(80.399) scale(.08 -.08)">
<use xlink:href="#r"/>
</g>
</g>
<path d="m595.88 554.6 5.4008-0.88323q2.3685-0.38735 1.9812-2.7559l-1.2496-7.641q-0.38735-2.3685-2.7559-1.9812l-5.4008 0.88323q-2.3685 0.38735-1.9812 2.7559l1.2496 7.641q0.38735 2.3685 2.7559 1.9812z" clip-path="url(#a)" fill="#fff" stroke="#fff"/>
<g clip-path="url(#a)">
<g transform="translate(595.23 550.59) rotate(-9.2879) scale(.08 -.08)">
<use xlink:href="#r"/>
</g>
</g>
<path d="m1269.6 545.28 3.2737 3.8829q1.547 1.8349 3.3819 0.28786l5.9194-4.9907q1.8349-1.547 0.28786-3.3819l-3.2737-3.8829q-1.547-1.8349-3.3819-0.28786l-5.9194 4.9907q-1.8349 1.547-0.28786 3.3819z" clip-path="url(#a)" fill="#fff" stroke="#fff"/>
<g clip-path="url(#a)">
<g transform="translate(1272.7 542.66) rotate(49.865) scale(.08 -.08)">
<use xlink:href="#ai"/>
</g>
</g>
<path d="m1063.6 488.08 0.55727 5.4441q0.2444 2.3875 2.6319 2.1431l7.7023-0.78843q2.3875-0.2444 2.1431-2.6319l-0.55727-5.4441q-0.2444-2.3875-2.6319-2.1431l-7.7023 0.78843q-2.3875 0.2444-2.1431 2.6319z" clip-path="url(#a)" fill="#fff" stroke="#fff"/>
<g clip-path="url(#a)">
<g transform="translate(1067.6 487.66) rotate(84.155) scale(.08 -.08)">
<use xlink:href="#r"/>
</g>
</g>
<path d="m796.12 335.33 5.3404-1.195q2.3421-0.52407 1.818-2.8662l-1.6907-7.5557q-0.52407-2.3421-2.8662-1.818l-5.3404 1.195q-2.3421 0.52407-1.818 2.8662l1.6907 7.5557q0.52407 2.3421 2.8662 1.818z" clip-path="url(#a)" fill="#fff" stroke="#fff"/>
<g clip-path="url(#a)">
<g transform="translate(795.24 331.36) rotate(-12.613) scale(.08 -.08)">
<use xlink:href="#r"/>
</g>
</g>
<path d="m1194.5 743.12v35.285q0 2.4 2.4 2.4h7.7425q2.4 0 2.4-2.4v-35.285q0-2.4-2.4-2.4h-7.7425q-2.4 0-2.4 2.4z" clip-path="url(#a)" fill="#fff" stroke="#fff"/>
<g clip-path="url(#a)">
<g transform="translate(1198.5 743.12) rotate(90) scale(.08 -.08)">
<use xlink:href="#k"/>
<use x="60.818359" xlink:href="#e"/>
<use x="122.341797" xlink:href="#h"/>
<use x="163.439453" xlink:href="#l"/>
<use x="260.851562" xlink:href="#j"/>
<use x="288.634766" xlink:href="#i"/>
<use x="352.013672" xlink:href="#f"/>
<use x="413.292969" xlink:href="#d"/>
</g>
</g>
<path d="m1215.1 582.26 3.436 35.117q0.23371 2.3886 2.6223 2.1549l7.7057-0.75395q2.3886-0.23371 2.1549-2.6223l-3.436-35.117q-0.23371-2.3886-2.6223-2.1549l-7.7057 0.75395q-2.3886 0.23371-2.1549 2.6223z" clip-path="url(#a)" fill="#fff" stroke="#fff"/>
<g clip-path="url(#a)">
<g transform="translate(1219.2 581.86) rotate(84.412) scale(.08 -.08)">
<use xlink:href="#k"/>
<use x="60.818359" xlink:href="#e"/>
<use x="122.341797" xlink:href="#h"/>
<use x="163.439453" xlink:href="#l"/>
<use x="260.851562" xlink:href="#j"/>
<use x="288.634766" xlink:href="#i"/>
<use x="352.013672" xlink:href="#f"/>
<use x="413.292969" xlink:href="#d"/>
</g>
</g>
<path d="m1324.8 600.27 2.6221 4.3495q1.2391 2.0554 3.2945 0.81632l6.6308-3.9973q2.0554-1.2391 0.81632-3.2945l-2.6221-4.3495q-1.2391-2.0554-3.2945-0.81632l-6.6308 3.9973q-2.0554 1.2391-0.81632 3.2945z" clip-path="url(#a)" fill="#fff" stroke="#fff"/>
<g clip-path="url(#a)">
<g transform="translate(1328.2 598.17) rotate(58.917) scale(.08 -.08)">
<use xlink:href="#ai"/>
</g>
</g>
<path d="m1238 545.15 1.3973 5.2911q0.61281 2.3204 2.9333 1.7076l7.4858-1.977q2.3204-0.61281 1.7076-2.9333l-1.3973-5.2911q-0.61281-2.3204-2.9333-1.7076l-7.4858 1.977q-2.3204 0.61281-1.7076 2.9333z" clip-path="url(#a)" fill="#fff" stroke="#fff"/>
<g clip-path="url(#a)">
<g transform="translate(1241.9 544.11) rotate(75.206) scale(.08 -.08)">
<use xlink:href="#r"/>
</g>
</g>
<path d="m1008.2 446.21 5.2645-1.4944q2.3088-0.65536 1.6534-2.9642l-2.1142-7.4482q-0.65536-2.3088-2.9642-1.6534l-5.2645 1.4944q-2.3088 0.65536-1.6534 2.9642l2.1142 7.4482q0.65536 2.3088 2.9642 1.6534z" clip-path="url(#a)" fill="#fff" stroke="#fff"/>
<g clip-path="url(#a)">
<g transform="translate(1007.1 442.3) rotate(-15.847) scale(.08 -.08)">
<use xlink:href="#r"/>
</g>
</g>
<path d="m1324.5 743.12v35.285q0 2.4 2.4 2.4h7.7425q2.4 0 2.4-2.4v-35.285q0-2.4-2.4-2.4h-7.7425q-2.4 0-2.4 2.4z" clip-path="url(#a)" fill="#fff" stroke="#fff"/>
<g clip-path="url(#a)">
<g transform="translate(1328.6 743.12) rotate(90) scale(.08 -.08)">
<use xlink:href="#k"/>
<use x="60.818359" xlink:href="#e"/>
<use x="122.341797" xlink:href="#h"/>
<use x="163.439453" xlink:href="#l"/>
<use x="260.851562" xlink:href="#j"/>
<use x="288.634766" xlink:href="#i"/>
<use x="352.013672" xlink:href="#f"/>
<use x="413.292969" xlink:href="#d"/>
</g>
</g>
<path d="m1281.2 743.12v35.285q0 2.4 2.4 2.4h7.7425q2.4 0 2.4-2.4v-35.285q0-2.4-2.4-2.4h-7.7425q-2.4 0-2.4 2.4z" clip-path="url(#a)" fill="#fff" stroke="#fff"/>
<g clip-path="url(#a)">
<g transform="translate(1285.2 743.12) rotate(90) scale(.08 -.08)">
<use xlink:href="#k"/>
<use x="60.818359" xlink:href="#e"/>
<use x="122.341797" xlink:href="#h"/>
<use x="163.439453" xlink:href="#l"/>
<use x="260.851562" xlink:href="#j"/>
<use x="288.634766" xlink:href="#i"/>
<use x="352.013672" xlink:href="#f"/>
<use x="413.292969" xlink:href="#d"/>
</g>
</g>
<path d="m1084.2 779.3 7.0658-34.57q0.4806-2.3514-1.8708-2.832l-7.5857-1.5504q-2.3514-0.4806-2.832 1.8708l-7.0658 34.57q-0.4806 2.3514 1.8708 2.832l7.5857 1.5504q2.3514 0.4806 2.832-1.8708z" clip-path="url(#a)" fill="#fff" stroke="#fff"/>
<g clip-path="url(#a)">
<g transform="translate(1080.2 778.48) rotate(-78.448) scale(.08 -.08)">
<use xlink:href="#k"/>
<use x="60.818359" xlink:href="#e"/>
<use x="122.341797" xlink:href="#h"/>
<use x="163.439453" xlink:href="#l"/>
<use x="260.851562" xlink:href="#j"/>
<use x="288.634766" xlink:href="#i"/>
<use x="352.013672" xlink:href="#f"/>
<use x="413.292969" xlink:href="#d"/>
</g>
</g>
<path d="m1093.5 744.73 7.0658 34.57q0.4806 2.3514 2.832 1.8708l7.5857-1.5504q2.3514-0.4806 1.8708-2.832l-7.0658-34.57q-0.4806-2.3514-2.832-1.8708l-7.5857 1.5504q-2.3514 0.4806-1.8708 2.832z" clip-path="url(#a)" fill="#fff" stroke="#fff"/>
<g clip-path="url(#a)">
<g transform="translate(1097.5 743.91) rotate(78.448) scale(.08 -.08)">
<use xlink:href="#k"/>
<use x="60.818359" xlink:href="#e"/>
<use x="122.341797" xlink:href="#h"/>
<use x="163.439453" xlink:href="#l"/>
<use x="260.851562" xlink:href="#j"/>
<use x="288.634766" xlink:href="#i"/>
<use x="352.013672" xlink:href="#f"/>
<use x="413.292969" xlink:href="#d"/>
</g>
</g>
<path d="m954.14 779.3 7.0658-34.57q0.4806-2.3514-1.8708-2.832l-7.5857-1.5504q-2.3514-0.4806-2.832 1.8708l-7.0658 34.57q-0.4806 2.3514 1.8708 2.832l7.5857 1.5504q2.3514 0.4806 2.832-1.8708z" clip-path="url(#a)" fill="#fff" stroke="#fff"/>
<g clip-path="url(#a)">
<g transform="translate(950.16 778.48) rotate(-78.448) scale(.08 -.08)">
<use xlink:href="#k"/>
<use x="60.818359" xlink:href="#e"/>
<use x="122.341797" xlink:href="#h"/>
<use x="163.439453" xlink:href="#l"/>
<use x="260.851562" xlink:href="#j"/>
<use x="288.634766" xlink:href="#i"/>
<use x="352.013672" xlink:href="#f"/>
<use x="413.292969" xlink:href="#d"/>
</g>
</g>
<path d="m963.52 744.73 7.0658 34.57q0.4806 2.3514 2.832 1.8708l7.5857-1.5504q2.3514-0.4806 1.8708-2.832l-7.0658-34.57q-0.4806-2.3514-2.832-1.8708l-7.5857 1.5504q-2.3514 0.4806-1.8708 2.832z" clip-path="url(#a)" fill="#fff" stroke="#fff"/>
<g clip-path="url(#a)">
<g transform="translate(967.5 743.91) rotate(78.448) scale(.08 -.08)">
<use xlink:href="#k"/>
<use x="60.818359" xlink:href="#e"/>
<use x="122.341797" xlink:href="#h"/>
<use x="163.439453" xlink:href="#l"/>
<use x="260.851562" xlink:href="#j"/>
<use x="288.634766" xlink:href="#i"/>
<use x="352.013672" xlink:href="#f"/>
<use x="413.292969" xlink:href="#d"/>
</g>
</g>
<path d="m110.93 743.12v35.285q0 2.4 2.4 2.4h7.7425q2.4 0 2.4-2.4v-35.285q0-2.4-2.4-2.4h-7.7425q-2.4 0-2.4 2.4z" clip-path="url(#a)" fill="#fff" stroke="#fff"/>
<g clip-path="url(#a)">
<g transform="translate(115 743.12) rotate(90) scale(.08 -.08)">
<use xlink:href="#k"/>
<use x="60.818359" xlink:href="#e"/>
<use x="122.341797" xlink:href="#h"/>
<use x="163.439453" xlink:href="#l"/>
<use x="260.851562" xlink:href="#j"/>
<use x="288.634766" xlink:href="#i"/>
<use x="352.013672" xlink:href="#f"/>
<use x="413.292969" xlink:href="#d"/>
</g>
</g>
<path d="m154.28 743.12v35.285q0 2.4 2.4 2.4h7.7425q2.4 0 2.4-2.4v-35.285q0-2.4-2.4-2.4h-7.7425q-2.4 0-2.4 2.4z" clip-path="url(#a)" fill="#fff" stroke="#fff"/>
<g clip-path="url(#a)">
<g transform="translate(158.34 743.12) rotate(90) scale(.08 -.08)">
<use xlink:href="#k"/>
<use x="60.818359" xlink:href="#e"/>
<use x="122.341797" xlink:href="#h"/>
<use x="163.439453" xlink:href="#l"/>
<use x="260.851562" xlink:href="#j"/>
<use x="288.634766" xlink:href="#i"/>
<use x="352.013672" xlink:href="#f"/>
<use x="413.292969" xlink:href="#d"/>
</g>
</g>
<path d="m414.62 443.37 3.6614-4.2191q1.573-1.8126-0.23961-3.3856l-5.8476-5.0746q-1.8126-1.573-3.3856 0.23961l-3.6614 4.2191q-1.573 1.8126 0.23961 3.3856l5.8476 5.0746q1.8126 1.573 3.3856-0.23961z" clip-path="url(#a)" fill="#fff" stroke="#fff"/>
<g clip-path="url(#a)">
<defs>
<path id="m" d="m64.406 67.281v-10.391q-4.9844 4.6406-10.625 6.9219-5.6406 2.2969-11.984 2.2969-12.5 0-19.141-7.6406t-6.6406-22.094q0-14.406 6.6406-22.047t19.141-7.6406q6.3438 0 11.984 2.2969t10.625 6.9375v-10.312q-5.1719-3.5156-10.969-5.2812-5.7812-1.75-12.219-1.75-16.562 0-26.094 10.125-9.5156 10.141-9.5156 27.672 0 17.578 9.5156 27.703 9.5312 10.141 26.094 10.141 6.5312 0 12.312-1.7344 5.7969-1.7344 10.875-5.2031z"/>
</defs>
<g transform="translate(411.55 440.7) rotate(-49.048) scale(.08 -.08)">
<use xlink:href="#m"/>
</g>
</g>
<path d="m556.84 331.82 0.37423-5.5737q0.16078-2.3946-2.2338-2.5554l-7.7251-0.51868q-2.3946-0.16078-2.5554 2.2338l-0.37423 5.5737q-0.16078 2.3946 2.2338 2.5554l7.7251 0.51868q2.3946 0.16078 2.5554-2.2338z" clip-path="url(#a)" fill="#fff" stroke="#fff"/>
<g clip-path="url(#a)">
<g transform="translate(552.78 331.55) rotate(-86.159) scale(.08 -.08)">
<use xlink:href="#m"/>
</g>
</g>
<path d="m610.73 489.03 1.6659 5.7485q0.66803 2.3052 2.9732 1.6371l7.4365-2.1551q2.3052-0.66803 1.6371-2.9732l-1.6659-5.7485q-0.66803-2.3052-2.9732-1.6371l-7.4365 2.1551q-2.3052 0.66803-1.6371 2.9732z" clip-path="url(#a)" fill="#fff" stroke="#fff"/>
<g clip-path="url(#a)">
<defs>
<path id="ao" d="m9.8125 72.906h13.281l32.328-60.984v60.984h9.5625v-72.906h-13.281l-32.312 60.984v-60.984h-9.5781z"/>
</defs>
<g transform="translate(614.63 487.9) rotate(73.838) scale(.08 -.08)">
<use xlink:href="#ao"/>
</g>
</g>
<path d="m679.12 386.38 4.2619 3.6115q1.831 1.5516 3.3826-0.27942l5.0055-5.9069q1.5516-1.831-0.27942-3.3826l-4.2619-3.6115q-1.831-1.5516-3.3826 0.27942l-5.0055 5.9069q-1.5516 1.831 0.27942 3.3826z" clip-path="url(#a)" fill="#fff" stroke="#fff"/>
<g clip-path="url(#a)">
<g transform="translate(681.75 383.28) rotate(40.278) scale(.08 -.08)">
<use xlink:href="#m"/>
</g>
</g>
<path d="m470.6 495.24 2.2089-5.4223q0.90546-2.2226-1.3172-3.1281l-7.1703-2.9211q-2.2226-0.90546-3.1281 1.3172l-2.2089 5.4223q-0.90546 2.2226 1.3172 3.1281l7.1703 2.9211q2.2226 0.90546 3.1281-1.3172z" clip-path="url(#a)" fill="#fff" stroke="#fff"/>
<g clip-path="url(#a)">
<g transform="translate(466.83 493.71) rotate(-67.835) scale(.08 -.08)">
<use xlink:href="#t"/>
</g>
</g>
<path d="m589.21 488.46 1.094 5.7519q0.44845 2.3577 2.8062 1.9093l7.6061-1.4467q2.3577-0.44845 1.9093-2.8062l-1.094-5.7519q-0.44845-2.3577-2.8062-1.9093l-7.6061 1.4467q-2.3577 0.44845-1.9093 2.8062z" clip-path="url(#a)" fill="#fff" stroke="#fff"/>
<g clip-path="url(#a)">
<g transform="translate(593.2 487.7) rotate(79.231) scale(.08 -.08)">
<use xlink:href="#t"/>
</g>
</g>
<path d="m240.42 660.16 2.6424-4.3094q1.2545-2.046-0.79146-3.3005l-6.6005-4.0472q-2.046-1.2545-3.3005 0.79146l-2.6424 4.3094q-1.2545 2.046 0.79146 3.3005l6.6005 4.0472q2.046 1.2545 3.3005-0.79146z" clip-path="url(#a)" fill="#fff" stroke="#fff"/>
<g clip-path="url(#a)">
<defs>
<path id="y" d="m9.8125 72.906h46.094v-8.3125h-36.234v-21.578h34.719v-8.2969h-34.719v-26.422h37.109v-8.2969h-46.969z"/>
</defs>
<g transform="translate(236.95 658.04) rotate(-58.485) scale(.08 -.08)">
<use xlink:href="#y"/>
</g>
</g>
<path d="m262.63 652.2v5.055q0 2.4 2.4 2.4h7.7425q2.4 0 2.4-2.4v-5.055q0-2.4-2.4-2.4h-7.7425q-2.4 0-2.4 2.4z" clip-path="url(#a)" fill="#fff" stroke="#fff"/>
<g clip-path="url(#a)">
<g transform="translate(266.69 652.2) rotate(90) scale(.08 -.08)">
<use xlink:href="#y"/>
</g>
</g>
<path d="m294.6 655.63 2.9201 4.7623q1.2545 2.046 3.3005 0.79146l6.6005-4.0472q2.046-1.2545 0.79146-3.3005l-2.9201-4.7623q-1.2545-2.046-3.3005-0.79146l-6.6005 4.0472q-2.046 1.2545-0.79146 3.3005z" clip-path="url(#a)" fill="#fff" stroke="#fff"/>
<g clip-path="url(#a)">
<g transform="translate(298.06 653.5) rotate(58.485) scale(.08 -.08)">
<use xlink:href="#m"/>
</g>
</g>
<path d="m528.3 444.22 1.991-4.6464q0.9453-2.206-1.2607-3.1513l-7.1166-3.0496q-2.206-0.9453-3.1513 1.2607l-1.991 4.6464q-0.9453 2.206 1.2607 3.1513l7.1166 3.0496q2.206 0.9453 3.1513-1.2607z" clip-path="url(#a)" fill="#fff" stroke="#fff"/>
<g clip-path="url(#a)">
<g transform="translate(524.56 442.62) rotate(-66.804) scale(.08 -.08)">
<use xlink:href="#y"/>
</g>
</g>
<path d="m563.88 544.33 0.80336 5.5282q0.34515 2.3751 2.7202 2.0299l7.662-1.1135q2.3751-0.34514 2.0299-2.7202l-0.80336-5.5282q-0.34515-2.3751-2.7202-2.0299l-7.662 1.1135q-2.3751 0.34515-2.0299 2.7202z" clip-path="url(#a)" fill="#fff" stroke="#fff"/>
<g clip-path="url(#a)">
<g transform="translate(567.9 543.75) rotate(81.732) scale(.08 -.08)">
<use xlink:href="#m"/>
</g>
</g>
<path d="m674.37 743.12v35.285q0 2.4 2.4 2.4h7.7425q2.4 0 2.4-2.4v-35.285q0-2.4-2.4-2.4h-7.7425q-2.4 0-2.4 2.4z" clip-path="url(#a)" fill="#fff" stroke="#fff"/>
<g clip-path="url(#a)">
<g transform="translate(678.44 743.12) rotate(90) scale(.08 -.08)">
<use xlink:href="#k"/>
<use x="60.818359" xlink:href="#e"/>
<use x="122.341797" xlink:href="#h"/>
<use x="163.439453" xlink:href="#l"/>
<use x="260.851562" xlink:href="#j"/>
<use x="288.634766" xlink:href="#i"/>
<use x="352.013672" xlink:href="#f"/>
<use x="413.292969" xlink:href="#d"/>
</g>
</g>
<path d="m802.2 552.44 1.6817-4.7671q0.79843-2.2633-1.4649-3.0617l-7.3015-2.5758q-2.2633-0.79843-3.0617 1.4649l-1.6817 4.7671q-0.79843 2.2633 1.4649 3.0617l7.3015 2.5758q2.2633 0.79843 3.0617-1.4649z" clip-path="url(#a)" fill="#fff" stroke="#fff"/>
<g clip-path="url(#a)">
<g transform="translate(798.36 551.09) rotate(-70.568) scale(.08 -.08)">
<use xlink:href="#y"/>
</g>
</g>
<path d="m828.38 599.33 0.97686 5.5002q0.41969 2.363 2.7827 1.9433l7.6232-1.3539q2.363-0.41969 1.9433-2.7827l-0.97686-5.5002q-0.41969-2.363-2.7827-1.9433l-7.6232 1.3539q-2.363 0.41969-1.9433 2.7827z" clip-path="url(#a)" fill="#fff" stroke="#fff"/>
<g clip-path="url(#a)">
<g transform="translate(832.38 598.62) rotate(79.929) scale(.08 -.08)">
<use xlink:href="#m"/>
</g>
</g>
<path d="m767.08 659.24 1.6374-5.3409q0.70348-2.2946-1.5911-2.9981l-7.4024-2.2695q-2.2946-0.70348-2.9981 1.5911l-1.6374 5.3409q-0.70348 2.2946 1.5911 2.9981l7.4024 2.2695q2.2946 0.70348 2.9981-1.5911z" clip-path="url(#a)" fill="#fff" stroke="#fff"/>
<g clip-path="url(#a)">
<g transform="translate(763.2 658.05) rotate(-72.955) scale(.08 -.08)">
<use xlink:href="#m"/>
</g>
</g>
<path d="m787.6 653.9 1.6374 5.3409q0.70348 2.2946 2.9981 1.5911l7.4024-2.2695q2.2946-0.70348 1.5911-2.9981l-1.6374-5.3409q-0.70348-2.2946-2.9981-1.5911l-7.4024 2.2695q-2.2946 0.70348-1.5911 2.9981z" clip-path="url(#a)" fill="#fff" stroke="#fff"/>
<g clip-path="url(#a)">
<g transform="translate(791.48 652.71) rotate(72.955) scale(.08 -.08)">
<use xlink:href="#m"/>
</g>
</g>
<path d="m847.74 743.12v35.285q0 2.4 2.4 2.4h7.7425q2.4 0 2.4-2.4v-35.285q0-2.4-2.4-2.4h-7.7425q-2.4 0-2.4 2.4z" clip-path="url(#a)" fill="#fff" stroke="#fff"/>
<g clip-path="url(#a)">
<g transform="translate(851.8 743.12) rotate(90) scale(.08 -.08)">
<use xlink:href="#k"/>
<use x="60.818359" xlink:href="#e"/>
<use x="122.341797" xlink:href="#h"/>
<use x="163.439453" xlink:href="#l"/>
<use x="260.851562" xlink:href="#j"/>
<use x="288.634766" xlink:href="#i"/>
<use x="352.013672" xlink:href="#f"/>
<use x="413.292969" xlink:href="#d"/>
</g>
</g>
<path d="m737.43 779.3 7.0658-34.57q0.4806-2.3514-1.8708-2.832l-7.5857-1.5504q-2.3514-0.4806-2.832 1.8708l-7.0658 34.57q-0.4806 2.3514 1.8708 2.832l7.5857 1.5504q2.3514 0.4806 2.832-1.8708z" clip-path="url(#a)" fill="#fff" stroke="#fff"/>
<g clip-path="url(#a)">
<g transform="translate(733.45 778.48) rotate(-78.448) scale(.08 -.08)">
<use xlink:href="#k"/>
<use x="60.818359" xlink:href="#e"/>
<use x="122.341797" xlink:href="#h"/>
<use x="163.439453" xlink:href="#l"/>
<use x="260.851562" xlink:href="#j"/>
<use x="288.634766" xlink:href="#i"/>
<use x="352.013672" xlink:href="#f"/>
<use x="413.292969" xlink:href="#d"/>
</g>
</g>
<path d="m746.81 744.73 7.0658 34.57q0.4806 2.3514 2.832 1.8708l7.5857-1.5504q2.3514-0.4806 1.8708-2.832l-7.0658-34.57q-0.4806-2.3514-2.832-1.8708l-7.5857 1.5504q-2.3514 0.4806-1.8708 2.832z" clip-path="url(#a)" fill="#fff" stroke="#fff"/>
<g clip-path="url(#a)">
<g transform="translate(750.79 743.91) rotate(78.448) scale(.08 -.08)">
<use xlink:href="#k"/>
<use x="60.818359" xlink:href="#e"/>
<use x="122.341797" xlink:href="#h"/>
<use x="163.439453" xlink:href="#l"/>
<use x="260.851562" xlink:href="#j"/>
<use x="288.634766" xlink:href="#i"/>
<use x="352.013672" xlink:href="#f"/>
<use x="413.292969" xlink:href="#d"/>
</g>
</g>
<path d="m804.4 743.12v35.285q0 2.4 2.4 2.4h7.7425q2.4 0 2.4-2.4v-35.285q0-2.4-2.4-2.4h-7.7425q-2.4 0-2.4 2.4z" clip-path="url(#a)" fill="#fff" stroke="#fff"/>
<g clip-path="url(#a)">
<g transform="translate(808.46 743.12) rotate(90) scale(.08 -.08)">
<use xlink:href="#k"/>
<use x="60.818359" xlink:href="#e"/>
<use x="122.341797" xlink:href="#h"/>
<use x="163.439453" xlink:href="#l"/>
<use x="260.851562" xlink:href="#j"/>
<use x="288.634766" xlink:href="#i"/>
<use x="352.013672" xlink:href="#f"/>
<use x="413.292969" xlink:href="#d"/>
</g>
</g>
<path d="m475.36 553.4 2.645-4.9204q1.1364-2.1139-0.97756-3.2503l-6.8196-3.666q-2.1139-1.1364-3.2503 0.97756l-2.645 4.9204q-1.1364 2.1139 0.97756 3.2503l6.8196 3.666q2.1139 1.1364 3.2503-0.97756z" clip-path="url(#a)" fill="#fff" stroke="#fff"/>
<g clip-path="url(#a)">
<g transform="translate(471.78 551.47) rotate(-61.739) scale(.08 -.08)">
<use xlink:href="#m"/>
</g>
</g>
<path d="m497.3 598.2 0.20236 5.9816q0.081145 2.3986 2.4798 2.3175l7.7381-0.26178q2.3986-0.081144 2.3175-2.4798l-0.20236-5.9816q-0.081144-2.3986-2.4798-2.3175l-7.7381 0.26178q-2.3986 0.081144-2.3175 2.4798z" clip-path="url(#a)" fill="#fff" stroke="#fff"/>
<g clip-path="url(#a)">
<g transform="translate(501.36 598.06) rotate(88.062) scale(.08 -.08)">
<use xlink:href="#ao"/>
</g>
</g>
<path d="m518.59 599.71 1.2873 5.4359q0.55304 2.3354 2.8885 1.7824l7.5341-1.7841q2.3354-0.55304 1.7824-2.8885l-1.2873-5.4359q-0.55304-2.3354-2.8885-1.7824l-7.5341 1.7841q-2.3354 0.55304-1.7824 2.8885z" clip-path="url(#a)" fill="#fff" stroke="#fff"/>
<g clip-path="url(#a)">
<g transform="translate(522.54 598.77) rotate(76.677) scale(.08 -.08)">
<use xlink:href="#m"/>
</g>
</g>
<path d="m587.69 743.12v35.285q0 2.4 2.4 2.4h7.7425q2.4 0 2.4-2.4v-35.285q0-2.4-2.4-2.4h-7.7425q-2.4 0-2.4 2.4z" clip-path="url(#a)" fill="#fff" stroke="#fff"/>
<g clip-path="url(#a)">
<g transform="translate(591.75 743.12) rotate(90) scale(.08 -.08)">
<use xlink:href="#k"/>
<use x="60.818359" xlink:href="#e"/>
<use x="122.341797" xlink:href="#h"/>
<use x="163.439453" xlink:href="#l"/>
<use x="260.851562" xlink:href="#j"/>
<use x="288.634766" xlink:href="#i"/>
<use x="352.013672" xlink:href="#f"/>
<use x="413.292969" xlink:href="#d"/>
</g>
</g>
<path d="m437.07 658.46 1.0123-4.9526q0.4806-2.3514-1.8708-2.832l-7.5857-1.5504q-2.3514-0.4806-2.832 1.8708l-1.0123 4.9526q-0.4806 2.3514 1.8708 2.832l7.5857 1.5504q2.3514 0.4806 2.832-1.8708z" clip-path="url(#a)" fill="#fff" stroke="#fff"/>
<g clip-path="url(#a)">
<g transform="translate(433.09 657.65) rotate(-78.448) scale(.08 -.08)">
<use xlink:href="#y"/>
</g>
</g>
<path d="m446.4 653.25 1.1186 5.4731q0.4806 2.3514 2.832 1.8708l7.5857-1.5504q2.3514-0.4806 1.8708-2.832l-1.1186-5.4731q-0.4806-2.3514-2.832-1.8708l-7.5857 1.5504q-2.3514 0.4806-1.8708 2.832z" clip-path="url(#a)" fill="#fff" stroke="#fff"/>
<g clip-path="url(#a)">
<g transform="translate(450.38 652.44) rotate(78.448) scale(.08 -.08)">
<use xlink:href="#m"/>
</g>
</g>
<path d="m501.01 743.12v35.285q0 2.4 2.4 2.4h7.7425q2.4 0 2.4-2.4v-35.285q0-2.4-2.4-2.4h-7.7425q-2.4 0-2.4 2.4z" clip-path="url(#a)" fill="#fff" stroke="#fff"/>
<g clip-path="url(#a)">
<g transform="translate(505.07 743.12) rotate(90) scale(.08 -.08)">
<use xlink:href="#k"/>
<use x="60.818359" xlink:href="#e"/>
<use x="122.341797" xlink:href="#h"/>
<use x="163.439453" xlink:href="#l"/>
<use x="260.851562" xlink:href="#j"/>
<use x="288.634766" xlink:href="#i"/>
<use x="352.013672" xlink:href="#f"/>
<use x="413.292969" xlink:href="#d"/>
</g>
</g>
<path d="m544.35 743.12v35.285q0 2.4 2.4 2.4h7.7425q2.4 0 2.4-2.4v-35.285q0-2.4-2.4-2.4h-7.7425q-2.4 0-2.4 2.4z" clip-path="url(#a)" fill="#fff" stroke="#fff"/>
<g clip-path="url(#a)">
<g transform="translate(548.41 743.12) rotate(90) scale(.08 -.08)">
<use xlink:href="#k"/>
<use x="60.818359" xlink:href="#e"/>
<use x="122.341797" xlink:href="#h"/>
<use x="163.439453" xlink:href="#l"/>
<use x="260.851562" xlink:href="#j"/>
<use x="288.634766" xlink:href="#i"/>
<use x="352.013672" xlink:href="#f"/>
<use x="413.292969" xlink:href="#d"/>
</g>
</g>
<path d="m414.32 743.12v35.285q0 2.4 2.4 2.4h7.7425q2.4 0 2.4-2.4v-35.285q0-2.4-2.4-2.4h-7.7425q-2.4 0-2.4 2.4z" clip-path="url(#a)" fill="#fff" stroke="#fff"/>
<g clip-path="url(#a)">
<g transform="translate(418.39 743.12) rotate(90) scale(.08 -.08)">
<use xlink:href="#k"/>
<use x="60.818359" xlink:href="#e"/>
<use x="122.341797" xlink:href="#h"/>
<use x="163.439453" xlink:href="#l"/>
<use x="260.851562" xlink:href="#j"/>
<use x="288.634766" xlink:href="#i"/>
<use x="352.013672" xlink:href="#f"/>
<use x="413.292969" xlink:href="#d"/>
</g>
</g>
<path d="m457.66 743.12v35.285q0 2.4 2.4 2.4h7.7425q2.4 0 2.4-2.4v-35.285q0-2.4-2.4-2.4h-7.7425q-2.4 0-2.4 2.4z" clip-path="url(#a)" fill="#fff" stroke="#fff"/>
<g clip-path="url(#a)">
<g transform="translate(461.73 743.12) rotate(90) scale(.08 -.08)">
<use xlink:href="#k"/>
<use x="60.818359" xlink:href="#e"/>
<use x="122.341797" xlink:href="#h"/>
<use x="163.439453" xlink:href="#l"/>
<use x="260.851562" xlink:href="#j"/>
<use x="288.634766" xlink:href="#i"/>
<use x="352.013672" xlink:href="#f"/>
<use x="413.292969" xlink:href="#d"/>
</g>
</g>
<path d="m197.62 743.12v35.285q0 2.4 2.4 2.4h7.7425q2.4 0 2.4-2.4v-35.285q0-2.4-2.4-2.4h-7.7425q-2.4 0-2.4 2.4z" clip-path="url(#a)" fill="#fff" stroke="#fff"/>
<g clip-path="url(#a)">
<g transform="translate(201.68 743.12) rotate(90) scale(.08 -.08)">
<use xlink:href="#k"/>
<use x="60.818359" xlink:href="#e"/>
<use x="122.341797" xlink:href="#h"/>
<use x="163.439453" xlink:href="#l"/>
<use x="260.851562" xlink:href="#j"/>
<use x="288.634766" xlink:href="#i"/>
<use x="352.013672" xlink:href="#f"/>
<use x="413.292969" xlink:href="#d"/>
</g>
</g>
<path d="m260.68 779.3 7.0658-34.57q0.4806-2.3514-1.8708-2.832l-7.5857-1.5504q-2.3514-0.4806-2.832 1.8708l-7.0658 34.57q-0.4806 2.3514 1.8708 2.832l7.5857 1.5504q2.3514 0.4806 2.832-1.8708z" clip-path="url(#a)" fill="#fff" stroke="#fff"/>
<g clip-path="url(#a)">
<g transform="translate(256.69 778.48) rotate(-78.448) scale(.08 -.08)">
<use xlink:href="#k"/>
<use x="60.818359" xlink:href="#e"/>
<use x="122.341797" xlink:href="#h"/>
<use x="163.439453" xlink:href="#l"/>
<use x="260.851562" xlink:href="#j"/>
<use x="288.634766" xlink:href="#i"/>
<use x="352.013672" xlink:href="#f"/>
<use x="413.292969" xlink:href="#d"/>
</g>
</g>
<path d="m270.06 744.73 7.0658 34.57q0.4806 2.3514 2.832 1.8708l7.5857-1.5504q2.3514-0.4806 1.8708-2.832l-7.0658-34.57q-0.4806-2.3514-2.832-1.8708l-7.5857 1.5504q-2.3514 0.4806-1.8708 2.832z" clip-path="url(#a)" fill="#fff" stroke="#fff"/>
<g clip-path="url(#a)">
<g transform="translate(274.04 743.91) rotate(78.448) scale(.08 -.08)">
<use xlink:href="#k"/>
<use x="60.818359" xlink:href="#e"/>
<use x="122.341797" xlink:href="#h"/>
<use x="163.439453" xlink:href="#l"/>
<use x="260.851562" xlink:href="#j"/>
<use x="288.634766" xlink:href="#i"/>
<use x="352.013672" xlink:href="#f"/>
<use x="413.292969" xlink:href="#d"/>
</g>
</g>
<path d="m327.64 743.12v35.285q0 2.4 2.4 2.4h7.7425q2.4 0 2.4-2.4v-35.285q0-2.4-2.4-2.4h-7.7425q-2.4 0-2.4 2.4z" clip-path="url(#a)" fill="#fff" stroke="#fff"/>
<g clip-path="url(#a)">
<g transform="translate(331.7 743.12) rotate(90) scale(.08 -.08)">
<use xlink:href="#k"/>
<use x="60.818359" xlink:href="#e"/>
<use x="122.341797" xlink:href="#h"/>
<use x="163.439453" xlink:href="#l"/>
<use x="260.851562" xlink:href="#j"/>
<use x="288.634766" xlink:href="#i"/>
<use x="352.013672" xlink:href="#f"/>
<use x="413.292969" xlink:href="#d"/>
</g>
</g>
<path d="m370.98 743.12v35.285q0 2.4 2.4 2.4h7.7425q2.4 0 2.4-2.4v-35.285q0-2.4-2.4-2.4h-7.7425q-2.4 0-2.4 2.4z" clip-path="url(#a)" fill="#fff" stroke="#fff"/>
<g clip-path="url(#a)">
<g transform="translate(375.05 743.12) rotate(90) scale(.08 -.08)">
<use xlink:href="#k"/>
<use x="60.818359" xlink:href="#e"/>
<use x="122.341797" xlink:href="#h"/>
<use x="163.439453" xlink:href="#l"/>
<use x="260.851562" xlink:href="#j"/>
<use x="288.634766" xlink:href="#i"/>
<use x="352.013672" xlink:href="#f"/>
<use x="413.292969" xlink:href="#d"/>
</g>
</g>
<path d="m631.03 743.12v35.285q0 2.4 2.4 2.4h7.7425q2.4 0 2.4-2.4v-35.285q0-2.4-2.4-2.4h-7.7425q-2.4 0-2.4 2.4z" clip-path="url(#a)" fill="#fff" stroke="#fff"/>
<g clip-path="url(#a)">
<g transform="translate(635.09 743.12) rotate(90) scale(.08 -.08)">
<use xlink:href="#k"/>
<use x="60.818359" xlink:href="#e"/>
<use x="122.341797" xlink:href="#h"/>
<use x="163.439453" xlink:href="#l"/>
<use x="260.851562" xlink:href="#j"/>
<use x="288.634766" xlink:href="#i"/>
<use x="352.013672" xlink:href="#f"/>
<use x="413.292969" xlink:href="#d"/>
</g>
</g>
<path d="m891.08 743.12v35.285q0 2.4 2.4 2.4h7.7425q2.4 0 2.4-2.4v-35.285q0-2.4-2.4-2.4h-7.7425q-2.4 0-2.4 2.4z" clip-path="url(#a)" fill="#fff" stroke="#fff"/>
<g clip-path="url(#a)">
<g transform="translate(895.14 743.12) rotate(90) scale(.08 -.08)">
<use xlink:href="#k"/>
<use x="60.818359" xlink:href="#e"/>
<use x="122.341797" xlink:href="#h"/>
<use x="163.439453" xlink:href="#l"/>
<use x="260.851562" xlink:href="#j"/>
<use x="288.634766" xlink:href="#i"/>
<use x="352.013672" xlink:href="#f"/>
<use x="413.292969" xlink:href="#d"/>
</g>
</g>
<path d="m1021.1 743.12v35.285q0 2.4 2.4 2.4h7.7425q2.4 0 2.4-2.4v-35.285q0-2.4-2.4-2.4h-7.7425q-2.4 0-2.4 2.4z" clip-path="url(#a)" fill="#fff" stroke="#fff"/>
<g clip-path="url(#a)">
<g transform="translate(1025.2 743.12) rotate(90) scale(.08 -.08)">
<use xlink:href="#k"/>
<use x="60.818359" xlink:href="#e"/>
<use x="122.341797" xlink:href="#h"/>
<use x="163.439453" xlink:href="#l"/>
<use x="260.851562" xlink:href="#j"/>
<use x="288.634766" xlink:href="#i"/>
<use x="352.013672" xlink:href="#f"/>
<use x="413.292969" xlink:href="#d"/>
</g>
</g>
<path d="m1151.1 743.12v35.285q0 2.4 2.4 2.4h7.7425q2.4 0 2.4-2.4v-35.285q0-2.4-2.4-2.4h-7.7425q-2.4 0-2.4 2.4z" clip-path="url(#a)" fill="#fff" stroke="#fff"/>
<g clip-path="url(#a)">
<g transform="translate(1155.2 743.12) rotate(90) scale(.08 -.08)">
<use xlink:href="#k"/>
<use x="60.818359" xlink:href="#e"/>
<use x="122.341797" xlink:href="#h"/>
<use x="163.439453" xlink:href="#l"/>
<use x="260.851562" xlink:href="#j"/>
<use x="288.634766" xlink:href="#i"/>
<use x="352.013672" xlink:href="#f"/>
<use x="413.292969" xlink:href="#d"/>
</g>
</g>
<path d="m1367.8 743.12v35.285q0 2.4 2.4 2.4h7.7425q2.4 0 2.4-2.4v-35.285q0-2.4-2.4-2.4h-7.7425q-2.4 0-2.4 2.4z" clip-path="url(#a)" fill="#fff" stroke="#fff"/>
<g clip-path="url(#a)">
<g transform="translate(1371.9 743.12) rotate(90) scale(.08 -.08)">
<use xlink:href="#k"/>
<use x="60.818359" xlink:href="#e"/>
<use x="122.341797" xlink:href="#h"/>
<use x="163.439453" xlink:href="#l"/>
<use x="260.851562" xlink:href="#j"/>
<use x="288.634766" xlink:href="#i"/>
<use x="352.013672" xlink:href="#f"/>
<use x="413.292969" xlink:href="#d"/>
</g>
</g>
<path d="m1411.2 743.12v35.285q0 2.4 2.4 2.4h7.7425q2.4 0 2.4-2.4v-35.285q0-2.4-2.4-2.4h-7.7425q-2.4 0-2.4 2.4z" clip-path="url(#a)" fill="#fff" stroke="#fff"/>
<g clip-path="url(#a)">
<g transform="translate(1415.2 743.12) rotate(90) scale(.08 -.08)">
<use xlink:href="#k"/>
<use x="60.818359" xlink:href="#e"/>
<use x="122.341797" xlink:href="#h"/>
<use x="163.439453" xlink:href="#l"/>
<use x="260.851562" xlink:href="#j"/>
<use x="288.634766" xlink:href="#i"/>
<use x="352.013672" xlink:href="#f"/>
<use x="413.292969" xlink:href="#d"/>
</g>
</g>
<defs>
<path id="b" d="m0 8.6603c2.2967 0 4.4997-0.9125 6.1237-2.5365 1.624-1.624 2.5365-3.827 2.5365-6.1237s-0.9125-4.4997-2.5365-6.1237c-1.624-1.624-3.827-2.5365-6.1237-2.5365s-4.4997 0.9125-6.1237 2.5365c-1.624 1.624-2.5365 3.827-2.5365 6.1237s0.9125 4.4997 2.5365 6.1237c1.624 1.624 3.827 2.5365 6.1237 2.5365z"/>
</defs>
<g clip-path="url(#a)">
<use x="73.863653" y="813.770711" fill="#ffffff" stroke="#ffffff" xlink:href="#b"/>
</g>
<g clip-path="url(#a)">
<use x="117.205007" y="813.770711" fill="#ffffff" stroke="#ffffff" xlink:href="#b"/>
</g>
<g clip-path="url(#a)">
<use x="160.546361" y="813.770711" fill="#ffffff" stroke="#ffffff" xlink:href="#b"/>
</g>
<g clip-path="url(#a)">
<use x="203.887715" y="813.770711" fill="#ffffff" stroke="#ffffff" xlink:href="#b"/>
</g>
<g clip-path="url(#a)">
<use x="247.229068" y="813.770711" fill="#ffffff" stroke="#ffffff" xlink:href="#b"/>
</g>
<g clip-path="url(#a)">
<use x="290.570422" y="813.770711" fill="#ffffff" stroke="#ffffff" xlink:href="#b"/>
</g>
<g clip-path="url(#a)">
<use x="333.911776" y="813.770711" fill="#ffffff" stroke="#ffffff" xlink:href="#b"/>
</g>
<g clip-path="url(#a)">
<use x="377.253129" y="813.770711" fill="#ffffff" stroke="#ffffff" xlink:href="#b"/>
</g>
<g clip-path="url(#a)">
<use x="420.594483" y="813.770711" fill="#ffffff" stroke="#ffffff" xlink:href="#b"/>
</g>
<g clip-path="url(#a)">
<use x="463.935837" y="813.770711" fill="#ffffff" stroke="#ffffff" xlink:href="#b"/>
</g>
<g clip-path="url(#a)">
<use x="507.277191" y="813.770711" fill="#ffffff" stroke="#ffffff" xlink:href="#b"/>
</g>
<g clip-path="url(#a)">
<use x="550.618544" y="813.770711" fill="#ffffff" stroke="#ffffff" xlink:href="#b"/>
</g>
<g clip-path="url(#a)">
<use x="593.959898" y="813.770711" fill="#ffffff" stroke="#ffffff" xlink:href="#b"/>
</g>
<g clip-path="url(#a)">
<use x="637.301252" y="813.770711" fill="#ffffff" stroke="#ffffff" xlink:href="#b"/>
</g>
<g clip-path="url(#a)">
<use x="680.642606" y="813.770711" fill="#ffffff" stroke="#ffffff" xlink:href="#b"/>
</g>
<g clip-path="url(#a)">
<use x="723.983959" y="813.770711" fill="#ffffff" stroke="#ffffff" xlink:href="#b"/>
</g>
<g clip-path="url(#a)">
<use x="767.325313" y="813.770711" fill="#ffffff" stroke="#ffffff" xlink:href="#b"/>
</g>
<g clip-path="url(#a)">
<use x="810.666667" y="813.770711" fill="#ffffff" stroke="#ffffff" xlink:href="#b"/>
</g>
<g clip-path="url(#a)">
<use x="854.00802" y="813.770711" fill="#ffffff" stroke="#ffffff" xlink:href="#b"/>
</g>
<g clip-path="url(#a)">
<use x="897.349374" y="813.770711" fill="#ffffff" stroke="#ffffff" xlink:href="#b"/>
</g>
<g clip-path="url(#a)">
<use x="940.690728" y="813.770711" fill="#ffffff" stroke="#ffffff" xlink:href="#b"/>
</g>
<g clip-path="url(#a)">
<use x="984.032082" y="813.770711" fill="#ffffff" stroke="#ffffff" xlink:href="#b"/>
</g>
<g clip-path="url(#a)">
<use x="1027.373435" y="813.770711" fill="#ffffff" stroke="#ffffff" xlink:href="#b"/>
</g>
<g clip-path="url(#a)">
<use x="1070.714789" y="813.770711" fill="#ffffff" stroke="#ffffff" xlink:href="#b"/>
</g>
<g clip-path="url(#a)">
<use x="1114.056143" y="813.770711" fill="#ffffff" stroke="#ffffff" xlink:href="#b"/>
</g>
<g clip-path="url(#a)">
<use x="1157.397496" y="813.770711" fill="#ffffff" stroke="#ffffff" xlink:href="#b"/>
</g>
<g clip-path="url(#a)">
<use x="1200.73885" y="813.770711" fill="#ffffff" stroke="#ffffff" xlink:href="#b"/>
</g>
<g clip-path="url(#a)">
<use x="1244.080204" y="813.770711" fill="#ffffff" stroke="#ffffff" xlink:href="#b"/>
</g>
<g clip-path="url(#a)">
<use x="1287.421558" y="813.770711" fill="#ffffff" stroke="#ffffff" xlink:href="#b"/>
</g>
<g clip-path="url(#a)">
<use x="1330.762911" y="813.770711" fill="#ffffff" stroke="#ffffff" xlink:href="#b"/>
</g>
<g clip-path="url(#a)">
<use x="1374.104265" y="813.770711" fill="#ffffff" stroke="#ffffff" xlink:href="#b"/>
</g>
<g clip-path="url(#a)">
<use x="1417.445619" y="813.770711" fill="#ffffff" stroke="#ffffff" xlink:href="#b"/>
</g>
<g clip-path="url(#a)">
<use x="994.386685" y="39.562622" fill="#ffffff" stroke="#ffffff" xlink:href="#b"/>
</g>
<g clip-path="url(#a)">
<use x="73.863653" y="707.744408" fill="#ffffff" stroke="#ffffff" xlink:href="#b"/>
</g>
<g clip-path="url(#a)">
<use x="277.427558" y="157.657203" fill="#ffffff" stroke="#ffffff" xlink:href="#b"/>
</g>
<g clip-path="url(#a)">
<use x="926.24361" y="494.216859" fill="#ffffff" stroke="#ffffff" xlink:href="#b"/>
</g>
<g clip-path="url(#a)">
<use x="1047.840186" y="272.577727" fill="#ffffff" stroke="#ffffff" xlink:href="#b"/>
</g>
<g clip-path="url(#a)">
<use x="1200.73885" y="707.744408" fill="#ffffff" stroke="#ffffff" xlink:href="#b"/>
</g>
<g clip-path="url(#a)">
<use x="1202.093267" y="384.645596" fill="#ffffff" stroke="#ffffff" xlink:href="#b"/>
</g>
<g clip-path="url(#a)">
<use x="1330.762911" y="707.744408" fill="#ffffff" stroke="#ffffff" xlink:href="#b"/>
</g>
<g clip-path="url(#a)">
<use x="1460.786972" y="813.770711" fill="#ffffff" stroke="#ffffff" xlink:href="#b"/>
</g>
<g clip-path="url(#a)">
<use x="1287.421558" y="707.744408" fill="#ffffff" stroke="#ffffff" xlink:href="#b"/>
</g>
<g clip-path="url(#a)">
<use x="1504.128326" y="813.770711" fill="#ffffff" stroke="#ffffff" xlink:href="#b"/>
</g>
<g clip-path="url(#a)">
<use x="1092.385466" y="707.744408" fill="#ffffff" stroke="#ffffff" xlink:href="#b"/>
</g>
<g clip-path="url(#a)">
<use x="1547.46968" y="813.770711" fill="#ffffff" stroke="#ffffff" xlink:href="#b"/>
</g>
<g clip-path="url(#a)">
<use x="962.361405" y="707.744408" fill="#ffffff" stroke="#ffffff" xlink:href="#b"/>
</g>
<g clip-path="url(#a)">
<use x="117.205007" y="707.744408" fill="#ffffff" stroke="#ffffff" xlink:href="#b"/>
</g>
<g clip-path="url(#a)">
<use x="160.546361" y="707.744408" fill="#ffffff" stroke="#ffffff" xlink:href="#b"/>
</g>
<g clip-path="url(#a)">
<use x="554.531305" y="272.577727" fill="#ffffff" stroke="#ffffff" xlink:href="#b"/>
</g>
<g clip-path="url(#a)">
<use x="268.899745" y="601.718105" fill="#ffffff" stroke="#ffffff" xlink:href="#b"/>
</g>
<g clip-path="url(#a)">
<use x="547.006765" y="384.645596" fill="#ffffff" stroke="#ffffff" xlink:href="#b"/>
</g>
<g clip-path="url(#a)">
<use x="680.642606" y="707.744408" fill="#ffffff" stroke="#ffffff" xlink:href="#b"/>
</g>
<g clip-path="url(#a)">
<use x="816.084336" y="494.216859" fill="#ffffff" stroke="#ffffff" xlink:href="#b"/>
</g>
<g clip-path="url(#a)">
<use x="778.160651" y="601.718105" fill="#ffffff" stroke="#ffffff" xlink:href="#b"/>
</g>
<g clip-path="url(#a)">
<use x="854.00802" y="707.744408" fill="#ffffff" stroke="#ffffff" xlink:href="#b"/>
</g>
<g clip-path="url(#a)">
<use x="745.654636" y="707.744408" fill="#ffffff" stroke="#ffffff" xlink:href="#b"/>
</g>
<g clip-path="url(#a)">
<use x="810.666667" y="707.744408" fill="#ffffff" stroke="#ffffff" xlink:href="#b"/>
</g>
<g clip-path="url(#a)">
<use x="500.053632" y="494.216859" fill="#ffffff" stroke="#ffffff" xlink:href="#b"/>
</g>
<g clip-path="url(#a)">
<use x="593.959898" y="707.744408" fill="#ffffff" stroke="#ffffff" xlink:href="#b"/>
</g>
<g clip-path="url(#a)">
<use x="442.26516" y="601.718105" fill="#ffffff" stroke="#ffffff" xlink:href="#b"/>
</g>
<g clip-path="url(#a)">
<use x="507.277191" y="707.744408" fill="#ffffff" stroke="#ffffff" xlink:href="#b"/>
</g>
<g clip-path="url(#a)">
<use x="550.618544" y="707.744408" fill="#ffffff" stroke="#ffffff" xlink:href="#b"/>
</g>
<g clip-path="url(#a)">
<use x="420.594483" y="707.744408" fill="#ffffff" stroke="#ffffff" xlink:href="#b"/>
</g>
<g clip-path="url(#a)">
<use x="463.935837" y="707.744408" fill="#ffffff" stroke="#ffffff" xlink:href="#b"/>
</g>
<g clip-path="url(#a)">
<use x="203.887715" y="707.744408" fill="#ffffff" stroke="#ffffff" xlink:href="#b"/>
</g>
<g clip-path="url(#a)">
<use x="268.899745" y="707.744408" fill="#ffffff" stroke="#ffffff" xlink:href="#b"/>
</g>
<g clip-path="url(#a)">
<use x="333.911776" y="707.744408" fill="#ffffff" stroke="#ffffff" xlink:href="#b"/>
</g>
<g clip-path="url(#a)">
<use x="377.253129" y="707.744408" fill="#ffffff" stroke="#ffffff" xlink:href="#b"/>
</g>
<g clip-path="url(#a)">
<use x="637.301252" y="707.744408" fill="#ffffff" stroke="#ffffff" xlink:href="#b"/>
</g>
<g clip-path="url(#a)">
<use x="897.349374" y="707.744408" fill="#ffffff" stroke="#ffffff" xlink:href="#b"/>
</g>
<g clip-path="url(#a)">
<use x="1027.373435" y="707.744408" fill="#ffffff" stroke="#ffffff" xlink:href="#b"/>
</g>
<g clip-path="url(#a)">
<use x="1157.397496" y="707.744408" fill="#ffffff" stroke="#ffffff" xlink:href="#b"/>
</g>
<g clip-path="url(#a)">
<use x="1374.104265" y="707.744408" fill="#ffffff" stroke="#ffffff" xlink:href="#b"/>
</g>
<g clip-path="url(#a)">
<use x="1417.445619" y="707.744408" fill="#ffffff" stroke="#ffffff" xlink:href="#b"/>
</g>
<g clip-path="url(#a)">
<defs>
<path id="x" d="m45.406 46.391v29.594h8.9844v-75.984h-8.9844v8.2031q-2.8281-4.875-7.1562-7.25-4.3125-2.375-10.375-2.375-9.9062 0-16.141 7.9062-6.2188 7.9219-6.2188 20.812t6.2188 20.797q6.2344 7.9062 16.141 7.9062 6.0625 0 10.375-2.375 4.3281-2.3594 7.1562-7.2344zm-30.609-19.094q0-9.9062 4.0781-15.547t11.203-5.6406 11.219 5.6406q4.1094 5.6406 4.1094 15.547t-4.1094 15.547q-4.0938 5.6406-11.219 5.6406t-11.203-5.6406-4.0781-15.547z"/>
<path id="s" d="m18.312 70.219v-15.531h18.5v-6.9844h-18.5v-29.688q0-6.6875 1.8281-8.5938t7.4531-1.9062h9.2188v-7.5156h-9.2188q-10.406 0-14.359 3.875-3.9531 3.8906-3.9531 14.141v29.688h-6.5938v6.9844h6.5938v15.531z"/>
<path id="w" d="m30.609 48.391q-7.2188 0-11.422-5.6406t-4.2031-15.453 4.1719-15.453q4.1875-5.6406 11.453-5.6406 7.1875 0 11.375 5.6562 4.2031 5.6719 4.2031 15.438 0 9.7188-4.2031 15.406-4.1875 5.6875-11.375 5.6875zm0 7.6094q11.719 0 18.406-7.625 6.7031-7.6094 6.7031-21.078 0-13.422-6.7031-21.078-6.6875-7.6406-18.406-7.6406-11.766 0-18.438 7.6406-6.6562 7.6562-6.6562 21.078 0 13.469 6.6562 21.078 6.6719 7.625 18.438 7.625z"/>
<path id="am" d="m32.172-5.0781q-3.7969-9.7656-7.4219-12.734-3.6094-2.9844-9.6562-2.9844h-7.1875v7.5156h5.2812q3.7031 0 5.75 1.7656 2.0625 1.75 4.5469 8.2969l1.6094 4.0938-22.109 53.812h9.5156l17.094-42.766 17.094 42.766h9.5156z"/>
</defs>
<g transform="translate(44.328 816.53) scale(.1 -.1)">
<use xlink:href="#r"/>
<use x="68.392578" xlink:href="#x"/>
<use x="131.869141" xlink:href="#x"/>
<use x="195.345703" xlink:href="#j"/>
<use x="223.128906" xlink:href="#s"/>
<use x="262.337891" xlink:href="#j"/>
<use x="290.121094" xlink:href="#w"/>
<use x="351.302734" xlink:href="#i"/>
<use x="414.681641" xlink:href="#f"/>
<use x="475.960938" xlink:href="#d"/>
<use x="503.744141" xlink:href="#d"/>
<use x="531.527344" xlink:href="#am"/>
</g>
</g>
<g clip-path="url(#a)">
<defs>
<path id="ap" d="m4.2031 54.688h8.9844l11.234-42.672 11.172 42.672h10.594l11.234-42.672 11.188 42.672h8.9844l-14.312-54.688h-10.594l-11.766 44.828-11.812-44.828h-10.609z"/>
</defs>
<g transform="translate(110.04 816.53) scale(.1 -.1)">
<use xlink:href="#ap"/>
<use x="81.787109" xlink:href="#e"/>
</g>
</g>
<g clip-path="url(#a)">
<g transform="translate(148.89 816.53) scale(.1 -.1)">
<use xlink:href="#s"/>
<use x="39.208984" xlink:href="#h"/>
<use x="80.322266" xlink:href="#j"/>
<use x="108.105469" xlink:href="#e"/>
<use x="169.628906" xlink:href="#x"/>
</g>
</g>
<g clip-path="url(#a)">
<defs>
<path id="av" d="m54.891 33.016v-33.016h-8.9844v32.719q0 7.7656-3.0312 11.609-3.0312 3.8594-9.0781 3.8594-7.2812 0-11.484-4.6406-4.2031-4.625-4.2031-12.641v-30.906h-9.0312v75.984h9.0312v-29.797q3.2344 4.9375 7.5938 7.375 4.375 2.4375 10.094 2.4375 9.4219 0 14.25-5.8281 4.8438-5.8281 4.8438-17.156z"/>
</defs>
<g transform="translate(195.68 816.53) scale(.1 -.1)">
<use xlink:href="#s"/>
<use x="39.208984" xlink:href="#av"/>
<use x="102.587891" xlink:href="#e"/>
</g>
</g>
<g clip-path="url(#a)">
<defs>
<path id="aw" d="m45.406 27.984q0 9.7656-4.0312 15.125-4.0156 5.375-11.297 5.375-7.2188 0-11.25-5.375-4.0312-5.3594-4.0312-15.125 0-9.7188 4.0312-15.094t11.25-5.375q7.2812 0 11.297 5.375 4.0312 5.375 4.0312 15.094zm8.9844-21.203q0-13.953-6.2031-20.766-6.1875-6.8125-18.984-6.8125-4.7344 0-8.9375 0.70312t-8.1562 2.1719v8.7344q3.9531-2.1406 7.8125-3.1562 3.8594-1.0312 7.8594-1.0312 8.8438 0 13.234 4.6094t4.3906 13.938v4.4531q-2.7812-4.8438-7.125-7.2344t-10.406-2.3906q-10.047 0-16.203 7.6562-6.1562 7.6719-6.1562 20.328 0 12.688 6.1562 20.344 6.1562 7.6719 16.203 7.6719 6.0625 0 10.406-2.3906t7.125-7.2188v8.2969h8.9844z"/>
</defs>
<g transform="translate(231.98 816.53) scale(.1 -.1)">
<use xlink:href="#u"/>
<use x="55.697266" xlink:href="#w"/>
<use x="116.878906" xlink:href="#aw"/>
<use x="180.355469" xlink:href="#f"/>
<use x="241.634766" xlink:href="#i"/>
</g>
</g>
<g clip-path="url(#a)">
<defs>
<path id="aa" d="m48.781 52.594v-8.4062q-3.8125 2.1094-7.6406 3.1562t-7.7344 1.0469q-8.75 0-13.594-5.5469-4.8281-5.5312-4.8281-15.547t4.8281-15.562q4.8438-5.5312 13.594-5.5312 3.9062 0 7.7344 1.0469t7.6406 3.1562v-8.3125q-3.7656-1.75-7.7969-2.625-4.0156-0.89062-8.5625-0.89062-12.359 0-19.641 7.7656-7.2656 7.7656-7.2656 20.953 0 13.375 7.3438 21.031 7.3594 7.6719 20.156 7.6719 4.1406 0 8.0938-0.85938 3.9531-0.84375 7.6719-2.5469z"/>
</defs>
<g transform="translate(276.42 816.53) scale(.1 -.1)">
<use xlink:href="#m"/>
<use x="69.824219" xlink:href="#j"/>
<use x="97.607422" xlink:href="#h"/>
<use x="138.689453" xlink:href="#aa"/>
<use x="193.669922" xlink:href="#d"/>
<use x="221.453125" xlink:href="#e"/>
</g>
</g>
<g clip-path="url(#a)">
<g transform="translate(326.02 816.53) scale(.1 -.1)">
<use xlink:href="#h"/>
<use x="41.082031" xlink:href="#w"/>
<use x="102.263672" xlink:href="#d"/>
<use x="130.046875" xlink:href="#d"/>
</g>
</g>
<g clip-path="url(#a)">
<defs>
<path id="ag" d="m11.719 12.406h10.297v-8.4062l-8-15.625h-6.2969l4 15.625z"/>
</defs>
<g transform="translate(375.66 816.53) scale(.1 -.1)">
<use xlink:href="#ag"/>
</g>
</g>
<g clip-path="url(#a)">
<defs>
<path id="an" d="m44.281 53.078v-8.5q-3.7969 1.9531-7.9062 2.9219-4.0938 0.98438-8.5 0.98438-6.6875 0-10.031-2.0469t-3.3438-6.1562q0-3.125 2.3906-4.9062t9.625-3.3906l3.0781-0.6875q9.5625-2.0469 13.594-5.7812t4.0312-10.422q0-7.625-6.0312-12.078-6.0312-4.4375-16.578-4.4375-4.3906 0-9.1562 0.85938t-10.031 2.5625v9.2812q4.9844-2.5938 9.8125-3.8906 4.8281-1.2812 9.5781-1.2812 6.3438 0 9.75 2.1719 3.4219 2.1719 3.4219 6.125 0 3.6562-2.4688 5.6094-2.4531 1.9531-10.812 3.7656l-3.125 0.73438q-8.3438 1.75-12.062 5.3906-3.7031 3.6406-3.7031 9.9844 0 7.7188 5.4688 11.906 5.4688 4.2031 15.531 4.2031 4.9688 0 9.3594-0.73438 4.4062-0.71875 8.1094-2.1875z"/>
<path id="ah" d="m18.109 8.2031v-29h-9.0312v75.484h9.0312v-8.2969q2.8438 4.875 7.1562 7.2344 4.3281 2.375 10.328 2.375 9.9688 0 16.188-7.9062 6.2344-7.9062 6.2344-20.797t-6.2344-20.812q-6.2188-7.9062-16.188-7.9062-6 0-10.328 2.375-4.3125 2.375-7.1562 7.25zm30.578 19.094q0 9.9062-4.0781 15.547t-11.203 5.6406q-7.1406 0-11.219-5.6406t-4.0781-15.547 4.0781-15.547 11.219-5.6406q7.125 0 11.203 5.6406t4.0781 15.547z"/>
</defs>
<g transform="translate(407.72 816.53) scale(.1 -.1)">
<use xlink:href="#an"/>
<use x="52.099609" xlink:href="#ah"/>
<use x="115.576172" xlink:href="#j"/>
<use x="143.359375" xlink:href="#aa"/>
<use x="198.339844" xlink:href="#am"/>
</g>
</g>
<g clip-path="url(#a)">
<defs>
<path id="ar" d="m48.688 27.297q0 9.9062-4.0781 15.547t-11.203 5.6406q-7.1406 0-11.219-5.6406t-4.0781-15.547 4.0781-15.547 11.219-5.6406q7.125 0 11.203 5.6406t4.0781 15.547zm-30.578 19.094q2.8438 4.875 7.1562 7.2344 4.3281 2.375 10.328 2.375 9.9688 0 16.188-7.9062 6.2344-7.9062 6.2344-20.797t-6.2344-20.812q-6.2188-7.9062-16.188-7.9062-6 0-10.328 2.375-4.3125 2.375-7.1562 7.25v-8.2031h-9.0312v75.984h9.0312z"/>
</defs>
<g transform="translate(452.89 816.53) scale(.1 -.1)">
<use xlink:href="#aa"/>
<use x="54.980469" xlink:href="#h"/>
<use x="96.09375" xlink:href="#f"/>
<use x="157.373047" xlink:href="#ar"/>
</g>
</g>
<g clip-path="url(#a)">
<g transform="translate(497.87 816.53) scale(.1 -.1)">
<use xlink:href="#f"/>
<use x="61.279297" xlink:href="#i"/>
<use x="124.658203" xlink:href="#x"/>
</g>
</g>
<g clip-path="url(#a)">
<defs>
<path id="aq" d="m8.5 21.578v33.109h8.9844v-32.766q0-7.7656 3.0156-11.656 3.0312-3.875 9.0938-3.875 7.2656 0 11.484 4.6406 4.2344 4.6406 4.2344 12.656v31h8.9844v-54.688h-8.9844v8.4062q-3.2656-4.9844-7.5938-7.4062-4.3125-2.4219-10.031-2.4219-9.4219 0-14.312 5.8594-4.875 5.8594-4.875 17.141z"/>
</defs>
<g transform="translate(539.26 816.53) scale(.1 -.1)">
<use xlink:href="#s"/>
<use x="39.208984" xlink:href="#aq"/>
<use x="102.587891" xlink:href="#i"/>
<use x="165.966797" xlink:href="#f"/>
</g>
</g>
<g clip-path="url(#a)">
<g transform="translate(586.07 816.53) scale(.1 -.1)">
<use xlink:href="#h"/>
<use x="41.082031" xlink:href="#w"/>
<use x="102.263672" xlink:href="#d"/>
<use x="130.046875" xlink:href="#d"/>
</g>
</g>
<g clip-path="url(#a)">
<g transform="translate(635.71 816.53) scale(.1 -.1)">
<use xlink:href="#ag"/>
</g>
</g>
<g clip-path="url(#a)">
<g transform="translate(671.24 816.53) scale(.1 -.1)">
<use xlink:href="#f"/>
<use x="61.279297" xlink:href="#i"/>
<use x="124.658203" xlink:href="#x"/>
</g>
</g>
<g clip-path="url(#a)">
<g transform="translate(709.18 816.53) scale(.1 -.1)">
<use xlink:href="#an"/>
<use x="52.099609" xlink:href="#ap"/>
<use x="133.886719" xlink:href="#e"/>
<use x="195.410156" xlink:href="#e"/>
<use x="256.933594" xlink:href="#s"/>
</g>
</g>
<g clip-path="url(#a)">
<g transform="translate(751.05 816.53) scale(.1 -.1)">
<use xlink:href="#ah"/>
<use x="63.476562" xlink:href="#w"/>
<use x="124.658203" xlink:href="#s"/>
<use x="163.867188" xlink:href="#f"/>
<use x="225.146484" xlink:href="#s"/>
<use x="264.355469" xlink:href="#w"/>
</g>
</g>
<g clip-path="url(#a)">
<g transform="translate(789.3 816.53) scale(.1 -.1)">
<use xlink:href="#s"/>
<use x="39.208984" xlink:href="#e"/>
<use x="100.732422" xlink:href="#l"/>
<use x="198.144531" xlink:href="#ah"/>
<use x="261.621094" xlink:href="#aq"/>
<use x="325" xlink:href="#h"/>
<use x="366.113281" xlink:href="#f"/>
</g>
</g>
<g clip-path="url(#a)">
<g transform="translate(846.12 816.53) scale(.1 -.1)">
<use xlink:href="#h"/>
<use x="41.082031" xlink:href="#w"/>
<use x="102.263672" xlink:href="#d"/>
<use x="130.046875" xlink:href="#d"/>
</g>
</g>
<g clip-path="url(#a)">
<defs>
<path id="at" d="m31 75.875q-6.5312-11.219-9.7188-22.219-3.1719-10.984-3.1719-22.266 0-11.266 3.2031-22.328t9.6875-22.25h-7.8125q-7.3125 11.484-10.953 22.562t-3.6406 22.016q0 10.891 3.6094 21.922 3.625 11.047 10.984 22.562z"/>
</defs>
<g transform="translate(895.4 816.53) scale(.1 -.1)">
<use xlink:href="#at"/>
</g>
</g>
<g clip-path="url(#a)">
<defs>
<path id="al" d="m33.797-14.703h-4.8906l-0.046875 14.703q-5.125 0.09375-10.25 1.1875-5.125 1.1094-10.312 3.3125v8.7812q4.9844-3.125 10.078-4.7188 5.1094-1.5781 10.531-1.625v22.266q-10.797 1.75-15.703 5.9531t-4.9062 11.531q0 7.9531 5.3281 12.531 5.3281 4.5938 15.281 5.2812v11.484h4.8906v-11.328q4.5312-0.20312 8.7812-0.96875 4.25-0.75 8.2969-2.0625v-8.5469q-4.0469 2.0469-8.3281 3.1719-4.2656 1.125-8.75 1.3125v-20.844q11.078-1.7031 16.297-6.1094 5.2344-4.3906 5.2344-12 0-8.25-5.5469-13.016t-15.984-5.5zm-4.8906 52.297v20.031q-5.6562-0.64062-8.6406-3.2344-2.9844-2.5781-2.9844-6.875 0-4.2031 2.75-6.5469 2.7656-2.3438 8.875-3.375zm4.8906-9.375v-21.141q6.1875 0.82812 9.3438 3.5156t3.1562 7.0781q0 4.2969-3.0156 6.8281-3 2.5469-9.4844 3.7188z"/>
</defs>
<g transform="translate(937.51 816.53) scale(.1 -.1)">
<use xlink:href="#al"/>
</g>
</g>
<g clip-path="url(#a)">
<defs>
<path id="c" d="m12.406 8.2969h16.109v55.625l-17.531-3.5156v8.9844l17.438 3.5156h9.8594v-64.609h16.109v-8.2969h-41.984z"/>
<path id="v" d="m10.797 72.906h38.719v-8.3125h-29.688v-17.859q2.1406 0.73438 4.2812 1.0938 2.1562 0.35938 4.3125 0.35938 12.203 0 19.328-6.6875 7.1406-6.6875 7.1406-18.109 0-11.766-7.3281-18.297-7.3281-6.5156-20.656-6.5156-4.5938 0-9.3594 0.78125-4.75 0.78125-9.8281 2.3438v9.9219q4.3906-2.3906 9.0781-3.5625t9.9062-1.1719q8.4531 0 13.375 4.4375 4.9375 4.4375 4.9375 12.062 0 7.6094-4.9375 12.047-4.9219 4.4531-13.375 4.4531-3.9531 0-7.8906-0.875-3.9219-0.875-8.0156-2.7344z"/>
</defs>
<g transform="translate(977.67 816.53) scale(.1 -.1)">
<use xlink:href="#c"/>
<use x="63.623047" xlink:href="#v"/>
</g>
</g>
<g clip-path="url(#a)">
<g transform="translate(1025.8 816.53) scale(.1 -.1)">
<use xlink:href="#ag"/>
</g>
</g>
<g clip-path="url(#a)">
<g transform="translate(1067.5 816.53) scale(.1 -.1)">
<use xlink:href="#al"/>
</g>
</g>
<g clip-path="url(#a)">
<defs>
<path id="af" d="m31.781 66.406q-7.6094 0-11.453-7.5-3.8281-7.4844-3.8281-22.531 0-14.984 3.8281-22.484 3.8438-7.5 11.453-7.5 7.6719 0 11.5 7.5 3.8438 7.5 3.8438 22.484 0 15.047-3.8438 22.531-3.8281 7.5-11.5 7.5zm0 7.8125q12.266 0 18.734-9.7031 6.4688-9.6875 6.4688-28.141 0-18.406-6.4688-28.109-6.4688-9.6875-18.734-9.6875-12.25 0-18.719 9.6875-6.4688 9.7031-6.4688 28.109 0 18.453 6.4688 28.141 6.4688 9.7031 18.719 9.7031z"/>
</defs>
<g transform="translate(1107.7 816.53) scale(.1 -.1)">
<use xlink:href="#c"/>
<use x="63.623047" xlink:href="#af"/>
</g>
</g>
<g clip-path="url(#a)">
<g transform="translate(1155.8 816.53) scale(.1 -.1)">
<use xlink:href="#ag"/>
</g>
</g>
<g clip-path="url(#a)">
<g transform="translate(1191.3 816.53) scale(.1 -.1)">
<use xlink:href="#f"/>
<use x="61.279297" xlink:href="#i"/>
<use x="124.658203" xlink:href="#x"/>
</g>
</g>
<g clip-path="url(#a)">
<g transform="translate(1240.9 816.53) scale(.1 -.1)">
<use xlink:href="#al"/>
</g>
</g>
<g clip-path="url(#a)">
<defs>
<path id="n" d="m40.578 39.312q7.0781-1.5156 11.047-6.3125 3.9844-4.7812 3.9844-11.812 0-10.781-7.4219-16.703-7.4219-5.9062-21.094-5.9062-4.5781 0-9.4375 0.90625t-10.031 2.7188v9.5156q4.0938-2.3906 8.9688-3.6094 4.8906-1.2188 10.219-1.2188 9.2656 0 14.125 3.6562t4.8594 10.641q0 6.4531-4.5156 10.078-4.5156 3.6406-12.562 3.6406h-8.5v8.1094h8.8906q7.2656 0 11.125 2.9062t3.8594 8.375q0 5.6094-3.9844 8.6094-3.9688 3.0156-11.391 3.0156-4.0625 0-8.7031-0.89062-4.6406-0.875-10.203-2.7188v8.7812q5.625 1.5625 10.531 2.3438t9.25 0.78125q11.234 0 17.766-5.1094 6.5469-5.0938 6.5469-13.781 0-6.0625-3.4688-10.234t-9.8594-5.7812z"/>
<path id="g" d="m10.688 12.406h10.312v-12.406h-10.312z"/>
<path id="z" d="m8.2031 72.906h46.875v-4.2031l-26.469-68.703h-10.297l24.906 64.594h-35.016z"/>
</defs>
<g transform="translate(1276.3 816.53) scale(.1 -.1)">
<use xlink:href="#n"/>
<use x="63.623047" xlink:href="#g"/>
<use x="95.410156" xlink:href="#z"/>
<use x="159.033203" xlink:href="#v"/>
</g>
</g>
<g clip-path="url(#a)">
<defs>
<path id="au" d="m2.9844 54.688h9.5156l17.094-45.891 17.094 45.891h9.5156l-20.516-54.688h-12.203z"/>
</defs>
<g transform="translate(1300.3 816.53) scale(.1 -.1)">
<use xlink:href="#h"/>
<use x="41.082031" xlink:href="#e"/>
<use x="102.605469" xlink:href="#an"/>
<use x="154.705078" xlink:href="#ah"/>
<use x="218.181641" xlink:href="#e"/>
<use x="279.705078" xlink:href="#aa"/>
<use x="334.685547" xlink:href="#s"/>
<use x="373.894531" xlink:href="#j"/>
<use x="401.677734" xlink:href="#au"/>
<use x="460.857422" xlink:href="#e"/>
<use x="522.380859" xlink:href="#d"/>
<use x="550.164062" xlink:href="#am"/>
</g>
</g>
<g clip-path="url(#a)">
<defs>
<path id="as" d="m8.0156 75.875h7.8125q7.3125-11.516 10.953-22.562 3.6406-11.031 3.6406-21.922 0-10.938-3.6406-22.016t-10.953-22.562h-7.8125q6.4844 11.188 9.6875 22.25t3.2031 22.328q0 11.281-3.2031 22.266-3.2031 11-9.6875 22.219z"/>
</defs>
<g transform="translate(1372.2 816.53) scale(.1 -.1)">
<use xlink:href="#as"/>
</g>
</g>
<g clip-path="url(#a)">
<g transform="translate(1415.9 816.53) scale(.1 -.1)">
<use xlink:href="#g"/>
</g>
</g>
<g clip-path="url(#a)">
<g transform="translate(986.44 42.322) scale(.1 -.1)">
<use xlink:href="#c"/>
<use x="63.623047" xlink:href="#g"/>
<use x="95.410156" xlink:href="#c"/>
</g>
</g>
<g clip-path="url(#a)">
<defs>
<path id="p" d="m19.188 8.2969h34.422v-8.2969h-46.281v8.2969q5.6094 5.8125 15.297 15.594 9.7031 9.7969 12.188 12.641 4.7344 5.3125 6.6094 9 1.8906 3.6875 1.8906 7.25 0 5.8125-4.0781 9.4688-4.0781 3.6719-10.625 3.6719-4.6406 0-9.7969-1.6094-5.1406-1.6094-11-4.8906v9.9688q5.9531 2.3906 11.125 3.6094 5.1875 1.2188 9.4844 1.2188 11.328 0 18.062-5.6719 6.7344-5.6562 6.7344-15.125 0-4.5-1.6875-8.5312-1.6719-4.0156-6.125-9.4844-1.2188-1.4219-7.7656-8.1875-6.5312-6.7656-18.453-18.922z"/>
</defs>
<g transform="translate(65.912 710.5) scale(.1 -.1)">
<use xlink:href="#c"/>
<use x="63.623047" xlink:href="#g"/>
<use x="95.410156" xlink:href="#p"/>
</g>
</g>
<g clip-path="url(#a)">
<g transform="translate(269.48 160.42) scale(.1 -.1)">
<use xlink:href="#c"/>
<use x="63.623047" xlink:href="#g"/>
<use x="95.410156" xlink:href="#n"/>
</g>
</g>
<g clip-path="url(#a)">
<defs>
<path id="o" d="m37.797 64.312-24.906-38.922h24.906zm-2.5938 8.5938h12.406v-47.516h10.406v-8.2031h-10.406v-17.188h-9.8125v17.188h-32.906v9.5156z"/>
</defs>
<g transform="translate(918.29 496.98) scale(.1 -.1)">
<use xlink:href="#c"/>
<use x="63.623047" xlink:href="#g"/>
<use x="95.410156" xlink:href="#o"/>
</g>
</g>
<g clip-path="url(#a)">
<g transform="translate(1039.9 275.34) scale(.1 -.1)">
<use xlink:href="#c"/>
<use x="63.623047" xlink:href="#g"/>
<use x="95.410156" xlink:href="#v"/>
</g>
</g>
<g clip-path="url(#a)">
<defs>
<path id="ae" d="m33.016 40.375q-6.6406 0-10.531-4.5469-3.875-4.5312-3.875-12.438 0-7.8594 3.875-12.438 3.8906-4.5625 10.531-4.5625t10.516 4.5625q3.875 4.5781 3.875 12.438 0 7.9062-3.875 12.438-3.875 4.5469-10.516 4.5469zm19.578 30.922v-8.9844q-3.7188 1.75-7.5 2.6719-3.7812 0.9375-7.5 0.9375-9.7656 0-14.922-6.5938-5.1406-6.5938-5.875-19.922 2.875 4.25 7.2188 6.5156 4.3594 2.2656 9.5781 2.2656 10.984 0 17.359-6.6719 6.375-6.6562 6.375-18.125 0-11.234-6.6406-18.031-6.6406-6.7812-17.672-6.7812-12.656 0-19.344 9.6875-6.6875 9.7031-6.6875 28.109 0 17.281 8.2031 27.562t22.016 10.281q3.7188 0 7.5-0.73438t7.8906-2.1875z"/>
</defs>
<g transform="translate(1192.8 710.5) scale(.1 -.1)">
<use xlink:href="#c"/>
<use x="63.623047" xlink:href="#g"/>
<use x="95.410156" xlink:href="#ae"/>
</g>
</g>
<g clip-path="url(#a)">
<g transform="translate(1194.1 387.4) scale(.1 -.1)">
<use xlink:href="#c"/>
<use x="63.623047" xlink:href="#g"/>
<use x="95.410156" xlink:href="#z"/>
</g>
</g>
<g clip-path="url(#a)">
<defs>
<path id="ak" d="m31.781 34.625q-7.0312 0-11.062-3.7656-4.0156-3.7656-4.0156-10.344 0-6.5938 4.0156-10.359 4.0312-3.7656 11.062-3.7656t11.078 3.7812q4.0625 3.7969 4.0625 10.344 0 6.5781-4.0312 10.344-4.0156 3.7656-11.109 3.7656zm-9.8594 4.1875q-6.3438 1.5625-9.8906 5.9062-3.5312 4.3594-3.5312 10.609 0 8.7344 6.2188 13.812 6.2344 5.0781 17.062 5.0781 10.891 0 17.094-5.0781t6.2031-13.812q0-6.25-3.5469-10.609-3.5312-4.3438-9.8281-5.9062 7.125-1.6562 11.094-6.5 3.9844-4.8281 3.9844-11.797 0-10.609-6.4688-16.281-6.4688-5.6562-18.531-5.6562-12.047 0-18.531 5.6562-6.4688 5.6719-6.4688 16.281 0 6.9688 4 11.797 4.0156 4.8438 11.141 6.5zm-3.6094 15.578q0-5.6562 3.5312-8.8281 3.5469-3.1719 9.9375-3.1719 6.3594 0 9.9375 3.1719 3.5938 3.1719 3.5938 8.8281 0 5.6719-3.5938 8.8438-3.5781 3.1719-9.9375 3.1719-6.3906 0-9.9375-3.1719-3.5312-3.1719-3.5312-8.8438z"/>
</defs>
<g transform="translate(1322.8 710.5) scale(.1 -.1)">
<use xlink:href="#c"/>
<use x="63.623047" xlink:href="#g"/>
<use x="95.410156" xlink:href="#ak"/>
</g>
</g>
<g clip-path="url(#a)">
<defs>
<path id="q" d="m9.8125 72.906h9.8594v-72.906h-9.8594z"/>
<path id="aj" d="m9.8125 72.906h14.703l18.594-49.609 18.703 49.609h14.703v-72.906h-9.625v64.016l-18.797-50h-9.9062l-18.797 50v-64.016h-9.5781z"/>
</defs>
<g transform="translate(1439.7 816.53) scale(.1 -.1)">
<use xlink:href="#q"/>
<use x="29.492188" xlink:href="#aj"/>
<use x="115.771484" xlink:href="#ab"/>
<use x="176.074219" xlink:href="#u"/>
<use x="231.787109" xlink:href="#q"/>
<use x="261.279297" xlink:href="#m"/>
<use x="331.103516" xlink:href="#q"/>
<use x="360.595703" xlink:href="#k"/>
</g>
</g>
<g clip-path="url(#a)">
<g transform="translate(1276.3 710.5) scale(.1 -.1)">
<use xlink:href="#c"/>
<use x="63.623047" xlink:href="#g"/>
<use x="95.410156" xlink:href="#c"/>
<use x="159.033203" xlink:href="#v"/>
</g>
</g>
<g clip-path="url(#a)">
<g transform="translate(1483 816.53) scale(.1 -.1)">
<use xlink:href="#q"/>
<use x="29.492188" xlink:href="#aj"/>
<use x="115.771484" xlink:href="#ab"/>
<use x="176.074219" xlink:href="#u"/>
<use x="231.787109" xlink:href="#q"/>
<use x="261.279297" xlink:href="#m"/>
<use x="331.103516" xlink:href="#q"/>
<use x="360.595703" xlink:href="#k"/>
</g>
</g>
<g clip-path="url(#a)">
<g transform="translate(1081.3 710.5) scale(.1 -.1)">
<use xlink:href="#c"/>
<use x="63.623047" xlink:href="#g"/>
<use x="95.410156" xlink:href="#c"/>
<use x="159.033203" xlink:href="#z"/>
</g>
</g>
<g clip-path="url(#a)">
<g transform="translate(1526.4 816.53) scale(.1 -.1)">
<use xlink:href="#q"/>
<use x="29.492188" xlink:href="#aj"/>
<use x="115.771484" xlink:href="#ab"/>
<use x="176.074219" xlink:href="#u"/>
<use x="231.787109" xlink:href="#q"/>
<use x="261.279297" xlink:href="#m"/>
<use x="331.103516" xlink:href="#q"/>
<use x="360.595703" xlink:href="#k"/>
</g>
</g>
<g clip-path="url(#a)">
<defs>
<path id="ad" d="m10.984 1.5156v8.9844q3.7188-1.7656 7.5156-2.6875 3.8125-0.92188 7.4844-0.92188 9.7656 0 14.906 6.5625 5.1562 6.5625 5.8906 19.953-2.8281-4.2031-7.1875-6.4531-4.3438-2.25-9.6094-2.25-10.938 0-17.312 6.6094-6.375 6.625-6.375 18.109 0 11.219 6.6406 18 6.6406 6.7969 17.672 6.7969 12.656 0 19.312-9.7031 6.6719-9.6875 6.6719-28.141 0-17.234-8.1875-27.516-8.1719-10.281-21.984-10.281-3.7188 0-7.5312 0.73438-3.7969 0.73438-7.9062 2.2031zm19.625 30.906q6.6406 0 10.516 4.5312 3.8906 4.5469 3.8906 12.469 0 7.8594-3.8906 12.422-3.875 4.5625-10.516 4.5625t-10.516-4.5625-3.875-12.422q0-7.9219 3.875-12.469 3.875-4.5312 10.516-4.5312z"/>
</defs>
<g transform="translate(951.23 710.5) scale(.1 -.1)">
<use xlink:href="#c"/>
<use x="63.623047" xlink:href="#g"/>
<use x="95.410156" xlink:href="#c"/>
<use x="159.033203" xlink:href="#ad"/>
</g>
</g>
<g clip-path="url(#a)">
<g transform="translate(106.07 710.5) scale(.1 -.1)">
<use xlink:href="#c"/>
<use x="63.623047" xlink:href="#g"/>
<use x="95.410156" xlink:href="#p"/>
<use x="159.033203" xlink:href="#af"/>
</g>
</g>
<g clip-path="url(#a)">
<g transform="translate(149.41 710.5) scale(.1 -.1)">
<use xlink:href="#c"/>
<use x="63.623047" xlink:href="#g"/>
<use x="95.410156" xlink:href="#p"/>
<use x="159.033203" xlink:href="#c"/>
</g>
</g>
<g clip-path="url(#a)">
<g transform="translate(543.4 275.34) scale(.1 -.1)">
<use xlink:href="#c"/>
<use x="63.623047" xlink:href="#g"/>
<use x="95.410156" xlink:href="#p"/>
<use x="159.033203" xlink:href="#p"/>
</g>
</g>
<g clip-path="url(#a)">
<g transform="translate(257.77 604.48) scale(.1 -.1)">
<use xlink:href="#c"/>
<use x="63.623047" xlink:href="#g"/>
<use x="95.410156" xlink:href="#p"/>
<use x="159.033203" xlink:href="#n"/>
</g>
</g>
<g clip-path="url(#a)">
<g transform="translate(535.87 387.4) scale(.1 -.1)">
<use xlink:href="#c"/>
<use x="63.623047" xlink:href="#g"/>
<use x="95.410156" xlink:href="#p"/>
<use x="159.033203" xlink:href="#o"/>
</g>
</g>
<g clip-path="url(#a)">
<g transform="translate(669.51 710.5) scale(.1 -.1)">
<use xlink:href="#c"/>
<use x="63.623047" xlink:href="#g"/>
<use x="95.410156" xlink:href="#p"/>
<use x="159.033203" xlink:href="#v"/>
</g>
</g>
<g clip-path="url(#a)">
<g transform="translate(804.95 496.98) scale(.1 -.1)">
<use xlink:href="#c"/>
<use x="63.623047" xlink:href="#g"/>
<use x="95.410156" xlink:href="#p"/>
<use x="159.033203" xlink:href="#ae"/>
</g>
</g>
<g clip-path="url(#a)">
<g transform="translate(767.03 604.48) scale(.1 -.1)">
<use xlink:href="#c"/>
<use x="63.623047" xlink:href="#g"/>
<use x="95.410156" xlink:href="#p"/>
<use x="159.033203" xlink:href="#ad"/>
</g>
</g>
<g clip-path="url(#a)">
<g transform="translate(842.88 710.5) scale(.1 -.1)">
<use xlink:href="#c"/>
<use x="63.623047" xlink:href="#g"/>
<use x="95.410156" xlink:href="#n"/>
<use x="159.033203" xlink:href="#af"/>
</g>
</g>
<g clip-path="url(#a)">
<g transform="translate(734.52 710.5) scale(.1 -.1)">
<use xlink:href="#c"/>
<use x="63.623047" xlink:href="#g"/>
<use x="95.410156" xlink:href="#n"/>
<use x="159.033203" xlink:href="#c"/>
</g>
</g>
<g clip-path="url(#a)">
<g transform="translate(799.53 710.5) scale(.1 -.1)">
<use xlink:href="#c"/>
<use x="63.623047" xlink:href="#g"/>
<use x="95.410156" xlink:href="#n"/>
<use x="159.033203" xlink:href="#p"/>
</g>
</g>
<g clip-path="url(#a)">
<g transform="translate(488.92 496.98) scale(.1 -.1)">
<use xlink:href="#c"/>
<use x="63.623047" xlink:href="#g"/>
<use x="95.410156" xlink:href="#n"/>
<use x="159.033203" xlink:href="#n"/>
</g>
</g>
<g clip-path="url(#a)">
<g transform="translate(582.83 710.5) scale(.1 -.1)">
<use xlink:href="#c"/>
<use x="63.623047" xlink:href="#g"/>
<use x="95.410156" xlink:href="#n"/>
<use x="159.033203" xlink:href="#o"/>
</g>
</g>
<g clip-path="url(#a)">
<g transform="translate(431.13 604.48) scale(.1 -.1)">
<use xlink:href="#c"/>
<use x="63.623047" xlink:href="#g"/>
<use x="95.410156" xlink:href="#n"/>
<use x="159.033203" xlink:href="#v"/>
</g>
</g>
<g clip-path="url(#a)">
<g transform="translate(496.14 710.5) scale(.1 -.1)">
<use xlink:href="#c"/>
<use x="63.623047" xlink:href="#g"/>
<use x="95.410156" xlink:href="#n"/>
<use x="159.033203" xlink:href="#ae"/>
</g>
</g>
<g clip-path="url(#a)">
<g transform="translate(539.49 710.5) scale(.1 -.1)">
<use xlink:href="#c"/>
<use x="63.623047" xlink:href="#g"/>
<use x="95.410156" xlink:href="#n"/>
<use x="159.033203" xlink:href="#z"/>
</g>
</g>
<g clip-path="url(#a)">
<g transform="translate(409.46 710.5) scale(.1 -.1)">
<use xlink:href="#c"/>
<use x="63.623047" xlink:href="#g"/>
<use x="95.410156" xlink:href="#n"/>
<use x="159.033203" xlink:href="#ak"/>
</g>
</g>
<g clip-path="url(#a)">
<g transform="translate(452.8 710.5) scale(.1 -.1)">
<use xlink:href="#c"/>
<use x="63.623047" xlink:href="#g"/>
<use x="95.410156" xlink:href="#n"/>
<use x="159.033203" xlink:href="#ad"/>
</g>
</g>
<g clip-path="url(#a)">
<g transform="translate(192.75 710.5) scale(.1 -.1)">
<use xlink:href="#c"/>
<use x="63.623047" xlink:href="#g"/>
<use x="95.410156" xlink:href="#o"/>
<use x="159.033203" xlink:href="#af"/>
</g>
</g>
<g clip-path="url(#a)">
<g transform="translate(257.77 710.5) scale(.1 -.1)">
<use xlink:href="#c"/>
<use x="63.623047" xlink:href="#g"/>
<use x="95.410156" xlink:href="#o"/>
<use x="159.033203" xlink:href="#c"/>
</g>
</g>
<g clip-path="url(#a)">
<g transform="translate(322.78 710.5) scale(.1 -.1)">
<use xlink:href="#c"/>
<use x="63.623047" xlink:href="#g"/>
<use x="95.410156" xlink:href="#o"/>
<use x="159.033203" xlink:href="#p"/>
</g>
</g>
<g clip-path="url(#a)">
<g transform="translate(366.12 710.5) scale(.1 -.1)">
<use xlink:href="#c"/>
<use x="63.623047" xlink:href="#g"/>
<use x="95.410156" xlink:href="#o"/>
<use x="159.033203" xlink:href="#n"/>
</g>
</g>
<g clip-path="url(#a)">
<g transform="translate(626.17 710.5) scale(.1 -.1)">
<use xlink:href="#c"/>
<use x="63.623047" xlink:href="#g"/>
<use x="95.410156" xlink:href="#o"/>
<use x="159.033203" xlink:href="#o"/>
</g>
</g>
<g clip-path="url(#a)">
<g transform="translate(886.22 710.5) scale(.1 -.1)">
<use xlink:href="#c"/>
<use x="63.623047" xlink:href="#g"/>
<use x="95.410156" xlink:href="#o"/>
<use x="159.033203" xlink:href="#v"/>
</g>
</g>
<g clip-path="url(#a)">
<g transform="translate(1016.2 710.5) scale(.1 -.1)">
<use xlink:href="#c"/>
<use x="63.623047" xlink:href="#g"/>
<use x="95.410156" xlink:href="#o"/>
<use x="159.033203" xlink:href="#ae"/>
</g>
</g>
<g clip-path="url(#a)">
<g transform="translate(1146.3 710.5) scale(.1 -.1)">
<use xlink:href="#c"/>
<use x="63.623047" xlink:href="#g"/>
<use x="95.410156" xlink:href="#o"/>
<use x="159.033203" xlink:href="#z"/>
</g>
</g>
<g clip-path="url(#a)">
<g transform="translate(1363 710.5) scale(.1 -.1)">
<use xlink:href="#c"/>
<use x="63.623047" xlink:href="#g"/>
<use x="95.410156" xlink:href="#o"/>
<use x="159.033203" xlink:href="#ak"/>
</g>
</g>
<g clip-path="url(#a)">
<g transform="translate(1406.3 710.5) scale(.1 -.1)">
<use xlink:href="#c"/>
<use x="63.623047" xlink:href="#g"/>
<use x="95.410156" xlink:href="#o"/>
<use x="159.033203" xlink:href="#ad"/>
</g>
</g>
<defs>
<clipPath id="a">
<rect width="1621.3" height="853.33"/>
</clipPath>
</defs>
</svg>
