<?xml version="1.0" encoding="UTF-8"?>
<!DOCTYPE svg  PUBLIC '-//W3C//DTD SVG 1.1//EN'  'http://www.w3.org/Graphics/SVG/1.1/DTD/svg11.dtd'>
<svg width="962.67pt" height="506.67pt" version="1.1" viewBox="0 0 962.67 506.67" xmlns="http://www.w3.org/2000/svg" xmlns:xlink="http://www.w3.org/1999/xlink">
<metadata>
<rdf:RDF xmlns:cc="http://creativecommons.org/ns#" xmlns:dc="http://purl.org/dc/elements/1.1/" xmlns:rdf="http://www.w3.org/1999/02/22-rdf-syntax-ns#">
<cc:Work>
<dc:type rdf:resource="http://purl.org/dc/dcmitype/StillImage"/>
<dc:date>2021-02-25T11:33:27.120617</dc:date>
<dc:format>image/svg+xml</dc:format>
<dc:creator>
<cc:Agent>
<dc:title>Matplotlib v3.3.3, https://matplotlib.org/</dc:title>
</cc:Agent>
</dc:creator>
</cc:Work>
</rdf:RDF>
</metadata>
<defs>
<style type="text/css">*{stroke-linecap:butt;stroke-linejoin:round;}</style>
</defs>
<path d="m0 506.67h962.67v-506.67h-962.67z" fill="#fff"/>
<g fill="none" stroke="#000">
<path d="m223.54 23.03v77.467" clip-path="url(#a)"/>
<path d="m223.54 100.5-179.78 307.73" clip-path="url(#a)"/>
<path d="m223.54 100.5-167.1 307.73" clip-path="url(#a)"/>
<path d="m223.54 100.5 346.88 77.311" clip-path="url(#a)"/>
<path d="m43.758 408.23v75.404" clip-path="url(#a)"/>
<path d="m56.441 408.23v75.404" clip-path="url(#a)"/>
<path d="m570.43 177.81-252.65 153.97" clip-path="url(#a)"/>
<path d="m570.43 177.81 252.65 77.116" clip-path="url(#a)"/>
<path d="m317.77 331.78-233.85 76.453" clip-path="url(#a)"/>
<path d="m317.77 331.78-113.36 76.453" clip-path="url(#a)"/>
<path d="m317.77 331.78 43.071 76.453" clip-path="url(#a)"/>
<path d="m317.77 331.78 157.22 76.453" clip-path="url(#a)"/>
<path d="m317.77 331.78 254.46 76.453" clip-path="url(#a)"/>
<path d="m317.77 331.78-197.91 76.453" clip-path="url(#a)"/>
<path d="m317.77 331.78-7.6629 76.453" clip-path="url(#a)"/>
<path d="m317.77 331.78 98.032 76.453" clip-path="url(#a)"/>
<path d="m823.08 254.92-107.1 76.854" clip-path="url(#a)"/>
<path d="m823.08 254.92 11.274 153.31" clip-path="url(#a)"/>
<path d="m823.08 254.92 95.83 153.31" clip-path="url(#a)"/>
<path d="m715.98 331.78-38.05 76.453" clip-path="url(#a)"/>
<path d="m715.98 331.78 38.05 76.453" clip-path="url(#a)"/>
<path d="m834.35 408.23v75.404" clip-path="url(#a)"/>
<path d="m677.93 408.23v75.404" clip-path="url(#a)"/>
<path d="m754.03 408.23v75.404" clip-path="url(#a)"/>
<path d="m83.922 408.23-10.569 75.404" clip-path="url(#a)"/>
<path d="m83.922 408.23 10.569 75.404" clip-path="url(#a)"/>
<path d="m204.41 408.23-54.961 75.404" clip-path="url(#a)"/>
<path d="m204.41 408.23-21.139 75.404" clip-path="url(#a)"/>
<path d="m204.41 408.23 16.911 75.404" clip-path="url(#a)"/>
<path d="m204.41 408.23 59.189 75.404" clip-path="url(#a)"/>
<path d="m360.84 408.23v75.404" clip-path="url(#a)"/>
<path d="m474.99 408.23v75.404" clip-path="url(#a)"/>
<path d="m572.23 408.23-33.822 75.404" clip-path="url(#a)"/>
<path d="m572.23 408.23 33.822 75.404" clip-path="url(#a)"/>
<path d="m119.86 408.23v75.404" clip-path="url(#a)"/>
<path d="m310.11 408.23v75.404" clip-path="url(#a)"/>
<path d="m415.8 408.23v75.404" clip-path="url(#a)"/>
<path d="m918.91 408.23v75.404" clip-path="url(#a)"/>
</g>
<path d="m217.27 58.756v6.0162q0 2.4 2.4 2.4h7.7425q2.4 0 2.4-2.4v-6.0162q0-2.4-2.4-2.4h-7.7425q-2.4 0-2.4 2.4z" clip-path="url(#a)" fill="#fff" stroke="#fff"/>
<g clip-path="url(#a)">
<g transform="translate(221.33 58.756) rotate(90) scale(.08 -.08)">
<defs>
<path id="w" d="m9.8125 72.906h9.8594v-29.891h35.844v29.891h9.8594v-72.906h-9.8594v34.719h-35.844v-34.719h-9.8594z"/>
</defs>
<use xlink:href="#w"/>
</g>
</g>
<path d="m137.68 259.89 2.7605-4.7252q1.2107-2.0723-0.86162-3.2829l-6.6852-3.9056q-2.0723-1.2107-3.2829 0.86162l-2.7605 4.7252q-1.2107 2.0723 0.86162 3.2829l6.6852 3.9056q2.0723 1.2107 3.2829-0.86162z" clip-path="url(#a)" fill="#fff" stroke="#fff"/>
<g clip-path="url(#a)">
<g transform="translate(134.18 257.84) rotate(-59.706) scale(.08 -.08)">
<defs>
<path id="z" d="m34.188 63.188-13.391-36.281h26.812zm-5.5781 9.7188h11.188l27.781-72.906h-10.25l-6.6406 18.703h-32.859l-6.6406-18.703h-10.406z"/>
</defs>
<use xlink:href="#z"/>
</g>
</g>
<path d="m144.29 259.59 2.4235-4.4632q1.1453-2.1091-0.96387-3.2544l-6.8041-3.6946q-2.1091-1.1453-3.2544 0.96387l-2.4235 4.4632q-1.1453 2.1091 0.96387 3.2544l6.8041 3.6946q2.1091 1.1453 3.2544-0.96387z" clip-path="url(#a)" fill="#fff" stroke="#fff"/>
<g clip-path="url(#a)">
<g transform="translate(140.72 257.65) rotate(-61.498) scale(.08 -.08)">
<defs>
<path id="ak" d="m53.516 70.516v-9.625q-5.6094 2.6875-10.594 4-4.9844 1.3281-9.625 1.3281-8.0469 0-12.422-3.125t-4.375-8.8906q0-4.8438 2.9062-7.3125 2.9062-2.4531 11.016-3.9688l5.9531-1.2188q11.031-2.1094 16.281-7.4062t5.25-14.172q0-10.609-7.1094-16.078-7.0938-5.4688-20.812-5.4688-5.1719 0-11.016 1.1719-5.8281 1.1719-12.078 3.4688v10.156q6-3.3594 11.766-5.0781 5.7656-1.7031 11.328-1.7031 8.4375 0 13.031 3.3125 4.5938 3.3281 4.5938 9.4844 0 5.3594-3.2969 8.3906t-10.812 4.5469l-6.0156 1.1719q-11.031 2.1875-15.969 6.875-4.9219 4.6875-4.9219 13.047 0 9.6719 6.8125 15.234t18.766 5.5625q5.1406 0 10.453-0.9375 5.3281-0.92188 10.891-2.7656z"/>
</defs>
<use xlink:href="#ak"/>
</g>
</g>
<path d="m392.95 144.68 5.3414 1.1905q2.3425 0.52208 2.8646-1.8204l1.6843-7.5571q0.52208-2.3425-1.8204-2.8646l-5.3414-1.1905q-2.3425-0.52209-2.8646 1.8204l-1.6843 7.5571q-0.52209 2.3425 1.8204 2.8646z" clip-path="url(#a)" fill="#fff" stroke="#fff"/>
<g clip-path="url(#a)">
<g transform="translate(393.83 140.71) rotate(12.564) scale(.08 -.08)">
<use xlink:href="#z"/>
</g>
</g>
<path d="m37.486 429.03v33.808q0 2.4 2.4 2.4h7.7425q2.4 0 2.4-2.4v-33.808q0-2.4-2.4-2.4h-7.7425q-2.4 0-2.4 2.4z" clip-path="url(#a)" fill="#fff" stroke="#fff"/>
<g clip-path="url(#a)">
<g transform="translate(41.55 429.03) rotate(90) scale(.08 -.08)">
<defs>
<path id="l" d="m-0.29688 72.906h61.672v-8.3125h-25.875v-64.594h-9.9062v64.594h-25.891z"/>
<path id="i" d="m56.203 29.594v-4.3906h-41.312q0.59375-9.2812 5.5938-14.141t13.938-4.8594q5.1719 0 10.031 1.2656t9.6562 3.8125v-8.5q-4.8438-2.0469-9.9219-3.125t-10.297-1.0781q-13.094 0-20.734 7.6094-7.6406 7.625-7.6406 20.625 0 13.422 7.25 21.297 7.25 7.8906 19.562 7.8906 11.031 0 17.453-7.1094 6.4219-7.0938 6.4219-19.297zm-8.9844 2.6406q-0.09375 7.3594-4.125 11.75-4.0312 4.4062-10.672 4.4062-7.5156 0-12.031-4.25t-5.2031-11.969z"/>
<path id="e" d="m41.109 46.297q-1.5156 0.875-3.2969 1.2812-1.7812 0.42188-3.9219 0.42188-7.625 0-11.703-4.9531t-4.0781-14.234v-28.812h-9.0312v54.688h9.0312v-8.5q2.8438 4.9844 7.375 7.3906 4.5469 2.4219 11.047 2.4219 0.92188 0 2.0469-0.125 1.125-0.10938 2.4844-0.35938z"/>
<path id="k" d="m52 44.188q3.375 6.0625 8.0625 8.9375t11.031 2.875q8.5469 0 13.188-5.9844 4.6406-5.9688 4.6406-17v-33.016h-9.0312v32.719q0 7.8594-2.7969 11.656-2.7812 3.8125-8.4844 3.8125-6.9844 0-11.047-4.6406-4.0469-4.625-4.0469-12.641v-30.906h-9.0312v32.719q0 7.9062-2.7812 11.688t-8.5938 3.7812q-6.8906 0-10.953-4.6562-4.0469-4.6562-4.0469-12.625v-30.906h-9.0312v54.688h9.0312v-8.5q3.0781 5.0312 7.375 7.4219t10.203 2.3906q5.9688 0 10.141-3.0312 4.1719-3.0156 6.1719-8.7812z"/>
<path id="g" d="m9.4219 54.688h8.9844v-54.688h-8.9844zm0 21.297h8.9844v-11.391h-8.9844z"/>
<path id="f" d="m54.891 33.016v-33.016h-8.9844v32.719q0 7.7656-3.0312 11.609-3.0312 3.8594-9.0781 3.8594-7.2812 0-11.484-4.6406-4.2031-4.625-4.2031-12.641v-30.906h-9.0312v54.688h9.0312v-8.5q3.2344 4.9375 7.5938 7.375 4.375 2.4375 10.094 2.4375 9.4219 0 14.25-5.8281 4.8438-5.8281 4.8438-17.156z"/>
<path id="d" d="m34.281 27.484q-10.891 0-15.094-2.4844t-4.2031-8.5q0-4.7812 3.1562-7.5938 3.1562-2.7969 8.5625-2.7969 7.4844 0 12 5.2969t4.5156 14.078v2zm17.922 3.7188v-31.203h-8.9844v8.2969q-3.0781-4.9688-7.6719-7.3438t-11.234-2.375q-8.3906 0-13.359 4.7188-4.9531 4.7188-4.9531 12.625 0 9.2188 6.1719 13.906 6.1875 4.6875 18.438 4.6875h12.609v0.89062q0 6.2031-4.0781 9.5938t-11.453 3.3906q-4.6875 0-9.1406-1.125-4.4375-1.125-8.5312-3.375v8.3125q4.9219 1.9062 9.5625 2.8438 4.6406 0.95312 9.0312 0.95312 11.875 0 17.734-6.1562 5.8594-6.1406 5.8594-18.641z"/>
<path id="h" d="m9.4219 75.984h8.9844v-75.984h-8.9844z"/>
</defs>
<use xlink:href="#l"/>
<use x="44.083984" xlink:href="#i"/>
<use x="105.607422" xlink:href="#e"/>
<use x="144.970703" xlink:href="#k"/>
<use x="242.382812" xlink:href="#g"/>
<use x="270.166016" xlink:href="#f"/>
<use x="333.544922" xlink:href="#d"/>
<use x="394.824219" xlink:href="#h"/>
</g>
</g>
<path d="m50.17 429.03v33.808q0 2.4 2.4 2.4h7.7425q2.4 0 2.4-2.4v-33.808q0-2.4-2.4-2.4h-7.7425q-2.4 0-2.4 2.4z" clip-path="url(#a)" fill="#fff" stroke="#fff"/>
<g clip-path="url(#a)">
<g transform="translate(54.233 429.03) rotate(90) scale(.08 -.08)">
<use xlink:href="#l"/>
<use x="44.083984" xlink:href="#i"/>
<use x="105.607422" xlink:href="#e"/>
<use x="144.970703" xlink:href="#k"/>
<use x="242.382812" xlink:href="#g"/>
<use x="270.166016" xlink:href="#f"/>
<use x="333.544922" xlink:href="#d"/>
<use x="394.824219" xlink:href="#h"/>
</g>
</g>
<path d="m444.98 261.6 4.7702-2.907q2.0494-1.2489 0.80048-3.2984l-4.0291-6.6115q-1.2489-2.0494-3.2984-0.80048l-4.7702 2.907q-2.0494 1.2489-0.80048 3.2984l4.0291 6.6115q1.2489 2.0494 3.2984 0.80048z" clip-path="url(#a)" fill="#fff" stroke="#fff"/>
<g clip-path="url(#a)">
<g transform="translate(442.86 258.13) rotate(-31.359) scale(.08 -.08)">
<defs>
<path id="m" d="m64.406 67.281v-10.391q-4.9844 4.6406-10.625 6.9219-5.6406 2.2969-11.984 2.2969-12.5 0-19.141-7.6406t-6.6406-22.094q0-14.406 6.6406-22.047t19.141-7.6406q6.3438 0 11.984 2.2969t10.625 6.9375v-10.312q-5.1719-3.5156-10.969-5.2812-5.7812-1.75-12.219-1.75-16.562 0-26.094 10.125-9.5156 10.141-9.5156 27.672 0 17.578 9.5156 27.703 9.5312 10.141 26.094 10.141 6.5312 0 12.312-1.7344 5.7969-1.7344 10.875-5.2031z"/>
</defs>
<use xlink:href="#m"/>
</g>
</g>
<path d="m692.5 221.63 4.8348 1.4757q2.2955 0.70063 2.9961-1.5948l2.2603-7.4052q0.70063-2.2955-1.5948-2.9961l-4.8348-1.4757q-2.2955-0.70063-2.9961 1.5948l-2.2603 7.4052q-0.70063 2.2955 1.5948 2.9961z" clip-path="url(#a)" fill="#fff" stroke="#fff"/>
<g clip-path="url(#a)">
<g transform="translate(693.69 217.74) rotate(16.973) scale(.08 -.08)">
<defs>
<path id="y" d="m9.8125 72.906h46.094v-8.3125h-36.234v-21.578h34.719v-8.2969h-34.719v-26.422h37.109v-8.2969h-46.969z"/>
</defs>
<use xlink:href="#y"/>
</g>
</g>
<path d="m200.14 376.83 5.3097-1.7359q2.2812-0.7458 1.5354-3.027l-2.406-7.3592q-0.7458-2.2812-3.027-1.5354l-5.3097 1.7359q-2.2812 0.7458-1.5354 3.027l2.406 7.3592q0.7458 2.2812 3.027 1.5354z" clip-path="url(#a)" fill="#fff" stroke="#fff"/>
<g clip-path="url(#a)">
<g transform="translate(198.88 372.97) rotate(-18.104) scale(.08 -.08)">
<use xlink:href="#m"/>
</g>
</g>
<path d="m262.28 376.77 4.6313-3.1236q1.9897-1.342 0.64777-3.3317l-4.3293-6.419q-1.342-1.9897-3.3317-0.64777l-4.6313 3.1236q-1.9897 1.342-0.64777 3.3317l4.3293 6.419q1.342 1.9897 3.3317 0.64777z" clip-path="url(#a)" fill="#fff" stroke="#fff"/>
<g clip-path="url(#a)">
<g transform="translate(260.01 373.4) rotate(-33.997) scale(.08 -.08)">
<use xlink:href="#m"/>
</g>
</g>
<path d="m332.47 370.65 2.7419 4.8671q1.178 2.091 3.269 0.91303l6.7457-3.8002q2.091-1.178 0.91303-3.269l-2.7419-4.8671q-1.178-2.091-3.269-0.91303l-6.7457 3.8002q-2.091 1.178-0.91303 3.269z" clip-path="url(#a)" fill="#fff" stroke="#fff"/>
<g clip-path="url(#a)">
<g transform="translate(336.01 368.66) rotate(60.605) scale(.08 -.08)">
<use xlink:href="#m"/>
</g>
</g>
<path d="m390.95 374.34 5.3824 2.6173q2.1583 1.0496 3.2079-1.1088l3.3859-6.9629q1.0496-2.1583-1.1088-3.2079l-5.3824-2.6173q-2.1583-1.0496-3.2079 1.1088l-3.3859 6.9629q-1.0496 2.1583 1.1088 3.2079z" clip-path="url(#a)" fill="#fff" stroke="#fff"/>
<g clip-path="url(#a)">
<g transform="translate(392.72 370.68) rotate(25.933) scale(.08 -.08)">
<defs>
<path id="am" d="m9.8125 72.906h13.281l32.328-60.984v60.984h9.5625v-72.906h-13.281l-32.312 60.984v-60.984h-9.5781z"/>
</defs>
<use xlink:href="#am"/>
</g>
</g>
<path d="m440.52 375.21 5.35 1.6074q2.2985 0.69059 2.9891-1.6079l2.2279-7.415q0.69059-2.2985-1.6079-2.9891l-5.35-1.6074q-2.2985-0.69059-2.9891 1.6079l-2.2279 7.415q-0.69059 2.2985 1.6079 2.9891z" clip-path="url(#a)" fill="#fff" stroke="#fff"/>
<g clip-path="url(#a)">
<g transform="translate(441.69 371.32) rotate(16.723) scale(.08 -.08)">
<use xlink:href="#m"/>
</g>
</g>
<path d="m218.34 376.91 5.4617-2.1098q2.2388-0.86483 1.3739-3.1036l-2.79-7.2223q-0.86483-2.2388-3.1036-1.3739l-5.4617 2.1098q-2.2388 0.86483-1.3739 3.1036l2.79 7.2224q0.86483 2.2388 3.1036 1.3739z" clip-path="url(#a)" fill="#fff" stroke="#fff"/>
<g clip-path="url(#a)">
<g transform="translate(216.88 373.12) rotate(-21.121) scale(.08 -.08)">
<defs>
<path id="o" d="m8.6875 72.906h9.9219v-44.297q0-11.719 4.2344-16.875 4.25-5.1406 13.781-5.1406 9.4688 0 13.719 5.1406 4.25 5.1562 4.25 16.875v44.297h9.9062v-45.516q0-14.25-7.0625-21.531-7.0469-7.2812-20.812-7.2812-13.828 0-20.891 7.2812-7.0469 7.2812-7.0469 21.531z"/>
</defs>
<use xlink:href="#o"/>
</g>
</g>
<path d="m319.89 373.54 0.58392-5.8258q0.23935-2.388-2.1487-2.6274l-7.7039-0.77216q-2.388-0.23935-2.6274 2.1487l-0.58392 5.8258q-0.23935 2.388 2.1487 2.6274l7.7039 0.77216q2.388 0.23935 2.6274-2.1487z" clip-path="url(#a)" fill="#fff" stroke="#fff"/>
<g clip-path="url(#a)">
<g transform="translate(315.84 373.14) rotate(-84.276) scale(.08 -.08)">
<use xlink:href="#o"/>
</g>
</g>
<path d="m360.62 373.15 4.6169 3.6007q1.8925 1.4759 3.3685-0.41657l4.7614-6.1053q1.4759-1.8925-0.41657-3.3685l-4.6169-3.6007q-1.8925-1.4759-3.3685 0.41657l-4.7614 6.1053q-1.4759 1.8925 0.41657 3.3685z" clip-path="url(#a)" fill="#fff" stroke="#fff"/>
<g clip-path="url(#a)">
<g transform="translate(363.12 369.95) rotate(37.95) scale(.08 -.08)">
<use xlink:href="#o"/>
</g>
</g>
<path d="m770.93 300.07 4.5163-3.2408q1.9499-1.3992 0.55072-3.3491l-4.5139-6.2905q-1.3992-1.9499-3.3491-0.55072l-4.5163 3.2408q-1.9499 1.3992-0.55072 3.3491l4.5139 6.2905q1.3992 1.9499 3.3491 0.55072z" clip-path="url(#a)" fill="#fff" stroke="#fff"/>
<g clip-path="url(#a)">
<g transform="translate(768.56 296.77) rotate(-35.662) scale(.08 -.08)">
<defs>
<path id="al" d="m44.391 34.188q3.1719-1.0781 6.1719-4.5938t6.0312-9.6719l10.016-19.922h-10.609l-9.3125 18.703q-3.625 7.3281-7.0156 9.7188t-9.25 2.3906h-10.75v-30.812h-9.8594v72.906h22.266q12.5 0 18.656-5.2344 6.1562-5.2188 6.1562-15.766 0-6.8906-3.2031-11.438-3.2031-4.5312-9.2969-6.2812zm-24.719 30.609v-25.875h12.406q7.125 0 10.766 3.2969t3.6406 9.6875-3.6406 9.6406-10.766 3.25z"/>
</defs>
<use xlink:href="#al"/>
</g>
</g>
<path d="m822.26 329.25 0.4097 5.5712q0.17602 2.3935 2.5696 2.2175l7.7216-0.56784q2.3935-0.17602 2.2175-2.5696l-0.4097-5.5712q-0.17602-2.3935-2.5696-2.2175l-7.7216 0.56784q-2.3935 0.17602-2.2175 2.5696z" clip-path="url(#a)" fill="#fff" stroke="#fff"/>
<g clip-path="url(#a)">
<g transform="translate(826.31 328.95) rotate(85.794) scale(.08 -.08)">
<use xlink:href="#m"/>
</g>
</g>
<path d="m864.12 332.42 3.1034 4.9648q1.2721 2.0351 3.3072 0.763l6.5654-4.1039q2.0351-1.2721 0.763-3.3072l-3.1034-4.9648q-1.2721-2.0351-3.3072-0.763l-6.5654 4.1039q-2.0351 1.2721-0.76301 3.3072z" clip-path="url(#a)" fill="#fff" stroke="#fff"/>
<g clip-path="url(#a)">
<g transform="translate(867.57 330.27) rotate(57.991) scale(.08 -.08)">
<use xlink:href="#o"/>
</g>
</g>
<path d="m701.44 375.06 2.2523-4.5255q1.0693-2.1486-1.0793-3.2179l-6.9315-3.4497q-2.1486-1.0693-3.2179 1.0793l-2.2523 4.5255q-1.0693 2.1486 1.0793 3.2179l6.9315 3.4497q2.1486 1.0693 3.2179-1.0793z" clip-path="url(#a)" fill="#fff" stroke="#fff"/>
<g clip-path="url(#a)">
<g transform="translate(697.8 373.25) rotate(-63.541) scale(.08 -.08)">
<use xlink:href="#y"/>
</g>
</g>
<path d="m728.14 370.3 2.489 5.0011q1.0693 2.1486 3.2179 1.0793l6.9315-3.4497q2.1486-1.0693 1.0793-3.2179l-2.489-5.0011q-1.0693-2.1486-3.2179-1.0793l-6.9315 3.4497q-2.1486 1.0693-1.0793 3.2179z" clip-path="url(#a)" fill="#fff" stroke="#fff"/>
<g clip-path="url(#a)">
<g transform="translate(731.78 368.49) rotate(63.541) scale(.08 -.08)">
<use xlink:href="#m"/>
</g>
</g>
<path d="m828.08 429.03v33.808q0 2.4 2.4 2.4h7.7425q2.4 0 2.4-2.4v-33.808q0-2.4-2.4-2.4h-7.7425q-2.4 0-2.4 2.4z" clip-path="url(#a)" fill="#fff" stroke="#fff"/>
<g clip-path="url(#a)">
<g transform="translate(832.15 429.03) rotate(90) scale(.08 -.08)">
<use xlink:href="#l"/>
<use x="44.083984" xlink:href="#i"/>
<use x="105.607422" xlink:href="#e"/>
<use x="144.970703" xlink:href="#k"/>
<use x="242.382812" xlink:href="#g"/>
<use x="270.166016" xlink:href="#f"/>
<use x="333.544922" xlink:href="#d"/>
<use x="394.824219" xlink:href="#h"/>
</g>
</g>
<path d="m671.65 429.03v33.808q0 2.4 2.4 2.4h7.7425q2.4 0 2.4-2.4v-33.808q0-2.4-2.4-2.4h-7.7425q-2.4 0-2.4 2.4z" clip-path="url(#a)" fill="#fff" stroke="#fff"/>
<g clip-path="url(#a)">
<g transform="translate(675.72 429.03) rotate(90) scale(.08 -.08)">
<use xlink:href="#l"/>
<use x="44.083984" xlink:href="#i"/>
<use x="105.607422" xlink:href="#e"/>
<use x="144.970703" xlink:href="#k"/>
<use x="242.382812" xlink:href="#g"/>
<use x="270.166016" xlink:href="#f"/>
<use x="333.544922" xlink:href="#d"/>
<use x="394.824219" xlink:href="#h"/>
</g>
</g>
<path d="m747.75 429.03v33.808q0 2.4 2.4 2.4h7.7425q2.4 0 2.4-2.4v-33.808q0-2.4-2.4-2.4h-7.7425q-2.4 0-2.4 2.4z" clip-path="url(#a)" fill="#fff" stroke="#fff"/>
<g clip-path="url(#a)">
<g transform="translate(751.82 429.03) rotate(90) scale(.08 -.08)">
<use xlink:href="#l"/>
<use x="44.083984" xlink:href="#i"/>
<use x="105.607422" xlink:href="#e"/>
<use x="144.970703" xlink:href="#k"/>
<use x="242.382812" xlink:href="#g"/>
<use x="270.166016" xlink:href="#f"/>
<use x="333.544922" xlink:href="#d"/>
<use x="394.824219" xlink:href="#h"/>
</g>
</g>
<path d="m82.501 463.54 4.6929-33.48q0.33315-2.3768-2.0436-2.7099l-7.6675-1.0748q-2.3768-0.33315-2.7099 2.0436l-4.6929 33.48q-0.33315 2.3768 2.0436 2.7099l7.6675 1.0748q2.3768 0.33315 2.7099-2.0436z" clip-path="url(#a)" fill="#fff" stroke="#fff"/>
<g clip-path="url(#a)">
<g transform="translate(78.476 462.98) rotate(-82.021) scale(.08 -.08)">
<use xlink:href="#l"/>
<use x="44.083984" xlink:href="#i"/>
<use x="105.607422" xlink:href="#e"/>
<use x="144.970703" xlink:href="#k"/>
<use x="242.382812" xlink:href="#g"/>
<use x="270.166016" xlink:href="#f"/>
<use x="333.544922" xlink:href="#d"/>
<use x="394.824219" xlink:href="#h"/>
</g>
</g>
<path d="m80.649 430.06 4.6929 33.48q0.33315 2.3768 2.7099 2.0436l7.6675-1.0748q2.3768-0.33315 2.0436-2.7099l-4.6929-33.48q-0.33315-2.3768-2.7099-2.0436l-7.6675 1.0748q-2.3768 0.33315-2.0436 2.7099z" clip-path="url(#a)" fill="#fff" stroke="#fff"/>
<g clip-path="url(#a)">
<g transform="translate(84.674 429.5) rotate(82.021) scale(.08 -.08)">
<use xlink:href="#l"/>
<use x="44.083984" xlink:href="#i"/>
<use x="105.607422" xlink:href="#e"/>
<use x="144.970703" xlink:href="#k"/>
<use x="242.382812" xlink:href="#g"/>
<use x="270.166016" xlink:href="#f"/>
<use x="333.544922" xlink:href="#d"/>
<use x="394.824219" xlink:href="#h"/>
</g>
</g>
<path d="m172.04 463.29 19.913-27.32q1.4137-1.9395-0.52582-3.3531l-6.2568-4.5605q-1.9395-1.4137-3.3531 0.52582l-19.913 27.32q-1.4137 1.9395 0.52582 3.3531l6.2568 4.5605q1.9395 1.4137 3.3531-0.52582z" clip-path="url(#a)" fill="#fff" stroke="#fff"/>
<g clip-path="url(#a)">
<g transform="translate(168.76 460.89) rotate(-53.912) scale(.08 -.08)">
<use xlink:href="#l"/>
<use x="44.083984" xlink:href="#i"/>
<use x="105.607422" xlink:href="#e"/>
<use x="144.970703" xlink:href="#k"/>
<use x="242.382812" xlink:href="#g"/>
<use x="270.166016" xlink:href="#f"/>
<use x="333.544922" xlink:href="#d"/>
<use x="394.824219" xlink:href="#h"/>
</g>
</g>
<path d="m195.32 463.9 9.1258-32.553q0.64784-2.3109-1.6631-2.9588l-7.4551-2.09q-2.3109-0.64784-2.9588 1.6631l-9.1258 32.553q-0.64784 2.3109 1.6631 2.9588l7.4551 2.09q2.3109 0.64784 2.9588-1.6631z" clip-path="url(#a)" fill="#fff" stroke="#fff"/>
<g clip-path="url(#a)">
<g transform="translate(191.41 462.81) rotate(-74.34) scale(.08 -.08)">
<use xlink:href="#l"/>
<use x="44.083984" xlink:href="#i"/>
<use x="105.607422" xlink:href="#e"/>
<use x="144.970703" xlink:href="#k"/>
<use x="242.382812" xlink:href="#g"/>
<use x="270.166016" xlink:href="#f"/>
<use x="333.544922" xlink:href="#d"/>
<use x="394.824219" xlink:href="#h"/>
</g>
</g>
<path d="m203.05 430.81 7.3983 32.988q0.52521 2.3418 2.867 1.8166l7.5548-1.6943q2.3418-0.52521 1.8166-2.867l-7.3983-32.988q-0.52521-2.3418-2.867-1.8166l-7.5548 1.6943q-2.3418 0.52521-1.8166 2.867z" clip-path="url(#a)" fill="#fff" stroke="#fff"/>
<g clip-path="url(#a)">
<g transform="translate(207.02 429.92) rotate(77.359) scale(.08 -.08)">
<use xlink:href="#l"/>
<use x="44.083984" xlink:href="#i"/>
<use x="105.607422" xlink:href="#e"/>
<use x="144.970703" xlink:href="#k"/>
<use x="242.382812" xlink:href="#g"/>
<use x="270.166016" xlink:href="#f"/>
<use x="333.544922" xlink:href="#d"/>
<use x="394.824219" xlink:href="#h"/>
</g>
</g>
<path d="m218.64 436.51 20.874 26.593q1.4819 1.8879 3.3697 0.40598l6.0903-4.7806q1.8879-1.4819 0.40598-3.3697l-20.874-26.593q-1.4819-1.8879-3.3697-0.40598l-6.0903 4.7806q-1.8879 1.4819-0.40598 3.3697z" clip-path="url(#a)" fill="#fff" stroke="#fff"/>
<g clip-path="url(#a)">
<g transform="translate(221.83 434) rotate(51.87) scale(.08 -.08)">
<use xlink:href="#l"/>
<use x="44.083984" xlink:href="#i"/>
<use x="105.607422" xlink:href="#e"/>
<use x="144.970703" xlink:href="#k"/>
<use x="242.382812" xlink:href="#g"/>
<use x="270.166016" xlink:href="#f"/>
<use x="333.544922" xlink:href="#d"/>
<use x="394.824219" xlink:href="#h"/>
</g>
</g>
<path d="m354.57 429.03v33.808q0 2.4 2.4 2.4h7.7425q2.4 0 2.4-2.4v-33.808q0-2.4-2.4-2.4h-7.7425q-2.4 0-2.4 2.4z" clip-path="url(#a)" fill="#fff" stroke="#fff"/>
<g clip-path="url(#a)">
<g transform="translate(358.63 429.03) rotate(90) scale(.08 -.08)">
<use xlink:href="#l"/>
<use x="44.083984" xlink:href="#i"/>
<use x="105.607422" xlink:href="#e"/>
<use x="144.970703" xlink:href="#k"/>
<use x="242.382812" xlink:href="#g"/>
<use x="270.166016" xlink:href="#f"/>
<use x="333.544922" xlink:href="#d"/>
<use x="394.824219" xlink:href="#h"/>
</g>
</g>
<path d="m468.72 429.03v33.808q0 2.4 2.4 2.4h7.7425q2.4 0 2.4-2.4v-33.808q0-2.4-2.4-2.4h-7.7425q-2.4 0-2.4 2.4z" clip-path="url(#a)" fill="#fff" stroke="#fff"/>
<g clip-path="url(#a)">
<g transform="translate(472.78 429.03) rotate(90) scale(.08 -.08)">
<use xlink:href="#l"/>
<use x="44.083984" xlink:href="#i"/>
<use x="105.607422" xlink:href="#e"/>
<use x="144.970703" xlink:href="#k"/>
<use x="242.382812" xlink:href="#g"/>
<use x="270.166016" xlink:href="#f"/>
<use x="333.544922" xlink:href="#d"/>
<use x="394.824219" xlink:href="#h"/>
</g>
</g>
<path d="m554.12 463.92 13.836-30.847q0.98222-2.1898-1.2076-3.172l-7.0644-3.1687q-2.1898-0.98222-3.172 1.2076l-13.836 30.847q-0.98222 2.1898 1.2076 3.172l7.0644 3.1687q2.1898 0.98222 3.172-1.2076z" clip-path="url(#a)" fill="#fff" stroke="#fff"/>
<g clip-path="url(#a)">
<g transform="translate(550.42 462.26) rotate(-65.842) scale(.08 -.08)">
<use xlink:href="#l"/>
<use x="44.083984" xlink:href="#i"/>
<use x="105.607422" xlink:href="#e"/>
<use x="144.970703" xlink:href="#k"/>
<use x="242.382812" xlink:href="#g"/>
<use x="270.166016" xlink:href="#f"/>
<use x="333.544922" xlink:href="#d"/>
<use x="394.824219" xlink:href="#h"/>
</g>
</g>
<path d="m576.5 433.08 13.836 30.847q0.98222 2.1898 3.172 1.2076l7.0644-3.1687q2.1898-0.98222 1.2076-3.172l-13.836-30.847q-0.98222-2.1898-3.172-1.2076l-7.0644 3.1687q-2.1898 0.98222-1.2076 3.172z" clip-path="url(#a)" fill="#fff" stroke="#fff"/>
<g clip-path="url(#a)">
<g transform="translate(580.21 431.41) rotate(65.842) scale(.08 -.08)">
<use xlink:href="#l"/>
<use x="44.083984" xlink:href="#i"/>
<use x="105.607422" xlink:href="#e"/>
<use x="144.970703" xlink:href="#k"/>
<use x="242.382812" xlink:href="#g"/>
<use x="270.166016" xlink:href="#f"/>
<use x="333.544922" xlink:href="#d"/>
<use x="394.824219" xlink:href="#h"/>
</g>
</g>
<path d="m113.59 429.03v33.808q0 2.4 2.4 2.4h7.7425q2.4 0 2.4-2.4v-33.808q0-2.4-2.4-2.4h-7.7425q-2.4 0-2.4 2.4z" clip-path="url(#a)" fill="#fff" stroke="#fff"/>
<g clip-path="url(#a)">
<g transform="translate(117.65 429.03) rotate(90) scale(.08 -.08)">
<use xlink:href="#l"/>
<use x="44.083984" xlink:href="#i"/>
<use x="105.607422" xlink:href="#e"/>
<use x="144.970703" xlink:href="#k"/>
<use x="242.382812" xlink:href="#g"/>
<use x="270.166016" xlink:href="#f"/>
<use x="333.544922" xlink:href="#d"/>
<use x="394.824219" xlink:href="#h"/>
</g>
</g>
<path d="m303.84 429.03v33.808q0 2.4 2.4 2.4h7.7425q2.4 0 2.4-2.4v-33.808q0-2.4-2.4-2.4h-7.7425q-2.4 0-2.4 2.4z" clip-path="url(#a)" fill="#fff" stroke="#fff"/>
<g clip-path="url(#a)">
<g transform="translate(307.9 429.03) rotate(90) scale(.08 -.08)">
<use xlink:href="#l"/>
<use x="44.083984" xlink:href="#i"/>
<use x="105.607422" xlink:href="#e"/>
<use x="144.970703" xlink:href="#k"/>
<use x="242.382812" xlink:href="#g"/>
<use x="270.166016" xlink:href="#f"/>
<use x="333.544922" xlink:href="#d"/>
<use x="394.824219" xlink:href="#h"/>
</g>
</g>
<path d="m409.53 429.03v33.808q0 2.4 2.4 2.4h7.7425q2.4 0 2.4-2.4v-33.808q0-2.4-2.4-2.4h-7.7425q-2.4 0-2.4 2.4z" clip-path="url(#a)" fill="#fff" stroke="#fff"/>
<g clip-path="url(#a)">
<g transform="translate(413.6 429.03) rotate(90) scale(.08 -.08)">
<use xlink:href="#l"/>
<use x="44.083984" xlink:href="#i"/>
<use x="105.607422" xlink:href="#e"/>
<use x="144.970703" xlink:href="#k"/>
<use x="242.382812" xlink:href="#g"/>
<use x="270.166016" xlink:href="#f"/>
<use x="333.544922" xlink:href="#d"/>
<use x="394.824219" xlink:href="#h"/>
</g>
</g>
<path d="m912.64 429.03v33.808q0 2.4 2.4 2.4h7.7425q2.4 0 2.4-2.4v-33.808q0-2.4-2.4-2.4h-7.7425q-2.4 0-2.4 2.4z" clip-path="url(#a)" fill="#fff" stroke="#fff"/>
<g clip-path="url(#a)">
<g transform="translate(916.7 429.03) rotate(90) scale(.08 -.08)">
<use xlink:href="#l"/>
<use x="44.083984" xlink:href="#i"/>
<use x="105.607422" xlink:href="#e"/>
<use x="144.970703" xlink:href="#k"/>
<use x="242.382812" xlink:href="#g"/>
<use x="270.166016" xlink:href="#f"/>
<use x="333.544922" xlink:href="#d"/>
<use x="394.824219" xlink:href="#h"/>
</g>
</g>
<defs>
<path id="b" d="m0 8.6603c2.2967 0 4.4997-0.9125 6.1237-2.5365 1.624-1.624 2.5365-3.827 2.5365-6.1237s-0.9125-4.4997-2.5365-6.1237c-1.624-1.624-3.827-2.5365-6.1237-2.5365s-4.4997 0.9125-6.1237 2.5365c-1.624 1.624-2.5365 3.827-2.5365 6.1237s0.9125 4.4997 2.5365 6.1237c1.624 1.624 3.827 2.5365 6.1237 2.5365z"/>
</defs>
<g clip-path="url(#a)" fill="#ffffff" stroke="#ffffff">
<use x="43.757576" y="483.636364" xlink:href="#b"/>
<use x="56.440931" y="483.636364" xlink:href="#b"/>
<use x="73.352071" y="483.636364" xlink:href="#b"/>
<use x="94.490997" y="483.636364" xlink:href="#b"/>
<use x="119.857708" y="483.636364" xlink:href="#b"/>
<use x="149.452203" y="483.636364" xlink:href="#b"/>
<use x="183.274484" y="483.636364" xlink:href="#b"/>
<use x="221.32455" y="483.636364" xlink:href="#b"/>
<use x="263.602401" y="483.636364" xlink:href="#b"/>
<use x="310.108037" y="483.636364" xlink:href="#b"/>
<use x="360.841458" y="483.636364" xlink:href="#b"/>
<use x="415.802664" y="483.636364" xlink:href="#b"/>
<use x="474.991656" y="483.636364" xlink:href="#b"/>
<use x="538.408432" y="483.636364" xlink:href="#b"/>
<use x="606.052994" y="483.636364" xlink:href="#b"/>
<use x="677.92534" y="483.636364" xlink:href="#b"/>
<use x="754.025472" y="483.636364" xlink:href="#b"/>
<use x="834.353389" y="483.636364" xlink:href="#b"/>
<use x="918.909091" y="483.636364" xlink:href="#b"/>
<use x="223.541201" y="23.030303" xlink:href="#b"/>
<use x="223.541201" y="100.497162" xlink:href="#b"/>
<use x="43.757576" y="408.23193" xlink:href="#b"/>
<use x="56.440931" y="408.23193" xlink:href="#b"/>
<use x="570.425096" y="177.8082" xlink:href="#b"/>
<use x="317.770897" y="331.778537" xlink:href="#b"/>
<use x="823.079295" y="254.924153" xlink:href="#b"/>
<use x="715.975406" y="331.778537" xlink:href="#b"/>
<use x="834.353389" y="408.23193" xlink:href="#b"/>
<use x="677.92534" y="408.23193" xlink:href="#b"/>
<use x="754.025472" y="408.23193" xlink:href="#b"/>
<use x="83.921534" y="408.23193" xlink:href="#b"/>
<use x="204.413409" y="408.23193" xlink:href="#b"/>
<use x="360.841458" y="408.23193" xlink:href="#b"/>
<use x="474.991656" y="408.23193" xlink:href="#b"/>
<use x="572.230713" y="408.23193" xlink:href="#b"/>
<use x="119.857708" y="408.23193" xlink:href="#b"/>
<use x="310.108037" y="408.23193" xlink:href="#b"/>
<use x="415.802664" y="408.23193" xlink:href="#b"/>
<use x="918.909091" y="408.23193" xlink:href="#b"/>
</g>
<g clip-path="url(#a)">
<g transform="translate(36.031 486.4) scale(.1 -.1)">
<defs>
<path id="v" d="m3.3281 72.906h9.9531l15.328-61.625 15.281 61.625h11.094l15.328-61.625 15.281 61.625h10.016l-18.312-72.906h-12.406l-15.375 63.281-15.531-63.281h-12.406z"/>
</defs>
<use xlink:href="#v"/>
<use x="93.001953" xlink:href="#i"/>
</g>
</g>
<g clip-path="url(#a)">
<g transform="translate(44.172 486.4) scale(.1 -.1)">
<defs>
<path id="av" d="m54.891 33.016v-33.016h-8.9844v32.719q0 7.7656-3.0312 11.609-3.0312 3.8594-9.0781 3.8594-7.2812 0-11.484-4.6406-4.2031-4.625-4.2031-12.641v-30.906h-9.0312v75.984h9.0312v-29.797q3.2344 4.9375 7.5938 7.375 4.375 2.4375 10.094 2.4375 9.4219 0 14.25-5.8281 4.8438-5.8281 4.8438-17.156z"/>
<path id="at" d="m2.9844 54.688h9.5156l17.094-45.891 17.094 45.891h9.5156l-20.516-54.688h-12.203z"/>
</defs>
<use xlink:href="#av"/>
<use x="63.378906" xlink:href="#d"/>
<use x="124.658203" xlink:href="#at"/>
<use x="183.837891" xlink:href="#i"/>
</g>
</g>
<g clip-path="url(#a)">
<g transform="translate(57.225 486.4) scale(.1 -.1)">
<defs>
<path id="s" d="m30.609 48.391q-7.2188 0-11.422-5.6406t-4.2031-15.453 4.1719-15.453q4.1875-5.6406 11.453-5.6406 7.1875 0 11.375 5.6562 4.2031 5.6719 4.2031 15.438 0 9.7188-4.2031 15.406-4.1875 5.6875-11.375 5.6875zm0 7.6094q11.719 0 18.406-7.625 6.7031-7.6094 6.7031-21.078 0-13.422-6.7031-21.078-6.6875-7.6406-18.406-7.6406-11.766 0-18.438 7.6406-6.6562 7.6562-6.6562 21.078 0 13.469 6.6562 21.078 6.6719 7.625 18.438 7.625z"/>
<path id="n" d="m48.688 27.297q0 9.9062-4.0781 15.547t-11.203 5.6406q-7.1406 0-11.219-5.6406t-4.0781-15.547 4.0781-15.547 11.219-5.6406q7.125 0 11.203 5.6406t4.0781 15.547zm-30.578 19.094q2.8438 4.875 7.1562 7.2344 4.3281 2.375 10.328 2.375 9.9688 0 16.188-7.9062 6.2344-7.9062 6.2344-20.797t-6.2344-20.812q-6.2188-7.9062-16.188-7.9062-6 0-10.328 2.375-4.3125 2.375-7.1562 7.25v-8.2031h-9.0312v75.984h9.0312z"/>
<path id="ah" d="m32.172-5.0781q-3.7969-9.7656-7.4219-12.734-3.6094-2.9844-9.6562-2.9844h-7.1875v7.5156h5.2812q3.7031 0 5.75 1.7656 2.0625 1.75 4.5469 8.2969l1.6094 4.0938-22.109 53.812h9.5156l17.094-42.766 17.094 42.766h9.5156z"/>
</defs>
<use xlink:href="#w"/>
<use x="75.195312" xlink:href="#s"/>
<use x="136.376953" xlink:href="#n"/>
<use x="199.853516" xlink:href="#n"/>
<use x="263.330078" xlink:href="#ah"/>
</g>
</g>
<g clip-path="url(#a)">
<g transform="translate(79.425 486.4) scale(.1 -.1)">
<defs>
<path id="ao" d="m9.8125 72.906h9.8594v-64.609h35.5v-8.2969h-45.359z"/>
</defs>
<use xlink:href="#ao"/>
<use x="53.962891" xlink:href="#s"/>
<use x="115.144531" xlink:href="#n"/>
<use x="178.621094" xlink:href="#n"/>
<use x="242.097656" xlink:href="#ah"/>
</g>
</g>
<g clip-path="url(#a)">
<g transform="translate(118.27 486.4) scale(.1 -.1)">
<defs>
<path id="t" d="m11.719 12.406h10.297v-8.4062l-8-15.625h-6.2969l4 15.625z"/>
</defs>
<use xlink:href="#t"/>
</g>
</g>
<g clip-path="url(#a)">
<g transform="translate(140.24 486.4) scale(.1 -.1)">
<defs>
<path id="ap" d="m9.8125 72.906h9.8594v-67.828q0-13.188-5-19.141t-16.094-5.9531h-3.75v8.2969h3.0781q6.5312 0 9.2188 3.6719 2.6875 3.6562 2.6875 13.125z"/>
<path id="u" d="m8.5 21.578v33.109h8.9844v-32.766q0-7.7656 3.0156-11.656 3.0312-3.875 9.0938-3.875 7.2656 0 11.484 4.6406 4.2344 4.6406 4.2344 12.656v31h8.9844v-54.688h-8.9844v8.4062q-3.2656-4.9844-7.5938-7.4062-4.3125-2.4219-10.031-2.4219-9.4219 0-14.312 5.8594-4.875 5.8594-4.875 17.141z"/>
<path id="r" d="m44.281 53.078v-8.5q-3.7969 1.9531-7.9062 2.9219-4.0938 0.98438-8.5 0.98438-6.6875 0-10.031-2.0469t-3.3438-6.1562q0-3.125 2.3906-4.9062t9.625-3.3906l3.0781-0.6875q9.5625-2.0469 13.594-5.7812t4.0312-10.422q0-7.625-6.0312-12.078-6.0312-4.4375-16.578-4.4375-4.3906 0-9.1562 0.85938t-10.031 2.5625v9.2812q4.9844-2.5938 9.8125-3.8906 4.8281-1.2812 9.5781-1.2812 6.3438 0 9.75 2.1719 3.4219 2.1719 3.4219 6.125 0 3.6562-2.4688 5.6094-2.4531 1.9531-10.812 3.7656l-3.125 0.73438q-8.3438 1.75-12.062 5.3906-3.7031 3.6406-3.7031 9.9844 0 7.7188 5.4688 11.906 5.4688 4.2031 15.531 4.2031 4.9688 0 9.3594-0.73438 4.4062-0.71875 8.1094-2.1875z"/>
<path id="q" d="m18.312 70.219v-15.531h18.5v-6.9844h-18.5v-29.688q0-6.6875 1.8281-8.5938t7.4531-1.9062h9.2188v-7.5156h-9.2188q-10.406 0-14.359 3.875-3.9531 3.8906-3.9531 14.141v29.688h-6.5938v6.9844h6.5938v15.531z"/>
</defs>
<use xlink:href="#ap"/>
<use x="29.492188" xlink:href="#u"/>
<use x="92.871094" xlink:href="#r"/>
<use x="144.970703" xlink:href="#q"/>
</g>
</g>
<g clip-path="url(#a)">
<g transform="translate(176.4 486.4) scale(.1 -.1)">
<defs>
<path id="ax" d="m37.109 75.984v-7.4844h-8.5938q-4.8281 0-6.7188-1.9531-1.875-1.9531-1.875-7.0312v-4.8281h14.797v-6.9844h-14.797v-47.703h-9.0312v47.703h-8.5938v6.9844h8.5938v3.8125q0 9.125 4.25 13.297 4.25 4.1875 13.469 4.1875z"/>
</defs>
<use xlink:href="#ax"/>
<use x="35.205078" xlink:href="#s"/>
<use x="96.386719" xlink:href="#e"/>
</g>
</g>
<g clip-path="url(#a)">
<g transform="translate(212.39 486.4) scale(.1 -.1)">
<defs>
<path id="x" d="m9.8125 72.906h41.891v-8.3125h-32.031v-21.484h28.906v-8.2969h-28.906v-34.812h-9.8594z"/>
</defs>
<use xlink:href="#x"/>
<use x="52.019531" xlink:href="#u"/>
<use x="115.398438" xlink:href="#f"/>
</g>
</g>
<g clip-path="url(#a)">
<g transform="translate(246.15 486.4) scale(.1 -.1)">
<defs>
<path id="aj" d="m48.781 52.594v-8.4062q-3.8125 2.1094-7.6406 3.1562t-7.7344 1.0469q-8.75 0-13.594-5.5469-4.8281-5.5312-4.8281-15.547t4.8281-15.562q4.8438-5.5312 13.594-5.5312 3.9062 0 7.7344 1.0469t7.6406 3.1562v-8.3125q-3.7656-1.75-7.7969-2.625-4.0156-0.89062-8.5625-0.89062-12.359 0-19.641 7.7656-7.2656 7.7656-7.2656 20.953 0 13.375 7.3438 21.031 7.3594 7.6719 20.156 7.6719 4.1406 0 8.0938-0.85938 3.9531-0.84375 7.6719-2.5469z"/>
</defs>
<use xlink:href="#x"/>
<use x="48.394531" xlink:href="#d"/>
<use x="109.673828" xlink:href="#n"/>
<use x="173.150391" xlink:href="#e"/>
<use x="214.263672" xlink:href="#g"/>
<use x="242.046875" xlink:href="#aj"/>
<use x="297.027344" xlink:href="#r"/>
</g>
</g>
<g clip-path="url(#a)">
<g transform="translate(308.52 486.4) scale(.1 -.1)">
<use xlink:href="#t"/>
</g>
</g>
<g clip-path="url(#a)">
<g transform="translate(339.81 486.4) scale(.1 -.1)">
<use xlink:href="#v"/>
<use x="92.501953" xlink:href="#d"/>
<use x="153.78125" xlink:href="#h"/>
<use x="181.564453" xlink:href="#k"/>
<use x="278.976562" xlink:href="#d"/>
<use x="340.255859" xlink:href="#e"/>
<use x="381.369141" xlink:href="#q"/>
</g>
</g>
<g clip-path="url(#a)">
<g transform="translate(414.21 486.4) scale(.1 -.1)">
<use xlink:href="#t"/>
</g>
</g>
<g clip-path="url(#a)">
<g transform="translate(465.58 486.4) scale(.1 -.1)">
<defs>
<path id="ai" d="m45.406 46.391v29.594h8.9844v-75.984h-8.9844v8.2031q-2.8281-4.875-7.1562-7.25-4.3125-2.375-10.375-2.375-9.9062 0-16.141 7.9062-6.2188 7.9219-6.2188 20.812t6.2188 20.797q6.2344 7.9062 16.141 7.9062 6.0625 0 10.375-2.375 4.3281-2.3594 7.1562-7.2344zm-30.609-19.094q0-9.9062 4.0781-15.547t11.203-5.6406 11.219 5.6406q4.1094 5.6406 4.1094 15.547t-4.1094 15.547q-4.0938 5.6406-11.219 5.6406t-11.203-5.6406-4.0781-15.547z"/>
</defs>
<use xlink:href="#d"/>
<use x="61.279297" xlink:href="#f"/>
<use x="124.658203" xlink:href="#ai"/>
</g>
</g>
<g clip-path="url(#a)">
<g transform="translate(520.17 486.4) scale(.1 -.1)">
<defs>
<path id="aq" d="m9.8125 72.906h9.8594v-72.906h-9.8594z"/>
</defs>
<use xlink:href="#aq"/>
<use x="29.492188" xlink:href="#f"/>
<use x="92.871094" xlink:href="#q"/>
<use x="132.080078" xlink:href="#i"/>
<use x="193.603516" xlink:href="#e"/>
<use x="234.716797" xlink:href="#g"/>
<use x="262.5" xlink:href="#s"/>
<use x="323.681641" xlink:href="#e"/>
</g>
</g>
<g clip-path="url(#a)">
<g transform="translate(595.9 486.4) scale(.1 -.1)">
<defs>
<path id="an" d="m9.8125 72.906h14.703l18.594-49.609 18.703 49.609h14.703v-72.906h-9.625v64.016l-18.797-50h-9.9062l-18.797 50v-64.016h-9.5781z"/>
</defs>
<use xlink:href="#an"/>
<use x="86.279297" xlink:href="#d"/>
<use x="147.558594" xlink:href="#h"/>
<use x="175.341797" xlink:href="#h"/>
</g>
</g>
<g clip-path="url(#a)">
<g transform="translate(668.8 486.4) scale(.1 -.1)">
<defs>
<path id="au" d="m9.4219 54.688h8.9844v-55.672q0-10.438-3.9844-15.125-3.9688-4.6875-12.812-4.6875h-3.4219v7.6094h2.4062q5.125 0 6.9688 2.375 1.8594 2.3594 1.8594 9.8281zm0 21.297h8.9844v-11.391h-8.9844z"/>
</defs>
<use xlink:href="#au"/>
<use x="27.783203" xlink:href="#u"/>
<use x="91.162109" xlink:href="#r"/>
<use x="143.261719" xlink:href="#q"/>
</g>
</g>
<g clip-path="url(#a)">
<g transform="translate(739.22 486.4) scale(.1 -.1)">
<use xlink:href="#g"/>
<use x="27.783203" xlink:href="#f"/>
<use x="91.162109" xlink:href="#r"/>
<use x="143.261719" xlink:href="#g"/>
<use x="171.044922" xlink:href="#ai"/>
<use x="234.521484" xlink:href="#i"/>
</g>
</g>
<g clip-path="url(#a)">
<g transform="translate(816.68 486.4) scale(.1 -.1)">
<defs>
<path id="ar" d="m19.672 34.812v-26.703h15.828q7.9531 0 11.781 3.2969 3.8438 3.2969 3.8438 10.078 0 6.8438-3.8438 10.078-3.8281 3.25-11.781 3.25zm0 29.984v-21.969h14.609q7.2188 0 10.75 2.7031 3.5469 2.7188 3.5469 8.2812 0 5.5156-3.5469 8.25-3.5312 2.7344-10.75 2.7344zm-9.8594 8.1094h25.203q11.281 0 17.375-4.6875 6.1094-4.6875 6.1094-13.328 0-6.7031-3.125-10.656t-9.1875-4.9219q7.2812-1.5625 11.312-6.5312 4.0312-4.9531 4.0312-12.375 0-9.7656-6.6406-15.094-6.6406-5.3125-18.906-5.3125h-26.172z"/>
<path id="aw" d="m45.406 27.984q0 9.7656-4.0312 15.125-4.0156 5.375-11.297 5.375-7.2188 0-11.25-5.375-4.0312-5.3594-4.0312-15.125 0-9.7188 4.0312-15.094t11.25-5.375q7.2812 0 11.297 5.375 4.0312 5.375 4.0312 15.094zm8.9844-21.203q0-13.953-6.2031-20.766-6.1875-6.8125-18.984-6.8125-4.7344 0-8.9375 0.70312t-8.1562 2.1719v8.7344q3.9531-2.1406 7.8125-3.1562 3.8594-1.0312 7.8594-1.0312 8.8438 0 13.234 4.6094t4.3906 13.938v4.4531q-2.7812-4.8438-7.125-7.2344t-10.406-2.3906q-10.047 0-16.203 7.6562-6.1562 7.6719-6.1562 20.328 0 12.688 6.1562 20.344 6.1562 7.6719 16.203 7.6719 6.0625 0 10.406-2.3906t7.125-7.2188v8.2969h8.9844z"/>
</defs>
<use xlink:href="#ar"/>
<use x="68.603516" xlink:href="#d"/>
<use x="129.882812" xlink:href="#e"/>
<use x="170.996094" xlink:href="#h"/>
<use x="198.779297" xlink:href="#g"/>
<use x="226.5625" xlink:href="#f"/>
<use x="289.941406" xlink:href="#aw"/>
</g>
</g>
<g clip-path="url(#a)">
<g transform="translate(917.32 486.4) scale(.1 -.1)">
<defs>
<path id="j" d="m10.688 12.406h10.312v-12.406h-10.312z"/>
</defs>
<use xlink:href="#j"/>
</g>
</g>
<g clip-path="url(#a)">
<g transform="translate(215.59 25.79) scale(.1 -.1)">
<defs>
<path id="c" d="m12.406 8.2969h16.109v55.625l-17.531-3.5156v8.9844l17.438 3.5156h9.8594v-64.609h16.109v-8.2969h-41.984z"/>
</defs>
<use xlink:href="#c"/>
<use x="63.623047" xlink:href="#j"/>
<use x="95.410156" xlink:href="#c"/>
</g>
</g>
<g clip-path="url(#a)">
<g transform="translate(215.59 103.26) scale(.1 -.1)">
<defs>
<path id="p" d="m19.188 8.2969h34.422v-8.2969h-46.281v8.2969q5.6094 5.8125 15.297 15.594 9.7031 9.7969 12.188 12.641 4.7344 5.3125 6.6094 9 1.8906 3.6875 1.8906 7.25 0 5.8125-4.0781 9.4688-4.0781 3.6719-10.625 3.6719-4.6406 0-9.7969-1.6094-5.1406-1.6094-11-4.8906v9.9688q5.9531 2.3906 11.125 3.6094 5.1875 1.2188 9.4844 1.2188 11.328 0 18.062-5.6719 6.7344-5.6562 6.7344-15.125 0-4.5-1.6875-8.5312-1.6719-4.0156-6.125-9.4844-1.2188-1.4219-7.7656-8.1875-6.5312-6.7656-18.453-18.922z"/>
</defs>
<use xlink:href="#c"/>
<use x="63.623047" xlink:href="#j"/>
<use x="95.410156" xlink:href="#p"/>
</g>
</g>
<g clip-path="url(#a)">
<g transform="translate(35.806 410.99) scale(.1 -.1)">
<defs>
<path id="af" d="m37.797 64.312-24.906-38.922h24.906zm-2.5938 8.5938h12.406v-47.516h10.406v-8.2031h-10.406v-17.188h-9.8125v17.188h-32.906v9.5156z"/>
</defs>
<use xlink:href="#c"/>
<use x="63.623047" xlink:href="#j"/>
<use x="95.410156" xlink:href="#af"/>
</g>
</g>
<g clip-path="url(#a)">
<g transform="translate(48.489 410.99) scale(.1 -.1)">
<defs>
<path id="ae" d="m10.797 72.906h38.719v-8.3125h-29.688v-17.859q2.1406 0.73438 4.2812 1.0938 2.1562 0.35938 4.3125 0.35938 12.203 0 19.328-6.6875 7.1406-6.6875 7.1406-18.109 0-11.766-7.3281-18.297-7.3281-6.5156-20.656-6.5156-4.5938 0-9.3594 0.78125-4.75 0.78125-9.8281 2.3438v9.9219q4.3906-2.3906 9.0781-3.5625t9.9062-1.1719q8.4531 0 13.375 4.4375 4.9375 4.4375 4.9375 12.062 0 7.6094-4.9375 12.047-4.9219 4.4531-13.375 4.4531-3.9531 0-7.8906-0.875-3.9219-0.875-8.0156-2.7344z"/>
</defs>
<use xlink:href="#c"/>
<use x="63.623047" xlink:href="#j"/>
<use x="95.410156" xlink:href="#ae"/>
</g>
</g>
<g clip-path="url(#a)">
<g transform="translate(562.47 180.57) scale(.1 -.1)">
<defs>
<path id="ad" d="m33.016 40.375q-6.6406 0-10.531-4.5469-3.875-4.5312-3.875-12.438 0-7.8594 3.875-12.438 3.8906-4.5625 10.531-4.5625t10.516 4.5625q3.875 4.5781 3.875 12.438 0 7.9062-3.875 12.438-3.875 4.5469-10.516 4.5469zm19.578 30.922v-8.9844q-3.7188 1.75-7.5 2.6719-3.7812 0.9375-7.5 0.9375-9.7656 0-14.922-6.5938-5.1406-6.5938-5.875-19.922 2.875 4.25 7.2188 6.5156 4.3594 2.2656 9.5781 2.2656 10.984 0 17.359-6.6719 6.375-6.6562 6.375-18.125 0-11.234-6.6406-18.031-6.6406-6.7812-17.672-6.7812-12.656 0-19.344 9.6875-6.6875 9.7031-6.6875 28.109 0 17.281 8.2031 27.562t22.016 10.281q3.7188 0 7.5-0.73438t7.8906-2.1875z"/>
</defs>
<use xlink:href="#c"/>
<use x="63.623047" xlink:href="#j"/>
<use x="95.410156" xlink:href="#ad"/>
</g>
</g>
<g clip-path="url(#a)">
<g transform="translate(309.82 334.54) scale(.1 -.1)">
<defs>
<path id="ac" d="m8.2031 72.906h46.875v-4.2031l-26.469-68.703h-10.297l24.906 64.594h-35.016z"/>
</defs>
<use xlink:href="#c"/>
<use x="63.623047" xlink:href="#j"/>
<use x="95.410156" xlink:href="#ac"/>
</g>
</g>
<g clip-path="url(#a)">
<g transform="translate(815.13 257.68) scale(.1 -.1)">
<defs>
<path id="ab" d="m31.781 34.625q-7.0312 0-11.062-3.7656-4.0156-3.7656-4.0156-10.344 0-6.5938 4.0156-10.359 4.0312-3.7656 11.062-3.7656t11.078 3.7812q4.0625 3.7969 4.0625 10.344 0 6.5781-4.0312 10.344-4.0156 3.7656-11.109 3.7656zm-9.8594 4.1875q-6.3438 1.5625-9.8906 5.9062-3.5312 4.3594-3.5312 10.609 0 8.7344 6.2188 13.812 6.2344 5.0781 17.062 5.0781 10.891 0 17.094-5.0781t6.2031-13.812q0-6.25-3.5469-10.609-3.5312-4.3438-9.8281-5.9062 7.125-1.6562 11.094-6.5 3.9844-4.8281 3.9844-11.797 0-10.609-6.4688-16.281-6.4688-5.6562-18.531-5.6562-12.047 0-18.531 5.6562-6.4688 5.6719-6.4688 16.281 0 6.9688 4 11.797 4.0156 4.8438 11.141 6.5zm-3.6094 15.578q0-5.6562 3.5312-8.8281 3.5469-3.1719 9.9375-3.1719 6.3594 0 9.9375 3.1719 3.5938 3.1719 3.5938 8.8281 0 5.6719-3.5938 8.8438-3.5781 3.1719-9.9375 3.1719-6.3906 0-9.9375-3.1719-3.5312-3.1719-3.5312-8.8438z"/>
</defs>
<use xlink:href="#c"/>
<use x="63.623047" xlink:href="#j"/>
<use x="95.410156" xlink:href="#ab"/>
</g>
</g>
<g clip-path="url(#a)">
<g transform="translate(708.02 334.54) scale(.1 -.1)">
<defs>
<path id="aa" d="m10.984 1.5156v8.9844q3.7188-1.7656 7.5156-2.6875 3.8125-0.92188 7.4844-0.92188 9.7656 0 14.906 6.5625 5.1562 6.5625 5.8906 19.953-2.8281-4.2031-7.1875-6.4531-4.3438-2.25-9.6094-2.25-10.938 0-17.312 6.6094-6.375 6.625-6.375 18.109 0 11.219 6.6406 18 6.6406 6.7969 17.672 6.7969 12.656 0 19.312-9.7031 6.6719-9.6875 6.6719-28.141 0-17.234-8.1875-27.516-8.1719-10.281-21.984-10.281-3.7188 0-7.5312 0.73438-3.7969 0.73438-7.9062 2.2031zm19.625 30.906q6.6406 0 10.516 4.5312 3.8906 4.5469 3.8906 12.469 0 7.8594-3.8906 12.422-3.875 4.5625-10.516 4.5625t-10.516-4.5625-3.875-12.422q0-7.9219 3.875-12.469 3.875-4.5312 10.516-4.5312z"/>
</defs>
<use xlink:href="#c"/>
<use x="63.623047" xlink:href="#j"/>
<use x="95.410156" xlink:href="#aa"/>
</g>
</g>
<g clip-path="url(#a)">
<g transform="translate(823.22 410.99) scale(.1 -.1)">
<defs>
<path id="ag" d="m31.781 66.406q-7.6094 0-11.453-7.5-3.8281-7.4844-3.8281-22.531 0-14.984 3.8281-22.484 3.8438-7.5 11.453-7.5 7.6719 0 11.5 7.5 3.8438 7.5 3.8438 22.484 0 15.047-3.8438 22.531-3.8281 7.5-11.5 7.5zm0 7.8125q12.266 0 18.734-9.7031 6.4688-9.6875 6.4688-28.141 0-18.406-6.4688-28.109-6.4688-9.6875-18.734-9.6875-12.25 0-18.719 9.6875-6.4688 9.7031-6.4688 28.109 0 18.453 6.4688 28.141 6.4688 9.7031 18.719 9.7031z"/>
</defs>
<use xlink:href="#c"/>
<use x="63.623047" xlink:href="#j"/>
<use x="95.410156" xlink:href="#c"/>
<use x="159.033203" xlink:href="#ag"/>
</g>
</g>
<g clip-path="url(#a)">
<g transform="translate(666.79 410.99) scale(.1 -.1)">
<use xlink:href="#c"/>
<use x="63.623047" xlink:href="#j"/>
<use x="95.410156" xlink:href="#c"/>
<use x="159.033203" xlink:href="#c"/>
</g>
</g>
<g clip-path="url(#a)">
<g transform="translate(742.89 410.99) scale(.1 -.1)">
<use xlink:href="#c"/>
<use x="63.623047" xlink:href="#j"/>
<use x="95.410156" xlink:href="#c"/>
<use x="159.033203" xlink:href="#p"/>
</g>
</g>
<g clip-path="url(#a)">
<g transform="translate(72.789 410.99) scale(.1 -.1)">
<defs>
<path id="as" d="m40.578 39.312q7.0781-1.5156 11.047-6.3125 3.9844-4.7812 3.9844-11.812 0-10.781-7.4219-16.703-7.4219-5.9062-21.094-5.9062-4.5781 0-9.4375 0.90625t-10.031 2.7188v9.5156q4.0938-2.3906 8.9688-3.6094 4.8906-1.2188 10.219-1.2188 9.2656 0 14.125 3.6562t4.8594 10.641q0 6.4531-4.5156 10.078-4.5156 3.6406-12.562 3.6406h-8.5v8.1094h8.8906q7.2656 0 11.125 2.9062t3.8594 8.375q0 5.6094-3.9844 8.6094-3.9688 3.0156-11.391 3.0156-4.0625 0-8.7031-0.89062-4.6406-0.875-10.203-2.7188v8.7812q5.625 1.5625 10.531 2.3438t9.25 0.78125q11.234 0 17.766-5.1094 6.5469-5.0938 6.5469-13.781 0-6.0625-3.4688-10.234t-9.8594-5.7812z"/>
</defs>
<use xlink:href="#c"/>
<use x="63.623047" xlink:href="#j"/>
<use x="95.410156" xlink:href="#c"/>
<use x="159.033203" xlink:href="#as"/>
</g>
</g>
<g clip-path="url(#a)">
<g transform="translate(193.28 410.99) scale(.1 -.1)">
<use xlink:href="#c"/>
<use x="63.623047" xlink:href="#j"/>
<use x="95.410156" xlink:href="#c"/>
<use x="159.033203" xlink:href="#af"/>
</g>
</g>
<g clip-path="url(#a)">
<g transform="translate(349.71 410.99) scale(.1 -.1)">
<use xlink:href="#c"/>
<use x="63.623047" xlink:href="#j"/>
<use x="95.410156" xlink:href="#c"/>
<use x="159.033203" xlink:href="#ae"/>
</g>
</g>
<g clip-path="url(#a)">
<g transform="translate(463.86 410.99) scale(.1 -.1)">
<use xlink:href="#c"/>
<use x="63.623047" xlink:href="#j"/>
<use x="95.410156" xlink:href="#c"/>
<use x="159.033203" xlink:href="#ad"/>
</g>
</g>
<g clip-path="url(#a)">
<g transform="translate(561.1 410.99) scale(.1 -.1)">
<use xlink:href="#c"/>
<use x="63.623047" xlink:href="#j"/>
<use x="95.410156" xlink:href="#c"/>
<use x="159.033203" xlink:href="#ac"/>
</g>
</g>
<g clip-path="url(#a)">
<g transform="translate(108.72 410.99) scale(.1 -.1)">
<use xlink:href="#c"/>
<use x="63.623047" xlink:href="#j"/>
<use x="95.410156" xlink:href="#c"/>
<use x="159.033203" xlink:href="#ab"/>
</g>
</g>
<g clip-path="url(#a)">
<g transform="translate(298.98 410.99) scale(.1 -.1)">
<use xlink:href="#c"/>
<use x="63.623047" xlink:href="#j"/>
<use x="95.410156" xlink:href="#c"/>
<use x="159.033203" xlink:href="#aa"/>
</g>
</g>
<g clip-path="url(#a)">
<g transform="translate(404.67 410.99) scale(.1 -.1)">
<use xlink:href="#c"/>
<use x="63.623047" xlink:href="#j"/>
<use x="95.410156" xlink:href="#p"/>
<use x="159.033203" xlink:href="#ag"/>
</g>
</g>
<g clip-path="url(#a)">
<g transform="translate(907.78 410.99) scale(.1 -.1)">
<use xlink:href="#c"/>
<use x="63.623047" xlink:href="#j"/>
<use x="95.410156" xlink:href="#p"/>
<use x="159.033203" xlink:href="#c"/>
</g>
</g>
<defs>
<clipPath id="a">
<rect width="962.67" height="506.67"/>
</clipPath>
</defs>
</svg>
