<?xml version="1.0" encoding="UTF-8"?>
<!DOCTYPE svg  PUBLIC '-//W3C//DTD SVG 1.1//EN'  'http://www.w3.org/Graphics/SVG/1.1/DTD/svg11.dtd'>
<svg width="1773.3pt" height="933.33pt" version="1.1" viewBox="0 0 1773.3 933.33" xmlns="http://www.w3.org/2000/svg" xmlns:xlink="http://www.w3.org/1999/xlink">
<metadata>
<rdf:RDF xmlns:cc="http://creativecommons.org/ns#" xmlns:dc="http://purl.org/dc/elements/1.1/" xmlns:rdf="http://www.w3.org/1999/02/22-rdf-syntax-ns#">
<cc:Work>
<dc:type rdf:resource="http://purl.org/dc/dcmitype/StillImage"/>
<dc:date>2021-02-25T11:34:34.112844</dc:date>
<dc:format>image/svg+xml</dc:format>
<dc:creator>
<cc:Agent>
<dc:title>Matplotlib v3.3.3, https://matplotlib.org/</dc:title>
</cc:Agent>
</dc:creator>
</cc:Work>
</rdf:RDF>
</metadata>
<defs>
<style type="text/css">*{stroke-linecap:butt;stroke-linejoin:round;}</style>
</defs>
<path d="m0 933.33h1773.3v-933.33h-1773.3z" fill="#fff"/>
<g fill="none" stroke="#000">
<path d="m739.99 42.424-624.93 142.7" clip-path="url(#a)"/>
<path d="m739.99 42.424-411.36 709.58" clip-path="url(#a)"/>
<path d="m739.99 42.424-197.49 285.12" clip-path="url(#a)"/>
<path d="m739.99 42.424 298.96 285.12" clip-path="url(#a)"/>
<path d="m739.99 42.424 697.43 709.58" clip-path="url(#a)"/>
<path d="m739.99 42.424 559.23 427.17" clip-path="url(#a)"/>
<path d="m739.99 42.424-445.4 709.58" clip-path="url(#a)"/>
<path d="m739.99 42.424 123.58 709.58" clip-path="url(#a)"/>
<path d="m115.05 185.13-34.447 566.88" clip-path="url(#a)"/>
<path d="m115.05 185.13-27.152 566.88" clip-path="url(#a)"/>
<path d="m115.05 185.13-4.4579 426.04" clip-path="url(#a)"/>
<path d="m115.05 185.13 66.057 142.42" clip-path="url(#a)"/>
<path d="m328.62 752.01v138.9" clip-path="url(#a)"/>
<path d="m542.49 327.54-157.94 424.46" clip-path="url(#a)"/>
<path d="m542.49 327.54-97.154 424.46" clip-path="url(#a)"/>
<path d="m542.49 327.54-53.386 424.46" clip-path="url(#a)"/>
<path d="m542.49 327.54 77.377 142.06" clip-path="url(#a)"/>
<path d="m542.49 327.54 231.11 283.63" clip-path="url(#a)"/>
<path d="m1038.9 327.54-112.16 424.46" clip-path="url(#a)"/>
<path d="m1038.9 327.54-46.503 424.46" clip-path="url(#a)"/>
<path d="m1038.9 327.54 158.66 142.06" clip-path="url(#a)"/>
<path d="m1437.4 752.01v138.9" clip-path="url(#a)"/>
<path d="m1299.2 469.6 306.78 141.57" clip-path="url(#a)"/>
<path d="m1299.2 469.6-306.78 282.41" clip-path="url(#a)" stroke-dasharray="3.7,1.6"/>
<path d="m1606 611.17-85.915 140.84" clip-path="url(#a)"/>
<path d="m1606 611.17-0.81052 140.84" clip-path="url(#a)"/>
<path d="m1606 611.17 86.725 140.84" clip-path="url(#a)"/>
<path d="m1520.1 752.01v138.9" clip-path="url(#a)"/>
<path d="m1605.2 752.01v138.9" clip-path="url(#a)"/>
<path d="m926.79 752.01v138.9" clip-path="url(#a)"/>
<path d="m992.44 752.01v138.9" clip-path="url(#a)"/>
<path d="m1197.6 469.6-137.08 282.41" clip-path="url(#a)"/>
<path d="m1197.6 469.6-66.564 282.41" clip-path="url(#a)"/>
<path d="m1197.6 469.6 44.072 141.57" clip-path="url(#a)"/>
<path d="m1197.6 469.6 159.57 282.41" clip-path="url(#a)"/>
<path d="m1060.5 752.01v138.9" clip-path="url(#a)"/>
<path d="m1131 752.01v138.9" clip-path="url(#a)"/>
<path d="m1241.7 611.17-37.689 140.84" clip-path="url(#a)"/>
<path d="m1241.7 611.17 37.689 140.84" clip-path="url(#a)"/>
<path d="m1357.2 752.01v138.9" clip-path="url(#a)"/>
<path d="m1204 752.01v138.9" clip-path="url(#a)"/>
<path d="m1279.4 752.01v138.9" clip-path="url(#a)"/>
<path d="m384.55 752.01-19.452 138.9" clip-path="url(#a)"/>
<path d="m384.55 752.01 19.452 138.9" clip-path="url(#a)"/>
<path d="m445.34 752.01v138.9" clip-path="url(#a)"/>
<path d="m489.11 752.01v138.9" clip-path="url(#a)"/>
<path d="m619.87 469.6-84.564 282.41" clip-path="url(#a)"/>
<path d="m619.87 469.6 15.94 141.57" clip-path="url(#a)"/>
<path d="m619.87 469.6 68.624 282.41" clip-path="url(#a)"/>
<path d="m773.6 611.17-29.179 140.84" clip-path="url(#a)"/>
<path d="m773.6 611.17 29.179 140.84" clip-path="url(#a)"/>
<path d="m744.42 752.01v138.9" clip-path="url(#a)"/>
<path d="m802.78 752.01v138.9" clip-path="url(#a)"/>
<path d="m535.31 752.01v138.9" clip-path="url(#a)"/>
<path d="m635.81 611.17 52.684 140.84" clip-path="url(#a)" stroke-dasharray="3.7,1.6"/>
<path d="m635.81 611.17-51.873 140.84" clip-path="url(#a)"/>
<path d="m635.81 611.17-0.81052 140.84" clip-path="url(#a)"/>
<path d="m688.49 752.01v138.9" clip-path="url(#a)"/>
<path d="m583.94 752.01v138.9" clip-path="url(#a)"/>
<path d="m635 752.01v138.9" clip-path="url(#a)"/>
<path d="m80.606 752.01v138.9" clip-path="url(#a)"/>
<path d="m87.901 752.01v138.9" clip-path="url(#a)"/>
<path d="m110.6 611.17-12.968 140.84" clip-path="url(#a)"/>
<path d="m110.6 611.17-0.81052 140.84" clip-path="url(#a)"/>
<path d="m110.6 611.17 13.779 140.84" clip-path="url(#a)"/>
<path d="m181.11 327.54-39.715 424.46" clip-path="url(#a)"/>
<path d="m181.11 327.54-20.263 424.46" clip-path="url(#a)"/>
<path d="m181.11 327.54 1.621 424.46" clip-path="url(#a)"/>
<path d="m181.11 327.54 58.357 142.06" clip-path="url(#a)"/>
<path d="m141.39 752.01v138.9" clip-path="url(#a)"/>
<path d="m160.85 752.01v138.9" clip-path="url(#a)"/>
<path d="m182.73 752.01v138.9" clip-path="url(#a)"/>
<path d="m239.47 469.6-32.421 282.41" clip-path="url(#a)"/>
<path d="m239.47 469.6 8.9157 141.57" clip-path="url(#a)"/>
<path d="m239.47 469.6 23.505 282.41" clip-path="url(#a)"/>
<path d="m207.05 752.01v138.9" clip-path="url(#a)"/>
<path d="m248.38 611.17 14.589 140.84" clip-path="url(#a)" stroke-dasharray="3.7,1.6"/>
<path d="m248.38 611.17-14.589 140.84" clip-path="url(#a)"/>
<path d="m262.97 752.01v138.9" clip-path="url(#a)"/>
<path d="m233.79 752.01v138.9" clip-path="url(#a)"/>
<path d="m97.627 752.01v138.9" clip-path="url(#a)"/>
<path d="m109.78 752.01v138.9" clip-path="url(#a)"/>
<path d="m124.37 752.01v138.9" clip-path="url(#a)"/>
<path d="m294.58 752.01v138.9" clip-path="url(#a)"/>
<path d="m863.57 752.01v138.9" clip-path="url(#a)"/>
<path d="m1692.7 752.01v138.9" clip-path="url(#a)"/>
</g>
<path d="m425.98 120.56 5.8653-1.3393q2.3398-0.53428 1.8055-2.8741l-1.7236-7.5482q-0.53428-2.3398-2.8741-1.8055l-5.8653 1.3393q-2.3398 0.53428-1.8055 2.8741l1.7236 7.5482q0.53428 2.3398 2.8741 1.8055z" clip-path="url(#a)" fill="#fff" stroke="#fff"/>
<g clip-path="url(#a)">
<g transform="translate(425.08 116.6) rotate(-12.863) scale(.08 -.08)">
<defs>
<path id="ac" d="m9.8125 72.906h9.8594v-29.891h35.844v29.891h9.8594v-72.906h-9.8594v34.719h-35.844v-34.719h-9.8594z"/>
</defs>
<use xlink:href="#ac"/>
</g>
</g>
<path d="m538.61 402.29 2.2356-3.8563q1.2037-2.0763-0.87263-3.28l-6.6983-3.8832q-2.0763-1.2037-3.28 0.87263l-2.2356 3.8563q-1.2037 2.0763 0.87263 3.28l6.6983 3.8832q2.0763 1.2037 3.28-0.87262z" clip-path="url(#a)" fill="#fff" stroke="#fff"/>
<g clip-path="url(#a)">
<g transform="translate(535.1 400.25) rotate(-59.898) scale(.08 -.08)">
<defs>
<path id="an" d="m9.8125 72.906h9.8594v-64.609h35.5v-8.2969h-45.359z"/>
</defs>
<use xlink:href="#an"/>
</g>
</g>
<path d="m644.68 191.03 3.4257-4.9457q1.3666-1.9729-0.60633-3.3395l-6.3647-4.4087q-1.9729-1.3666-3.3395 0.60633l-3.4257 4.9457q-1.3666 1.9729 0.60633 3.3395l6.3647 4.4087q1.9729 1.3666 3.3395-0.60633z" clip-path="url(#a)" fill="#fff" stroke="#fff"/>
<g clip-path="url(#a)">
<g transform="translate(641.34 188.71) rotate(-55.291) scale(.08 -.08)">
<use xlink:href="#ac"/>
</g>
</g>
<path d="m882.96 187.44 4.3537 4.1522q1.7368 1.6564 3.3932-0.080393l5.3436-5.6029q1.6564-1.7368-0.080394-3.3932l-4.3537-4.1522q-1.7368-1.6564-3.3932 0.080394l-5.3436 5.6029q-1.6564 1.7368 0.080394 3.3932z" clip-path="url(#a)" fill="#fff" stroke="#fff"/>
<g clip-path="url(#a)">
<g transform="translate(885.76 184.5) rotate(43.643) scale(.08 -.08)">
<use xlink:href="#ac"/>
</g>
</g>
<path d="m1082.7 400.02 3.1246 3.179q1.6823 1.7117 3.394 0.029321l5.5219-5.4273q1.7117-1.6823 0.029321-3.394l-3.1246-3.179q-1.6823-1.7117-3.394-0.029321l-5.5219 5.4273q-1.7117 1.6823-0.029321 3.394z" clip-path="url(#a)" fill="#fff" stroke="#fff"/>
<g clip-path="url(#a)">
<g transform="translate(1085.6 397.17) rotate(45.495) scale(.08 -.08)">
<use xlink:href="#an"/>
</g>
</g>
<path d="m1013.4 259.17 4.781 3.652q1.9072 1.4569 3.3641-0.45039l4.6999-6.1528q1.4569-1.9072-0.45039-3.3641l-4.781-3.652q-1.9072-1.4569-3.3641 0.45039l-4.6999 6.1528q-1.4569 1.9072 0.45039 3.3641z" clip-path="url(#a)" fill="#fff" stroke="#fff"/>
<g clip-path="url(#a)">
<g transform="translate(1015.9 255.94) rotate(37.375) scale(.08 -.08)">
<use xlink:href="#ac"/>
</g>
</g>
<path d="m521.04 403.03 3.1128-4.959q1.2759-2.0327-0.75678-3.3087l-6.5577-4.1162q-2.0327-1.2759-3.3087 0.75678l-3.1128 4.959q-1.2759 2.0327 0.75678 3.3087l6.5577 4.1162q2.0327 1.2759 3.3087-0.75678z" clip-path="url(#a)" fill="#fff" stroke="#fff"/>
<g clip-path="url(#a)">
<g transform="translate(517.6 400.87) rotate(-57.884) scale(.08 -.08)">
<defs>
<path id="ah" d="m8.6875 72.906h9.9219v-44.297q0-11.719 4.2344-16.875 4.25-5.1406 13.781-5.1406 9.4688 0 13.719 5.1406 4.25 5.1562 4.25 16.875v44.297h9.9062v-45.516q0-14.25-7.0625-21.531-7.0469-7.2812-20.812-7.2812-13.828 0-20.891 7.2812-7.0469 7.2812-7.0469 21.531z"/>
</defs>
<use xlink:href="#ah"/>
</g>
</g>
<path d="m795.1 395.41 1.0046 5.7682q0.41178 2.3644 2.7762 1.9526l7.6277-1.3284q2.3644-0.41178 1.9526-2.7762l-1.0046-5.7682q-0.41178-2.3644-2.7762-1.9526l-7.6277 1.3284q-2.3644 0.41178-1.9526 2.7762z" clip-path="url(#a)" fill="#fff" stroke="#fff"/>
<g clip-path="url(#a)">
<g transform="translate(799.1 394.71) rotate(80.121) scale(.08 -.08)">
<use xlink:href="#ah"/>
</g>
</g>
<path d="m103.92 471.68 0.33193-5.4624q0.14557-2.3956-2.25-2.5412l-7.7282-0.46962q-2.3956-0.14557-2.5412 2.25l-0.33193 5.4624q-0.14557 2.3956 2.25 2.5412l7.7282 0.46962q2.3956 0.14557 2.5412-2.25z" clip-path="url(#a)" fill="#fff" stroke="#fff"/>
<g clip-path="url(#a)">
<g transform="translate(99.867 471.43) rotate(-86.523) scale(.08 -.08)">
<defs>
<path id="q" d="m34.188 63.188-13.391-36.281h26.812zm-5.5781 9.7188h11.188l27.781-72.906h-10.25l-6.6406 18.703h-32.859l-6.6406-18.703h-10.406z"/>
</defs>
<use xlink:href="#q"/>
</g>
</g>
<path d="m107.63 471.28 0.23078-4.8182q0.11482-2.3973-2.2824-2.5121l-7.7336-0.37042q-2.3973-0.11482-2.5121 2.2824l-0.23078 4.8182q-0.11482 2.3973 2.2824 2.5121l7.7336 0.37042q2.3973 0.11482 2.5121-2.2824z" clip-path="url(#a)" fill="#fff" stroke="#fff"/>
<g clip-path="url(#a)">
<g transform="translate(103.57 471.08) rotate(-87.258) scale(.08 -.08)">
<defs>
<path id="as" d="m19.672 64.797v-27.391h12.406q6.8906 0 10.641 3.5625 3.7656 3.5625 3.7656 10.156 0 6.5469-3.7656 10.109-3.75 3.5625-10.641 3.5625zm-9.8594 8.1094h22.266q12.266 0 18.531-5.5469 6.2812-5.5469 6.2812-16.234 0-10.797-6.2812-16.312-6.2656-5.5156-18.531-5.5156h-12.406v-29.297h-9.8594z"/>
</defs>
<use xlink:href="#as"/>
</g>
</g>
<path d="m119.07 400.95 0.057258-5.4722q0.02511-2.3999-2.3748-2.425l-7.7421-0.081008q-2.3999-0.02511-2.425 2.3748l-0.057257 5.4722q-0.025111 2.3999 2.3748 2.425l7.7421 0.081008q2.3999 0.025111 2.425-2.3748z" clip-path="url(#a)" fill="#fff" stroke="#fff"/>
<g clip-path="url(#a)">
<g transform="translate(115 400.91) rotate(-89.401) scale(.08 -.08)">
<use xlink:href="#q"/>
</g>
</g>
<path d="m141.24 256.49 2.3027 4.9645q1.0099 2.1772 3.1871 1.1673l7.0237-3.2579q2.1772-1.0099 1.1673-3.1871l-2.3027-4.9645q-1.0099-2.1772-3.1871-1.1673l-7.0237 3.2579q-2.1772 1.0099-1.1673 3.1871z" clip-path="url(#a)" fill="#fff" stroke="#fff"/>
<g clip-path="url(#a)">
<g transform="translate(144.93 254.78) rotate(65.116) scale(.08 -.08)">
<use xlink:href="#q"/>
</g>
</g>
<path d="m322.35 804.55v33.808q0 2.4 2.4 2.4h7.7425q2.4 0 2.4-2.4v-33.808q0-2.4-2.4-2.4h-7.7425q-2.4 0-2.4 2.4z" clip-path="url(#a)" fill="#fff" stroke="#fff"/>
<g clip-path="url(#a)">
<g transform="translate(326.42 804.55) rotate(90) scale(.08 -.08)">
<defs>
<path id="k" d="m-0.29688 72.906h61.672v-8.3125h-25.875v-64.594h-9.9062v64.594h-25.891z"/>
<path id="d" d="m56.203 29.594v-4.3906h-41.312q0.59375-9.2812 5.5938-14.141t13.938-4.8594q5.1719 0 10.031 1.2656t9.6562 3.8125v-8.5q-4.8438-2.0469-9.9219-3.125t-10.297-1.0781q-13.094 0-20.734 7.6094-7.6406 7.625-7.6406 20.625 0 13.422 7.25 21.297 7.25 7.8906 19.562 7.8906 11.031 0 17.453-7.1094 6.4219-7.0938 6.4219-19.297zm-8.9844 2.6406q-0.09375 7.3594-4.125 11.75-4.0312 4.4062-10.672 4.4062-7.5156 0-12.031-4.25t-5.2031-11.969z"/>
<path id="g" d="m41.109 46.297q-1.5156 0.875-3.2969 1.2812-1.7812 0.42188-3.9219 0.42188-7.625 0-11.703-4.9531t-4.0781-14.234v-28.812h-9.0312v54.688h9.0312v-8.5q2.8438 4.9844 7.375 7.3906 4.5469 2.4219 11.047 2.4219 0.92188 0 2.0469-0.125 1.125-0.10938 2.4844-0.35938z"/>
<path id="l" d="m52 44.188q3.375 6.0625 8.0625 8.9375t11.031 2.875q8.5469 0 13.188-5.9844 4.6406-5.9688 4.6406-17v-33.016h-9.0312v32.719q0 7.8594-2.7969 11.656-2.7812 3.8125-8.4844 3.8125-6.9844 0-11.047-4.6406-4.0469-4.625-4.0469-12.641v-30.906h-9.0312v32.719q0 7.9062-2.7812 11.688t-8.5938 3.7812q-6.8906 0-10.953-4.6562-4.0469-4.6562-4.0469-12.625v-30.906h-9.0312v54.688h9.0312v-8.5q3.0781 5.0312 7.375 7.4219t10.203 2.3906q5.9688 0 10.141-3.0312 4.1719-3.0156 6.1719-8.7812z"/>
<path id="j" d="m9.4219 54.688h8.9844v-54.688h-8.9844zm0 21.297h8.9844v-11.391h-8.9844z"/>
<path id="h" d="m54.891 33.016v-33.016h-8.9844v32.719q0 7.7656-3.0312 11.609-3.0312 3.8594-9.0781 3.8594-7.2812 0-11.484-4.6406-4.2031-4.625-4.2031-12.641v-30.906h-9.0312v54.688h9.0312v-8.5q3.2344 4.9375 7.5938 7.375 4.375 2.4375 10.094 2.4375 9.4219 0 14.25-5.8281 4.8438-5.8281 4.8438-17.156z"/>
<path id="f" d="m34.281 27.484q-10.891 0-15.094-2.4844t-4.2031-8.5q0-4.7812 3.1562-7.5938 3.1562-2.7969 8.5625-2.7969 7.4844 0 12 5.2969t4.5156 14.078v2zm17.922 3.7188v-31.203h-8.9844v8.2969q-3.0781-4.9688-7.6719-7.3438t-11.234-2.375q-8.3906 0-13.359 4.7188-4.9531 4.7188-4.9531 12.625 0 9.2188 6.1719 13.906 6.1875 4.6875 18.438 4.6875h12.609v0.89062q0 6.2031-4.0781 9.5938t-11.453 3.3906q-4.6875 0-9.1406-1.125-4.4375-1.125-8.5312-3.375v8.3125q4.9219 1.9062 9.5625 2.8438 4.6406 0.95312 9.0312 0.95312 11.875 0 17.734-6.1562 5.8594-6.1406 5.8594-18.641z"/>
<path id="i" d="m9.4219 75.984h8.9844v-75.984h-8.9844z"/>
</defs>
<use xlink:href="#k"/>
<use x="44.083984" xlink:href="#d"/>
<use x="105.607422" xlink:href="#g"/>
<use x="144.970703" xlink:href="#l"/>
<use x="242.382812" xlink:href="#j"/>
<use x="270.166016" xlink:href="#h"/>
<use x="333.544922" xlink:href="#f"/>
<use x="394.824219" xlink:href="#i"/>
</g>
</g>
<path d="m468.32 544.87 2.1617-5.8096q0.83697-2.2493-1.4124-3.0863l-7.2564-2.7001q-2.2493-0.83697-3.0863 1.4124l-2.1617 5.8096q-0.83697 2.2493 1.4124 3.0863l7.2564 2.7001q2.2493 0.83697 3.0863-1.4124z" clip-path="url(#a)" fill="#fff" stroke="#fff"/>
<g clip-path="url(#a)">
<g transform="translate(464.51 543.45) rotate(-69.59) scale(.08 -.08)">
<defs>
<path id="at" d="m59.516 10.406v19.578h-16.109v8.1094h25.875v-31.312q-5.7031-4.0469-12.594-6.125-6.875-2.0781-14.688-2.0781-17.094 0-26.75 9.9844-9.6406 10-9.6406 27.812 0 17.875 9.6406 27.859 9.6562 9.9844 26.75 9.9844 7.125 0 13.547-1.7656 6.4219-1.75 11.844-5.1719v-10.5q-5.4688 4.6406-11.625 6.9844t-12.938 2.3438q-13.391 0-20.109-7.4688-6.7031-7.4688-6.7031-22.266 0-14.75 6.7031-22.219 6.7188-7.4688 20.109-7.4688 5.2188 0 9.3125 0.90625 4.1094 0.90625 7.375 2.8125z"/>
</defs>
<use xlink:href="#at"/>
</g>
</g>
<path d="m499.42 543.84 1.221-5.3345q0.53548-2.3395-1.804-2.875l-7.5473-1.7275q-2.3395-0.53548-2.875 1.804l-1.221 5.3345q-0.53548 2.3395 1.804 2.875l7.5473 1.7275q2.3395 0.53548 2.875-1.804z" clip-path="url(#a)" fill="#fff" stroke="#fff"/>
<g clip-path="url(#a)">
<g transform="translate(495.46 542.93) rotate(-77.108) scale(.08 -.08)">
<use xlink:href="#q"/>
</g>
</g>
<path d="m521.71 543.08 0.63378-5.0391q0.2995-2.3812-2.0817-2.6807l-7.682-0.96618q-2.3812-0.2995-2.6807 2.0817l-0.63378 5.0391q-0.2995 2.3812 2.0817 2.6807l7.682 0.96618q2.3812 0.2995 2.6807-2.0817z" clip-path="url(#a)" fill="#fff" stroke="#fff"/>
<g clip-path="url(#a)">
<g transform="translate(517.67 542.57) rotate(-82.831) scale(.08 -.08)">
<defs>
<path id="v" d="m53.516 70.516v-9.625q-5.6094 2.6875-10.594 4-4.9844 1.3281-9.625 1.3281-8.0469 0-12.422-3.125t-4.375-8.8906q0-4.8438 2.9062-7.3125 2.9062-2.4531 11.016-3.9688l5.9531-1.2188q11.031-2.1094 16.281-7.4062t5.25-14.172q0-10.609-7.1094-16.078-7.0938-5.4688-20.812-5.4688-5.1719 0-11.016 1.1719-5.8281 1.1719-12.078 3.4688v10.156q6-3.3594 11.766-5.0781 5.7656-1.7031 11.328-1.7031 8.4375 0 13.031 3.3125 4.5938 3.3281 4.5938 9.4844 0 5.3594-3.2969 8.3906t-10.812 4.5469l-6.0156 1.1719q-11.031 2.1875-15.969 6.875-4.9219 4.6875-4.9219 13.047 0 9.6719 6.8125 15.234t18.766 5.5625q5.1406 0 10.453-0.9375 5.3281-0.92188 10.891-2.7656z"/>
</defs>
<use xlink:href="#v"/>
</g>
</g>
<path d="m574.37 399.17 2.6177 4.8058q1.148 2.1076 3.2556 0.9596l6.7993-3.7035q2.1076-1.148 0.9596-3.2556l-2.6177-4.8058q-1.148-2.1076-3.2556-0.9596l-6.7993 3.7035q-2.1076 1.148-0.9596 3.2556z" clip-path="url(#a)" fill="#fff" stroke="#fff"/>
<g clip-path="url(#a)">
<g transform="translate(577.93 397.22) rotate(61.423) scale(.08 -.08)">
<use xlink:href="#q"/>
</g>
</g>
<path d="m651.24 470.93 3.8911 4.7754q1.516 1.8606 3.3766 0.34455l6.0023-4.8907q1.8606-1.516 0.34455-3.3766l-3.8911-4.7754q-1.516-1.8606-3.3766-0.34455l-6.0023 4.8907q-1.8606 1.516-0.34455 3.3766z" clip-path="url(#a)" fill="#fff" stroke="#fff"/>
<g clip-path="url(#a)">
<g transform="translate(654.39 468.36) rotate(50.826) scale(.08 -.08)">
<defs>
<path id="ao" d="m19.672 64.797v-56.688h11.922q15.094 0 22.094 6.8281 7 6.8438 7 21.594 0 14.641-7 21.453t-22.094 6.8125zm-9.8594 8.1094h20.266q21.188 0 31.094-8.8125 9.9219-8.8125 9.9219-27.562 0-18.859-9.9688-27.703-9.9531-8.8281-31.047-8.8281h-20.266z"/>
</defs>
<use xlink:href="#ao"/>
</g>
</g>
<path d="m988.23 544.02 1.398-5.2909q0.61311-2.3204-1.7073-2.9335l-7.4856-1.9779q-2.3204-0.61311-2.9335 1.7073l-1.398 5.2909q-0.61311 2.3204 1.7073 2.9335l7.4856 1.9779q2.3204 0.61311 2.9335-1.7073z" clip-path="url(#a)" fill="#fff" stroke="#fff"/>
<g clip-path="url(#a)">
<g transform="translate(984.3 542.98) rotate(-75.199) scale(.08 -.08)">
<use xlink:href="#q"/>
</g>
</g>
<path d="m1021.6 542.98 0.55311-5.0485q0.26138-2.3857-2.1243-2.6471l-7.6964-0.84321q-2.3857-0.26138-2.6471 2.1243l-0.55311 5.0485q-0.26138 2.3857 2.1244 2.6471l7.6964 0.84321q2.3857 0.26138 2.6471-2.1244z" clip-path="url(#a)" fill="#fff" stroke="#fff"/>
<g clip-path="url(#a)">
<g transform="translate(1017.6 542.54) rotate(-83.748) scale(.08 -.08)">
<use xlink:href="#v"/>
</g>
</g>
<path d="m1112.1 401.42 4.0771 3.6504q1.788 1.6009 3.389-0.18711l5.1646-5.7683q1.6009-1.788-0.18711-3.389l-4.0771-3.6504q-1.788-1.6009-3.389 0.18711l-5.1646 5.7683q-1.6009 1.788 0.18711 3.389z" clip-path="url(#a)" fill="#fff" stroke="#fff"/>
<g clip-path="url(#a)">
<g transform="translate(1114.8 398.39) rotate(41.84) scale(.08 -.08)">
<use xlink:href="#q"/>
</g>
</g>
<path d="m1431.1 804.55v33.808q0 2.4 2.4 2.4h7.7425q2.4 0 2.4-2.4v-33.808q0-2.4-2.4-2.4h-7.7425q-2.4 0-2.4 2.4z" clip-path="url(#a)" fill="#fff" stroke="#fff"/>
<g clip-path="url(#a)">
<g transform="translate(1435.2 804.55) rotate(90) scale(.08 -.08)">
<use xlink:href="#k"/>
<use x="44.083984" xlink:href="#d"/>
<use x="105.607422" xlink:href="#g"/>
<use x="144.970703" xlink:href="#l"/>
<use x="242.382812" xlink:href="#j"/>
<use x="270.166016" xlink:href="#h"/>
<use x="333.544922" xlink:href="#f"/>
<use x="394.824219" xlink:href="#i"/>
</g>
</g>
<path d="m1447.5 544.93 4.9689 2.2931q2.1792 1.0056 3.1848-1.1735l3.2442-7.03q1.0056-2.1792-1.1735-3.1848l-4.9689-2.2931q-2.1792-1.0056-3.1848 1.1735l-3.2442 7.03q-1.0056 2.1792 1.1735 3.1848z" clip-path="url(#a)" fill="#fff" stroke="#fff"/>
<g clip-path="url(#a)">
<g transform="translate(1449.2 541.24) rotate(24.772) scale(.08 -.08)">
<use xlink:href="#q"/>
</g>
</g>
<path d="m1148.2 617.14 3.7366-3.4397q1.7657-1.6255 0.14028-3.3912l-5.2438-5.6964q-1.6255-1.7657-3.3912-0.14028l-3.7366 3.4397q-1.7657 1.6255-0.14028 3.3912l5.2438 5.6964q1.6255 1.7657 3.3912 0.14028z" clip-path="url(#a)" fill="#fff" stroke="#fff"/>
<g clip-path="url(#a)">
<g transform="translate(1145.5 614.15) rotate(-42.631) scale(.08 -.08)">
<use xlink:href="#v"/>
</g>
</g>
<path d="m1567.2 686.82 2.3963-3.928q1.2499-2.0489-0.79897-3.2987l-6.6097-4.0322q-2.0489-1.2499-3.2987 0.79897l-2.3963 3.928q-1.2499 2.0489 0.79897 3.2987l6.6097 4.0322q2.0489 1.2499 3.2987-0.79897z" clip-path="url(#a)" fill="#fff" stroke="#fff"/>
<g clip-path="url(#a)">
<g transform="translate(1563.7 684.7) rotate(-58.615) scale(.08 -.08)">
<defs>
<path id="aj" d="m9.8125 72.906h41.891v-8.3125h-32.031v-21.484h28.906v-8.2969h-28.906v-34.812h-9.8594z"/>
</defs>
<use xlink:href="#aj"/>
</g>
</g>
<path d="m1611.9 684.42 0.032149-5.5862q0.013812-2.4-2.3861-2.4138l-7.7424-0.044558q-2.4-0.013812-2.4138 2.3861l-0.032149 5.5862q-0.013812 2.4 2.3861 2.4138l7.7424 0.044558q2.4 0.013812 2.4138-2.3861z" clip-path="url(#a)" fill="#fff" stroke="#fff"/>
<g clip-path="url(#a)">
<g transform="translate(1607.8 684.39) rotate(-89.67) scale(.08 -.08)">
<defs>
<path id="u" d="m64.406 67.281v-10.391q-4.9844 4.6406-10.625 6.9219-5.6406 2.2969-11.984 2.2969-12.5 0-19.141-7.6406t-6.6406-22.094q0-14.406 6.6406-22.047t19.141-7.6406q6.3438 0 11.984 2.2969t10.625 6.9375v-10.312q-5.1719-3.5156-10.969-5.2812-5.7812-1.75-12.219-1.75-16.562 0-26.094 10.125-9.5156 10.141-9.5156 27.672 0 17.578 9.5156 27.703 9.5312 10.141 26.094 10.141 6.5312 0 12.312-1.7344 5.7969-1.7344 10.875-5.2031z"/>
</defs>
<use xlink:href="#u"/>
</g>
</g>
<path d="m1642.5 682.38 3.0701 4.9855q1.2584 2.0436 3.302 0.78517l6.5928-4.0598q2.0436-1.2584 0.78517-3.302l-3.0701-4.9855q-1.2584-2.0436-3.302-0.78517l-6.5928 4.0598q-2.0436 1.2584-0.78516 3.302z" clip-path="url(#a)" fill="#fff" stroke="#fff"/>
<g clip-path="url(#a)">
<g transform="translate(1645.9 680.25) rotate(58.375) scale(.08 -.08)">
<use xlink:href="#ah"/>
</g>
</g>
<path d="m1513.8 804.55v33.808q0 2.4 2.4 2.4h7.7425q2.4 0 2.4-2.4v-33.808q0-2.4-2.4-2.4h-7.7425q-2.4 0-2.4 2.4z" clip-path="url(#a)" fill="#fff" stroke="#fff"/>
<g clip-path="url(#a)">
<g transform="translate(1517.9 804.55) rotate(90) scale(.08 -.08)">
<use xlink:href="#k"/>
<use x="44.083984" xlink:href="#d"/>
<use x="105.607422" xlink:href="#g"/>
<use x="144.970703" xlink:href="#l"/>
<use x="242.382812" xlink:href="#j"/>
<use x="270.166016" xlink:href="#h"/>
<use x="333.544922" xlink:href="#f"/>
<use x="394.824219" xlink:href="#i"/>
</g>
</g>
<path d="m1598.9 804.55v33.808q0 2.4 2.4 2.4h7.7425q2.4 0 2.4-2.4v-33.808q0-2.4-2.4-2.4h-7.7425q-2.4 0-2.4 2.4z" clip-path="url(#a)" fill="#fff" stroke="#fff"/>
<g clip-path="url(#a)">
<g transform="translate(1603 804.55) rotate(90) scale(.08 -.08)">
<use xlink:href="#k"/>
<use x="44.083984" xlink:href="#d"/>
<use x="105.607422" xlink:href="#g"/>
<use x="144.970703" xlink:href="#l"/>
<use x="242.382812" xlink:href="#j"/>
<use x="270.166016" xlink:href="#h"/>
<use x="333.544922" xlink:href="#f"/>
<use x="394.824219" xlink:href="#i"/>
</g>
</g>
<path d="m920.52 804.55v33.808q0 2.4 2.4 2.4h7.7425q2.4 0 2.4-2.4v-33.808q0-2.4-2.4-2.4h-7.7425q-2.4 0-2.4 2.4z" clip-path="url(#a)" fill="#fff" stroke="#fff"/>
<g clip-path="url(#a)">
<g transform="translate(924.58 804.55) rotate(90) scale(.08 -.08)">
<use xlink:href="#k"/>
<use x="44.083984" xlink:href="#d"/>
<use x="105.607422" xlink:href="#g"/>
<use x="144.970703" xlink:href="#l"/>
<use x="242.382812" xlink:href="#j"/>
<use x="270.166016" xlink:href="#h"/>
<use x="333.544922" xlink:href="#f"/>
<use x="394.824219" xlink:href="#i"/>
</g>
</g>
<path d="m986.17 804.55v33.808q0 2.4 2.4 2.4h7.7425q2.4 0 2.4-2.4v-33.808q0-2.4-2.4-2.4h-7.7425q-2.4 0-2.4 2.4z" clip-path="url(#a)" fill="#fff" stroke="#fff"/>
<g clip-path="url(#a)">
<g transform="translate(990.23 804.55) rotate(90) scale(.08 -.08)">
<use xlink:href="#k"/>
<use x="44.083984" xlink:href="#d"/>
<use x="105.607422" xlink:href="#g"/>
<use x="144.970703" xlink:href="#l"/>
<use x="242.382812" xlink:href="#j"/>
<use x="270.166016" xlink:href="#h"/>
<use x="333.544922" xlink:href="#f"/>
<use x="394.824219" xlink:href="#i"/>
</g>
</g>
<path d="m1133.6 615.81 2.2074-4.5476q1.048-2.1591-1.1111-3.2071l-6.9653-3.3809q-2.1591-1.048-3.2071 1.1111l-2.2074 4.5476q-1.048 2.1591 1.1111 3.2071l6.9653 3.3809q2.1591 1.048 3.2071-1.1111z" clip-path="url(#a)" fill="#fff" stroke="#fff"/>
<g clip-path="url(#a)">
<g transform="translate(1129.9 614.04) rotate(-64.108) scale(.08 -.08)">
<defs>
<path id="w" d="m9.8125 72.906h46.094v-8.3125h-36.234v-21.578h34.719v-8.2969h-34.719v-26.422h37.109v-8.2969h-46.969z"/>
</defs>
<use xlink:href="#w"/>
</g>
</g>
<path d="m1169.8 614.7 1.1597-4.9202q0.55059-2.336-1.7854-2.8866l-7.536-1.7762q-2.336-0.55059-2.8866 1.7854l-1.1597 4.9202q-0.55059 2.336 1.7854 2.8866l7.536 1.7762q2.336 0.55059 2.8866-1.7854z" clip-path="url(#a)" fill="#fff" stroke="#fff"/>
<g clip-path="url(#a)">
<g transform="translate(1165.9 613.77) rotate(-76.737) scale(.08 -.08)">
<use xlink:href="#w"/>
</g>
</g>
<path d="m1212.9 539.83 1.5025 4.8265q0.71335 2.2915 3.0049 1.5782l7.3926-2.3013q2.2915-0.71335 1.5782-3.0049l-1.5025-4.8265q-0.71335-2.2915-3.0049-1.5782l-7.3926 2.3013q-2.2915 0.71335-1.5782 3.0049z" clip-path="url(#a)" fill="#fff" stroke="#fff"/>
<g clip-path="url(#a)">
<g transform="translate(1216.8 538.63) rotate(72.709) scale(.08 -.08)">
<use xlink:href="#w"/>
</g>
</g>
<path d="m1270.6 611.45 2.7481 4.8636q1.1806 2.0895 3.2702 0.90887l6.7409-3.8088q2.0895-1.1806 0.90887-3.2702l-2.7481-4.8636q-1.1806-2.0895-3.2702-0.90887l-6.7409 3.8088q-2.0895 1.1806-0.90887 3.2702z" clip-path="url(#a)" fill="#fff" stroke="#fff"/>
<g clip-path="url(#a)">
<g transform="translate(1274.1 609.46) rotate(60.532) scale(.08 -.08)">
<use xlink:href="#u"/>
</g>
</g>
<path d="m1054.3 804.55v33.808q0 2.4 2.4 2.4h7.7425q2.4 0 2.4-2.4v-33.808q0-2.4-2.4-2.4h-7.7425q-2.4 0-2.4 2.4z" clip-path="url(#a)" fill="#fff" stroke="#fff"/>
<g clip-path="url(#a)">
<g transform="translate(1058.3 804.55) rotate(90) scale(.08 -.08)">
<use xlink:href="#k"/>
<use x="44.083984" xlink:href="#d"/>
<use x="105.607422" xlink:href="#g"/>
<use x="144.970703" xlink:href="#l"/>
<use x="242.382812" xlink:href="#j"/>
<use x="270.166016" xlink:href="#h"/>
<use x="333.544922" xlink:href="#f"/>
<use x="394.824219" xlink:href="#i"/>
</g>
</g>
<path d="m1124.8 804.55v33.808q0 2.4 2.4 2.4h7.7425q2.4 0 2.4-2.4v-33.808q0-2.4-2.4-2.4h-7.7425q-2.4 0-2.4 2.4z" clip-path="url(#a)" fill="#fff" stroke="#fff"/>
<g clip-path="url(#a)">
<g transform="translate(1128.8 804.55) rotate(90) scale(.08 -.08)">
<use xlink:href="#k"/>
<use x="44.083984" xlink:href="#d"/>
<use x="105.607422" xlink:href="#g"/>
<use x="144.970703" xlink:href="#l"/>
<use x="242.382812" xlink:href="#j"/>
<use x="270.166016" xlink:href="#h"/>
<use x="333.544922" xlink:href="#f"/>
<use x="394.824219" xlink:href="#i"/>
</g>
</g>
<path d="m1228.2 685.65 1.3068-4.8832q0.62044-2.3184-1.698-2.9389l-7.4793-2.0016q-2.3184-0.62044-2.9389 1.698l-1.3068 4.8832q-0.62044 2.3184 1.698 2.9389l7.4793 2.0015q2.3184 0.62044 2.9389-1.698z" clip-path="url(#a)" fill="#fff" stroke="#fff"/>
<g clip-path="url(#a)">
<g transform="translate(1224.3 684.6) rotate(-75.018) scale(.08 -.08)">
<use xlink:href="#w"/>
</g>
</g>
<path d="m1253.7 680.51 1.4441 5.3964q0.62044 2.3184 2.9389 1.698l7.4793-2.0015q2.3184-0.62044 1.698-2.9389l-1.4441-5.3964q-0.62044-2.3184-2.9389-1.698l-7.4793 2.0015q-2.3184 0.62044-1.698 2.9389z" clip-path="url(#a)" fill="#fff" stroke="#fff"/>
<g clip-path="url(#a)">
<g transform="translate(1257.7 679.46) rotate(75.018) scale(.08 -.08)">
<use xlink:href="#u"/>
</g>
</g>
<path d="m1350.9 804.55v33.808q0 2.4 2.4 2.4h7.7425q2.4 0 2.4-2.4v-33.808q0-2.4-2.4-2.4h-7.7425q-2.4 0-2.4 2.4z" clip-path="url(#a)" fill="#fff" stroke="#fff"/>
<g clip-path="url(#a)">
<g transform="translate(1355 804.55) rotate(90) scale(.08 -.08)">
<use xlink:href="#k"/>
<use x="44.083984" xlink:href="#d"/>
<use x="105.607422" xlink:href="#g"/>
<use x="144.970703" xlink:href="#l"/>
<use x="242.382812" xlink:href="#j"/>
<use x="270.166016" xlink:href="#h"/>
<use x="333.544922" xlink:href="#f"/>
<use x="394.824219" xlink:href="#i"/>
</g>
</g>
<path d="m1197.7 804.55v33.808q0 2.4 2.4 2.4h7.7425q2.4 0 2.4-2.4v-33.808q0-2.4-2.4-2.4h-7.7425q-2.4 0-2.4 2.4z" clip-path="url(#a)" fill="#fff" stroke="#fff"/>
<g clip-path="url(#a)">
<g transform="translate(1201.8 804.55) rotate(90) scale(.08 -.08)">
<use xlink:href="#k"/>
<use x="44.083984" xlink:href="#d"/>
<use x="105.607422" xlink:href="#g"/>
<use x="144.970703" xlink:href="#l"/>
<use x="242.382812" xlink:href="#j"/>
<use x="270.166016" xlink:href="#h"/>
<use x="333.544922" xlink:href="#f"/>
<use x="394.824219" xlink:href="#i"/>
</g>
</g>
<path d="m1273.1 804.55v33.808q0 2.4 2.4 2.4h7.7425q2.4 0 2.4-2.4v-33.808q0-2.4-2.4-2.4h-7.7425q-2.4 0-2.4 2.4z" clip-path="url(#a)" fill="#fff" stroke="#fff"/>
<g clip-path="url(#a)">
<g transform="translate(1277.2 804.55) rotate(90) scale(.08 -.08)">
<use xlink:href="#k"/>
<use x="44.083984" xlink:href="#d"/>
<use x="105.607422" xlink:href="#g"/>
<use x="144.970703" xlink:href="#l"/>
<use x="242.382812" xlink:href="#j"/>
<use x="270.166016" xlink:href="#h"/>
<use x="333.544922" xlink:href="#f"/>
<use x="394.824219" xlink:href="#i"/>
</g>
</g>
<path d="m378.69 839.07 4.6888-33.481q0.33286-2.3768-2.044-2.7097l-7.6677-1.0738q-2.3768-0.33286-2.7097 2.044l-4.6888 33.481q-0.33286 2.3768 2.044 2.7097l7.6677 1.0738q2.3768 0.33286 2.7097-2.044z" clip-path="url(#a)" fill="#fff" stroke="#fff"/>
<g clip-path="url(#a)">
<g transform="translate(374.67 838.5) rotate(-82.028) scale(.08 -.08)">
<use xlink:href="#k"/>
<use x="44.083984" xlink:href="#d"/>
<use x="105.607422" xlink:href="#g"/>
<use x="144.970703" xlink:href="#l"/>
<use x="242.382812" xlink:href="#j"/>
<use x="270.166016" xlink:href="#h"/>
<use x="333.544922" xlink:href="#f"/>
<use x="394.824219" xlink:href="#i"/>
</g>
</g>
<path d="m385.72 805.59 4.6888 33.481q0.33286 2.3768 2.7097 2.044l7.6677-1.0738q2.3768-0.33286 2.044-2.7097l-4.6888-33.481q-0.33286-2.3768-2.7097-2.044l-7.6677 1.0738q-2.3768 0.33286-2.044 2.7097z" clip-path="url(#a)" fill="#fff" stroke="#fff"/>
<g clip-path="url(#a)">
<g transform="translate(389.75 805.02) rotate(82.028) scale(.08 -.08)">
<use xlink:href="#k"/>
<use x="44.083984" xlink:href="#d"/>
<use x="105.607422" xlink:href="#g"/>
<use x="144.970703" xlink:href="#l"/>
<use x="242.382812" xlink:href="#j"/>
<use x="270.166016" xlink:href="#h"/>
<use x="333.544922" xlink:href="#f"/>
<use x="394.824219" xlink:href="#i"/>
</g>
</g>
<path d="m439.07 804.55v33.808q0 2.4 2.4 2.4h7.7425q2.4 0 2.4-2.4v-33.808q0-2.4-2.4-2.4h-7.7425q-2.4 0-2.4 2.4z" clip-path="url(#a)" fill="#fff" stroke="#fff"/>
<g clip-path="url(#a)">
<g transform="translate(443.13 804.55) rotate(90) scale(.08 -.08)">
<use xlink:href="#k"/>
<use x="44.083984" xlink:href="#d"/>
<use x="105.607422" xlink:href="#g"/>
<use x="144.970703" xlink:href="#l"/>
<use x="242.382812" xlink:href="#j"/>
<use x="270.166016" xlink:href="#h"/>
<use x="333.544922" xlink:href="#f"/>
<use x="394.824219" xlink:href="#i"/>
</g>
</g>
<path d="m482.84 804.55v33.808q0 2.4 2.4 2.4h7.7425q2.4 0 2.4-2.4v-33.808q0-2.4-2.4-2.4h-7.7425q-2.4 0-2.4 2.4z" clip-path="url(#a)" fill="#fff" stroke="#fff"/>
<g clip-path="url(#a)">
<g transform="translate(486.9 804.55) rotate(90) scale(.08 -.08)">
<use xlink:href="#k"/>
<use x="44.083984" xlink:href="#d"/>
<use x="105.607422" xlink:href="#g"/>
<use x="144.970703" xlink:href="#l"/>
<use x="242.382812" xlink:href="#j"/>
<use x="270.166016" xlink:href="#h"/>
<use x="333.544922" xlink:href="#f"/>
<use x="394.824219" xlink:href="#i"/>
</g>
</g>
<path d="m582.94 614.8 1.3199-4.4079q0.68845-2.2991-1.6107-2.9876l-7.4171-2.221q-2.2991-0.68845-2.9876 1.6107l-1.3199 4.4079q-0.68845 2.2991 1.6107 2.9876l7.4171 2.221q2.2991 0.68845 2.9876-1.6107z" clip-path="url(#a)" fill="#fff" stroke="#fff"/>
<g clip-path="url(#a)">
<g transform="translate(579.04 613.64) rotate(-73.33) scale(.08 -.08)">
<use xlink:href="#aj"/>
</g>
</g>
<path d="m621.33 538.57 0.56558 5.0233q0.26853 2.3849 2.6535 2.1164l7.6939-0.86628q2.3849-0.26852 2.1164-2.6535l-0.56558-5.0233q-0.26853-2.3849-2.6535-2.1164l-7.6939 0.86628q-2.3849 0.26853-2.1164 2.6535z" clip-path="url(#a)" fill="#fff" stroke="#fff"/>
<g clip-path="url(#a)">
<g transform="translate(625.36 538.12) rotate(83.576) scale(.08 -.08)">
<use xlink:href="#w"/>
</g>
</g>
<path d="m647.43 609.57 1.319 5.4283q0.5667 2.3321 2.8988 1.7654l7.5236-1.8282q2.3321-0.5667 1.7654-2.8988l-1.319-5.4283q-0.5667-2.3321-2.8988-1.7654l-7.5236 1.8282q-2.3321 0.5667-1.7654 2.8988z" clip-path="url(#a)" fill="#fff" stroke="#fff"/>
<g clip-path="url(#a)">
<g transform="translate(651.38 608.61) rotate(76.342) scale(.08 -.08)">
<use xlink:href="#u"/>
</g>
</g>
<path d="m764.59 685.58 1.1277-5.4432q0.4869-2.3501-1.8632-2.837l-7.5815-1.5708q-2.3501-0.4869-2.837 1.8632l-1.1277 5.4432q-0.4869 2.3501 1.8632 2.837l7.5815 1.5708q2.3501 0.4869 2.837-1.8632z" clip-path="url(#a)" fill="#fff" stroke="#fff"/>
<g clip-path="url(#a)">
<g transform="translate(760.61 684.76) rotate(-78.295) scale(.08 -.08)">
<defs>
<path id="ai" d="m44.391 34.188q3.1719-1.0781 6.1719-4.5938t6.0312-9.6719l10.016-19.922h-10.609l-9.3125 18.703q-3.625 7.3281-7.0156 9.7188t-9.25 2.3906h-10.75v-30.812h-9.8594v72.906h22.266q12.5 0 18.656-5.2344 6.1562-5.2188 6.1562-15.766 0-6.8906-3.2031-11.438-3.2031-4.5312-9.2969-6.2812zm-24.719 30.609v-25.875h12.406q7.125 0 10.766 3.2969t3.6406 9.6875-3.6406 9.6406-10.766 3.25z"/>
</defs>
<use xlink:href="#ai"/>
</g>
</g>
<path d="m781.48 680.13 1.1333 5.4701q0.4869 2.3501 2.837 1.8632l7.5815-1.5708q2.3501-0.4869 1.8632-2.837l-1.1333-5.4701q-0.4869-2.3501-2.837-1.8632l-7.5815 1.5708q-2.3501 0.4869-1.8632 2.837z" clip-path="url(#a)" fill="#fff" stroke="#fff"/>
<g clip-path="url(#a)">
<g transform="translate(785.46 679.3) rotate(78.295) scale(.08 -.08)">
<use xlink:href="#u"/>
</g>
</g>
<path d="m738.15 804.55v33.808q0 2.4 2.4 2.4h7.7425q2.4 0 2.4-2.4v-33.808q0-2.4-2.4-2.4h-7.7425q-2.4 0-2.4 2.4z" clip-path="url(#a)" fill="#fff" stroke="#fff"/>
<g clip-path="url(#a)">
<g transform="translate(742.21 804.55) rotate(90) scale(.08 -.08)">
<use xlink:href="#k"/>
<use x="44.083984" xlink:href="#d"/>
<use x="105.607422" xlink:href="#g"/>
<use x="144.970703" xlink:href="#l"/>
<use x="242.382812" xlink:href="#j"/>
<use x="270.166016" xlink:href="#h"/>
<use x="333.544922" xlink:href="#f"/>
<use x="394.824219" xlink:href="#i"/>
</g>
</g>
<path d="m796.51 804.55v33.808q0 2.4 2.4 2.4h7.7425q2.4 0 2.4-2.4v-33.808q0-2.4-2.4-2.4h-7.7425q-2.4 0-2.4 2.4z" clip-path="url(#a)" fill="#fff" stroke="#fff"/>
<g clip-path="url(#a)">
<g transform="translate(800.57 804.55) rotate(90) scale(.08 -.08)">
<use xlink:href="#k"/>
<use x="44.083984" xlink:href="#d"/>
<use x="105.607422" xlink:href="#g"/>
<use x="144.970703" xlink:href="#l"/>
<use x="242.382812" xlink:href="#j"/>
<use x="270.166016" xlink:href="#h"/>
<use x="333.544922" xlink:href="#f"/>
<use x="394.824219" xlink:href="#i"/>
</g>
</g>
<path d="m529.04 804.55v33.808q0 2.4 2.4 2.4h7.7425q2.4 0 2.4-2.4v-33.808q0-2.4-2.4-2.4h-7.7425q-2.4 0-2.4 2.4z" clip-path="url(#a)" fill="#fff" stroke="#fff"/>
<g clip-path="url(#a)">
<g transform="translate(533.1 804.55) rotate(90) scale(.08 -.08)">
<use xlink:href="#k"/>
<use x="44.083984" xlink:href="#d"/>
<use x="105.607422" xlink:href="#g"/>
<use x="144.970703" xlink:href="#l"/>
<use x="242.382812" xlink:href="#j"/>
<use x="270.166016" xlink:href="#h"/>
<use x="333.544922" xlink:href="#f"/>
<use x="394.824219" xlink:href="#i"/>
</g>
</g>
<path d="m655.32 681.22 1.9174 5.1256q0.84088 2.2479 3.0888 1.407l7.2517-2.7127q2.2479-0.84088 1.407-3.0888l-1.9174-5.1256q-0.84088-2.2479-3.0888-1.407l-7.2517 2.7127q-2.2479 0.84088-1.407 3.0888z" clip-path="url(#a)" fill="#fff" stroke="#fff"/>
<g clip-path="url(#a)">
<g transform="translate(659.13 679.8) rotate(69.49) scale(.08 -.08)">
<use xlink:href="#q"/>
</g>
</g>
<path d="m614.69 686.65 2.1291-5.7804q0.8295-2.2521-1.4226-3.0816l-7.2653-2.676q-2.2521-0.8295-3.0816 1.4226l-2.1291 5.7804q-0.8295 2.2521 1.4226 3.0816l7.2653 2.676q2.2521 0.8295 3.0816-1.4226z" clip-path="url(#a)" fill="#fff" stroke="#fff"/>
<g clip-path="url(#a)">
<g transform="translate(610.88 685.24) rotate(-69.78) scale(.08 -.08)">
<use xlink:href="#ao"/>
</g>
</g>
<path d="m641.66 684.16 0.029228-5.0787q0.013812-2.4-2.3861-2.4138l-7.7424-0.044558q-2.4-0.013812-2.4138 2.3861l-0.029228 5.0787q-0.013812 2.4 2.3861 2.4138l7.7424 0.044558q2.4 0.013812 2.4138-2.3861z" clip-path="url(#a)" fill="#fff" stroke="#fff"/>
<g clip-path="url(#a)">
<g transform="translate(637.6 684.14) rotate(-89.67) scale(.08 -.08)">
<use xlink:href="#v"/>
</g>
</g>
<path d="m682.22 804.55v33.808q0 2.4 2.4 2.4h7.7425q2.4 0 2.4-2.4v-33.808q0-2.4-2.4-2.4h-7.7425q-2.4 0-2.4 2.4z" clip-path="url(#a)" fill="#fff" stroke="#fff"/>
<g clip-path="url(#a)">
<g transform="translate(686.29 804.55) rotate(90) scale(.08 -.08)">
<use xlink:href="#k"/>
<use x="44.083984" xlink:href="#d"/>
<use x="105.607422" xlink:href="#g"/>
<use x="144.970703" xlink:href="#l"/>
<use x="242.382812" xlink:href="#j"/>
<use x="270.166016" xlink:href="#h"/>
<use x="333.544922" xlink:href="#f"/>
<use x="394.824219" xlink:href="#i"/>
</g>
</g>
<path d="m577.67 804.55v33.808q0 2.4 2.4 2.4h7.7425q2.4 0 2.4-2.4v-33.808q0-2.4-2.4-2.4h-7.7425q-2.4 0-2.4 2.4z" clip-path="url(#a)" fill="#fff" stroke="#fff"/>
<g clip-path="url(#a)">
<g transform="translate(581.73 804.55) rotate(90) scale(.08 -.08)">
<use xlink:href="#k"/>
<use x="44.083984" xlink:href="#d"/>
<use x="105.607422" xlink:href="#g"/>
<use x="144.970703" xlink:href="#l"/>
<use x="242.382812" xlink:href="#j"/>
<use x="270.166016" xlink:href="#h"/>
<use x="333.544922" xlink:href="#f"/>
<use x="394.824219" xlink:href="#i"/>
</g>
</g>
<path d="m628.73 804.55v33.808q0 2.4 2.4 2.4h7.7425q2.4 0 2.4-2.4v-33.808q0-2.4-2.4-2.4h-7.7425q-2.4 0-2.4 2.4z" clip-path="url(#a)" fill="#fff" stroke="#fff"/>
<g clip-path="url(#a)">
<g transform="translate(632.79 804.55) rotate(90) scale(.08 -.08)">
<use xlink:href="#k"/>
<use x="44.083984" xlink:href="#d"/>
<use x="105.607422" xlink:href="#g"/>
<use x="144.970703" xlink:href="#l"/>
<use x="242.382812" xlink:href="#j"/>
<use x="270.166016" xlink:href="#h"/>
<use x="333.544922" xlink:href="#f"/>
<use x="394.824219" xlink:href="#i"/>
</g>
</g>
<path d="m74.335 804.55v33.808q0 2.4 2.4 2.4h7.7425q2.4 0 2.4-2.4v-33.808q0-2.4-2.4-2.4h-7.7425q-2.4 0-2.4 2.4z" clip-path="url(#a)" fill="#fff" stroke="#fff"/>
<g clip-path="url(#a)">
<g transform="translate(78.399 804.55) rotate(90) scale(.08 -.08)">
<use xlink:href="#k"/>
<use x="44.083984" xlink:href="#d"/>
<use x="105.607422" xlink:href="#g"/>
<use x="144.970703" xlink:href="#l"/>
<use x="242.382812" xlink:href="#j"/>
<use x="270.166016" xlink:href="#h"/>
<use x="333.544922" xlink:href="#f"/>
<use x="394.824219" xlink:href="#i"/>
</g>
</g>
<path d="m81.629 804.55v33.808q0 2.4 2.4 2.4h7.7425q2.4 0 2.4-2.4v-33.808q0-2.4-2.4-2.4h-7.7425q-2.4 0-2.4 2.4z" clip-path="url(#a)" fill="#fff" stroke="#fff"/>
<g clip-path="url(#a)">
<g transform="translate(85.693 804.55) rotate(90) scale(.08 -.08)">
<use xlink:href="#k"/>
<use x="44.083984" xlink:href="#d"/>
<use x="105.607422" xlink:href="#g"/>
<use x="144.970703" xlink:href="#l"/>
<use x="242.382812" xlink:href="#j"/>
<use x="270.166016" xlink:href="#h"/>
<use x="333.544922" xlink:href="#f"/>
<use x="394.824219" xlink:href="#i"/>
</g>
</g>
<path d="m110.07 685.3 0.57744-6.271q0.22006-2.3899-2.1698-2.61l-7.7099-0.70994q-2.3899-0.22006-2.61 2.1698l-0.57744 6.271q-0.22006 2.3899 2.1698 2.61l7.7099 0.70994q2.3899 0.22006 2.61-2.1698z" clip-path="url(#a)" fill="#fff" stroke="#fff"/>
<g clip-path="url(#a)">
<g transform="translate(106.02 684.93) rotate(-84.739) scale(.08 -.08)">
<defs>
<path id="ar" d="m39.406 66.219q-10.75 0-17.078-8.0156-6.3125-8-6.3125-21.828 0-13.766 6.3125-21.781 6.3281-8 17.078-8 10.734 0 17.016 8 6.2812 8.0156 6.2812 21.781 0 13.828-6.2812 21.828-6.2812 8.0156-17.016 8.0156zm13.812-64.906 13-14.203h-11.922l-10.797 11.672q-1.6094-0.09375-2.4688-0.14062-0.84375-0.0625-1.625-0.0625-15.375 0-24.594 10.281-9.2031 10.281-9.2031 27.516 0 17.281 9.2031 27.562 9.2188 10.281 24.594 10.281 15.328 0 24.5-10.281 9.1875-10.281 9.1875-27.562 0-12.688-5.1094-21.734-5.0938-9.0312-14.766-13.328z"/>
</defs>
<use xlink:href="#ar"/>
</g>
</g>
<path d="m116.45 684.4 0.031991-5.5587q0.013812-2.4-2.3861-2.4138l-7.7424-0.044558q-2.4-0.013812-2.4138 2.3861l-0.03199 5.5587q-0.013812 2.4 2.3861 2.4138l7.7424 0.044558q2.4 0.013812 2.4138-2.3861z" clip-path="url(#a)" fill="#fff" stroke="#fff"/>
<g clip-path="url(#a)">
<g transform="translate(112.38 684.38) rotate(-89.67) scale(.08 -.08)">
<use xlink:href="#ai"/>
</g>
</g>
<path d="m110.97 679.42 0.54394 5.5597q0.23369 2.3886 2.6223 2.1549l7.7057-0.7539q2.3886-0.23369 2.1549-2.6223l-0.54394-5.5597q-0.23369-2.3886-2.6223-2.1549l-7.7057 0.7539q-2.3886 0.23369-2.1549 2.6223z" clip-path="url(#a)" fill="#fff" stroke="#fff"/>
<g clip-path="url(#a)">
<g transform="translate(115.02 679.02) rotate(84.412) scale(.08 -.08)">
<use xlink:href="#u"/>
</g>
</g>
<path d="m167.24 543.13 0.51785-5.5346q0.22358-2.3896-2.166-2.6131l-7.7088-0.72128q-2.3896-0.22358-2.6131 2.166l-0.51785 5.5346q-0.22358 2.3896 2.166 2.6131l7.7088 0.72128q2.3896 0.22358 2.6131-2.166z" clip-path="url(#a)" fill="#fff" stroke="#fff"/>
<g clip-path="url(#a)">
<g transform="translate(163.19 542.75) rotate(-84.655) scale(.08 -.08)">
<use xlink:href="#ai"/>
</g>
</g>
<path d="m177.11 542.81 0.26095-5.4663q0.11444-2.3973-2.2828-2.5117l-7.7337-0.36919q-2.3973-0.11444-2.5117 2.2828l-0.26095 5.4663q-0.11444 2.3973 2.2828 2.5117l7.7337 0.36919q2.3973 0.11444 2.5117-2.2828z" clip-path="url(#a)" fill="#fff" stroke="#fff"/>
<g clip-path="url(#a)">
<g transform="translate(173.05 542.61) rotate(-87.267) scale(.08 -.08)">
<use xlink:href="#q"/>
</g>
</g>
<path d="m175.64 537.26 0.019395 5.0787q0.009166 2.4 2.4091 2.3908l7.7424-0.029568q2.4-0.009166 2.3908-2.4091l-0.019396-5.0787q-0.009165-2.4-2.4091-2.3908l-7.7424 0.029568q-2.4 0.009166-2.3908 2.4091z" clip-path="url(#a)" fill="#fff" stroke="#fff"/>
<g clip-path="url(#a)">
<g transform="translate(179.7 537.24) rotate(89.781) scale(.08 -.08)">
<use xlink:href="#v"/>
</g>
</g>
<path d="m203.45 398.42 2.0795 5.062q0.91198 2.22 3.132 1.308l7.1617-2.9421q2.22-0.91198 1.308-3.132l-2.0795-5.062q-0.91198-2.22-3.132-1.308l-7.1617 2.9421q-2.22 0.91198-1.308 3.132z" clip-path="url(#a)" fill="#fff" stroke="#fff"/>
<g clip-path="url(#a)">
<g transform="translate(207.21 396.88) rotate(67.667) scale(.08 -.08)">
<use xlink:href="#q"/>
</g>
</g>
<path d="m135.12 804.55v33.808q0 2.4 2.4 2.4h7.7425q2.4 0 2.4-2.4v-33.808q0-2.4-2.4-2.4h-7.7425q-2.4 0-2.4 2.4z" clip-path="url(#a)" fill="#fff" stroke="#fff"/>
<g clip-path="url(#a)">
<g transform="translate(139.19 804.55) rotate(90) scale(.08 -.08)">
<use xlink:href="#k"/>
<use x="44.083984" xlink:href="#d"/>
<use x="105.607422" xlink:href="#g"/>
<use x="144.970703" xlink:href="#l"/>
<use x="242.382812" xlink:href="#j"/>
<use x="270.166016" xlink:href="#h"/>
<use x="333.544922" xlink:href="#f"/>
<use x="394.824219" xlink:href="#i"/>
</g>
</g>
<path d="m154.58 804.55v33.808q0 2.4 2.4 2.4h7.7425q2.4 0 2.4-2.4v-33.808q0-2.4-2.4-2.4h-7.7425q-2.4 0-2.4 2.4z" clip-path="url(#a)" fill="#fff" stroke="#fff"/>
<g clip-path="url(#a)">
<g transform="translate(158.64 804.55) rotate(90) scale(.08 -.08)">
<use xlink:href="#k"/>
<use x="44.083984" xlink:href="#d"/>
<use x="105.607422" xlink:href="#g"/>
<use x="144.970703" xlink:href="#l"/>
<use x="242.382812" xlink:href="#j"/>
<use x="270.166016" xlink:href="#h"/>
<use x="333.544922" xlink:href="#f"/>
<use x="394.824219" xlink:href="#i"/>
</g>
</g>
<path d="m176.46 804.55v33.808q0 2.4 2.4 2.4h7.7425q2.4 0 2.4-2.4v-33.808q0-2.4-2.4-2.4h-7.7425q-2.4 0-2.4 2.4z" clip-path="url(#a)" fill="#fff" stroke="#fff"/>
<g clip-path="url(#a)">
<g transform="translate(180.52 804.55) rotate(90) scale(.08 -.08)">
<use xlink:href="#k"/>
<use x="44.083984" xlink:href="#d"/>
<use x="105.607422" xlink:href="#g"/>
<use x="144.970703" xlink:href="#l"/>
<use x="242.382812" xlink:href="#j"/>
<use x="270.166016" xlink:href="#h"/>
<use x="333.544922" xlink:href="#f"/>
<use x="394.824219" xlink:href="#i"/>
</g>
</g>
<path d="m229.23 613.8 0.52478-4.5712q0.27372-2.3843-2.1106-2.6581l-7.692-0.88304q-2.3843-0.27372-2.6581 2.1106l-0.52478 4.5712q-0.27372 2.3843 2.1106 2.6581l7.692 0.88304q2.3843 0.27372 2.6581-2.1106z" clip-path="url(#a)" fill="#fff" stroke="#fff"/>
<g clip-path="url(#a)">
<g transform="translate(225.19 613.34) rotate(-83.451) scale(.08 -.08)">
<use xlink:href="#aj"/>
</g>
</g>
<path d="m237.51 538.26 0.31771 5.045q0.15084 2.3953 2.5461 2.2444l7.7272-0.48662q2.3953-0.15084 2.2444-2.5461l-0.31771-5.045q-0.15084-2.3953-2.5461-2.2444l-7.7272 0.48662q-2.3953 0.15084-2.2444 2.5461z" clip-path="url(#a)" fill="#fff" stroke="#fff"/>
<g clip-path="url(#a)">
<g transform="translate(241.56 538) rotate(86.397) scale(.08 -.08)">
<use xlink:href="#w"/>
</g>
</g>
<path d="m244.74 608.54 0.46334 5.567q0.19906 2.3917 2.5908 2.1927l7.7158-0.64219q2.3917-0.19906 2.1927-2.5908l-0.46334-5.567q-0.19906-2.3917-2.5908-2.1927l-7.7158 0.64219q-2.3917 0.19906-2.1927 2.5908z" clip-path="url(#a)" fill="#fff" stroke="#fff"/>
<g clip-path="url(#a)">
<g transform="translate(248.79 608.2) rotate(85.242) scale(.08 -.08)">
<use xlink:href="#u"/>
</g>
</g>
<path d="m200.78 804.55v33.808q0 2.4 2.4 2.4h7.7425q2.4 0 2.4-2.4v-33.808q0-2.4-2.4-2.4h-7.7425q-2.4 0-2.4 2.4z" clip-path="url(#a)" fill="#fff" stroke="#fff"/>
<g clip-path="url(#a)">
<g transform="translate(204.84 804.55) rotate(90) scale(.08 -.08)">
<use xlink:href="#k"/>
<use x="44.083984" xlink:href="#d"/>
<use x="105.607422" xlink:href="#g"/>
<use x="144.970703" xlink:href="#l"/>
<use x="242.382812" xlink:href="#j"/>
<use x="270.166016" xlink:href="#h"/>
<use x="333.544922" xlink:href="#f"/>
<use x="394.824219" xlink:href="#i"/>
</g>
</g>
<path d="m249.16 679.51 0.56389 5.4434q0.2473 2.3872 2.6345 2.1399l7.7013-0.79779q2.3872-0.2473 2.1399-2.6345l-0.56389-5.4434q-0.2473-2.3872-2.6345-2.1399l-7.7013 0.79779q-2.3872 0.2473-2.1399 2.6345z" clip-path="url(#a)" fill="#fff" stroke="#fff"/>
<g clip-path="url(#a)">
<g transform="translate(253.2 679.09) rotate(84.086) scale(.08 -.08)">
<use xlink:href="#q"/>
</g>
</g>
<path d="m247.06 684.76 0.52332-5.0517q0.2473-2.3872-2.1399-2.6345l-7.7013-0.79779q-2.3872-0.2473-2.6345 2.1399l-0.52332 5.0517q-0.2473 2.3872 2.1399 2.6345l7.7013 0.79779q2.3872 0.2473 2.6345-2.1399z" clip-path="url(#a)" fill="#fff" stroke="#fff"/>
<g clip-path="url(#a)">
<g transform="translate(243.02 684.34) rotate(-84.086) scale(.08 -.08)">
<use xlink:href="#v"/>
</g>
</g>
<path d="m256.7 804.55v33.808q0 2.4 2.4 2.4h7.7425q2.4 0 2.4-2.4v-33.808q0-2.4-2.4-2.4h-7.7425q-2.4 0-2.4 2.4z" clip-path="url(#a)" fill="#fff" stroke="#fff"/>
<g clip-path="url(#a)">
<g transform="translate(260.77 804.55) rotate(90) scale(.08 -.08)">
<use xlink:href="#k"/>
<use x="44.083984" xlink:href="#d"/>
<use x="105.607422" xlink:href="#g"/>
<use x="144.970703" xlink:href="#l"/>
<use x="242.382812" xlink:href="#j"/>
<use x="270.166016" xlink:href="#h"/>
<use x="333.544922" xlink:href="#f"/>
<use x="394.824219" xlink:href="#i"/>
</g>
</g>
<path d="m227.52 804.55v33.808q0 2.4 2.4 2.4h7.7425q2.4 0 2.4-2.4v-33.808q0-2.4-2.4-2.4h-7.7425q-2.4 0-2.4 2.4z" clip-path="url(#a)" fill="#fff" stroke="#fff"/>
<g clip-path="url(#a)">
<g transform="translate(231.59 804.55) rotate(90) scale(.08 -.08)">
<use xlink:href="#k"/>
<use x="44.083984" xlink:href="#d"/>
<use x="105.607422" xlink:href="#g"/>
<use x="144.970703" xlink:href="#l"/>
<use x="242.382812" xlink:href="#j"/>
<use x="270.166016" xlink:href="#h"/>
<use x="333.544922" xlink:href="#f"/>
<use x="394.824219" xlink:href="#i"/>
</g>
</g>
<path d="m91.356 804.55v33.808q0 2.4 2.4 2.4h7.7425q2.4 0 2.4-2.4v-33.808q0-2.4-2.4-2.4h-7.7425q-2.4 0-2.4 2.4z" clip-path="url(#a)" fill="#fff" stroke="#fff"/>
<g clip-path="url(#a)">
<g transform="translate(95.419 804.55) rotate(90) scale(.08 -.08)">
<use xlink:href="#k"/>
<use x="44.083984" xlink:href="#d"/>
<use x="105.607422" xlink:href="#g"/>
<use x="144.970703" xlink:href="#l"/>
<use x="242.382812" xlink:href="#j"/>
<use x="270.166016" xlink:href="#h"/>
<use x="333.544922" xlink:href="#f"/>
<use x="394.824219" xlink:href="#i"/>
</g>
</g>
<path d="m103.51 804.55v33.808q0 2.4 2.4 2.4h7.7425q2.4 0 2.4-2.4v-33.808q0-2.4-2.4-2.4h-7.7425q-2.4 0-2.4 2.4z" clip-path="url(#a)" fill="#fff" stroke="#fff"/>
<g clip-path="url(#a)">
<g transform="translate(107.58 804.55) rotate(90) scale(.08 -.08)">
<use xlink:href="#k"/>
<use x="44.083984" xlink:href="#d"/>
<use x="105.607422" xlink:href="#g"/>
<use x="144.970703" xlink:href="#l"/>
<use x="242.382812" xlink:href="#j"/>
<use x="270.166016" xlink:href="#h"/>
<use x="333.544922" xlink:href="#f"/>
<use x="394.824219" xlink:href="#i"/>
</g>
</g>
<path d="m118.1 804.55v33.808q0 2.4 2.4 2.4h7.7425q2.4 0 2.4-2.4v-33.808q0-2.4-2.4-2.4h-7.7425q-2.4 0-2.4 2.4z" clip-path="url(#a)" fill="#fff" stroke="#fff"/>
<g clip-path="url(#a)">
<g transform="translate(122.17 804.55) rotate(90) scale(.08 -.08)">
<use xlink:href="#k"/>
<use x="44.083984" xlink:href="#d"/>
<use x="105.607422" xlink:href="#g"/>
<use x="144.970703" xlink:href="#l"/>
<use x="242.382812" xlink:href="#j"/>
<use x="270.166016" xlink:href="#h"/>
<use x="333.544922" xlink:href="#f"/>
<use x="394.824219" xlink:href="#i"/>
</g>
</g>
<path d="m288.31 804.55v33.808q0 2.4 2.4 2.4h7.7425q2.4 0 2.4-2.4v-33.808q0-2.4-2.4-2.4h-7.7425q-2.4 0-2.4 2.4z" clip-path="url(#a)" fill="#fff" stroke="#fff"/>
<g clip-path="url(#a)">
<g transform="translate(292.38 804.55) rotate(90) scale(.08 -.08)">
<use xlink:href="#k"/>
<use x="44.083984" xlink:href="#d"/>
<use x="105.607422" xlink:href="#g"/>
<use x="144.970703" xlink:href="#l"/>
<use x="242.382812" xlink:href="#j"/>
<use x="270.166016" xlink:href="#h"/>
<use x="333.544922" xlink:href="#f"/>
<use x="394.824219" xlink:href="#i"/>
</g>
</g>
<path d="m857.3 804.55v33.808q0 2.4 2.4 2.4h7.7425q2.4 0 2.4-2.4v-33.808q0-2.4-2.4-2.4h-7.7425q-2.4 0-2.4 2.4z" clip-path="url(#a)" fill="#fff" stroke="#fff"/>
<g clip-path="url(#a)">
<g transform="translate(861.36 804.55) rotate(90) scale(.08 -.08)">
<use xlink:href="#k"/>
<use x="44.083984" xlink:href="#d"/>
<use x="105.607422" xlink:href="#g"/>
<use x="144.970703" xlink:href="#l"/>
<use x="242.382812" xlink:href="#j"/>
<use x="270.166016" xlink:href="#h"/>
<use x="333.544922" xlink:href="#f"/>
<use x="394.824219" xlink:href="#i"/>
</g>
</g>
<path d="m1686.5 804.55v33.808q0 2.4 2.4 2.4h7.7425q2.4 0 2.4-2.4v-33.808q0-2.4-2.4-2.4h-7.7425q-2.4 0-2.4 2.4z" clip-path="url(#a)" fill="#fff" stroke="#fff"/>
<g clip-path="url(#a)">
<g transform="translate(1690.5 804.55) rotate(90) scale(.08 -.08)">
<use xlink:href="#k"/>
<use x="44.083984" xlink:href="#d"/>
<use x="105.607422" xlink:href="#g"/>
<use x="144.970703" xlink:href="#l"/>
<use x="242.382812" xlink:href="#j"/>
<use x="270.166016" xlink:href="#h"/>
<use x="333.544922" xlink:href="#f"/>
<use x="394.824219" xlink:href="#i"/>
</g>
</g>
<defs>
<path id="b" d="m0 8.6603c2.2967 0 4.4997-0.9125 6.1237-2.5365 1.624-1.624 2.5365-3.827 2.5365-6.1237s-0.9125-4.4997-2.5365-6.1237c-1.624-1.624-3.827-2.5365-6.1237-2.5365s-4.4997 0.9125-6.1237 2.5365c-1.624 1.624-2.5365 3.827-2.5365 6.1237s0.9125 4.4997 2.5365 6.1237c1.624 1.624 3.827 2.5365 6.1237 2.5365z"/>
</defs>
<g clip-path="url(#a)" fill="#ffffff" stroke="#ffffff">
<use x="80.606061" y="890.909091" xlink:href="#b"/>
<use x="87.900727" y="890.909091" xlink:href="#b"/>
<use x="97.626948" y="890.909091" xlink:href="#b"/>
<use x="109.784725" y="890.909091" xlink:href="#b"/>
<use x="124.374057" y="890.909091" xlink:href="#b"/>
<use x="141.394945" y="890.909091" xlink:href="#b"/>
<use x="160.847388" y="890.909091" xlink:href="#b"/>
<use x="182.731386" y="890.909091" xlink:href="#b"/>
<use x="207.04694" y="890.909091" xlink:href="#b"/>
<use x="233.794049" y="890.909091" xlink:href="#b"/>
<use x="262.972714" y="890.909091" xlink:href="#b"/>
<use x="294.582933" y="890.909091" xlink:href="#b"/>
<use x="328.624709" y="890.909091" xlink:href="#b"/>
<use x="365.098039" y="890.909091" xlink:href="#b"/>
<use x="404.002925" y="890.909091" xlink:href="#b"/>
<use x="445.339367" y="890.909091" xlink:href="#b"/>
<use x="489.107363" y="890.909091" xlink:href="#b"/>
<use x="535.306915" y="890.909091" xlink:href="#b"/>
<use x="583.938023" y="890.909091" xlink:href="#b"/>
<use x="635.000686" y="890.909091" xlink:href="#b"/>
<use x="688.494904" y="890.909091" xlink:href="#b"/>
<use x="744.420677" y="890.909091" xlink:href="#b"/>
<use x="802.778006" y="890.909091" xlink:href="#b"/>
<use x="863.566891" y="890.909091" xlink:href="#b"/>
<use x="926.78733" y="890.909091" xlink:href="#b"/>
<use x="992.439325" y="890.909091" xlink:href="#b"/>
<use x="1060.522876" y="890.909091" xlink:href="#b"/>
<use x="1131.037982" y="890.909091" xlink:href="#b"/>
<use x="1203.984643" y="890.909091" xlink:href="#b"/>
<use x="1279.362859" y="890.909091" xlink:href="#b"/>
<use x="1357.172631" y="890.909091" xlink:href="#b"/>
<use x="1437.413959" y="890.909091" xlink:href="#b"/>
<use x="1520.086841" y="890.909091" xlink:href="#b"/>
<use x="1605.191279" y="890.909091" xlink:href="#b"/>
<use x="1692.727273" y="890.909091" xlink:href="#b"/>
<use x="739.98731" y="42.424242" xlink:href="#b"/>
<use x="115.053095" y="185.126352" xlink:href="#b"/>
<use x="328.624709" y="752.006186" xlink:href="#b"/>
<use x="542.493512" y="327.541422" xlink:href="#b"/>
<use x="1038.942822" y="327.541422" xlink:href="#b"/>
<use x="1437.413959" y="752.006186" xlink:href="#b"/>
<use x="1299.220562" y="469.597123" xlink:href="#b"/>
<use x="1606.001798" y="611.170989" xlink:href="#b"/>
<use x="1520.086841" y="752.006186" xlink:href="#b"/>
<use x="1605.191279" y="752.006186" xlink:href="#b"/>
<use x="926.78733" y="752.006186" xlink:href="#b"/>
<use x="992.439325" y="752.006186" xlink:href="#b"/>
<use x="1197.60181" y="469.597123" xlink:href="#b"/>
<use x="1060.522876" y="752.006186" xlink:href="#b"/>
<use x="1131.037982" y="752.006186" xlink:href="#b"/>
<use x="1241.673751" y="611.170989" xlink:href="#b"/>
<use x="1357.172631" y="752.006186" xlink:href="#b"/>
<use x="1203.984643" y="752.006186" xlink:href="#b"/>
<use x="1279.362859" y="752.006186" xlink:href="#b"/>
<use x="384.550482" y="752.006186" xlink:href="#b"/>
<use x="445.339367" y="752.006186" xlink:href="#b"/>
<use x="489.107363" y="752.006186" xlink:href="#b"/>
<use x="619.871008" y="469.597123" xlink:href="#b"/>
<use x="773.599342" y="611.170989" xlink:href="#b"/>
<use x="744.420677" y="752.006186" xlink:href="#b"/>
<use x="802.778006" y="752.006186" xlink:href="#b"/>
<use x="535.306915" y="752.006186" xlink:href="#b"/>
<use x="635.811204" y="611.170989" xlink:href="#b"/>
<use x="688.494904" y="752.006186" xlink:href="#b"/>
<use x="583.938023" y="752.006186" xlink:href="#b"/>
<use x="635.000686" y="752.006186" xlink:href="#b"/>
<use x="80.606061" y="752.006186" xlink:href="#b"/>
<use x="87.900727" y="752.006186" xlink:href="#b"/>
<use x="110.595244" y="611.170989" xlink:href="#b"/>
<use x="181.110349" y="327.541422" xlink:href="#b"/>
<use x="141.394945" y="752.006186" xlink:href="#b"/>
<use x="160.847388" y="752.006186" xlink:href="#b"/>
<use x="182.731386" y="752.006186" xlink:href="#b"/>
<use x="239.467678" y="469.597123" xlink:href="#b"/>
<use x="207.04694" y="752.006186" xlink:href="#b"/>
<use x="248.383381" y="611.170989" xlink:href="#b"/>
<use x="262.972714" y="752.006186" xlink:href="#b"/>
<use x="233.794049" y="752.006186" xlink:href="#b"/>
<use x="97.626948" y="752.006186" xlink:href="#b"/>
<use x="109.784725" y="752.006186" xlink:href="#b"/>
<use x="124.374057" y="752.006186" xlink:href="#b"/>
<use x="294.582933" y="752.006186" xlink:href="#b"/>
<use x="863.566891" y="752.006186" xlink:href="#b"/>
<use x="1692.727273" y="752.006186" xlink:href="#b"/>
</g>
<g clip-path="url(#a)">
<g transform="translate(68.347 893.67) scale(.1 -.1)">
<defs>
<path id="s" d="m54.891 33.016v-33.016h-8.9844v32.719q0 7.7656-3.0312 11.609-3.0312 3.8594-9.0781 3.8594-7.2812 0-11.484-4.6406-4.2031-4.625-4.2031-12.641v-30.906h-9.0312v75.984h9.0312v-29.797q3.2344 4.9375 7.5938 7.375 4.375 2.4375 10.094 2.4375 9.4219 0 14.25-5.8281 4.8438-5.8281 4.8438-17.156z"/>
<path id="aa" d="m32.172-5.0781q-3.7969-9.7656-7.4219-12.734-3.6094-2.9844-9.6562-2.9844h-7.1875v7.5156h5.2812q3.7031 0 5.75 1.7656 2.0625 1.75 4.5469 8.2969l1.6094 4.0938-22.109 53.812h9.5156l17.094-42.766 17.094 42.766h9.5156z"/>
</defs>
<use xlink:href="#k"/>
<use x="61.083984" xlink:href="#s"/>
<use x="124.462891" xlink:href="#d"/>
<use x="185.986328" xlink:href="#aa"/>
</g>
</g>
<g clip-path="url(#a)">
<g transform="translate(65.58 893.67) scale(.1 -.1)">
<defs>
<path id="ab" d="m48.781 52.594v-8.4062q-3.8125 2.1094-7.6406 3.1562t-7.7344 1.0469q-8.75 0-13.594-5.5469-4.8281-5.5312-4.8281-15.547t4.8281-15.562q4.8438-5.5312 13.594-5.5312 3.9062 0 7.7344 1.0469t7.6406 3.1562v-8.3125q-3.7656-1.75-7.7969-2.625-4.0156-0.89062-8.5625-0.89062-12.359 0-19.641 7.7656-7.2656 7.7656-7.2656 20.953 0 13.375 7.3438 21.031 7.3594 7.6719 20.156 7.6719 4.1406 0 8.0938-0.85938 3.9531-0.84375 7.6719-2.5469z"/>
<path id="r" d="m30.609 48.391q-7.2188 0-11.422-5.6406t-4.2031-15.453 4.1719-15.453q4.1875-5.6406 11.453-5.6406 7.1875 0 11.375 5.6562 4.2031 5.6719 4.2031 15.438 0 9.7188-4.2031 15.406-4.1875 5.6875-11.375 5.6875zm0 7.6094q11.719 0 18.406-7.625 6.7031-7.6094 6.7031-21.078 0-13.422-6.7031-21.078-6.6875-7.6406-18.406-7.6406-11.766 0-18.438 7.6406-6.6562 7.6562-6.6562 21.078 0 13.469 6.6562 21.078 6.6719 7.625 18.438 7.625z"/>
<path id="ak" d="m2.9844 54.688h9.5156l17.094-45.891 17.094 45.891h9.5156l-20.516-54.688h-12.203z"/>
</defs>
<use xlink:href="#ab"/>
<use x="54.980469" xlink:href="#r"/>
<use x="116.162109" xlink:href="#h"/>
<use x="179.541016" xlink:href="#ak"/>
<use x="238.720703" xlink:href="#j"/>
<use x="266.503906" xlink:href="#h"/>
<use x="329.882812" xlink:href="#ab"/>
<use x="384.863281" xlink:href="#d"/>
</g>
</g>
<g clip-path="url(#a)">
<g transform="translate(88.614 893.67) scale(.1 -.1)">
<defs>
<path id="n" d="m18.312 70.219v-15.531h18.5v-6.9844h-18.5v-29.688q0-6.6875 1.8281-8.5938t7.4531-1.9062h9.2188v-7.5156h-9.2188q-10.406 0-14.359 3.875-3.9531 3.8906-3.9531 14.141v29.688h-6.5938v6.9844h6.5938v15.531z"/>
<path id="x" d="m44.281 53.078v-8.5q-3.7969 1.9531-7.9062 2.9219-4.0938 0.98438-8.5 0.98438-6.6875 0-10.031-2.0469t-3.3438-6.1562q0-3.125 2.3906-4.9062t9.625-3.3906l3.0781-0.6875q9.5625-2.0469 13.594-5.7812t4.0312-10.422q0-7.625-6.0312-12.078-6.0312-4.4375-16.578-4.4375-4.3906 0-9.1562 0.85938t-10.031 2.5625v9.2812q4.9844-2.5938 9.8125-3.8906 4.8281-1.2812 9.5781-1.2812 6.3438 0 9.75 2.1719 3.4219 2.1719 3.4219 6.125 0 3.6562-2.4688 5.6094-2.4531 1.9531-10.812 3.7656l-3.125 0.73438q-8.3438 1.75-12.062 5.3906-3.7031 3.6406-3.7031 9.9844 0 7.7188 5.4688 11.906 5.4688 4.2031 15.531 4.2031 4.9688 0 9.3594-0.73438 4.4062-0.71875 8.1094-2.1875z"/>
</defs>
<use xlink:href="#i"/>
<use x="27.783203" xlink:href="#r"/>
<use x="88.964844" xlink:href="#n"/>
<use x="128.173828" xlink:href="#x"/>
</g>
</g>
<g clip-path="url(#a)">
<g transform="translate(104.97 893.67) scale(.1 -.1)">
<defs>
<path id="aq" d="m37.109 75.984v-7.4844h-8.5938q-4.8281 0-6.7188-1.9531-1.875-1.9531-1.875-7.0312v-4.8281h14.797v-6.9844h-14.797v-47.703h-9.0312v47.703h-8.5938v6.9844h8.5938v3.8125q0 9.125 4.25 13.297 4.25 4.1875 13.469 4.1875z"/>
</defs>
<use xlink:href="#r"/>
<use x="61.181641" xlink:href="#aq"/>
</g>
</g>
<g clip-path="url(#a)">
<g transform="translate(107.42 893.67) scale(.1 -.1)">
<defs>
<path id="al" d="m18.109 8.2031v-29h-9.0312v75.484h9.0312v-8.2969q2.8438 4.875 7.1562 7.2344 4.3281 2.375 10.328 2.375 9.9688 0 16.188-7.9062 6.2344-7.9062 6.2344-20.797t-6.2344-20.812q-6.2188-7.9062-16.188-7.9062-6 0-10.328 2.375-4.3125 2.375-7.1562 7.25zm30.578 19.094q0 9.9062-4.0781 15.547t-11.203 5.6406q-7.1406 0-11.219-5.6406t-4.0781-15.547 4.0781-15.547 11.219-5.6406q7.125 0 11.203 5.6406t4.0781 15.547z"/>
</defs>
<use xlink:href="#al"/>
<use x="63.476562" xlink:href="#d"/>
<use x="125" xlink:href="#r"/>
<use x="186.181641" xlink:href="#al"/>
<use x="249.658203" xlink:href="#i"/>
<use x="277.441406" xlink:href="#d"/>
</g>
</g>
<g clip-path="url(#a)">
<g transform="translate(131.24 893.67) scale(.1 -.1)">
<use xlink:href="#n"/>
<use x="39.208984" xlink:href="#s"/>
<use x="102.587891" xlink:href="#f"/>
<use x="163.867188" xlink:href="#n"/>
</g>
</g>
<g clip-path="url(#a)">
<g transform="translate(149.68 893.67) scale(.1 -.1)">
<use xlink:href="#n"/>
<use x="39.208984" xlink:href="#s"/>
<use x="102.587891" xlink:href="#d"/>
<use x="164.111328" xlink:href="#aa"/>
</g>
</g>
<g clip-path="url(#a)">
<g transform="translate(174.65 893.67) scale(.1 -.1)">
<use xlink:href="#f"/>
<use x="61.279297" xlink:href="#g"/>
<use x="100.142578" xlink:href="#d"/>
</g>
</g>
<g clip-path="url(#a)">
<g transform="translate(203.98 893.67) scale(.1 -.1)">
<use xlink:href="#f"/>
</g>
</g>
<g clip-path="url(#a)">
<g transform="translate(220.58 893.67) scale(.1 -.1)">
<defs>
<path id="am" d="m45.406 27.984q0 9.7656-4.0312 15.125-4.0156 5.375-11.297 5.375-7.2188 0-11.25-5.375-4.0312-5.3594-4.0312-15.125 0-9.7188 4.0312-15.094t11.25-5.375q7.2812 0 11.297 5.375 4.0312 5.375 4.0312 15.094zm8.9844-21.203q0-13.953-6.2031-20.766-6.1875-6.8125-18.984-6.8125-4.7344 0-8.9375 0.70312t-8.1562 2.1719v8.7344q3.9531-2.1406 7.8125-3.1562 3.8594-1.0312 7.8594-1.0312 8.8438 0 13.234 4.6094t4.3906 13.938v4.4531q-2.7812-4.8438-7.125-7.2344t-10.406-2.3906q-10.047 0-16.203 7.6562-6.1562 7.6719-6.1562 20.328 0 12.688 6.1562 20.344 6.1562 7.6719 16.203 7.6719 6.0625 0 10.406-2.3906t7.125-7.2188v8.2969h8.9844z"/>
</defs>
<use xlink:href="#am"/>
<use x="63.476562" xlink:href="#g"/>
<use x="102.339844" xlink:href="#d"/>
<use x="163.863281" xlink:href="#f"/>
<use x="225.142578" xlink:href="#n"/>
</g>
</g>
<g clip-path="url(#a)">
<g transform="translate(250.33 893.67) scale(.1 -.1)">
<use xlink:href="#x"/>
<use x="52.099609" xlink:href="#n"/>
<use x="91.308594" xlink:href="#r"/>
<use x="152.490234" xlink:href="#g"/>
<use x="191.353516" xlink:href="#d"/>
</g>
</g>
<g clip-path="url(#a)">
<g transform="translate(292.99 893.67) scale(.1 -.1)">
<defs>
<path id="ap" d="m11.719 12.406h10.297v-8.4062l-8-15.625h-6.2969l4 15.625z"/>
</defs>
<use xlink:href="#ap"/>
</g>
</g>
<g clip-path="url(#a)">
<g transform="translate(315.12 893.67) scale(.1 -.1)">
<defs>
<path id="av" d="m4.2031 54.688h8.9844l11.234-42.672 11.172 42.672h10.594l11.234-42.672 11.188 42.672h8.9844l-14.312-54.688h-10.594l-11.766 44.828-11.812-44.828h-10.609z"/>
</defs>
<use xlink:href="#av"/>
<use x="81.787109" xlink:href="#s"/>
<use x="145.166016" xlink:href="#d"/>
<use x="206.689453" xlink:href="#h"/>
</g>
</g>
<g clip-path="url(#a)">
<g transform="translate(360.54 893.67) scale(.1 -.1)">
<use xlink:href="#j"/>
<use x="27.783203" xlink:href="#h"/>
</g>
</g>
<g clip-path="url(#a)">
<g transform="translate(394.47 893.67) scale(.1 -.1)">
<use xlink:href="#aq"/>
<use x="35.205078" xlink:href="#f"/>
<use x="96.484375" xlink:href="#ab"/>
<use x="151.464844" xlink:href="#n"/>
</g>
</g>
<g clip-path="url(#a)">
<g transform="translate(434.17 893.67) scale(.1 -.1)">
<use xlink:href="#n"/>
<use x="39.208984" xlink:href="#s"/>
<use x="102.587891" xlink:href="#d"/>
<use x="164.111328" xlink:href="#aa"/>
</g>
</g>
<g clip-path="url(#a)">
<g transform="translate(481.02 893.67) scale(.1 -.1)">
<use xlink:href="#f"/>
<use x="61.279297" xlink:href="#g"/>
<use x="100.142578" xlink:href="#d"/>
</g>
</g>
<g clip-path="url(#a)">
<g transform="translate(532.24 893.67) scale(.1 -.1)">
<use xlink:href="#f"/>
</g>
</g>
<g clip-path="url(#a)">
<g transform="translate(572.89 893.67) scale(.1 -.1)">
<use xlink:href="#ak"/>
<use x="59.179688" xlink:href="#d"/>
<use x="120.703125" xlink:href="#g"/>
<use x="161.816406" xlink:href="#aa"/>
</g>
</g>
<g clip-path="url(#a)">
<g transform="translate(614.53 893.67) scale(.1 -.1)">
<use xlink:href="#f"/>
<use x="61.279297" xlink:href="#ak"/>
<use x="120.458984" xlink:href="#d"/>
<use x="181.982422" xlink:href="#g"/>
<use x="223.095703" xlink:href="#f"/>
<use x="284.375" xlink:href="#am"/>
<use x="347.851562" xlink:href="#d"/>
</g>
</g>
<g clip-path="url(#a)">
<g transform="translate(675.04 893.67) scale(.1 -.1)">
<use xlink:href="#al"/>
<use x="63.476562" xlink:href="#i"/>
<use x="91.259766" xlink:href="#f"/>
<use x="152.539062" xlink:href="#ab"/>
<use x="207.519531" xlink:href="#d"/>
</g>
</g>
<g clip-path="url(#a)">
<g transform="translate(739.4 893.67) scale(.1 -.1)">
<use xlink:href="#f"/>
<use x="61.279297" xlink:href="#n"/>
</g>
</g>
<g clip-path="url(#a)">
<g transform="translate(791.96 893.67) scale(.1 -.1)">
<defs>
<path id="ag" d="m48.688 27.297q0 9.9062-4.0781 15.547t-11.203 5.6406q-7.1406 0-11.219-5.6406t-4.0781-15.547 4.0781-15.547 11.219-5.6406q7.125 0 11.203 5.6406t4.0781 15.547zm-30.578 19.094q2.8438 4.875 7.1562 7.2344 4.3281 2.375 10.328 2.375 9.9688 0 16.188-7.9062 6.2344-7.9062 6.2344-20.797t-6.2344-20.812q-6.2188-7.9062-16.188-7.9062-6 0-10.328 2.375-4.3125 2.375-7.1562 7.25v-8.2031h-9.0312v75.984h9.0312z"/>
</defs>
<use xlink:href="#ag"/>
<use x="63.476562" xlink:href="#d"/>
<use x="125" xlink:href="#x"/>
<use x="177.099609" xlink:href="#n"/>
</g>
</g>
<g clip-path="url(#a)">
<g transform="translate(861.98 893.67) scale(.1 -.1)">
<use xlink:href="#ap"/>
</g>
</g>
<g clip-path="url(#a)">
<g transform="translate(915.62 893.67) scale(.1 -.1)">
<use xlink:href="#n"/>
<use x="39.208984" xlink:href="#s"/>
<use x="102.587891" xlink:href="#d"/>
<use x="164.111328" xlink:href="#aa"/>
</g>
</g>
<g clip-path="url(#a)">
<g transform="translate(984.36 893.67) scale(.1 -.1)">
<use xlink:href="#f"/>
<use x="61.279297" xlink:href="#g"/>
<use x="100.142578" xlink:href="#d"/>
</g>
</g>
<g clip-path="url(#a)">
<g transform="translate(1051.4 893.67) scale(.1 -.1)">
<defs>
<path id="ay" d="m9.4219 54.688h8.9844v-55.672q0-10.438-3.9844-15.125-3.9688-4.6875-12.812-4.6875h-3.4219v7.6094h2.4062q5.125 0 6.9688 2.375 1.8594 2.3594 1.8594 9.8281zm0 21.297h8.9844v-11.391h-8.9844z"/>
<path id="aw" d="m8.5 21.578v33.109h8.9844v-32.766q0-7.7656 3.0156-11.656 3.0312-3.875 9.0938-3.875 7.2656 0 11.484 4.6406 4.2344 4.6406 4.2344 12.656v31h8.9844v-54.688h-8.9844v8.4062q-3.2656-4.9844-7.5938-7.4062-4.3125-2.4219-10.031-2.4219-9.4219 0-14.312 5.8594-4.875 5.8594-4.875 17.141z"/>
</defs>
<use xlink:href="#ay"/>
<use x="27.783203" xlink:href="#aw"/>
<use x="91.162109" xlink:href="#x"/>
<use x="143.261719" xlink:href="#n"/>
</g>
</g>
<g clip-path="url(#a)">
<g transform="translate(1111.5 893.67) scale(.1 -.1)">
<use xlink:href="#f"/>
<use x="61.279297" xlink:href="#h"/>
<use x="124.658203" xlink:href="#r"/>
<use x="185.839844" xlink:href="#n"/>
<use x="225.048828" xlink:href="#s"/>
<use x="288.427734" xlink:href="#d"/>
<use x="349.951172" xlink:href="#g"/>
</g>
</g>
<g clip-path="url(#a)">
<g transform="translate(1196.2 893.67) scale(.1 -.1)">
<use xlink:href="#ag"/>
<use x="63.476562" xlink:href="#j"/>
<use x="91.259766" xlink:href="#am"/>
</g>
</g>
<g clip-path="url(#a)">
<g transform="translate(1270.3 893.67) scale(.1 -.1)">
<defs>
<path id="au" d="m54.891 54.688-19.781-26.609 20.797-28.078h-10.594l-15.922 21.484-15.906-21.484h-10.609l21.25 28.609-19.438 26.078h10.594l14.5-19.484 14.5 19.484z"/>
</defs>
<use xlink:href="#ag"/>
<use x="63.476562" xlink:href="#r"/>
<use x="121.533203" xlink:href="#au"/>
</g>
</g>
<g clip-path="url(#a)">
<g transform="translate(1344.5 893.67) scale(.1 -.1)">
<use xlink:href="#x"/>
<use x="52.099609" xlink:href="#n"/>
<use x="91.308594" xlink:href="#r"/>
<use x="152.490234" xlink:href="#g"/>
<use x="191.353516" xlink:href="#d"/>
</g>
</g>
<g clip-path="url(#a)">
<g transform="translate(1428.8 893.67) scale(.1 -.1)">
<defs>
<path id="ax" d="m9.0781 75.984h9.0312v-44.875l26.812 23.578h11.469l-29-25.578 30.234-29.109h-11.719l-27.797 26.703v-26.703h-9.0312z"/>
</defs>
<use xlink:href="#i"/>
<use x="27.783203" xlink:href="#j"/>
<use x="55.566406" xlink:href="#ax"/>
<use x="109.851562" xlink:href="#d"/>
</g>
</g>
<g clip-path="url(#a)">
<g transform="translate(1511.9 893.67) scale(.1 -.1)">
<use xlink:href="#n"/>
<use x="39.208984" xlink:href="#s"/>
<use x="102.587891" xlink:href="#d"/>
</g>
</g>
<g clip-path="url(#a)">
<g transform="translate(1589.3 893.67) scale(.1 -.1)">
<use xlink:href="#r"/>
<use x="61.181641" xlink:href="#n"/>
<use x="100.390625" xlink:href="#s"/>
<use x="163.769531" xlink:href="#d"/>
<use x="225.292969" xlink:href="#g"/>
<use x="266.40625" xlink:href="#x"/>
</g>
</g>
<g clip-path="url(#a)">
<g transform="translate(1691.1 893.67) scale(.1 -.1)">
<defs>
<path id="e" d="m10.688 12.406h10.312v-12.406h-10.312z"/>
</defs>
<use xlink:href="#e"/>
</g>
</g>
<g clip-path="url(#a)">
<g transform="translate(732.04 45.184) scale(.1 -.1)">
<defs>
<path id="c" d="m12.406 8.2969h16.109v55.625l-17.531-3.5156v8.9844l17.438 3.5156h9.8594v-64.609h16.109v-8.2969h-41.984z"/>
</defs>
<use xlink:href="#c"/>
<use x="63.623047" xlink:href="#e"/>
<use x="95.410156" xlink:href="#c"/>
</g>
</g>
<g clip-path="url(#a)">
<g transform="translate(107.1 187.89) scale(.1 -.1)">
<defs>
<path id="m" d="m19.188 8.2969h34.422v-8.2969h-46.281v8.2969q5.6094 5.8125 15.297 15.594 9.7031 9.7969 12.188 12.641 4.7344 5.3125 6.6094 9 1.8906 3.6875 1.8906 7.25 0 5.8125-4.0781 9.4688-4.0781 3.6719-10.625 3.6719-4.6406 0-9.7969-1.6094-5.1406-1.6094-11-4.8906v9.9688q5.9531 2.3906 11.125 3.6094 5.1875 1.2188 9.4844 1.2188 11.328 0 18.062-5.6719 6.7344-5.6562 6.7344-15.125 0-4.5-1.6875-8.5312-1.6719-4.0156-6.125-9.4844-1.2188-1.4219-7.7656-8.1875-6.5312-6.7656-18.453-18.922z"/>
</defs>
<use xlink:href="#c"/>
<use x="63.623047" xlink:href="#e"/>
<use x="95.410156" xlink:href="#m"/>
</g>
</g>
<g clip-path="url(#a)">
<g transform="translate(320.67 754.77) scale(.1 -.1)">
<defs>
<path id="p" d="m40.578 39.312q7.0781-1.5156 11.047-6.3125 3.9844-4.7812 3.9844-11.812 0-10.781-7.4219-16.703-7.4219-5.9062-21.094-5.9062-4.5781 0-9.4375 0.90625t-10.031 2.7188v9.5156q4.0938-2.3906 8.9688-3.6094 4.8906-1.2188 10.219-1.2188 9.2656 0 14.125 3.6562t4.8594 10.641q0 6.4531-4.5156 10.078-4.5156 3.6406-12.562 3.6406h-8.5v8.1094h8.8906q7.2656 0 11.125 2.9062t3.8594 8.375q0 5.6094-3.9844 8.6094-3.9688 3.0156-11.391 3.0156-4.0625 0-8.7031-0.89062-4.6406-0.875-10.203-2.7188v8.7812q5.625 1.5625 10.531 2.3438t9.25 0.78125q11.234 0 17.766-5.1094 6.5469-5.0938 6.5469-13.781 0-6.0625-3.4688-10.234t-9.8594-5.7812z"/>
</defs>
<use xlink:href="#c"/>
<use x="63.623047" xlink:href="#e"/>
<use x="95.410156" xlink:href="#p"/>
</g>
</g>
<g clip-path="url(#a)">
<g transform="translate(534.54 330.3) scale(.1 -.1)">
<defs>
<path id="o" d="m37.797 64.312-24.906-38.922h24.906zm-2.5938 8.5938h12.406v-47.516h10.406v-8.2031h-10.406v-17.188h-9.8125v17.188h-32.906v9.5156z"/>
</defs>
<use xlink:href="#c"/>
<use x="63.623047" xlink:href="#e"/>
<use x="95.410156" xlink:href="#o"/>
</g>
</g>
<g clip-path="url(#a)">
<g transform="translate(1031 330.3) scale(.1 -.1)">
<defs>
<path id="t" d="m10.797 72.906h38.719v-8.3125h-29.688v-17.859q2.1406 0.73438 4.2812 1.0938 2.1562 0.35938 4.3125 0.35938 12.203 0 19.328-6.6875 7.1406-6.6875 7.1406-18.109 0-11.766-7.3281-18.297-7.3281-6.5156-20.656-6.5156-4.5938 0-9.3594 0.78125-4.75 0.78125-9.8281 2.3438v9.9219q4.3906-2.3906 9.0781-3.5625t9.9062-1.1719q8.4531 0 13.375 4.4375 4.9375 4.4375 4.9375 12.062 0 7.6094-4.9375 12.047-4.9219 4.4531-13.375 4.4531-3.9531 0-7.8906-0.875-3.9219-0.875-8.0156-2.7344z"/>
</defs>
<use xlink:href="#c"/>
<use x="63.623047" xlink:href="#e"/>
<use x="95.410156" xlink:href="#t"/>
</g>
</g>
<g clip-path="url(#a)">
<g transform="translate(1429.5 754.77) scale(.1 -.1)">
<defs>
<path id="z" d="m33.016 40.375q-6.6406 0-10.531-4.5469-3.875-4.5312-3.875-12.438 0-7.8594 3.875-12.438 3.8906-4.5625 10.531-4.5625t10.516 4.5625q3.875 4.5781 3.875 12.438 0 7.9062-3.875 12.438-3.875 4.5469-10.516 4.5469zm19.578 30.922v-8.9844q-3.7188 1.75-7.5 2.6719-3.7812 0.9375-7.5 0.9375-9.7656 0-14.922-6.5938-5.1406-6.5938-5.875-19.922 2.875 4.25 7.2188 6.5156 4.3594 2.2656 9.5781 2.2656 10.984 0 17.359-6.6719 6.375-6.6562 6.375-18.125 0-11.234-6.6406-18.031-6.6406-6.7812-17.672-6.7812-12.656 0-19.344 9.6875-6.6875 9.7031-6.6875 28.109 0 17.281 8.2031 27.562t22.016 10.281q3.7188 0 7.5-0.73438t7.8906-2.1875z"/>
</defs>
<use xlink:href="#c"/>
<use x="63.623047" xlink:href="#e"/>
<use x="95.410156" xlink:href="#z"/>
</g>
</g>
<g clip-path="url(#a)">
<g transform="translate(1291.3 472.36) scale(.1 -.1)">
<defs>
<path id="y" d="m8.2031 72.906h46.875v-4.2031l-26.469-68.703h-10.297l24.906 64.594h-35.016z"/>
</defs>
<use xlink:href="#c"/>
<use x="63.623047" xlink:href="#e"/>
<use x="95.410156" xlink:href="#y"/>
</g>
</g>
<g clip-path="url(#a)">
<g transform="translate(1594.9 613.93) scale(.1 -.1)">
<use xlink:href="#c"/>
<use x="63.623047" xlink:href="#e"/>
<use x="95.410156" xlink:href="#c"/>
<use x="159.033203" xlink:href="#c"/>
</g>
</g>
<g clip-path="url(#a)">
<g transform="translate(1509 754.77) scale(.1 -.1)">
<use xlink:href="#c"/>
<use x="63.623047" xlink:href="#e"/>
<use x="95.410156" xlink:href="#c"/>
<use x="159.033203" xlink:href="#m"/>
</g>
</g>
<g clip-path="url(#a)">
<g transform="translate(1594.1 754.77) scale(.1 -.1)">
<use xlink:href="#c"/>
<use x="63.623047" xlink:href="#e"/>
<use x="95.410156" xlink:href="#c"/>
<use x="159.033203" xlink:href="#p"/>
</g>
</g>
<g clip-path="url(#a)">
<g transform="translate(915.65 754.77) scale(.1 -.1)">
<use xlink:href="#c"/>
<use x="63.623047" xlink:href="#e"/>
<use x="95.410156" xlink:href="#c"/>
<use x="159.033203" xlink:href="#o"/>
</g>
</g>
<g clip-path="url(#a)">
<g transform="translate(981.31 754.77) scale(.1 -.1)">
<use xlink:href="#c"/>
<use x="63.623047" xlink:href="#e"/>
<use x="95.410156" xlink:href="#c"/>
<use x="159.033203" xlink:href="#t"/>
</g>
</g>
<g clip-path="url(#a)">
<g transform="translate(1186.5 472.36) scale(.1 -.1)">
<use xlink:href="#c"/>
<use x="63.623047" xlink:href="#e"/>
<use x="95.410156" xlink:href="#c"/>
<use x="159.033203" xlink:href="#z"/>
</g>
</g>
<g clip-path="url(#a)">
<g transform="translate(1049.4 754.77) scale(.1 -.1)">
<use xlink:href="#c"/>
<use x="63.623047" xlink:href="#e"/>
<use x="95.410156" xlink:href="#c"/>
<use x="159.033203" xlink:href="#y"/>
</g>
</g>
<g clip-path="url(#a)">
<g transform="translate(1119.9 754.77) scale(.1 -.1)">
<defs>
<path id="ae" d="m31.781 34.625q-7.0312 0-11.062-3.7656-4.0156-3.7656-4.0156-10.344 0-6.5938 4.0156-10.359 4.0312-3.7656 11.062-3.7656t11.078 3.7812q4.0625 3.7969 4.0625 10.344 0 6.5781-4.0312 10.344-4.0156 3.7656-11.109 3.7656zm-9.8594 4.1875q-6.3438 1.5625-9.8906 5.9062-3.5312 4.3594-3.5312 10.609 0 8.7344 6.2188 13.812 6.2344 5.0781 17.062 5.0781 10.891 0 17.094-5.0781t6.2031-13.812q0-6.25-3.5469-10.609-3.5312-4.3438-9.8281-5.9062 7.125-1.6562 11.094-6.5 3.9844-4.8281 3.9844-11.797 0-10.609-6.4688-16.281-6.4688-5.6562-18.531-5.6562-12.047 0-18.531 5.6562-6.4688 5.6719-6.4688 16.281 0 6.9688 4 11.797 4.0156 4.8438 11.141 6.5zm-3.6094 15.578q0-5.6562 3.5312-8.8281 3.5469-3.1719 9.9375-3.1719 6.3594 0 9.9375 3.1719 3.5938 3.1719 3.5938 8.8281 0 5.6719-3.5938 8.8438-3.5781 3.1719-9.9375 3.1719-6.3906 0-9.9375-3.1719-3.5312-3.1719-3.5312-8.8438z"/>
</defs>
<use xlink:href="#c"/>
<use x="63.623047" xlink:href="#e"/>
<use x="95.410156" xlink:href="#c"/>
<use x="159.033203" xlink:href="#ae"/>
</g>
</g>
<g clip-path="url(#a)">
<g transform="translate(1230.5 613.93) scale(.1 -.1)">
<defs>
<path id="ad" d="m10.984 1.5156v8.9844q3.7188-1.7656 7.5156-2.6875 3.8125-0.92188 7.4844-0.92188 9.7656 0 14.906 6.5625 5.1562 6.5625 5.8906 19.953-2.8281-4.2031-7.1875-6.4531-4.3438-2.25-9.6094-2.25-10.938 0-17.312 6.6094-6.375 6.625-6.375 18.109 0 11.219 6.6406 18 6.6406 6.7969 17.672 6.7969 12.656 0 19.312-9.7031 6.6719-9.6875 6.6719-28.141 0-17.234-8.1875-27.516-8.1719-10.281-21.984-10.281-3.7188 0-7.5312 0.73438-3.7969 0.73438-7.9062 2.2031zm19.625 30.906q6.6406 0 10.516 4.5312 3.8906 4.5469 3.8906 12.469 0 7.8594-3.8906 12.422-3.875 4.5625-10.516 4.5625t-10.516-4.5625-3.875-12.422q0-7.9219 3.875-12.469 3.875-4.5312 10.516-4.5312z"/>
</defs>
<use xlink:href="#c"/>
<use x="63.623047" xlink:href="#e"/>
<use x="95.410156" xlink:href="#c"/>
<use x="159.033203" xlink:href="#ad"/>
</g>
</g>
<g clip-path="url(#a)">
<g transform="translate(1346 754.77) scale(.1 -.1)">
<defs>
<path id="af" d="m31.781 66.406q-7.6094 0-11.453-7.5-3.8281-7.4844-3.8281-22.531 0-14.984 3.8281-22.484 3.8438-7.5 11.453-7.5 7.6719 0 11.5 7.5 3.8438 7.5 3.8438 22.484 0 15.047-3.8438 22.531-3.8281 7.5-11.5 7.5zm0 7.8125q12.266 0 18.734-9.7031 6.4688-9.6875 6.4688-28.141 0-18.406-6.4688-28.109-6.4688-9.6875-18.734-9.6875-12.25 0-18.719 9.6875-6.4688 9.7031-6.4688 28.109 0 18.453 6.4688 28.141 6.4688 9.7031 18.719 9.7031z"/>
</defs>
<use xlink:href="#c"/>
<use x="63.623047" xlink:href="#e"/>
<use x="95.410156" xlink:href="#m"/>
<use x="159.033203" xlink:href="#af"/>
</g>
</g>
<g clip-path="url(#a)">
<g transform="translate(1192.9 754.77) scale(.1 -.1)">
<use xlink:href="#c"/>
<use x="63.623047" xlink:href="#e"/>
<use x="95.410156" xlink:href="#m"/>
<use x="159.033203" xlink:href="#c"/>
</g>
</g>
<g clip-path="url(#a)">
<g transform="translate(1268.2 754.77) scale(.1 -.1)">
<use xlink:href="#c"/>
<use x="63.623047" xlink:href="#e"/>
<use x="95.410156" xlink:href="#m"/>
<use x="159.033203" xlink:href="#m"/>
</g>
</g>
<g clip-path="url(#a)">
<g transform="translate(373.42 754.77) scale(.1 -.1)">
<use xlink:href="#c"/>
<use x="63.623047" xlink:href="#e"/>
<use x="95.410156" xlink:href="#m"/>
<use x="159.033203" xlink:href="#p"/>
</g>
</g>
<g clip-path="url(#a)">
<g transform="translate(434.21 754.77) scale(.1 -.1)">
<use xlink:href="#c"/>
<use x="63.623047" xlink:href="#e"/>
<use x="95.410156" xlink:href="#m"/>
<use x="159.033203" xlink:href="#o"/>
</g>
</g>
<g clip-path="url(#a)">
<g transform="translate(477.97 754.77) scale(.1 -.1)">
<use xlink:href="#c"/>
<use x="63.623047" xlink:href="#e"/>
<use x="95.410156" xlink:href="#m"/>
<use x="159.033203" xlink:href="#t"/>
</g>
</g>
<g clip-path="url(#a)">
<g transform="translate(608.74 472.36) scale(.1 -.1)">
<use xlink:href="#c"/>
<use x="63.623047" xlink:href="#e"/>
<use x="95.410156" xlink:href="#m"/>
<use x="159.033203" xlink:href="#z"/>
</g>
</g>
<g clip-path="url(#a)">
<g transform="translate(762.47 613.93) scale(.1 -.1)">
<use xlink:href="#c"/>
<use x="63.623047" xlink:href="#e"/>
<use x="95.410156" xlink:href="#m"/>
<use x="159.033203" xlink:href="#y"/>
</g>
</g>
<g clip-path="url(#a)">
<g transform="translate(733.29 754.77) scale(.1 -.1)">
<use xlink:href="#c"/>
<use x="63.623047" xlink:href="#e"/>
<use x="95.410156" xlink:href="#m"/>
<use x="159.033203" xlink:href="#ae"/>
</g>
</g>
<g clip-path="url(#a)">
<g transform="translate(791.65 754.77) scale(.1 -.1)">
<use xlink:href="#c"/>
<use x="63.623047" xlink:href="#e"/>
<use x="95.410156" xlink:href="#m"/>
<use x="159.033203" xlink:href="#ad"/>
</g>
</g>
<g clip-path="url(#a)">
<g transform="translate(524.17 754.77) scale(.1 -.1)">
<use xlink:href="#c"/>
<use x="63.623047" xlink:href="#e"/>
<use x="95.410156" xlink:href="#p"/>
<use x="159.033203" xlink:href="#af"/>
</g>
</g>
<g clip-path="url(#a)">
<g transform="translate(624.68 613.93) scale(.1 -.1)">
<use xlink:href="#c"/>
<use x="63.623047" xlink:href="#e"/>
<use x="95.410156" xlink:href="#p"/>
<use x="159.033203" xlink:href="#c"/>
</g>
</g>
<g clip-path="url(#a)">
<g transform="translate(677.36 754.77) scale(.1 -.1)">
<use xlink:href="#c"/>
<use x="63.623047" xlink:href="#e"/>
<use x="95.410156" xlink:href="#p"/>
<use x="159.033203" xlink:href="#m"/>
</g>
</g>
<g clip-path="url(#a)">
<g transform="translate(572.81 754.77) scale(.1 -.1)">
<use xlink:href="#c"/>
<use x="63.623047" xlink:href="#e"/>
<use x="95.410156" xlink:href="#p"/>
<use x="159.033203" xlink:href="#p"/>
</g>
</g>
<g clip-path="url(#a)">
<g transform="translate(623.87 754.77) scale(.1 -.1)">
<use xlink:href="#c"/>
<use x="63.623047" xlink:href="#e"/>
<use x="95.410156" xlink:href="#p"/>
<use x="159.033203" xlink:href="#o"/>
</g>
</g>
<g clip-path="url(#a)">
<g transform="translate(69.473 754.77) scale(.1 -.1)">
<use xlink:href="#c"/>
<use x="63.623047" xlink:href="#e"/>
<use x="95.410156" xlink:href="#p"/>
<use x="159.033203" xlink:href="#t"/>
</g>
</g>
<g clip-path="url(#a)">
<g transform="translate(76.768 754.77) scale(.1 -.1)">
<use xlink:href="#c"/>
<use x="63.623047" xlink:href="#e"/>
<use x="95.410156" xlink:href="#p"/>
<use x="159.033203" xlink:href="#z"/>
</g>
</g>
<g clip-path="url(#a)">
<g transform="translate(99.462 613.93) scale(.1 -.1)">
<use xlink:href="#c"/>
<use x="63.623047" xlink:href="#e"/>
<use x="95.410156" xlink:href="#p"/>
<use x="159.033203" xlink:href="#y"/>
</g>
</g>
<g clip-path="url(#a)">
<g transform="translate(169.98 330.3) scale(.1 -.1)">
<use xlink:href="#c"/>
<use x="63.623047" xlink:href="#e"/>
<use x="95.410156" xlink:href="#p"/>
<use x="159.033203" xlink:href="#ae"/>
</g>
</g>
<g clip-path="url(#a)">
<g transform="translate(130.26 754.77) scale(.1 -.1)">
<use xlink:href="#c"/>
<use x="63.623047" xlink:href="#e"/>
<use x="95.410156" xlink:href="#p"/>
<use x="159.033203" xlink:href="#ad"/>
</g>
</g>
<g clip-path="url(#a)">
<g transform="translate(149.71 754.77) scale(.1 -.1)">
<use xlink:href="#c"/>
<use x="63.623047" xlink:href="#e"/>
<use x="95.410156" xlink:href="#o"/>
<use x="159.033203" xlink:href="#af"/>
</g>
</g>
<g clip-path="url(#a)">
<g transform="translate(171.6 754.77) scale(.1 -.1)">
<use xlink:href="#c"/>
<use x="63.623047" xlink:href="#e"/>
<use x="95.410156" xlink:href="#o"/>
<use x="159.033203" xlink:href="#c"/>
</g>
</g>
<g clip-path="url(#a)">
<g transform="translate(228.33 472.36) scale(.1 -.1)">
<use xlink:href="#c"/>
<use x="63.623047" xlink:href="#e"/>
<use x="95.410156" xlink:href="#o"/>
<use x="159.033203" xlink:href="#m"/>
</g>
</g>
<g clip-path="url(#a)">
<g transform="translate(195.91 754.77) scale(.1 -.1)">
<use xlink:href="#c"/>
<use x="63.623047" xlink:href="#e"/>
<use x="95.410156" xlink:href="#o"/>
<use x="159.033203" xlink:href="#p"/>
</g>
</g>
<g clip-path="url(#a)">
<g transform="translate(237.25 613.93) scale(.1 -.1)">
<use xlink:href="#c"/>
<use x="63.623047" xlink:href="#e"/>
<use x="95.410156" xlink:href="#o"/>
<use x="159.033203" xlink:href="#o"/>
</g>
</g>
<g clip-path="url(#a)">
<g transform="translate(251.84 754.77) scale(.1 -.1)">
<use xlink:href="#c"/>
<use x="63.623047" xlink:href="#e"/>
<use x="95.410156" xlink:href="#o"/>
<use x="159.033203" xlink:href="#t"/>
</g>
</g>
<g clip-path="url(#a)">
<g transform="translate(222.66 754.77) scale(.1 -.1)">
<use xlink:href="#c"/>
<use x="63.623047" xlink:href="#e"/>
<use x="95.410156" xlink:href="#o"/>
<use x="159.033203" xlink:href="#z"/>
</g>
</g>
<g clip-path="url(#a)">
<g transform="translate(86.494 754.77) scale(.1 -.1)">
<use xlink:href="#c"/>
<use x="63.623047" xlink:href="#e"/>
<use x="95.410156" xlink:href="#o"/>
<use x="159.033203" xlink:href="#y"/>
</g>
</g>
<g clip-path="url(#a)">
<g transform="translate(98.652 754.77) scale(.1 -.1)">
<use xlink:href="#c"/>
<use x="63.623047" xlink:href="#e"/>
<use x="95.410156" xlink:href="#o"/>
<use x="159.033203" xlink:href="#ae"/>
</g>
</g>
<g clip-path="url(#a)">
<g transform="translate(113.24 754.77) scale(.1 -.1)">
<use xlink:href="#c"/>
<use x="63.623047" xlink:href="#e"/>
<use x="95.410156" xlink:href="#o"/>
<use x="159.033203" xlink:href="#ad"/>
</g>
</g>
<g clip-path="url(#a)">
<g transform="translate(283.45 754.77) scale(.1 -.1)">
<use xlink:href="#c"/>
<use x="63.623047" xlink:href="#e"/>
<use x="95.410156" xlink:href="#t"/>
<use x="159.033203" xlink:href="#af"/>
</g>
</g>
<g clip-path="url(#a)">
<g transform="translate(852.43 754.77) scale(.1 -.1)">
<use xlink:href="#c"/>
<use x="63.623047" xlink:href="#e"/>
<use x="95.410156" xlink:href="#t"/>
<use x="159.033203" xlink:href="#c"/>
</g>
</g>
<g clip-path="url(#a)">
<g transform="translate(1681.6 754.77) scale(.1 -.1)">
<use xlink:href="#c"/>
<use x="63.623047" xlink:href="#e"/>
<use x="95.410156" xlink:href="#t"/>
<use x="159.033203" xlink:href="#m"/>
</g>
</g>
<defs>
<clipPath id="a">
<rect width="1773.3" height="933.33"/>
</clipPath>
</defs>
</svg>
