<?xml version="1.0" encoding="UTF-8"?>
<!DOCTYPE svg  PUBLIC '-//W3C//DTD SVG 1.1//EN'  'http://www.w3.org/Graphics/SVG/1.1/DTD/svg11.dtd'>
<svg width="1570.7pt" height="826.67pt" version="1.1" viewBox="0 0 1570.7 826.67" xmlns="http://www.w3.org/2000/svg" xmlns:xlink="http://www.w3.org/1999/xlink">
<defs>
<style type="text/css">*{stroke-linecap:butt;stroke-linejoin:round;}</style>
</defs>
<path d="m0 826.67h1570.7v-826.67h-1570.7z" fill="#fff"/>
<g fill="none" stroke="#000">
<path d="m602.92 37.576-510.69 126.39" clip-path="url(#a)"/>
<path d="m602.92 37.576-169.11 378.35" clip-path="url(#a)"/>
<path d="m602.92 37.576 31.469 628.49" clip-path="url(#a)"/>
<path d="m602.92 37.576 88.584 628.49" clip-path="url(#a)"/>
<path d="m602.92 37.576 271.15 378.35" clip-path="url(#a)"/>
<path d="m602.92 37.576 640.24 378.35" clip-path="url(#a)"/>
<path d="m602.92 37.576-254.11 628.49" clip-path="url(#a)"/>
<path d="m602.92 37.576-74.602 628.49" clip-path="url(#a)"/>
<path d="m602.92 37.576-22.927 628.49" clip-path="url(#a)"/>
<path d="m92.223 163.97-20.829 502.09" clip-path="url(#a)"/>
<path d="m92.223 163.97-12.67 502.09" clip-path="url(#a)"/>
<path d="m92.223 163.97-1.7905 502.09" clip-path="url(#a)"/>
<path d="m92.223 163.97 35.289 126.14" clip-path="url(#a)"/>
<path d="m433.8 415.93 0.67994 125.39" clip-path="url(#a)"/>
<path d="m433.8 415.93-0.67994 250.13" clip-path="url(#a)"/>
<path d="m634.39 666.06v123.03" clip-path="url(#a)"/>
<path d="m691.5 666.06v123.03" clip-path="url(#a)"/>
<path d="m874.07 415.93-122.73 250.13" clip-path="url(#a)"/>
<path d="m874.07 415.93-60.175 250.13" clip-path="url(#a)"/>
<path d="m874.07 415.93 39.097 125.39" clip-path="url(#a)"/>
<path d="m874.07 415.93 143.81 250.13" clip-path="url(#a)"/>
<path d="m1243.2 415.93-151.85 250.13" clip-path="url(#a)"/>
<path d="m1243.2 415.93-75.7 250.13" clip-path="url(#a)"/>
<path d="m1243.2 415.93 142.79 125.39" clip-path="url(#a)"/>
<path d="m1243.2 415.93 84.766 250.13" clip-path="url(#a)"/>
<path d="m1091.3 666.06v123.03" clip-path="url(#a)"/>
<path d="m1167.5 666.06v123.03" clip-path="url(#a)"/>
<path d="m1385.9 541.32-139.61 124.74" clip-path="url(#a)"/>
<path d="m1385.9 541.32 26.291 124.74" clip-path="url(#a)"/>
<path d="m1385.9 541.32 113.32 124.74" clip-path="url(#a)"/>
<path d="m1327.9 666.06v123.03" clip-path="url(#a)"/>
<path d="m1246.3 666.06v123.03" clip-path="url(#a)"/>
<path d="m1412.2 666.06v123.03" clip-path="url(#a)"/>
<path d="m751.34 666.06v123.03" clip-path="url(#a)"/>
<path d="m813.89 666.06v123.03" clip-path="url(#a)"/>
<path d="m913.16 541.32-33.997 124.74" clip-path="url(#a)"/>
<path d="m913.16 541.32 33.997 124.74" clip-path="url(#a)"/>
<path d="m1017.9 666.06v123.03" clip-path="url(#a)"/>
<path d="m879.17 666.06v123.03" clip-path="url(#a)"/>
<path d="m947.16 666.06v123.03" clip-path="url(#a)"/>
<path d="m434.48 541.32-44.876 124.74" clip-path="url(#a)"/>
<path d="m434.48 541.32 44.876 124.74" clip-path="url(#a)"/>
<path d="m433.12 666.06v123.03" clip-path="url(#a)"/>
<path d="m389.61 666.06v123.03" clip-path="url(#a)"/>
<path d="m479.36 666.06v123.03" clip-path="url(#a)"/>
<path d="m71.394 666.06v123.03" clip-path="url(#a)"/>
<path d="m79.553 666.06v123.03" clip-path="url(#a)"/>
<path d="m90.432 666.06v123.03" clip-path="url(#a)"/>
<path d="m127.51 290.11-56.118 375.95" clip-path="url(#a)" stroke-dasharray="3.7,1.6"/>
<path d="m127.51 290.11-23.481 375.95" clip-path="url(#a)"/>
<path d="m127.51 290.11-7.1621 375.95" clip-path="url(#a)"/>
<path d="m127.51 290.11 11.876 375.95" clip-path="url(#a)"/>
<path d="m127.51 290.11 74.884 125.82" clip-path="url(#a)"/>
<path d="m104.03 666.06v123.03" clip-path="url(#a)"/>
<path d="m120.35 666.06v123.03" clip-path="url(#a)"/>
<path d="m139.39 666.06v123.03" clip-path="url(#a)"/>
<path d="m202.4 415.93-41.25 250.13" clip-path="url(#a)"/>
<path d="m202.4 415.93-16.772 250.13" clip-path="url(#a)"/>
<path d="m202.4 415.93 58.022 125.39" clip-path="url(#a)"/>
<path d="m161.15 666.06v123.03" clip-path="url(#a)"/>
<path d="m185.62 666.06v123.03" clip-path="url(#a)"/>
<path d="m260.42 541.32-47.596 124.74" clip-path="url(#a)"/>
<path d="m260.42 541.32-17.678 124.74" clip-path="url(#a)"/>
<path d="m260.42 541.32 14.959 124.74" clip-path="url(#a)"/>
<path d="m260.42 541.32 50.316 124.74" clip-path="url(#a)"/>
<path d="m212.82 666.06v123.03" clip-path="url(#a)"/>
<path d="m242.74 666.06v123.03" clip-path="url(#a)"/>
<path d="m275.38 666.06v123.03" clip-path="url(#a)"/>
<path d="m310.73 666.06v123.03" clip-path="url(#a)"/>
<path d="m348.81 666.06v123.03" clip-path="url(#a)"/>
<path d="m528.32 666.06v123.03" clip-path="url(#a)"/>
<path d="m579.99 666.06v123.03" clip-path="url(#a)"/>
<path d="m1499.3 666.06v123.03" clip-path="url(#a)"/>
</g>
<path d="m346.16 107.58 5.84-1.4454q2.3297-0.57659 1.7531-2.9063l-1.8601-7.5157q-0.57659-2.3297-2.9063-1.7531l-5.84 1.4454q-2.3297 0.57659-1.7531 2.9063l1.8601 7.5157q0.57659 2.3297 2.9063 1.7531z" clip-path="url(#a)" fill="#fff" stroke="#fff"/>
<g clip-path="url(#a)">
<defs>
<path id="y" d="m9.8125 72.906h9.8594v-29.891h35.844v29.891h9.8594v-72.906h-9.8594v34.719h-35.844v-34.719h-9.8594z"/>
</defs>
<g transform="translate(345.18 103.64) rotate(-13.901) scale(.08 -.08)">
<use xlink:href="#y"/>
</g>
</g>
<path d="m522.86 232.06 2.455-5.4925q0.97936-2.1911-1.2117-3.1704l-7.0685-3.1595q-2.1911-0.97936-3.1704 1.2117l-2.455 5.4925q-0.97936 2.1911 1.2117 3.1704l7.0685 3.1595q2.1911 0.97936 3.1704-1.2117z" clip-path="url(#a)" fill="#fff" stroke="#fff"/>
<g clip-path="url(#a)">
<g transform="translate(519.15 230.4) rotate(-65.917) scale(.08 -.08)">
<use xlink:href="#y"/>
</g>
</g>
<path d="m612.28 349.91 0.22291 4.4519q0.12002 2.397 2.517 2.277l7.7328-0.38719q2.397-0.12002 2.277-2.517l-0.22291-4.4519q-0.12002-2.397-2.517-2.277l-7.7328 0.38719q-2.397 0.12002-2.277 2.517z" clip-path="url(#a)" fill="#fff" stroke="#fff"/>
<g clip-path="url(#a)">
<defs>
<path id="am" d="m9.8125 72.906h9.8594v-64.609h35.5v-8.2969h-45.359z"/>
</defs>
<g transform="translate(616.34 349.7) rotate(87.134) scale(.08 -.08)">
<use xlink:href="#am"/>
</g>
</g>
<path d="m640.69 350.49 0.62213 4.4139q0.33496 2.3765 2.7115 2.0415l7.6667-1.0806q2.3765-0.33496 2.0415-2.7115l-0.62213-4.4139q-0.33496-2.3765-2.7115-2.0415l-7.6667 1.0806q-2.3765 0.33496-2.0415 2.7115z" clip-path="url(#a)" fill="#fff" stroke="#fff"/>
<g clip-path="url(#a)">
<g transform="translate(644.71 349.92) rotate(81.977) scale(.08 -.08)">
<use xlink:href="#am"/>
</g>
</g>
<path d="m731.64 227.96 3.5045 4.8901q1.398 1.9508 3.3488 0.55274l6.2933-4.5101q1.9508-1.398 0.55274-3.3488l-3.5045-4.8901q-1.398-1.9508-3.3488-0.55274l-6.2933 4.5101q-1.9508 1.398-0.55274 3.3488z" clip-path="url(#a)" fill="#fff" stroke="#fff"/>
<g clip-path="url(#a)">
<g transform="translate(734.95 225.59) rotate(54.373) scale(.08 -.08)">
<use xlink:href="#y"/>
</g>
</g>
<path d="m917.26 230.62 5.1795 3.0608q2.0662 1.221 3.2872-0.84517l3.939-6.6656q1.221-2.0662-0.84517-3.2872l-5.1795-3.0608q-2.0662-1.221-3.2872 0.84517l-3.939 6.6656q-1.221 2.0662 0.84517 3.2872z" clip-path="url(#a)" fill="#fff" stroke="#fff"/>
<g clip-path="url(#a)">
<g transform="translate(919.33 227.12) rotate(30.581) scale(.08 -.08)">
<use xlink:href="#y"/>
</g>
</g>
<path d="m480.58 356.88 2.1947-5.4281q0.89961-2.225-1.3254-3.1246l-7.178-2.9022q-2.225-0.89961-3.1246 1.3254l-2.1947 5.4281q-0.89961 2.225 1.3254 3.1246l7.178 2.9022q2.225 0.89961 3.1246-1.3254z" clip-path="url(#a)" fill="#fff" stroke="#fff"/>
<g clip-path="url(#a)">
<defs>
<path id="x" d="m8.6875 72.906h9.9219v-44.297q0-11.719 4.2344-16.875 4.25-5.1406 13.781-5.1406 9.4688 0 13.719 5.1406 4.25 5.1562 4.25 16.875v44.297h9.9062v-45.516q0-14.25-7.0625-21.531-7.0469-7.2812-20.812-7.2812-13.828 0-20.891 7.2812-7.0469 7.2812-7.0469 21.531z"/>
</defs>
<g transform="translate(476.81 355.36) rotate(-67.986) scale(.08 -.08)">
<use xlink:href="#x"/>
</g>
</g>
<path d="m571.5 355.47 0.69015-5.8142q0.2829-2.3833-2.1004-2.6662l-7.6885-0.91264q-2.3833-0.2829-2.6662 2.1004l-0.69015 5.8142q-0.2829 2.3833 2.1004 2.6662l7.6885 0.91264q2.3833 0.2829 2.6662-2.1004z" clip-path="url(#a)" fill="#fff" stroke="#fff"/>
<g clip-path="url(#a)">
<g transform="translate(567.46 354.99) rotate(-83.231) scale(.08 -.08)">
<use xlink:href="#x"/>
</g>
</g>
<path d="m597.61 354.97 0.21344-5.8511q0.087492-2.3984-2.3109-2.4859l-7.7374-0.28225q-2.3984-0.087492-2.4859 2.3109l-0.21344 5.8511q-0.087492 2.3984 2.3109 2.4859l7.7374 0.28225q2.3984 0.087492 2.4859-2.3109z" clip-path="url(#a)" fill="#fff" stroke="#fff"/>
<g clip-path="url(#a)">
<g transform="translate(593.55 354.83) rotate(-87.911) scale(.08 -.08)">
<use xlink:href="#x"/>
</g>
</g>
<path d="m87.961 418.01 0.22683-5.4678q0.099476-2.3979-2.2985-2.4974l-7.7358-0.32091q-2.3979-0.099477-2.4974 2.2985l-0.22683 5.4678q-0.099477 2.3979 2.2985 2.4974l7.7358 0.32092q2.3979 0.099476 2.4974-2.2985z" clip-path="url(#a)" fill="#fff" stroke="#fff"/>
<g clip-path="url(#a)">
<defs>
<path id="p" d="m34.188 63.188-13.391-36.281h26.812zm-5.5781 9.7188h11.188l27.781-72.906h-10.25l-6.6406 18.703h-32.859l-6.6406-18.703h-10.406z"/>
</defs>
<g transform="translate(83.901 417.84) rotate(-87.624) scale(.08 -.08)">
<use xlink:href="#p"/>
</g>
</g>
<path d="m92.08 418.25 0.15539-6.158q0.060541-2.3992-2.3387-2.4598l-7.74-0.19531q-2.3992-0.060542-2.4598 2.3387l-0.15539 6.158q-0.060541 2.3992 2.3387 2.4598l7.74 0.19531q2.3992 0.060542 2.4598-2.3387z" clip-path="url(#a)" fill="#fff" stroke="#fff"/>
<g clip-path="url(#a)">
<defs>
<path id="z" d="m19.672 64.797v-56.688h11.922q15.094 0 22.094 6.8281 7 6.8438 7 21.594 0 14.641-7 21.453t-22.094 6.8125zm-9.8594 8.1094h20.266q21.188 0 31.094-8.8125 9.9219-8.8125 9.9219-27.562 0-18.859-9.9688-27.703-9.9531-8.8281-31.047-8.8281h-20.266z"/>
</defs>
<g transform="translate(88.017 418.15) rotate(-88.555) scale(.08 -.08)">
<use xlink:href="#z"/>
</g>
</g>
<path d="m97.59 417.45 0.017202-4.8237q0.008558-2.4-2.3914-2.4085l-7.7424-0.02761q-2.4-0.008559-2.4085 2.3914l-0.017201 4.8237q-0.008559 2.4 2.3914 2.4085l7.7424 0.027611q2.4 0.008558 2.4085-2.3914z" clip-path="url(#a)" fill="#fff" stroke="#fff"/>
<g clip-path="url(#a)">
<defs>
<path id="ae" d="m19.672 64.797v-27.391h12.406q6.8906 0 10.641 3.5625 3.7656 3.5625 3.7656 10.156 0 6.5469-3.7656 10.109-3.75 3.5625-10.641 3.5625zm-9.8594 8.1094h22.266q12.266 0 18.531-5.5469 6.2812-5.5469 6.2812-16.234 0-10.797-6.2812-16.312-6.2656-5.5156-18.531-5.5156h-12.406v-29.297h-9.8594z"/>
</defs>
<g transform="translate(93.526 417.44) rotate(-89.796) scale(.08 -.08)">
<use xlink:href="#ae"/>
</g>
</g>
<path d="m103.09 226.09 1.4744 5.2701q0.6466 2.3113 2.9579 1.6647l7.4562-2.086q2.3113-0.6466 1.6647-2.9579l-1.4744-5.2701q-0.6466-2.3113-2.9579-1.6647l-7.4562 2.086q-2.3113 0.6466-1.6647 2.9579z" clip-path="url(#a)" fill="#fff" stroke="#fff"/>
<g clip-path="url(#a)">
<g transform="translate(107 225) rotate(74.37) scale(.08 -.08)">
<use xlink:href="#p"/>
</g>
</g>
<path d="m427.86 476.12 0.027538 5.0787q0.013014 2.4 2.413 2.387l7.7424-0.041983q2.4-0.013014 2.387-2.413l-0.027539-5.0787q-0.013014-2.4-2.413-2.387l-7.7424 0.041983q-2.4 0.013014-2.387 2.413z" clip-path="url(#a)" fill="#fff" stroke="#fff"/>
<g clip-path="url(#a)">
<defs>
<path id="ad" d="m53.516 70.516v-9.625q-5.6094 2.6875-10.594 4-4.9844 1.3281-9.625 1.3281-8.0469 0-12.422-3.125t-4.375-8.8906q0-4.8438 2.9062-7.3125 2.9062-2.4531 11.016-3.9688l5.9531-1.2188q11.031-2.1094 16.281-7.4062t5.25-14.172q0-10.609-7.1094-16.078-7.0938-5.4688-20.812-5.4688-5.1719 0-11.016 1.1719-5.8281 1.1719-12.078 3.4688v10.156q6-3.3594 11.766-5.0781 5.7656-1.7031 11.328-1.7031 8.4375 0 13.031 3.3125 4.5938 3.3281 4.5938 9.4844 0 5.3594-3.2969 8.3906t-10.812 4.5469l-6.0156 1.1719q-11.031 2.1875-15.969 6.875-4.9219 4.6875-4.9219 13.047 0 9.6719 6.8125 15.234t18.766 5.5625q5.1406 0 10.453-0.9375 5.3281-0.92188 10.891-2.7656z"/>
</defs>
<g transform="translate(431.92 476.1) rotate(89.689) scale(.08 -.08)">
<use xlink:href="#ad"/>
</g>
</g>
<path d="m439.73 544.09 0.016745-6.16q0.006524-2.4-2.3935-2.4065l-7.7425-0.021047q-2.4-0.006524-2.4065 2.3935l-0.016745 6.16q-0.006524 2.4 2.3935 2.4065l7.7425 0.021046q2.4 0.006524 2.4065-2.3935z" clip-path="url(#a)" fill="#fff" stroke="#fff"/>
<g clip-path="url(#a)">
<g transform="translate(435.66 544.08) rotate(-89.844) scale(.08 -.08)">
<use xlink:href="#z"/>
</g>
</g>
<path d="m628.11 710.67v33.808q0 2.4 2.4 2.4h7.7425q2.4 0 2.4-2.4v-33.808q0-2.4-2.4-2.4h-7.7425q-2.4 0-2.4 2.4z" clip-path="url(#a)" fill="#fff" stroke="#fff"/>
<g clip-path="url(#a)">
<defs>
<path id="l" d="m-0.29688 72.906h61.672v-8.3125h-25.875v-64.594h-9.9062v64.594h-25.891z"/>
<path id="d" d="m56.203 29.594v-4.3906h-41.312q0.59375-9.2812 5.5938-14.141t13.938-4.8594q5.1719 0 10.031 1.2656t9.6562 3.8125v-8.5q-4.8438-2.0469-9.9219-3.125t-10.297-1.0781q-13.094 0-20.734 7.6094-7.6406 7.625-7.6406 20.625 0 13.422 7.25 21.297 7.25 7.8906 19.562 7.8906 11.031 0 17.453-7.1094 6.4219-7.0938 6.4219-19.297zm-8.9844 2.6406q-0.09375 7.3594-4.125 11.75-4.0312 4.4062-10.672 4.4062-7.5156 0-12.031-4.25t-5.2031-11.969z"/>
<path id="h" d="m41.109 46.297q-1.5156 0.875-3.2969 1.2812-1.7812 0.42188-3.9219 0.42188-7.625 0-11.703-4.9531t-4.0781-14.234v-28.812h-9.0312v54.688h9.0312v-8.5q2.8438 4.9844 7.375 7.3906 4.5469 2.4219 11.047 2.4219 0.92188 0 2.0469-0.125 1.125-0.10938 2.4844-0.35938z"/>
<path id="i" d="m52 44.188q3.375 6.0625 8.0625 8.9375t11.031 2.875q8.5469 0 13.188-5.9844 4.6406-5.9688 4.6406-17v-33.016h-9.0312v32.719q0 7.8594-2.7969 11.656-2.7812 3.8125-8.4844 3.8125-6.9844 0-11.047-4.6406-4.0469-4.625-4.0469-12.641v-30.906h-9.0312v32.719q0 7.9062-2.7812 11.688t-8.5938 3.7812q-6.8906 0-10.953-4.6562-4.0469-4.6562-4.0469-12.625v-30.906h-9.0312v54.688h9.0312v-8.5q3.0781 5.0312 7.375 7.4219t10.203 2.3906q5.9688 0 10.141-3.0312 4.1719-3.0156 6.1719-8.7812z"/>
<path id="j" d="m9.4219 54.688h8.9844v-54.688h-8.9844zm0 21.297h8.9844v-11.391h-8.9844z"/>
<path id="g" d="m54.891 33.016v-33.016h-8.9844v32.719q0 7.7656-3.0312 11.609-3.0312 3.8594-9.0781 3.8594-7.2812 0-11.484-4.6406-4.2031-4.625-4.2031-12.641v-30.906h-9.0312v54.688h9.0312v-8.5q3.2344 4.9375 7.5938 7.375 4.375 2.4375 10.094 2.4375 9.4219 0 14.25-5.8281 4.8438-5.8281 4.8438-17.156z"/>
<path id="f" d="m34.281 27.484q-10.891 0-15.094-2.4844t-4.2031-8.5q0-4.7812 3.1562-7.5938 3.1562-2.7969 8.5625-2.7969 7.4844 0 12 5.2969t4.5156 14.078v2zm17.922 3.7188v-31.203h-8.9844v8.2969q-3.0781-4.9688-7.6719-7.3438t-11.234-2.375q-8.3906 0-13.359 4.7188-4.9531 4.7188-4.9531 12.625 0 9.2188 6.1719 13.906 6.1875 4.6875 18.438 4.6875h12.609v0.89062q0 6.2031-4.0781 9.5938t-11.453 3.3906q-4.6875 0-9.1406-1.125-4.4375-1.125-8.5312-3.375v8.3125q4.9219 1.9062 9.5625 2.8438 4.6406 0.95312 9.0312 0.95312 11.875 0 17.734-6.1562 5.8594-6.1406 5.8594-18.641z"/>
<path id="k" d="m9.4219 75.984h8.9844v-75.984h-8.9844z"/>
</defs>
<g transform="translate(632.18 710.67) rotate(90) scale(.08 -.08)">
<use xlink:href="#l"/>
<use x="44.083984" xlink:href="#d"/>
<use x="105.607422" xlink:href="#h"/>
<use x="144.970703" xlink:href="#i"/>
<use x="242.382812" xlink:href="#j"/>
<use x="270.166016" xlink:href="#g"/>
<use x="333.544922" xlink:href="#f"/>
<use x="394.824219" xlink:href="#k"/>
</g>
</g>
<path d="m685.23 710.67v33.808q0 2.4 2.4 2.4h7.7425q2.4 0 2.4-2.4v-33.808q0-2.4-2.4-2.4h-7.7425q-2.4 0-2.4 2.4z" clip-path="url(#a)" fill="#fff" stroke="#fff"/>
<g clip-path="url(#a)">
<g transform="translate(689.29 710.67) rotate(90) scale(.08 -.08)">
<use xlink:href="#l"/>
<use x="44.083984" xlink:href="#d"/>
<use x="105.607422" xlink:href="#h"/>
<use x="144.970703" xlink:href="#i"/>
<use x="242.382812" xlink:href="#j"/>
<use x="270.166016" xlink:href="#g"/>
<use x="333.544922" xlink:href="#f"/>
<use x="394.824219" xlink:href="#k"/>
</g>
</g>
<path d="m817.13 546.21 2.4106-4.913q1.0572-2.1546-1.0974-3.2118l-6.9509-3.4105q-2.1546-1.0572-3.2118 1.0974l-2.4106 4.913q-1.0572 2.1546 1.0974 3.2118l6.9509 3.4105q2.1546 1.0572 3.2118-1.0974z" clip-path="url(#a)" fill="#fff" stroke="#fff"/>
<g clip-path="url(#a)">
<g transform="translate(813.48 544.42) rotate(-63.865) scale(.08 -.08)">
<use xlink:href="#p"/>
</g>
</g>
<path d="m849.51 544.81 1.1283-4.6899q0.56136-2.3334-1.7721-2.8948l-7.5277-1.811q-2.3334-0.56135-2.8948 1.7721l-1.1283 4.6899q-0.56136 2.3334 1.7721 2.8948l7.5277 1.811q2.3334 0.56136 2.8948-1.7721z" clip-path="url(#a)" fill="#fff" stroke="#fff"/>
<g clip-path="url(#a)">
<g transform="translate(845.56 543.86) rotate(-76.473) scale(.08 -.08)">
<use xlink:href="#ae"/>
</g>
</g>
<path d="m886.81 477.88 1.6289 5.2244q0.71438 2.2912 3.0056 1.5768l7.3916-2.3046q2.2912-0.71438 1.5768-3.0056l-1.6289-5.2244q-0.71438-2.2912-3.0056-1.5768l-7.3916 2.3046q-2.2912 0.71438-1.5768 3.0056z" clip-path="url(#a)" fill="#fff" stroke="#fff"/>
<g clip-path="url(#a)">
<g transform="translate(890.69 476.67) rotate(72.683) scale(.08 -.08)">
<use xlink:href="#p"/>
</g>
</g>
<path d="m939.17 541.75 2.7276 4.7443q1.1962 2.0806 3.2769 0.88443l6.7122-3.859q2.0806-1.1962 0.88443-3.2769l-2.7276-4.7443q-1.1962-2.0806-3.2769-0.88443l-6.7122 3.859q-2.0806 1.1962-0.88443 3.2769z" clip-path="url(#a)" fill="#fff" stroke="#fff"/>
<g clip-path="url(#a)">
<g transform="translate(942.69 539.72) rotate(60.104) scale(.08 -.08)">
<use xlink:href="#p"/>
</g>
</g>
<path d="m1171.2 546.59 2.8399-4.6779q1.2455-2.0515-0.80607-3.297l-6.6183-4.0179q-2.0515-1.2455-3.297 0.80607l-2.8399 4.6779q-1.2455 2.0515 0.80607 3.297l6.6183 4.0179q2.0515 1.2455 3.297-0.80607z" clip-path="url(#a)" fill="#fff" stroke="#fff"/>
<g clip-path="url(#a)">
<g transform="translate(1167.7 544.48) rotate(-58.738) scale(.08 -.08)">
<use xlink:href="#p"/>
</g>
</g>
<path d="m1210.6 545.01 1.3328-4.404q0.69519-2.2971-1.6019-2.9923l-7.4106-2.2427q-2.2971-0.6952-2.9923 1.6019l-1.3328 4.404q-0.6952 2.2971 1.6019 2.9923l7.4106 2.2427q2.2971 0.69519 2.9923-1.6019z" clip-path="url(#a)" fill="#fff" stroke="#fff"/>
<g clip-path="url(#a)">
<defs>
<path id="u" d="m9.8125 72.906h41.891v-8.3125h-32.031v-21.484h28.906v-8.2969h-28.906v-34.812h-9.8594z"/>
</defs>
<g transform="translate(1206.8 543.84) rotate(-73.162) scale(.08 -.08)">
<use xlink:href="#u"/>
</g>
</g>
<path d="m1308.5 481.66 3.8161 3.3513q1.8033 1.5837 3.387-0.21968l5.109-5.8176q1.5837-1.8033-0.21968-3.387l-3.8161-3.3513q-1.8033-1.5837-3.387 0.21968l-5.109 5.8176q-1.5837 1.8033 0.21968 3.387z" clip-path="url(#a)" fill="#fff" stroke="#fff"/>
<g clip-path="url(#a)">
<g transform="translate(1311.2 478.61) rotate(41.289) scale(.08 -.08)">
<use xlink:href="#ad"/>
</g>
</g>
<path d="m1278.6 540.09 1.9771 5.8341q0.77029 2.273 3.0433 1.5027l7.3329-2.485q2.273-0.77029 1.5027-3.0433l-1.9771-5.8341q-0.77029-2.273-3.0433-1.5027l-7.3329 2.485q-2.273 0.77029-1.5027 3.0433z" clip-path="url(#a)" fill="#fff" stroke="#fff"/>
<g clip-path="url(#a)">
<g transform="translate(1282.5 538.79) rotate(71.279) scale(.08 -.08)">
<use xlink:href="#z"/>
</g>
</g>
<path d="m1085 710.67v33.808q0 2.4 2.4 2.4h7.7425q2.4 0 2.4-2.4v-33.808q0-2.4-2.4-2.4h-7.7425q-2.4 0-2.4 2.4z" clip-path="url(#a)" fill="#fff" stroke="#fff"/>
<g clip-path="url(#a)">
<g transform="translate(1089.1 710.67) rotate(90) scale(.08 -.08)">
<use xlink:href="#l"/>
<use x="44.083984" xlink:href="#d"/>
<use x="105.607422" xlink:href="#h"/>
<use x="144.970703" xlink:href="#i"/>
<use x="242.382812" xlink:href="#j"/>
<use x="270.166016" xlink:href="#g"/>
<use x="333.544922" xlink:href="#f"/>
<use x="394.824219" xlink:href="#k"/>
</g>
</g>
<path d="m1161.2 710.67v33.808q0 2.4 2.4 2.4h7.7425q2.4 0 2.4-2.4v-33.808q0-2.4-2.4-2.4h-7.7425q-2.4 0-2.4 2.4z" clip-path="url(#a)" fill="#fff" stroke="#fff"/>
<g clip-path="url(#a)">
<g transform="translate(1165.3 710.67) rotate(90) scale(.08 -.08)">
<use xlink:href="#l"/>
<use x="44.083984" xlink:href="#d"/>
<use x="105.607422" xlink:href="#h"/>
<use x="144.970703" xlink:href="#i"/>
<use x="242.382812" xlink:href="#j"/>
<use x="270.166016" xlink:href="#g"/>
<use x="333.544922" xlink:href="#f"/>
<use x="394.824219" xlink:href="#k"/>
</g>
</g>
<path d="m1318.6 609.9 3.4312-3.0656q1.7897-1.599 0.19068-3.3888l-5.1586-5.7737q-1.599-1.7897-3.3888-0.19068l-3.4312 3.0656q-1.7897 1.599-0.19068 3.3888l5.1586 5.7737q1.599 1.7897 3.3888 0.19068z" clip-path="url(#a)" fill="#fff" stroke="#fff"/>
<g clip-path="url(#a)">
<g transform="translate(1315.9 606.87) rotate(-41.779) scale(.08 -.08)">
<use xlink:href="#u"/>
</g>
</g>
<path d="m1392.4 602.25 1.1521 5.4662q0.49497 2.3484 2.8434 1.8534l7.5761-1.5968q2.3484-0.49497 1.8534-2.8434l-1.1521-5.4662q-0.49497-2.3484-2.8434-1.8534l-7.5761 1.5968q-2.3484 0.49497-1.8534 2.8434z" clip-path="url(#a)" fill="#fff" stroke="#fff"/>
<g clip-path="url(#a)">
<defs>
<path id="aa" d="m64.406 67.281v-10.391q-4.9844 4.6406-10.625 6.9219-5.6406 2.2969-11.984 2.2969-12.5 0-19.141-7.6406t-6.6406-22.094q0-14.406 6.6406-22.047t19.141-7.6406q6.3438 0 11.984 2.2969t10.625 6.9375v-10.312q-5.1719-3.5156-10.969-5.2812-5.7812-1.75-12.219-1.75-16.562 0-26.094 10.125-9.5156 10.141-9.5156 27.672 0 17.578 9.5156 27.703 9.5312 10.141 26.094 10.141 6.5312 0 12.312-1.7344 5.7969-1.7344 10.875-5.2031z"/>
</defs>
<g transform="translate(1396.4 601.41) rotate(78.098) scale(.08 -.08)">
<use xlink:href="#aa"/>
</g>
</g>
<path d="m1436 605.74 3.9371 4.3337q1.6138 1.7764 3.3902 0.16257l5.7307-5.2063q1.7764-1.6138 0.16257-3.3902l-3.9371-4.3337q-1.6138-1.7764-3.3902-0.16257l-5.7307 5.2063q-1.7764 1.6138-0.16257 3.3902z" clip-path="url(#a)" fill="#fff" stroke="#fff"/>
<g clip-path="url(#a)">
<g transform="translate(1439 603.01) rotate(47.745) scale(.08 -.08)">
<use xlink:href="#x"/>
</g>
</g>
<path d="m1321.7 710.67v33.808q0 2.4 2.4 2.4h7.7425q2.4 0 2.4-2.4v-33.808q0-2.4-2.4-2.4h-7.7425q-2.4 0-2.4 2.4z" clip-path="url(#a)" fill="#fff" stroke="#fff"/>
<g clip-path="url(#a)">
<g transform="translate(1325.7 710.67) rotate(90) scale(.08 -.08)">
<use xlink:href="#l"/>
<use x="44.083984" xlink:href="#d"/>
<use x="105.607422" xlink:href="#h"/>
<use x="144.970703" xlink:href="#i"/>
<use x="242.382812" xlink:href="#j"/>
<use x="270.166016" xlink:href="#g"/>
<use x="333.544922" xlink:href="#f"/>
<use x="394.824219" xlink:href="#k"/>
</g>
</g>
<path d="m1240.1 710.67v33.808q0 2.4 2.4 2.4h7.7425q2.4 0 2.4-2.4v-33.808q0-2.4-2.4-2.4h-7.7425q-2.4 0-2.4 2.4z" clip-path="url(#a)" fill="#fff" stroke="#fff"/>
<g clip-path="url(#a)">
<g transform="translate(1244.1 710.67) rotate(90) scale(.08 -.08)">
<use xlink:href="#l"/>
<use x="44.083984" xlink:href="#d"/>
<use x="105.607422" xlink:href="#h"/>
<use x="144.970703" xlink:href="#i"/>
<use x="242.382812" xlink:href="#j"/>
<use x="270.166016" xlink:href="#g"/>
<use x="333.544922" xlink:href="#f"/>
<use x="394.824219" xlink:href="#k"/>
</g>
</g>
<path d="m1406 710.67v33.808q0 2.4 2.4 2.4h7.7425q2.4 0 2.4-2.4v-33.808q0-2.4-2.4-2.4h-7.7425q-2.4 0-2.4 2.4z" clip-path="url(#a)" fill="#fff" stroke="#fff"/>
<g clip-path="url(#a)">
<g transform="translate(1410 710.67) rotate(90) scale(.08 -.08)">
<use xlink:href="#l"/>
<use x="44.083984" xlink:href="#d"/>
<use x="105.607422" xlink:href="#h"/>
<use x="144.970703" xlink:href="#i"/>
<use x="242.382812" xlink:href="#j"/>
<use x="270.166016" xlink:href="#g"/>
<use x="333.544922" xlink:href="#f"/>
<use x="394.824219" xlink:href="#k"/>
</g>
</g>
<path d="m745.06 710.67v33.808q0 2.4 2.4 2.4h7.7425q2.4 0 2.4-2.4v-33.808q0-2.4-2.4-2.4h-7.7425q-2.4 0-2.4 2.4z" clip-path="url(#a)" fill="#fff" stroke="#fff"/>
<g clip-path="url(#a)">
<g transform="translate(749.13 710.67) rotate(90) scale(.08 -.08)">
<use xlink:href="#l"/>
<use x="44.083984" xlink:href="#d"/>
<use x="105.607422" xlink:href="#h"/>
<use x="144.970703" xlink:href="#i"/>
<use x="242.382812" xlink:href="#j"/>
<use x="270.166016" xlink:href="#g"/>
<use x="333.544922" xlink:href="#f"/>
<use x="394.824219" xlink:href="#k"/>
</g>
</g>
<path d="m807.62 710.67v33.808q0 2.4 2.4 2.4h7.7425q2.4 0 2.4-2.4v-33.808q0-2.4-2.4-2.4h-7.7425q-2.4 0-2.4 2.4z" clip-path="url(#a)" fill="#fff" stroke="#fff"/>
<g clip-path="url(#a)">
<g transform="translate(811.68 710.67) rotate(90) scale(.08 -.08)">
<use xlink:href="#l"/>
<use x="44.083984" xlink:href="#d"/>
<use x="105.607422" xlink:href="#h"/>
<use x="144.970703" xlink:href="#i"/>
<use x="242.382812" xlink:href="#j"/>
<use x="270.166016" xlink:href="#g"/>
<use x="333.544922" xlink:href="#f"/>
<use x="394.824219" xlink:href="#k"/>
</g>
</g>
<path d="m901.61 607.56 1.2099-4.4393q0.63109-2.3155-1.6845-2.9466l-7.47-2.0359q-2.3155-0.63109-2.9466 1.6845l-1.2099 4.4393q-0.63109 2.3155 1.6845 2.9466l7.47 2.0359q2.3155 0.63109 2.9466-1.6845z" clip-path="url(#a)" fill="#fff" stroke="#fff"/>
<g clip-path="url(#a)">
<g transform="translate(897.69 606.49) rotate(-74.755) scale(.08 -.08)">
<use xlink:href="#u"/>
</g>
</g>
<path d="m923.38 602.65 1.4689 5.3897q0.63109 2.3155 2.9466 1.6845l7.47-2.0359q2.3155-0.63109 1.6845-2.9466l-1.4689-5.3897q-0.63109-2.3155-2.9466-1.6845l-7.47 2.0359q-2.3155 0.63109-1.6845 2.9466z" clip-path="url(#a)" fill="#fff" stroke="#fff"/>
<g clip-path="url(#a)">
<g transform="translate(927.3 601.58) rotate(74.755) scale(.08 -.08)">
<use xlink:href="#aa"/>
</g>
</g>
<path d="m1011.6 710.67v33.808q0 2.4 2.4 2.4h7.7425q2.4 0 2.4-2.4v-33.808q0-2.4-2.4-2.4h-7.7425q-2.4 0-2.4 2.4z" clip-path="url(#a)" fill="#fff" stroke="#fff"/>
<g clip-path="url(#a)">
<g transform="translate(1015.7 710.67) rotate(90) scale(.08 -.08)">
<use xlink:href="#l"/>
<use x="44.083984" xlink:href="#d"/>
<use x="105.607422" xlink:href="#h"/>
<use x="144.970703" xlink:href="#i"/>
<use x="242.382812" xlink:href="#j"/>
<use x="270.166016" xlink:href="#g"/>
<use x="333.544922" xlink:href="#f"/>
<use x="394.824219" xlink:href="#k"/>
</g>
</g>
<path d="m872.89 710.67v33.808q0 2.4 2.4 2.4h7.7425q2.4 0 2.4-2.4v-33.808q0-2.4-2.4-2.4h-7.7425q-2.4 0-2.4 2.4z" clip-path="url(#a)" fill="#fff" stroke="#fff"/>
<g clip-path="url(#a)">
<g transform="translate(876.96 710.67) rotate(90) scale(.08 -.08)">
<use xlink:href="#l"/>
<use x="44.083984" xlink:href="#d"/>
<use x="105.607422" xlink:href="#h"/>
<use x="144.970703" xlink:href="#i"/>
<use x="242.382812" xlink:href="#j"/>
<use x="270.166016" xlink:href="#g"/>
<use x="333.544922" xlink:href="#f"/>
<use x="394.824219" xlink:href="#k"/>
</g>
</g>
<path d="m940.89 710.67v33.808q0 2.4 2.4 2.4h7.7425q2.4 0 2.4-2.4v-33.808q0-2.4-2.4-2.4h-7.7425q-2.4 0-2.4 2.4z" clip-path="url(#a)" fill="#fff" stroke="#fff"/>
<g clip-path="url(#a)">
<g transform="translate(944.95 710.67) rotate(90) scale(.08 -.08)">
<use xlink:href="#l"/>
<use x="44.083984" xlink:href="#d"/>
<use x="105.607422" xlink:href="#h"/>
<use x="144.970703" xlink:href="#i"/>
<use x="242.382812" xlink:href="#j"/>
<use x="270.166016" xlink:href="#g"/>
<use x="333.544922" xlink:href="#f"/>
<use x="394.824219" xlink:href="#k"/>
</g>
</g>
<path d="m417.17 607.98 1.5576-4.3296q0.81244-2.2583-1.4459-3.0707l-7.2854-2.621q-2.2583-0.81244-3.0707 1.4459l-1.5576 4.3296q-0.81244 2.2583 1.4459 3.0707l7.2854 2.621q2.2583 0.81244 3.0707-1.4459z" clip-path="url(#a)" fill="#fff" stroke="#fff"/>
<g clip-path="url(#a)">
<g transform="translate(413.34 606.6) rotate(-70.213) scale(.08 -.08)">
<use xlink:href="#u"/>
</g>
</g>
<path d="m450.07 603.19 1.891 5.2564q0.81244 2.2583 3.0707 1.4459l7.2854-2.621q2.2583-0.81244 1.4459-3.0707l-1.891-5.2564q-0.81244-2.2583-3.0707-1.4459l-7.2854 2.621q-2.2583 0.81244-1.4459 3.0707z" clip-path="url(#a)" fill="#fff" stroke="#fff"/>
<g clip-path="url(#a)">
<g transform="translate(453.9 601.81) rotate(70.213) scale(.08 -.08)">
<use xlink:href="#aa"/>
</g>
</g>
<path d="m426.85 710.67v33.808q0 2.4 2.4 2.4h7.7425q2.4 0 2.4-2.4v-33.808q0-2.4-2.4-2.4h-7.7425q-2.4 0-2.4 2.4z" clip-path="url(#a)" fill="#fff" stroke="#fff"/>
<g clip-path="url(#a)">
<g transform="translate(430.92 710.67) rotate(90) scale(.08 -.08)">
<use xlink:href="#l"/>
<use x="44.083984" xlink:href="#d"/>
<use x="105.607422" xlink:href="#h"/>
<use x="144.970703" xlink:href="#i"/>
<use x="242.382812" xlink:href="#j"/>
<use x="270.166016" xlink:href="#g"/>
<use x="333.544922" xlink:href="#f"/>
<use x="394.824219" xlink:href="#k"/>
</g>
</g>
<path d="m383.34 710.67v33.808q0 2.4 2.4 2.4h7.7425q2.4 0 2.4-2.4v-33.808q0-2.4-2.4-2.4h-7.7425q-2.4 0-2.4 2.4z" clip-path="url(#a)" fill="#fff" stroke="#fff"/>
<g clip-path="url(#a)">
<g transform="translate(387.4 710.67) rotate(90) scale(.08 -.08)">
<use xlink:href="#l"/>
<use x="44.083984" xlink:href="#d"/>
<use x="105.607422" xlink:href="#h"/>
<use x="144.970703" xlink:href="#i"/>
<use x="242.382812" xlink:href="#j"/>
<use x="270.166016" xlink:href="#g"/>
<use x="333.544922" xlink:href="#f"/>
<use x="394.824219" xlink:href="#k"/>
</g>
</g>
<path d="m473.09 710.67v33.808q0 2.4 2.4 2.4h7.7425q2.4 0 2.4-2.4v-33.808q0-2.4-2.4-2.4h-7.7425q-2.4 0-2.4 2.4z" clip-path="url(#a)" fill="#fff" stroke="#fff"/>
<g clip-path="url(#a)">
<g transform="translate(477.15 710.67) rotate(90) scale(.08 -.08)">
<use xlink:href="#l"/>
<use x="44.083984" xlink:href="#d"/>
<use x="105.607422" xlink:href="#h"/>
<use x="144.970703" xlink:href="#i"/>
<use x="242.382812" xlink:href="#j"/>
<use x="270.166016" xlink:href="#g"/>
<use x="333.544922" xlink:href="#f"/>
<use x="394.824219" xlink:href="#k"/>
</g>
</g>
<path d="m65.123 710.67v33.808q0 2.4 2.4 2.4h7.7425q2.4 0 2.4-2.4v-33.808q0-2.4-2.4-2.4h-7.7425q-2.4 0-2.4 2.4z" clip-path="url(#a)" fill="#fff" stroke="#fff"/>
<g clip-path="url(#a)">
<g transform="translate(69.186 710.67) rotate(90) scale(.08 -.08)">
<use xlink:href="#l"/>
<use x="44.083984" xlink:href="#d"/>
<use x="105.607422" xlink:href="#h"/>
<use x="144.970703" xlink:href="#i"/>
<use x="242.382812" xlink:href="#j"/>
<use x="270.166016" xlink:href="#g"/>
<use x="333.544922" xlink:href="#f"/>
<use x="394.824219" xlink:href="#k"/>
</g>
</g>
<path d="m73.282 710.67v33.808q0 2.4 2.4 2.4h7.7425q2.4 0 2.4-2.4v-33.808q0-2.4-2.4-2.4h-7.7425q-2.4 0-2.4 2.4z" clip-path="url(#a)" fill="#fff" stroke="#fff"/>
<g clip-path="url(#a)">
<g transform="translate(77.346 710.67) rotate(90) scale(.08 -.08)">
<use xlink:href="#l"/>
<use x="44.083984" xlink:href="#d"/>
<use x="105.607422" xlink:href="#h"/>
<use x="144.970703" xlink:href="#i"/>
<use x="242.382812" xlink:href="#j"/>
<use x="270.166016" xlink:href="#g"/>
<use x="333.544922" xlink:href="#f"/>
<use x="394.824219" xlink:href="#k"/>
</g>
</g>
<path d="m84.161 710.67v33.808q0 2.4 2.4 2.4h7.7425q2.4 0 2.4-2.4v-33.808q0-2.4-2.4-2.4h-7.7425q-2.4 0-2.4 2.4z" clip-path="url(#a)" fill="#fff" stroke="#fff"/>
<g clip-path="url(#a)">
<g transform="translate(88.225 710.67) rotate(90) scale(.08 -.08)">
<use xlink:href="#l"/>
<use x="44.083984" xlink:href="#d"/>
<use x="105.607422" xlink:href="#h"/>
<use x="144.970703" xlink:href="#i"/>
<use x="242.382812" xlink:href="#j"/>
<use x="270.166016" xlink:href="#g"/>
<use x="333.544922" xlink:href="#f"/>
<use x="394.824219" xlink:href="#k"/>
</g>
</g>
<path d="m105.25 481.72 0.80792-5.4125q0.35432-2.3737-2.0194-2.728l-7.6577-1.143q-2.3737-0.35432-2.728 2.0194l-0.80792 5.4125q-0.35432 2.3737 2.0194 2.728l7.6577 1.143q2.3737 0.35432 2.728-2.0194z" clip-path="url(#a)" fill="#fff" stroke="#fff"/>
<g clip-path="url(#a)">
<g transform="translate(101.23 481.12) rotate(-81.51) scale(.08 -.08)">
<use xlink:href="#p"/>
</g>
</g>
<path d="m121.84 481.55 0.38398-6.148q0.1496-2.3953-2.2457-2.5449l-7.7274-0.48263q-2.3953-0.1496-2.5449 2.2457l-0.38398 6.148q-0.1496 2.3953 2.2457 2.5449l7.7274 0.48263q2.3953 0.1496 2.5449-2.2457z" clip-path="url(#a)" fill="#fff" stroke="#fff"/>
<g clip-path="url(#a)">
<g transform="translate(117.78 481.3) rotate(-86.426) scale(.08 -.08)">
<use xlink:href="#z"/>
</g>
</g>
<path d="m130.16 480.51 0.087639-4.6004q0.045712-2.3996-2.3539-2.4453l-7.7411-0.14747q-2.3996-0.045713-2.4453 2.3539l-0.087639 4.6004q-0.045713 2.3996 2.3539 2.4453l7.7411 0.14747q2.3996 0.045712 2.4453-2.3539z" clip-path="url(#a)" fill="#fff" stroke="#fff"/>
<g clip-path="url(#a)">
<g transform="translate(126.09 480.43) rotate(-88.909) scale(.08 -.08)">
<use xlink:href="#u"/>
</g>
</g>
<path d="m127.11 475.87 0.1523 4.8213q0.075778 2.3988 2.4746 2.323l7.7386-0.24446q2.3988-0.075778 2.323-2.4746l-0.15231-4.8213q-0.075777-2.3988-2.4746-2.323l-7.7386 0.24446q-2.3988 0.075778-2.323 2.4746z" clip-path="url(#a)" fill="#fff" stroke="#fff"/>
<g clip-path="url(#a)">
<g transform="translate(131.17 475.74) rotate(88.191) scale(.08 -.08)">
<use xlink:href="#ae"/>
</g>
</g>
<path d="m158.17 353.87 2.7988 4.7026q1.2275 2.0624 3.2898 0.83492l6.6533-3.9598q2.0624-1.2275 0.83492-3.2898l-2.7988-4.7026q-1.2275-2.0624-3.2898-0.83492l-6.6533 3.9598q-2.0624 1.2275-0.83492 3.2898z" clip-path="url(#a)" fill="#fff" stroke="#fff"/>
<g clip-path="url(#a)">
<g transform="translate(161.66 351.8) rotate(59.24) scale(.08 -.08)">
<use xlink:href="#p"/>
</g>
</g>
<path d="m97.76 710.67v33.808q0 2.4 2.4 2.4h7.7425q2.4 0 2.4-2.4v-33.808q0-2.4-2.4-2.4h-7.7425q-2.4 0-2.4 2.4z" clip-path="url(#a)" fill="#fff" stroke="#fff"/>
<g clip-path="url(#a)">
<g transform="translate(101.82 710.67) rotate(90) scale(.08 -.08)">
<use xlink:href="#l"/>
<use x="44.083984" xlink:href="#d"/>
<use x="105.607422" xlink:href="#h"/>
<use x="144.970703" xlink:href="#i"/>
<use x="242.382812" xlink:href="#j"/>
<use x="270.166016" xlink:href="#g"/>
<use x="333.544922" xlink:href="#f"/>
<use x="394.824219" xlink:href="#k"/>
</g>
</g>
<path d="m114.08 710.67v33.808q0 2.4 2.4 2.4h7.7425q2.4 0 2.4-2.4v-33.808q0-2.4-2.4-2.4h-7.7425q-2.4 0-2.4 2.4z" clip-path="url(#a)" fill="#fff" stroke="#fff"/>
<g clip-path="url(#a)">
<g transform="translate(118.14 710.67) rotate(90) scale(.08 -.08)">
<use xlink:href="#l"/>
<use x="44.083984" xlink:href="#d"/>
<use x="105.607422" xlink:href="#h"/>
<use x="144.970703" xlink:href="#i"/>
<use x="242.382812" xlink:href="#j"/>
<use x="270.166016" xlink:href="#g"/>
<use x="333.544922" xlink:href="#f"/>
<use x="394.824219" xlink:href="#k"/>
</g>
</g>
<path d="m133.12 710.67v33.808q0 2.4 2.4 2.4h7.7425q2.4 0 2.4-2.4v-33.808q0-2.4-2.4-2.4h-7.7425q-2.4 0-2.4 2.4z" clip-path="url(#a)" fill="#fff" stroke="#fff"/>
<g clip-path="url(#a)">
<g transform="translate(137.18 710.67) rotate(90) scale(.08 -.08)">
<use xlink:href="#l"/>
<use x="44.083984" xlink:href="#d"/>
<use x="105.607422" xlink:href="#h"/>
<use x="144.970703" xlink:href="#i"/>
<use x="242.382812" xlink:href="#j"/>
<use x="270.166016" xlink:href="#g"/>
<use x="333.544922" xlink:href="#f"/>
<use x="394.824219" xlink:href="#k"/>
</g>
</g>
<path d="m187.51 544.72 0.89045-5.3996q0.39051-2.368-1.9775-2.7585l-7.6393-1.2598q-2.368-0.39051-2.7585 1.9775l-0.89045 5.3996q-0.39051 2.368 1.9775 2.7585l7.6393 1.2598q2.368 0.39051 2.7585-1.9775z" clip-path="url(#a)" fill="#fff" stroke="#fff"/>
<g clip-path="url(#a)">
<g transform="translate(183.5 544.05) rotate(-80.636) scale(.08 -.08)">
<use xlink:href="#p"/>
</g>
</g>
<path d="m200.1 543.95 0.33978-5.0674q0.16056-2.3946-2.2341-2.5552l-7.7252-0.51798q-2.3946-0.16056-2.5552 2.2341l-0.33978 5.0674q-0.16056 2.3946 2.2341 2.5552l7.7252 0.51798q2.3946 0.16056 2.5552-2.2341z" clip-path="url(#a)" fill="#fff" stroke="#fff"/>
<g clip-path="url(#a)">
<g transform="translate(196.04 543.68) rotate(-86.164) scale(.08 -.08)">
<use xlink:href="#ad"/>
</g>
</g>
<path d="m224.57 478.78 2.2981 4.9666q1.0079 2.1781 3.186 1.1703l7.0267-3.2514q2.1781-1.0079 1.1703-3.186l-2.2981-4.9666q-1.0079-2.1781-3.186-1.1703l-7.0267 3.2514q-2.1781 1.0079-1.1703 3.186z" clip-path="url(#a)" fill="#fff" stroke="#fff"/>
<g clip-path="url(#a)">
<g transform="translate(228.25 477.07) rotate(65.169) scale(.08 -.08)">
<use xlink:href="#p"/>
</g>
</g>
<path d="m154.88 710.67v33.808q0 2.4 2.4 2.4h7.7425q2.4 0 2.4-2.4v-33.808q0-2.4-2.4-2.4h-7.7425q-2.4 0-2.4 2.4z" clip-path="url(#a)" fill="#fff" stroke="#fff"/>
<g clip-path="url(#a)">
<g transform="translate(158.94 710.67) rotate(90) scale(.08 -.08)">
<use xlink:href="#l"/>
<use x="44.083984" xlink:href="#d"/>
<use x="105.607422" xlink:href="#h"/>
<use x="144.970703" xlink:href="#i"/>
<use x="242.382812" xlink:href="#j"/>
<use x="270.166016" xlink:href="#g"/>
<use x="333.544922" xlink:href="#f"/>
<use x="394.824219" xlink:href="#k"/>
</g>
</g>
<path d="m179.35 710.67v33.808q0 2.4 2.4 2.4h7.7425q2.4 0 2.4-2.4v-33.808q0-2.4-2.4-2.4h-7.7425q-2.4 0-2.4 2.4z" clip-path="url(#a)" fill="#fff" stroke="#fff"/>
<g clip-path="url(#a)">
<g transform="translate(183.42 710.67) rotate(90) scale(.08 -.08)">
<use xlink:href="#l"/>
<use x="44.083984" xlink:href="#d"/>
<use x="105.607422" xlink:href="#h"/>
<use x="144.970703" xlink:href="#i"/>
<use x="242.382812" xlink:href="#j"/>
<use x="270.166016" xlink:href="#g"/>
<use x="333.544922" xlink:href="#f"/>
<use x="394.824219" xlink:href="#k"/>
</g>
</g>
<path d="m241.49 608.53 1.9817-5.1935q0.85558-2.2423-1.3867-3.0979l-7.2338-2.7601q-2.2423-0.85558-3.0979 1.3867l-1.9817 5.1935q-0.85558 2.2423 1.3867 3.0979l7.2338 2.7601q2.2423 0.85558 3.0979-1.3867z" clip-path="url(#a)" fill="#fff" stroke="#fff"/>
<g clip-path="url(#a)">
<defs>
<path id="ar" d="m44.391 34.188q3.1719-1.0781 6.1719-4.5938t6.0312-9.6719l10.016-19.922h-10.609l-9.3125 18.703q-3.625 7.3281-7.0156 9.7188t-9.25 2.3906h-10.75v-30.812h-9.8594v72.906h22.266q12.5 0 18.656-5.2344 6.1562-5.2188 6.1562-15.766 0-6.8906-3.2031-11.438-3.2031-4.5312-9.2969-6.2812zm-24.719 30.609v-25.875h12.406q7.125 0 10.766 3.2969t3.6406 9.6875-3.6406 9.6406-10.766 3.25z"/>
</defs>
<g transform="translate(237.69 607.08) rotate(-69.115) scale(.08 -.08)">
<use xlink:href="#ar"/>
</g>
</g>
<path d="m257.47 606.85 0.64565-4.5557q0.33677-2.3763-2.0395-2.713l-7.6659-1.0864q-2.3763-0.33677-2.713 2.0395l-0.64565 4.5557q-0.33677 2.3763 2.0395 2.713l7.6659 1.0864q2.3763 0.33677 2.713-2.0395z" clip-path="url(#a)" fill="#fff" stroke="#fff"/>
<g clip-path="url(#a)">
<g transform="translate(253.44 606.28) rotate(-81.934) scale(.08 -.08)">
<use xlink:href="#u"/>
</g>
</g>
<path d="m261.37 601.93 0.60188 5.019q0.28576 2.3829 2.6687 2.0972l7.6874-0.92187q2.3829-0.28576 2.0972-2.6687l-0.60188-5.019q-0.28576-2.3829-2.6687-2.0972l-7.6874 0.92187q-2.3829 0.28576-2.0972 2.6687z" clip-path="url(#a)" fill="#fff" stroke="#fff"/>
<g clip-path="url(#a)">
<defs>
<path id="as" d="m9.8125 72.906h46.094v-8.3125h-36.234v-21.578h34.719v-8.2969h-34.719v-26.422h37.109v-8.2969h-46.969z"/>
</defs>
<g transform="translate(265.4 601.45) rotate(83.162) scale(.08 -.08)">
<use xlink:href="#as"/>
</g>
</g>
<path d="m278.71 603.45 2.0897 5.1807q0.89779 2.2258 3.1235 1.328l7.1804-2.8963q2.2258-0.89779 1.328-3.1235l-2.0897-5.1807q-0.89779-2.2258-3.1235-1.328l-7.1804 2.8963q-2.2258 0.89779-1.328 3.1235z" clip-path="url(#a)" fill="#fff" stroke="#fff"/>
<g clip-path="url(#a)">
<g transform="translate(282.48 601.93) rotate(68.033) scale(.08 -.08)">
<use xlink:href="#aa"/>
</g>
</g>
<path d="m206.55 710.67v33.808q0 2.4 2.4 2.4h7.7425q2.4 0 2.4-2.4v-33.808q0-2.4-2.4-2.4h-7.7425q-2.4 0-2.4 2.4z" clip-path="url(#a)" fill="#fff" stroke="#fff"/>
<g clip-path="url(#a)">
<g transform="translate(210.61 710.67) rotate(90) scale(.08 -.08)">
<use xlink:href="#l"/>
<use x="44.083984" xlink:href="#d"/>
<use x="105.607422" xlink:href="#h"/>
<use x="144.970703" xlink:href="#i"/>
<use x="242.382812" xlink:href="#j"/>
<use x="270.166016" xlink:href="#g"/>
<use x="333.544922" xlink:href="#f"/>
<use x="394.824219" xlink:href="#k"/>
</g>
</g>
<path d="m236.47 710.67v33.808q0 2.4 2.4 2.4h7.7425q2.4 0 2.4-2.4v-33.808q0-2.4-2.4-2.4h-7.7425q-2.4 0-2.4 2.4z" clip-path="url(#a)" fill="#fff" stroke="#fff"/>
<g clip-path="url(#a)">
<g transform="translate(240.53 710.67) rotate(90) scale(.08 -.08)">
<use xlink:href="#l"/>
<use x="44.083984" xlink:href="#d"/>
<use x="105.607422" xlink:href="#h"/>
<use x="144.970703" xlink:href="#i"/>
<use x="242.382812" xlink:href="#j"/>
<use x="270.166016" xlink:href="#g"/>
<use x="333.544922" xlink:href="#f"/>
<use x="394.824219" xlink:href="#k"/>
</g>
</g>
<path d="m269.11 710.67v33.808q0 2.4 2.4 2.4h7.7425q2.4 0 2.4-2.4v-33.808q0-2.4-2.4-2.4h-7.7425q-2.4 0-2.4 2.4z" clip-path="url(#a)" fill="#fff" stroke="#fff"/>
<g clip-path="url(#a)">
<g transform="translate(273.17 710.67) rotate(90) scale(.08 -.08)">
<use xlink:href="#l"/>
<use x="44.083984" xlink:href="#d"/>
<use x="105.607422" xlink:href="#h"/>
<use x="144.970703" xlink:href="#i"/>
<use x="242.382812" xlink:href="#j"/>
<use x="270.166016" xlink:href="#g"/>
<use x="333.544922" xlink:href="#f"/>
<use x="394.824219" xlink:href="#k"/>
</g>
</g>
<path d="m304.46 710.67v33.808q0 2.4 2.4 2.4h7.7425q2.4 0 2.4-2.4v-33.808q0-2.4-2.4-2.4h-7.7425q-2.4 0-2.4 2.4z" clip-path="url(#a)" fill="#fff" stroke="#fff"/>
<g clip-path="url(#a)">
<g transform="translate(308.53 710.67) rotate(90) scale(.08 -.08)">
<use xlink:href="#l"/>
<use x="44.083984" xlink:href="#d"/>
<use x="105.607422" xlink:href="#h"/>
<use x="144.970703" xlink:href="#i"/>
<use x="242.382812" xlink:href="#j"/>
<use x="270.166016" xlink:href="#g"/>
<use x="333.544922" xlink:href="#f"/>
<use x="394.824219" xlink:href="#k"/>
</g>
</g>
<path d="m342.54 710.67v33.808q0 2.4 2.4 2.4h7.7425q2.4 0 2.4-2.4v-33.808q0-2.4-2.4-2.4h-7.7425q-2.4 0-2.4 2.4z" clip-path="url(#a)" fill="#fff" stroke="#fff"/>
<g clip-path="url(#a)">
<g transform="translate(346.6 710.67) rotate(90) scale(.08 -.08)">
<use xlink:href="#l"/>
<use x="44.083984" xlink:href="#d"/>
<use x="105.607422" xlink:href="#h"/>
<use x="144.970703" xlink:href="#i"/>
<use x="242.382812" xlink:href="#j"/>
<use x="270.166016" xlink:href="#g"/>
<use x="333.544922" xlink:href="#f"/>
<use x="394.824219" xlink:href="#k"/>
</g>
</g>
<path d="m522.04 710.67v33.808q0 2.4 2.4 2.4h7.7425q2.4 0 2.4-2.4v-33.808q0-2.4-2.4-2.4h-7.7425q-2.4 0-2.4 2.4z" clip-path="url(#a)" fill="#fff" stroke="#fff"/>
<g clip-path="url(#a)">
<g transform="translate(526.11 710.67) rotate(90) scale(.08 -.08)">
<use xlink:href="#l"/>
<use x="44.083984" xlink:href="#d"/>
<use x="105.607422" xlink:href="#h"/>
<use x="144.970703" xlink:href="#i"/>
<use x="242.382812" xlink:href="#j"/>
<use x="270.166016" xlink:href="#g"/>
<use x="333.544922" xlink:href="#f"/>
<use x="394.824219" xlink:href="#k"/>
</g>
</g>
<path d="m573.72 710.67v33.808q0 2.4 2.4 2.4h7.7425q2.4 0 2.4-2.4v-33.808q0-2.4-2.4-2.4h-7.7425q-2.4 0-2.4 2.4z" clip-path="url(#a)" fill="#fff" stroke="#fff"/>
<g clip-path="url(#a)">
<g transform="translate(577.78 710.67) rotate(90) scale(.08 -.08)">
<use xlink:href="#l"/>
<use x="44.083984" xlink:href="#d"/>
<use x="105.607422" xlink:href="#h"/>
<use x="144.970703" xlink:href="#i"/>
<use x="242.382812" xlink:href="#j"/>
<use x="270.166016" xlink:href="#g"/>
<use x="333.544922" xlink:href="#f"/>
<use x="394.824219" xlink:href="#k"/>
</g>
</g>
<path d="m1493 710.67v33.808q0 2.4 2.4 2.4h7.7425q2.4 0 2.4-2.4v-33.808q0-2.4-2.4-2.4h-7.7425q-2.4 0-2.4 2.4z" clip-path="url(#a)" fill="#fff" stroke="#fff"/>
<g clip-path="url(#a)">
<g transform="translate(1497.1 710.67) rotate(90) scale(.08 -.08)">
<use xlink:href="#l"/>
<use x="44.083984" xlink:href="#d"/>
<use x="105.607422" xlink:href="#h"/>
<use x="144.970703" xlink:href="#i"/>
<use x="242.382812" xlink:href="#j"/>
<use x="270.166016" xlink:href="#g"/>
<use x="333.544922" xlink:href="#f"/>
<use x="394.824219" xlink:href="#k"/>
</g>
</g>
<defs>
<path id="b" d="m0 8.6603c2.2967 0 4.4997-0.9125 6.1237-2.5365 1.624-1.624 2.5365-3.827 2.5365-6.1237s-0.9125-4.4997-2.5365-6.1237c-1.624-1.624-3.827-2.5365-6.1237-2.5365s-4.4997 0.9125-6.1237 2.5365c-1.624 1.624-2.5365 3.827-2.5365 6.1237s0.9125 4.4997 2.5365 6.1237c1.624 1.624 3.827 2.5365 6.1237 2.5365z"/>
</defs>
<g clip-path="url(#a)">
<use x="71.393939" y="789.090909" fill="#ffffff" stroke="#ffffff" xlink:href="#b"/>
</g>
<g clip-path="url(#a)">
<use x="79.553247" y="789.090909" fill="#ffffff" stroke="#ffffff" xlink:href="#b"/>
</g>
<g clip-path="url(#a)">
<use x="90.432323" y="789.090909" fill="#ffffff" stroke="#ffffff" xlink:href="#b"/>
</g>
<g clip-path="url(#a)">
<use x="104.031169" y="789.090909" fill="#ffffff" stroke="#ffffff" xlink:href="#b"/>
</g>
<g clip-path="url(#a)">
<use x="120.349784" y="789.090909" fill="#ffffff" stroke="#ffffff" xlink:href="#b"/>
</g>
<g clip-path="url(#a)">
<use x="139.388167" y="789.090909" fill="#ffffff" stroke="#ffffff" xlink:href="#b"/>
</g>
<g clip-path="url(#a)">
<use x="161.14632" y="789.090909" fill="#ffffff" stroke="#ffffff" xlink:href="#b"/>
</g>
<g clip-path="url(#a)">
<use x="185.624242" y="789.090909" fill="#ffffff" stroke="#ffffff" xlink:href="#b"/>
</g>
<g clip-path="url(#a)">
<use x="212.821934" y="789.090909" fill="#ffffff" stroke="#ffffff" xlink:href="#b"/>
</g>
<g clip-path="url(#a)">
<use x="242.739394" y="789.090909" fill="#ffffff" stroke="#ffffff" xlink:href="#b"/>
</g>
<g clip-path="url(#a)">
<use x="275.376623" y="789.090909" fill="#ffffff" stroke="#ffffff" xlink:href="#b"/>
</g>
<g clip-path="url(#a)">
<use x="310.733622" y="789.090909" fill="#ffffff" stroke="#ffffff" xlink:href="#b"/>
</g>
<g clip-path="url(#a)">
<use x="348.81039" y="789.090909" fill="#ffffff" stroke="#ffffff" xlink:href="#b"/>
</g>
<g clip-path="url(#a)">
<use x="389.606926" y="789.090909" fill="#ffffff" stroke="#ffffff" xlink:href="#b"/>
</g>
<g clip-path="url(#a)">
<use x="433.123232" y="789.090909" fill="#ffffff" stroke="#ffffff" xlink:href="#b"/>
</g>
<g clip-path="url(#a)">
<use x="479.359307" y="789.090909" fill="#ffffff" stroke="#ffffff" xlink:href="#b"/>
</g>
<g clip-path="url(#a)">
<use x="528.315152" y="789.090909" fill="#ffffff" stroke="#ffffff" xlink:href="#b"/>
</g>
<g clip-path="url(#a)">
<use x="579.990765" y="789.090909" fill="#ffffff" stroke="#ffffff" xlink:href="#b"/>
</g>
<g clip-path="url(#a)">
<use x="634.386147" y="789.090909" fill="#ffffff" stroke="#ffffff" xlink:href="#b"/>
</g>
<g clip-path="url(#a)">
<use x="691.501299" y="789.090909" fill="#ffffff" stroke="#ffffff" xlink:href="#b"/>
</g>
<g clip-path="url(#a)">
<use x="751.336219" y="789.090909" fill="#ffffff" stroke="#ffffff" xlink:href="#b"/>
</g>
<g clip-path="url(#a)">
<use x="813.890909" y="789.090909" fill="#ffffff" stroke="#ffffff" xlink:href="#b"/>
</g>
<g clip-path="url(#a)">
<use x="879.165368" y="789.090909" fill="#ffffff" stroke="#ffffff" xlink:href="#b"/>
</g>
<g clip-path="url(#a)">
<use x="947.159596" y="789.090909" fill="#ffffff" stroke="#ffffff" xlink:href="#b"/>
</g>
<g clip-path="url(#a)">
<use x="1017.873593" y="789.090909" fill="#ffffff" stroke="#ffffff" xlink:href="#b"/>
</g>
<g clip-path="url(#a)">
<use x="1091.307359" y="789.090909" fill="#ffffff" stroke="#ffffff" xlink:href="#b"/>
</g>
<g clip-path="url(#a)">
<use x="1167.460895" y="789.090909" fill="#ffffff" stroke="#ffffff" xlink:href="#b"/>
</g>
<g clip-path="url(#a)">
<use x="1246.334199" y="789.090909" fill="#ffffff" stroke="#ffffff" xlink:href="#b"/>
</g>
<g clip-path="url(#a)">
<use x="1327.927273" y="789.090909" fill="#ffffff" stroke="#ffffff" xlink:href="#b"/>
</g>
<g clip-path="url(#a)">
<use x="1412.240115" y="789.090909" fill="#ffffff" stroke="#ffffff" xlink:href="#b"/>
</g>
<g clip-path="url(#a)">
<use x="1499.272727" y="789.090909" fill="#ffffff" stroke="#ffffff" xlink:href="#b"/>
</g>
<g clip-path="url(#a)">
<use x="602.917411" y="37.575758" fill="#ffffff" stroke="#ffffff" xlink:href="#b"/>
</g>
<g clip-path="url(#a)">
<use x="92.222838" y="163.969054" fill="#ffffff" stroke="#ffffff" xlink:href="#b"/>
</g>
<g clip-path="url(#a)">
<use x="433.803175" y="415.928881" fill="#ffffff" stroke="#ffffff" xlink:href="#b"/>
</g>
<g clip-path="url(#a)">
<use x="634.386147" y="666.062622" fill="#ffffff" stroke="#ffffff" xlink:href="#b"/>
</g>
<g clip-path="url(#a)">
<use x="691.501299" y="666.062622" fill="#ffffff" stroke="#ffffff" xlink:href="#b"/>
</g>
<g clip-path="url(#a)">
<use x="874.065801" y="415.928881" fill="#ffffff" stroke="#ffffff" xlink:href="#b"/>
</g>
<g clip-path="url(#a)">
<use x="1243.161135" y="415.928881" fill="#ffffff" stroke="#ffffff" xlink:href="#b"/>
</g>
<g clip-path="url(#a)">
<use x="1091.307359" y="666.062622" fill="#ffffff" stroke="#ffffff" xlink:href="#b"/>
</g>
<g clip-path="url(#a)">
<use x="1167.460895" y="666.062622" fill="#ffffff" stroke="#ffffff" xlink:href="#b"/>
</g>
<g clip-path="url(#a)">
<use x="1385.949014" y="541.322876" fill="#ffffff" stroke="#ffffff" xlink:href="#b"/>
</g>
<g clip-path="url(#a)">
<use x="1327.927273" y="666.062622" fill="#ffffff" stroke="#ffffff" xlink:href="#b"/>
</g>
<g clip-path="url(#a)">
<use x="1246.334199" y="666.062622" fill="#ffffff" stroke="#ffffff" xlink:href="#b"/>
</g>
<g clip-path="url(#a)">
<use x="1412.240115" y="666.062622" fill="#ffffff" stroke="#ffffff" xlink:href="#b"/>
</g>
<g clip-path="url(#a)">
<use x="751.336219" y="666.062622" fill="#ffffff" stroke="#ffffff" xlink:href="#b"/>
</g>
<g clip-path="url(#a)">
<use x="813.890909" y="666.062622" fill="#ffffff" stroke="#ffffff" xlink:href="#b"/>
</g>
<g clip-path="url(#a)">
<use x="913.162482" y="541.322876" fill="#ffffff" stroke="#ffffff" xlink:href="#b"/>
</g>
<g clip-path="url(#a)">
<use x="1017.873593" y="666.062622" fill="#ffffff" stroke="#ffffff" xlink:href="#b"/>
</g>
<g clip-path="url(#a)">
<use x="879.165368" y="666.062622" fill="#ffffff" stroke="#ffffff" xlink:href="#b"/>
</g>
<g clip-path="url(#a)">
<use x="947.159596" y="666.062622" fill="#ffffff" stroke="#ffffff" xlink:href="#b"/>
</g>
<g clip-path="url(#a)">
<use x="434.483117" y="541.322876" fill="#ffffff" stroke="#ffffff" xlink:href="#b"/>
</g>
<g clip-path="url(#a)">
<use x="433.123232" y="666.062622" fill="#ffffff" stroke="#ffffff" xlink:href="#b"/>
</g>
<g clip-path="url(#a)">
<use x="389.606926" y="666.062622" fill="#ffffff" stroke="#ffffff" xlink:href="#b"/>
</g>
<g clip-path="url(#a)">
<use x="479.359307" y="666.062622" fill="#ffffff" stroke="#ffffff" xlink:href="#b"/>
</g>
<g clip-path="url(#a)">
<use x="71.393939" y="666.062622" fill="#ffffff" stroke="#ffffff" xlink:href="#b"/>
</g>
<g clip-path="url(#a)">
<use x="79.553247" y="666.062622" fill="#ffffff" stroke="#ffffff" xlink:href="#b"/>
</g>
<g clip-path="url(#a)">
<use x="90.432323" y="666.062622" fill="#ffffff" stroke="#ffffff" xlink:href="#b"/>
</g>
<g clip-path="url(#a)">
<use x="127.511842" y="290.108116" fill="#ffffff" stroke="#ffffff" xlink:href="#b"/>
</g>
<g clip-path="url(#a)">
<use x="104.031169" y="666.062622" fill="#ffffff" stroke="#ffffff" xlink:href="#b"/>
</g>
<g clip-path="url(#a)">
<use x="120.349784" y="666.062622" fill="#ffffff" stroke="#ffffff" xlink:href="#b"/>
</g>
<g clip-path="url(#a)">
<use x="139.388167" y="666.062622" fill="#ffffff" stroke="#ffffff" xlink:href="#b"/>
</g>
<g clip-path="url(#a)">
<use x="202.396152" y="415.928881" fill="#ffffff" stroke="#ffffff" xlink:href="#b"/>
</g>
<g clip-path="url(#a)">
<use x="161.14632" y="666.062622" fill="#ffffff" stroke="#ffffff" xlink:href="#b"/>
</g>
<g clip-path="url(#a)">
<use x="185.624242" y="666.062622" fill="#ffffff" stroke="#ffffff" xlink:href="#b"/>
</g>
<g clip-path="url(#a)">
<use x="260.417893" y="541.322876" fill="#ffffff" stroke="#ffffff" xlink:href="#b"/>
</g>
<g clip-path="url(#a)">
<use x="212.821934" y="666.062622" fill="#ffffff" stroke="#ffffff" xlink:href="#b"/>
</g>
<g clip-path="url(#a)">
<use x="242.739394" y="666.062622" fill="#ffffff" stroke="#ffffff" xlink:href="#b"/>
</g>
<g clip-path="url(#a)">
<use x="275.376623" y="666.062622" fill="#ffffff" stroke="#ffffff" xlink:href="#b"/>
</g>
<g clip-path="url(#a)">
<use x="310.733622" y="666.062622" fill="#ffffff" stroke="#ffffff" xlink:href="#b"/>
</g>
<g clip-path="url(#a)">
<use x="348.81039" y="666.062622" fill="#ffffff" stroke="#ffffff" xlink:href="#b"/>
</g>
<g clip-path="url(#a)">
<use x="528.315152" y="666.062622" fill="#ffffff" stroke="#ffffff" xlink:href="#b"/>
</g>
<g clip-path="url(#a)">
<use x="579.990765" y="666.062622" fill="#ffffff" stroke="#ffffff" xlink:href="#b"/>
</g>
<g clip-path="url(#a)">
<use x="1499.272727" y="666.062622" fill="#ffffff" stroke="#ffffff" xlink:href="#b"/>
</g>
<g clip-path="url(#a)">
<defs>
<path id="r" d="m54.891 33.016v-33.016h-8.9844v32.719q0 7.7656-3.0312 11.609-3.0312 3.8594-9.0781 3.8594-7.2812 0-11.484-4.6406-4.2031-4.625-4.2031-12.641v-30.906h-9.0312v75.984h9.0312v-29.797q3.2344 4.9375 7.5938 7.375 4.375 2.4375 10.094 2.4375 9.4219 0 14.25-5.8281 4.8438-5.8281 4.8438-17.156z"/>
<path id="ai" d="m32.172-5.0781q-3.7969-9.7656-7.4219-12.734-3.6094-2.9844-9.6562-2.9844h-7.1875v7.5156h5.2812q3.7031 0 5.75 1.7656 2.0625 1.75 4.5469 8.2969l1.6094 4.0938-22.109 53.812h9.5156l17.094-42.766 17.094 42.766h9.5156z"/>
</defs>
<g transform="translate(59.135 791.85) scale(.1 -.1)">
<use xlink:href="#l"/>
<use x="61.083984" xlink:href="#r"/>
<use x="124.462891" xlink:href="#d"/>
<use x="185.986328" xlink:href="#ai"/>
</g>
</g>
<g clip-path="url(#a)">
<defs>
<path id="s" d="m44.281 53.078v-8.5q-3.7969 1.9531-7.9062 2.9219-4.0938 0.98438-8.5 0.98438-6.6875 0-10.031-2.0469t-3.3438-6.1562q0-3.125 2.3906-4.9062t9.625-3.3906l3.0781-0.6875q9.5625-2.0469 13.594-5.7812t4.0312-10.422q0-7.625-6.0312-12.078-6.0312-4.4375-16.578-4.4375-4.3906 0-9.1562 0.85938t-10.031 2.5625v9.2812q4.9844-2.5938 9.8125-3.8906 4.8281-1.2812 9.5781-1.2812 6.3438 0 9.75 2.1719 3.4219 2.1719 3.4219 6.125 0 3.6562-2.4688 5.6094-2.4531 1.9531-10.812 3.7656l-3.125 0.73438q-8.3438 1.75-12.062 5.3906-3.7031 3.6406-3.7031 9.9844 0 7.7188 5.4688 11.906 5.4688 4.2031 15.531 4.2031 4.9688 0 9.3594-0.73438 4.4062-0.71875 8.1094-2.1875z"/>
<path id="t" d="m30.609 48.391q-7.2188 0-11.422-5.6406t-4.2031-15.453 4.1719-15.453q4.1875-5.6406 11.453-5.6406 7.1875 0 11.375 5.6562 4.2031 5.6719 4.2031 15.438 0 9.7188-4.2031 15.406-4.1875 5.6875-11.375 5.6875zm0 7.6094q11.719 0 18.406-7.625 6.7031-7.6094 6.7031-21.078 0-13.422-6.7031-21.078-6.6875-7.6406-18.406-7.6406-11.766 0-18.438 7.6406-6.6562 7.6562-6.6562 21.078 0 13.469 6.6562 21.078 6.6719 7.625 18.438 7.625z"/>
</defs>
<g transform="translate(69.436 791.85) scale(.1 -.1)">
<use xlink:href="#f"/>
<use x="61.279297" xlink:href="#k"/>
<use x="89.0625" xlink:href="#s"/>
<use x="141.162109" xlink:href="#t"/>
</g>
</g>
<g clip-path="url(#a)">
<defs>
<path id="ak" d="m48.781 52.594v-8.4062q-3.8125 2.1094-7.6406 3.1562t-7.7344 1.0469q-8.75 0-13.594-5.5469-4.8281-5.5312-4.8281-15.547t4.8281-15.562q4.8438-5.5312 13.594-5.5312 3.9062 0 7.7344 1.0469t7.6406 3.1562v-8.3125q-3.7656-1.75-7.7969-2.625-4.0156-0.89062-8.5625-0.89062-12.359 0-19.641 7.7656-7.2656 7.7656-7.2656 20.953 0 13.375 7.3438 21.031 7.3594 7.6719 20.156 7.6719 4.1406 0 8.0938-0.85938 3.9531-0.84375 7.6719-2.5469z"/>
<path id="aj" d="m45.406 46.391v29.594h8.9844v-75.984h-8.9844v8.2031q-2.8281-4.875-7.1562-7.25-4.3125-2.375-10.375-2.375-9.9062 0-16.141 7.9062-6.2188 7.9219-6.2188 20.812t6.2188 20.797q6.2344 7.9062 16.141 7.9062 6.0625 0 10.375-2.375 4.3281-2.3594 7.1562-7.2344zm-30.609-19.094q0-9.9062 4.0781-15.547t11.203-5.6406 11.219 5.6406q4.1094 5.6406 4.1094 15.547t-4.1094 15.547q-4.0938 5.6406-11.219 5.6406t-11.203-5.6406-4.0781-15.547z"/>
</defs>
<g transform="translate(70.72 791.85) scale(.1 -.1)">
<use xlink:href="#ak"/>
<use x="54.980469" xlink:href="#k"/>
<use x="82.763672" xlink:href="#f"/>
<use x="144.042969" xlink:href="#j"/>
<use x="171.826172" xlink:href="#i"/>
<use x="269.238281" xlink:href="#d"/>
<use x="330.761719" xlink:href="#aj"/>
</g>
</g>
<g clip-path="url(#a)">
<defs>
<path id="q" d="m18.312 70.219v-15.531h18.5v-6.9844h-18.5v-29.688q0-6.6875 1.8281-8.5938t7.4531-1.9062h9.2188v-7.5156h-9.2188q-10.406 0-14.359 3.875-3.9531 3.8906-3.9531 14.141v29.688h-6.5938v6.9844h6.5938v15.531z"/>
</defs>
<g transform="translate(95.843 791.85) scale(.1 -.1)">
<use xlink:href="#g"/>
<use x="63.378906" xlink:href="#t"/>
<use x="124.560547" xlink:href="#q"/>
</g>
</g>
<g clip-path="url(#a)">
<g transform="translate(115.33 791.85) scale(.1 -.1)">
<use xlink:href="#q"/>
<use x="39.208984" xlink:href="#t"/>
</g>
</g>
<g clip-path="url(#a)">
<g transform="translate(130.63 791.85) scale(.1 -.1)">
<use xlink:href="#s"/>
<use x="52.099609" xlink:href="#d"/>
<use x="113.623047" xlink:href="#d"/>
</g>
</g>
<g clip-path="url(#a)">
<defs>
<path id="aq" d="m45.406 27.984q0 9.7656-4.0312 15.125-4.0156 5.375-11.297 5.375-7.2188 0-11.25-5.375-4.0312-5.3594-4.0312-15.125 0-9.7188 4.0312-15.094t11.25-5.375q7.2812 0 11.297 5.375 4.0312 5.375 4.0312 15.094zm8.9844-21.203q0-13.953-6.2031-20.766-6.1875-6.8125-18.984-6.8125-4.7344 0-8.9375 0.70312t-8.1562 2.1719v8.7344q3.9531-2.1406 7.8125-3.1562 3.8594-1.0312 7.8594-1.0312 8.8438 0 13.234 4.6094t4.3906 13.938v4.4531q-2.7812-4.8438-7.125-7.2344t-10.406-2.3906q-10.047 0-16.203 7.6562-6.1562 7.6719-6.1562 20.328 0 12.688 6.1562 20.344 6.1562 7.6719 16.203 7.6719 6.0625 0 10.406-2.3906t7.125-7.2188v8.2969h8.9844z"/>
</defs>
<g transform="translate(139.09 791.85) scale(.1 -.1)">
<use xlink:href="#f"/>
<use x="61.279297" xlink:href="#g"/>
<use x="124.658203" xlink:href="#ai"/>
<use x="183.837891" xlink:href="#q"/>
<use x="223.046875" xlink:href="#r"/>
<use x="286.425781" xlink:href="#j"/>
<use x="314.208984" xlink:href="#g"/>
<use x="377.587891" xlink:href="#aq"/>
</g>
</g>
<g clip-path="url(#a)">
<defs>
<path id="ac" d="m4.2031 54.688h8.9844l11.234-42.672 11.172 42.672h10.594l11.234-42.672 11.188 42.672h8.9844l-14.312-54.688h-10.594l-11.766 44.828-11.812-44.828h-10.609z"/>
</defs>
<g transform="translate(170.19 791.85) scale(.1 -.1)">
<use xlink:href="#ac"/>
<use x="81.787109" xlink:href="#h"/>
<use x="120.650391" xlink:href="#t"/>
<use x="181.832031" xlink:href="#g"/>
<use x="245.210938" xlink:href="#aq"/>
</g>
</g>
<g clip-path="url(#a)">
<g transform="translate(202.21 791.85) scale(.1 -.1)">
<use xlink:href="#ac"/>
<use x="81.787109" xlink:href="#j"/>
<use x="109.570312" xlink:href="#q"/>
<use x="148.779297" xlink:href="#r"/>
</g>
</g>
<g clip-path="url(#a)">
<g transform="translate(234.53 791.85) scale(.1 -.1)">
<use xlink:href="#q"/>
<use x="39.208984" xlink:href="#r"/>
<use x="102.587891" xlink:href="#d"/>
</g>
</g>
<g clip-path="url(#a)">
<defs>
<path id="al" d="m48.688 27.297q0 9.9062-4.0781 15.547t-11.203 5.6406q-7.1406 0-11.219-5.6406t-4.0781-15.547 4.0781-15.547 11.219-5.6406q7.125 0 11.203 5.6406t4.0781 15.547zm-30.578 19.094q2.8438 4.875 7.1562 7.2344 4.3281 2.375 10.328 2.375 9.9688 0 16.188-7.9062 6.2344-7.9062 6.2344-20.797t-6.2344-20.812q-6.2188-7.9062-16.188-7.9062-6 0-10.328 2.375-4.3125 2.375-7.1562 7.25v-8.2031h-9.0312v75.984h9.0312z"/>
</defs>
<g transform="translate(258.53 791.85) scale(.1 -.1)">
<use xlink:href="#al"/>
<use x="63.476562" xlink:href="#k"/>
<use x="91.259766" xlink:href="#t"/>
<use x="152.441406" xlink:href="#ac"/>
<use x="234.228516" xlink:href="#d"/>
<use x="295.751953" xlink:href="#h"/>
</g>
</g>
<g clip-path="url(#a)">
<defs>
<path id="ax" d="m37.109 75.984v-7.4844h-8.5938q-4.8281 0-6.7188-1.9531-1.875-1.9531-1.875-7.0312v-4.8281h14.797v-6.9844h-14.797v-47.703h-9.0312v47.703h-8.5938v6.9844h8.5938v3.8125q0 9.125 4.25 13.297 4.25 4.1875 13.469 4.1875z"/>
</defs>
<g transform="translate(302.74 791.85) scale(.1 -.1)">
<use xlink:href="#ax"/>
<use x="35.205078" xlink:href="#f"/>
<use x="96.484375" xlink:href="#g"/>
</g>
</g>
<g clip-path="url(#a)">
<defs>
<path id="av" d="m31 75.875q-6.5312-11.219-9.7188-22.219-3.1719-10.984-3.1719-22.266 0-11.266 3.2031-22.328t9.6875-22.25h-7.8125q-7.3125 11.484-10.953 22.562t-3.6406 22.016q0 10.891 3.6094 21.922 3.625 11.047 10.984 22.562z"/>
</defs>
<g transform="translate(346.86 791.85) scale(.1 -.1)">
<use xlink:href="#av"/>
</g>
</g>
<g clip-path="url(#a)">
<g transform="translate(386.54 791.85) scale(.1 -.1)">
<use xlink:href="#f"/>
</g>
</g>
<g clip-path="url(#a)">
<defs>
<path id="ap" d="m18.109 8.2031v-29h-9.0312v75.484h9.0312v-8.2969q2.8438 4.875 7.1562 7.2344 4.3281 2.375 10.328 2.375 9.9688 0 16.188-7.9062 6.2344-7.9062 6.2344-20.797t-6.2344-20.812q-6.2188-7.9062-16.188-7.9062-6 0-10.328 2.375-4.3125 2.375-7.1562 7.25zm30.578 19.094q0 9.9062-4.0781 15.547t-11.203 5.6406q-7.1406 0-11.219-5.6406t-4.0781-15.547 4.0781-15.547 11.219-5.6406q7.125 0 11.203 5.6406t4.0781 15.547z"/>
</defs>
<g transform="translate(411.03 791.85) scale(.1 -.1)">
<use xlink:href="#s"/>
<use x="52.099609" xlink:href="#d"/>
<use x="113.623047" xlink:href="#ap"/>
<use x="177.099609" xlink:href="#d"/>
<use x="238.623047" xlink:href="#h"/>
<use x="279.736328" xlink:href="#f"/>
<use x="341.015625" xlink:href="#q"/>
<use x="380.224609" xlink:href="#d"/>
</g>
</g>
<g clip-path="url(#a)">
<defs>
<path id="ao" d="m8.5 21.578v33.109h8.9844v-32.766q0-7.7656 3.0156-11.656 3.0312-3.875 9.0938-3.875 7.2656 0 11.484 4.6406 4.2344 4.6406 4.2344 12.656v31h8.9844v-54.688h-8.9844v8.4062q-3.2656-4.9844-7.5938-7.4062-4.3125-2.4219-10.031-2.4219-9.4219 0-14.312 5.8594-4.875 5.8594-4.875 17.141z"/>
</defs>
<g transform="translate(466.52 791.85) scale(.1 -.1)">
<use xlink:href="#j"/>
<use x="27.783203" xlink:href="#s"/>
<use x="79.882812" xlink:href="#s"/>
<use x="131.982422" xlink:href="#ao"/>
<use x="195.361328" xlink:href="#d"/>
</g>
</g>
<g clip-path="url(#a)">
<defs>
<path id="au" d="m8.0156 75.875h7.8125q7.3125-11.516 10.953-22.562 3.6406-11.031 3.6406-21.922 0-10.938-3.6406-22.016t-10.953-22.562h-7.8125q6.4844 11.188 9.6875 22.25t3.2031 22.328q0 11.281-3.2031 22.266-3.2031 11-9.6875 22.219z"/>
</defs>
<g transform="translate(526.36 791.85) scale(.1 -.1)">
<use xlink:href="#au"/>
</g>
</g>
<g clip-path="url(#a)">
<defs>
<path id="at" d="m11.719 12.406h10.297v-8.4062l-8-15.625h-6.2969l4 15.625z"/>
</defs>
<g transform="translate(578.4 791.85) scale(.1 -.1)">
<use xlink:href="#at"/>
</g>
</g>
<g clip-path="url(#a)">
<g transform="translate(626.08 791.85) scale(.1 -.1)">
<use xlink:href="#al"/>
<use x="63.476562" xlink:href="#ao"/>
<use x="126.855469" xlink:href="#q"/>
</g>
</g>
<g clip-path="url(#a)">
<g transform="translate(678 791.85) scale(.1 -.1)">
<use xlink:href="#ac"/>
<use x="81.787109" xlink:href="#r"/>
<use x="145.166016" xlink:href="#d"/>
<use x="206.689453" xlink:href="#g"/>
</g>
</g>
<g clip-path="url(#a)">
<defs>
<path id="an" d="m9.8125 72.906h9.8594v-72.906h-9.8594z"/>
</defs>
<g transform="translate(749.86 791.85) scale(.1 -.1)">
<use xlink:href="#an"/>
</g>
</g>
<g clip-path="url(#a)">
<defs>
<path id="aw" d="m2.9844 54.688h9.5156l17.094-45.891 17.094 45.891h9.5156l-20.516-54.688h-12.203z"/>
</defs>
<g transform="translate(799.68 791.85) scale(.1 -.1)">
<use xlink:href="#aj"/>
<use x="63.476562" xlink:href="#h"/>
<use x="102.339844" xlink:href="#t"/>
<use x="163.521484" xlink:href="#aw"/>
<use x="222.701172" xlink:href="#d"/>
</g>
</g>
<g clip-path="url(#a)">
<g transform="translate(870.96 791.85) scale(.1 -.1)">
<use xlink:href="#q"/>
<use x="39.208984" xlink:href="#r"/>
<use x="102.587891" xlink:href="#d"/>
</g>
</g>
<g clip-path="url(#a)">
<g transform="translate(939.29 791.85) scale(.1 -.1)">
<use xlink:href="#ak"/>
<use x="54.980469" xlink:href="#f"/>
<use x="116.259766" xlink:href="#h"/>
</g>
</g>
<g clip-path="url(#a)">
<g transform="translate(1003.7 791.85) scale(.1 -.1)">
<use xlink:href="#r"/>
<use x="63.378906" xlink:href="#t"/>
<use x="124.560547" xlink:href="#i"/>
<use x="221.972656" xlink:href="#d"/>
</g>
</g>
<g clip-path="url(#a)">
<g transform="translate(1089.8 791.85) scale(.1 -.1)">
<use xlink:href="#an"/>
</g>
</g>
<g clip-path="url(#a)">
<g transform="translate(1158.1 791.85) scale(.1 -.1)">
<use xlink:href="#r"/>
<use x="63.378906" xlink:href="#f"/>
<use x="124.658203" xlink:href="#aj"/>
</g>
</g>
<g clip-path="url(#a)">
<g transform="translate(1238.1 791.85) scale(.1 -.1)">
<use xlink:href="#q"/>
<use x="39.208984" xlink:href="#r"/>
<use x="102.587891" xlink:href="#d"/>
</g>
</g>
<g clip-path="url(#a)">
<g transform="translate(1314.3 791.85) scale(.1 -.1)">
<use xlink:href="#s"/>
<use x="52.099609" xlink:href="#f"/>
<use x="113.378906" xlink:href="#i"/>
<use x="210.791016" xlink:href="#d"/>
</g>
</g>
<g clip-path="url(#a)">
<g transform="translate(1386.1 791.85) scale(.1 -.1)">
<use xlink:href="#s"/>
<use x="52.099609" xlink:href="#ai"/>
<use x="111.279297" xlink:href="#i"/>
<use x="208.691406" xlink:href="#ap"/>
<use x="272.167969" xlink:href="#q"/>
<use x="311.376953" xlink:href="#t"/>
<use x="372.558594" xlink:href="#i"/>
<use x="469.970703" xlink:href="#s"/>
</g>
</g>
<g clip-path="url(#a)">
<defs>
<path id="e" d="m10.688 12.406h10.312v-12.406h-10.312z"/>
</defs>
<g transform="translate(1497.7 791.85) scale(.1 -.1)">
<use xlink:href="#e"/>
</g>
</g>
<g clip-path="url(#a)">
<defs>
<path id="c" d="m12.406 8.2969h16.109v55.625l-17.531-3.5156v8.9844l17.438 3.5156h9.8594v-64.609h16.109v-8.2969h-41.984z"/>
</defs>
<g transform="translate(594.97 40.335) scale(.1 -.1)">
<use xlink:href="#c"/>
<use x="63.623047" xlink:href="#e"/>
<use x="95.410156" xlink:href="#c"/>
</g>
</g>
<g clip-path="url(#a)">
<defs>
<path id="n" d="m19.188 8.2969h34.422v-8.2969h-46.281v8.2969q5.6094 5.8125 15.297 15.594 9.7031 9.7969 12.188 12.641 4.7344 5.3125 6.6094 9 1.8906 3.6875 1.8906 7.25 0 5.8125-4.0781 9.4688-4.0781 3.6719-10.625 3.6719-4.6406 0-9.7969-1.6094-5.1406-1.6094-11-4.8906v9.9688q5.9531 2.3906 11.125 3.6094 5.1875 1.2188 9.4844 1.2188 11.328 0 18.062-5.6719 6.7344-5.6562 6.7344-15.125 0-4.5-1.6875-8.5312-1.6719-4.0156-6.125-9.4844-1.2188-1.4219-7.7656-8.1875-6.5312-6.7656-18.453-18.922z"/>
</defs>
<g transform="translate(84.271 166.73) scale(.1 -.1)">
<use xlink:href="#c"/>
<use x="63.623047" xlink:href="#e"/>
<use x="95.410156" xlink:href="#n"/>
</g>
</g>
<g clip-path="url(#a)">
<defs>
<path id="m" d="m40.578 39.312q7.0781-1.5156 11.047-6.3125 3.9844-4.7812 3.9844-11.812 0-10.781-7.4219-16.703-7.4219-5.9062-21.094-5.9062-4.5781 0-9.4375 0.90625t-10.031 2.7188v9.5156q4.0938-2.3906 8.9688-3.6094 4.8906-1.2188 10.219-1.2188 9.2656 0 14.125 3.6562t4.8594 10.641q0 6.4531-4.5156 10.078-4.5156 3.6406-12.562 3.6406h-8.5v8.1094h8.8906q7.2656 0 11.125 2.9062t3.8594 8.375q0 5.6094-3.9844 8.6094-3.9688 3.0156-11.391 3.0156-4.0625 0-8.7031-0.89062-4.6406-0.875-10.203-2.7188v8.7812q5.625 1.5625 10.531 2.3438t9.25 0.78125q11.234 0 17.766-5.1094 6.5469-5.0938 6.5469-13.781 0-6.0625-3.4688-10.234t-9.8594-5.7812z"/>
</defs>
<g transform="translate(425.85 418.69) scale(.1 -.1)">
<use xlink:href="#c"/>
<use x="63.623047" xlink:href="#e"/>
<use x="95.410156" xlink:href="#m"/>
</g>
</g>
<g clip-path="url(#a)">
<defs>
<path id="o" d="m37.797 64.312-24.906-38.922h24.906zm-2.5938 8.5938h12.406v-47.516h10.406v-8.2031h-10.406v-17.188h-9.8125v17.188h-32.906v9.5156z"/>
</defs>
<g transform="translate(626.43 668.82) scale(.1 -.1)">
<use xlink:href="#c"/>
<use x="63.623047" xlink:href="#e"/>
<use x="95.410156" xlink:href="#o"/>
</g>
</g>
<g clip-path="url(#a)">
<defs>
<path id="w" d="m10.797 72.906h38.719v-8.3125h-29.688v-17.859q2.1406 0.73438 4.2812 1.0938 2.1562 0.35938 4.3125 0.35938 12.203 0 19.328-6.6875 7.1406-6.6875 7.1406-18.109 0-11.766-7.3281-18.297-7.3281-6.5156-20.656-6.5156-4.5938 0-9.3594 0.78125-4.75 0.78125-9.8281 2.3438v9.9219q4.3906-2.3906 9.0781-3.5625t9.9062-1.1719q8.4531 0 13.375 4.4375 4.9375 4.4375 4.9375 12.062 0 7.6094-4.9375 12.047-4.9219 4.4531-13.375 4.4531-3.9531 0-7.8906-0.875-3.9219-0.875-8.0156-2.7344z"/>
</defs>
<g transform="translate(683.55 668.82) scale(.1 -.1)">
<use xlink:href="#c"/>
<use x="63.623047" xlink:href="#e"/>
<use x="95.410156" xlink:href="#w"/>
</g>
</g>
<g clip-path="url(#a)">
<defs>
<path id="v" d="m33.016 40.375q-6.6406 0-10.531-4.5469-3.875-4.5312-3.875-12.438 0-7.8594 3.875-12.438 3.8906-4.5625 10.531-4.5625t10.516 4.5625q3.875 4.5781 3.875 12.438 0 7.9062-3.875 12.438-3.875 4.5469-10.516 4.5469zm19.578 30.922v-8.9844q-3.7188 1.75-7.5 2.6719-3.7812 0.9375-7.5 0.9375-9.7656 0-14.922-6.5938-5.1406-6.5938-5.875-19.922 2.875 4.25 7.2188 6.5156 4.3594 2.2656 9.5781 2.2656 10.984 0 17.359-6.6719 6.375-6.6562 6.375-18.125 0-11.234-6.6406-18.031-6.6406-6.7812-17.672-6.7812-12.656 0-19.344 9.6875-6.6875 9.7031-6.6875 28.109 0 17.281 8.2031 27.562t22.016 10.281q3.7188 0 7.5-0.73438t7.8906-2.1875z"/>
</defs>
<g transform="translate(866.11 418.69) scale(.1 -.1)">
<use xlink:href="#c"/>
<use x="63.623047" xlink:href="#e"/>
<use x="95.410156" xlink:href="#v"/>
</g>
</g>
<g clip-path="url(#a)">
<defs>
<path id="ab" d="m8.2031 72.906h46.875v-4.2031l-26.469-68.703h-10.297l24.906 64.594h-35.016z"/>
</defs>
<g transform="translate(1235.2 418.69) scale(.1 -.1)">
<use xlink:href="#c"/>
<use x="63.623047" xlink:href="#e"/>
<use x="95.410156" xlink:href="#ab"/>
</g>
</g>
<g clip-path="url(#a)">
<g transform="translate(1080.2 668.82) scale(.1 -.1)">
<use xlink:href="#c"/>
<use x="63.623047" xlink:href="#e"/>
<use x="95.410156" xlink:href="#c"/>
<use x="159.033203" xlink:href="#n"/>
</g>
</g>
<g clip-path="url(#a)">
<g transform="translate(1156.3 668.82) scale(.1 -.1)">
<use xlink:href="#c"/>
<use x="63.623047" xlink:href="#e"/>
<use x="95.410156" xlink:href="#c"/>
<use x="159.033203" xlink:href="#m"/>
</g>
</g>
<g clip-path="url(#a)">
<g transform="translate(1374.8 544.08) scale(.1 -.1)">
<use xlink:href="#c"/>
<use x="63.623047" xlink:href="#e"/>
<use x="95.410156" xlink:href="#c"/>
<use x="159.033203" xlink:href="#o"/>
</g>
</g>
<g clip-path="url(#a)">
<g transform="translate(1316.8 668.82) scale(.1 -.1)">
<use xlink:href="#c"/>
<use x="63.623047" xlink:href="#e"/>
<use x="95.410156" xlink:href="#c"/>
<use x="159.033203" xlink:href="#w"/>
</g>
</g>
<g clip-path="url(#a)">
<g transform="translate(1235.2 668.82) scale(.1 -.1)">
<use xlink:href="#c"/>
<use x="63.623047" xlink:href="#e"/>
<use x="95.410156" xlink:href="#c"/>
<use x="159.033203" xlink:href="#v"/>
</g>
</g>
<g clip-path="url(#a)">
<g transform="translate(1401.1 668.82) scale(.1 -.1)">
<use xlink:href="#c"/>
<use x="63.623047" xlink:href="#e"/>
<use x="95.410156" xlink:href="#c"/>
<use x="159.033203" xlink:href="#ab"/>
</g>
</g>
<g clip-path="url(#a)">
<defs>
<path id="ag" d="m31.781 34.625q-7.0312 0-11.062-3.7656-4.0156-3.7656-4.0156-10.344 0-6.5938 4.0156-10.359 4.0312-3.7656 11.062-3.7656t11.078 3.7812q4.0625 3.7969 4.0625 10.344 0 6.5781-4.0312 10.344-4.0156 3.7656-11.109 3.7656zm-9.8594 4.1875q-6.3438 1.5625-9.8906 5.9062-3.5312 4.3594-3.5312 10.609 0 8.7344 6.2188 13.812 6.2344 5.0781 17.062 5.0781 10.891 0 17.094-5.0781t6.2031-13.812q0-6.25-3.5469-10.609-3.5312-4.3438-9.8281-5.9062 7.125-1.6562 11.094-6.5 3.9844-4.8281 3.9844-11.797 0-10.609-6.4688-16.281-6.4688-5.6562-18.531-5.6562-12.047 0-18.531 5.6562-6.4688 5.6719-6.4688 16.281 0 6.9688 4 11.797 4.0156 4.8438 11.141 6.5zm-3.6094 15.578q0-5.6562 3.5312-8.8281 3.5469-3.1719 9.9375-3.1719 6.3594 0 9.9375 3.1719 3.5938 3.1719 3.5938 8.8281 0 5.6719-3.5938 8.8438-3.5781 3.1719-9.9375 3.1719-6.3906 0-9.9375-3.1719-3.5312-3.1719-3.5312-8.8438z"/>
</defs>
<g transform="translate(740.2 668.82) scale(.1 -.1)">
<use xlink:href="#c"/>
<use x="63.623047" xlink:href="#e"/>
<use x="95.410156" xlink:href="#c"/>
<use x="159.033203" xlink:href="#ag"/>
</g>
</g>
<g clip-path="url(#a)">
<defs>
<path id="af" d="m10.984 1.5156v8.9844q3.7188-1.7656 7.5156-2.6875 3.8125-0.92188 7.4844-0.92188 9.7656 0 14.906 6.5625 5.1562 6.5625 5.8906 19.953-2.8281-4.2031-7.1875-6.4531-4.3438-2.25-9.6094-2.25-10.938 0-17.312 6.6094-6.375 6.625-6.375 18.109 0 11.219 6.6406 18 6.6406 6.7969 17.672 6.7969 12.656 0 19.312-9.7031 6.6719-9.6875 6.6719-28.141 0-17.234-8.1875-27.516-8.1719-10.281-21.984-10.281-3.7188 0-7.5312 0.73438-3.7969 0.73438-7.9062 2.2031zm19.625 30.906q6.6406 0 10.516 4.5312 3.8906 4.5469 3.8906 12.469 0 7.8594-3.8906 12.422-3.875 4.5625-10.516 4.5625t-10.516-4.5625-3.875-12.422q0-7.9219 3.875-12.469 3.875-4.5312 10.516-4.5312z"/>
</defs>
<g transform="translate(802.76 668.82) scale(.1 -.1)">
<use xlink:href="#c"/>
<use x="63.623047" xlink:href="#e"/>
<use x="95.410156" xlink:href="#c"/>
<use x="159.033203" xlink:href="#af"/>
</g>
</g>
<g clip-path="url(#a)">
<defs>
<path id="ah" d="m31.781 66.406q-7.6094 0-11.453-7.5-3.8281-7.4844-3.8281-22.531 0-14.984 3.8281-22.484 3.8438-7.5 11.453-7.5 7.6719 0 11.5 7.5 3.8438 7.5 3.8438 22.484 0 15.047-3.8438 22.531-3.8281 7.5-11.5 7.5zm0 7.8125q12.266 0 18.734-9.7031 6.4688-9.6875 6.4688-28.141 0-18.406-6.4688-28.109-6.4688-9.6875-18.734-9.6875-12.25 0-18.719 9.6875-6.4688 9.7031-6.4688 28.109 0 18.453 6.4688 28.141 6.4688 9.7031 18.719 9.7031z"/>
</defs>
<g transform="translate(902.03 544.08) scale(.1 -.1)">
<use xlink:href="#c"/>
<use x="63.623047" xlink:href="#e"/>
<use x="95.410156" xlink:href="#n"/>
<use x="159.033203" xlink:href="#ah"/>
</g>
</g>
<g clip-path="url(#a)">
<g transform="translate(1006.7 668.82) scale(.1 -.1)">
<use xlink:href="#c"/>
<use x="63.623047" xlink:href="#e"/>
<use x="95.410156" xlink:href="#n"/>
<use x="159.033203" xlink:href="#c"/>
</g>
</g>
<g clip-path="url(#a)">
<g transform="translate(868.03 668.82) scale(.1 -.1)">
<use xlink:href="#c"/>
<use x="63.623047" xlink:href="#e"/>
<use x="95.410156" xlink:href="#n"/>
<use x="159.033203" xlink:href="#n"/>
</g>
</g>
<g clip-path="url(#a)">
<g transform="translate(936.03 668.82) scale(.1 -.1)">
<use xlink:href="#c"/>
<use x="63.623047" xlink:href="#e"/>
<use x="95.410156" xlink:href="#n"/>
<use x="159.033203" xlink:href="#m"/>
</g>
</g>
<g clip-path="url(#a)">
<g transform="translate(423.35 544.08) scale(.1 -.1)">
<use xlink:href="#c"/>
<use x="63.623047" xlink:href="#e"/>
<use x="95.410156" xlink:href="#n"/>
<use x="159.033203" xlink:href="#o"/>
</g>
</g>
<g clip-path="url(#a)">
<g transform="translate(421.99 668.82) scale(.1 -.1)">
<use xlink:href="#c"/>
<use x="63.623047" xlink:href="#e"/>
<use x="95.410156" xlink:href="#n"/>
<use x="159.033203" xlink:href="#w"/>
</g>
</g>
<g clip-path="url(#a)">
<g transform="translate(378.47 668.82) scale(.1 -.1)">
<use xlink:href="#c"/>
<use x="63.623047" xlink:href="#e"/>
<use x="95.410156" xlink:href="#n"/>
<use x="159.033203" xlink:href="#v"/>
</g>
</g>
<g clip-path="url(#a)">
<g transform="translate(468.23 668.82) scale(.1 -.1)">
<use xlink:href="#c"/>
<use x="63.623047" xlink:href="#e"/>
<use x="95.410156" xlink:href="#n"/>
<use x="159.033203" xlink:href="#ab"/>
</g>
</g>
<g clip-path="url(#a)">
<g transform="translate(60.261 668.82) scale(.1 -.1)">
<use xlink:href="#c"/>
<use x="63.623047" xlink:href="#e"/>
<use x="95.410156" xlink:href="#n"/>
<use x="159.033203" xlink:href="#ag"/>
</g>
</g>
<g clip-path="url(#a)">
<g transform="translate(68.42 668.82) scale(.1 -.1)">
<use xlink:href="#c"/>
<use x="63.623047" xlink:href="#e"/>
<use x="95.410156" xlink:href="#n"/>
<use x="159.033203" xlink:href="#af"/>
</g>
</g>
<g clip-path="url(#a)">
<g transform="translate(79.3 668.82) scale(.1 -.1)">
<use xlink:href="#c"/>
<use x="63.623047" xlink:href="#e"/>
<use x="95.410156" xlink:href="#m"/>
<use x="159.033203" xlink:href="#ah"/>
</g>
</g>
<g clip-path="url(#a)">
<g transform="translate(116.38 292.87) scale(.1 -.1)">
<use xlink:href="#c"/>
<use x="63.623047" xlink:href="#e"/>
<use x="95.410156" xlink:href="#m"/>
<use x="159.033203" xlink:href="#c"/>
</g>
</g>
<g clip-path="url(#a)">
<g transform="translate(92.898 668.82) scale(.1 -.1)">
<use xlink:href="#c"/>
<use x="63.623047" xlink:href="#e"/>
<use x="95.410156" xlink:href="#m"/>
<use x="159.033203" xlink:href="#n"/>
</g>
</g>
<g clip-path="url(#a)">
<g transform="translate(109.22 668.82) scale(.1 -.1)">
<use xlink:href="#c"/>
<use x="63.623047" xlink:href="#e"/>
<use x="95.410156" xlink:href="#m"/>
<use x="159.033203" xlink:href="#m"/>
</g>
</g>
<g clip-path="url(#a)">
<g transform="translate(128.26 668.82) scale(.1 -.1)">
<use xlink:href="#c"/>
<use x="63.623047" xlink:href="#e"/>
<use x="95.410156" xlink:href="#m"/>
<use x="159.033203" xlink:href="#o"/>
</g>
</g>
<g clip-path="url(#a)">
<g transform="translate(191.26 418.69) scale(.1 -.1)">
<use xlink:href="#c"/>
<use x="63.623047" xlink:href="#e"/>
<use x="95.410156" xlink:href="#m"/>
<use x="159.033203" xlink:href="#w"/>
</g>
</g>
<g clip-path="url(#a)">
<g transform="translate(150.01 668.82) scale(.1 -.1)">
<use xlink:href="#c"/>
<use x="63.623047" xlink:href="#e"/>
<use x="95.410156" xlink:href="#m"/>
<use x="159.033203" xlink:href="#v"/>
</g>
</g>
<g clip-path="url(#a)">
<g transform="translate(174.49 668.82) scale(.1 -.1)">
<use xlink:href="#c"/>
<use x="63.623047" xlink:href="#e"/>
<use x="95.410156" xlink:href="#m"/>
<use x="159.033203" xlink:href="#ab"/>
</g>
</g>
<g clip-path="url(#a)">
<g transform="translate(249.29 544.08) scale(.1 -.1)">
<use xlink:href="#c"/>
<use x="63.623047" xlink:href="#e"/>
<use x="95.410156" xlink:href="#m"/>
<use x="159.033203" xlink:href="#ag"/>
</g>
</g>
<g clip-path="url(#a)">
<g transform="translate(201.69 668.82) scale(.1 -.1)">
<use xlink:href="#c"/>
<use x="63.623047" xlink:href="#e"/>
<use x="95.410156" xlink:href="#m"/>
<use x="159.033203" xlink:href="#af"/>
</g>
</g>
<g clip-path="url(#a)">
<g transform="translate(231.61 668.82) scale(.1 -.1)">
<use xlink:href="#c"/>
<use x="63.623047" xlink:href="#e"/>
<use x="95.410156" xlink:href="#o"/>
<use x="159.033203" xlink:href="#ah"/>
</g>
</g>
<g clip-path="url(#a)">
<g transform="translate(264.24 668.82) scale(.1 -.1)">
<use xlink:href="#c"/>
<use x="63.623047" xlink:href="#e"/>
<use x="95.410156" xlink:href="#o"/>
<use x="159.033203" xlink:href="#c"/>
</g>
</g>
<g clip-path="url(#a)">
<g transform="translate(299.6 668.82) scale(.1 -.1)">
<use xlink:href="#c"/>
<use x="63.623047" xlink:href="#e"/>
<use x="95.410156" xlink:href="#o"/>
<use x="159.033203" xlink:href="#n"/>
</g>
</g>
<g clip-path="url(#a)">
<g transform="translate(337.68 668.82) scale(.1 -.1)">
<use xlink:href="#c"/>
<use x="63.623047" xlink:href="#e"/>
<use x="95.410156" xlink:href="#o"/>
<use x="159.033203" xlink:href="#m"/>
</g>
</g>
<g clip-path="url(#a)">
<g transform="translate(517.18 668.82) scale(.1 -.1)">
<use xlink:href="#c"/>
<use x="63.623047" xlink:href="#e"/>
<use x="95.410156" xlink:href="#o"/>
<use x="159.033203" xlink:href="#o"/>
</g>
</g>
<g clip-path="url(#a)">
<g transform="translate(568.86 668.82) scale(.1 -.1)">
<use xlink:href="#c"/>
<use x="63.623047" xlink:href="#e"/>
<use x="95.410156" xlink:href="#o"/>
<use x="159.033203" xlink:href="#w"/>
</g>
</g>
<g clip-path="url(#a)">
<g transform="translate(1488.1 668.82) scale(.1 -.1)">
<use xlink:href="#c"/>
<use x="63.623047" xlink:href="#e"/>
<use x="95.410156" xlink:href="#o"/>
<use x="159.033203" xlink:href="#v"/>
</g>
</g>
<defs>
<clipPath id="a">
<rect width="1570.7" height="826.67"/>
</clipPath>
</defs>
</svg>
