<?xml version="1.0" encoding="UTF-8"?>
<!DOCTYPE svg  PUBLIC '-//W3C//DTD SVG 1.1//EN'  'http://www.w3.org/Graphics/SVG/1.1/DTD/svg11.dtd'>
<svg width="1520pt" height="800pt" version="1.1" viewBox="0 0 1520 800" xmlns="http://www.w3.org/2000/svg" xmlns:xlink="http://www.w3.org/1999/xlink">
<defs>
<style type="text/css">*{stroke-linecap:butt;stroke-linejoin:round;}</style>
</defs>
<path d="m0 800h1520v-800h-1520z" fill="#fff"/>
<g fill="none" stroke="#000">
<path d="m720.73 37.277-651.45 608.22" clip-path="url(#a)"/>
<path d="m720.73 37.277-474.2 127.06" clip-path="url(#a)"/>
<path d="m720.73 37.277 110.72 608.22" clip-path="url(#a)"/>
<path d="m720.73 37.277 194.08 372.12" clip-path="url(#a)"/>
<path d="m720.73 37.277 301.26 608.22" clip-path="url(#a)"/>
<path d="m720.73 37.277 519.59 372.12" clip-path="url(#a)"/>
<path d="m69.286 645.49v117.23" clip-path="url(#a)"/>
<path d="m246.53 164.34-129.61 481.15" clip-path="url(#a)"/>
<path d="m246.53 164.34-18.459 363.92" clip-path="url(#a)"/>
<path d="m246.53 164.34 13.298 481.15" clip-path="url(#a)"/>
<path d="m246.53 164.34 134.77 123.91" clip-path="url(#a)"/>
<path d="m831.45 645.49v117.23" clip-path="url(#a)"/>
<path d="m914.82 409.4-35.727 236.09" clip-path="url(#a)"/>
<path d="m914.82 409.4 35.727 118.86" clip-path="url(#a)"/>
<path d="m1022 645.49v117.23" clip-path="url(#a)"/>
<path d="m1240.3 409.4-146.88 118.86" clip-path="url(#a)"/>
<path d="m1240.3 409.4-75.423 236.09" clip-path="url(#a)"/>
<path d="m1240.3 409.4-27.787 236.09" clip-path="url(#a)"/>
<path d="m1240.3 409.4 19.848 236.09" clip-path="url(#a)"/>
<path d="m1240.3 409.4 67.484 236.09" clip-path="url(#a)"/>
<path d="m1240.3 409.4 162.75 118.86" clip-path="url(#a)"/>
<path d="m1093.4 528.26-23.818 117.23" clip-path="url(#a)"/>
<path d="m1093.4 528.26 23.818 117.23" clip-path="url(#a)"/>
<path d="m1164.9 645.49v117.23" clip-path="url(#a)"/>
<path d="m1212.5 645.49v117.23" clip-path="url(#a)"/>
<path d="m1260.2 645.49v117.23" clip-path="url(#a)"/>
<path d="m1307.8 645.49v117.23" clip-path="url(#a)"/>
<path d="m1403.1 528.26-47.635 117.23" clip-path="url(#a)"/>
<path d="m1403.1 528.26v117.23" clip-path="url(#a)"/>
<path d="m1403.1 528.26 47.635 117.23" clip-path="url(#a)"/>
<path d="m1355.4 645.49v117.23" clip-path="url(#a)"/>
<path d="m1403.1 645.49v117.23" clip-path="url(#a)"/>
<path d="m1069.6 645.49v117.23" clip-path="url(#a)"/>
<path d="m1117.3 645.49v117.23" clip-path="url(#a)"/>
<path d="m879.09 645.49v117.23" clip-path="url(#a)"/>
<path d="m950.54 528.26-23.818 117.23" clip-path="url(#a)"/>
<path d="m950.54 528.26 23.818 117.23" clip-path="url(#a)"/>
<path d="m926.72 645.49v117.23" clip-path="url(#a)"/>
<path d="m974.36 645.49v117.23" clip-path="url(#a)"/>
<path d="m116.92 645.49v117.23" clip-path="url(#a)"/>
<path d="m228.07 528.26-63.514 117.23" clip-path="url(#a)"/>
<path d="m228.07 528.26-15.878 117.23" clip-path="url(#a)"/>
<path d="m228.07 528.26 79.392 117.23" clip-path="url(#a)"/>
<path d="m259.83 645.49v117.23" clip-path="url(#a)"/>
<path d="m381.3 288.25-264.38 357.24" clip-path="url(#a)" stroke-dasharray="3.7,1.6"/>
<path d="m381.3 288.25 21.436 240.01" clip-path="url(#a)"/>
<path d="m381.3 288.25 21.436 357.24" clip-path="url(#a)"/>
<path d="m381.3 288.25 221.5 121.15" clip-path="url(#a)"/>
<path d="m402.73 528.26-47.635 117.23" clip-path="url(#a)"/>
<path d="m402.73 528.26 47.635 117.23" clip-path="url(#a)"/>
<path d="m402.73 645.49v117.23" clip-path="url(#a)"/>
<path d="m602.8 409.4-104.8 236.09" clip-path="url(#a)"/>
<path d="m602.8 409.4-57.163 236.09" clip-path="url(#a)"/>
<path d="m602.8 409.4-9.5271 236.09" clip-path="url(#a)"/>
<path d="m602.8 409.4 38.108 236.09" clip-path="url(#a)"/>
<path d="m602.8 409.4 133.38 118.86" clip-path="url(#a)"/>
<path d="m498.01 645.49v117.23" clip-path="url(#a)"/>
<path d="m545.64 645.49v117.23" clip-path="url(#a)"/>
<path d="m593.28 645.49v117.23" clip-path="url(#a)"/>
<path d="m640.91 645.49v117.23" clip-path="url(#a)"/>
<path d="m736.18 528.26-47.635 117.23" clip-path="url(#a)"/>
<path d="m736.18 528.26v117.23" clip-path="url(#a)"/>
<path d="m736.18 528.26 47.635 117.23" clip-path="url(#a)"/>
<path d="m688.55 645.49v117.23" clip-path="url(#a)"/>
<path d="m736.18 645.49v117.23" clip-path="url(#a)"/>
<path d="m783.82 645.49v117.23" clip-path="url(#a)"/>
<path d="m355.1 645.49v117.23" clip-path="url(#a)"/>
<path d="m450.37 645.49v117.23" clip-path="url(#a)"/>
<path d="m164.56 645.49v117.23" clip-path="url(#a)"/>
<path d="m212.19 645.49v117.23" clip-path="url(#a)"/>
<path d="m307.46 645.49v117.23" clip-path="url(#a)"/>
<path d="m1450.7 645.49v117.23" clip-path="url(#a)"/>
</g>
<path d="m397.66 347.49 3.2582-3.042q1.7543-1.6378 0.11642-3.3921l-5.2838-5.6593q-1.6378-1.7543-3.3921-0.11642l-3.2582 3.042q-1.7543 1.6378-0.11642 3.3921l5.2838 5.6593q1.6378 1.7543 3.3921 0.11642z" clip-path="url(#a)" fill="#fff" stroke="#fff"/>
<g clip-path="url(#a)">
<defs>
<path id="ae" d="m9.8125 72.906h9.8594v-64.609h35.5v-8.2969h-45.359z"/>
</defs>
<g transform="translate(394.89 344.52) rotate(-43.034) scale(.08 -.08)">
<use xlink:href="#ae"/>
</g>
</g>
<path d="m482.35 107.65 5.8112-1.5571q2.3182-0.62117 1.697-2.9394l-2.0039-7.4787q-0.62117-2.3182-2.9394-1.697l-5.8112 1.5571q-2.3182 0.62117-1.697 2.9394l2.0039 7.4787q0.62117 2.3182 2.9394 1.697z" clip-path="url(#a)" fill="#fff" stroke="#fff"/>
<g clip-path="url(#a)">
<defs>
<path id="af" d="m9.8125 72.906h9.8594v-29.891h35.844v29.891h9.8594v-72.906h-9.8594v34.719h-35.844v-34.719h-9.8594z"/>
</defs>
<g transform="translate(481.3 103.72) rotate(-15) scale(.08 -.08)">
<use xlink:href="#af"/>
</g>
</g>
<path d="m769.52 340.32 0.79832 4.3854q0.42983 2.3612 2.791 1.9314l7.6173-1.3867q2.3612-0.42983 1.9314-2.791l-0.79832-4.3854q-0.42983-2.3612-2.791-1.9314l-7.6173 1.3867q-2.3612 0.42983-1.9314 2.791z" clip-path="url(#a)" fill="#fff" stroke="#fff"/>
<g clip-path="url(#a)">
<g transform="translate(773.52 339.59) rotate(79.683) scale(.08 -.08)">
<use xlink:href="#ae"/>
</g>
</g>
<path d="m810.82 223.57 2.7821 5.3343q1.1098 2.128 3.2378 1.0181l6.8649-3.5804q2.128-1.1098 1.0181-3.2378l-2.7821-5.3343q-1.1098-2.128-3.2378-1.0181l-6.8649 3.5804q-2.128 1.1098-1.0181 3.2378z" clip-path="url(#a)" fill="#fff" stroke="#fff"/>
<g clip-path="url(#a)">
<g transform="translate(814.43 221.69) rotate(62.456) scale(.08 -.08)">
<use xlink:href="#af"/>
</g>
</g>
<path d="m864.76 342.17 1.9785 3.9944q1.0653 2.1506 3.2159 1.0854l6.938-3.4366q2.1506-1.0653 1.0854-3.2159l-1.9785-3.9944q-1.0653-2.1506-3.2159-1.0854l-6.938 3.4366q-2.1506 1.0653-1.0854 3.2159z" clip-path="url(#a)" fill="#fff" stroke="#fff"/>
<g clip-path="url(#a)">
<g transform="translate(868.4 340.37) rotate(63.65) scale(.08 -.08)">
<use xlink:href="#ae"/>
</g>
</g>
<path d="m974.43 226.69 4.8912 3.503q1.9512 1.3974 3.3486-0.55378l4.5082-6.2947q1.3974-1.9512-0.55378-3.3486l-4.8912-3.503q-1.9512-1.3974-3.3486 0.55378l-4.5082 6.2947q-1.3974 1.9512 0.55378 3.3486z" clip-path="url(#a)" fill="#fff" stroke="#fff"/>
<g clip-path="url(#a)">
<g transform="translate(976.8 223.38) rotate(35.61) scale(.08 -.08)">
<use xlink:href="#af"/>
</g>
</g>
<path d="m63.015 686.47v35.285q0 2.4 2.4 2.4h7.7425q2.4 0 2.4-2.4v-35.285q0-2.4-2.4-2.4h-7.7425q-2.4 0-2.4 2.4z" clip-path="url(#a)" fill="#fff" stroke="#fff"/>
<g clip-path="url(#a)">
<defs>
<path id="k" d="m-0.29688 72.906h61.672v-8.3125h-25.875v-64.594h-9.9062v64.594h-25.891z"/>
<path id="g" d="m56.203 29.594v-4.3906h-41.312q0.59375-9.2812 5.5938-14.141t13.938-4.8594q5.1719 0 10.031 1.2656t9.6562 3.8125v-8.5q-4.8438-2.0469-9.9219-3.125t-10.297-1.0781q-13.094 0-20.734 7.6094-7.6406 7.625-7.6406 20.625 0 13.422 7.25 21.297 7.25 7.8906 19.562 7.8906 11.031 0 17.453-7.1094 6.4219-7.0938 6.4219-19.297zm-8.9844 2.6406q-0.09375 7.3594-4.125 11.75-4.0312 4.4062-10.672 4.4062-7.5156 0-12.031-4.25t-5.2031-11.969z"/>
<path id="l" d="m41.109 46.297q-1.5156 0.875-3.2969 1.2812-1.7812 0.42188-3.9219 0.42188-7.625 0-11.703-4.9531t-4.0781-14.234v-28.812h-9.0312v54.688h9.0312v-8.5q2.8438 4.9844 7.375 7.3906 4.5469 2.4219 11.047 2.4219 0.92188 0 2.0469-0.125 1.125-0.10938 2.4844-0.35938z"/>
<path id="j" d="m52 44.188q3.375 6.0625 8.0625 8.9375t11.031 2.875q8.5469 0 13.188-5.9844 4.6406-5.9688 4.6406-17v-33.016h-9.0312v32.719q0 7.8594-2.7969 11.656-2.7812 3.8125-8.4844 3.8125-6.9844 0-11.047-4.6406-4.0469-4.625-4.0469-12.641v-30.906h-9.0312v32.719q0 7.9062-2.7812 11.688t-8.5938 3.7812q-6.8906 0-10.953-4.6562-4.0469-4.6562-4.0469-12.625v-30.906h-9.0312v54.688h9.0312v-8.5q3.0781 5.0312 7.375 7.4219t10.203 2.3906q5.9688 0 10.141-3.0312 4.1719-3.0156 6.1719-8.7812z"/>
<path id="f" d="m9.4219 54.688h8.9844v-54.688h-8.9844zm0 21.297h8.9844v-11.391h-8.9844z"/>
<path id="i" d="m54.891 33.016v-33.016h-8.9844v32.719q0 7.7656-3.0312 11.609-3.0312 3.8594-9.0781 3.8594-7.2812 0-11.484-4.6406-4.2031-4.625-4.2031-12.641v-30.906h-9.0312v54.688h9.0312v-8.5q3.2344 4.9375 7.5938 7.375 4.375 2.4375 10.094 2.4375 9.4219 0 14.25-5.8281 4.8438-5.8281 4.8438-17.156z"/>
<path id="e" d="m34.281 27.484q-10.891 0-15.094-2.4844t-4.2031-8.5q0-4.7812 3.1562-7.5938 3.1562-2.7969 8.5625-2.7969 7.4844 0 12 5.2969t4.5156 14.078v2zm17.922 3.7188v-31.203h-8.9844v8.2969q-3.0781-4.9688-7.6719-7.3438t-11.234-2.375q-8.3906 0-13.359 4.7188-4.9531 4.7188-4.9531 12.625 0 9.2188 6.1719 13.906 6.1875 4.6875 18.438 4.6875h12.609v0.89062q0 6.2031-4.0781 9.5938t-11.453 3.3906q-4.6875 0-9.1406-1.125-4.4375-1.125-8.5312-3.375v8.3125q4.9219 1.9062 9.5625 2.8438 4.6406 0.95312 9.0312 0.95312 11.875 0 17.734-6.1562 5.8594-6.1406 5.8594-18.641z"/>
<path id="h" d="m9.4219 75.984h8.9844v-75.984h-8.9844z"/>
</defs>
<g transform="translate(67.079 686.47) rotate(90) scale(.08 -.08)">
<use xlink:href="#k"/>
<use x="60.818359" xlink:href="#g"/>
<use x="122.341797" xlink:href="#l"/>
<use x="163.439453" xlink:href="#j"/>
<use x="260.851562" xlink:href="#f"/>
<use x="288.634766" xlink:href="#i"/>
<use x="352.013672" xlink:href="#e"/>
<use x="413.292969" xlink:href="#h"/>
</g>
</g>
<path d="m187.07 409.19 1.4234-5.2841q0.62424-2.3174-1.6932-2.9416l-7.476-2.0138q-2.3174-0.62424-2.9416 1.6932l-1.4234 5.2841q-0.62424 2.3174 1.6932 2.9416l7.476 2.0138q2.3174 0.62424 2.9416-1.6932z" clip-path="url(#a)" fill="#fff" stroke="#fff"/>
<g clip-path="url(#a)">
<defs>
<path id="o" d="m34.188 63.188-13.391-36.281h26.812zm-5.5781 9.7188h11.188l27.781-72.906h-10.25l-6.6406 18.703h-32.859l-6.6406-18.703h-10.406z"/>
</defs>
<g transform="translate(183.15 408.13) rotate(-74.924) scale(.08 -.08)">
<use xlink:href="#o"/>
</g>
</g>
<path d="m243.44 349.03 0.24436-4.8176q0.12158-2.3969-2.2753-2.5185l-7.7326-0.39221q-2.3969-0.12158-2.5185 2.2753l-0.24436 4.8176q-0.12158 2.3969 2.2753 2.5185l7.7326 0.39221q2.3969 0.12158 2.5185-2.2753z" clip-path="url(#a)" fill="#fff" stroke="#fff"/>
<g clip-path="url(#a)">
<defs>
<path id="v" d="m19.672 64.797v-27.391h12.406q6.8906 0 10.641 3.5625 3.7656 3.5625 3.7656 10.156 0 6.5469-3.7656 10.109-3.75 3.5625-10.641 3.5625zm-9.8594 8.1094h22.266q12.266 0 18.531-5.5469 6.2812-5.5469 6.2812-16.234 0-10.797-6.2812-16.312-6.2656-5.5156-18.531-5.5156h-12.406v-29.297h-9.8594z"/>
</defs>
<g transform="translate(239.38 348.82) rotate(-87.096) scale(.08 -.08)">
<use xlink:href="#v"/>
</g>
</g>
<path d="m246.82 402.01 0.17019 6.1576q0.066307 2.3991 2.4654 2.3328l7.7395-0.21391q2.3991-0.066306 2.3328-2.4654l-0.17019-6.1576q-0.066307-2.3991-2.4654-2.3328l-7.7395 0.21391q-2.3991 0.066307-2.3328 2.4654z" clip-path="url(#a)" fill="#fff" stroke="#fff"/>
<g clip-path="url(#a)">
<defs>
<path id="ai" d="m19.672 64.797v-56.688h11.922q15.094 0 22.094 6.8281 7 6.8438 7 21.594 0 14.641-7 21.453t-22.094 6.8125zm-9.8594 8.1094h20.266q21.188 0 31.094-8.8125 9.9219-8.8125 9.9219-27.562 0-18.859-9.9688-27.703-9.9531-8.8281-31.047-8.8281h-20.266z"/>
</defs>
<g transform="translate(250.89 401.9) rotate(88.417) scale(.08 -.08)">
<use xlink:href="#ai"/>
</g>
</g>
<path d="m307.66 229.06 4.0285 3.7039q1.7667 1.6244 3.3911-0.14235l5.2403-5.6996q1.6244-1.7667-0.14235-3.3911l-4.0285-3.7039q-1.7667-1.6244-3.3911 0.14235l-5.2403 5.6996q-1.6244 1.7667 0.14235 3.3911z" clip-path="url(#a)" fill="#fff" stroke="#fff"/>
<g clip-path="url(#a)">
<g transform="translate(310.41 226.07) rotate(42.596) scale(.08 -.08)">
<use xlink:href="#o"/>
</g>
</g>
<path d="m825.18 686.47v35.285q0 2.4 2.4 2.4h7.7425q2.4 0 2.4-2.4v-35.285q0-2.4-2.4-2.4h-7.7425q-2.4 0-2.4 2.4z" clip-path="url(#a)" fill="#fff" stroke="#fff"/>
<g clip-path="url(#a)">
<g transform="translate(829.25 686.47) rotate(90) scale(.08 -.08)">
<use xlink:href="#k"/>
<use x="60.818359" xlink:href="#g"/>
<use x="122.341797" xlink:href="#l"/>
<use x="163.439453" xlink:href="#j"/>
<use x="260.851562" xlink:href="#f"/>
<use x="288.634766" xlink:href="#i"/>
<use x="352.013672" xlink:href="#e"/>
<use x="413.292969" xlink:href="#h"/>
</g>
</g>
<path d="m902.79 530.77 0.72174-4.7694q0.35909-2.373-2.0139-2.7321l-7.6553-1.1584q-2.373-0.35909-2.7321 2.0139l-0.72174 4.7694q-0.35909 2.373 2.0139 2.7321l7.6553 1.1584q2.373 0.35909 2.7321-2.0139z" clip-path="url(#a)" fill="#fff" stroke="#fff"/>
<g clip-path="url(#a)">
<g transform="translate(898.77 530.16) rotate(-81.395) scale(.08 -.08)">
<use xlink:href="#v"/>
</g>
</g>
<path d="m925.88 468.02 1.5753 5.2409q0.69085 2.2984 2.9893 1.6076l7.4148-2.2287q2.2984-0.69085 1.6076-2.9893l-1.5753-5.2409q-0.69085-2.2984-2.9893-1.6076l-7.4148 2.2287q-2.2984 0.69085-1.6076 2.9893z" clip-path="url(#a)" fill="#fff" stroke="#fff"/>
<g clip-path="url(#a)">
<g transform="translate(929.78 466.85) rotate(73.271) scale(.08 -.08)">
<use xlink:href="#o"/>
</g>
</g>
<path d="m1015.7 686.47v35.285q0 2.4 2.4 2.4h7.7425q2.4 0 2.4-2.4v-35.285q0-2.4-2.4-2.4h-7.7425q-2.4 0-2.4 2.4z" clip-path="url(#a)" fill="#fff" stroke="#fff"/>
<g clip-path="url(#a)">
<g transform="translate(1019.8 686.47) rotate(90) scale(.08 -.08)">
<use xlink:href="#k"/>
<use x="60.818359" xlink:href="#g"/>
<use x="122.341797" xlink:href="#l"/>
<use x="163.439453" xlink:href="#j"/>
<use x="260.851562" xlink:href="#f"/>
<use x="288.634766" xlink:href="#i"/>
<use x="352.013672" xlink:href="#e"/>
<use x="413.292969" xlink:href="#h"/>
</g>
</g>
<path d="m1168.4 475.64 4.7884-3.8751q1.8656-1.5098 0.35585-3.3754l-4.8706-6.0186q-1.5098-1.8656-3.3754-0.35585l-4.7884 3.8751q-1.8656 1.5098-0.35585 3.3754l4.8706 6.0186q1.5098 1.8656 3.3754 0.35585z" clip-path="url(#a)" fill="#fff" stroke="#fff"/>
<g clip-path="url(#a)">
<g transform="translate(1165.9 472.49) rotate(-38.982) scale(.08 -.08)">
<use xlink:href="#ai"/>
</g>
</g>
<path d="m1207.8 531.96 1.6654-5.213q0.73035-2.2862-1.5558-3.0165l-7.3753-2.3561q-2.2862-0.73035-3.0165 1.5558l-1.6654 5.213q-0.73035 2.2862 1.5558 3.0165l7.3753 2.3561q2.2862 0.73035 3.0165-1.5558z" clip-path="url(#a)" fill="#fff" stroke="#fff"/>
<g clip-path="url(#a)">
<g transform="translate(1203.9 530.73) rotate(-72.283) scale(.08 -.08)">
<use xlink:href="#o"/>
</g>
</g>
<path d="m1232.3 531.24 0.72005-6.1178q0.28054-2.3835-2.103-2.6641l-7.6894-0.90503q-2.3835-0.28054-2.6641 2.103l-0.72005 6.1178q-0.28054 2.3835 2.103 2.6641l7.6894 0.90503q2.3835 0.28054 2.6641-2.103z" clip-path="url(#a)" fill="#fff" stroke="#fff"/>
<g clip-path="url(#a)">
<g transform="translate(1228.3 530.76) rotate(-83.287) scale(.08 -.08)">
<use xlink:href="#ai"/>
</g>
</g>
<path d="m1243.8 525.57 0.4041 4.8068q0.20106 2.3916 2.5926 2.1905l7.7153-0.64862q2.3916-0.20106 2.1905-2.5926l-0.40411-4.8068q-0.20106-2.3916-2.5926-2.1905l-7.7153 0.64862q-2.3916 0.20106-2.1905 2.5926z" clip-path="url(#a)" fill="#fff" stroke="#fff"/>
<g clip-path="url(#a)">
<g transform="translate(1247.8 525.23) rotate(85.194) scale(.08 -.08)">
<use xlink:href="#v"/>
</g>
</g>
<path d="m1267.3 526.54 1.504 5.2618q0.65959 2.3076 2.9672 1.648l7.4444-2.1279q2.3076-0.65959 1.648-2.9672l-1.504-5.2618q-0.65959-2.3076-2.9672-1.648l-7.4444 2.1279q-2.3076 0.65959-1.648 2.9672z" clip-path="url(#a)" fill="#fff" stroke="#fff"/>
<g clip-path="url(#a)">
<g transform="translate(1271.2 525.42) rotate(74.048) scale(.08 -.08)">
<use xlink:href="#o"/>
</g>
</g>
<path d="m1315.8 472.28 4.4194 3.2275q1.9382 1.4155 3.3536-0.5227l4.5663-6.2526q1.4155-1.9382-0.52271-3.3536l-4.4194-3.2275q-1.9382-1.4155-3.3536 0.5227l-4.5663 6.2526q-1.4155 1.9382 0.5227 3.3536z" clip-path="url(#a)" fill="#fff" stroke="#fff"/>
<g clip-path="url(#a)">
<g transform="translate(1318.2 469) rotate(36.141) scale(.08 -.08)">
<use xlink:href="#o"/>
</g>
</g>
<path d="m1087.2 590.6 1.0065-4.9538q0.47785-2.3519-1.8741-2.8298l-7.5875-1.5416q-2.3519-0.47785-2.8298 1.8741l-1.0065 4.9538q-0.47785 2.3519 1.8741 2.8298l7.5875 1.5416q2.3519 0.47785 2.8298-1.8741z" clip-path="url(#a)" fill="#fff" stroke="#fff"/>
<g clip-path="url(#a)">
<defs>
<path id="ah" d="m9.8125 72.906h46.094v-8.3125h-36.234v-21.578h34.719v-8.2969h-34.719v-26.422h37.109v-8.2969h-46.969z"/>
</defs>
<g transform="translate(1083.2 589.79) rotate(-78.516) scale(.08 -.08)">
<use xlink:href="#ah"/>
</g>
</g>
<path d="m1098.7 585.39 1.1122 5.4744q0.47785 2.3519 2.8298 1.8741l7.5875-1.5416q2.3519-0.47785 1.8741-2.8298l-1.1122-5.4744q-0.47785-2.3519-2.8298-1.8741l-7.5875 1.5416q-2.3519 0.47785-1.8741 2.8298z" clip-path="url(#a)" fill="#fff" stroke="#fff"/>
<g clip-path="url(#a)">
<defs>
<path id="t" d="m64.406 67.281v-10.391q-4.9844 4.6406-10.625 6.9219-5.6406 2.2969-11.984 2.2969-12.5 0-19.141-7.6406t-6.6406-22.094q0-14.406 6.6406-22.047t19.141-7.6406q6.3438 0 11.984 2.2969t10.625 6.9375v-10.312q-5.1719-3.5156-10.969-5.2812-5.7812-1.75-12.219-1.75-16.562 0-26.094 10.125-9.5156 10.141-9.5156 27.672 0 17.578 9.5156 27.703 9.5312 10.141 26.094 10.141 6.5312 0 12.312-1.7344 5.7969-1.7344 10.875-5.2031z"/>
</defs>
<g transform="translate(1102.6 584.58) rotate(78.516) scale(.08 -.08)">
<use xlink:href="#t"/>
</g>
</g>
<path d="m1158.6 686.47v35.285q0 2.4 2.4 2.4h7.7425q2.4 0 2.4-2.4v-35.285q0-2.4-2.4-2.4h-7.7425q-2.4 0-2.4 2.4z" clip-path="url(#a)" fill="#fff" stroke="#fff"/>
<g clip-path="url(#a)">
<g transform="translate(1162.7 686.47) rotate(90) scale(.08 -.08)">
<use xlink:href="#k"/>
<use x="60.818359" xlink:href="#g"/>
<use x="122.341797" xlink:href="#l"/>
<use x="163.439453" xlink:href="#j"/>
<use x="260.851562" xlink:href="#f"/>
<use x="288.634766" xlink:href="#i"/>
<use x="352.013672" xlink:href="#e"/>
<use x="413.292969" xlink:href="#h"/>
</g>
</g>
<path d="m1206.3 686.47v35.285q0 2.4 2.4 2.4h7.7425q2.4 0 2.4-2.4v-35.285q0-2.4-2.4-2.4h-7.7425q-2.4 0-2.4 2.4z" clip-path="url(#a)" fill="#fff" stroke="#fff"/>
<g clip-path="url(#a)">
<g transform="translate(1210.3 686.47) rotate(90) scale(.08 -.08)">
<use xlink:href="#k"/>
<use x="60.818359" xlink:href="#g"/>
<use x="122.341797" xlink:href="#l"/>
<use x="163.439453" xlink:href="#j"/>
<use x="260.851562" xlink:href="#f"/>
<use x="288.634766" xlink:href="#i"/>
<use x="352.013672" xlink:href="#e"/>
<use x="413.292969" xlink:href="#h"/>
</g>
</g>
<path d="m1253.9 686.47v35.285q0 2.4 2.4 2.4h7.7425q2.4 0 2.4-2.4v-35.285q0-2.4-2.4-2.4h-7.7425q-2.4 0-2.4 2.4z" clip-path="url(#a)" fill="#fff" stroke="#fff"/>
<g clip-path="url(#a)">
<g transform="translate(1258 686.47) rotate(90) scale(.08 -.08)">
<use xlink:href="#k"/>
<use x="60.818359" xlink:href="#g"/>
<use x="122.341797" xlink:href="#l"/>
<use x="163.439453" xlink:href="#j"/>
<use x="260.851562" xlink:href="#f"/>
<use x="288.634766" xlink:href="#i"/>
<use x="352.013672" xlink:href="#e"/>
<use x="413.292969" xlink:href="#h"/>
</g>
</g>
<path d="m1301.5 686.47v35.285q0 2.4 2.4 2.4h7.7425q2.4 0 2.4-2.4v-35.285q0-2.4-2.4-2.4h-7.7425q-2.4 0-2.4 2.4z" clip-path="url(#a)" fill="#fff" stroke="#fff"/>
<g clip-path="url(#a)">
<g transform="translate(1305.6 686.47) rotate(90) scale(.08 -.08)">
<use xlink:href="#k"/>
<use x="60.818359" xlink:href="#g"/>
<use x="122.341797" xlink:href="#l"/>
<use x="163.439453" xlink:href="#j"/>
<use x="260.851562" xlink:href="#f"/>
<use x="288.634766" xlink:href="#i"/>
<use x="352.013672" xlink:href="#e"/>
<use x="413.292969" xlink:href="#h"/>
</g>
</g>
<path d="m1384 591.81 2.0926-5.1498q0.90348-2.2234-1.32-3.1269l-7.1729-2.9147q-2.2234-0.90348-3.1269 1.32l-2.0926 5.1498q-0.90348 2.2234 1.32 3.1269l7.1729 2.9147q2.2234 0.90348 3.1269-1.32z" clip-path="url(#a)" fill="#fff" stroke="#fff"/>
<g clip-path="url(#a)">
<defs>
<path id="am" d="m44.391 34.188q3.1719-1.0781 6.1719-4.5938t6.0312-9.6719l10.016-19.922h-10.609l-9.3125 18.703q-3.625 7.3281-7.0156 9.7188t-9.25 2.3906h-10.75v-30.812h-9.8594v72.906h22.266q12.5 0 18.656-5.2344 6.1562-5.2188 6.1562-15.766 0-6.8906-3.2031-11.438-3.2031-4.5312-9.2969-6.2812zm-24.719 30.609v-25.875h12.406q7.125 0 10.766 3.2969t3.6406 9.6875-3.6406 9.6406-10.766 3.25z"/>
</defs>
<g transform="translate(1380.3 590.28) rotate(-67.886) scale(.08 -.08)">
<use xlink:href="#am"/>
</g>
</g>
<path d="m1396.8 584.08v5.5862q0 2.4 2.4 2.4h7.7425q2.4 0 2.4-2.4v-5.5862q0-2.4-2.4-2.4h-7.7425q-2.4 0-2.4 2.4z" clip-path="url(#a)" fill="#fff" stroke="#fff"/>
<g clip-path="url(#a)">
<g transform="translate(1400.9 584.08) rotate(90) scale(.08 -.08)">
<use xlink:href="#t"/>
</g>
</g>
<path d="m1420 586.53 2.2041 5.4243q0.90348 2.2234 3.1269 1.32l7.1729-2.9147q2.2234-0.90348 1.32-3.1269l-2.2041-5.4243q-0.90348-2.2234-3.1269-1.32l-7.1729 2.9147q-2.2234 0.90348-1.32 3.1269z" clip-path="url(#a)" fill="#fff" stroke="#fff"/>
<g clip-path="url(#a)">
<defs>
<path id="ap" d="m8.6875 72.906h9.9219v-44.297q0-11.719 4.2344-16.875 4.25-5.1406 13.781-5.1406 9.4688 0 13.719 5.1406 4.25 5.1562 4.25 16.875v44.297h9.9062v-45.516q0-14.25-7.0625-21.531-7.0469-7.2812-20.812-7.2812-13.828 0-20.891 7.2812-7.0469 7.2812-7.0469 21.531z"/>
</defs>
<g transform="translate(1423.7 585) rotate(67.886) scale(.08 -.08)">
<use xlink:href="#ap"/>
</g>
</g>
<path d="m1349.2 686.47v35.285q0 2.4 2.4 2.4h7.7425q2.4 0 2.4-2.4v-35.285q0-2.4-2.4-2.4h-7.7425q-2.4 0-2.4 2.4z" clip-path="url(#a)" fill="#fff" stroke="#fff"/>
<g clip-path="url(#a)">
<g transform="translate(1353.2 686.47) rotate(90) scale(.08 -.08)">
<use xlink:href="#k"/>
<use x="60.818359" xlink:href="#g"/>
<use x="122.341797" xlink:href="#l"/>
<use x="163.439453" xlink:href="#j"/>
<use x="260.851562" xlink:href="#f"/>
<use x="288.634766" xlink:href="#i"/>
<use x="352.013672" xlink:href="#e"/>
<use x="413.292969" xlink:href="#h"/>
</g>
</g>
<path d="m1396.8 686.47v35.285q0 2.4 2.4 2.4h7.7425q2.4 0 2.4-2.4v-35.285q0-2.4-2.4-2.4h-7.7425q-2.4 0-2.4 2.4z" clip-path="url(#a)" fill="#fff" stroke="#fff"/>
<g clip-path="url(#a)">
<g transform="translate(1400.9 686.47) rotate(90) scale(.08 -.08)">
<use xlink:href="#k"/>
<use x="60.818359" xlink:href="#g"/>
<use x="122.341797" xlink:href="#l"/>
<use x="163.439453" xlink:href="#j"/>
<use x="260.851562" xlink:href="#f"/>
<use x="288.634766" xlink:href="#i"/>
<use x="352.013672" xlink:href="#e"/>
<use x="413.292969" xlink:href="#h"/>
</g>
</g>
<path d="m1063.4 686.47v35.285q0 2.4 2.4 2.4h7.7425q2.4 0 2.4-2.4v-35.285q0-2.4-2.4-2.4h-7.7425q-2.4 0-2.4 2.4z" clip-path="url(#a)" fill="#fff" stroke="#fff"/>
<g clip-path="url(#a)">
<g transform="translate(1067.4 686.47) rotate(90) scale(.08 -.08)">
<use xlink:href="#k"/>
<use x="60.818359" xlink:href="#g"/>
<use x="122.341797" xlink:href="#l"/>
<use x="163.439453" xlink:href="#j"/>
<use x="260.851562" xlink:href="#f"/>
<use x="288.634766" xlink:href="#i"/>
<use x="352.013672" xlink:href="#e"/>
<use x="413.292969" xlink:href="#h"/>
</g>
</g>
<path d="m1111 686.47v35.285q0 2.4 2.4 2.4h7.7425q2.4 0 2.4-2.4v-35.285q0-2.4-2.4-2.4h-7.7425q-2.4 0-2.4 2.4z" clip-path="url(#a)" fill="#fff" stroke="#fff"/>
<g clip-path="url(#a)">
<g transform="translate(1115.1 686.47) rotate(90) scale(.08 -.08)">
<use xlink:href="#k"/>
<use x="60.818359" xlink:href="#g"/>
<use x="122.341797" xlink:href="#l"/>
<use x="163.439453" xlink:href="#j"/>
<use x="260.851562" xlink:href="#f"/>
<use x="288.634766" xlink:href="#i"/>
<use x="352.013672" xlink:href="#e"/>
<use x="413.292969" xlink:href="#h"/>
</g>
</g>
<path d="m872.82 686.47v35.285q0 2.4 2.4 2.4h7.7425q2.4 0 2.4-2.4v-35.285q0-2.4-2.4-2.4h-7.7425q-2.4 0-2.4 2.4z" clip-path="url(#a)" fill="#fff" stroke="#fff"/>
<g clip-path="url(#a)">
<g transform="translate(876.88 686.47) rotate(90) scale(.08 -.08)">
<use xlink:href="#k"/>
<use x="60.818359" xlink:href="#g"/>
<use x="122.341797" xlink:href="#l"/>
<use x="163.439453" xlink:href="#j"/>
<use x="260.851562" xlink:href="#f"/>
<use x="288.634766" xlink:href="#i"/>
<use x="352.013672" xlink:href="#e"/>
<use x="413.292969" xlink:href="#h"/>
</g>
</g>
<path d="m944.28 590.6 1.0065-4.9538q0.47785-2.3519-1.8741-2.8298l-7.5875-1.5416q-2.3519-0.47785-2.8298 1.8741l-1.0065 4.9538q-0.47785 2.3519 1.8741 2.8298l7.5875 1.5416q2.3519 0.47785 2.8298-1.8741z" clip-path="url(#a)" fill="#fff" stroke="#fff"/>
<g clip-path="url(#a)">
<g transform="translate(940.29 589.79) rotate(-78.516) scale(.08 -.08)">
<use xlink:href="#ah"/>
</g>
</g>
<path d="m955.75 585.39 1.1122 5.4744q0.47785 2.3519 2.8298 1.8741l7.5875-1.5416q2.3519-0.47785 1.8741-2.8298l-1.1122-5.4744q-0.47785-2.3519-2.8298-1.8741l-7.5875 1.5416q-2.3519 0.47785-1.8741 2.8298z" clip-path="url(#a)" fill="#fff" stroke="#fff"/>
<g clip-path="url(#a)">
<g transform="translate(959.73 584.58) rotate(78.516) scale(.08 -.08)">
<use xlink:href="#t"/>
</g>
</g>
<path d="m920.45 686.47v35.285q0 2.4 2.4 2.4h7.7425q2.4 0 2.4-2.4v-35.285q0-2.4-2.4-2.4h-7.7425q-2.4 0-2.4 2.4z" clip-path="url(#a)" fill="#fff" stroke="#fff"/>
<g clip-path="url(#a)">
<g transform="translate(924.52 686.47) rotate(90) scale(.08 -.08)">
<use xlink:href="#k"/>
<use x="60.818359" xlink:href="#g"/>
<use x="122.341797" xlink:href="#l"/>
<use x="163.439453" xlink:href="#j"/>
<use x="260.851562" xlink:href="#f"/>
<use x="288.634766" xlink:href="#i"/>
<use x="352.013672" xlink:href="#e"/>
<use x="413.292969" xlink:href="#h"/>
</g>
</g>
<path d="m968.09 686.47v35.285q0 2.4 2.4 2.4h7.7425q2.4 0 2.4-2.4v-35.285q0-2.4-2.4-2.4h-7.7425q-2.4 0-2.4 2.4z" clip-path="url(#a)" fill="#fff" stroke="#fff"/>
<g clip-path="url(#a)">
<g transform="translate(972.15 686.47) rotate(90) scale(.08 -.08)">
<use xlink:href="#k"/>
<use x="60.818359" xlink:href="#g"/>
<use x="122.341797" xlink:href="#l"/>
<use x="163.439453" xlink:href="#j"/>
<use x="260.851562" xlink:href="#f"/>
<use x="288.634766" xlink:href="#i"/>
<use x="352.013672" xlink:href="#e"/>
<use x="413.292969" xlink:href="#h"/>
</g>
</g>
<path d="m110.65 686.47v35.285q0 2.4 2.4 2.4h7.7425q2.4 0 2.4-2.4v-35.285q0-2.4-2.4-2.4h-7.7425q-2.4 0-2.4 2.4z" clip-path="url(#a)" fill="#fff" stroke="#fff"/>
<g clip-path="url(#a)">
<g transform="translate(114.71 686.47) rotate(90) scale(.08 -.08)">
<use xlink:href="#k"/>
<use x="60.818359" xlink:href="#g"/>
<use x="122.341797" xlink:href="#l"/>
<use x="163.439453" xlink:href="#j"/>
<use x="260.851562" xlink:href="#f"/>
<use x="288.634766" xlink:href="#i"/>
<use x="352.013672" xlink:href="#e"/>
<use x="413.292969" xlink:href="#h"/>
</g>
</g>
<path d="m200.73 591.89 2.1919-4.0456q1.1433-2.1102-0.96692-3.2535l-6.8076-3.6883q-2.1102-1.1433-3.2535 0.96692l-2.1919 4.0456q-1.1433 2.1102 0.96692 3.2535l6.8076 3.6883q2.1102 1.1433 3.2535-0.96692z" clip-path="url(#a)" fill="#fff" stroke="#fff"/>
<g clip-path="url(#a)">
<defs>
<path id="ag" d="m9.8125 72.906h41.891v-8.3125h-32.031v-21.484h28.906v-8.2969h-28.906v-34.812h-9.8594z"/>
</defs>
<g transform="translate(197.16 589.95) rotate(-61.552) scale(.08 -.08)">
<use xlink:href="#ag"/>
</g>
</g>
<path d="m226.01 590.22 0.67849-5.0093q0.32213-2.3783-2.0562-2.7004l-7.6724-1.0392q-2.3783-0.32213-2.7004 2.0562l-0.67849 5.0093q-0.32213 2.3783 2.0562 2.7004l7.6724 1.0392q2.3783 0.32213 2.7004-2.0562z" clip-path="url(#a)" fill="#fff" stroke="#fff"/>
<g clip-path="url(#a)">
<g transform="translate(221.98 589.68) rotate(-82.286) scale(.08 -.08)">
<use xlink:href="#ah"/>
</g>
</g>
<path d="m261.01 588.08 3.1325 4.6254q1.3458 1.9872 3.333 0.64139l6.4107-4.3416q1.9872-1.3458 0.64139-3.333l-3.1325-4.6254q-1.3458-1.9872-3.333-0.64139l-6.4107 4.3416q-1.9872 1.3458-0.64139 3.333z" clip-path="url(#a)" fill="#fff" stroke="#fff"/>
<g clip-path="url(#a)">
<g transform="translate(264.37 585.8) rotate(55.893) scale(.08 -.08)">
<use xlink:href="#t"/>
</g>
</g>
<path d="m253.56 686.47v35.285q0 2.4 2.4 2.4h7.7425q2.4 0 2.4-2.4v-35.285q0-2.4-2.4-2.4h-7.7425q-2.4 0-2.4 2.4z" clip-path="url(#a)" fill="#fff" stroke="#fff"/>
<g clip-path="url(#a)">
<g transform="translate(257.62 686.47) rotate(90) scale(.08 -.08)">
<use xlink:href="#k"/>
<use x="60.818359" xlink:href="#g"/>
<use x="122.341797" xlink:href="#l"/>
<use x="163.439453" xlink:href="#j"/>
<use x="260.851562" xlink:href="#f"/>
<use x="288.634766" xlink:href="#i"/>
<use x="352.013672" xlink:href="#e"/>
<use x="413.292969" xlink:href="#h"/>
</g>
</g>
<path d="m252.52 472.8 3.2554-4.3989q1.4277-1.9292-0.50149-3.3569l-6.2236-4.6058q-1.9292-1.4277-3.3569 0.50148l-3.2554 4.3989q-1.4277 1.9292 0.50148 3.3569l6.2236 4.6058q1.9292 1.4277 3.3569-0.50149z" clip-path="url(#a)" fill="#fff" stroke="#fff"/>
<g clip-path="url(#a)">
<g transform="translate(249.26 470.38) rotate(-53.497) scale(.08 -.08)">
<use xlink:href="#o"/>
</g>
</g>
<path d="m385.56 406.41 0.42911 4.8046q0.2135 2.3905 2.604 2.177l7.7118-0.68876q2.3905-0.2135 2.177-2.604l-0.42911-4.8046q-0.2135-2.3905-2.604-2.177l-7.7118 0.68876q-2.3905 0.2135-2.177 2.604z" clip-path="url(#a)" fill="#fff" stroke="#fff"/>
<g clip-path="url(#a)">
<g transform="translate(389.6 406.05) rotate(84.896) scale(.08 -.08)">
<use xlink:href="#v"/>
</g>
</g>
<path d="m385.59 464.52 0.32778 5.4627q0.14375 2.3957 2.5394 2.2519l7.7286-0.46375q2.3957-0.14375 2.2519-2.5394l-0.32778-5.4627q-0.14375-2.3957-2.5394-2.2519l-7.7286 0.46375q-2.3957 0.14375-2.2519 2.5394z" clip-path="url(#a)" fill="#fff" stroke="#fff"/>
<g clip-path="url(#a)">
<g transform="translate(389.65 464.27) rotate(86.566) scale(.08 -.08)">
<use xlink:href="#o"/>
</g>
</g>
<path d="m486.64 353.02 4.8013 2.626q2.1056 1.1517 3.2573-0.95398l3.7153-6.7929q1.1517-2.1056-0.95398-3.2573l-4.8013-2.626q-2.1056-1.1517-3.2573 0.95398l-3.7153 6.7929q-1.1517 2.1056 0.95398 3.2573z" clip-path="url(#a)" fill="#fff" stroke="#fff"/>
<g clip-path="url(#a)">
<g transform="translate(488.59 349.45) rotate(28.676) scale(.08 -.08)">
<use xlink:href="#o"/>
</g>
</g>
<path d="m383.86 591.37 1.7321-4.2628q0.90348-2.2234-1.32-3.1269l-7.1729-2.9147q-2.2234-0.90348-3.1269 1.32l-1.7321 4.2628q-0.90348 2.2234 1.32 3.1269l7.1729 2.9147q2.2234 0.90348 3.1269-1.32z" clip-path="url(#a)" fill="#fff" stroke="#fff"/>
<g clip-path="url(#a)">
<g transform="translate(380.1 589.84) rotate(-67.886) scale(.08 -.08)">
<use xlink:href="#ag"/>
</g>
</g>
<path d="m419.69 586.65 2.1029 5.1753q0.90348 2.2234 3.1269 1.32l7.1729-2.9147q2.2234-0.90348 1.32-3.1269l-2.1029-5.1753q-0.90348-2.2234-3.1269-1.32l-7.1729 2.9147q-2.2234 0.90348-1.32 3.1269z" clip-path="url(#a)" fill="#fff" stroke="#fff"/>
<g clip-path="url(#a)">
<g transform="translate(423.46 585.12) rotate(67.886) scale(.08 -.08)">
<use xlink:href="#t"/>
</g>
</g>
<path d="m396.46 686.47v35.285q0 2.4 2.4 2.4h7.7425q2.4 0 2.4-2.4v-35.285q0-2.4-2.4-2.4h-7.7425q-2.4 0-2.4 2.4z" clip-path="url(#a)" fill="#fff" stroke="#fff"/>
<g clip-path="url(#a)">
<g transform="translate(400.53 686.47) rotate(90) scale(.08 -.08)">
<use xlink:href="#k"/>
<use x="60.818359" xlink:href="#g"/>
<use x="122.341797" xlink:href="#l"/>
<use x="163.439453" xlink:href="#j"/>
<use x="260.851562" xlink:href="#f"/>
<use x="288.634766" xlink:href="#i"/>
<use x="352.013672" xlink:href="#e"/>
<use x="413.292969" xlink:href="#h"/>
</g>
</g>
<path d="m555.03 532.49 2.2203-5.0019q0.97371-2.1936-1.2199-3.1673l-7.0766-3.1412q-2.1936-0.97371-3.1673 1.2199l-2.2203 5.0019q-0.97371 2.1936 1.2199 3.1673l7.0766 3.1412q2.1936 0.97371 3.1673-1.2199z" clip-path="url(#a)" fill="#fff" stroke="#fff"/>
<g clip-path="url(#a)">
<g transform="translate(551.31 530.84) rotate(-66.064) scale(.08 -.08)">
<use xlink:href="#o"/>
</g>
</g>
<path d="m579.67 531.58 1.2878-5.3188q0.56477-2.3326-1.7678-2.8974l-7.5251-1.822q-2.3326-0.56477-2.8974 1.7678l-1.2878 5.3188q-0.56477 2.3326 1.7678 2.8974l7.5251 1.822q2.3326 0.56477 2.8974-1.7678z" clip-path="url(#a)" fill="#fff" stroke="#fff"/>
<g clip-path="url(#a)">
<g transform="translate(575.72 530.63) rotate(-76.389) scale(.08 -.08)">
<use xlink:href="#o"/>
</g>
</g>
<path d="m604.21 530 0.18552-4.5975q0.096769-2.398-2.3013-2.4948l-7.7362-0.31218q-2.398-0.09677-2.4948 2.3013l-0.18552 4.5975q-0.096769 2.398 2.3013 2.4948l7.7362 0.31218q2.398 0.096769 2.4948-2.3013z" clip-path="url(#a)" fill="#fff" stroke="#fff"/>
<g clip-path="url(#a)">
<g transform="translate(600.15 529.83) rotate(-87.689) scale(.08 -.08)">
<use xlink:href="#ag"/>
</g>
</g>
<path d="m615.28 526.07 0.76867 4.7621q0.38244 2.3693 2.7518 1.9869l7.6436-1.2338q2.3693-0.38244 1.9869-2.7518l-0.76867-4.7621q-0.38244-2.3693-2.7518-1.9869l-7.6436 1.2338q-2.3693 0.38244-1.9869 2.7518z" clip-path="url(#a)" fill="#fff" stroke="#fff"/>
<g clip-path="url(#a)">
<g transform="translate(619.29 525.42) rotate(80.831) scale(.08 -.08)">
<use xlink:href="#v"/>
</g>
</g>
<path d="m663.5 471.89 3.6479 3.2509q1.7918 1.5967 3.3885-0.19503l5.1511-5.7803q1.5967-1.7918-0.19503-3.3885l-3.6479-3.2509q-1.7918-1.5967-3.3885 0.19503l-5.1511 5.7803q-1.5967 1.7918 0.19503 3.3885z" clip-path="url(#a)" fill="#fff" stroke="#fff"/>
<g clip-path="url(#a)">
<g transform="translate(666.2 468.85) rotate(41.706) scale(.08 -.08)">
<use xlink:href="#k"/>
</g>
</g>
<path d="m491.73 686.47v35.285q0 2.4 2.4 2.4h7.7425q2.4 0 2.4-2.4v-35.285q0-2.4-2.4-2.4h-7.7425q-2.4 0-2.4 2.4z" clip-path="url(#a)" fill="#fff" stroke="#fff"/>
<g clip-path="url(#a)">
<g transform="translate(495.8 686.47) rotate(90) scale(.08 -.08)">
<use xlink:href="#k"/>
<use x="60.818359" xlink:href="#g"/>
<use x="122.341797" xlink:href="#l"/>
<use x="163.439453" xlink:href="#j"/>
<use x="260.851562" xlink:href="#f"/>
<use x="288.634766" xlink:href="#i"/>
<use x="352.013672" xlink:href="#e"/>
<use x="413.292969" xlink:href="#h"/>
</g>
</g>
<path d="m539.37 686.47v35.285q0 2.4 2.4 2.4h7.7425q2.4 0 2.4-2.4v-35.285q0-2.4-2.4-2.4h-7.7425q-2.4 0-2.4 2.4z" clip-path="url(#a)" fill="#fff" stroke="#fff"/>
<g clip-path="url(#a)">
<g transform="translate(543.43 686.47) rotate(90) scale(.08 -.08)">
<use xlink:href="#k"/>
<use x="60.818359" xlink:href="#g"/>
<use x="122.341797" xlink:href="#l"/>
<use x="163.439453" xlink:href="#j"/>
<use x="260.851562" xlink:href="#f"/>
<use x="288.634766" xlink:href="#i"/>
<use x="352.013672" xlink:href="#e"/>
<use x="413.292969" xlink:href="#h"/>
</g>
</g>
<path d="m587 686.47v35.285q0 2.4 2.4 2.4h7.7425q2.4 0 2.4-2.4v-35.285q0-2.4-2.4-2.4h-7.7425q-2.4 0-2.4 2.4z" clip-path="url(#a)" fill="#fff" stroke="#fff"/>
<g clip-path="url(#a)">
<g transform="translate(591.07 686.47) rotate(90) scale(.08 -.08)">
<use xlink:href="#k"/>
<use x="60.818359" xlink:href="#g"/>
<use x="122.341797" xlink:href="#l"/>
<use x="163.439453" xlink:href="#j"/>
<use x="260.851562" xlink:href="#f"/>
<use x="288.634766" xlink:href="#i"/>
<use x="352.013672" xlink:href="#e"/>
<use x="413.292969" xlink:href="#h"/>
</g>
</g>
<path d="m634.64 686.47v35.285q0 2.4 2.4 2.4h7.7425q2.4 0 2.4-2.4v-35.285q0-2.4-2.4-2.4h-7.7425q-2.4 0-2.4 2.4z" clip-path="url(#a)" fill="#fff" stroke="#fff"/>
<g clip-path="url(#a)">
<g transform="translate(638.7 686.47) rotate(90) scale(.08 -.08)">
<use xlink:href="#k"/>
<use x="60.818359" xlink:href="#g"/>
<use x="122.341797" xlink:href="#l"/>
<use x="163.439453" xlink:href="#j"/>
<use x="260.851562" xlink:href="#f"/>
<use x="288.634766" xlink:href="#i"/>
<use x="352.013672" xlink:href="#e"/>
<use x="413.292969" xlink:href="#h"/>
</g>
</g>
<path d="m717.13 591.81 2.0926-5.1498q0.90348-2.2234-1.32-3.1269l-7.1729-2.9147q-2.2234-0.90348-3.1269 1.32l-2.0926 5.1498q-0.90348 2.2234 1.32 3.1269l7.1729 2.9147q2.2234 0.90348 3.1269-1.32z" clip-path="url(#a)" fill="#fff" stroke="#fff"/>
<g clip-path="url(#a)">
<g transform="translate(713.36 590.28) rotate(-67.886) scale(.08 -.08)">
<use xlink:href="#am"/>
</g>
</g>
<path d="m729.91 583.73v6.2975q0 2.4 2.4 2.4h7.7425q2.4 0 2.4-2.4v-6.2975q0-2.4-2.4-2.4h-7.7425q-2.4 0-2.4 2.4z" clip-path="url(#a)" fill="#fff" stroke="#fff"/>
<g clip-path="url(#a)">
<defs>
<path id="aq" d="m39.406 66.219q-10.75 0-17.078-8.0156-6.3125-8-6.3125-21.828 0-13.766 6.3125-21.781 6.3281-8 17.078-8 10.734 0 17.016 8 6.2812 8.0156 6.2812 21.781 0 13.828-6.2812 21.828-6.2812 8.0156-17.016 8.0156zm13.812-64.906 13-14.203h-11.922l-10.797 11.672q-1.6094-0.09375-2.4688-0.14062-0.84375-0.0625-1.625-0.0625-15.375 0-24.594 10.281-9.2031 10.281-9.2031 27.516 0 17.281 9.2031 27.562 9.2188 10.281 24.594 10.281 15.328 0 24.5-10.281 9.1875-10.281 9.1875-27.562 0-12.688-5.1094-21.734-5.0938-9.0312-14.766-13.328z"/>
</defs>
<g transform="translate(733.97 583.73) rotate(90) scale(.08 -.08)">
<use xlink:href="#aq"/>
</g>
</g>
<path d="m753.14 586.65 2.1029 5.1753q0.90348 2.2234 3.1269 1.32l7.1729-2.9147q2.2234-0.90348 1.32-3.1269l-2.1029-5.1753q-0.90348-2.2234-3.1269-1.32l-7.1729 2.9147q-2.2234 0.90348-1.32 3.1269z" clip-path="url(#a)" fill="#fff" stroke="#fff"/>
<g clip-path="url(#a)">
<g transform="translate(756.9 585.12) rotate(67.886) scale(.08 -.08)">
<use xlink:href="#t"/>
</g>
</g>
<path d="m682.28 686.47v35.285q0 2.4 2.4 2.4h7.7425q2.4 0 2.4-2.4v-35.285q0-2.4-2.4-2.4h-7.7425q-2.4 0-2.4 2.4z" clip-path="url(#a)" fill="#fff" stroke="#fff"/>
<g clip-path="url(#a)">
<g transform="translate(686.34 686.47) rotate(90) scale(.08 -.08)">
<use xlink:href="#k"/>
<use x="60.818359" xlink:href="#g"/>
<use x="122.341797" xlink:href="#l"/>
<use x="163.439453" xlink:href="#j"/>
<use x="260.851562" xlink:href="#f"/>
<use x="288.634766" xlink:href="#i"/>
<use x="352.013672" xlink:href="#e"/>
<use x="413.292969" xlink:href="#h"/>
</g>
</g>
<path d="m729.91 686.47v35.285q0 2.4 2.4 2.4h7.7425q2.4 0 2.4-2.4v-35.285q0-2.4-2.4-2.4h-7.7425q-2.4 0-2.4 2.4z" clip-path="url(#a)" fill="#fff" stroke="#fff"/>
<g clip-path="url(#a)">
<g transform="translate(733.97 686.47) rotate(90) scale(.08 -.08)">
<use xlink:href="#k"/>
<use x="60.818359" xlink:href="#g"/>
<use x="122.341797" xlink:href="#l"/>
<use x="163.439453" xlink:href="#j"/>
<use x="260.851562" xlink:href="#f"/>
<use x="288.634766" xlink:href="#i"/>
<use x="352.013672" xlink:href="#e"/>
<use x="413.292969" xlink:href="#h"/>
</g>
</g>
<path d="m777.55 686.47v35.285q0 2.4 2.4 2.4h7.7425q2.4 0 2.4-2.4v-35.285q0-2.4-2.4-2.4h-7.7425q-2.4 0-2.4 2.4z" clip-path="url(#a)" fill="#fff" stroke="#fff"/>
<g clip-path="url(#a)">
<g transform="translate(781.61 686.47) rotate(90) scale(.08 -.08)">
<use xlink:href="#k"/>
<use x="60.818359" xlink:href="#g"/>
<use x="122.341797" xlink:href="#l"/>
<use x="163.439453" xlink:href="#j"/>
<use x="260.851562" xlink:href="#f"/>
<use x="288.634766" xlink:href="#i"/>
<use x="352.013672" xlink:href="#e"/>
<use x="413.292969" xlink:href="#h"/>
</g>
</g>
<path d="m348.83 686.47v35.285q0 2.4 2.4 2.4h7.7425q2.4 0 2.4-2.4v-35.285q0-2.4-2.4-2.4h-7.7425q-2.4 0-2.4 2.4z" clip-path="url(#a)" fill="#fff" stroke="#fff"/>
<g clip-path="url(#a)">
<g transform="translate(352.89 686.47) rotate(90) scale(.08 -.08)">
<use xlink:href="#k"/>
<use x="60.818359" xlink:href="#g"/>
<use x="122.341797" xlink:href="#l"/>
<use x="163.439453" xlink:href="#j"/>
<use x="260.851562" xlink:href="#f"/>
<use x="288.634766" xlink:href="#i"/>
<use x="352.013672" xlink:href="#e"/>
<use x="413.292969" xlink:href="#h"/>
</g>
</g>
<path d="m444.1 686.47v35.285q0 2.4 2.4 2.4h7.7425q2.4 0 2.4-2.4v-35.285q0-2.4-2.4-2.4h-7.7425q-2.4 0-2.4 2.4z" clip-path="url(#a)" fill="#fff" stroke="#fff"/>
<g clip-path="url(#a)">
<g transform="translate(448.16 686.47) rotate(90) scale(.08 -.08)">
<use xlink:href="#k"/>
<use x="60.818359" xlink:href="#g"/>
<use x="122.341797" xlink:href="#l"/>
<use x="163.439453" xlink:href="#j"/>
<use x="260.851562" xlink:href="#f"/>
<use x="288.634766" xlink:href="#i"/>
<use x="352.013672" xlink:href="#e"/>
<use x="413.292969" xlink:href="#h"/>
</g>
</g>
<path d="m158.29 686.47v35.285q0 2.4 2.4 2.4h7.7425q2.4 0 2.4-2.4v-35.285q0-2.4-2.4-2.4h-7.7425q-2.4 0-2.4 2.4z" clip-path="url(#a)" fill="#fff" stroke="#fff"/>
<g clip-path="url(#a)">
<g transform="translate(162.35 686.47) rotate(90) scale(.08 -.08)">
<use xlink:href="#k"/>
<use x="60.818359" xlink:href="#g"/>
<use x="122.341797" xlink:href="#l"/>
<use x="163.439453" xlink:href="#j"/>
<use x="260.851562" xlink:href="#f"/>
<use x="288.634766" xlink:href="#i"/>
<use x="352.013672" xlink:href="#e"/>
<use x="413.292969" xlink:href="#h"/>
</g>
</g>
<path d="m205.92 686.47v35.285q0 2.4 2.4 2.4h7.7425q2.4 0 2.4-2.4v-35.285q0-2.4-2.4-2.4h-7.7425q-2.4 0-2.4 2.4z" clip-path="url(#a)" fill="#fff" stroke="#fff"/>
<g clip-path="url(#a)">
<g transform="translate(209.99 686.47) rotate(90) scale(.08 -.08)">
<use xlink:href="#k"/>
<use x="60.818359" xlink:href="#g"/>
<use x="122.341797" xlink:href="#l"/>
<use x="163.439453" xlink:href="#j"/>
<use x="260.851562" xlink:href="#f"/>
<use x="288.634766" xlink:href="#i"/>
<use x="352.013672" xlink:href="#e"/>
<use x="413.292969" xlink:href="#h"/>
</g>
</g>
<path d="m301.19 686.47v35.285q0 2.4 2.4 2.4h7.7425q2.4 0 2.4-2.4v-35.285q0-2.4-2.4-2.4h-7.7425q-2.4 0-2.4 2.4z" clip-path="url(#a)" fill="#fff" stroke="#fff"/>
<g clip-path="url(#a)">
<g transform="translate(305.26 686.47) rotate(90) scale(.08 -.08)">
<use xlink:href="#k"/>
<use x="60.818359" xlink:href="#g"/>
<use x="122.341797" xlink:href="#l"/>
<use x="163.439453" xlink:href="#j"/>
<use x="260.851562" xlink:href="#f"/>
<use x="288.634766" xlink:href="#i"/>
<use x="352.013672" xlink:href="#e"/>
<use x="413.292969" xlink:href="#h"/>
</g>
</g>
<path d="m1444.4 686.47v35.285q0 2.4 2.4 2.4h7.7425q2.4 0 2.4-2.4v-35.285q0-2.4-2.4-2.4h-7.7425q-2.4 0-2.4 2.4z" clip-path="url(#a)" fill="#fff" stroke="#fff"/>
<g clip-path="url(#a)">
<g transform="translate(1448.5 686.47) rotate(90) scale(.08 -.08)">
<use xlink:href="#k"/>
<use x="60.818359" xlink:href="#g"/>
<use x="122.341797" xlink:href="#l"/>
<use x="163.439453" xlink:href="#j"/>
<use x="260.851562" xlink:href="#f"/>
<use x="288.634766" xlink:href="#i"/>
<use x="352.013672" xlink:href="#e"/>
<use x="413.292969" xlink:href="#h"/>
</g>
</g>
<defs>
<path id="b" d="m0 8.6603c2.2967 0 4.4997-0.9125 6.1237-2.5365 1.624-1.624 2.5365-3.827 2.5365-6.1237s-0.9125-4.4997-2.5365-6.1237c-1.624-1.624-3.827-2.5365-6.1237-2.5365s-4.4997 0.9125-6.1237 2.5365c-1.624 1.624-2.5365 3.827-2.5365 6.1237s0.9125 4.4997 2.5365 6.1237c1.624 1.624 3.827 2.5365 6.1237 2.5365z"/>
</defs>
<g clip-path="url(#a)">
<use x="69.28632" y="762.722645" fill="#ffffff" stroke="#ffffff" xlink:href="#b"/>
</g>
<g clip-path="url(#a)">
<use x="116.921747" y="762.722645" fill="#ffffff" stroke="#ffffff" xlink:href="#b"/>
</g>
<g clip-path="url(#a)">
<use x="164.557173" y="762.722645" fill="#ffffff" stroke="#ffffff" xlink:href="#b"/>
</g>
<g clip-path="url(#a)">
<use x="212.192599" y="762.722645" fill="#ffffff" stroke="#ffffff" xlink:href="#b"/>
</g>
<g clip-path="url(#a)">
<use x="259.828025" y="762.722645" fill="#ffffff" stroke="#ffffff" xlink:href="#b"/>
</g>
<g clip-path="url(#a)">
<use x="307.463451" y="762.722645" fill="#ffffff" stroke="#ffffff" xlink:href="#b"/>
</g>
<g clip-path="url(#a)">
<use x="355.098877" y="762.722645" fill="#ffffff" stroke="#ffffff" xlink:href="#b"/>
</g>
<g clip-path="url(#a)">
<use x="402.734304" y="762.722645" fill="#ffffff" stroke="#ffffff" xlink:href="#b"/>
</g>
<g clip-path="url(#a)">
<use x="450.36973" y="762.722645" fill="#ffffff" stroke="#ffffff" xlink:href="#b"/>
</g>
<g clip-path="url(#a)">
<use x="498.005156" y="762.722645" fill="#ffffff" stroke="#ffffff" xlink:href="#b"/>
</g>
<g clip-path="url(#a)">
<use x="545.640582" y="762.722645" fill="#ffffff" stroke="#ffffff" xlink:href="#b"/>
</g>
<g clip-path="url(#a)">
<use x="593.276008" y="762.722645" fill="#ffffff" stroke="#ffffff" xlink:href="#b"/>
</g>
<g clip-path="url(#a)">
<use x="640.911435" y="762.722645" fill="#ffffff" stroke="#ffffff" xlink:href="#b"/>
</g>
<g clip-path="url(#a)">
<use x="688.546861" y="762.722645" fill="#ffffff" stroke="#ffffff" xlink:href="#b"/>
</g>
<g clip-path="url(#a)">
<use x="736.182287" y="762.722645" fill="#ffffff" stroke="#ffffff" xlink:href="#b"/>
</g>
<g clip-path="url(#a)">
<use x="783.817713" y="762.722645" fill="#ffffff" stroke="#ffffff" xlink:href="#b"/>
</g>
<g clip-path="url(#a)">
<use x="831.453139" y="762.722645" fill="#ffffff" stroke="#ffffff" xlink:href="#b"/>
</g>
<g clip-path="url(#a)">
<use x="879.088565" y="762.722645" fill="#ffffff" stroke="#ffffff" xlink:href="#b"/>
</g>
<g clip-path="url(#a)">
<use x="926.723992" y="762.722645" fill="#ffffff" stroke="#ffffff" xlink:href="#b"/>
</g>
<g clip-path="url(#a)">
<use x="974.359418" y="762.722645" fill="#ffffff" stroke="#ffffff" xlink:href="#b"/>
</g>
<g clip-path="url(#a)">
<use x="1021.994844" y="762.722645" fill="#ffffff" stroke="#ffffff" xlink:href="#b"/>
</g>
<g clip-path="url(#a)">
<use x="1069.63027" y="762.722645" fill="#ffffff" stroke="#ffffff" xlink:href="#b"/>
</g>
<g clip-path="url(#a)">
<use x="1117.265696" y="762.722645" fill="#ffffff" stroke="#ffffff" xlink:href="#b"/>
</g>
<g clip-path="url(#a)">
<use x="1164.901123" y="762.722645" fill="#ffffff" stroke="#ffffff" xlink:href="#b"/>
</g>
<g clip-path="url(#a)">
<use x="1212.536549" y="762.722645" fill="#ffffff" stroke="#ffffff" xlink:href="#b"/>
</g>
<g clip-path="url(#a)">
<use x="1260.171975" y="762.722645" fill="#ffffff" stroke="#ffffff" xlink:href="#b"/>
</g>
<g clip-path="url(#a)">
<use x="1307.807401" y="762.722645" fill="#ffffff" stroke="#ffffff" xlink:href="#b"/>
</g>
<g clip-path="url(#a)">
<use x="1355.442827" y="762.722645" fill="#ffffff" stroke="#ffffff" xlink:href="#b"/>
</g>
<g clip-path="url(#a)">
<use x="1403.078253" y="762.722645" fill="#ffffff" stroke="#ffffff" xlink:href="#b"/>
</g>
<g clip-path="url(#a)">
<use x="1450.71368" y="762.722645" fill="#ffffff" stroke="#ffffff" xlink:href="#b"/>
</g>
<g clip-path="url(#a)">
<use x="720.733854" y="37.277355" fill="#ffffff" stroke="#ffffff" xlink:href="#b"/>
</g>
<g clip-path="url(#a)">
<use x="69.28632" y="645.492499" fill="#ffffff" stroke="#ffffff" xlink:href="#b"/>
</g>
<g clip-path="url(#a)">
<use x="246.529802" y="164.341577" fill="#ffffff" stroke="#ffffff" xlink:href="#b"/>
</g>
<g clip-path="url(#a)">
<use x="831.453139" y="645.492499" fill="#ffffff" stroke="#ffffff" xlink:href="#b"/>
</g>
<g clip-path="url(#a)">
<use x="914.815135" y="409.401407" fill="#ffffff" stroke="#ffffff" xlink:href="#b"/>
</g>
<g clip-path="url(#a)">
<use x="1021.994844" y="645.492499" fill="#ffffff" stroke="#ffffff" xlink:href="#b"/>
</g>
<g clip-path="url(#a)">
<use x="1240.323881" y="409.401407" fill="#ffffff" stroke="#ffffff" xlink:href="#b"/>
</g>
<g clip-path="url(#a)">
<use x="1093.447983" y="528.262354" fill="#ffffff" stroke="#ffffff" xlink:href="#b"/>
</g>
<g clip-path="url(#a)">
<use x="1164.901123" y="645.492499" fill="#ffffff" stroke="#ffffff" xlink:href="#b"/>
</g>
<g clip-path="url(#a)">
<use x="1212.536549" y="645.492499" fill="#ffffff" stroke="#ffffff" xlink:href="#b"/>
</g>
<g clip-path="url(#a)">
<use x="1260.171975" y="645.492499" fill="#ffffff" stroke="#ffffff" xlink:href="#b"/>
</g>
<g clip-path="url(#a)">
<use x="1307.807401" y="645.492499" fill="#ffffff" stroke="#ffffff" xlink:href="#b"/>
</g>
<g clip-path="url(#a)">
<use x="1403.078253" y="528.262354" fill="#ffffff" stroke="#ffffff" xlink:href="#b"/>
</g>
<g clip-path="url(#a)">
<use x="1355.442827" y="645.492499" fill="#ffffff" stroke="#ffffff" xlink:href="#b"/>
</g>
<g clip-path="url(#a)">
<use x="1403.078253" y="645.492499" fill="#ffffff" stroke="#ffffff" xlink:href="#b"/>
</g>
<g clip-path="url(#a)">
<use x="1069.63027" y="645.492499" fill="#ffffff" stroke="#ffffff" xlink:href="#b"/>
</g>
<g clip-path="url(#a)">
<use x="1117.265696" y="645.492499" fill="#ffffff" stroke="#ffffff" xlink:href="#b"/>
</g>
<g clip-path="url(#a)">
<use x="879.088565" y="645.492499" fill="#ffffff" stroke="#ffffff" xlink:href="#b"/>
</g>
<g clip-path="url(#a)">
<use x="950.541705" y="528.262354" fill="#ffffff" stroke="#ffffff" xlink:href="#b"/>
</g>
<g clip-path="url(#a)">
<use x="926.723992" y="645.492499" fill="#ffffff" stroke="#ffffff" xlink:href="#b"/>
</g>
<g clip-path="url(#a)">
<use x="974.359418" y="645.492499" fill="#ffffff" stroke="#ffffff" xlink:href="#b"/>
</g>
<g clip-path="url(#a)">
<use x="116.921747" y="645.492499" fill="#ffffff" stroke="#ffffff" xlink:href="#b"/>
</g>
<g clip-path="url(#a)">
<use x="228.071074" y="528.262354" fill="#ffffff" stroke="#ffffff" xlink:href="#b"/>
</g>
<g clip-path="url(#a)">
<use x="259.828025" y="645.492499" fill="#ffffff" stroke="#ffffff" xlink:href="#b"/>
</g>
<g clip-path="url(#a)">
<use x="381.298362" y="288.251704" fill="#ffffff" stroke="#ffffff" xlink:href="#b"/>
</g>
<g clip-path="url(#a)">
<use x="402.734304" y="528.262354" fill="#ffffff" stroke="#ffffff" xlink:href="#b"/>
</g>
<g clip-path="url(#a)">
<use x="402.734304" y="645.492499" fill="#ffffff" stroke="#ffffff" xlink:href="#b"/>
</g>
<g clip-path="url(#a)">
<use x="602.803094" y="409.401407" fill="#ffffff" stroke="#ffffff" xlink:href="#b"/>
</g>
<g clip-path="url(#a)">
<use x="498.005156" y="645.492499" fill="#ffffff" stroke="#ffffff" xlink:href="#b"/>
</g>
<g clip-path="url(#a)">
<use x="545.640582" y="645.492499" fill="#ffffff" stroke="#ffffff" xlink:href="#b"/>
</g>
<g clip-path="url(#a)">
<use x="593.276008" y="645.492499" fill="#ffffff" stroke="#ffffff" xlink:href="#b"/>
</g>
<g clip-path="url(#a)">
<use x="640.911435" y="645.492499" fill="#ffffff" stroke="#ffffff" xlink:href="#b"/>
</g>
<g clip-path="url(#a)">
<use x="736.182287" y="528.262354" fill="#ffffff" stroke="#ffffff" xlink:href="#b"/>
</g>
<g clip-path="url(#a)">
<use x="688.546861" y="645.492499" fill="#ffffff" stroke="#ffffff" xlink:href="#b"/>
</g>
<g clip-path="url(#a)">
<use x="736.182287" y="645.492499" fill="#ffffff" stroke="#ffffff" xlink:href="#b"/>
</g>
<g clip-path="url(#a)">
<use x="783.817713" y="645.492499" fill="#ffffff" stroke="#ffffff" xlink:href="#b"/>
</g>
<g clip-path="url(#a)">
<use x="355.098877" y="645.492499" fill="#ffffff" stroke="#ffffff" xlink:href="#b"/>
</g>
<g clip-path="url(#a)">
<use x="450.36973" y="645.492499" fill="#ffffff" stroke="#ffffff" xlink:href="#b"/>
</g>
<g clip-path="url(#a)">
<use x="164.557173" y="645.492499" fill="#ffffff" stroke="#ffffff" xlink:href="#b"/>
</g>
<g clip-path="url(#a)">
<use x="212.192599" y="645.492499" fill="#ffffff" stroke="#ffffff" xlink:href="#b"/>
</g>
<g clip-path="url(#a)">
<use x="307.463451" y="645.492499" fill="#ffffff" stroke="#ffffff" xlink:href="#b"/>
</g>
<g clip-path="url(#a)">
<use x="1450.71368" y="645.492499" fill="#ffffff" stroke="#ffffff" xlink:href="#b"/>
</g>
<g clip-path="url(#a)">
<defs>
<path id="ar" d="m19.672 34.812v-26.703h15.828q7.9531 0 11.781 3.2969 3.8438 3.2969 3.8438 10.078 0 6.8438-3.8438 10.078-3.8281 3.25-11.781 3.25zm0 29.984v-21.969h14.609q7.2188 0 10.75 2.7031 3.5469 2.7188 3.5469 8.2812 0 5.5156-3.5469 8.25-3.5312 2.7344-10.75 2.7344zm-9.8594 8.1094h25.203q11.281 0 17.375-4.6875 6.1094-4.6875 6.1094-13.328 0-6.7031-3.125-10.656t-9.1875-4.9219q7.2812-1.5625 11.312-6.5312 4.0312-4.9531 4.0312-12.375 0-9.7656-6.6406-15.094-6.6406-5.3125-18.906-5.3125h-26.172z"/>
<path id="ad" d="m8.5 21.578v33.109h8.9844v-32.766q0-7.7656 3.0156-11.656 3.0312-3.875 9.0938-3.875 7.2656 0 11.484 4.6406 4.2344 4.6406 4.2344 12.656v31h8.9844v-54.688h-8.9844v8.4062q-3.2656-4.9844-7.5938-7.4062-4.3125-2.4219-10.031-2.4219-9.4219 0-14.312 5.8594-4.875 5.8594-4.875 17.141z"/>
<path id="p" d="m18.312 70.219v-15.531h18.5v-6.9844h-18.5v-29.688q0-6.6875 1.8281-8.5938t7.4531-1.9062h9.2188v-7.5156h-9.2188q-10.406 0-14.359 3.875-3.9531 3.8906-3.9531 14.141v29.688h-6.5938v6.9844h6.5938v15.531z"/>
</defs>
<g transform="translate(60.727 765.48) scale(.1 -.1)">
<use xlink:href="#ar"/>
<use x="68.603516" xlink:href="#ad"/>
<use x="131.982422" xlink:href="#p"/>
</g>
</g>
<g clip-path="url(#a)">
<defs>
<path id="u" d="m44.281 53.078v-8.5q-3.7969 1.9531-7.9062 2.9219-4.0938 0.98438-8.5 0.98438-6.6875 0-10.031-2.0469t-3.3438-6.1562q0-3.125 2.3906-4.9062t9.625-3.3906l3.0781-0.6875q9.5625-2.0469 13.594-5.7812t4.0312-10.422q0-7.625-6.0312-12.078-6.0312-4.4375-16.578-4.4375-4.3906 0-9.1562 0.85938t-10.031 2.5625v9.2812q4.9844-2.5938 9.8125-3.8906 4.8281-1.2812 9.5781-1.2812 6.3438 0 9.75 2.1719 3.4219 2.1719 3.4219 6.125 0 3.6562-2.4688 5.6094-2.4531 1.9531-10.812 3.7656l-3.125 0.73438q-8.3438 1.75-12.062 5.3906-3.7031 3.6406-3.7031 9.9844 0 7.7188 5.4688 11.906 5.4688 4.2031 15.531 4.2031 4.9688 0 9.3594-0.73438 4.4062-0.71875 8.1094-2.1875z"/>
<path id="w" d="m54.891 33.016v-33.016h-8.9844v32.719q0 7.7656-3.0312 11.609-3.0312 3.8594-9.0781 3.8594-7.2812 0-11.484-4.6406-4.2031-4.625-4.2031-12.641v-30.906h-9.0312v75.984h9.0312v-29.797q3.2344 4.9375 7.5938 7.375 4.375 2.4375 10.094 2.4375 9.4219 0 14.25-5.8281 4.8438-5.8281 4.8438-17.156z"/>
</defs>
<g transform="translate(108.07 765.48) scale(.1 -.1)">
<use xlink:href="#u"/>
<use x="52.099609" xlink:href="#w"/>
<use x="115.478516" xlink:href="#g"/>
</g>
</g>
<g clip-path="url(#a)">
<defs>
<path id="s" d="m45.406 46.391v29.594h8.9844v-75.984h-8.9844v8.2031q-2.8281-4.875-7.1562-7.25-4.3125-2.375-10.375-2.375-9.9062 0-16.141 7.9062-6.2188 7.9219-6.2188 20.812t6.2188 20.797q6.2344 7.9062 16.141 7.9062 6.0625 0 10.375-2.375 4.3281-2.3594 7.1562-7.2344zm-30.609-19.094q0-9.9062 4.0781-15.547t11.203-5.6406 11.219 5.6406q4.1094 5.6406 4.1094 15.547t-4.1094 15.547q-4.0938 5.6406-11.219 5.6406t-11.203-5.6406-4.0781-15.547z"/>
</defs>
<g transform="translate(156.82 765.48) scale(.1 -.1)">
<use xlink:href="#s"/>
<use x="63.476562" xlink:href="#f"/>
<use x="91.259766" xlink:href="#s"/>
</g>
</g>
<g clip-path="url(#a)">
<g transform="translate(209.13 765.48) scale(.1 -.1)">
<use xlink:href="#e"/>
</g>
</g>
<g clip-path="url(#a)">
<defs>
<path id="au" d="m37.109 75.984v-7.4844h-8.5938q-4.8281 0-6.7188-1.9531-1.875-1.9531-1.875-7.0312v-4.8281h14.797v-6.9844h-14.797v-47.703h-9.0312v47.703h-8.5938v6.9844h8.5938v3.8125q0 9.125 4.25 13.297 4.25 4.1875 13.469 4.1875z"/>
<path id="al" d="m48.688 27.297q0 9.9062-4.0781 15.547t-11.203 5.6406q-7.1406 0-11.219-5.6406t-4.0781-15.547 4.0781-15.547 11.219-5.6406q7.125 0 11.203 5.6406t4.0781 15.547zm-30.578 19.094q2.8438 4.875 7.1562 7.2344 4.3281 2.375 10.328 2.375 9.9688 0 16.188-7.9062 6.2344-7.9062 6.2344-20.797t-6.2344-20.812q-6.2188-7.9062-16.188-7.9062-6 0-10.328 2.375-4.3125 2.375-7.1562 7.25v-8.2031h-9.0312v75.984h9.0312z"/>
<path id="r" d="m30.609 48.391q-7.2188 0-11.422-5.6406t-4.2031-15.453 4.1719-15.453q4.1875-5.6406 11.453-5.6406 7.1875 0 11.375 5.6562 4.2031 5.6719 4.2031 15.438 0 9.7188-4.2031 15.406-4.1875 5.6875-11.375 5.6875zm0 7.6094q11.719 0 18.406-7.625 6.7031-7.6094 6.7031-21.078 0-13.422-6.7031-21.078-6.6875-7.6406-18.406-7.6406-11.766 0-18.438 7.6406-6.6562 7.6562-6.6562 21.078 0 13.469 6.6562 21.078 6.6719 7.625 18.438 7.625z"/>
</defs>
<g transform="translate(238.44 765.48) scale(.1 -.1)">
<use xlink:href="#au"/>
<use x="35.205078" xlink:href="#e"/>
<use x="96.484375" xlink:href="#al"/>
<use x="159.960938" xlink:href="#ad"/>
<use x="223.339844" xlink:href="#h"/>
<use x="251.123047" xlink:href="#r"/>
<use x="312.304688" xlink:href="#ad"/>
<use x="375.683594" xlink:href="#u"/>
</g>
</g>
<g clip-path="url(#a)">
<defs>
<path id="at" d="m9.4219 54.688h8.9844v-55.672q0-10.438-3.9844-15.125-3.9688-4.6875-12.812-4.6875h-3.4219v7.6094h2.4062q5.125 0 6.9688 2.375 1.8594 2.3594 1.8594 9.8281zm0 21.297h8.9844v-11.391h-8.9844z"/>
</defs>
<g transform="translate(299.84 765.48) scale(.1 -.1)">
<use xlink:href="#at"/>
<use x="27.783203" xlink:href="#r"/>
<use x="88.964844" xlink:href="#al"/>
</g>
</g>
<g clip-path="url(#a)">
<defs>
<path id="an" d="m45.406 27.984q0 9.7656-4.0312 15.125-4.0156 5.375-11.297 5.375-7.2188 0-11.25-5.375-4.0312-5.3594-4.0312-15.125 0-9.7188 4.0312-15.094t11.25-5.375q7.2812 0 11.297 5.375 4.0312 5.375 4.0312 15.094zm8.9844-21.203q0-13.953-6.2031-20.766-6.1875-6.8125-18.984-6.8125-4.7344 0-8.9375 0.70312t-8.1562 2.1719v8.7344q3.9531-2.1406 7.8125-3.1562 3.8594-1.0312 7.8594-1.0312 8.8438 0 13.234 4.6094t4.3906 13.938v4.4531q-2.7812-4.8438-7.125-7.2344t-10.406-2.3906q-10.047 0-16.203 7.6562-6.1562 7.6719-6.1562 20.328 0 12.688 6.1562 20.344 6.1562 7.6719 16.203 7.6719 6.0625 0 10.406-2.3906t7.125-7.2188v8.2969h8.9844z"/>
</defs>
<g transform="translate(338.98 765.48) scale(.1 -.1)">
<use xlink:href="#h"/>
<use x="27.783203" xlink:href="#g"/>
<use x="89.306641" xlink:href="#p"/>
<use x="128.515625" xlink:href="#p"/>
<use x="167.724609" xlink:href="#f"/>
<use x="195.507812" xlink:href="#i"/>
<use x="258.886719" xlink:href="#an"/>
</g>
</g>
<g clip-path="url(#a)">
<g transform="translate(394.79 765.48) scale(.1 -.1)">
<use xlink:href="#j"/>
<use x="97.412109" xlink:href="#g"/>
</g>
</g>
<g clip-path="url(#a)">
<defs>
<path id="as" d="m9.0781 75.984h9.0312v-44.875l26.812 23.578h11.469l-29-25.578 30.234-29.109h-11.719l-27.797 26.703v-26.703h-9.0312z"/>
<path id="ac" d="m4.2031 54.688h8.9844l11.234-42.672 11.172 42.672h10.594l11.234-42.672 11.188 42.672h8.9844l-14.312-54.688h-10.594l-11.766 44.828-11.812-44.828h-10.609z"/>
</defs>
<g transform="translate(437.16 765.48) scale(.1 -.1)">
<use xlink:href="#as"/>
<use x="57.910156" xlink:href="#i"/>
<use x="121.289062" xlink:href="#r"/>
<use x="182.470703" xlink:href="#ac"/>
</g>
</g>
<g clip-path="url(#a)">
<g transform="translate(485.72 765.48) scale(.1 -.1)">
<use xlink:href="#ac"/>
<use x="81.787109" xlink:href="#w"/>
<use x="145.166016" xlink:href="#e"/>
<use x="206.445312" xlink:href="#p"/>
</g>
</g>
<g clip-path="url(#a)">
<g transform="translate(536.79 765.48) scale(.1 -.1)">
<use xlink:href="#u"/>
<use x="52.099609" xlink:href="#w"/>
<use x="115.478516" xlink:href="#g"/>
</g>
</g>
<g clip-path="url(#a)">
<g transform="translate(583.52 765.48) scale(.1 -.1)">
<use xlink:href="#ac"/>
<use x="81.787109" xlink:href="#e"/>
<use x="143.066406" xlink:href="#u"/>
</g>
</g>
<g clip-path="url(#a)">
<g transform="translate(626.95 765.48) scale(.1 -.1)">
<use xlink:href="#s"/>
<use x="63.476562" xlink:href="#r"/>
<use x="124.658203" xlink:href="#f"/>
<use x="152.441406" xlink:href="#i"/>
<use x="215.820312" xlink:href="#an"/>
</g>
</g>
<g clip-path="url(#a)">
<g transform="translate(683.52 765.48) scale(.1 -.1)">
<use xlink:href="#e"/>
<use x="61.279297" xlink:href="#p"/>
</g>
</g>
<g clip-path="url(#a)">
<g transform="translate(730.34 765.48) scale(.1 -.1)">
<use xlink:href="#e"/>
<use x="61.279297" xlink:href="#h"/>
<use x="89.0625" xlink:href="#h"/>
</g>
</g>
<g clip-path="url(#a)">
<g transform="translate(769.92 765.48) scale(.1 -.1)">
<use xlink:href="#p"/>
<use x="39.208984" xlink:href="#f"/>
<use x="66.992188" xlink:href="#j"/>
<use x="164.404297" xlink:href="#g"/>
<use x="225.927734" xlink:href="#u"/>
</g>
</g>
<g clip-path="url(#a)">
<g transform="translate(822.05 765.48) scale(.1 -.1)">
<use xlink:href="#e"/>
<use x="61.279297" xlink:href="#i"/>
<use x="124.658203" xlink:href="#s"/>
</g>
</g>
<g clip-path="url(#a)">
<defs>
<path id="ak" d="m32.172-5.0781q-3.7969-9.7656-7.4219-12.734-3.6094-2.9844-9.6562-2.9844h-7.1875v7.5156h5.2812q3.7031 0 5.75 1.7656 2.0625 1.75 4.5469 8.2969l1.6094 4.0938-22.109 53.812h9.5156l17.094-42.766 17.094 42.766h9.5156z"/>
</defs>
<g transform="translate(863.92 765.48) scale(.1 -.1)">
<use xlink:href="#u"/>
<use x="52.099609" xlink:href="#p"/>
<use x="91.308594" xlink:href="#ak"/>
<use x="150.488281" xlink:href="#h"/>
<use x="178.271484" xlink:href="#g"/>
<use x="239.794922" xlink:href="#s"/>
</g>
</g>
<g clip-path="url(#a)">
<g transform="translate(918.89 765.48) scale(.1 -.1)">
<use xlink:href="#j"/>
<use x="97.412109" xlink:href="#ak"/>
</g>
</g>
<g clip-path="url(#a)">
<g transform="translate(964.68 765.48) scale(.1 -.1)">
<use xlink:href="#w"/>
<use x="63.378906" xlink:href="#e"/>
<use x="124.658203" xlink:href="#f"/>
<use x="152.441406" xlink:href="#l"/>
</g>
</g>
<g clip-path="url(#a)">
<g transform="translate(1017.4 765.48) scale(.1 -.1)">
<use xlink:href="#f"/>
<use x="27.783203" xlink:href="#i"/>
</g>
</g>
<g clip-path="url(#a)">
<g transform="translate(1066.6 765.48) scale(.1 -.1)">
<use xlink:href="#e"/>
</g>
</g>
<g clip-path="url(#a)">
<g transform="translate(1107.2 765.48) scale(.1 -.1)">
<use xlink:href="#ac"/>
<use x="81.787109" xlink:href="#e"/>
<use x="143.066406" xlink:href="#ak"/>
</g>
</g>
<g clip-path="url(#a)">
<g transform="translate(1163.5 765.48) scale(.1 -.1)">
<use xlink:href="#f"/>
</g>
</g>
<g clip-path="url(#a)">
<defs>
<path id="ao" d="m48.781 52.594v-8.4062q-3.8125 2.1094-7.6406 3.1562t-7.7344 1.0469q-8.75 0-13.594-5.5469-4.8281-5.5312-4.8281-15.547t4.8281-15.562q4.8438-5.5312 13.594-5.5312 3.9062 0 7.7344 1.0469t7.6406 3.1562v-8.3125q-3.7656-1.75-7.7969-2.625-4.0156-0.89062-8.5625-0.89062-12.359 0-19.641 7.7656-7.2656 7.7656-7.2656 20.953 0 13.375 7.3438 21.031 7.3594 7.6719 20.156 7.6719 4.1406 0 8.0938-0.85938 3.9531-0.84375 7.6719-2.5469z"/>
</defs>
<g transform="translate(1199 765.48) scale(.1 -.1)">
<use xlink:href="#ao"/>
<use x="54.980469" xlink:href="#r"/>
<use x="116.162109" xlink:href="#ad"/>
<use x="179.541016" xlink:href="#h"/>
<use x="207.324219" xlink:href="#s"/>
</g>
</g>
<g clip-path="url(#a)">
<g transform="translate(1253.9 765.48) scale(.1 -.1)">
<use xlink:href="#s"/>
<use x="63.476562" xlink:href="#r"/>
</g>
</g>
<g clip-path="url(#a)">
<g transform="translate(1304.5 765.48) scale(.1 -.1)">
<use xlink:href="#f"/>
<use x="27.783203" xlink:href="#p"/>
</g>
</g>
<g clip-path="url(#a)">
<g transform="translate(1350.4 765.48) scale(.1 -.1)">
<use xlink:href="#e"/>
<use x="61.279297" xlink:href="#p"/>
</g>
</g>
<g clip-path="url(#a)">
<g transform="translate(1388.9 765.48) scale(.1 -.1)">
<use xlink:href="#w"/>
<use x="63.378906" xlink:href="#r"/>
<use x="124.560547" xlink:href="#j"/>
<use x="221.972656" xlink:href="#g"/>
</g>
</g>
<g clip-path="url(#a)">
<defs>
<path id="d" d="m10.688 12.406h10.312v-12.406h-10.312z"/>
</defs>
<g transform="translate(1449.1 765.48) scale(.1 -.1)">
<use xlink:href="#d"/>
</g>
</g>
<g clip-path="url(#a)">
<defs>
<path id="c" d="m12.406 8.2969h16.109v55.625l-17.531-3.5156v8.9844l17.438 3.5156h9.8594v-64.609h16.109v-8.2969h-41.984z"/>
</defs>
<g transform="translate(712.78 40.037) scale(.1 -.1)">
<use xlink:href="#c"/>
<use x="63.623047" xlink:href="#d"/>
<use x="95.410156" xlink:href="#c"/>
</g>
</g>
<g clip-path="url(#a)">
<defs>
<path id="n" d="m19.188 8.2969h34.422v-8.2969h-46.281v8.2969q5.6094 5.8125 15.297 15.594 9.7031 9.7969 12.188 12.641 4.7344 5.3125 6.6094 9 1.8906 3.6875 1.8906 7.25 0 5.8125-4.0781 9.4688-4.0781 3.6719-10.625 3.6719-4.6406 0-9.7969-1.6094-5.1406-1.6094-11-4.8906v9.9688q5.9531 2.3906 11.125 3.6094 5.1875 1.2188 9.4844 1.2188 11.328 0 18.062-5.6719 6.7344-5.6562 6.7344-15.125 0-4.5-1.6875-8.5312-1.6719-4.0156-6.125-9.4844-1.2188-1.4219-7.7656-8.1875-6.5312-6.7656-18.453-18.922z"/>
</defs>
<g transform="translate(61.335 648.25) scale(.1 -.1)">
<use xlink:href="#c"/>
<use x="63.623047" xlink:href="#d"/>
<use x="95.410156" xlink:href="#n"/>
</g>
</g>
<g clip-path="url(#a)">
<defs>
<path id="m" d="m40.578 39.312q7.0781-1.5156 11.047-6.3125 3.9844-4.7812 3.9844-11.812 0-10.781-7.4219-16.703-7.4219-5.9062-21.094-5.9062-4.5781 0-9.4375 0.90625t-10.031 2.7188v9.5156q4.0938-2.3906 8.9688-3.6094 4.8906-1.2188 10.219-1.2188 9.2656 0 14.125 3.6562t4.8594 10.641q0 6.4531-4.5156 10.078-4.5156 3.6406-12.562 3.6406h-8.5v8.1094h8.8906q7.2656 0 11.125 2.9062t3.8594 8.375q0 5.6094-3.9844 8.6094-3.9688 3.0156-11.391 3.0156-4.0625 0-8.7031-0.89062-4.6406-0.875-10.203-2.7188v8.7812q5.625 1.5625 10.531 2.3438t9.25 0.78125q11.234 0 17.766-5.1094 6.5469-5.0938 6.5469-13.781 0-6.0625-3.4688-10.234t-9.8594-5.7812z"/>
</defs>
<g transform="translate(238.58 167.1) scale(.1 -.1)">
<use xlink:href="#c"/>
<use x="63.623047" xlink:href="#d"/>
<use x="95.410156" xlink:href="#m"/>
</g>
</g>
<g clip-path="url(#a)">
<defs>
<path id="q" d="m37.797 64.312-24.906-38.922h24.906zm-2.5938 8.5938h12.406v-47.516h10.406v-8.2031h-10.406v-17.188h-9.8125v17.188h-32.906v9.5156z"/>
</defs>
<g transform="translate(823.5 648.25) scale(.1 -.1)">
<use xlink:href="#c"/>
<use x="63.623047" xlink:href="#d"/>
<use x="95.410156" xlink:href="#q"/>
</g>
</g>
<g clip-path="url(#a)">
<defs>
<path id="aa" d="m10.797 72.906h38.719v-8.3125h-29.688v-17.859q2.1406 0.73438 4.2812 1.0938 2.1562 0.35938 4.3125 0.35938 12.203 0 19.328-6.6875 7.1406-6.6875 7.1406-18.109 0-11.766-7.3281-18.297-7.3281-6.5156-20.656-6.5156-4.5938 0-9.3594 0.78125-4.75 0.78125-9.8281 2.3438v9.9219q4.3906-2.3906 9.0781-3.5625t9.9062-1.1719q8.4531 0 13.375 4.4375 4.9375 4.4375 4.9375 12.062 0 7.6094-4.9375 12.047-4.9219 4.4531-13.375 4.4531-3.9531 0-7.8906-0.875-3.9219-0.875-8.0156-2.7344z"/>
</defs>
<g transform="translate(906.86 412.16) scale(.1 -.1)">
<use xlink:href="#c"/>
<use x="63.623047" xlink:href="#d"/>
<use x="95.410156" xlink:href="#aa"/>
</g>
</g>
<g clip-path="url(#a)">
<defs>
<path id="z" d="m33.016 40.375q-6.6406 0-10.531-4.5469-3.875-4.5312-3.875-12.438 0-7.8594 3.875-12.438 3.8906-4.5625 10.531-4.5625t10.516 4.5625q3.875 4.5781 3.875 12.438 0 7.9062-3.875 12.438-3.875 4.5469-10.516 4.5469zm19.578 30.922v-8.9844q-3.7188 1.75-7.5 2.6719-3.7812 0.9375-7.5 0.9375-9.7656 0-14.922-6.5938-5.1406-6.5938-5.875-19.922 2.875 4.25 7.2188 6.5156 4.3594 2.2656 9.5781 2.2656 10.984 0 17.359-6.6719 6.375-6.6562 6.375-18.125 0-11.234-6.6406-18.031-6.6406-6.7812-17.672-6.7812-12.656 0-19.344 9.6875-6.6875 9.7031-6.6875 28.109 0 17.281 8.2031 27.562t22.016 10.281q3.7188 0 7.5-0.73438t7.8906-2.1875z"/>
</defs>
<g transform="translate(1014 648.25) scale(.1 -.1)">
<use xlink:href="#c"/>
<use x="63.623047" xlink:href="#d"/>
<use x="95.410156" xlink:href="#z"/>
</g>
</g>
<g clip-path="url(#a)">
<defs>
<path id="y" d="m8.2031 72.906h46.875v-4.2031l-26.469-68.703h-10.297l24.906 64.594h-35.016z"/>
</defs>
<g transform="translate(1232.4 412.16) scale(.1 -.1)">
<use xlink:href="#c"/>
<use x="63.623047" xlink:href="#d"/>
<use x="95.410156" xlink:href="#y"/>
</g>
</g>
<g clip-path="url(#a)">
<defs>
<path id="x" d="m10.984 1.5156v8.9844q3.7188-1.7656 7.5156-2.6875 3.8125-0.92188 7.4844-0.92188 9.7656 0 14.906 6.5625 5.1562 6.5625 5.8906 19.953-2.8281-4.2031-7.1875-6.4531-4.3438-2.25-9.6094-2.25-10.938 0-17.312 6.6094-6.375 6.625-6.375 18.109 0 11.219 6.6406 18 6.6406 6.7969 17.672 6.7969 12.656 0 19.312-9.7031 6.6719-9.6875 6.6719-28.141 0-17.234-8.1875-27.516-8.1719-10.281-21.984-10.281-3.7188 0-7.5312 0.73438-3.7969 0.73438-7.9062 2.2031zm19.625 30.906q6.6406 0 10.516 4.5312 3.8906 4.5469 3.8906 12.469 0 7.8594-3.8906 12.422-3.875 4.5625-10.516 4.5625t-10.516-4.5625-3.875-12.422q0-7.9219 3.875-12.469 3.875-4.5312 10.516-4.5312z"/>
</defs>
<g transform="translate(1085.5 531.02) scale(.1 -.1)">
<use xlink:href="#c"/>
<use x="63.623047" xlink:href="#d"/>
<use x="95.410156" xlink:href="#x"/>
</g>
</g>
<g clip-path="url(#a)">
<defs>
<path id="ab" d="m31.781 66.406q-7.6094 0-11.453-7.5-3.8281-7.4844-3.8281-22.531 0-14.984 3.8281-22.484 3.8438-7.5 11.453-7.5 7.6719 0 11.5 7.5 3.8438 7.5 3.8438 22.484 0 15.047-3.8438 22.531-3.8281 7.5-11.5 7.5zm0 7.8125q12.266 0 18.734-9.7031 6.4688-9.6875 6.4688-28.141 0-18.406-6.4688-28.109-6.4688-9.6875-18.734-9.6875-12.25 0-18.719 9.6875-6.4688 9.7031-6.4688 28.109 0 18.453 6.4688 28.141 6.4688 9.7031 18.719 9.7031z"/>
</defs>
<g transform="translate(1153.8 648.25) scale(.1 -.1)">
<use xlink:href="#c"/>
<use x="63.623047" xlink:href="#d"/>
<use x="95.410156" xlink:href="#c"/>
<use x="159.033203" xlink:href="#ab"/>
</g>
</g>
<g clip-path="url(#a)">
<g transform="translate(1201.4 648.25) scale(.1 -.1)">
<use xlink:href="#c"/>
<use x="63.623047" xlink:href="#d"/>
<use x="95.410156" xlink:href="#c"/>
<use x="159.033203" xlink:href="#c"/>
</g>
</g>
<g clip-path="url(#a)">
<g transform="translate(1249 648.25) scale(.1 -.1)">
<use xlink:href="#c"/>
<use x="63.623047" xlink:href="#d"/>
<use x="95.410156" xlink:href="#c"/>
<use x="159.033203" xlink:href="#n"/>
</g>
</g>
<g clip-path="url(#a)">
<g transform="translate(1296.7 648.25) scale(.1 -.1)">
<use xlink:href="#c"/>
<use x="63.623047" xlink:href="#d"/>
<use x="95.410156" xlink:href="#c"/>
<use x="159.033203" xlink:href="#m"/>
</g>
</g>
<g clip-path="url(#a)">
<g transform="translate(1391.9 531.02) scale(.1 -.1)">
<use xlink:href="#c"/>
<use x="63.623047" xlink:href="#d"/>
<use x="95.410156" xlink:href="#c"/>
<use x="159.033203" xlink:href="#q"/>
</g>
</g>
<g clip-path="url(#a)">
<g transform="translate(1344.3 648.25) scale(.1 -.1)">
<use xlink:href="#c"/>
<use x="63.623047" xlink:href="#d"/>
<use x="95.410156" xlink:href="#c"/>
<use x="159.033203" xlink:href="#aa"/>
</g>
</g>
<g clip-path="url(#a)">
<g transform="translate(1391.9 648.25) scale(.1 -.1)">
<use xlink:href="#c"/>
<use x="63.623047" xlink:href="#d"/>
<use x="95.410156" xlink:href="#c"/>
<use x="159.033203" xlink:href="#z"/>
</g>
</g>
<g clip-path="url(#a)">
<g transform="translate(1058.5 648.25) scale(.1 -.1)">
<use xlink:href="#c"/>
<use x="63.623047" xlink:href="#d"/>
<use x="95.410156" xlink:href="#c"/>
<use x="159.033203" xlink:href="#y"/>
</g>
</g>
<g clip-path="url(#a)">
<defs>
<path id="aj" d="m31.781 34.625q-7.0312 0-11.062-3.7656-4.0156-3.7656-4.0156-10.344 0-6.5938 4.0156-10.359 4.0312-3.7656 11.062-3.7656t11.078 3.7812q4.0625 3.7969 4.0625 10.344 0 6.5781-4.0312 10.344-4.0156 3.7656-11.109 3.7656zm-9.8594 4.1875q-6.3438 1.5625-9.8906 5.9062-3.5312 4.3594-3.5312 10.609 0 8.7344 6.2188 13.812 6.2344 5.0781 17.062 5.0781 10.891 0 17.094-5.0781t6.2031-13.812q0-6.25-3.5469-10.609-3.5312-4.3438-9.8281-5.9062 7.125-1.6562 11.094-6.5 3.9844-4.8281 3.9844-11.797 0-10.609-6.4688-16.281-6.4688-5.6562-18.531-5.6562-12.047 0-18.531 5.6562-6.4688 5.6719-6.4688 16.281 0 6.9688 4 11.797 4.0156 4.8438 11.141 6.5zm-3.6094 15.578q0-5.6562 3.5312-8.8281 3.5469-3.1719 9.9375-3.1719 6.3594 0 9.9375 3.1719 3.5938 3.1719 3.5938 8.8281 0 5.6719-3.5938 8.8438-3.5781 3.1719-9.9375 3.1719-6.3906 0-9.9375-3.1719-3.5312-3.1719-3.5312-8.8438z"/>
</defs>
<g transform="translate(1106.1 648.25) scale(.1 -.1)">
<use xlink:href="#c"/>
<use x="63.623047" xlink:href="#d"/>
<use x="95.410156" xlink:href="#c"/>
<use x="159.033203" xlink:href="#aj"/>
</g>
</g>
<g clip-path="url(#a)">
<g transform="translate(867.96 648.25) scale(.1 -.1)">
<use xlink:href="#c"/>
<use x="63.623047" xlink:href="#d"/>
<use x="95.410156" xlink:href="#c"/>
<use x="159.033203" xlink:href="#x"/>
</g>
</g>
<g clip-path="url(#a)">
<g transform="translate(939.41 531.02) scale(.1 -.1)">
<use xlink:href="#c"/>
<use x="63.623047" xlink:href="#d"/>
<use x="95.410156" xlink:href="#n"/>
<use x="159.033203" xlink:href="#ab"/>
</g>
</g>
<g clip-path="url(#a)">
<g transform="translate(915.59 648.25) scale(.1 -.1)">
<use xlink:href="#c"/>
<use x="63.623047" xlink:href="#d"/>
<use x="95.410156" xlink:href="#n"/>
<use x="159.033203" xlink:href="#c"/>
</g>
</g>
<g clip-path="url(#a)">
<g transform="translate(963.23 648.25) scale(.1 -.1)">
<use xlink:href="#c"/>
<use x="63.623047" xlink:href="#d"/>
<use x="95.410156" xlink:href="#n"/>
<use x="159.033203" xlink:href="#n"/>
</g>
</g>
<g clip-path="url(#a)">
<g transform="translate(105.79 648.25) scale(.1 -.1)">
<use xlink:href="#c"/>
<use x="63.623047" xlink:href="#d"/>
<use x="95.410156" xlink:href="#n"/>
<use x="159.033203" xlink:href="#m"/>
</g>
</g>
<g clip-path="url(#a)">
<g transform="translate(216.94 531.02) scale(.1 -.1)">
<use xlink:href="#c"/>
<use x="63.623047" xlink:href="#d"/>
<use x="95.410156" xlink:href="#n"/>
<use x="159.033203" xlink:href="#q"/>
</g>
</g>
<g clip-path="url(#a)">
<g transform="translate(248.7 648.25) scale(.1 -.1)">
<use xlink:href="#c"/>
<use x="63.623047" xlink:href="#d"/>
<use x="95.410156" xlink:href="#n"/>
<use x="159.033203" xlink:href="#aa"/>
</g>
</g>
<g clip-path="url(#a)">
<g transform="translate(370.17 291.01) scale(.1 -.1)">
<use xlink:href="#c"/>
<use x="63.623047" xlink:href="#d"/>
<use x="95.410156" xlink:href="#n"/>
<use x="159.033203" xlink:href="#z"/>
</g>
</g>
<g clip-path="url(#a)">
<g transform="translate(391.6 531.02) scale(.1 -.1)">
<use xlink:href="#c"/>
<use x="63.623047" xlink:href="#d"/>
<use x="95.410156" xlink:href="#n"/>
<use x="159.033203" xlink:href="#y"/>
</g>
</g>
<g clip-path="url(#a)">
<g transform="translate(391.6 648.25) scale(.1 -.1)">
<use xlink:href="#c"/>
<use x="63.623047" xlink:href="#d"/>
<use x="95.410156" xlink:href="#n"/>
<use x="159.033203" xlink:href="#aj"/>
</g>
</g>
<g clip-path="url(#a)">
<g transform="translate(591.67 412.16) scale(.1 -.1)">
<use xlink:href="#c"/>
<use x="63.623047" xlink:href="#d"/>
<use x="95.410156" xlink:href="#n"/>
<use x="159.033203" xlink:href="#x"/>
</g>
</g>
<g clip-path="url(#a)">
<g transform="translate(486.87 648.25) scale(.1 -.1)">
<use xlink:href="#c"/>
<use x="63.623047" xlink:href="#d"/>
<use x="95.410156" xlink:href="#m"/>
<use x="159.033203" xlink:href="#ab"/>
</g>
</g>
<g clip-path="url(#a)">
<g transform="translate(534.51 648.25) scale(.1 -.1)">
<use xlink:href="#c"/>
<use x="63.623047" xlink:href="#d"/>
<use x="95.410156" xlink:href="#m"/>
<use x="159.033203" xlink:href="#c"/>
</g>
</g>
<g clip-path="url(#a)">
<g transform="translate(582.14 648.25) scale(.1 -.1)">
<use xlink:href="#c"/>
<use x="63.623047" xlink:href="#d"/>
<use x="95.410156" xlink:href="#m"/>
<use x="159.033203" xlink:href="#n"/>
</g>
</g>
<g clip-path="url(#a)">
<g transform="translate(629.78 648.25) scale(.1 -.1)">
<use xlink:href="#c"/>
<use x="63.623047" xlink:href="#d"/>
<use x="95.410156" xlink:href="#m"/>
<use x="159.033203" xlink:href="#m"/>
</g>
</g>
<g clip-path="url(#a)">
<g transform="translate(725.05 531.02) scale(.1 -.1)">
<use xlink:href="#c"/>
<use x="63.623047" xlink:href="#d"/>
<use x="95.410156" xlink:href="#m"/>
<use x="159.033203" xlink:href="#q"/>
</g>
</g>
<g clip-path="url(#a)">
<g transform="translate(677.41 648.25) scale(.1 -.1)">
<use xlink:href="#c"/>
<use x="63.623047" xlink:href="#d"/>
<use x="95.410156" xlink:href="#m"/>
<use x="159.033203" xlink:href="#aa"/>
</g>
</g>
<g clip-path="url(#a)">
<g transform="translate(725.05 648.25) scale(.1 -.1)">
<use xlink:href="#c"/>
<use x="63.623047" xlink:href="#d"/>
<use x="95.410156" xlink:href="#m"/>
<use x="159.033203" xlink:href="#z"/>
</g>
</g>
<g clip-path="url(#a)">
<g transform="translate(772.68 648.25) scale(.1 -.1)">
<use xlink:href="#c"/>
<use x="63.623047" xlink:href="#d"/>
<use x="95.410156" xlink:href="#m"/>
<use x="159.033203" xlink:href="#y"/>
</g>
</g>
<g clip-path="url(#a)">
<g transform="translate(343.97 648.25) scale(.1 -.1)">
<use xlink:href="#c"/>
<use x="63.623047" xlink:href="#d"/>
<use x="95.410156" xlink:href="#m"/>
<use x="159.033203" xlink:href="#aj"/>
</g>
</g>
<g clip-path="url(#a)">
<g transform="translate(439.24 648.25) scale(.1 -.1)">
<use xlink:href="#c"/>
<use x="63.623047" xlink:href="#d"/>
<use x="95.410156" xlink:href="#m"/>
<use x="159.033203" xlink:href="#x"/>
</g>
</g>
<g clip-path="url(#a)">
<g transform="translate(153.42 648.25) scale(.1 -.1)">
<use xlink:href="#c"/>
<use x="63.623047" xlink:href="#d"/>
<use x="95.410156" xlink:href="#q"/>
<use x="159.033203" xlink:href="#ab"/>
</g>
</g>
<g clip-path="url(#a)">
<g transform="translate(201.06 648.25) scale(.1 -.1)">
<use xlink:href="#c"/>
<use x="63.623047" xlink:href="#d"/>
<use x="95.410156" xlink:href="#q"/>
<use x="159.033203" xlink:href="#c"/>
</g>
</g>
<g clip-path="url(#a)">
<g transform="translate(296.33 648.25) scale(.1 -.1)">
<use xlink:href="#c"/>
<use x="63.623047" xlink:href="#d"/>
<use x="95.410156" xlink:href="#q"/>
<use x="159.033203" xlink:href="#n"/>
</g>
</g>
<g clip-path="url(#a)">
<g transform="translate(1439.6 648.25) scale(.1 -.1)">
<use xlink:href="#c"/>
<use x="63.623047" xlink:href="#d"/>
<use x="95.410156" xlink:href="#q"/>
<use x="159.033203" xlink:href="#m"/>
</g>
</g>
<defs>
<clipPath id="a">
<rect width="1520" height="800"/>
</clipPath>
</defs>
</svg>
