<?xml version="1.0" encoding="UTF-8"?>
<!DOCTYPE svg  PUBLIC '-//W3C//DTD SVG 1.1//EN'  'http://www.w3.org/Graphics/SVG/1.1/DTD/svg11.dtd'>
<svg width="1976pt" height="1040pt" version="1.1" viewBox="0 0 1976 1040" xmlns="http://www.w3.org/2000/svg" xmlns:xlink="http://www.w3.org/1999/xlink">
<defs>
<style type="text/css">*{stroke-linecap:butt;stroke-linejoin:round;}</style>
</defs>
<path d="m0 1040h1976v-1040h-1976z" fill="#fff"/>
<g fill="none" stroke="#000">
<path d="m493.94 47.273-289.36 317.7" clip-path="url(#a)"/>
<path d="m493.94 47.273 7.0415 790.68" clip-path="url(#a)"/>
<path d="m493.94 47.273 282.32 159.01" clip-path="url(#a)"/>
<path d="m204.58 364.97-114.76 472.98" clip-path="url(#a)"/>
<path d="m204.58 364.97-108.17 472.98" clip-path="url(#a)"/>
<path d="m204.58 364.97-99.37 472.98" clip-path="url(#a)"/>
<path d="m204.58 364.97-35.974 158.29" clip-path="url(#a)"/>
<path d="m204.58 364.97 215.78 316.04" clip-path="url(#a)"/>
<path d="m204.58 364.97 142.49 472.98" clip-path="url(#a)"/>
<path d="m500.98 837.95v154.78" clip-path="url(#a)"/>
<path d="m776.26 206.28-231.3 631.67" clip-path="url(#a)"/>
<path d="m776.26 206.28-160.94 631.67" clip-path="url(#a)"/>
<path d="m776.26 206.28-86.186 631.67" clip-path="url(#a)"/>
<path d="m776.26 206.28 478.43 158.69" clip-path="url(#a)"/>
<path d="m544.96 837.95v154.78" clip-path="url(#a)"/>
<path d="m615.32 837.95-24.186 154.78" clip-path="url(#a)"/>
<path d="m615.32 837.95 24.186 154.78" clip-path="url(#a)"/>
<path d="m690.07 837.95v154.78" clip-path="url(#a)"/>
<path d="m1254.7 364.97-484.36 316.04" clip-path="url(#a)"/>
<path d="m1254.7 364.97-189.37 158.29" clip-path="url(#a)"/>
<path d="m1254.7 364.97 213.74 472.98" clip-path="url(#a)"/>
<path d="m1254.7 364.97 459.99 316.04" clip-path="url(#a)"/>
<path d="m770.33 681.02-27.484 156.93" clip-path="url(#a)"/>
<path d="m770.33 681.02 27.484 156.93" clip-path="url(#a)"/>
<path d="m1065.3 523.27-210.35 314.68" clip-path="url(#a)"/>
<path d="m1065.3 523.27-23.453 314.68" clip-path="url(#a)"/>
<path d="m1065.3 523.27 233.8 157.75" clip-path="url(#a)"/>
<path d="m1468.4 837.95v154.78" clip-path="url(#a)"/>
<path d="m1714.7 681.02-167.1 156.93" clip-path="url(#a)"/>
<path d="m1714.7 681.02-85.751 156.93" clip-path="url(#a)"/>
<path d="m1714.7 681.02-2.1987 156.93" clip-path="url(#a)"/>
<path d="m1714.7 681.02 83.552 156.93" clip-path="url(#a)"/>
<path d="m1714.7 681.02 171.5 156.93" clip-path="url(#a)"/>
<path d="m1547.6 837.95v154.78" clip-path="url(#a)"/>
<path d="m1628.9 837.95v154.78" clip-path="url(#a)"/>
<path d="m1712.5 837.95v154.78" clip-path="url(#a)"/>
<path d="m1798.2 837.95v154.78" clip-path="url(#a)"/>
<path d="m854.98 837.95v154.78" clip-path="url(#a)"/>
<path d="m1041.9 837.95-127.53 154.78" clip-path="url(#a)"/>
<path d="m1041.9 837.95-65.962 154.78" clip-path="url(#a)"/>
<path d="m1041.9 837.95-2.1987 154.78" clip-path="url(#a)"/>
<path d="m1041.9 837.95 63.763 154.78" clip-path="url(#a)"/>
<path d="m1041.9 837.95 131.92 154.78" clip-path="url(#a)"/>
<path d="m1299.1 681.02-54.968 156.93" clip-path="url(#a)"/>
<path d="m1299.1 681.02 54.968 156.93" clip-path="url(#a)"/>
<path d="m1244.2 837.95v154.78" clip-path="url(#a)"/>
<path d="m1354.1 837.95-37.378 154.78" clip-path="url(#a)"/>
<path d="m1354.1 837.95 37.378 154.78" clip-path="url(#a)"/>
<path d="m742.84 837.95v154.78" clip-path="url(#a)"/>
<path d="m797.81 837.95v154.78" clip-path="url(#a)"/>
<path d="m89.818 837.95v154.78" clip-path="url(#a)"/>
<path d="m96.414 837.95v154.78" clip-path="url(#a)"/>
<path d="m105.21 837.95v154.78" clip-path="url(#a)"/>
<path d="m168.61 523.27-45.807 157.75" clip-path="url(#a)"/>
<path d="m168.61 523.27-23.82 314.68" clip-path="url(#a)"/>
<path d="m168.61 523.27 75.856 157.75" clip-path="url(#a)"/>
<path d="m168.61 523.27-6.2297 314.68" clip-path="url(#a)"/>
<path d="m420.36 681.02-38.111 156.93" clip-path="url(#a)"/>
<path d="m420.36 681.02-0.73291 156.93" clip-path="url(#a)"/>
<path d="m420.36 681.02 38.844 156.93" clip-path="url(#a)"/>
<path d="m382.25 837.95v154.78" clip-path="url(#a)"/>
<path d="m419.63 837.95v154.78" clip-path="url(#a)"/>
<path d="m459.21 837.95v154.78" clip-path="url(#a)"/>
<path d="m122.8 681.02-6.5962 156.93" clip-path="url(#a)"/>
<path d="m122.8 681.02 6.5962 156.93" clip-path="url(#a)"/>
<path d="m144.79 837.95v154.78" clip-path="url(#a)"/>
<path d="m244.46 681.02-62.297 156.93" clip-path="url(#a)"/>
<path d="m244.46 681.02-16.124 156.93" clip-path="url(#a)"/>
<path d="m244.46 681.02 38.844 156.93" clip-path="url(#a)"/>
<path d="m244.46 681.02 69.626 156.93" clip-path="url(#a)"/>
<path d="m244.46 681.02-40.31 156.93" clip-path="url(#a)"/>
<path d="m244.46 681.02 10.261 156.93" clip-path="url(#a)"/>
<path d="m182.16 837.95v154.78" clip-path="url(#a)"/>
<path d="m228.34 837.95v154.78" clip-path="url(#a)"/>
<path d="m283.31 837.95v154.78" clip-path="url(#a)"/>
<path d="m314.09 837.95v154.78" clip-path="url(#a)"/>
<path d="m162.38 837.95v154.78" clip-path="url(#a)"/>
<path d="m204.15 837.95v154.78" clip-path="url(#a)"/>
<path d="m116.2 837.95v154.78" clip-path="url(#a)"/>
<path d="m129.4 837.95v154.78" clip-path="url(#a)"/>
<path d="m254.72 837.95v154.78" clip-path="url(#a)"/>
<path d="m347.07 837.95v154.78" clip-path="url(#a)"/>
<path d="m1886.2 837.95v154.78" clip-path="url(#a)"/>
</g>
<path d="m351.87 212.57 4.0511-4.4479q1.6161-1.7744-0.15829-3.3904l-5.7241-5.2135q-1.7744-1.6161-3.3904 0.15829l-4.0511 4.4479q-1.6161 1.7744 0.15829 3.3904l5.7241 5.2135q1.7744 1.6161 3.3904-0.15829z" clip-path="url(#a)" fill="#fff" stroke="#fff"/>
<g clip-path="url(#a)">
<defs>
<path id="ao" d="m9.8125 72.906h9.8594v-29.891h35.844v29.891h9.8594v-72.906h-9.8594v34.719h-35.844v-34.719h-9.8594z"/>
</defs>
<g transform="translate(348.87 209.83) rotate(-47.673) scale(.08 -.08)">
<use xlink:href="#ao"/>
</g>
</g>
<path d="m491.17 440.44 0.039695 4.4573q0.021373 2.3999 2.4213 2.3785l7.7422-0.06895q2.3999-0.021373 2.3785-2.4213l-0.039696-4.4573q-0.021373-2.3999-2.4213-2.3785l-7.7422 0.06895q-2.3999 0.021373-2.3785 2.4213z" clip-path="url(#a)" fill="#fff" stroke="#fff"/>
<g clip-path="url(#a)">
<defs>
<path id="av" d="m9.8125 72.906h9.8594v-64.609h35.5v-8.2969h-45.359z"/>
</defs>
<g transform="translate(495.23 440.4) rotate(89.49) scale(.08 -.08)">
<use xlink:href="#av"/>
</g>
</g>
<path d="m629.4 130.77 5.242 2.9525q2.0911 1.1778 3.2689-0.91333l3.7996-6.7461q1.1778-2.0911-0.91334-3.2689l-5.242-2.9525q-2.0911-1.1778-3.2689 0.91334l-3.7996 6.7461q-1.1778 2.0911 0.91333 3.2689z" clip-path="url(#a)" fill="#fff" stroke="#fff"/>
<g clip-path="url(#a)">
<g transform="translate(631.39 127.23) rotate(29.39) scale(.08 -.08)">
<use xlink:href="#ao"/>
</g>
</g>
<path d="m152.65 605.6 1.2904-5.3182q0.56591-2.3323-1.7664-2.8982l-7.5242-1.8257q-2.3323-0.56591-2.8982 1.7664l-1.2904 5.3182q-0.56591 2.3323 1.7664 2.8982l7.5242 1.8256q2.3323 0.56591 2.8982-1.7664z" clip-path="url(#a)" fill="#fff" stroke="#fff"/>
<g clip-path="url(#a)">
<defs>
<path id="v" d="m34.188 63.188-13.391-36.281h26.812zm-5.5781 9.7188h11.188l27.781-72.906h-10.25l-6.6406 18.703h-32.859l-6.6406-18.703h-10.406z"/>
</defs>
<g transform="translate(148.7 604.64) rotate(-76.361) scale(.08 -.08)">
<use xlink:href="#v"/>
</g>
</g>
<path d="m156.1 605.1 1.0258-4.4855q0.53505-2.3396-1.8046-2.8746l-7.5476-1.7261q-2.3396-0.53505-2.8746 1.8046l-1.0258 4.4854q-0.53505 2.3396 1.8046 2.8746l7.5476 1.7261q2.3396 0.53505 2.8746-1.8046z" clip-path="url(#a)" fill="#fff" stroke="#fff"/>
<g clip-path="url(#a)">
<defs>
<path id="ad" d="m9.8125 72.906h41.891v-8.3125h-32.031v-21.484h28.906v-8.2969h-28.906v-34.812h-9.8594z"/>
</defs>
<g transform="translate(152.14 604.2) rotate(-77.118) scale(.08 -.08)">
<use xlink:href="#ad"/>
</g>
</g>
<path d="m160.54 605.11 0.9918-4.7207q0.49346-2.3487-1.8553-2.8422l-7.5771-1.5919q-2.3487-0.49346-2.8422 1.8553l-0.9918 4.7207q-0.49346 2.3487 1.8553 2.8422l7.5771 1.5919q2.3487 0.49346 2.8422-1.8553z" clip-path="url(#a)" fill="#fff" stroke="#fff"/>
<g clip-path="url(#a)">
<defs>
<path id="ah" d="m19.672 64.797v-27.391h12.406q6.8906 0 10.641 3.5625 3.7656 3.5625 3.7656 10.156 0 6.5469-3.7656 10.109-3.75 3.5625-10.641 3.5625zm-9.8594 8.1094h22.266q12.266 0 18.531-5.5469 6.2812-5.5469 6.2812-16.234 0-10.797-6.2812-16.312-6.2656-5.5156-18.531-5.5156h-12.406v-29.297h-9.8594z"/>
</defs>
<g transform="translate(156.56 604.28) rotate(-78.135) scale(.08 -.08)">
<use xlink:href="#ah"/>
</g>
</g>
<path d="m192.1 448.18 1.2128-5.3364q0.53187-2.3403-1.8085-2.8722l-7.55-1.7158q-2.3403-0.53187-2.8722 1.8085l-1.2128 5.3364q-0.53187 2.3403 1.8085 2.8722l7.55 1.7158q2.3403 0.53187 2.8722-1.8085z" clip-path="url(#a)" fill="#fff" stroke="#fff"/>
<g clip-path="url(#a)">
<g transform="translate(188.14 447.28) rotate(-77.196) scale(.08 -.08)">
<use xlink:href="#v"/>
</g>
</g>
<path d="m305.55 523.99 3.4734 5.0873q1.3533 1.9821 3.3354 0.6288l6.3943-4.3657q1.9821-1.3533 0.6288-3.3354l-3.4734-5.0873q-1.3533-1.9821-3.3354-0.6288l-6.3943 4.3657q-1.9821 1.3533-0.6288 3.3354z" clip-path="url(#a)" fill="#fff" stroke="#fff"/>
<g clip-path="url(#a)">
<defs>
<path id="ai" d="m19.672 64.797v-56.688h11.922q15.094 0 22.094 6.8281 7 6.8438 7 21.594 0 14.641-7 21.453t-22.094 6.8125zm-9.8594 8.1094h20.266q21.188 0 31.094-8.8125 9.9219-8.8125 9.9219-27.562 0-18.859-9.9688-27.703-9.9531-8.8281-31.047-8.8281h-20.266z"/>
</defs>
<g transform="translate(308.91 521.7) rotate(55.676) scale(.08 -.08)">
<use xlink:href="#ai"/>
</g>
</g>
<path d="m268.98 600.47 1.6889 5.6061q0.6923 2.298 2.9903 1.6057l7.4134-2.2334q2.298-0.6923 1.6057-2.9903l-1.6889-5.6061q-0.6923-2.298-2.9903-1.6057l-7.4134 2.2334q-2.298 0.6923-1.6057 2.9903z" clip-path="url(#a)" fill="#fff" stroke="#fff"/>
<g clip-path="url(#a)">
<defs>
<path id="x" d="m8.6875 72.906h9.9219v-44.297q0-11.719 4.2344-16.875 4.25-5.1406 13.781-5.1406 9.4688 0 13.719 5.1406 4.25 5.1562 4.25 16.875v44.297h9.9062v-45.516q0-14.25-7.0625-21.531-7.0469-7.2812-20.812-7.2812-13.828 0-20.891 7.2812-7.0469 7.2812-7.0469 21.531z"/>
</defs>
<g transform="translate(272.87 599.3) rotate(73.234) scale(.08 -.08)">
<use xlink:href="#x"/>
</g>
</g>
<path d="m494.71 898.43v33.808q0 2.4 2.4 2.4h7.7425q2.4 0 2.4-2.4v-33.808q0-2.4-2.4-2.4h-7.7425q-2.4 0-2.4 2.4z" clip-path="url(#a)" fill="#fff" stroke="#fff"/>
<g clip-path="url(#a)">
<defs>
<path id="l" d="m-0.29688 72.906h61.672v-8.3125h-25.875v-64.594h-9.9062v64.594h-25.891z"/>
<path id="d" d="m56.203 29.594v-4.3906h-41.312q0.59375-9.2812 5.5938-14.141t13.938-4.8594q5.1719 0 10.031 1.2656t9.6562 3.8125v-8.5q-4.8438-2.0469-9.9219-3.125t-10.297-1.0781q-13.094 0-20.734 7.6094-7.6406 7.625-7.6406 20.625 0 13.422 7.25 21.297 7.25 7.8906 19.562 7.8906 11.031 0 17.453-7.1094 6.4219-7.0938 6.4219-19.297zm-8.9844 2.6406q-0.09375 7.3594-4.125 11.75-4.0312 4.4062-10.672 4.4062-7.5156 0-12.031-4.25t-5.2031-11.969z"/>
<path id="f" d="m41.109 46.297q-1.5156 0.875-3.2969 1.2812-1.7812 0.42188-3.9219 0.42188-7.625 0-11.703-4.9531t-4.0781-14.234v-28.812h-9.0312v54.688h9.0312v-8.5q2.8438 4.9844 7.375 7.3906 4.5469 2.4219 11.047 2.4219 0.92188 0 2.0469-0.125 1.125-0.10938 2.4844-0.35938z"/>
<path id="k" d="m52 44.188q3.375 6.0625 8.0625 8.9375t11.031 2.875q8.5469 0 13.188-5.9844 4.6406-5.9688 4.6406-17v-33.016h-9.0312v32.719q0 7.8594-2.7969 11.656-2.7812 3.8125-8.4844 3.8125-6.9844 0-11.047-4.6406-4.0469-4.625-4.0469-12.641v-30.906h-9.0312v32.719q0 7.9062-2.7812 11.688t-8.5938 3.7812q-6.8906 0-10.953-4.6562-4.0469-4.6562-4.0469-12.625v-30.906h-9.0312v54.688h9.0312v-8.5q3.0781 5.0312 7.375 7.4219t10.203 2.3906q5.9688 0 10.141-3.0312 4.1719-3.0156 6.1719-8.7812z"/>
<path id="h" d="m9.4219 54.688h8.9844v-54.688h-8.9844zm0 21.297h8.9844v-11.391h-8.9844z"/>
<path id="g" d="m54.891 33.016v-33.016h-8.9844v32.719q0 7.7656-3.0312 11.609-3.0312 3.8594-9.0781 3.8594-7.2812 0-11.484-4.6406-4.2031-4.625-4.2031-12.641v-30.906h-9.0312v54.688h9.0312v-8.5q3.2344 4.9375 7.5938 7.375 4.375 2.4375 10.094 2.4375 9.4219 0 14.25-5.8281 4.8438-5.8281 4.8438-17.156z"/>
<path id="e" d="m34.281 27.484q-10.891 0-15.094-2.4844t-4.2031-8.5q0-4.7812 3.1562-7.5938 3.1562-2.7969 8.5625-2.7969 7.4844 0 12 5.2969t4.5156 14.078v2zm17.922 3.7188v-31.203h-8.9844v8.2969q-3.0781-4.9688-7.6719-7.3438t-11.234-2.375q-8.3906 0-13.359 4.7188-4.9531 4.7188-4.9531 12.625 0 9.2188 6.1719 13.906 6.1875 4.6875 18.438 4.6875h12.609v0.89062q0 6.2031-4.0781 9.5938t-11.453 3.3906q-4.6875 0-9.1406-1.125-4.4375-1.125-8.5312-3.375v8.3125q4.9219 1.9062 9.5625 2.8438 4.6406 0.95312 9.0312 0.95312 11.875 0 17.734-6.1562 5.8594-6.1406 5.8594-18.641z"/>
<path id="j" d="m9.4219 75.984h8.9844v-75.984h-8.9844z"/>
</defs>
<g transform="translate(498.77 898.43) rotate(90) scale(.08 -.08)">
<use xlink:href="#l"/>
<use x="44.083984" xlink:href="#d"/>
<use x="105.607422" xlink:href="#f"/>
<use x="144.970703" xlink:href="#k"/>
<use x="242.382812" xlink:href="#h"/>
<use x="270.166016" xlink:href="#g"/>
<use x="333.544922" xlink:href="#e"/>
<use x="394.824219" xlink:href="#j"/>
</g>
</g>
<path d="m665.55 526.84 1.8817-5.1388q0.82524-2.2537-1.4284-3.0789l-7.2704-2.6623q-2.2537-0.82524-3.0789 1.4284l-1.8817 5.1388q-0.82524 2.2537 1.4284 3.0789l7.2704 2.6623q2.2537 0.82524 3.0789-1.4284z" clip-path="url(#a)" fill="#fff" stroke="#fff"/>
<g clip-path="url(#a)">
<g transform="translate(661.74 525.45) rotate(-69.888) scale(.08 -.08)">
<use xlink:href="#v"/>
</g>
</g>
<path d="m701.1 526.65 1.5209-5.9693q0.59256-2.3257-1.7331-2.9183l-7.5028-1.9116q-2.3257-0.59257-2.9183 1.7331l-1.5209 5.9693q-0.59257 2.3257 1.7331 2.9183l7.5028 1.9116q2.3257 0.59257 2.9183-1.7331z" clip-path="url(#a)" fill="#fff" stroke="#fff"/>
<g clip-path="url(#a)">
<g transform="translate(697.16 525.65) rotate(-75.706) scale(.08 -.08)">
<use xlink:href="#ai"/>
</g>
</g>
<path d="m739.05 525.35 0.65212-4.7795q0.32445-2.378-2.0535-2.7024l-7.6714-1.0467q-2.378-0.32445-2.7024 2.0535l-0.65212 4.7795q-0.32445 2.378 2.0535 2.7024l7.6714 1.0467q2.378 0.32445 2.7024-2.0535z" clip-path="url(#a)" fill="#fff" stroke="#fff"/>
<g clip-path="url(#a)">
<g transform="translate(735.03 524.8) rotate(-82.23) scale(.08 -.08)">
<use xlink:href="#ah"/>
</g>
</g>
<path d="m1010.9 290.72 5.1942 1.7229q2.278 0.75558 3.0335-1.5224l2.4375-7.3488q0.75558-2.278-1.5224-3.0335l-5.1942-1.7229q-2.278-0.75558-3.0335 1.5224l-2.4375 7.3488q-0.75558 2.278 1.5224 3.0335z" clip-path="url(#a)" fill="#fff" stroke="#fff"/>
<g clip-path="url(#a)">
<g transform="translate(1012.2 286.86) rotate(18.35) scale(.08 -.08)">
<use xlink:href="#v"/>
</g>
</g>
<path d="m538.68 898.43v33.808q0 2.4 2.4 2.4h7.7425q2.4 0 2.4-2.4v-33.808q0-2.4-2.4-2.4h-7.7425q-2.4 0-2.4 2.4z" clip-path="url(#a)" fill="#fff" stroke="#fff"/>
<g clip-path="url(#a)">
<g transform="translate(542.75 898.43) rotate(90) scale(.08 -.08)">
<use xlink:href="#l"/>
<use x="44.083984" xlink:href="#d"/>
<use x="105.607422" xlink:href="#f"/>
<use x="144.970703" xlink:href="#k"/>
<use x="242.382812" xlink:href="#h"/>
<use x="270.166016" xlink:href="#g"/>
<use x="333.544922" xlink:href="#e"/>
<use x="394.824219" xlink:href="#j"/>
</g>
</g>
<path d="m606.81 933.01 5.2195-33.402q0.37054-2.3712-2.0007-2.7418l-7.6497-1.1954q-2.3712-0.37054-2.7418 2.0007l-5.2195 33.402q-0.37054 2.3712 2.0007 2.7418l7.6497 1.1954q2.3712 0.37054 2.7418-2.0007z" clip-path="url(#a)" fill="#fff" stroke="#fff"/>
<g clip-path="url(#a)">
<g transform="translate(602.79 932.38) rotate(-81.119) scale(.08 -.08)">
<use xlink:href="#l"/>
<use x="44.083984" xlink:href="#d"/>
<use x="105.607422" xlink:href="#f"/>
<use x="144.970703" xlink:href="#k"/>
<use x="242.382812" xlink:href="#h"/>
<use x="270.166016" xlink:href="#g"/>
<use x="333.544922" xlink:href="#e"/>
<use x="394.824219" xlink:href="#j"/>
</g>
</g>
<path d="m618.6 899.61 5.2195 33.402q0.37054 2.3712 2.7418 2.0007l7.6497-1.1954q2.3712-0.37054 2.0007-2.7418l-5.2195-33.402q-0.37054-2.3712-2.7418-2.0007l-7.6497 1.1954q-2.3712 0.37054-2.0007 2.7418z" clip-path="url(#a)" fill="#fff" stroke="#fff"/>
<g clip-path="url(#a)">
<g transform="translate(622.62 898.98) rotate(81.119) scale(.08 -.08)">
<use xlink:href="#l"/>
<use x="44.083984" xlink:href="#d"/>
<use x="105.607422" xlink:href="#f"/>
<use x="144.970703" xlink:href="#k"/>
<use x="242.382812" xlink:href="#h"/>
<use x="270.166016" xlink:href="#g"/>
<use x="333.544922" xlink:href="#e"/>
<use x="394.824219" xlink:href="#j"/>
</g>
</g>
<path d="m683.8 898.43v33.808q0 2.4 2.4 2.4h7.7425q2.4 0 2.4-2.4v-33.808q0-2.4-2.4-2.4h-7.7425q-2.4 0-2.4 2.4z" clip-path="url(#a)" fill="#fff" stroke="#fff"/>
<g clip-path="url(#a)">
<g transform="translate(687.86 898.43) rotate(90) scale(.08 -.08)">
<use xlink:href="#l"/>
<use x="44.083984" xlink:href="#d"/>
<use x="105.607422" xlink:href="#f"/>
<use x="144.970703" xlink:href="#k"/>
<use x="242.382812" xlink:href="#h"/>
<use x="270.166016" xlink:href="#g"/>
<use x="333.544922" xlink:href="#e"/>
<use x="394.824219" xlink:href="#j"/>
</g>
</g>
<path d="m1013.9 529.57 4.0398-2.636q2.01-1.3115 0.69847-3.3215l-4.2309-6.4842q-1.3115-2.01-3.3215-0.69847l-4.0398 2.636q-2.01 1.3115-0.69847 3.3215l4.2309 6.4842q1.3115 2.01 3.3215 0.69847z" clip-path="url(#a)" fill="#fff" stroke="#fff"/>
<g clip-path="url(#a)">
<g transform="translate(1011.7 526.16) rotate(-33.124) scale(.08 -.08)">
<use xlink:href="#ah"/>
</g>
</g>
<path d="m1161.9 450.69 4.1988-3.5098q1.8414-1.5392 0.30218-3.3806l-4.9656-5.9405q-1.5392-1.8414-3.3806-0.30218l-4.1988 3.5098q-1.8414 1.5392-0.30218 3.3806l4.9656 5.9405q1.5392 1.8414 3.3806 0.30218z" clip-path="url(#a)" fill="#fff" stroke="#fff"/>
<g clip-path="url(#a)">
<g transform="translate(1159.3 447.57) rotate(-39.892) scale(.08 -.08)">
<use xlink:href="#v"/>
</g>
</g>
<path d="m1354.9 601.95 1.8948 4.193q0.98832 2.1871 3.1754 1.1987l7.0555-3.1884q2.1871-0.98832 1.1987-3.1754l-1.8948-4.193q-0.98832-2.1871-3.1754-1.1987l-7.0555 3.1884q-2.1871 0.98832-1.1987 3.1754z" clip-path="url(#a)" fill="#fff" stroke="#fff"/>
<g clip-path="url(#a)">
<g transform="translate(1358.6 600.27) rotate(65.682) scale(.08 -.08)">
<use xlink:href="#ad"/>
</g>
</g>
<path d="m1478.6 526.42 5.0771 3.4883q1.9781 1.3591 3.3372-0.61902l4.3845-6.3814q1.3591-1.9781-0.61902-3.3372l-5.0771-3.4883q-1.9781-1.3591-3.3372 0.61902l-4.3845 6.3814q-1.3591 1.9781 0.61902 3.3372z" clip-path="url(#a)" fill="#fff" stroke="#fff"/>
<g clip-path="url(#a)">
<g transform="translate(1480.9 523.07) rotate(34.492) scale(.08 -.08)">
<use xlink:href="#ai"/>
</g>
</g>
<path d="m762.36 762.83 0.79376-4.5323q0.41402-2.364-1.95-2.778l-7.6264-1.3357q-2.364-0.41402-2.778 1.95l-0.79376 4.5323q-0.41402 2.364 1.95 2.778l7.6264 1.3357q2.364 0.41402 2.778-1.95z" clip-path="url(#a)" fill="#fff" stroke="#fff"/>
<g clip-path="url(#a)">
<g transform="translate(758.36 762.13) rotate(-80.066) scale(.08 -.08)">
<use xlink:href="#ad"/>
</g>
</g>
<path d="m777.41 757.82 0.96368 5.5025q0.41402 2.364 2.778 1.95l7.6264-1.3357q2.364-0.41402 1.95-2.778l-0.96368-5.5025q-0.41402-2.364-2.778-1.95l-7.6264 1.3357q-2.364 0.41402-1.95 2.778z" clip-path="url(#a)" fill="#fff" stroke="#fff"/>
<g clip-path="url(#a)">
<defs>
<path id="p" d="m64.406 67.281v-10.391q-4.9844 4.6406-10.625 6.9219-5.6406 2.2969-11.984 2.2969-12.5 0-19.141-7.6406t-6.6406-22.094q0-14.406 6.6406-22.047t19.141-7.6406q6.3438 0 11.984 2.2969t10.625 6.9375v-10.312q-5.1719-3.5156-10.969-5.2812-5.7812-1.75-12.219-1.75-16.562 0-26.094 10.125-9.5156 10.141-9.5156 27.672 0 17.578 9.5156 27.703 9.5312 10.141 26.094 10.141 6.5312 0 12.312-1.7344 5.7969-1.7344 10.875-5.2031z"/>
</defs>
<g transform="translate(781.41 757.11) rotate(80.066) scale(.08 -.08)">
<use xlink:href="#p"/>
</g>
</g>
<path d="m963.82 686.4 3.0891-4.6214q1.3337-1.9953-0.66157-3.329l-6.4369-4.3026q-1.9953-1.3337-3.329 0.66157l-3.0891 4.6214q-1.3337 1.9953 0.66157 3.329l6.4369 4.3026q1.9953 1.3337 3.329-0.66157z" clip-path="url(#a)" fill="#fff" stroke="#fff"/>
<g clip-path="url(#a)">
<defs>
<path id="ac" d="m44.391 34.188q3.1719-1.0781 6.1719-4.5938t6.0312-9.6719l10.016-19.922h-10.609l-9.3125 18.703q-3.625 7.3281-7.0156 9.7188t-9.25 2.3906h-10.75v-30.812h-9.8594v72.906h22.266q12.5 0 18.656-5.2344 6.1562-5.2188 6.1562-15.766 0-6.8906-3.2031-11.438-3.2031-4.5312-9.2969-6.2812zm-24.719 30.609v-25.875h12.406q7.125 0 10.766 3.2969t3.6406 9.6875-3.6406 9.6406-10.766 3.25z"/>
</defs>
<g transform="translate(960.44 684.14) rotate(-56.24) scale(.08 -.08)">
<use xlink:href="#ac"/>
</g>
</g>
<path d="m1059.6 683.86 0.41519-5.5708q0.17838-2.3934-2.215-2.5717l-7.7211-0.57545q-2.3934-0.17838-2.5717 2.215l-0.41519 5.5708q-0.17838 2.3934 2.215 2.5717l7.7211 0.57545q2.3934 0.17838 2.5717-2.215z" clip-path="url(#a)" fill="#fff" stroke="#fff"/>
<g clip-path="url(#a)">
<g transform="translate(1055.6 683.56) rotate(-85.738) scale(.08 -.08)">
<use xlink:href="#p"/>
</g>
</g>
<path d="m1176.6 605.93 4.1903 2.8274q1.9895 1.3424 3.3319-0.64709l4.3306-6.4181q1.3424-1.9895-0.64709-3.3319l-4.1903-2.8274q-1.9895-1.3424-3.3319 0.64709l-4.3306 6.4181q-1.3424 1.9895 0.64709 3.3319z" clip-path="url(#a)" fill="#fff" stroke="#fff"/>
<g clip-path="url(#a)">
<defs>
<path id="u" d="m9.8125 72.906h46.094v-8.3125h-36.234v-21.578h34.719v-8.2969h-34.719v-26.422h37.109v-8.2969h-46.969z"/>
</defs>
<g transform="translate(1178.9 602.56) rotate(34.009) scale(.08 -.08)">
<use xlink:href="#u"/>
</g>
</g>
<path d="m1462.2 898.43v33.808q0 2.4 2.4 2.4h7.7425q2.4 0 2.4-2.4v-33.808q0-2.4-2.4-2.4h-7.7425q-2.4 0-2.4 2.4z" clip-path="url(#a)" fill="#fff" stroke="#fff"/>
<g clip-path="url(#a)">
<g transform="translate(1466.2 898.43) rotate(90) scale(.08 -.08)">
<use xlink:href="#l"/>
<use x="44.083984" xlink:href="#d"/>
<use x="105.607422" xlink:href="#f"/>
<use x="144.970703" xlink:href="#k"/>
<use x="242.382812" xlink:href="#h"/>
<use x="270.166016" xlink:href="#g"/>
<use x="333.544922" xlink:href="#e"/>
<use x="394.824219" xlink:href="#j"/>
</g>
</g>
<path d="m1633.6 765.79 3.6848-3.4605q1.7495-1.643 0.1065-3.3924l-5.3003-5.6439q-1.643-1.7495-3.3924-0.1065l-3.6848 3.4605q-1.7495 1.643-0.1065 3.3924l5.3003 5.6439q1.643 1.7495 3.3924 0.1065z" clip-path="url(#a)" fill="#fff" stroke="#fff"/>
<g clip-path="url(#a)">
<g transform="translate(1630.8 762.82) rotate(-43.202) scale(.08 -.08)">
<use xlink:href="#u"/>
</g>
</g>
<path d="m1676 764.93 2.6655-4.878q1.1508-2.1061-0.95527-3.2569l-6.7943-3.7126q-2.1061-1.1508-3.2569 0.95527l-2.6655 4.878q-1.1508 2.1061 0.95527 3.2569l6.7943 3.7126q2.1061 1.1508 3.2569-0.95527z" clip-path="url(#a)" fill="#fff" stroke="#fff"/>
<g clip-path="url(#a)">
<g transform="translate(1672.4 762.98) rotate(-61.347) scale(.08 -.08)">
<use xlink:href="#ac"/>
</g>
</g>
<path d="m1719.8 761.87 0.064461-4.6008q0.033623-2.3998-2.3661-2.4334l-7.7417-0.10847q-2.3998-0.033623-2.4334 2.3661l-0.064461 4.6008q-0.033622 2.3998 2.3661 2.4334l7.7417 0.10847q2.3998 0.033622 2.4334-2.3661z" clip-path="url(#a)" fill="#fff" stroke="#fff"/>
<g clip-path="url(#a)">
<g transform="translate(1715.8 761.82) rotate(-89.197) scale(.08 -.08)">
<use xlink:href="#ad"/>
</g>
</g>
<path d="m1749.6 759.97 2.6253 4.9309q1.1279 2.1185 3.2463 0.99056l6.8342-3.6386q2.1185-1.1279 0.99056-3.2463l-2.6253-4.9309q-1.1279-2.1185-3.2463-0.99056l-6.8342 3.6386q-2.1185 1.1279-0.99056 3.2464z" clip-path="url(#a)" fill="#fff" stroke="#fff"/>
<g clip-path="url(#a)">
<g transform="translate(1753.2 758.06) rotate(61.969) scale(.08 -.08)">
<use xlink:href="#p"/>
</g>
</g>
<path d="m1794 762.13 4.3195 3.9526q1.7706 1.6202 3.3908-0.15043l5.2268-5.712q1.6202-1.7706-0.15043-3.3908l-4.3195-3.9526q-1.7706-1.6202-3.3908 0.15043l-5.2268 5.712q-1.6202 1.7706 0.15043 3.3908z" clip-path="url(#a)" fill="#fff" stroke="#fff"/>
<g clip-path="url(#a)">
<g transform="translate(1796.8 759.14) rotate(42.46) scale(.08 -.08)">
<use xlink:href="#x"/>
</g>
</g>
<path d="m1541.3 898.43v33.808q0 2.4 2.4 2.4h7.7425q2.4 0 2.4-2.4v-33.808q0-2.4-2.4-2.4h-7.7425q-2.4 0-2.4 2.4z" clip-path="url(#a)" fill="#fff" stroke="#fff"/>
<g clip-path="url(#a)">
<g transform="translate(1545.4 898.43) rotate(90) scale(.08 -.08)">
<use xlink:href="#l"/>
<use x="44.083984" xlink:href="#d"/>
<use x="105.607422" xlink:href="#f"/>
<use x="144.970703" xlink:href="#k"/>
<use x="242.382812" xlink:href="#h"/>
<use x="270.166016" xlink:href="#g"/>
<use x="333.544922" xlink:href="#e"/>
<use x="394.824219" xlink:href="#j"/>
</g>
</g>
<path d="m1622.7 898.43v33.808q0 2.4 2.4 2.4h7.7425q2.4 0 2.4-2.4v-33.808q0-2.4-2.4-2.4h-7.7425q-2.4 0-2.4 2.4z" clip-path="url(#a)" fill="#fff" stroke="#fff"/>
<g clip-path="url(#a)">
<g transform="translate(1626.7 898.43) rotate(90) scale(.08 -.08)">
<use xlink:href="#l"/>
<use x="44.083984" xlink:href="#d"/>
<use x="105.607422" xlink:href="#f"/>
<use x="144.970703" xlink:href="#k"/>
<use x="242.382812" xlink:href="#h"/>
<use x="270.166016" xlink:href="#g"/>
<use x="333.544922" xlink:href="#e"/>
<use x="394.824219" xlink:href="#j"/>
</g>
</g>
<path d="m1706.2 898.43v33.808q0 2.4 2.4 2.4h7.7425q2.4 0 2.4-2.4v-33.808q0-2.4-2.4-2.4h-7.7425q-2.4 0-2.4 2.4z" clip-path="url(#a)" fill="#fff" stroke="#fff"/>
<g clip-path="url(#a)">
<g transform="translate(1710.3 898.43) rotate(90) scale(.08 -.08)">
<use xlink:href="#l"/>
<use x="44.083984" xlink:href="#d"/>
<use x="105.607422" xlink:href="#f"/>
<use x="144.970703" xlink:href="#k"/>
<use x="242.382812" xlink:href="#h"/>
<use x="270.166016" xlink:href="#g"/>
<use x="333.544922" xlink:href="#e"/>
<use x="394.824219" xlink:href="#j"/>
</g>
</g>
<path d="m1792 898.43v33.808q0 2.4 2.4 2.4h7.7425q2.4 0 2.4-2.4v-33.808q0-2.4-2.4-2.4h-7.7425q-2.4 0-2.4 2.4z" clip-path="url(#a)" fill="#fff" stroke="#fff"/>
<g clip-path="url(#a)">
<g transform="translate(1796 898.43) rotate(90) scale(.08 -.08)">
<use xlink:href="#l"/>
<use x="44.083984" xlink:href="#d"/>
<use x="105.607422" xlink:href="#f"/>
<use x="144.970703" xlink:href="#k"/>
<use x="242.382812" xlink:href="#h"/>
<use x="270.166016" xlink:href="#g"/>
<use x="333.544922" xlink:href="#e"/>
<use x="394.824219" xlink:href="#j"/>
</g>
</g>
<path d="m848.71 898.43v33.808q0 2.4 2.4 2.4h7.7425q2.4 0 2.4-2.4v-33.808q0-2.4-2.4-2.4h-7.7425q-2.4 0-2.4 2.4z" clip-path="url(#a)" fill="#fff" stroke="#fff"/>
<g clip-path="url(#a)">
<g transform="translate(852.77 898.43) rotate(90) scale(.08 -.08)">
<use xlink:href="#l"/>
<use x="44.083984" xlink:href="#d"/>
<use x="105.607422" xlink:href="#f"/>
<use x="144.970703" xlink:href="#k"/>
<use x="242.382812" xlink:href="#h"/>
<use x="270.166016" xlink:href="#g"/>
<use x="333.544922" xlink:href="#e"/>
<use x="394.824219" xlink:href="#j"/>
</g>
</g>
<path d="m972.2 932.37 21.498-26.092q1.5261-1.8523-0.32612-3.3784l-5.9755-4.9234q-1.8523-1.5261-3.3784 0.32612l-21.498 26.092q-1.5261 1.8523 0.32612 3.3784l5.9755 4.9234q1.8523 1.5261 3.3784-0.32612z" clip-path="url(#a)" fill="#fff" stroke="#fff"/>
<g clip-path="url(#a)">
<g transform="translate(969.06 929.79) rotate(-50.514) scale(.08 -.08)">
<use xlink:href="#l"/>
<use x="44.083984" xlink:href="#d"/>
<use x="105.607422" xlink:href="#f"/>
<use x="144.970703" xlink:href="#k"/>
<use x="242.382812" xlink:href="#h"/>
<use x="270.166016" xlink:href="#g"/>
<use x="333.544922" xlink:href="#e"/>
<use x="394.824219" xlink:href="#j"/>
</g>
</g>
<path d="m1008 933.35 13.254-31.101q0.94093-2.2079-1.2669-3.1488l-7.1227-3.0355q-2.2079-0.94093-3.1488 1.2669l-13.254 31.101q-0.94093 2.2079 1.2669 3.1488l7.1227 3.0355q2.2079 0.94093 3.1488-1.2669z" clip-path="url(#a)" fill="#fff" stroke="#fff"/>
<g clip-path="url(#a)">
<g transform="translate(1004.3 931.75) rotate(-66.918) scale(.08 -.08)">
<use xlink:href="#l"/>
<use x="44.083984" xlink:href="#d"/>
<use x="105.607422" xlink:href="#f"/>
<use x="144.970703" xlink:href="#k"/>
<use x="242.382812" xlink:href="#h"/>
<use x="270.166016" xlink:href="#g"/>
<use x="333.544922" xlink:href="#e"/>
<use x="394.824219" xlink:href="#j"/>
</g>
</g>
<path d="m1046.8 932.33 0.48021-33.804q0.03409-2.3998-2.3657-2.4338l-7.7417-0.10998q-2.3998-0.03409-2.4338 2.3657l-0.48021 33.804q-0.03409 2.3998 2.3657 2.4338l7.7417 0.10998q2.3998 0.034091 2.4338-2.3657z" clip-path="url(#a)" fill="#fff" stroke="#fff"/>
<g clip-path="url(#a)">
<g transform="translate(1042.7 932.27) rotate(-89.186) scale(.08 -.08)">
<use xlink:href="#l"/>
<use x="44.083984" xlink:href="#d"/>
<use x="105.607422" xlink:href="#f"/>
<use x="144.970703" xlink:href="#k"/>
<use x="242.382812" xlink:href="#h"/>
<use x="270.166016" xlink:href="#g"/>
<use x="333.544922" xlink:href="#e"/>
<use x="394.824219" xlink:href="#j"/>
</g>
</g>
<path d="m1061.5 902.1 12.878 31.259q0.91418 2.2191 3.1333 1.3049l7.1588-2.9492q2.2191-0.91418 1.3049-3.1333l-12.878-31.259q-0.91418-2.2191-3.1333-1.3049l-7.1588 2.9492q-2.2191 0.91418-1.3049 3.1333z" clip-path="url(#a)" fill="#fff" stroke="#fff"/>
<g clip-path="url(#a)">
<g transform="translate(1065.3 900.55) rotate(67.61) scale(.08 -.08)">
<use xlink:href="#l"/>
<use x="44.083984" xlink:href="#d"/>
<use x="105.607422" xlink:href="#f"/>
<use x="144.970703" xlink:href="#k"/>
<use x="242.382812" xlink:href="#h"/>
<use x="270.166016" xlink:href="#g"/>
<use x="333.544922" xlink:href="#e"/>
<use x="394.824219" xlink:href="#j"/>
</g>
</g>
<path d="m1092.1 906.54 21.93 25.729q1.5568 1.8265 3.3834 0.2697l5.8925-5.0224q1.8265-1.5568 0.2697-3.3834l-21.93-25.729q-1.5568-1.8265-3.3834-0.2697l-5.8925 5.0224q-1.8265 1.5568-0.2697 3.3834z" clip-path="url(#a)" fill="#fff" stroke="#fff"/>
<g clip-path="url(#a)">
<g transform="translate(1095.2 903.91) rotate(49.558) scale(.08 -.08)">
<use xlink:href="#l"/>
<use x="44.083984" xlink:href="#d"/>
<use x="105.607422" xlink:href="#f"/>
<use x="144.970703" xlink:href="#k"/>
<use x="242.382812" xlink:href="#h"/>
<use x="270.166016" xlink:href="#g"/>
<use x="333.544922" xlink:href="#e"/>
<use x="394.824219" xlink:href="#j"/>
</g>
</g>
<path d="m1276.6 764.18 1.8376-5.2462q0.79339-2.2651-1.4717-3.0585l-7.3072-2.5595q-2.2651-0.79339-3.0585 1.4717l-1.8376 5.2462q-0.79339 2.2651 1.4717 3.0585l7.3072 2.5595q2.2651 0.79339 3.0585-1.4717z" clip-path="url(#a)" fill="#fff" stroke="#fff"/>
<g clip-path="url(#a)">
<g transform="translate(1272.8 762.84) rotate(-70.696) scale(.08 -.08)">
<use xlink:href="#ac"/>
</g>
</g>
<path d="m1319.8 758.92 1.8467 5.2722q0.79339 2.2651 3.0585 1.4717l7.3072-2.5595q2.2651-0.79339 1.4717-3.0585l-1.8467-5.2722q-0.79339-2.2651-3.0585-1.4717l-7.3072 2.5595q-2.2651 0.79339-1.4717 3.0585z" clip-path="url(#a)" fill="#fff" stroke="#fff"/>
<g clip-path="url(#a)">
<g transform="translate(1323.6 757.58) rotate(70.696) scale(.08 -.08)">
<use xlink:href="#p"/>
</g>
</g>
<path d="m1237.9 898.43v33.808q0 2.4 2.4 2.4h7.7425q2.4 0 2.4-2.4v-33.808q0-2.4-2.4-2.4h-7.7425q-2.4 0-2.4 2.4z" clip-path="url(#a)" fill="#fff" stroke="#fff"/>
<g clip-path="url(#a)">
<g transform="translate(1241.9 898.43) rotate(90) scale(.08 -.08)">
<use xlink:href="#l"/>
<use x="44.083984" xlink:href="#d"/>
<use x="105.607422" xlink:href="#f"/>
<use x="144.970703" xlink:href="#k"/>
<use x="242.382812" xlink:href="#h"/>
<use x="270.166016" xlink:href="#g"/>
<use x="333.544922" xlink:href="#e"/>
<use x="394.824219" xlink:href="#j"/>
</g>
</g>
<path d="m1337.5 933.24 7.9363-32.863q0.5634-2.3329-1.7695-2.8963l-7.5261-1.8175q-2.3329-0.5634-2.8963 1.7695l-7.9363 32.863q-0.5634 2.3329 1.7695 2.8963l7.5261 1.8175q2.3329 0.5634 2.8963-1.7695z" clip-path="url(#a)" fill="#fff" stroke="#fff"/>
<g clip-path="url(#a)">
<g transform="translate(1333.6 932.29) rotate(-76.423) scale(.08 -.08)">
<use xlink:href="#l"/>
<use x="44.083984" xlink:href="#d"/>
<use x="105.607422" xlink:href="#f"/>
<use x="144.970703" xlink:href="#k"/>
<use x="242.382812" xlink:href="#h"/>
<use x="270.166016" xlink:href="#g"/>
<use x="333.544922" xlink:href="#e"/>
<use x="394.824219" xlink:href="#j"/>
</g>
</g>
<path d="m1362.7 900.38 7.9363 32.863q0.5634 2.3329 2.8963 1.7695l7.5261-1.8175q2.3329-0.5634 1.7695-2.8963l-7.9363-32.863q-0.5634-2.3329-2.8963-1.7695l-7.5261 1.8175q-2.3329 0.5634-1.7695 2.8963z" clip-path="url(#a)" fill="#fff" stroke="#fff"/>
<g clip-path="url(#a)">
<g transform="translate(1366.7 899.43) rotate(76.423) scale(.08 -.08)">
<use xlink:href="#l"/>
<use x="44.083984" xlink:href="#d"/>
<use x="105.607422" xlink:href="#f"/>
<use x="144.970703" xlink:href="#k"/>
<use x="242.382812" xlink:href="#h"/>
<use x="270.166016" xlink:href="#g"/>
<use x="333.544922" xlink:href="#e"/>
<use x="394.824219" xlink:href="#j"/>
</g>
</g>
<path d="m736.57 898.43v33.808q0 2.4 2.4 2.4h7.7425q2.4 0 2.4-2.4v-33.808q0-2.4-2.4-2.4h-7.7425q-2.4 0-2.4 2.4z" clip-path="url(#a)" fill="#fff" stroke="#fff"/>
<g clip-path="url(#a)">
<g transform="translate(740.63 898.43) rotate(90) scale(.08 -.08)">
<use xlink:href="#l"/>
<use x="44.083984" xlink:href="#d"/>
<use x="105.607422" xlink:href="#f"/>
<use x="144.970703" xlink:href="#k"/>
<use x="242.382812" xlink:href="#h"/>
<use x="270.166016" xlink:href="#g"/>
<use x="333.544922" xlink:href="#e"/>
<use x="394.824219" xlink:href="#j"/>
</g>
</g>
<path d="m791.54 898.43v33.808q0 2.4 2.4 2.4h7.7425q2.4 0 2.4-2.4v-33.808q0-2.4-2.4-2.4h-7.7425q-2.4 0-2.4 2.4z" clip-path="url(#a)" fill="#fff" stroke="#fff"/>
<g clip-path="url(#a)">
<g transform="translate(795.6 898.43) rotate(90) scale(.08 -.08)">
<use xlink:href="#l"/>
<use x="44.083984" xlink:href="#d"/>
<use x="105.607422" xlink:href="#f"/>
<use x="144.970703" xlink:href="#k"/>
<use x="242.382812" xlink:href="#h"/>
<use x="270.166016" xlink:href="#g"/>
<use x="333.544922" xlink:href="#e"/>
<use x="394.824219" xlink:href="#j"/>
</g>
</g>
<path d="m83.547 898.43v33.808q0 2.4 2.4 2.4h7.7425q2.4 0 2.4-2.4v-33.808q0-2.4-2.4-2.4h-7.7425q-2.4 0-2.4 2.4z" clip-path="url(#a)" fill="#fff" stroke="#fff"/>
<g clip-path="url(#a)">
<g transform="translate(87.611 898.43) rotate(90) scale(.08 -.08)">
<use xlink:href="#l"/>
<use x="44.083984" xlink:href="#d"/>
<use x="105.607422" xlink:href="#f"/>
<use x="144.970703" xlink:href="#k"/>
<use x="242.382812" xlink:href="#h"/>
<use x="270.166016" xlink:href="#g"/>
<use x="333.544922" xlink:href="#e"/>
<use x="394.824219" xlink:href="#j"/>
</g>
</g>
<path d="m90.143 898.43v33.808q0 2.4 2.4 2.4h7.7425q2.4 0 2.4-2.4v-33.808q0-2.4-2.4-2.4h-7.7425q-2.4 0-2.4 2.4z" clip-path="url(#a)" fill="#fff" stroke="#fff"/>
<g clip-path="url(#a)">
<g transform="translate(94.207 898.43) rotate(90) scale(.08 -.08)">
<use xlink:href="#l"/>
<use x="44.083984" xlink:href="#d"/>
<use x="105.607422" xlink:href="#f"/>
<use x="144.970703" xlink:href="#k"/>
<use x="242.382812" xlink:href="#h"/>
<use x="270.166016" xlink:href="#g"/>
<use x="333.544922" xlink:href="#e"/>
<use x="394.824219" xlink:href="#j"/>
</g>
</g>
<path d="m98.938 898.43v33.808q0 2.4 2.4 2.4h7.7425q2.4 0 2.4-2.4v-33.808q0-2.4-2.4-2.4h-7.7425q-2.4 0-2.4 2.4z" clip-path="url(#a)" fill="#fff" stroke="#fff"/>
<g clip-path="url(#a)">
<g transform="translate(103 898.43) rotate(90) scale(.08 -.08)">
<use xlink:href="#l"/>
<use x="44.083984" xlink:href="#d"/>
<use x="105.607422" xlink:href="#f"/>
<use x="144.970703" xlink:href="#k"/>
<use x="242.382812" xlink:href="#h"/>
<use x="270.166016" xlink:href="#g"/>
<use x="333.544922" xlink:href="#e"/>
<use x="394.824219" xlink:href="#j"/>
</g>
</g>
<path d="m151.02 606.32 1.4096-4.8545q0.66924-2.3048-1.6356-2.974l-7.4354-2.159q-2.3048-0.66924-2.974 1.6356l-1.4096 4.8545q-0.66924 2.3048 1.6356 2.974l7.4354 2.159q2.3048 0.66924 2.974-1.6356z" clip-path="url(#a)" fill="#fff" stroke="#fff"/>
<g clip-path="url(#a)">
<g transform="translate(147.12 605.19) rotate(-73.808) scale(.08 -.08)">
<use xlink:href="#u"/>
</g>
</g>
<path d="m162.74 683.87 0.42164-5.5703q0.18115-2.3932-2.212-2.5743l-7.7204-0.58439q-2.3932-0.18115-2.5743 2.212l-0.42164 5.5703q-0.18115 2.3932 2.212 2.5743l7.7204 0.58438q2.3932 0.18115 2.5743-2.212z" clip-path="url(#a)" fill="#fff" stroke="#fff"/>
<g clip-path="url(#a)">
<g transform="translate(158.69 683.56) rotate(-85.671) scale(.08 -.08)">
<use xlink:href="#p"/>
</g>
</g>
<path d="m199.79 602.58 2.1906 4.5557q1.0401 2.1629 3.203 1.1229l6.9777-3.3553q2.1629-1.0401 1.1229-3.203l-2.1906-4.5557q-1.0401-2.1629-3.203-1.1229l-6.9777 3.3553q-2.1629 1.0401-1.1229 3.203z" clip-path="url(#a)" fill="#fff" stroke="#fff"/>
<g clip-path="url(#a)">
<g transform="translate(203.45 600.82) rotate(64.319) scale(.08 -.08)">
<use xlink:href="#u"/>
</g>
</g>
<path d="m171.7 683.66 0.11589-5.8539q0.047503-2.3995-2.352-2.447l-7.741-0.15325q-2.3995-0.047503-2.447 2.352l-0.11589 5.8539q-0.047503 2.3995 2.352 2.447l7.741 0.15325q2.3995 0.047503 2.447-2.352z" clip-path="url(#a)" fill="#fff" stroke="#fff"/>
<g clip-path="url(#a)">
<g transform="translate(167.64 683.58) rotate(-88.866) scale(.08 -.08)">
<use xlink:href="#x"/>
</g>
</g>
<path d="m406.74 763.67 1.3118-5.4017q0.56639-2.3322-1.7658-2.8986l-7.5238-1.8272q-2.3322-0.56639-2.8986 1.7658l-1.3118 5.4017q-0.56639 2.3322 1.7658 2.8986l7.5238 1.8272q2.3322 0.56639 2.8986-1.7658z" clip-path="url(#a)" fill="#fff" stroke="#fff"/>
<g clip-path="url(#a)">
<g transform="translate(402.79 762.71) rotate(-76.35) scale(.08 -.08)">
<use xlink:href="#ac"/>
</g>
</g>
<path d="m426.25 762.04 0.023608-5.0549q0.011208-2.4-2.3888-2.4112l-7.7424-0.036159q-2.4-0.011209-2.4112 2.3888l-0.023608 5.0549q-0.011209 2.4 2.3888 2.4112l7.7424 0.03616q2.4 0.011208 2.4112-2.3888z" clip-path="url(#a)" fill="#fff" stroke="#fff"/>
<g clip-path="url(#a)">
<g transform="translate(422.19 762.02) rotate(-89.732) scale(.08 -.08)">
<use xlink:href="#u"/>
</g>
</g>
<path d="m433.02 758.28 1.3422 5.4226q0.57666 2.3297 2.9063 1.753l7.5157-1.8603q2.3297-0.57666 1.753-2.9063l-1.3422-5.4226q-0.57666-2.3297-2.9064-1.753l-7.5157 1.8603q-2.3297 0.57666-1.753 2.9063z" clip-path="url(#a)" fill="#fff" stroke="#fff"/>
<g clip-path="url(#a)">
<g transform="translate(436.97 757.3) rotate(76.097) scale(.08 -.08)">
<use xlink:href="#p"/>
</g>
</g>
<path d="m375.98 898.43v33.808q0 2.4 2.4 2.4h7.7425q2.4 0 2.4-2.4v-33.808q0-2.4-2.4-2.4h-7.7425q-2.4 0-2.4 2.4z" clip-path="url(#a)" fill="#fff" stroke="#fff"/>
<g clip-path="url(#a)">
<g transform="translate(380.04 898.43) rotate(90) scale(.08 -.08)">
<use xlink:href="#l"/>
<use x="44.083984" xlink:href="#d"/>
<use x="105.607422" xlink:href="#f"/>
<use x="144.970703" xlink:href="#k"/>
<use x="242.382812" xlink:href="#h"/>
<use x="270.166016" xlink:href="#g"/>
<use x="333.544922" xlink:href="#e"/>
<use x="394.824219" xlink:href="#j"/>
</g>
</g>
<path d="m413.36 898.43v33.808q0 2.4 2.4 2.4h7.7425q2.4 0 2.4-2.4v-33.808q0-2.4-2.4-2.4h-7.7425q-2.4 0-2.4 2.4z" clip-path="url(#a)" fill="#fff" stroke="#fff"/>
<g clip-path="url(#a)">
<g transform="translate(417.42 898.43) rotate(90) scale(.08 -.08)">
<use xlink:href="#l"/>
<use x="44.083984" xlink:href="#d"/>
<use x="105.607422" xlink:href="#f"/>
<use x="144.970703" xlink:href="#k"/>
<use x="242.382812" xlink:href="#h"/>
<use x="270.166016" xlink:href="#g"/>
<use x="333.544922" xlink:href="#e"/>
<use x="394.824219" xlink:href="#j"/>
</g>
</g>
<path d="m452.93 898.43v33.808q0 2.4 2.4 2.4h7.7425q2.4 0 2.4-2.4v-33.808q0-2.4-2.4-2.4h-7.7425q-2.4 0-2.4 2.4z" clip-path="url(#a)" fill="#fff" stroke="#fff"/>
<g clip-path="url(#a)">
<g transform="translate(457 898.43) rotate(90) scale(.08 -.08)">
<use xlink:href="#l"/>
<use x="44.083984" xlink:href="#d"/>
<use x="105.607422" xlink:href="#f"/>
<use x="144.970703" xlink:href="#k"/>
<use x="242.382812" xlink:href="#h"/>
<use x="270.166016" xlink:href="#g"/>
<use x="333.544922" xlink:href="#e"/>
<use x="394.824219" xlink:href="#j"/>
</g>
</g>
<path d="m125.66 762.27 0.21229-5.0505q0.10079-2.3979-2.2971-2.4987l-7.7357-0.32515q-2.3979-0.10079-2.4987 2.2971l-0.21229 5.0505q-0.10079 2.3979 2.2971 2.4987l7.7357 0.32515q2.3979 0.10079 2.4987-2.2971z" clip-path="url(#a)" fill="#fff" stroke="#fff"/>
<g clip-path="url(#a)">
<g transform="translate(121.6 762.1) rotate(-87.593) scale(.08 -.08)">
<use xlink:href="#u"/>
</g>
</g>
<path d="m119.71 756.96 0.2346 5.5813q0.10079 2.3979 2.4987 2.2971l7.7357-0.32515q2.3979-0.10079 2.2971-2.4987l-0.2346-5.5813q-0.10079-2.3979-2.4987-2.2971l-7.7357 0.32515q-2.3979 0.10079-2.2971 2.4987z" clip-path="url(#a)" fill="#fff" stroke="#fff"/>
<g clip-path="url(#a)">
<g transform="translate(123.77 756.79) rotate(87.593) scale(.08 -.08)">
<use xlink:href="#p"/>
</g>
</g>
<path d="m138.52 898.43v33.808q0 2.4 2.4 2.4h7.7425q2.4 0 2.4-2.4v-33.808q0-2.4-2.4-2.4h-7.7425q-2.4 0-2.4 2.4z" clip-path="url(#a)" fill="#fff" stroke="#fff"/>
<g clip-path="url(#a)">
<g transform="translate(142.58 898.43) rotate(90) scale(.08 -.08)">
<use xlink:href="#l"/>
<use x="44.083984" xlink:href="#d"/>
<use x="105.607422" xlink:href="#f"/>
<use x="144.970703" xlink:href="#k"/>
<use x="242.382812" xlink:href="#h"/>
<use x="270.166016" xlink:href="#g"/>
<use x="333.544922" xlink:href="#e"/>
<use x="394.824219" xlink:href="#j"/>
</g>
</g>
<path d="m218.11 764.39 2.0611-5.1921q0.88552-2.2307-1.3451-3.1162l-7.1962-2.8567q-2.2307-0.88552-3.1162 1.3451l-2.0611 5.1921q-0.88552 2.2307 1.3451 3.1162l7.1962 2.8567q2.2307 0.88552 3.1162-1.3451z" clip-path="url(#a)" fill="#fff" stroke="#fff"/>
<g clip-path="url(#a)">
<g transform="translate(214.33 762.89) rotate(-68.348) scale(.08 -.08)">
<use xlink:href="#p"/>
</g>
</g>
<path d="m242.35 762.9 0.57096-5.557q0.2453-2.3874-2.1421-2.6327l-7.702-0.79135q-2.3874-0.2453-2.6327 2.1421l-0.57096 5.557q-0.2453 2.3874 2.1421 2.6327l7.702 0.79135q2.3874 0.2453 2.6327-2.1421z" clip-path="url(#a)" fill="#fff" stroke="#fff"/>
<g clip-path="url(#a)">
<g transform="translate(238.31 762.49) rotate(-84.134) scale(.08 -.08)">
<use xlink:href="#p"/>
</g>
</g>
<path d="m257.08 758.09 1.438 5.8097q0.57666 2.3297 2.9064 1.753l7.5157-1.8603q2.3297-0.57666 1.753-2.9064l-1.438-5.8097q-0.57666-2.3297-2.9063-1.753l-7.5157 1.8603q-2.3297 0.57666-1.753 2.9064z" clip-path="url(#a)" fill="#fff" stroke="#fff"/>
<g clip-path="url(#a)">
<defs>
<path id="au" d="m9.8125 72.906h13.281l32.328-60.984v60.984h9.5625v-72.906h-13.281l-32.312 60.984v-60.984h-9.5781z"/>
</defs>
<g transform="translate(261.02 757.11) rotate(76.097) scale(.08 -.08)">
<use xlink:href="#au"/>
</g>
</g>
<path d="m272.41 759.47 2.2655 5.1062q0.97333 2.1938 3.1671 1.2204l7.0772-3.14q2.1938-0.97333 1.2204-3.1671l-2.2655-5.1062q-0.97333-2.1938-3.1671-1.2204l-7.0772 3.14q-2.1938 0.97333-1.2204 3.1671z" clip-path="url(#a)" fill="#fff" stroke="#fff"/>
<g clip-path="url(#a)">
<g transform="translate(276.12 757.83) rotate(66.074) scale(.08 -.08)">
<use xlink:href="#p"/>
</g>
</g>
<path d="m229.65 763.88 1.4567-5.6709q0.59709-2.3245-1.7274-2.9216l-7.4991-1.9262q-2.3245-0.59709-2.9216 1.7274l-1.4567 5.6709q-0.59709 2.3245 1.7274 2.9216l7.4991 1.9262q2.3245 0.59709 2.9216-1.7274z" clip-path="url(#a)" fill="#fff" stroke="#fff"/>
<g clip-path="url(#a)">
<g transform="translate(225.72 762.87) rotate(-75.594) scale(.08 -.08)">
<use xlink:href="#x"/>
</g>
</g>
<path d="m243.14 756.97 0.38201 5.8425q0.15659 2.3949 2.5515 2.2383l7.726-0.50516q2.3949-0.15659 2.2383-2.5515l-0.38201-5.8425q-0.15659-2.3949-2.5515-2.2383l-7.726 0.50516q-2.3949 0.15659-2.2383 2.5515z" clip-path="url(#a)" fill="#fff" stroke="#fff"/>
<g clip-path="url(#a)">
<g transform="translate(247.2 756.71) rotate(86.259) scale(.08 -.08)">
<use xlink:href="#x"/>
</g>
</g>
<path d="m175.89 898.43v33.808q0 2.4 2.4 2.4h7.7425q2.4 0 2.4-2.4v-33.808q0-2.4-2.4-2.4h-7.7425q-2.4 0-2.4 2.4z" clip-path="url(#a)" fill="#fff" stroke="#fff"/>
<g clip-path="url(#a)">
<g transform="translate(179.96 898.43) rotate(90) scale(.08 -.08)">
<use xlink:href="#l"/>
<use x="44.083984" xlink:href="#d"/>
<use x="105.607422" xlink:href="#f"/>
<use x="144.970703" xlink:href="#k"/>
<use x="242.382812" xlink:href="#h"/>
<use x="270.166016" xlink:href="#g"/>
<use x="333.544922" xlink:href="#e"/>
<use x="394.824219" xlink:href="#j"/>
</g>
</g>
<path d="m222.07 898.43v33.808q0 2.4 2.4 2.4h7.7425q2.4 0 2.4-2.4v-33.808q0-2.4-2.4-2.4h-7.7425q-2.4 0-2.4 2.4z" clip-path="url(#a)" fill="#fff" stroke="#fff"/>
<g clip-path="url(#a)">
<g transform="translate(226.13 898.43) rotate(90) scale(.08 -.08)">
<use xlink:href="#l"/>
<use x="44.083984" xlink:href="#d"/>
<use x="105.607422" xlink:href="#f"/>
<use x="144.970703" xlink:href="#k"/>
<use x="242.382812" xlink:href="#h"/>
<use x="270.166016" xlink:href="#g"/>
<use x="333.544922" xlink:href="#e"/>
<use x="394.824219" xlink:href="#j"/>
</g>
</g>
<path d="m277.04 898.43v33.808q0 2.4 2.4 2.4h7.7425q2.4 0 2.4-2.4v-33.808q0-2.4-2.4-2.4h-7.7425q-2.4 0-2.4 2.4z" clip-path="url(#a)" fill="#fff" stroke="#fff"/>
<g clip-path="url(#a)">
<g transform="translate(281.1 898.43) rotate(90) scale(.08 -.08)">
<use xlink:href="#l"/>
<use x="44.083984" xlink:href="#d"/>
<use x="105.607422" xlink:href="#f"/>
<use x="144.970703" xlink:href="#k"/>
<use x="242.382812" xlink:href="#h"/>
<use x="270.166016" xlink:href="#g"/>
<use x="333.544922" xlink:href="#e"/>
<use x="394.824219" xlink:href="#j"/>
</g>
</g>
<path d="m307.82 898.43v33.808q0 2.4 2.4 2.4h7.7425q2.4 0 2.4-2.4v-33.808q0-2.4-2.4-2.4h-7.7425q-2.4 0-2.4 2.4z" clip-path="url(#a)" fill="#fff" stroke="#fff"/>
<g clip-path="url(#a)">
<g transform="translate(311.88 898.43) rotate(90) scale(.08 -.08)">
<use xlink:href="#l"/>
<use x="44.083984" xlink:href="#d"/>
<use x="105.607422" xlink:href="#f"/>
<use x="144.970703" xlink:href="#k"/>
<use x="242.382812" xlink:href="#h"/>
<use x="270.166016" xlink:href="#g"/>
<use x="333.544922" xlink:href="#e"/>
<use x="394.824219" xlink:href="#j"/>
</g>
</g>
<path d="m156.11 898.43v33.808q0 2.4 2.4 2.4h7.7425q2.4 0 2.4-2.4v-33.808q0-2.4-2.4-2.4h-7.7425q-2.4 0-2.4 2.4z" clip-path="url(#a)" fill="#fff" stroke="#fff"/>
<g clip-path="url(#a)">
<g transform="translate(160.17 898.43) rotate(90) scale(.08 -.08)">
<use xlink:href="#l"/>
<use x="44.083984" xlink:href="#d"/>
<use x="105.607422" xlink:href="#f"/>
<use x="144.970703" xlink:href="#k"/>
<use x="242.382812" xlink:href="#h"/>
<use x="270.166016" xlink:href="#g"/>
<use x="333.544922" xlink:href="#e"/>
<use x="394.824219" xlink:href="#j"/>
</g>
</g>
<path d="m197.88 898.43v33.808q0 2.4 2.4 2.4h7.7425q2.4 0 2.4-2.4v-33.808q0-2.4-2.4-2.4h-7.7425q-2.4 0-2.4 2.4z" clip-path="url(#a)" fill="#fff" stroke="#fff"/>
<g clip-path="url(#a)">
<g transform="translate(201.94 898.43) rotate(90) scale(.08 -.08)">
<use xlink:href="#l"/>
<use x="44.083984" xlink:href="#d"/>
<use x="105.607422" xlink:href="#f"/>
<use x="144.970703" xlink:href="#k"/>
<use x="242.382812" xlink:href="#h"/>
<use x="270.166016" xlink:href="#g"/>
<use x="333.544922" xlink:href="#e"/>
<use x="394.824219" xlink:href="#j"/>
</g>
</g>
<path d="m109.93 898.43v33.808q0 2.4 2.4 2.4h7.7425q2.4 0 2.4-2.4v-33.808q0-2.4-2.4-2.4h-7.7425q-2.4 0-2.4 2.4z" clip-path="url(#a)" fill="#fff" stroke="#fff"/>
<g clip-path="url(#a)">
<g transform="translate(114 898.43) rotate(90) scale(.08 -.08)">
<use xlink:href="#l"/>
<use x="44.083984" xlink:href="#d"/>
<use x="105.607422" xlink:href="#f"/>
<use x="144.970703" xlink:href="#k"/>
<use x="242.382812" xlink:href="#h"/>
<use x="270.166016" xlink:href="#g"/>
<use x="333.544922" xlink:href="#e"/>
<use x="394.824219" xlink:href="#j"/>
</g>
</g>
<path d="m123.12 898.43v33.808q0 2.4 2.4 2.4h7.7425q2.4 0 2.4-2.4v-33.808q0-2.4-2.4-2.4h-7.7425q-2.4 0-2.4 2.4z" clip-path="url(#a)" fill="#fff" stroke="#fff"/>
<g clip-path="url(#a)">
<g transform="translate(127.19 898.43) rotate(90) scale(.08 -.08)">
<use xlink:href="#l"/>
<use x="44.083984" xlink:href="#d"/>
<use x="105.607422" xlink:href="#f"/>
<use x="144.970703" xlink:href="#k"/>
<use x="242.382812" xlink:href="#h"/>
<use x="270.166016" xlink:href="#g"/>
<use x="333.544922" xlink:href="#e"/>
<use x="394.824219" xlink:href="#j"/>
</g>
</g>
<path d="m248.45 898.43v33.808q0 2.4 2.4 2.4h7.7425q2.4 0 2.4-2.4v-33.808q0-2.4-2.4-2.4h-7.7425q-2.4 0-2.4 2.4z" clip-path="url(#a)" fill="#fff" stroke="#fff"/>
<g clip-path="url(#a)">
<g transform="translate(252.52 898.43) rotate(90) scale(.08 -.08)">
<use xlink:href="#l"/>
<use x="44.083984" xlink:href="#d"/>
<use x="105.607422" xlink:href="#f"/>
<use x="144.970703" xlink:href="#k"/>
<use x="242.382812" xlink:href="#h"/>
<use x="270.166016" xlink:href="#g"/>
<use x="333.544922" xlink:href="#e"/>
<use x="394.824219" xlink:href="#j"/>
</g>
</g>
<path d="m340.8 898.43v33.808q0 2.4 2.4 2.4h7.7425q2.4 0 2.4-2.4v-33.808q0-2.4-2.4-2.4h-7.7425q-2.4 0-2.4 2.4z" clip-path="url(#a)" fill="#fff" stroke="#fff"/>
<g clip-path="url(#a)">
<g transform="translate(344.86 898.43) rotate(90) scale(.08 -.08)">
<use xlink:href="#l"/>
<use x="44.083984" xlink:href="#d"/>
<use x="105.607422" xlink:href="#f"/>
<use x="144.970703" xlink:href="#k"/>
<use x="242.382812" xlink:href="#h"/>
<use x="270.166016" xlink:href="#g"/>
<use x="333.544922" xlink:href="#e"/>
<use x="394.824219" xlink:href="#j"/>
</g>
</g>
<path d="m1879.9 898.43v33.808q0 2.4 2.4 2.4h7.7425q2.4 0 2.4-2.4v-33.808q0-2.4-2.4-2.4h-7.7425q-2.4 0-2.4 2.4z" clip-path="url(#a)" fill="#fff" stroke="#fff"/>
<g clip-path="url(#a)">
<g transform="translate(1884 898.43) rotate(90) scale(.08 -.08)">
<use xlink:href="#l"/>
<use x="44.083984" xlink:href="#d"/>
<use x="105.607422" xlink:href="#f"/>
<use x="144.970703" xlink:href="#k"/>
<use x="242.382812" xlink:href="#h"/>
<use x="270.166016" xlink:href="#g"/>
<use x="333.544922" xlink:href="#e"/>
<use x="394.824219" xlink:href="#j"/>
</g>
</g>
<defs>
<path id="b" d="m0 8.6603c2.2967 0 4.4997-0.9125 6.1237-2.5365 1.624-1.624 2.5365-3.827 2.5365-6.1237s-0.9125-4.4997-2.5365-6.1237c-1.624-1.624-3.827-2.5365-6.1237-2.5365s-4.4997 0.9125-6.1237 2.5365c-1.624 1.624-2.5365 3.827-2.5365 6.1237s0.9125 4.4997 2.5365 6.1237c1.624 1.624 3.827 2.5365 6.1237 2.5365z"/>
</defs>
<g clip-path="url(#a)" fill="#ffffff" stroke="#ffffff">
<use x="89.818182" y="992.727273" xlink:href="#b"/>
<use x="96.414376" y="992.727273" xlink:href="#b"/>
<use x="105.209302" y="992.727273" xlink:href="#b"/>
<use x="116.20296" y="992.727273" xlink:href="#b"/>
<use x="129.395349" y="992.727273" xlink:href="#b"/>
<use x="144.786469" y="992.727273" xlink:href="#b"/>
<use x="162.376321" y="992.727273" xlink:href="#b"/>
<use x="182.164905" y="992.727273" xlink:href="#b"/>
<use x="204.15222" y="992.727273" xlink:href="#b"/>
<use x="228.338266" y="992.727273" xlink:href="#b"/>
<use x="254.723044" y="992.727273" xlink:href="#b"/>
<use x="283.306554" y="992.727273" xlink:href="#b"/>
<use x="314.088795" y="992.727273" xlink:href="#b"/>
<use x="347.069767" y="992.727273" xlink:href="#b"/>
<use x="382.249471" y="992.727273" xlink:href="#b"/>
<use x="419.627907" y="992.727273" xlink:href="#b"/>
<use x="459.205074" y="992.727273" xlink:href="#b"/>
<use x="500.980973" y="992.727273" xlink:href="#b"/>
<use x="544.955603" y="992.727273" xlink:href="#b"/>
<use x="591.128964" y="992.727273" xlink:href="#b"/>
<use x="639.501057" y="992.727273" xlink:href="#b"/>
<use x="690.071882" y="992.727273" xlink:href="#b"/>
<use x="742.841438" y="992.727273" xlink:href="#b"/>
<use x="797.809725" y="992.727273" xlink:href="#b"/>
<use x="854.976744" y="992.727273" xlink:href="#b"/>
<use x="914.342495" y="992.727273" xlink:href="#b"/>
<use x="975.906977" y="992.727273" xlink:href="#b"/>
<use x="1039.67019" y="992.727273" xlink:href="#b"/>
<use x="1105.632135" y="992.727273" xlink:href="#b"/>
<use x="1173.792812" y="992.727273" xlink:href="#b"/>
<use x="1244.15222" y="992.727273" xlink:href="#b"/>
<use x="1316.710359" y="992.727273" xlink:href="#b"/>
<use x="1391.46723" y="992.727273" xlink:href="#b"/>
<use x="1468.422833" y="992.727273" xlink:href="#b"/>
<use x="1547.577167" y="992.727273" xlink:href="#b"/>
<use x="1628.930233" y="992.727273" xlink:href="#b"/>
<use x="1712.48203" y="992.727273" xlink:href="#b"/>
<use x="1798.232558" y="992.727273" xlink:href="#b"/>
<use x="1886.181818" y="992.727273" xlink:href="#b"/>
<use x="493.939433" y="47.272727" xlink:href="#b"/>
<use x="204.579751" y="364.974727" xlink:href="#b"/>
<use x="500.980973" y="837.94975" xlink:href="#b"/>
<use x="776.257576" y="206.283649" xlink:href="#b"/>
<use x="544.955603" y="837.94975" xlink:href="#b"/>
<use x="615.315011" y="837.94975" xlink:href="#b"/>
<use x="690.071882" y="837.94975" xlink:href="#b"/>
<use x="1254.687808" y="364.974727" xlink:href="#b"/>
<use x="770.325581" y="681.019102" xlink:href="#b"/>
<use x="1065.322058" y="523.265366" xlink:href="#b"/>
<use x="1468.422833" y="837.94975" xlink:href="#b"/>
<use x="1714.680761" y="681.019102" xlink:href="#b"/>
<use x="1547.577167" y="837.94975" xlink:href="#b"/>
<use x="1628.930233" y="837.94975" xlink:href="#b"/>
<use x="1712.48203" y="837.94975" xlink:href="#b"/>
<use x="1798.232558" y="837.94975" xlink:href="#b"/>
<use x="854.976744" y="837.94975" xlink:href="#b"/>
<use x="1041.868922" y="837.94975" xlink:href="#b"/>
<use x="1299.120507" y="681.019102" xlink:href="#b"/>
<use x="1244.15222" y="837.94975" xlink:href="#b"/>
<use x="1354.088795" y="837.94975" xlink:href="#b"/>
<use x="742.841438" y="837.94975" xlink:href="#b"/>
<use x="797.809725" y="837.94975" xlink:href="#b"/>
<use x="89.818182" y="837.94975" xlink:href="#b"/>
<use x="96.414376" y="837.94975" xlink:href="#b"/>
<use x="105.209302" y="837.94975" xlink:href="#b"/>
<use x="168.606061" y="523.265366" xlink:href="#b"/>
<use x="420.360817" y="681.019102" xlink:href="#b"/>
<use x="382.249471" y="837.94975" xlink:href="#b"/>
<use x="419.627907" y="837.94975" xlink:href="#b"/>
<use x="459.205074" y="837.94975" xlink:href="#b"/>
<use x="122.799154" y="681.019102" xlink:href="#b"/>
<use x="144.786469" y="837.94975" xlink:href="#b"/>
<use x="244.462297" y="681.019102" xlink:href="#b"/>
<use x="182.164905" y="837.94975" xlink:href="#b"/>
<use x="228.338266" y="837.94975" xlink:href="#b"/>
<use x="283.306554" y="837.94975" xlink:href="#b"/>
<use x="314.088795" y="837.94975" xlink:href="#b"/>
<use x="162.376321" y="837.94975" xlink:href="#b"/>
<use x="204.15222" y="837.94975" xlink:href="#b"/>
<use x="116.20296" y="837.94975" xlink:href="#b"/>
<use x="129.395349" y="837.94975" xlink:href="#b"/>
<use x="254.723044" y="837.94975" xlink:href="#b"/>
<use x="347.069767" y="837.94975" xlink:href="#b"/>
<use x="1886.181818" y="837.94975" xlink:href="#b"/>
</g>
<g clip-path="url(#a)">
<defs>
<path id="an" d="m9.8125 72.906h9.8594v-72.906h-9.8594z"/>
</defs>
<g transform="translate(88.343 995.49) scale(.1 -.1)">
<use xlink:href="#an"/>
</g>
</g>
<g clip-path="url(#a)">
<defs>
<path id="t" d="m54.891 33.016v-33.016h-8.9844v32.719q0 7.7656-3.0312 11.609-3.0312 3.8594-9.0781 3.8594-7.2812 0-11.484-4.6406-4.2031-4.625-4.2031-12.641v-30.906h-9.0312v75.984h9.0312v-29.797q3.2344 4.9375 7.5938 7.375 4.375 2.4375 10.094 2.4375 9.4219 0 14.25-5.8281 4.8438-5.8281 4.8438-17.156z"/>
<path id="ab" d="m2.9844 54.688h9.5156l17.094-45.891 17.094 45.891h9.5156l-20.516-54.688h-12.203z"/>
</defs>
<g transform="translate(84.146 995.49) scale(.1 -.1)">
<use xlink:href="#t"/>
<use x="63.378906" xlink:href="#e"/>
<use x="124.658203" xlink:href="#ab"/>
<use x="183.837891" xlink:href="#d"/>
</g>
</g>
<g clip-path="url(#a)">
<defs>
<path id="as" d="m18.109 8.2031v-29h-9.0312v75.484h9.0312v-8.2969q2.8438 4.875 7.1562 7.2344 4.3281 2.375 10.328 2.375 9.9688 0 16.188-7.9062 6.2344-7.9062 6.2344-20.797t-6.2344-20.812q-6.2188-7.9062-16.188-7.9062-6 0-10.328 2.375-4.3125 2.375-7.1562 7.25zm30.578 19.094q0 9.9062-4.0781 15.547t-11.203 5.6406q-7.1406 0-11.219-5.6406t-4.0781-15.547 4.0781-15.547 11.219-5.6406q7.125 0 11.203 5.6406t4.0781 15.547z"/>
<path id="ba" d="m8.5 21.578v33.109h8.9844v-32.766q0-7.7656 3.0156-11.656 3.0312-3.875 9.0938-3.875 7.2656 0 11.484 4.6406 4.2344 4.6406 4.2344 12.656v31h8.9844v-54.688h-8.9844v8.4062q-3.2656-4.9844-7.5938-7.4062-4.3125-2.4219-10.031-2.4219-9.4219 0-14.312 5.8594-4.875 5.8594-4.875 17.141z"/>
<path id="w" d="m48.781 52.594v-8.4062q-3.8125 2.1094-7.6406 3.1562t-7.7344 1.0469q-8.75 0-13.594-5.5469-4.8281-5.5312-4.8281-15.547t4.8281-15.562q4.8438-5.5312 13.594-5.5312 3.9062 0 7.7344 1.0469t7.6406 3.1562v-8.3125q-3.7656-1.75-7.7969-2.625-4.0156-0.89062-8.5625-0.89062-12.359 0-19.641 7.7656-7.2656 7.7656-7.2656 20.953 0 13.375 7.3438 21.031 7.3594 7.6719 20.156 7.6719 4.1406 0 8.0938-0.85938 3.9531-0.84375 7.6719-2.5469z"/>
<path id="s" d="m44.281 53.078v-8.5q-3.7969 1.9531-7.9062 2.9219-4.0938 0.98438-8.5 0.98438-6.6875 0-10.031-2.0469t-3.3438-6.1562q0-3.125 2.3906-4.9062t9.625-3.3906l3.0781-0.6875q9.5625-2.0469 13.594-5.7812t4.0312-10.422q0-7.625-6.0312-12.078-6.0312-4.4375-16.578-4.4375-4.3906 0-9.1562 0.85938t-10.031 2.5625v9.2812q4.9844-2.5938 9.8125-3.8906 4.8281-1.2812 9.5781-1.2812 6.3438 0 9.75 2.1719 3.4219 2.1719 3.4219 6.125 0 3.6562-2.4688 5.6094-2.4531 1.9531-10.812 3.7656l-3.125 0.73438q-8.3438 1.75-12.062 5.3906-3.7031 3.6406-3.7031 9.9844 0 7.7188 5.4688 11.906 5.4688 4.2031 15.531 4.2031 4.9688 0 9.3594-0.73438 4.4062-0.71875 8.1094-2.1875z"/>
<path id="ag" d="m45.406 46.391v29.594h8.9844v-75.984h-8.9844v8.2031q-2.8281-4.875-7.1562-7.25-4.3125-2.375-10.375-2.375-9.9062 0-16.141 7.9062-6.2188 7.9219-6.2188 20.812t6.2188 20.797q6.2344 7.9062 16.141 7.9062 6.0625 0 10.375-2.375 4.3281-2.3594 7.1562-7.2344zm-30.609-19.094q0-9.9062 4.0781-15.547t11.203-5.6406 11.219 5.6406q4.1094 5.6406 4.1094 15.547t-4.1094 15.547q-4.0938 5.6406-11.219 5.6406t-11.203-5.6406-4.0781-15.547z"/>
</defs>
<g transform="translate(79.086 995.49) scale(.1 -.1)">
<use xlink:href="#as"/>
<use x="63.476562" xlink:href="#ba"/>
<use x="126.855469" xlink:href="#f"/>
<use x="165.71875" xlink:href="#w"/>
<use x="220.699219" xlink:href="#t"/>
<use x="284.078125" xlink:href="#e"/>
<use x="345.357422" xlink:href="#s"/>
<use x="397.457031" xlink:href="#d"/>
<use x="458.980469" xlink:href="#ag"/>
</g>
</g>
<g clip-path="url(#a)">
<defs>
<path id="r" d="m30.609 48.391q-7.2188 0-11.422-5.6406t-4.2031-15.453 4.1719-15.453q4.1875-5.6406 11.453-5.6406 7.1875 0 11.375 5.6562 4.2031 5.6719 4.2031 15.438 0 9.7188-4.2031 15.406-4.1875 5.6875-11.375 5.6875zm0 7.6094q11.719 0 18.406-7.625 6.7031-7.6094 6.7031-21.078 0-13.422-6.7031-21.078-6.6875-7.6406-18.406-7.6406-11.766 0-18.438 7.6406-6.6562 7.6562-6.6562 21.078 0 13.469 6.6562 21.078 6.6719 7.625 18.438 7.625z"/>
</defs>
<g transform="translate(105.05 995.49) scale(.1 -.1)">
<use xlink:href="#r"/>
<use x="61.181641" xlink:href="#ab"/>
<use x="120.361328" xlink:href="#d"/>
<use x="181.884766" xlink:href="#f"/>
</g>
</g>
<g clip-path="url(#a)">
<defs>
<path id="c" d="m12.406 8.2969h16.109v55.625l-17.531-3.5156v8.9844l17.438 3.5156h9.8594v-64.609h16.109v-8.2969h-41.984z"/>
<path id="aa" d="m10.797 72.906h38.719v-8.3125h-29.688v-17.859q2.1406 0.73438 4.2812 1.0938 2.1562 0.35938 4.3125 0.35938 12.203 0 19.328-6.6875 7.1406-6.6875 7.1406-18.109 0-11.766-7.3281-18.297-7.3281-6.5156-20.656-6.5156-4.5938 0-9.3594 0.78125-4.75 0.78125-9.8281 2.3438v9.9219q4.3906-2.3906 9.0781-3.5625t9.9062-1.1719q8.4531 0 13.375 4.4375 4.9375 4.4375 4.9375 12.062 0 7.6094-4.9375 12.047-4.9219 4.4531-13.375 4.4531-3.9531 0-7.8906-0.875-3.9219-0.875-8.0156-2.7344z"/>
</defs>
<g transform="translate(123.03 995.49) scale(.1 -.1)">
<use xlink:href="#c"/>
<use x="63.623047" xlink:href="#aa"/>
</g>
</g>
<g clip-path="url(#a)">
<g transform="translate(124.37 995.49) scale(.1 -.1)">
<use xlink:href="#ab"/>
<use x="59.179688" xlink:href="#d"/>
<use x="120.703125" xlink:href="#t"/>
<use x="184.082031" xlink:href="#h"/>
<use x="211.865234" xlink:href="#w"/>
<use x="266.845703" xlink:href="#j"/>
<use x="294.628906" xlink:href="#d"/>
<use x="356.152344" xlink:href="#s"/>
</g>
</g>
<g clip-path="url(#a)">
<defs>
<path id="ay" d="m31 75.875q-6.5312-11.219-9.7188-22.219-3.1719-10.984-3.1719-22.266 0-11.266 3.2031-22.328t9.6875-22.25h-7.8125q-7.3125 11.484-10.953 22.562t-3.6406 22.016q0 10.891 3.6094 21.922 3.625 11.047 10.984 22.562z"/>
</defs>
<g transform="translate(160.43 995.49) scale(.1 -.1)">
<use xlink:href="#ay"/>
</g>
</g>
<g clip-path="url(#a)">
<g transform="translate(171.69 995.49) scale(.1 -.1)">
<use xlink:href="#w"/>
<use x="54.980469" xlink:href="#e"/>
<use x="116.259766" xlink:href="#f"/>
<use x="157.373047" xlink:href="#s"/>
</g>
</g>
<g clip-path="url(#a)">
<defs>
<path id="ap" d="m11.719 12.406h10.297v-8.4062l-8-15.625h-6.2969l4 15.625z"/>
</defs>
<g transform="translate(202.56 995.49) scale(.1 -.1)">
<use xlink:href="#ap"/>
</g>
</g>
<g clip-path="url(#a)">
<g transform="translate(220.72 995.49) scale(.1 -.1)">
<use xlink:href="#f"/>
<use x="41.113281" xlink:href="#ab"/>
<use x="100.292969" xlink:href="#s"/>
</g>
</g>
<g clip-path="url(#a)">
<g transform="translate(253.13 995.49) scale(.1 -.1)">
<use xlink:href="#ap"/>
</g>
</g>
<g clip-path="url(#a)">
<g transform="translate(273.9 995.49) scale(.1 -.1)">
<use xlink:href="#e"/>
<use x="61.279297" xlink:href="#g"/>
<use x="124.658203" xlink:href="#ag"/>
</g>
</g>
<g clip-path="url(#a)">
<defs>
<path id="al" d="m48.688 27.297q0 9.9062-4.0781 15.547t-11.203 5.6406q-7.1406 0-11.219-5.6406t-4.0781-15.547 4.0781-15.547 11.219-5.6406q7.125 0 11.203 5.6406t4.0781 15.547zm-30.578 19.094q2.8438 4.875 7.1562 7.2344 4.3281 2.375 10.328 2.375 9.9688 0 16.188-7.9062 6.2344-7.9062 6.2344-20.797t-6.2344-20.812q-6.2188-7.9062-16.188-7.9062-6 0-10.328 2.375-4.3125 2.375-7.1562 7.25v-8.2031h-9.0312v75.984h9.0312z"/>
<path id="q" d="m18.312 70.219v-15.531h18.5v-6.9844h-18.5v-29.688q0-6.6875 1.8281-8.5938t7.4531-1.9062h9.2188v-7.5156h-9.2188q-10.406 0-14.359 3.875-3.9531 3.8906-3.9531 14.141v29.688h-6.5938v6.9844h6.5938v15.531z"/>
</defs>
<g transform="translate(300.23 995.49) scale(.1 -.1)">
<use xlink:href="#al"/>
<use x="63.476562" xlink:href="#r"/>
<use x="124.658203" xlink:href="#e"/>
<use x="185.9375" xlink:href="#q"/>
<use x="225.146484" xlink:href="#s"/>
</g>
</g>
<g clip-path="url(#a)">
<defs>
<path id="ax" d="m8.0156 75.875h7.8125q7.3125-11.516 10.953-22.562 3.6406-11.031 3.6406-21.922 0-10.938-3.6406-22.016t-10.953-22.562h-7.8125q6.4844 11.188 9.6875 22.25t3.2031 22.328q0 11.281-3.2031 22.266-3.2031 11-9.6875 22.219z"/>
</defs>
<g transform="translate(345.12 995.49) scale(.1 -.1)">
<use xlink:href="#ax"/>
</g>
</g>
<g clip-path="url(#a)">
<g transform="translate(377.69 995.49) scale(.1 -.1)">
<use xlink:href="#h"/>
<use x="27.783203" xlink:href="#g"/>
</g>
</g>
<g clip-path="url(#a)">
<defs>
<path id="aq" d="m32.172-5.0781q-3.7969-9.7656-7.4219-12.734-3.6094-2.9844-9.6562-2.9844h-7.1875v7.5156h5.2812q3.7031 0 5.75 1.7656 2.0625 1.75 4.5469 8.2969l1.6094 4.0938-22.109 53.812h9.5156l17.094-42.766 17.094 42.766h9.5156z"/>
</defs>
<g transform="translate(411.8 995.49) scale(.1 -.1)">
<use xlink:href="#k"/>
<use x="97.412109" xlink:href="#aq"/>
</g>
</g>
<g clip-path="url(#a)">
<defs>
<path id="ak" d="m37.109 75.984v-7.4844h-8.5938q-4.8281 0-6.7188-1.9531-1.875-1.9531-1.875-7.0312v-4.8281h14.797v-6.9844h-14.797v-47.703h-9.0312v47.703h-8.5938v6.9844h8.5938v3.8125q0 9.125 4.25 13.297 4.25 4.1875 13.469 4.1875z"/>
</defs>
<g transform="translate(440.29 995.49) scale(.1 -.1)">
<use xlink:href="#j"/>
<use x="27.783203" xlink:href="#h"/>
<use x="55.566406" xlink:href="#ak"/>
<use x="90.771484" xlink:href="#d"/>
<use x="152.294922" xlink:href="#q"/>
<use x="191.503906" xlink:href="#h"/>
<use x="219.287109" xlink:href="#k"/>
<use x="316.699219" xlink:href="#d"/>
</g>
</g>
<g clip-path="url(#a)">
<g transform="translate(491.57 995.49) scale(.1 -.1)">
<use xlink:href="#e"/>
<use x="61.279297" xlink:href="#g"/>
<use x="124.658203" xlink:href="#ag"/>
</g>
</g>
<g clip-path="url(#a)">
<g transform="translate(543.48 995.49) scale(.1 -.1)">
<use xlink:href="#an"/>
</g>
</g>
<g clip-path="url(#a)">
<g transform="translate(578.86 995.49) scale(.1 -.1)">
<use xlink:href="#t"/>
<use x="63.378906" xlink:href="#e"/>
<use x="124.658203" xlink:href="#ab"/>
<use x="183.837891" xlink:href="#d"/>
</g>
</g>
<g clip-path="url(#a)">
<g transform="translate(634.48 995.49) scale(.1 -.1)">
<use xlink:href="#q"/>
<use x="39.208984" xlink:href="#r"/>
</g>
</g>
<g clip-path="url(#a)">
<g transform="translate(681.44 995.49) scale(.1 -.1)">
<use xlink:href="#s"/>
<use x="52.099609" xlink:href="#e"/>
<use x="113.378906" xlink:href="#aq"/>
</g>
</g>
<g clip-path="url(#a)">
<g transform="translate(734.64 995.49) scale(.1 -.1)">
<use xlink:href="#q"/>
<use x="39.208984" xlink:href="#t"/>
<use x="102.587891" xlink:href="#d"/>
</g>
</g>
<g clip-path="url(#a)">
<defs>
<path id="az" d="m54.891 54.688-19.781-26.609 20.797-28.078h-10.594l-15.922 21.484-15.906-21.484h-10.609l21.25 28.609-19.438 26.078h10.594l14.5-19.484 14.5 19.484z"/>
</defs>
<g transform="translate(770.09 995.49) scale(.1 -.1)">
<use xlink:href="#d"/>
<use x="59.773438" xlink:href="#az"/>
<use x="118.953125" xlink:href="#as"/>
<use x="182.429688" xlink:href="#d"/>
<use x="243.953125" xlink:href="#f"/>
<use x="285.066406" xlink:href="#h"/>
<use x="312.849609" xlink:href="#d"/>
<use x="374.373047" xlink:href="#g"/>
<use x="437.751953" xlink:href="#w"/>
<use x="492.732422" xlink:href="#d"/>
</g>
</g>
<g clip-path="url(#a)">
<defs>
<path id="ar" d="m4.2031 54.688h8.9844l11.234-42.672 11.172 42.672h10.594l11.234-42.672 11.188 42.672h8.9844l-14.312-54.688h-10.594l-11.766 44.828-11.812-44.828h-10.609z"/>
</defs>
<g transform="translate(844.37 995.49) scale(.1 -.1)">
<use xlink:href="#ar"/>
<use x="81.787109" xlink:href="#h"/>
<use x="109.570312" xlink:href="#q"/>
<use x="148.779297" xlink:href="#t"/>
</g>
</g>
<g clip-path="url(#a)">
<defs>
<path id="am" d="m9.8125 72.906h14.703l18.594-49.609 18.703 49.609h14.703v-72.906h-9.625v64.016l-18.797-50h-9.9062l-18.797 50v-64.016h-9.5781z"/>
</defs>
<g transform="translate(895.19 995.49) scale(.1 -.1)">
<use xlink:href="#am"/>
<use x="86.279297" xlink:href="#h"/>
<use x="114.0625" xlink:href="#w"/>
<use x="169.042969" xlink:href="#t"/>
<use x="232.421875" xlink:href="#e"/>
<use x="293.701172" xlink:href="#d"/>
<use x="355.224609" xlink:href="#j"/>
</g>
</g>
<g clip-path="url(#a)">
<g transform="translate(966.5 995.49) scale(.1 -.1)">
<use xlink:href="#e"/>
<use x="61.279297" xlink:href="#g"/>
<use x="124.658203" xlink:href="#ag"/>
</g>
</g>
<g clip-path="url(#a)">
<defs>
<path id="aw" d="m19.672 34.812v-26.703h15.828q7.9531 0 11.781 3.2969 3.8438 3.2969 3.8438 10.078 0 6.8438-3.8438 10.078-3.8281 3.25-11.781 3.25zm0 29.984v-21.969h14.609q7.2188 0 10.75 2.7031 3.5469 2.7188 3.5469 8.2812 0 5.5156-3.5469 8.25-3.5312 2.7344-10.75 2.7344zm-9.8594 8.1094h25.203q11.281 0 17.375-4.6875 6.1094-4.6875 6.1094-13.328 0-6.7031-3.125-10.656t-9.1875-4.9219q7.2812-1.5625 11.312-6.5312 4.0312-4.9531 4.0312-12.375 0-9.7656-6.6406-15.094-6.6406-5.3125-18.906-5.3125h-26.172z"/>
</defs>
<g transform="translate(1022.3 995.49) scale(.1 -.1)">
<use xlink:href="#aw"/>
<use x="68.603516" xlink:href="#e"/>
<use x="129.882812" xlink:href="#f"/>
<use x="169.246094" xlink:href="#f"/>
<use x="208.109375" xlink:href="#d"/>
<use x="269.632812" xlink:href="#q"/>
<use x="308.841797" xlink:href="#q"/>
</g>
</g>
<g clip-path="url(#a)">
<g transform="translate(1091.2 995.49) scale(.1 -.1)">
<use xlink:href="#am"/>
<use x="86.279297" xlink:href="#r"/>
<use x="147.460938" xlink:href="#q"/>
<use x="186.669922" xlink:href="#r"/>
<use x="247.851562" xlink:href="#f"/>
</g>
</g>
<g clip-path="url(#a)">
<g transform="translate(1162.6 995.49) scale(.1 -.1)">
<use xlink:href="#p"/>
<use x="69.824219" xlink:href="#e"/>
<use x="131.103516" xlink:href="#f"/>
<use x="172.216797" xlink:href="#s"/>
</g>
</g>
<g clip-path="url(#a)">
<g transform="translate(1239.3 995.49) scale(.1 -.1)">
<use xlink:href="#r"/>
<use x="61.181641" xlink:href="#ak"/>
</g>
</g>
<g clip-path="url(#a)">
<defs>
<path id="at" d="m53.516 70.516v-9.625q-5.6094 2.6875-10.594 4-4.9844 1.3281-9.625 1.3281-8.0469 0-12.422-3.125t-4.375-8.8906q0-4.8438 2.9062-7.3125 2.9062-2.4531 11.016-3.9688l5.9531-1.2188q11.031-2.1094 16.281-7.4062t5.25-14.172q0-10.609-7.1094-16.078-7.0938-5.4688-20.812-5.4688-5.1719 0-11.016 1.1719-5.8281 1.1719-12.078 3.4688v10.156q6-3.3594 11.766-5.0781 5.7656-1.7031 11.328-1.7031 8.4375 0 13.031 3.3125 4.5938 3.3281 4.5938 9.4844 0 5.3594-3.2969 8.3906t-10.812 4.5469l-6.0156 1.1719q-11.031 2.1875-15.969 6.875-4.9219 4.6875-4.9219 13.047 0 9.6719 6.8125 15.234t18.766 5.5625q5.1406 0 10.453-0.9375 5.3281-0.92188 10.891-2.7656z"/>
</defs>
<g transform="translate(1307.3 995.49) scale(.1 -.1)">
<use xlink:href="#at"/>
<use x="63.476562" xlink:href="#e"/>
<use x="124.755859" xlink:href="#g"/>
</g>
</g>
<g clip-path="url(#a)">
<g transform="translate(1372.2 995.49) scale(.1 -.1)">
<use xlink:href="#v"/>
<use x="68.408203" xlink:href="#g"/>
<use x="131.787109" xlink:href="#q"/>
<use x="170.996094" xlink:href="#r"/>
<use x="232.177734" xlink:href="#g"/>
<use x="295.556641" xlink:href="#h"/>
<use x="323.339844" xlink:href="#r"/>
</g>
</g>
<g clip-path="url(#a)">
<g transform="translate(1458.7 995.49) scale(.1 -.1)">
<use xlink:href="#ar"/>
<use x="81.787109" xlink:href="#e"/>
<use x="143.066406" xlink:href="#s"/>
</g>
</g>
<g clip-path="url(#a)">
<g transform="translate(1538.3 995.49) scale(.1 -.1)">
<use xlink:href="#r"/>
<use x="61.181641" xlink:href="#g"/>
<use x="124.560547" xlink:href="#d"/>
</g>
</g>
<g clip-path="url(#a)">
<g transform="translate(1624.1 995.49) scale(.1 -.1)">
<use xlink:href="#r"/>
<use x="61.181641" xlink:href="#ak"/>
</g>
</g>
<g clip-path="url(#a)">
<g transform="translate(1704.3 995.49) scale(.1 -.1)">
<use xlink:href="#q"/>
<use x="39.208984" xlink:href="#t"/>
<use x="102.587891" xlink:href="#d"/>
</g>
</g>
<g clip-path="url(#a)">
<g transform="translate(1787.4 995.49) scale(.1 -.1)">
<use xlink:href="#al"/>
<use x="63.476562" xlink:href="#d"/>
<use x="125" xlink:href="#s"/>
<use x="177.099609" xlink:href="#q"/>
</g>
</g>
<g clip-path="url(#a)">
<defs>
<path id="i" d="m10.688 12.406h10.312v-12.406h-10.312z"/>
</defs>
<g transform="translate(1884.6 995.49) scale(.1 -.1)">
<use xlink:href="#i"/>
</g>
</g>
<g clip-path="url(#a)">
<g transform="translate(485.99 50.032) scale(.1 -.1)">
<use xlink:href="#c"/>
<use x="63.623047" xlink:href="#i"/>
<use x="95.410156" xlink:href="#c"/>
</g>
</g>
<g clip-path="url(#a)">
<defs>
<path id="m" d="m19.188 8.2969h34.422v-8.2969h-46.281v8.2969q5.6094 5.8125 15.297 15.594 9.7031 9.7969 12.188 12.641 4.7344 5.3125 6.6094 9 1.8906 3.6875 1.8906 7.25 0 5.8125-4.0781 9.4688-4.0781 3.6719-10.625 3.6719-4.6406 0-9.7969-1.6094-5.1406-1.6094-11-4.8906v9.9688q5.9531 2.3906 11.125 3.6094 5.1875 1.2188 9.4844 1.2188 11.328 0 18.062-5.6719 6.7344-5.6562 6.7344-15.125 0-4.5-1.6875-8.5312-1.6719-4.0156-6.125-9.4844-1.2188-1.4219-7.7656-8.1875-6.5312-6.7656-18.453-18.922z"/>
</defs>
<g transform="translate(196.63 367.73) scale(.1 -.1)">
<use xlink:href="#c"/>
<use x="63.623047" xlink:href="#i"/>
<use x="95.410156" xlink:href="#m"/>
</g>
</g>
<g clip-path="url(#a)">
<defs>
<path id="o" d="m40.578 39.312q7.0781-1.5156 11.047-6.3125 3.9844-4.7812 3.9844-11.812 0-10.781-7.4219-16.703-7.4219-5.9062-21.094-5.9062-4.5781 0-9.4375 0.90625t-10.031 2.7188v9.5156q4.0938-2.3906 8.9688-3.6094 4.8906-1.2188 10.219-1.2188 9.2656 0 14.125 3.6562t4.8594 10.641q0 6.4531-4.5156 10.078-4.5156 3.6406-12.562 3.6406h-8.5v8.1094h8.8906q7.2656 0 11.125 2.9062t3.8594 8.375q0 5.6094-3.9844 8.6094-3.9688 3.0156-11.391 3.0156-4.0625 0-8.7031-0.89062-4.6406-0.875-10.203-2.7188v8.7812q5.625 1.5625 10.531 2.3438t9.25 0.78125q11.234 0 17.766-5.1094 6.5469-5.0938 6.5469-13.781 0-6.0625-3.4688-10.234t-9.8594-5.7812z"/>
</defs>
<g transform="translate(493.03 840.71) scale(.1 -.1)">
<use xlink:href="#c"/>
<use x="63.623047" xlink:href="#i"/>
<use x="95.410156" xlink:href="#o"/>
</g>
</g>
<g clip-path="url(#a)">
<defs>
<path id="n" d="m37.797 64.312-24.906-38.922h24.906zm-2.5938 8.5938h12.406v-47.516h10.406v-8.2031h-10.406v-17.188h-9.8125v17.188h-32.906v9.5156z"/>
</defs>
<g transform="translate(768.31 209.04) scale(.1 -.1)">
<use xlink:href="#c"/>
<use x="63.623047" xlink:href="#i"/>
<use x="95.410156" xlink:href="#n"/>
</g>
</g>
<g clip-path="url(#a)">
<defs>
<path id="z" d="m33.016 40.375q-6.6406 0-10.531-4.5469-3.875-4.5312-3.875-12.438 0-7.8594 3.875-12.438 3.8906-4.5625 10.531-4.5625t10.516 4.5625q3.875 4.5781 3.875 12.438 0 7.9062-3.875 12.438-3.875 4.5469-10.516 4.5469zm19.578 30.922v-8.9844q-3.7188 1.75-7.5 2.6719-3.7812 0.9375-7.5 0.9375-9.7656 0-14.922-6.5938-5.1406-6.5938-5.875-19.922 2.875 4.25 7.2188 6.5156 4.3594 2.2656 9.5781 2.2656 10.984 0 17.359-6.6719 6.375-6.6562 6.375-18.125 0-11.234-6.6406-18.031-6.6406-6.7812-17.672-6.7812-12.656 0-19.344 9.6875-6.6875 9.7031-6.6875 28.109 0 17.281 8.2031 27.562t22.016 10.281q3.7188 0 7.5-0.73438t7.8906-2.1875z"/>
</defs>
<g transform="translate(537 840.71) scale(.1 -.1)">
<use xlink:href="#c"/>
<use x="63.623047" xlink:href="#i"/>
<use x="95.410156" xlink:href="#z"/>
</g>
</g>
<g clip-path="url(#a)">
<defs>
<path id="af" d="m8.2031 72.906h46.875v-4.2031l-26.469-68.703h-10.297l24.906 64.594h-35.016z"/>
</defs>
<g transform="translate(607.36 840.71) scale(.1 -.1)">
<use xlink:href="#c"/>
<use x="63.623047" xlink:href="#i"/>
<use x="95.410156" xlink:href="#af"/>
</g>
</g>
<g clip-path="url(#a)">
<defs>
<path id="y" d="m31.781 34.625q-7.0312 0-11.062-3.7656-4.0156-3.7656-4.0156-10.344 0-6.5938 4.0156-10.359 4.0312-3.7656 11.062-3.7656t11.078 3.7812q4.0625 3.7969 4.0625 10.344 0 6.5781-4.0312 10.344-4.0156 3.7656-11.109 3.7656zm-9.8594 4.1875q-6.3438 1.5625-9.8906 5.9062-3.5312 4.3594-3.5312 10.609 0 8.7344 6.2188 13.812 6.2344 5.0781 17.062 5.0781 10.891 0 17.094-5.0781t6.2031-13.812q0-6.25-3.5469-10.609-3.5312-4.3438-9.8281-5.9062 7.125-1.6562 11.094-6.5 3.9844-4.8281 3.9844-11.797 0-10.609-6.4688-16.281-6.4688-5.6562-18.531-5.6562-12.047 0-18.531 5.6562-6.4688 5.6719-6.4688 16.281 0 6.9688 4 11.797 4.0156 4.8438 11.141 6.5zm-3.6094 15.578q0-5.6562 3.5312-8.8281 3.5469-3.1719 9.9375-3.1719 6.3594 0 9.9375 3.1719 3.5938 3.1719 3.5938 8.8281 0 5.6719-3.5938 8.8438-3.5781 3.1719-9.9375 3.1719-6.3906 0-9.9375-3.1719-3.5312-3.1719-3.5312-8.8438z"/>
</defs>
<g transform="translate(682.12 840.71) scale(.1 -.1)">
<use xlink:href="#c"/>
<use x="63.623047" xlink:href="#i"/>
<use x="95.410156" xlink:href="#y"/>
</g>
</g>
<g clip-path="url(#a)">
<defs>
<path id="ae" d="m10.984 1.5156v8.9844q3.7188-1.7656 7.5156-2.6875 3.8125-0.92188 7.4844-0.92188 9.7656 0 14.906 6.5625 5.1562 6.5625 5.8906 19.953-2.8281-4.2031-7.1875-6.4531-4.3438-2.25-9.6094-2.25-10.938 0-17.312 6.6094-6.375 6.625-6.375 18.109 0 11.219 6.6406 18 6.6406 6.7969 17.672 6.7969 12.656 0 19.312-9.7031 6.6719-9.6875 6.6719-28.141 0-17.234-8.1875-27.516-8.1719-10.281-21.984-10.281-3.7188 0-7.5312 0.73438-3.7969 0.73438-7.9062 2.2031zm19.625 30.906q6.6406 0 10.516 4.5312 3.8906 4.5469 3.8906 12.469 0 7.8594-3.8906 12.422-3.875 4.5625-10.516 4.5625t-10.516-4.5625-3.875-12.422q0-7.9219 3.875-12.469 3.875-4.5312 10.516-4.5312z"/>
</defs>
<g transform="translate(1246.7 367.73) scale(.1 -.1)">
<use xlink:href="#c"/>
<use x="63.623047" xlink:href="#i"/>
<use x="95.410156" xlink:href="#ae"/>
</g>
</g>
<g clip-path="url(#a)">
<defs>
<path id="aj" d="m31.781 66.406q-7.6094 0-11.453-7.5-3.8281-7.4844-3.8281-22.531 0-14.984 3.8281-22.484 3.8438-7.5 11.453-7.5 7.6719 0 11.5 7.5 3.8438 7.5 3.8438 22.484 0 15.047-3.8438 22.531-3.8281 7.5-11.5 7.5zm0 7.8125q12.266 0 18.734-9.7031 6.4688-9.6875 6.4688-28.141 0-18.406-6.4688-28.109-6.4688-9.6875-18.734-9.6875-12.25 0-18.719 9.6875-6.4688 9.7031-6.4688 28.109 0 18.453 6.4688 28.141 6.4688 9.7031 18.719 9.7031z"/>
</defs>
<g transform="translate(759.19 683.78) scale(.1 -.1)">
<use xlink:href="#c"/>
<use x="63.623047" xlink:href="#i"/>
<use x="95.410156" xlink:href="#c"/>
<use x="159.033203" xlink:href="#aj"/>
</g>
</g>
<g clip-path="url(#a)">
<g transform="translate(1054.2 526.02) scale(.1 -.1)">
<use xlink:href="#c"/>
<use x="63.623047" xlink:href="#i"/>
<use x="95.410156" xlink:href="#c"/>
<use x="159.033203" xlink:href="#c"/>
</g>
</g>
<g clip-path="url(#a)">
<g transform="translate(1457.3 840.71) scale(.1 -.1)">
<use xlink:href="#c"/>
<use x="63.623047" xlink:href="#i"/>
<use x="95.410156" xlink:href="#c"/>
<use x="159.033203" xlink:href="#m"/>
</g>
</g>
<g clip-path="url(#a)">
<g transform="translate(1703.5 683.78) scale(.1 -.1)">
<use xlink:href="#c"/>
<use x="63.623047" xlink:href="#i"/>
<use x="95.410156" xlink:href="#c"/>
<use x="159.033203" xlink:href="#o"/>
</g>
</g>
<g clip-path="url(#a)">
<g transform="translate(1536.4 840.71) scale(.1 -.1)">
<use xlink:href="#c"/>
<use x="63.623047" xlink:href="#i"/>
<use x="95.410156" xlink:href="#c"/>
<use x="159.033203" xlink:href="#n"/>
</g>
</g>
<g clip-path="url(#a)">
<g transform="translate(1617.8 840.71) scale(.1 -.1)">
<use xlink:href="#c"/>
<use x="63.623047" xlink:href="#i"/>
<use x="95.410156" xlink:href="#c"/>
<use x="159.033203" xlink:href="#aa"/>
</g>
</g>
<g clip-path="url(#a)">
<g transform="translate(1701.3 840.71) scale(.1 -.1)">
<use xlink:href="#c"/>
<use x="63.623047" xlink:href="#i"/>
<use x="95.410156" xlink:href="#c"/>
<use x="159.033203" xlink:href="#z"/>
</g>
</g>
<g clip-path="url(#a)">
<g transform="translate(1787.1 840.71) scale(.1 -.1)">
<use xlink:href="#c"/>
<use x="63.623047" xlink:href="#i"/>
<use x="95.410156" xlink:href="#c"/>
<use x="159.033203" xlink:href="#af"/>
</g>
</g>
<g clip-path="url(#a)">
<g transform="translate(843.84 840.71) scale(.1 -.1)">
<use xlink:href="#c"/>
<use x="63.623047" xlink:href="#i"/>
<use x="95.410156" xlink:href="#c"/>
<use x="159.033203" xlink:href="#y"/>
</g>
</g>
<g clip-path="url(#a)">
<g transform="translate(1030.7 840.71) scale(.1 -.1)">
<use xlink:href="#c"/>
<use x="63.623047" xlink:href="#i"/>
<use x="95.410156" xlink:href="#c"/>
<use x="159.033203" xlink:href="#ae"/>
</g>
</g>
<g clip-path="url(#a)">
<g transform="translate(1288 683.78) scale(.1 -.1)">
<use xlink:href="#c"/>
<use x="63.623047" xlink:href="#i"/>
<use x="95.410156" xlink:href="#m"/>
<use x="159.033203" xlink:href="#aj"/>
</g>
</g>
<g clip-path="url(#a)">
<g transform="translate(1233 840.71) scale(.1 -.1)">
<use xlink:href="#c"/>
<use x="63.623047" xlink:href="#i"/>
<use x="95.410156" xlink:href="#m"/>
<use x="159.033203" xlink:href="#c"/>
</g>
</g>
<g clip-path="url(#a)">
<g transform="translate(1343 840.71) scale(.1 -.1)">
<use xlink:href="#c"/>
<use x="63.623047" xlink:href="#i"/>
<use x="95.410156" xlink:href="#m"/>
<use x="159.033203" xlink:href="#m"/>
</g>
</g>
<g clip-path="url(#a)">
<g transform="translate(731.71 840.71) scale(.1 -.1)">
<use xlink:href="#c"/>
<use x="63.623047" xlink:href="#i"/>
<use x="95.410156" xlink:href="#m"/>
<use x="159.033203" xlink:href="#o"/>
</g>
</g>
<g clip-path="url(#a)">
<g transform="translate(786.68 840.71) scale(.1 -.1)">
<use xlink:href="#c"/>
<use x="63.623047" xlink:href="#i"/>
<use x="95.410156" xlink:href="#m"/>
<use x="159.033203" xlink:href="#n"/>
</g>
</g>
<g clip-path="url(#a)">
<g transform="translate(78.685 840.71) scale(.1 -.1)">
<use xlink:href="#c"/>
<use x="63.623047" xlink:href="#i"/>
<use x="95.410156" xlink:href="#m"/>
<use x="159.033203" xlink:href="#aa"/>
</g>
</g>
<g clip-path="url(#a)">
<g transform="translate(85.282 840.71) scale(.1 -.1)">
<use xlink:href="#c"/>
<use x="63.623047" xlink:href="#i"/>
<use x="95.410156" xlink:href="#m"/>
<use x="159.033203" xlink:href="#z"/>
</g>
</g>
<g clip-path="url(#a)">
<g transform="translate(94.076 840.71) scale(.1 -.1)">
<use xlink:href="#c"/>
<use x="63.623047" xlink:href="#i"/>
<use x="95.410156" xlink:href="#m"/>
<use x="159.033203" xlink:href="#af"/>
</g>
</g>
<g clip-path="url(#a)">
<g transform="translate(157.47 526.02) scale(.1 -.1)">
<use xlink:href="#c"/>
<use x="63.623047" xlink:href="#i"/>
<use x="95.410156" xlink:href="#m"/>
<use x="159.033203" xlink:href="#y"/>
</g>
</g>
<g clip-path="url(#a)">
<g transform="translate(409.23 683.78) scale(.1 -.1)">
<use xlink:href="#c"/>
<use x="63.623047" xlink:href="#i"/>
<use x="95.410156" xlink:href="#m"/>
<use x="159.033203" xlink:href="#ae"/>
</g>
</g>
<g clip-path="url(#a)">
<g transform="translate(371.12 840.71) scale(.1 -.1)">
<use xlink:href="#c"/>
<use x="63.623047" xlink:href="#i"/>
<use x="95.410156" xlink:href="#o"/>
<use x="159.033203" xlink:href="#c"/>
</g>
</g>
<g clip-path="url(#a)">
<g transform="translate(408.5 840.71) scale(.1 -.1)">
<use xlink:href="#c"/>
<use x="63.623047" xlink:href="#i"/>
<use x="95.410156" xlink:href="#o"/>
<use x="159.033203" xlink:href="#m"/>
</g>
</g>
<g clip-path="url(#a)">
<g transform="translate(448.07 840.71) scale(.1 -.1)">
<use xlink:href="#c"/>
<use x="63.623047" xlink:href="#i"/>
<use x="95.410156" xlink:href="#o"/>
<use x="159.033203" xlink:href="#o"/>
</g>
</g>
<g clip-path="url(#a)">
<g transform="translate(111.67 683.78) scale(.1 -.1)">
<use xlink:href="#c"/>
<use x="63.623047" xlink:href="#i"/>
<use x="95.410156" xlink:href="#o"/>
<use x="159.033203" xlink:href="#n"/>
</g>
</g>
<g clip-path="url(#a)">
<g transform="translate(133.65 840.71) scale(.1 -.1)">
<use xlink:href="#c"/>
<use x="63.623047" xlink:href="#i"/>
<use x="95.410156" xlink:href="#o"/>
<use x="159.033203" xlink:href="#aa"/>
</g>
</g>
<g clip-path="url(#a)">
<g transform="translate(233.33 683.78) scale(.1 -.1)">
<use xlink:href="#c"/>
<use x="63.623047" xlink:href="#i"/>
<use x="95.410156" xlink:href="#o"/>
<use x="159.033203" xlink:href="#z"/>
</g>
</g>
<g clip-path="url(#a)">
<g transform="translate(171.03 840.71) scale(.1 -.1)">
<use xlink:href="#c"/>
<use x="63.623047" xlink:href="#i"/>
<use x="95.410156" xlink:href="#o"/>
<use x="159.033203" xlink:href="#y"/>
</g>
</g>
<g clip-path="url(#a)">
<g transform="translate(217.21 840.71) scale(.1 -.1)">
<use xlink:href="#c"/>
<use x="63.623047" xlink:href="#i"/>
<use x="95.410156" xlink:href="#o"/>
<use x="159.033203" xlink:href="#ae"/>
</g>
</g>
<g clip-path="url(#a)">
<g transform="translate(272.17 840.71) scale(.1 -.1)">
<use xlink:href="#c"/>
<use x="63.623047" xlink:href="#i"/>
<use x="95.410156" xlink:href="#n"/>
<use x="159.033203" xlink:href="#aj"/>
</g>
</g>
<g clip-path="url(#a)">
<g transform="translate(302.96 840.71) scale(.1 -.1)">
<use xlink:href="#c"/>
<use x="63.623047" xlink:href="#i"/>
<use x="95.410156" xlink:href="#n"/>
<use x="159.033203" xlink:href="#c"/>
</g>
</g>
<g clip-path="url(#a)">
<g transform="translate(151.24 840.71) scale(.1 -.1)">
<use xlink:href="#c"/>
<use x="63.623047" xlink:href="#i"/>
<use x="95.410156" xlink:href="#n"/>
<use x="159.033203" xlink:href="#m"/>
</g>
</g>
<g clip-path="url(#a)">
<g transform="translate(193.02 840.71) scale(.1 -.1)">
<use xlink:href="#c"/>
<use x="63.623047" xlink:href="#i"/>
<use x="95.410156" xlink:href="#n"/>
<use x="159.033203" xlink:href="#o"/>
</g>
</g>
<g clip-path="url(#a)">
<g transform="translate(105.07 840.71) scale(.1 -.1)">
<use xlink:href="#c"/>
<use x="63.623047" xlink:href="#i"/>
<use x="95.410156" xlink:href="#n"/>
<use x="159.033203" xlink:href="#n"/>
</g>
</g>
<g clip-path="url(#a)">
<g transform="translate(118.26 840.71) scale(.1 -.1)">
<use xlink:href="#c"/>
<use x="63.623047" xlink:href="#i"/>
<use x="95.410156" xlink:href="#n"/>
<use x="159.033203" xlink:href="#aa"/>
</g>
</g>
<g clip-path="url(#a)">
<g transform="translate(243.59 840.71) scale(.1 -.1)">
<use xlink:href="#c"/>
<use x="63.623047" xlink:href="#i"/>
<use x="95.410156" xlink:href="#n"/>
<use x="159.033203" xlink:href="#z"/>
</g>
</g>
<g clip-path="url(#a)">
<g transform="translate(335.94 840.71) scale(.1 -.1)">
<use xlink:href="#c"/>
<use x="63.623047" xlink:href="#i"/>
<use x="95.410156" xlink:href="#n"/>
<use x="159.033203" xlink:href="#af"/>
</g>
</g>
<g clip-path="url(#a)">
<g transform="translate(1875 840.71) scale(.1 -.1)">
<use xlink:href="#c"/>
<use x="63.623047" xlink:href="#i"/>
<use x="95.410156" xlink:href="#n"/>
<use x="159.033203" xlink:href="#y"/>
</g>
</g>
<defs>
<clipPath id="a">
<rect width="1976" height="1040"/>
</clipPath>
</defs>
</svg>
