<?xml version="1.0" encoding="UTF-8"?>
<!DOCTYPE svg  PUBLIC '-//W3C//DTD SVG 1.1//EN'  'http://www.w3.org/Graphics/SVG/1.1/DTD/svg11.dtd'>
<svg width="1165.3pt" height="613.33pt" version="1.1" viewBox="0 0 1165.3 613.33" xmlns="http://www.w3.org/2000/svg" xmlns:xlink="http://www.w3.org/1999/xlink">
<metadata>
<rdf:RDF xmlns:cc="http://creativecommons.org/ns#" xmlns:dc="http://purl.org/dc/elements/1.1/" xmlns:rdf="http://www.w3.org/1999/02/22-rdf-syntax-ns#">
<cc:Work>
<dc:type rdf:resource="http://purl.org/dc/dcmitype/StillImage"/>
<dc:date>2021-02-25T11:36:53.266498</dc:date>
<dc:format>image/svg+xml</dc:format>
<dc:creator>
<cc:Agent>
<dc:title>Matplotlib v3.3.3, https://matplotlib.org/</dc:title>
</cc:Agent>
</dc:creator>
</cc:Work>
</rdf:RDF>
</metadata>
<defs>
<style type="text/css">*{stroke-linecap:butt;stroke-linejoin:round;}</style>
</defs>
<path d="m0 613.33h1165.3v-613.33h-1165.3z" fill="#fff"/>
<g fill="none" stroke="#000">
<path d="m400.56 27.879-284.32 224.73" clip-path="url(#a)"/>
<path d="m400.56 27.879-159.81 447.84" clip-path="url(#a)"/>
<path d="m400.56 27.879-1.9403 112.51" clip-path="url(#a)"/>
<path d="m400.56 27.879 446.07 336.58" clip-path="url(#a)"/>
<path d="m116.24 252.61 89.084 111.84" clip-path="url(#a)"/>
<path d="m116.24 252.61-63.27 223.11" clip-path="url(#a)"/>
<path d="m116.24 252.61-52.641 223.11" clip-path="url(#a)"/>
<path d="m116.24 252.61-38.468 223.11" clip-path="url(#a)"/>
<path d="m116.24 252.61-10.123 111.84" clip-path="url(#a)"/>
<path d="m116.24 252.61 25.308 223.11" clip-path="url(#a)"/>
<path d="m116.24 252.61 53.653 223.11" clip-path="url(#a)"/>
<path d="m116.24 252.61 85.541 223.11" clip-path="url(#a)"/>
<path d="m240.76 475.72v109.73" clip-path="url(#a)"/>
<path d="m398.62 140.39-118.89 335.33" clip-path="url(#a)"/>
<path d="m398.62 140.39-76.374 335.33" clip-path="url(#a)"/>
<path d="m398.62 140.39-30.313 335.33" clip-path="url(#a)"/>
<path d="m398.62 140.39 19.29 335.33" clip-path="url(#a)"/>
<path d="m398.62 140.39 206.29 112.23" clip-path="url(#a)"/>
<path d="m846.63 364.46 21.259 111.26" clip-path="url(#a)"/>
<path d="m846.63 364.46 99.207 111.26" clip-path="url(#a)"/>
<path d="m846.63 364.46 180.7 111.26" clip-path="url(#a)"/>
<path d="m846.63 364.46-566.9 111.26" clip-path="url(#a)" stroke-dasharray="3.7,1.6"/>
<path d="m846.63 364.46 265.73 111.26" clip-path="url(#a)"/>
<path d="m867.89 475.72v109.73" clip-path="url(#a)"/>
<path d="m945.84 475.72v109.73" clip-path="url(#a)"/>
<path d="m1027.3 475.72v109.73" clip-path="url(#a)"/>
<path d="m279.73 475.72v109.73" clip-path="url(#a)"/>
<path d="m322.25 475.72v109.73" clip-path="url(#a)"/>
<path d="m368.31 475.72v109.73" clip-path="url(#a)"/>
<path d="m417.91 475.72v109.73" clip-path="url(#a)"/>
<path d="m604.91 252.61 188.57 111.84" clip-path="url(#a)"/>
<path d="m604.91 252.61-133.85 223.11" clip-path="url(#a)"/>
<path d="m604.91 252.61-15.747 111.84" clip-path="url(#a)"/>
<path d="m604.91 252.61 149.6 111.84" clip-path="url(#a)"/>
<path d="m471.06 475.72v109.73" clip-path="url(#a)"/>
<path d="m589.16 364.46-61.414 111.26" clip-path="url(#a)"/>
<path d="m589.16 364.46-1.181 111.26" clip-path="url(#a)"/>
<path d="m589.16 364.46 62.595 111.26" clip-path="url(#a)"/>
<path d="m754.51 364.46-35.431 111.26" clip-path="url(#a)"/>
<path d="m754.51 364.46 35.431 111.26" clip-path="url(#a)"/>
<path d="m719.08 475.72v109.73" clip-path="url(#a)"/>
<path d="m789.94 475.72v109.73" clip-path="url(#a)"/>
<path d="m527.75 475.72v109.73" clip-path="url(#a)"/>
<path d="m587.98 475.72v109.73" clip-path="url(#a)"/>
<path d="m651.76 475.72v109.73" clip-path="url(#a)"/>
<path d="m52.97 475.72v109.73" clip-path="url(#a)"/>
<path d="m63.599 475.72v109.73" clip-path="url(#a)"/>
<path d="m77.772 475.72v109.73" clip-path="url(#a)"/>
<path d="m106.12 364.46-10.629 111.26" clip-path="url(#a)"/>
<path d="m106.12 364.46 10.629 111.26" clip-path="url(#a)"/>
<path d="m141.55 475.72v109.73" clip-path="url(#a)"/>
<path d="m169.89 475.72v109.73" clip-path="url(#a)"/>
<path d="m201.78 475.72v109.73" clip-path="url(#a)"/>
<path d="m95.487 475.72v109.73" clip-path="url(#a)"/>
<path d="m116.75 475.72v109.73" clip-path="url(#a)"/>
<path d="m1112.4 475.72v109.73" clip-path="url(#a)"/>
</g>
<path d="m259.93 147.03 4.7199-3.7307q1.8828-1.4882 0.3946-3.3711l-4.8012-6.0741q-1.4882-1.8828-3.3711-0.3946l-4.7199 3.7307q-1.8828 1.4882-0.3946 3.3711l4.8012 6.0741q1.4882 1.8828 3.3711 0.3946z" clip-path="url(#a)" fill="#fff" stroke="#fff"/>
<g clip-path="url(#a)">
<g transform="translate(257.41 143.84) rotate(-38.324) scale(.08 -.08)">
<defs>
<path id="z" d="m9.8125 72.906h9.8594v-29.891h35.844v29.891h9.8594v-72.906h-9.8594v34.719h-35.844v-34.719h-9.8594z"/>
</defs>
<use xlink:href="#z"/>
</g>
</g>
<path d="m325.82 256.01 1.4981-4.1982q0.80659-2.2604-1.4538-3.067l-7.2921-2.6021q-2.2604-0.80659-3.067 1.4538l-1.4981 4.1982q-0.80659 2.2604 1.4538 3.067l7.2921 2.6021q2.2604 0.80659 3.067-1.4538z" clip-path="url(#a)" fill="#fff" stroke="#fff"/>
<g clip-path="url(#a)">
<g transform="translate(321.99 254.64) rotate(-70.362) scale(.08 -.08)">
<defs>
<path id="y" d="m9.8125 72.906h9.8594v-64.609h35.5v-8.2969h-45.359z"/>
</defs>
<use xlink:href="#y"/>
</g>
</g>
<path d="m405.81 87.249 0.10374-6.0154q0.041383-2.3996-2.3583-2.441l-7.7413-0.1335q-2.3996-0.041383-2.441 2.3583l-0.10374 6.0154q-0.041383 2.3996 2.3583 2.441l7.7413 0.1335q2.3996 0.041383 2.441-2.3583z" clip-path="url(#a)" fill="#fff" stroke="#fff"/>
<g clip-path="url(#a)">
<g transform="translate(401.75 87.179) rotate(-89.012) scale(.08 -.08)">
<use xlink:href="#z"/>
</g>
</g>
<path d="m617.42 199.36 4.8025 3.6237q1.9158 1.4456 3.3614-0.47024l4.6635-6.1805q1.4456-1.9158-0.47024-3.3614l-4.8025-3.6237q-1.9158-1.4456-3.3614 0.47024l-4.6635 6.1805q-1.4456 1.9158 0.47024 3.3614z" clip-path="url(#a)" fill="#fff" stroke="#fff"/>
<g clip-path="url(#a)">
<g transform="translate(619.86 196.12) rotate(37.036) scale(.08 -.08)">
<use xlink:href="#z"/>
</g>
</g>
<path d="m154.17 310.3 3.4095 4.2806q1.4953 1.8773 3.3725 0.38203l6.0562-4.8238q1.8773-1.4953 0.38203-3.3725l-3.4095-4.2806q-1.4953-1.8773-3.3725-0.38203l-6.0562 4.8238q-1.8773 1.4953-0.38203 3.3725z" clip-path="url(#a)" fill="#fff" stroke="#fff"/>
<g clip-path="url(#a)">
<g transform="translate(157.35 307.77) rotate(51.463) scale(.08 -.08)">
<defs>
<path id="t" d="m34.188 63.188-13.391-36.281h26.812zm-5.5781 9.7188h11.188l27.781-72.906h-10.25l-6.6406 18.703h-32.859l-6.6406-18.703h-10.406z"/>
</defs>
<use xlink:href="#t"/>
</g>
</g>
<path d="m90.01 368.09 1.2554-4.4267q0.65479-2.309-1.6542-2.9637l-7.4488-2.1124q-2.309-0.65479-2.9637 1.6542l-1.2554 4.4267q-0.65479 2.309 1.6542 2.9637l7.4488 2.1124q2.309 0.65479 2.9637-1.6542z" clip-path="url(#a)" fill="#fff" stroke="#fff"/>
<g clip-path="url(#a)">
<g transform="translate(86.101 366.98) rotate(-74.167) scale(.08 -.08)">
<defs>
<path id="s" d="m9.8125 72.906h41.891v-8.3125h-32.031v-21.484h28.906v-8.2969h-28.906v-34.812h-9.8594z"/>
</defs>
<use xlink:href="#s"/>
</g>
</g>
<path d="m95.495 367.85 1.0566-4.4783q0.55113-2.3359-1.7847-2.887l-7.5356-1.778q-2.3359-0.55113-2.887 1.7847l-1.0566 4.4783q-0.55113 2.3359 1.7847 2.887l7.5356 1.778q2.3359 0.55113 2.887-1.7847z" clip-path="url(#a)" fill="#fff" stroke="#fff"/>
<g clip-path="url(#a)">
<g transform="translate(91.54 366.91) rotate(-76.724) scale(.08 -.08)">
<use xlink:href="#s"/>
</g>
</g>
<path d="m102.66 368.27 1.0467-6.0704q0.40779-2.3651-1.9573-2.7729l-7.6299-1.3156q-2.3651-0.40779-2.7729 1.9573l-1.0467 6.0704q-0.40779 2.3651 1.9573 2.7729l7.6299 1.3156q2.3651 0.40779 2.7729-1.9573z" clip-path="url(#a)" fill="#fff" stroke="#fff"/>
<g clip-path="url(#a)">
<g transform="translate(98.658 367.58) rotate(-80.217) scale(.08 -.08)">
<defs>
<path id="u" d="m19.672 64.797v-56.688h11.922q15.094 0 22.094 6.8281 7 6.8438 7 21.594 0 14.641-7 21.453t-22.094 6.8125zm-9.8594 8.1094h20.266q21.188 0 31.094-8.8125 9.9219-8.8125 9.9219-27.562 0-18.859-9.9688-27.703-9.9531-8.8281-31.047-8.8281h-20.266z"/>
</defs>
<use xlink:href="#u"/>
</g>
</g>
<path d="m117.15 312.17 0.55528-6.1349q0.21634-2.3902-2.1739-2.6066l-7.711-0.69793q-2.3902-0.21634-2.6066 2.1739l-0.55528 6.1349q-0.21634 2.3902 2.1739 2.6066l7.711 0.69793q2.3902 0.21634 2.6066-2.1739z" clip-path="url(#a)" fill="#fff" stroke="#fff"/>
<g clip-path="url(#a)">
<g transform="translate(113.1 311.8) rotate(-84.828) scale(.08 -.08)">
<use xlink:href="#u"/>
</g>
</g>
<path d="m122.4 362.59 0.51862 4.5719q0.27051 2.3847 2.6552 2.1142l7.6932-0.87267q2.3847-0.27051 2.1142-2.6552l-0.51862-4.5719q-0.27051-2.3847-2.6552-2.1142l-7.6932 0.87267q-2.3847 0.27051-2.1142 2.6552z" clip-path="url(#a)" fill="#fff" stroke="#fff"/>
<g clip-path="url(#a)">
<g transform="translate(126.44 362.13) rotate(83.528) scale(.08 -.08)">
<use xlink:href="#s"/>
</g>
</g>
<path d="m136.4 363.29 1.1279 4.69q0.56116 2.3335 2.8946 1.7723l7.5279-1.8103q2.3335-0.56116 1.7723-2.8946l-1.1279-4.69q-0.56116-2.3335-2.8946-1.7723l-7.5279 1.8103q-2.3335 0.56116-1.7723 2.8946z" clip-path="url(#a)" fill="#fff" stroke="#fff"/>
<g clip-path="url(#a)">
<g transform="translate(140.36 362.34) rotate(76.478) scale(.08 -.08)">
<defs>
<path id="r" d="m19.672 64.797v-27.391h12.406q6.8906 0 10.641 3.5625 3.7656 3.5625 3.7656 10.156 0 6.5469-3.7656 10.109-3.75 3.5625-10.641 3.5625zm-9.8594 8.1094h22.266q12.266 0 18.531-5.5469 6.2812-5.5469 6.2812-16.234 0-10.797-6.2812-16.312-6.2656-5.5156-18.531-5.5156h-12.406v-29.297h-9.8594z"/>
</defs>
<use xlink:href="#r"/>
</g>
</g>
<path d="m152.05 363.54 2.2053 5.7517q0.8592 2.2409 3.1001 1.3817l7.2293-2.7718q2.2409-0.8592 1.3817-3.1001l-2.2053-5.7517q-0.8592-2.2409-3.1001-1.3817l-7.2293 2.7718q-2.2409 0.8592-1.3817 3.1001z" clip-path="url(#a)" fill="#fff" stroke="#fff"/>
<g clip-path="url(#a)">
<g transform="translate(155.85 362.08) rotate(69.023) scale(.08 -.08)">
<use xlink:href="#u"/>
</g>
</g>
<path d="m234.48 513.68v33.808q0 2.4 2.4 2.4h7.7425q2.4 0 2.4-2.4v-33.808q0-2.4-2.4-2.4h-7.7425q-2.4 0-2.4 2.4z" clip-path="url(#a)" fill="#fff" stroke="#fff"/>
<g clip-path="url(#a)">
<g transform="translate(238.55 513.68) rotate(90) scale(.08 -.08)">
<defs>
<path id="k" d="m-0.29688 72.906h61.672v-8.3125h-25.875v-64.594h-9.9062v64.594h-25.891z"/>
<path id="d" d="m56.203 29.594v-4.3906h-41.312q0.59375-9.2812 5.5938-14.141t13.938-4.8594q5.1719 0 10.031 1.2656t9.6562 3.8125v-8.5q-4.8438-2.0469-9.9219-3.125t-10.297-1.0781q-13.094 0-20.734 7.6094-7.6406 7.625-7.6406 20.625 0 13.422 7.25 21.297 7.25 7.8906 19.562 7.8906 11.031 0 17.453-7.1094 6.4219-7.0938 6.4219-19.297zm-8.9844 2.6406q-0.09375 7.3594-4.125 11.75-4.0312 4.4062-10.672 4.4062-7.5156 0-12.031-4.25t-5.2031-11.969z"/>
<path id="h" d="m41.109 46.297q-1.5156 0.875-3.2969 1.2812-1.7812 0.42188-3.9219 0.42188-7.625 0-11.703-4.9531t-4.0781-14.234v-28.812h-9.0312v54.688h9.0312v-8.5q2.8438 4.9844 7.375 7.3906 4.5469 2.4219 11.047 2.4219 0.92188 0 2.0469-0.125 1.125-0.10938 2.4844-0.35938z"/>
<path id="l" d="m52 44.188q3.375 6.0625 8.0625 8.9375t11.031 2.875q8.5469 0 13.188-5.9844 4.6406-5.9688 4.6406-17v-33.016h-9.0312v32.719q0 7.8594-2.7969 11.656-2.7812 3.8125-8.4844 3.8125-6.9844 0-11.047-4.6406-4.0469-4.625-4.0469-12.641v-30.906h-9.0312v32.719q0 7.9062-2.7812 11.688t-8.5938 3.7812q-6.8906 0-10.953-4.6562-4.0469-4.6562-4.0469-12.625v-30.906h-9.0312v54.688h9.0312v-8.5q3.0781 5.0312 7.375 7.4219t10.203 2.3906q5.9688 0 10.141-3.0312 4.1719-3.0156 6.1719-8.7812z"/>
<path id="j" d="m9.4219 54.688h8.9844v-54.688h-8.9844zm0 21.297h8.9844v-11.391h-8.9844z"/>
<path id="e" d="m54.891 33.016v-33.016h-8.9844v32.719q0 7.7656-3.0312 11.609-3.0312 3.8594-9.0781 3.8594-7.2812 0-11.484-4.6406-4.2031-4.625-4.2031-12.641v-30.906h-9.0312v54.688h9.0312v-8.5q3.2344 4.9375 7.5938 7.375 4.375 2.4375 10.094 2.4375 9.4219 0 14.25-5.8281 4.8438-5.8281 4.8438-17.156z"/>
<path id="f" d="m34.281 27.484q-10.891 0-15.094-2.4844t-4.2031-8.5q0-4.7812 3.1562-7.5938 3.1562-2.7969 8.5625-2.7969 7.4844 0 12 5.2969t4.5156 14.078v2zm17.922 3.7188v-31.203h-8.9844v8.2969q-3.0781-4.9688-7.6719-7.3438t-11.234-2.375q-8.3906 0-13.359 4.7188-4.9531 4.7188-4.9531 12.625 0 9.2188 6.1719 13.906 6.1875 4.6875 18.438 4.6875h12.609v0.89062q0 6.2031-4.0781 9.5938t-11.453 3.3906q-4.6875 0-9.1406-1.125-4.4375-1.125-8.5312-3.375v8.3125q4.9219 1.9062 9.5625 2.8438 4.6406 0.95312 9.0312 0.95312 11.875 0 17.734-6.1562 5.8594-6.1406 5.8594-18.641z"/>
<path id="i" d="m9.4219 75.984h8.9844v-75.984h-8.9844z"/>
</defs>
<use xlink:href="#k"/>
<use x="44.083984" xlink:href="#d"/>
<use x="105.607422" xlink:href="#h"/>
<use x="144.970703" xlink:href="#l"/>
<use x="242.382812" xlink:href="#j"/>
<use x="270.166016" xlink:href="#e"/>
<use x="333.544922" xlink:href="#f"/>
<use x="394.824219" xlink:href="#i"/>
</g>
</g>
<path d="m344.17 312.73 1.8287-5.1579q0.802-2.262-1.46-3.064l-7.2974-2.5873q-2.262-0.802-3.064 1.46l-1.8287 5.1579q-0.802 2.262 1.46 3.064l7.2974 2.5873q2.262 0.802 3.064-1.46z" clip-path="url(#a)" fill="#fff" stroke="#fff"/>
<g clip-path="url(#a)">
<g transform="translate(340.34 311.37) rotate(-70.478) scale(.08 -.08)">
<use xlink:href="#t"/>
</g>
</g>
<path d="m365.94 312.11 1.2153-5.3359q0.53297-2.3401-1.8071-2.873l-7.5492-1.7194q-2.3401-0.53297-2.873 1.8071l-1.2153 5.3359q-0.53297 2.3401 1.8071 2.873l7.5492 1.7194q2.3401 0.53297 2.873-1.8071z" clip-path="url(#a)" fill="#fff" stroke="#fff"/>
<g clip-path="url(#a)">
<g transform="translate(361.98 311.21) rotate(-77.169) scale(.08 -.08)">
<use xlink:href="#t"/>
</g>
</g>
<path d="m389.43 311.69 0.55459-6.135q0.21607-2.3903-2.1742-2.6063l-7.7111-0.69707q-2.3903-0.21608-2.6063 2.1742l-0.55459 6.135q-0.21607 2.3903 2.1742 2.6063l7.7111 0.69707q2.3903 0.21608 2.6063-2.1742z" clip-path="url(#a)" fill="#fff" stroke="#fff"/>
<g clip-path="url(#a)">
<g transform="translate(385.39 311.32) rotate(-84.835) scale(.08 -.08)">
<use xlink:href="#u"/>
</g>
</g>
<path d="m401.87 306.01 0.27703 4.8158q0.13784 2.396 2.5339 2.2582l7.7297-0.44466q2.396-0.13784 2.2582-2.5339l-0.27703-4.8158q-0.13783-2.396-2.5339-2.2582l-7.7297 0.44466q-2.396 0.13784-2.2582 2.5339z" clip-path="url(#a)" fill="#fff" stroke="#fff"/>
<g clip-path="url(#a)">
<g transform="translate(405.92 305.77) rotate(86.708) scale(.08 -.08)">
<use xlink:href="#r"/>
</g>
</g>
<path d="m496.36 200.7 4.8072 2.6152q2.1082 1.1469 3.2551-0.9613l3.7-6.8012q1.1469-2.1082-0.9613-3.2551l-4.8072-2.6152q-2.1082-1.1469-3.2551 0.9613l-3.7 6.8012q-1.1469 2.1082 0.9613 3.2551z" clip-path="url(#a)" fill="#fff" stroke="#fff"/>
<g clip-path="url(#a)">
<g transform="translate(498.31 197.13) rotate(28.547) scale(.08 -.08)">
<use xlink:href="#t"/>
</g>
</g>
<path d="m850.67 419.01 0.86354 4.5195q0.45042 2.3574 2.8078 1.9069l7.6049-1.4531q2.3574-0.45042 1.9069-2.8078l-0.86354-4.5195q-0.45042-2.3574-2.8078-1.9069l-7.6049 1.4531q-2.3574 0.45042-1.9069 2.8078z" clip-path="url(#a)" fill="#fff" stroke="#fff"/>
<g clip-path="url(#a)">
<g transform="translate(854.66 418.24) rotate(79.183) scale(.08 -.08)">
<use xlink:href="#s"/>
</g>
</g>
<path d="m890.02 422.55 3.0622 3.4343q1.5972 1.7913 3.3886 0.19407l5.7789-5.1528q1.7913-1.5972 0.19407-3.3886l-3.0622-3.4343q-1.5972-1.7913-3.3886-0.19407l-5.7789 5.1528q-1.7913 1.5972-0.19407 3.3886z" clip-path="url(#a)" fill="#fff" stroke="#fff"/>
<g clip-path="url(#a)">
<g transform="translate(893.05 419.84) rotate(48.278) scale(.08 -.08)">
<use xlink:href="#s"/>
</g>
</g>
<path d="m931.64 424.16 4.1076 2.5291q2.0437 1.2583 3.302-0.78533l4.0595-6.593q1.2583-2.0437-0.78533-3.302l-4.1076-2.5291q-2.0437-1.2583-3.302 0.78533l-4.0595 6.593q-1.2583 2.0437 0.78533 3.302z" clip-path="url(#a)" fill="#fff" stroke="#fff"/>
<g clip-path="url(#a)">
<g transform="translate(933.77 420.7) rotate(31.622) scale(.08 -.08)">
<use xlink:href="#r"/>
</g>
</g>
<path d="m561.7 426.77 5.3701-1.0539q2.3551-0.46221 1.8929-2.8173l-1.4911-7.5976q-0.46221-2.3551-2.8173-1.8929l-5.3701 1.0539q-2.3551 0.46221-1.8929 2.8173l1.4911 7.5976q0.46221 2.3551 2.8173 1.8929z" clip-path="url(#a)" fill="#fff" stroke="#fff"/>
<g clip-path="url(#a)">
<g transform="translate(560.92 422.78) rotate(-11.104) scale(.08 -.08)">
<use xlink:href="#t"/>
</g>
</g>
<path d="m974.37 424.74 5.4007 2.2612q2.2138 0.9269 3.1407-1.2869l2.9902-7.1418q0.9269-2.2138-1.2869-3.1407l-5.4007-2.2612q-2.2138-0.9269-3.1407 1.2869l-2.9902 7.1418q-0.9269 2.2138 1.2869 3.1407z" clip-path="url(#a)" fill="#fff" stroke="#fff"/>
<g clip-path="url(#a)">
<g transform="translate(975.94 420.99) rotate(22.719) scale(.08 -.08)">
<defs>
<path id="aq" d="m8.6875 72.906h9.9219v-44.297q0-11.719 4.2344-16.875 4.25-5.1406 13.781-5.1406 9.4688 0 13.719 5.1406 4.25 5.1562 4.25 16.875v44.297h9.9062v-45.516q0-14.25-7.0625-21.531-7.0469-7.2812-20.812-7.2812-13.828 0-20.891 7.2812-7.0469 7.2812-7.0469 21.531z"/>
</defs>
<use xlink:href="#aq"/>
</g>
</g>
<path d="m861.62 513.68v33.808q0 2.4 2.4 2.4h7.7425q2.4 0 2.4-2.4v-33.808q0-2.4-2.4-2.4h-7.7425q-2.4 0-2.4 2.4z" clip-path="url(#a)" fill="#fff" stroke="#fff"/>
<g clip-path="url(#a)">
<g transform="translate(865.68 513.68) rotate(90) scale(.08 -.08)">
<use xlink:href="#k"/>
<use x="44.083984" xlink:href="#d"/>
<use x="105.607422" xlink:href="#h"/>
<use x="144.970703" xlink:href="#l"/>
<use x="242.382812" xlink:href="#j"/>
<use x="270.166016" xlink:href="#e"/>
<use x="333.544922" xlink:href="#f"/>
<use x="394.824219" xlink:href="#i"/>
</g>
</g>
<path d="m939.57 513.68v33.808q0 2.4 2.4 2.4h7.7425q2.4 0 2.4-2.4v-33.808q0-2.4-2.4-2.4h-7.7425q-2.4 0-2.4 2.4z" clip-path="url(#a)" fill="#fff" stroke="#fff"/>
<g clip-path="url(#a)">
<g transform="translate(943.63 513.68) rotate(90) scale(.08 -.08)">
<use xlink:href="#k"/>
<use x="44.083984" xlink:href="#d"/>
<use x="105.607422" xlink:href="#h"/>
<use x="144.970703" xlink:href="#l"/>
<use x="242.382812" xlink:href="#j"/>
<use x="270.166016" xlink:href="#e"/>
<use x="333.544922" xlink:href="#f"/>
<use x="394.824219" xlink:href="#i"/>
</g>
</g>
<path d="m1021.1 513.68v33.808q0 2.4 2.4 2.4h7.7425q2.4 0 2.4-2.4v-33.808q0-2.4-2.4-2.4h-7.7425q-2.4 0-2.4 2.4z" clip-path="url(#a)" fill="#fff" stroke="#fff"/>
<g clip-path="url(#a)">
<g transform="translate(1025.1 513.68) rotate(90) scale(.08 -.08)">
<use xlink:href="#k"/>
<use x="44.083984" xlink:href="#d"/>
<use x="105.607422" xlink:href="#h"/>
<use x="144.970703" xlink:href="#l"/>
<use x="242.382812" xlink:href="#j"/>
<use x="270.166016" xlink:href="#e"/>
<use x="333.544922" xlink:href="#f"/>
<use x="394.824219" xlink:href="#i"/>
</g>
</g>
<path d="m273.46 513.68v33.808q0 2.4 2.4 2.4h7.7425q2.4 0 2.4-2.4v-33.808q0-2.4-2.4-2.4h-7.7425q-2.4 0-2.4 2.4z" clip-path="url(#a)" fill="#fff" stroke="#fff"/>
<g clip-path="url(#a)">
<g transform="translate(277.52 513.68) rotate(90) scale(.08 -.08)">
<use xlink:href="#k"/>
<use x="44.083984" xlink:href="#d"/>
<use x="105.607422" xlink:href="#h"/>
<use x="144.970703" xlink:href="#l"/>
<use x="242.382812" xlink:href="#j"/>
<use x="270.166016" xlink:href="#e"/>
<use x="333.544922" xlink:href="#f"/>
<use x="394.824219" xlink:href="#i"/>
</g>
</g>
<path d="m315.98 513.68v33.808q0 2.4 2.4 2.4h7.7425q2.4 0 2.4-2.4v-33.808q0-2.4-2.4-2.4h-7.7425q-2.4 0-2.4 2.4z" clip-path="url(#a)" fill="#fff" stroke="#fff"/>
<g clip-path="url(#a)">
<g transform="translate(320.04 513.68) rotate(90) scale(.08 -.08)">
<use xlink:href="#k"/>
<use x="44.083984" xlink:href="#d"/>
<use x="105.607422" xlink:href="#h"/>
<use x="144.970703" xlink:href="#l"/>
<use x="242.382812" xlink:href="#j"/>
<use x="270.166016" xlink:href="#e"/>
<use x="333.544922" xlink:href="#f"/>
<use x="394.824219" xlink:href="#i"/>
</g>
</g>
<path d="m362.04 513.68v33.808q0 2.4 2.4 2.4h7.7425q2.4 0 2.4-2.4v-33.808q0-2.4-2.4-2.4h-7.7425q-2.4 0-2.4 2.4z" clip-path="url(#a)" fill="#fff" stroke="#fff"/>
<g clip-path="url(#a)">
<g transform="translate(366.1 513.68) rotate(90) scale(.08 -.08)">
<use xlink:href="#k"/>
<use x="44.083984" xlink:href="#d"/>
<use x="105.607422" xlink:href="#h"/>
<use x="144.970703" xlink:href="#l"/>
<use x="242.382812" xlink:href="#j"/>
<use x="270.166016" xlink:href="#e"/>
<use x="333.544922" xlink:href="#f"/>
<use x="394.824219" xlink:href="#i"/>
</g>
</g>
<path d="m411.64 513.68v33.808q0 2.4 2.4 2.4h7.7425q2.4 0 2.4-2.4v-33.808q0-2.4-2.4-2.4h-7.7425q-2.4 0-2.4 2.4z" clip-path="url(#a)" fill="#fff" stroke="#fff"/>
<g clip-path="url(#a)">
<g transform="translate(415.7 513.68) rotate(90) scale(.08 -.08)">
<use xlink:href="#k"/>
<use x="44.083984" xlink:href="#d"/>
<use x="105.607422" xlink:href="#h"/>
<use x="144.970703" xlink:href="#l"/>
<use x="242.382812" xlink:href="#j"/>
<use x="270.166016" xlink:href="#e"/>
<use x="333.544922" xlink:href="#f"/>
<use x="394.824219" xlink:href="#i"/>
</g>
</g>
<path d="m693.64 312.53 4.7069 2.7917q2.0642 1.2243 3.2885-0.83991l3.9497-6.6593q1.2243-2.0642-0.83991-3.2885l-4.7069-2.7917q-2.0642-1.2243-3.2885 0.83991l-3.9497 6.6593q-1.2243 2.0642 0.83991 3.2885z" clip-path="url(#a)" fill="#fff" stroke="#fff"/>
<g clip-path="url(#a)">
<g transform="translate(695.72 309.04) rotate(30.673) scale(.08 -.08)">
<use xlink:href="#t"/>
</g>
</g>
<path d="m541.93 369.78 2.8598-4.7667q1.2347-2.058-0.82333-3.2927l-6.6393-3.9832q-2.058-1.2347-3.2927 0.82333l-2.8598 4.7667q-1.2347 2.058 0.82333 3.2927l6.6393 3.9832q2.058 1.2347 3.2927-0.82333z" clip-path="url(#a)" fill="#fff" stroke="#fff"/>
<g clip-path="url(#a)">
<g transform="translate(538.45 367.69) rotate(-59.039) scale(.08 -.08)">
<defs>
<path id="ai" d="m44.391 34.188q3.1719-1.0781 6.1719-4.5938t6.0312-9.6719l10.016-19.922h-10.609l-9.3125 18.703q-3.625 7.3281-7.0156 9.7188t-9.25 2.3906h-10.75v-30.812h-9.8594v72.906h22.266q12.5 0 18.656-5.2344 6.1562-5.2188 6.1562-15.766 0-6.8906-3.2031-11.438-3.2031-4.5312-9.2969-6.2812zm-24.719 30.609v-25.875h12.406q7.125 0 10.766 3.2969t3.6406 9.6875-3.6406 9.6406-10.766 3.25z"/>
</defs>
<use xlink:href="#ai"/>
</g>
</g>
<path d="m602.82 312.46 0.85883-6.0998q0.33461-2.3766-2.042-2.7112l-7.6669-1.0795q-2.3766-0.33461-2.7112 2.042l-0.85883 6.0998q-0.33461 2.3766 2.042 2.7112l7.6669 1.0795q2.3766 0.33461 2.7112-2.042z" clip-path="url(#a)" fill="#fff" stroke="#fff"/>
<g clip-path="url(#a)">
<g transform="translate(598.79 311.89) rotate(-81.986) scale(.08 -.08)">
<use xlink:href="#u"/>
</g>
</g>
<path d="m674.02 312.11 3.8634 2.8884q1.9222 1.4371 3.3593-0.4851l4.6361-6.201q1.4371-1.9222-0.4851-3.3593l-3.8634-2.8884q-1.9222-1.4371-3.3593 0.4851l-4.6361 6.201q-1.4371 1.9222 0.4851 3.3593z" clip-path="url(#a)" fill="#fff" stroke="#fff"/>
<g clip-path="url(#a)">
<g transform="translate(676.46 308.86) rotate(36.783) scale(.08 -.08)">
<use xlink:href="#r"/>
</g>
</g>
<path d="m464.79 513.68v33.808q0 2.4 2.4 2.4h7.7425q2.4 0 2.4-2.4v-33.808q0-2.4-2.4-2.4h-7.7425q-2.4 0-2.4 2.4z" clip-path="url(#a)" fill="#fff" stroke="#fff"/>
<g clip-path="url(#a)">
<g transform="translate(468.85 513.68) rotate(90) scale(.08 -.08)">
<use xlink:href="#k"/>
<use x="44.083984" xlink:href="#d"/>
<use x="105.607422" xlink:href="#h"/>
<use x="144.970703" xlink:href="#l"/>
<use x="242.382812" xlink:href="#j"/>
<use x="270.166016" xlink:href="#e"/>
<use x="333.544922" xlink:href="#f"/>
<use x="394.824219" xlink:href="#i"/>
</g>
</g>
<path d="m562.83 425.13 2.2236-4.0283q1.1598-2.1012-0.94136-3.261l-6.7784-3.7416q-2.1012-1.1598-3.261 0.94136l-2.2236 4.0283q-1.1598 2.1012 0.94136 3.261l6.7784 3.7416q2.1012 1.1598 3.261-0.94136z" clip-path="url(#a)" fill="#fff" stroke="#fff"/>
<g clip-path="url(#a)">
<g transform="translate(559.28 423.17) rotate(-61.102) scale(.08 -.08)">
<use xlink:href="#s"/>
</g>
</g>
<path d="m594.82 422.68 0.053656-5.0547q0.025475-2.3999-2.3744-2.4253l-7.7421-0.082183q-2.3999-0.025474-2.4253 2.3744l-0.053656 5.0547q-0.025475 2.3999 2.3744 2.4253l7.7421 0.082182q2.3999 0.025475 2.4253-2.3744z" clip-path="url(#a)" fill="#fff" stroke="#fff"/>
<g clip-path="url(#a)">
<g transform="translate(590.75 422.64) rotate(-89.392) scale(.08 -.08)">
<defs>
<path id="as" d="m9.8125 72.906h46.094v-8.3125h-36.234v-21.578h34.719v-8.2969h-34.719v-26.422h37.109v-8.2969h-46.969z"/>
</defs>
<use xlink:href="#as"/>
</g>
</g>
<path d="m613.62 420.73 2.7391 4.8686q1.1768 2.0917 3.2685 0.91492l6.7479-3.7963q2.0917-1.1768 0.91492-3.2685l-2.7391-4.8686q-1.1768-2.0917-3.2685-0.91492l-6.7479 3.7963q-2.0917 1.1768-0.91492 3.2685z" clip-path="url(#a)" fill="#fff" stroke="#fff"/>
<g clip-path="url(#a)">
<g transform="translate(617.17 418.74) rotate(60.638) scale(.08 -.08)">
<defs>
<path id="v" d="m64.406 67.281v-10.391q-4.9844 4.6406-10.625 6.9219-5.6406 2.2969-11.984 2.2969-12.5 0-19.141-7.6406t-6.6406-22.094q0-14.406 6.6406-22.047t19.141-7.6406q6.3438 0 11.984 2.2969t10.625 6.9375v-10.312q-5.1719-3.5156-10.969-5.2812-5.7812-1.75-12.219-1.75-16.562 0-26.094 10.125-9.5156 10.141-9.5156 27.672 0 17.578 9.5156 27.703 9.5312 10.141 26.094 10.141 6.5312 0 12.312-1.7344 5.7969-1.7344 10.875-5.2031z"/>
</defs>
<use xlink:href="#v"/>
</g>
</g>
<path d="m741.92 424.64 1.6867-5.2967q0.72825-2.2868-1.5586-3.0151l-7.3775-2.3494q-2.2868-0.72825-3.0151 1.5586l-1.6867 5.2967q-0.72825 2.2868 1.5586 3.0151l7.3775 2.3494q2.2868 0.72825 3.0151-1.5586z" clip-path="url(#a)" fill="#fff" stroke="#fff"/>
<g clip-path="url(#a)">
<g transform="translate(738.05 423.41) rotate(-72.336) scale(.08 -.08)">
<use xlink:href="#ai"/>
</g>
</g>
<path d="m765.4 419.33 1.6951 5.3229q0.72825 2.2868 3.0151 1.5586l7.3775-2.3494q2.2868-0.72825 1.5586-3.0151l-1.6951-5.3229q-0.72825-2.2868-3.0151-1.5586l-7.3775 2.3494q-2.2868 0.72825-1.5586 3.0151z" clip-path="url(#a)" fill="#fff" stroke="#fff"/>
<g clip-path="url(#a)">
<g transform="translate(769.27 418.1) rotate(72.336) scale(.08 -.08)">
<use xlink:href="#v"/>
</g>
</g>
<path d="m712.81 513.68v33.808q0 2.4 2.4 2.4h7.7425q2.4 0 2.4-2.4v-33.808q0-2.4-2.4-2.4h-7.7425q-2.4 0-2.4 2.4z" clip-path="url(#a)" fill="#fff" stroke="#fff"/>
<g clip-path="url(#a)">
<g transform="translate(716.87 513.68) rotate(90) scale(.08 -.08)">
<use xlink:href="#k"/>
<use x="44.083984" xlink:href="#d"/>
<use x="105.607422" xlink:href="#h"/>
<use x="144.970703" xlink:href="#l"/>
<use x="242.382812" xlink:href="#j"/>
<use x="270.166016" xlink:href="#e"/>
<use x="333.544922" xlink:href="#f"/>
<use x="394.824219" xlink:href="#i"/>
</g>
</g>
<path d="m783.67 513.68v33.808q0 2.4 2.4 2.4h7.7425q2.4 0 2.4-2.4v-33.808q0-2.4-2.4-2.4h-7.7425q-2.4 0-2.4 2.4z" clip-path="url(#a)" fill="#fff" stroke="#fff"/>
<g clip-path="url(#a)">
<g transform="translate(787.73 513.68) rotate(90) scale(.08 -.08)">
<use xlink:href="#k"/>
<use x="44.083984" xlink:href="#d"/>
<use x="105.607422" xlink:href="#h"/>
<use x="144.970703" xlink:href="#l"/>
<use x="242.382812" xlink:href="#j"/>
<use x="270.166016" xlink:href="#e"/>
<use x="333.544922" xlink:href="#f"/>
<use x="394.824219" xlink:href="#i"/>
</g>
</g>
<path d="m521.48 513.68v33.808q0 2.4 2.4 2.4h7.7425q2.4 0 2.4-2.4v-33.808q0-2.4-2.4-2.4h-7.7425q-2.4 0-2.4 2.4z" clip-path="url(#a)" fill="#fff" stroke="#fff"/>
<g clip-path="url(#a)">
<g transform="translate(525.54 513.68) rotate(90) scale(.08 -.08)">
<use xlink:href="#k"/>
<use x="44.083984" xlink:href="#d"/>
<use x="105.607422" xlink:href="#h"/>
<use x="144.970703" xlink:href="#l"/>
<use x="242.382812" xlink:href="#j"/>
<use x="270.166016" xlink:href="#e"/>
<use x="333.544922" xlink:href="#f"/>
<use x="394.824219" xlink:href="#i"/>
</g>
</g>
<path d="m581.71 513.68v33.808q0 2.4 2.4 2.4h7.7425q2.4 0 2.4-2.4v-33.808q0-2.4-2.4-2.4h-7.7425q-2.4 0-2.4 2.4z" clip-path="url(#a)" fill="#fff" stroke="#fff"/>
<g clip-path="url(#a)">
<g transform="translate(585.77 513.68) rotate(90) scale(.08 -.08)">
<use xlink:href="#k"/>
<use x="44.083984" xlink:href="#d"/>
<use x="105.607422" xlink:href="#h"/>
<use x="144.970703" xlink:href="#l"/>
<use x="242.382812" xlink:href="#j"/>
<use x="270.166016" xlink:href="#e"/>
<use x="333.544922" xlink:href="#f"/>
<use x="394.824219" xlink:href="#i"/>
</g>
</g>
<path d="m645.49 513.68v33.808q0 2.4 2.4 2.4h7.7425q2.4 0 2.4-2.4v-33.808q0-2.4-2.4-2.4h-7.7425q-2.4 0-2.4 2.4z" clip-path="url(#a)" fill="#fff" stroke="#fff"/>
<g clip-path="url(#a)">
<g transform="translate(649.55 513.68) rotate(90) scale(.08 -.08)">
<use xlink:href="#k"/>
<use x="44.083984" xlink:href="#d"/>
<use x="105.607422" xlink:href="#h"/>
<use x="144.970703" xlink:href="#l"/>
<use x="242.382812" xlink:href="#j"/>
<use x="270.166016" xlink:href="#e"/>
<use x="333.544922" xlink:href="#f"/>
<use x="394.824219" xlink:href="#i"/>
</g>
</g>
<path d="m46.698 513.68v33.808q0 2.4 2.4 2.4h7.7425q2.4 0 2.4-2.4v-33.808q0-2.4-2.4-2.4h-7.7425q-2.4 0-2.4 2.4z" clip-path="url(#a)" fill="#fff" stroke="#fff"/>
<g clip-path="url(#a)">
<g transform="translate(50.762 513.68) rotate(90) scale(.08 -.08)">
<use xlink:href="#k"/>
<use x="44.083984" xlink:href="#d"/>
<use x="105.607422" xlink:href="#h"/>
<use x="144.970703" xlink:href="#l"/>
<use x="242.382812" xlink:href="#j"/>
<use x="270.166016" xlink:href="#e"/>
<use x="333.544922" xlink:href="#f"/>
<use x="394.824219" xlink:href="#i"/>
</g>
</g>
<path d="m57.328 513.68v33.808q0 2.4 2.4 2.4h7.7425q2.4 0 2.4-2.4v-33.808q0-2.4-2.4-2.4h-7.7425q-2.4 0-2.4 2.4z" clip-path="url(#a)" fill="#fff" stroke="#fff"/>
<g clip-path="url(#a)">
<g transform="translate(61.392 513.68) rotate(90) scale(.08 -.08)">
<use xlink:href="#k"/>
<use x="44.083984" xlink:href="#d"/>
<use x="105.607422" xlink:href="#h"/>
<use x="144.970703" xlink:href="#l"/>
<use x="242.382812" xlink:href="#j"/>
<use x="270.166016" xlink:href="#e"/>
<use x="333.544922" xlink:href="#f"/>
<use x="394.824219" xlink:href="#i"/>
</g>
</g>
<path d="m71.5 513.68v33.808q0 2.4 2.4 2.4h7.7425q2.4 0 2.4-2.4v-33.808q0-2.4-2.4-2.4h-7.7425q-2.4 0-2.4 2.4z" clip-path="url(#a)" fill="#fff" stroke="#fff"/>
<g clip-path="url(#a)">
<g transform="translate(75.564 513.68) rotate(90) scale(.08 -.08)">
<use xlink:href="#k"/>
<use x="44.083984" xlink:href="#d"/>
<use x="105.607422" xlink:href="#h"/>
<use x="144.970703" xlink:href="#l"/>
<use x="242.382812" xlink:href="#j"/>
<use x="270.166016" xlink:href="#e"/>
<use x="333.544922" xlink:href="#f"/>
<use x="394.824219" xlink:href="#i"/>
</g>
</g>
<path d="m106.75 423.82 0.59891-6.269q0.22824-2.3891-2.1609-2.6174l-7.7074-0.73633q-2.3891-0.22824-2.6174 2.1609l-0.59891 6.269q-0.22824 2.3891 2.1609 2.6174l7.7074 0.73633q2.3891 0.22824 2.6174-2.1609z" clip-path="url(#a)" fill="#fff" stroke="#fff"/>
<g clip-path="url(#a)">
<g transform="translate(102.7 423.43) rotate(-84.543) scale(.08 -.08)">
<defs>
<path id="ar" d="m39.406 66.219q-10.75 0-17.078-8.0156-6.3125-8-6.3125-21.828 0-13.766 6.3125-21.781 6.3281-8 17.078-8 10.734 0 17.016 8 6.2812 8.0156 6.2812 21.781 0 13.828-6.2812 21.828-6.2812 8.0156-17.016 8.0156zm13.812-64.906 13-14.203h-11.922l-10.797 11.672q-1.6094-0.09375-2.4688-0.14062-0.84375-0.0625-1.625-0.0625-15.375 0-24.594 10.281-9.2031 10.281-9.2031 27.516 0 17.281 9.2031 27.562 9.2188 10.281 24.594 10.281 15.328 0 24.5-10.281 9.1875-10.281 9.1875-27.562 0-12.688-5.1094-21.734-5.0938-9.0312-14.766-13.328z"/>
</defs>
<use xlink:href="#ar"/>
</g>
</g>
<path d="m104.92 417.91 0.53126 5.5609q0.22824 2.3891 2.6174 2.1609l7.7074-0.73633q2.3891-0.22825 2.1609-2.6174l-0.53126-5.5609q-0.22825-2.3891-2.6174-2.1609l-7.7074 0.73633q-2.3891 0.22824-2.1609 2.6174z" clip-path="url(#a)" fill="#fff" stroke="#fff"/>
<g clip-path="url(#a)">
<g transform="translate(108.97 417.52) rotate(84.543) scale(.08 -.08)">
<use xlink:href="#v"/>
</g>
</g>
<path d="m135.28 513.68v33.808q0 2.4 2.4 2.4h7.7425q2.4 0 2.4-2.4v-33.808q0-2.4-2.4-2.4h-7.7425q-2.4 0-2.4 2.4z" clip-path="url(#a)" fill="#fff" stroke="#fff"/>
<g clip-path="url(#a)">
<g transform="translate(139.34 513.68) rotate(90) scale(.08 -.08)">
<use xlink:href="#k"/>
<use x="44.083984" xlink:href="#d"/>
<use x="105.607422" xlink:href="#h"/>
<use x="144.970703" xlink:href="#l"/>
<use x="242.382812" xlink:href="#j"/>
<use x="270.166016" xlink:href="#e"/>
<use x="333.544922" xlink:href="#f"/>
<use x="394.824219" xlink:href="#i"/>
</g>
</g>
<path d="m163.62 513.68v33.808q0 2.4 2.4 2.4h7.7425q2.4 0 2.4-2.4v-33.808q0-2.4-2.4-2.4h-7.7425q-2.4 0-2.4 2.4z" clip-path="url(#a)" fill="#fff" stroke="#fff"/>
<g clip-path="url(#a)">
<g transform="translate(167.69 513.68) rotate(90) scale(.08 -.08)">
<use xlink:href="#k"/>
<use x="44.083984" xlink:href="#d"/>
<use x="105.607422" xlink:href="#h"/>
<use x="144.970703" xlink:href="#l"/>
<use x="242.382812" xlink:href="#j"/>
<use x="270.166016" xlink:href="#e"/>
<use x="333.544922" xlink:href="#f"/>
<use x="394.824219" xlink:href="#i"/>
</g>
</g>
<path d="m195.51 513.68v33.808q0 2.4 2.4 2.4h7.7425q2.4 0 2.4-2.4v-33.808q0-2.4-2.4-2.4h-7.7425q-2.4 0-2.4 2.4z" clip-path="url(#a)" fill="#fff" stroke="#fff"/>
<g clip-path="url(#a)">
<g transform="translate(199.57 513.68) rotate(90) scale(.08 -.08)">
<use xlink:href="#k"/>
<use x="44.083984" xlink:href="#d"/>
<use x="105.607422" xlink:href="#h"/>
<use x="144.970703" xlink:href="#l"/>
<use x="242.382812" xlink:href="#j"/>
<use x="270.166016" xlink:href="#e"/>
<use x="333.544922" xlink:href="#f"/>
<use x="394.824219" xlink:href="#i"/>
</g>
</g>
<path d="m89.216 513.68v33.808q0 2.4 2.4 2.4h7.7425q2.4 0 2.4-2.4v-33.808q0-2.4-2.4-2.4h-7.7425q-2.4 0-2.4 2.4z" clip-path="url(#a)" fill="#fff" stroke="#fff"/>
<g clip-path="url(#a)">
<g transform="translate(93.28 513.68) rotate(90) scale(.08 -.08)">
<use xlink:href="#k"/>
<use x="44.083984" xlink:href="#d"/>
<use x="105.607422" xlink:href="#h"/>
<use x="144.970703" xlink:href="#l"/>
<use x="242.382812" xlink:href="#j"/>
<use x="270.166016" xlink:href="#e"/>
<use x="333.544922" xlink:href="#f"/>
<use x="394.824219" xlink:href="#i"/>
</g>
</g>
<path d="m110.47 513.68v33.808q0 2.4 2.4 2.4h7.7425q2.4 0 2.4-2.4v-33.808q0-2.4-2.4-2.4h-7.7425q-2.4 0-2.4 2.4z" clip-path="url(#a)" fill="#fff" stroke="#fff"/>
<g clip-path="url(#a)">
<g transform="translate(114.54 513.68) rotate(90) scale(.08 -.08)">
<use xlink:href="#k"/>
<use x="44.083984" xlink:href="#d"/>
<use x="105.607422" xlink:href="#h"/>
<use x="144.970703" xlink:href="#l"/>
<use x="242.382812" xlink:href="#j"/>
<use x="270.166016" xlink:href="#e"/>
<use x="333.544922" xlink:href="#f"/>
<use x="394.824219" xlink:href="#i"/>
</g>
</g>
<path d="m1106.1 513.68v33.808q0 2.4 2.4 2.4h7.7425q2.4 0 2.4-2.4v-33.808q0-2.4-2.4-2.4h-7.7425q-2.4 0-2.4 2.4z" clip-path="url(#a)" fill="#fff" stroke="#fff"/>
<g clip-path="url(#a)">
<g transform="translate(1110.2 513.68) rotate(90) scale(.08 -.08)">
<use xlink:href="#k"/>
<use x="44.083984" xlink:href="#d"/>
<use x="105.607422" xlink:href="#h"/>
<use x="144.970703" xlink:href="#l"/>
<use x="242.382812" xlink:href="#j"/>
<use x="270.166016" xlink:href="#e"/>
<use x="333.544922" xlink:href="#f"/>
<use x="394.824219" xlink:href="#i"/>
</g>
</g>
<defs>
<path id="b" d="m0 8.6603c2.2967 0 4.4997-0.9125 6.1237-2.5365 1.624-1.624 2.5365-3.827 2.5365-6.1237s-0.9125-4.4997-2.5365-6.1237c-1.624-1.624-3.827-2.5365-6.1237-2.5365s-4.4997 0.9125-6.1237 2.5365c-1.624 1.624-2.5365 3.827-2.5365 6.1237s0.9125 4.4997 2.5365 6.1237c1.624 1.624 3.827 2.5365 6.1237 2.5365z"/>
</defs>
<g clip-path="url(#a)" fill="#ffffff" stroke="#ffffff">
<use x="52.969697" y="585.454545" xlink:href="#b"/>
<use x="63.599068" y="585.454545" xlink:href="#b"/>
<use x="77.771562" y="585.454545" xlink:href="#b"/>
<use x="95.487179" y="585.454545" xlink:href="#b"/>
<use x="116.745921" y="585.454545" xlink:href="#b"/>
<use x="141.547786" y="585.454545" xlink:href="#b"/>
<use x="169.892774" y="585.454545" xlink:href="#b"/>
<use x="201.780886" y="585.454545" xlink:href="#b"/>
<use x="240.755245" y="585.454545" xlink:href="#b"/>
<use x="279.729604" y="585.454545" xlink:href="#b"/>
<use x="322.247086" y="585.454545" xlink:href="#b"/>
<use x="368.307692" y="585.454545" xlink:href="#b"/>
<use x="417.911422" y="585.454545" xlink:href="#b"/>
<use x="471.058275" y="585.454545" xlink:href="#b"/>
<use x="527.748252" y="585.454545" xlink:href="#b"/>
<use x="587.981352" y="585.454545" xlink:href="#b"/>
<use x="651.757576" y="585.454545" xlink:href="#b"/>
<use x="719.076923" y="585.454545" xlink:href="#b"/>
<use x="789.939394" y="585.454545" xlink:href="#b"/>
<use x="867.888112" y="585.454545" xlink:href="#b"/>
<use x="945.83683" y="585.454545" xlink:href="#b"/>
<use x="1027.328671" y="585.454545" xlink:href="#b"/>
<use x="1112.363636" y="585.454545" xlink:href="#b"/>
<use x="793.482517" y="364.458514" xlink:href="#b"/>
<use x="205.324009" y="364.458514" xlink:href="#b"/>
<use x="400.561365" y="27.878788" xlink:href="#b"/>
<use x="116.23976" y="252.613677" xlink:href="#b"/>
<use x="240.755245" y="475.719795" xlink:href="#b"/>
<use x="398.621083" y="140.388185" xlink:href="#b"/>
<use x="846.629371" y="364.458514" xlink:href="#b"/>
<use x="867.888112" y="475.719795" xlink:href="#b"/>
<use x="945.83683" y="475.719795" xlink:href="#b"/>
<use x="1027.328671" y="475.719795" xlink:href="#b"/>
<use x="279.729604" y="475.719795" xlink:href="#b"/>
<use x="322.247086" y="475.719795" xlink:href="#b"/>
<use x="368.307692" y="475.719795" xlink:href="#b"/>
<use x="417.911422" y="475.719795" xlink:href="#b"/>
<use x="604.909609" y="252.613677" xlink:href="#b"/>
<use x="471.058275" y="475.719795" xlink:href="#b"/>
<use x="589.162393" y="364.458514" xlink:href="#b"/>
<use x="754.508159" y="364.458514" xlink:href="#b"/>
<use x="719.076923" y="475.719795" xlink:href="#b"/>
<use x="789.939394" y="475.719795" xlink:href="#b"/>
<use x="527.748252" y="475.719795" xlink:href="#b"/>
<use x="587.981352" y="475.719795" xlink:href="#b"/>
<use x="651.757576" y="475.719795" xlink:href="#b"/>
<use x="52.969697" y="475.719795" xlink:href="#b"/>
<use x="63.599068" y="475.719795" xlink:href="#b"/>
<use x="77.771562" y="475.719795" xlink:href="#b"/>
<use x="106.11655" y="364.458514" xlink:href="#b"/>
<use x="141.547786" y="475.719795" xlink:href="#b"/>
<use x="169.892774" y="475.719795" xlink:href="#b"/>
<use x="201.780886" y="475.719795" xlink:href="#b"/>
<use x="95.487179" y="475.719795" xlink:href="#b"/>
<use x="116.745921" y="475.719795" xlink:href="#b"/>
<use x="1112.363636" y="475.719795" xlink:href="#b"/>
</g>
<g clip-path="url(#a)">
<g transform="translate(38.651 588.21) scale(.1 -.1)">
<defs>
<path id="ao" d="m54.891 33.016v-33.016h-8.9844v32.719q0 7.7656-3.0312 11.609-3.0312 3.8594-9.0781 3.8594-7.2812 0-11.484-4.6406-4.2031-4.625-4.2031-12.641v-30.906h-9.0312v75.984h9.0312v-29.797q3.2344 4.9375 7.5938 7.375 4.375 2.4375 10.094 2.4375 9.4219 0 14.25-5.8281 4.8438-5.8281 4.8438-17.156z"/>
</defs>
<use xlink:href="#k"/>
<use x="61.083984" xlink:href="#ao"/>
<use x="124.462891" xlink:href="#d"/>
<use x="185.986328" xlink:href="#h"/>
<use x="224.849609" xlink:href="#d"/>
</g>
</g>
<g clip-path="url(#a)">
<g transform="translate(53.841 588.21) scale(.1 -.1)">
<defs>
<path id="w" d="m4.2031 54.688h8.9844l11.234-42.672 11.172 42.672h10.594l11.234-42.672 11.188 42.672h8.9844l-14.312-54.688h-10.594l-11.766 44.828-11.812-44.828h-10.609z"/>
<path id="an" d="m44.281 53.078v-8.5q-3.7969 1.9531-7.9062 2.9219-4.0938 0.98438-8.5 0.98438-6.6875 0-10.031-2.0469t-3.3438-6.1562q0-3.125 2.3906-4.9062t9.625-3.3906l3.0781-0.6875q9.5625-2.0469 13.594-5.7812t4.0312-10.422q0-7.625-6.0312-12.078-6.0312-4.4375-16.578-4.4375-4.3906 0-9.1562 0.85938t-10.031 2.5625v9.2812q4.9844-2.5938 9.8125-3.8906 4.8281-1.2812 9.5781-1.2812 6.3438 0 9.75 2.1719 3.4219 2.1719 3.4219 6.125 0 3.6562-2.4688 5.6094-2.4531 1.9531-10.812 3.7656l-3.125 0.73438q-8.3438 1.75-12.062 5.3906-3.7031 3.6406-3.7031 9.9844 0 7.7188 5.4688 11.906 5.4688 4.2031 15.531 4.2031 4.9688 0 9.3594-0.73438 4.4062-0.71875 8.1094-2.1875z"/>
</defs>
<use xlink:href="#w"/>
<use x="81.787109" xlink:href="#f"/>
<use x="143.066406" xlink:href="#an"/>
</g>
</g>
<g clip-path="url(#a)">
<g transform="translate(69.583 588.21) scale(.1 -.1)">
<defs>
<path id="o" d="m30.609 48.391q-7.2188 0-11.422-5.6406t-4.2031-15.453 4.1719-15.453q4.1875-5.6406 11.453-5.6406 7.1875 0 11.375 5.6562 4.2031 5.6719 4.2031 15.438 0 9.7188-4.2031 15.406-4.1875 5.6875-11.375 5.6875zm0 7.6094q11.719 0 18.406-7.625 6.7031-7.6094 6.7031-21.078 0-13.422-6.7031-21.078-6.6875-7.6406-18.406-7.6406-11.766 0-18.438 7.6406-6.6562 7.6562-6.6562 21.078 0 13.469 6.6562 21.078 6.6719 7.625 18.438 7.625z"/>
<path id="x" d="m18.312 70.219v-15.531h18.5v-6.9844h-18.5v-29.688q0-6.6875 1.8281-8.5938t7.4531-1.9062h9.2188v-7.5156h-9.2188q-10.406 0-14.359 3.875-3.9531 3.8906-3.9531 14.141v29.688h-6.5938v6.9844h6.5938v15.531z"/>
</defs>
<use xlink:href="#e"/>
<use x="63.378906" xlink:href="#o"/>
<use x="124.560547" xlink:href="#x"/>
</g>
</g>
<g clip-path="url(#a)">
<g transform="translate(86.182 588.21) scale(.1 -.1)">
<use xlink:href="#o"/>
<use x="61.181641" xlink:href="#e"/>
<use x="124.560547" xlink:href="#d"/>
</g>
</g>
<g clip-path="url(#a)">
<g transform="translate(101.52 588.21) scale(.1 -.1)">
<defs>
<path id="am" d="m8.5 21.578v33.109h8.9844v-32.766q0-7.7656 3.0156-11.656 3.0312-3.875 9.0938-3.875 7.2656 0 11.484 4.6406 4.2344 4.6406 4.2344 12.656v31h8.9844v-54.688h-8.9844v8.4062q-3.2656-4.9844-7.5938-7.4062-4.3125-2.4219-10.031-2.4219-9.4219 0-14.312 5.8594-4.875 5.8594-4.875 17.141z"/>
<path id="q" d="m48.781 52.594v-8.4062q-3.8125 2.1094-7.6406 3.1562t-7.7344 1.0469q-8.75 0-13.594-5.5469-4.8281-5.5312-4.8281-15.547t4.8281-15.562q4.8438-5.5312 13.594-5.5312 3.9062 0 7.7344 1.0469t7.6406 3.1562v-8.3125q-3.7656-1.75-7.7969-2.625-4.0156-0.89062-8.5625-0.89062-12.359 0-19.641 7.7656-7.2656 7.7656-7.2656 20.953 0 13.375 7.3438 21.031 7.3594 7.6719 20.156 7.6719 4.1406 0 8.0938-0.85938 3.9531-0.84375 7.6719-2.5469z"/>
</defs>
<use xlink:href="#o"/>
<use x="61.181641" xlink:href="#am"/>
<use x="124.560547" xlink:href="#e"/>
<use x="187.939453" xlink:href="#q"/>
<use x="242.919922" xlink:href="#d"/>
</g>
</g>
<g clip-path="url(#a)">
<g transform="translate(136.73 588.21) scale(.1 -.1)">
<defs>
<path id="ap" d="m37.109 75.984v-7.4844h-8.5938q-4.8281 0-6.7188-1.9531-1.875-1.9531-1.875-7.0312v-4.8281h14.797v-6.9844h-14.797v-47.703h-9.0312v47.703h-8.5938v6.9844h8.5938v3.8125q0 9.125 4.25 13.297 4.25 4.1875 13.469 4.1875z"/>
</defs>
<use xlink:href="#o"/>
<use x="61.181641" xlink:href="#ap"/>
</g>
</g>
<g clip-path="url(#a)">
<g transform="translate(154.29 588.21) scale(.1 -.1)">
<defs>
<path id="aw" d="m45.406 27.984q0 9.7656-4.0312 15.125-4.0156 5.375-11.297 5.375-7.2188 0-11.25-5.375-4.0312-5.3594-4.0312-15.125 0-9.7188 4.0312-15.094t11.25-5.375q7.2812 0 11.297 5.375 4.0312 5.375 4.0312 15.094zm8.9844-21.203q0-13.953-6.2031-20.766-6.1875-6.8125-18.984-6.8125-4.7344 0-8.9375 0.70312t-8.1562 2.1719v8.7344q3.9531-2.1406 7.8125-3.1562 3.8594-1.0312 7.8594-1.0312 8.8438 0 13.234 4.6094t4.3906 13.938v4.4531q-2.7812-4.8438-7.125-7.2344t-10.406-2.3906q-10.047 0-16.203 7.6562-6.1562 7.6719-6.1562 20.328 0 12.688 6.1562 20.344 6.1562 7.6719 16.203 7.6719 6.0625 0 10.406-2.3906t7.125-7.2188v8.2969h8.9844z"/>
</defs>
<use xlink:href="#q"/>
<use x="54.980469" xlink:href="#f"/>
<use x="116.259766" xlink:href="#h"/>
<use x="157.373047" xlink:href="#j"/>
<use x="185.15625" xlink:href="#e"/>
<use x="248.535156" xlink:href="#aw"/>
</g>
</g>
<g clip-path="url(#a)">
<g transform="translate(180.61 588.21) scale(.1 -.1)">
<defs>
<path id="af" d="m2.9844 54.688h9.5156l17.094-45.891 17.094 45.891h9.5156l-20.516-54.688h-12.203z"/>
<path id="ag" d="m45.406 46.391v29.594h8.9844v-75.984h-8.9844v8.2031q-2.8281-4.875-7.1562-7.25-4.3125-2.375-10.375-2.375-9.9062 0-16.141 7.9062-6.2188 7.9219-6.2188 20.812t6.2188 20.797q6.2344 7.9062 16.141 7.9062 6.0625 0 10.375-2.375 4.3281-2.3594 7.1562-7.2344zm-30.609-19.094q0-9.9062 4.0781-15.547t11.203-5.6406 11.219 5.6406q4.1094 5.6406 4.1094 15.547t-4.1094 15.547q-4.0938 5.6406-11.219 5.6406t-11.203-5.6406-4.0781-15.547z"/>
</defs>
<use xlink:href="#j"/>
<use x="27.783203" xlink:href="#e"/>
<use x="91.162109" xlink:href="#af"/>
<use x="150.341797" xlink:href="#o"/>
<use x="211.523438" xlink:href="#i"/>
<use x="239.306641" xlink:href="#af"/>
<use x="298.486328" xlink:href="#d"/>
<use x="360.009766" xlink:href="#ag"/>
</g>
</g>
<g clip-path="url(#a)">
<g transform="translate(231.35 588.21) scale(.1 -.1)">
<use xlink:href="#f"/>
<use x="61.279297" xlink:href="#e"/>
<use x="124.658203" xlink:href="#ag"/>
</g>
</g>
<g clip-path="url(#a)">
<g transform="translate(261.23 588.21) scale(.1 -.1)">
<defs>
<path id="at" d="m32.172-5.0781q-3.7969-9.7656-7.4219-12.734-3.6094-2.9844-9.6562-2.9844h-7.1875v7.5156h5.2812q3.7031 0 5.75 1.7656 2.0625 1.75 4.5469 8.2969l1.6094 4.0938-22.109 53.812h9.5156l17.094-42.766 17.094 42.766h9.5156z"/>
</defs>
<use xlink:href="#f"/>
<use x="61.279297" xlink:href="#e"/>
<use x="124.658203" xlink:href="#at"/>
<use x="183.837891" xlink:href="#o"/>
<use x="245.019531" xlink:href="#e"/>
<use x="308.398438" xlink:href="#d"/>
</g>
</g>
<g clip-path="url(#a)">
<g transform="translate(320.77 588.21) scale(.1 -.1)">
<defs>
<path id="p" d="m9.8125 72.906h9.8594v-72.906h-9.8594z"/>
</defs>
<use xlink:href="#p"/>
</g>
</g>
<g clip-path="url(#a)">
<g transform="translate(359.33 588.21) scale(.1 -.1)">
<use xlink:href="#q"/>
<use x="54.980469" xlink:href="#f"/>
<use x="116.259766" xlink:href="#e"/>
</g>
</g>
<g clip-path="url(#a)">
<g transform="translate(405.62 588.21) scale(.1 -.1)">
<use xlink:href="#w"/>
<use x="81.787109" xlink:href="#f"/>
<use x="143.066406" xlink:href="#h"/>
<use x="182.429688" xlink:href="#e"/>
</g>
</g>
<g clip-path="url(#a)">
<g transform="translate(456.63 588.21) scale(.1 -.1)">
<defs>
<path id="ah" d="m48.688 27.297q0 9.9062-4.0781 15.547t-11.203 5.6406q-7.1406 0-11.219-5.6406t-4.0781-15.547 4.0781-15.547 11.219-5.6406q7.125 0 11.203 5.6406t4.0781 15.547zm-30.578 19.094q2.8438 4.875 7.1562 7.2344 4.3281 2.375 10.328 2.375 9.9688 0 16.188-7.9062 6.2344-7.9062 6.2344-20.797t-6.2344-20.812q-6.2188-7.9062-16.188-7.9062-6 0-10.328 2.375-4.3125 2.375-7.1562 7.25v-8.2031h-9.0312v75.984h9.0312z"/>
</defs>
<use xlink:href="#f"/>
<use x="61.279297" xlink:href="#ah"/>
<use x="124.755859" xlink:href="#o"/>
<use x="185.9375" xlink:href="#am"/>
<use x="249.316406" xlink:href="#x"/>
</g>
</g>
<g clip-path="url(#a)">
<g transform="translate(519.54 588.21) scale(.1 -.1)">
<use xlink:href="#x"/>
<use x="39.208984" xlink:href="#ao"/>
<use x="102.587891" xlink:href="#d"/>
</g>
</g>
<g clip-path="url(#a)">
<g transform="translate(564.63 588.21) scale(.1 -.1)">
<defs>
<path id="au" d="m18.109 8.2031v-29h-9.0312v75.484h9.0312v-8.2969q2.8438 4.875 7.1562 7.2344 4.3281 2.375 10.328 2.375 9.9688 0 16.188-7.9062 6.2344-7.9062 6.2344-20.797t-6.2344-20.812q-6.2188-7.9062-16.188-7.9062-6 0-10.328 2.375-4.3125 2.375-7.1562 7.25zm30.578 19.094q0 9.9062-4.0781 15.547t-11.203 5.6406q-7.1406 0-11.219-5.6406t-4.0781-15.547 4.0781-15.547 11.219-5.6406q7.125 0 11.203 5.6406t4.0781 15.547z"/>
</defs>
<use xlink:href="#q"/>
<use x="54.980469" xlink:href="#o"/>
<use x="116.162109" xlink:href="#l"/>
<use x="213.574219" xlink:href="#au"/>
<use x="277.050781" xlink:href="#i"/>
<use x="304.833984" xlink:href="#d"/>
<use x="366.357422" xlink:href="#x"/>
<use x="405.566406" xlink:href="#d"/>
</g>
</g>
<g clip-path="url(#a)">
<g transform="translate(641.66 588.21) scale(.1 -.1)">
<defs>
<path id="av" d="m9.0781 75.984h9.0312v-44.875l26.812 23.578h11.469l-29-25.578 30.234-29.109h-11.719l-27.797 26.703v-26.703h-9.0312z"/>
</defs>
<use xlink:href="#i"/>
<use x="27.783203" xlink:href="#f"/>
<use x="89.0625" xlink:href="#q"/>
<use x="144.042969" xlink:href="#av"/>
</g>
</g>
<g clip-path="url(#a)">
<g transform="translate(714.26 588.21) scale(.1 -.1)">
<use xlink:href="#o"/>
<use x="61.181641" xlink:href="#ap"/>
</g>
</g>
<g clip-path="url(#a)">
<g transform="translate(772.03 588.21) scale(.1 -.1)">
<use xlink:href="#an"/>
<use x="52.099609" xlink:href="#d"/>
<use x="113.623047" xlink:href="#h"/>
<use x="154.736328" xlink:href="#af"/>
<use x="213.916016" xlink:href="#j"/>
<use x="241.699219" xlink:href="#q"/>
<use x="296.679688" xlink:href="#d"/>
</g>
</g>
<g clip-path="url(#a)">
<g transform="translate(859.63 588.21) scale(.1 -.1)">
<use xlink:href="#w"/>
<use x="81.787109" xlink:href="#j"/>
<use x="109.570312" xlink:href="#i"/>
<use x="137.353516" xlink:href="#i"/>
</g>
</g>
<g clip-path="url(#a)">
<g transform="translate(939.59 588.21) scale(.1 -.1)">
<use xlink:href="#ah"/>
<use x="63.476562" xlink:href="#d"/>
</g>
</g>
<g clip-path="url(#a)">
<g transform="translate(1008.8 588.21) scale(.1 -.1)">
<use xlink:href="#w"/>
<use x="81.787109" xlink:href="#f"/>
<use x="143.066406" xlink:href="#h"/>
<use x="182.429688" xlink:href="#e"/>
<use x="245.808594" xlink:href="#d"/>
<use x="307.332031" xlink:href="#ag"/>
</g>
</g>
<g clip-path="url(#a)">
<g transform="translate(1110.8 588.21) scale(.1 -.1)">
<defs>
<path id="g" d="m10.688 12.406h10.312v-12.406h-10.312z"/>
</defs>
<use xlink:href="#g"/>
</g>
</g>
<g clip-path="url(#a)">
<g transform="translate(772.4 367.22) scale(.1 -.1)">
<defs>
<path id="aj" d="m9.8125 72.906h14.703l18.594-49.609 18.703 49.609h14.703v-72.906h-9.625v64.016l-18.797-50h-9.9062l-18.797 50v-64.016h-9.5781z"/>
</defs>
<use xlink:href="#p"/>
<use x="29.492188" xlink:href="#aj"/>
<use x="115.771484" xlink:href="#r"/>
<use x="176.074219" xlink:href="#y"/>
<use x="231.787109" xlink:href="#p"/>
<use x="261.279297" xlink:href="#v"/>
<use x="331.103516" xlink:href="#p"/>
<use x="360.595703" xlink:href="#k"/>
</g>
</g>
<g clip-path="url(#a)">
<g transform="translate(184.24 367.22) scale(.1 -.1)">
<use xlink:href="#p"/>
<use x="29.492188" xlink:href="#aj"/>
<use x="115.771484" xlink:href="#r"/>
<use x="176.074219" xlink:href="#y"/>
<use x="231.787109" xlink:href="#p"/>
<use x="261.279297" xlink:href="#v"/>
<use x="331.103516" xlink:href="#p"/>
<use x="360.595703" xlink:href="#k"/>
</g>
</g>
<g clip-path="url(#a)">
<g transform="translate(392.61 30.638) scale(.1 -.1)">
<defs>
<path id="c" d="m12.406 8.2969h16.109v55.625l-17.531-3.5156v8.9844l17.438 3.5156h9.8594v-64.609h16.109v-8.2969h-41.984z"/>
</defs>
<use xlink:href="#c"/>
<use x="63.623047" xlink:href="#g"/>
<use x="95.410156" xlink:href="#c"/>
</g>
</g>
<g clip-path="url(#a)">
<g transform="translate(108.29 255.37) scale(.1 -.1)">
<defs>
<path id="m" d="m19.188 8.2969h34.422v-8.2969h-46.281v8.2969q5.6094 5.8125 15.297 15.594 9.7031 9.7969 12.188 12.641 4.7344 5.3125 6.6094 9 1.8906 3.6875 1.8906 7.25 0 5.8125-4.0781 9.4688-4.0781 3.6719-10.625 3.6719-4.6406 0-9.7969-1.6094-5.1406-1.6094-11-4.8906v9.9688q5.9531 2.3906 11.125 3.6094 5.1875 1.2188 9.4844 1.2188 11.328 0 18.062-5.6719 6.7344-5.6562 6.7344-15.125 0-4.5-1.6875-8.5312-1.6719-4.0156-6.125-9.4844-1.2188-1.4219-7.7656-8.1875-6.5312-6.7656-18.453-18.922z"/>
</defs>
<use xlink:href="#c"/>
<use x="63.623047" xlink:href="#g"/>
<use x="95.410156" xlink:href="#m"/>
</g>
</g>
<g clip-path="url(#a)">
<g transform="translate(232.8 478.48) scale(.1 -.1)">
<defs>
<path id="n" d="m40.578 39.312q7.0781-1.5156 11.047-6.3125 3.9844-4.7812 3.9844-11.812 0-10.781-7.4219-16.703-7.4219-5.9062-21.094-5.9062-4.5781 0-9.4375 0.90625t-10.031 2.7188v9.5156q4.0938-2.3906 8.9688-3.6094 4.8906-1.2188 10.219-1.2188 9.2656 0 14.125 3.6562t4.8594 10.641q0 6.4531-4.5156 10.078-4.5156 3.6406-12.562 3.6406h-8.5v8.1094h8.8906q7.2656 0 11.125 2.9062t3.8594 8.375q0 5.6094-3.9844 8.6094-3.9688 3.0156-11.391 3.0156-4.0625 0-8.7031-0.89062-4.6406-0.875-10.203-2.7188v8.7812q5.625 1.5625 10.531 2.3438t9.25 0.78125q11.234 0 17.766-5.1094 6.5469-5.0938 6.5469-13.781 0-6.0625-3.4688-10.234t-9.8594-5.7812z"/>
</defs>
<use xlink:href="#c"/>
<use x="63.623047" xlink:href="#g"/>
<use x="95.410156" xlink:href="#n"/>
</g>
</g>
<g clip-path="url(#a)">
<g transform="translate(390.67 143.15) scale(.1 -.1)">
<defs>
<path id="ad" d="m37.797 64.312-24.906-38.922h24.906zm-2.5938 8.5938h12.406v-47.516h10.406v-8.2031h-10.406v-17.188h-9.8125v17.188h-32.906v9.5156z"/>
</defs>
<use xlink:href="#c"/>
<use x="63.623047" xlink:href="#g"/>
<use x="95.410156" xlink:href="#ad"/>
</g>
</g>
<g clip-path="url(#a)">
<g transform="translate(838.68 367.22) scale(.1 -.1)">
<defs>
<path id="al" d="m10.797 72.906h38.719v-8.3125h-29.688v-17.859q2.1406 0.73438 4.2812 1.0938 2.1562 0.35938 4.3125 0.35938 12.203 0 19.328-6.6875 7.1406-6.6875 7.1406-18.109 0-11.766-7.3281-18.297-7.3281-6.5156-20.656-6.5156-4.5938 0-9.3594 0.78125-4.75 0.78125-9.8281 2.3438v9.9219q4.3906-2.3906 9.0781-3.5625t9.9062-1.1719q8.4531 0 13.375 4.4375 4.9375 4.4375 4.9375 12.062 0 7.6094-4.9375 12.047-4.9219 4.4531-13.375 4.4531-3.9531 0-7.8906-0.875-3.9219-0.875-8.0156-2.7344z"/>
</defs>
<use xlink:href="#c"/>
<use x="63.623047" xlink:href="#g"/>
<use x="95.410156" xlink:href="#al"/>
</g>
</g>
<g clip-path="url(#a)">
<g transform="translate(859.94 478.48) scale(.1 -.1)">
<defs>
<path id="ac" d="m33.016 40.375q-6.6406 0-10.531-4.5469-3.875-4.5312-3.875-12.438 0-7.8594 3.875-12.438 3.8906-4.5625 10.531-4.5625t10.516 4.5625q3.875 4.5781 3.875 12.438 0 7.9062-3.875 12.438-3.875 4.5469-10.516 4.5469zm19.578 30.922v-8.9844q-3.7188 1.75-7.5 2.6719-3.7812 0.9375-7.5 0.9375-9.7656 0-14.922-6.5938-5.1406-6.5938-5.875-19.922 2.875 4.25 7.2188 6.5156 4.3594 2.2656 9.5781 2.2656 10.984 0 17.359-6.6719 6.375-6.6562 6.375-18.125 0-11.234-6.6406-18.031-6.6406-6.7812-17.672-6.7812-12.656 0-19.344 9.6875-6.6875 9.7031-6.6875 28.109 0 17.281 8.2031 27.562t22.016 10.281q3.7188 0 7.5-0.73438t7.8906-2.1875z"/>
</defs>
<use xlink:href="#c"/>
<use x="63.623047" xlink:href="#g"/>
<use x="95.410156" xlink:href="#ac"/>
</g>
</g>
<g clip-path="url(#a)">
<g transform="translate(937.89 478.48) scale(.1 -.1)">
<defs>
<path id="ab" d="m8.2031 72.906h46.875v-4.2031l-26.469-68.703h-10.297l24.906 64.594h-35.016z"/>
</defs>
<use xlink:href="#c"/>
<use x="63.623047" xlink:href="#g"/>
<use x="95.410156" xlink:href="#ab"/>
</g>
</g>
<g clip-path="url(#a)">
<g transform="translate(1019.4 478.48) scale(.1 -.1)">
<defs>
<path id="aa" d="m31.781 34.625q-7.0312 0-11.062-3.7656-4.0156-3.7656-4.0156-10.344 0-6.5938 4.0156-10.359 4.0312-3.7656 11.062-3.7656t11.078 3.7812q4.0625 3.7969 4.0625 10.344 0 6.5781-4.0312 10.344-4.0156 3.7656-11.109 3.7656zm-9.8594 4.1875q-6.3438 1.5625-9.8906 5.9062-3.5312 4.3594-3.5312 10.609 0 8.7344 6.2188 13.812 6.2344 5.0781 17.062 5.0781 10.891 0 17.094-5.0781t6.2031-13.812q0-6.25-3.5469-10.609-3.5312-4.3438-9.8281-5.9062 7.125-1.6562 11.094-6.5 3.9844-4.8281 3.9844-11.797 0-10.609-6.4688-16.281-6.4688-5.6562-18.531-5.6562-12.047 0-18.531 5.6562-6.4688 5.6719-6.4688 16.281 0 6.9688 4 11.797 4.0156 4.8438 11.141 6.5zm-3.6094 15.578q0-5.6562 3.5312-8.8281 3.5469-3.1719 9.9375-3.1719 6.3594 0 9.9375 3.1719 3.5938 3.1719 3.5938 8.8281 0 5.6719-3.5938 8.8438-3.5781 3.1719-9.9375 3.1719-6.3906 0-9.9375-3.1719-3.5312-3.1719-3.5312-8.8438z"/>
</defs>
<use xlink:href="#c"/>
<use x="63.623047" xlink:href="#g"/>
<use x="95.410156" xlink:href="#aa"/>
</g>
</g>
<g clip-path="url(#a)">
<g transform="translate(268.6 478.48) scale(.1 -.1)">
<defs>
<path id="ae" d="m31.781 66.406q-7.6094 0-11.453-7.5-3.8281-7.4844-3.8281-22.531 0-14.984 3.8281-22.484 3.8438-7.5 11.453-7.5 7.6719 0 11.5 7.5 3.8438 7.5 3.8438 22.484 0 15.047-3.8438 22.531-3.8281 7.5-11.5 7.5zm0 7.8125q12.266 0 18.734-9.7031 6.4688-9.6875 6.4688-28.141 0-18.406-6.4688-28.109-6.4688-9.6875-18.734-9.6875-12.25 0-18.719 9.6875-6.4688 9.7031-6.4688 28.109 0 18.453 6.4688 28.141 6.4688 9.7031 18.719 9.7031z"/>
</defs>
<use xlink:href="#c"/>
<use x="63.623047" xlink:href="#g"/>
<use x="95.410156" xlink:href="#c"/>
<use x="159.033203" xlink:href="#ae"/>
</g>
</g>
<g clip-path="url(#a)">
<g transform="translate(311.11 478.48) scale(.1 -.1)">
<use xlink:href="#c"/>
<use x="63.623047" xlink:href="#g"/>
<use x="95.410156" xlink:href="#c"/>
<use x="159.033203" xlink:href="#c"/>
</g>
</g>
<g clip-path="url(#a)">
<g transform="translate(357.17 478.48) scale(.1 -.1)">
<use xlink:href="#c"/>
<use x="63.623047" xlink:href="#g"/>
<use x="95.410156" xlink:href="#c"/>
<use x="159.033203" xlink:href="#m"/>
</g>
</g>
<g clip-path="url(#a)">
<g transform="translate(406.78 478.48) scale(.1 -.1)">
<use xlink:href="#c"/>
<use x="63.623047" xlink:href="#g"/>
<use x="95.410156" xlink:href="#c"/>
<use x="159.033203" xlink:href="#n"/>
</g>
</g>
<g clip-path="url(#a)">
<g transform="translate(593.78 255.37) scale(.1 -.1)">
<use xlink:href="#c"/>
<use x="63.623047" xlink:href="#g"/>
<use x="95.410156" xlink:href="#c"/>
<use x="159.033203" xlink:href="#ad"/>
</g>
</g>
<g clip-path="url(#a)">
<g transform="translate(459.93 478.48) scale(.1 -.1)">
<use xlink:href="#c"/>
<use x="63.623047" xlink:href="#g"/>
<use x="95.410156" xlink:href="#c"/>
<use x="159.033203" xlink:href="#ac"/>
</g>
</g>
<g clip-path="url(#a)">
<g transform="translate(578.03 367.22) scale(.1 -.1)">
<use xlink:href="#c"/>
<use x="63.623047" xlink:href="#g"/>
<use x="95.410156" xlink:href="#c"/>
<use x="159.033203" xlink:href="#ab"/>
</g>
</g>
<g clip-path="url(#a)">
<g transform="translate(743.38 367.22) scale(.1 -.1)">
<use xlink:href="#c"/>
<use x="63.623047" xlink:href="#g"/>
<use x="95.410156" xlink:href="#c"/>
<use x="159.033203" xlink:href="#aa"/>
</g>
</g>
<g clip-path="url(#a)">
<g transform="translate(707.94 478.48) scale(.1 -.1)">
<defs>
<path id="ak" d="m10.984 1.5156v8.9844q3.7188-1.7656 7.5156-2.6875 3.8125-0.92188 7.4844-0.92188 9.7656 0 14.906 6.5625 5.1562 6.5625 5.8906 19.953-2.8281-4.2031-7.1875-6.4531-4.3438-2.25-9.6094-2.25-10.938 0-17.312 6.6094-6.375 6.625-6.375 18.109 0 11.219 6.6406 18 6.6406 6.7969 17.672 6.7969 12.656 0 19.312-9.7031 6.6719-9.6875 6.6719-28.141 0-17.234-8.1875-27.516-8.1719-10.281-21.984-10.281-3.7188 0-7.5312 0.73438-3.7969 0.73438-7.9062 2.2031zm19.625 30.906q6.6406 0 10.516 4.5312 3.8906 4.5469 3.8906 12.469 0 7.8594-3.8906 12.422-3.875 4.5625-10.516 4.5625t-10.516-4.5625-3.875-12.422q0-7.9219 3.875-12.469 3.875-4.5312 10.516-4.5312z"/>
</defs>
<use xlink:href="#c"/>
<use x="63.623047" xlink:href="#g"/>
<use x="95.410156" xlink:href="#c"/>
<use x="159.033203" xlink:href="#ak"/>
</g>
</g>
<g clip-path="url(#a)">
<g transform="translate(778.81 478.48) scale(.1 -.1)">
<use xlink:href="#c"/>
<use x="63.623047" xlink:href="#g"/>
<use x="95.410156" xlink:href="#m"/>
<use x="159.033203" xlink:href="#ae"/>
</g>
</g>
<g clip-path="url(#a)">
<g transform="translate(516.62 478.48) scale(.1 -.1)">
<use xlink:href="#c"/>
<use x="63.623047" xlink:href="#g"/>
<use x="95.410156" xlink:href="#m"/>
<use x="159.033203" xlink:href="#c"/>
</g>
</g>
<g clip-path="url(#a)">
<g transform="translate(576.85 478.48) scale(.1 -.1)">
<use xlink:href="#c"/>
<use x="63.623047" xlink:href="#g"/>
<use x="95.410156" xlink:href="#m"/>
<use x="159.033203" xlink:href="#m"/>
</g>
</g>
<g clip-path="url(#a)">
<g transform="translate(640.62 478.48) scale(.1 -.1)">
<use xlink:href="#c"/>
<use x="63.623047" xlink:href="#g"/>
<use x="95.410156" xlink:href="#m"/>
<use x="159.033203" xlink:href="#n"/>
</g>
</g>
<g clip-path="url(#a)">
<g transform="translate(41.837 478.48) scale(.1 -.1)">
<use xlink:href="#c"/>
<use x="63.623047" xlink:href="#g"/>
<use x="95.410156" xlink:href="#m"/>
<use x="159.033203" xlink:href="#al"/>
</g>
</g>
<g clip-path="url(#a)">
<g transform="translate(52.466 478.48) scale(.1 -.1)">
<use xlink:href="#c"/>
<use x="63.623047" xlink:href="#g"/>
<use x="95.410156" xlink:href="#m"/>
<use x="159.033203" xlink:href="#ac"/>
</g>
</g>
<g clip-path="url(#a)">
<g transform="translate(66.639 478.48) scale(.1 -.1)">
<use xlink:href="#c"/>
<use x="63.623047" xlink:href="#g"/>
<use x="95.410156" xlink:href="#m"/>
<use x="159.033203" xlink:href="#ab"/>
</g>
</g>
<g clip-path="url(#a)">
<g transform="translate(94.984 367.22) scale(.1 -.1)">
<use xlink:href="#c"/>
<use x="63.623047" xlink:href="#g"/>
<use x="95.410156" xlink:href="#m"/>
<use x="159.033203" xlink:href="#aa"/>
</g>
</g>
<g clip-path="url(#a)">
<g transform="translate(130.41 478.48) scale(.1 -.1)">
<use xlink:href="#c"/>
<use x="63.623047" xlink:href="#g"/>
<use x="95.410156" xlink:href="#m"/>
<use x="159.033203" xlink:href="#ak"/>
</g>
</g>
<g clip-path="url(#a)">
<g transform="translate(158.76 478.48) scale(.1 -.1)">
<use xlink:href="#c"/>
<use x="63.623047" xlink:href="#g"/>
<use x="95.410156" xlink:href="#n"/>
<use x="159.033203" xlink:href="#ae"/>
</g>
</g>
<g clip-path="url(#a)">
<g transform="translate(190.65 478.48) scale(.1 -.1)">
<use xlink:href="#c"/>
<use x="63.623047" xlink:href="#g"/>
<use x="95.410156" xlink:href="#n"/>
<use x="159.033203" xlink:href="#c"/>
</g>
</g>
<g clip-path="url(#a)">
<g transform="translate(84.354 478.48) scale(.1 -.1)">
<use xlink:href="#c"/>
<use x="63.623047" xlink:href="#g"/>
<use x="95.410156" xlink:href="#n"/>
<use x="159.033203" xlink:href="#m"/>
</g>
</g>
<g clip-path="url(#a)">
<g transform="translate(105.61 478.48) scale(.1 -.1)">
<use xlink:href="#c"/>
<use x="63.623047" xlink:href="#g"/>
<use x="95.410156" xlink:href="#n"/>
<use x="159.033203" xlink:href="#n"/>
</g>
</g>
<g clip-path="url(#a)">
<g transform="translate(1101.2 478.48) scale(.1 -.1)">
<use xlink:href="#c"/>
<use x="63.623047" xlink:href="#g"/>
<use x="95.410156" xlink:href="#n"/>
<use x="159.033203" xlink:href="#ad"/>
</g>
</g>
<defs>
<clipPath id="a">
<rect width="1165.3" height="613.33"/>
</clipPath>
</defs>
</svg>
