<?xml version="1.0" encoding="UTF-8"?>
<!DOCTYPE svg  PUBLIC '-//W3C//DTD SVG 1.1//EN'  'http://www.w3.org/Graphics/SVG/1.1/DTD/svg11.dtd'>
<svg width="354.67pt" height="186.67pt" version="1.1" viewBox="0 0 354.67 186.67" xmlns="http://www.w3.org/2000/svg" xmlns:xlink="http://www.w3.org/1999/xlink">
<defs>
<style type="text/css">*{stroke-linecap:butt;stroke-linejoin:round;}</style>
</defs>
<path d="m0 186.67h354.67v-186.67h-354.67z" fill="#fff"/>
<g fill="none" stroke="#000">
<path d="m137.84 8.4848v42.79" clip-path="url(#a)"/>
<path d="m137.84 51.275-107.07 42.645" clip-path="url(#a)"/>
<path d="m137.84 51.275-53.33 85.067" clip-path="url(#a)"/>
<path d="m137.84 51.275 106.25 42.645" clip-path="url(#a)"/>
<path d="m137.84 51.275 54.144 85.067" clip-path="url(#a)"/>
<path d="m30.777 93.919-14.656 42.422" clip-path="url(#a)"/>
<path d="m30.777 93.919 14.656 42.422" clip-path="url(#a)"/>
<path d="m84.514 136.34v41.84" clip-path="url(#a)"/>
<path d="m244.1 93.919-110.73 42.422" clip-path="url(#a)"/>
<path d="m244.1 93.919 16.284 42.422" clip-path="url(#a)"/>
<path d="m244.1 93.919 94.448 42.422" clip-path="url(#a)"/>
<path d="m191.99 136.34v41.84" clip-path="url(#a)"/>
<path d="m133.37 136.34v41.84" clip-path="url(#a)"/>
<path d="m260.38 136.34v41.84" clip-path="url(#a)"/>
<path d="m16.121 136.34v41.84" clip-path="url(#a)"/>
<path d="m45.433 136.34v41.84" clip-path="url(#a)"/>
<path d="m338.55 136.34v41.84" clip-path="url(#a)"/>
</g>
<path d="m131.57 26.872v6.0162q0 2.4 2.4 2.4h7.7425q2.4 0 2.4-2.4v-6.0162q0-2.4-2.4-2.4h-7.7425q-2.4 0-2.4 2.4z" clip-path="url(#a)" fill="#fff" stroke="#fff"/>
<g clip-path="url(#a)">
<defs>
<path id="w" d="m9.8125 72.906h9.8594v-29.891h35.844v29.891h9.8594v-72.906h-9.8594v34.719h-35.844v-34.719h-9.8594z"/>
</defs>
<g transform="translate(135.64 26.872) rotate(90) scale(.08 -.08)">
<use xlink:href="#w"/>
</g>
</g>
<path d="m84.089 79.436 5.0841-2.025q2.2297-0.88806 1.3416-3.1177l-2.8649-7.1929q-0.88806-2.2297-3.1177-1.3416l-5.0841 2.025q-2.2297 0.88806-1.3416 3.1177l2.8649 7.1929q0.88806 2.2297 3.1177 1.3416z" clip-path="url(#a)" fill="#fff" stroke="#fff"/>
<g clip-path="url(#a)">
<defs>
<path id="z" d="m34.188 63.188-13.391-36.281h26.812zm-5.5781 9.7188h11.188l27.781-72.906h-10.25l-6.6406 18.703h-32.859l-6.6406-18.703h-10.406z"/>
</defs>
<g transform="translate(82.585 75.66) rotate(-21.717) scale(.08 -.08)">
<use xlink:href="#z"/>
</g>
</g>
<path d="m115.27 99.089 2.444-3.8985q1.2748-2.0334-0.75863-3.3082l-6.56-4.1126q-2.0334-1.2748-3.3082 0.75863l-2.444 3.8985q-1.2748 2.0334 0.75863 3.3082l6.56 4.1126q2.0334 1.2748 3.3082-0.75863z" clip-path="url(#a)" fill="#fff" stroke="#fff"/>
<g clip-path="url(#a)">
<defs>
<path id="o" d="m9.8125 72.906h41.891v-8.3125h-32.031v-21.484h28.906v-8.2969h-28.906v-34.812h-9.8594z"/>
</defs>
<g transform="translate(111.83 96.93) rotate(-57.916) scale(.08 -.08)">
<use xlink:href="#o"/>
</g>
</g>
<path d="m186.28 77.471 4.7133 1.8917q2.2273 0.89393 3.1212-1.3334l2.8838-7.1854q0.89393-2.2273-1.3334-3.1212l-4.7133-1.8917q-2.2273-0.89393-3.1212 1.3334l-2.8838 7.1854q-0.89393 2.2273 1.3334 3.1212z" clip-path="url(#a)" fill="#fff" stroke="#fff"/>
<g clip-path="url(#a)">
<defs>
<path id="v" d="m53.516 70.516v-9.625q-5.6094 2.6875-10.594 4-4.9844 1.3281-9.625 1.3281-8.0469 0-12.422-3.125t-4.375-8.8906q0-4.8438 2.9062-7.3125 2.9062-2.4531 11.016-3.9688l5.9531-1.2188q11.031-2.1094 16.281-7.4062t5.25-14.172q0-10.609-7.1094-16.078-7.0938-5.4688-20.812-5.4688-5.1719 0-11.016 1.1719-5.8281 1.1719-12.078 3.4688v10.156q6-3.3594 11.766-5.0781 5.7656-1.7031 11.328-1.7031 8.4375 0 13.031 3.3125 4.5938 3.3281 4.5938 9.4844 0 5.3594-3.2969 8.3906t-10.812 4.5469l-6.0156 1.1719q-11.031 2.1875-15.969 6.875-4.9219 4.6875-4.9219 13.047 0 9.6719 6.8125 15.234t18.766 5.5625q5.1406 0 10.453-0.9375 5.3281-0.92188 10.891-2.7656z"/>
</defs>
<g transform="translate(187.79 73.7) rotate(21.868) scale(.08 -.08)">
<use xlink:href="#v"/>
</g>
</g>
<path d="m157.97 94.577 3.3076 5.1967q1.2887 2.0247 3.3134 0.73598l6.5317-4.1574q2.0247-1.2887 0.73598-3.3134l-3.3076-5.1967q-1.2887-2.0247-3.3134-0.73598l-6.5317 4.1574q-2.0247 1.2887-0.73598 3.3134z" clip-path="url(#a)" fill="#fff" stroke="#fff"/>
<g clip-path="url(#a)">
<defs>
<path id="y" d="m19.672 64.797v-56.688h11.922q15.094 0 22.094 6.8281 7 6.8438 7 21.594 0 14.641-7 21.453t-22.094 6.8125zm-9.8594 8.1094h20.266q21.188 0 31.094-8.8125 9.9219-8.8125 9.9219-27.562 0-18.859-9.9688-27.703-9.9531-8.8281-31.047-8.8281h-20.266z"/>
</defs>
<g transform="translate(161.4 92.395) rotate(57.524) scale(.08 -.08)">
<use xlink:href="#y"/>
</g>
</g>
<path d="m28.551 119.57 1.6506-4.7779q0.78368-2.2684-1.4848-3.0521l-7.3181-2.5282q-2.2684-0.78368-3.0521 1.4848l-1.6506 4.7779q-0.78368 2.2684 1.4848 3.0521l7.3181 2.5282q2.2684 0.78368 3.0521-1.4848z" clip-path="url(#a)" fill="#fff" stroke="#fff"/>
<g clip-path="url(#a)">
<defs>
<path id="x" d="m9.8125 72.906h46.094v-8.3125h-36.234v-21.578h34.719v-8.2969h-34.719v-26.422h37.109v-8.2969h-46.969z"/>
</defs>
<g transform="translate(24.71 118.24) rotate(-70.941) scale(.08 -.08)">
<use xlink:href="#x"/>
</g>
</g>
<path d="m31.265 114.54 1.8241 5.28q0.78368 2.2684 3.0521 1.4848l7.3181-2.5282q2.2684-0.78368 1.4848-3.0521l-1.8241-5.28q-0.78368-2.2684-3.0521-1.4848l-7.3181 2.5282q-2.2684 0.78368-1.4848 3.0521z" clip-path="url(#a)" fill="#fff" stroke="#fff"/>
<g clip-path="url(#a)">
<defs>
<path id="p" d="m64.406 67.281v-10.391q-4.9844 4.6406-10.625 6.9219-5.6406 2.2969-11.984 2.2969-12.5 0-19.141-7.6406t-6.6406-22.094q0-14.406 6.6406-22.047t19.141-7.6406q6.3438 0 11.984 2.2969t10.625 6.9375v-10.312q-5.1719-3.5156-10.969-5.2812-5.7812-1.75-12.219-1.75-16.562 0-26.094 10.125-9.5156 10.141-9.5156 27.672 0 17.578 9.5156 27.703 9.5312 10.141 26.094 10.141 6.5312 0 12.312-1.7344 5.7969-1.7344 10.875-5.2031z"/>
</defs>
<g transform="translate(35.106 113.21) rotate(70.941) scale(.08 -.08)">
<use xlink:href="#p"/>
</g>
</g>
<path d="m78.243 140.36v33.808q0 2.4 2.4 2.4h7.7425q2.4 0 2.4-2.4v-33.808q0-2.4-2.4-2.4h-7.7425q-2.4 0-2.4 2.4z" clip-path="url(#a)" fill="#fff" stroke="#fff"/>
<g clip-path="url(#a)">
<defs>
<path id="k" d="m-0.29688 72.906h61.672v-8.3125h-25.875v-64.594h-9.9062v64.594h-25.891z"/>
<path id="e" d="m56.203 29.594v-4.3906h-41.312q0.59375-9.2812 5.5938-14.141t13.938-4.8594q5.1719 0 10.031 1.2656t9.6562 3.8125v-8.5q-4.8438-2.0469-9.9219-3.125t-10.297-1.0781q-13.094 0-20.734 7.6094-7.6406 7.625-7.6406 20.625 0 13.422 7.25 21.297 7.25 7.8906 19.562 7.8906 11.031 0 17.453-7.1094 6.4219-7.0938 6.4219-19.297zm-8.9844 2.6406q-0.09375 7.3594-4.125 11.75-4.0312 4.4062-10.672 4.4062-7.5156 0-12.031-4.25t-5.2031-11.969z"/>
<path id="h" d="m41.109 46.297q-1.5156 0.875-3.2969 1.2812-1.7812 0.42188-3.9219 0.42188-7.625 0-11.703-4.9531t-4.0781-14.234v-28.812h-9.0312v54.688h9.0312v-8.5q2.8438 4.9844 7.375 7.3906 4.5469 2.4219 11.047 2.4219 0.92188 0 2.0469-0.125 1.125-0.10938 2.4844-0.35938z"/>
<path id="g" d="m52 44.188q3.375 6.0625 8.0625 8.9375t11.031 2.875q8.5469 0 13.188-5.9844 4.6406-5.9688 4.6406-17v-33.016h-9.0312v32.719q0 7.8594-2.7969 11.656-2.7812 3.8125-8.4844 3.8125-6.9844 0-11.047-4.6406-4.0469-4.625-4.0469-12.641v-30.906h-9.0312v32.719q0 7.9062-2.7812 11.688t-8.5938 3.7812q-6.8906 0-10.953-4.6562-4.0469-4.6562-4.0469-12.625v-30.906h-9.0312v54.688h9.0312v-8.5q3.0781 5.0312 7.375 7.4219t10.203 2.3906q5.9688 0 10.141-3.0312 4.1719-3.0156 6.1719-8.7812z"/>
<path id="j" d="m9.4219 54.688h8.9844v-54.688h-8.9844zm0 21.297h8.9844v-11.391h-8.9844z"/>
<path id="l" d="m54.891 33.016v-33.016h-8.9844v32.719q0 7.7656-3.0312 11.609-3.0312 3.8594-9.0781 3.8594-7.2812 0-11.484-4.6406-4.2031-4.625-4.2031-12.641v-30.906h-9.0312v54.688h9.0312v-8.5q3.2344 4.9375 7.5938 7.375 4.375 2.4375 10.094 2.4375 9.4219 0 14.25-5.8281 4.8438-5.8281 4.8438-17.156z"/>
<path id="f" d="m34.281 27.484q-10.891 0-15.094-2.4844t-4.2031-8.5q0-4.7812 3.1562-7.5938 3.1562-2.7969 8.5625-2.7969 7.4844 0 12 5.2969t4.5156 14.078v2zm17.922 3.7188v-31.203h-8.9844v8.2969q-3.0781-4.9688-7.6719-7.3438t-11.234-2.375q-8.3906 0-13.359 4.7188-4.9531 4.7188-4.9531 12.625 0 9.2188 6.1719 13.906 6.1875 4.6875 18.438 4.6875h12.609v0.89062q0 6.2031-4.0781 9.5938t-11.453 3.3906q-4.6875 0-9.1406-1.125-4.4375-1.125-8.5312-3.375v8.3125q4.9219 1.9062 9.5625 2.8438 4.6406 0.95312 9.0312 0.95312 11.875 0 17.734-6.1562 5.8594-6.1406 5.8594-18.641z"/>
<path id="i" d="m9.4219 75.984h8.9844v-75.984h-8.9844z"/>
</defs>
<g transform="translate(82.307 140.36) rotate(90) scale(.08 -.08)">
<use xlink:href="#k"/>
<use x="44.083984" xlink:href="#e"/>
<use x="105.607422" xlink:href="#h"/>
<use x="144.970703" xlink:href="#g"/>
<use x="242.382812" xlink:href="#j"/>
<use x="270.166016" xlink:href="#l"/>
<use x="333.544922" xlink:href="#f"/>
<use x="394.824219" xlink:href="#i"/>
</g>
</g>
<path d="m188.83 121.81 4.2967-1.6461q2.2412-0.85861 1.3826-3.0998l-2.7699-7.2301q-0.85861-2.2412-3.0998-1.3826l-4.2967 1.6461q-2.2412 0.85861-1.3826 3.0998l2.7699 7.2301q0.85861 2.2412 3.0998 1.3826z" clip-path="url(#a)" fill="#fff" stroke="#fff"/>
<g clip-path="url(#a)">
<g transform="translate(187.37 118.01) rotate(-20.962) scale(.08 -.08)">
<use xlink:href="#o"/>
</g>
</g>
<path d="m245.38 114.77 2.0019 5.2152q0.86007 2.2406 3.1007 1.3805l7.2283-2.7746q2.2406-0.86007 1.3805-3.1007l-2.0019-5.2152q-0.86007-2.2406-3.1007-1.3805l-7.2283 2.7746q-2.2406 0.86007-1.3805 3.1007z" clip-path="url(#a)" fill="#fff" stroke="#fff"/>
<g clip-path="url(#a)">
<g transform="translate(249.18 113.31) rotate(69) scale(.08 -.08)">
<use xlink:href="#p"/>
</g>
</g>
<path d="m286.08 119.65 5.341 2.399q2.1893 0.98335 3.1726-1.2059l3.1723-7.0628q0.98335-2.1893-1.2059-3.1726l-5.341-2.399q-2.1893-0.98335-3.1726 1.2059l-3.1723 7.0628q-0.98335 2.1893 1.2059 3.1726z" clip-path="url(#a)" fill="#fff" stroke="#fff"/>
<g clip-path="url(#a)">
<defs>
<path id="u" d="m8.6875 72.906h9.9219v-44.297q0-11.719 4.2344-16.875 4.25-5.1406 13.781-5.1406 9.4688 0 13.719 5.1406 4.25 5.1562 4.25 16.875v44.297h9.9062v-45.516q0-14.25-7.0625-21.531-7.0469-7.2812-20.812-7.2812-13.828 0-20.891 7.2812-7.0469 7.2812-7.0469 21.531z"/>
</defs>
<g transform="translate(287.75 115.94) rotate(24.188) scale(.08 -.08)">
<use xlink:href="#u"/>
</g>
</g>
<path d="m185.72 140.36v33.808q0 2.4 2.4 2.4h7.7425q2.4 0 2.4-2.4v-33.808q0-2.4-2.4-2.4h-7.7425q-2.4 0-2.4 2.4z" clip-path="url(#a)" fill="#fff" stroke="#fff"/>
<g clip-path="url(#a)">
<g transform="translate(189.78 140.36) rotate(90) scale(.08 -.08)">
<use xlink:href="#k"/>
<use x="44.083984" xlink:href="#e"/>
<use x="105.607422" xlink:href="#h"/>
<use x="144.970703" xlink:href="#g"/>
<use x="242.382812" xlink:href="#j"/>
<use x="270.166016" xlink:href="#l"/>
<use x="333.544922" xlink:href="#f"/>
<use x="394.824219" xlink:href="#i"/>
</g>
</g>
<path d="m127.1 140.36v33.808q0 2.4 2.4 2.4h7.7425q2.4 0 2.4-2.4v-33.808q0-2.4-2.4-2.4h-7.7425q-2.4 0-2.4 2.4z" clip-path="url(#a)" fill="#fff" stroke="#fff"/>
<g clip-path="url(#a)">
<g transform="translate(131.16 140.36) rotate(90) scale(.08 -.08)">
<use xlink:href="#k"/>
<use x="44.083984" xlink:href="#e"/>
<use x="105.607422" xlink:href="#h"/>
<use x="144.970703" xlink:href="#g"/>
<use x="242.382812" xlink:href="#j"/>
<use x="270.166016" xlink:href="#l"/>
<use x="333.544922" xlink:href="#f"/>
<use x="394.824219" xlink:href="#i"/>
</g>
</g>
<path d="m254.11 140.36v33.808q0 2.4 2.4 2.4h7.7425q2.4 0 2.4-2.4v-33.808q0-2.4-2.4-2.4h-7.7425q-2.4 0-2.4 2.4z" clip-path="url(#a)" fill="#fff" stroke="#fff"/>
<g clip-path="url(#a)">
<g transform="translate(258.17 140.36) rotate(90) scale(.08 -.08)">
<use xlink:href="#k"/>
<use x="44.083984" xlink:href="#e"/>
<use x="105.607422" xlink:href="#h"/>
<use x="144.970703" xlink:href="#g"/>
<use x="242.382812" xlink:href="#j"/>
<use x="270.166016" xlink:href="#l"/>
<use x="333.544922" xlink:href="#f"/>
<use x="394.824219" xlink:href="#i"/>
</g>
</g>
<path d="m9.85 140.36v33.808q0 2.4 2.4 2.4h7.7425q2.4 0 2.4-2.4v-33.808q0-2.4-2.4-2.4h-7.7425q-2.4 0-2.4 2.4z" clip-path="url(#a)" fill="#fff" stroke="#fff"/>
<g clip-path="url(#a)">
<g transform="translate(13.914 140.36) rotate(90) scale(.08 -.08)">
<use xlink:href="#k"/>
<use x="44.083984" xlink:href="#e"/>
<use x="105.607422" xlink:href="#h"/>
<use x="144.970703" xlink:href="#g"/>
<use x="242.382812" xlink:href="#j"/>
<use x="270.166016" xlink:href="#l"/>
<use x="333.544922" xlink:href="#f"/>
<use x="394.824219" xlink:href="#i"/>
</g>
</g>
<path d="m39.161 140.36v33.808q0 2.4 2.4 2.4h7.7425q2.4 0 2.4-2.4v-33.808q0-2.4-2.4-2.4h-7.7425q-2.4 0-2.4 2.4z" clip-path="url(#a)" fill="#fff" stroke="#fff"/>
<g clip-path="url(#a)">
<g transform="translate(43.225 140.36) rotate(90) scale(.08 -.08)">
<use xlink:href="#k"/>
<use x="44.083984" xlink:href="#e"/>
<use x="105.607422" xlink:href="#h"/>
<use x="144.970703" xlink:href="#g"/>
<use x="242.382812" xlink:href="#j"/>
<use x="270.166016" xlink:href="#l"/>
<use x="333.544922" xlink:href="#f"/>
<use x="394.824219" xlink:href="#i"/>
</g>
</g>
<path d="m332.27 140.36v33.808q0 2.4 2.4 2.4h7.7425q2.4 0 2.4-2.4v-33.808q0-2.4-2.4-2.4h-7.7425q-2.4 0-2.4 2.4z" clip-path="url(#a)" fill="#fff" stroke="#fff"/>
<g clip-path="url(#a)">
<g transform="translate(336.34 140.36) rotate(90) scale(.08 -.08)">
<use xlink:href="#k"/>
<use x="44.083984" xlink:href="#e"/>
<use x="105.607422" xlink:href="#h"/>
<use x="144.970703" xlink:href="#g"/>
<use x="242.382812" xlink:href="#j"/>
<use x="270.166016" xlink:href="#l"/>
<use x="333.544922" xlink:href="#f"/>
<use x="394.824219" xlink:href="#i"/>
</g>
</g>
<defs>
<path id="b" d="m0 8.6603c2.2967 0 4.4997-0.9125 6.1237-2.5365 1.624-1.624 2.5365-3.827 2.5365-6.1237s-0.9125-4.4997-2.5365-6.1237c-1.624-1.624-3.827-2.5365-6.1237-2.5365s-4.4997 0.9125-6.1237 2.5365c-1.624 1.624-2.5365 3.827-2.5365 6.1237s0.9125 4.4997 2.5365 6.1237c1.624 1.624 3.827 2.5365 6.1237 2.5365z"/>
</defs>
<g clip-path="url(#a)">
<use x="16.121212" y="178.181818" fill="#ffffff" stroke="#ffffff" xlink:href="#b"/>
</g>
<g clip-path="url(#a)">
<use x="45.432507" y="178.181818" fill="#ffffff" stroke="#ffffff" xlink:href="#b"/>
</g>
<g clip-path="url(#a)">
<use x="84.514233" y="178.181818" fill="#ffffff" stroke="#ffffff" xlink:href="#b"/>
</g>
<g clip-path="url(#a)">
<use x="133.366391" y="178.181818" fill="#ffffff" stroke="#ffffff" xlink:href="#b"/>
</g>
<g clip-path="url(#a)">
<use x="191.988981" y="178.181818" fill="#ffffff" stroke="#ffffff" xlink:href="#b"/>
</g>
<g clip-path="url(#a)">
<use x="260.382002" y="178.181818" fill="#ffffff" stroke="#ffffff" xlink:href="#b"/>
</g>
<g clip-path="url(#a)">
<use x="338.545455" y="178.181818" fill="#ffffff" stroke="#ffffff" xlink:href="#b"/>
</g>
<g clip-path="url(#a)">
<use x="137.844506" y="8.484848" fill="#ffffff" stroke="#ffffff" xlink:href="#b"/>
</g>
<g clip-path="url(#a)">
<use x="137.844506" y="51.274706" fill="#ffffff" stroke="#ffffff" xlink:href="#b"/>
</g>
<g clip-path="url(#a)">
<use x="30.77686" y="93.919425" fill="#ffffff" stroke="#ffffff" xlink:href="#b"/>
</g>
<g clip-path="url(#a)">
<use x="84.514233" y="136.341643" fill="#ffffff" stroke="#ffffff" xlink:href="#b"/>
</g>
<g clip-path="url(#a)">
<use x="244.097949" y="93.919425" fill="#ffffff" stroke="#ffffff" xlink:href="#b"/>
</g>
<g clip-path="url(#a)">
<use x="191.988981" y="136.341643" fill="#ffffff" stroke="#ffffff" xlink:href="#b"/>
</g>
<g clip-path="url(#a)">
<use x="133.366391" y="136.341643" fill="#ffffff" stroke="#ffffff" xlink:href="#b"/>
</g>
<g clip-path="url(#a)">
<use x="260.382002" y="136.341643" fill="#ffffff" stroke="#ffffff" xlink:href="#b"/>
</g>
<g clip-path="url(#a)">
<use x="16.121212" y="136.341643" fill="#ffffff" stroke="#ffffff" xlink:href="#b"/>
</g>
<g clip-path="url(#a)">
<use x="45.432507" y="136.341643" fill="#ffffff" stroke="#ffffff" xlink:href="#b"/>
</g>
<g clip-path="url(#a)">
<use x="338.545455" y="136.341643" fill="#ffffff" stroke="#ffffff" xlink:href="#b"/>
</g>
<g clip-path="url(#a)">
<defs>
<path id="ai" d="m54.891 33.016v-33.016h-8.9844v32.719q0 7.7656-3.0312 11.609-3.0312 3.8594-9.0781 3.8594-7.2812 0-11.484-4.6406-4.2031-4.625-4.2031-12.641v-30.906h-9.0312v75.984h9.0312v-29.797q3.2344 4.9375 7.5938 7.375 4.375 2.4375 10.094 2.4375 9.4219 0 14.25-5.8281 4.8438-5.8281 4.8438-17.156z"/>
<path id="m" d="m44.281 53.078v-8.5q-3.7969 1.9531-7.9062 2.9219-4.0938 0.98438-8.5 0.98438-6.6875 0-10.031-2.0469t-3.3438-6.1562q0-3.125 2.3906-4.9062t9.625-3.3906l3.0781-0.6875q9.5625-2.0469 13.594-5.7812t4.0312-10.422q0-7.625-6.0312-12.078-6.0312-4.4375-16.578-4.4375-4.3906 0-9.1562 0.85938t-10.031 2.5625v9.2812q4.9844-2.5938 9.8125-3.8906 4.8281-1.2812 9.5781-1.2812 6.3438 0 9.75 2.1719 3.4219 2.1719 3.4219 6.125 0 3.6562-2.4688 5.6094-2.4531 1.9531-10.812 3.7656l-3.125 0.73438q-8.3438 1.75-12.062 5.3906-3.7031 3.6406-3.7031 9.9844 0 7.7188 5.4688 11.906 5.4688 4.2031 15.531 4.2031 4.9688 0 9.3594-0.73438 4.4062-0.71875 8.1094-2.1875z"/>
</defs>
<g transform="translate(5.9048 180.94) scale(.1 -.1)">
<use xlink:href="#k"/>
<use x="61.083984" xlink:href="#ai"/>
<use x="124.462891" xlink:href="#j"/>
<use x="152.246094" xlink:href="#m"/>
</g>
</g>
<g clip-path="url(#a)">
<defs>
<path id="s" d="m18.109 8.2031v-29h-9.0312v75.484h9.0312v-8.2969q2.8438 4.875 7.1562 7.2344 4.3281 2.375 10.328 2.375 9.9688 0 16.188-7.9062 6.2344-7.9062 6.2344-20.797t-6.2344-20.812q-6.2188-7.9062-16.188-7.9062-6 0-10.328 2.375-4.3125 2.375-7.1562 7.25zm30.578 19.094q0 9.9062-4.0781 15.547t-11.203 5.6406q-7.1406 0-11.219-5.6406t-4.0781-15.547 4.0781-15.547 11.219-5.6406q7.125 0 11.203 5.6406t4.0781 15.547z"/>
<path id="n" d="m48.781 52.594v-8.4062q-3.8125 2.1094-7.6406 3.1562t-7.7344 1.0469q-8.75 0-13.594-5.5469-4.8281-5.5312-4.8281-15.547t4.8281-15.562q4.8438-5.5312 13.594-5.5312 3.9062 0 7.7344 1.0469t7.6406 3.1562v-8.3125q-3.7656-1.75-7.7969-2.625-4.0156-0.89062-8.5625-0.89062-12.359 0-19.641 7.7656-7.2656 7.7656-7.2656 20.953 0 13.375 7.3438 21.031 7.3594 7.6719 20.156 7.6719 4.1406 0 8.0938-0.85938 3.9531-0.84375 7.6719-2.5469z"/>
</defs>
<g transform="translate(31.979 180.94) scale(.1 -.1)">
<use xlink:href="#s"/>
<use x="63.476562" xlink:href="#i"/>
<use x="91.259766" xlink:href="#f"/>
<use x="152.539062" xlink:href="#n"/>
<use x="207.519531" xlink:href="#e"/>
</g>
</g>
<g clip-path="url(#a)">
<g transform="translate(80.52 180.94) scale(.1 -.1)">
<use xlink:href="#j"/>
<use x="27.783203" xlink:href="#m"/>
</g>
</g>
<g clip-path="url(#a)">
<g transform="translate(130.3 180.94) scale(.1 -.1)">
<use xlink:href="#f"/>
</g>
</g>
<g clip-path="url(#a)">
<defs>
<path id="ah" d="m30.609 48.391q-7.2188 0-11.422-5.6406t-4.2031-15.453 4.1719-15.453q4.1875-5.6406 11.453-5.6406 7.1875 0 11.375 5.6562 4.2031 5.6719 4.2031 15.438 0 9.7188-4.2031 15.406-4.1875 5.6875-11.375 5.6875zm0 7.6094q11.719 0 18.406-7.625 6.7031-7.6094 6.7031-21.078 0-13.422-6.7031-21.078-6.6875-7.6406-18.406-7.6406-11.766 0-18.438 7.6406-6.6562 7.6562-6.6562 21.078 0 13.469 6.6562 21.078 6.6719 7.625 18.438 7.625z"/>
<path id="r" d="m18.312 70.219v-15.531h18.5v-6.9844h-18.5v-29.688q0-6.6875 1.8281-8.5938t7.4531-1.9062h9.2188v-7.5156h-9.2188q-10.406 0-14.359 3.875-3.9531 3.8906-3.9531 14.141v29.688h-6.5938v6.9844h6.5938v15.531z"/>
</defs>
<g transform="translate(168.63 180.94) scale(.1 -.1)">
<use xlink:href="#n"/>
<use x="54.980469" xlink:href="#ah"/>
<use x="116.162109" xlink:href="#g"/>
<use x="213.574219" xlink:href="#s"/>
<use x="277.050781" xlink:href="#i"/>
<use x="304.833984" xlink:href="#e"/>
<use x="366.357422" xlink:href="#r"/>
<use x="405.566406" xlink:href="#e"/>
</g>
</g>
<g clip-path="url(#a)">
<defs>
<path id="t" d="m48.688 27.297q0 9.9062-4.0781 15.547t-11.203 5.6406q-7.1406 0-11.219-5.6406t-4.0781-15.547 4.0781-15.547 11.219-5.6406q7.125 0 11.203 5.6406t4.0781 15.547zm-30.578 19.094q2.8438 4.875 7.1562 7.2344 4.3281 2.375 10.328 2.375 9.9688 0 16.188-7.9062 6.2344-7.9062 6.2344-20.797t-6.2344-20.812q-6.2188-7.9062-16.188-7.9062-6 0-10.328 2.375-4.3125 2.375-7.1562 7.25v-8.2031h-9.0312v75.984h9.0312z"/>
</defs>
<g transform="translate(220.82 180.94) scale(.1 -.1)">
<use xlink:href="#e"/>
<use x="61.523438" xlink:href="#g"/>
<use x="158.935547" xlink:href="#t"/>
<use x="222.412109" xlink:href="#f"/>
<use x="283.691406" xlink:href="#h"/>
<use x="323.054688" xlink:href="#h"/>
<use x="364.167969" xlink:href="#f"/>
<use x="425.447266" xlink:href="#m"/>
<use x="477.546875" xlink:href="#m"/>
<use x="529.646484" xlink:href="#g"/>
<use x="627.058594" xlink:href="#e"/>
<use x="688.582031" xlink:href="#l"/>
<use x="751.960938" xlink:href="#r"/>
</g>
</g>
<g clip-path="url(#a)">
<defs>
<path id="d" d="m10.688 12.406h10.312v-12.406h-10.312z"/>
</defs>
<g transform="translate(336.96 180.94) scale(.1 -.1)">
<use xlink:href="#d"/>
</g>
</g>
<g clip-path="url(#a)">
<defs>
<path id="c" d="m12.406 8.2969h16.109v55.625l-17.531-3.5156v8.9844l17.438 3.5156h9.8594v-64.609h16.109v-8.2969h-41.984z"/>
</defs>
<g transform="translate(129.89 11.244) scale(.1 -.1)">
<use xlink:href="#c"/>
<use x="63.623047" xlink:href="#d"/>
<use x="95.410156" xlink:href="#c"/>
</g>
</g>
<g clip-path="url(#a)">
<defs>
<path id="q" d="m19.188 8.2969h34.422v-8.2969h-46.281v8.2969q5.6094 5.8125 15.297 15.594 9.7031 9.7969 12.188 12.641 4.7344 5.3125 6.6094 9 1.8906 3.6875 1.8906 7.25 0 5.8125-4.0781 9.4688-4.0781 3.6719-10.625 3.6719-4.6406 0-9.7969-1.6094-5.1406-1.6094-11-4.8906v9.9688q5.9531 2.3906 11.125 3.6094 5.1875 1.2188 9.4844 1.2188 11.328 0 18.062-5.6719 6.7344-5.6562 6.7344-15.125 0-4.5-1.6875-8.5312-1.6719-4.0156-6.125-9.4844-1.2188-1.4219-7.7656-8.1875-6.5312-6.7656-18.453-18.922z"/>
</defs>
<g transform="translate(129.89 54.034) scale(.1 -.1)">
<use xlink:href="#c"/>
<use x="63.623047" xlink:href="#d"/>
<use x="95.410156" xlink:href="#q"/>
</g>
</g>
<g clip-path="url(#a)">
<defs>
<path id="af" d="m40.578 39.312q7.0781-1.5156 11.047-6.3125 3.9844-4.7812 3.9844-11.812 0-10.781-7.4219-16.703-7.4219-5.9062-21.094-5.9062-4.5781 0-9.4375 0.90625t-10.031 2.7188v9.5156q4.0938-2.3906 8.9688-3.6094 4.8906-1.2188 10.219-1.2188 9.2656 0 14.125 3.6562t4.8594 10.641q0 6.4531-4.5156 10.078-4.5156 3.6406-12.562 3.6406h-8.5v8.1094h8.8906q7.2656 0 11.125 2.9062t3.8594 8.375q0 5.6094-3.9844 8.6094-3.9688 3.0156-11.391 3.0156-4.0625 0-8.7031-0.89062-4.6406-0.875-10.203-2.7188v8.7812q5.625 1.5625 10.531 2.3438t9.25 0.78125q11.234 0 17.766-5.1094 6.5469-5.0938 6.5469-13.781 0-6.0625-3.4688-10.234t-9.8594-5.7812z"/>
</defs>
<g transform="translate(22.825 96.679) scale(.1 -.1)">
<use xlink:href="#c"/>
<use x="63.623047" xlink:href="#d"/>
<use x="95.410156" xlink:href="#af"/>
</g>
</g>
<g clip-path="url(#a)">
<defs>
<path id="ae" d="m37.797 64.312-24.906-38.922h24.906zm-2.5938 8.5938h12.406v-47.516h10.406v-8.2031h-10.406v-17.188h-9.8125v17.188h-32.906v9.5156z"/>
</defs>
<g transform="translate(76.563 139.1) scale(.1 -.1)">
<use xlink:href="#c"/>
<use x="63.623047" xlink:href="#d"/>
<use x="95.410156" xlink:href="#ae"/>
</g>
</g>
<g clip-path="url(#a)">
<defs>
<path id="ad" d="m10.797 72.906h38.719v-8.3125h-29.688v-17.859q2.1406 0.73438 4.2812 1.0938 2.1562 0.35938 4.3125 0.35938 12.203 0 19.328-6.6875 7.1406-6.6875 7.1406-18.109 0-11.766-7.3281-18.297-7.3281-6.5156-20.656-6.5156-4.5938 0-9.3594 0.78125-4.75 0.78125-9.8281 2.3438v9.9219q4.3906-2.3906 9.0781-3.5625t9.9062-1.1719q8.4531 0 13.375 4.4375 4.9375 4.4375 4.9375 12.062 0 7.6094-4.9375 12.047-4.9219 4.4531-13.375 4.4531-3.9531 0-7.8906-0.875-3.9219-0.875-8.0156-2.7344z"/>
</defs>
<g transform="translate(236.15 96.679) scale(.1 -.1)">
<use xlink:href="#c"/>
<use x="63.623047" xlink:href="#d"/>
<use x="95.410156" xlink:href="#ad"/>
</g>
</g>
<g clip-path="url(#a)">
<defs>
<path id="ac" d="m33.016 40.375q-6.6406 0-10.531-4.5469-3.875-4.5312-3.875-12.438 0-7.8594 3.875-12.438 3.8906-4.5625 10.531-4.5625t10.516 4.5625q3.875 4.5781 3.875 12.438 0 7.9062-3.875 12.438-3.875 4.5469-10.516 4.5469zm19.578 30.922v-8.9844q-3.7188 1.75-7.5 2.6719-3.7812 0.9375-7.5 0.9375-9.7656 0-14.922-6.5938-5.1406-6.5938-5.875-19.922 2.875 4.25 7.2188 6.5156 4.3594 2.2656 9.5781 2.2656 10.984 0 17.359-6.6719 6.375-6.6562 6.375-18.125 0-11.234-6.6406-18.031-6.6406-6.7812-17.672-6.7812-12.656 0-19.344 9.6875-6.6875 9.7031-6.6875 28.109 0 17.281 8.2031 27.562t22.016 10.281q3.7188 0 7.5-0.73438t7.8906-2.1875z"/>
</defs>
<g transform="translate(184.04 139.1) scale(.1 -.1)">
<use xlink:href="#c"/>
<use x="63.623047" xlink:href="#d"/>
<use x="95.410156" xlink:href="#ac"/>
</g>
</g>
<g clip-path="url(#a)">
<defs>
<path id="ab" d="m8.2031 72.906h46.875v-4.2031l-26.469-68.703h-10.297l24.906 64.594h-35.016z"/>
</defs>
<g transform="translate(125.41 139.1) scale(.1 -.1)">
<use xlink:href="#c"/>
<use x="63.623047" xlink:href="#d"/>
<use x="95.410156" xlink:href="#ab"/>
</g>
</g>
<g clip-path="url(#a)">
<defs>
<path id="aa" d="m31.781 34.625q-7.0312 0-11.062-3.7656-4.0156-3.7656-4.0156-10.344 0-6.5938 4.0156-10.359 4.0312-3.7656 11.062-3.7656t11.078 3.7812q4.0625 3.7969 4.0625 10.344 0 6.5781-4.0312 10.344-4.0156 3.7656-11.109 3.7656zm-9.8594 4.1875q-6.3438 1.5625-9.8906 5.9062-3.5312 4.3594-3.5312 10.609 0 8.7344 6.2188 13.812 6.2344 5.0781 17.062 5.0781 10.891 0 17.094-5.0781t6.2031-13.812q0-6.25-3.5469-10.609-3.5312-4.3438-9.8281-5.9062 7.125-1.6562 11.094-6.5 3.9844-4.8281 3.9844-11.797 0-10.609-6.4688-16.281-6.4688-5.6562-18.531-5.6562-12.047 0-18.531 5.6562-6.4688 5.6719-6.4688 16.281 0 6.9688 4 11.797 4.0156 4.8438 11.141 6.5zm-3.6094 15.578q0-5.6562 3.5312-8.8281 3.5469-3.1719 9.9375-3.1719 6.3594 0 9.9375 3.1719 3.5938 3.1719 3.5938 8.8281 0 5.6719-3.5938 8.8438-3.5781 3.1719-9.9375 3.1719-6.3906 0-9.9375-3.1719-3.5312-3.1719-3.5312-8.8438z"/>
</defs>
<g transform="translate(252.43 139.1) scale(.1 -.1)">
<use xlink:href="#c"/>
<use x="63.623047" xlink:href="#d"/>
<use x="95.410156" xlink:href="#aa"/>
</g>
</g>
<g clip-path="url(#a)">
<defs>
<path id="ag" d="m31.781 66.406q-7.6094 0-11.453-7.5-3.8281-7.4844-3.8281-22.531 0-14.984 3.8281-22.484 3.8438-7.5 11.453-7.5 7.6719 0 11.5 7.5 3.8438 7.5 3.8438 22.484 0 15.047-3.8438 22.531-3.8281 7.5-11.5 7.5zm0 7.8125q12.266 0 18.734-9.7031 6.4688-9.6875 6.4688-28.141 0-18.406-6.4688-28.109-6.4688-9.6875-18.734-9.6875-12.25 0-18.719 9.6875-6.4688 9.7031-6.4688 28.109 0 18.453 6.4688 28.141 6.4688 9.7031 18.719 9.7031z"/>
</defs>
<g transform="translate(4.9884 139.1) scale(.1 -.1)">
<use xlink:href="#c"/>
<use x="63.623047" xlink:href="#d"/>
<use x="95.410156" xlink:href="#c"/>
<use x="159.033203" xlink:href="#ag"/>
</g>
</g>
<g clip-path="url(#a)">
<g transform="translate(34.3 139.1) scale(.1 -.1)">
<use xlink:href="#c"/>
<use x="63.623047" xlink:href="#d"/>
<use x="95.410156" xlink:href="#c"/>
<use x="159.033203" xlink:href="#c"/>
</g>
</g>
<g clip-path="url(#a)">
<g transform="translate(327.41 139.1) scale(.1 -.1)">
<use xlink:href="#c"/>
<use x="63.623047" xlink:href="#d"/>
<use x="95.410156" xlink:href="#c"/>
<use x="159.033203" xlink:href="#q"/>
</g>
</g>
<defs>
<clipPath id="a">
<rect width="354.67" height="186.67"/>
</clipPath>
</defs>
</svg>
