<?xml version="1.0" encoding="UTF-8"?>
<!DOCTYPE svg  PUBLIC '-//W3C//DTD SVG 1.1//EN'  'http://www.w3.org/Graphics/SVG/1.1/DTD/svg11.dtd'>
<svg width="2026.7pt" height="1066.7pt" version="1.1" viewBox="0 0 2026.7 1066.7" xmlns="http://www.w3.org/2000/svg" xmlns:xlink="http://www.w3.org/1999/xlink">
<defs>
<style type="text/css">*{stroke-linecap:butt;stroke-linejoin:round;}</style>
</defs>
<path d="m0 1066.7h2026.7v-1066.7h-2026.7z" fill="#fff"/>
<g fill="none" stroke="#000">
<path d="m780.45 49.593-611.43 396.22" clip-path="url(#a)"/>
<path d="m780.45 49.593-457.92 777.94" clip-path="url(#a)"/>
<path d="m780.45 49.593 25.643 396.22" clip-path="url(#a)"/>
<path d="m780.45 49.593-319.76 777.94" clip-path="url(#a)"/>
<path d="m780.45 49.593-371.57 200.34" clip-path="url(#a)"/>
<path d="m780.45 49.593 48.67 777.94" clip-path="url(#a)"/>
<path d="m780.45 49.593 169.56 588.4" clip-path="url(#a)"/>
<path d="m780.45 49.593 310.6 200.34" clip-path="url(#a)"/>
<path d="m780.45 49.593 697 200.34" clip-path="url(#a)"/>
<path d="m780.45 49.593 509.2 777.94" clip-path="url(#a)"/>
<path d="m169.02 445.81-76.756 381.72" clip-path="url(#a)"/>
<path d="m169.02 445.81 38.378 381.72" clip-path="url(#a)"/>
<path d="m169.02 445.81 38.378 192.18" clip-path="url(#a)"/>
<path d="m322.53 827.53v189.54" clip-path="url(#a)"/>
<path d="m806.09 445.81 1128.3 571.26" clip-path="url(#a)"/>
<path d="m806.09 445.81-414.48 192.18" clip-path="url(#a)"/>
<path d="m806.09 445.81-713.83 381.72" clip-path="url(#a)" stroke-dasharray="3.7,1.6"/>
<path d="m460.69 827.53v189.54" clip-path="url(#a)"/>
<path d="m408.88 249.93 97.864 577.6" clip-path="url(#a)"/>
<path d="m408.88 249.93 218.75 195.88" clip-path="url(#a)"/>
<path d="m408.88 249.93-316.62 577.6" clip-path="url(#a)" stroke-dasharray="3.7,1.6"/>
<path d="m829.12 827.53v189.54" clip-path="url(#a)"/>
<path d="m950.01 637.99-74.837 189.54" clip-path="url(#a)"/>
<path d="m950.01 637.99-28.783 189.54" clip-path="url(#a)"/>
<path d="m950.01 637.99 17.27 189.54" clip-path="url(#a)"/>
<path d="m950.01 637.99 86.35 189.54" clip-path="url(#a)"/>
<path d="m1091 249.93 14.392 577.6" clip-path="url(#a)"/>
<path d="m1091 249.93 60.445 577.6" clip-path="url(#a)"/>
<path d="m1091 249.93 141.04 195.88" clip-path="url(#a)"/>
<path d="m1091 249.93-215.88 577.6" clip-path="url(#a)" stroke-dasharray="3.7,1.6"/>
<path d="m1477.5 249.93-141.74 577.6" clip-path="url(#a)"/>
<path d="m1477.5 249.93-95.689 577.6" clip-path="url(#a)"/>
<path d="m1477.5 249.93-26.609 388.06" clip-path="url(#a)"/>
<path d="m1477.5 249.93 42.472 577.6" clip-path="url(#a)"/>
<path d="m1477.5 249.93 221.57 195.88" clip-path="url(#a)"/>
<path d="m1335.7 827.53v189.54" clip-path="url(#a)"/>
<path d="m1381.8 827.53v189.54" clip-path="url(#a)"/>
<path d="m1450.8 637.99-23.027 189.54" clip-path="url(#a)"/>
<path d="m1450.8 637.99 23.027 189.54" clip-path="url(#a)"/>
<path d="m1519.9 827.53v189.54" clip-path="url(#a)"/>
<path d="m1699 445.81-133.04 381.72" clip-path="url(#a)"/>
<path d="m1699 445.81-86.99 381.72" clip-path="url(#a)"/>
<path d="m1699 445.81-40.936 381.72" clip-path="url(#a)"/>
<path d="m1699 445.81 112.58 192.18" clip-path="url(#a)"/>
<path d="m1699 445.81 51.171 381.72" clip-path="url(#a)"/>
<path d="m1699 445.81 97.224 381.72" clip-path="url(#a)"/>
<path d="m1566 827.53v189.54" clip-path="url(#a)"/>
<path d="m1612 827.53v189.54" clip-path="url(#a)"/>
<path d="m1658.1 827.53v189.54" clip-path="url(#a)"/>
<path d="m1811.6 637.99-107.46 189.54" clip-path="url(#a)"/>
<path d="m1811.6 637.99 30.702 189.54" clip-path="url(#a)"/>
<path d="m1811.6 637.99 76.756 189.54" clip-path="url(#a)"/>
<path d="m1750.2 827.53v189.54" clip-path="url(#a)"/>
<path d="m1796.2 827.53v189.54" clip-path="url(#a)"/>
<path d="m1704.1 827.53v189.54" clip-path="url(#a)"/>
<path d="m1842.3 827.53v189.54" clip-path="url(#a)"/>
<path d="m1427.8 827.53v189.54" clip-path="url(#a)"/>
<path d="m1473.9 827.53v189.54" clip-path="url(#a)"/>
<path d="m1105.4 827.53v189.54" clip-path="url(#a)"/>
<path d="m1151.5 827.53v189.54" clip-path="url(#a)"/>
<path d="m1232.1 445.81-11.513 192.18" clip-path="url(#a)"/>
<path d="m1232.1 445.81 11.513 381.72" clip-path="url(#a)"/>
<path d="m1220.6 637.99 23.027 189.54" clip-path="url(#a)" stroke-dasharray="3.7,1.6"/>
<path d="m1220.6 637.99-23.027 189.54" clip-path="url(#a)"/>
<path d="m1243.6 827.53v189.54" clip-path="url(#a)"/>
<path d="m1197.5 827.53v189.54" clip-path="url(#a)"/>
<path d="m875.17 827.53v189.54" clip-path="url(#a)"/>
<path d="m921.23 827.53v189.54" clip-path="url(#a)"/>
<path d="m967.28 827.53v189.54" clip-path="url(#a)"/>
<path d="m1036.4 827.53-23.027 189.54" clip-path="url(#a)"/>
<path d="m1036.4 827.53 23.027 189.54" clip-path="url(#a)"/>
<path d="m506.74 827.53v189.54" clip-path="url(#a)"/>
<path d="m627.64 445.81-74.837 381.72" clip-path="url(#a)"/>
<path d="m627.64 445.81-28.783 381.72" clip-path="url(#a)"/>
<path d="m627.64 445.81 17.27 381.72" clip-path="url(#a)"/>
<path d="m627.64 445.81 86.35 192.18" clip-path="url(#a)"/>
<path d="m552.8 827.53v189.54" clip-path="url(#a)"/>
<path d="m598.85 827.53v189.54" clip-path="url(#a)"/>
<path d="m644.91 827.53v189.54" clip-path="url(#a)"/>
<path d="m713.99 637.99-69.08 189.54" clip-path="url(#a)" stroke-dasharray="3.7,1.6"/>
<path d="m713.99 637.99-23.027 189.54" clip-path="url(#a)"/>
<path d="m713.99 637.99 23.027 189.54" clip-path="url(#a)"/>
<path d="m713.99 637.99 69.08 189.54" clip-path="url(#a)"/>
<path d="m690.96 827.53v189.54" clip-path="url(#a)"/>
<path d="m737.01 827.53v189.54" clip-path="url(#a)"/>
<path d="m783.07 827.53v189.54" clip-path="url(#a)"/>
<path d="m391.61 637.99-23.027 189.54" clip-path="url(#a)"/>
<path d="m391.61 637.99 23.027 189.54" clip-path="url(#a)"/>
<path d="m368.58 827.53v189.54" clip-path="url(#a)"/>
<path d="m414.64 827.53v189.54" clip-path="url(#a)"/>
<path d="m92.263 827.53v189.54" clip-path="url(#a)"/>
<path d="m207.4 827.53-69.08 189.54" clip-path="url(#a)"/>
<path d="m207.4 827.53 69.08 189.54" clip-path="url(#a)"/>
<path d="m207.4 637.99-23.027 189.54" clip-path="url(#a)"/>
<path d="m207.4 637.99 23.027 189.54" clip-path="url(#a)"/>
<path d="m184.37 827.53v189.54" clip-path="url(#a)"/>
<path d="m230.42 827.53v189.54" clip-path="url(#a)"/>
<path d="m1289.7 827.53v189.54" clip-path="url(#a)"/>
<path d="m1888.4 827.53v189.54" clip-path="url(#a)"/>
</g>
<path d="m475.62 254.6 5.0488-3.2718q2.0141-1.3052 0.70891-3.3193l-4.2105-6.4975q-1.3052-2.0141-3.3193-0.70891l-5.0488 3.2718q-2.0141 1.3052-0.70892 3.3193l4.2105 6.4975q1.3052 2.0141 3.3193 0.70892z" clip-path="url(#a)" fill="#fff" stroke="#fff"/>
<g clip-path="url(#a)">
<defs>
<path id="x" d="m9.8125 72.906h9.8594v-29.891h35.844v29.891h9.8594v-72.906h-9.8594v34.719h-35.844v-34.719h-9.8594z"/>
</defs>
<g transform="translate(473.41 251.19) rotate(-32.944) scale(.08 -.08)">
<use xlink:href="#x"/>
</g>
</g>
<path d="m555.76 443.66 2.2612-3.8414q1.2175-2.0683-0.85083-3.2857l-6.6724-3.9276q-2.0683-1.2175-3.2857 0.85083l-2.2612 3.8414q-1.2175 2.0683 0.85083 3.2857l6.6724 3.9276q2.0683 1.2175 3.2857-0.85083z" clip-path="url(#a)" fill="#fff" stroke="#fff"/>
<g clip-path="url(#a)">
<defs>
<path id="ai" d="m9.8125 72.906h9.8594v-64.609h35.5v-8.2969h-45.359z"/>
</defs>
<g transform="translate(552.26 441.6) rotate(-59.518) scale(.08 -.08)">
<use xlink:href="#ai"/>
</g>
</g>
<path d="m786.82 245.11 0.38855 6.0037q0.155 2.395 2.55 2.24l7.7263-0.50004q2.395-0.155 2.24-2.55l-0.38855-6.0037q-0.155-2.395-2.55-2.24l-7.7263 0.50004q-2.395 0.155-2.24 2.55z" clip-path="url(#a)" fill="#fff" stroke="#fff"/>
<g clip-path="url(#a)">
<g transform="translate(790.87 244.84) rotate(86.297) scale(.08 -.08)">
<use xlink:href="#x"/>
</g>
</g>
<path d="m625.52 443.01 1.6946-4.1228q0.91241-2.2198-1.3074-3.1322l-7.1612-2.9435q-2.2198-0.91241-3.1322 1.3074l-1.6946 4.1228q-0.91241 2.2198 1.3074 3.1322l7.1612 2.9435q2.2198 0.91241 3.1322-1.3074z" clip-path="url(#a)" fill="#fff" stroke="#fff"/>
<g clip-path="url(#a)">
<g transform="translate(621.76 441.46) rotate(-67.656) scale(.08 -.08)">
<use xlink:href="#ai"/>
</g>
</g>
<path d="m594.99 156.71 5.2956-2.8552q2.1125-1.139 0.97349-3.2515l-3.6745-6.815q-1.139-2.1125-3.2515-0.97348l-5.2956 2.8552q-2.1125 1.139-0.97349 3.2515l3.6745 6.815q1.139 2.1125 3.2515 0.97349z" clip-path="url(#a)" fill="#fff" stroke="#fff"/>
<g clip-path="url(#a)">
<g transform="translate(593.07 153.13) rotate(-28.333) scale(.08 -.08)">
<use xlink:href="#x"/>
</g>
</g>
<path d="m798.39 436.73 0.27833 4.4488q0.14986 2.3953 2.5452 2.2455l7.7274-0.48344q2.3953-0.14986 2.2455-2.5452l-0.27833-4.4488q-0.14986-2.3953-2.5452-2.2455l-7.7274 0.48344q-2.3953 0.14986-2.2455 2.5452z" clip-path="url(#a)" fill="#fff" stroke="#fff"/>
<g clip-path="url(#a)">
<g transform="translate(802.44 436.48) rotate(86.42) scale(.08 -.08)">
<use xlink:href="#ai"/>
</g>
</g>
<path d="m858.37 342.64 1.6659 5.781q0.66457 2.3062 2.9707 1.6416l7.4397-2.1439q2.3062-0.66457 1.6416-2.9707l-1.6659-5.781q-0.66457-2.3062-2.9707-1.6416l-7.4398 2.1439q-2.3062 0.66457-1.6416 2.9707z" clip-path="url(#a)" fill="#fff" stroke="#fff"/>
<g clip-path="url(#a)">
<g transform="translate(862.28 341.51) rotate(73.924) scale(.08 -.08)">
<use xlink:href="#x"/>
</g>
</g>
<path d="m929.82 153.4 5.0558 3.2611q2.0168 1.3009 3.3177-0.71594l4.1968-6.5064q1.3009-2.0168-0.71594-3.3177l-5.0558-3.2611q-2.0168-1.3009-3.3177 0.71594l-4.1968 6.5064q-1.3009 2.0168 0.71594 3.3177z" clip-path="url(#a)" fill="#fff" stroke="#fff"/>
<g clip-path="url(#a)">
<g transform="translate(932.02 149.99) rotate(32.823) scale(.08 -.08)">
<use xlink:href="#x"/>
</g>
</g>
<path d="m1124.3 154.96 5.7821 1.662q2.3066 0.663 2.9696-1.6436l2.1389-7.4412q0.663-2.3066-1.6436-2.9696l-5.7821-1.662q-2.3066-0.663-2.9696 1.6436l-2.1389 7.4412q-0.663 2.3066 1.6436 2.9696z" clip-path="url(#a)" fill="#fff" stroke="#fff"/>
<g clip-path="url(#a)">
<g transform="translate(1125.4 151.05) rotate(16.036) scale(.08 -.08)">
<use xlink:href="#x"/>
</g>
</g>
<path d="m1028.2 439.55 3.2066 4.8989q1.3144 2.0081 3.3225 0.69368l6.4781-4.2403q2.0081-1.3144 0.69368-3.3225l-3.2066-4.8989q-1.3144-2.0081-3.3225-0.69368l-6.4781 4.2403q-2.0081 1.3144-0.69368 3.3225z" clip-path="url(#a)" fill="#fff" stroke="#fff"/>
<g clip-path="url(#a)">
<defs>
<path id="ar" d="m8.6875 72.906h9.9219v-44.297q0-11.719 4.2344-16.875 4.25-5.1406 13.781-5.1406 9.4688 0 13.719 5.1406 4.25 5.1562 4.25 16.875v44.297h9.9062v-45.516q0-14.25-7.0625-21.531-7.0469-7.2812-20.812-7.2812-13.828 0-20.891 7.2812-7.0469 7.2812-7.0469 21.531z"/>
</defs>
<g transform="translate(1031.6 437.32) rotate(56.793) scale(.08 -.08)">
<use xlink:href="#ar"/>
</g>
</g>
<path d="m136.25 640.59 1.0788-5.3651q0.47312-2.3529-1.8798-2.826l-7.5906-1.5263q-2.3529-0.47312-2.826 1.8798l-1.0788 5.3651q-0.47312 2.3529 1.8798 2.826l7.5906 1.5263q2.3529 0.47312 2.826-1.8798z" clip-path="url(#a)" fill="#fff" stroke="#fff"/>
<g clip-path="url(#a)">
<defs>
<path id="m" d="m34.188 63.188-13.391-36.281h26.812zm-5.5781 9.7188h11.188l27.781-72.906h-10.25l-6.6406 18.703h-32.859l-6.6406-18.703h-10.406z"/>
</defs>
<g transform="translate(132.27 639.79) rotate(-78.631) scale(.08 -.08)">
<use xlink:href="#m"/>
</g>
</g>
<path d="m181.73 634.9 0.48254 4.7996q0.24008 2.388 2.628 2.1479l7.7037-0.77452q2.388-0.24008 2.1479-2.628l-0.48254-4.7996q-0.24008-2.388-2.628-2.1479l-7.7037 0.77452q-2.388 0.24008-2.1479 2.628z" clip-path="url(#a)" fill="#fff" stroke="#fff"/>
<g clip-path="url(#a)">
<defs>
<path id="v" d="m19.672 64.797v-27.391h12.406q6.8906 0 10.641 3.5625 3.7656 3.5625 3.7656 10.156 0 6.5469-3.7656 10.109-3.75 3.5625-10.641 3.5625zm-9.8594 8.1094h22.266q12.266 0 18.531-5.5469 6.2812-5.5469 6.2812-16.234 0-10.797-6.2812-16.312-6.2656-5.5156-18.531-5.5156h-12.406v-29.297h-9.8594z"/>
</defs>
<g transform="translate(185.77 634.49) rotate(84.259) scale(.08 -.08)">
<use xlink:href="#v"/>
</g>
</g>
<path d="m181.52 540.45 1.0717 5.3665q0.47 2.3535 2.8235 1.8835l7.5926-1.5162q2.3535-0.47 1.8835-2.8235l-1.0717-5.3665q-0.47-2.3535-2.8235-1.8835l-7.5926 1.5162q-2.3535 0.47-1.8835 2.8235z" clip-path="url(#a)" fill="#fff" stroke="#fff"/>
<g clip-path="url(#a)">
<g transform="translate(185.51 539.65) rotate(78.707) scale(.08 -.08)">
<use xlink:href="#m"/>
</g>
</g>
<path d="m316.26 904.66v35.285q0 2.4 2.4 2.4h7.7425q2.4 0 2.4-2.4v-35.285q0-2.4-2.4-2.4h-7.7425q-2.4 0-2.4 2.4z" clip-path="url(#a)" fill="#fff" stroke="#fff"/>
<g clip-path="url(#a)">
<defs>
<path id="k" d="m-0.29688 72.906h61.672v-8.3125h-25.875v-64.594h-9.9062v64.594h-25.891z"/>
<path id="d" d="m56.203 29.594v-4.3906h-41.312q0.59375-9.2812 5.5938-14.141t13.938-4.8594q5.1719 0 10.031 1.2656t9.6562 3.8125v-8.5q-4.8438-2.0469-9.9219-3.125t-10.297-1.0781q-13.094 0-20.734 7.6094-7.6406 7.625-7.6406 20.625 0 13.422 7.25 21.297 7.25 7.8906 19.562 7.8906 11.031 0 17.453-7.1094 6.4219-7.0938 6.4219-19.297zm-8.9844 2.6406q-0.09375 7.3594-4.125 11.75-4.0312 4.4062-10.672 4.4062-7.5156 0-12.031-4.25t-5.2031-11.969z"/>
<path id="h" d="m41.109 46.297q-1.5156 0.875-3.2969 1.2812-1.7812 0.42188-3.9219 0.42188-7.625 0-11.703-4.9531t-4.0781-14.234v-28.812h-9.0312v54.688h9.0312v-8.5q2.8438 4.9844 7.375 7.3906 4.5469 2.4219 11.047 2.4219 0.92188 0 2.0469-0.125 1.125-0.10938 2.4844-0.35938z"/>
<path id="i" d="m52 44.188q3.375 6.0625 8.0625 8.9375t11.031 2.875q8.5469 0 13.188-5.9844 4.6406-5.9688 4.6406-17v-33.016h-9.0312v32.719q0 7.8594-2.7969 11.656-2.7812 3.8125-8.4844 3.8125-6.9844 0-11.047-4.6406-4.0469-4.625-4.0469-12.641v-30.906h-9.0312v32.719q0 7.9062-2.7812 11.688t-8.5938 3.7812q-6.8906 0-10.953-4.6562-4.0469-4.6562-4.0469-12.625v-30.906h-9.0312v54.688h9.0312v-8.5q3.0781 5.0312 7.375 7.4219t10.203 2.3906q5.9688 0 10.141-3.0312 4.1719-3.0156 6.1719-8.7812z"/>
<path id="j" d="m9.4219 54.688h8.9844v-54.688h-8.9844zm0 21.297h8.9844v-11.391h-8.9844z"/>
<path id="g" d="m54.891 33.016v-33.016h-8.9844v32.719q0 7.7656-3.0312 11.609-3.0312 3.8594-9.0781 3.8594-7.2812 0-11.484-4.6406-4.2031-4.625-4.2031-12.641v-30.906h-9.0312v54.688h9.0312v-8.5q3.2344 4.9375 7.5938 7.375 4.375 2.4375 10.094 2.4375 9.4219 0 14.25-5.8281 4.8438-5.8281 4.8438-17.156z"/>
<path id="e" d="m34.281 27.484q-10.891 0-15.094-2.4844t-4.2031-8.5q0-4.7812 3.1562-7.5938 3.1562-2.7969 8.5625-2.7969 7.4844 0 12 5.2969t4.5156 14.078v2zm17.922 3.7188v-31.203h-8.9844v8.2969q-3.0781-4.9688-7.6719-7.3438t-11.234-2.375q-8.3906 0-13.359 4.7188-4.9531 4.7188-4.9531 12.625 0 9.2188 6.1719 13.906 6.1875 4.6875 18.438 4.6875h12.609v0.89062q0 6.2031-4.0781 9.5938t-11.453 3.3906q-4.6875 0-9.1406-1.125-4.4375-1.125-8.5312-3.375v8.3125q4.9219 1.9062 9.5625 2.8438 4.6406 0.95312 9.0312 0.95312 11.875 0 17.734-6.1562 5.8594-6.1406 5.8594-18.641z"/>
<path id="l" d="m9.4219 75.984h8.9844v-75.984h-8.9844z"/>
</defs>
<g transform="translate(320.32 904.66) rotate(90) scale(.08 -.08)">
<use xlink:href="#k"/>
<use x="60.818359" xlink:href="#d"/>
<use x="122.341797" xlink:href="#h"/>
<use x="163.439453" xlink:href="#i"/>
<use x="260.851562" xlink:href="#j"/>
<use x="288.634766" xlink:href="#g"/>
<use x="352.013672" xlink:href="#e"/>
<use x="413.292969" xlink:href="#l"/>
</g>
</g>
<path d="m1365 735.8 4.8824 2.4719q2.1412 1.0841 3.2253-1.0571l3.4973-6.9076q1.0841-2.1412-1.0571-3.2253l-4.8824-2.4719q-2.1412-1.0841-3.2253 1.0571l-3.4973 6.9076q-1.0841 2.1412 1.0571 3.2253z" clip-path="url(#a)" fill="#fff" stroke="#fff"/>
<g clip-path="url(#a)">
<g transform="translate(1366.8 732.18) rotate(26.853) scale(.08 -.08)">
<use xlink:href="#m"/>
</g>
</g>
<path d="m599.3 548.61 4.3762-2.0291q2.1773-1.0095 1.1678-3.1869l-3.2568-7.0242q-1.0095-2.1773-3.1869-1.1678l-4.3762 2.0291q-2.1773 1.0095-1.1678 3.1869l3.2568 7.0242q1.0095 2.1773 3.1869 1.1678z" clip-path="url(#a)" fill="#fff" stroke="#fff"/>
<g clip-path="url(#a)">
<g transform="translate(597.59 544.92) rotate(-24.875) scale(.08 -.08)">
<use xlink:href="#v"/>
</g>
</g>
<path d="m449.72 643.49 4.8258-2.5806q2.1164-1.1317 0.98466-3.2481l-3.651-6.8276q-1.1317-2.1164-3.2481-0.98466l-4.8258 2.5806q-2.1164 1.1317-0.98466 3.2481l3.651 6.8276q1.1317 2.1164 3.2481 0.98466z" clip-path="url(#a)" fill="#fff" stroke="#fff"/>
<g clip-path="url(#a)">
<g transform="translate(447.81 639.91) rotate(-28.136) scale(.08 -.08)">
<use xlink:href="#m"/>
</g>
</g>
<path d="m454.42 904.66v35.285q0 2.4 2.4 2.4h7.7425q2.4 0 2.4-2.4v-35.285q0-2.4-2.4-2.4h-7.7425q-2.4 0-2.4 2.4z" clip-path="url(#a)" fill="#fff" stroke="#fff"/>
<g clip-path="url(#a)">
<g transform="translate(458.48 904.66) rotate(90) scale(.08 -.08)">
<use xlink:href="#k"/>
<use x="60.818359" xlink:href="#d"/>
<use x="122.341797" xlink:href="#h"/>
<use x="163.439453" xlink:href="#i"/>
<use x="260.851562" xlink:href="#j"/>
<use x="288.634766" xlink:href="#g"/>
<use x="352.013672" xlink:href="#e"/>
<use x="413.292969" xlink:href="#l"/>
</g>
</g>
<path d="m451.23 537.4 0.80581 4.756q0.40092 2.3663 2.7672 1.9654l7.6337-1.2934q2.3663-0.40092 1.9654-2.7672l-0.80581-4.756q-0.40092-2.3663-2.7672-1.9654l-7.6337 1.2934q-2.3663 0.40092-1.9654 2.7672z" clip-path="url(#a)" fill="#fff" stroke="#fff"/>
<g clip-path="url(#a)">
<g transform="translate(455.23 536.72) rotate(80.384) scale(.08 -.08)">
<use xlink:href="#v"/>
</g>
</g>
<path d="m512.04 350.72 4.0769 3.6506q1.788 1.601 3.389-0.18697l5.1649-5.768q1.601-1.788-0.18697-3.389l-4.0769-3.6506q-1.788-1.601-3.389 0.18697l-5.1649 5.7681q-1.601 1.788 0.18697 3.389z" clip-path="url(#a)" fill="#fff" stroke="#fff"/>
<g clip-path="url(#a)">
<g transform="translate(514.75 347.69) rotate(41.842) scale(.08 -.08)">
<use xlink:href="#m"/>
</g>
</g>
<path d="m254.76 544.15 2.6305-4.7988q1.1536-2.1045-0.95091-3.2582l-6.7894-3.7217q-2.1045-1.1536-3.2582 0.95091l-2.6305 4.7988q-1.1536 2.1045 0.95091 3.2582l6.7894 3.7217q2.1045 1.1536 3.2582-0.95091z" clip-path="url(#a)" fill="#fff" stroke="#fff"/>
<g clip-path="url(#a)">
<g transform="translate(251.19 542.19) rotate(-61.27) scale(.08 -.08)">
<use xlink:href="#m"/>
</g>
</g>
<path d="m822.85 904.66v35.285q0 2.4 2.4 2.4h7.7425q2.4 0 2.4-2.4v-35.285q0-2.4-2.4-2.4h-7.7425q-2.4 0-2.4 2.4z" clip-path="url(#a)" fill="#fff" stroke="#fff"/>
<g clip-path="url(#a)">
<g transform="translate(826.91 904.66) rotate(90) scale(.08 -.08)">
<use xlink:href="#k"/>
<use x="60.818359" xlink:href="#d"/>
<use x="122.341797" xlink:href="#h"/>
<use x="163.439453" xlink:href="#i"/>
<use x="260.851562" xlink:href="#j"/>
<use x="288.634766" xlink:href="#g"/>
<use x="352.013672" xlink:href="#e"/>
<use x="413.292969" xlink:href="#l"/>
</g>
</g>
<path d="m917.42 737.61 2.0097-5.0901q0.88138-2.2323-1.3509-3.1137l-7.2015-2.8434q-2.2323-0.88138-3.1137 1.3509l-2.0097 5.0901q-0.88138 2.2323 1.3509 3.1137l7.2015 2.8434q2.2323 0.88138 3.1137-1.3509z" clip-path="url(#a)" fill="#fff" stroke="#fff"/>
<g clip-path="url(#a)">
<g transform="translate(913.64 736.12) rotate(-68.454) scale(.08 -.08)">
<use xlink:href="#m"/>
</g>
</g>
<path d="m941.46 736.09 0.72422-4.7691q0.36033-2.3728-2.0125-2.7331l-7.6547-1.1624q-2.3728-0.36033-2.7331 2.0125l-0.72422 4.7691q-0.36033 2.3728 2.0125 2.7331l7.6547 1.1624q2.3728 0.36033 2.7331-2.0125z" clip-path="url(#a)" fill="#fff" stroke="#fff"/>
<g clip-path="url(#a)">
<g transform="translate(937.44 735.48) rotate(-81.365) scale(.08 -.08)">
<use xlink:href="#v"/>
</g>
</g>
<path d="m952.15 730.61 0.49657 5.4499q0.21777 2.3901 2.6079 2.1723l7.7106-0.70255q2.3901-0.21777 2.1723-2.6079l-0.49657-5.4499q-0.21777-2.3901-2.6079-2.1723l-7.7106 0.70255q-2.3901 0.21777-2.1723 2.6079z" clip-path="url(#a)" fill="#fff" stroke="#fff"/>
<g clip-path="url(#a)">
<g transform="translate(956.2 730.24) rotate(84.794) scale(.08 -.08)">
<use xlink:href="#m"/>
</g>
</g>
<path d="m986.47 733.14 2.0257 4.4466q0.99499 2.184 3.179 1.189l7.0458-3.2099q2.184-0.99499 1.189-3.179l-2.0257-4.4466q-0.99499-2.184-3.179-1.189l-7.0458 3.2099q-2.184 0.99499-1.189 3.179z" clip-path="url(#a)" fill="#fff" stroke="#fff"/>
<g clip-path="url(#a)">
<g transform="translate(990.16 731.45) rotate(65.507) scale(.08 -.08)">
<use xlink:href="#k"/>
</g>
</g>
<path d="m1091.9 535.81 0.15344 6.1581q0.059781 2.3993 2.459 2.3395l7.7401-0.19286q2.3993-0.059781 2.3395-2.459l-0.15344-6.1581q-0.059781-2.3993-2.459-2.3395l-7.7401 0.19286q-2.3993 0.059782-2.3395 2.459z" clip-path="url(#a)" fill="#fff" stroke="#fff"/>
<g clip-path="url(#a)">
<defs>
<path id="ak" d="m19.672 64.797v-56.688h11.922q15.094 0 22.094 6.8281 7 6.8438 7 21.594 0 14.641-7 21.453t-22.094 6.8125zm-9.8594 8.1094h20.266q21.188 0 31.094-8.8125 9.9219-8.8125 9.9219-27.562 0-18.859-9.9688-27.703-9.9531-8.8281-31.047-8.8281h-20.266z"/>
</defs>
<g transform="translate(1096 535.71) rotate(88.573) scale(.08 -.08)">
<use xlink:href="#ak"/>
</g>
</g>
<path d="m1114.8 536.99 0.50206 4.7976q0.24979 2.387 2.6368 2.1372l7.7004-0.80585q2.387-0.24979 2.1372-2.6368l-0.50206-4.7976q-0.2498-2.387-2.6368-2.1372l-7.7004 0.80585q-2.387 0.24979-2.1372 2.6368z" clip-path="url(#a)" fill="#fff" stroke="#fff"/>
<g clip-path="url(#a)">
<g transform="translate(1118.8 536.56) rotate(84.026) scale(.08 -.08)">
<use xlink:href="#v"/>
</g>
</g>
<path d="m1154.9 349.32 3.1977 4.4411q1.4024 1.9477 3.35 0.54528l6.2832-4.5241q1.9477-1.4024 0.54528-3.35l-3.1977-4.4411q-1.4024-1.9477-3.35-0.54528l-6.2832 4.5241q-1.9477 1.4024-0.54528 3.35z" clip-path="url(#a)" fill="#fff" stroke="#fff"/>
<g clip-path="url(#a)">
<g transform="translate(1158.2 346.94) rotate(54.245) scale(.08 -.08)">
<use xlink:href="#m"/>
</g>
</g>
<path d="m988.03 543.49 1.9159-5.1262q0.84023-2.2481-1.4079-3.0883l-7.2525-2.7106q-2.2481-0.84023-3.0883 1.4079l-1.9159 5.1262q-0.84023 2.2481 1.4079 3.0883l7.2525 2.7106q2.2481 0.84023 3.0883-1.4079z" clip-path="url(#a)" fill="#fff" stroke="#fff"/>
<g clip-path="url(#a)">
<g transform="translate(984.22 542.07) rotate(-69.507) scale(.08 -.08)">
<use xlink:href="#m"/>
</g>
</g>
<path d="m1412 542.89 1.3043-5.3148q0.57199-2.3308-1.7589-2.9028l-7.5194-1.8453q-2.3308-0.57199-2.9028 1.7589l-1.3043 5.3148q-0.57199 2.3308 1.7589 2.9028l7.5194 1.8453q2.3308 0.57199 2.9028-1.7589z" clip-path="url(#a)" fill="#fff" stroke="#fff"/>
<g clip-path="url(#a)">
<g transform="translate(1408.1 541.92) rotate(-76.212) scale(.08 -.08)">
<use xlink:href="#m"/>
</g>
</g>
<path d="m1435.4 542.03 0.75203-4.5394q0.39225-2.3677-1.9755-2.76l-7.6384-1.2654q-2.3677-0.39226-2.76 1.9755l-0.75203 4.5394q-0.39225 2.3677 1.9755 2.76l7.6384 1.2654q2.3677 0.39226 2.76-1.9755z" clip-path="url(#a)" fill="#fff" stroke="#fff"/>
<g clip-path="url(#a)">
<defs>
<path id="aj" d="m9.8125 72.906h41.891v-8.3125h-32.031v-21.484h28.906v-8.2969h-28.906v-34.812h-9.8594z"/>
</defs>
<g transform="translate(1431.4 541.36) rotate(-80.593) scale(.08 -.08)">
<use xlink:href="#aj"/>
</g>
</g>
<path d="m1470.2 447.46 0.4214-6.1456q0.16418-2.3944-2.2302-2.5586l-7.7244-0.52965q-2.3944-0.16418-2.5586 2.2302l-0.4214 6.1456q-0.16418 2.3944 2.2302 2.5586l7.7244 0.52965q2.3944 0.16418 2.5586-2.2302z" clip-path="url(#a)" fill="#fff" stroke="#fff"/>
<g clip-path="url(#a)">
<g transform="translate(1466.1 447.19) rotate(-86.077) scale(.08 -.08)">
<use xlink:href="#ak"/>
</g>
</g>
<path d="m1492.2 536.66 0.37244 5.0651q0.176 2.3935 2.5695 2.2175l7.7217-0.56778q2.3935-0.176 2.2175-2.5695l-0.37244-5.0651q-0.176-2.3935-2.5695-2.2175l-7.7217 0.56778q-2.3935 0.176-2.2175 2.5695z" clip-path="url(#a)" fill="#fff" stroke="#fff"/>
<g clip-path="url(#a)">
<defs>
<path id="ao" d="m53.516 70.516v-9.625q-5.6094 2.6875-10.594 4-4.9844 1.3281-9.625 1.3281-8.0469 0-12.422-3.125t-4.375-8.8906q0-4.8438 2.9062-7.3125 2.9062-2.4531 11.016-3.9688l5.9531-1.2188q11.031-2.1094 16.281-7.4062t5.25-14.172q0-10.609-7.1094-16.078-7.0938-5.4688-20.812-5.4688-5.1719 0-11.016 1.1719-5.8281 1.1719-12.078 3.4688v10.156q6-3.3594 11.766-5.0781 5.7656-1.7031 11.328-1.7031 8.4375 0 13.031 3.3125 4.5938 3.3281 4.5938 9.4844 0 5.3594-3.2969 8.3906t-10.812 4.5469l-6.0156 1.1719q-11.031 2.1875-15.969 6.875-4.9219 4.6875-4.9219 13.047 0 9.6719 6.8125 15.234t18.766 5.5625q5.1406 0 10.453-0.9375 5.3281-0.92188 10.891-2.7656z"/>
</defs>
<g transform="translate(1496.3 536.36) rotate(85.795) scale(.08 -.08)">
<use xlink:href="#ao"/>
</g>
</g>
<path d="m1582 350.76 4.1 3.6246q1.7981 1.5896 3.3877-0.20848l5.1282-5.8007q1.5896-1.7981-0.20848-3.3877l-4.1-3.6246q-1.7981-1.5896-3.3877 0.20848l-5.1282 5.8007q-1.5896 1.7981 0.20848 3.3877z" clip-path="url(#a)" fill="#fff" stroke="#fff"/>
<g clip-path="url(#a)">
<g transform="translate(1584.7 347.72) rotate(41.478) scale(.08 -.08)">
<use xlink:href="#m"/>
</g>
</g>
<path d="m1329.4 904.66v35.285q0 2.4 2.4 2.4h7.7425q2.4 0 2.4-2.4v-35.285q0-2.4-2.4-2.4h-7.7425q-2.4 0-2.4 2.4z" clip-path="url(#a)" fill="#fff" stroke="#fff"/>
<g clip-path="url(#a)">
<g transform="translate(1333.5 904.66) rotate(90) scale(.08 -.08)">
<use xlink:href="#k"/>
<use x="60.818359" xlink:href="#d"/>
<use x="122.341797" xlink:href="#h"/>
<use x="163.439453" xlink:href="#i"/>
<use x="260.851562" xlink:href="#j"/>
<use x="288.634766" xlink:href="#g"/>
<use x="352.013672" xlink:href="#e"/>
<use x="413.292969" xlink:href="#l"/>
</g>
</g>
<path d="m1375.5 904.66v35.285q0 2.4 2.4 2.4h7.7425q2.4 0 2.4-2.4v-35.285q0-2.4-2.4-2.4h-7.7425q-2.4 0-2.4 2.4z" clip-path="url(#a)" fill="#fff" stroke="#fff"/>
<g clip-path="url(#a)">
<g transform="translate(1379.6 904.66) rotate(90) scale(.08 -.08)">
<use xlink:href="#k"/>
<use x="60.818359" xlink:href="#d"/>
<use x="122.341797" xlink:href="#h"/>
<use x="163.439453" xlink:href="#i"/>
<use x="260.851562" xlink:href="#j"/>
<use x="288.634766" xlink:href="#g"/>
<use x="352.013672" xlink:href="#e"/>
<use x="413.292969" xlink:href="#l"/>
</g>
</g>
<path d="m1445.2 736.03 0.60963-5.0181q0.28944-2.3825-2.093-2.6719l-7.686-0.93374q-2.3825-0.28944-2.6719 2.093l-0.60963 5.0181q-0.28944 2.3825 2.093 2.6719l7.686 0.93375q2.3825 0.28944 2.6719-2.093z" clip-path="url(#a)" fill="#fff" stroke="#fff"/>
<g clip-path="url(#a)">
<defs>
<path id="ab" d="m9.8125 72.906h46.094v-8.3125h-36.234v-21.578h34.719v-8.2969h-34.719v-26.422h37.109v-8.2969h-46.969z"/>
</defs>
<g transform="translate(1441.2 735.54) rotate(-83.073) scale(.08 -.08)">
<use xlink:href="#ab"/>
</g>
</g>
<path d="m1455.8 730.75 0.6737 5.5455q0.28944 2.3825 2.6719 2.093l7.686-0.93375q2.3825-0.28944 2.093-2.6719l-0.6737-5.5455q-0.28944-2.3825-2.6719-2.093l-7.686 0.93375q-2.3825 0.28944-2.093 2.6719z" clip-path="url(#a)" fill="#fff" stroke="#fff"/>
<g clip-path="url(#a)">
<defs>
<path id="w" d="m64.406 67.281v-10.391q-4.9844 4.6406-10.625 6.9219-5.6406 2.2969-11.984 2.2969-12.5 0-19.141-7.6406t-6.6406-22.094q0-14.406 6.6406-22.047t19.141-7.6406q6.3438 0 11.984 2.2969t10.625 6.9375v-10.312q-5.1719-3.5156-10.969-5.2812-5.7812-1.75-12.219-1.75-16.562 0-26.094 10.125-9.5156 10.141-9.5156 27.672 0 17.578 9.5156 27.703 9.5312 10.141 26.094 10.141 6.5312 0 12.312-1.7344 5.7969-1.7344 10.875-5.2031z"/>
</defs>
<g transform="translate(1459.8 730.26) rotate(83.073) scale(.08 -.08)">
<use xlink:href="#w"/>
</g>
</g>
<path d="m1513.7 904.66v35.285q0 2.4 2.4 2.4h7.7425q2.4 0 2.4-2.4v-35.285q0-2.4-2.4-2.4h-7.7425q-2.4 0-2.4 2.4z" clip-path="url(#a)" fill="#fff" stroke="#fff"/>
<g clip-path="url(#a)">
<g transform="translate(1517.7 904.66) rotate(90) scale(.08 -.08)">
<use xlink:href="#k"/>
<use x="60.818359" xlink:href="#d"/>
<use x="122.341797" xlink:href="#h"/>
<use x="163.439453" xlink:href="#i"/>
<use x="260.851562" xlink:href="#j"/>
<use x="288.634766" xlink:href="#g"/>
<use x="352.013672" xlink:href="#e"/>
<use x="413.292969" xlink:href="#l"/>
</g>
</g>
<path d="m1637.5 641.36 1.8295-5.2491q0.78989-2.2663-1.4764-3.0562l-7.3112-2.5482q-2.2663-0.78989-3.0562 1.4764l-1.8295 5.2491q-0.78989 2.2663 1.4764 3.0562l7.3112 2.5482q2.2663 0.78989 3.0562-1.4764z" clip-path="url(#a)" fill="#fff" stroke="#fff"/>
<g clip-path="url(#a)">
<defs>
<path id="ap" d="m44.391 34.188q3.1719-1.0781 6.1719-4.5938t6.0312-9.6719l10.016-19.922h-10.609l-9.3125 18.703q-3.625 7.3281-7.0156 9.7188t-9.25 2.3906h-10.75v-30.812h-9.8594v72.906h22.266q12.5 0 18.656-5.2344 6.1562-5.2188 6.1562-15.766 0-6.8906-3.2031-11.438-3.2031-4.5312-9.2969-6.2812zm-24.719 30.609v-25.875h12.406q7.125 0 10.766 3.2969t3.6406 9.6875-3.6406 9.6406-10.766 3.25z"/>
</defs>
<g transform="translate(1633.7 640.02) rotate(-70.785) scale(.08 -.08)">
<use xlink:href="#ap"/>
</g>
</g>
<path d="m1661 640.73 1.216-5.3357q0.53326-2.34-1.8067-2.8733l-7.549-1.7203q-2.34-0.53326-2.8733 1.8067l-1.216 5.3357q-0.53326 2.34 1.8067 2.8733l7.549 1.7203q2.34 0.53326 2.8733-1.8067z" clip-path="url(#a)" fill="#fff" stroke="#fff"/>
<g clip-path="url(#a)">
<g transform="translate(1657.1 639.83) rotate(-77.162) scale(.08 -.08)">
<use xlink:href="#m"/>
</g>
</g>
<path d="m1684.5 640.4 0.65685-6.1249q0.25591-2.3863-2.1304-2.6422l-7.6984-0.82559q-2.3863-0.25591-2.6422 2.1304l-0.65685 6.1249q-0.25591 2.3863 2.1304 2.6422l7.6984 0.82559q2.3863 0.25591 2.6422-2.1304z" clip-path="url(#a)" fill="#fff" stroke="#fff"/>
<g clip-path="url(#a)">
<g transform="translate(1680.4 639.97) rotate(-83.879) scale(.08 -.08)">
<use xlink:href="#ak"/>
</g>
</g>
<path d="m1748.7 542.99 2.4382 4.1622q1.2131 2.0709 3.2839 0.85778l6.6807-3.9134q2.0709-1.2131 0.85778-3.2839l-2.4382-4.1622q-1.2131-2.0709-3.2839-0.85778l-6.6807 3.9134q-2.0709 1.2131-0.85778 3.2839z" clip-path="url(#a)" fill="#fff" stroke="#fff"/>
<g clip-path="url(#a)">
<g transform="translate(1752.2 540.94) rotate(59.639) scale(.08 -.08)">
<use xlink:href="#v"/>
</g>
</g>
<path d="m1718.1 635.23 0.61134 4.5605q0.31888 2.3787 2.6976 2.0598l7.6739-1.0287q2.3787-0.31888 2.0598-2.6976l-0.61134-4.5605q-0.31888-2.3787-2.6976-2.0598l-7.6739 1.0287q-2.3787 0.31887-2.0598 2.6976z" clip-path="url(#a)" fill="#fff" stroke="#fff"/>
<g clip-path="url(#a)">
<g transform="translate(1722.1 634.69) rotate(82.365) scale(.08 -.08)">
<use xlink:href="#aj"/>
</g>
</g>
<path d="m1740.8 635.24 1.5204 5.9694q0.59237 2.3257 2.9181 1.7334l7.503-1.911q2.3257-0.59237 1.7334-2.9181l-1.5204-5.9694q-0.59237-2.3257-2.9181-1.7334l-7.503 1.911q-2.3257 0.59237-1.7334 2.9181z" clip-path="url(#a)" fill="#fff" stroke="#fff"/>
<g clip-path="url(#a)">
<g transform="translate(1744.7 634.23) rotate(75.711) scale(.08 -.08)">
<use xlink:href="#ak"/>
</g>
</g>
<path d="m1559.7 904.66v35.285q0 2.4 2.4 2.4h7.7425q2.4 0 2.4-2.4v-35.285q0-2.4-2.4-2.4h-7.7425q-2.4 0-2.4 2.4z" clip-path="url(#a)" fill="#fff" stroke="#fff"/>
<g clip-path="url(#a)">
<g transform="translate(1563.8 904.66) rotate(90) scale(.08 -.08)">
<use xlink:href="#k"/>
<use x="60.818359" xlink:href="#d"/>
<use x="122.341797" xlink:href="#h"/>
<use x="163.439453" xlink:href="#i"/>
<use x="260.851562" xlink:href="#j"/>
<use x="288.634766" xlink:href="#g"/>
<use x="352.013672" xlink:href="#e"/>
<use x="413.292969" xlink:href="#l"/>
</g>
</g>
<path d="m1605.8 904.66v35.285q0 2.4 2.4 2.4h7.7425q2.4 0 2.4-2.4v-35.285q0-2.4-2.4-2.4h-7.7425q-2.4 0-2.4 2.4z" clip-path="url(#a)" fill="#fff" stroke="#fff"/>
<g clip-path="url(#a)">
<g transform="translate(1609.8 904.66) rotate(90) scale(.08 -.08)">
<use xlink:href="#k"/>
<use x="60.818359" xlink:href="#d"/>
<use x="122.341797" xlink:href="#h"/>
<use x="163.439453" xlink:href="#i"/>
<use x="260.851562" xlink:href="#j"/>
<use x="288.634766" xlink:href="#g"/>
<use x="352.013672" xlink:href="#e"/>
<use x="413.292969" xlink:href="#l"/>
</g>
</g>
<path d="m1651.8 904.66v35.285q0 2.4 2.4 2.4h7.7425q2.4 0 2.4-2.4v-35.285q0-2.4-2.4-2.4h-7.7425q-2.4 0-2.4 2.4z" clip-path="url(#a)" fill="#fff" stroke="#fff"/>
<g clip-path="url(#a)">
<g transform="translate(1655.9 904.66) rotate(90) scale(.08 -.08)">
<use xlink:href="#k"/>
<use x="60.818359" xlink:href="#d"/>
<use x="122.341797" xlink:href="#h"/>
<use x="163.439453" xlink:href="#i"/>
<use x="260.851562" xlink:href="#j"/>
<use x="288.634766" xlink:href="#g"/>
<use x="352.013672" xlink:href="#e"/>
<use x="413.292969" xlink:href="#l"/>
</g>
</g>
<path d="m1762.2 737.86 2.2693-4.0027q1.1837-2.0878-0.90415-3.2715l-6.7354-3.8185q-2.0878-1.1837-3.2715 0.90415l-2.2693 4.0027q-1.1837 2.0878 0.90415 3.2715l6.7354 3.8185q2.0878 1.1837 3.2715-0.90415z" clip-path="url(#a)" fill="#fff" stroke="#fff"/>
<g clip-path="url(#a)">
<g transform="translate(1758.7 735.85) rotate(-60.449) scale(.08 -.08)">
<use xlink:href="#aj"/>
</g>
</g>
<path d="m1820.3 731.01 0.89323 5.5144q0.38376 2.3691 2.7529 1.9854l7.6429-1.238q2.3691-0.38376 1.9854-2.7529l-0.89323-5.5144q-0.38376-2.3691-2.7529-1.9854l-7.6429 1.238q-2.3691 0.38376-1.9854 2.7529z" clip-path="url(#a)" fill="#fff" stroke="#fff"/>
<g clip-path="url(#a)">
<g transform="translate(1824.3 730.36) rotate(80.799) scale(.08 -.08)">
<use xlink:href="#w"/>
</g>
</g>
<path d="m1843.1 732.4 2.1977 5.4269q0.90083 2.2245 3.1254 1.3237l7.1764-2.9061q2.2245-0.90083 1.3237-3.1254l-2.1977-5.4269q-0.90083-2.2245-3.1254-1.3237l-7.1764 2.9061q-2.2245 0.90083-1.3237 3.1254z" clip-path="url(#a)" fill="#fff" stroke="#fff"/>
<g clip-path="url(#a)">
<g transform="translate(1846.8 730.88) rotate(67.954) scale(.08 -.08)">
<use xlink:href="#ar"/>
</g>
</g>
<path d="m1743.9 904.66v35.285q0 2.4 2.4 2.4h7.7425q2.4 0 2.4-2.4v-35.285q0-2.4-2.4-2.4h-7.7425q-2.4 0-2.4 2.4z" clip-path="url(#a)" fill="#fff" stroke="#fff"/>
<g clip-path="url(#a)">
<g transform="translate(1748 904.66) rotate(90) scale(.08 -.08)">
<use xlink:href="#k"/>
<use x="60.818359" xlink:href="#d"/>
<use x="122.341797" xlink:href="#h"/>
<use x="163.439453" xlink:href="#i"/>
<use x="260.851562" xlink:href="#j"/>
<use x="288.634766" xlink:href="#g"/>
<use x="352.013672" xlink:href="#e"/>
<use x="413.292969" xlink:href="#l"/>
</g>
</g>
<path d="m1790 904.66v35.285q0 2.4 2.4 2.4h7.7425q2.4 0 2.4-2.4v-35.285q0-2.4-2.4-2.4h-7.7425q-2.4 0-2.4 2.4z" clip-path="url(#a)" fill="#fff" stroke="#fff"/>
<g clip-path="url(#a)">
<g transform="translate(1794 904.66) rotate(90) scale(.08 -.08)">
<use xlink:href="#k"/>
<use x="60.818359" xlink:href="#d"/>
<use x="122.341797" xlink:href="#h"/>
<use x="163.439453" xlink:href="#i"/>
<use x="260.851562" xlink:href="#j"/>
<use x="288.634766" xlink:href="#g"/>
<use x="352.013672" xlink:href="#e"/>
<use x="413.292969" xlink:href="#l"/>
</g>
</g>
<path d="m1697.9 904.66v35.285q0 2.4 2.4 2.4h7.7425q2.4 0 2.4-2.4v-35.285q0-2.4-2.4-2.4h-7.7425q-2.4 0-2.4 2.4z" clip-path="url(#a)" fill="#fff" stroke="#fff"/>
<g clip-path="url(#a)">
<g transform="translate(1701.9 904.66) rotate(90) scale(.08 -.08)">
<use xlink:href="#k"/>
<use x="60.818359" xlink:href="#d"/>
<use x="122.341797" xlink:href="#h"/>
<use x="163.439453" xlink:href="#i"/>
<use x="260.851562" xlink:href="#j"/>
<use x="288.634766" xlink:href="#g"/>
<use x="352.013672" xlink:href="#e"/>
<use x="413.292969" xlink:href="#l"/>
</g>
</g>
<path d="m1836 904.66v35.285q0 2.4 2.4 2.4h7.7425q2.4 0 2.4-2.4v-35.285q0-2.4-2.4-2.4h-7.7425q-2.4 0-2.4 2.4z" clip-path="url(#a)" fill="#fff" stroke="#fff"/>
<g clip-path="url(#a)">
<g transform="translate(1840.1 904.66) rotate(90) scale(.08 -.08)">
<use xlink:href="#k"/>
<use x="60.818359" xlink:href="#d"/>
<use x="122.341797" xlink:href="#h"/>
<use x="163.439453" xlink:href="#i"/>
<use x="260.851562" xlink:href="#j"/>
<use x="288.634766" xlink:href="#g"/>
<use x="352.013672" xlink:href="#e"/>
<use x="413.292969" xlink:href="#l"/>
</g>
</g>
<path d="m1421.5 904.66v35.285q0 2.4 2.4 2.4h7.7425q2.4 0 2.4-2.4v-35.285q0-2.4-2.4-2.4h-7.7425q-2.4 0-2.4 2.4z" clip-path="url(#a)" fill="#fff" stroke="#fff"/>
<g clip-path="url(#a)">
<g transform="translate(1425.6 904.66) rotate(90) scale(.08 -.08)">
<use xlink:href="#k"/>
<use x="60.818359" xlink:href="#d"/>
<use x="122.341797" xlink:href="#h"/>
<use x="163.439453" xlink:href="#i"/>
<use x="260.851562" xlink:href="#j"/>
<use x="288.634766" xlink:href="#g"/>
<use x="352.013672" xlink:href="#e"/>
<use x="413.292969" xlink:href="#l"/>
</g>
</g>
<path d="m1467.6 904.66v35.285q0 2.4 2.4 2.4h7.7425q2.4 0 2.4-2.4v-35.285q0-2.4-2.4-2.4h-7.7425q-2.4 0-2.4 2.4z" clip-path="url(#a)" fill="#fff" stroke="#fff"/>
<g clip-path="url(#a)">
<g transform="translate(1471.7 904.66) rotate(90) scale(.08 -.08)">
<use xlink:href="#k"/>
<use x="60.818359" xlink:href="#d"/>
<use x="122.341797" xlink:href="#h"/>
<use x="163.439453" xlink:href="#i"/>
<use x="260.851562" xlink:href="#j"/>
<use x="288.634766" xlink:href="#g"/>
<use x="352.013672" xlink:href="#e"/>
<use x="413.292969" xlink:href="#l"/>
</g>
</g>
<path d="m1099.2 904.66v35.285q0 2.4 2.4 2.4h7.7425q2.4 0 2.4-2.4v-35.285q0-2.4-2.4-2.4h-7.7425q-2.4 0-2.4 2.4z" clip-path="url(#a)" fill="#fff" stroke="#fff"/>
<g clip-path="url(#a)">
<g transform="translate(1103.2 904.66) rotate(90) scale(.08 -.08)">
<use xlink:href="#k"/>
<use x="60.818359" xlink:href="#d"/>
<use x="122.341797" xlink:href="#h"/>
<use x="163.439453" xlink:href="#i"/>
<use x="260.851562" xlink:href="#j"/>
<use x="288.634766" xlink:href="#g"/>
<use x="352.013672" xlink:href="#e"/>
<use x="413.292969" xlink:href="#l"/>
</g>
</g>
<path d="m1145.2 904.66v35.285q0 2.4 2.4 2.4h7.7425q2.4 0 2.4-2.4v-35.285q0-2.4-2.4-2.4h-7.7425q-2.4 0-2.4 2.4z" clip-path="url(#a)" fill="#fff" stroke="#fff"/>
<g clip-path="url(#a)">
<g transform="translate(1149.3 904.66) rotate(90) scale(.08 -.08)">
<use xlink:href="#k"/>
<use x="60.818359" xlink:href="#d"/>
<use x="122.341797" xlink:href="#h"/>
<use x="163.439453" xlink:href="#i"/>
<use x="260.851562" xlink:href="#j"/>
<use x="288.634766" xlink:href="#g"/>
<use x="352.013672" xlink:href="#e"/>
<use x="413.292969" xlink:href="#l"/>
</g>
</g>
<path d="m1232.4 544.8 0.3023-5.046q0.14353-2.3957-2.2522-2.5392l-7.7286-0.46302q-2.3957-0.14353-2.5392 2.2522l-0.3023 5.046q-0.14353 2.3957 2.2522 2.5392l7.7286 0.46302q2.3957 0.14353 2.5392-2.2522z" clip-path="url(#a)" fill="#fff" stroke="#fff"/>
<g clip-path="url(#a)">
<g transform="translate(1228.4 544.56) rotate(-86.572) scale(.08 -.08)">
<use xlink:href="#ab"/>
</g>
</g>
<path d="m1231.5 634.07 0.16842 5.5837q0.072356 2.3989 2.4713 2.3266l7.739-0.23342q2.3989-0.072356 2.3266-2.4713l-0.16842-5.5837q-0.072355-2.3989-2.4713-2.3266l-7.739 0.23342q-2.3989 0.072356-2.3266 2.4713z" clip-path="url(#a)" fill="#fff" stroke="#fff"/>
<g clip-path="url(#a)">
<g transform="translate(1235.6 633.95) rotate(88.272) scale(.08 -.08)">
<use xlink:href="#w"/>
</g>
</g>
<path d="m1225.5 730.8 0.65998 5.4326q0.28944 2.3825 2.6719 2.093l7.686-0.93375q2.3825-0.28944 2.093-2.6719l-0.65998-5.4326q-0.28944-2.3825-2.6719-2.093l-7.686 0.93375q-2.3825 0.28944-2.093 2.6719z" clip-path="url(#a)" fill="#fff" stroke="#fff"/>
<g clip-path="url(#a)">
<g transform="translate(1229.6 730.31) rotate(83.073) scale(.08 -.08)">
<use xlink:href="#m"/>
</g>
</g>
<path d="m1215 736.04 0.6125-5.0417q0.28944-2.3825-2.093-2.6719l-7.686-0.93375q-2.3825-0.28944-2.6719 2.093l-0.6125 5.0417q-0.28944 2.3825 2.093 2.6719l7.686 0.93375q2.3825 0.28944 2.6719-2.093z" clip-path="url(#a)" fill="#fff" stroke="#fff"/>
<g clip-path="url(#a)">
<g transform="translate(1210.9 735.55) rotate(-83.073) scale(.08 -.08)">
<use xlink:href="#ao"/>
</g>
</g>
<path d="m1237.3 904.66v35.285q0 2.4 2.4 2.4h7.7425q2.4 0 2.4-2.4v-35.285q0-2.4-2.4-2.4h-7.7425q-2.4 0-2.4 2.4z" clip-path="url(#a)" fill="#fff" stroke="#fff"/>
<g clip-path="url(#a)">
<g transform="translate(1241.4 904.66) rotate(90) scale(.08 -.08)">
<use xlink:href="#k"/>
<use x="60.818359" xlink:href="#d"/>
<use x="122.341797" xlink:href="#h"/>
<use x="163.439453" xlink:href="#i"/>
<use x="260.851562" xlink:href="#j"/>
<use x="288.634766" xlink:href="#g"/>
<use x="352.013672" xlink:href="#e"/>
<use x="413.292969" xlink:href="#l"/>
</g>
</g>
<path d="m1191.3 904.66v35.285q0 2.4 2.4 2.4h7.7425q2.4 0 2.4-2.4v-35.285q0-2.4-2.4-2.4h-7.7425q-2.4 0-2.4 2.4z" clip-path="url(#a)" fill="#fff" stroke="#fff"/>
<g clip-path="url(#a)">
<g transform="translate(1195.3 904.66) rotate(90) scale(.08 -.08)">
<use xlink:href="#k"/>
<use x="60.818359" xlink:href="#d"/>
<use x="122.341797" xlink:href="#h"/>
<use x="163.439453" xlink:href="#i"/>
<use x="260.851562" xlink:href="#j"/>
<use x="288.634766" xlink:href="#g"/>
<use x="352.013672" xlink:href="#e"/>
<use x="413.292969" xlink:href="#l"/>
</g>
</g>
<path d="m868.9 904.66v35.285q0 2.4 2.4 2.4h7.7425q2.4 0 2.4-2.4v-35.285q0-2.4-2.4-2.4h-7.7425q-2.4 0-2.4 2.4z" clip-path="url(#a)" fill="#fff" stroke="#fff"/>
<g clip-path="url(#a)">
<g transform="translate(872.97 904.66) rotate(90) scale(.08 -.08)">
<use xlink:href="#k"/>
<use x="60.818359" xlink:href="#d"/>
<use x="122.341797" xlink:href="#h"/>
<use x="163.439453" xlink:href="#i"/>
<use x="260.851562" xlink:href="#j"/>
<use x="288.634766" xlink:href="#g"/>
<use x="352.013672" xlink:href="#e"/>
<use x="413.292969" xlink:href="#l"/>
</g>
</g>
<path d="m914.96 904.66v35.285q0 2.4 2.4 2.4h7.7425q2.4 0 2.4-2.4v-35.285q0-2.4-2.4-2.4h-7.7425q-2.4 0-2.4 2.4z" clip-path="url(#a)" fill="#fff" stroke="#fff"/>
<g clip-path="url(#a)">
<g transform="translate(919.02 904.66) rotate(90) scale(.08 -.08)">
<use xlink:href="#k"/>
<use x="60.818359" xlink:href="#d"/>
<use x="122.341797" xlink:href="#h"/>
<use x="163.439453" xlink:href="#i"/>
<use x="260.851562" xlink:href="#j"/>
<use x="288.634766" xlink:href="#g"/>
<use x="352.013672" xlink:href="#e"/>
<use x="413.292969" xlink:href="#l"/>
</g>
</g>
<path d="m961.01 904.66v35.285q0 2.4 2.4 2.4h7.7425q2.4 0 2.4-2.4v-35.285q0-2.4-2.4-2.4h-7.7425q-2.4 0-2.4 2.4z" clip-path="url(#a)" fill="#fff" stroke="#fff"/>
<g clip-path="url(#a)">
<g transform="translate(965.07 904.66) rotate(90) scale(.08 -.08)">
<use xlink:href="#k"/>
<use x="60.818359" xlink:href="#d"/>
<use x="122.341797" xlink:href="#h"/>
<use x="163.439453" xlink:href="#i"/>
<use x="260.851562" xlink:href="#j"/>
<use x="288.634766" xlink:href="#g"/>
<use x="352.013672" xlink:href="#e"/>
<use x="413.292969" xlink:href="#l"/>
</g>
</g>
<path d="m1028.9 940.57 4.2554-35.027q0.28944-2.3825-2.093-2.6719l-7.686-0.93375q-2.3825-0.28944-2.6719 2.093l-4.2554 35.027q-0.28944 2.3825 2.093 2.6719l7.686 0.93374q2.3825 0.28944 2.6719-2.093z" clip-path="url(#a)" fill="#fff" stroke="#fff"/>
<g clip-path="url(#a)">
<g transform="translate(1024.9 940.08) rotate(-83.073) scale(.08 -.08)">
<use xlink:href="#k"/>
<use x="60.818359" xlink:href="#d"/>
<use x="122.341797" xlink:href="#h"/>
<use x="163.439453" xlink:href="#i"/>
<use x="260.851562" xlink:href="#j"/>
<use x="288.634766" xlink:href="#g"/>
<use x="352.013672" xlink:href="#e"/>
<use x="413.292969" xlink:href="#l"/>
</g>
</g>
<path d="m1039.5 905.55 4.2554 35.027q0.28944 2.3825 2.6719 2.093l7.686-0.93374q2.3825-0.28944 2.093-2.6719l-4.2554-35.027q-0.28944-2.3825-2.6719-2.093l-7.686 0.93375q-2.3825 0.28944-2.093 2.6719z" clip-path="url(#a)" fill="#fff" stroke="#fff"/>
<g clip-path="url(#a)">
<g transform="translate(1043.6 905.06) rotate(83.073) scale(.08 -.08)">
<use xlink:href="#k"/>
<use x="60.818359" xlink:href="#d"/>
<use x="122.341797" xlink:href="#h"/>
<use x="163.439453" xlink:href="#i"/>
<use x="260.851562" xlink:href="#j"/>
<use x="288.634766" xlink:href="#g"/>
<use x="352.013672" xlink:href="#e"/>
<use x="413.292969" xlink:href="#l"/>
</g>
</g>
<path d="m500.47 904.66v35.285q0 2.4 2.4 2.4h7.7425q2.4 0 2.4-2.4v-35.285q0-2.4-2.4-2.4h-7.7425q-2.4 0-2.4 2.4z" clip-path="url(#a)" fill="#fff" stroke="#fff"/>
<g clip-path="url(#a)">
<g transform="translate(504.54 904.66) rotate(90) scale(.08 -.08)">
<use xlink:href="#k"/>
<use x="60.818359" xlink:href="#d"/>
<use x="122.341797" xlink:href="#h"/>
<use x="163.439453" xlink:href="#i"/>
<use x="260.851562" xlink:href="#j"/>
<use x="288.634766" xlink:href="#g"/>
<use x="352.013672" xlink:href="#e"/>
<use x="413.292969" xlink:href="#l"/>
</g>
</g>
<path d="m595.84 640.61 1.0694-5.4549q0.46174-2.3552-1.8934-2.8169l-7.5979-1.4896q-2.3552-0.46174-2.8169 1.8934l-1.0694 5.4549q-0.46174 2.3552 1.8934 2.8169l7.5979 1.4896q2.3552 0.46174 2.8169-1.8934z" clip-path="url(#a)" fill="#fff" stroke="#fff"/>
<g clip-path="url(#a)">
<g transform="translate(591.85 639.82) rotate(-78.908) scale(.08 -.08)">
<use xlink:href="#ap"/>
</g>
</g>
<path d="m619.31 639.66 0.38009-5.0407q0.18046-2.3932-2.2127-2.5737l-7.7206-0.58217q-2.3932-0.18046-2.5737 2.2127l-0.38009 5.0407q-0.18046 2.3932 2.2127 2.5737l7.7206 0.58217q2.3932 0.18046 2.5737-2.2127z" clip-path="url(#a)" fill="#fff" stroke="#fff"/>
<g clip-path="url(#a)">
<g transform="translate(615.25 639.36) rotate(-85.688) scale(.08 -.08)">
<use xlink:href="#ab"/>
</g>
</g>
<path d="m629.88 634.17 0.25248 5.5805q0.10847 2.3975 2.506 2.2891l7.7346-0.34994q2.3975-0.10847 2.2891-2.506l-0.25248-5.5805q-0.10847-2.3975-2.506-2.2891l-7.7346 0.34994q-2.3975 0.10847-2.2891 2.506z" clip-path="url(#a)" fill="#fff" stroke="#fff"/>
<g clip-path="url(#a)">
<g transform="translate(633.94 633.98) rotate(87.41) scale(.08 -.08)">
<use xlink:href="#w"/>
</g>
</g>
<path d="m664.05 542.17 2.0718 4.6109q0.98365 2.1892 3.1728 1.2055l7.0623-3.1733q2.1892-0.98365 1.2055-3.1728l-2.0718-4.6109q-0.98365-2.1892-3.1728-1.2055l-7.0623 3.1733q-2.1892 0.98364-1.2055 3.1728z" clip-path="url(#a)" fill="#fff" stroke="#fff"/>
<g clip-path="url(#a)">
<g transform="translate(667.76 540.5) rotate(65.804) scale(.08 -.08)">
<use xlink:href="#ab"/>
</g>
</g>
<path d="m546.53 904.66v35.285q0 2.4 2.4 2.4h7.7425q2.4 0 2.4-2.4v-35.285q0-2.4-2.4-2.4h-7.7425q-2.4 0-2.4 2.4z" clip-path="url(#a)" fill="#fff" stroke="#fff"/>
<g clip-path="url(#a)">
<g transform="translate(550.59 904.66) rotate(90) scale(.08 -.08)">
<use xlink:href="#k"/>
<use x="60.818359" xlink:href="#d"/>
<use x="122.341797" xlink:href="#h"/>
<use x="163.439453" xlink:href="#i"/>
<use x="260.851562" xlink:href="#j"/>
<use x="288.634766" xlink:href="#g"/>
<use x="352.013672" xlink:href="#e"/>
<use x="413.292969" xlink:href="#l"/>
</g>
</g>
<path d="m592.58 904.66v35.285q0 2.4 2.4 2.4h7.7425q2.4 0 2.4-2.4v-35.285q0-2.4-2.4-2.4h-7.7425q-2.4 0-2.4 2.4z" clip-path="url(#a)" fill="#fff" stroke="#fff"/>
<g clip-path="url(#a)">
<g transform="translate(596.64 904.66) rotate(90) scale(.08 -.08)">
<use xlink:href="#k"/>
<use x="60.818359" xlink:href="#d"/>
<use x="122.341797" xlink:href="#h"/>
<use x="163.439453" xlink:href="#i"/>
<use x="260.851562" xlink:href="#j"/>
<use x="288.634766" xlink:href="#g"/>
<use x="352.013672" xlink:href="#e"/>
<use x="413.292969" xlink:href="#l"/>
</g>
</g>
<path d="m638.63 904.66v35.285q0 2.4 2.4 2.4h7.7425q2.4 0 2.4-2.4v-35.285q0-2.4-2.4-2.4h-7.7425q-2.4 0-2.4 2.4z" clip-path="url(#a)" fill="#fff" stroke="#fff"/>
<g clip-path="url(#a)">
<g transform="translate(642.7 904.66) rotate(90) scale(.08 -.08)">
<use xlink:href="#k"/>
<use x="60.818359" xlink:href="#d"/>
<use x="122.341797" xlink:href="#h"/>
<use x="163.439453" xlink:href="#i"/>
<use x="260.851562" xlink:href="#j"/>
<use x="288.634766" xlink:href="#g"/>
<use x="352.013672" xlink:href="#e"/>
<use x="413.292969" xlink:href="#l"/>
</g>
</g>
<path d="m684.4 737.48 1.8739-5.1417q0.82182-2.2549-1.4331-3.0767l-7.2744-2.6512q-2.2549-0.82182-3.0767 1.4331l-1.8739 5.1417q-0.82182 2.2549 1.4331 3.0767l7.2744 2.6512q2.2549 0.82182 3.0767-1.4331z" clip-path="url(#a)" fill="#fff" stroke="#fff"/>
<g clip-path="url(#a)">
<g transform="translate(680.58 736.09) rotate(-69.975) scale(.08 -.08)">
<use xlink:href="#m"/>
</g>
</g>
<path d="m708.36 736.28 0.67038-5.5182q0.28944-2.3825-2.093-2.6719l-7.686-0.93375q-2.3825-0.28944-2.6719 2.093l-0.67039 5.5182q-0.28944 2.3825 2.093 2.6719l7.686 0.93375q2.3825 0.28944 2.6719-2.093z" clip-path="url(#a)" fill="#fff" stroke="#fff"/>
<g clip-path="url(#a)">
<g transform="translate(704.33 735.79) rotate(-83.073) scale(.08 -.08)">
<use xlink:href="#ap"/>
</g>
</g>
<path d="m718.97 731 0.6125 5.0417q0.28944 2.3825 2.6719 2.093l7.686-0.93375q2.3825-0.28944 2.093-2.6719l-0.6125-5.0417q-0.28944-2.3825-2.6719-2.093l-7.686 0.93375q-2.3825 0.28944-2.093 2.6719z" clip-path="url(#a)" fill="#fff" stroke="#fff"/>
<g clip-path="url(#a)">
<g transform="translate(723 730.51) rotate(83.073) scale(.08 -.08)">
<use xlink:href="#ao"/>
</g>
</g>
<path d="m741.7 732.34 1.8739 5.1417q0.82182 2.2549 3.0767 1.4331l7.2744-2.6512q2.2549-0.82182 1.4331-3.0767l-1.8739-5.1417q-0.82182-2.2549-3.0767-1.4331l-7.2744 2.6512q-2.2549 0.82182-1.4331 3.0767z" clip-path="url(#a)" fill="#fff" stroke="#fff"/>
<g clip-path="url(#a)">
<g transform="translate(745.51 730.95) rotate(69.975) scale(.08 -.08)">
<use xlink:href="#m"/>
</g>
</g>
<path d="m684.69 904.66v35.285q0 2.4 2.4 2.4h7.7425q2.4 0 2.4-2.4v-35.285q0-2.4-2.4-2.4h-7.7425q-2.4 0-2.4 2.4z" clip-path="url(#a)" fill="#fff" stroke="#fff"/>
<g clip-path="url(#a)">
<g transform="translate(688.75 904.66) rotate(90) scale(.08 -.08)">
<use xlink:href="#k"/>
<use x="60.818359" xlink:href="#d"/>
<use x="122.341797" xlink:href="#h"/>
<use x="163.439453" xlink:href="#i"/>
<use x="260.851562" xlink:href="#j"/>
<use x="288.634766" xlink:href="#g"/>
<use x="352.013672" xlink:href="#e"/>
<use x="413.292969" xlink:href="#l"/>
</g>
</g>
<path d="m730.74 904.66v35.285q0 2.4 2.4 2.4h7.7425q2.4 0 2.4-2.4v-35.285q0-2.4-2.4-2.4h-7.7425q-2.4 0-2.4 2.4z" clip-path="url(#a)" fill="#fff" stroke="#fff"/>
<g clip-path="url(#a)">
<g transform="translate(734.8 904.66) rotate(90) scale(.08 -.08)">
<use xlink:href="#k"/>
<use x="60.818359" xlink:href="#d"/>
<use x="122.341797" xlink:href="#h"/>
<use x="163.439453" xlink:href="#i"/>
<use x="260.851562" xlink:href="#j"/>
<use x="288.634766" xlink:href="#g"/>
<use x="352.013672" xlink:href="#e"/>
<use x="413.292969" xlink:href="#l"/>
</g>
</g>
<path d="m776.79 904.66v35.285q0 2.4 2.4 2.4h7.7425q2.4 0 2.4-2.4v-35.285q0-2.4-2.4-2.4h-7.7425q-2.4 0-2.4 2.4z" clip-path="url(#a)" fill="#fff" stroke="#fff"/>
<g clip-path="url(#a)">
<g transform="translate(780.86 904.66) rotate(90) scale(.08 -.08)">
<use xlink:href="#k"/>
<use x="60.818359" xlink:href="#d"/>
<use x="122.341797" xlink:href="#h"/>
<use x="163.439453" xlink:href="#i"/>
<use x="260.851562" xlink:href="#j"/>
<use x="288.634766" xlink:href="#g"/>
<use x="352.013672" xlink:href="#e"/>
<use x="413.292969" xlink:href="#l"/>
</g>
</g>
<path d="m385.99 736.29 0.6737-5.5455q0.28944-2.3825-2.093-2.6719l-7.686-0.93375q-2.3825-0.28944-2.6719 2.093l-0.6737 5.5455q-0.28944 2.3825 2.093 2.6719l7.686 0.93375q2.3825 0.28944 2.6719-2.093z" clip-path="url(#a)" fill="#fff" stroke="#fff"/>
<g clip-path="url(#a)">
<g transform="translate(381.95 735.8) rotate(-83.073) scale(.08 -.08)">
<use xlink:href="#w"/>
</g>
</g>
<path d="m396.62 731.23 0.55491 4.5677q0.28944 2.3825 2.6719 2.093l7.686-0.93374q2.3825-0.28944 2.093-2.6719l-0.55491-4.5677q-0.28944-2.3825-2.6719-2.093l-7.686 0.93375q-2.3825 0.28944-2.093 2.6719z" clip-path="url(#a)" fill="#fff" stroke="#fff"/>
<g clip-path="url(#a)">
<g transform="translate(400.66 730.74) rotate(83.073) scale(.08 -.08)">
<use xlink:href="#aj"/>
</g>
</g>
<path d="m362.31 904.66v35.285q0 2.4 2.4 2.4h7.7425q2.4 0 2.4-2.4v-35.285q0-2.4-2.4-2.4h-7.7425q-2.4 0-2.4 2.4z" clip-path="url(#a)" fill="#fff" stroke="#fff"/>
<g clip-path="url(#a)">
<g transform="translate(366.38 904.66) rotate(90) scale(.08 -.08)">
<use xlink:href="#k"/>
<use x="60.818359" xlink:href="#d"/>
<use x="122.341797" xlink:href="#h"/>
<use x="163.439453" xlink:href="#i"/>
<use x="260.851562" xlink:href="#j"/>
<use x="288.634766" xlink:href="#g"/>
<use x="352.013672" xlink:href="#e"/>
<use x="413.292969" xlink:href="#l"/>
</g>
</g>
<path d="m408.37 904.66v35.285q0 2.4 2.4 2.4h7.7425q2.4 0 2.4-2.4v-35.285q0-2.4-2.4-2.4h-7.7425q-2.4 0-2.4 2.4z" clip-path="url(#a)" fill="#fff" stroke="#fff"/>
<g clip-path="url(#a)">
<g transform="translate(412.43 904.66) rotate(90) scale(.08 -.08)">
<use xlink:href="#k"/>
<use x="60.818359" xlink:href="#d"/>
<use x="122.341797" xlink:href="#h"/>
<use x="163.439453" xlink:href="#i"/>
<use x="260.851562" xlink:href="#j"/>
<use x="288.634766" xlink:href="#g"/>
<use x="352.013672" xlink:href="#e"/>
<use x="413.292969" xlink:href="#l"/>
</g>
</g>
<path d="m85.992 904.66v35.285q0 2.4 2.4 2.4h7.7425q2.4 0 2.4-2.4v-35.285q0-2.4-2.4-2.4h-7.7425q-2.4 0-2.4 2.4z" clip-path="url(#a)" fill="#fff" stroke="#fff"/>
<g clip-path="url(#a)">
<g transform="translate(90.055 904.66) rotate(90) scale(.08 -.08)">
<use xlink:href="#k"/>
<use x="60.818359" xlink:href="#d"/>
<use x="122.341797" xlink:href="#h"/>
<use x="163.439453" xlink:href="#i"/>
<use x="260.851562" xlink:href="#j"/>
<use x="288.634766" xlink:href="#g"/>
<use x="352.013672" xlink:href="#e"/>
<use x="413.292969" xlink:href="#l"/>
</g>
</g>
<path d="m172.71 941.03 12.083-33.152q0.82182-2.2549-1.4331-3.0767l-7.2744-2.6512q-2.2549-0.82182-3.0767 1.4331l-12.083 33.152q-0.82182 2.2549 1.4331 3.0767l7.2744 2.6512q2.2549 0.82182 3.0767-1.4331z" clip-path="url(#a)" fill="#fff" stroke="#fff"/>
<g clip-path="url(#a)">
<g transform="translate(168.89 939.63) rotate(-69.975) scale(.08 -.08)">
<use xlink:href="#k"/>
<use x="60.818359" xlink:href="#d"/>
<use x="122.341797" xlink:href="#h"/>
<use x="163.439453" xlink:href="#i"/>
<use x="260.851562" xlink:href="#j"/>
<use x="288.634766" xlink:href="#g"/>
<use x="352.013672" xlink:href="#e"/>
<use x="413.292969" xlink:href="#l"/>
</g>
</g>
<path d="m230 907.87 12.083 33.152q0.82182 2.2549 3.0767 1.4331l7.2744-2.6512q2.2549-0.82182 1.4331-3.0767l-12.083-33.152q-0.82182-2.2549-3.0767-1.4331l-7.2744 2.6512q-2.2549 0.82182-1.4331 3.0767z" clip-path="url(#a)" fill="#fff" stroke="#fff"/>
<g clip-path="url(#a)">
<g transform="translate(233.82 906.48) rotate(69.975) scale(.08 -.08)">
<use xlink:href="#k"/>
<use x="60.818359" xlink:href="#d"/>
<use x="122.341797" xlink:href="#h"/>
<use x="163.439453" xlink:href="#i"/>
<use x="260.851562" xlink:href="#j"/>
<use x="288.634766" xlink:href="#g"/>
<use x="352.013672" xlink:href="#e"/>
<use x="413.292969" xlink:href="#l"/>
</g>
</g>
<path d="m201.8 736.03 0.60963-5.0181q0.28944-2.3825-2.093-2.6719l-7.686-0.93374q-2.3825-0.28944-2.6719 2.093l-0.60963 5.0181q-0.28944 2.3825 2.093 2.6719l7.686 0.93375q2.3825 0.28944 2.6719-2.093z" clip-path="url(#a)" fill="#fff" stroke="#fff"/>
<g clip-path="url(#a)">
<g transform="translate(197.77 735.54) rotate(-83.073) scale(.08 -.08)">
<use xlink:href="#ab"/>
</g>
</g>
<path d="m212.35 730.75 0.6737 5.5455q0.28944 2.3825 2.6719 2.093l7.686-0.93375q2.3825-0.28944 2.093-2.6719l-0.6737-5.5455q-0.28944-2.3825-2.6719-2.093l-7.686 0.93375q-2.3825 0.28944-2.093 2.6719z" clip-path="url(#a)" fill="#fff" stroke="#fff"/>
<g clip-path="url(#a)">
<g transform="translate(216.38 730.26) rotate(83.073) scale(.08 -.08)">
<use xlink:href="#w"/>
</g>
</g>
<path d="m178.1 904.66v35.285q0 2.4 2.4 2.4h7.7425q2.4 0 2.4-2.4v-35.285q0-2.4-2.4-2.4h-7.7425q-2.4 0-2.4 2.4z" clip-path="url(#a)" fill="#fff" stroke="#fff"/>
<g clip-path="url(#a)">
<g transform="translate(182.16 904.66) rotate(90) scale(.08 -.08)">
<use xlink:href="#k"/>
<use x="60.818359" xlink:href="#d"/>
<use x="122.341797" xlink:href="#h"/>
<use x="163.439453" xlink:href="#i"/>
<use x="260.851562" xlink:href="#j"/>
<use x="288.634766" xlink:href="#g"/>
<use x="352.013672" xlink:href="#e"/>
<use x="413.292969" xlink:href="#l"/>
</g>
</g>
<path d="m224.15 904.66v35.285q0 2.4 2.4 2.4h7.7425q2.4 0 2.4-2.4v-35.285q0-2.4-2.4-2.4h-7.7425q-2.4 0-2.4 2.4z" clip-path="url(#a)" fill="#fff" stroke="#fff"/>
<g clip-path="url(#a)">
<g transform="translate(228.22 904.66) rotate(90) scale(.08 -.08)">
<use xlink:href="#k"/>
<use x="60.818359" xlink:href="#d"/>
<use x="122.341797" xlink:href="#h"/>
<use x="163.439453" xlink:href="#i"/>
<use x="260.851562" xlink:href="#j"/>
<use x="288.634766" xlink:href="#g"/>
<use x="352.013672" xlink:href="#e"/>
<use x="413.292969" xlink:href="#l"/>
</g>
</g>
<path d="m1283.4 904.66v35.285q0 2.4 2.4 2.4h7.7425q2.4 0 2.4-2.4v-35.285q0-2.4-2.4-2.4h-7.7425q-2.4 0-2.4 2.4z" clip-path="url(#a)" fill="#fff" stroke="#fff"/>
<g clip-path="url(#a)">
<g transform="translate(1287.4 904.66) rotate(90) scale(.08 -.08)">
<use xlink:href="#k"/>
<use x="60.818359" xlink:href="#d"/>
<use x="122.341797" xlink:href="#h"/>
<use x="163.439453" xlink:href="#i"/>
<use x="260.851562" xlink:href="#j"/>
<use x="288.634766" xlink:href="#g"/>
<use x="352.013672" xlink:href="#e"/>
<use x="413.292969" xlink:href="#l"/>
</g>
</g>
<path d="m1882.1 904.66v35.285q0 2.4 2.4 2.4h7.7425q2.4 0 2.4-2.4v-35.285q0-2.4-2.4-2.4h-7.7425q-2.4 0-2.4 2.4z" clip-path="url(#a)" fill="#fff" stroke="#fff"/>
<g clip-path="url(#a)">
<g transform="translate(1886.1 904.66) rotate(90) scale(.08 -.08)">
<use xlink:href="#k"/>
<use x="60.818359" xlink:href="#d"/>
<use x="122.341797" xlink:href="#h"/>
<use x="163.439453" xlink:href="#i"/>
<use x="260.851562" xlink:href="#j"/>
<use x="288.634766" xlink:href="#g"/>
<use x="352.013672" xlink:href="#e"/>
<use x="413.292969" xlink:href="#l"/>
</g>
</g>
<defs>
<path id="b" d="m0 8.6603c2.2967 0 4.4997-0.9125 6.1237-2.5365 1.624-1.624 2.5365-3.827 2.5365-6.1237s-0.9125-4.4997-2.5365-6.1237c-1.624-1.624-3.827-2.5365-6.1237-2.5365s-4.4997 0.9125-6.1237 2.5365c-1.624 1.624-2.5365 3.827-2.5365 6.1237s0.9125 4.4997 2.5365 6.1237c1.624 1.624 3.827 2.5365 6.1237 2.5365z"/>
</defs>
<g clip-path="url(#a)">
<use x="92.262904" y="1017.073822" fill="#ffffff" stroke="#ffffff" xlink:href="#b"/>
</g>
<g clip-path="url(#a)">
<use x="138.316425" y="1017.073822" fill="#ffffff" stroke="#ffffff" xlink:href="#b"/>
</g>
<g clip-path="url(#a)">
<use x="184.369947" y="1017.073822" fill="#ffffff" stroke="#ffffff" xlink:href="#b"/>
</g>
<g clip-path="url(#a)">
<use x="230.423468" y="1017.073822" fill="#ffffff" stroke="#ffffff" xlink:href="#b"/>
</g>
<g clip-path="url(#a)">
<use x="276.47699" y="1017.073822" fill="#ffffff" stroke="#ffffff" xlink:href="#b"/>
</g>
<g clip-path="url(#a)">
<use x="322.530511" y="1017.073822" fill="#ffffff" stroke="#ffffff" xlink:href="#b"/>
</g>
<g clip-path="url(#a)">
<use x="368.584033" y="1017.073822" fill="#ffffff" stroke="#ffffff" xlink:href="#b"/>
</g>
<g clip-path="url(#a)">
<use x="414.637554" y="1017.073822" fill="#ffffff" stroke="#ffffff" xlink:href="#b"/>
</g>
<g clip-path="url(#a)">
<use x="460.691075" y="1017.073822" fill="#ffffff" stroke="#ffffff" xlink:href="#b"/>
</g>
<g clip-path="url(#a)">
<use x="506.744597" y="1017.073822" fill="#ffffff" stroke="#ffffff" xlink:href="#b"/>
</g>
<g clip-path="url(#a)">
<use x="552.798118" y="1017.073822" fill="#ffffff" stroke="#ffffff" xlink:href="#b"/>
</g>
<g clip-path="url(#a)">
<use x="598.85164" y="1017.073822" fill="#ffffff" stroke="#ffffff" xlink:href="#b"/>
</g>
<g clip-path="url(#a)">
<use x="644.905161" y="1017.073822" fill="#ffffff" stroke="#ffffff" xlink:href="#b"/>
</g>
<g clip-path="url(#a)">
<use x="690.958683" y="1017.073822" fill="#ffffff" stroke="#ffffff" xlink:href="#b"/>
</g>
<g clip-path="url(#a)">
<use x="737.012204" y="1017.073822" fill="#ffffff" stroke="#ffffff" xlink:href="#b"/>
</g>
<g clip-path="url(#a)">
<use x="783.065726" y="1017.073822" fill="#ffffff" stroke="#ffffff" xlink:href="#b"/>
</g>
<g clip-path="url(#a)">
<use x="829.119247" y="1017.073822" fill="#ffffff" stroke="#ffffff" xlink:href="#b"/>
</g>
<g clip-path="url(#a)">
<use x="875.172769" y="1017.073822" fill="#ffffff" stroke="#ffffff" xlink:href="#b"/>
</g>
<g clip-path="url(#a)">
<use x="921.22629" y="1017.073822" fill="#ffffff" stroke="#ffffff" xlink:href="#b"/>
</g>
<g clip-path="url(#a)">
<use x="967.279812" y="1017.073822" fill="#ffffff" stroke="#ffffff" xlink:href="#b"/>
</g>
<g clip-path="url(#a)">
<use x="1013.333333" y="1017.073822" fill="#ffffff" stroke="#ffffff" xlink:href="#b"/>
</g>
<g clip-path="url(#a)">
<use x="1059.386855" y="1017.073822" fill="#ffffff" stroke="#ffffff" xlink:href="#b"/>
</g>
<g clip-path="url(#a)">
<use x="1105.440376" y="1017.073822" fill="#ffffff" stroke="#ffffff" xlink:href="#b"/>
</g>
<g clip-path="url(#a)">
<use x="1151.493898" y="1017.073822" fill="#ffffff" stroke="#ffffff" xlink:href="#b"/>
</g>
<g clip-path="url(#a)">
<use x="1197.547419" y="1017.073822" fill="#ffffff" stroke="#ffffff" xlink:href="#b"/>
</g>
<g clip-path="url(#a)">
<use x="1243.600941" y="1017.073822" fill="#ffffff" stroke="#ffffff" xlink:href="#b"/>
</g>
<g clip-path="url(#a)">
<use x="1289.654462" y="1017.073822" fill="#ffffff" stroke="#ffffff" xlink:href="#b"/>
</g>
<g clip-path="url(#a)">
<use x="1335.707984" y="1017.073822" fill="#ffffff" stroke="#ffffff" xlink:href="#b"/>
</g>
<g clip-path="url(#a)">
<use x="1381.761505" y="1017.073822" fill="#ffffff" stroke="#ffffff" xlink:href="#b"/>
</g>
<g clip-path="url(#a)">
<use x="1427.815027" y="1017.073822" fill="#ffffff" stroke="#ffffff" xlink:href="#b"/>
</g>
<g clip-path="url(#a)">
<use x="1473.868548" y="1017.073822" fill="#ffffff" stroke="#ffffff" xlink:href="#b"/>
</g>
<g clip-path="url(#a)">
<use x="1519.92207" y="1017.073822" fill="#ffffff" stroke="#ffffff" xlink:href="#b"/>
</g>
<g clip-path="url(#a)">
<use x="1565.975591" y="1017.073822" fill="#ffffff" stroke="#ffffff" xlink:href="#b"/>
</g>
<g clip-path="url(#a)">
<use x="1612.029113" y="1017.073822" fill="#ffffff" stroke="#ffffff" xlink:href="#b"/>
</g>
<g clip-path="url(#a)">
<use x="1658.082634" y="1017.073822" fill="#ffffff" stroke="#ffffff" xlink:href="#b"/>
</g>
<g clip-path="url(#a)">
<use x="1704.136156" y="1017.073822" fill="#ffffff" stroke="#ffffff" xlink:href="#b"/>
</g>
<g clip-path="url(#a)">
<use x="1750.189677" y="1017.073822" fill="#ffffff" stroke="#ffffff" xlink:href="#b"/>
</g>
<g clip-path="url(#a)">
<use x="1796.243199" y="1017.073822" fill="#ffffff" stroke="#ffffff" xlink:href="#b"/>
</g>
<g clip-path="url(#a)">
<use x="1842.29672" y="1017.073822" fill="#ffffff" stroke="#ffffff" xlink:href="#b"/>
</g>
<g clip-path="url(#a)">
<use x="1888.350242" y="1017.073822" fill="#ffffff" stroke="#ffffff" xlink:href="#b"/>
</g>
<g clip-path="url(#a)">
<use x="780.44963" y="49.592845" fill="#ffffff" stroke="#ffffff" xlink:href="#b"/>
</g>
<g clip-path="url(#a)">
<use x="169.018773" y="445.813141" fill="#ffffff" stroke="#ffffff" xlink:href="#b"/>
</g>
<g clip-path="url(#a)">
<use x="322.530511" y="827.532504" fill="#ffffff" stroke="#ffffff" xlink:href="#b"/>
</g>
<g clip-path="url(#a)">
<use x="806.092487" y="445.813141" fill="#ffffff" stroke="#ffffff" xlink:href="#b"/>
</g>
<g clip-path="url(#a)">
<use x="460.691075" y="827.532504" fill="#ffffff" stroke="#ffffff" xlink:href="#b"/>
</g>
<g clip-path="url(#a)">
<use x="408.880864" y="249.934562" fill="#ffffff" stroke="#ffffff" xlink:href="#b"/>
</g>
<g clip-path="url(#a)">
<use x="829.119247" y="827.532504" fill="#ffffff" stroke="#ffffff" xlink:href="#b"/>
</g>
<g clip-path="url(#a)">
<use x="950.009741" y="637.991187" fill="#ffffff" stroke="#ffffff" xlink:href="#b"/>
</g>
<g clip-path="url(#a)">
<use x="1091.048651" y="249.934562" fill="#ffffff" stroke="#ffffff" xlink:href="#b"/>
</g>
<g clip-path="url(#a)">
<use x="1477.450489" y="249.934562" fill="#ffffff" stroke="#ffffff" xlink:href="#b"/>
</g>
<g clip-path="url(#a)">
<use x="1335.707984" y="827.532504" fill="#ffffff" stroke="#ffffff" xlink:href="#b"/>
</g>
<g clip-path="url(#a)">
<use x="1381.761505" y="827.532504" fill="#ffffff" stroke="#ffffff" xlink:href="#b"/>
</g>
<g clip-path="url(#a)">
<use x="1450.841787" y="637.991187" fill="#ffffff" stroke="#ffffff" xlink:href="#b"/>
</g>
<g clip-path="url(#a)">
<use x="1519.92207" y="827.532504" fill="#ffffff" stroke="#ffffff" xlink:href="#b"/>
</g>
<g clip-path="url(#a)">
<use x="1699.019098" y="445.813141" fill="#ffffff" stroke="#ffffff" xlink:href="#b"/>
</g>
<g clip-path="url(#a)">
<use x="1565.975591" y="827.532504" fill="#ffffff" stroke="#ffffff" xlink:href="#b"/>
</g>
<g clip-path="url(#a)">
<use x="1612.029113" y="827.532504" fill="#ffffff" stroke="#ffffff" xlink:href="#b"/>
</g>
<g clip-path="url(#a)">
<use x="1658.082634" y="827.532504" fill="#ffffff" stroke="#ffffff" xlink:href="#b"/>
</g>
<g clip-path="url(#a)">
<use x="1811.594372" y="637.991187" fill="#ffffff" stroke="#ffffff" xlink:href="#b"/>
</g>
<g clip-path="url(#a)">
<use x="1750.189677" y="827.532504" fill="#ffffff" stroke="#ffffff" xlink:href="#b"/>
</g>
<g clip-path="url(#a)">
<use x="1796.243199" y="827.532504" fill="#ffffff" stroke="#ffffff" xlink:href="#b"/>
</g>
<g clip-path="url(#a)">
<use x="1704.136156" y="827.532504" fill="#ffffff" stroke="#ffffff" xlink:href="#b"/>
</g>
<g clip-path="url(#a)">
<use x="1842.29672" y="827.532504" fill="#ffffff" stroke="#ffffff" xlink:href="#b"/>
</g>
<g clip-path="url(#a)">
<use x="1427.815027" y="827.532504" fill="#ffffff" stroke="#ffffff" xlink:href="#b"/>
</g>
<g clip-path="url(#a)">
<use x="1473.868548" y="827.532504" fill="#ffffff" stroke="#ffffff" xlink:href="#b"/>
</g>
<g clip-path="url(#a)">
<use x="1105.440376" y="827.532504" fill="#ffffff" stroke="#ffffff" xlink:href="#b"/>
</g>
<g clip-path="url(#a)">
<use x="1151.493898" y="827.532504" fill="#ffffff" stroke="#ffffff" xlink:href="#b"/>
</g>
<g clip-path="url(#a)">
<use x="1232.08756" y="445.813141" fill="#ffffff" stroke="#ffffff" xlink:href="#b"/>
</g>
<g clip-path="url(#a)">
<use x="1220.57418" y="637.991187" fill="#ffffff" stroke="#ffffff" xlink:href="#b"/>
</g>
<g clip-path="url(#a)">
<use x="1243.600941" y="827.532504" fill="#ffffff" stroke="#ffffff" xlink:href="#b"/>
</g>
<g clip-path="url(#a)">
<use x="1197.547419" y="827.532504" fill="#ffffff" stroke="#ffffff" xlink:href="#b"/>
</g>
<g clip-path="url(#a)">
<use x="875.172769" y="827.532504" fill="#ffffff" stroke="#ffffff" xlink:href="#b"/>
</g>
<g clip-path="url(#a)">
<use x="921.22629" y="827.532504" fill="#ffffff" stroke="#ffffff" xlink:href="#b"/>
</g>
<g clip-path="url(#a)">
<use x="967.279812" y="827.532504" fill="#ffffff" stroke="#ffffff" xlink:href="#b"/>
</g>
<g clip-path="url(#a)">
<use x="1036.360094" y="827.532504" fill="#ffffff" stroke="#ffffff" xlink:href="#b"/>
</g>
<g clip-path="url(#a)">
<use x="506.744597" y="827.532504" fill="#ffffff" stroke="#ffffff" xlink:href="#b"/>
</g>
<g clip-path="url(#a)">
<use x="627.635091" y="445.813141" fill="#ffffff" stroke="#ffffff" xlink:href="#b"/>
</g>
<g clip-path="url(#a)">
<use x="552.798118" y="827.532504" fill="#ffffff" stroke="#ffffff" xlink:href="#b"/>
</g>
<g clip-path="url(#a)">
<use x="598.85164" y="827.532504" fill="#ffffff" stroke="#ffffff" xlink:href="#b"/>
</g>
<g clip-path="url(#a)">
<use x="644.905161" y="827.532504" fill="#ffffff" stroke="#ffffff" xlink:href="#b"/>
</g>
<g clip-path="url(#a)">
<use x="713.985444" y="637.991187" fill="#ffffff" stroke="#ffffff" xlink:href="#b"/>
</g>
<g clip-path="url(#a)">
<use x="690.958683" y="827.532504" fill="#ffffff" stroke="#ffffff" xlink:href="#b"/>
</g>
<g clip-path="url(#a)">
<use x="737.012204" y="827.532504" fill="#ffffff" stroke="#ffffff" xlink:href="#b"/>
</g>
<g clip-path="url(#a)">
<use x="783.065726" y="827.532504" fill="#ffffff" stroke="#ffffff" xlink:href="#b"/>
</g>
<g clip-path="url(#a)">
<use x="1934.403763" y="1017.073822" fill="#ffffff" stroke="#ffffff" xlink:href="#b"/>
</g>
<g clip-path="url(#a)">
<use x="391.610793" y="637.991187" fill="#ffffff" stroke="#ffffff" xlink:href="#b"/>
</g>
<g clip-path="url(#a)">
<use x="368.584033" y="827.532504" fill="#ffffff" stroke="#ffffff" xlink:href="#b"/>
</g>
<g clip-path="url(#a)">
<use x="414.637554" y="827.532504" fill="#ffffff" stroke="#ffffff" xlink:href="#b"/>
</g>
<g clip-path="url(#a)">
<use x="92.262904" y="827.532504" fill="#ffffff" stroke="#ffffff" xlink:href="#b"/>
</g>
<g clip-path="url(#a)">
<use x="207.396707" y="827.532504" fill="#ffffff" stroke="#ffffff" xlink:href="#b"/>
</g>
<g clip-path="url(#a)">
<use x="207.396707" y="637.991187" fill="#ffffff" stroke="#ffffff" xlink:href="#b"/>
</g>
<g clip-path="url(#a)">
<use x="184.369947" y="827.532504" fill="#ffffff" stroke="#ffffff" xlink:href="#b"/>
</g>
<g clip-path="url(#a)">
<use x="230.423468" y="827.532504" fill="#ffffff" stroke="#ffffff" xlink:href="#b"/>
</g>
<g clip-path="url(#a)">
<use x="1289.654462" y="827.532504" fill="#ffffff" stroke="#ffffff" xlink:href="#b"/>
</g>
<g clip-path="url(#a)">
<use x="1888.350242" y="827.532504" fill="#ffffff" stroke="#ffffff" xlink:href="#b"/>
</g>
<g clip-path="url(#a)">
<defs>
<path id="aa" d="m9.8125 72.906h9.8594v-72.906h-9.8594z"/>
</defs>
<g transform="translate(90.788 1019.8) scale(.1 -.1)">
<use xlink:href="#aa"/>
</g>
</g>
<g clip-path="url(#a)">
<defs>
<path id="r" d="m18.312 70.219v-15.531h18.5v-6.9844h-18.5v-29.688q0-6.6875 1.8281-8.5938t7.4531-1.9062h9.2188v-7.5156h-9.2188q-10.406 0-14.359 3.875-3.9531 3.8906-3.9531 14.141v29.688h-6.5938v6.9844h6.5938v15.531z"/>
<path id="s" d="m30.609 48.391q-7.2188 0-11.422-5.6406t-4.2031-15.453 4.1719-15.453q4.1875-5.6406 11.453-5.6406 7.1875 0 11.375 5.6562 4.2031 5.6719 4.2031 15.438 0 9.7188-4.2031 15.406-4.1875 5.6875-11.375 5.6875zm0 7.6094q11.719 0 18.406-7.625 6.7031-7.6094 6.7031-21.078 0-13.422-6.7031-21.078-6.6875-7.6406-18.406-7.6406-11.766 0-18.438 7.6406-6.6562 7.6562-6.6562 21.078 0 13.469 6.6562 21.078 6.6719 7.625 18.438 7.625z"/>
<path id="al" d="m9.0781 75.984h9.0312v-44.875l26.812 23.578h11.469l-29-25.578 30.234-29.109h-11.719l-27.797 26.703v-26.703h-9.0312z"/>
</defs>
<g transform="translate(127.34 1019.8) scale(.1 -.1)">
<use xlink:href="#r"/>
<use x="39.208984" xlink:href="#s"/>
<use x="100.390625" xlink:href="#s"/>
<use x="161.572266" xlink:href="#al"/>
</g>
</g>
<g clip-path="url(#a)">
<defs>
<path id="t" d="m54.891 33.016v-33.016h-8.9844v32.719q0 7.7656-3.0312 11.609-3.0312 3.8594-9.0781 3.8594-7.2812 0-11.484-4.6406-4.2031-4.625-4.2031-12.641v-30.906h-9.0312v75.984h9.0312v-29.797q3.2344 4.9375 7.5938 7.375 4.375 2.4375 10.094 2.4375 9.4219 0 14.25-5.8281 4.8438-5.8281 4.8438-17.156z"/>
</defs>
<g transform="translate(176.16 1019.8) scale(.1 -.1)">
<use xlink:href="#r"/>
<use x="39.208984" xlink:href="#t"/>
<use x="102.587891" xlink:href="#d"/>
</g>
</g>
<g clip-path="url(#a)">
<defs>
<path id="ag" d="m4.2031 54.688h8.9844l11.234-42.672 11.172 42.672h10.594l11.234-42.672 11.188 42.672h8.9844l-14.312-54.688h-10.594l-11.766 44.828-11.812-44.828h-10.609z"/>
<path id="u" d="m45.406 46.391v29.594h8.9844v-75.984h-8.9844v8.2031q-2.8281-4.875-7.1562-7.25-4.3125-2.375-10.375-2.375-9.9062 0-16.141 7.9062-6.2188 7.9219-6.2188 20.812t6.2188 20.797q6.2344 7.9062 16.141 7.9062 6.0625 0 10.375-2.375 4.3281-2.3594 7.1562-7.2344zm-30.609-19.094q0-9.9062 4.0781-15.547t11.203-5.6406 11.219 5.6406q4.1094 5.6406 4.1094 15.547t-4.1094 15.547q-4.0938 5.6406-11.219 5.6406t-11.203-5.6406-4.0781-15.547z"/>
</defs>
<g transform="translate(207.87 1019.8) scale(.1 -.1)">
<use xlink:href="#ag"/>
<use x="81.787109" xlink:href="#d"/>
<use x="143.310547" xlink:href="#d"/>
<use x="204.833984" xlink:href="#al"/>
<use x="262.697266" xlink:href="#d"/>
<use x="324.220703" xlink:href="#g"/>
<use x="387.599609" xlink:href="#u"/>
</g>
</g>
<g clip-path="url(#a)">
<defs>
<path id="ah" d="m37.109 75.984v-7.4844h-8.5938q-4.8281 0-6.7188-1.9531-1.875-1.9531-1.875-7.0312v-4.8281h14.797v-6.9844h-14.797v-47.703h-9.0312v47.703h-8.5938v6.9844h8.5938v3.8125q0 9.125 4.25 13.297 4.25 4.1875 13.469 4.1875z"/>
</defs>
<g transform="translate(269.9 1019.8) scale(.1 -.1)">
<use xlink:href="#s"/>
<use x="61.181641" xlink:href="#ah"/>
<use x="96.386719" xlink:href="#ah"/>
</g>
</g>
<g clip-path="url(#a)">
<g transform="translate(313.12 1019.8) scale(.1 -.1)">
<use xlink:href="#e"/>
<use x="61.279297" xlink:href="#g"/>
<use x="124.658203" xlink:href="#u"/>
</g>
</g>
<g clip-path="url(#a)">
<defs>
<path id="am" d="m48.781 52.594v-8.4062q-3.8125 2.1094-7.6406 3.1562t-7.7344 1.0469q-8.75 0-13.594-5.5469-4.8281-5.5312-4.8281-15.547t4.8281-15.562q4.8438-5.5312 13.594-5.5312 3.9062 0 7.7344 1.0469t7.6406 3.1562v-8.3125q-3.7656-1.75-7.7969-2.625-4.0156-0.89062-8.5625-0.89062-12.359 0-19.641 7.7656-7.2656 7.7656-7.2656 20.953 0 13.375 7.3438 21.031 7.3594 7.6719 20.156 7.6719 4.1406 0 8.0938-0.85938 3.9531-0.84375 7.6719-2.5469z"/>
</defs>
<g transform="translate(354.82 1019.8) scale(.1 -.1)">
<use xlink:href="#am"/>
<use x="54.980469" xlink:href="#e"/>
<use x="116.259766" xlink:href="#i"/>
<use x="213.671875" xlink:href="#d"/>
</g>
</g>
<g clip-path="url(#a)">
<g transform="translate(410.08 1019.8) scale(.1 -.1)">
<use xlink:href="#j"/>
<use x="27.783203" xlink:href="#g"/>
</g>
</g>
<g clip-path="url(#a)">
<g transform="translate(451.28 1019.8) scale(.1 -.1)">
<use xlink:href="#e"/>
<use x="61.279297" xlink:href="#g"/>
<use x="124.658203" xlink:href="#u"/>
</g>
</g>
<g clip-path="url(#a)">
<defs>
<path id="z" d="m44.281 53.078v-8.5q-3.7969 1.9531-7.9062 2.9219-4.0938 0.98438-8.5 0.98438-6.6875 0-10.031-2.0469t-3.3438-6.1562q0-3.125 2.3906-4.9062t9.625-3.3906l3.0781-0.6875q9.5625-2.0469 13.594-5.7812t4.0312-10.422q0-7.625-6.0312-12.078-6.0312-4.4375-16.578-4.4375-4.3906 0-9.1562 0.85938t-10.031 2.5625v9.2812q4.9844-2.5938 9.8125-3.8906 4.8281-1.2812 9.5781-1.2812 6.3438 0 9.75 2.1719 3.4219 2.1719 3.4219 6.125 0 3.6562-2.4688 5.6094-2.4531 1.9531-10.812 3.7656l-3.125 0.73438q-8.3438 1.75-12.062 5.3906-3.7031 3.6406-3.7031 9.9844 0 7.7188 5.4688 11.906 5.4688 4.2031 15.531 4.2031 4.9688 0 9.3594-0.73438 4.4062-0.71875 8.1094-2.1875z"/>
</defs>
<g transform="translate(491.93 1019.8) scale(.1 -.1)">
<use xlink:href="#e"/>
<use x="61.279297" xlink:href="#z"/>
<use x="113.378906" xlink:href="#al"/>
<use x="171.242188" xlink:href="#d"/>
<use x="232.765625" xlink:href="#u"/>
</g>
</g>
<g clip-path="url(#a)">
<g transform="translate(545.92 1019.8) scale(.1 -.1)">
<use xlink:href="#ah"/>
<use x="35.205078" xlink:href="#s"/>
<use x="96.386719" xlink:href="#h"/>
</g>
</g>
<g clip-path="url(#a)">
<g transform="translate(590.65 1019.8) scale(.1 -.1)">
<use xlink:href="#r"/>
<use x="39.208984" xlink:href="#t"/>
<use x="102.587891" xlink:href="#d"/>
</g>
</g>
<g clip-path="url(#a)">
<defs>
<path id="aq" d="m45.406 27.984q0 9.7656-4.0312 15.125-4.0156 5.375-11.297 5.375-7.2188 0-11.25-5.375-4.0312-5.3594-4.0312-15.125 0-9.7188 4.0312-15.094t11.25-5.375q7.2812 0 11.297 5.375 4.0312 5.375 4.0312 15.094zm8.9844-21.203q0-13.953-6.2031-20.766-6.1875-6.8125-18.984-6.8125-4.7344 0-8.9375 0.70312t-8.1562 2.1719v8.7344q3.9531-2.1406 7.8125-3.1562 3.8594-1.0312 7.8594-1.0312 8.8438 0 13.234 4.6094t4.3906 13.938v4.4531q-2.7812-4.8438-7.125-7.2344t-10.406-2.3906q-10.047 0-16.203 7.6562-6.1562 7.6719-6.1562 20.328 0 12.688 6.1562 20.344 6.1562 7.6719 16.203 7.6719 6.0625 0 10.406-2.3906t7.125-7.2188v8.2969h8.9844z"/>
</defs>
<g transform="translate(622.43 1019.8) scale(.1 -.1)">
<use xlink:href="#i"/>
<use x="97.412109" xlink:href="#e"/>
<use x="158.691406" xlink:href="#g"/>
<use x="222.070312" xlink:href="#e"/>
<use x="283.349609" xlink:href="#aq"/>
<use x="346.826172" xlink:href="#d"/>
<use x="408.349609" xlink:href="#h"/>
</g>
</g>
<g clip-path="url(#a)">
<g transform="translate(680.64 1019.8) scale(.1 -.1)">
<use xlink:href="#ag"/>
<use x="81.787109" xlink:href="#t"/>
<use x="145.166016" xlink:href="#s"/>
</g>
</g>
<g clip-path="url(#a)">
<g transform="translate(733.02 1019.8) scale(.1 -.1)">
<use xlink:href="#j"/>
<use x="27.783203" xlink:href="#z"/>
</g>
</g>
<g clip-path="url(#a)">
<defs>
<path id="au" d="m9.8125 72.906h9.8594v-67.828q0-13.188-5-19.141t-16.094-5.9531h-3.75v8.2969h3.0781q6.5312 0 9.2188 3.6719 2.6875 3.6562 2.6875 13.125z"/>
</defs>
<g transform="translate(774.99 1019.8) scale(.1 -.1)">
<use xlink:href="#au"/>
<use x="29.492188" xlink:href="#d"/>
<use x="91.015625" xlink:href="#ah"/>
<use x="126.220703" xlink:href="#ah"/>
</g>
</g>
<g clip-path="url(#a)">
<g transform="translate(819.71 1019.8) scale(.1 -.1)">
<use xlink:href="#e"/>
<use x="61.279297" xlink:href="#g"/>
<use x="124.658203" xlink:href="#u"/>
</g>
</g>
<g clip-path="url(#a)">
<g transform="translate(868.93 1019.8) scale(.1 -.1)">
<use xlink:href="#t"/>
<use x="63.378906" xlink:href="#d"/>
</g>
</g>
<g clip-path="url(#a)">
<defs>
<path id="an" d="m48.688 27.297q0 9.9062-4.0781 15.547t-11.203 5.6406q-7.1406 0-11.219-5.6406t-4.0781-15.547 4.0781-15.547 11.219-5.6406q7.125 0 11.203 5.6406t4.0781 15.547zm-30.578 19.094q2.8438 4.875 7.1562 7.2344 4.3281 2.375 10.328 2.375 9.9688 0 16.188-7.9062 6.2344-7.9062 6.2344-20.797t-6.2344-20.812q-6.2188-7.9062-16.188-7.9062-6 0-10.328 2.375-4.3125 2.375-7.1562 7.25v-8.2031h-9.0312v75.984h9.0312z"/>
</defs>
<g transform="translate(888.72 1019.8) scale(.1 -.1)">
<use xlink:href="#h"/>
<use x="41.082031" xlink:href="#d"/>
<use x="102.605469" xlink:href="#i"/>
<use x="200.017578" xlink:href="#d"/>
<use x="261.541016" xlink:href="#i"/>
<use x="358.953125" xlink:href="#an"/>
<use x="422.429688" xlink:href="#d"/>
<use x="483.953125" xlink:href="#h"/>
<use x="525.035156" xlink:href="#d"/>
<use x="586.558594" xlink:href="#u"/>
</g>
</g>
<g clip-path="url(#a)">
<g transform="translate(958.98 1019.8) scale(.1 -.1)">
<use xlink:href="#t"/>
<use x="63.378906" xlink:href="#d"/>
<use x="124.902344" xlink:href="#h"/>
</g>
</g>
<g clip-path="url(#a)">
<g transform="translate(1001.6 1019.8) scale(.1 -.1)">
<use xlink:href="#h"/>
<use x="41.113281" xlink:href="#j"/>
<use x="68.896484" xlink:href="#aq"/>
<use x="132.373047" xlink:href="#t"/>
<use x="195.751953" xlink:href="#r"/>
</g>
</g>
<g clip-path="url(#a)">
<defs>
<path id="as" d="m32.172-5.0781q-3.7969-9.7656-7.4219-12.734-3.6094-2.9844-9.6562-2.9844h-7.1875v7.5156h5.2812q3.7031 0 5.75 1.7656 2.0625 1.75 4.5469 8.2969l1.6094 4.0938-22.109 53.812h9.5156l17.094-42.766 17.094 42.766h9.5156z"/>
</defs>
<g transform="translate(1046.2 1019.8) scale(.1 -.1)">
<use xlink:href="#e"/>
<use x="61.279297" xlink:href="#ag"/>
<use x="143.066406" xlink:href="#e"/>
<use x="204.345703" xlink:href="#as"/>
</g>
</g>
<g clip-path="url(#a)">
<defs>
<path id="aw" d="m2.9844 54.688h9.5156l17.094-45.891 17.094 45.891h9.5156l-20.516-54.688h-12.203z"/>
</defs>
<g transform="translate(1093.2 1019.8) scale(.1 -.1)">
<use xlink:href="#d"/>
<use x="61.523438" xlink:href="#aw"/>
<use x="120.703125" xlink:href="#d"/>
<use x="182.226562" xlink:href="#g"/>
</g>
</g>
<g clip-path="url(#a)">
<g transform="translate(1119 1019.8) scale(.1 -.1)">
<use xlink:href="#h"/>
<use x="41.082031" xlink:href="#d"/>
<use x="102.605469" xlink:href="#i"/>
<use x="200.017578" xlink:href="#d"/>
<use x="261.541016" xlink:href="#i"/>
<use x="358.953125" xlink:href="#an"/>
<use x="422.429688" xlink:href="#d"/>
<use x="483.953125" xlink:href="#h"/>
<use x="525.035156" xlink:href="#d"/>
<use x="586.558594" xlink:href="#u"/>
</g>
</g>
<g clip-path="url(#a)">
<g transform="translate(1189.2 1019.8) scale(.1 -.1)">
<use xlink:href="#t"/>
<use x="63.378906" xlink:href="#d"/>
<use x="124.902344" xlink:href="#h"/>
</g>
</g>
<g clip-path="url(#a)">
<g transform="translate(1234.2 1019.8) scale(.1 -.1)">
<use xlink:href="#u"/>
<use x="63.476562" xlink:href="#s"/>
<use x="124.658203" xlink:href="#aq"/>
</g>
</g>
<g clip-path="url(#a)">
<defs>
<path id="av" d="m11.719 12.406h10.297v-8.4062l-8-15.625h-6.2969l4 15.625z"/>
</defs>
<g transform="translate(1288.1 1019.8) scale(.1 -.1)">
<use xlink:href="#av"/>
</g>
</g>
<g clip-path="url(#a)">
<g transform="translate(1334.2 1019.8) scale(.1 -.1)">
<use xlink:href="#aa"/>
</g>
</g>
<g clip-path="url(#a)">
<g transform="translate(1372 1019.8) scale(.1 -.1)">
<use xlink:href="#ag"/>
<use x="81.787109" xlink:href="#e"/>
<use x="143.066406" xlink:href="#z"/>
</g>
</g>
<g clip-path="url(#a)">
<g transform="translate(1424.8 1019.8) scale(.1 -.1)">
<use xlink:href="#e"/>
</g>
</g>
<g clip-path="url(#a)">
<g transform="translate(1467.3 1019.8) scale(.1 -.1)">
<use xlink:href="#an"/>
<use x="63.476562" xlink:href="#j"/>
<use x="91.259766" xlink:href="#r"/>
</g>
</g>
<g clip-path="url(#a)">
<g transform="translate(1499.2 1019.8) scale(.1 -.1)">
<use xlink:href="#z"/>
<use x="52.099609" xlink:href="#t"/>
<use x="115.478516" xlink:href="#s"/>
<use x="176.660156" xlink:href="#am"/>
<use x="231.640625" xlink:href="#al"/>
<use x="289.503906" xlink:href="#d"/>
<use x="351.027344" xlink:href="#u"/>
</g>
</g>
<g clip-path="url(#a)">
<g transform="translate(1555.8 1019.8) scale(.1 -.1)">
<use xlink:href="#r"/>
<use x="39.208984" xlink:href="#t"/>
<use x="102.587891" xlink:href="#e"/>
<use x="163.867188" xlink:href="#r"/>
</g>
</g>
<g clip-path="url(#a)">
<g transform="translate(1589.1 1019.8) scale(.1 -.1)">
<use xlink:href="#z"/>
<use x="52.099609" xlink:href="#s"/>
<use x="113.28125" xlink:href="#i"/>
<use x="210.693359" xlink:href="#d"/>
<use x="272.216797" xlink:href="#s"/>
<use x="333.398438" xlink:href="#g"/>
<use x="396.777344" xlink:href="#d"/>
</g>
</g>
<g clip-path="url(#a)">
<defs>
<path id="ax" d="m8.5 21.578v33.109h8.9844v-32.766q0-7.7656 3.0156-11.656 3.0312-3.875 9.0938-3.875 7.2656 0 11.484 4.6406 4.2344 4.6406 4.2344 12.656v31h8.9844v-54.688h-8.9844v8.4062q-3.2656-4.9844-7.5938-7.4062-4.3125-2.4219-10.031-2.4219-9.4219 0-14.312 5.8594-4.875 5.8594-4.875 17.141z"/>
</defs>
<g transform="translate(1643.2 1019.8) scale(.1 -.1)">
<use xlink:href="#ag"/>
<use x="81.787109" xlink:href="#s"/>
<use x="142.96875" xlink:href="#ax"/>
<use x="206.347656" xlink:href="#l"/>
<use x="234.130859" xlink:href="#u"/>
</g>
</g>
<g clip-path="url(#a)">
<defs>
<path id="ay" d="m18.109 8.2031v-29h-9.0312v75.484h9.0312v-8.2969q2.8438 4.875 7.1562 7.2344 4.3281 2.375 10.328 2.375 9.9688 0 16.188-7.9062 6.2344-7.9062 6.2344-20.797t-6.2344-20.812q-6.2188-7.9062-16.188-7.9062-6 0-10.328 2.375-4.3125 2.375-7.1562 7.25zm30.578 19.094q0 9.9062-4.0781 15.547t-11.203 5.6406q-7.1406 0-11.219-5.6406t-4.0781-15.547 4.0781-15.547 11.219-5.6406q7.125 0 11.203 5.6406t4.0781 15.547z"/>
</defs>
<g transform="translate(1694.9 1019.8) scale(.1 -.1)">
<use xlink:href="#ay"/>
<use x="63.476562" xlink:href="#e"/>
<use x="124.755859" xlink:href="#as"/>
</g>
</g>
<g clip-path="url(#a)">
<g transform="translate(1740 1019.8) scale(.1 -.1)">
<use xlink:href="#r"/>
<use x="39.208984" xlink:href="#t"/>
<use x="102.587891" xlink:href="#e"/>
<use x="163.867188" xlink:href="#r"/>
</g>
</g>
<g clip-path="url(#a)">
<g transform="translate(1783.4 1019.8) scale(.1 -.1)">
<use xlink:href="#am"/>
<use x="54.980469" xlink:href="#l"/>
<use x="82.763672" xlink:href="#s"/>
<use x="143.945312" xlink:href="#z"/>
<use x="196.044922" xlink:href="#d"/>
</g>
</g>
<g clip-path="url(#a)">
<g transform="translate(1819.5 1019.8) scale(.1 -.1)">
<use xlink:href="#e"/>
<use x="61.279297" xlink:href="#r"/>
<use x="100.488281" xlink:href="#r"/>
<use x="139.697266" xlink:href="#d"/>
<use x="201.220703" xlink:href="#g"/>
<use x="264.599609" xlink:href="#r"/>
<use x="303.808594" xlink:href="#j"/>
<use x="331.591797" xlink:href="#s"/>
<use x="392.773438" xlink:href="#g"/>
</g>
</g>
<g clip-path="url(#a)">
<defs>
<path id="f" d="m10.688 12.406h10.312v-12.406h-10.312z"/>
</defs>
<g transform="translate(1886.8 1019.8) scale(.1 -.1)">
<use xlink:href="#f"/>
</g>
</g>
<g clip-path="url(#a)">
<defs>
<path id="c" d="m12.406 8.2969h16.109v55.625l-17.531-3.5156v8.9844l17.438 3.5156h9.8594v-64.609h16.109v-8.2969h-41.984z"/>
</defs>
<g transform="translate(772.5 52.352) scale(.1 -.1)">
<use xlink:href="#c"/>
<use x="63.623047" xlink:href="#f"/>
<use x="95.410156" xlink:href="#c"/>
</g>
</g>
<g clip-path="url(#a)">
<defs>
<path id="p" d="m19.188 8.2969h34.422v-8.2969h-46.281v8.2969q5.6094 5.8125 15.297 15.594 9.7031 9.7969 12.188 12.641 4.7344 5.3125 6.6094 9 1.8906 3.6875 1.8906 7.25 0 5.8125-4.0781 9.4688-4.0781 3.6719-10.625 3.6719-4.6406 0-9.7969-1.6094-5.1406-1.6094-11-4.8906v9.9688q5.9531 2.3906 11.125 3.6094 5.1875 1.2188 9.4844 1.2188 11.328 0 18.062-5.6719 6.7344-5.6562 6.7344-15.125 0-4.5-1.6875-8.5312-1.6719-4.0156-6.125-9.4844-1.2188-1.4219-7.7656-8.1875-6.5312-6.7656-18.453-18.922z"/>
</defs>
<g transform="translate(161.07 448.57) scale(.1 -.1)">
<use xlink:href="#c"/>
<use x="63.623047" xlink:href="#f"/>
<use x="95.410156" xlink:href="#p"/>
</g>
</g>
<g clip-path="url(#a)">
<defs>
<path id="n" d="m40.578 39.312q7.0781-1.5156 11.047-6.3125 3.9844-4.7812 3.9844-11.812 0-10.781-7.4219-16.703-7.4219-5.9062-21.094-5.9062-4.5781 0-9.4375 0.90625t-10.031 2.7188v9.5156q4.0938-2.3906 8.9688-3.6094 4.8906-1.2188 10.219-1.2188 9.2656 0 14.125 3.6562t4.8594 10.641q0 6.4531-4.5156 10.078-4.5156 3.6406-12.562 3.6406h-8.5v8.1094h8.8906q7.2656 0 11.125 2.9062t3.8594 8.375q0 5.6094-3.9844 8.6094-3.9688 3.0156-11.391 3.0156-4.0625 0-8.7031-0.89062-4.6406-0.875-10.203-2.7188v8.7812q5.625 1.5625 10.531 2.3438t9.25 0.78125q11.234 0 17.766-5.1094 6.5469-5.0938 6.5469-13.781 0-6.0625-3.4688-10.234t-9.8594-5.7812z"/>
</defs>
<g transform="translate(314.58 830.29) scale(.1 -.1)">
<use xlink:href="#c"/>
<use x="63.623047" xlink:href="#f"/>
<use x="95.410156" xlink:href="#n"/>
</g>
</g>
<g clip-path="url(#a)">
<defs>
<path id="o" d="m37.797 64.312-24.906-38.922h24.906zm-2.5938 8.5938h12.406v-47.516h10.406v-8.2031h-10.406v-17.188h-9.8125v17.188h-32.906v9.5156z"/>
</defs>
<g transform="translate(798.14 448.57) scale(.1 -.1)">
<use xlink:href="#c"/>
<use x="63.623047" xlink:href="#f"/>
<use x="95.410156" xlink:href="#o"/>
</g>
</g>
<g clip-path="url(#a)">
<defs>
<path id="q" d="m10.797 72.906h38.719v-8.3125h-29.688v-17.859q2.1406 0.73438 4.2812 1.0938 2.1562 0.35938 4.3125 0.35938 12.203 0 19.328-6.6875 7.1406-6.6875 7.1406-18.109 0-11.766-7.3281-18.297-7.3281-6.5156-20.656-6.5156-4.5938 0-9.3594 0.78125-4.75 0.78125-9.8281 2.3438v9.9219q4.3906-2.3906 9.0781-3.5625t9.9062-1.1719q8.4531 0 13.375 4.4375 4.9375 4.4375 4.9375 12.062 0 7.6094-4.9375 12.047-4.9219 4.4531-13.375 4.4531-3.9531 0-7.8906-0.875-3.9219-0.875-8.0156-2.7344z"/>
</defs>
<g transform="translate(452.74 830.29) scale(.1 -.1)">
<use xlink:href="#c"/>
<use x="63.623047" xlink:href="#f"/>
<use x="95.410156" xlink:href="#q"/>
</g>
</g>
<g clip-path="url(#a)">
<defs>
<path id="y" d="m33.016 40.375q-6.6406 0-10.531-4.5469-3.875-4.5312-3.875-12.438 0-7.8594 3.875-12.438 3.8906-4.5625 10.531-4.5625t10.516 4.5625q3.875 4.5781 3.875 12.438 0 7.9062-3.875 12.438-3.875 4.5469-10.516 4.5469zm19.578 30.922v-8.9844q-3.7188 1.75-7.5 2.6719-3.7812 0.9375-7.5 0.9375-9.7656 0-14.922-6.5938-5.1406-6.5938-5.875-19.922 2.875 4.25 7.2188 6.5156 4.3594 2.2656 9.5781 2.2656 10.984 0 17.359-6.6719 6.375-6.6562 6.375-18.125 0-11.234-6.6406-18.031-6.6406-6.7812-17.672-6.7812-12.656 0-19.344 9.6875-6.6875 9.7031-6.6875 28.109 0 17.281 8.2031 27.562t22.016 10.281q3.7188 0 7.5-0.73438t7.8906-2.1875z"/>
</defs>
<g transform="translate(400.93 252.69) scale(.1 -.1)">
<use xlink:href="#c"/>
<use x="63.623047" xlink:href="#f"/>
<use x="95.410156" xlink:href="#y"/>
</g>
</g>
<g clip-path="url(#a)">
<defs>
<path id="ae" d="m8.2031 72.906h46.875v-4.2031l-26.469-68.703h-10.297l24.906 64.594h-35.016z"/>
</defs>
<g transform="translate(821.17 830.29) scale(.1 -.1)">
<use xlink:href="#c"/>
<use x="63.623047" xlink:href="#f"/>
<use x="95.410156" xlink:href="#ae"/>
</g>
</g>
<g clip-path="url(#a)">
<defs>
<path id="ad" d="m31.781 34.625q-7.0312 0-11.062-3.7656-4.0156-3.7656-4.0156-10.344 0-6.5938 4.0156-10.359 4.0312-3.7656 11.062-3.7656t11.078 3.7812q4.0625 3.7969 4.0625 10.344 0 6.5781-4.0312 10.344-4.0156 3.7656-11.109 3.7656zm-9.8594 4.1875q-6.3438 1.5625-9.8906 5.9062-3.5312 4.3594-3.5312 10.609 0 8.7344 6.2188 13.812 6.2344 5.0781 17.062 5.0781 10.891 0 17.094-5.0781t6.2031-13.812q0-6.25-3.5469-10.609-3.5312-4.3438-9.8281-5.9062 7.125-1.6562 11.094-6.5 3.9844-4.8281 3.9844-11.797 0-10.609-6.4688-16.281-6.4688-5.6562-18.531-5.6562-12.047 0-18.531 5.6562-6.4688 5.6719-6.4688 16.281 0 6.9688 4 11.797 4.0156 4.8438 11.141 6.5zm-3.6094 15.578q0-5.6562 3.5312-8.8281 3.5469-3.1719 9.9375-3.1719 6.3594 0 9.9375 3.1719 3.5938 3.1719 3.5938 8.8281 0 5.6719-3.5938 8.8438-3.5781 3.1719-9.9375 3.1719-6.3906 0-9.9375-3.1719-3.5312-3.1719-3.5312-8.8438z"/>
</defs>
<g transform="translate(942.06 640.75) scale(.1 -.1)">
<use xlink:href="#c"/>
<use x="63.623047" xlink:href="#f"/>
<use x="95.410156" xlink:href="#ad"/>
</g>
</g>
<g clip-path="url(#a)">
<defs>
<path id="ac" d="m10.984 1.5156v8.9844q3.7188-1.7656 7.5156-2.6875 3.8125-0.92188 7.4844-0.92188 9.7656 0 14.906 6.5625 5.1562 6.5625 5.8906 19.953-2.8281-4.2031-7.1875-6.4531-4.3438-2.25-9.6094-2.25-10.938 0-17.312 6.6094-6.375 6.625-6.375 18.109 0 11.219 6.6406 18 6.6406 6.7969 17.672 6.7969 12.656 0 19.312-9.7031 6.6719-9.6875 6.6719-28.141 0-17.234-8.1875-27.516-8.1719-10.281-21.984-10.281-3.7188 0-7.5312 0.73438-3.7969 0.73438-7.9062 2.2031zm19.625 30.906q6.6406 0 10.516 4.5312 3.8906 4.5469 3.8906 12.469 0 7.8594-3.8906 12.422-3.875 4.5625-10.516 4.5625t-10.516-4.5625-3.875-12.422q0-7.9219 3.875-12.469 3.875-4.5312 10.516-4.5312z"/>
</defs>
<g transform="translate(1083.1 252.69) scale(.1 -.1)">
<use xlink:href="#c"/>
<use x="63.623047" xlink:href="#f"/>
<use x="95.410156" xlink:href="#ac"/>
</g>
</g>
<g clip-path="url(#a)">
<defs>
<path id="af" d="m31.781 66.406q-7.6094 0-11.453-7.5-3.8281-7.4844-3.8281-22.531 0-14.984 3.8281-22.484 3.8438-7.5 11.453-7.5 7.6719 0 11.5 7.5 3.8438 7.5 3.8438 22.484 0 15.047-3.8438 22.531-3.8281 7.5-11.5 7.5zm0 7.8125q12.266 0 18.734-9.7031 6.4688-9.6875 6.4688-28.141 0-18.406-6.4688-28.109-6.4688-9.6875-18.734-9.6875-12.25 0-18.719 9.6875-6.4688 9.7031-6.4688 28.109 0 18.453 6.4688 28.141 6.4688 9.7031 18.719 9.7031z"/>
</defs>
<g transform="translate(1466.3 252.69) scale(.1 -.1)">
<use xlink:href="#c"/>
<use x="63.623047" xlink:href="#f"/>
<use x="95.410156" xlink:href="#c"/>
<use x="159.033203" xlink:href="#af"/>
</g>
</g>
<g clip-path="url(#a)">
<g transform="translate(1324.6 830.29) scale(.1 -.1)">
<use xlink:href="#c"/>
<use x="63.623047" xlink:href="#f"/>
<use x="95.410156" xlink:href="#c"/>
<use x="159.033203" xlink:href="#n"/>
</g>
</g>
<g clip-path="url(#a)">
<g transform="translate(1370.6 830.29) scale(.1 -.1)">
<use xlink:href="#c"/>
<use x="63.623047" xlink:href="#f"/>
<use x="95.410156" xlink:href="#c"/>
<use x="159.033203" xlink:href="#o"/>
</g>
</g>
<g clip-path="url(#a)">
<g transform="translate(1439.7 640.75) scale(.1 -.1)">
<use xlink:href="#c"/>
<use x="63.623047" xlink:href="#f"/>
<use x="95.410156" xlink:href="#c"/>
<use x="159.033203" xlink:href="#q"/>
</g>
</g>
<g clip-path="url(#a)">
<g transform="translate(1508.8 830.29) scale(.1 -.1)">
<use xlink:href="#c"/>
<use x="63.623047" xlink:href="#f"/>
<use x="95.410156" xlink:href="#c"/>
<use x="159.033203" xlink:href="#y"/>
</g>
</g>
<g clip-path="url(#a)">
<g transform="translate(1687.9 448.57) scale(.1 -.1)">
<use xlink:href="#c"/>
<use x="63.623047" xlink:href="#f"/>
<use x="95.410156" xlink:href="#c"/>
<use x="159.033203" xlink:href="#ae"/>
</g>
</g>
<g clip-path="url(#a)">
<g transform="translate(1554.8 830.29) scale(.1 -.1)">
<use xlink:href="#c"/>
<use x="63.623047" xlink:href="#f"/>
<use x="95.410156" xlink:href="#c"/>
<use x="159.033203" xlink:href="#ad"/>
</g>
</g>
<g clip-path="url(#a)">
<g transform="translate(1600.9 830.29) scale(.1 -.1)">
<use xlink:href="#c"/>
<use x="63.623047" xlink:href="#f"/>
<use x="95.410156" xlink:href="#c"/>
<use x="159.033203" xlink:href="#ac"/>
</g>
</g>
<g clip-path="url(#a)">
<g transform="translate(1646.9 830.29) scale(.1 -.1)">
<use xlink:href="#c"/>
<use x="63.623047" xlink:href="#f"/>
<use x="95.410156" xlink:href="#p"/>
<use x="159.033203" xlink:href="#af"/>
</g>
</g>
<g clip-path="url(#a)">
<g transform="translate(1800.5 640.75) scale(.1 -.1)">
<use xlink:href="#c"/>
<use x="63.623047" xlink:href="#f"/>
<use x="95.410156" xlink:href="#p"/>
<use x="159.033203" xlink:href="#c"/>
</g>
</g>
<g clip-path="url(#a)">
<g transform="translate(1739.1 830.29) scale(.1 -.1)">
<use xlink:href="#c"/>
<use x="63.623047" xlink:href="#f"/>
<use x="95.410156" xlink:href="#p"/>
<use x="159.033203" xlink:href="#p"/>
</g>
</g>
<g clip-path="url(#a)">
<g transform="translate(1785.1 830.29) scale(.1 -.1)">
<use xlink:href="#c"/>
<use x="63.623047" xlink:href="#f"/>
<use x="95.410156" xlink:href="#p"/>
<use x="159.033203" xlink:href="#n"/>
</g>
</g>
<g clip-path="url(#a)">
<g transform="translate(1693 830.29) scale(.1 -.1)">
<use xlink:href="#c"/>
<use x="63.623047" xlink:href="#f"/>
<use x="95.410156" xlink:href="#p"/>
<use x="159.033203" xlink:href="#o"/>
</g>
</g>
<g clip-path="url(#a)">
<g transform="translate(1831.2 830.29) scale(.1 -.1)">
<use xlink:href="#c"/>
<use x="63.623047" xlink:href="#f"/>
<use x="95.410156" xlink:href="#p"/>
<use x="159.033203" xlink:href="#q"/>
</g>
</g>
<g clip-path="url(#a)">
<g transform="translate(1416.7 830.29) scale(.1 -.1)">
<use xlink:href="#c"/>
<use x="63.623047" xlink:href="#f"/>
<use x="95.410156" xlink:href="#p"/>
<use x="159.033203" xlink:href="#y"/>
</g>
</g>
<g clip-path="url(#a)">
<g transform="translate(1462.7 830.29) scale(.1 -.1)">
<use xlink:href="#c"/>
<use x="63.623047" xlink:href="#f"/>
<use x="95.410156" xlink:href="#p"/>
<use x="159.033203" xlink:href="#ae"/>
</g>
</g>
<g clip-path="url(#a)">
<g transform="translate(1094.3 830.29) scale(.1 -.1)">
<use xlink:href="#c"/>
<use x="63.623047" xlink:href="#f"/>
<use x="95.410156" xlink:href="#p"/>
<use x="159.033203" xlink:href="#ad"/>
</g>
</g>
<g clip-path="url(#a)">
<g transform="translate(1140.4 830.29) scale(.1 -.1)">
<use xlink:href="#c"/>
<use x="63.623047" xlink:href="#f"/>
<use x="95.410156" xlink:href="#p"/>
<use x="159.033203" xlink:href="#ac"/>
</g>
</g>
<g clip-path="url(#a)">
<g transform="translate(1221 448.57) scale(.1 -.1)">
<use xlink:href="#c"/>
<use x="63.623047" xlink:href="#f"/>
<use x="95.410156" xlink:href="#n"/>
<use x="159.033203" xlink:href="#af"/>
</g>
</g>
<g clip-path="url(#a)">
<g transform="translate(1209.4 640.75) scale(.1 -.1)">
<use xlink:href="#c"/>
<use x="63.623047" xlink:href="#f"/>
<use x="95.410156" xlink:href="#n"/>
<use x="159.033203" xlink:href="#c"/>
</g>
</g>
<g clip-path="url(#a)">
<g transform="translate(1232.5 830.29) scale(.1 -.1)">
<use xlink:href="#c"/>
<use x="63.623047" xlink:href="#f"/>
<use x="95.410156" xlink:href="#n"/>
<use x="159.033203" xlink:href="#p"/>
</g>
</g>
<g clip-path="url(#a)">
<g transform="translate(1186.4 830.29) scale(.1 -.1)">
<use xlink:href="#c"/>
<use x="63.623047" xlink:href="#f"/>
<use x="95.410156" xlink:href="#n"/>
<use x="159.033203" xlink:href="#n"/>
</g>
</g>
<g clip-path="url(#a)">
<g transform="translate(864.04 830.29) scale(.1 -.1)">
<use xlink:href="#c"/>
<use x="63.623047" xlink:href="#f"/>
<use x="95.410156" xlink:href="#n"/>
<use x="159.033203" xlink:href="#o"/>
</g>
</g>
<g clip-path="url(#a)">
<g transform="translate(910.09 830.29) scale(.1 -.1)">
<use xlink:href="#c"/>
<use x="63.623047" xlink:href="#f"/>
<use x="95.410156" xlink:href="#n"/>
<use x="159.033203" xlink:href="#q"/>
</g>
</g>
<g clip-path="url(#a)">
<g transform="translate(956.15 830.29) scale(.1 -.1)">
<use xlink:href="#c"/>
<use x="63.623047" xlink:href="#f"/>
<use x="95.410156" xlink:href="#n"/>
<use x="159.033203" xlink:href="#y"/>
</g>
</g>
<g clip-path="url(#a)">
<g transform="translate(1025.2 830.29) scale(.1 -.1)">
<use xlink:href="#c"/>
<use x="63.623047" xlink:href="#f"/>
<use x="95.410156" xlink:href="#n"/>
<use x="159.033203" xlink:href="#ae"/>
</g>
</g>
<g clip-path="url(#a)">
<g transform="translate(495.61 830.29) scale(.1 -.1)">
<use xlink:href="#c"/>
<use x="63.623047" xlink:href="#f"/>
<use x="95.410156" xlink:href="#n"/>
<use x="159.033203" xlink:href="#ad"/>
</g>
</g>
<g clip-path="url(#a)">
<g transform="translate(616.5 448.57) scale(.1 -.1)">
<use xlink:href="#c"/>
<use x="63.623047" xlink:href="#f"/>
<use x="95.410156" xlink:href="#n"/>
<use x="159.033203" xlink:href="#ac"/>
</g>
</g>
<g clip-path="url(#a)">
<g transform="translate(541.67 830.29) scale(.1 -.1)">
<use xlink:href="#c"/>
<use x="63.623047" xlink:href="#f"/>
<use x="95.410156" xlink:href="#o"/>
<use x="159.033203" xlink:href="#af"/>
</g>
</g>
<g clip-path="url(#a)">
<g transform="translate(587.72 830.29) scale(.1 -.1)">
<use xlink:href="#c"/>
<use x="63.623047" xlink:href="#f"/>
<use x="95.410156" xlink:href="#o"/>
<use x="159.033203" xlink:href="#c"/>
</g>
</g>
<g clip-path="url(#a)">
<g transform="translate(633.77 830.29) scale(.1 -.1)">
<use xlink:href="#c"/>
<use x="63.623047" xlink:href="#f"/>
<use x="95.410156" xlink:href="#o"/>
<use x="159.033203" xlink:href="#p"/>
</g>
</g>
<g clip-path="url(#a)">
<g transform="translate(702.85 640.75) scale(.1 -.1)">
<use xlink:href="#c"/>
<use x="63.623047" xlink:href="#f"/>
<use x="95.410156" xlink:href="#o"/>
<use x="159.033203" xlink:href="#n"/>
</g>
</g>
<g clip-path="url(#a)">
<g transform="translate(679.83 830.29) scale(.1 -.1)">
<use xlink:href="#c"/>
<use x="63.623047" xlink:href="#f"/>
<use x="95.410156" xlink:href="#o"/>
<use x="159.033203" xlink:href="#o"/>
</g>
</g>
<g clip-path="url(#a)">
<g transform="translate(725.88 830.29) scale(.1 -.1)">
<use xlink:href="#c"/>
<use x="63.623047" xlink:href="#f"/>
<use x="95.410156" xlink:href="#o"/>
<use x="159.033203" xlink:href="#q"/>
</g>
</g>
<g clip-path="url(#a)">
<g transform="translate(771.93 830.29) scale(.1 -.1)">
<use xlink:href="#c"/>
<use x="63.623047" xlink:href="#f"/>
<use x="95.410156" xlink:href="#o"/>
<use x="159.033203" xlink:href="#y"/>
</g>
</g>
<g clip-path="url(#a)">
<defs>
<path id="at" d="m9.8125 72.906h14.703l18.594-49.609 18.703 49.609h14.703v-72.906h-9.625v64.016l-18.797-50h-9.9062l-18.797 50v-64.016h-9.5781z"/>
</defs>
<g transform="translate(1913.3 1019.8) scale(.1 -.1)">
<use xlink:href="#aa"/>
<use x="29.492188" xlink:href="#at"/>
<use x="115.771484" xlink:href="#v"/>
<use x="176.074219" xlink:href="#ai"/>
<use x="231.787109" xlink:href="#aa"/>
<use x="261.279297" xlink:href="#w"/>
<use x="331.103516" xlink:href="#aa"/>
<use x="360.595703" xlink:href="#k"/>
</g>
</g>
<g clip-path="url(#a)">
<g transform="translate(380.48 640.75) scale(.1 -.1)">
<use xlink:href="#c"/>
<use x="63.623047" xlink:href="#f"/>
<use x="95.410156" xlink:href="#o"/>
<use x="159.033203" xlink:href="#ad"/>
</g>
</g>
<g clip-path="url(#a)">
<g transform="translate(357.45 830.29) scale(.1 -.1)">
<use xlink:href="#c"/>
<use x="63.623047" xlink:href="#f"/>
<use x="95.410156" xlink:href="#o"/>
<use x="159.033203" xlink:href="#ac"/>
</g>
</g>
<g clip-path="url(#a)">
<g transform="translate(403.5 830.29) scale(.1 -.1)">
<use xlink:href="#c"/>
<use x="63.623047" xlink:href="#f"/>
<use x="95.410156" xlink:href="#q"/>
<use x="159.033203" xlink:href="#af"/>
</g>
</g>
<g clip-path="url(#a)">
<g transform="translate(81.13 830.29) scale(.1 -.1)">
<use xlink:href="#c"/>
<use x="63.623047" xlink:href="#f"/>
<use x="95.410156" xlink:href="#q"/>
<use x="159.033203" xlink:href="#c"/>
</g>
</g>
<g clip-path="url(#a)">
<g transform="translate(196.26 830.29) scale(.1 -.1)">
<use xlink:href="#c"/>
<use x="63.623047" xlink:href="#f"/>
<use x="95.410156" xlink:href="#q"/>
<use x="159.033203" xlink:href="#p"/>
</g>
</g>
<g clip-path="url(#a)">
<g transform="translate(196.26 640.75) scale(.1 -.1)">
<use xlink:href="#c"/>
<use x="63.623047" xlink:href="#f"/>
<use x="95.410156" xlink:href="#q"/>
<use x="159.033203" xlink:href="#n"/>
</g>
</g>
<g clip-path="url(#a)">
<g transform="translate(173.24 830.29) scale(.1 -.1)">
<use xlink:href="#c"/>
<use x="63.623047" xlink:href="#f"/>
<use x="95.410156" xlink:href="#q"/>
<use x="159.033203" xlink:href="#o"/>
</g>
</g>
<g clip-path="url(#a)">
<g transform="translate(219.29 830.29) scale(.1 -.1)">
<use xlink:href="#c"/>
<use x="63.623047" xlink:href="#f"/>
<use x="95.410156" xlink:href="#q"/>
<use x="159.033203" xlink:href="#q"/>
</g>
</g>
<g clip-path="url(#a)">
<g transform="translate(1278.5 830.29) scale(.1 -.1)">
<use xlink:href="#c"/>
<use x="63.623047" xlink:href="#f"/>
<use x="95.410156" xlink:href="#q"/>
<use x="159.033203" xlink:href="#y"/>
</g>
</g>
<g clip-path="url(#a)">
<g transform="translate(1877.2 830.29) scale(.1 -.1)">
<use xlink:href="#c"/>
<use x="63.623047" xlink:href="#f"/>
<use x="95.410156" xlink:href="#q"/>
<use x="159.033203" xlink:href="#ae"/>
</g>
</g>
<defs>
<clipPath id="a">
<rect width="2026.7" height="1066.7"/>
</clipPath>
</defs>
</svg>
