<?xml version="1.0" encoding="UTF-8"?>
<!DOCTYPE svg  PUBLIC '-//W3C//DTD SVG 1.1//EN'  'http://www.w3.org/Graphics/SVG/1.1/DTD/svg11.dtd'>
<svg width="1064pt" height="560pt" version="1.1" viewBox="0 0 1064 560" xmlns="http://www.w3.org/2000/svg" xmlns:xlink="http://www.w3.org/1999/xlink">
<defs>
<style type="text/css">*{stroke-linecap:butt;stroke-linejoin:round;}</style>
</defs>
<path d="m0 560h1064v-560h-1064z" fill="#fff"/>
<g fill="none" stroke="#000">
<path d="m170.33 25.455-85.425 85.621" clip-path="url(#a)"/>
<path d="m170.33 25.455 201.68 85.621" clip-path="url(#a)"/>
<path d="m170.33 25.455-121.97 425.75" clip-path="url(#a)"/>
<path d="m170.33 25.455 5.7134 425.75" clip-path="url(#a)"/>
<path d="m84.905 111.08v85.449" clip-path="url(#a)"/>
<path d="m372.01 111.08-161.14 340.13" clip-path="url(#a)"/>
<path d="m372.01 111.08-79.892 340.13" clip-path="url(#a)"/>
<path d="m372.01 111.08-33.463 340.13" clip-path="url(#a)"/>
<path d="m372.01 111.08 16.835 340.13" clip-path="url(#a)"/>
<path d="m372.01 111.08 71.002 340.13" clip-path="url(#a)"/>
<path d="m372.01 111.08 309.11 85.449" clip-path="url(#a)"/>
<path d="m372.01 111.08-122.45 340.13" clip-path="url(#a)"/>
<path d="m210.87 451.2v83.342" clip-path="url(#a)"/>
<path d="m292.12 451.2v83.342" clip-path="url(#a)"/>
<path d="m338.55 451.2v83.342" clip-path="url(#a)"/>
<path d="m388.84 451.2v83.342" clip-path="url(#a)"/>
<path d="m443.01 451.2v83.342" clip-path="url(#a)"/>
<path d="m681.12 196.52-149.12 170.18" clip-path="url(#a)"/>
<path d="m681.12 196.52-52.394 254.68" clip-path="url(#a)"/>
<path d="m681.12 196.52 201.52 85.233" clip-path="url(#a)"/>
<path d="m532 366.7-30.953 84.501" clip-path="url(#a)"/>
<path d="m532 366.7 30.953 84.501" clip-path="url(#a)"/>
<path d="m628.73 451.2v83.342" clip-path="url(#a)"/>
<path d="m882.64 281.76-147.51 84.944" clip-path="url(#a)"/>
<path d="m882.64 281.76-33.371 169.45" clip-path="url(#a)"/>
<path d="m882.64 281.76 47.88 169.45" clip-path="url(#a)"/>
<path d="m882.64 281.76 133 169.45" clip-path="url(#a)"/>
<path d="m735.13 366.7-36.756 84.501" clip-path="url(#a)"/>
<path d="m735.13 366.7 36.756 84.501" clip-path="url(#a)"/>
<path d="m849.27 451.2v83.342" clip-path="url(#a)"/>
<path d="m930.52 451.2v83.342" clip-path="url(#a)"/>
<path d="m698.37 451.2v83.342" clip-path="url(#a)"/>
<path d="m771.88 451.2v83.342" clip-path="url(#a)"/>
<path d="m501.05 451.2v83.342" clip-path="url(#a)"/>
<path d="m562.95 451.2v83.342" clip-path="url(#a)"/>
<path d="m84.905 196.52-24.934 254.68" clip-path="url(#a)"/>
<path d="m84.905 196.52-9.4578 254.68" clip-path="url(#a)"/>
<path d="m84.905 196.52 34.392 85.233" clip-path="url(#a)"/>
<path d="m59.971 451.2v83.342" clip-path="url(#a)"/>
<path d="m75.447 451.2v83.342" clip-path="url(#a)"/>
<path d="m119.3 281.76-24.504 169.45" clip-path="url(#a)"/>
<path d="m119.3 281.76-1.2897 169.45" clip-path="url(#a)"/>
<path d="m119.3 281.76 25.794 84.944" clip-path="url(#a)"/>
<path d="m94.793 451.2v83.342" clip-path="url(#a)"/>
<path d="m118.01 451.2v83.342" clip-path="url(#a)"/>
<path d="m145.09 366.7v84.501" clip-path="url(#a)"/>
<path d="m145.09 451.2v83.342" clip-path="url(#a)"/>
<path d="m48.364 451.2v83.342" clip-path="url(#a)"/>
<path d="m176.04 451.2v83.342" clip-path="url(#a)"/>
<path d="m249.56 451.2v83.342" clip-path="url(#a)"/>
<path d="m1015.6 451.2v83.342" clip-path="url(#a)"/>
</g>
<path d="m129.93 74.824 4.2492-4.259q1.6951-1.699-0.003891-3.3941l-5.481-5.4685q-1.699-1.6951-3.3941 0.003891l-4.2493 4.259q-1.6951 1.699 0.003892 3.3941l5.481 5.4685q1.699 1.6951 3.3941-0.003892z" clip-path="url(#a)" fill="#fff" stroke="#fff"/>
<g clip-path="url(#a)">
<defs>
<path id="ai" d="m9.8125 72.906h9.8594v-29.891h35.844v29.891h9.8594v-72.906h-9.8594v34.719h-35.844v-34.719h-9.8594z"/>
</defs>
<g transform="translate(127.06 71.954) rotate(-45.066) scale(.08 -.08)">
<use xlink:href="#ai"/>
</g>
</g>
<path d="m265.95 72.862 5.5378 2.3511q2.2092 0.93788 3.147-1.2713l3.0257-7.1268q0.93788-2.2092-1.2713-3.147l-5.5378-2.3511q-2.2092-0.93788-3.147 1.2713l-3.0257 7.1268q-0.93788 2.2092 1.2713 3.147z" clip-path="url(#a)" fill="#fff" stroke="#fff"/>
<g clip-path="url(#a)">
<g transform="translate(267.54 69.122) rotate(23.003) scale(.08 -.08)">
<use xlink:href="#ai"/>
</g>
</g>
<path d="m114.57 242.87 1.6125-5.6286q0.66095-2.3072-1.6462-2.9681l-7.4431-2.1323q-2.3072-0.66095-2.9681 1.6462l-1.6125 5.6286q-0.66095 2.3072 1.6462 2.9681l7.4431 2.1323q2.3072 0.66095 2.9681-1.6462z" clip-path="url(#a)" fill="#fff" stroke="#fff"/>
<g clip-path="url(#a)">
<defs>
<path id="t" d="m8.6875 72.906h9.9219v-44.297q0-11.719 4.2344-16.875 4.25-5.1406 13.781-5.1406 9.4688 0 13.719 5.1406 4.25 5.1562 4.25 16.875v44.297h9.9062v-45.516q0-14.25-7.0625-21.531-7.0469-7.2812-20.812-7.2812-13.828 0-20.891 7.2812-7.0469 7.2812-7.0469 21.531z"/>
</defs>
<g transform="translate(110.66 241.75) rotate(-74.014) scale(.08 -.08)">
<use xlink:href="#t"/>
</g>
</g>
<path d="m166.88 235.49 0.078565 5.8545q0.032205 2.3998 2.432 2.3676l7.7418-0.10389q2.3998-0.032204 2.3676-2.432l-0.078565-5.8545q-0.032205-2.3998-2.432-2.3676l-7.7418 0.10389q-2.3998 0.032204-2.3676 2.432z" clip-path="url(#a)" fill="#fff" stroke="#fff"/>
<g clip-path="url(#a)">
<g transform="translate(170.94 235.43) rotate(89.231) scale(.08 -.08)">
<use xlink:href="#t"/>
</g>
</g>
<path d="m78.634 151.06v5.4725q0 2.4 2.4 2.4h7.7425q2.4 0 2.4-2.4v-5.4725q0-2.4-2.4-2.4h-7.7425q-2.4 0-2.4 2.4z" clip-path="url(#a)" fill="#fff" stroke="#fff"/>
<g clip-path="url(#a)">
<defs>
<path id="r" d="m34.188 63.188-13.391-36.281h26.812zm-5.5781 9.7188h11.188l27.781-72.906h-10.25l-6.6406 18.703h-32.859l-6.6406-18.703h-10.406z"/>
</defs>
<g transform="translate(82.698 151.06) rotate(90) scale(.08 -.08)">
<use xlink:href="#r"/>
</g>
</g>
<path d="m295.78 286.63 2.654-5.6019q1.0276-2.1689-1.1413-3.1965l-6.997-3.315q-2.1689-1.0276-3.1965 1.1413l-2.654 5.6019q-1.0276 2.1689 1.1413 3.1965l6.997 3.315q2.1689 1.0276 3.1965-1.1413z" clip-path="url(#a)" fill="#fff" stroke="#fff"/>
<g clip-path="url(#a)">
<defs>
<path id="at" d="m59.516 10.406v19.578h-16.109v8.1094h25.875v-31.312q-5.7031-4.0469-12.594-6.125-6.875-2.0781-14.688-2.0781-17.094 0-26.75 9.9844-9.6406 10-9.6406 27.812 0 17.875 9.6406 27.859 9.6562 9.9844 26.75 9.9844 7.125 0 13.547-1.7656 6.4219-1.75 11.844-5.1719v-10.5q-5.4688 4.6406-11.625 6.9844t-12.938 2.3438q-13.391 0-20.109-7.4688-6.7031-7.4688-6.7031-22.266 0-14.75 6.7031-22.219 6.7188-7.4688 20.109-7.4688 5.2188 0 9.3125 0.90625 4.1094 0.90625 7.375 2.8125z"/>
</defs>
<g transform="translate(292.1 284.89) rotate(-64.65) scale(.08 -.08)">
<use xlink:href="#at"/>
</g>
</g>
<path d="m337.54 285.24 1.2514-5.3275q0.5488-2.3364-1.7876-2.8852l-7.5374-1.7704q-2.3364-0.5488-2.8852 1.7876l-1.2514 5.3275q-0.5488 2.3364 1.7876 2.8852l7.5374 1.7704q2.3364 0.5488 2.8852-1.7876z" clip-path="url(#a)" fill="#fff" stroke="#fff"/>
<g clip-path="url(#a)">
<g transform="translate(333.59 284.31) rotate(-76.782) scale(.08 -.08)">
<use xlink:href="#r"/>
</g>
</g>
<path d="m361.29 284.04 0.45051-4.5791q0.23499-2.3885-2.1535-2.6235l-7.7053-0.75808q-2.3885-0.23499-2.6235 2.1535l-0.45051 4.5791q-0.23499 2.3885 2.1535 2.6235l7.7053 0.75808q2.3885 0.23499 2.6235-2.1535z" clip-path="url(#a)" fill="#fff" stroke="#fff"/>
<g clip-path="url(#a)">
<defs>
<path id="w" d="m9.8125 72.906h41.891v-8.3125h-32.031v-21.484h28.906v-8.2969h-28.906v-34.812h-9.8594z"/>
</defs>
<g transform="translate(357.25 283.65) rotate(-84.381) scale(.08 -.08)">
<use xlink:href="#w"/>
</g>
</g>
<path d="m373.69 274.59 0.67931 13.724q0.11865 2.3971 2.5157 2.2784l7.9902-0.39549q2.3971-0.11865 2.2784-2.5157l-0.67931-13.724q-0.11865-2.3971-2.5157-2.2784l-7.9902 0.39549q-2.3971 0.11865-2.2784 2.5157z" clip-path="url(#a)" fill="#fff" stroke="#fff"/>
<g clip-path="url(#a)">
<defs>
<path id="k" d="m-0.29688 72.906h61.672v-8.3125h-25.875v-64.594h-9.9062v64.594h-25.891z"/>
<path id="am" d="m21 76.422v-100h-8.2969v100z"/>
<path id="aj" d="m19.672 64.797v-56.688h11.922q15.094 0 22.094 6.8281 7 6.8438 7 21.594 0 14.641-7 21.453t-22.094 6.8125zm-9.8594 8.1094h20.266q21.188 0 31.094-8.8125 9.9219-8.8125 9.9219-27.562 0-18.859-9.9688-27.703-9.9531-8.8281-31.047-8.8281h-20.266z"/>
</defs>
<g transform="translate(377.98 274.38) rotate(87.166) scale(.08 -.08)">
<use xlink:href="#k"/>
<use x="61.083984" xlink:href="#am"/>
<use x="94.775391" xlink:href="#aj"/>
</g>
</g>
<path d="m400.88 280.06 0.98572 4.722q0.49043 2.3494 2.8398 1.8589l7.5791-1.5822q2.3494-0.49043 1.8589-2.8398l-0.98572-4.722q-0.49043-2.3494-2.8398-1.8589l-7.5791 1.5822q-2.3494 0.49043-1.8589 2.8398z" clip-path="url(#a)" fill="#fff" stroke="#fff"/>
<g clip-path="url(#a)">
<defs>
<path id="aq" d="m19.672 64.797v-27.391h12.406q6.8906 0 10.641 3.5625 3.7656 3.5625 3.7656 10.156 0 6.5469-3.7656 10.109-3.75 3.5625-10.641 3.5625zm-9.8594 8.1094h22.266q12.266 0 18.531-5.5469 6.2812-5.5469 6.2812-16.234 0-10.797-6.2812-16.312-6.2656-5.5156-18.531-5.5156h-12.406v-29.297h-9.8594z"/>
</defs>
<g transform="translate(404.86 279.23) rotate(78.209) scale(.08 -.08)">
<use xlink:href="#aq"/>
</g>
</g>
<path d="m522.26 159.12 5.2747 1.4581q2.3132 0.63946 2.9527-1.6738l2.0629-7.4626q0.63946-2.3132-1.6738-2.9527l-5.2747-1.4581q-2.3132-0.63946-2.9527 1.6738l-2.0629 7.4626q-0.63946 2.3132 1.6738 2.9527z" clip-path="url(#a)" fill="#fff" stroke="#fff"/>
<g clip-path="url(#a)">
<g transform="translate(523.34 155.2) rotate(15.453) scale(.08 -.08)">
<use xlink:href="#r"/>
</g>
</g>
<path d="m315.69 286.02 1.9833-5.5089q0.81296-2.2581-1.4452-3.0711l-7.2848-2.6226q-2.2581-0.81296-3.0711 1.4452l-1.9833 5.5089q-0.81296 2.2581 1.4452 3.0711l7.2848 2.6227q2.2581 0.81296 3.0711-1.4452z" clip-path="url(#a)" fill="#fff" stroke="#fff"/>
<g clip-path="url(#a)">
<g transform="translate(311.87 284.64) rotate(-70.2) scale(.08 -.08)">
<use xlink:href="#t"/>
</g>
</g>
<path d="m204.59 475.97v33.808q0 2.4 2.4 2.4h7.7425q2.4 0 2.4-2.4v-33.808q0-2.4-2.4-2.4h-7.7425q-2.4 0-2.4 2.4z" clip-path="url(#a)" fill="#fff" stroke="#fff"/>
<g clip-path="url(#a)">
<defs>
<path id="d" d="m56.203 29.594v-4.3906h-41.312q0.59375-9.2812 5.5938-14.141t13.938-4.8594q5.1719 0 10.031 1.2656t9.6562 3.8125v-8.5q-4.8438-2.0469-9.9219-3.125t-10.297-1.0781q-13.094 0-20.734 7.6094-7.6406 7.625-7.6406 20.625 0 13.422 7.25 21.297 7.25 7.8906 19.562 7.8906 11.031 0 17.453-7.1094 6.4219-7.0938 6.4219-19.297zm-8.9844 2.6406q-0.09375 7.3594-4.125 11.75-4.0312 4.4062-10.672 4.4062-7.5156 0-12.031-4.25t-5.2031-11.969z"/>
<path id="g" d="m41.109 46.297q-1.5156 0.875-3.2969 1.2812-1.7812 0.42188-3.9219 0.42188-7.625 0-11.703-4.9531t-4.0781-14.234v-28.812h-9.0312v54.688h9.0312v-8.5q2.8438 4.9844 7.375 7.3906 4.5469 2.4219 11.047 2.4219 0.92188 0 2.0469-0.125 1.125-0.10938 2.4844-0.35938z"/>
<path id="h" d="m52 44.188q3.375 6.0625 8.0625 8.9375t11.031 2.875q8.5469 0 13.188-5.9844 4.6406-5.9688 4.6406-17v-33.016h-9.0312v32.719q0 7.8594-2.7969 11.656-2.7812 3.8125-8.4844 3.8125-6.9844 0-11.047-4.6406-4.0469-4.625-4.0469-12.641v-30.906h-9.0312v32.719q0 7.9062-2.7812 11.688t-8.5938 3.7812q-6.8906 0-10.953-4.6562-4.0469-4.6562-4.0469-12.625v-30.906h-9.0312v54.688h9.0312v-8.5q3.0781 5.0312 7.375 7.4219t10.203 2.3906q5.9688 0 10.141-3.0312 4.1719-3.0156 6.1719-8.7812z"/>
<path id="j" d="m9.4219 54.688h8.9844v-54.688h-8.9844zm0 21.297h8.9844v-11.391h-8.9844z"/>
<path id="f" d="m54.891 33.016v-33.016h-8.9844v32.719q0 7.7656-3.0312 11.609-3.0312 3.8594-9.0781 3.8594-7.2812 0-11.484-4.6406-4.2031-4.625-4.2031-12.641v-30.906h-9.0312v54.688h9.0312v-8.5q3.2344 4.9375 7.5938 7.375 4.375 2.4375 10.094 2.4375 9.4219 0 14.25-5.8281 4.8438-5.8281 4.8438-17.156z"/>
<path id="i" d="m34.281 27.484q-10.891 0-15.094-2.4844t-4.2031-8.5q0-4.7812 3.1562-7.5938 3.1562-2.7969 8.5625-2.7969 7.4844 0 12 5.2969t4.5156 14.078v2zm17.922 3.7188v-31.203h-8.9844v8.2969q-3.0781-4.9688-7.6719-7.3438t-11.234-2.375q-8.3906 0-13.359 4.7188-4.9531 4.7188-4.9531 12.625 0 9.2188 6.1719 13.906 6.1875 4.6875 18.438 4.6875h12.609v0.89062q0 6.2031-4.0781 9.5938t-11.453 3.3906q-4.6875 0-9.1406-1.125-4.4375-1.125-8.5312-3.375v8.3125q4.9219 1.9062 9.5625 2.8438 4.6406 0.95312 9.0312 0.95312 11.875 0 17.734-6.1562 5.8594-6.1406 5.8594-18.641z"/>
<path id="l" d="m9.4219 75.984h8.9844v-75.984h-8.9844z"/>
</defs>
<g transform="translate(208.66 475.97) rotate(90) scale(.08 -.08)">
<use xlink:href="#k"/>
<use x="44.083984" xlink:href="#d"/>
<use x="105.607422" xlink:href="#g"/>
<use x="144.970703" xlink:href="#h"/>
<use x="242.382812" xlink:href="#j"/>
<use x="270.166016" xlink:href="#f"/>
<use x="333.544922" xlink:href="#i"/>
<use x="394.824219" xlink:href="#l"/>
</g>
</g>
<path d="m285.85 475.97v33.808q0 2.4 2.4 2.4h7.7425q2.4 0 2.4-2.4v-33.808q0-2.4-2.4-2.4h-7.7425q-2.4 0-2.4 2.4z" clip-path="url(#a)" fill="#fff" stroke="#fff"/>
<g clip-path="url(#a)">
<g transform="translate(289.91 475.97) rotate(90) scale(.08 -.08)">
<use xlink:href="#k"/>
<use x="44.083984" xlink:href="#d"/>
<use x="105.607422" xlink:href="#g"/>
<use x="144.970703" xlink:href="#h"/>
<use x="242.382812" xlink:href="#j"/>
<use x="270.166016" xlink:href="#f"/>
<use x="333.544922" xlink:href="#i"/>
<use x="394.824219" xlink:href="#l"/>
</g>
</g>
<path d="m332.27 475.97v33.808q0 2.4 2.4 2.4h7.7425q2.4 0 2.4-2.4v-33.808q0-2.4-2.4-2.4h-7.7425q-2.4 0-2.4 2.4z" clip-path="url(#a)" fill="#fff" stroke="#fff"/>
<g clip-path="url(#a)">
<g transform="translate(336.34 475.97) rotate(90) scale(.08 -.08)">
<use xlink:href="#k"/>
<use x="44.083984" xlink:href="#d"/>
<use x="105.607422" xlink:href="#g"/>
<use x="144.970703" xlink:href="#h"/>
<use x="242.382812" xlink:href="#j"/>
<use x="270.166016" xlink:href="#f"/>
<use x="333.544922" xlink:href="#i"/>
<use x="394.824219" xlink:href="#l"/>
</g>
</g>
<path d="m382.57 475.97v33.808q0 2.4 2.4 2.4h7.7425q2.4 0 2.4-2.4v-33.808q0-2.4-2.4-2.4h-7.7425q-2.4 0-2.4 2.4z" clip-path="url(#a)" fill="#fff" stroke="#fff"/>
<g clip-path="url(#a)">
<g transform="translate(386.64 475.97) rotate(90) scale(.08 -.08)">
<use xlink:href="#k"/>
<use x="44.083984" xlink:href="#d"/>
<use x="105.607422" xlink:href="#g"/>
<use x="144.970703" xlink:href="#h"/>
<use x="242.382812" xlink:href="#j"/>
<use x="270.166016" xlink:href="#f"/>
<use x="333.544922" xlink:href="#i"/>
<use x="394.824219" xlink:href="#l"/>
</g>
</g>
<path d="m436.74 475.97v33.808q0 2.4 2.4 2.4h7.7425q2.4 0 2.4-2.4v-33.808q0-2.4-2.4-2.4h-7.7425q-2.4 0-2.4 2.4z" clip-path="url(#a)" fill="#fff" stroke="#fff"/>
<g clip-path="url(#a)">
<g transform="translate(440.8 475.97) rotate(90) scale(.08 -.08)">
<use xlink:href="#k"/>
<use x="44.083984" xlink:href="#d"/>
<use x="105.607422" xlink:href="#g"/>
<use x="144.970703" xlink:href="#h"/>
<use x="242.382812" xlink:href="#j"/>
<use x="270.166016" xlink:href="#f"/>
<use x="333.544922" xlink:href="#i"/>
<use x="394.824219" xlink:href="#l"/>
</g>
</g>
<path d="m609.25 288.06 4.0597-4.633q1.5817-1.805-0.22334-3.3868l-5.8232-5.1027q-1.805-1.5817-3.3868 0.22334l-4.0597 4.633q-1.5817 1.805 0.22334 3.3868l5.8232 5.1027q1.805 1.5817 3.3868-0.22334z" clip-path="url(#a)" fill="#fff" stroke="#fff"/>
<g clip-path="url(#a)">
<g transform="translate(606.19 285.39) rotate(-48.773) scale(.08 -.08)">
<use xlink:href="#aj"/>
</g>
</g>
<path d="m660.56 327.62 1.0234-4.9746q0.48361-2.3508-1.8672-2.8344l-7.5837-1.5602q-2.3508-0.48361-2.8344 1.8672l-1.0234 4.9746q-0.48361 2.3508 1.8672 2.8344l7.5837 1.5602q2.3508 0.48361 2.8344-1.8672z" clip-path="url(#a)" fill="#fff" stroke="#fff"/>
<g clip-path="url(#a)">
<defs>
<path id="ag" d="m53.516 70.516v-9.625q-5.6094 2.6875-10.594 4-4.9844 1.3281-9.625 1.3281-8.0469 0-12.422-3.125t-4.375-8.8906q0-4.8438 2.9062-7.3125 2.9062-2.4531 11.016-3.9688l5.9531-1.2188q11.031-2.1094 16.281-7.4062t5.25-14.172q0-10.609-7.1094-16.078-7.0938-5.4688-20.812-5.4688-5.1719 0-11.016 1.1719-5.8281 1.1719-12.078 3.4688v10.156q6-3.3594 11.766-5.0781 5.7656-1.7031 11.328-1.7031 8.4375 0 13.031 3.3125 4.5938 3.3281 4.5938 9.4844 0 5.3594-3.2969 8.3906t-10.812 4.5469l-6.0156 1.1719q-11.031 2.1875-15.969 6.875-4.9219 4.6875-4.9219 13.047 0 9.6719 6.8125 15.234t18.766 5.5625q5.1406 0 10.453-0.9375 5.3281-0.92188 10.891-2.7656z"/>
</defs>
<g transform="translate(656.57 326.8) rotate(-78.375) scale(.08 -.08)">
<use xlink:href="#ag"/>
</g>
</g>
<path d="m776.92 243.85 5.0402 2.1318q2.2104 0.93492 3.1453-1.2755l3.0161-7.1309q0.93492-2.2104-1.2755-3.1453l-5.0402-2.1318q-2.2104-0.93492-3.1453 1.2755l-3.0161 7.1309q-0.93492 2.2104 1.2755 3.1453z" clip-path="url(#a)" fill="#fff" stroke="#fff"/>
<g clip-path="url(#a)">
<g transform="translate(778.5 240.11) rotate(22.927) scale(.08 -.08)">
<use xlink:href="#r"/>
</g>
</g>
<path d="m521.54 413.48 1.7387-4.7466q0.82548-2.2536-1.4281-3.0791l-7.2701-2.663q-2.2536-0.82548-3.0791 1.4281l-1.7387 4.7466q-0.82548 2.2536 1.4281 3.0791l7.2701 2.663q2.2536 0.82548 3.0791-1.4281z" clip-path="url(#a)" fill="#fff" stroke="#fff"/>
<g clip-path="url(#a)">
<defs>
<path id="au" d="m9.8125 72.906h46.094v-8.3125h-36.234v-21.578h34.719v-8.2969h-34.719v-26.422h37.109v-8.2969h-46.969z"/>
</defs>
<g transform="translate(517.73 412.09) rotate(-69.882) scale(.08 -.08)">
<use xlink:href="#au"/>
</g>
</g>
<path d="m540.63 408.49 1.9214 5.2454q0.82548 2.2536 3.0791 1.4281l7.2701-2.663q2.2536-0.82548 1.4281-3.0791l-1.9214-5.2454q-0.82548-2.2536-3.0791-1.4281l-7.2701 2.663q-2.2536 0.82548-1.4281 3.0791z" clip-path="url(#a)" fill="#fff" stroke="#fff"/>
<g clip-path="url(#a)">
<defs>
<path id="p" d="m64.406 67.281v-10.391q-4.9844 4.6406-10.625 6.9219-5.6406 2.2969-11.984 2.2969-12.5 0-19.141-7.6406t-6.6406-22.094q0-14.406 6.6406-22.047t19.141-7.6406q6.3438 0 11.984 2.2969t10.625 6.9375v-10.312q-5.1719-3.5156-10.969-5.2812-5.7812-1.75-12.219-1.75-16.562 0-26.094 10.125-9.5156 10.141-9.5156 27.672 0 17.578 9.5156 27.703 9.5312 10.141 26.094 10.141 6.5312 0 12.312-1.7344 5.7969-1.7344 10.875-5.2031z"/>
</defs>
<g transform="translate(544.44 407.09) rotate(69.882) scale(.08 -.08)">
<use xlink:href="#p"/>
</g>
</g>
<path d="m622.46 475.97v33.808q0 2.4 2.4 2.4h7.7425q2.4 0 2.4-2.4v-33.808q0-2.4-2.4-2.4h-7.7425q-2.4 0-2.4 2.4z" clip-path="url(#a)" fill="#fff" stroke="#fff"/>
<g clip-path="url(#a)">
<g transform="translate(626.52 475.97) rotate(90) scale(.08 -.08)">
<use xlink:href="#k"/>
<use x="44.083984" xlink:href="#d"/>
<use x="105.607422" xlink:href="#g"/>
<use x="144.970703" xlink:href="#h"/>
<use x="242.382812" xlink:href="#j"/>
<use x="270.166016" xlink:href="#f"/>
<use x="333.544922" xlink:href="#i"/>
<use x="394.824219" xlink:href="#l"/>
</g>
</g>
<path d="m809.6 331.05 4.8171-2.774q2.0798-1.1977 0.88213-3.2775l-3.8637-6.7095q-1.1977-2.0798-3.2775-0.88213l-4.8171 2.774q-2.0798 1.1977-0.88213 3.2775l3.8637 6.7095q1.1977 2.0798 3.2775 0.88213z" clip-path="url(#a)" fill="#fff" stroke="#fff"/>
<g clip-path="url(#a)">
<defs>
<path id="ah" d="m44.391 34.188q3.1719-1.0781 6.1719-4.5938t6.0312-9.6719l10.016-19.922h-10.609l-9.3125 18.703q-3.625 7.3281-7.0156 9.7188t-9.25 2.3906h-10.75v-30.812h-9.8594v72.906h22.266q12.5 0 18.656-5.2344 6.1562-5.2188 6.1562-15.766 0-6.8906-3.2031-11.438-3.2031-4.5312-9.2969-6.2812zm-24.719 30.609v-25.875h12.406q7.125 0 10.766 3.2969t3.6406 9.6875-3.6406 9.6406-10.766 3.25z"/>
</defs>
<g transform="translate(807.57 327.53) rotate(-29.936) scale(.08 -.08)">
<use xlink:href="#ah"/>
</g>
</g>
<path d="m871.66 369.95 0.8891-4.5145q0.46375-2.3548-1.891-2.8185l-7.5966-1.4961q-2.3548-0.46375-2.8185 1.891l-0.8891 4.5145q-0.46375 2.3548 1.891 2.8185l7.5966 1.4961q2.3548 0.46375 2.8185-1.891z" clip-path="url(#a)" fill="#fff" stroke="#fff"/>
<g clip-path="url(#a)">
<g transform="translate(867.67 369.16) rotate(-78.859) scale(.08 -.08)">
<use xlink:href="#w"/>
</g>
</g>
<path d="m899.78 365.5 1.519 5.3758q0.65261 2.3096 2.9622 1.657l7.4508-2.1054q2.3096-0.65261 1.657-2.9622l-1.519-5.3758q-0.65261-2.3096-2.9622-1.657l-7.4508 2.1054q-2.3096 0.65261-1.657 2.9622z" clip-path="url(#a)" fill="#fff" stroke="#fff"/>
<g clip-path="url(#a)">
<g transform="translate(903.69 364.39) rotate(74.221) scale(.08 -.08)">
<use xlink:href="#p"/>
</g>
</g>
<path d="m942.4 368.05 3.6151 4.6057q1.4818 1.8879 3.3697 0.40606l6.0904-4.7805q1.8879-1.4818 0.40606-3.3697l-3.6151-4.6057q-1.4818-1.8879-3.3697-0.40606l-6.0904 4.7805q-1.8879 1.4818-0.40606 3.3697z" clip-path="url(#a)" fill="#fff" stroke="#fff"/>
<g clip-path="url(#a)">
<g transform="translate(945.59 365.54) rotate(51.871) scale(.08 -.08)">
<use xlink:href="#t"/>
</g>
</g>
<path d="m721.58 413.56 1.8353-4.2194q0.95731-2.2008-1.2435-3.1581l-7.0999-3.0883q-2.2008-0.95731-3.1581 1.2435l-1.8353 4.2194q-0.95731 2.2008 1.2435 3.1581l7.0999 3.0883q2.2008 0.95731 3.1581-1.2435z" clip-path="url(#a)" fill="#fff" stroke="#fff"/>
<g clip-path="url(#a)">
<g transform="translate(717.86 411.94) rotate(-66.492) scale(.08 -.08)">
<use xlink:href="#w"/>
</g>
</g>
<path d="m746.64 408.89 2.2282 5.1226q0.95731 2.2008 3.1581 1.2435l7.0999-3.0883q2.2008-0.95731 1.2435-3.1581l-2.2282-5.1226q-0.95731-2.2008-3.1581-1.2435l-7.0999 3.0883q-2.2008 0.95731-1.2435 3.1581z" clip-path="url(#a)" fill="#fff" stroke="#fff"/>
<g clip-path="url(#a)">
<g transform="translate(750.37 407.27) rotate(66.492) scale(.08 -.08)">
<use xlink:href="#p"/>
</g>
</g>
<path d="m842.99 475.97v33.808q0 2.4 2.4 2.4h7.7425q2.4 0 2.4-2.4v-33.808q0-2.4-2.4-2.4h-7.7425q-2.4 0-2.4 2.4z" clip-path="url(#a)" fill="#fff" stroke="#fff"/>
<g clip-path="url(#a)">
<g transform="translate(847.06 475.97) rotate(90) scale(.08 -.08)">
<use xlink:href="#k"/>
<use x="44.083984" xlink:href="#d"/>
<use x="105.607422" xlink:href="#g"/>
<use x="144.970703" xlink:href="#h"/>
<use x="242.382812" xlink:href="#j"/>
<use x="270.166016" xlink:href="#f"/>
<use x="333.544922" xlink:href="#i"/>
<use x="394.824219" xlink:href="#l"/>
</g>
</g>
<path d="m924.25 475.97v33.808q0 2.4 2.4 2.4h7.7425q2.4 0 2.4-2.4v-33.808q0-2.4-2.4-2.4h-7.7425q-2.4 0-2.4 2.4z" clip-path="url(#a)" fill="#fff" stroke="#fff"/>
<g clip-path="url(#a)">
<g transform="translate(928.31 475.97) rotate(90) scale(.08 -.08)">
<use xlink:href="#k"/>
<use x="44.083984" xlink:href="#d"/>
<use x="105.607422" xlink:href="#g"/>
<use x="144.970703" xlink:href="#h"/>
<use x="242.382812" xlink:href="#j"/>
<use x="270.166016" xlink:href="#f"/>
<use x="333.544922" xlink:href="#i"/>
<use x="394.824219" xlink:href="#l"/>
</g>
</g>
<path d="m692.1 475.97v33.808q0 2.4 2.4 2.4h7.7425q2.4 0 2.4-2.4v-33.808q0-2.4-2.4-2.4h-7.7425q-2.4 0-2.4 2.4z" clip-path="url(#a)" fill="#fff" stroke="#fff"/>
<g clip-path="url(#a)">
<g transform="translate(696.16 475.97) rotate(90) scale(.08 -.08)">
<use xlink:href="#k"/>
<use x="44.083984" xlink:href="#d"/>
<use x="105.607422" xlink:href="#g"/>
<use x="144.970703" xlink:href="#h"/>
<use x="242.382812" xlink:href="#j"/>
<use x="270.166016" xlink:href="#f"/>
<use x="333.544922" xlink:href="#i"/>
<use x="394.824219" xlink:href="#l"/>
</g>
</g>
<path d="m765.61 475.97v33.808q0 2.4 2.4 2.4h7.7425q2.4 0 2.4-2.4v-33.808q0-2.4-2.4-2.4h-7.7425q-2.4 0-2.4 2.4z" clip-path="url(#a)" fill="#fff" stroke="#fff"/>
<g clip-path="url(#a)">
<g transform="translate(769.68 475.97) rotate(90) scale(.08 -.08)">
<use xlink:href="#k"/>
<use x="44.083984" xlink:href="#d"/>
<use x="105.607422" xlink:href="#g"/>
<use x="144.970703" xlink:href="#h"/>
<use x="242.382812" xlink:href="#j"/>
<use x="270.166016" xlink:href="#f"/>
<use x="333.544922" xlink:href="#i"/>
<use x="394.824219" xlink:href="#l"/>
</g>
</g>
<path d="m494.78 475.97v33.808q0 2.4 2.4 2.4h7.7425q2.4 0 2.4-2.4v-33.808q0-2.4-2.4-2.4h-7.7425q-2.4 0-2.4 2.4z" clip-path="url(#a)" fill="#fff" stroke="#fff"/>
<g clip-path="url(#a)">
<g transform="translate(498.84 475.97) rotate(90) scale(.08 -.08)">
<use xlink:href="#k"/>
<use x="44.083984" xlink:href="#d"/>
<use x="105.607422" xlink:href="#g"/>
<use x="144.970703" xlink:href="#h"/>
<use x="242.382812" xlink:href="#j"/>
<use x="270.166016" xlink:href="#f"/>
<use x="333.544922" xlink:href="#i"/>
<use x="394.824219" xlink:href="#l"/>
</g>
</g>
<path d="m556.68 475.97v33.808q0 2.4 2.4 2.4h7.7425q2.4 0 2.4-2.4v-33.808q0-2.4-2.4-2.4h-7.7425q-2.4 0-2.4 2.4z" clip-path="url(#a)" fill="#fff" stroke="#fff"/>
<g clip-path="url(#a)">
<g transform="translate(560.75 475.97) rotate(90) scale(.08 -.08)">
<use xlink:href="#k"/>
<use x="44.083984" xlink:href="#d"/>
<use x="105.607422" xlink:href="#g"/>
<use x="144.970703" xlink:href="#h"/>
<use x="242.382812" xlink:href="#j"/>
<use x="270.166016" xlink:href="#f"/>
<use x="333.544922" xlink:href="#i"/>
<use x="394.824219" xlink:href="#l"/>
</g>
</g>
<path d="m78.409 327.24 0.54164-5.5323q0.23385-2.3886-2.1547-2.6224l-7.7057-0.75442q-2.3886-0.23385-2.6224 2.1547l-0.54164 5.5323q-0.23385 2.3886 2.1547 2.6224l7.7057 0.75442q2.3886 0.23385 2.6224-2.1547z" clip-path="url(#a)" fill="#fff" stroke="#fff"/>
<g clip-path="url(#a)">
<g transform="translate(74.364 326.85) rotate(-84.408) scale(.08 -.08)">
<use xlink:href="#ah"/>
</g>
</g>
<path d="m86.326 327.24 0.2337-6.2932q0.089065-2.3983-2.3093-2.4874l-7.7372-0.28733q-2.3983-0.089065-2.4874 2.3093l-0.2337 6.2932q-0.089066 2.3983 2.3093 2.4874l7.7372 0.28733q2.3983 0.089065 2.4874-2.3093z" clip-path="url(#a)" fill="#fff" stroke="#fff"/>
<g clip-path="url(#a)">
<defs>
<path id="ap" d="m39.406 66.219q-10.75 0-17.078-8.0156-6.3125-8-6.3125-21.828 0-13.766 6.3125-21.781 6.3281-8 17.078-8 10.734 0 17.016 8 6.2812 8.0156 6.2812 21.781 0 13.828-6.2812 21.828-6.2812 8.0156-17.016 8.0156zm13.812-64.906 13-14.203h-11.922l-10.797 11.672q-1.6094-0.09375-2.4688-0.14062-0.84375-0.0625-1.625-0.0625-15.375 0-24.594 10.281-9.2031 10.281-9.2031 27.516 0 17.281 9.2031 27.562 9.2188 10.281 24.594 10.281 15.328 0 24.5-10.281 9.1875-10.281 9.1875-27.562 0-12.688-5.1094-21.734-5.0938-9.0312-14.766-13.328z"/>
</defs>
<g transform="translate(82.265 327.09) rotate(-87.873) scale(.08 -.08)">
<use xlink:href="#ap"/>
</g>
</g>
<path d="m95.24 238.9 2.0903 5.1804q0.89805 2.2256 3.1237 1.3276l7.18-2.8972q2.2256-0.89805 1.3276-3.1237l-2.0903-5.1804q-0.89805-2.2256-3.1237-1.3276l-7.18 2.8972q-2.2256 0.89805-1.3276 3.1237z" clip-path="url(#a)" fill="#fff" stroke="#fff"/>
<g clip-path="url(#a)">
<g transform="translate(99.009 237.38) rotate(68.026) scale(.08 -.08)">
<use xlink:href="#p"/>
</g>
</g>
<path d="m53.7 475.97v33.808q0 2.4 2.4 2.4h7.7425q2.4 0 2.4-2.4v-33.808q0-2.4-2.4-2.4h-7.7425q-2.4 0-2.4 2.4z" clip-path="url(#a)" fill="#fff" stroke="#fff"/>
<g clip-path="url(#a)">
<g transform="translate(57.763 475.97) rotate(90) scale(.08 -.08)">
<use xlink:href="#k"/>
<use x="44.083984" xlink:href="#d"/>
<use x="105.607422" xlink:href="#g"/>
<use x="144.970703" xlink:href="#h"/>
<use x="242.382812" xlink:href="#j"/>
<use x="270.166016" xlink:href="#f"/>
<use x="333.544922" xlink:href="#i"/>
<use x="394.824219" xlink:href="#l"/>
</g>
</g>
<path d="m69.176 475.97v33.808q0 2.4 2.4 2.4h7.7425q2.4 0 2.4-2.4v-33.808q0-2.4-2.4-2.4h-7.7425q-2.4 0-2.4 2.4z" clip-path="url(#a)" fill="#fff" stroke="#fff"/>
<g clip-path="url(#a)">
<g transform="translate(73.24 475.97) rotate(90) scale(.08 -.08)">
<use xlink:href="#k"/>
<use x="44.083984" xlink:href="#d"/>
<use x="105.607422" xlink:href="#g"/>
<use x="144.970703" xlink:href="#h"/>
<use x="242.382812" xlink:href="#j"/>
<use x="270.166016" xlink:href="#f"/>
<use x="333.544922" xlink:href="#i"/>
<use x="394.824219" xlink:href="#l"/>
</g>
</g>
<path d="m112.85 370.14 0.79954-5.5287q0.3435-2.3753-2.0318-2.7188l-7.6628-1.1081q-2.3753-0.3435-2.7188 2.0318l-0.79954 5.5287q-0.3435 2.3753 2.0318 2.7188l7.6628 1.1081q2.3753 0.3435 2.7188-2.0318z" clip-path="url(#a)" fill="#fff" stroke="#fff"/>
<g clip-path="url(#a)">
<g transform="translate(108.83 369.56) rotate(-81.771) scale(.08 -.08)">
<use xlink:href="#p"/>
</g>
</g>
<path d="m124.9 369.52 0.045553-5.9848q0.018266-2.3999-2.3817-2.4182l-7.7423-0.058928q-2.3999-0.018267-2.4182 2.3817l-0.045552 5.9848q-0.018267 2.3999 2.3817 2.4182l7.7423 0.058929q2.3999 0.018266 2.4182-2.3817z" clip-path="url(#a)" fill="#fff" stroke="#fff"/>
<g clip-path="url(#a)">
<defs>
<path id="ar" d="m9.8125 72.906h13.281l32.328-60.984v60.984h9.5625v-72.906h-13.281l-32.312 60.984v-60.984h-9.5781z"/>
</defs>
<g transform="translate(120.84 369.49) rotate(-89.564) scale(.08 -.08)">
<use xlink:href="#ar"/>
</g>
</g>
<path d="m125.38 323.38 1.6231 5.3452q0.69734 2.2965 2.9938 1.5991l7.4085-2.2496q2.2965-0.69734 1.5991-2.9938l-1.6231-5.3452q-0.69734-2.2965-2.9938-1.5991l-7.4085 2.2496q-2.2965 0.69734-1.5991 2.9938z" clip-path="url(#a)" fill="#fff" stroke="#fff"/>
<g clip-path="url(#a)">
<g transform="translate(129.27 322.2) rotate(73.109) scale(.08 -.08)">
<use xlink:href="#p"/>
</g>
</g>
<path d="m88.521 475.97v33.808q0 2.4 2.4 2.4h7.7425q2.4 0 2.4-2.4v-33.808q0-2.4-2.4-2.4h-7.7425q-2.4 0-2.4 2.4z" clip-path="url(#a)" fill="#fff" stroke="#fff"/>
<g clip-path="url(#a)">
<g transform="translate(92.585 475.97) rotate(90) scale(.08 -.08)">
<use xlink:href="#k"/>
<use x="44.083984" xlink:href="#d"/>
<use x="105.607422" xlink:href="#g"/>
<use x="144.970703" xlink:href="#h"/>
<use x="242.382812" xlink:href="#j"/>
<use x="270.166016" xlink:href="#f"/>
<use x="333.544922" xlink:href="#i"/>
<use x="394.824219" xlink:href="#l"/>
</g>
</g>
<path d="m111.74 475.97v33.808q0 2.4 2.4 2.4h7.7425q2.4 0 2.4-2.4v-33.808q0-2.4-2.4-2.4h-7.7425q-2.4 0-2.4 2.4z" clip-path="url(#a)" fill="#fff" stroke="#fff"/>
<g clip-path="url(#a)">
<g transform="translate(115.8 475.97) rotate(90) scale(.08 -.08)">
<use xlink:href="#k"/>
<use x="44.083984" xlink:href="#d"/>
<use x="105.607422" xlink:href="#g"/>
<use x="144.970703" xlink:href="#h"/>
<use x="242.382812" xlink:href="#j"/>
<use x="270.166016" xlink:href="#f"/>
<use x="333.544922" xlink:href="#i"/>
<use x="394.824219" xlink:href="#l"/>
</g>
</g>
<path d="m138.69 402.33v13.246q0 2.4 2.4 2.4h8q2.4 0 2.4-2.4v-13.246q0-2.4-2.4-2.4h-8q-2.4 0-2.4 2.4z" clip-path="url(#a)" fill="#fff" stroke="#fff"/>
<g clip-path="url(#a)">
<g transform="translate(142.98 402.33) rotate(90) scale(.08 -.08)">
<use xlink:href="#r"/>
<use x="68.408203" xlink:href="#am"/>
<use x="102.099609" xlink:href="#ag"/>
</g>
</g>
<path d="m138.82 475.97v33.808q0 2.4 2.4 2.4h7.7425q2.4 0 2.4-2.4v-33.808q0-2.4-2.4-2.4h-7.7425q-2.4 0-2.4 2.4z" clip-path="url(#a)" fill="#fff" stroke="#fff"/>
<g clip-path="url(#a)">
<g transform="translate(142.88 475.97) rotate(90) scale(.08 -.08)">
<use xlink:href="#k"/>
<use x="44.083984" xlink:href="#d"/>
<use x="105.607422" xlink:href="#g"/>
<use x="144.970703" xlink:href="#h"/>
<use x="242.382812" xlink:href="#j"/>
<use x="270.166016" xlink:href="#f"/>
<use x="333.544922" xlink:href="#i"/>
<use x="394.824219" xlink:href="#l"/>
</g>
</g>
<path d="m42.092 475.97v33.808q0 2.4 2.4 2.4h7.7425q2.4 0 2.4-2.4v-33.808q0-2.4-2.4-2.4h-7.7425q-2.4 0-2.4 2.4z" clip-path="url(#a)" fill="#fff" stroke="#fff"/>
<g clip-path="url(#a)">
<g transform="translate(46.156 475.97) rotate(90) scale(.08 -.08)">
<use xlink:href="#k"/>
<use x="44.083984" xlink:href="#d"/>
<use x="105.607422" xlink:href="#g"/>
<use x="144.970703" xlink:href="#h"/>
<use x="242.382812" xlink:href="#j"/>
<use x="270.166016" xlink:href="#f"/>
<use x="333.544922" xlink:href="#i"/>
<use x="394.824219" xlink:href="#l"/>
</g>
</g>
<path d="m169.77 475.97v33.808q0 2.4 2.4 2.4h7.7425q2.4 0 2.4-2.4v-33.808q0-2.4-2.4-2.4h-7.7425q-2.4 0-2.4 2.4z" clip-path="url(#a)" fill="#fff" stroke="#fff"/>
<g clip-path="url(#a)">
<g transform="translate(173.84 475.97) rotate(90) scale(.08 -.08)">
<use xlink:href="#k"/>
<use x="44.083984" xlink:href="#d"/>
<use x="105.607422" xlink:href="#g"/>
<use x="144.970703" xlink:href="#h"/>
<use x="242.382812" xlink:href="#j"/>
<use x="270.166016" xlink:href="#f"/>
<use x="333.544922" xlink:href="#i"/>
<use x="394.824219" xlink:href="#l"/>
</g>
</g>
<path d="m243.29 475.97v33.808q0 2.4 2.4 2.4h7.7425q2.4 0 2.4-2.4v-33.808q0-2.4-2.4-2.4h-7.7425q-2.4 0-2.4 2.4z" clip-path="url(#a)" fill="#fff" stroke="#fff"/>
<g clip-path="url(#a)">
<g transform="translate(247.35 475.97) rotate(90) scale(.08 -.08)">
<use xlink:href="#k"/>
<use x="44.083984" xlink:href="#d"/>
<use x="105.607422" xlink:href="#g"/>
<use x="144.970703" xlink:href="#h"/>
<use x="242.382812" xlink:href="#j"/>
<use x="270.166016" xlink:href="#f"/>
<use x="333.544922" xlink:href="#i"/>
<use x="394.824219" xlink:href="#l"/>
</g>
</g>
<path d="m1009.4 475.97v33.808q0 2.4 2.4 2.4h7.7425q2.4 0 2.4-2.4v-33.808q0-2.4-2.4-2.4h-7.7425q-2.4 0-2.4 2.4z" clip-path="url(#a)" fill="#fff" stroke="#fff"/>
<g clip-path="url(#a)">
<g transform="translate(1013.4 475.97) rotate(90) scale(.08 -.08)">
<use xlink:href="#k"/>
<use x="44.083984" xlink:href="#d"/>
<use x="105.607422" xlink:href="#g"/>
<use x="144.970703" xlink:href="#h"/>
<use x="242.382812" xlink:href="#j"/>
<use x="270.166016" xlink:href="#f"/>
<use x="333.544922" xlink:href="#i"/>
<use x="394.824219" xlink:href="#l"/>
</g>
</g>
<defs>
<path id="b" d="m0 8.6603c2.2967 0 4.4997-0.9125 6.1237-2.5365 1.624-1.624 2.5365-3.827 2.5365-6.1237s-0.9125-4.4997-2.5365-6.1237c-1.624-1.624-3.827-2.5365-6.1237-2.5365s-4.4997 0.9125-6.1237 2.5365c-1.624 1.624-2.5365 3.827-2.5365 6.1237s0.9125 4.4997 2.5365 6.1237c1.624 1.624 3.827 2.5365 6.1237 2.5365z"/>
</defs>
<g clip-path="url(#a)">
<use x="48.363636" y="534.545455" fill="#ffffff" stroke="#ffffff" xlink:href="#b"/>
</g>
<g clip-path="url(#a)">
<use x="59.970909" y="534.545455" fill="#ffffff" stroke="#ffffff" xlink:href="#b"/>
</g>
<g clip-path="url(#a)">
<use x="75.447273" y="534.545455" fill="#ffffff" stroke="#ffffff" xlink:href="#b"/>
</g>
<g clip-path="url(#a)">
<use x="94.792727" y="534.545455" fill="#ffffff" stroke="#ffffff" xlink:href="#b"/>
</g>
<g clip-path="url(#a)">
<use x="118.007273" y="534.545455" fill="#ffffff" stroke="#ffffff" xlink:href="#b"/>
</g>
<g clip-path="url(#a)">
<use x="145.090909" y="534.545455" fill="#ffffff" stroke="#ffffff" xlink:href="#b"/>
</g>
<g clip-path="url(#a)">
<use x="176.043636" y="534.545455" fill="#ffffff" stroke="#ffffff" xlink:href="#b"/>
</g>
<g clip-path="url(#a)">
<use x="210.865455" y="534.545455" fill="#ffffff" stroke="#ffffff" xlink:href="#b"/>
</g>
<g clip-path="url(#a)">
<use x="249.556364" y="534.545455" fill="#ffffff" stroke="#ffffff" xlink:href="#b"/>
</g>
<g clip-path="url(#a)">
<use x="292.116364" y="534.545455" fill="#ffffff" stroke="#ffffff" xlink:href="#b"/>
</g>
<g clip-path="url(#a)">
<use x="338.545455" y="534.545455" fill="#ffffff" stroke="#ffffff" xlink:href="#b"/>
</g>
<g clip-path="url(#a)">
<use x="388.843636" y="534.545455" fill="#ffffff" stroke="#ffffff" xlink:href="#b"/>
</g>
<g clip-path="url(#a)">
<use x="443.010909" y="534.545455" fill="#ffffff" stroke="#ffffff" xlink:href="#b"/>
</g>
<g clip-path="url(#a)">
<use x="501.047273" y="534.545455" fill="#ffffff" stroke="#ffffff" xlink:href="#b"/>
</g>
<g clip-path="url(#a)">
<use x="562.952727" y="534.545455" fill="#ffffff" stroke="#ffffff" xlink:href="#b"/>
</g>
<g clip-path="url(#a)">
<use x="628.727273" y="534.545455" fill="#ffffff" stroke="#ffffff" xlink:href="#b"/>
</g>
<g clip-path="url(#a)">
<use x="698.370909" y="534.545455" fill="#ffffff" stroke="#ffffff" xlink:href="#b"/>
</g>
<g clip-path="url(#a)">
<use x="771.883636" y="534.545455" fill="#ffffff" stroke="#ffffff" xlink:href="#b"/>
</g>
<g clip-path="url(#a)">
<use x="849.265455" y="534.545455" fill="#ffffff" stroke="#ffffff" xlink:href="#b"/>
</g>
<g clip-path="url(#a)">
<use x="930.516364" y="534.545455" fill="#ffffff" stroke="#ffffff" xlink:href="#b"/>
</g>
<g clip-path="url(#a)">
<use x="1015.636364" y="534.545455" fill="#ffffff" stroke="#ffffff" xlink:href="#b"/>
</g>
<g clip-path="url(#a)">
<use x="170.330202" y="25.454545" fill="#ffffff" stroke="#ffffff" xlink:href="#b"/>
</g>
<g clip-path="url(#a)">
<use x="84.905051" y="111.075811" fill="#ffffff" stroke="#ffffff" xlink:href="#b"/>
</g>
<g clip-path="url(#a)">
<use x="372.008485" y="111.075811" fill="#ffffff" stroke="#ffffff" xlink:href="#b"/>
</g>
<g clip-path="url(#a)">
<use x="210.865455" y="451.203712" fill="#ffffff" stroke="#ffffff" xlink:href="#b"/>
</g>
<g clip-path="url(#a)">
<use x="292.116364" y="451.203712" fill="#ffffff" stroke="#ffffff" xlink:href="#b"/>
</g>
<g clip-path="url(#a)">
<use x="338.545455" y="451.203712" fill="#ffffff" stroke="#ffffff" xlink:href="#b"/>
</g>
<g clip-path="url(#a)">
<use x="388.843636" y="451.203712" fill="#ffffff" stroke="#ffffff" xlink:href="#b"/>
</g>
<g clip-path="url(#a)">
<use x="443.010909" y="451.203712" fill="#ffffff" stroke="#ffffff" xlink:href="#b"/>
</g>
<g clip-path="url(#a)">
<use x="681.121212" y="196.524853" fill="#ffffff" stroke="#ffffff" xlink:href="#b"/>
</g>
<g clip-path="url(#a)">
<use x="532" y="366.702593" fill="#ffffff" stroke="#ffffff" xlink:href="#b"/>
</g>
<g clip-path="url(#a)">
<use x="628.727273" y="451.203712" fill="#ffffff" stroke="#ffffff" xlink:href="#b"/>
</g>
<g clip-path="url(#a)">
<use x="882.636364" y="281.758274" fill="#ffffff" stroke="#ffffff" xlink:href="#b"/>
</g>
<g clip-path="url(#a)">
<use x="735.127273" y="366.702593" fill="#ffffff" stroke="#ffffff" xlink:href="#b"/>
</g>
<g clip-path="url(#a)">
<use x="849.265455" y="451.203712" fill="#ffffff" stroke="#ffffff" xlink:href="#b"/>
</g>
<g clip-path="url(#a)">
<use x="930.516364" y="451.203712" fill="#ffffff" stroke="#ffffff" xlink:href="#b"/>
</g>
<g clip-path="url(#a)">
<use x="698.370909" y="451.203712" fill="#ffffff" stroke="#ffffff" xlink:href="#b"/>
</g>
<g clip-path="url(#a)">
<use x="771.883636" y="451.203712" fill="#ffffff" stroke="#ffffff" xlink:href="#b"/>
</g>
<g clip-path="url(#a)">
<use x="501.047273" y="451.203712" fill="#ffffff" stroke="#ffffff" xlink:href="#b"/>
</g>
<g clip-path="url(#a)">
<use x="562.952727" y="451.203712" fill="#ffffff" stroke="#ffffff" xlink:href="#b"/>
</g>
<g clip-path="url(#a)">
<use x="84.905051" y="196.524853" fill="#ffffff" stroke="#ffffff" xlink:href="#b"/>
</g>
<g clip-path="url(#a)">
<use x="59.970909" y="451.203712" fill="#ffffff" stroke="#ffffff" xlink:href="#b"/>
</g>
<g clip-path="url(#a)">
<use x="75.447273" y="451.203712" fill="#ffffff" stroke="#ffffff" xlink:href="#b"/>
</g>
<g clip-path="url(#a)">
<use x="119.29697" y="281.758274" fill="#ffffff" stroke="#ffffff" xlink:href="#b"/>
</g>
<g clip-path="url(#a)">
<use x="94.792727" y="451.203712" fill="#ffffff" stroke="#ffffff" xlink:href="#b"/>
</g>
<g clip-path="url(#a)">
<use x="118.007273" y="451.203712" fill="#ffffff" stroke="#ffffff" xlink:href="#b"/>
</g>
<g clip-path="url(#a)">
<use x="145.090909" y="366.702593" fill="#ffffff" stroke="#ffffff" xlink:href="#b"/>
</g>
<g clip-path="url(#a)">
<use x="145.090909" y="451.203712" fill="#ffffff" stroke="#ffffff" xlink:href="#b"/>
</g>
<g clip-path="url(#a)">
<use x="48.363636" y="451.203712" fill="#ffffff" stroke="#ffffff" xlink:href="#b"/>
</g>
<g clip-path="url(#a)">
<use x="176.043636" y="451.203712" fill="#ffffff" stroke="#ffffff" xlink:href="#b"/>
</g>
<g clip-path="url(#a)">
<use x="249.556364" y="451.203712" fill="#ffffff" stroke="#ffffff" xlink:href="#b"/>
</g>
<g clip-path="url(#a)">
<use x="1015.636364" y="451.203712" fill="#ffffff" stroke="#ffffff" xlink:href="#b"/>
</g>
<g clip-path="url(#a)">
<defs>
<path id="av" d="m31 75.875q-6.5312-11.219-9.7188-22.219-3.1719-10.984-3.1719-22.266 0-11.266 3.2031-22.328t9.6875-22.25h-7.8125q-7.3125 11.484-10.953 22.562t-3.6406 22.016q0 10.891 3.6094 21.922 3.625 11.047 10.984 22.562z"/>
</defs>
<g transform="translate(46.413 537.3) scale(.1 -.1)">
<use xlink:href="#av"/>
</g>
</g>
<g clip-path="url(#a)">
<defs>
<path id="ac" d="m18.312 70.219v-15.531h18.5v-6.9844h-18.5v-29.688q0-6.6875 1.8281-8.5938t7.4531-1.9062h9.2188v-7.5156h-9.2188q-10.406 0-14.359 3.875-3.9531 3.8906-3.9531 14.141v29.688h-6.5938v6.9844h6.5938v15.531z"/>
<path id="q" d="m30.609 48.391q-7.2188 0-11.422-5.6406t-4.2031-15.453 4.1719-15.453q4.1875-5.6406 11.453-5.6406 7.1875 0 11.375 5.6562 4.2031 5.6719 4.2031 15.438 0 9.7188-4.2031 15.406-4.1875 5.6875-11.375 5.6875zm0 7.6094q11.719 0 18.406-7.625 6.7031-7.6094 6.7031-21.078 0-13.422-6.7031-21.078-6.6875-7.6406-18.406-7.6406-11.766 0-18.438 7.6406-6.6562 7.6562-6.6562 21.078 0 13.469 6.6562 21.078 6.6719 7.625 18.438 7.625z"/>
</defs>
<g transform="translate(54.951 537.3) scale(.1 -.1)">
<use xlink:href="#ac"/>
<use x="39.208984" xlink:href="#q"/>
</g>
</g>
<g clip-path="url(#a)">
<defs>
<path id="af" d="m48.688 27.297q0 9.9062-4.0781 15.547t-11.203 5.6406q-7.1406 0-11.219-5.6406t-4.0781-15.547 4.0781-15.547 11.219-5.6406q7.125 0 11.203 5.6406t4.0781 15.547zm-30.578 19.094q2.8438 4.875 7.1562 7.2344 4.3281 2.375 10.328 2.375 9.9688 0 16.188-7.9062 6.2344-7.9062 6.2344-20.797t-6.2344-20.812q-6.2188-7.9062-16.188-7.9062-6 0-10.328 2.375-4.3125 2.375-7.1562 7.25v-8.2031h-9.0312v75.984h9.0312z"/>
<path id="ad" d="m54.891 33.016v-33.016h-8.9844v32.719q0 7.7656-3.0312 11.609-3.0312 3.8594-9.0781 3.8594-7.2812 0-11.484-4.6406-4.2031-4.625-4.2031-12.641v-30.906h-9.0312v75.984h9.0312v-29.797q3.2344 4.9375 7.5938 7.375 4.375 2.4375 10.094 2.4375 9.4219 0 14.25-5.8281 4.8438-5.8281 4.8438-17.156z"/>
</defs>
<g transform="translate(64.085 537.3) scale(.1 -.1)">
<use xlink:href="#af"/>
<use x="63.476562" xlink:href="#q"/>
<use x="124.658203" xlink:href="#ac"/>
<use x="163.867188" xlink:href="#ad"/>
</g>
</g>
<g clip-path="url(#a)">
<defs>
<path id="aw" d="m32.172-5.0781q-3.7969-9.7656-7.4219-12.734-3.6094-2.9844-9.6562-2.9844h-7.1875v7.5156h5.2812q3.7031 0 5.75 1.7656 2.0625 1.75 4.5469 8.2969l1.6094 4.0938-22.109 53.812h9.5156l17.094-42.766 17.094 42.766h9.5156z"/>
<path id="o" d="m44.281 53.078v-8.5q-3.7969 1.9531-7.9062 2.9219-4.0938 0.98438-8.5 0.98438-6.6875 0-10.031-2.0469t-3.3438-6.1562q0-3.125 2.3906-4.9062t9.625-3.3906l3.0781-0.6875q9.5625-2.0469 13.594-5.7812t4.0312-10.422q0-7.625-6.0312-12.078-6.0312-4.4375-16.578-4.4375-4.3906 0-9.1562 0.85938t-10.031 2.5625v9.2812q4.9844-2.5938 9.8125-3.8906 4.8281-1.2812 9.5781-1.2812 6.3438 0 9.75 2.1719 3.4219 2.1719 3.4219 6.125 0 3.6562-2.4688 5.6094-2.4531 1.9531-10.812 3.7656l-3.125 0.73438q-8.3438 1.75-12.062 5.3906-3.7031 3.6406-3.7031 9.9844 0 7.7188 5.4688 11.906 5.4688 4.2031 15.531 4.2031 4.9688 0 9.3594-0.73438 4.4062-0.71875 8.1094-2.1875z"/>
<path id="ao" d="m37.109 75.984v-7.4844h-8.5938q-4.8281 0-6.7188-1.9531-1.875-1.9531-1.875-7.0312v-4.8281h14.797v-6.9844h-14.797v-47.703h-9.0312v47.703h-8.5938v6.9844h8.5938v3.8125q0 9.125 4.25 13.297 4.25 4.1875 13.469 4.1875z"/>
</defs>
<g transform="translate(78.133 537.3) scale(.1 -.1)">
<use xlink:href="#h"/>
<use x="97.412109" xlink:href="#aw"/>
<use x="156.591797" xlink:href="#o"/>
<use x="208.691406" xlink:href="#d"/>
<use x="270.214844" xlink:href="#l"/>
<use x="297.998047" xlink:href="#ao"/>
</g>
</g>
<g clip-path="url(#a)">
<defs>
<path id="ae" d="m45.406 46.391v29.594h8.9844v-75.984h-8.9844v8.2031q-2.8281-4.875-7.1562-7.25-4.3125-2.375-10.375-2.375-9.9062 0-16.141 7.9062-6.2188 7.9219-6.2188 20.812t6.2188 20.797q6.2344 7.9062 16.141 7.9062 6.0625 0 10.375-2.375 4.3281-2.3594 7.1562-7.2344zm-30.609-19.094q0-9.9062 4.0781-15.547t11.203-5.6406 11.219 5.6406q4.1094 5.6406 4.1094 15.547t-4.1094 15.547q-4.0938 5.6406-11.219 5.6406t-11.203-5.6406-4.0781-15.547z"/>
</defs>
<g transform="translate(108.6 537.3) scale(.1 -.1)">
<use xlink:href="#i"/>
<use x="61.279297" xlink:href="#f"/>
<use x="124.658203" xlink:href="#ae"/>
</g>
</g>
<g clip-path="url(#a)">
<defs>
<path id="s" d="m48.781 52.594v-8.4062q-3.8125 2.1094-7.6406 3.1562t-7.7344 1.0469q-8.75 0-13.594-5.5469-4.8281-5.5312-4.8281-15.547t4.8281-15.562q4.8438-5.5312 13.594-5.5312 3.9062 0 7.7344 1.0469t7.6406 3.1562v-8.3125q-3.7656-1.75-7.7969-2.625-4.0156-0.89062-8.5625-0.89062-12.359 0-19.641 7.7656-7.2656 7.7656-7.2656 20.953 0 13.375 7.3438 21.031 7.3594 7.6719 20.156 7.6719 4.1406 0 8.0938-0.85938 3.9531-0.84375 7.6719-2.5469z"/>
<path id="v" d="m8.5 21.578v33.109h8.9844v-32.766q0-7.7656 3.0156-11.656 3.0312-3.875 9.0938-3.875 7.2656 0 11.484 4.6406 4.2344 4.6406 4.2344 12.656v31h8.9844v-54.688h-8.9844v8.4062q-3.2656-4.9844-7.5938-7.4062-4.3125-2.4219-10.031-2.4219-9.4219 0-14.312 5.8594-4.875 5.8594-4.875 17.141z"/>
</defs>
<g transform="translate(118.94 537.3) scale(.1 -.1)">
<use xlink:href="#s"/>
<use x="54.980469" xlink:href="#v"/>
<use x="118.359375" xlink:href="#o"/>
<use x="170.458984" xlink:href="#ac"/>
<use x="209.667969" xlink:href="#q"/>
<use x="270.849609" xlink:href="#h"/>
<use x="368.261719" xlink:href="#d"/>
<use x="429.785156" xlink:href="#g"/>
<use x="470.898438" xlink:href="#o"/>
</g>
</g>
<g clip-path="url(#a)">
<defs>
<path id="al" d="m8.0156 75.875h7.8125q7.3125-11.516 10.953-22.562 3.6406-11.031 3.6406-21.922 0-10.938-3.6406-22.016t-10.953-22.562h-7.8125q6.4844 11.188 9.6875 22.25t3.2031 22.328q0 11.281-3.2031 22.266-3.2031 11-9.6875 22.219z"/>
</defs>
<g transform="translate(174.09 537.3) scale(.1 -.1)">
<use xlink:href="#al"/>
</g>
</g>
<g clip-path="url(#a)">
<defs>
<path id="m" d="m40.578 39.312q7.0781-1.5156 11.047-6.3125 3.9844-4.7812 3.9844-11.812 0-10.781-7.4219-16.703-7.4219-5.9062-21.094-5.9062-4.5781 0-9.4375 0.90625t-10.031 2.7188v9.5156q4.0938-2.3906 8.9688-3.6094 4.8906-1.2188 10.219-1.2188 9.2656 0 14.125 3.6562t4.8594 10.641q0 6.4531-4.5156 10.078-4.5156 3.6406-12.562 3.6406h-8.5v8.1094h8.8906q7.2656 0 11.125 2.9062t3.8594 8.375q0 5.6094-3.9844 8.6094-3.9688 3.0156-11.391 3.0156-4.0625 0-8.7031-0.89062-4.6406-0.875-10.203-2.7188v8.7812q5.625 1.5625 10.531 2.3438t9.25 0.78125q11.234 0 17.766-5.1094 6.5469-5.0938 6.5469-13.781 0-6.0625-3.4688-10.234t-9.8594-5.7812z"/>
</defs>
<g transform="translate(207.68 537.3) scale(.1 -.1)">
<use xlink:href="#m"/>
</g>
</g>
<g clip-path="url(#a)">
<g transform="translate(247.61 537.3) scale(.1 -.1)">
<use xlink:href="#al"/>
</g>
</g>
<g clip-path="url(#a)">
<defs>
<path id="as" d="m9.8125 72.906h9.8594v-72.906h-9.8594z"/>
</defs>
<g transform="translate(290.64 537.3) scale(.1 -.1)">
<use xlink:href="#as"/>
</g>
</g>
<g clip-path="url(#a)">
<defs>
<path id="an" d="m2.9844 54.688h9.5156l17.094-45.891 17.094 45.891h9.5156l-20.516-54.688h-12.203z"/>
</defs>
<g transform="translate(326.28 537.3) scale(.1 -.1)">
<use xlink:href="#ad"/>
<use x="63.378906" xlink:href="#i"/>
<use x="124.658203" xlink:href="#an"/>
<use x="183.837891" xlink:href="#d"/>
</g>
</g>
<g clip-path="url(#a)">
<g transform="translate(374.51 537.3) scale(.1 -.1)">
<use xlink:href="#f"/>
<use x="63.378906" xlink:href="#d"/>
<use x="124.902344" xlink:href="#an"/>
<use x="184.082031" xlink:href="#d"/>
<use x="245.605469" xlink:href="#g"/>
</g>
</g>
<g clip-path="url(#a)">
<defs>
<path id="ax" d="m54.891 54.688-19.781-26.609 20.797-28.078h-10.594l-15.922 21.484-15.906-21.484h-10.609l21.25 28.609-19.438 26.078h10.594l14.5-19.484 14.5 19.484z"/>
<path id="ay" d="m18.109 8.2031v-29h-9.0312v75.484h9.0312v-8.2969q2.8438 4.875 7.1562 7.2344 4.3281 2.375 10.328 2.375 9.9688 0 16.188-7.9062 6.2344-7.9062 6.2344-20.797t-6.2344-20.812q-6.2188-7.9062-16.188-7.9062-6 0-10.328 2.375-4.3125 2.375-7.1562 7.25zm30.578 19.094q0 9.9062-4.0781 15.547t-11.203 5.6406q-7.1406 0-11.219-5.6406t-4.0781-15.547 4.0781-15.547 11.219-5.6406q7.125 0 11.203 5.6406t4.0781 15.547z"/>
</defs>
<g transform="translate(412.12 537.3) scale(.1 -.1)">
<use xlink:href="#d"/>
<use x="59.773438" xlink:href="#ax"/>
<use x="118.953125" xlink:href="#ay"/>
<use x="182.429688" xlink:href="#d"/>
<use x="243.953125" xlink:href="#g"/>
<use x="285.066406" xlink:href="#j"/>
<use x="312.849609" xlink:href="#d"/>
<use x="374.373047" xlink:href="#f"/>
<use x="437.751953" xlink:href="#s"/>
<use x="492.732422" xlink:href="#d"/>
<use x="554.255859" xlink:href="#ae"/>
</g>
</g>
<g clip-path="url(#a)">
<g transform="translate(495.38 537.3) scale(.1 -.1)">
<use xlink:href="#o"/>
<use x="52.099609" xlink:href="#q"/>
</g>
</g>
<g clip-path="url(#a)">
<g transform="translate(549 537.3) scale(.1 -.1)">
<use xlink:href="#h"/>
<use x="97.412109" xlink:href="#v"/>
<use x="160.791016" xlink:href="#s"/>
<use x="215.771484" xlink:href="#ad"/>
</g>
</g>
<g clip-path="url(#a)">
<g transform="translate(605.8 537.3) scale(.1 -.1)">
<use xlink:href="#g"/>
<use x="41.113281" xlink:href="#v"/>
<use x="104.492188" xlink:href="#ae"/>
<use x="167.96875" xlink:href="#d"/>
<use x="229.492188" xlink:href="#f"/>
<use x="292.871094" xlink:href="#d"/>
<use x="354.394531" xlink:href="#o"/>
<use x="406.494141" xlink:href="#o"/>
</g>
</g>
<g clip-path="url(#a)">
<defs>
<path id="az" d="m45.406 27.984q0 9.7656-4.0312 15.125-4.0156 5.375-11.297 5.375-7.2188 0-11.25-5.375-4.0312-5.3594-4.0312-15.125 0-9.7188 4.0312-15.094t11.25-5.375q7.2812 0 11.297 5.375 4.0312 5.375 4.0312 15.094zm8.9844-21.203q0-13.953-6.2031-20.766-6.1875-6.8125-18.984-6.8125-4.7344 0-8.9375 0.70312t-8.1562 2.1719v8.7344q3.9531-2.1406 7.8125-3.1562 3.8594-1.0312 7.8594-1.0312 8.8438 0 13.234 4.6094t4.3906 13.938v4.4531q-2.7812-4.8438-7.125-7.2344t-10.406-2.3906q-10.047 0-16.203 7.6562-6.1562 7.6719-6.1562 20.328 0 12.688 6.1562 20.344 6.1562 7.6719 16.203 7.6719 6.0625 0 10.406-2.3906t7.125-7.2188v8.2969h8.9844z"/>
</defs>
<g transform="translate(679.96 537.3) scale(.1 -.1)">
<use xlink:href="#s"/>
<use x="54.980469" xlink:href="#q"/>
<use x="116.162109" xlink:href="#h"/>
<use x="213.574219" xlink:href="#j"/>
<use x="241.357422" xlink:href="#f"/>
<use x="304.736328" xlink:href="#az"/>
</g>
</g>
<g clip-path="url(#a)">
<g transform="translate(760.25 537.3) scale(.1 -.1)">
<use xlink:href="#ao"/>
<use x="35.205078" xlink:href="#g"/>
<use x="74.068359" xlink:href="#q"/>
<use x="135.25" xlink:href="#h"/>
</g>
</g>
<g clip-path="url(#a)">
<g transform="translate(846.2 537.3) scale(.1 -.1)">
<use xlink:href="#i"/>
</g>
</g>
<g clip-path="url(#a)">
<g transform="translate(908.72 537.3) scale(.1 -.1)">
<use xlink:href="#af"/>
<use x="63.476562" xlink:href="#v"/>
<use x="126.855469" xlink:href="#o"/>
<use x="178.955078" xlink:href="#j"/>
<use x="206.738281" xlink:href="#f"/>
<use x="270.117188" xlink:href="#d"/>
<use x="331.640625" xlink:href="#o"/>
<use x="383.740234" xlink:href="#o"/>
</g>
</g>
<g clip-path="url(#a)">
<defs>
<path id="e" d="m10.688 12.406h10.312v-12.406h-10.312z"/>
</defs>
<g transform="translate(1014 537.3) scale(.1 -.1)">
<use xlink:href="#e"/>
</g>
</g>
<g clip-path="url(#a)">
<defs>
<path id="c" d="m12.406 8.2969h16.109v55.625l-17.531-3.5156v8.9844l17.438 3.5156h9.8594v-64.609h16.109v-8.2969h-41.984z"/>
</defs>
<g transform="translate(162.38 28.214) scale(.1 -.1)">
<use xlink:href="#c"/>
<use x="63.623047" xlink:href="#e"/>
<use x="95.410156" xlink:href="#c"/>
</g>
</g>
<g clip-path="url(#a)">
<defs>
<path id="n" d="m19.188 8.2969h34.422v-8.2969h-46.281v8.2969q5.6094 5.8125 15.297 15.594 9.7031 9.7969 12.188 12.641 4.7344 5.3125 6.6094 9 1.8906 3.6875 1.8906 7.25 0 5.8125-4.0781 9.4688-4.0781 3.6719-10.625 3.6719-4.6406 0-9.7969-1.6094-5.1406-1.6094-11-4.8906v9.9688q5.9531 2.3906 11.125 3.6094 5.1875 1.2188 9.4844 1.2188 11.328 0 18.062-5.6719 6.7344-5.6562 6.7344-15.125 0-4.5-1.6875-8.5312-1.6719-4.0156-6.125-9.4844-1.2188-1.4219-7.7656-8.1875-6.5312-6.7656-18.453-18.922z"/>
</defs>
<g transform="translate(76.953 113.84) scale(.1 -.1)">
<use xlink:href="#c"/>
<use x="63.623047" xlink:href="#e"/>
<use x="95.410156" xlink:href="#n"/>
</g>
</g>
<g clip-path="url(#a)">
<g transform="translate(364.06 113.84) scale(.1 -.1)">
<use xlink:href="#c"/>
<use x="63.623047" xlink:href="#e"/>
<use x="95.410156" xlink:href="#m"/>
</g>
</g>
<g clip-path="url(#a)">
<defs>
<path id="u" d="m33.016 40.375q-6.6406 0-10.531-4.5469-3.875-4.5312-3.875-12.438 0-7.8594 3.875-12.438 3.8906-4.5625 10.531-4.5625t10.516 4.5625q3.875 4.5781 3.875 12.438 0 7.9062-3.875 12.438-3.875 4.5469-10.516 4.5469zm19.578 30.922v-8.9844q-3.7188 1.75-7.5 2.6719-3.7812 0.9375-7.5 0.9375-9.7656 0-14.922-6.5938-5.1406-6.5938-5.875-19.922 2.875 4.25 7.2188 6.5156 4.3594 2.2656 9.5781 2.2656 10.984 0 17.359-6.6719 6.375-6.6562 6.375-18.125 0-11.234-6.6406-18.031-6.6406-6.7812-17.672-6.7812-12.656 0-19.344 9.6875-6.6875 9.7031-6.6875 28.109 0 17.281 8.2031 27.562t22.016 10.281q3.7188 0 7.5-0.73438t7.8906-2.1875z"/>
</defs>
<g transform="translate(202.91 453.96) scale(.1 -.1)">
<use xlink:href="#c"/>
<use x="63.623047" xlink:href="#e"/>
<use x="95.410156" xlink:href="#u"/>
</g>
</g>
<g clip-path="url(#a)">
<defs>
<path id="z" d="m8.2031 72.906h46.875v-4.2031l-26.469-68.703h-10.297l24.906 64.594h-35.016z"/>
</defs>
<g transform="translate(284.16 453.96) scale(.1 -.1)">
<use xlink:href="#c"/>
<use x="63.623047" xlink:href="#e"/>
<use x="95.410156" xlink:href="#z"/>
</g>
</g>
<g clip-path="url(#a)">
<defs>
<path id="y" d="m31.781 34.625q-7.0312 0-11.062-3.7656-4.0156-3.7656-4.0156-10.344 0-6.5938 4.0156-10.359 4.0312-3.7656 11.062-3.7656t11.078 3.7812q4.0625 3.7969 4.0625 10.344 0 6.5781-4.0312 10.344-4.0156 3.7656-11.109 3.7656zm-9.8594 4.1875q-6.3438 1.5625-9.8906 5.9062-3.5312 4.3594-3.5312 10.609 0 8.7344 6.2188 13.812 6.2344 5.0781 17.062 5.0781 10.891 0 17.094-5.0781t6.2031-13.812q0-6.25-3.5469-10.609-3.5312-4.3438-9.8281-5.9062 7.125-1.6562 11.094-6.5 3.9844-4.8281 3.9844-11.797 0-10.609-6.4688-16.281-6.4688-5.6562-18.531-5.6562-12.047 0-18.531 5.6562-6.4688 5.6719-6.4688 16.281 0 6.9688 4 11.797 4.0156 4.8438 11.141 6.5zm-3.6094 15.578q0-5.6562 3.5312-8.8281 3.5469-3.1719 9.9375-3.1719 6.3594 0 9.9375 3.1719 3.5938 3.1719 3.5938 8.8281 0 5.6719-3.5938 8.8438-3.5781 3.1719-9.9375 3.1719-6.3906 0-9.9375-3.1719-3.5312-3.1719-3.5312-8.8438z"/>
</defs>
<g transform="translate(330.59 453.96) scale(.1 -.1)">
<use xlink:href="#c"/>
<use x="63.623047" xlink:href="#e"/>
<use x="95.410156" xlink:href="#y"/>
</g>
</g>
<g clip-path="url(#a)">
<defs>
<path id="x" d="m10.984 1.5156v8.9844q3.7188-1.7656 7.5156-2.6875 3.8125-0.92188 7.4844-0.92188 9.7656 0 14.906 6.5625 5.1562 6.5625 5.8906 19.953-2.8281-4.2031-7.1875-6.4531-4.3438-2.25-9.6094-2.25-10.938 0-17.312 6.6094-6.375 6.625-6.375 18.109 0 11.219 6.6406 18 6.6406 6.7969 17.672 6.7969 12.656 0 19.312-9.7031 6.6719-9.6875 6.6719-28.141 0-17.234-8.1875-27.516-8.1719-10.281-21.984-10.281-3.7188 0-7.5312 0.73438-3.7969 0.73438-7.9062 2.2031zm19.625 30.906q6.6406 0 10.516 4.5312 3.8906 4.5469 3.8906 12.469 0 7.8594-3.8906 12.422-3.875 4.5625-10.516 4.5625t-10.516-4.5625-3.875-12.422q0-7.9219 3.875-12.469 3.875-4.5312 10.516-4.5312z"/>
</defs>
<g transform="translate(380.89 453.96) scale(.1 -.1)">
<use xlink:href="#c"/>
<use x="63.623047" xlink:href="#e"/>
<use x="95.410156" xlink:href="#x"/>
</g>
</g>
<g clip-path="url(#a)">
<defs>
<path id="ab" d="m31.781 66.406q-7.6094 0-11.453-7.5-3.8281-7.4844-3.8281-22.531 0-14.984 3.8281-22.484 3.8438-7.5 11.453-7.5 7.6719 0 11.5 7.5 3.8438 7.5 3.8438 22.484 0 15.047-3.8438 22.531-3.8281 7.5-11.5 7.5zm0 7.8125q12.266 0 18.734-9.7031 6.4688-9.6875 6.4688-28.141 0-18.406-6.4688-28.109-6.4688-9.6875-18.734-9.6875-12.25 0-18.719 9.6875-6.4688 9.7031-6.4688 28.109 0 18.453 6.4688 28.141 6.4688 9.7031 18.719 9.7031z"/>
</defs>
<g transform="translate(431.88 453.96) scale(.1 -.1)">
<use xlink:href="#c"/>
<use x="63.623047" xlink:href="#e"/>
<use x="95.410156" xlink:href="#c"/>
<use x="159.033203" xlink:href="#ab"/>
</g>
</g>
<g clip-path="url(#a)">
<g transform="translate(669.99 199.28) scale(.1 -.1)">
<use xlink:href="#c"/>
<use x="63.623047" xlink:href="#e"/>
<use x="95.410156" xlink:href="#c"/>
<use x="159.033203" xlink:href="#c"/>
</g>
</g>
<g clip-path="url(#a)">
<g transform="translate(520.87 369.46) scale(.1 -.1)">
<use xlink:href="#c"/>
<use x="63.623047" xlink:href="#e"/>
<use x="95.410156" xlink:href="#c"/>
<use x="159.033203" xlink:href="#m"/>
</g>
</g>
<g clip-path="url(#a)">
<defs>
<path id="aa" d="m37.797 64.312-24.906-38.922h24.906zm-2.5938 8.5938h12.406v-47.516h10.406v-8.2031h-10.406v-17.188h-9.8125v17.188h-32.906v9.5156z"/>
</defs>
<g transform="translate(617.59 453.96) scale(.1 -.1)">
<use xlink:href="#c"/>
<use x="63.623047" xlink:href="#e"/>
<use x="95.410156" xlink:href="#c"/>
<use x="159.033203" xlink:href="#aa"/>
</g>
</g>
<g clip-path="url(#a)">
<defs>
<path id="ak" d="m10.797 72.906h38.719v-8.3125h-29.688v-17.859q2.1406 0.73438 4.2812 1.0938 2.1562 0.35938 4.3125 0.35938 12.203 0 19.328-6.6875 7.1406-6.6875 7.1406-18.109 0-11.766-7.3281-18.297-7.3281-6.5156-20.656-6.5156-4.5938 0-9.3594 0.78125-4.75 0.78125-9.8281 2.3438v9.9219q4.3906-2.3906 9.0781-3.5625t9.9062-1.1719q8.4531 0 13.375 4.4375 4.9375 4.4375 4.9375 12.062 0 7.6094-4.9375 12.047-4.9219 4.4531-13.375 4.4531-3.9531 0-7.8906-0.875-3.9219-0.875-8.0156-2.7344z"/>
</defs>
<g transform="translate(871.5 284.52) scale(.1 -.1)">
<use xlink:href="#c"/>
<use x="63.623047" xlink:href="#e"/>
<use x="95.410156" xlink:href="#c"/>
<use x="159.033203" xlink:href="#ak"/>
</g>
</g>
<g clip-path="url(#a)">
<g transform="translate(723.99 369.46) scale(.1 -.1)">
<use xlink:href="#c"/>
<use x="63.623047" xlink:href="#e"/>
<use x="95.410156" xlink:href="#c"/>
<use x="159.033203" xlink:href="#u"/>
</g>
</g>
<g clip-path="url(#a)">
<g transform="translate(838.13 453.96) scale(.1 -.1)">
<use xlink:href="#c"/>
<use x="63.623047" xlink:href="#e"/>
<use x="95.410156" xlink:href="#c"/>
<use x="159.033203" xlink:href="#z"/>
</g>
</g>
<g clip-path="url(#a)">
<g transform="translate(919.38 453.96) scale(.1 -.1)">
<use xlink:href="#c"/>
<use x="63.623047" xlink:href="#e"/>
<use x="95.410156" xlink:href="#c"/>
<use x="159.033203" xlink:href="#y"/>
</g>
</g>
<g clip-path="url(#a)">
<g transform="translate(687.24 453.96) scale(.1 -.1)">
<use xlink:href="#c"/>
<use x="63.623047" xlink:href="#e"/>
<use x="95.410156" xlink:href="#c"/>
<use x="159.033203" xlink:href="#x"/>
</g>
</g>
<g clip-path="url(#a)">
<g transform="translate(760.75 453.96) scale(.1 -.1)">
<use xlink:href="#c"/>
<use x="63.623047" xlink:href="#e"/>
<use x="95.410156" xlink:href="#n"/>
<use x="159.033203" xlink:href="#ab"/>
</g>
</g>
<g clip-path="url(#a)">
<g transform="translate(489.91 453.96) scale(.1 -.1)">
<use xlink:href="#c"/>
<use x="63.623047" xlink:href="#e"/>
<use x="95.410156" xlink:href="#n"/>
<use x="159.033203" xlink:href="#c"/>
</g>
</g>
<g clip-path="url(#a)">
<g transform="translate(551.82 453.96) scale(.1 -.1)">
<use xlink:href="#c"/>
<use x="63.623047" xlink:href="#e"/>
<use x="95.410156" xlink:href="#n"/>
<use x="159.033203" xlink:href="#n"/>
</g>
</g>
<g clip-path="url(#a)">
<g transform="translate(73.772 199.28) scale(.1 -.1)">
<use xlink:href="#c"/>
<use x="63.623047" xlink:href="#e"/>
<use x="95.410156" xlink:href="#n"/>
<use x="159.033203" xlink:href="#aa"/>
</g>
</g>
<g clip-path="url(#a)">
<g transform="translate(48.838 453.96) scale(.1 -.1)">
<use xlink:href="#c"/>
<use x="63.623047" xlink:href="#e"/>
<use x="95.410156" xlink:href="#n"/>
<use x="159.033203" xlink:href="#u"/>
</g>
</g>
<g clip-path="url(#a)">
<g transform="translate(64.314 453.96) scale(.1 -.1)">
<use xlink:href="#c"/>
<use x="63.623047" xlink:href="#e"/>
<use x="95.410156" xlink:href="#n"/>
<use x="159.033203" xlink:href="#z"/>
</g>
</g>
<g clip-path="url(#a)">
<g transform="translate(108.16 284.52) scale(.1 -.1)">
<use xlink:href="#c"/>
<use x="63.623047" xlink:href="#e"/>
<use x="95.410156" xlink:href="#n"/>
<use x="159.033203" xlink:href="#y"/>
</g>
</g>
<g clip-path="url(#a)">
<g transform="translate(83.66 453.96) scale(.1 -.1)">
<use xlink:href="#c"/>
<use x="63.623047" xlink:href="#e"/>
<use x="95.410156" xlink:href="#n"/>
<use x="159.033203" xlink:href="#x"/>
</g>
</g>
<g clip-path="url(#a)">
<g transform="translate(106.87 453.96) scale(.1 -.1)">
<use xlink:href="#c"/>
<use x="63.623047" xlink:href="#e"/>
<use x="95.410156" xlink:href="#m"/>
<use x="159.033203" xlink:href="#ab"/>
</g>
</g>
<g clip-path="url(#a)">
<g transform="translate(133.96 369.46) scale(.1 -.1)">
<use xlink:href="#c"/>
<use x="63.623047" xlink:href="#e"/>
<use x="95.410156" xlink:href="#m"/>
<use x="159.033203" xlink:href="#c"/>
</g>
</g>
<g clip-path="url(#a)">
<g transform="translate(133.96 453.96) scale(.1 -.1)">
<use xlink:href="#c"/>
<use x="63.623047" xlink:href="#e"/>
<use x="95.410156" xlink:href="#m"/>
<use x="159.033203" xlink:href="#n"/>
</g>
</g>
<g clip-path="url(#a)">
<g transform="translate(37.231 453.96) scale(.1 -.1)">
<use xlink:href="#c"/>
<use x="63.623047" xlink:href="#e"/>
<use x="95.410156" xlink:href="#m"/>
<use x="159.033203" xlink:href="#m"/>
</g>
</g>
<g clip-path="url(#a)">
<g transform="translate(164.91 453.96) scale(.1 -.1)">
<use xlink:href="#c"/>
<use x="63.623047" xlink:href="#e"/>
<use x="95.410156" xlink:href="#m"/>
<use x="159.033203" xlink:href="#aa"/>
</g>
</g>
<g clip-path="url(#a)">
<g transform="translate(238.42 453.96) scale(.1 -.1)">
<use xlink:href="#c"/>
<use x="63.623047" xlink:href="#e"/>
<use x="95.410156" xlink:href="#m"/>
<use x="159.033203" xlink:href="#ak"/>
</g>
</g>
<g clip-path="url(#a)">
<g transform="translate(1004.5 453.96) scale(.1 -.1)">
<use xlink:href="#c"/>
<use x="63.623047" xlink:href="#e"/>
<use x="95.410156" xlink:href="#m"/>
<use x="159.033203" xlink:href="#u"/>
</g>
</g>
<defs>
<clipPath id="a">
<rect width="1064" height="560"/>
</clipPath>
</defs>
</svg>
