<?xml version="1.0" encoding="UTF-8"?>
<!DOCTYPE svg  PUBLIC '-//W3C//DTD SVG 1.1//EN'  'http://www.w3.org/Graphics/SVG/1.1/DTD/svg11.dtd'>
<svg width="1216pt" height="640pt" version="1.1" viewBox="0 0 1216 640" xmlns="http://www.w3.org/2000/svg" xmlns:xlink="http://www.w3.org/1999/xlink">
<metadata>
<rdf:RDF xmlns:cc="http://creativecommons.org/ns#" xmlns:dc="http://purl.org/dc/elements/1.1/" xmlns:rdf="http://www.w3.org/1999/02/22-rdf-syntax-ns#">
<cc:Work>
<dc:type rdf:resource="http://purl.org/dc/dcmitype/StillImage"/>
<dc:date>2021-02-25T11:38:09.338547</dc:date>
<dc:format>image/svg+xml</dc:format>
<dc:creator>
<cc:Agent>
<dc:title>Matplotlib v3.3.3, https://matplotlib.org/</dc:title>
</cc:Agent>
</dc:creator>
</cc:Work>
</rdf:RDF>
</metadata>
<defs>
<style type="text/css">*{stroke-linecap:butt;stroke-linejoin:round;}</style>
</defs>
<path d="m0 640h1216v-640h-1216z" fill="#fff"/>
<g fill="none" stroke="#000">
<path d="m214.25 29.091-129.22 365.77" clip-path="url(#a)"/>
<path d="m214.25 29.091-35.813 365.77" clip-path="url(#a)"/>
<path d="m214.25 29.091 143.14 510.59" clip-path="url(#a)"/>
<path d="m214.25 29.091-3.4626 73.407" clip-path="url(#a)"/>
<path d="m214.25 29.091-73.148 510.59" clip-path="url(#a)"/>
<path d="m214.25 29.091 98.507 510.59" clip-path="url(#a)"/>
<path d="m85.026 394.86-24.604 144.82" clip-path="url(#a)"/>
<path d="m85.026 394.86 13.16 72.6" clip-path="url(#a)"/>
<path d="m85.026 394.86 11.444 144.82" clip-path="url(#a)"/>
<path d="m178.43 394.86 41.626 72.6" clip-path="url(#a)"/>
<path d="m178.43 394.86 21.028 144.82" clip-path="url(#a)"/>
<path d="m178.43 394.86 55.359 144.82" clip-path="url(#a)"/>
<path d="m178.43 394.86-118.01 144.82" clip-path="url(#a)" stroke-dasharray="3.7,1.6"/>
<path d="m357.38 539.68v71.231" clip-path="url(#a)"/>
<path d="m210.78 102.5 281.84 73.301" clip-path="url(#a)"/>
<path d="m210.78 102.5-150.36 437.18" clip-path="url(#a)" stroke-dasharray="3.7,1.6"/>
<path d="m210.78 102.5-131.48 437.18" clip-path="url(#a)" stroke-dasharray="3.7,1.6"/>
<path d="m492.63 175.8-87.18 363.88" clip-path="url(#a)"/>
<path d="m492.63 175.8 87.18 73.179" clip-path="url(#a)"/>
<path d="m405.45 539.68v71.231" clip-path="url(#a)"/>
<path d="m579.81 248.98-121.72 218.48" clip-path="url(#a)"/>
<path d="m579.81 248.98-9.5721 290.7" clip-path="url(#a)"/>
<path d="m579.81 248.98 131.29 73.032" clip-path="url(#a)"/>
<path d="m458.09 467.46-52.641 72.221" clip-path="url(#a)" stroke-dasharray="3.7,1.6"/>
<path d="m458.09 467.46-1.1444 72.221" clip-path="url(#a)"/>
<path d="m458.09 467.46 53.785 72.221" clip-path="url(#a)"/>
<path d="m570.24 539.68v71.231" clip-path="url(#a)"/>
<path d="m711.1 322.01-79.068 217.67" clip-path="url(#a)"/>
<path d="m711.1 322.01 37.657 72.847" clip-path="url(#a)"/>
<path d="m711.1 322.01 295.57 145.45" clip-path="url(#a)"/>
<path d="m711.1 322.01-254.16 217.67" clip-path="url(#a)" stroke-dasharray="3.7,1.6"/>
<path d="m632.03 539.68v71.231" clip-path="url(#a)"/>
<path d="m748.76 394.86-17.165 72.6" clip-path="url(#a)"/>
<path d="m748.76 394.86 17.165 144.82" clip-path="url(#a)"/>
<path d="m1006.7 467.46-168.65 72.221" clip-path="url(#a)"/>
<path d="m1006.7 467.46-53.642 72.221" clip-path="url(#a)"/>
<path d="m1006.7 467.46 68.233 72.221" clip-path="url(#a)"/>
<path d="m1006.7 467.46 154.06 72.221" clip-path="url(#a)"/>
<path d="m838.02 539.68v71.231" clip-path="url(#a)"/>
<path d="m953.03 539.68-39.481 71.231" clip-path="url(#a)"/>
<path d="m953.03 539.68 39.481 71.231" clip-path="url(#a)"/>
<path d="m1074.9 539.68v71.231" clip-path="url(#a)"/>
<path d="m731.59 467.46 34.331 72.221" clip-path="url(#a)" stroke-dasharray="3.7,1.6"/>
<path d="m731.59 467.46-34.331 72.221" clip-path="url(#a)"/>
<path d="m765.92 539.68v71.231" clip-path="url(#a)"/>
<path d="m697.26 539.68v71.231" clip-path="url(#a)"/>
<path d="m456.94 539.68v71.231" clip-path="url(#a)"/>
<path d="m511.87 539.68v71.231" clip-path="url(#a)"/>
<path d="m220.06 467.46-51.496 72.221" clip-path="url(#a)"/>
<path d="m220.06 467.46 51.496 72.221" clip-path="url(#a)"/>
<path d="m199.46 539.68v71.231" clip-path="url(#a)"/>
<path d="m233.79 539.68v71.231" clip-path="url(#a)"/>
<path d="m168.56 539.68v71.231" clip-path="url(#a)"/>
<path d="m271.56 539.68v71.231" clip-path="url(#a)"/>
<path d="m60.422 539.68-5.1496 71.231" clip-path="url(#a)"/>
<path d="m60.422 539.68 5.1496 71.231" clip-path="url(#a)"/>
<path d="m98.186 467.46-18.882 72.221" clip-path="url(#a)"/>
<path d="m98.186 467.46 18.882 72.221" clip-path="url(#a)"/>
<path d="m96.47 539.68v71.231" clip-path="url(#a)"/>
<path d="m79.304 539.68v71.231" clip-path="url(#a)"/>
<path d="m117.07 539.68v71.231" clip-path="url(#a)"/>
<path d="m141.1 539.68v71.231" clip-path="url(#a)"/>
<path d="m312.75 539.68v71.231" clip-path="url(#a)"/>
<path d="m1160.7 539.68v71.231" clip-path="url(#a)"/>
</g>
<path d="m154.55 216.9 2.0041-5.6726q0.79947-2.2629-1.4635-3.0624l-7.3003-2.5791q-2.2629-0.79947-3.0624 1.4635l-2.0041 5.6726q-0.79947 2.2629 1.4635 3.0624l7.3003 2.5791q2.2629 0.79947 3.0624-1.4635z" clip-path="url(#a)" fill="#fff" stroke="#fff"/>
<g clip-path="url(#a)">
<g transform="translate(150.72 215.55) rotate(-70.542) scale(.08 -.08)">
<defs>
<path id="r" d="m9.8125 72.906h9.8594v-29.891h35.844v29.891h9.8594v-72.906h-9.8594v34.719h-35.844v-34.719h-9.8594z"/>
</defs>
<use xlink:href="#r"/>
</g>
</g>
<path d="m202.29 215.58 0.58626-5.9876q0.23387-2.3886-2.1547-2.6224l-7.7057-0.75447q-2.3886-0.23387-2.6224 2.1547l-0.58626 5.9876q-0.23387 2.3886 2.1547 2.6224l7.7057 0.75447q2.3886 0.23387 2.6224-2.1547z" clip-path="url(#a)" fill="#fff" stroke="#fff"/>
<g clip-path="url(#a)">
<g transform="translate(198.24 215.18) rotate(-84.408) scale(.08 -.08)">
<use xlink:href="#r"/>
</g>
</g>
<path d="m279.18 283.93 1.2032 4.292q0.64784 2.3109 2.9587 1.6631l7.4551-2.0899q2.3109-0.64784 1.6631-2.9587l-1.2032-4.292q-0.64784-2.3109-2.9587-1.6631l-7.4551 2.0899q-2.3109 0.64784-1.6631 2.9587z" clip-path="url(#a)" fill="#fff" stroke="#fff"/>
<g clip-path="url(#a)">
<g transform="translate(283.09 282.83) rotate(74.34) scale(.08 -.08)">
<defs>
<path id="al" d="m9.8125 72.906h9.8594v-64.609h35.5v-8.2969h-45.359z"/>
</defs>
<use xlink:href="#al"/>
</g>
</g>
<path d="m218.64 69.094 0.28347-6.0096q0.11308-2.3973-2.2843-2.5104l-7.7339-0.3648q-2.3973-0.11308-2.5104 2.2843l-0.28347 6.0096q-0.11308 2.3973 2.2843 2.5104l7.7339 0.3648q2.3973 0.11308 2.5104-2.2843z" clip-path="url(#a)" fill="#fff" stroke="#fff"/>
<g clip-path="url(#a)">
<g transform="translate(214.58 68.903) rotate(-87.299) scale(.08 -.08)">
<use xlink:href="#r"/>
</g>
</g>
<path d="m183.47 288.17 0.83032-5.7958q0.34035-2.3757-2.0354-2.7161l-7.6642-1.098q-2.3757-0.34035-2.7161 2.0354l-0.83032 5.7958q-0.34035 2.3757 2.0354 2.7161l7.6642 1.098q2.3757 0.34035 2.7161-2.0354z" clip-path="url(#a)" fill="#fff" stroke="#fff"/>
<g clip-path="url(#a)">
<g transform="translate(179.44 287.6) rotate(-81.847) scale(.08 -.08)">
<defs>
<path id="ae" d="m8.6875 72.906h9.9219v-44.297q0-11.719 4.2344-16.875 4.25-5.1406 13.781-5.1406 9.4688 0 13.719 5.1406 4.25 5.1562 4.25 16.875v44.297h9.9062v-45.516q0-14.25-7.0625-21.531-7.0469-7.2812-20.812-7.2812-13.828 0-20.891 7.2812-7.0469 7.2812-7.0469 21.531z"/>
</defs>
<use xlink:href="#ae"/>
</g>
</g>
<path d="m256.79 282.7 1.1091 5.749q0.45464 2.3565 2.8112 1.9019l7.6023-1.4667q2.3565-0.45464 1.9019-2.8112l-1.1091-5.749q-0.45464-2.3565-2.8112-1.9019l-7.6023 1.4667q-2.3565 0.45464-1.9019 2.8112z" clip-path="url(#a)" fill="#fff" stroke="#fff"/>
<g clip-path="url(#a)">
<g transform="translate(260.78 281.93) rotate(79.08) scale(.08 -.08)">
<use xlink:href="#ae"/>
</g>
</g>
<path d="m78.449 471.02 0.91659-5.3952q0.40198-2.3661-1.9641-2.7681l-7.6331-1.2968q-2.3661-0.40198-2.7681 1.9641l-0.91659 5.3952q-0.40198 2.3661 1.9641 2.7681l7.6331 1.2968q2.3661 0.40198 2.7681-1.9641z" clip-path="url(#a)" fill="#fff" stroke="#fff"/>
<g clip-path="url(#a)">
<g transform="translate(74.442 470.33) rotate(-80.358) scale(.08 -.08)">
<defs>
<path id="o" d="m34.188 63.188-13.391-36.281h26.812zm-5.5781 9.7188h11.188l27.781-72.906h-10.25l-6.6406 18.703h-32.859l-6.6406-18.703h-10.406z"/>
</defs>
<use xlink:href="#o"/>
</g>
</g>
<path d="m84.128 425.78 2.3626 13.034q0.42807 2.3615 2.7896 1.9334l7.8717-1.4269q2.3615-0.42807 1.9334-2.7896l-2.3626-13.034q-0.42807-2.3615-2.7896-1.9334l-7.8717 1.4269q-2.3615 0.42807-1.9334 2.7896z" clip-path="url(#a)" fill="#fff" stroke="#fff"/>
<g clip-path="url(#a)">
<g transform="translate(88.345 425.02) rotate(79.726) scale(.08 -.08)">
<defs>
<path id="v" d="m53.516 70.516v-9.625q-5.6094 2.6875-10.594 4-4.9844 1.3281-9.625 1.3281-8.0469 0-12.422-3.125t-4.375-8.8906q0-4.8438 2.9062-7.3125 2.9062-2.4531 11.016-3.9688l5.9531-1.2188q11.031-2.1094 16.281-7.4062t5.25-14.172q0-10.609-7.1094-16.078-7.0938-5.4688-20.812-5.4688-5.1719 0-11.016 1.1719-5.8281 1.1719-12.078 3.4688v10.156q6-3.3594 11.766-5.0781 5.7656-1.7031 11.328-1.7031 8.4375 0 13.031 3.3125 4.5938 3.3281 4.5938 9.4844 0 5.3594-3.2969 8.3906t-10.812 4.5469l-6.0156 1.1719q-11.031 2.1875-15.969 6.875-4.9219 4.6875-4.9219 13.047 0 9.6719 6.8125 15.234t18.766 5.5625q5.1406 0 10.453-0.9375 5.3281-0.92188 10.891-2.7656z"/>
<path id="au" d="m21 76.422v-100h-8.2969v100z"/>
</defs>
<use xlink:href="#v"/>
<use x="63.476562" xlink:href="#au"/>
<use x="97.167969" xlink:href="#o"/>
</g>
</g>
<path d="m84.254 464.69 0.48524 6.1409q0.18906 2.3925 2.5816 2.2035l7.7184-0.6099q2.3925-0.18906 2.2035-2.5816l-0.48524-6.1409q-0.18906-2.3925-2.5816-2.2035l-7.7184 0.6099q-2.3925 0.18906-2.2035 2.5816z" clip-path="url(#a)" fill="#fff" stroke="#fff"/>
<g clip-path="url(#a)">
<g transform="translate(88.305 464.37) rotate(85.482) scale(.08 -.08)">
<defs>
<path id="w" d="m19.672 64.797v-56.688h11.922q15.094 0 22.094 6.8281 7 6.8438 7 21.594 0 14.641-7 21.453t-22.094 6.8125zm-9.8594 8.1094h20.266q21.188 0 31.094-8.8125 9.9219-8.8125 9.9219-27.562 0-18.859-9.9688-27.703-9.9531-8.8281-31.047-8.8281h-20.266z"/>
</defs>
<use xlink:href="#w"/>
</g>
</g>
<path d="m192.61 432.18 2.3993 4.1847q1.1938 2.082 3.2758 0.88828l6.7168-3.8511q2.082-1.1938 0.88828-3.2758l-2.3993-4.1847q-1.1938-2.082-3.2758-0.88828l-6.7168 3.8511q-2.082 1.1938-0.88828 3.2758z" clip-path="url(#a)" fill="#fff" stroke="#fff"/>
<g clip-path="url(#a)">
<g transform="translate(196.13 430.16) rotate(60.172) scale(.08 -.08)">
<defs>
<path id="af" d="m19.672 64.797v-27.391h12.406q6.8906 0 10.641 3.5625 3.7656 3.5625 3.7656 10.156 0 6.5469-3.7656 10.109-3.75 3.5625-10.641 3.5625zm-9.8594 8.1094h22.266q12.266 0 18.531-5.5469 6.2812-5.5469 6.2812-16.234 0-10.797-6.2812-16.312-6.2656-5.5156-18.531-5.5156h-12.406v-29.297h-9.8594z"/>
</defs>
<use xlink:href="#af"/>
</g>
</g>
<path d="m182.3 465.12 0.88513 6.0961q0.34486 2.3751 2.72 2.0302l7.6622-1.1125q2.3751-0.34486 2.0302-2.72l-0.88513-6.0961q-0.34486-2.3751-2.72-2.0302l-7.6622 1.1125q-2.3751 0.34486-2.0302 2.72z" clip-path="url(#a)" fill="#fff" stroke="#fff"/>
<g clip-path="url(#a)">
<g transform="translate(186.32 464.54) rotate(81.739) scale(.08 -.08)">
<use xlink:href="#w"/>
</g>
</g>
<path d="m199.28 466.95 1.954 5.1118q0.85694 2.2418 3.0987 1.3849l7.2321-2.7645q2.2418-0.85694 1.3849-3.0987l-1.954-5.1118q-0.85694-2.2418-3.0987-1.3849l-7.2321 2.7645q-2.2418 0.85693-1.3849 3.0987z" clip-path="url(#a)" fill="#fff" stroke="#fff"/>
<g clip-path="url(#a)">
<g transform="translate(203.08 465.5) rotate(69.08) scale(.08 -.08)">
<use xlink:href="#o"/>
</g>
</g>
<path d="m122.56 473.35 3.457-4.2423q1.5161-1.8605-0.34442-3.3766l-6.0021-4.891q-1.8605-1.5161-3.3766 0.34442l-3.457 4.2423q-1.5161 1.8605 0.34442 3.3766l6.0021 4.891q1.8605 1.5161 3.3766-0.34442z" clip-path="url(#a)" fill="#fff" stroke="#fff"/>
<g clip-path="url(#a)">
<g transform="translate(119.41 470.78) rotate(-50.824) scale(.08 -.08)">
<use xlink:href="#o"/>
</g>
</g>
<path d="m351.11 558.39v33.808q0 2.4 2.4 2.4h7.7425q2.4 0 2.4-2.4v-33.808q0-2.4-2.4-2.4h-7.7425q-2.4 0-2.4 2.4z" clip-path="url(#a)" fill="#fff" stroke="#fff"/>
<g clip-path="url(#a)">
<g transform="translate(355.18 558.39) rotate(90) scale(.08 -.08)">
<defs>
<path id="l" d="m-0.29688 72.906h61.672v-8.3125h-25.875v-64.594h-9.9062v64.594h-25.891z"/>
<path id="d" d="m56.203 29.594v-4.3906h-41.312q0.59375-9.2812 5.5938-14.141t13.938-4.8594q5.1719 0 10.031 1.2656t9.6562 3.8125v-8.5q-4.8438-2.0469-9.9219-3.125t-10.297-1.0781q-13.094 0-20.734 7.6094-7.6406 7.625-7.6406 20.625 0 13.422 7.25 21.297 7.25 7.8906 19.562 7.8906 11.031 0 17.453-7.1094 6.4219-7.0938 6.4219-19.297zm-8.9844 2.6406q-0.09375 7.3594-4.125 11.75-4.0312 4.4062-10.672 4.4062-7.5156 0-12.031-4.25t-5.2031-11.969z"/>
<path id="h" d="m41.109 46.297q-1.5156 0.875-3.2969 1.2812-1.7812 0.42188-3.9219 0.42188-7.625 0-11.703-4.9531t-4.0781-14.234v-28.812h-9.0312v54.688h9.0312v-8.5q2.8438 4.9844 7.375 7.3906 4.5469 2.4219 11.047 2.4219 0.92188 0 2.0469-0.125 1.125-0.10938 2.4844-0.35938z"/>
<path id="k" d="m52 44.188q3.375 6.0625 8.0625 8.9375t11.031 2.875q8.5469 0 13.188-5.9844 4.6406-5.9688 4.6406-17v-33.016h-9.0312v32.719q0 7.8594-2.7969 11.656-2.7812 3.8125-8.4844 3.8125-6.9844 0-11.047-4.6406-4.0469-4.625-4.0469-12.641v-30.906h-9.0312v32.719q0 7.9062-2.7812 11.688t-8.5938 3.7812q-6.8906 0-10.953-4.6562-4.0469-4.6562-4.0469-12.625v-30.906h-9.0312v54.688h9.0312v-8.5q3.0781 5.0312 7.375 7.4219t10.203 2.3906q5.9688 0 10.141-3.0312 4.1719-3.0156 6.1719-8.7812z"/>
<path id="g" d="m9.4219 54.688h8.9844v-54.688h-8.9844zm0 21.297h8.9844v-11.391h-8.9844z"/>
<path id="f" d="m54.891 33.016v-33.016h-8.9844v32.719q0 7.7656-3.0312 11.609-3.0312 3.8594-9.0781 3.8594-7.2812 0-11.484-4.6406-4.2031-4.625-4.2031-12.641v-30.906h-9.0312v54.688h9.0312v-8.5q3.2344 4.9375 7.5938 7.375 4.375 2.4375 10.094 2.4375 9.4219 0 14.25-5.8281 4.8438-5.8281 4.8438-17.156z"/>
<path id="j" d="m34.281 27.484q-10.891 0-15.094-2.4844t-4.2031-8.5q0-4.7812 3.1562-7.5938 3.1562-2.7969 8.5625-2.7969 7.4844 0 12 5.2969t4.5156 14.078v2zm17.922 3.7188v-31.203h-8.9844v8.2969q-3.0781-4.9688-7.6719-7.3438t-11.234-2.375q-8.3906 0-13.359 4.7188-4.9531 4.7188-4.9531 12.625 0 9.2188 6.1719 13.906 6.1875 4.6875 18.438 4.6875h12.609v0.89062q0 6.2031-4.0781 9.5938t-11.453 3.3906q-4.6875 0-9.1406-1.125-4.4375-1.125-8.5312-3.375v8.3125q4.9219 1.9062 9.5625 2.8438 4.6406 0.95312 9.0312 0.95312 11.875 0 17.734-6.1562 5.8594-6.1406 5.8594-18.641z"/>
<path id="i" d="m9.4219 75.984h8.9844v-75.984h-8.9844z"/>
</defs>
<use xlink:href="#l"/>
<use x="44.083984" xlink:href="#d"/>
<use x="105.607422" xlink:href="#h"/>
<use x="144.970703" xlink:href="#k"/>
<use x="242.382812" xlink:href="#g"/>
<use x="270.166016" xlink:href="#f"/>
<use x="333.544922" xlink:href="#j"/>
<use x="394.824219" xlink:href="#i"/>
</g>
</g>
<path d="m347.48 144.53 5.2963 1.3775q2.3227 0.60409 2.9268-1.7186l1.9488-7.4932q0.60409-2.3227-1.7186-2.9268l-5.2963-1.3775q-2.3227-0.60409-2.9268 1.7186l-1.9488 7.4932q-0.60409 2.3227 1.7186 2.9268z" clip-path="url(#a)" fill="#fff" stroke="#fff"/>
<g clip-path="url(#a)">
<g transform="translate(348.5 140.6) rotate(14.578) scale(.08 -.08)">
<use xlink:href="#o"/>
</g>
</g>
<path d="m140.64 325.72 1.7799-5.175q0.78057-2.2695-1.4889-3.0501l-7.3216-2.5182q-2.2695-0.78057-3.0501 1.4889l-1.7799 5.175q-0.78057 2.2695 1.4889 3.0501l7.3216 2.5182q2.2695 0.78057 3.0501-1.4889z" clip-path="url(#a)" fill="#fff" stroke="#fff"/>
<g clip-path="url(#a)">
<g transform="translate(136.8 324.39) rotate(-71.02) scale(.08 -.08)">
<use xlink:href="#o"/>
</g>
</g>
<path d="m150.32 325.33 1.4627-4.8636q0.69121-2.2983-1.6071-2.9895l-7.4144-2.2299q-2.2983-0.69121-2.9895 1.6071l-1.4627 4.8636q-0.69121 2.2983 1.6071 2.9895l7.4144 2.2299q2.2983 0.69121 2.9895-1.6071z" clip-path="url(#a)" fill="#fff" stroke="#fff"/>
<g clip-path="url(#a)">
<g transform="translate(146.43 324.16) rotate(-73.262) scale(.08 -.08)">
<use xlink:href="#v"/>
</g>
</g>
<path d="m454.49 361.92 1.3015-5.4325q0.55918-2.3339-1.7748-2.8931l-7.5294-1.8039q-2.3339-0.55918-2.8931 1.7748l-1.3015 5.4325q-0.55918 2.3339 1.7748 2.8931l7.5294 1.8039q2.3339 0.55918 2.8931-1.7748z" clip-path="url(#a)" fill="#fff" stroke="#fff"/>
<g clip-path="url(#a)">
<g transform="translate(450.53 360.97) rotate(-76.527) scale(.08 -.08)">
<defs>
<path id="s" d="m64.406 67.281v-10.391q-4.9844 4.6406-10.625 6.9219-5.6406 2.2969-11.984 2.2969-12.5 0-19.141-7.6406t-6.6406-22.094q0-14.406 6.6406-22.047t19.141-7.6406q6.3438 0 11.984 2.2969t10.625 6.9375v-10.312q-5.1719-3.5156-10.969-5.2812-5.7812-1.75-12.219-1.75-16.562 0-26.094 10.125-9.5156 10.141-9.5156 27.672 0 17.578 9.5156 27.703 9.5312 10.141 26.094 10.141 6.5312 0 12.312-1.7344 5.7969-1.7344 10.875-5.2031z"/>
</defs>
<use xlink:href="#s"/>
</g>
</g>
<path d="m530.25 215.57 3.8718 3.25q1.8382 1.543 3.3812-0.29523l4.9778-5.9302q1.543-1.8382-0.29522-3.3812l-3.8718-3.25q-1.8382-1.543-3.3812 0.29523l-4.9778 5.9302q-1.543 1.8382 0.29522 3.3812z" clip-path="url(#a)" fill="#fff" stroke="#fff"/>
<g clip-path="url(#a)">
<g transform="translate(532.86 212.45) rotate(40.01) scale(.08 -.08)">
<defs>
<path id="ag" d="m9.8125 72.906h46.094v-8.3125h-36.234v-21.578h34.719v-8.2969h-34.719v-26.422h37.109v-8.2969h-46.969z"/>
</defs>
<use xlink:href="#ag"/>
</g>
</g>
<path d="m399.18 558.39v33.808q0 2.4 2.4 2.4h7.7425q2.4 0 2.4-2.4v-33.808q0-2.4-2.4-2.4h-7.7425q-2.4 0-2.4 2.4z" clip-path="url(#a)" fill="#fff" stroke="#fff"/>
<g clip-path="url(#a)">
<g transform="translate(403.24 558.39) rotate(90) scale(.08 -.08)">
<use xlink:href="#l"/>
<use x="44.083984" xlink:href="#d"/>
<use x="105.607422" xlink:href="#h"/>
<use x="144.970703" xlink:href="#k"/>
<use x="242.382812" xlink:href="#g"/>
<use x="270.166016" xlink:href="#f"/>
<use x="333.544922" xlink:href="#j"/>
<use x="394.824219" xlink:href="#i"/>
</g>
</g>
<path d="m522.96 363.9 2.928-5.2556q1.1681-2.0966-0.92853-3.2646l-6.7637-3.7682q-2.0966-1.1681-3.2646 0.92853l-2.928 5.2556q-1.1681 2.0966 0.92853 3.2646l6.7637 3.7682q2.0966 1.1681 3.2646-0.92853z" clip-path="url(#a)" fill="#fff" stroke="#fff"/>
<g clip-path="url(#a)">
<g transform="translate(519.41 361.92) rotate(-60.877) scale(.08 -.08)">
<use xlink:href="#r"/>
</g>
</g>
<path d="m581.22 396.76 0.1467-4.4551q0.078984-2.3987-2.3197-2.4777l-7.7383-0.2548q-2.3987-0.078983-2.4777 2.3197l-0.1467 4.4551q-0.078984 2.3987 2.3197 2.4777l7.7383 0.2548q2.3987 0.078984 2.4777-2.3197z" clip-path="url(#a)" fill="#fff" stroke="#fff"/>
<g clip-path="url(#a)">
<g transform="translate(577.16 396.63) rotate(-88.114) scale(.08 -.08)">
<use xlink:href="#al"/>
</g>
</g>
<path d="m639.78 289.51 5.2576 2.9246q2.0974 1.1667 3.264-0.93069l3.7637-6.7662q1.1667-2.0974-0.93069-3.264l-5.2576-2.9246q-2.0974-1.1667-3.264 0.93069l-3.7637 6.7662q-1.1667 2.0974 0.93069 3.264z" clip-path="url(#a)" fill="#fff" stroke="#fff"/>
<g clip-path="url(#a)">
<g transform="translate(641.75 285.96) rotate(29.085) scale(.08 -.08)">
<use xlink:href="#r"/>
</g>
</g>
<path d="m435.22 509.47 3.2234-4.4224q1.4136-1.9395-0.52584-3.3531l-6.2569-4.5605q-1.9395-1.4136-3.3531 0.52584l-3.2234 4.4224q-1.4136 1.9395 0.52584 3.3531l6.2569 4.5605q1.9395 1.4136 3.3531-0.52584z" clip-path="url(#a)" fill="#fff" stroke="#fff"/>
<g clip-path="url(#a)">
<g transform="translate(431.94 507.08) rotate(-53.912) scale(.08 -.08)">
<use xlink:href="#o"/>
</g>
</g>
<path d="m463.74 506.4 0.086702-5.4718q0.038023-2.3997-2.3617-2.4377l-7.7415-0.12267q-2.3997-0.038024-2.4377 2.3617l-0.086702 5.4718q-0.038024 2.3997 2.3617 2.4377l7.7415 0.12267q2.3997 0.038024 2.4377-2.3617z" clip-path="url(#a)" fill="#fff" stroke="#fff"/>
<g clip-path="url(#a)">
<g transform="translate(459.68 506.34) rotate(-89.092) scale(.08 -.08)">
<use xlink:href="#o"/>
</g>
</g>
<path d="m478.51 505.38 2.8812 3.8688q1.4335 1.9249 3.3584 0.49137l6.2097-4.6245q1.9249-1.4335 0.49137-3.3584l-2.8812-3.8688q-1.4335-1.9249-3.3584-0.49137l-6.2097 4.6245q-1.9249 1.4335-0.49137 3.3584z" clip-path="url(#a)" fill="#fff" stroke="#fff"/>
<g clip-path="url(#a)">
<g transform="translate(481.77 502.95) rotate(53.324) scale(.08 -.08)">
<use xlink:href="#af"/>
</g>
</g>
<path d="m563.96 558.39v33.808q0 2.4 2.4 2.4h7.7425q2.4 0 2.4-2.4v-33.808q0-2.4-2.4-2.4h-7.7425q-2.4 0-2.4 2.4z" clip-path="url(#a)" fill="#fff" stroke="#fff"/>
<g clip-path="url(#a)">
<g transform="translate(568.03 558.39) rotate(90) scale(.08 -.08)">
<use xlink:href="#l"/>
<use x="44.083984" xlink:href="#d"/>
<use x="105.607422" xlink:href="#h"/>
<use x="144.970703" xlink:href="#k"/>
<use x="242.382812" xlink:href="#g"/>
<use x="270.166016" xlink:href="#f"/>
<use x="333.544922" xlink:href="#j"/>
<use x="394.824219" xlink:href="#i"/>
</g>
</g>
<path d="m676.41 435.88 2.1032-5.7898q0.81941-2.2558-1.4364-3.0752l-7.2773-2.6435q-2.2558-0.81941-3.0752 1.4364l-2.1032 5.7898q-0.81941 2.2558 1.4364 3.0752l7.2773 2.6435q2.2558 0.81941 3.0752-1.4364z" clip-path="url(#a)" fill="#fff" stroke="#fff"/>
<g clip-path="url(#a)">
<g transform="translate(672.59 434.49) rotate(-70.036) scale(.08 -.08)">
<use xlink:href="#w"/>
</g>
</g>
<path d="m723.1 358.88 2.513 4.8614q1.1021 2.132 3.2341 1.0299l6.8779-3.5554q2.132-1.1021 1.0299-3.2341l-2.513-4.8614q-1.1021-2.132-3.2341-1.0299l-6.8779 3.5554q-2.132 1.1021-1.0299 3.2341z" clip-path="url(#a)" fill="#fff" stroke="#fff"/>
<g clip-path="url(#a)">
<g transform="translate(726.71 357.02) rotate(62.664) scale(.08 -.08)">
<use xlink:href="#o"/>
</g>
</g>
<path d="m853.84 399.24 4.5569 2.2424q2.1534 1.0597 3.2131-1.0937l3.4186-6.9469q1.0597-2.1534-1.0937-3.2131l-4.5569-2.2424q-2.1534-1.0597-3.2131 1.0937l-3.4186 6.9469q-1.0597 2.1534 1.0937 3.2131z" clip-path="url(#a)" fill="#fff" stroke="#fff"/>
<g clip-path="url(#a)">
<g transform="translate(855.63 395.59) rotate(26.202) scale(.08 -.08)">
<use xlink:href="#v"/>
</g>
</g>
<path d="m586.02 437.39 4.1565-3.5598q1.8228-1.5612 0.26169-3.384l-5.0364-5.8806q-1.5612-1.8228-3.384-0.26169l-4.1565 3.5598q-1.8228 1.5612-0.26169 3.384l5.0364 5.8806q1.5612 1.8228 3.384 0.26169z" clip-path="url(#a)" fill="#fff" stroke="#fff"/>
<g clip-path="url(#a)">
<g transform="translate(583.38 434.3) rotate(-40.578) scale(.08 -.08)">
<use xlink:href="#o"/>
</g>
</g>
<path d="m625.76 558.39v33.808q0 2.4 2.4 2.4h7.7425q2.4 0 2.4-2.4v-33.808q0-2.4-2.4-2.4h-7.7425q-2.4 0-2.4 2.4z" clip-path="url(#a)" fill="#fff" stroke="#fff"/>
<g clip-path="url(#a)">
<g transform="translate(629.82 558.39) rotate(90) scale(.08 -.08)">
<use xlink:href="#l"/>
<use x="44.083984" xlink:href="#d"/>
<use x="105.607422" xlink:href="#h"/>
<use x="144.970703" xlink:href="#k"/>
<use x="242.382812" xlink:href="#g"/>
<use x="270.166016" xlink:href="#f"/>
<use x="333.544922" xlink:href="#j"/>
<use x="394.824219" xlink:href="#i"/>
</g>
</g>
<path d="m745.7 435.06 1.1631-4.9194q0.55222-2.3356-1.7834-2.8878l-7.5348-1.7815q-2.3356-0.55222-2.8878 1.7834l-1.1631 4.9194q-0.55222 2.3356 1.7834 2.8878l7.5348 1.7815q2.3356 0.55222 2.8878-1.7834z" clip-path="url(#a)" fill="#fff" stroke="#fff"/>
<g clip-path="url(#a)">
<g transform="translate(741.74 434.12) rotate(-76.697) scale(.08 -.08)">
<use xlink:href="#ag"/>
</g>
</g>
<path d="m750.78 465.23 0.65752 5.5474q0.28249 2.3833 2.6658 2.1008l7.6887-0.91132q2.3833-0.28249 2.1008-2.6658l-0.65752-5.5474q-0.28249-2.3833-2.6658-2.1008l-7.6887 0.91132q-2.3833 0.28249-2.1008 2.6658z" clip-path="url(#a)" fill="#fff" stroke="#fff"/>
<g clip-path="url(#a)">
<g transform="translate(754.82 464.75) rotate(83.24) scale(.08 -.08)">
<use xlink:href="#s"/>
</g>
</g>
<path d="m922.26 510.43 5.1099-2.1882q2.2062-0.94477 1.2614-3.151l-3.0479-7.1174q-0.94477-2.2062-3.151-1.2614l-5.1099 2.1882q-2.2062 0.94477-1.2614 3.151l3.0479 7.1174q0.94477 2.2062 3.151 1.2614z" clip-path="url(#a)" fill="#fff" stroke="#fff"/>
<g clip-path="url(#a)">
<g transform="translate(920.66 506.69) rotate(-23.182) scale(.08 -.08)">
<defs>
<path id="ar" d="m44.391 34.188q3.1719-1.0781 6.1719-4.5938t6.0312-9.6719l10.016-19.922h-10.609l-9.3125 18.703q-3.625 7.3281-7.0156 9.7188t-9.25 2.3906h-10.75v-30.812h-9.8594v72.906h22.266q12.5 0 18.656-5.2344 6.1562-5.2188 6.1562-15.766 0-6.8906-3.2031-11.438-3.2031-4.5312-9.2969-6.2812zm-24.719 30.609v-25.875h12.406q7.125 0 10.766 3.2969t3.6406 9.6875-3.6406 9.6406-10.766 3.25z"/>
</defs>
<use xlink:href="#ar"/>
</g>
</g>
<path d="m983.37 509.34 3.0141-4.0581q1.431-1.9267-0.49565-3.3577l-6.2156-4.6166q-1.9267-1.431-3.3577 0.49565l-3.0141 4.0581q-1.431 1.9267 0.49565 3.3577l6.2156 4.6166q1.9267 1.431 3.3577-0.49565z" clip-path="url(#a)" fill="#fff" stroke="#fff"/>
<g clip-path="url(#a)">
<g transform="translate(980.11 506.91) rotate(-53.397) scale(.08 -.08)">
<use xlink:href="#ag"/>
</g>
</g>
<path d="m1034.3 505.84 3.8363 4.0606q1.6482 1.7445 3.3927 0.096352l5.628-5.3172q1.7445-1.6482 0.096353-3.3927l-3.8363-4.0606q-1.6482-1.7445-3.3927-0.096352l-5.628 5.3172q-1.7445 1.6482-0.096353 3.3927z" clip-path="url(#a)" fill="#fff" stroke="#fff"/>
<g clip-path="url(#a)">
<g transform="translate(1037.3 503.05) rotate(46.627) scale(.08 -.08)">
<use xlink:href="#s"/>
</g>
</g>
<path d="m1078.4 508 5.3014 2.4852q2.1731 1.0187 3.1918-1.1544l3.2864-7.0104q1.0187-2.1731-1.1544-3.1918l-5.3014-2.4852q-2.1731-1.0187-3.1918 1.1544l-3.2864 7.0104q-1.0187 2.1731 1.1544 3.1918z" clip-path="url(#a)" fill="#fff" stroke="#fff"/>
<g clip-path="url(#a)">
<g transform="translate(1080.1 504.32) rotate(25.117) scale(.08 -.08)">
<use xlink:href="#ae"/>
</g>
</g>
<path d="m831.75 558.39v33.808q0 2.4 2.4 2.4h7.7425q2.4 0 2.4-2.4v-33.808q0-2.4-2.4-2.4h-7.7425q-2.4 0-2.4 2.4z" clip-path="url(#a)" fill="#fff" stroke="#fff"/>
<g clip-path="url(#a)">
<g transform="translate(835.81 558.39) rotate(90) scale(.08 -.08)">
<use xlink:href="#l"/>
<use x="44.083984" xlink:href="#d"/>
<use x="105.607422" xlink:href="#h"/>
<use x="144.970703" xlink:href="#k"/>
<use x="242.382812" xlink:href="#g"/>
<use x="270.166016" xlink:href="#f"/>
<use x="333.544922" xlink:href="#j"/>
<use x="394.824219" xlink:href="#i"/>
</g>
</g>
<path d="m930.58 593.12 16.389-29.569q1.1635-2.0991-0.93566-3.2626l-6.7719-3.7534q-2.0991-1.1635-3.2626 0.93566l-16.389 29.569q-1.1635 2.0991 0.93566 3.2626l6.7719 3.7534q2.0991 1.1635 3.2626-0.93566z" clip-path="url(#a)" fill="#fff" stroke="#fff"/>
<g clip-path="url(#a)">
<g transform="translate(927.02 591.15) rotate(-61.002) scale(.08 -.08)">
<use xlink:href="#l"/>
<use x="44.083984" xlink:href="#d"/>
<use x="105.607422" xlink:href="#h"/>
<use x="144.970703" xlink:href="#k"/>
<use x="242.382812" xlink:href="#g"/>
<use x="270.166016" xlink:href="#f"/>
<use x="333.544922" xlink:href="#j"/>
<use x="394.824219" xlink:href="#i"/>
</g>
</g>
<path d="m959.09 563.55 16.389 29.569q1.1635 2.0991 3.2626 0.93566l6.7719-3.7534q2.0991-1.1635 0.93566-3.2626l-16.389-29.569q-1.1635-2.0991-3.2626-0.93566l-6.7719 3.7534q-2.0991 1.1635-0.93566 3.2626z" clip-path="url(#a)" fill="#fff" stroke="#fff"/>
<g clip-path="url(#a)">
<g transform="translate(962.64 561.58) rotate(61.002) scale(.08 -.08)">
<use xlink:href="#l"/>
<use x="44.083984" xlink:href="#d"/>
<use x="105.607422" xlink:href="#h"/>
<use x="144.970703" xlink:href="#k"/>
<use x="242.382812" xlink:href="#g"/>
<use x="270.166016" xlink:href="#f"/>
<use x="333.544922" xlink:href="#j"/>
<use x="394.824219" xlink:href="#i"/>
</g>
</g>
<path d="m1068.6 558.39v33.808q0 2.4 2.4 2.4h7.7425q2.4 0 2.4-2.4v-33.808q0-2.4-2.4-2.4h-7.7425q-2.4 0-2.4 2.4z" clip-path="url(#a)" fill="#fff" stroke="#fff"/>
<g clip-path="url(#a)">
<g transform="translate(1072.7 558.39) rotate(90) scale(.08 -.08)">
<use xlink:href="#l"/>
<use x="44.083984" xlink:href="#d"/>
<use x="105.607422" xlink:href="#h"/>
<use x="144.970703" xlink:href="#k"/>
<use x="242.382812" xlink:href="#g"/>
<use x="270.166016" xlink:href="#f"/>
<use x="333.544922" xlink:href="#j"/>
<use x="394.824219" xlink:href="#i"/>
</g>
</g>
<path d="m741.92 503.79 2.3494 4.9425q1.0304 2.1676 3.1979 1.1372l6.9927-3.324q2.1676-1.0304 1.1372-3.1979l-2.3494-4.9425q-1.0304-2.1676-3.1979-1.1372l-6.9927 3.324q-2.1676 1.0304-1.1372 3.1979z" clip-path="url(#a)" fill="#fff" stroke="#fff"/>
<g clip-path="url(#a)">
<g transform="translate(745.59 502.04) rotate(64.576) scale(.08 -.08)">
<use xlink:href="#o"/>
</g>
</g>
<path d="m719 508.55 2.1804-4.5869q1.0304-2.1676-1.1372-3.1979l-6.9927-3.324q-2.1676-1.0304-3.1979 1.1372l-2.1804 4.5869q-1.0304 2.1676 1.1372 3.1979l6.9927 3.324q2.1676 1.0304 3.1979-1.1372z" clip-path="url(#a)" fill="#fff" stroke="#fff"/>
<g clip-path="url(#a)">
<g transform="translate(715.33 506.81) rotate(-64.576) scale(.08 -.08)">
<use xlink:href="#v"/>
</g>
</g>
<path d="m759.65 558.39v33.808q0 2.4 2.4 2.4h7.7425q2.4 0 2.4-2.4v-33.808q0-2.4-2.4-2.4h-7.7425q-2.4 0-2.4 2.4z" clip-path="url(#a)" fill="#fff" stroke="#fff"/>
<g clip-path="url(#a)">
<g transform="translate(763.71 558.39) rotate(90) scale(.08 -.08)">
<use xlink:href="#l"/>
<use x="44.083984" xlink:href="#d"/>
<use x="105.607422" xlink:href="#h"/>
<use x="144.970703" xlink:href="#k"/>
<use x="242.382812" xlink:href="#g"/>
<use x="270.166016" xlink:href="#f"/>
<use x="333.544922" xlink:href="#j"/>
<use x="394.824219" xlink:href="#i"/>
</g>
</g>
<path d="m690.99 558.39v33.808q0 2.4 2.4 2.4h7.7425q2.4 0 2.4-2.4v-33.808q0-2.4-2.4-2.4h-7.7425q-2.4 0-2.4 2.4z" clip-path="url(#a)" fill="#fff" stroke="#fff"/>
<g clip-path="url(#a)">
<g transform="translate(695.05 558.39) rotate(90) scale(.08 -.08)">
<use xlink:href="#l"/>
<use x="44.083984" xlink:href="#d"/>
<use x="105.607422" xlink:href="#h"/>
<use x="144.970703" xlink:href="#k"/>
<use x="242.382812" xlink:href="#g"/>
<use x="270.166016" xlink:href="#f"/>
<use x="333.544922" xlink:href="#j"/>
<use x="394.824219" xlink:href="#i"/>
</g>
</g>
<path d="m450.67 558.39v33.808q0 2.4 2.4 2.4h7.7425q2.4 0 2.4-2.4v-33.808q0-2.4-2.4-2.4h-7.7425q-2.4 0-2.4 2.4z" clip-path="url(#a)" fill="#fff" stroke="#fff"/>
<g clip-path="url(#a)">
<g transform="translate(454.74 558.39) rotate(90) scale(.08 -.08)">
<use xlink:href="#l"/>
<use x="44.083984" xlink:href="#d"/>
<use x="105.607422" xlink:href="#h"/>
<use x="144.970703" xlink:href="#k"/>
<use x="242.382812" xlink:href="#g"/>
<use x="270.166016" xlink:href="#f"/>
<use x="333.544922" xlink:href="#j"/>
<use x="394.824219" xlink:href="#i"/>
</g>
</g>
<path d="m505.6 558.39v33.808q0 2.4 2.4 2.4h7.7425q2.4 0 2.4-2.4v-33.808q0-2.4-2.4-2.4h-7.7425q-2.4 0-2.4 2.4z" clip-path="url(#a)" fill="#fff" stroke="#fff"/>
<g clip-path="url(#a)">
<g transform="translate(509.67 558.39) rotate(90) scale(.08 -.08)">
<use xlink:href="#l"/>
<use x="44.083984" xlink:href="#d"/>
<use x="105.607422" xlink:href="#h"/>
<use x="144.970703" xlink:href="#k"/>
<use x="242.382812" xlink:href="#g"/>
<use x="270.166016" xlink:href="#f"/>
<use x="333.544922" xlink:href="#j"/>
<use x="394.824219" xlink:href="#i"/>
</g>
</g>
<path d="m198.08 509.08 2.6713-3.7464q1.3934-1.9541-0.56076-3.3475l-6.3041-4.495q-1.9541-1.3934-3.3475 0.56077l-2.6713 3.7464q-1.3934 1.9541 0.56077 3.3475l6.3041 4.495q1.9541 1.3934 3.3475-0.56077z" clip-path="url(#a)" fill="#fff" stroke="#fff"/>
<g clip-path="url(#a)">
<g transform="translate(194.77 506.72) rotate(-54.51) scale(.08 -.08)">
<defs>
<path id="am" d="m9.8125 72.906h41.891v-8.3125h-32.031v-21.484h28.906v-8.2969h-28.906v-34.812h-9.8594z"/>
</defs>
<use xlink:href="#am"/>
</g>
</g>
<path d="m239.08 504.93 3.2432 4.5484q1.3934 1.9541 3.3475 0.56077l6.3041-4.495q1.9541-1.3934 0.56076-3.3475l-3.2432-4.5484q-1.3934-1.9541-3.3475-0.56077l-6.3041 4.495q-1.9541 1.3934-0.56077 3.3475z" clip-path="url(#a)" fill="#fff" stroke="#fff"/>
<g clip-path="url(#a)">
<g transform="translate(242.39 502.58) rotate(54.51) scale(.08 -.08)">
<use xlink:href="#s"/>
</g>
</g>
<path d="m193.19 558.39v33.808q0 2.4 2.4 2.4h7.7425q2.4 0 2.4-2.4v-33.808q0-2.4-2.4-2.4h-7.7425q-2.4 0-2.4 2.4z" clip-path="url(#a)" fill="#fff" stroke="#fff"/>
<g clip-path="url(#a)">
<g transform="translate(197.25 558.39) rotate(90) scale(.08 -.08)">
<use xlink:href="#l"/>
<use x="44.083984" xlink:href="#d"/>
<use x="105.607422" xlink:href="#h"/>
<use x="144.970703" xlink:href="#k"/>
<use x="242.382812" xlink:href="#g"/>
<use x="270.166016" xlink:href="#f"/>
<use x="333.544922" xlink:href="#j"/>
<use x="394.824219" xlink:href="#i"/>
</g>
</g>
<path d="m227.52 558.39v33.808q0 2.4 2.4 2.4h7.7425q2.4 0 2.4-2.4v-33.808q0-2.4-2.4-2.4h-7.7425q-2.4 0-2.4 2.4z" clip-path="url(#a)" fill="#fff" stroke="#fff"/>
<g clip-path="url(#a)">
<g transform="translate(231.59 558.39) rotate(90) scale(.08 -.08)">
<use xlink:href="#l"/>
<use x="44.083984" xlink:href="#d"/>
<use x="105.607422" xlink:href="#h"/>
<use x="144.970703" xlink:href="#k"/>
<use x="242.382812" xlink:href="#g"/>
<use x="270.166016" xlink:href="#f"/>
<use x="333.544922" xlink:href="#j"/>
<use x="394.824219" xlink:href="#i"/>
</g>
</g>
<path d="m162.29 558.39v33.808q0 2.4 2.4 2.4h7.7425q2.4 0 2.4-2.4v-33.808q0-2.4-2.4-2.4h-7.7425q-2.4 0-2.4 2.4z" clip-path="url(#a)" fill="#fff" stroke="#fff"/>
<g clip-path="url(#a)">
<g transform="translate(166.36 558.39) rotate(90) scale(.08 -.08)">
<use xlink:href="#l"/>
<use x="44.083984" xlink:href="#d"/>
<use x="105.607422" xlink:href="#h"/>
<use x="144.970703" xlink:href="#k"/>
<use x="242.382812" xlink:href="#g"/>
<use x="270.166016" xlink:href="#f"/>
<use x="333.544922" xlink:href="#j"/>
<use x="394.824219" xlink:href="#i"/>
</g>
</g>
<path d="m265.29 558.39v33.808q0 2.4 2.4 2.4h7.7425q2.4 0 2.4-2.4v-33.808q0-2.4-2.4-2.4h-7.7425q-2.4 0-2.4 2.4z" clip-path="url(#a)" fill="#fff" stroke="#fff"/>
<g clip-path="url(#a)">
<g transform="translate(269.35 558.39) rotate(90) scale(.08 -.08)">
<use xlink:href="#l"/>
<use x="44.083984" xlink:href="#d"/>
<use x="105.607422" xlink:href="#h"/>
<use x="144.970703" xlink:href="#k"/>
<use x="242.382812" xlink:href="#g"/>
<use x="270.166016" xlink:href="#f"/>
<use x="333.544922" xlink:href="#j"/>
<use x="394.824219" xlink:href="#i"/>
</g>
</g>
<path d="m62.884 592.61 2.4378-33.719q0.17306-2.3938-2.2207-2.5668l-7.7223-0.55829q-2.3938-0.17306-2.5668 2.2207l-2.4378 33.719q-0.17306 2.3938 2.2207 2.5668l7.7223 0.55829q2.3938 0.17306 2.5668-2.2207z" clip-path="url(#a)" fill="#fff" stroke="#fff"/>
<g clip-path="url(#a)">
<g transform="translate(58.83 592.31) rotate(-85.865) scale(.08 -.08)">
<use xlink:href="#l"/>
<use x="44.083984" xlink:href="#d"/>
<use x="105.607422" xlink:href="#h"/>
<use x="144.970703" xlink:href="#k"/>
<use x="242.382812" xlink:href="#g"/>
<use x="270.166016" xlink:href="#f"/>
<use x="333.544922" xlink:href="#j"/>
<use x="394.824219" xlink:href="#i"/>
</g>
</g>
<path d="m55.523 558.89 2.4378 33.719q0.17306 2.3938 2.5668 2.2207l7.7223-0.55829q2.3938-0.17306 2.2207-2.5668l-2.4378-33.719q-0.17306-2.3938-2.5668-2.2207l-7.7223 0.55829q-2.3938 0.17306-2.2207 2.5668z" clip-path="url(#a)" fill="#fff" stroke="#fff"/>
<g clip-path="url(#a)">
<g transform="translate(59.577 558.59) rotate(85.865) scale(.08 -.08)">
<use xlink:href="#l"/>
<use x="44.083984" xlink:href="#d"/>
<use x="105.607422" xlink:href="#h"/>
<use x="144.970703" xlink:href="#k"/>
<use x="242.382812" xlink:href="#g"/>
<use x="270.166016" xlink:href="#f"/>
<use x="333.544922" xlink:href="#j"/>
<use x="394.824219" xlink:href="#i"/>
</g>
</g>
<path d="m94.231 507.38 1.1639-4.4516q0.60706-2.322-1.7149-2.929l-7.4907-1.9584q-2.322-0.60706-2.929 1.7149l-1.1639 4.4516q-0.60706 2.322 1.7149 2.929l7.4907 1.9584q2.322 0.60706 2.929-1.7149z" clip-path="url(#a)" fill="#fff" stroke="#fff"/>
<g clip-path="url(#a)">
<g transform="translate(90.299 506.35) rotate(-75.348) scale(.08 -.08)">
<use xlink:href="#am"/>
</g>
</g>
<path d="m100.85 502.45 1.413 5.4046q0.60706 2.322 2.929 1.7149l7.4907-1.9584q2.322-0.60706 1.7149-2.929l-1.413-5.4046q-0.60706-2.322-2.929-1.7149l-7.4907 1.9584q-2.322 0.60706-1.7149 2.929z" clip-path="url(#a)" fill="#fff" stroke="#fff"/>
<g clip-path="url(#a)">
<g transform="translate(104.79 501.42) rotate(75.348) scale(.08 -.08)">
<use xlink:href="#s"/>
</g>
</g>
<path d="m90.199 558.39v33.808q0 2.4 2.4 2.4h7.7425q2.4 0 2.4-2.4v-33.808q0-2.4-2.4-2.4h-7.7425q-2.4 0-2.4 2.4z" clip-path="url(#a)" fill="#fff" stroke="#fff"/>
<g clip-path="url(#a)">
<g transform="translate(94.262 558.39) rotate(90) scale(.08 -.08)">
<use xlink:href="#l"/>
<use x="44.083984" xlink:href="#d"/>
<use x="105.607422" xlink:href="#h"/>
<use x="144.970703" xlink:href="#k"/>
<use x="242.382812" xlink:href="#g"/>
<use x="270.166016" xlink:href="#f"/>
<use x="333.544922" xlink:href="#j"/>
<use x="394.824219" xlink:href="#i"/>
</g>
</g>
<path d="m73.033 558.39v33.808q0 2.4 2.4 2.4h7.7425q2.4 0 2.4-2.4v-33.808q0-2.4-2.4-2.4h-7.7425q-2.4 0-2.4 2.4z" clip-path="url(#a)" fill="#fff" stroke="#fff"/>
<g clip-path="url(#a)">
<g transform="translate(77.097 558.39) rotate(90) scale(.08 -.08)">
<use xlink:href="#l"/>
<use x="44.083984" xlink:href="#d"/>
<use x="105.607422" xlink:href="#h"/>
<use x="144.970703" xlink:href="#k"/>
<use x="242.382812" xlink:href="#g"/>
<use x="270.166016" xlink:href="#f"/>
<use x="333.544922" xlink:href="#j"/>
<use x="394.824219" xlink:href="#i"/>
</g>
</g>
<path d="m110.8 558.39v33.808q0 2.4 2.4 2.4h7.7425q2.4 0 2.4-2.4v-33.808q0-2.4-2.4-2.4h-7.7425q-2.4 0-2.4 2.4z" clip-path="url(#a)" fill="#fff" stroke="#fff"/>
<g clip-path="url(#a)">
<g transform="translate(114.86 558.39) rotate(90) scale(.08 -.08)">
<use xlink:href="#l"/>
<use x="44.083984" xlink:href="#d"/>
<use x="105.607422" xlink:href="#h"/>
<use x="144.970703" xlink:href="#k"/>
<use x="242.382812" xlink:href="#g"/>
<use x="270.166016" xlink:href="#f"/>
<use x="333.544922" xlink:href="#j"/>
<use x="394.824219" xlink:href="#i"/>
</g>
</g>
<path d="m134.83 558.39v33.808q0 2.4 2.4 2.4h7.7425q2.4 0 2.4-2.4v-33.808q0-2.4-2.4-2.4h-7.7425q-2.4 0-2.4 2.4z" clip-path="url(#a)" fill="#fff" stroke="#fff"/>
<g clip-path="url(#a)">
<g transform="translate(138.89 558.39) rotate(90) scale(.08 -.08)">
<use xlink:href="#l"/>
<use x="44.083984" xlink:href="#d"/>
<use x="105.607422" xlink:href="#h"/>
<use x="144.970703" xlink:href="#k"/>
<use x="242.382812" xlink:href="#g"/>
<use x="270.166016" xlink:href="#f"/>
<use x="333.544922" xlink:href="#j"/>
<use x="394.824219" xlink:href="#i"/>
</g>
</g>
<path d="m306.48 558.39v33.808q0 2.4 2.4 2.4h7.7425q2.4 0 2.4-2.4v-33.808q0-2.4-2.4-2.4h-7.7425q-2.4 0-2.4 2.4z" clip-path="url(#a)" fill="#fff" stroke="#fff"/>
<g clip-path="url(#a)">
<g transform="translate(310.55 558.39) rotate(90) scale(.08 -.08)">
<use xlink:href="#l"/>
<use x="44.083984" xlink:href="#d"/>
<use x="105.607422" xlink:href="#h"/>
<use x="144.970703" xlink:href="#k"/>
<use x="242.382812" xlink:href="#g"/>
<use x="270.166016" xlink:href="#f"/>
<use x="333.544922" xlink:href="#j"/>
<use x="394.824219" xlink:href="#i"/>
</g>
</g>
<path d="m1154.5 558.39v33.808q0 2.4 2.4 2.4h7.7425q2.4 0 2.4-2.4v-33.808q0-2.4-2.4-2.4h-7.7425q-2.4 0-2.4 2.4z" clip-path="url(#a)" fill="#fff" stroke="#fff"/>
<g clip-path="url(#a)">
<g transform="translate(1158.5 558.39) rotate(90) scale(.08 -.08)">
<use xlink:href="#l"/>
<use x="44.083984" xlink:href="#d"/>
<use x="105.607422" xlink:href="#h"/>
<use x="144.970703" xlink:href="#k"/>
<use x="242.382812" xlink:href="#g"/>
<use x="270.166016" xlink:href="#f"/>
<use x="333.544922" xlink:href="#j"/>
<use x="394.824219" xlink:href="#i"/>
</g>
</g>
<defs>
<path id="b" d="m0 8.6603c2.2967 0 4.4997-0.9125 6.1237-2.5365 1.624-1.624 2.5365-3.827 2.5365-6.1237s-0.9125-4.4997-2.5365-6.1237c-1.624-1.624-3.827-2.5365-6.1237-2.5365s-4.4997 0.9125-6.1237 2.5365c-1.624 1.624-2.5365 3.827-2.5365 6.1237s0.9125 4.4997 2.5365 6.1237c1.624 1.624 3.827 2.5365 6.1237 2.5365z"/>
</defs>
<g clip-path="url(#a)" fill="#ffffff" stroke="#ffffff">
<use x="55.272727" y="610.909091" xlink:href="#b"/>
<use x="65.571993" y="610.909091" xlink:href="#b"/>
<use x="79.304348" y="610.909091" xlink:href="#b"/>
<use x="96.469791" y="610.909091" xlink:href="#b"/>
<use x="117.068323" y="610.909091" xlink:href="#b"/>
<use x="141.099944" y="610.909091" xlink:href="#b"/>
<use x="168.564653" y="610.909091" xlink:href="#b"/>
<use x="199.462451" y="610.909091" xlink:href="#b"/>
<use x="233.793337" y="610.909091" xlink:href="#b"/>
<use x="271.557312" y="610.909091" xlink:href="#b"/>
<use x="312.754376" y="610.909091" xlink:href="#b"/>
<use x="357.384529" y="610.909091" xlink:href="#b"/>
<use x="405.44777" y="610.909091" xlink:href="#b"/>
<use x="456.944099" y="610.909091" xlink:href="#b"/>
<use x="511.873518" y="610.909091" xlink:href="#b"/>
<use x="570.236025" y="610.909091" xlink:href="#b"/>
<use x="632.031621" y="610.909091" xlink:href="#b"/>
<use x="697.260305" y="610.909091" xlink:href="#b"/>
<use x="765.922078" y="610.909091" xlink:href="#b"/>
<use x="838.01694" y="610.909091" xlink:href="#b"/>
<use x="913.54489" y="610.909091" xlink:href="#b"/>
<use x="992.505929" y="610.909091" xlink:href="#b"/>
<use x="1074.900056" y="610.909091" xlink:href="#b"/>
<use x="1160.727273" y="610.909091" xlink:href="#b"/>
<use x="214.247447" y="29.090909" xlink:href="#b"/>
<use x="85.026162" y="394.856803" xlink:href="#b"/>
<use x="178.434783" y="394.856803" xlink:href="#b"/>
<use x="357.384529" y="539.678524" xlink:href="#b"/>
<use x="210.784888" y="102.497524" xlink:href="#b"/>
<use x="492.627957" y="175.798991" xlink:href="#b"/>
<use x="405.44777" y="539.678524" xlink:href="#b"/>
<use x="579.808144" y="248.977821" xlink:href="#b"/>
<use x="458.088462" y="467.457061" xlink:href="#b"/>
<use x="570.236025" y="539.678524" xlink:href="#b"/>
<use x="711.099944" y="322.009456" xlink:href="#b"/>
<use x="632.031621" y="539.678524" xlink:href="#b"/>
<use x="748.756635" y="394.856803" xlink:href="#b"/>
<use x="1006.66742" y="467.457061" xlink:href="#b"/>
<use x="838.01694" y="539.678524" xlink:href="#b"/>
<use x="953.025409" y="539.678524" xlink:href="#b"/>
<use x="1074.900056" y="539.678524" xlink:href="#b"/>
<use x="731.591191" y="467.457061" xlink:href="#b"/>
<use x="765.922078" y="539.678524" xlink:href="#b"/>
<use x="697.260305" y="539.678524" xlink:href="#b"/>
<use x="456.944099" y="539.678524" xlink:href="#b"/>
<use x="511.873518" y="539.678524" xlink:href="#b"/>
<use x="220.060982" y="467.457061" xlink:href="#b"/>
<use x="199.462451" y="539.678524" xlink:href="#b"/>
<use x="233.793337" y="539.678524" xlink:href="#b"/>
<use x="168.564653" y="539.678524" xlink:href="#b"/>
<use x="271.557312" y="539.678524" xlink:href="#b"/>
<use x="60.42236" y="539.678524" xlink:href="#b"/>
<use x="98.186335" y="467.457061" xlink:href="#b"/>
<use x="96.469791" y="539.678524" xlink:href="#b"/>
<use x="79.304348" y="539.678524" xlink:href="#b"/>
<use x="117.068323" y="539.678524" xlink:href="#b"/>
<use x="141.099944" y="539.678524" xlink:href="#b"/>
<use x="312.754376" y="539.678524" xlink:href="#b"/>
<use x="1160.727273" y="539.678524" xlink:href="#b"/>
</g>
<g clip-path="url(#a)">
<g transform="translate(44.798 613.67) scale(.1 -.1)">
<defs>
<path id="q" d="m18.312 70.219v-15.531h18.5v-6.9844h-18.5v-29.688q0-6.6875 1.8281-8.5938t7.4531-1.9062h9.2188v-7.5156h-9.2188q-10.406 0-14.359 3.875-3.9531 3.8906-3.9531 14.141v29.688h-6.5938v6.9844h6.5938v15.531z"/>
<path id="t" d="m44.281 53.078v-8.5q-3.7969 1.9531-7.9062 2.9219-4.0938 0.98438-8.5 0.98438-6.6875 0-10.031-2.0469t-3.3438-6.1562q0-3.125 2.3906-4.9062t9.625-3.3906l3.0781-0.6875q9.5625-2.0469 13.594-5.7812t4.0312-10.422q0-7.625-6.0312-12.078-6.0312-4.4375-16.578-4.4375-4.3906 0-9.1562 0.85938t-10.031 2.5625v9.2812q4.9844-2.5938 9.8125-3.8906 4.8281-1.2812 9.5781-1.2812 6.3438 0 9.75 2.1719 3.4219 2.1719 3.4219 6.125 0 3.6562-2.4688 5.6094-2.4531 1.9531-10.812 3.7656l-3.125 0.73438q-8.3438 1.75-12.062 5.3906-3.7031 3.6406-3.7031 9.9844 0 7.7188 5.4688 11.906 5.4688 4.2031 15.531 4.2031 4.9688 0 9.3594-0.73438 4.4062-0.71875 8.1094-2.1875z"/>
</defs>
<use xlink:href="#af"/>
<use x="56.677734" xlink:href="#d"/>
<use x="118.201172" xlink:href="#q"/>
<use x="157.410156" xlink:href="#t"/>
</g>
</g>
<g clip-path="url(#a)">
<g transform="translate(43.622 613.67) scale(.1 -.1)">
<defs>
<path id="ad" d="m48.781 52.594v-8.4062q-3.8125 2.1094-7.6406 3.1562t-7.7344 1.0469q-8.75 0-13.594-5.5469-4.8281-5.5312-4.8281-15.547t4.8281-15.562q4.8438-5.5312 13.594-5.5312 3.9062 0 7.7344 1.0469t7.6406 3.1562v-8.3125q-3.7656-1.75-7.7969-2.625-4.0156-0.89062-8.5625-0.89062-12.359 0-19.641 7.7656-7.2656 7.7656-7.2656 20.953 0 13.375 7.3438 21.031 7.3594 7.6719 20.156 7.6719 4.1406 0 8.0938-0.85938 3.9531-0.84375 7.6719-2.5469z"/>
<path id="p" d="m30.609 48.391q-7.2188 0-11.422-5.6406t-4.2031-15.453 4.1719-15.453q4.1875-5.6406 11.453-5.6406 7.1875 0 11.375 5.6562 4.2031 5.6719 4.2031 15.438 0 9.7188-4.2031 15.406-4.1875 5.6875-11.375 5.6875zm0 7.6094q11.719 0 18.406-7.625 6.7031-7.6094 6.7031-21.078 0-13.422-6.7031-21.078-6.6875-7.6406-18.406-7.6406-11.766 0-18.438 7.6406-6.6562 7.6562-6.6562 21.078 0 13.469 6.6562 21.078 6.6719 7.625 18.438 7.625z"/>
<path id="ap" d="m8.5 21.578v33.109h8.9844v-32.766q0-7.7656 3.0156-11.656 3.0312-3.875 9.0938-3.875 7.2656 0 11.484 4.6406 4.2344 4.6406 4.2344 12.656v31h8.9844v-54.688h-8.9844v8.4062q-3.2656-4.9844-7.5938-7.4062-4.3125-2.4219-10.031-2.4219-9.4219 0-14.312 5.8594-4.875 5.8594-4.875 17.141z"/>
</defs>
<use xlink:href="#w"/>
<use x="77.001953" xlink:href="#g"/>
<use x="104.785156" xlink:href="#t"/>
<use x="156.884766" xlink:href="#ad"/>
<use x="211.865234" xlink:href="#p"/>
<use x="273.046875" xlink:href="#ap"/>
<use x="336.425781" xlink:href="#f"/>
<use x="399.804688" xlink:href="#q"/>
</g>
</g>
<g clip-path="url(#a)">
<g transform="translate(70.467 613.67) scale(.1 -.1)">
<defs>
<path id="aq" d="m54.891 33.016v-33.016h-8.9844v32.719q0 7.7656-3.0312 11.609-3.0312 3.8594-9.0781 3.8594-7.2812 0-11.484-4.6406-4.2031-4.625-4.2031-12.641v-30.906h-9.0312v75.984h9.0312v-29.797q3.2344 4.9375 7.5938 7.375 4.375 2.4375 10.094 2.4375 9.4219 0 14.25-5.8281 4.8438-5.8281 4.8438-17.156z"/>
</defs>
<use xlink:href="#aq"/>
<use x="63.378906" xlink:href="#j"/>
<use x="124.658203" xlink:href="#t"/>
</g>
</g>
<g clip-path="url(#a)">
<g transform="translate(81.637 613.67) scale(.1 -.1)">
<defs>
<path id="ak" d="m2.9844 54.688h9.5156l17.094-45.891 17.094 45.891h9.5156l-20.516-54.688h-12.203z"/>
<path id="aa" d="m32.172-5.0781q-3.7969-9.7656-7.4219-12.734-3.6094-2.9844-9.6562-2.9844h-7.1875v7.5156h5.2812q3.7031 0 5.75 1.7656 2.0625 1.75 4.5469 8.2969l1.6094 4.0938-22.109 53.812h9.5156l17.094-42.766 17.094 42.766h9.5156z"/>
</defs>
<use xlink:href="#i"/>
<use x="27.783203" xlink:href="#p"/>
<use x="88.964844" xlink:href="#ak"/>
<use x="148.144531" xlink:href="#d"/>
<use x="209.667969" xlink:href="#i"/>
<use x="237.451172" xlink:href="#aa"/>
</g>
</g>
<g clip-path="url(#a)">
<g transform="translate(89.782 613.67) scale(.1 -.1)">
<defs>
<path id="ab" d="m18.109 8.2031v-29h-9.0312v75.484h9.0312v-8.2969q2.8438 4.875 7.1562 7.2344 4.3281 2.375 10.328 2.375 9.9688 0 16.188-7.9062 6.2344-7.9062 6.2344-20.797t-6.2344-20.812q-6.2188-7.9062-16.188-7.9062-6 0-10.328 2.375-4.3125 2.375-7.1562 7.25zm30.578 19.094q0 9.9062-4.0781 15.547t-11.203 5.6406q-7.1406 0-11.219-5.6406t-4.0781-15.547 4.0781-15.547 11.219-5.6406q7.125 0 11.203 5.6406t4.0781 15.547z"/>
</defs>
<use xlink:href="#d"/>
<use x="61.523438" xlink:href="#k"/>
<use x="158.935547" xlink:href="#ab"/>
<use x="222.412109" xlink:href="#i"/>
<use x="250.195312" xlink:href="#p"/>
<use x="311.376953" xlink:href="#aa"/>
<use x="370.556641" xlink:href="#d"/>
<use x="432.080078" xlink:href="#d"/>
<use x="493.603516" xlink:href="#t"/>
</g>
</g>
<g clip-path="url(#a)">
<g transform="translate(139.51 613.67) scale(.1 -.1)">
<defs>
<path id="ao" d="m11.719 12.406h10.297v-8.4062l-8-15.625h-6.2969l4 15.625z"/>
</defs>
<use xlink:href="#ao"/>
</g>
</g>
<g clip-path="url(#a)">
<g transform="translate(165.5 613.67) scale(.1 -.1)">
<use xlink:href="#j"/>
</g>
</g>
<g clip-path="url(#a)">
<g transform="translate(174.52 613.67) scale(.1 -.1)">
<defs>
<path id="av" d="m4.2031 54.688h8.9844l11.234-42.672 11.172 42.672h10.594l11.234-42.672 11.188 42.672h8.9844l-14.312-54.688h-10.594l-11.766 44.828-11.812-44.828h-10.609z"/>
<path id="u" d="m45.406 46.391v29.594h8.9844v-75.984h-8.9844v8.2031q-2.8281-4.875-7.1562-7.25-4.3125-2.375-10.375-2.375-9.9062 0-16.141 7.9062-6.2188 7.9219-6.2188 20.812t6.2188 20.797q6.2344 7.9062 16.141 7.9062 6.0625 0 10.375-2.375 4.3281-2.3594 7.1562-7.2344zm-30.609-19.094q0-9.9062 4.0781-15.547t11.203-5.6406 11.219 5.6406q4.1094 5.6406 4.1094 15.547t-4.1094 15.547q-4.0938 5.6406-11.219 5.6406t-11.203-5.6406-4.0781-15.547z"/>
<path id="ax" d="m37.109 75.984v-7.4844h-8.5938q-4.8281 0-6.7188-1.9531-1.875-1.9531-1.875-7.0312v-4.8281h14.797v-6.9844h-14.797v-47.703h-9.0312v47.703h-8.5938v6.9844h8.5938v3.8125q0 9.125 4.25 13.297 4.25 4.1875 13.469 4.1875z"/>
</defs>
<use xlink:href="#av"/>
<use x="81.787109" xlink:href="#p"/>
<use x="142.96875" xlink:href="#f"/>
<use x="206.347656" xlink:href="#u"/>
<use x="269.824219" xlink:href="#d"/>
<use x="331.347656" xlink:href="#h"/>
<use x="372.460938" xlink:href="#ax"/>
<use x="407.666016" xlink:href="#ap"/>
<use x="471.044922" xlink:href="#i"/>
</g>
</g>
<g clip-path="url(#a)">
<g transform="translate(209.96 613.67) scale(.1 -.1)">
<defs>
<path id="ac" d="m45.406 27.984q0 9.7656-4.0312 15.125-4.0156 5.375-11.297 5.375-7.2188 0-11.25-5.375-4.0312-5.3594-4.0312-15.125 0-9.7188 4.0312-15.094t11.25-5.375q7.2812 0 11.297 5.375 4.0312 5.375 4.0312 15.094zm8.9844-21.203q0-13.953-6.2031-20.766-6.1875-6.8125-18.984-6.8125-4.7344 0-8.9375 0.70312t-8.1562 2.1719v8.7344q3.9531-2.1406 7.8125-3.1562 3.8594-1.0312 7.8594-1.0312 8.8438 0 13.234 4.6094t4.3906 13.938v4.4531q-2.7812-4.8438-7.125-7.2344t-10.406-2.3906q-10.047 0-16.203 7.6562-6.1562 7.6719-6.1562 20.328 0 12.688 6.1562 20.344 6.1562 7.6719 16.203 7.6719 6.0625 0 10.406-2.3906t7.125-7.2188v8.2969h8.9844z"/>
</defs>
<use xlink:href="#ac"/>
<use x="63.476562" xlink:href="#h"/>
<use x="102.339844" xlink:href="#p"/>
<use x="163.521484" xlink:href="#p"/>
<use x="224.703125" xlink:href="#k"/>
<use x="322.115234" xlink:href="#g"/>
<use x="349.898438" xlink:href="#f"/>
<use x="413.277344" xlink:href="#ac"/>
</g>
</g>
<g clip-path="url(#a)">
<g transform="translate(253.65 613.67) scale(.1 -.1)">
<use xlink:href="#t"/>
<use x="52.099609" xlink:href="#d"/>
<use x="113.623047" xlink:href="#h"/>
<use x="154.736328" xlink:href="#ak"/>
<use x="213.916016" xlink:href="#g"/>
<use x="241.699219" xlink:href="#ad"/>
<use x="296.679688" xlink:href="#d"/>
</g>
</g>
<g clip-path="url(#a)">
<g transform="translate(311.17 613.67) scale(.1 -.1)">
<use xlink:href="#ao"/>
</g>
</g>
<g clip-path="url(#a)">
<g transform="translate(347.98 613.67) scale(.1 -.1)">
<use xlink:href="#j"/>
<use x="61.279297" xlink:href="#f"/>
<use x="124.658203" xlink:href="#u"/>
</g>
</g>
<g clip-path="url(#a)">
<g transform="translate(378.46 613.67) scale(.1 -.1)">
<use xlink:href="#d"/>
<use x="61.523438" xlink:href="#ak"/>
<use x="120.703125" xlink:href="#d"/>
<use x="182.226562" xlink:href="#h"/>
<use x="223.339844" xlink:href="#aa"/>
<use x="282.519531" xlink:href="#q"/>
<use x="321.728516" xlink:href="#aq"/>
<use x="385.107422" xlink:href="#g"/>
<use x="412.890625" xlink:href="#f"/>
<use x="476.269531" xlink:href="#ac"/>
</g>
</g>
<g clip-path="url(#a)">
<g transform="translate(455.47 613.67) scale(.1 -.1)">
<defs>
<path id="as" d="m9.8125 72.906h9.8594v-72.906h-9.8594z"/>
</defs>
<use xlink:href="#as"/>
</g>
</g>
<g clip-path="url(#a)">
<g transform="translate(499.38 613.67) scale(.1 -.1)">
<use xlink:href="#f"/>
<use x="63.378906" xlink:href="#d"/>
<use x="124.902344" xlink:href="#d"/>
<use x="186.425781" xlink:href="#u"/>
</g>
</g>
<g clip-path="url(#a)">
<g transform="translate(565.22 613.67) scale(.1 -.1)">
<use xlink:href="#q"/>
<use x="39.208984" xlink:href="#p"/>
</g>
</g>
<g clip-path="url(#a)">
<g transform="translate(619.99 613.67) scale(.1 -.1)">
<defs>
<path id="aw" d="m9.0781 75.984h9.0312v-44.875l26.812 23.578h11.469l-29-25.578 30.234-29.109h-11.719l-27.797 26.703v-26.703h-9.0312z"/>
</defs>
<use xlink:href="#aw"/>
<use x="54.285156" xlink:href="#d"/>
<use x="115.808594" xlink:href="#d"/>
<use x="177.332031" xlink:href="#ab"/>
</g>
</g>
<g clip-path="url(#a)">
<g transform="translate(689.43 613.67) scale(.1 -.1)">
<use xlink:href="#k"/>
<use x="97.412109" xlink:href="#aa"/>
</g>
</g>
<g clip-path="url(#a)">
<g transform="translate(756.51 613.67) scale(.1 -.1)">
<use xlink:href="#u"/>
<use x="63.476562" xlink:href="#p"/>
<use x="124.658203" xlink:href="#ac"/>
</g>
</g>
<g clip-path="url(#a)">
<g transform="translate(833.46 613.67) scale(.1 -.1)">
<use xlink:href="#g"/>
<use x="27.783203" xlink:href="#f"/>
</g>
</g>
<g clip-path="url(#a)">
<g transform="translate(907.02 613.67) scale(.1 -.1)">
<use xlink:href="#q"/>
<use x="39.208984" xlink:href="#g"/>
<use x="66.992188" xlink:href="#ab"/>
</g>
</g>
<g clip-path="url(#a)">
<g transform="translate(984.31 613.67) scale(.1 -.1)">
<use xlink:href="#q"/>
<use x="39.208984" xlink:href="#p"/>
<use x="100.390625" xlink:href="#ab"/>
</g>
</g>
<g clip-path="url(#a)">
<g transform="translate(1051.8 613.67) scale(.1 -.1)">
<use xlink:href="#ad"/>
<use x="54.980469" xlink:href="#p"/>
<use x="116.162109" xlink:href="#f"/>
<use x="179.541016" xlink:href="#u"/>
<use x="243.017578" xlink:href="#g"/>
<use x="270.800781" xlink:href="#q"/>
<use x="310.009766" xlink:href="#g"/>
<use x="337.792969" xlink:href="#p"/>
<use x="398.974609" xlink:href="#f"/>
</g>
</g>
<g clip-path="url(#a)">
<g transform="translate(1158.7 613.67) scale(.1 -.1)">
<defs>
<path id="at" d="m15.094 12.406h9.9062v-12.406h-9.9062zm0 60.5h9.9062v-31.984l-0.96875-17.438h-7.9219l-1.0156 17.438z"/>
</defs>
<use xlink:href="#at"/>
</g>
</g>
<g clip-path="url(#a)">
<g transform="translate(206.3 31.85) scale(.1 -.1)">
<defs>
<path id="c" d="m12.406 8.2969h16.109v55.625l-17.531-3.5156v8.9844l17.438 3.5156h9.8594v-64.609h16.109v-8.2969h-41.984z"/>
<path id="e" d="m10.688 12.406h10.312v-12.406h-10.312z"/>
</defs>
<use xlink:href="#c"/>
<use x="63.623047" xlink:href="#e"/>
<use x="95.410156" xlink:href="#c"/>
</g>
</g>
<g clip-path="url(#a)">
<g transform="translate(77.075 397.62) scale(.1 -.1)">
<defs>
<path id="n" d="m19.188 8.2969h34.422v-8.2969h-46.281v8.2969q5.6094 5.8125 15.297 15.594 9.7031 9.7969 12.188 12.641 4.7344 5.3125 6.6094 9 1.8906 3.6875 1.8906 7.25 0 5.8125-4.0781 9.4688-4.0781 3.6719-10.625 3.6719-4.6406 0-9.7969-1.6094-5.1406-1.6094-11-4.8906v9.9688q5.9531 2.3906 11.125 3.6094 5.1875 1.2188 9.4844 1.2188 11.328 0 18.062-5.6719 6.7344-5.6562 6.7344-15.125 0-4.5-1.6875-8.5312-1.6719-4.0156-6.125-9.4844-1.2188-1.4219-7.7656-8.1875-6.5312-6.7656-18.453-18.922z"/>
</defs>
<use xlink:href="#c"/>
<use x="63.623047" xlink:href="#e"/>
<use x="95.410156" xlink:href="#n"/>
</g>
</g>
<g clip-path="url(#a)">
<g transform="translate(170.48 397.62) scale(.1 -.1)">
<defs>
<path id="m" d="m40.578 39.312q7.0781-1.5156 11.047-6.3125 3.9844-4.7812 3.9844-11.812 0-10.781-7.4219-16.703-7.4219-5.9062-21.094-5.9062-4.5781 0-9.4375 0.90625t-10.031 2.7188v9.5156q4.0938-2.3906 8.9688-3.6094 4.8906-1.2188 10.219-1.2188 9.2656 0 14.125 3.6562t4.8594 10.641q0 6.4531-4.5156 10.078-4.5156 3.6406-12.562 3.6406h-8.5v8.1094h8.8906q7.2656 0 11.125 2.9062t3.8594 8.375q0 5.6094-3.9844 8.6094-3.9688 3.0156-11.391 3.0156-4.0625 0-8.7031-0.89062-4.6406-0.875-10.203-2.7188v8.7812q5.625 1.5625 10.531 2.3438t9.25 0.78125q11.234 0 17.766-5.1094 6.5469-5.0938 6.5469-13.781 0-6.0625-3.4688-10.234t-9.8594-5.7812z"/>
</defs>
<use xlink:href="#c"/>
<use x="63.623047" xlink:href="#e"/>
<use x="95.410156" xlink:href="#m"/>
</g>
</g>
<g clip-path="url(#a)">
<g transform="translate(349.43 542.44) scale(.1 -.1)">
<defs>
<path id="z" d="m37.797 64.312-24.906-38.922h24.906zm-2.5938 8.5938h12.406v-47.516h10.406v-8.2031h-10.406v-17.188h-9.8125v17.188h-32.906v9.5156z"/>
</defs>
<use xlink:href="#c"/>
<use x="63.623047" xlink:href="#e"/>
<use x="95.410156" xlink:href="#z"/>
</g>
</g>
<g clip-path="url(#a)">
<g transform="translate(202.83 105.26) scale(.1 -.1)">
<defs>
<path id="y" d="m10.797 72.906h38.719v-8.3125h-29.688v-17.859q2.1406 0.73438 4.2812 1.0938 2.1562 0.35938 4.3125 0.35938 12.203 0 19.328-6.6875 7.1406-6.6875 7.1406-18.109 0-11.766-7.3281-18.297-7.3281-6.5156-20.656-6.5156-4.5938 0-9.3594 0.78125-4.75 0.78125-9.8281 2.3438v9.9219q4.3906-2.3906 9.0781-3.5625t9.9062-1.1719q8.4531 0 13.375 4.4375 4.9375 4.4375 4.9375 12.062 0 7.6094-4.9375 12.047-4.9219 4.4531-13.375 4.4531-3.9531 0-7.8906-0.875-3.9219-0.875-8.0156-2.7344z"/>
</defs>
<use xlink:href="#c"/>
<use x="63.623047" xlink:href="#e"/>
<use x="95.410156" xlink:href="#y"/>
</g>
</g>
<g clip-path="url(#a)">
<g transform="translate(484.68 178.56) scale(.1 -.1)">
<defs>
<path id="x" d="m31.781 34.625q-7.0312 0-11.062-3.7656-4.0156-3.7656-4.0156-10.344 0-6.5938 4.0156-10.359 4.0312-3.7656 11.062-3.7656t11.078 3.7812q4.0625 3.7969 4.0625 10.344 0 6.5781-4.0312 10.344-4.0156 3.7656-11.109 3.7656zm-9.8594 4.1875q-6.3438 1.5625-9.8906 5.9062-3.5312 4.3594-3.5312 10.609 0 8.7344 6.2188 13.812 6.2344 5.0781 17.062 5.0781 10.891 0 17.094-5.0781t6.2031-13.812q0-6.25-3.5469-10.609-3.5312-4.3438-9.8281-5.9062 7.125-1.6562 11.094-6.5 3.9844-4.8281 3.9844-11.797 0-10.609-6.4688-16.281-6.4688-5.6562-18.531-5.6562-12.047 0-18.531 5.6562-6.4688 5.6719-6.4688 16.281 0 6.9688 4 11.797 4.0156 4.8438 11.141 6.5zm-3.6094 15.578q0-5.6562 3.5312-8.8281 3.5469-3.1719 9.9375-3.1719 6.3594 0 9.9375 3.1719 3.5938 3.1719 3.5938 8.8281 0 5.6719-3.5938 8.8438-3.5781 3.1719-9.9375 3.1719-6.3906 0-9.9375-3.1719-3.5312-3.1719-3.5312-8.8438z"/>
</defs>
<use xlink:href="#c"/>
<use x="63.623047" xlink:href="#e"/>
<use x="95.410156" xlink:href="#x"/>
</g>
</g>
<g clip-path="url(#a)">
<g transform="translate(397.5 542.44) scale(.1 -.1)">
<defs>
<path id="ah" d="m10.984 1.5156v8.9844q3.7188-1.7656 7.5156-2.6875 3.8125-0.92188 7.4844-0.92188 9.7656 0 14.906 6.5625 5.1562 6.5625 5.8906 19.953-2.8281-4.2031-7.1875-6.4531-4.3438-2.25-9.6094-2.25-10.938 0-17.312 6.6094-6.375 6.625-6.375 18.109 0 11.219 6.6406 18 6.6406 6.7969 17.672 6.7969 12.656 0 19.312-9.7031 6.6719-9.6875 6.6719-28.141 0-17.234-8.1875-27.516-8.1719-10.281-21.984-10.281-3.7188 0-7.5312 0.73438-3.7969 0.73438-7.9062 2.2031zm19.625 30.906q6.6406 0 10.516 4.5312 3.8906 4.5469 3.8906 12.469 0 7.8594-3.8906 12.422-3.875 4.5625-10.516 4.5625t-10.516-4.5625-3.875-12.422q0-7.9219 3.875-12.469 3.875-4.5312 10.516-4.5312z"/>
</defs>
<use xlink:href="#c"/>
<use x="63.623047" xlink:href="#e"/>
<use x="95.410156" xlink:href="#ah"/>
</g>
</g>
<g clip-path="url(#a)">
<g transform="translate(568.68 251.74) scale(.1 -.1)">
<defs>
<path id="an" d="m31.781 66.406q-7.6094 0-11.453-7.5-3.8281-7.4844-3.8281-22.531 0-14.984 3.8281-22.484 3.8438-7.5 11.453-7.5 7.6719 0 11.5 7.5 3.8438 7.5 3.8438 22.484 0 15.047-3.8438 22.531-3.8281 7.5-11.5 7.5zm0 7.8125q12.266 0 18.734-9.7031 6.4688-9.6875 6.4688-28.141 0-18.406-6.4688-28.109-6.4688-9.6875-18.734-9.6875-12.25 0-18.719 9.6875-6.4688 9.7031-6.4688 28.109 0 18.453 6.4688 28.141 6.4688 9.7031 18.719 9.7031z"/>
</defs>
<use xlink:href="#c"/>
<use x="63.623047" xlink:href="#e"/>
<use x="95.410156" xlink:href="#c"/>
<use x="159.033203" xlink:href="#an"/>
</g>
</g>
<g clip-path="url(#a)">
<g transform="translate(446.96 470.22) scale(.1 -.1)">
<use xlink:href="#c"/>
<use x="63.623047" xlink:href="#e"/>
<use x="95.410156" xlink:href="#c"/>
<use x="159.033203" xlink:href="#c"/>
</g>
</g>
<g clip-path="url(#a)">
<g transform="translate(559.1 542.44) scale(.1 -.1)">
<use xlink:href="#c"/>
<use x="63.623047" xlink:href="#e"/>
<use x="95.410156" xlink:href="#c"/>
<use x="159.033203" xlink:href="#n"/>
</g>
</g>
<g clip-path="url(#a)">
<g transform="translate(699.97 324.77) scale(.1 -.1)">
<use xlink:href="#c"/>
<use x="63.623047" xlink:href="#e"/>
<use x="95.410156" xlink:href="#c"/>
<use x="159.033203" xlink:href="#m"/>
</g>
</g>
<g clip-path="url(#a)">
<g transform="translate(620.9 542.44) scale(.1 -.1)">
<use xlink:href="#c"/>
<use x="63.623047" xlink:href="#e"/>
<use x="95.410156" xlink:href="#c"/>
<use x="159.033203" xlink:href="#z"/>
</g>
</g>
<g clip-path="url(#a)">
<g transform="translate(737.62 397.62) scale(.1 -.1)">
<use xlink:href="#c"/>
<use x="63.623047" xlink:href="#e"/>
<use x="95.410156" xlink:href="#c"/>
<use x="159.033203" xlink:href="#y"/>
</g>
</g>
<g clip-path="url(#a)">
<g transform="translate(995.53 470.22) scale(.1 -.1)">
<defs>
<path id="aj" d="m33.016 40.375q-6.6406 0-10.531-4.5469-3.875-4.5312-3.875-12.438 0-7.8594 3.875-12.438 3.8906-4.5625 10.531-4.5625t10.516 4.5625q3.875 4.5781 3.875 12.438 0 7.9062-3.875 12.438-3.875 4.5469-10.516 4.5469zm19.578 30.922v-8.9844q-3.7188 1.75-7.5 2.6719-3.7812 0.9375-7.5 0.9375-9.7656 0-14.922-6.5938-5.1406-6.5938-5.875-19.922 2.875 4.25 7.2188 6.5156 4.3594 2.2656 9.5781 2.2656 10.984 0 17.359-6.6719 6.375-6.6562 6.375-18.125 0-11.234-6.6406-18.031-6.6406-6.7812-17.672-6.7812-12.656 0-19.344 9.6875-6.6875 9.7031-6.6875 28.109 0 17.281 8.2031 27.562t22.016 10.281q3.7188 0 7.5-0.73438t7.8906-2.1875z"/>
</defs>
<use xlink:href="#c"/>
<use x="63.623047" xlink:href="#e"/>
<use x="95.410156" xlink:href="#c"/>
<use x="159.033203" xlink:href="#aj"/>
</g>
</g>
<g clip-path="url(#a)">
<g transform="translate(826.88 542.44) scale(.1 -.1)">
<defs>
<path id="ai" d="m8.2031 72.906h46.875v-4.2031l-26.469-68.703h-10.297l24.906 64.594h-35.016z"/>
</defs>
<use xlink:href="#c"/>
<use x="63.623047" xlink:href="#e"/>
<use x="95.410156" xlink:href="#c"/>
<use x="159.033203" xlink:href="#ai"/>
</g>
</g>
<g clip-path="url(#a)">
<g transform="translate(941.89 542.44) scale(.1 -.1)">
<use xlink:href="#c"/>
<use x="63.623047" xlink:href="#e"/>
<use x="95.410156" xlink:href="#c"/>
<use x="159.033203" xlink:href="#x"/>
</g>
</g>
<g clip-path="url(#a)">
<g transform="translate(1063.8 542.44) scale(.1 -.1)">
<use xlink:href="#c"/>
<use x="63.623047" xlink:href="#e"/>
<use x="95.410156" xlink:href="#c"/>
<use x="159.033203" xlink:href="#ah"/>
</g>
</g>
<g clip-path="url(#a)">
<g transform="translate(720.46 470.22) scale(.1 -.1)">
<use xlink:href="#c"/>
<use x="63.623047" xlink:href="#e"/>
<use x="95.410156" xlink:href="#n"/>
<use x="159.033203" xlink:href="#c"/>
</g>
</g>
<g clip-path="url(#a)">
<g transform="translate(754.79 542.44) scale(.1 -.1)">
<use xlink:href="#c"/>
<use x="63.623047" xlink:href="#e"/>
<use x="95.410156" xlink:href="#n"/>
<use x="159.033203" xlink:href="#n"/>
</g>
</g>
<g clip-path="url(#a)">
<g transform="translate(686.13 542.44) scale(.1 -.1)">
<use xlink:href="#c"/>
<use x="63.623047" xlink:href="#e"/>
<use x="95.410156" xlink:href="#n"/>
<use x="159.033203" xlink:href="#m"/>
</g>
</g>
<g clip-path="url(#a)">
<g transform="translate(445.81 542.44) scale(.1 -.1)">
<use xlink:href="#c"/>
<use x="63.623047" xlink:href="#e"/>
<use x="95.410156" xlink:href="#n"/>
<use x="159.033203" xlink:href="#z"/>
</g>
</g>
<g clip-path="url(#a)">
<g transform="translate(500.74 542.44) scale(.1 -.1)">
<use xlink:href="#c"/>
<use x="63.623047" xlink:href="#e"/>
<use x="95.410156" xlink:href="#n"/>
<use x="159.033203" xlink:href="#y"/>
</g>
</g>
<g clip-path="url(#a)">
<g transform="translate(208.93 470.22) scale(.1 -.1)">
<use xlink:href="#c"/>
<use x="63.623047" xlink:href="#e"/>
<use x="95.410156" xlink:href="#n"/>
<use x="159.033203" xlink:href="#aj"/>
</g>
</g>
<g clip-path="url(#a)">
<g transform="translate(188.33 542.44) scale(.1 -.1)">
<use xlink:href="#c"/>
<use x="63.623047" xlink:href="#e"/>
<use x="95.410156" xlink:href="#n"/>
<use x="159.033203" xlink:href="#ai"/>
</g>
</g>
<g clip-path="url(#a)">
<g transform="translate(222.66 542.44) scale(.1 -.1)">
<use xlink:href="#c"/>
<use x="63.623047" xlink:href="#e"/>
<use x="95.410156" xlink:href="#n"/>
<use x="159.033203" xlink:href="#x"/>
</g>
</g>
<g clip-path="url(#a)">
<g transform="translate(157.43 542.44) scale(.1 -.1)">
<use xlink:href="#c"/>
<use x="63.623047" xlink:href="#e"/>
<use x="95.410156" xlink:href="#n"/>
<use x="159.033203" xlink:href="#ah"/>
</g>
</g>
<g clip-path="url(#a)">
<g transform="translate(260.42 542.44) scale(.1 -.1)">
<use xlink:href="#c"/>
<use x="63.623047" xlink:href="#e"/>
<use x="95.410156" xlink:href="#m"/>
<use x="159.033203" xlink:href="#an"/>
</g>
</g>
<g clip-path="url(#a)">
<g transform="translate(49.29 542.44) scale(.1 -.1)">
<use xlink:href="#c"/>
<use x="63.623047" xlink:href="#e"/>
<use x="95.410156" xlink:href="#m"/>
<use x="159.033203" xlink:href="#c"/>
</g>
</g>
<g clip-path="url(#a)">
<g transform="translate(87.054 470.22) scale(.1 -.1)">
<use xlink:href="#c"/>
<use x="63.623047" xlink:href="#e"/>
<use x="95.410156" xlink:href="#m"/>
<use x="159.033203" xlink:href="#n"/>
</g>
</g>
<g clip-path="url(#a)">
<g transform="translate(85.337 542.44) scale(.1 -.1)">
<use xlink:href="#c"/>
<use x="63.623047" xlink:href="#e"/>
<use x="95.410156" xlink:href="#m"/>
<use x="159.033203" xlink:href="#m"/>
</g>
</g>
<g clip-path="url(#a)">
<g transform="translate(68.172 542.44) scale(.1 -.1)">
<use xlink:href="#c"/>
<use x="63.623047" xlink:href="#e"/>
<use x="95.410156" xlink:href="#m"/>
<use x="159.033203" xlink:href="#z"/>
</g>
</g>
<g clip-path="url(#a)">
<g transform="translate(105.94 542.44) scale(.1 -.1)">
<use xlink:href="#c"/>
<use x="63.623047" xlink:href="#e"/>
<use x="95.410156" xlink:href="#m"/>
<use x="159.033203" xlink:href="#y"/>
</g>
</g>
<g clip-path="url(#a)">
<g transform="translate(129.97 542.44) scale(.1 -.1)">
<use xlink:href="#c"/>
<use x="63.623047" xlink:href="#e"/>
<use x="95.410156" xlink:href="#m"/>
<use x="159.033203" xlink:href="#aj"/>
</g>
</g>
<g clip-path="url(#a)">
<g transform="translate(301.62 542.44) scale(.1 -.1)">
<use xlink:href="#c"/>
<use x="63.623047" xlink:href="#e"/>
<use x="95.410156" xlink:href="#m"/>
<use x="159.033203" xlink:href="#ai"/>
</g>
</g>
<g clip-path="url(#a)">
<g transform="translate(1149.6 542.44) scale(.1 -.1)">
<use xlink:href="#c"/>
<use x="63.623047" xlink:href="#e"/>
<use x="95.410156" xlink:href="#m"/>
<use x="159.033203" xlink:href="#x"/>
</g>
</g>
<defs>
<clipPath id="a">
<rect width="1216" height="640"/>
</clipPath>
</defs>
</svg>
