<?xml version="1.0" encoding="UTF-8"?>
<!DOCTYPE svg  PUBLIC '-//W3C//DTD SVG 1.1//EN'  'http://www.w3.org/Graphics/SVG/1.1/DTD/svg11.dtd'>
<svg width="1976pt" height="1040pt" version="1.1" viewBox="0 0 1976 1040" xmlns="http://www.w3.org/2000/svg" xmlns:xlink="http://www.w3.org/1999/xlink">
<defs>
<style type="text/css">*{stroke-linecap:butt;stroke-linejoin:round;}</style>
</defs>
<path d="m0 1040h1976v-1040h-1976z" fill="#fff"/>
<g fill="none" stroke="#000">
<path d="m940.23 48.187-679.21 484.04" clip-path="url(#a)"/>
<path d="m940.23 48.187-389.73 791.14" clip-path="url(#a)"/>
<path d="m940.23 48.187-246.97 484.04" clip-path="url(#a)"/>
<path d="m940.23 48.187-21.307 791.14" clip-path="url(#a)"/>
<path d="m940.23 48.187 158.3 326.46" clip-path="url(#a)"/>
<path d="m940.23 48.187 393.17 791.14" clip-path="url(#a)"/>
<path d="m940.23 48.187 640.71 165.28" clip-path="url(#a)"/>
<path d="m940.23 48.187-435.79 791.14" clip-path="url(#a)"/>
<path d="m940.23 48.187-67.36 791.14" clip-path="url(#a)"/>
<path d="m940.23 48.187 301.07 791.14" clip-path="url(#a)"/>
<path d="m940.23 48.187 347.12 791.14" clip-path="url(#a)"/>
<path d="m261.02 532.23-171.05 307.1" clip-path="url(#a)"/>
<path d="m261.02 532.23-55.922 154.61" clip-path="url(#a)"/>
<path d="m261.02 532.23 13.158 307.1" clip-path="url(#a)"/>
<path d="m261.02 532.23 59.211 307.1" clip-path="url(#a)"/>
<path d="m261.02 532.23 105.26 307.1" clip-path="url(#a)"/>
<path d="m261.02 532.23 174.34 154.61" clip-path="url(#a)"/>
<path d="m261.02 532.23-125 307.1" clip-path="url(#a)"/>
<path d="m550.5 839.33v152.49" clip-path="url(#a)"/>
<path d="m693.26 532.23-96.712 307.1" clip-path="url(#a)"/>
<path d="m693.26 532.23-50.658 307.1" clip-path="url(#a)"/>
<path d="m693.26 532.23-4.6053 307.1" clip-path="url(#a)"/>
<path d="m693.26 532.23 41.448 307.1" clip-path="url(#a)"/>
<path d="m693.26 532.23 110.53 154.61" clip-path="url(#a)"/>
<path d="m918.92 839.33v152.49" clip-path="url(#a)"/>
<path d="m1098.5 374.64-110.53 157.59" clip-path="url(#a)"/>
<path d="m1098.5 374.64-41.448 464.68" clip-path="url(#a)"/>
<path d="m1098.5 374.64 4.6053 464.68" clip-path="url(#a)"/>
<path d="m1098.5 374.64 96.712 464.68" clip-path="url(#a)"/>
<path d="m1098.5 374.64 50.658 464.68" clip-path="url(#a)"/>
<path d="m1333.4 839.33v152.49" clip-path="url(#a)"/>
<path d="m1580.9 213.47 305.1 778.35" clip-path="url(#a)"/>
<path d="m1580.9 213.47-201.48 625.86" clip-path="url(#a)"/>
<path d="m1580.9 213.47-132.4 473.37" clip-path="url(#a)"/>
<path d="m1580.9 213.47 28.783 161.18" clip-path="url(#a)"/>
<path d="m1379.5 839.33v152.49" clip-path="url(#a)"/>
<path d="m1448.5 686.84-23.027 152.49" clip-path="url(#a)"/>
<path d="m1448.5 686.84 23.027 152.49" clip-path="url(#a)"/>
<path d="m1609.7 374.64-92.106 464.68" clip-path="url(#a)"/>
<path d="m1609.7 374.64 92.106 157.59" clip-path="url(#a)"/>
<path d="m1517.6 839.33v152.49" clip-path="url(#a)"/>
<path d="m1701.8 532.23-92.106 154.61" clip-path="url(#a)"/>
<path d="m1701.8 532.23v307.1" clip-path="url(#a)"/>
<path d="m1701.8 532.23 92.106 154.61" clip-path="url(#a)"/>
<path d="m1609.7 686.84-46.053 152.49" clip-path="url(#a)"/>
<path d="m1609.7 686.84v152.49" clip-path="url(#a)"/>
<path d="m1609.7 686.84 46.053 152.49" clip-path="url(#a)"/>
<path d="m1701.8 839.33v152.49" clip-path="url(#a)"/>
<path d="m1793.9 686.84-46.053 152.49" clip-path="url(#a)"/>
<path d="m1793.9 686.84v152.49" clip-path="url(#a)"/>
<path d="m1793.9 686.84 46.053 152.49" clip-path="url(#a)"/>
<path d="m1747.9 839.33v152.49" clip-path="url(#a)"/>
<path d="m1793.9 839.33v152.49" clip-path="url(#a)"/>
<path d="m1563.7 839.33v152.49" clip-path="url(#a)"/>
<path d="m1609.7 839.33v152.49" clip-path="url(#a)"/>
<path d="m1655.8 839.33v152.49" clip-path="url(#a)"/>
<path d="m1425.5 839.33v152.49" clip-path="url(#a)"/>
<path d="m1471.6 839.33v152.49" clip-path="url(#a)"/>
<path d="m988 532.23-23.027 307.1" clip-path="url(#a)"/>
<path d="m988 532.23 23.027 154.61" clip-path="url(#a)"/>
<path d="m1057.1 839.33v152.49" clip-path="url(#a)"/>
<path d="m1103.1 839.33v152.49" clip-path="url(#a)"/>
<path d="m1195.2 839.33v152.49" clip-path="url(#a)"/>
<path d="m964.97 839.33v152.49" clip-path="url(#a)"/>
<path d="m1011 686.84v152.49" clip-path="url(#a)"/>
<path d="m1011 839.33v152.49" clip-path="url(#a)"/>
<path d="m596.55 839.33v152.49" clip-path="url(#a)"/>
<path d="m642.6 839.33v152.49" clip-path="url(#a)"/>
<path d="m688.65 839.33v152.49" clip-path="url(#a)"/>
<path d="m734.71 839.33v152.49" clip-path="url(#a)"/>
<path d="m803.79 686.84-23.027 152.49" clip-path="url(#a)"/>
<path d="m803.79 686.84 23.027 152.49" clip-path="url(#a)"/>
<path d="m780.76 839.33v152.49" clip-path="url(#a)"/>
<path d="m826.81 839.33v152.49" clip-path="url(#a)"/>
<path d="m89.964 839.33v152.49" clip-path="url(#a)"/>
<path d="m205.1 686.84-23.027 152.49" clip-path="url(#a)"/>
<path d="m205.1 686.84 23.027 152.49" clip-path="url(#a)"/>
<path d="m274.18 839.33v152.49" clip-path="url(#a)"/>
<path d="m320.23 839.33v152.49" clip-path="url(#a)"/>
<path d="m366.28 839.33v152.49" clip-path="url(#a)"/>
<path d="m435.36 686.84-23.027 152.49" clip-path="url(#a)"/>
<path d="m435.36 686.84 23.027 152.49" clip-path="url(#a)"/>
<path d="m136.02 839.33v152.49" clip-path="url(#a)"/>
<path d="m412.34 839.33v152.49" clip-path="url(#a)"/>
<path d="m458.39 839.33v152.49" clip-path="url(#a)"/>
<path d="m182.07 839.33v152.49" clip-path="url(#a)"/>
<path d="m228.12 839.33v152.49" clip-path="url(#a)"/>
<path d="m504.44 839.33v152.49" clip-path="url(#a)"/>
<path d="m872.87 839.33v152.49" clip-path="url(#a)"/>
<path d="m1149.2 839.33v152.49" clip-path="url(#a)"/>
<path d="m1241.3 839.33v152.49" clip-path="url(#a)"/>
<path d="m1287.3 839.33v152.49" clip-path="url(#a)"/>
<path d="m1840 839.33v152.49" clip-path="url(#a)"/>
</g>
<path d="m601.81 297.06 4.8994-3.4916q1.9545-1.3929 0.56161-3.3473l-4.4934-6.3052q-1.3929-1.9545-3.3473-0.56161l-4.8994 3.4916q-1.9545 1.3929-0.56161 3.3473l4.4934 6.3052q1.3929 1.9545 3.3473 0.56161z" clip-path="url(#a)" fill="#fff" stroke="#fff"/>
<g clip-path="url(#a)">
<defs>
<path id="ac" d="m9.8125 72.906h9.8594v-29.891h35.844v29.891h9.8594v-72.906h-9.8594v34.719h-35.844v-34.719h-9.8594z"/>
</defs>
<g transform="translate(599.45 293.75) rotate(-35.476) scale(.08 -.08)">
<use xlink:href="#ac"/>
</g>
</g>
<path d="m750 448.53 1.9698-3.9986q1.0606-2.1529-1.0924-3.2135l-6.9455-3.4215q-2.1529-1.0606-3.2135 1.0924l-1.9698 3.9986q-1.0606 2.1529 1.0924 3.2135l6.9455 3.4215q2.1529 1.0606 3.2135-1.0924z" clip-path="url(#a)" fill="#fff" stroke="#fff"/>
<g clip-path="url(#a)">
<defs>
<path id="ab" d="m9.8125 72.906h9.8594v-64.609h35.5v-8.2969h-45.359z"/>
</defs>
<g transform="translate(746.36 446.73) rotate(-63.774) scale(.08 -.08)">
<use xlink:href="#ab"/>
</g>
</g>
<path d="m820.96 295.74 2.7343-5.359q1.0908-2.1378-1.0471-3.2286l-6.8967-3.5188q-2.1378-1.0908-3.2286 1.0471l-2.7343 5.359q-1.0908 2.1378 1.0471 3.2286l6.8967 3.5188q2.1378 1.0908 3.2286-1.0471z" clip-path="url(#a)" fill="#fff" stroke="#fff"/>
<g clip-path="url(#a)">
<g transform="translate(817.34 293.89) rotate(-62.968) scale(.08 -.08)">
<use xlink:href="#ac"/>
</g>
</g>
<path d="m935.78 446.15 0.12001-4.4559q0.064613-2.3991-2.3345-2.4637l-7.7397-0.20845q-2.3991-0.064614-2.4637 2.3345l-0.12001 4.4559q-0.064613 2.3991 2.3345 2.4637l7.7397 0.20845q2.3991 0.064614 2.4637-2.3345z" clip-path="url(#a)" fill="#fff" stroke="#fff"/>
<g clip-path="url(#a)">
<g transform="translate(931.72 446.04) rotate(-88.457) scale(.08 -.08)">
<use xlink:href="#ab"/>
</g>
</g>
<path d="m1012.4 211.44 2.625 5.4134q1.0472 2.1595 3.2067 1.1124l6.9667-3.3782q2.1595-1.0472 1.1124-3.2067l-2.625-5.4134q-1.0472-2.1595-3.2067-1.1123l-6.9667 3.3782q-2.1595 1.0472-1.1124 3.2067z" clip-path="url(#a)" fill="#fff" stroke="#fff"/>
<g clip-path="url(#a)">
<g transform="translate(1016.1 209.67) rotate(64.131) scale(.08 -.08)">
<use xlink:href="#ac"/>
</g>
</g>
<path d="m1130.2 444.55 1.9838 3.9917q1.0681 2.1492 3.2173 1.0811l6.9335-3.4457q2.1492-1.0681 1.0811-3.2173l-1.9838-3.9917q-1.0681-2.1492-3.2173-1.0811l-6.9335 3.4457q-2.1492 1.0681-1.0811 3.2173z" clip-path="url(#a)" fill="#fff" stroke="#fff"/>
<g clip-path="url(#a)">
<g transform="translate(1133.8 442.74) rotate(63.574) scale(.08 -.08)">
<use xlink:href="#ab"/>
</g>
</g>
<path d="m1256.1 136.15 5.8255 1.5028q2.3239 0.59949 2.9234-1.7244l1.934-7.4971q0.59949-2.3239-1.7244-2.9234l-5.8255-1.5028q-2.3239-0.59949-2.9234 1.7244l-1.934 7.4971q-0.59949 2.3239 1.7244 2.9234z" clip-path="url(#a)" fill="#fff" stroke="#fff"/>
<g clip-path="url(#a)">
<g transform="translate(1257.1 132.21) rotate(14.465) scale(.08 -.08)">
<use xlink:href="#ac"/>
</g>
</g>
<path d="m726.42 449.35 2.8249-5.1284q1.158-2.1022-0.94423-3.2601l-6.7817-3.7356q-2.1022-1.158-3.2601 0.94423l-2.8249 5.1284q-1.158 2.1022 0.94423 3.2601l6.7817 3.7356q2.1022 1.158 3.2601-0.94423z" clip-path="url(#a)" fill="#fff" stroke="#fff"/>
<g clip-path="url(#a)">
<defs>
<path id="u" d="m8.6875 72.906h9.9219v-44.297q0-11.719 4.2344-16.875 4.25-5.1406 13.781-5.1406 9.4688 0 13.719 5.1406 4.25 5.1562 4.25 16.875v44.297h9.9062v-45.516q0-14.25-7.0625-21.531-7.0469-7.2812-20.812-7.2812-13.828 0-20.891 7.2812-7.0469 7.2812-7.0469 21.531z"/>
</defs>
<g transform="translate(722.86 447.39) rotate(-61.153) scale(.08 -.08)">
<use xlink:href="#u"/>
</g>
</g>
<path d="m912.55 447.21 0.49672-5.8339q0.20361-2.3913-2.1877-2.595l-7.7146-0.65685q-2.3913-0.20361-2.595 2.1877l-0.49672 5.8339q-0.20361 2.3913 2.1877 2.595l7.7146 0.65685q2.3913 0.20361 2.595-2.1877z" clip-path="url(#a)" fill="#fff" stroke="#fff"/>
<g clip-path="url(#a)">
<g transform="translate(908.5 446.86) rotate(-85.133) scale(.08 -.08)">
<use xlink:href="#u"/>
</g>
</g>
<path d="m1083.9 443.25 2.0824 5.4722q0.85359 2.2431 3.0967 1.3895l7.2362-2.7537q2.2431-0.85359 1.3895-3.0967l-2.0824-5.4722q-0.85359-2.2431-3.0967-1.3895l-7.2362 2.7537q-2.2431 0.85359-1.3895 3.0967z" clip-path="url(#a)" fill="#fff" stroke="#fff"/>
<g clip-path="url(#a)">
<g transform="translate(1087.7 441.81) rotate(69.166) scale(.08 -.08)">
<use xlink:href="#u"/>
</g>
</g>
<path d="m1106.9 443.6 2.3525 5.3616q0.96428 2.1978 3.162 1.2335l7.0901-3.1108q2.1978-0.96428 1.2335-3.162l-2.3525-5.3616q-0.96428-2.1978-3.162-1.2335l-7.0901 3.1108q-2.1978 0.96428-1.2335 3.162z" clip-path="url(#a)" fill="#fff" stroke="#fff"/>
<g clip-path="url(#a)">
<g transform="translate(1110.6 441.96) rotate(66.31) scale(.08 -.08)">
<use xlink:href="#u"/>
</g>
</g>
<path d="m179.85 690.84 2.239-4.0197q1.1679-2.0967-0.92882-3.2646l-6.764-3.7676q-2.0967-1.1679-3.2646 0.92882l-2.239 4.0197q-1.1679 2.0967 0.92882 3.2646l6.764 3.7676q2.0967 1.1679 3.2646-0.92882z" clip-path="url(#a)" fill="#fff" stroke="#fff"/>
<g clip-path="url(#a)">
<defs>
<path id="ai" d="m9.8125 72.906h41.891v-8.3125h-32.031v-21.484h28.906v-8.2969h-28.906v-34.812h-9.8594z"/>
</defs>
<g transform="translate(176.3 688.86) rotate(-60.882) scale(.08 -.08)">
<use xlink:href="#ai"/>
</g>
</g>
<path d="m238.02 614.24 1.8614-5.1462q0.81632-2.2569-1.4406-3.0732l-7.2809-2.6335q-2.2569-0.81632-3.0732 1.4406l-1.8614 5.1462q-0.81632 2.2569 1.4406 3.0732l7.2809 2.6335q2.2569 0.81632 3.0732-1.4406z" clip-path="url(#a)" fill="#fff" stroke="#fff"/>
<g clip-path="url(#a)">
<defs>
<path id="t" d="m34.188 63.188-13.391-36.281h26.812zm-5.5781 9.7188h11.188l27.781-72.906h-10.25l-6.6406 18.703h-32.859l-6.6406-18.703h-10.406z"/>
</defs>
<g transform="translate(234.2 612.86) rotate(-70.115) scale(.08 -.08)">
<use xlink:href="#t"/>
</g>
</g>
<path d="m261.23 683.75 0.19697 4.597q0.10274 2.3978 2.5005 2.2951l7.7354-0.33144q2.3978-0.10274 2.2951-2.5005l-0.19697-4.597q-0.10274-2.3978-2.5005-2.2951l-7.7354 0.33144q-2.3978 0.10274-2.2951 2.5005z" clip-path="url(#a)" fill="#fff" stroke="#fff"/>
<g clip-path="url(#a)">
<g transform="translate(265.29 683.57) rotate(87.547) scale(.08 -.08)">
<use xlink:href="#ai"/>
</g>
</g>
<path d="m283.88 683.94 1.1662 6.0486q0.45437 2.3566 2.811 1.9022l7.6025-1.4658q2.3566-0.45438 1.9022-2.811l-1.1662-6.0486q-0.45437-2.3566-2.811-1.9022l-7.6025 1.4658q-2.3566 0.45438-1.9022 2.811z" clip-path="url(#a)" fill="#fff" stroke="#fff"/>
<g clip-path="url(#a)">
<defs>
<path id="aj" d="m19.672 64.797v-56.688h11.922q15.094 0 22.094 6.8281 7 6.8438 7 21.594 0 14.641-7 21.453t-22.094 6.8125zm-9.8594 8.1094h20.266q21.188 0 31.094-8.8125 9.9219-8.8125 9.9219-27.562 0-18.859-9.9688-27.703-9.9531-8.8281-31.047-8.8281h-20.266z"/>
</defs>
<g transform="translate(287.87 683.17) rotate(79.087) scale(.08 -.08)">
<use xlink:href="#aj"/>
</g>
</g>
<path d="m306.94 685.53 1.5641 4.5631q0.77821 2.2703 3.0485 1.4921l7.3242-2.5105q2.2703-0.77821 1.4921-3.0485l-1.5641-4.5631q-0.77821-2.2703-3.0485-1.4921l-7.3242 2.5105q-2.2703 0.77821-1.4921 3.0485z" clip-path="url(#a)" fill="#fff" stroke="#fff"/>
<g clip-path="url(#a)">
<defs>
<path id="x" d="m19.672 64.797v-27.391h12.406q6.8906 0 10.641 3.5625 3.7656 3.5625 3.7656 10.156 0 6.5469-3.7656 10.109-3.75 3.5625-10.641 3.5625zm-9.8594 8.1094h22.266q12.266 0 18.531-5.5469 6.2812-5.5469 6.2812-16.234 0-10.797-6.2812-16.312-6.2656-5.5156-18.531-5.5156h-12.406v-29.297h-9.8594z"/>
</defs>
<g transform="translate(310.78 684.21) rotate(71.08) scale(.08 -.08)">
<use xlink:href="#x"/>
</g>
</g>
<path d="m341.98 612.41 4.0944 3.631q1.7956 1.5924 3.388-0.20326l5.1371-5.7928q1.5924-1.7956-0.20326-3.388l-4.0944-3.631q-1.7956-1.5924-3.388 0.20326l-5.1371 5.7928q-1.5924 1.7956 0.20326 3.388z" clip-path="url(#a)" fill="#fff" stroke="#fff"/>
<g clip-path="url(#a)">
<g transform="translate(344.68 609.37) rotate(41.567) scale(.08 -.08)">
<use xlink:href="#t"/>
</g>
</g>
<path d="m203.22 690.85 2.2074-5.423q0.90482-2.2229-1.3181-3.1277l-7.1712-2.919q-2.2229-0.90482-3.1277 1.3181l-2.2074 5.423q-0.90482 2.2229 1.3181 3.1277l7.1712 2.919q2.2229 0.90482 3.1277-1.3181z" clip-path="url(#a)" fill="#fff" stroke="#fff"/>
<g clip-path="url(#a)">
<g transform="translate(199.46 689.32) rotate(-67.852) scale(.08 -.08)">
<use xlink:href="#u"/>
</g>
</g>
<path d="m544.22 897.93v35.285q0 2.4 2.4 2.4h7.7425q2.4 0 2.4-2.4v-35.285q0-2.4-2.4-2.4h-7.7425q-2.4 0-2.4 2.4z" clip-path="url(#a)" fill="#fff" stroke="#fff"/>
<g clip-path="url(#a)">
<defs>
<path id="l" d="m-0.29688 72.906h61.672v-8.3125h-25.875v-64.594h-9.9062v64.594h-25.891z"/>
<path id="f" d="m56.203 29.594v-4.3906h-41.312q0.59375-9.2812 5.5938-14.141t13.938-4.8594q5.1719 0 10.031 1.2656t9.6562 3.8125v-8.5q-4.8438-2.0469-9.9219-3.125t-10.297-1.0781q-13.094 0-20.734 7.6094-7.6406 7.625-7.6406 20.625 0 13.422 7.25 21.297 7.25 7.8906 19.562 7.8906 11.031 0 17.453-7.1094 6.4219-7.0938 6.4219-19.297zm-8.9844 2.6406q-0.09375 7.3594-4.125 11.75-4.0312 4.4062-10.672 4.4062-7.5156 0-12.031-4.25t-5.2031-11.969z"/>
<path id="h" d="m41.109 46.297q-1.5156 0.875-3.2969 1.2812-1.7812 0.42188-3.9219 0.42188-7.625 0-11.703-4.9531t-4.0781-14.234v-28.812h-9.0312v54.688h9.0312v-8.5q2.8438 4.9844 7.375 7.3906 4.5469 2.4219 11.047 2.4219 0.92188 0 2.0469-0.125 1.125-0.10938 2.4844-0.35938z"/>
<path id="i" d="m52 44.188q3.375 6.0625 8.0625 8.9375t11.031 2.875q8.5469 0 13.188-5.9844 4.6406-5.9688 4.6406-17v-33.016h-9.0312v32.719q0 7.8594-2.7969 11.656-2.7812 3.8125-8.4844 3.8125-6.9844 0-11.047-4.6406-4.0469-4.625-4.0469-12.641v-30.906h-9.0312v32.719q0 7.9062-2.7812 11.688t-8.5938 3.7812q-6.8906 0-10.953-4.6562-4.0469-4.6562-4.0469-12.625v-30.906h-9.0312v54.688h9.0312v-8.5q3.0781 5.0312 7.375 7.4219t10.203 2.3906q5.9688 0 10.141-3.0312 4.1719-3.0156 6.1719-8.7812z"/>
<path id="j" d="m9.4219 54.688h8.9844v-54.688h-8.9844zm0 21.297h8.9844v-11.391h-8.9844z"/>
<path id="e" d="m54.891 33.016v-33.016h-8.9844v32.719q0 7.7656-3.0312 11.609-3.0312 3.8594-9.0781 3.8594-7.2812 0-11.484-4.6406-4.2031-4.625-4.2031-12.641v-30.906h-9.0312v54.688h9.0312v-8.5q3.2344 4.9375 7.5938 7.375 4.375 2.4375 10.094 2.4375 9.4219 0 14.25-5.8281 4.8438-5.8281 4.8438-17.156z"/>
<path id="g" d="m34.281 27.484q-10.891 0-15.094-2.4844t-4.2031-8.5q0-4.7812 3.1562-7.5938 3.1562-2.7969 8.5625-2.7969 7.4844 0 12 5.2969t4.5156 14.078v2zm17.922 3.7188v-31.203h-8.9844v8.2969q-3.0781-4.9688-7.6719-7.3438t-11.234-2.375q-8.3906 0-13.359 4.7188-4.9531 4.7188-4.9531 12.625 0 9.2188 6.1719 13.906 6.1875 4.6875 18.438 4.6875h12.609v0.89062q0 6.2031-4.0781 9.5938t-11.453 3.3906q-4.6875 0-9.1406-1.125-4.4375-1.125-8.5312-3.375v8.3125q4.9219 1.9062 9.5625 2.8438 4.6406 0.95312 9.0312 0.95312 11.875 0 17.734-6.1562 5.8594-6.1406 5.8594-18.641z"/>
<path id="k" d="m9.4219 75.984h8.9844v-75.984h-8.9844z"/>
</defs>
<g transform="translate(548.29 897.93) rotate(90) scale(.08 -.08)">
<use xlink:href="#l"/>
<use x="60.818359" xlink:href="#f"/>
<use x="122.341797" xlink:href="#h"/>
<use x="163.439453" xlink:href="#i"/>
<use x="260.851562" xlink:href="#j"/>
<use x="288.634766" xlink:href="#e"/>
<use x="352.013672" xlink:href="#g"/>
<use x="413.292969" xlink:href="#k"/>
</g>
</g>
<path d="m650.06 690.27 1.6438-5.2198q0.72091-2.2892-1.5683-3.0101l-7.3849-2.3257q-2.2892-0.72091-3.0101 1.5683l-1.6438 5.2198q-0.72091 2.2892 1.5683 3.0101l7.385 2.3257q2.2892 0.72091 3.0101-1.5683z" clip-path="url(#a)" fill="#fff" stroke="#fff"/>
<g clip-path="url(#a)">
<g transform="translate(646.19 689.05) rotate(-72.52) scale(.08 -.08)">
<use xlink:href="#t"/>
</g>
</g>
<path d="m673.74 689.07 0.7489-4.5399q0.39062-2.368-1.9774-2.7586l-7.6393-1.2602q-2.368-0.39062-2.7586 1.9774l-0.7489 4.5399q-0.39062 2.368 1.9774 2.7586l7.6393 1.2602q2.368 0.39062 2.7586-1.9774z" clip-path="url(#a)" fill="#fff" stroke="#fff"/>
<g clip-path="url(#a)">
<g transform="translate(669.73 688.41) rotate(-80.633) scale(.08 -.08)">
<use xlink:href="#ai"/>
</g>
</g>
<path d="m697.18 688.95 0.092367-6.1593q0.035987-2.3997-2.3637-2.4357l-7.7416-0.1161q-2.3997-0.035987-2.4357 2.3637l-0.092367 6.1593q-0.035987 2.3997 2.3637 2.4357l7.7416 0.1161q2.3997 0.035987 2.4357-2.3637z" clip-path="url(#a)" fill="#fff" stroke="#fff"/>
<g clip-path="url(#a)">
<g transform="translate(693.12 688.89) rotate(-89.141) scale(.08 -.08)">
<use xlink:href="#aj"/>
</g>
</g>
<path d="m707.45 684.23 0.6452 4.7804q0.32101 2.3784 2.6994 2.0574l7.6729-1.0356q2.3784-0.32101 2.0574-2.6994l-0.6452-4.7804q-0.32101-2.3784-2.6994-2.0574l-7.6729 1.0356q-2.3784 0.32101-2.0574 2.6994z" clip-path="url(#a)" fill="#fff" stroke="#fff"/>
<g clip-path="url(#a)">
<g transform="translate(711.47 683.68) rotate(82.313) scale(.08 -.08)">
<use xlink:href="#x"/>
</g>
</g>
<path d="m741.83 610.95 3.1826 4.4519q1.3957 1.9524 3.3482 0.55666l6.2985-4.5027q1.9524-1.3957 0.55666-3.3482l-3.1826-4.4519q-1.3957-1.9524-3.3482-0.55666l-6.2985 4.5027q-1.9524 1.3957-0.55666 3.3482z" clip-path="url(#a)" fill="#fff" stroke="#fff"/>
<g clip-path="url(#a)">
<g transform="translate(745.14 608.59) rotate(54.44) scale(.08 -.08)">
<use xlink:href="#t"/>
</g>
</g>
<path d="m912.65 897.93v35.285q0 2.4 2.4 2.4h7.7425q2.4 0 2.4-2.4v-35.285q0-2.4-2.4-2.4h-7.7425q-2.4 0-2.4 2.4z" clip-path="url(#a)" fill="#fff" stroke="#fff"/>
<g clip-path="url(#a)">
<g transform="translate(916.71 897.93) rotate(90) scale(.08 -.08)">
<use xlink:href="#l"/>
<use x="60.818359" xlink:href="#f"/>
<use x="122.341797" xlink:href="#h"/>
<use x="163.439453" xlink:href="#i"/>
<use x="260.851562" xlink:href="#j"/>
<use x="288.634766" xlink:href="#e"/>
<use x="352.013672" xlink:href="#g"/>
<use x="413.292969" xlink:href="#k"/>
</g>
</g>
<path d="m1046.8 459.28 3.1424-4.4803q1.3781-1.9649-0.58676-3.343l-6.3388-4.4459q-1.9649-1.3781-3.343 0.58676l-3.1424 4.4803q-1.3781 1.9649 0.58675 3.343l6.3388 4.4459q1.9649 1.3781 3.343-0.58675z" clip-path="url(#a)" fill="#fff" stroke="#fff"/>
<g clip-path="url(#a)">
<g transform="translate(1043.5 456.94) rotate(-54.955) scale(.08 -.08)">
<use xlink:href="#t"/>
</g>
</g>
<path d="m1083.8 609.83 0.40879-4.5831q0.21322-2.3905-2.1773-2.6037l-7.7119-0.68787q-2.3905-0.21322-2.6037 2.1773l-0.40879 4.5831q-0.21322 2.3905 2.1773 2.6037l7.7119 0.68787q2.3905 0.21322 2.6037-2.1773z" clip-path="url(#a)" fill="#fff" stroke="#fff"/>
<g clip-path="url(#a)">
<g transform="translate(1079.8 609.47) rotate(-84.903) scale(.08 -.08)">
<use xlink:href="#ai"/>
</g>
</g>
<path d="m1094.5 604.51 0.050331 5.0785q0.023784 2.3999 2.4237 2.3761l7.7421-0.07673q2.3999-0.023784 2.3761-2.4237l-0.050331-5.0785q-0.023785-2.3999-2.4237-2.3761l-7.7421 0.076729q-2.3999 0.023785-2.3761 2.4237z" clip-path="url(#a)" fill="#fff" stroke="#fff"/>
<g clip-path="url(#a)">
<defs>
<path id="ah" d="m53.516 70.516v-9.625q-5.6094 2.6875-10.594 4-4.9844 1.3281-9.625 1.3281-8.0469 0-12.422-3.125t-4.375-8.8906q0-4.8438 2.9062-7.3125 2.9062-2.4531 11.016-3.9688l5.9531-1.2188q11.031-2.1094 16.281-7.4062t5.25-14.172q0-10.609-7.1094-16.078-7.0938-5.4688-20.812-5.4688-5.1719 0-11.016 1.1719-5.8281 1.1719-12.078 3.4688v10.156q6-3.3594 11.766-5.0781 5.7656-1.7031 11.328-1.7031 8.4375 0 13.031 3.3125 4.5938 3.3281 4.5938 9.4844 0 5.3594-3.2969 8.3906t-10.812 4.5469l-6.0156 1.1719q-11.031 2.1875-15.969 6.875-4.9219 4.6875-4.9219 13.047 0 9.6719 6.8125 15.234t18.766 5.5625q5.1406 0 10.453-0.9375 5.3281-0.92188 10.891-2.7656z"/>
</defs>
<g transform="translate(1098.6 604.47) rotate(89.432) scale(.08 -.08)">
<use xlink:href="#ah"/>
</g>
</g>
<path d="m1140.1 605.25 1.2551 6.0308q0.48902 2.3497 2.8387 1.8606l7.5801-1.5776q2.3497-0.48902 1.8606-2.8387l-1.2551-6.0308q-0.48902-2.3497-2.8387-1.8606l-7.5801 1.5776q-2.3497 0.48902-1.8606 2.8387z" clip-path="url(#a)" fill="#fff" stroke="#fff"/>
<g clip-path="url(#a)">
<g transform="translate(1144.1 604.42) rotate(78.243) scale(.08 -.08)">
<use xlink:href="#aj"/>
</g>
</g>
<path d="m1117.3 604.75 0.63454 5.8205q0.2601 2.3859 2.646 2.1258l7.6969-0.8391q2.3859-0.2601 2.1258-2.646l-0.63454-5.8205q-0.2601-2.3859-2.646-2.1258l-7.6969 0.8391q-2.3859 0.2601-2.1258 2.646z" clip-path="url(#a)" fill="#fff" stroke="#fff"/>
<g clip-path="url(#a)">
<g transform="translate(1121.3 604.31) rotate(83.778) scale(.08 -.08)">
<use xlink:href="#u"/>
</g>
</g>
<path d="m1327.1 897.93v35.285q0 2.4 2.4 2.4h7.7425q2.4 0 2.4-2.4v-35.285q0-2.4-2.4-2.4h-7.7425q-2.4 0-2.4 2.4z" clip-path="url(#a)" fill="#fff" stroke="#fff"/>
<g clip-path="url(#a)">
<g transform="translate(1331.2 897.93) rotate(90) scale(.08 -.08)">
<use xlink:href="#l"/>
<use x="60.818359" xlink:href="#f"/>
<use x="122.341797" xlink:href="#h"/>
<use x="163.439453" xlink:href="#i"/>
<use x="260.851562" xlink:href="#j"/>
<use x="288.634766" xlink:href="#e"/>
<use x="352.013672" xlink:href="#g"/>
<use x="413.292969" xlink:href="#k"/>
</g>
</g>
<path d="m1726.6 602.38 1.9972 5.095q0.87588 2.2345 3.1103 1.3586l7.2085-2.8256q2.2345-0.87588 1.3586-3.1103l-1.9972-5.095q-0.87588-2.2345-3.1103-1.3586l-7.2085 2.8256q-2.2345 0.87588-1.3586 3.1103z" clip-path="url(#a)" fill="#fff" stroke="#fff"/>
<g clip-path="url(#a)">
<g transform="translate(1730.4 600.9) rotate(68.595) scale(.08 -.08)">
<use xlink:href="#t"/>
</g>
</g>
<path d="m1485.4 530.61 1.4782-4.5917q0.73546-2.2845-1.5491-3.02l-7.37-2.3726q-2.2845-0.73546-3.02 1.5491l-1.4782 4.5917q-0.73546 2.2845 1.5491 3.02l7.37 2.3726q2.2845 0.73546 3.02-1.5491z" clip-path="url(#a)" fill="#fff" stroke="#fff"/>
<g clip-path="url(#a)">
<g transform="translate(1481.6 529.37) rotate(-72.155) scale(.08 -.08)">
<use xlink:href="#x"/>
</g>
</g>
<path d="m1520 454.48 1.4741-5.2702q0.64647-2.3113-1.6648-2.9578l-7.4563-2.0855q-2.3113-0.64647-2.9578 1.6648l-1.4741 5.2702q-0.64647 2.3113 1.6648 2.9578l7.4563 2.0855q2.3113 0.64647 2.9578-1.6648z" clip-path="url(#a)" fill="#fff" stroke="#fff"/>
<g clip-path="url(#a)">
<g transform="translate(1516.1 453.38) rotate(-74.374) scale(.08 -.08)">
<use xlink:href="#t"/>
</g>
</g>
<path d="m1588.7 292.46 0.96207 5.3873q0.42192 2.3626 2.7845 1.9407l7.6219-1.3611q2.3626-0.42192 1.9407-2.7845l-0.96207-5.3873q-0.42192-2.3626-2.7845-1.9407l-7.6219 1.3611q-2.3626 0.42192-1.9407 2.7845z" clip-path="url(#a)" fill="#fff" stroke="#fff"/>
<g clip-path="url(#a)">
<g transform="translate(1592.7 291.75) rotate(79.875) scale(.08 -.08)">
<use xlink:href="#t"/>
</g>
</g>
<path d="m1373.2 897.93v35.285q0 2.4 2.4 2.4h7.7425q2.4 0 2.4-2.4v-35.285q0-2.4-2.4-2.4h-7.7425q-2.4 0-2.4 2.4z" clip-path="url(#a)" fill="#fff" stroke="#fff"/>
<g clip-path="url(#a)">
<g transform="translate(1377.2 897.93) rotate(90) scale(.08 -.08)">
<use xlink:href="#l"/>
<use x="60.818359" xlink:href="#f"/>
<use x="122.341797" xlink:href="#h"/>
<use x="163.439453" xlink:href="#i"/>
<use x="260.851562" xlink:href="#j"/>
<use x="288.634766" xlink:href="#e"/>
<use x="352.013672" xlink:href="#g"/>
<use x="413.292969" xlink:href="#k"/>
</g>
</g>
<path d="m1442.8 766.52 0.75478-4.9983q0.35835-2.3731-2.0147-2.7314l-7.6557-1.1561q-2.3731-0.35835-2.7314 2.0147l-0.75478 4.9983q-0.35835 2.3731 2.0147 2.7314l7.6557 1.1561q2.3731 0.35835 2.7314-2.0147z" clip-path="url(#a)" fill="#fff" stroke="#fff"/>
<g clip-path="url(#a)">
<defs>
<path id="r" d="m9.8125 72.906h46.094v-8.3125h-36.234v-21.578h34.719v-8.2969h-34.719v-26.422h37.109v-8.2969h-46.969z"/>
</defs>
<g transform="translate(1438.8 765.91) rotate(-81.413) scale(.08 -.08)">
<use xlink:href="#r"/>
</g>
</g>
<path d="m1453.4 761.26 0.8341 5.5236q0.35835 2.3731 2.7314 2.0147l7.6557-1.1561q2.3731-0.35835 2.0147-2.7314l-0.8341-5.5236q-0.35835-2.3731-2.7314-2.0147l-7.6557 1.1561q-2.3731 0.35835-2.0147 2.7314z" clip-path="url(#a)" fill="#fff" stroke="#fff"/>
<g clip-path="url(#a)">
<defs>
<path id="q" d="m64.406 67.281v-10.391q-4.9844 4.6406-10.625 6.9219-5.6406 2.2969-11.984 2.2969-12.5 0-19.141-7.6406t-6.6406-22.094q0-14.406 6.6406-22.047t19.141-7.6406q6.3438 0 11.984 2.2969t10.625 6.9375v-10.312q-5.1719-3.5156-10.969-5.2812-5.7812-1.75-12.219-1.75-16.562 0-26.094 10.125-9.5156 10.141-9.5156 27.672 0 17.578 9.5156 27.703 9.5312 10.141 26.094 10.141 6.5312 0 12.312-1.7344 5.7969-1.7344 10.875-5.2031z"/>
</defs>
<g transform="translate(1457.4 760.65) rotate(81.413) scale(.08 -.08)">
<use xlink:href="#q"/>
</g>
</g>
<path d="m1569.3 610.68 0.98285-4.9585q0.46663-2.3542-1.8876-2.8208l-7.5947-1.5054q-2.3542-0.46663-2.8208 1.8876l-0.98285 4.9585q-0.46663 2.3542 1.8876 2.8208l7.5947 1.5054q2.3542 0.46663 2.8208-1.8876z" clip-path="url(#a)" fill="#fff" stroke="#fff"/>
<g clip-path="url(#a)">
<g transform="translate(1565.3 609.89) rotate(-78.789) scale(.08 -.08)">
<use xlink:href="#r"/>
</g>
</g>
<path d="m1648.9 454.19 2.8189 4.8229q1.2111 2.072 3.2831 0.86096l6.6845-3.907q2.072-1.2111 0.86096-3.2831l-2.8189-4.8229q-1.2111-2.072-3.2831-0.86096l-6.6845 3.907q-2.072 1.2111-0.86096 3.2831z" clip-path="url(#a)" fill="#fff" stroke="#fff"/>
<g clip-path="url(#a)">
<g transform="translate(1652.5 452.14) rotate(59.694) scale(.08 -.08)">
<use xlink:href="#q"/>
</g>
</g>
<path d="m1511.3 897.93v35.285q0 2.4 2.4 2.4h7.7425q2.4 0 2.4-2.4v-35.285q0-2.4-2.4-2.4h-7.7425q-2.4 0-2.4 2.4z" clip-path="url(#a)" fill="#fff" stroke="#fff"/>
<g clip-path="url(#a)">
<g transform="translate(1515.4 897.93) rotate(90) scale(.08 -.08)">
<use xlink:href="#l"/>
<use x="60.818359" xlink:href="#f"/>
<use x="122.341797" xlink:href="#h"/>
<use x="163.439453" xlink:href="#i"/>
<use x="260.851562" xlink:href="#j"/>
<use x="288.634766" xlink:href="#e"/>
<use x="352.013672" xlink:href="#g"/>
<use x="413.292969" xlink:href="#k"/>
</g>
</g>
<path d="m1659.7 615.14 2.859-4.7992q1.2283-2.0618-0.83353-3.2902l-6.6516-3.9626q-2.0618-1.2283-3.2902 0.83353l-2.859 4.7992q-1.2283 2.0619 0.83353 3.2902l6.6516 3.9626q2.0618 1.2283 3.2902-0.83353z" clip-path="url(#a)" fill="#fff" stroke="#fff"/>
<g clip-path="url(#a)">
<g transform="translate(1656.2 613.06) rotate(-59.216) scale(.08 -.08)">
<use xlink:href="#q"/>
</g>
</g>
<path d="m1695.6 682.78v5.985q0 2.4 2.4 2.4h7.7425q2.4 0 2.4-2.4v-5.985q0-2.4-2.4-2.4h-7.7425q-2.4 0-2.4 2.4z" clip-path="url(#a)" fill="#fff" stroke="#fff"/>
<g clip-path="url(#a)">
<defs>
<path id="av" d="m9.8125 72.906h13.281l32.328-60.984v60.984h9.5625v-72.906h-13.281l-32.312 60.984v-60.984h-9.5781z"/>
</defs>
<g transform="translate(1699.6 682.78) rotate(90) scale(.08 -.08)">
<use xlink:href="#av"/>
</g>
</g>
<path d="m1741.1 610.34 2.859 4.7992q1.2283 2.0618 3.2902 0.83353l6.6516-3.9626q2.0618-1.2283 0.83353-3.2902l-2.859-4.7992q-1.2283-2.0618-3.2902-0.83353l-6.6516 3.9626q-2.0618 1.2283-0.83353 3.2902z" clip-path="url(#a)" fill="#fff" stroke="#fff"/>
<g clip-path="url(#a)">
<g transform="translate(1744.6 608.26) rotate(59.216) scale(.08 -.08)">
<use xlink:href="#q"/>
</g>
</g>
<path d="m1592 767.31 1.4615-4.8391q0.69388-2.2975-1.6036-2.9914l-7.4119-2.2385q-2.2975-0.69388-2.9914 1.6036l-1.4615 4.8391q-0.69388 2.2975 1.6036 2.9914l7.4119 2.2385q2.2975 0.69388 2.9914-1.6036z" clip-path="url(#a)" fill="#fff" stroke="#fff"/>
<g clip-path="url(#a)">
<g transform="translate(1588.1 766.14) rotate(-73.195) scale(.08 -.08)">
<use xlink:href="#r"/>
</g>
</g>
<path d="m1603.4 760.55v5.055q0 2.4 2.4 2.4h7.7425q2.4 0 2.4-2.4v-5.055q0-2.4-2.4-2.4h-7.7425q-2.4 0-2.4 2.4z" clip-path="url(#a)" fill="#fff" stroke="#fff"/>
<g clip-path="url(#a)">
<g transform="translate(1607.5 760.55) rotate(90) scale(.08 -.08)">
<use xlink:href="#r"/>
</g>
</g>
<path d="m1625.9 762.22 1.6151 5.3477q0.69388 2.2975 2.9914 1.6036l7.4119-2.2385q2.2975-0.69388 1.6036-2.9914l-1.6151-5.3477q-0.69388-2.2975-2.9914-1.6036l-7.4119 2.2385q-2.2975 0.69388-1.6036 2.9914z" clip-path="url(#a)" fill="#fff" stroke="#fff"/>
<g clip-path="url(#a)">
<g transform="translate(1629.8 761.05) rotate(73.195) scale(.08 -.08)">
<use xlink:href="#q"/>
</g>
</g>
<path d="m1695.6 897.93v35.285q0 2.4 2.4 2.4h7.7425q2.4 0 2.4-2.4v-35.285q0-2.4-2.4-2.4h-7.7425q-2.4 0-2.4 2.4z" clip-path="url(#a)" fill="#fff" stroke="#fff"/>
<g clip-path="url(#a)">
<g transform="translate(1699.6 897.93) rotate(90) scale(.08 -.08)">
<use xlink:href="#l"/>
<use x="60.818359" xlink:href="#f"/>
<use x="122.341797" xlink:href="#h"/>
<use x="163.439453" xlink:href="#i"/>
<use x="260.851562" xlink:href="#j"/>
<use x="288.634766" xlink:href="#e"/>
<use x="352.013672" xlink:href="#g"/>
<use x="413.292969" xlink:href="#k"/>
</g>
</g>
<path d="m1776.2 767.31 1.4615-4.8391q0.69388-2.2975-1.6036-2.9914l-7.4119-2.2385q-2.2975-0.69388-2.9914 1.6036l-1.4615 4.8391q-0.69388 2.2975 1.6036 2.9914l7.4119 2.2385q2.2975 0.69388 2.9914-1.6036z" clip-path="url(#a)" fill="#fff" stroke="#fff"/>
<g clip-path="url(#a)">
<g transform="translate(1772.3 766.14) rotate(-73.195) scale(.08 -.08)">
<use xlink:href="#r"/>
</g>
</g>
<path d="m1787.7 760.29v5.5862q0 2.4 2.4 2.4h7.7425q2.4 0 2.4-2.4v-5.5862q0-2.4-2.4-2.4h-7.7425q-2.4 0-2.4 2.4z" clip-path="url(#a)" fill="#fff" stroke="#fff"/>
<g clip-path="url(#a)">
<g transform="translate(1791.7 760.29) rotate(90) scale(.08 -.08)">
<use xlink:href="#q"/>
</g>
</g>
<path d="m1810.1 762.09 1.6928 5.605q0.69388 2.2975 2.9914 1.6036l7.4119-2.2385q2.2975-0.69388 1.6036-2.9914l-1.6928-5.605q-0.69388-2.2975-2.9914-1.6036l-7.4119 2.2385q-2.2975 0.69388-1.6036 2.9914z" clip-path="url(#a)" fill="#fff" stroke="#fff"/>
<g clip-path="url(#a)">
<g transform="translate(1814 760.92) rotate(73.195) scale(.08 -.08)">
<use xlink:href="#u"/>
</g>
</g>
<path d="m1741.6 897.93v35.285q0 2.4 2.4 2.4h7.7425q2.4 0 2.4-2.4v-35.285q0-2.4-2.4-2.4h-7.7425q-2.4 0-2.4 2.4z" clip-path="url(#a)" fill="#fff" stroke="#fff"/>
<g clip-path="url(#a)">
<g transform="translate(1745.7 897.93) rotate(90) scale(.08 -.08)">
<use xlink:href="#l"/>
<use x="60.818359" xlink:href="#f"/>
<use x="122.341797" xlink:href="#h"/>
<use x="163.439453" xlink:href="#i"/>
<use x="260.851562" xlink:href="#j"/>
<use x="288.634766" xlink:href="#e"/>
<use x="352.013672" xlink:href="#g"/>
<use x="413.292969" xlink:href="#k"/>
</g>
</g>
<path d="m1787.7 897.93v35.285q0 2.4 2.4 2.4h7.7425q2.4 0 2.4-2.4v-35.285q0-2.4-2.4-2.4h-7.7425q-2.4 0-2.4 2.4z" clip-path="url(#a)" fill="#fff" stroke="#fff"/>
<g clip-path="url(#a)">
<g transform="translate(1791.7 897.93) rotate(90) scale(.08 -.08)">
<use xlink:href="#l"/>
<use x="60.818359" xlink:href="#f"/>
<use x="122.341797" xlink:href="#h"/>
<use x="163.439453" xlink:href="#i"/>
<use x="260.851562" xlink:href="#j"/>
<use x="288.634766" xlink:href="#e"/>
<use x="352.013672" xlink:href="#g"/>
<use x="413.292969" xlink:href="#k"/>
</g>
</g>
<path d="m1557.4 897.93v35.285q0 2.4 2.4 2.4h7.7425q2.4 0 2.4-2.4v-35.285q0-2.4-2.4-2.4h-7.7425q-2.4 0-2.4 2.4z" clip-path="url(#a)" fill="#fff" stroke="#fff"/>
<g clip-path="url(#a)">
<g transform="translate(1561.5 897.93) rotate(90) scale(.08 -.08)">
<use xlink:href="#l"/>
<use x="60.818359" xlink:href="#f"/>
<use x="122.341797" xlink:href="#h"/>
<use x="163.439453" xlink:href="#i"/>
<use x="260.851562" xlink:href="#j"/>
<use x="288.634766" xlink:href="#e"/>
<use x="352.013672" xlink:href="#g"/>
<use x="413.292969" xlink:href="#k"/>
</g>
</g>
<path d="m1603.4 897.93v35.285q0 2.4 2.4 2.4h7.7425q2.4 0 2.4-2.4v-35.285q0-2.4-2.4-2.4h-7.7425q-2.4 0-2.4 2.4z" clip-path="url(#a)" fill="#fff" stroke="#fff"/>
<g clip-path="url(#a)">
<g transform="translate(1607.5 897.93) rotate(90) scale(.08 -.08)">
<use xlink:href="#l"/>
<use x="60.818359" xlink:href="#f"/>
<use x="122.341797" xlink:href="#h"/>
<use x="163.439453" xlink:href="#i"/>
<use x="260.851562" xlink:href="#j"/>
<use x="288.634766" xlink:href="#e"/>
<use x="352.013672" xlink:href="#g"/>
<use x="413.292969" xlink:href="#k"/>
</g>
</g>
<path d="m1649.5 897.93v35.285q0 2.4 2.4 2.4h7.7425q2.4 0 2.4-2.4v-35.285q0-2.4-2.4-2.4h-7.7425q-2.4 0-2.4 2.4z" clip-path="url(#a)" fill="#fff" stroke="#fff"/>
<g clip-path="url(#a)">
<g transform="translate(1653.6 897.93) rotate(90) scale(.08 -.08)">
<use xlink:href="#l"/>
<use x="60.818359" xlink:href="#f"/>
<use x="122.341797" xlink:href="#h"/>
<use x="163.439453" xlink:href="#i"/>
<use x="260.851562" xlink:href="#j"/>
<use x="288.634766" xlink:href="#e"/>
<use x="352.013672" xlink:href="#g"/>
<use x="413.292969" xlink:href="#k"/>
</g>
</g>
<path d="m1419.2 897.93v35.285q0 2.4 2.4 2.4h7.7425q2.4 0 2.4-2.4v-35.285q0-2.4-2.4-2.4h-7.7425q-2.4 0-2.4 2.4z" clip-path="url(#a)" fill="#fff" stroke="#fff"/>
<g clip-path="url(#a)">
<g transform="translate(1423.3 897.93) rotate(90) scale(.08 -.08)">
<use xlink:href="#l"/>
<use x="60.818359" xlink:href="#f"/>
<use x="122.341797" xlink:href="#h"/>
<use x="163.439453" xlink:href="#i"/>
<use x="260.851562" xlink:href="#j"/>
<use x="288.634766" xlink:href="#e"/>
<use x="352.013672" xlink:href="#g"/>
<use x="413.292969" xlink:href="#k"/>
</g>
</g>
<path d="m1465.3 897.93v35.285q0 2.4 2.4 2.4h7.7425q2.4 0 2.4-2.4v-35.285q0-2.4-2.4-2.4h-7.7425q-2.4 0-2.4 2.4z" clip-path="url(#a)" fill="#fff" stroke="#fff"/>
<g clip-path="url(#a)">
<g transform="translate(1469.4 897.93) rotate(90) scale(.08 -.08)">
<use xlink:href="#l"/>
<use x="60.818359" xlink:href="#f"/>
<use x="122.341797" xlink:href="#h"/>
<use x="163.439453" xlink:href="#i"/>
<use x="260.851562" xlink:href="#j"/>
<use x="288.634766" xlink:href="#e"/>
<use x="352.013672" xlink:href="#g"/>
<use x="413.292969" xlink:href="#k"/>
</g>
</g>
<path d="m982.55 688.77 0.37797-5.0408q0.17945-2.3933-2.2138-2.5727l-7.7208-0.57892q-2.3933-0.17945-2.5727 2.2138l-0.37797 5.0408q-0.17945 2.3933 2.2138 2.5727l7.7208 0.57892q2.3933 0.17945 2.5727-2.2138z" clip-path="url(#a)" fill="#fff" stroke="#fff"/>
<g clip-path="url(#a)">
<g transform="translate(978.5 688.46) rotate(-85.712) scale(.08 -.08)">
<use xlink:href="#r"/>
</g>
</g>
<path d="m992.9 607.69 0.82291 5.5253q0.35354 2.3738 2.7274 2.0203l7.658-1.1405q2.3738-0.35354 2.0203-2.7274l-0.82291-5.5253q-0.35354-2.3738-2.7274-2.0203l-7.658 1.1405q-2.3738 0.35354-2.0203 2.7274z" clip-path="url(#a)" fill="#fff" stroke="#fff"/>
<g clip-path="url(#a)">
<g transform="translate(996.92 607.1) rotate(81.529) scale(.08 -.08)">
<use xlink:href="#q"/>
</g>
</g>
<path d="m1050.8 897.93v35.285q0 2.4 2.4 2.4h7.7425q2.4 0 2.4-2.4v-35.285q0-2.4-2.4-2.4h-7.7425q-2.4 0-2.4 2.4z" clip-path="url(#a)" fill="#fff" stroke="#fff"/>
<g clip-path="url(#a)">
<g transform="translate(1054.9 897.93) rotate(90) scale(.08 -.08)">
<use xlink:href="#l"/>
<use x="60.818359" xlink:href="#f"/>
<use x="122.341797" xlink:href="#h"/>
<use x="163.439453" xlink:href="#i"/>
<use x="260.851562" xlink:href="#j"/>
<use x="288.634766" xlink:href="#e"/>
<use x="352.013672" xlink:href="#g"/>
<use x="413.292969" xlink:href="#k"/>
</g>
</g>
<path d="m1096.9 897.93v35.285q0 2.4 2.4 2.4h7.7425q2.4 0 2.4-2.4v-35.285q0-2.4-2.4-2.4h-7.7425q-2.4 0-2.4 2.4z" clip-path="url(#a)" fill="#fff" stroke="#fff"/>
<g clip-path="url(#a)">
<g transform="translate(1100.9 897.93) rotate(90) scale(.08 -.08)">
<use xlink:href="#l"/>
<use x="60.818359" xlink:href="#f"/>
<use x="122.341797" xlink:href="#h"/>
<use x="163.439453" xlink:href="#i"/>
<use x="260.851562" xlink:href="#j"/>
<use x="288.634766" xlink:href="#e"/>
<use x="352.013672" xlink:href="#g"/>
<use x="413.292969" xlink:href="#k"/>
</g>
</g>
<path d="m1189 897.93v35.285q0 2.4 2.4 2.4h7.7425q2.4 0 2.4-2.4v-35.285q0-2.4-2.4-2.4h-7.7425q-2.4 0-2.4 2.4z" clip-path="url(#a)" fill="#fff" stroke="#fff"/>
<g clip-path="url(#a)">
<g transform="translate(1193 897.93) rotate(90) scale(.08 -.08)">
<use xlink:href="#l"/>
<use x="60.818359" xlink:href="#f"/>
<use x="122.341797" xlink:href="#h"/>
<use x="163.439453" xlink:href="#i"/>
<use x="260.851562" xlink:href="#j"/>
<use x="288.634766" xlink:href="#e"/>
<use x="352.013672" xlink:href="#g"/>
<use x="413.292969" xlink:href="#k"/>
</g>
</g>
<path d="m958.7 897.93v35.285q0 2.4 2.4 2.4h7.7425q2.4 0 2.4-2.4v-35.285q0-2.4-2.4-2.4h-7.7425q-2.4 0-2.4 2.4z" clip-path="url(#a)" fill="#fff" stroke="#fff"/>
<g clip-path="url(#a)">
<g transform="translate(962.77 897.93) rotate(90) scale(.08 -.08)">
<use xlink:href="#l"/>
<use x="60.818359" xlink:href="#f"/>
<use x="122.341797" xlink:href="#h"/>
<use x="163.439453" xlink:href="#i"/>
<use x="260.851562" xlink:href="#j"/>
<use x="288.634766" xlink:href="#e"/>
<use x="352.013672" xlink:href="#g"/>
<use x="413.292969" xlink:href="#k"/>
</g>
</g>
<path d="m1004.8 760.54v5.0788q0 2.4 2.4 2.4h7.7425q2.4 0 2.4-2.4v-5.0788q0-2.4-2.4-2.4h-7.7425q-2.4 0-2.4 2.4z" clip-path="url(#a)" fill="#fff" stroke="#fff"/>
<g clip-path="url(#a)">
<g transform="translate(1008.8 760.54) rotate(90) scale(.08 -.08)">
<use xlink:href="#ah"/>
</g>
</g>
<path d="m1004.8 897.93v35.285q0 2.4 2.4 2.4h7.7425q2.4 0 2.4-2.4v-35.285q0-2.4-2.4-2.4h-7.7425q-2.4 0-2.4 2.4z" clip-path="url(#a)" fill="#fff" stroke="#fff"/>
<g clip-path="url(#a)">
<g transform="translate(1008.8 897.93) rotate(90) scale(.08 -.08)">
<use xlink:href="#l"/>
<use x="60.818359" xlink:href="#f"/>
<use x="122.341797" xlink:href="#h"/>
<use x="163.439453" xlink:href="#i"/>
<use x="260.851562" xlink:href="#j"/>
<use x="288.634766" xlink:href="#e"/>
<use x="352.013672" xlink:href="#g"/>
<use x="413.292969" xlink:href="#k"/>
</g>
</g>
<path d="m590.28 897.93v35.285q0 2.4 2.4 2.4h7.7425q2.4 0 2.4-2.4v-35.285q0-2.4-2.4-2.4h-7.7425q-2.4 0-2.4 2.4z" clip-path="url(#a)" fill="#fff" stroke="#fff"/>
<g clip-path="url(#a)">
<g transform="translate(594.34 897.93) rotate(90) scale(.08 -.08)">
<use xlink:href="#l"/>
<use x="60.818359" xlink:href="#f"/>
<use x="122.341797" xlink:href="#h"/>
<use x="163.439453" xlink:href="#i"/>
<use x="260.851562" xlink:href="#j"/>
<use x="288.634766" xlink:href="#e"/>
<use x="352.013672" xlink:href="#g"/>
<use x="413.292969" xlink:href="#k"/>
</g>
</g>
<path d="m636.33 897.93v35.285q0 2.4 2.4 2.4h7.7425q2.4 0 2.4-2.4v-35.285q0-2.4-2.4-2.4h-7.7425q-2.4 0-2.4 2.4z" clip-path="url(#a)" fill="#fff" stroke="#fff"/>
<g clip-path="url(#a)">
<g transform="translate(640.39 897.93) rotate(90) scale(.08 -.08)">
<use xlink:href="#l"/>
<use x="60.818359" xlink:href="#f"/>
<use x="122.341797" xlink:href="#h"/>
<use x="163.439453" xlink:href="#i"/>
<use x="260.851562" xlink:href="#j"/>
<use x="288.634766" xlink:href="#e"/>
<use x="352.013672" xlink:href="#g"/>
<use x="413.292969" xlink:href="#k"/>
</g>
</g>
<path d="m682.38 897.93v35.285q0 2.4 2.4 2.4h7.7425q2.4 0 2.4-2.4v-35.285q0-2.4-2.4-2.4h-7.7425q-2.4 0-2.4 2.4z" clip-path="url(#a)" fill="#fff" stroke="#fff"/>
<g clip-path="url(#a)">
<g transform="translate(686.45 897.93) rotate(90) scale(.08 -.08)">
<use xlink:href="#l"/>
<use x="60.818359" xlink:href="#f"/>
<use x="122.341797" xlink:href="#h"/>
<use x="163.439453" xlink:href="#i"/>
<use x="260.851562" xlink:href="#j"/>
<use x="288.634766" xlink:href="#e"/>
<use x="352.013672" xlink:href="#g"/>
<use x="413.292969" xlink:href="#k"/>
</g>
</g>
<path d="m728.44 897.93v35.285q0 2.4 2.4 2.4h7.7425q2.4 0 2.4-2.4v-35.285q0-2.4-2.4-2.4h-7.7425q-2.4 0-2.4 2.4z" clip-path="url(#a)" fill="#fff" stroke="#fff"/>
<g clip-path="url(#a)">
<g transform="translate(732.5 897.93) rotate(90) scale(.08 -.08)">
<use xlink:href="#l"/>
<use x="60.818359" xlink:href="#f"/>
<use x="122.341797" xlink:href="#h"/>
<use x="163.439453" xlink:href="#i"/>
<use x="260.851562" xlink:href="#j"/>
<use x="288.634766" xlink:href="#e"/>
<use x="352.013672" xlink:href="#g"/>
<use x="413.292969" xlink:href="#k"/>
</g>
</g>
<path d="m798.1 766.52 0.75478-4.9983q0.35835-2.3731-2.0147-2.7314l-7.6557-1.1561q-2.3731-0.35835-2.7314 2.0147l-0.75478 4.9983q-0.35835 2.3731 2.0147 2.7314l7.6557 1.1561q2.3731 0.35835 2.7314-2.0147z" clip-path="url(#a)" fill="#fff" stroke="#fff"/>
<g clip-path="url(#a)">
<g transform="translate(794.08 765.91) rotate(-81.413) scale(.08 -.08)">
<use xlink:href="#r"/>
</g>
</g>
<path d="m808.68 761.26 0.8341 5.5236q0.35835 2.3731 2.7314 2.0147l7.6557-1.1561q2.3731-0.35835 2.0147-2.7314l-0.8341-5.5236q-0.35835-2.3731-2.7314-2.0147l-7.6557 1.1561q-2.3731 0.35835-2.0147 2.7314z" clip-path="url(#a)" fill="#fff" stroke="#fff"/>
<g clip-path="url(#a)">
<g transform="translate(812.7 760.65) rotate(81.413) scale(.08 -.08)">
<use xlink:href="#q"/>
</g>
</g>
<path d="m774.49 897.93v35.285q0 2.4 2.4 2.4h7.7425q2.4 0 2.4-2.4v-35.285q0-2.4-2.4-2.4h-7.7425q-2.4 0-2.4 2.4z" clip-path="url(#a)" fill="#fff" stroke="#fff"/>
<g clip-path="url(#a)">
<g transform="translate(778.55 897.93) rotate(90) scale(.08 -.08)">
<use xlink:href="#l"/>
<use x="60.818359" xlink:href="#f"/>
<use x="122.341797" xlink:href="#h"/>
<use x="163.439453" xlink:href="#i"/>
<use x="260.851562" xlink:href="#j"/>
<use x="288.634766" xlink:href="#e"/>
<use x="352.013672" xlink:href="#g"/>
<use x="413.292969" xlink:href="#k"/>
</g>
</g>
<path d="m820.54 897.93v35.285q0 2.4 2.4 2.4h7.7425q2.4 0 2.4-2.4v-35.285q0-2.4-2.4-2.4h-7.7425q-2.4 0-2.4 2.4z" clip-path="url(#a)" fill="#fff" stroke="#fff"/>
<g clip-path="url(#a)">
<g transform="translate(824.61 897.93) rotate(90) scale(.08 -.08)">
<use xlink:href="#l"/>
<use x="60.818359" xlink:href="#f"/>
<use x="122.341797" xlink:href="#h"/>
<use x="163.439453" xlink:href="#i"/>
<use x="260.851562" xlink:href="#j"/>
<use x="288.634766" xlink:href="#e"/>
<use x="352.013672" xlink:href="#g"/>
<use x="413.292969" xlink:href="#k"/>
</g>
</g>
<path d="m83.692 897.93v35.285q0 2.4 2.4 2.4h7.7425q2.4 0 2.4-2.4v-35.285q0-2.4-2.4-2.4h-7.7425q-2.4 0-2.4 2.4z" clip-path="url(#a)" fill="#fff" stroke="#fff"/>
<g clip-path="url(#a)">
<g transform="translate(87.756 897.93) rotate(90) scale(.08 -.08)">
<use xlink:href="#l"/>
<use x="60.818359" xlink:href="#f"/>
<use x="122.341797" xlink:href="#h"/>
<use x="163.439453" xlink:href="#i"/>
<use x="260.851562" xlink:href="#j"/>
<use x="288.634766" xlink:href="#e"/>
<use x="352.013672" xlink:href="#g"/>
<use x="413.292969" xlink:href="#k"/>
</g>
</g>
<path d="m199.41 766.52 0.75478-4.9983q0.35835-2.3731-2.0147-2.7314l-7.6557-1.1561q-2.3731-0.35835-2.7314 2.0147l-0.75478 4.9983q-0.35835 2.3731 2.0147 2.7314l7.6557 1.1561q2.3731 0.35835 2.7314-2.0147z" clip-path="url(#a)" fill="#fff" stroke="#fff"/>
<g clip-path="url(#a)">
<g transform="translate(195.39 765.91) rotate(-81.413) scale(.08 -.08)">
<use xlink:href="#r"/>
</g>
</g>
<path d="m209.99 761.26 0.8341 5.5236q0.35835 2.3731 2.7314 2.0147l7.6557-1.1561q2.3731-0.35835 2.0147-2.7314l-0.8341-5.5236q-0.35835-2.3731-2.7314-2.0147l-7.6557 1.1561q-2.3731 0.35835-2.0147 2.7314z" clip-path="url(#a)" fill="#fff" stroke="#fff"/>
<g clip-path="url(#a)">
<g transform="translate(214.01 760.65) rotate(81.413) scale(.08 -.08)">
<use xlink:href="#q"/>
</g>
</g>
<path d="m267.9 897.93v35.285q0 2.4 2.4 2.4h7.7425q2.4 0 2.4-2.4v-35.285q0-2.4-2.4-2.4h-7.7425q-2.4 0-2.4 2.4z" clip-path="url(#a)" fill="#fff" stroke="#fff"/>
<g clip-path="url(#a)">
<g transform="translate(271.97 897.93) rotate(90) scale(.08 -.08)">
<use xlink:href="#l"/>
<use x="60.818359" xlink:href="#f"/>
<use x="122.341797" xlink:href="#h"/>
<use x="163.439453" xlink:href="#i"/>
<use x="260.851562" xlink:href="#j"/>
<use x="288.634766" xlink:href="#e"/>
<use x="352.013672" xlink:href="#g"/>
<use x="413.292969" xlink:href="#k"/>
</g>
</g>
<path d="m313.96 897.93v35.285q0 2.4 2.4 2.4h7.7425q2.4 0 2.4-2.4v-35.285q0-2.4-2.4-2.4h-7.7425q-2.4 0-2.4 2.4z" clip-path="url(#a)" fill="#fff" stroke="#fff"/>
<g clip-path="url(#a)">
<g transform="translate(318.02 897.93) rotate(90) scale(.08 -.08)">
<use xlink:href="#l"/>
<use x="60.818359" xlink:href="#f"/>
<use x="122.341797" xlink:href="#h"/>
<use x="163.439453" xlink:href="#i"/>
<use x="260.851562" xlink:href="#j"/>
<use x="288.634766" xlink:href="#e"/>
<use x="352.013672" xlink:href="#g"/>
<use x="413.292969" xlink:href="#k"/>
</g>
</g>
<path d="m360.01 897.93v35.285q0 2.4 2.4 2.4h7.7425q2.4 0 2.4-2.4v-35.285q0-2.4-2.4-2.4h-7.7425q-2.4 0-2.4 2.4z" clip-path="url(#a)" fill="#fff" stroke="#fff"/>
<g clip-path="url(#a)">
<g transform="translate(364.07 897.93) rotate(90) scale(.08 -.08)">
<use xlink:href="#l"/>
<use x="60.818359" xlink:href="#f"/>
<use x="122.341797" xlink:href="#h"/>
<use x="163.439453" xlink:href="#i"/>
<use x="260.851562" xlink:href="#j"/>
<use x="288.634766" xlink:href="#e"/>
<use x="352.013672" xlink:href="#g"/>
<use x="413.292969" xlink:href="#k"/>
</g>
</g>
<path d="m429.67 766.52 0.75478-4.9983q0.35835-2.3731-2.0147-2.7314l-7.6557-1.1561q-2.3731-0.35835-2.7314 2.0147l-0.75478 4.9983q-0.35835 2.3731 2.0147 2.7314l7.6557 1.1561q2.3731 0.35835 2.7314-2.0147z" clip-path="url(#a)" fill="#fff" stroke="#fff"/>
<g clip-path="url(#a)">
<g transform="translate(425.65 765.91) rotate(-81.413) scale(.08 -.08)">
<use xlink:href="#r"/>
</g>
</g>
<path d="m440.26 761.26 0.8341 5.5236q0.35835 2.3731 2.7314 2.0147l7.6557-1.1561q2.3731-0.35835 2.0147-2.7314l-0.8341-5.5236q-0.35835-2.3731-2.7314-2.0147l-7.6557 1.1561q-2.3731 0.35835-2.0147 2.7314z" clip-path="url(#a)" fill="#fff" stroke="#fff"/>
<g clip-path="url(#a)">
<g transform="translate(444.28 760.65) rotate(81.413) scale(.08 -.08)">
<use xlink:href="#q"/>
</g>
</g>
<path d="m129.75 897.93v35.285q0 2.4 2.4 2.4h7.7425q2.4 0 2.4-2.4v-35.285q0-2.4-2.4-2.4h-7.7425q-2.4 0-2.4 2.4z" clip-path="url(#a)" fill="#fff" stroke="#fff"/>
<g clip-path="url(#a)">
<g transform="translate(133.81 897.93) rotate(90) scale(.08 -.08)">
<use xlink:href="#l"/>
<use x="60.818359" xlink:href="#f"/>
<use x="122.341797" xlink:href="#h"/>
<use x="163.439453" xlink:href="#i"/>
<use x="260.851562" xlink:href="#j"/>
<use x="288.634766" xlink:href="#e"/>
<use x="352.013672" xlink:href="#g"/>
<use x="413.292969" xlink:href="#k"/>
</g>
</g>
<path d="m406.06 897.93v35.285q0 2.4 2.4 2.4h7.7425q2.4 0 2.4-2.4v-35.285q0-2.4-2.4-2.4h-7.7425q-2.4 0-2.4 2.4z" clip-path="url(#a)" fill="#fff" stroke="#fff"/>
<g clip-path="url(#a)">
<g transform="translate(410.13 897.93) rotate(90) scale(.08 -.08)">
<use xlink:href="#l"/>
<use x="60.818359" xlink:href="#f"/>
<use x="122.341797" xlink:href="#h"/>
<use x="163.439453" xlink:href="#i"/>
<use x="260.851562" xlink:href="#j"/>
<use x="288.634766" xlink:href="#e"/>
<use x="352.013672" xlink:href="#g"/>
<use x="413.292969" xlink:href="#k"/>
</g>
</g>
<path d="m452.12 897.93v35.285q0 2.4 2.4 2.4h7.7425q2.4 0 2.4-2.4v-35.285q0-2.4-2.4-2.4h-7.7425q-2.4 0-2.4 2.4z" clip-path="url(#a)" fill="#fff" stroke="#fff"/>
<g clip-path="url(#a)">
<g transform="translate(456.18 897.93) rotate(90) scale(.08 -.08)">
<use xlink:href="#l"/>
<use x="60.818359" xlink:href="#f"/>
<use x="122.341797" xlink:href="#h"/>
<use x="163.439453" xlink:href="#i"/>
<use x="260.851562" xlink:href="#j"/>
<use x="288.634766" xlink:href="#e"/>
<use x="352.013672" xlink:href="#g"/>
<use x="413.292969" xlink:href="#k"/>
</g>
</g>
<path d="m175.8 897.93v35.285q0 2.4 2.4 2.4h7.7425q2.4 0 2.4-2.4v-35.285q0-2.4-2.4-2.4h-7.7425q-2.4 0-2.4 2.4z" clip-path="url(#a)" fill="#fff" stroke="#fff"/>
<g clip-path="url(#a)">
<g transform="translate(179.86 897.93) rotate(90) scale(.08 -.08)">
<use xlink:href="#l"/>
<use x="60.818359" xlink:href="#f"/>
<use x="122.341797" xlink:href="#h"/>
<use x="163.439453" xlink:href="#i"/>
<use x="260.851562" xlink:href="#j"/>
<use x="288.634766" xlink:href="#e"/>
<use x="352.013672" xlink:href="#g"/>
<use x="413.292969" xlink:href="#k"/>
</g>
</g>
<path d="m221.85 897.93v35.285q0 2.4 2.4 2.4h7.7425q2.4 0 2.4-2.4v-35.285q0-2.4-2.4-2.4h-7.7425q-2.4 0-2.4 2.4z" clip-path="url(#a)" fill="#fff" stroke="#fff"/>
<g clip-path="url(#a)">
<g transform="translate(225.92 897.93) rotate(90) scale(.08 -.08)">
<use xlink:href="#l"/>
<use x="60.818359" xlink:href="#f"/>
<use x="122.341797" xlink:href="#h"/>
<use x="163.439453" xlink:href="#i"/>
<use x="260.851562" xlink:href="#j"/>
<use x="288.634766" xlink:href="#e"/>
<use x="352.013672" xlink:href="#g"/>
<use x="413.292969" xlink:href="#k"/>
</g>
</g>
<path d="m498.17 897.93v35.285q0 2.4 2.4 2.4h7.7425q2.4 0 2.4-2.4v-35.285q0-2.4-2.4-2.4h-7.7425q-2.4 0-2.4 2.4z" clip-path="url(#a)" fill="#fff" stroke="#fff"/>
<g clip-path="url(#a)">
<g transform="translate(502.23 897.93) rotate(90) scale(.08 -.08)">
<use xlink:href="#l"/>
<use x="60.818359" xlink:href="#f"/>
<use x="122.341797" xlink:href="#h"/>
<use x="163.439453" xlink:href="#i"/>
<use x="260.851562" xlink:href="#j"/>
<use x="288.634766" xlink:href="#e"/>
<use x="352.013672" xlink:href="#g"/>
<use x="413.292969" xlink:href="#k"/>
</g>
</g>
<path d="m866.6 897.93v35.285q0 2.4 2.4 2.4h7.7425q2.4 0 2.4-2.4v-35.285q0-2.4-2.4-2.4h-7.7425q-2.4 0-2.4 2.4z" clip-path="url(#a)" fill="#fff" stroke="#fff"/>
<g clip-path="url(#a)">
<g transform="translate(870.66 897.93) rotate(90) scale(.08 -.08)">
<use xlink:href="#l"/>
<use x="60.818359" xlink:href="#f"/>
<use x="122.341797" xlink:href="#h"/>
<use x="163.439453" xlink:href="#i"/>
<use x="260.851562" xlink:href="#j"/>
<use x="288.634766" xlink:href="#e"/>
<use x="352.013672" xlink:href="#g"/>
<use x="413.292969" xlink:href="#k"/>
</g>
</g>
<path d="m1142.9 897.93v35.285q0 2.4 2.4 2.4h7.7425q2.4 0 2.4-2.4v-35.285q0-2.4-2.4-2.4h-7.7425q-2.4 0-2.4 2.4z" clip-path="url(#a)" fill="#fff" stroke="#fff"/>
<g clip-path="url(#a)">
<g transform="translate(1147 897.93) rotate(90) scale(.08 -.08)">
<use xlink:href="#l"/>
<use x="60.818359" xlink:href="#f"/>
<use x="122.341797" xlink:href="#h"/>
<use x="163.439453" xlink:href="#i"/>
<use x="260.851562" xlink:href="#j"/>
<use x="288.634766" xlink:href="#e"/>
<use x="352.013672" xlink:href="#g"/>
<use x="413.292969" xlink:href="#k"/>
</g>
</g>
<path d="m1235 897.93v35.285q0 2.4 2.4 2.4h7.7425q2.4 0 2.4-2.4v-35.285q0-2.4-2.4-2.4h-7.7425q-2.4 0-2.4 2.4z" clip-path="url(#a)" fill="#fff" stroke="#fff"/>
<g clip-path="url(#a)">
<g transform="translate(1239.1 897.93) rotate(90) scale(.08 -.08)">
<use xlink:href="#l"/>
<use x="60.818359" xlink:href="#f"/>
<use x="122.341797" xlink:href="#h"/>
<use x="163.439453" xlink:href="#i"/>
<use x="260.851562" xlink:href="#j"/>
<use x="288.634766" xlink:href="#e"/>
<use x="352.013672" xlink:href="#g"/>
<use x="413.292969" xlink:href="#k"/>
</g>
</g>
<path d="m1281.1 897.93v35.285q0 2.4 2.4 2.4h7.7425q2.4 0 2.4-2.4v-35.285q0-2.4-2.4-2.4h-7.7425q-2.4 0-2.4 2.4z" clip-path="url(#a)" fill="#fff" stroke="#fff"/>
<g clip-path="url(#a)">
<g transform="translate(1285.1 897.93) rotate(90) scale(.08 -.08)">
<use xlink:href="#l"/>
<use x="60.818359" xlink:href="#f"/>
<use x="122.341797" xlink:href="#h"/>
<use x="163.439453" xlink:href="#i"/>
<use x="260.851562" xlink:href="#j"/>
<use x="288.634766" xlink:href="#e"/>
<use x="352.013672" xlink:href="#g"/>
<use x="413.292969" xlink:href="#k"/>
</g>
</g>
<path d="m1833.7 897.93v35.285q0 2.4 2.4 2.4h7.7425q2.4 0 2.4-2.4v-35.285q0-2.4-2.4-2.4h-7.7425q-2.4 0-2.4 2.4z" clip-path="url(#a)" fill="#fff" stroke="#fff"/>
<g clip-path="url(#a)">
<g transform="translate(1837.8 897.93) rotate(90) scale(.08 -.08)">
<use xlink:href="#l"/>
<use x="60.818359" xlink:href="#f"/>
<use x="122.341797" xlink:href="#h"/>
<use x="163.439453" xlink:href="#i"/>
<use x="260.851562" xlink:href="#j"/>
<use x="288.634766" xlink:href="#e"/>
<use x="352.013672" xlink:href="#g"/>
<use x="413.292969" xlink:href="#k"/>
</g>
</g>
<defs>
<path id="b" d="m0 8.6603c2.2967 0 4.4997-0.9125 6.1237-2.5365 1.624-1.624 2.5365-3.827 2.5365-6.1237s-0.9125-4.4997-2.5365-6.1237c-1.624-1.624-3.827-2.5365-6.1237-2.5365s-4.4997 0.9125-6.1237 2.5365c-1.624 1.624-2.5365 3.827-2.5365 6.1237s0.9125 4.4997 2.5365 6.1237c1.624 1.624 3.827 2.5365 6.1237 2.5365z"/>
</defs>
<g clip-path="url(#a)">
<use x="89.963505" y="991.813024" fill="#ffffff" stroke="#ffffff" xlink:href="#b"/>
</g>
<g clip-path="url(#a)">
<use x="136.016659" y="991.813024" fill="#ffffff" stroke="#ffffff" xlink:href="#b"/>
</g>
<g clip-path="url(#a)">
<use x="182.069812" y="991.813024" fill="#ffffff" stroke="#ffffff" xlink:href="#b"/>
</g>
<g clip-path="url(#a)">
<use x="228.122966" y="991.813024" fill="#ffffff" stroke="#ffffff" xlink:href="#b"/>
</g>
<g clip-path="url(#a)">
<use x="274.17612" y="991.813024" fill="#ffffff" stroke="#ffffff" xlink:href="#b"/>
</g>
<g clip-path="url(#a)">
<use x="320.229273" y="991.813024" fill="#ffffff" stroke="#ffffff" xlink:href="#b"/>
</g>
<g clip-path="url(#a)">
<use x="366.282427" y="991.813024" fill="#ffffff" stroke="#ffffff" xlink:href="#b"/>
</g>
<g clip-path="url(#a)">
<use x="412.33558" y="991.813024" fill="#ffffff" stroke="#ffffff" xlink:href="#b"/>
</g>
<g clip-path="url(#a)">
<use x="458.388734" y="991.813024" fill="#ffffff" stroke="#ffffff" xlink:href="#b"/>
</g>
<g clip-path="url(#a)">
<use x="504.441887" y="991.813024" fill="#ffffff" stroke="#ffffff" xlink:href="#b"/>
</g>
<g clip-path="url(#a)">
<use x="550.495041" y="991.813024" fill="#ffffff" stroke="#ffffff" xlink:href="#b"/>
</g>
<g clip-path="url(#a)">
<use x="596.548195" y="991.813024" fill="#ffffff" stroke="#ffffff" xlink:href="#b"/>
</g>
<g clip-path="url(#a)">
<use x="642.601348" y="991.813024" fill="#ffffff" stroke="#ffffff" xlink:href="#b"/>
</g>
<g clip-path="url(#a)">
<use x="688.654502" y="991.813024" fill="#ffffff" stroke="#ffffff" xlink:href="#b"/>
</g>
<g clip-path="url(#a)">
<use x="734.707655" y="991.813024" fill="#ffffff" stroke="#ffffff" xlink:href="#b"/>
</g>
<g clip-path="url(#a)">
<use x="780.760809" y="991.813024" fill="#ffffff" stroke="#ffffff" xlink:href="#b"/>
</g>
<g clip-path="url(#a)">
<use x="826.813962" y="991.813024" fill="#ffffff" stroke="#ffffff" xlink:href="#b"/>
</g>
<g clip-path="url(#a)">
<use x="872.867116" y="991.813024" fill="#ffffff" stroke="#ffffff" xlink:href="#b"/>
</g>
<g clip-path="url(#a)">
<use x="918.92027" y="991.813024" fill="#ffffff" stroke="#ffffff" xlink:href="#b"/>
</g>
<g clip-path="url(#a)">
<use x="964.973423" y="991.813024" fill="#ffffff" stroke="#ffffff" xlink:href="#b"/>
</g>
<g clip-path="url(#a)">
<use x="1011.026577" y="991.813024" fill="#ffffff" stroke="#ffffff" xlink:href="#b"/>
</g>
<g clip-path="url(#a)">
<use x="1057.07973" y="991.813024" fill="#ffffff" stroke="#ffffff" xlink:href="#b"/>
</g>
<g clip-path="url(#a)">
<use x="1103.132884" y="991.813024" fill="#ffffff" stroke="#ffffff" xlink:href="#b"/>
</g>
<g clip-path="url(#a)">
<use x="1149.186038" y="991.813024" fill="#ffffff" stroke="#ffffff" xlink:href="#b"/>
</g>
<g clip-path="url(#a)">
<use x="1195.239191" y="991.813024" fill="#ffffff" stroke="#ffffff" xlink:href="#b"/>
</g>
<g clip-path="url(#a)">
<use x="1241.292345" y="991.813024" fill="#ffffff" stroke="#ffffff" xlink:href="#b"/>
</g>
<g clip-path="url(#a)">
<use x="1287.345498" y="991.813024" fill="#ffffff" stroke="#ffffff" xlink:href="#b"/>
</g>
<g clip-path="url(#a)">
<use x="1333.398652" y="991.813024" fill="#ffffff" stroke="#ffffff" xlink:href="#b"/>
</g>
<g clip-path="url(#a)">
<use x="1379.451805" y="991.813024" fill="#ffffff" stroke="#ffffff" xlink:href="#b"/>
</g>
<g clip-path="url(#a)">
<use x="1425.504959" y="991.813024" fill="#ffffff" stroke="#ffffff" xlink:href="#b"/>
</g>
<g clip-path="url(#a)">
<use x="1471.558113" y="991.813024" fill="#ffffff" stroke="#ffffff" xlink:href="#b"/>
</g>
<g clip-path="url(#a)">
<use x="1517.611266" y="991.813024" fill="#ffffff" stroke="#ffffff" xlink:href="#b"/>
</g>
<g clip-path="url(#a)">
<use x="1563.66442" y="991.813024" fill="#ffffff" stroke="#ffffff" xlink:href="#b"/>
</g>
<g clip-path="url(#a)">
<use x="1609.717573" y="991.813024" fill="#ffffff" stroke="#ffffff" xlink:href="#b"/>
</g>
<g clip-path="url(#a)">
<use x="1655.770727" y="991.813024" fill="#ffffff" stroke="#ffffff" xlink:href="#b"/>
</g>
<g clip-path="url(#a)">
<use x="1701.82388" y="991.813024" fill="#ffffff" stroke="#ffffff" xlink:href="#b"/>
</g>
<g clip-path="url(#a)">
<use x="1747.877034" y="991.813024" fill="#ffffff" stroke="#ffffff" xlink:href="#b"/>
</g>
<g clip-path="url(#a)">
<use x="1793.930188" y="991.813024" fill="#ffffff" stroke="#ffffff" xlink:href="#b"/>
</g>
<g clip-path="url(#a)">
<use x="1839.983341" y="991.813024" fill="#ffffff" stroke="#ffffff" xlink:href="#b"/>
</g>
<g clip-path="url(#a)">
<use x="940.227329" y="48.186976" fill="#ffffff" stroke="#ffffff" xlink:href="#b"/>
</g>
<g clip-path="url(#a)">
<use x="261.018076" y="532.228921" fill="#ffffff" stroke="#ffffff" xlink:href="#b"/>
</g>
<g clip-path="url(#a)">
<use x="550.495041" y="839.325413" fill="#ffffff" stroke="#ffffff" xlink:href="#b"/>
</g>
<g clip-path="url(#a)">
<use x="693.259817" y="532.228921" fill="#ffffff" stroke="#ffffff" xlink:href="#b"/>
</g>
<g clip-path="url(#a)">
<use x="918.92027" y="839.325413" fill="#ffffff" stroke="#ffffff" xlink:href="#b"/>
</g>
<g clip-path="url(#a)">
<use x="1098.527569" y="374.642929" fill="#ffffff" stroke="#ffffff" xlink:href="#b"/>
</g>
<g clip-path="url(#a)">
<use x="1333.398652" y="839.325413" fill="#ffffff" stroke="#ffffff" xlink:href="#b"/>
</g>
<g clip-path="url(#a)">
<use x="1580.934352" y="213.466304" fill="#ffffff" stroke="#ffffff" xlink:href="#b"/>
</g>
<g clip-path="url(#a)">
<use x="1886.036495" y="991.813024" fill="#ffffff" stroke="#ffffff" xlink:href="#b"/>
</g>
<g clip-path="url(#a)">
<use x="1379.451805" y="839.325413" fill="#ffffff" stroke="#ffffff" xlink:href="#b"/>
</g>
<g clip-path="url(#a)">
<use x="1448.531536" y="686.837802" fill="#ffffff" stroke="#ffffff" xlink:href="#b"/>
</g>
<g clip-path="url(#a)">
<use x="1609.717573" y="374.642929" fill="#ffffff" stroke="#ffffff" xlink:href="#b"/>
</g>
<g clip-path="url(#a)">
<use x="1517.611266" y="839.325413" fill="#ffffff" stroke="#ffffff" xlink:href="#b"/>
</g>
<g clip-path="url(#a)">
<use x="1701.82388" y="532.228921" fill="#ffffff" stroke="#ffffff" xlink:href="#b"/>
</g>
<g clip-path="url(#a)">
<use x="1609.717573" y="686.837802" fill="#ffffff" stroke="#ffffff" xlink:href="#b"/>
</g>
<g clip-path="url(#a)">
<use x="1701.82388" y="839.325413" fill="#ffffff" stroke="#ffffff" xlink:href="#b"/>
</g>
<g clip-path="url(#a)">
<use x="1793.930188" y="686.837802" fill="#ffffff" stroke="#ffffff" xlink:href="#b"/>
</g>
<g clip-path="url(#a)">
<use x="1747.877034" y="839.325413" fill="#ffffff" stroke="#ffffff" xlink:href="#b"/>
</g>
<g clip-path="url(#a)">
<use x="1793.930188" y="839.325413" fill="#ffffff" stroke="#ffffff" xlink:href="#b"/>
</g>
<g clip-path="url(#a)">
<use x="1563.66442" y="839.325413" fill="#ffffff" stroke="#ffffff" xlink:href="#b"/>
</g>
<g clip-path="url(#a)">
<use x="1609.717573" y="839.325413" fill="#ffffff" stroke="#ffffff" xlink:href="#b"/>
</g>
<g clip-path="url(#a)">
<use x="1655.770727" y="839.325413" fill="#ffffff" stroke="#ffffff" xlink:href="#b"/>
</g>
<g clip-path="url(#a)">
<use x="1425.504959" y="839.325413" fill="#ffffff" stroke="#ffffff" xlink:href="#b"/>
</g>
<g clip-path="url(#a)">
<use x="1471.558113" y="839.325413" fill="#ffffff" stroke="#ffffff" xlink:href="#b"/>
</g>
<g clip-path="url(#a)">
<use x="988" y="532.228921" fill="#ffffff" stroke="#ffffff" xlink:href="#b"/>
</g>
<g clip-path="url(#a)">
<use x="1057.07973" y="839.325413" fill="#ffffff" stroke="#ffffff" xlink:href="#b"/>
</g>
<g clip-path="url(#a)">
<use x="1103.132884" y="839.325413" fill="#ffffff" stroke="#ffffff" xlink:href="#b"/>
</g>
<g clip-path="url(#a)">
<use x="1195.239191" y="839.325413" fill="#ffffff" stroke="#ffffff" xlink:href="#b"/>
</g>
<g clip-path="url(#a)">
<use x="964.973423" y="839.325413" fill="#ffffff" stroke="#ffffff" xlink:href="#b"/>
</g>
<g clip-path="url(#a)">
<use x="1011.026577" y="686.837802" fill="#ffffff" stroke="#ffffff" xlink:href="#b"/>
</g>
<g clip-path="url(#a)">
<use x="1011.026577" y="839.325413" fill="#ffffff" stroke="#ffffff" xlink:href="#b"/>
</g>
<g clip-path="url(#a)">
<use x="596.548195" y="839.325413" fill="#ffffff" stroke="#ffffff" xlink:href="#b"/>
</g>
<g clip-path="url(#a)">
<use x="642.601348" y="839.325413" fill="#ffffff" stroke="#ffffff" xlink:href="#b"/>
</g>
<g clip-path="url(#a)">
<use x="688.654502" y="839.325413" fill="#ffffff" stroke="#ffffff" xlink:href="#b"/>
</g>
<g clip-path="url(#a)">
<use x="734.707655" y="839.325413" fill="#ffffff" stroke="#ffffff" xlink:href="#b"/>
</g>
<g clip-path="url(#a)">
<use x="803.787386" y="686.837802" fill="#ffffff" stroke="#ffffff" xlink:href="#b"/>
</g>
<g clip-path="url(#a)">
<use x="780.760809" y="839.325413" fill="#ffffff" stroke="#ffffff" xlink:href="#b"/>
</g>
<g clip-path="url(#a)">
<use x="826.813962" y="839.325413" fill="#ffffff" stroke="#ffffff" xlink:href="#b"/>
</g>
<g clip-path="url(#a)">
<use x="89.963505" y="839.325413" fill="#ffffff" stroke="#ffffff" xlink:href="#b"/>
</g>
<g clip-path="url(#a)">
<use x="205.096389" y="686.837802" fill="#ffffff" stroke="#ffffff" xlink:href="#b"/>
</g>
<g clip-path="url(#a)">
<use x="274.17612" y="839.325413" fill="#ffffff" stroke="#ffffff" xlink:href="#b"/>
</g>
<g clip-path="url(#a)">
<use x="320.229273" y="839.325413" fill="#ffffff" stroke="#ffffff" xlink:href="#b"/>
</g>
<g clip-path="url(#a)">
<use x="366.282427" y="839.325413" fill="#ffffff" stroke="#ffffff" xlink:href="#b"/>
</g>
<g clip-path="url(#a)">
<use x="435.362157" y="686.837802" fill="#ffffff" stroke="#ffffff" xlink:href="#b"/>
</g>
<g clip-path="url(#a)">
<use x="136.016659" y="839.325413" fill="#ffffff" stroke="#ffffff" xlink:href="#b"/>
</g>
<g clip-path="url(#a)">
<use x="412.33558" y="839.325413" fill="#ffffff" stroke="#ffffff" xlink:href="#b"/>
</g>
<g clip-path="url(#a)">
<use x="458.388734" y="839.325413" fill="#ffffff" stroke="#ffffff" xlink:href="#b"/>
</g>
<g clip-path="url(#a)">
<use x="182.069812" y="839.325413" fill="#ffffff" stroke="#ffffff" xlink:href="#b"/>
</g>
<g clip-path="url(#a)">
<use x="228.122966" y="839.325413" fill="#ffffff" stroke="#ffffff" xlink:href="#b"/>
</g>
<g clip-path="url(#a)">
<use x="504.441887" y="839.325413" fill="#ffffff" stroke="#ffffff" xlink:href="#b"/>
</g>
<g clip-path="url(#a)">
<use x="872.867116" y="839.325413" fill="#ffffff" stroke="#ffffff" xlink:href="#b"/>
</g>
<g clip-path="url(#a)">
<use x="1149.186038" y="839.325413" fill="#ffffff" stroke="#ffffff" xlink:href="#b"/>
</g>
<g clip-path="url(#a)">
<use x="1241.292345" y="839.325413" fill="#ffffff" stroke="#ffffff" xlink:href="#b"/>
</g>
<g clip-path="url(#a)">
<use x="1287.345498" y="839.325413" fill="#ffffff" stroke="#ffffff" xlink:href="#b"/>
</g>
<g clip-path="url(#a)">
<use x="1839.983341" y="839.325413" fill="#ffffff" stroke="#ffffff" xlink:href="#b"/>
</g>
<g clip-path="url(#a)">
<g transform="translate(71.592 994.57) scale(.1 -.1)">
<use xlink:href="#ac"/>
<use x="75.195312" xlink:href="#i"/>
<use x="172.607422" xlink:href="#i"/>
<use x="270.019531" xlink:href="#i"/>
</g>
</g>
<g clip-path="url(#a)">
<defs>
<path id="d" d="m10.688 12.406h10.312v-12.406h-10.312z"/>
</defs>
<g transform="translate(131.25 994.57) scale(.1 -.1)">
<use xlink:href="#d"/>
<use x="31.787109" xlink:href="#d"/>
<use x="63.574219" xlink:href="#d"/>
</g>
</g>
<g clip-path="url(#a)">
<g transform="translate(178.65 994.57) scale(.1 -.1)">
<use xlink:href="#t"/>
</g>
</g>
<g clip-path="url(#a)">
<defs>
<path id="aq" d="m18.109 8.2031v-29h-9.0312v75.484h9.0312v-8.2969q2.8438 4.875 7.1562 7.2344 4.3281 2.375 10.328 2.375 9.9688 0 16.188-7.9062 6.2344-7.9062 6.2344-20.797t-6.2344-20.812q-6.2188-7.9062-16.188-7.9062-6 0-10.328 2.375-4.3125 2.375-7.1562 7.25zm30.578 19.094q0 9.9062-4.0781 15.547t-11.203 5.6406q-7.1406 0-11.219-5.6406t-4.0781-15.547 4.0781-15.547 11.219-5.6406q7.125 0 11.203 5.6406t4.0781 15.547z"/>
<path id="w" d="m44.281 53.078v-8.5q-3.7969 1.9531-7.9062 2.9219-4.0938 0.98438-8.5 0.98438-6.6875 0-10.031-2.0469t-3.3438-6.1562q0-3.125 2.3906-4.9062t9.625-3.3906l3.0781-0.6875q9.5625-2.0469 13.594-5.7812t4.0312-10.422q0-7.625-6.0312-12.078-6.0312-4.4375-16.578-4.4375-4.3906 0-9.1562 0.85938t-10.031 2.5625v9.2812q4.9844-2.5938 9.8125-3.8906 4.8281-1.2812 9.5781-1.2812 6.3438 0 9.75 2.1719 3.4219 2.1719 3.4219 6.125 0 3.6562-2.4688 5.6094-2.4531 1.9531-10.812 3.7656l-3.125 0.73438q-8.3438 1.75-12.062 5.3906-3.7031 3.6406-3.7031 9.9844 0 7.7188 5.4688 11.906 5.4688 4.2031 15.531 4.2031 4.9688 0 9.3594-0.73438 4.4062-0.71875 8.1094-2.1875z"/>
<path id="s" d="m30.609 48.391q-7.2188 0-11.422-5.6406t-4.2031-15.453 4.1719-15.453q4.1875-5.6406 11.453-5.6406 7.1875 0 11.375 5.6562 4.2031 5.6719 4.2031 15.438 0 9.7188-4.2031 15.406-4.1875 5.6875-11.375 5.6875zm0 7.6094q11.719 0 18.406-7.625 6.7031-7.6094 6.7031-21.078 0-13.422-6.7031-21.078-6.6875-7.6406-18.406-7.6406-11.766 0-18.438 7.6406-6.6562 7.6562-6.6562 21.078 0 13.469 6.6562 21.078 6.6719 7.625 18.438 7.625z"/>
</defs>
<g transform="translate(210.98 994.57) scale(.1 -.1)">
<use xlink:href="#aq"/>
<use x="63.476562" xlink:href="#f"/>
<use x="125" xlink:href="#h"/>
<use x="166.113281" xlink:href="#w"/>
<use x="218.212891" xlink:href="#s"/>
<use x="279.394531" xlink:href="#e"/>
</g>
</g>
<g clip-path="url(#a)">
<defs>
<path id="ag" d="m48.781 52.594v-8.4062q-3.8125 2.1094-7.6406 3.1562t-7.7344 1.0469q-8.75 0-13.594-5.5469-4.8281-5.5312-4.8281-15.547t4.8281-15.562q4.8438-5.5312 13.594-5.5312 3.9062 0 7.7344 1.0469t7.6406 3.1562v-8.3125q-3.7656-1.75-7.7969-2.625-4.0156-0.89062-8.5625-0.89062-12.359 0-19.641 7.7656-7.2656 7.7656-7.2656 20.953 0 13.375 7.3438 21.031 7.3594 7.6719 20.156 7.6719 4.1406 0 8.0938-0.85938 3.9531-0.84375 7.6719-2.5469z"/>
</defs>
<g transform="translate(265.19 994.57) scale(.1 -.1)">
<use xlink:href="#ag"/>
<use x="54.980469" xlink:href="#g"/>
<use x="116.259766" xlink:href="#e"/>
</g>
</g>
<g clip-path="url(#a)">
<defs>
<path id="aa" d="m18.312 70.219v-15.531h18.5v-6.9844h-18.5v-29.688q0-6.6875 1.8281-8.5938t7.4531-1.9062h9.2188v-7.5156h-9.2188q-10.406 0-14.359 3.875-3.9531 3.8906-3.9531 14.141v29.688h-6.5938v6.9844h6.5938v15.531z"/>
</defs>
<g transform="translate(312.04 994.57) scale(.1 -.1)">
<use xlink:href="#e"/>
<use x="63.378906" xlink:href="#s"/>
<use x="124.560547" xlink:href="#aa"/>
</g>
</g>
<g clip-path="url(#a)">
<g transform="translate(357.69 994.57) scale(.1 -.1)">
<use xlink:href="#ag"/>
<use x="54.980469" xlink:href="#g"/>
<use x="116.259766" xlink:href="#k"/>
<use x="144.042969" xlink:href="#k"/>
</g>
</g>
<g clip-path="url(#a)">
<g transform="translate(409.27 994.57) scale(.1 -.1)">
<use xlink:href="#g"/>
</g>
</g>
<g clip-path="url(#a)">
<defs>
<path id="am" d="m32.172-5.0781q-3.7969-9.7656-7.4219-12.734-3.6094-2.9844-9.6562-2.9844h-7.1875v7.5156h5.2812q3.7031 0 5.75 1.7656 2.0625 1.75 4.5469 8.2969l1.6094 4.0938-22.109 53.812h9.5156l17.094-42.766 17.094 42.766h9.5156z"/>
</defs>
<g transform="translate(435.34 994.57) scale(.1 -.1)">
<use xlink:href="#ag"/>
<use x="54.980469" xlink:href="#s"/>
<use x="116.162109" xlink:href="#i"/>
<use x="213.574219" xlink:href="#aq"/>
<use x="277.050781" xlink:href="#g"/>
<use x="338.330078" xlink:href="#e"/>
<use x="401.708984" xlink:href="#am"/>
</g>
</g>
<g clip-path="url(#a)">
<defs>
<path id="ap" d="m11.719 12.406h10.297v-8.4062l-8-15.625h-6.2969l4 15.625z"/>
</defs>
<g transform="translate(502.85 994.57) scale(.1 -.1)">
<use xlink:href="#ap"/>
</g>
</g>
<g clip-path="url(#a)">
<defs>
<path id="bb" d="m37.109 75.984v-7.4844h-8.5938q-4.8281 0-6.7188-1.9531-1.875-1.9531-1.875-7.0312v-4.8281h14.797v-6.9844h-14.797v-47.703h-9.0312v47.703h-8.5938v6.9844h8.5938v3.8125q0 9.125 4.25 13.297 4.25 4.1875 13.469 4.1875z"/>
</defs>
<g transform="translate(547.35 994.57) scale(.1 -.1)">
<use xlink:href="#j"/>
<use x="27.783203" xlink:href="#bb"/>
</g>
</g>
<g clip-path="url(#a)">
<defs>
<path id="ak" d="m8.5 21.578v33.109h8.9844v-32.766q0-7.7656 3.0156-11.656 3.0312-3.875 9.0938-3.875 7.2656 0 11.484 4.6406 4.2344 4.6406 4.2344 12.656v31h8.9844v-54.688h-8.9844v8.4062q-3.2656-4.9844-7.5938-7.4062-4.3125-2.4219-10.031-2.4219-9.4219 0-14.312 5.8594-4.875 5.8594-4.875 17.141z"/>
</defs>
<g transform="translate(587.36 994.57) scale(.1 -.1)">
<use xlink:href="#am"/>
<use x="59.179688" xlink:href="#s"/>
<use x="120.361328" xlink:href="#ak"/>
</g>
</g>
<g clip-path="url(#a)">
<defs>
<path id="ao" d="m54.891 33.016v-33.016h-8.9844v32.719q0 7.7656-3.0312 11.609-3.0312 3.8594-9.0781 3.8594-7.2812 0-11.484-4.6406-4.2031-4.625-4.2031-12.641v-30.906h-9.0312v75.984h9.0312v-29.797q3.2344 4.9375 7.5938 7.375 4.375 2.4375 10.094 2.4375 9.4219 0 14.25-5.8281 4.8438-5.8281 4.8438-17.156z"/>
<path id="az" d="m2.9844 54.688h9.5156l17.094-45.891 17.094 45.891h9.5156l-20.516-54.688h-12.203z"/>
</defs>
<g transform="translate(630.33 994.57) scale(.1 -.1)">
<use xlink:href="#ao"/>
<use x="63.378906" xlink:href="#g"/>
<use x="124.658203" xlink:href="#az"/>
<use x="183.837891" xlink:href="#f"/>
</g>
</g>
<g clip-path="url(#a)">
<g transform="translate(682.43 994.57) scale(.1 -.1)">
<use xlink:href="#e"/>
<use x="63.378906" xlink:href="#s"/>
</g>
</g>
<g clip-path="url(#a)">
<defs>
<path id="af" d="m45.406 46.391v29.594h8.9844v-75.984h-8.9844v8.2031q-2.8281-4.875-7.1562-7.25-4.3125-2.375-10.375-2.375-9.9062 0-16.141 7.9062-6.2188 7.9219-6.2188 20.812t6.2188 20.797q6.2344 7.9062 16.141 7.9062 6.0625 0 10.375-2.375 4.3281-2.3594 7.1562-7.2344zm-30.609-19.094q0-9.9062 4.0781-15.547t11.203-5.6406 11.219 5.6406q4.1094 5.6406 4.1094 15.547t-4.1094 15.547q-4.0938 5.6406-11.219 5.6406t-11.203-5.6406-4.0781-15.547z"/>
</defs>
<g transform="translate(724 994.57) scale(.1 -.1)">
<use xlink:href="#j"/>
<use x="27.783203" xlink:href="#af"/>
<use x="91.259766" xlink:href="#f"/>
<use x="152.783203" xlink:href="#g"/>
</g>
</g>
<g clip-path="url(#a)">
<g transform="translate(774.81 994.57) scale(.1 -.1)">
<use xlink:href="#j"/>
<use x="27.783203" xlink:href="#aa"/>
<use x="66.992188" xlink:href="#w"/>
</g>
</g>
<g clip-path="url(#a)">
<g transform="translate(812.63 994.57) scale(.1 -.1)">
<use xlink:href="#e"/>
<use x="63.378906" xlink:href="#g"/>
<use x="124.658203" xlink:href="#i"/>
<use x="222.070312" xlink:href="#f"/>
</g>
</g>
<g clip-path="url(#a)">
<defs>
<path id="ay" d="m31 75.875q-6.5312-11.219-9.7188-22.219-3.1719-10.984-3.1719-22.266 0-11.266 3.2031-22.328t9.6875-22.25h-7.8125q-7.3125 11.484-10.953 22.562t-3.6406 22.016q0 10.891 3.6094 21.922 3.625 11.047 10.984 22.562z"/>
</defs>
<g transform="translate(870.92 994.57) scale(.1 -.1)">
<use xlink:href="#ay"/>
</g>
</g>
<g clip-path="url(#a)">
<g transform="translate(905.93 994.57) scale(.1 -.1)">
<use xlink:href="#w"/>
<use x="52.099609" xlink:href="#j"/>
<use x="79.882812" xlink:href="#e"/>
<use x="143.261719" xlink:href="#ag"/>
<use x="198.242188" xlink:href="#f"/>
</g>
</g>
<g clip-path="url(#a)">
<g transform="translate(956.77 994.57) scale(.1 -.1)">
<use xlink:href="#aa"/>
<use x="39.208984" xlink:href="#ao"/>
<use x="102.587891" xlink:href="#f"/>
</g>
</g>
<g clip-path="url(#a)">
<defs>
<path id="ar" d="m45.406 27.984q0 9.7656-4.0312 15.125-4.0156 5.375-11.297 5.375-7.2188 0-11.25-5.375-4.0312-5.3594-4.0312-15.125 0-9.7188 4.0312-15.094t11.25-5.375q7.2812 0 11.297 5.375 4.0312 5.375 4.0312 15.094zm8.9844-21.203q0-13.953-6.2031-20.766-6.1875-6.8125-18.984-6.8125-4.7344 0-8.9375 0.70312t-8.1562 2.1719v8.7344q3.9531-2.1406 7.8125-3.1562 3.8594-1.0312 7.8594-1.0312 8.8438 0 13.234 4.6094t4.3906 13.938v4.4531q-2.7812-4.8438-7.125-7.2344t-10.406-2.3906q-10.047 0-16.203 7.6562-6.1562 7.6719-6.1562 20.328 0 12.688 6.1562 20.344 6.1562 7.6719 16.203 7.6719 6.0625 0 10.406-2.3906t7.125-7.2188v8.2969h8.9844z"/>
</defs>
<g transform="translate(989.31 994.57) scale(.1 -.1)">
<use xlink:href="#af"/>
<use x="63.476562" xlink:href="#f"/>
<use x="125" xlink:href="#w"/>
<use x="177.099609" xlink:href="#j"/>
<use x="204.882812" xlink:href="#ar"/>
<use x="268.359375" xlink:href="#e"/>
<use x="331.738281" xlink:href="#f"/>
<use x="393.261719" xlink:href="#h"/>
</g>
</g>
<g clip-path="url(#a)">
<g transform="translate(1053.1 994.57) scale(.1 -.1)">
<use xlink:href="#j"/>
<use x="27.783203" xlink:href="#w"/>
</g>
</g>
<g clip-path="url(#a)">
<defs>
<path id="ba" d="m9.0781 75.984h9.0312v-44.875l26.812 23.578h11.469l-29-25.578 30.234-29.109h-11.719l-27.797 26.703v-26.703h-9.0312z"/>
<path id="an" d="m4.2031 54.688h8.9844l11.234-42.672 11.172 42.672h10.594l11.234-42.672 11.188 42.672h8.9844l-14.312-54.688h-10.594l-11.766 44.828-11.812-44.828h-10.609z"/>
</defs>
<g transform="translate(1080.4 994.57) scale(.1 -.1)">
<use xlink:href="#ak"/>
<use x="63.378906" xlink:href="#e"/>
<use x="126.757812" xlink:href="#ba"/>
<use x="184.667969" xlink:href="#e"/>
<use x="248.046875" xlink:href="#s"/>
<use x="309.228516" xlink:href="#an"/>
<use x="391.015625" xlink:href="#e"/>
</g>
</g>
<g clip-path="url(#a)">
<g transform="translate(1144.4 994.57) scale(.1 -.1)">
<use xlink:href="#d"/>
<use x="31.787109" xlink:href="#d"/>
<use x="63.574219" xlink:href="#d"/>
</g>
</g>
<g clip-path="url(#a)">
<defs>
<path id="au" d="m39.406 66.219q-10.75 0-17.078-8.0156-6.3125-8-6.3125-21.828 0-13.766 6.3125-21.781 6.3281-8 17.078-8 10.734 0 17.016 8 6.2812 8.0156 6.2812 21.781 0 13.828-6.2812 21.828-6.2812 8.0156-17.016 8.0156zm0 8q15.328 0 24.5-10.281 9.1875-10.281 9.1875-27.562 0-17.234-9.1875-27.516-9.1719-10.281-24.5-10.281-15.375 0-24.594 10.25-9.2031 10.266-9.2031 27.547t9.2031 27.562q9.2188 10.281 24.594 10.281z"/>
<path id="at" d="m-0.20312 72.906h10.609l20.203-29.984 20.078 29.984h10.594l-25.781-38.188v-34.719h-9.9062v34.719z"/>
</defs>
<g transform="translate(1162.4 994.57) scale(.1 -.1)">
<use xlink:href="#ah"/>
<use x="63.476562" xlink:href="#u"/>
<use x="136.669922" xlink:href="#x"/>
<use x="196.972656" xlink:href="#x"/>
<use x="257.275391" xlink:href="#au"/>
<use x="335.986328" xlink:href="#ah"/>
<use x="399.462891" xlink:href="#r"/>
<use x="462.646484" xlink:href="#aj"/>
<use x="539.648438" xlink:href="#ab"/>
<use x="595.158203" xlink:href="#at"/>
</g>
</g>
<g clip-path="url(#a)">
<defs>
<path id="ax" d="m8.0156 75.875h7.8125q7.3125-11.516 10.953-22.562 3.6406-11.031 3.6406-21.922 0-10.938-3.6406-22.016t-10.953-22.562h-7.8125q6.4844 11.188 9.6875 22.25t3.2031 22.328q0 11.281-3.2031 22.266-3.2031 11-9.6875 22.219z"/>
</defs>
<g transform="translate(1239.3 994.57) scale(.1 -.1)">
<use xlink:href="#ax"/>
</g>
</g>
<g clip-path="url(#a)">
<g transform="translate(1285.8 994.57) scale(.1 -.1)">
<use xlink:href="#ap"/>
</g>
</g>
<g clip-path="url(#a)">
<g transform="translate(1324 994.57) scale(.1 -.1)">
<use xlink:href="#g"/>
<use x="61.279297" xlink:href="#e"/>
<use x="124.658203" xlink:href="#af"/>
</g>
</g>
<g clip-path="url(#a)">
<g transform="translate(1366 994.57) scale(.1 -.1)">
<use xlink:href="#s"/>
<use x="61.181641" xlink:href="#h"/>
<use x="102.279297" xlink:href="#af"/>
<use x="165.755859" xlink:href="#f"/>
<use x="227.279297" xlink:href="#h"/>
</g>
</g>
<g clip-path="url(#a)">
<g transform="translate(1422.4 994.57) scale(.1 -.1)">
<use xlink:href="#g"/>
</g>
</g>
<g clip-path="url(#a)">
<g transform="translate(1458.1 994.57) scale(.1 -.1)">
<use xlink:href="#ar"/>
<use x="63.476562" xlink:href="#s"/>
<use x="124.658203" xlink:href="#an"/>
<use x="206.445312" xlink:href="#e"/>
</g>
</g>
<g clip-path="url(#a)">
<g transform="translate(1498.8 994.57) scale(.1 -.1)">
<use xlink:href="#an"/>
<use x="81.787109" xlink:href="#j"/>
<use x="109.570312" xlink:href="#aa"/>
<use x="148.779297" xlink:href="#ao"/>
<use x="212.158203" xlink:href="#s"/>
<use x="273.339844" xlink:href="#ak"/>
<use x="336.71875" xlink:href="#aa"/>
</g>
</g>
<g clip-path="url(#a)">
<g transform="translate(1560.6 994.57) scale(.1 -.1)">
<use xlink:href="#g"/>
</g>
</g>
<g clip-path="url(#a)">
<g transform="translate(1596.2 994.57) scale(.1 -.1)">
<use xlink:href="#af"/>
<use x="63.476562" xlink:href="#h"/>
<use x="104.558594" xlink:href="#f"/>
<use x="166.082031" xlink:href="#w"/>
<use x="218.181641" xlink:href="#w"/>
</g>
</g>
<g clip-path="url(#a)">
<g transform="translate(1641.6 994.57) scale(.1 -.1)">
<use xlink:href="#e"/>
<use x="63.378906" xlink:href="#g"/>
<use x="124.658203" xlink:href="#i"/>
<use x="222.070312" xlink:href="#f"/>
</g>
</g>
<g clip-path="url(#a)">
<g transform="translate(1696.7 994.57) scale(.1 -.1)">
<use xlink:href="#s"/>
<use x="61.181641" xlink:href="#h"/>
</g>
</g>
<g clip-path="url(#a)">
<g transform="translate(1735.9 994.57) scale(.1 -.1)">
<use xlink:href="#w"/>
<use x="52.099609" xlink:href="#aa"/>
<use x="91.308594" xlink:href="#am"/>
<use x="150.488281" xlink:href="#k"/>
<use x="178.271484" xlink:href="#f"/>
</g>
</g>
<g clip-path="url(#a)">
<defs>
<path id="as" d="m48.688 27.297q0 9.9062-4.0781 15.547t-11.203 5.6406q-7.1406 0-11.219-5.6406t-4.0781-15.547 4.0781-15.547 11.219-5.6406q7.125 0 11.203 5.6406t4.0781 15.547zm-30.578 19.094q2.8438 4.875 7.1562 7.2344 4.3281 2.375 10.328 2.375 9.9688 0 16.188-7.9062 6.2344-7.9062 6.2344-20.797t-6.2344-20.812q-6.2188-7.9062-16.188-7.9062-6 0-10.328 2.375-4.3125 2.375-7.1562 7.25v-8.2031h-9.0312v75.984h9.0312z"/>
</defs>
<g transform="translate(1774.4 994.57) scale(.1 -.1)">
<use xlink:href="#e"/>
<use x="63.378906" xlink:href="#ak"/>
<use x="126.757812" xlink:href="#i"/>
<use x="224.169922" xlink:href="#as"/>
<use x="287.646484" xlink:href="#f"/>
<use x="349.169922" xlink:href="#h"/>
</g>
</g>
<g clip-path="url(#a)">
<g transform="translate(1838.4 994.57) scale(.1 -.1)">
<use xlink:href="#d"/>
</g>
</g>
<g clip-path="url(#a)">
<defs>
<path id="c" d="m12.406 8.2969h16.109v55.625l-17.531-3.5156v8.9844l17.438 3.5156h9.8594v-64.609h16.109v-8.2969h-41.984z"/>
</defs>
<g transform="translate(932.28 50.946) scale(.1 -.1)">
<use xlink:href="#c"/>
<use x="63.623047" xlink:href="#d"/>
<use x="95.410156" xlink:href="#c"/>
</g>
</g>
<g clip-path="url(#a)">
<defs>
<path id="n" d="m19.188 8.2969h34.422v-8.2969h-46.281v8.2969q5.6094 5.8125 15.297 15.594 9.7031 9.7969 12.188 12.641 4.7344 5.3125 6.6094 9 1.8906 3.6875 1.8906 7.25 0 5.8125-4.0781 9.4688-4.0781 3.6719-10.625 3.6719-4.6406 0-9.7969-1.6094-5.1406-1.6094-11-4.8906v9.9688q5.9531 2.3906 11.125 3.6094 5.1875 1.2188 9.4844 1.2188 11.328 0 18.062-5.6719 6.7344-5.6562 6.7344-15.125 0-4.5-1.6875-8.5312-1.6719-4.0156-6.125-9.4844-1.2188-1.4219-7.7656-8.1875-6.5312-6.7656-18.453-18.922z"/>
</defs>
<g transform="translate(253.07 534.99) scale(.1 -.1)">
<use xlink:href="#c"/>
<use x="63.623047" xlink:href="#d"/>
<use x="95.410156" xlink:href="#n"/>
</g>
</g>
<g clip-path="url(#a)">
<defs>
<path id="p" d="m40.578 39.312q7.0781-1.5156 11.047-6.3125 3.9844-4.7812 3.9844-11.812 0-10.781-7.4219-16.703-7.4219-5.9062-21.094-5.9062-4.5781 0-9.4375 0.90625t-10.031 2.7188v9.5156q4.0938-2.3906 8.9688-3.6094 4.8906-1.2188 10.219-1.2188 9.2656 0 14.125 3.6562t4.8594 10.641q0 6.4531-4.5156 10.078-4.5156 3.6406-12.562 3.6406h-8.5v8.1094h8.8906q7.2656 0 11.125 2.9062t3.8594 8.375q0 5.6094-3.9844 8.6094-3.9688 3.0156-11.391 3.0156-4.0625 0-8.7031-0.89062-4.6406-0.875-10.203-2.7188v8.7812q5.625 1.5625 10.531 2.3438t9.25 0.78125q11.234 0 17.766-5.1094 6.5469-5.0938 6.5469-13.781 0-6.0625-3.4688-10.234t-9.8594-5.7812z"/>
</defs>
<g transform="translate(542.54 842.08) scale(.1 -.1)">
<use xlink:href="#c"/>
<use x="63.623047" xlink:href="#d"/>
<use x="95.410156" xlink:href="#p"/>
</g>
</g>
<g clip-path="url(#a)">
<defs>
<path id="o" d="m37.797 64.312-24.906-38.922h24.906zm-2.5938 8.5938h12.406v-47.516h10.406v-8.2031h-10.406v-17.188h-9.8125v17.188h-32.906v9.5156z"/>
</defs>
<g transform="translate(685.31 534.99) scale(.1 -.1)">
<use xlink:href="#c"/>
<use x="63.623047" xlink:href="#d"/>
<use x="95.410156" xlink:href="#o"/>
</g>
</g>
<g clip-path="url(#a)">
<defs>
<path id="m" d="m10.797 72.906h38.719v-8.3125h-29.688v-17.859q2.1406 0.73438 4.2812 1.0938 2.1562 0.35938 4.3125 0.35938 12.203 0 19.328-6.6875 7.1406-6.6875 7.1406-18.109 0-11.766-7.3281-18.297-7.3281-6.5156-20.656-6.5156-4.5938 0-9.3594 0.78125-4.75 0.78125-9.8281 2.3438v9.9219q4.3906-2.3906 9.0781-3.5625t9.9062-1.1719q8.4531 0 13.375 4.4375 4.9375 4.4375 4.9375 12.062 0 7.6094-4.9375 12.047-4.9219 4.4531-13.375 4.4531-3.9531 0-7.8906-0.875-3.9219-0.875-8.0156-2.7344z"/>
</defs>
<g transform="translate(910.97 842.08) scale(.1 -.1)">
<use xlink:href="#c"/>
<use x="63.623047" xlink:href="#d"/>
<use x="95.410156" xlink:href="#m"/>
</g>
</g>
<g clip-path="url(#a)">
<defs>
<path id="v" d="m33.016 40.375q-6.6406 0-10.531-4.5469-3.875-4.5312-3.875-12.438 0-7.8594 3.875-12.438 3.8906-4.5625 10.531-4.5625t10.516 4.5625q3.875 4.5781 3.875 12.438 0 7.9062-3.875 12.438-3.875 4.5469-10.516 4.5469zm19.578 30.922v-8.9844q-3.7188 1.75-7.5 2.6719-3.7812 0.9375-7.5 0.9375-9.7656 0-14.922-6.5938-5.1406-6.5938-5.875-19.922 2.875 4.25 7.2188 6.5156 4.3594 2.2656 9.5781 2.2656 10.984 0 17.359-6.6719 6.375-6.6562 6.375-18.125 0-11.234-6.6406-18.031-6.6406-6.7812-17.672-6.7812-12.656 0-19.344 9.6875-6.6875 9.7031-6.6875 28.109 0 17.281 8.2031 27.562t22.016 10.281q3.7188 0 7.5-0.73438t7.8906-2.1875z"/>
</defs>
<g transform="translate(1090.6 377.4) scale(.1 -.1)">
<use xlink:href="#c"/>
<use x="63.623047" xlink:href="#d"/>
<use x="95.410156" xlink:href="#v"/>
</g>
</g>
<g clip-path="url(#a)">
<defs>
<path id="z" d="m8.2031 72.906h46.875v-4.2031l-26.469-68.703h-10.297l24.906 64.594h-35.016z"/>
</defs>
<g transform="translate(1325.4 842.08) scale(.1 -.1)">
<use xlink:href="#c"/>
<use x="63.623047" xlink:href="#d"/>
<use x="95.410156" xlink:href="#z"/>
</g>
</g>
<g clip-path="url(#a)">
<defs>
<path id="y" d="m31.781 34.625q-7.0312 0-11.062-3.7656-4.0156-3.7656-4.0156-10.344 0-6.5938 4.0156-10.359 4.0312-3.7656 11.062-3.7656t11.078 3.7812q4.0625 3.7969 4.0625 10.344 0 6.5781-4.0312 10.344-4.0156 3.7656-11.109 3.7656zm-9.8594 4.1875q-6.3438 1.5625-9.8906 5.9062-3.5312 4.3594-3.5312 10.609 0 8.7344 6.2188 13.812 6.2344 5.0781 17.062 5.0781 10.891 0 17.094-5.0781t6.2031-13.812q0-6.25-3.5469-10.609-3.5312-4.3438-9.8281-5.9062 7.125-1.6562 11.094-6.5 3.9844-4.8281 3.9844-11.797 0-10.609-6.4688-16.281-6.4688-5.6562-18.531-5.6562-12.047 0-18.531 5.6562-6.4688 5.6719-6.4688 16.281 0 6.9688 4 11.797 4.0156 4.8438 11.141 6.5zm-3.6094 15.578q0-5.6562 3.5312-8.8281 3.5469-3.1719 9.9375-3.1719 6.3594 0 9.9375 3.1719 3.5938 3.1719 3.5938 8.8281 0 5.6719-3.5938 8.8438-3.5781 3.1719-9.9375 3.1719-6.3906 0-9.9375-3.1719-3.5312-3.1719-3.5312-8.8438z"/>
</defs>
<g transform="translate(1573 216.23) scale(.1 -.1)">
<use xlink:href="#c"/>
<use x="63.623047" xlink:href="#d"/>
<use x="95.410156" xlink:href="#y"/>
</g>
</g>
<g clip-path="url(#a)">
<defs>
<path id="al" d="m9.8125 72.906h9.8594v-72.906h-9.8594z"/>
<path id="aw" d="m9.8125 72.906h14.703l18.594-49.609 18.703 49.609h14.703v-72.906h-9.625v64.016l-18.797-50h-9.9062l-18.797 50v-64.016h-9.5781z"/>
</defs>
<g transform="translate(1865 994.57) scale(.1 -.1)">
<use xlink:href="#al"/>
<use x="29.492188" xlink:href="#aw"/>
<use x="115.771484" xlink:href="#x"/>
<use x="176.074219" xlink:href="#ab"/>
<use x="231.787109" xlink:href="#al"/>
<use x="261.279297" xlink:href="#q"/>
<use x="331.103516" xlink:href="#al"/>
<use x="360.595703" xlink:href="#l"/>
</g>
</g>
<g clip-path="url(#a)">
<g transform="translate(1368.3 842.08) scale(.1 -.1)">
<use xlink:href="#c"/>
<use x="63.623047" xlink:href="#d"/>
<use x="95.410156" xlink:href="#c"/>
<use x="159.033203" xlink:href="#m"/>
</g>
</g>
<g clip-path="url(#a)">
<g transform="translate(1437.4 689.6) scale(.1 -.1)">
<use xlink:href="#c"/>
<use x="63.623047" xlink:href="#d"/>
<use x="95.410156" xlink:href="#c"/>
<use x="159.033203" xlink:href="#v"/>
</g>
</g>
<g clip-path="url(#a)">
<g transform="translate(1598.6 377.4) scale(.1 -.1)">
<use xlink:href="#c"/>
<use x="63.623047" xlink:href="#d"/>
<use x="95.410156" xlink:href="#c"/>
<use x="159.033203" xlink:href="#z"/>
</g>
</g>
<g clip-path="url(#a)">
<g transform="translate(1506.5 842.08) scale(.1 -.1)">
<use xlink:href="#c"/>
<use x="63.623047" xlink:href="#d"/>
<use x="95.410156" xlink:href="#c"/>
<use x="159.033203" xlink:href="#y"/>
</g>
</g>
<g clip-path="url(#a)">
<defs>
<path id="ad" d="m10.984 1.5156v8.9844q3.7188-1.7656 7.5156-2.6875 3.8125-0.92188 7.4844-0.92188 9.7656 0 14.906 6.5625 5.1562 6.5625 5.8906 19.953-2.8281-4.2031-7.1875-6.4531-4.3438-2.25-9.6094-2.25-10.938 0-17.312 6.6094-6.375 6.625-6.375 18.109 0 11.219 6.6406 18 6.6406 6.7969 17.672 6.7969 12.656 0 19.312-9.7031 6.6719-9.6875 6.6719-28.141 0-17.234-8.1875-27.516-8.1719-10.281-21.984-10.281-3.7188 0-7.5312 0.73438-3.7969 0.73438-7.9062 2.2031zm19.625 30.906q6.6406 0 10.516 4.5312 3.8906 4.5469 3.8906 12.469 0 7.8594-3.8906 12.422-3.875 4.5625-10.516 4.5625t-10.516-4.5625-3.875-12.422q0-7.9219 3.875-12.469 3.875-4.5312 10.516-4.5312z"/>
</defs>
<g transform="translate(1690.7 534.99) scale(.1 -.1)">
<use xlink:href="#c"/>
<use x="63.623047" xlink:href="#d"/>
<use x="95.410156" xlink:href="#c"/>
<use x="159.033203" xlink:href="#ad"/>
</g>
</g>
<g clip-path="url(#a)">
<defs>
<path id="ae" d="m31.781 66.406q-7.6094 0-11.453-7.5-3.8281-7.4844-3.8281-22.531 0-14.984 3.8281-22.484 3.8438-7.5 11.453-7.5 7.6719 0 11.5 7.5 3.8438 7.5 3.8438 22.484 0 15.047-3.8438 22.531-3.8281 7.5-11.5 7.5zm0 7.8125q12.266 0 18.734-9.7031 6.4688-9.6875 6.4688-28.141 0-18.406-6.4688-28.109-6.4688-9.6875-18.734-9.6875-12.25 0-18.719 9.6875-6.4688 9.7031-6.4688 28.109 0 18.453 6.4688 28.141 6.4688 9.7031 18.719 9.7031z"/>
</defs>
<g transform="translate(1598.6 689.6) scale(.1 -.1)">
<use xlink:href="#c"/>
<use x="63.623047" xlink:href="#d"/>
<use x="95.410156" xlink:href="#n"/>
<use x="159.033203" xlink:href="#ae"/>
</g>
</g>
<g clip-path="url(#a)">
<g transform="translate(1690.7 842.08) scale(.1 -.1)">
<use xlink:href="#c"/>
<use x="63.623047" xlink:href="#d"/>
<use x="95.410156" xlink:href="#n"/>
<use x="159.033203" xlink:href="#c"/>
</g>
</g>
<g clip-path="url(#a)">
<g transform="translate(1782.8 689.6) scale(.1 -.1)">
<use xlink:href="#c"/>
<use x="63.623047" xlink:href="#d"/>
<use x="95.410156" xlink:href="#n"/>
<use x="159.033203" xlink:href="#n"/>
</g>
</g>
<g clip-path="url(#a)">
<g transform="translate(1736.7 842.08) scale(.1 -.1)">
<use xlink:href="#c"/>
<use x="63.623047" xlink:href="#d"/>
<use x="95.410156" xlink:href="#n"/>
<use x="159.033203" xlink:href="#p"/>
</g>
</g>
<g clip-path="url(#a)">
<g transform="translate(1782.8 842.08) scale(.1 -.1)">
<use xlink:href="#c"/>
<use x="63.623047" xlink:href="#d"/>
<use x="95.410156" xlink:href="#n"/>
<use x="159.033203" xlink:href="#o"/>
</g>
</g>
<g clip-path="url(#a)">
<g transform="translate(1552.5 842.08) scale(.1 -.1)">
<use xlink:href="#c"/>
<use x="63.623047" xlink:href="#d"/>
<use x="95.410156" xlink:href="#n"/>
<use x="159.033203" xlink:href="#m"/>
</g>
</g>
<g clip-path="url(#a)">
<g transform="translate(1598.6 842.08) scale(.1 -.1)">
<use xlink:href="#c"/>
<use x="63.623047" xlink:href="#d"/>
<use x="95.410156" xlink:href="#n"/>
<use x="159.033203" xlink:href="#v"/>
</g>
</g>
<g clip-path="url(#a)">
<g transform="translate(1644.6 842.08) scale(.1 -.1)">
<use xlink:href="#c"/>
<use x="63.623047" xlink:href="#d"/>
<use x="95.410156" xlink:href="#n"/>
<use x="159.033203" xlink:href="#z"/>
</g>
</g>
<g clip-path="url(#a)">
<g transform="translate(1414.4 842.08) scale(.1 -.1)">
<use xlink:href="#c"/>
<use x="63.623047" xlink:href="#d"/>
<use x="95.410156" xlink:href="#n"/>
<use x="159.033203" xlink:href="#y"/>
</g>
</g>
<g clip-path="url(#a)">
<g transform="translate(1460.4 842.08) scale(.1 -.1)">
<use xlink:href="#c"/>
<use x="63.623047" xlink:href="#d"/>
<use x="95.410156" xlink:href="#n"/>
<use x="159.033203" xlink:href="#ad"/>
</g>
</g>
<g clip-path="url(#a)">
<g transform="translate(976.87 534.99) scale(.1 -.1)">
<use xlink:href="#c"/>
<use x="63.623047" xlink:href="#d"/>
<use x="95.410156" xlink:href="#p"/>
<use x="159.033203" xlink:href="#ae"/>
</g>
</g>
<g clip-path="url(#a)">
<g transform="translate(1045.9 842.08) scale(.1 -.1)">
<use xlink:href="#c"/>
<use x="63.623047" xlink:href="#d"/>
<use x="95.410156" xlink:href="#p"/>
<use x="159.033203" xlink:href="#c"/>
</g>
</g>
<g clip-path="url(#a)">
<g transform="translate(1092 842.08) scale(.1 -.1)">
<use xlink:href="#c"/>
<use x="63.623047" xlink:href="#d"/>
<use x="95.410156" xlink:href="#p"/>
<use x="159.033203" xlink:href="#n"/>
</g>
</g>
<g clip-path="url(#a)">
<g transform="translate(1184.1 842.08) scale(.1 -.1)">
<use xlink:href="#c"/>
<use x="63.623047" xlink:href="#d"/>
<use x="95.410156" xlink:href="#p"/>
<use x="159.033203" xlink:href="#p"/>
</g>
</g>
<g clip-path="url(#a)">
<g transform="translate(953.84 842.08) scale(.1 -.1)">
<use xlink:href="#c"/>
<use x="63.623047" xlink:href="#d"/>
<use x="95.410156" xlink:href="#p"/>
<use x="159.033203" xlink:href="#m"/>
</g>
</g>
<g clip-path="url(#a)">
<g transform="translate(999.89 689.6) scale(.1 -.1)">
<use xlink:href="#c"/>
<use x="63.623047" xlink:href="#d"/>
<use x="95.410156" xlink:href="#p"/>
<use x="159.033203" xlink:href="#v"/>
</g>
</g>
<g clip-path="url(#a)">
<g transform="translate(999.89 842.08) scale(.1 -.1)">
<use xlink:href="#c"/>
<use x="63.623047" xlink:href="#d"/>
<use x="95.410156" xlink:href="#p"/>
<use x="159.033203" xlink:href="#z"/>
</g>
</g>
<g clip-path="url(#a)">
<g transform="translate(585.42 842.08) scale(.1 -.1)">
<use xlink:href="#c"/>
<use x="63.623047" xlink:href="#d"/>
<use x="95.410156" xlink:href="#p"/>
<use x="159.033203" xlink:href="#y"/>
</g>
</g>
<g clip-path="url(#a)">
<g transform="translate(631.47 842.08) scale(.1 -.1)">
<use xlink:href="#c"/>
<use x="63.623047" xlink:href="#d"/>
<use x="95.410156" xlink:href="#p"/>
<use x="159.033203" xlink:href="#ad"/>
</g>
</g>
<g clip-path="url(#a)">
<g transform="translate(677.52 842.08) scale(.1 -.1)">
<use xlink:href="#c"/>
<use x="63.623047" xlink:href="#d"/>
<use x="95.410156" xlink:href="#o"/>
<use x="159.033203" xlink:href="#ae"/>
</g>
</g>
<g clip-path="url(#a)">
<g transform="translate(723.57 842.08) scale(.1 -.1)">
<use xlink:href="#c"/>
<use x="63.623047" xlink:href="#d"/>
<use x="95.410156" xlink:href="#o"/>
<use x="159.033203" xlink:href="#c"/>
</g>
</g>
<g clip-path="url(#a)">
<g transform="translate(792.65 689.6) scale(.1 -.1)">
<use xlink:href="#c"/>
<use x="63.623047" xlink:href="#d"/>
<use x="95.410156" xlink:href="#o"/>
<use x="159.033203" xlink:href="#n"/>
</g>
</g>
<g clip-path="url(#a)">
<g transform="translate(769.63 842.08) scale(.1 -.1)">
<use xlink:href="#c"/>
<use x="63.623047" xlink:href="#d"/>
<use x="95.410156" xlink:href="#o"/>
<use x="159.033203" xlink:href="#p"/>
</g>
</g>
<g clip-path="url(#a)">
<g transform="translate(815.68 842.08) scale(.1 -.1)">
<use xlink:href="#c"/>
<use x="63.623047" xlink:href="#d"/>
<use x="95.410156" xlink:href="#o"/>
<use x="159.033203" xlink:href="#o"/>
</g>
</g>
<g clip-path="url(#a)">
<g transform="translate(78.831 842.08) scale(.1 -.1)">
<use xlink:href="#c"/>
<use x="63.623047" xlink:href="#d"/>
<use x="95.410156" xlink:href="#o"/>
<use x="159.033203" xlink:href="#m"/>
</g>
</g>
<g clip-path="url(#a)">
<g transform="translate(193.96 689.6) scale(.1 -.1)">
<use xlink:href="#c"/>
<use x="63.623047" xlink:href="#d"/>
<use x="95.410156" xlink:href="#o"/>
<use x="159.033203" xlink:href="#v"/>
</g>
</g>
<g clip-path="url(#a)">
<g transform="translate(263.04 842.08) scale(.1 -.1)">
<use xlink:href="#c"/>
<use x="63.623047" xlink:href="#d"/>
<use x="95.410156" xlink:href="#o"/>
<use x="159.033203" xlink:href="#z"/>
</g>
</g>
<g clip-path="url(#a)">
<g transform="translate(309.1 842.08) scale(.1 -.1)">
<use xlink:href="#c"/>
<use x="63.623047" xlink:href="#d"/>
<use x="95.410156" xlink:href="#o"/>
<use x="159.033203" xlink:href="#y"/>
</g>
</g>
<g clip-path="url(#a)">
<g transform="translate(355.15 842.08) scale(.1 -.1)">
<use xlink:href="#c"/>
<use x="63.623047" xlink:href="#d"/>
<use x="95.410156" xlink:href="#o"/>
<use x="159.033203" xlink:href="#ad"/>
</g>
</g>
<g clip-path="url(#a)">
<g transform="translate(424.23 689.6) scale(.1 -.1)">
<use xlink:href="#c"/>
<use x="63.623047" xlink:href="#d"/>
<use x="95.410156" xlink:href="#m"/>
<use x="159.033203" xlink:href="#ae"/>
</g>
</g>
<g clip-path="url(#a)">
<g transform="translate(124.88 842.08) scale(.1 -.1)">
<use xlink:href="#c"/>
<use x="63.623047" xlink:href="#d"/>
<use x="95.410156" xlink:href="#m"/>
<use x="159.033203" xlink:href="#c"/>
</g>
</g>
<g clip-path="url(#a)">
<g transform="translate(401.2 842.08) scale(.1 -.1)">
<use xlink:href="#c"/>
<use x="63.623047" xlink:href="#d"/>
<use x="95.410156" xlink:href="#m"/>
<use x="159.033203" xlink:href="#n"/>
</g>
</g>
<g clip-path="url(#a)">
<g transform="translate(447.26 842.08) scale(.1 -.1)">
<use xlink:href="#c"/>
<use x="63.623047" xlink:href="#d"/>
<use x="95.410156" xlink:href="#m"/>
<use x="159.033203" xlink:href="#p"/>
</g>
</g>
<g clip-path="url(#a)">
<g transform="translate(170.94 842.08) scale(.1 -.1)">
<use xlink:href="#c"/>
<use x="63.623047" xlink:href="#d"/>
<use x="95.410156" xlink:href="#m"/>
<use x="159.033203" xlink:href="#o"/>
</g>
</g>
<g clip-path="url(#a)">
<g transform="translate(216.99 842.08) scale(.1 -.1)">
<use xlink:href="#c"/>
<use x="63.623047" xlink:href="#d"/>
<use x="95.410156" xlink:href="#m"/>
<use x="159.033203" xlink:href="#m"/>
</g>
</g>
<g clip-path="url(#a)">
<g transform="translate(493.31 842.08) scale(.1 -.1)">
<use xlink:href="#c"/>
<use x="63.623047" xlink:href="#d"/>
<use x="95.410156" xlink:href="#m"/>
<use x="159.033203" xlink:href="#v"/>
</g>
</g>
<g clip-path="url(#a)">
<g transform="translate(861.73 842.08) scale(.1 -.1)">
<use xlink:href="#c"/>
<use x="63.623047" xlink:href="#d"/>
<use x="95.410156" xlink:href="#m"/>
<use x="159.033203" xlink:href="#z"/>
</g>
</g>
<g clip-path="url(#a)">
<g transform="translate(1138.1 842.08) scale(.1 -.1)">
<use xlink:href="#c"/>
<use x="63.623047" xlink:href="#d"/>
<use x="95.410156" xlink:href="#m"/>
<use x="159.033203" xlink:href="#y"/>
</g>
</g>
<g clip-path="url(#a)">
<g transform="translate(1230.2 842.08) scale(.1 -.1)">
<use xlink:href="#c"/>
<use x="63.623047" xlink:href="#d"/>
<use x="95.410156" xlink:href="#m"/>
<use x="159.033203" xlink:href="#ad"/>
</g>
</g>
<g clip-path="url(#a)">
<g transform="translate(1276.2 842.08) scale(.1 -.1)">
<use xlink:href="#c"/>
<use x="63.623047" xlink:href="#d"/>
<use x="95.410156" xlink:href="#v"/>
<use x="159.033203" xlink:href="#ae"/>
</g>
</g>
<g clip-path="url(#a)">
<g transform="translate(1828.9 842.08) scale(.1 -.1)">
<use xlink:href="#c"/>
<use x="63.623047" xlink:href="#d"/>
<use x="95.410156" xlink:href="#v"/>
<use x="159.033203" xlink:href="#c"/>
</g>
</g>
<defs>
<clipPath id="a">
<rect width="1976" height="1040"/>
</clipPath>
</defs>
</svg>
