<?xml version="1.0" encoding="UTF-8"?>
<!DOCTYPE svg  PUBLIC '-//W3C//DTD SVG 1.1//EN'  'http://www.w3.org/Graphics/SVG/1.1/DTD/svg11.dtd'>
<svg width="1064pt" height="560pt" version="1.1" viewBox="0 0 1064 560" xmlns="http://www.w3.org/2000/svg" xmlns:xlink="http://www.w3.org/1999/xlink">
<defs>
<style type="text/css">*{stroke-linecap:butt;stroke-linejoin:round;white-space:pre;}</style>
</defs>
<path d="m0 560h1064v-560h-1064z" fill="#fff"/>
<g fill="none" stroke="#000">
<path d="m304.13 26.56-255.49 407.58" clip-path="url(#a)"/>
<path d="m304.13 26.56-163.42 407.58" clip-path="url(#a)"/>
<path d="m304.13 26.56 204.86 207.59" clip-path="url(#a)"/>
<path d="m304.13 26.56 423.52 104.96" clip-path="url(#a)"/>
<path d="m304.13 26.56-209.46 407.58" clip-path="url(#a)"/>
<path d="m48.633 434.14v99.304" clip-path="url(#a)"/>
<path d="m140.7 434.14v99.304" clip-path="url(#a)"/>
<path d="m508.98 234.15 506.38 299.29" clip-path="url(#a)"/>
<path d="m508.98 234.15-322.24 199.99" clip-path="url(#a)"/>
<path d="m508.98 234.15-184.14 100.69" clip-path="url(#a)"/>
<path d="m727.65 131.52-264.7 302.61" clip-path="url(#a)"/>
<path d="m727.65 131.52-218.67 302.61" clip-path="url(#a)"/>
<path d="m727.65 131.52-172.63 302.61" clip-path="url(#a)"/>
<path d="m727.65 131.52-34.526 102.62" clip-path="url(#a)"/>
<path d="m727.65 131.52 103.58 302.61" clip-path="url(#a)"/>
<path d="m727.65 131.52 149.61 302.61" clip-path="url(#a)"/>
<path d="m727.65 131.52 195.65 302.61" clip-path="url(#a)"/>
<path d="m727.65 131.52 241.68 302.61" clip-path="url(#a)"/>
<path d="m462.95 434.14v99.304" clip-path="url(#a)"/>
<path d="m508.98 434.14v99.304" clip-path="url(#a)"/>
<path d="m555.02 434.14v99.304" clip-path="url(#a)"/>
<path d="m693.12 234.15-92.07 199.99" clip-path="url(#a)"/>
<path d="m693.12 234.15-46.035 199.99" clip-path="url(#a)"/>
<path d="m693.12 234.15v199.99" clip-path="url(#a)"/>
<path d="m693.12 234.15 46.035 199.99" clip-path="url(#a)"/>
<path d="m693.12 234.15 92.07 100.69" clip-path="url(#a)"/>
<path d="m831.23 434.14v99.304" clip-path="url(#a)"/>
<path d="m877.26 434.14v99.304" clip-path="url(#a)"/>
<path d="m923.3 434.14v99.304" clip-path="url(#a)"/>
<path d="m601.05 434.14v99.304" clip-path="url(#a)"/>
<path d="m647.09 434.14v99.304" clip-path="url(#a)"/>
<path d="m693.12 434.14v99.304" clip-path="url(#a)"/>
<path d="m739.16 434.14v99.304" clip-path="url(#a)"/>
<path d="m785.19 334.83v99.304" clip-path="url(#a)"/>
<path d="m785.19 434.14v99.304" clip-path="url(#a)"/>
<path d="m186.74 434.14v99.304" clip-path="url(#a)"/>
<path d="m324.84 334.83-92.07 99.304" clip-path="url(#a)"/>
<path d="m324.84 334.83-46.035 99.304" clip-path="url(#a)"/>
<path d="m324.84 334.83v99.304" clip-path="url(#a)"/>
<path d="m324.84 334.83 46.035 99.304" clip-path="url(#a)"/>
<path d="m324.84 334.83 92.07 99.304" clip-path="url(#a)"/>
<path d="m232.77 434.14v99.304" clip-path="url(#a)"/>
<path d="m278.81 434.14v99.304" clip-path="url(#a)"/>
<path d="m324.84 434.14v99.304" clip-path="url(#a)"/>
<path d="m370.88 434.14v99.304" clip-path="url(#a)"/>
<path d="m416.91 434.14v99.304" clip-path="url(#a)"/>
<path d="m94.668 434.14v99.304" clip-path="url(#a)"/>
<path d="m969.33 434.14v99.304" clip-path="url(#a)"/>
</g>
<path d="m180.51 235.57 2.3675-3.7768q1.2747-2.0335-0.75877-3.3082l-6.5601-4.1123q-2.0335-1.2747-3.3082 0.75877l-2.3675 3.7768q-1.2747 2.0335 0.75877 3.3082l6.5601 4.1123q2.0335 1.2747 3.3082-0.75877z" clip-path="url(#a)" fill="#fff" stroke="#fff"/>
<g clip-path="url(#a)">
<defs>
<path id="v" d="m9.8125 72.906h9.8594v-64.609h35.5v-8.2969h-45.359z"/>
</defs>
<g transform="translate(177.07 233.41) rotate(-57.918) scale(.08 -.08)">
<use xlink:href="#v"/>
</g>
</g>
<path d="m227.41 234.75 1.6589-4.1373q0.89319-2.2276-1.3344-3.1208l-7.1863-2.8815q-2.2276-0.89319-3.1208 1.3344l-1.6589 4.1373q-0.89319 2.2276 1.3344 3.1208l7.1863 2.8815q2.2276 0.89319 3.1208-1.3344z" clip-path="url(#a)" fill="#fff" stroke="#fff"/>
<g clip-path="url(#a)">
<g transform="translate(223.63 233.24) rotate(-68.151) scale(.08 -.08)">
<use xlink:href="#v"/>
</g>
</g>
<path d="m399.98 132.62 4.2259 4.2822q1.6858 1.7083 3.394 0.022474l5.5109-5.4384q1.7083-1.6858 0.022474-3.394l-4.2259-4.2822q-1.6858-1.7083-3.394-0.022475l-5.5109 5.4384q-1.7083 1.6858-0.022474 3.394z" clip-path="url(#a)" fill="#fff" stroke="#fff"/>
<g clip-path="url(#a)">
<defs>
<path id="aj" d="m9.8125 72.906h9.8594v-29.891h35.844v29.891h9.8594v-72.906h-9.8594v34.719h-35.844v-34.719h-9.8594z"/>
</defs>
<g transform="translate(402.87 129.76) rotate(45.379) scale(.08 -.08)">
<use xlink:href="#aj"/>
</g>
</g>
<path d="m511.46 84.405 5.8396 1.4472q2.3295 0.57733 2.9069-1.7522l1.8625-7.5151q0.57733-2.3295-1.7522-2.9069l-5.8396-1.4472q-2.3295-0.57733-2.9069 1.7522l-1.8625 7.5151q-0.57733 2.3295 1.7522 2.9069z" clip-path="url(#a)" fill="#fff" stroke="#fff"/>
<g clip-path="url(#a)">
<g transform="translate(512.44 80.461) rotate(13.919) scale(.08 -.08)">
<use xlink:href="#aj"/>
</g>
</g>
<path d="m203.64 235.82 2.6762-5.2076q1.097-2.1346-1.0376-3.2316l-6.8864-3.539q-2.1346-1.097-3.2316 1.0376l-2.6762 5.2076q-1.097 2.1346 1.0376 3.2316l6.8864 3.539q2.1346 1.097 3.2316-1.0376z" clip-path="url(#a)" fill="#fff" stroke="#fff"/>
<g clip-path="url(#a)">
<defs>
<path id="ag" d="m8.6875 72.906h9.9219v-44.297q0-11.719 4.2344-16.875 4.25-5.1406 13.781-5.1406 9.4688 0 13.719 5.1406 4.25 5.1562 4.25 16.875v44.297h9.9062v-45.516q0-14.25-7.0625-21.531-7.0469-7.2812-20.812-7.2812-13.828 0-20.891 7.2812-7.0469 7.2812-7.0469 21.531z"/>
</defs>
<g transform="translate(200.02 233.96) rotate(-62.801) scale(.08 -.08)">
<use xlink:href="#ag"/>
</g>
</g>
<path d="m42.362 466.15v35.285q0 2.4 2.4 2.4h7.7425q2.4 0 2.4-2.4v-35.285q0-2.4-2.4-2.4h-7.7425q-2.4 0-2.4 2.4z" clip-path="url(#a)" fill="#fff" stroke="#fff"/>
<g clip-path="url(#a)">
<defs>
<path id="l" d="m-0.29688 72.906h61.672v-8.3125h-25.875v-64.594h-9.9062v64.594h-25.891z"/>
<path id="c" d="m56.203 29.594v-4.3906h-41.312q0.59375-9.2812 5.5938-14.141t13.938-4.8594q5.1719 0 10.031 1.2656t9.6562 3.8125v-8.5q-4.8438-2.0469-9.9219-3.125t-10.297-1.0781q-13.094 0-20.734 7.6094-7.6406 7.625-7.6406 20.625 0 13.422 7.25 21.297 7.25 7.8906 19.562 7.8906 11.031 0 17.453-7.1094 6.4219-7.0938 6.4219-19.297zm-8.9844 2.6406q-0.09375 7.3594-4.125 11.75-4.0312 4.4062-10.672 4.4062-7.5156 0-12.031-4.25t-5.2031-11.969z"/>
<path id="e" d="m41.109 46.297q-1.5156 0.875-3.2969 1.2812-1.7812 0.42188-3.9219 0.42188-7.625 0-11.703-4.9531t-4.0781-14.234v-28.812h-9.0312v54.688h9.0312v-8.5q2.8438 4.9844 7.375 7.3906 4.5469 2.4219 11.047 2.4219 0.92188 0 2.0469-0.125 1.125-0.10938 2.4844-0.35938z"/>
<path id="h" d="m52 44.188q3.375 6.0625 8.0625 8.9375t11.031 2.875q8.5469 0 13.188-5.9844 4.6406-5.9688 4.6406-17v-33.016h-9.0312v32.719q0 7.8594-2.7969 11.656-2.7812 3.8125-8.4844 3.8125-6.9844 0-11.047-4.6406-4.0469-4.625-4.0469-12.641v-30.906h-9.0312v32.719q0 7.9062-2.7812 11.688t-8.5938 3.7812q-6.8906 0-10.953-4.6562-4.0469-4.6562-4.0469-12.625v-30.906h-9.0312v54.688h9.0312v-8.5q3.0781 5.0312 7.375 7.4219t10.203 2.3906q5.9688 0 10.141-3.0312 4.1719-3.0156 6.1719-8.7812z"/>
<path id="g" d="m9.4219 54.688h8.9844v-54.688h-8.9844zm0 21.297h8.9844v-11.391h-8.9844z"/>
<path id="j" d="m54.891 33.016v-33.016h-8.9844v32.719q0 7.7656-3.0312 11.609-3.0312 3.8594-9.0781 3.8594-7.2812 0-11.484-4.6406-4.2031-4.625-4.2031-12.641v-30.906h-9.0312v54.688h9.0312v-8.5q3.2344 4.9375 7.5938 7.375 4.375 2.4375 10.094 2.4375 9.4219 0 14.25-5.8281 4.8438-5.8281 4.8438-17.156z"/>
<path id="i" d="m34.281 27.484q-10.891 0-15.094-2.4844t-4.2031-8.5q0-4.7812 3.1562-7.5938 3.1562-2.7969 8.5625-2.7969 7.4844 0 12 5.2969t4.5156 14.078v2zm17.922 3.7188v-31.203h-8.9844v8.2969q-3.0781-4.9688-7.6719-7.3438t-11.234-2.375q-8.3906 0-13.359 4.7188-4.9531 4.7188-4.9531 12.625 0 9.2188 6.1719 13.906 6.1875 4.6875 18.438 4.6875h12.609v0.89062q0 6.2031-4.0781 9.5938t-11.453 3.3906q-4.6875 0-9.1406-1.125-4.4375-1.125-8.5312-3.375v8.3125q4.9219 1.9062 9.5625 2.8438 4.6406 0.95312 9.0312 0.95312 11.875 0 17.734-6.1562 5.8594-6.1406 5.8594-18.641z"/>
<path id="k" d="m9.4219 75.984h8.9844v-75.984h-8.9844z"/>
</defs>
<g transform="translate(46.426 466.15) rotate(90) scale(.08 -.08)">
<use xlink:href="#l"/>
<use x="60.818359" xlink:href="#c"/>
<use x="122.341797" xlink:href="#e"/>
<use x="163.439453" xlink:href="#h"/>
<use x="260.851562" xlink:href="#g"/>
<use x="288.634766" xlink:href="#j"/>
<use x="352.013672" xlink:href="#i"/>
<use x="413.292969" xlink:href="#k"/>
</g>
</g>
<path d="m134.43 466.15v35.285q0 2.4 2.4 2.4h7.7425q2.4 0 2.4-2.4v-35.285q0-2.4-2.4-2.4h-7.7425q-2.4 0-2.4 2.4z" clip-path="url(#a)" fill="#fff" stroke="#fff"/>
<g clip-path="url(#a)">
<g transform="translate(138.5 466.15) rotate(90) scale(.08 -.08)">
<use xlink:href="#l"/>
<use x="60.818359" xlink:href="#c"/>
<use x="122.341797" xlink:href="#e"/>
<use x="163.439453" xlink:href="#h"/>
<use x="260.851562" xlink:href="#g"/>
<use x="288.634766" xlink:href="#j"/>
<use x="352.013672" xlink:href="#i"/>
<use x="413.292969" xlink:href="#k"/>
</g>
</g>
<path d="m756.63 387.8 4.7112 2.7845q2.0661 1.2212 3.2873-0.84496l3.9395-6.6653q1.2212-2.0661-0.84496-3.2873l-4.7112-2.7845q-2.0661-1.2212-3.2873 0.84496l-3.9395 6.6653q-1.2212 2.0661 0.84496 3.2873z" clip-path="url(#a)" fill="#fff" stroke="#fff"/>
<g clip-path="url(#a)">
<defs>
<path id="q" d="m34.188 63.188-13.391-36.281h26.812zm-5.5781 9.7188h11.188l27.781-72.906h-10.25l-6.6406 18.703h-32.859l-6.6406-18.703h-10.406z"/>
</defs>
<g transform="translate(758.7 384.3) rotate(30.585) scale(.08 -.08)">
<use xlink:href="#q"/>
</g>
</g>
<path d="m349.12 340.74 4.0986-2.5436q2.0392-1.2656 0.77365-3.3048l-4.0827-6.5786q-1.2656-2.0392-3.3048-0.77365l-4.0986 2.5436q-2.0392 1.2656-0.77365 3.3048l4.0827 6.5786q1.2656 2.0392 3.3048 0.77365z" clip-path="url(#a)" fill="#fff" stroke="#fff"/>
<g clip-path="url(#a)">
<defs>
<path id="u" d="m19.672 64.797v-27.391h12.406q6.8906 0 10.641 3.5625 3.7656 3.5625 3.7656 10.156 0 6.5469-3.7656 10.109-3.75 3.5625-10.641 3.5625zm-9.8594 8.1094h22.266q12.266 0 18.531-5.5469 6.2812-5.5469 6.2812-16.234 0-10.797-6.2812-16.312-6.2656-5.5156-18.531-5.5156h-12.406v-29.297h-9.8594z"/>
</defs>
<g transform="translate(346.98 337.29) rotate(-31.824) scale(.08 -.08)">
<use xlink:href="#u"/>
</g>
</g>
<path d="m417.52 291.3 4.8016-2.6254q2.1058-1.1514 0.95436-3.2572l-3.7145-6.7933q-1.1514-2.1058-3.2572-0.95436l-4.8016 2.6254q-2.1058 1.1514-0.95436 3.2572l3.7145 6.7933q1.1514 2.1058 3.2572 0.95436z" clip-path="url(#a)" fill="#fff" stroke="#fff"/>
<g clip-path="url(#a)">
<g transform="translate(415.57 287.74) rotate(-28.669) scale(.08 -.08)">
<use xlink:href="#q"/>
</g>
</g>
<path d="m598.5 288.69 3.0294-3.4633q1.5801-1.8064-0.22632-3.3866l-5.8276-5.0975q-1.8064-1.5801-3.3866 0.22632l-3.0294 3.4633q-1.5801 1.8064 0.22632 3.3866l5.8276 5.0975q1.8064 1.5801 3.3866-0.22632z" clip-path="url(#a)" fill="#fff" stroke="#fff"/>
<g clip-path="url(#a)">
<defs>
<path id="r" d="m9.8125 72.906h41.891v-8.3125h-32.031v-21.484h28.906v-8.2969h-28.906v-34.812h-9.8594z"/>
</defs>
<g transform="translate(595.44 286.01) rotate(-48.823) scale(.08 -.08)">
<use xlink:href="#r"/>
</g>
</g>
<path d="m621.58 289.01 3.6305-5.0243q1.4056-1.9453-0.53964-3.3509l-6.2756-4.5347q-1.9453-1.4056-3.3509 0.53964l-3.6305 5.0243q-1.4056 1.9453 0.53964 3.3509l6.2756 4.5347q1.9453 1.4056 3.3509-0.53964z" clip-path="url(#a)" fill="#fff" stroke="#fff"/>
<g clip-path="url(#a)">
<defs>
<path id="ar" d="m59.516 10.406v19.578h-16.109v8.1094h25.875v-31.312q-5.7031-4.0469-12.594-6.125-6.875-2.0781-14.688-2.0781-17.094 0-26.75 9.9844-9.6406 10-9.6406 27.812 0 17.875 9.6406 27.859 9.6562 9.9844 26.75 9.9844 7.125 0 13.547-1.7656 6.4219-1.75 11.844-5.1719v-10.5q-5.4688 4.6406-11.625 6.9844t-12.938 2.3438q-13.391 0-20.109-7.4688-6.7031-7.4688-6.7031-22.266 0-14.75 6.7031-22.219 6.7188-7.4688 20.109-7.4688 5.2188 0 9.3125 0.90625 4.1094 0.90625 7.375 2.8125z"/>
</defs>
<g transform="translate(618.29 286.63) rotate(-54.148) scale(.08 -.08)">
<use xlink:href="#ar"/>
</g>
</g>
<path d="m645.64 287.94 2.28-3.9967q1.1892-2.0846-0.89542-3.2739l-6.7252-3.8365q-2.0846-1.1892-3.2739 0.89542l-2.28 3.9967q-1.1892 2.0846 0.89542 3.2739l6.7252 3.8365q2.0846 1.1892 3.2739-0.89542z" clip-path="url(#a)" fill="#fff" stroke="#fff"/>
<g clip-path="url(#a)">
<g transform="translate(642.11 285.92) rotate(-60.297) scale(.08 -.08)">
<use xlink:href="#r"/>
</g>
</g>
<path d="m715.46 187.43 1.745-5.1868q0.76529-2.2747-1.5094-3.04l-7.3383-2.4689q-2.2747-0.76529-3.04 1.5094l-1.745 5.1868q-0.76529 2.2747 1.5094 3.04l7.3383 2.4689q2.2747 0.76529 3.04-1.5094z" clip-path="url(#a)" fill="#fff" stroke="#fff"/>
<g clip-path="url(#a)">
<g transform="translate(711.61 186.13) rotate(-71.405) scale(.08 -.08)">
<use xlink:href="#q"/>
</g>
</g>
<path d="m772.76 282.68 1.4901 4.3533q0.77721 2.2707 3.0479 1.4935l7.3253-2.5073q2.2707-0.77721 1.4935-3.0479l-1.49-4.3533q-0.77721-2.2707-3.0479-1.4935l-7.3253 2.5073q-2.2707 0.77721-1.4935 3.0479z" clip-path="url(#a)" fill="#fff" stroke="#fff"/>
<g clip-path="url(#a)">
<g transform="translate(776.6 281.37) rotate(71.105) scale(.08 -.08)">
<use xlink:href="#r"/>
</g>
</g>
<path d="m795.76 283.45 2.1379 4.3241q1.0637 2.1514 3.2151 1.0877l6.9406-3.4314q2.1514-1.0637 1.0877-3.2151l-2.1379-4.3241q-1.0637-2.1514-3.2151-1.0877l-6.9406 3.4314q-2.1514 1.0637-1.0877 3.2151z" clip-path="url(#a)" fill="#fff" stroke="#fff"/>
<g clip-path="url(#a)">
<g transform="translate(799.41 281.65) rotate(63.692) scale(.08 -.08)">
<use xlink:href="#u"/>
</g>
</g>
<path d="m818.72 283.94 2.9712 4.5957q1.3031 2.0155 3.3185 0.7124l6.5019-4.2037q2.0155-1.3031 0.7124-3.3185l-2.9712-4.5957q-1.3031-2.0155-3.3185-0.7124l-6.5019 4.2037q-2.0155 1.3031-0.7124 3.3185z" clip-path="url(#a)" fill="#fff" stroke="#fff"/>
<g clip-path="url(#a)">
<g transform="translate(822.13 281.73) rotate(57.116) scale(.08 -.08)">
<use xlink:href="#q"/>
</g>
</g>
<path d="m841.76 284.46 3.6538 4.575q1.4977 1.8753 3.373 0.37759l6.0498-4.8317q1.8753-1.4977 0.37759-3.373l-3.6538-4.575q-1.4977-1.8753-3.373-0.37759l-6.0498 4.8317q-1.8753 1.4977-0.37759 3.373z" clip-path="url(#a)" fill="#fff" stroke="#fff"/>
<g clip-path="url(#a)">
<g transform="translate(844.94 281.92) rotate(51.387) scale(.08 -.08)">
<use xlink:href="#ag"/>
</g>
</g>
<path d="m456.68 466.15v35.285q0 2.4 2.4 2.4h7.7425q2.4 0 2.4-2.4v-35.285q0-2.4-2.4-2.4h-7.7425q-2.4 0-2.4 2.4z" clip-path="url(#a)" fill="#fff" stroke="#fff"/>
<g clip-path="url(#a)">
<g transform="translate(460.74 466.15) rotate(90) scale(.08 -.08)">
<use xlink:href="#l"/>
<use x="60.818359" xlink:href="#c"/>
<use x="122.341797" xlink:href="#e"/>
<use x="163.439453" xlink:href="#h"/>
<use x="260.851562" xlink:href="#g"/>
<use x="288.634766" xlink:href="#j"/>
<use x="352.013672" xlink:href="#i"/>
<use x="413.292969" xlink:href="#k"/>
</g>
</g>
<path d="m502.71 466.15v35.285q0 2.4 2.4 2.4h7.7425q2.4 0 2.4-2.4v-35.285q0-2.4-2.4-2.4h-7.7425q-2.4 0-2.4 2.4z" clip-path="url(#a)" fill="#fff" stroke="#fff"/>
<g clip-path="url(#a)">
<g transform="translate(506.78 466.15) rotate(90) scale(.08 -.08)">
<use xlink:href="#l"/>
<use x="60.818359" xlink:href="#c"/>
<use x="122.341797" xlink:href="#e"/>
<use x="163.439453" xlink:href="#h"/>
<use x="260.851562" xlink:href="#g"/>
<use x="288.634766" xlink:href="#j"/>
<use x="352.013672" xlink:href="#i"/>
<use x="413.292969" xlink:href="#k"/>
</g>
</g>
<path d="m548.75 466.15v35.285q0 2.4 2.4 2.4h7.7425q2.4 0 2.4-2.4v-35.285q0-2.4-2.4-2.4h-7.7425q-2.4 0-2.4 2.4z" clip-path="url(#a)" fill="#fff" stroke="#fff"/>
<g clip-path="url(#a)">
<g transform="translate(552.81 466.15) rotate(90) scale(.08 -.08)">
<use xlink:href="#l"/>
<use x="60.818359" xlink:href="#c"/>
<use x="122.341797" xlink:href="#e"/>
<use x="163.439453" xlink:href="#h"/>
<use x="260.851562" xlink:href="#g"/>
<use x="288.634766" xlink:href="#j"/>
<use x="352.013672" xlink:href="#i"/>
<use x="413.292969" xlink:href="#k"/>
</g>
</g>
<path d="m651.47 339.62 2.6335-5.7204q1.0036-2.1801-1.1764-3.1837l-7.033-3.2378q-2.1801-1.0036-3.1837 1.1764l-2.6335 5.7204q-1.0036 2.1801 1.1764 3.1837l7.033 3.2378q2.1801 1.0036 3.1837-1.1764z" clip-path="url(#a)" fill="#fff" stroke="#fff"/>
<g clip-path="url(#a)">
<defs>
<path id="ai" d="m39.406 66.219q-10.75 0-17.078-8.0156-6.3125-8-6.3125-21.828 0-13.766 6.3125-21.781 6.3281-8 17.078-8 10.734 0 17.016 8 6.2812 8.0156 6.2812 21.781 0 13.828-6.2812 21.828-6.2812 8.0156-17.016 8.0156zm13.812-64.906 13-14.203h-11.922l-10.797 11.672q-1.6094-0.09375-2.4688-0.14062-0.84375-0.0625-1.625-0.0625-15.375 0-24.594 10.281-9.2031 10.281-9.2031 27.516 0 17.281 9.2031 27.562 9.2188 10.281 24.594 10.281 15.328 0 24.5-10.281 9.1875-10.281 9.1875-27.562 0-12.688-5.1094-21.734-5.0938-9.0312-14.766-13.328z"/>
</defs>
<g transform="translate(647.78 337.92) rotate(-65.28) scale(.08 -.08)">
<use xlink:href="#ai"/>
</g>
</g>
<path d="m675.59 338.26 1.2469-5.4171q0.53837-2.3388-1.8005-2.8772l-7.5452-1.7368q-2.3388-0.53837-2.8772 1.8005l-1.2469 5.4171q-0.53837 2.3388 1.8005 2.8772l7.5452 1.7368q2.3388 0.53837 2.8772-1.8005z" clip-path="url(#a)" fill="#fff" stroke="#fff"/>
<g clip-path="url(#a)">
<defs>
<path id="ah" d="m44.391 34.188q3.1719-1.0781 6.1719-4.5938t6.0312-9.6719l10.016-19.922h-10.609l-9.3125 18.703q-3.625 7.3281-7.0156 9.7188t-9.25 2.3906h-10.75v-30.812h-9.8594v72.906h22.266q12.5 0 18.656-5.2344 6.1562-5.2188 6.1562-15.766 0-6.8906-3.2031-11.438-3.2031-4.5312-9.2969-6.2812zm-24.719 30.609v-25.875h12.406q7.125 0 10.766 3.2969t3.6406 9.6875-3.6406 9.6406-10.766 3.25z"/>
</defs>
<g transform="translate(671.63 337.35) rotate(-77.037) scale(.08 -.08)">
<use xlink:href="#ah"/>
</g>
</g>
<path d="m686.85 331.84v4.6012q0 2.4 2.4 2.4h7.7425q2.4 0 2.4-2.4v-4.6012q0-2.4-2.4-2.4h-7.7425q-2.4 0-2.4 2.4z" clip-path="url(#a)" fill="#fff" stroke="#fff"/>
<g clip-path="url(#a)">
<g transform="translate(690.91 331.84) rotate(90) scale(.08 -.08)">
<use xlink:href="#r"/>
</g>
</g>
<path d="m709.46 333.08 1.1339 4.9262q0.53837 2.3388 2.8772 1.8005l7.5452-1.7368q2.3388-0.53837 1.8005-2.8772l-1.1339-4.9262q-0.53837-2.3388-2.8772-1.8005l-7.5452 1.7368q-2.3388 0.53837-1.8005 2.8772z" clip-path="url(#a)" fill="#fff" stroke="#fff"/>
<g clip-path="url(#a)">
<defs>
<path id="ak" d="m9.8125 72.906h46.094v-8.3125h-36.234v-21.578h34.719v-8.2969h-34.719v-26.422h37.109v-8.2969h-46.969z"/>
</defs>
<g transform="translate(713.42 332.17) rotate(77.037) scale(.08 -.08)">
<use xlink:href="#ak"/>
</g>
</g>
<path d="m732.64 286.66 3.7698 4.1225q1.6196 1.7711 3.3907 0.15155l5.7138-5.2249q1.7711-1.6196 0.15155-3.3907l-3.7698-4.1225q-1.6196-1.7711-3.3907-0.15155l-5.7138 5.2249q-1.7711 1.6196-0.15155 3.3907z" clip-path="url(#a)" fill="#fff" stroke="#fff"/>
<g clip-path="url(#a)">
<defs>
<path id="x" d="m64.406 67.281v-10.391q-4.9844 4.6406-10.625 6.9219-5.6406 2.2969-11.984 2.2969-12.5 0-19.141-7.6406t-6.6406-22.094q0-14.406 6.6406-22.047t19.141-7.6406q6.3438 0 11.984 2.2969t10.625 6.9375v-10.312q-5.1719-3.5156-10.969-5.2812-5.7812-1.75-12.219-1.75-16.562 0-26.094 10.125-9.5156 10.141-9.5156 27.672 0 17.578 9.5156 27.703 9.5312 10.141 26.094 10.141 6.5312 0 12.312-1.7344 5.7969-1.7344 10.875-5.2031z"/>
</defs>
<g transform="translate(735.64 283.92) rotate(47.559) scale(.08 -.08)">
<use xlink:href="#x"/>
</g>
</g>
<path d="m824.96 466.15v35.285q0 2.4 2.4 2.4h7.7425q2.4 0 2.4-2.4v-35.285q0-2.4-2.4-2.4h-7.7425q-2.4 0-2.4 2.4z" clip-path="url(#a)" fill="#fff" stroke="#fff"/>
<g clip-path="url(#a)">
<g transform="translate(829.02 466.15) rotate(90) scale(.08 -.08)">
<use xlink:href="#l"/>
<use x="60.818359" xlink:href="#c"/>
<use x="122.341797" xlink:href="#e"/>
<use x="163.439453" xlink:href="#h"/>
<use x="260.851562" xlink:href="#g"/>
<use x="288.634766" xlink:href="#j"/>
<use x="352.013672" xlink:href="#i"/>
<use x="413.292969" xlink:href="#k"/>
</g>
</g>
<path d="m870.99 466.15v35.285q0 2.4 2.4 2.4h7.7425q2.4 0 2.4-2.4v-35.285q0-2.4-2.4-2.4h-7.7425q-2.4 0-2.4 2.4z" clip-path="url(#a)" fill="#fff" stroke="#fff"/>
<g clip-path="url(#a)">
<g transform="translate(875.05 466.15) rotate(90) scale(.08 -.08)">
<use xlink:href="#l"/>
<use x="60.818359" xlink:href="#c"/>
<use x="122.341797" xlink:href="#e"/>
<use x="163.439453" xlink:href="#h"/>
<use x="260.851562" xlink:href="#g"/>
<use x="288.634766" xlink:href="#j"/>
<use x="352.013672" xlink:href="#i"/>
<use x="413.292969" xlink:href="#k"/>
</g>
</g>
<path d="m917.03 466.15v35.285q0 2.4 2.4 2.4h7.7425q2.4 0 2.4-2.4v-35.285q0-2.4-2.4-2.4h-7.7425q-2.4 0-2.4 2.4z" clip-path="url(#a)" fill="#fff" stroke="#fff"/>
<g clip-path="url(#a)">
<g transform="translate(921.09 466.15) rotate(90) scale(.08 -.08)">
<use xlink:href="#l"/>
<use x="60.818359" xlink:href="#c"/>
<use x="122.341797" xlink:href="#e"/>
<use x="163.439453" xlink:href="#h"/>
<use x="260.851562" xlink:href="#g"/>
<use x="288.634766" xlink:href="#j"/>
<use x="352.013672" xlink:href="#i"/>
<use x="413.292969" xlink:href="#k"/>
</g>
</g>
<path d="m594.78 466.15v35.285q0 2.4 2.4 2.4h7.7425q2.4 0 2.4-2.4v-35.285q0-2.4-2.4-2.4h-7.7425q-2.4 0-2.4 2.4z" clip-path="url(#a)" fill="#fff" stroke="#fff"/>
<g clip-path="url(#a)">
<g transform="translate(598.84 466.15) rotate(90) scale(.08 -.08)">
<use xlink:href="#l"/>
<use x="60.818359" xlink:href="#c"/>
<use x="122.341797" xlink:href="#e"/>
<use x="163.439453" xlink:href="#h"/>
<use x="260.851562" xlink:href="#g"/>
<use x="288.634766" xlink:href="#j"/>
<use x="352.013672" xlink:href="#i"/>
<use x="413.292969" xlink:href="#k"/>
</g>
</g>
<path d="m640.82 466.15v35.285q0 2.4 2.4 2.4h7.7425q2.4 0 2.4-2.4v-35.285q0-2.4-2.4-2.4h-7.7425q-2.4 0-2.4 2.4z" clip-path="url(#a)" fill="#fff" stroke="#fff"/>
<g clip-path="url(#a)">
<g transform="translate(644.88 466.15) rotate(90) scale(.08 -.08)">
<use xlink:href="#l"/>
<use x="60.818359" xlink:href="#c"/>
<use x="122.341797" xlink:href="#e"/>
<use x="163.439453" xlink:href="#h"/>
<use x="260.851562" xlink:href="#g"/>
<use x="288.634766" xlink:href="#j"/>
<use x="352.013672" xlink:href="#i"/>
<use x="413.292969" xlink:href="#k"/>
</g>
</g>
<path d="m686.85 466.15v35.285q0 2.4 2.4 2.4h7.7425q2.4 0 2.4-2.4v-35.285q0-2.4-2.4-2.4h-7.7425q-2.4 0-2.4 2.4z" clip-path="url(#a)" fill="#fff" stroke="#fff"/>
<g clip-path="url(#a)">
<g transform="translate(690.91 466.15) rotate(90) scale(.08 -.08)">
<use xlink:href="#l"/>
<use x="60.818359" xlink:href="#c"/>
<use x="122.341797" xlink:href="#e"/>
<use x="163.439453" xlink:href="#h"/>
<use x="260.851562" xlink:href="#g"/>
<use x="288.634766" xlink:href="#j"/>
<use x="352.013672" xlink:href="#i"/>
<use x="413.292969" xlink:href="#k"/>
</g>
</g>
<path d="m732.89 466.15v35.285q0 2.4 2.4 2.4h7.7425q2.4 0 2.4-2.4v-35.285q0-2.4-2.4-2.4h-7.7425q-2.4 0-2.4 2.4z" clip-path="url(#a)" fill="#fff" stroke="#fff"/>
<g clip-path="url(#a)">
<g transform="translate(736.95 466.15) rotate(90) scale(.08 -.08)">
<use xlink:href="#l"/>
<use x="60.818359" xlink:href="#c"/>
<use x="122.341797" xlink:href="#e"/>
<use x="163.439453" xlink:href="#h"/>
<use x="260.851562" xlink:href="#g"/>
<use x="288.634766" xlink:href="#j"/>
<use x="352.013672" xlink:href="#i"/>
<use x="413.292969" xlink:href="#k"/>
</g>
</g>
<path d="m778.79 377.86v13.246q0 2.4 2.4 2.4h8q2.4 0 2.4-2.4v-13.246q0-2.4-2.4-2.4h-8q-2.4 0-2.4 2.4z" clip-path="url(#a)" fill="#fff" stroke="#fff"/>
<g clip-path="url(#a)">
<defs>
<path id="ap" d="m53.516 70.516v-9.625q-5.6094 2.6875-10.594 4-4.9844 1.3281-9.625 1.3281-8.0469 0-12.422-3.125t-4.375-8.8906q0-4.8438 2.9062-7.3125 2.9062-2.4531 11.016-3.9688l5.9531-1.2188q11.031-2.1094 16.281-7.4062t5.25-14.172q0-10.609-7.1094-16.078-7.0938-5.4688-20.812-5.4688-5.1719 0-11.016 1.1719-5.8281 1.1719-12.078 3.4688v10.156q6-3.3594 11.766-5.0781 5.7656-1.7031 11.328-1.7031 8.4375 0 13.031 3.3125 4.5938 3.3281 4.5938 9.4844 0 5.3594-3.2969 8.3906t-10.812 4.5469l-6.0156 1.1719q-11.031 2.1875-15.969 6.875-4.9219 4.6875-4.9219 13.047 0 9.6719 6.8125 15.234t18.766 5.5625q5.1406 0 10.453-0.9375 5.3281-0.92188 10.891-2.7656z"/>
<path id="at" d="m21 76.422v-100h-8.2969v100z"/>
</defs>
<g transform="translate(783.08 377.86) rotate(90) scale(.08 -.08)">
<use xlink:href="#ap"/>
<use x="63.476562" xlink:href="#at"/>
<use x="97.167969" xlink:href="#q"/>
</g>
</g>
<path d="m778.92 466.15v35.285q0 2.4 2.4 2.4h7.7425q2.4 0 2.4-2.4v-35.285q0-2.4-2.4-2.4h-7.7425q-2.4 0-2.4 2.4z" clip-path="url(#a)" fill="#fff" stroke="#fff"/>
<g clip-path="url(#a)">
<g transform="translate(782.98 466.15) rotate(90) scale(.08 -.08)">
<use xlink:href="#l"/>
<use x="60.818359" xlink:href="#c"/>
<use x="122.341797" xlink:href="#e"/>
<use x="163.439453" xlink:href="#h"/>
<use x="260.851562" xlink:href="#g"/>
<use x="288.634766" xlink:href="#j"/>
<use x="352.013672" xlink:href="#i"/>
<use x="413.292969" xlink:href="#k"/>
</g>
</g>
<path d="m180.47 466.15v35.285q0 2.4 2.4 2.4h7.7425q2.4 0 2.4-2.4v-35.285q0-2.4-2.4-2.4h-7.7425q-2.4 0-2.4 2.4z" clip-path="url(#a)" fill="#fff" stroke="#fff"/>
<g clip-path="url(#a)">
<g transform="translate(184.53 466.15) rotate(90) scale(.08 -.08)">
<use xlink:href="#l"/>
<use x="60.818359" xlink:href="#c"/>
<use x="122.341797" xlink:href="#e"/>
<use x="163.439453" xlink:href="#h"/>
<use x="260.851562" xlink:href="#g"/>
<use x="288.634766" xlink:href="#j"/>
<use x="352.013672" xlink:href="#i"/>
<use x="413.292969" xlink:href="#k"/>
</g>
</g>
<path d="m281.27 391.06 4.2816-4.618q1.6317-1.7599-0.12821-3.3917l-5.6777-5.2641q-1.76-1.6317-3.3917 0.12821l-4.2816 4.618q-1.6317 1.7599 0.12821 3.3917l5.6777 5.2641q1.7599 1.6317 3.3917-0.12821z" clip-path="url(#a)" fill="#fff" stroke="#fff"/>
<g clip-path="url(#a)">
<g transform="translate(278.29 388.29) rotate(-47.165) scale(.08 -.08)">
<use xlink:href="#ai"/>
</g>
</g>
<path d="m306.35 389.64 2.3379-5.0432q1.0094-2.1774-1.168-3.1868l-7.0244-3.2564q-2.1774-1.0094-3.1868 1.168l-2.3379 5.0432q-1.0094 2.1774 1.168 3.1868l7.0244 3.2564q2.1774 1.0094 3.1868-1.168z" clip-path="url(#a)" fill="#fff" stroke="#fff"/>
<g clip-path="url(#a)">
<g transform="translate(302.66 387.93) rotate(-65.129) scale(.08 -.08)">
<use xlink:href="#ah"/>
</g>
</g>
<path d="m318.57 382.18v4.6012q0 2.4 2.4 2.4h7.7425q2.4 0 2.4-2.4v-4.6012q0-2.4-2.4-2.4h-7.7425q-2.4 0-2.4 2.4z" clip-path="url(#a)" fill="#fff" stroke="#fff"/>
<g clip-path="url(#a)">
<g transform="translate(322.64 382.18) rotate(90) scale(.08 -.08)">
<use xlink:href="#r"/>
</g>
</g>
<path d="m341.11 384.83 2.126 4.5862q1.0094 2.1774 3.1868 1.168l7.0244-3.2564q2.1774-1.0094 1.168-3.1868l-2.126-4.5862q-1.0094-2.1774-3.1868-1.168l-7.0244 3.2564q-2.1774 1.0094-1.168 3.1868z" clip-path="url(#a)" fill="#fff" stroke="#fff"/>
<g clip-path="url(#a)">
<g transform="translate(344.79 383.12) rotate(65.129) scale(.08 -.08)">
<use xlink:href="#ak"/>
</g>
</g>
<path d="m364.38 386.7 3.798 4.0965q1.6317 1.7599 3.3917 0.12821l5.6777-5.2641q1.7599-1.6317 0.12821-3.3917l-3.798-4.0965q-1.6317-1.7599-3.3917-0.12821l-5.6777 5.2641q-1.7599 1.6317-0.12821 3.3917z" clip-path="url(#a)" fill="#fff" stroke="#fff"/>
<g clip-path="url(#a)">
<g transform="translate(367.36 383.94) rotate(47.165) scale(.08 -.08)">
<use xlink:href="#x"/>
</g>
</g>
<path d="m226.5 466.15v35.285q0 2.4 2.4 2.4h7.7425q2.4 0 2.4-2.4v-35.285q0-2.4-2.4-2.4h-7.7425q-2.4 0-2.4 2.4z" clip-path="url(#a)" fill="#fff" stroke="#fff"/>
<g clip-path="url(#a)">
<g transform="translate(230.57 466.15) rotate(90) scale(.08 -.08)">
<use xlink:href="#l"/>
<use x="60.818359" xlink:href="#c"/>
<use x="122.341797" xlink:href="#e"/>
<use x="163.439453" xlink:href="#h"/>
<use x="260.851562" xlink:href="#g"/>
<use x="288.634766" xlink:href="#j"/>
<use x="352.013672" xlink:href="#i"/>
<use x="413.292969" xlink:href="#k"/>
</g>
</g>
<path d="m272.54 466.15v35.285q0 2.4 2.4 2.4h7.7425q2.4 0 2.4-2.4v-35.285q0-2.4-2.4-2.4h-7.7425q-2.4 0-2.4 2.4z" clip-path="url(#a)" fill="#fff" stroke="#fff"/>
<g clip-path="url(#a)">
<g transform="translate(276.6 466.15) rotate(90) scale(.08 -.08)">
<use xlink:href="#l"/>
<use x="60.818359" xlink:href="#c"/>
<use x="122.341797" xlink:href="#e"/>
<use x="163.439453" xlink:href="#h"/>
<use x="260.851562" xlink:href="#g"/>
<use x="288.634766" xlink:href="#j"/>
<use x="352.013672" xlink:href="#i"/>
<use x="413.292969" xlink:href="#k"/>
</g>
</g>
<path d="m318.57 466.15v35.285q0 2.4 2.4 2.4h7.7425q2.4 0 2.4-2.4v-35.285q0-2.4-2.4-2.4h-7.7425q-2.4 0-2.4 2.4z" clip-path="url(#a)" fill="#fff" stroke="#fff"/>
<g clip-path="url(#a)">
<g transform="translate(322.64 466.15) rotate(90) scale(.08 -.08)">
<use xlink:href="#l"/>
<use x="60.818359" xlink:href="#c"/>
<use x="122.341797" xlink:href="#e"/>
<use x="163.439453" xlink:href="#h"/>
<use x="260.851562" xlink:href="#g"/>
<use x="288.634766" xlink:href="#j"/>
<use x="352.013672" xlink:href="#i"/>
<use x="413.292969" xlink:href="#k"/>
</g>
</g>
<path d="m364.61 466.15v35.285q0 2.4 2.4 2.4h7.7425q2.4 0 2.4-2.4v-35.285q0-2.4-2.4-2.4h-7.7425q-2.4 0-2.4 2.4z" clip-path="url(#a)" fill="#fff" stroke="#fff"/>
<g clip-path="url(#a)">
<g transform="translate(368.67 466.15) rotate(90) scale(.08 -.08)">
<use xlink:href="#l"/>
<use x="60.818359" xlink:href="#c"/>
<use x="122.341797" xlink:href="#e"/>
<use x="163.439453" xlink:href="#h"/>
<use x="260.851562" xlink:href="#g"/>
<use x="288.634766" xlink:href="#j"/>
<use x="352.013672" xlink:href="#i"/>
<use x="413.292969" xlink:href="#k"/>
</g>
</g>
<path d="m410.64 466.15v35.285q0 2.4 2.4 2.4h7.7425q2.4 0 2.4-2.4v-35.285q0-2.4-2.4-2.4h-7.7425q-2.4 0-2.4 2.4z" clip-path="url(#a)" fill="#fff" stroke="#fff"/>
<g clip-path="url(#a)">
<g transform="translate(414.71 466.15) rotate(90) scale(.08 -.08)">
<use xlink:href="#l"/>
<use x="60.818359" xlink:href="#c"/>
<use x="122.341797" xlink:href="#e"/>
<use x="163.439453" xlink:href="#h"/>
<use x="260.851562" xlink:href="#g"/>
<use x="288.634766" xlink:href="#j"/>
<use x="352.013672" xlink:href="#i"/>
<use x="413.292969" xlink:href="#k"/>
</g>
</g>
<path d="m88.397 466.15v35.285q0 2.4 2.4 2.4h7.7425q2.4 0 2.4-2.4v-35.285q0-2.4-2.4-2.4h-7.7425q-2.4 0-2.4 2.4z" clip-path="url(#a)" fill="#fff" stroke="#fff"/>
<g clip-path="url(#a)">
<g transform="translate(92.461 466.15) rotate(90) scale(.08 -.08)">
<use xlink:href="#l"/>
<use x="60.818359" xlink:href="#c"/>
<use x="122.341797" xlink:href="#e"/>
<use x="163.439453" xlink:href="#h"/>
<use x="260.851562" xlink:href="#g"/>
<use x="288.634766" xlink:href="#j"/>
<use x="352.013672" xlink:href="#i"/>
<use x="413.292969" xlink:href="#k"/>
</g>
</g>
<path d="m963.06 466.15v35.285q0 2.4 2.4 2.4h7.7425q2.4 0 2.4-2.4v-35.285q0-2.4-2.4-2.4h-7.7425q-2.4 0-2.4 2.4z" clip-path="url(#a)" fill="#fff" stroke="#fff"/>
<g clip-path="url(#a)">
<g transform="translate(967.12 466.15) rotate(90) scale(.08 -.08)">
<use xlink:href="#l"/>
<use x="60.818359" xlink:href="#c"/>
<use x="122.341797" xlink:href="#e"/>
<use x="163.439453" xlink:href="#h"/>
<use x="260.851562" xlink:href="#g"/>
<use x="288.634766" xlink:href="#j"/>
<use x="352.013672" xlink:href="#i"/>
<use x="413.292969" xlink:href="#k"/>
</g>
</g>
<defs>
<path id="b" d="m0 8.6603c2.2967 0 4.4997-0.9125 6.1237-2.5365 1.624-1.624 2.5365-3.827 2.5365-6.1237s-0.9125-4.4997-2.5365-6.1237c-1.624-1.624-3.827-2.5365-6.1237-2.5365s-4.4997 0.9125-6.1237 2.5365c-1.624 1.624-2.5365 3.827-2.5365 6.1237s0.9125 4.4997 2.5365 6.1237c1.624 1.624 3.827 2.5365 6.1237 2.5365z"/>
</defs>
<g clip-path="url(#a)">
<use x="48.633416" y="533.439744" fill="#ffffff" stroke="#ffffff" xlink:href="#b"/>
</g>
<g clip-path="url(#a)">
<use x="94.668329" y="533.439744" fill="#ffffff" stroke="#ffffff" xlink:href="#b"/>
</g>
<g clip-path="url(#a)">
<use x="140.703241" y="533.439744" fill="#ffffff" stroke="#ffffff" xlink:href="#b"/>
</g>
<g clip-path="url(#a)">
<use x="186.738154" y="533.439744" fill="#ffffff" stroke="#ffffff" xlink:href="#b"/>
</g>
<g clip-path="url(#a)">
<use x="232.773067" y="533.439744" fill="#ffffff" stroke="#ffffff" xlink:href="#b"/>
</g>
<g clip-path="url(#a)">
<use x="278.80798" y="533.439744" fill="#ffffff" stroke="#ffffff" xlink:href="#b"/>
</g>
<g clip-path="url(#a)">
<use x="324.842892" y="533.439744" fill="#ffffff" stroke="#ffffff" xlink:href="#b"/>
</g>
<g clip-path="url(#a)">
<use x="370.877805" y="533.439744" fill="#ffffff" stroke="#ffffff" xlink:href="#b"/>
</g>
<g clip-path="url(#a)">
<use x="416.912718" y="533.439744" fill="#ffffff" stroke="#ffffff" xlink:href="#b"/>
</g>
<g clip-path="url(#a)">
<use x="462.947631" y="533.439744" fill="#ffffff" stroke="#ffffff" xlink:href="#b"/>
</g>
<g clip-path="url(#a)">
<use x="508.982544" y="533.439744" fill="#ffffff" stroke="#ffffff" xlink:href="#b"/>
</g>
<g clip-path="url(#a)">
<use x="555.017456" y="533.439744" fill="#ffffff" stroke="#ffffff" xlink:href="#b"/>
</g>
<g clip-path="url(#a)">
<use x="601.052369" y="533.439744" fill="#ffffff" stroke="#ffffff" xlink:href="#b"/>
</g>
<g clip-path="url(#a)">
<use x="647.087282" y="533.439744" fill="#ffffff" stroke="#ffffff" xlink:href="#b"/>
</g>
<g clip-path="url(#a)">
<use x="693.122195" y="533.439744" fill="#ffffff" stroke="#ffffff" xlink:href="#b"/>
</g>
<g clip-path="url(#a)">
<use x="739.157108" y="533.439744" fill="#ffffff" stroke="#ffffff" xlink:href="#b"/>
</g>
<g clip-path="url(#a)">
<use x="785.19202" y="533.439744" fill="#ffffff" stroke="#ffffff" xlink:href="#b"/>
</g>
<g clip-path="url(#a)">
<use x="831.226933" y="533.439744" fill="#ffffff" stroke="#ffffff" xlink:href="#b"/>
</g>
<g clip-path="url(#a)">
<use x="877.261846" y="533.439744" fill="#ffffff" stroke="#ffffff" xlink:href="#b"/>
</g>
<g clip-path="url(#a)">
<use x="923.296759" y="533.439744" fill="#ffffff" stroke="#ffffff" xlink:href="#b"/>
</g>
<g clip-path="url(#a)">
<use x="969.331671" y="533.439744" fill="#ffffff" stroke="#ffffff" xlink:href="#b"/>
</g>
<g clip-path="url(#a)">
<use x="304.127182" y="26.560256" fill="#ffffff" stroke="#ffffff" xlink:href="#b"/>
</g>
<g clip-path="url(#a)">
<use x="48.633416" y="434.135873" fill="#ffffff" stroke="#ffffff" xlink:href="#b"/>
</g>
<g clip-path="url(#a)">
<use x="140.703241" y="434.135873" fill="#ffffff" stroke="#ffffff" xlink:href="#b"/>
</g>
<g clip-path="url(#a)">
<use x="508.982544" y="234.146705" fill="#ffffff" stroke="#ffffff" xlink:href="#b"/>
</g>
<g clip-path="url(#a)">
<use x="727.648379" y="131.522637" fill="#ffffff" stroke="#ffffff" xlink:href="#b"/>
</g>
<g clip-path="url(#a)">
<use x="462.947631" y="434.135873" fill="#ffffff" stroke="#ffffff" xlink:href="#b"/>
</g>
<g clip-path="url(#a)">
<use x="508.982544" y="434.135873" fill="#ffffff" stroke="#ffffff" xlink:href="#b"/>
</g>
<g clip-path="url(#a)">
<use x="555.017456" y="434.135873" fill="#ffffff" stroke="#ffffff" xlink:href="#b"/>
</g>
<g clip-path="url(#a)">
<use x="693.122195" y="234.146705" fill="#ffffff" stroke="#ffffff" xlink:href="#b"/>
</g>
<g clip-path="url(#a)">
<use x="831.226933" y="434.135873" fill="#ffffff" stroke="#ffffff" xlink:href="#b"/>
</g>
<g clip-path="url(#a)">
<use x="877.261846" y="434.135873" fill="#ffffff" stroke="#ffffff" xlink:href="#b"/>
</g>
<g clip-path="url(#a)">
<use x="923.296759" y="434.135873" fill="#ffffff" stroke="#ffffff" xlink:href="#b"/>
</g>
<g clip-path="url(#a)">
<use x="601.052369" y="434.135873" fill="#ffffff" stroke="#ffffff" xlink:href="#b"/>
</g>
<g clip-path="url(#a)">
<use x="647.087282" y="434.135873" fill="#ffffff" stroke="#ffffff" xlink:href="#b"/>
</g>
<g clip-path="url(#a)">
<use x="693.122195" y="434.135873" fill="#ffffff" stroke="#ffffff" xlink:href="#b"/>
</g>
<g clip-path="url(#a)">
<use x="739.157108" y="434.135873" fill="#ffffff" stroke="#ffffff" xlink:href="#b"/>
</g>
<g clip-path="url(#a)">
<use x="785.19202" y="334.832002" fill="#ffffff" stroke="#ffffff" xlink:href="#b"/>
</g>
<g clip-path="url(#a)">
<use x="785.19202" y="434.135873" fill="#ffffff" stroke="#ffffff" xlink:href="#b"/>
</g>
<g clip-path="url(#a)">
<use x="1015.366584" y="533.439744" fill="#ffffff" stroke="#ffffff" xlink:href="#b"/>
</g>
<g clip-path="url(#a)">
<use x="186.738154" y="434.135873" fill="#ffffff" stroke="#ffffff" xlink:href="#b"/>
</g>
<g clip-path="url(#a)">
<use x="324.842892" y="334.832002" fill="#ffffff" stroke="#ffffff" xlink:href="#b"/>
</g>
<g clip-path="url(#a)">
<use x="232.773067" y="434.135873" fill="#ffffff" stroke="#ffffff" xlink:href="#b"/>
</g>
<g clip-path="url(#a)">
<use x="278.80798" y="434.135873" fill="#ffffff" stroke="#ffffff" xlink:href="#b"/>
</g>
<g clip-path="url(#a)">
<use x="324.842892" y="434.135873" fill="#ffffff" stroke="#ffffff" xlink:href="#b"/>
</g>
<g clip-path="url(#a)">
<use x="370.877805" y="434.135873" fill="#ffffff" stroke="#ffffff" xlink:href="#b"/>
</g>
<g clip-path="url(#a)">
<use x="416.912718" y="434.135873" fill="#ffffff" stroke="#ffffff" xlink:href="#b"/>
</g>
<g clip-path="url(#a)">
<use x="94.668329" y="434.135873" fill="#ffffff" stroke="#ffffff" xlink:href="#b"/>
</g>
<g clip-path="url(#a)">
<use x="969.331671" y="434.135873" fill="#ffffff" stroke="#ffffff" xlink:href="#b"/>
</g>
<g clip-path="url(#a)">
<defs>
<path id="au" d="m32.172-5.0781q-3.7969-9.7656-7.4219-12.734-3.6094-2.9844-9.6562-2.9844h-7.1875v7.5156h5.2812q3.7031 0 5.75 1.7656 2.0625 1.75 4.5469 8.2969l1.6094 4.0938-22.109 53.812h9.5156l17.094-42.766 17.094 42.766h9.5156z"/>
<path id="s" d="m54.891 33.016v-33.016h-8.9844v32.719q0 7.7656-3.0312 11.609-3.0312 3.8594-9.0781 3.8594-7.2812 0-11.484-4.6406-4.2031-4.625-4.2031-12.641v-30.906h-9.0312v75.984h9.0312v-29.797q3.2344 4.9375 7.5938 7.375 4.375 2.4375 10.094 2.4375 9.4219 0 14.25-5.8281 4.8438-5.8281 4.8438-17.156z"/>
<path id="p" d="m30.609 48.391q-7.2188 0-11.422-5.6406t-4.2031-15.453 4.1719-15.453q4.1875-5.6406 11.453-5.6406 7.1875 0 11.375 5.6562 4.2031 5.6719 4.2031 15.438 0 9.7188-4.2031 15.406-4.1875 5.6875-11.375 5.6875zm0 7.6094q11.719 0 18.406-7.625 6.7031-7.6094 6.7031-21.078 0-13.422-6.7031-21.078-6.6875-7.6406-18.406-7.6406-11.766 0-18.438 7.6406-6.6562 7.6562-6.6562 21.078 0 13.469 6.6562 21.078 6.6719 7.625 18.438 7.625z"/>
<path id="ad" d="m4.2031 54.688h8.9844l11.234-42.672 11.172 42.672h10.594l11.234-42.672 11.188 42.672h8.9844l-14.312-54.688h-10.594l-11.766 44.828-11.812-44.828h-10.609z"/>
</defs>
<g transform="translate(28.768 536.2) scale(.1 -.1)">
<use xlink:href="#q"/>
<use x="68.408203" xlink:href="#j"/>
<use x="131.787109" xlink:href="#au"/>
<use x="190.966797" xlink:href="#s"/>
<use x="254.345703" xlink:href="#p"/>
<use x="315.527344" xlink:href="#ad"/>
</g>
</g>
<g clip-path="url(#a)">
<defs>
<path id="as" d="m11.719 12.406h10.297v-8.4062l-8-15.625h-6.2969l4 15.625z"/>
</defs>
<g transform="translate(93.079 536.2) scale(.1 -.1)">
<use xlink:href="#as"/>
</g>
</g>
<g clip-path="url(#a)">
<defs>
<path id="ae" d="m37.109 75.984v-7.4844h-8.5938q-4.8281 0-6.7188-1.9531-1.875-1.9531-1.875-7.0312v-4.8281h14.797v-6.9844h-14.797v-47.703h-9.0312v47.703h-8.5938v6.9844h8.5938v3.8125q0 9.125 4.25 13.297 4.25 4.1875 13.469 4.1875z"/>
<path id="n" d="m18.312 70.219v-15.531h18.5v-6.9844h-18.5v-29.688q0-6.6875 1.8281-8.5938t7.4531-1.9062h9.2188v-7.5156h-9.2188q-10.406 0-14.359 3.875-3.9531 3.8906-3.9531 14.141v29.688h-6.5938v6.9844h6.5938v15.531z"/>
</defs>
<g transform="translate(128.79 536.2) scale(.1 -.1)">
<use xlink:href="#i"/>
<use x="61.279297" xlink:href="#ae"/>
<use x="96.46875" xlink:href="#n"/>
<use x="135.677734" xlink:href="#c"/>
<use x="197.201172" xlink:href="#e"/>
</g>
</g>
<g clip-path="url(#a)">
<defs>
<path id="ay" d="m45.406 46.391v29.594h8.9844v-75.984h-8.9844v8.2031q-2.8281-4.875-7.1562-7.25-4.3125-2.375-10.375-2.375-9.9062 0-16.141 7.9062-6.2188 7.9219-6.2188 20.812t6.2188 20.797q6.2344 7.9062 16.141 7.9062 6.0625 0 10.375-2.375 4.3281-2.3594 7.1562-7.2344zm-30.609-19.094q0-9.9062 4.0781-15.547t11.203-5.6406 11.219 5.6406q4.1094 5.6406 4.1094 15.547t-4.1094 15.547q-4.0938 5.6406-11.219 5.6406t-11.203-5.6406-4.0781-15.547z"/>
<path id="ao" d="m45.406 27.984q0 9.7656-4.0312 15.125-4.0156 5.375-11.297 5.375-7.2188 0-11.25-5.375-4.0312-5.3594-4.0312-15.125 0-9.7188 4.0312-15.094t11.25-5.375q7.2812 0 11.297 5.375 4.0312 5.375 4.0312 15.094zm8.9844-21.203q0-13.953-6.2031-20.766-6.1875-6.8125-18.984-6.8125-4.7344 0-8.9375 0.70312t-8.1562 2.1719v8.7344q3.9531-2.1406 7.8125-3.1562 3.8594-1.0312 7.8594-1.0312 8.8438 0 13.234 4.6094t4.3906 13.938v4.4531q-2.7812-4.8438-7.125-7.2344t-10.406-2.3906q-10.047 0-16.203 7.6562-6.1562 7.6719-6.1562 20.328 0 12.688 6.1562 20.344 6.1562 7.6719 16.203 7.6719 6.0625 0 10.406-2.3906t7.125-7.2188v8.2969h8.9844z"/>
</defs>
<g transform="translate(167.64 536.2) scale(.1 -.1)">
<use xlink:href="#e"/>
<use x="41.082031" xlink:href="#c"/>
<use x="102.605469" xlink:href="#i"/>
<use x="163.884766" xlink:href="#ay"/>
<use x="227.361328" xlink:href="#g"/>
<use x="255.144531" xlink:href="#j"/>
<use x="318.523438" xlink:href="#ao"/>
</g>
</g>
<g clip-path="url(#a)">
<defs>
<path id="o" d="m44.281 53.078v-8.5q-3.7969 1.9531-7.9062 2.9219-4.0938 0.98438-8.5 0.98438-6.6875 0-10.031-2.0469t-3.3438-6.1562q0-3.125 2.3906-4.9062t9.625-3.3906l3.0781-0.6875q9.5625-2.0469 13.594-5.7812t4.0312-10.422q0-7.625-6.0312-12.078-6.0312-4.4375-16.578-4.4375-4.3906 0-9.1562 0.85938t-10.031 2.5625v9.2812q4.9844-2.5938 9.8125-3.8906 4.8281-1.2812 9.5781-1.2812 6.3438 0 9.75 2.1719 3.4219 2.1719 3.4219 6.125 0 3.6562-2.4688 5.6094-2.4531 1.9531-10.812 3.7656l-3.125 0.73438q-8.3438 1.75-12.062 5.3906-3.7031 3.6406-3.7031 9.9844 0 7.7188 5.4688 11.906 5.4688 4.2031 15.531 4.2031 4.9688 0 9.3594-0.73438 4.4062-0.71875 8.1094-2.1875z"/>
</defs>
<g transform="translate(219.16 536.2) scale(.1 -.1)">
<use xlink:href="#o"/>
<use x="52.099609" xlink:href="#p"/>
<use x="113.28125" xlink:href="#h"/>
<use x="210.693359" xlink:href="#c"/>
</g>
</g>
<g clip-path="url(#a)">
<g transform="translate(273.99 536.2) scale(.1 -.1)">
<use xlink:href="#p"/>
<use x="61.181641" xlink:href="#ae"/>
</g>
</g>
<g clip-path="url(#a)">
<g transform="translate(316.64 536.2) scale(.1 -.1)">
<use xlink:href="#n"/>
<use x="39.208984" xlink:href="#s"/>
<use x="102.587891" xlink:href="#c"/>
</g>
</g>
<g clip-path="url(#a)">
<g transform="translate(357.56 536.2) scale(.1 -.1)">
<use xlink:href="#p"/>
<use x="61.181641" xlink:href="#n"/>
<use x="100.390625" xlink:href="#s"/>
<use x="163.769531" xlink:href="#c"/>
<use x="225.292969" xlink:href="#e"/>
</g>
</g>
<g clip-path="url(#a)">
<defs>
<path id="an" d="m2.9844 54.688h9.5156l17.094-45.891 17.094 45.891h9.5156l-20.516-54.688h-12.203z"/>
</defs>
<g transform="translate(397.66 536.2) scale(.1 -.1)">
<use xlink:href="#e"/>
<use x="41.082031" xlink:href="#c"/>
<use x="102.605469" xlink:href="#an"/>
<use x="161.785156" xlink:href="#g"/>
<use x="189.568359" xlink:href="#c"/>
<use x="251.091797" xlink:href="#ad"/>
<use x="332.878906" xlink:href="#o"/>
</g>
</g>
<g clip-path="url(#a)">
<g transform="translate(459.6 536.2) scale(.1 -.1)">
<use xlink:href="#g"/>
<use x="27.783203" xlink:href="#n"/>
</g>
</g>
<g clip-path="url(#a)">
<g transform="translate(492.75 536.2) scale(.1 -.1)">
<use xlink:href="#o"/>
<use x="52.099609" xlink:href="#c"/>
<use x="113.623047" xlink:href="#c"/>
<use x="175.146484" xlink:href="#h"/>
<use x="272.558594" xlink:href="#o"/>
</g>
</g>
<g clip-path="url(#a)">
<defs>
<path id="ax" d="m9.0781 75.984h9.0312v-44.875l26.812 23.578h11.469l-29-25.578 30.234-29.109h-11.719l-27.797 26.703v-26.703h-9.0312z"/>
</defs>
<g transform="translate(546.27 536.2) scale(.1 -.1)">
<use xlink:href="#k"/>
<use x="27.783203" xlink:href="#g"/>
<use x="55.566406" xlink:href="#ax"/>
<use x="113.429688" xlink:href="#c"/>
</g>
</g>
<g clip-path="url(#a)">
<g transform="translate(587.44 536.2) scale(.1 -.1)">
<use xlink:href="#o"/>
<use x="52.099609" xlink:href="#p"/>
<use x="113.28125" xlink:href="#h"/>
<use x="210.693359" xlink:href="#c"/>
</g>
</g>
<g clip-path="url(#a)">
<g transform="translate(642.27 536.2) scale(.1 -.1)">
<use xlink:href="#p"/>
<use x="61.181641" xlink:href="#ae"/>
</g>
</g>
<g clip-path="url(#a)">
<g transform="translate(684.92 536.2) scale(.1 -.1)">
<use xlink:href="#n"/>
<use x="39.208984" xlink:href="#s"/>
<use x="102.587891" xlink:href="#c"/>
</g>
</g>
<g clip-path="url(#a)">
<g transform="translate(725.84 536.2) scale(.1 -.1)">
<use xlink:href="#p"/>
<use x="61.181641" xlink:href="#n"/>
<use x="100.390625" xlink:href="#s"/>
<use x="163.769531" xlink:href="#c"/>
<use x="225.292969" xlink:href="#e"/>
</g>
</g>
<g clip-path="url(#a)">
<g transform="translate(760.81 536.2) scale(.1 -.1)">
<use xlink:href="#e"/>
<use x="41.082031" xlink:href="#c"/>
<use x="102.605469" xlink:href="#an"/>
<use x="161.785156" xlink:href="#g"/>
<use x="189.568359" xlink:href="#c"/>
<use x="251.091797" xlink:href="#ad"/>
<use x="332.878906" xlink:href="#c"/>
<use x="394.402344" xlink:href="#e"/>
<use x="435.515625" xlink:href="#o"/>
</g>
</g>
<g clip-path="url(#a)">
<g transform="translate(823.03 536.2) scale(.1 -.1)">
<use xlink:href="#i"/>
<use x="61.279297" xlink:href="#e"/>
<use x="102.361328" xlink:href="#c"/>
</g>
</g>
<g clip-path="url(#a)">
<defs>
<path id="av" d="m54.891 54.688-19.781-26.609 20.797-28.078h-10.594l-15.922 21.484-15.906-21.484h-10.609l21.25 28.609-19.438 26.078h10.594l14.5-19.484 14.5 19.484z"/>
<path id="aw" d="m18.109 8.2031v-29h-9.0312v75.484h9.0312v-8.2969q2.8438 4.875 7.1562 7.2344 4.3281 2.375 10.328 2.375 9.9688 0 16.188-7.9062 6.2344-7.9062 6.2344-20.797t-6.2344-20.812q-6.2188-7.9062-16.188-7.9062-6 0-10.328 2.375-4.3125 2.375-7.1562 7.25zm30.578 19.094q0 9.9062-4.0781 15.547t-11.203 5.6406q-7.1406 0-11.219-5.6406t-4.0781-15.547 4.0781-15.547 11.219-5.6406q7.125 0 11.203 5.6406t4.0781 15.547z"/>
<path id="af" d="m48.781 52.594v-8.4062q-3.8125 2.1094-7.6406 3.1562t-7.7344 1.0469q-8.75 0-13.594-5.5469-4.8281-5.5312-4.8281-15.547t4.8281-15.562q4.8438-5.5312 13.594-5.5312 3.9062 0 7.7344 1.0469t7.6406 3.1562v-8.3125q-3.7656-1.75-7.7969-2.625-4.0156-0.89062-8.5625-0.89062-12.359 0-19.641 7.7656-7.2656 7.7656-7.2656 20.953 0 13.375 7.3438 21.031 7.3594 7.6719 20.156 7.6719 4.1406 0 8.0938-0.85938 3.9531-0.84375 7.6719-2.5469z"/>
</defs>
<g transform="translate(852.53 536.2) scale(.1 -.1)">
<use xlink:href="#c"/>
<use x="61.507812" xlink:href="#av"/>
<use x="120.6875" xlink:href="#aw"/>
<use x="184.164062" xlink:href="#c"/>
<use x="245.6875" xlink:href="#af"/>
<use x="300.667969" xlink:href="#n"/>
<use x="339.876953" xlink:href="#g"/>
<use x="367.660156" xlink:href="#j"/>
<use x="431.039062" xlink:href="#ao"/>
</g>
</g>
<g clip-path="url(#a)">
<g transform="translate(905.16 536.2) scale(.1 -.1)">
<use xlink:href="#h"/>
<use x="97.412109" xlink:href="#g"/>
<use x="125.195312" xlink:href="#e"/>
<use x="166.277344" xlink:href="#af"/>
<use x="221.257812" xlink:href="#k"/>
<use x="249.041016" xlink:href="#c"/>
<use x="310.564453" xlink:href="#o"/>
</g>
</g>
<g clip-path="url(#a)">
<defs>
<path id="f" d="m10.688 12.406h10.312v-12.406h-10.312z"/>
</defs>
<g transform="translate(967.74 536.2) scale(.1 -.1)">
<use xlink:href="#f"/>
</g>
</g>
<g clip-path="url(#a)">
<defs>
<path id="d" d="m12.406 8.2969h16.109v55.625l-17.531-3.5156v8.9844l17.438 3.5156h9.8594v-64.609h16.109v-8.2969h-41.984z"/>
</defs>
<g transform="translate(296.18 29.32) scale(.1 -.1)">
<use xlink:href="#d"/>
<use x="63.623047" xlink:href="#f"/>
<use x="95.410156" xlink:href="#d"/>
</g>
</g>
<g clip-path="url(#a)">
<defs>
<path id="m" d="m19.188 8.2969h34.422v-8.2969h-46.281v8.2969q5.6094 5.8125 15.297 15.594 9.7031 9.7969 12.188 12.641 4.7344 5.3125 6.6094 9 1.8906 3.6875 1.8906 7.25 0 5.8125-4.0781 9.4688-4.0781 3.6719-10.625 3.6719-4.6406 0-9.7969-1.6094-5.1406-1.6094-11-4.8906v9.9688q5.9531 2.3906 11.125 3.6094 5.1875 1.2188 9.4844 1.2188 11.328 0 18.062-5.6719 6.7344-5.6562 6.7344-15.125 0-4.5-1.6875-8.5312-1.6719-4.0156-6.125-9.4844-1.2188-1.4219-7.7656-8.1875-6.5312-6.7656-18.453-18.922z"/>
</defs>
<g transform="translate(40.682 436.9) scale(.1 -.1)">
<use xlink:href="#d"/>
<use x="63.623047" xlink:href="#f"/>
<use x="95.410156" xlink:href="#m"/>
</g>
</g>
<g clip-path="url(#a)">
<defs>
<path id="t" d="m40.578 39.312q7.0781-1.5156 11.047-6.3125 3.9844-4.7812 3.9844-11.812 0-10.781-7.4219-16.703-7.4219-5.9062-21.094-5.9062-4.5781 0-9.4375 0.90625t-10.031 2.7188v9.5156q4.0938-2.3906 8.9688-3.6094 4.8906-1.2188 10.219-1.2188 9.2656 0 14.125 3.6562t4.8594 10.641q0 6.4531-4.5156 10.078-4.5156 3.6406-12.562 3.6406h-8.5v8.1094h8.8906q7.2656 0 11.125 2.9062t3.8594 8.375q0 5.6094-3.9844 8.6094-3.9688 3.0156-11.391 3.0156-4.0625 0-8.7031-0.89062-4.6406-0.875-10.203-2.7188v8.7812q5.625 1.5625 10.531 2.3438t9.25 0.78125q11.234 0 17.766-5.1094 6.5469-5.0938 6.5469-13.781 0-6.0625-3.4688-10.234t-9.8594-5.7812z"/>
</defs>
<g transform="translate(132.75 436.9) scale(.1 -.1)">
<use xlink:href="#d"/>
<use x="63.623047" xlink:href="#f"/>
<use x="95.410156" xlink:href="#t"/>
</g>
</g>
<g clip-path="url(#a)">
<defs>
<path id="ab" d="m37.797 64.312-24.906-38.922h24.906zm-2.5938 8.5938h12.406v-47.516h10.406v-8.2031h-10.406v-17.188h-9.8125v17.188h-32.906v9.5156z"/>
</defs>
<g transform="translate(501.03 236.91) scale(.1 -.1)">
<use xlink:href="#d"/>
<use x="63.623047" xlink:href="#f"/>
<use x="95.410156" xlink:href="#ab"/>
</g>
</g>
<g clip-path="url(#a)">
<defs>
<path id="aa" d="m10.797 72.906h38.719v-8.3125h-29.688v-17.859q2.1406 0.73438 4.2812 1.0938 2.1562 0.35938 4.3125 0.35938 12.203 0 19.328-6.6875 7.1406-6.6875 7.1406-18.109 0-11.766-7.3281-18.297-7.3281-6.5156-20.656-6.5156-4.5938 0-9.3594 0.78125-4.75 0.78125-9.8281 2.3438v9.9219q4.3906-2.3906 9.0781-3.5625t9.9062-1.1719q8.4531 0 13.375 4.4375 4.9375 4.4375 4.9375 12.062 0 7.6094-4.9375 12.047-4.9219 4.4531-13.375 4.4531-3.9531 0-7.8906-0.875-3.9219-0.875-8.0156-2.7344z"/>
</defs>
<g transform="translate(719.7 134.28) scale(.1 -.1)">
<use xlink:href="#d"/>
<use x="63.623047" xlink:href="#f"/>
<use x="95.410156" xlink:href="#aa"/>
</g>
</g>
<g clip-path="url(#a)">
<defs>
<path id="z" d="m31.781 34.625q-7.0312 0-11.062-3.7656-4.0156-3.7656-4.0156-10.344 0-6.5938 4.0156-10.359 4.0312-3.7656 11.062-3.7656t11.078 3.7812q4.0625 3.7969 4.0625 10.344 0 6.5781-4.0312 10.344-4.0156 3.7656-11.109 3.7656zm-9.8594 4.1875q-6.3438 1.5625-9.8906 5.9062-3.5312 4.3594-3.5312 10.609 0 8.7344 6.2188 13.812 6.2344 5.0781 17.062 5.0781 10.891 0 17.094-5.0781t6.2031-13.812q0-6.25-3.5469-10.609-3.5312-4.3438-9.8281-5.9062 7.125-1.6562 11.094-6.5 3.9844-4.8281 3.9844-11.797 0-10.609-6.4688-16.281-6.4688-5.6562-18.531-5.6562-12.047 0-18.531 5.6562-6.4688 5.6719-6.4688 16.281 0 6.9688 4 11.797 4.0156 4.8438 11.141 6.5zm-3.6094 15.578q0-5.6562 3.5312-8.8281 3.5469-3.1719 9.9375-3.1719 6.3594 0 9.9375 3.1719 3.5938 3.1719 3.5938 8.8281 0 5.6719-3.5938 8.8438-3.5781 3.1719-9.9375 3.1719-6.3906 0-9.9375-3.1719-3.5312-3.1719-3.5312-8.8438z"/>
</defs>
<g transform="translate(455 436.9) scale(.1 -.1)">
<use xlink:href="#d"/>
<use x="63.623047" xlink:href="#f"/>
<use x="95.410156" xlink:href="#z"/>
</g>
</g>
<g clip-path="url(#a)">
<defs>
<path id="y" d="m10.984 1.5156v8.9844q3.7188-1.7656 7.5156-2.6875 3.8125-0.92188 7.4844-0.92188 9.7656 0 14.906 6.5625 5.1562 6.5625 5.8906 19.953-2.8281-4.2031-7.1875-6.4531-4.3438-2.25-9.6094-2.25-10.938 0-17.312 6.6094-6.375 6.625-6.375 18.109 0 11.219 6.6406 18 6.6406 6.7969 17.672 6.7969 12.656 0 19.312-9.7031 6.6719-9.6875 6.6719-28.141 0-17.234-8.1875-27.516-8.1719-10.281-21.984-10.281-3.7188 0-7.5312 0.73438-3.7969 0.73438-7.9062 2.2031zm19.625 30.906q6.6406 0 10.516 4.5312 3.8906 4.5469 3.8906 12.469 0 7.8594-3.8906 12.422-3.875 4.5625-10.516 4.5625t-10.516-4.5625-3.875-12.422q0-7.9219 3.875-12.469 3.875-4.5312 10.516-4.5312z"/>
</defs>
<g transform="translate(501.03 436.9) scale(.1 -.1)">
<use xlink:href="#d"/>
<use x="63.623047" xlink:href="#f"/>
<use x="95.410156" xlink:href="#y"/>
</g>
</g>
<g clip-path="url(#a)">
<defs>
<path id="ac" d="m31.781 66.406q-7.6094 0-11.453-7.5-3.8281-7.4844-3.8281-22.531 0-14.984 3.8281-22.484 3.8438-7.5 11.453-7.5 7.6719 0 11.5 7.5 3.8438 7.5 3.8438 22.484 0 15.047-3.8438 22.531-3.8281 7.5-11.5 7.5zm0 7.8125q12.266 0 18.734-9.7031 6.4688-9.6875 6.4688-28.141 0-18.406-6.4688-28.109-6.4688-9.6875-18.734-9.6875-12.25 0-18.719 9.6875-6.4688 9.7031-6.4688 28.109 0 18.453 6.4688 28.141 6.4688 9.7031 18.719 9.7031z"/>
</defs>
<g transform="translate(543.88 436.9) scale(.1 -.1)">
<use xlink:href="#d"/>
<use x="63.623047" xlink:href="#f"/>
<use x="95.410156" xlink:href="#d"/>
<use x="159.033203" xlink:href="#ac"/>
</g>
</g>
<g clip-path="url(#a)">
<g transform="translate(681.99 236.91) scale(.1 -.1)">
<use xlink:href="#d"/>
<use x="63.623047" xlink:href="#f"/>
<use x="95.410156" xlink:href="#d"/>
<use x="159.033203" xlink:href="#d"/>
</g>
</g>
<g clip-path="url(#a)">
<g transform="translate(820.09 436.9) scale(.1 -.1)">
<use xlink:href="#d"/>
<use x="63.623047" xlink:href="#f"/>
<use x="95.410156" xlink:href="#d"/>
<use x="159.033203" xlink:href="#m"/>
</g>
</g>
<g clip-path="url(#a)">
<g transform="translate(866.13 436.9) scale(.1 -.1)">
<use xlink:href="#d"/>
<use x="63.623047" xlink:href="#f"/>
<use x="95.410156" xlink:href="#d"/>
<use x="159.033203" xlink:href="#t"/>
</g>
</g>
<g clip-path="url(#a)">
<g transform="translate(912.16 436.9) scale(.1 -.1)">
<use xlink:href="#d"/>
<use x="63.623047" xlink:href="#f"/>
<use x="95.410156" xlink:href="#d"/>
<use x="159.033203" xlink:href="#ab"/>
</g>
</g>
<g clip-path="url(#a)">
<g transform="translate(589.92 436.9) scale(.1 -.1)">
<use xlink:href="#d"/>
<use x="63.623047" xlink:href="#f"/>
<use x="95.410156" xlink:href="#d"/>
<use x="159.033203" xlink:href="#aa"/>
</g>
</g>
<g clip-path="url(#a)">
<defs>
<path id="am" d="m33.016 40.375q-6.6406 0-10.531-4.5469-3.875-4.5312-3.875-12.438 0-7.8594 3.875-12.438 3.8906-4.5625 10.531-4.5625t10.516 4.5625q3.875 4.5781 3.875 12.438 0 7.9062-3.875 12.438-3.875 4.5469-10.516 4.5469zm19.578 30.922v-8.9844q-3.7188 1.75-7.5 2.6719-3.7812 0.9375-7.5 0.9375-9.7656 0-14.922-6.5938-5.1406-6.5938-5.875-19.922 2.875 4.25 7.2188 6.5156 4.3594 2.2656 9.5781 2.2656 10.984 0 17.359-6.6719 6.375-6.6562 6.375-18.125 0-11.234-6.6406-18.031-6.6406-6.7812-17.672-6.7812-12.656 0-19.344 9.6875-6.6875 9.7031-6.6875 28.109 0 17.281 8.2031 27.562t22.016 10.281q3.7188 0 7.5-0.73438t7.8906-2.1875z"/>
</defs>
<g transform="translate(635.95 436.9) scale(.1 -.1)">
<use xlink:href="#d"/>
<use x="63.623047" xlink:href="#f"/>
<use x="95.410156" xlink:href="#d"/>
<use x="159.033203" xlink:href="#am"/>
</g>
</g>
<g clip-path="url(#a)">
<defs>
<path id="al" d="m8.2031 72.906h46.875v-4.2031l-26.469-68.703h-10.297l24.906 64.594h-35.016z"/>
</defs>
<g transform="translate(681.99 436.9) scale(.1 -.1)">
<use xlink:href="#d"/>
<use x="63.623047" xlink:href="#f"/>
<use x="95.410156" xlink:href="#d"/>
<use x="159.033203" xlink:href="#al"/>
</g>
</g>
<g clip-path="url(#a)">
<g transform="translate(728.02 436.9) scale(.1 -.1)">
<use xlink:href="#d"/>
<use x="63.623047" xlink:href="#f"/>
<use x="95.410156" xlink:href="#d"/>
<use x="159.033203" xlink:href="#z"/>
</g>
</g>
<g clip-path="url(#a)">
<g transform="translate(774.06 337.59) scale(.1 -.1)">
<use xlink:href="#d"/>
<use x="63.623047" xlink:href="#f"/>
<use x="95.410156" xlink:href="#d"/>
<use x="159.033203" xlink:href="#y"/>
</g>
</g>
<g clip-path="url(#a)">
<g transform="translate(774.06 436.9) scale(.1 -.1)">
<use xlink:href="#d"/>
<use x="63.623047" xlink:href="#f"/>
<use x="95.410156" xlink:href="#m"/>
<use x="159.033203" xlink:href="#ac"/>
</g>
</g>
<g clip-path="url(#a)">
<defs>
<path id="w" d="m9.8125 72.906h9.8594v-72.906h-9.8594z"/>
<path id="aq" d="m9.8125 72.906h14.703l18.594-49.609 18.703 49.609h14.703v-72.906h-9.625v64.016l-18.797-50h-9.9062l-18.797 50v-64.016h-9.5781z"/>
</defs>
<g transform="translate(994.28 536.2) scale(.1 -.1)">
<use xlink:href="#w"/>
<use x="29.492188" xlink:href="#aq"/>
<use x="115.771484" xlink:href="#u"/>
<use x="176.074219" xlink:href="#v"/>
<use x="231.787109" xlink:href="#w"/>
<use x="261.279297" xlink:href="#x"/>
<use x="331.103516" xlink:href="#w"/>
<use x="360.595703" xlink:href="#l"/>
</g>
</g>
<g clip-path="url(#a)">
<g transform="translate(175.61 436.9) scale(.1 -.1)">
<use xlink:href="#d"/>
<use x="63.623047" xlink:href="#f"/>
<use x="95.410156" xlink:href="#m"/>
<use x="159.033203" xlink:href="#m"/>
</g>
</g>
<g clip-path="url(#a)">
<g transform="translate(313.71 337.59) scale(.1 -.1)">
<use xlink:href="#d"/>
<use x="63.623047" xlink:href="#f"/>
<use x="95.410156" xlink:href="#m"/>
<use x="159.033203" xlink:href="#t"/>
</g>
</g>
<g clip-path="url(#a)">
<g transform="translate(221.64 436.9) scale(.1 -.1)">
<use xlink:href="#d"/>
<use x="63.623047" xlink:href="#f"/>
<use x="95.410156" xlink:href="#m"/>
<use x="159.033203" xlink:href="#ab"/>
</g>
</g>
<g clip-path="url(#a)">
<g transform="translate(267.68 436.9) scale(.1 -.1)">
<use xlink:href="#d"/>
<use x="63.623047" xlink:href="#f"/>
<use x="95.410156" xlink:href="#m"/>
<use x="159.033203" xlink:href="#aa"/>
</g>
</g>
<g clip-path="url(#a)">
<g transform="translate(313.71 436.9) scale(.1 -.1)">
<use xlink:href="#d"/>
<use x="63.623047" xlink:href="#f"/>
<use x="95.410156" xlink:href="#m"/>
<use x="159.033203" xlink:href="#am"/>
</g>
</g>
<g clip-path="url(#a)">
<g transform="translate(359.74 436.9) scale(.1 -.1)">
<use xlink:href="#d"/>
<use x="63.623047" xlink:href="#f"/>
<use x="95.410156" xlink:href="#m"/>
<use x="159.033203" xlink:href="#al"/>
</g>
</g>
<g clip-path="url(#a)">
<g transform="translate(405.78 436.9) scale(.1 -.1)">
<use xlink:href="#d"/>
<use x="63.623047" xlink:href="#f"/>
<use x="95.410156" xlink:href="#m"/>
<use x="159.033203" xlink:href="#z"/>
</g>
</g>
<g clip-path="url(#a)">
<g transform="translate(83.536 436.9) scale(.1 -.1)">
<use xlink:href="#d"/>
<use x="63.623047" xlink:href="#f"/>
<use x="95.410156" xlink:href="#m"/>
<use x="159.033203" xlink:href="#y"/>
</g>
</g>
<g clip-path="url(#a)">
<g transform="translate(958.2 436.9) scale(.1 -.1)">
<use xlink:href="#d"/>
<use x="63.623047" xlink:href="#f"/>
<use x="95.410156" xlink:href="#t"/>
<use x="159.033203" xlink:href="#ac"/>
</g>
</g>
<defs>
<clipPath id="a">
<rect width="1064" height="560"/>
</clipPath>
</defs>
</svg>
