<?xml version="1.0" encoding="UTF-8"?>
<!DOCTYPE svg  PUBLIC '-//W3C//DTD SVG 1.1//EN'  'http://www.w3.org/Graphics/SVG/1.1/DTD/svg11.dtd'>
<svg width="1165.3pt" height="613.33pt" version="1.1" viewBox="0 0 1165.3 613.33" xmlns="http://www.w3.org/2000/svg" xmlns:xlink="http://www.w3.org/1999/xlink">
<metadata>
<rdf:RDF xmlns:cc="http://creativecommons.org/ns#" xmlns:dc="http://purl.org/dc/elements/1.1/" xmlns:rdf="http://www.w3.org/1999/02/22-rdf-syntax-ns#">
<cc:Work>
<dc:type rdf:resource="http://purl.org/dc/dcmitype/StillImage"/>
<dc:date>2021-02-25T11:30:47.315617</dc:date>
<dc:format>image/svg+xml</dc:format>
<dc:creator>
<cc:Agent>
<dc:title>Matplotlib v3.3.3, https://matplotlib.org/</dc:title>
</cc:Agent>
</dc:creator>
</cc:Work>
</rdf:RDF>
</metadata>
<defs>
<style type="text/css">*{stroke-linecap:butt;stroke-linejoin:round;}</style>
</defs>
<path d="m0 613.33h1165.3v-613.33h-1165.3z" fill="#fff"/>
<g fill="none" stroke="#000">
<path d="m285.09 27.879-220.27 447.84" clip-path="url(#a)"/>
<path d="m285.09 27.879-166.94 336.58" clip-path="url(#a)"/>
<path d="m285.09 27.879-61.702 224.73" clip-path="url(#a)"/>
<path d="m285.09 27.879 134.05 447.84" clip-path="url(#a)"/>
<path d="m285.09 27.879 314.87 112.51" clip-path="url(#a)"/>
<path d="m64.82 475.72-11.85 109.73" clip-path="url(#a)"/>
<path d="m64.82 475.72-1.185 109.73" clip-path="url(#a)"/>
<path d="m64.82 475.72 13.035 109.73" clip-path="url(#a)"/>
<path d="m118.14 364.46-22.515 111.26" clip-path="url(#a)"/>
<path d="m118.14 364.46-1.185 111.26" clip-path="url(#a)"/>
<path d="m118.14 364.46 23.7 111.26" clip-path="url(#a)"/>
<path d="m223.39 252.61 145.98 111.84" clip-path="url(#a)"/>
<path d="m223.39 252.61-53.103 223.11" clip-path="url(#a)"/>
<path d="m223.39 252.61-21.108 223.11" clip-path="url(#a)"/>
<path d="m223.39 252.61 14.442 223.11" clip-path="url(#a)"/>
<path d="m223.39 252.61 59.769 111.84" clip-path="url(#a)"/>
<path d="m419.14 475.72v109.73" clip-path="url(#a)"/>
<path d="m599.96 140.39-127.5 335.33" clip-path="url(#a)"/>
<path d="m599.96 140.39-70.619 335.33" clip-path="url(#a)"/>
<path d="m599.96 140.39-10.184 335.33" clip-path="url(#a)"/>
<path d="m599.96 140.39 208.3 112.23" clip-path="url(#a)"/>
<path d="m472.46 475.72v109.73" clip-path="url(#a)"/>
<path d="m529.34 475.72v109.73" clip-path="url(#a)"/>
<path d="m589.78 475.72v109.73" clip-path="url(#a)"/>
<path d="m808.26 252.61-154.49 223.11" clip-path="url(#a)"/>
<path d="m808.26 252.61-86.95 223.11" clip-path="url(#a)"/>
<path d="m808.26 252.61 21.478 223.11" clip-path="url(#a)"/>
<path d="m808.26 252.61 219.97 111.84" clip-path="url(#a)"/>
<path d="m653.77 475.72v109.73" clip-path="url(#a)"/>
<path d="m721.31 475.72v109.73" clip-path="url(#a)"/>
<path d="m829.74 475.72-37.328 109.73" clip-path="url(#a)"/>
<path d="m829.74 475.72 37.328 109.73" clip-path="url(#a)"/>
<path d="m1028.2 364.46-82.95 111.26" clip-path="url(#a)"/>
<path d="m1028.2 364.46-1.185 111.26" clip-path="url(#a)"/>
<path d="m1028.2 364.46 84.135 111.26" clip-path="url(#a)"/>
<path d="m945.28 475.72v109.73" clip-path="url(#a)"/>
<path d="m1027 475.72v109.73" clip-path="url(#a)"/>
<path d="m170.29 475.72v109.73" clip-path="url(#a)"/>
<path d="m202.28 475.72v109.73" clip-path="url(#a)"/>
<path d="m237.83 475.72v109.73" clip-path="url(#a)"/>
<path d="m283.16 364.46-112.87 111.26" clip-path="url(#a)" stroke-dasharray="3.7,1.6"/>
<path d="m283.16 364.46-6.2213 111.26" clip-path="url(#a)"/>
<path d="m283.16 364.46 36.439 111.26" clip-path="url(#a)"/>
<path d="m283.16 364.46 82.654 111.26" clip-path="url(#a)"/>
<path d="m276.94 475.72v109.73" clip-path="url(#a)"/>
<path d="m319.6 475.72v109.73" clip-path="url(#a)"/>
<path d="m365.81 475.72v109.73" clip-path="url(#a)"/>
<path d="m95.63 475.72v109.73" clip-path="url(#a)"/>
<path d="m116.96 475.72v109.73" clip-path="url(#a)"/>
<path d="m141.85 475.72v109.73" clip-path="url(#a)"/>
<path d="m1112.4 475.72v109.73" clip-path="url(#a)"/>
</g>
<path d="m179.6 256.57 1.9673-3.9999q1.0592-2.1536-1.0944-3.2128l-6.9476-3.4172q-2.1536-1.0592-3.2128 1.0944l-1.9673 3.9999q-1.0592 2.1536 1.0944 3.2128l6.9476 3.4172q2.1536 1.0592 3.2128-1.0944z" clip-path="url(#a)" fill="#fff" stroke="#fff"/>
<g clip-path="url(#a)">
<g transform="translate(175.95 254.77) rotate(-63.81) scale(.08 -.08)">
<defs>
<path id="w" d="m9.8125 72.906h9.8594v-64.609h35.5v-8.2969h-45.359z"/>
</defs>
<use xlink:href="#w"/>
</g>
</g>
<path d="m205.9 201.65 2.6733-5.3897q1.0664-2.1501-1.0836-3.2165l-6.9362-3.4404q-2.1501-1.0664-3.2165 1.0836l-2.6733 5.3897q-1.0664 2.1501 1.0836 3.2165l6.9362 3.4404q2.15 1.0664 3.2165-1.0836z" clip-path="url(#a)" fill="#fff" stroke="#fff"/>
<g clip-path="url(#a)">
<g transform="translate(202.26 199.84) rotate(-63.618) scale(.08 -.08)">
<defs>
<path id="x" d="m9.8125 72.906h9.8594v-29.891h35.844v29.891h9.8594v-72.906h-9.8594v34.719h-35.844v-34.719h-9.8594z"/>
</defs>
<use xlink:href="#x"/>
</g>
</g>
<path d="m259.49 144.81 1.5928-5.8016q0.63541-2.3144-1.6789-2.9498l-7.4662-2.0499q-2.3144-0.63542-2.9498 1.6789l-1.5928 5.8016q-0.63541 2.3144 1.6789 2.9498l7.4662 2.0499q2.3144 0.63541 2.9498-1.6789z" clip-path="url(#a)" fill="#fff" stroke="#fff"/>
<g clip-path="url(#a)">
<g transform="translate(255.57 143.73) rotate(-74.648) scale(.08 -.08)">
<use xlink:href="#x"/>
</g>
</g>
<path d="m345.47 251.46 1.2782 4.2703q0.68819 2.2992 2.9874 1.611l7.4174-2.2201q2.2992-0.68819 1.611-2.9874l-1.2782-4.2703q-0.68819-2.2992-2.9874-1.611l-7.4174 2.2201q-2.2992 0.68819-1.611 2.9874z" clip-path="url(#a)" fill="#fff" stroke="#fff"/>
<g clip-path="url(#a)">
<g transform="translate(349.36 250.3) rotate(73.337) scale(.08 -.08)">
<use xlink:href="#w"/>
</g>
</g>
<path d="m437.58 89.027 5.6654 2.0244q2.2601 0.80756 3.0676-1.4525l2.6052-7.291q0.80756-2.2601-1.4525-3.0676l-5.6654-2.0244q-2.2601-0.80756-3.0676 1.4525l-2.6052 7.291q-0.80756 2.2601 1.4525 3.0676z" clip-path="url(#a)" fill="#fff" stroke="#fff"/>
<g clip-path="url(#a)">
<g transform="translate(438.95 85.2) rotate(19.663) scale(.08 -.08)">
<use xlink:href="#x"/>
</g>
</g>
<path d="m63.315 548.07 3.6297-33.612q0.25767-2.3861-2.1285-2.6438l-7.6977-0.83126q-2.3861-0.25767-2.6438 2.1285l-3.6297 33.612q-0.25767 2.3861 2.1285 2.6438l7.6977 0.83126q2.3861 0.25767 2.6438-2.1285z" clip-path="url(#a)" fill="#fff" stroke="#fff"/>
<g clip-path="url(#a)">
<g transform="translate(59.275 547.63) rotate(-83.837) scale(.08 -.08)">
<defs>
<path id="j" d="m-0.29688 72.906h61.672v-8.3125h-25.875v-64.594h-9.9062v64.594h-25.891z"/>
<path id="d" d="m56.203 29.594v-4.3906h-41.312q0.59375-9.2812 5.5938-14.141t13.938-4.8594q5.1719 0 10.031 1.2656t9.6562 3.8125v-8.5q-4.8438-2.0469-9.9219-3.125t-10.297-1.0781q-13.094 0-20.734 7.6094-7.6406 7.625-7.6406 20.625 0 13.422 7.25 21.297 7.25 7.8906 19.562 7.8906 11.031 0 17.453-7.1094 6.4219-7.0938 6.4219-19.297zm-8.9844 2.6406q-0.09375 7.3594-4.125 11.75-4.0312 4.4062-10.672 4.4062-7.5156 0-12.031-4.25t-5.2031-11.969z"/>
<path id="l" d="m41.109 46.297q-1.5156 0.875-3.2969 1.2812-1.7812 0.42188-3.9219 0.42188-7.625 0-11.703-4.9531t-4.0781-14.234v-28.812h-9.0312v54.688h9.0312v-8.5q2.8438 4.9844 7.375 7.3906 4.5469 2.4219 11.047 2.4219 0.92188 0 2.0469-0.125 1.125-0.10938 2.4844-0.35938z"/>
<path id="k" d="m52 44.188q3.375 6.0625 8.0625 8.9375t11.031 2.875q8.5469 0 13.188-5.9844 4.6406-5.9688 4.6406-17v-33.016h-9.0312v32.719q0 7.8594-2.7969 11.656-2.7812 3.8125-8.4844 3.8125-6.9844 0-11.047-4.6406-4.0469-4.625-4.0469-12.641v-30.906h-9.0312v32.719q0 7.9062-2.7812 11.688t-8.5938 3.7812q-6.8906 0-10.953-4.6562-4.0469-4.6562-4.0469-12.625v-30.906h-9.0312v54.688h9.0312v-8.5q3.0781 5.0312 7.375 7.4219t10.203 2.3906q5.9688 0 10.141-3.0312 4.1719-3.0156 6.1719-8.7812z"/>
<path id="g" d="m9.4219 54.688h8.9844v-54.688h-8.9844zm0 21.297h8.9844v-11.391h-8.9844z"/>
<path id="i" d="m54.891 33.016v-33.016h-8.9844v32.719q0 7.7656-3.0312 11.609-3.0312 3.8594-9.0781 3.8594-7.2812 0-11.484-4.6406-4.2031-4.625-4.2031-12.641v-30.906h-9.0312v54.688h9.0312v-8.5q3.2344 4.9375 7.5938 7.375 4.375 2.4375 10.094 2.4375 9.4219 0 14.25-5.8281 4.8438-5.8281 4.8438-17.156z"/>
<path id="e" d="m34.281 27.484q-10.891 0-15.094-2.4844t-4.2031-8.5q0-4.7812 3.1562-7.5938 3.1562-2.7969 8.5625-2.7969 7.4844 0 12 5.2969t4.5156 14.078v2zm17.922 3.7188v-31.203h-8.9844v8.2969q-3.0781-4.9688-7.6719-7.3438t-11.234-2.375q-8.3906 0-13.359 4.7188-4.9531 4.7188-4.9531 12.625 0 9.2188 6.1719 13.906 6.1875 4.6875 18.438 4.6875h12.609v0.89062q0 6.2031-4.0781 9.5938t-11.453 3.3906q-4.6875 0-9.1406-1.125-4.4375-1.125-8.5312-3.375v8.3125q4.9219 1.9062 9.5625 2.8438 4.6406 0.95312 9.0312 0.95312 11.875 0 17.734-6.1562 5.8594-6.1406 5.8594-18.641z"/>
<path id="h" d="m9.4219 75.984h8.9844v-75.984h-8.9844z"/>
</defs>
<use xlink:href="#j"/>
<use x="44.083984" xlink:href="#d"/>
<use x="105.607422" xlink:href="#l"/>
<use x="144.970703" xlink:href="#k"/>
<use x="242.382812" xlink:href="#g"/>
<use x="270.166016" xlink:href="#i"/>
<use x="333.544922" xlink:href="#e"/>
<use x="394.824219" xlink:href="#h"/>
</g>
</g>
<path d="m70.316 547.56 0.36506-33.806q0.025916-2.3999-2.3739-2.4258l-7.742-0.083605q-2.3999-0.025915-2.4258 2.3739l-0.36506 33.806q-0.025916 2.3999 2.3739 2.4258l7.742 0.083604q2.3999 0.025916 2.4258-2.3739z" clip-path="url(#a)" fill="#fff" stroke="#fff"/>
<g clip-path="url(#a)">
<g transform="translate(66.252 547.51) rotate(-89.381) scale(.08 -.08)">
<use xlink:href="#j"/>
<use x="44.083984" xlink:href="#d"/>
<use x="105.607422" xlink:href="#l"/>
<use x="144.970703" xlink:href="#k"/>
<use x="242.382812" xlink:href="#g"/>
<use x="270.166016" xlink:href="#i"/>
<use x="333.544922" xlink:href="#e"/>
<use x="394.824219" xlink:href="#h"/>
</g>
</g>
<path d="m63.116 514.54 3.9879 33.571q0.2831 2.3832 2.6663 2.1001l7.6884-0.91329q2.3832-0.2831 2.1001-2.6663l-3.9879-33.571q-0.2831-2.3832-2.6663-2.1001l-7.6884 0.91329q-2.3832 0.2831-2.1001 2.6663z" clip-path="url(#a)" fill="#fff" stroke="#fff"/>
<g clip-path="url(#a)">
<g transform="translate(67.151 514.06) rotate(83.226) scale(.08 -.08)">
<use xlink:href="#j"/>
<use x="44.083984" xlink:href="#d"/>
<use x="105.607422" xlink:href="#l"/>
<use x="144.970703" xlink:href="#k"/>
<use x="242.382812" xlink:href="#g"/>
<use x="270.166016" xlink:href="#i"/>
<use x="333.544922" xlink:href="#e"/>
<use x="394.824219" xlink:href="#h"/>
</g>
</g>
<path d="m112.49 424.01 1.0854-5.3638q0.47602-2.3523-1.8763-2.8283l-7.5887-1.5357q-2.3523-0.47602-2.8283 1.8763l-1.0854 5.3638q-0.47602 2.3523 1.8763 2.8283l7.5887 1.5357q2.3523 0.47602 2.8283-1.8763z" clip-path="url(#a)" fill="#fff" stroke="#fff"/>
<g clip-path="url(#a)">
<g transform="translate(108.51 423.21) rotate(-78.56) scale(.08 -.08)">
<defs>
<path id="n" d="m34.188 63.188-13.391-36.281h26.812zm-5.5781 9.7188h11.188l27.781-72.906h-10.25l-6.6406 18.703h-32.859l-6.6406-18.703h-10.406z"/>
</defs>
<use xlink:href="#n"/>
</g>
</g>
<path d="m123.8 422.57 0.051373-4.8235q0.02556-2.3999-2.3743-2.4254l-7.7421-0.082458q-2.3999-0.02556-2.4254 2.3743l-0.051373 4.8235q-0.02556 2.3999 2.3743 2.4254l7.7421 0.082458q2.3999 0.02556 2.4254-2.3743z" clip-path="url(#a)" fill="#fff" stroke="#fff"/>
<g clip-path="url(#a)">
<g transform="translate(119.73 422.52) rotate(-89.39) scale(.08 -.08)">
<defs>
<path id="r" d="m19.672 64.797v-27.391h12.406q6.8906 0 10.641 3.5625 3.7656 3.5625 3.7656 10.156 0 6.5469-3.7656 10.109-3.75 3.5625-10.641 3.5625zm-9.8594 8.1094h22.266q12.266 0 18.531-5.5469 6.2812-5.5469 6.2812-16.234 0-10.797-6.2812-16.312-6.2656-5.5156-18.531-5.5156h-12.406v-29.297h-9.8594z"/>
</defs>
<use xlink:href="#r"/>
</g>
</g>
<path d="m123.29 418.72 1.1401 5.3524q0.50001 2.3473 2.8473 1.8473l7.5726-1.6131q2.3473-0.50001 1.8473-2.8473l-1.1401-5.3524q-0.50001-2.3473-2.8473-1.8473l-7.5726 1.6131q-2.3473 0.50001-1.8473 2.8473z" clip-path="url(#a)" fill="#fff" stroke="#fff"/>
<g clip-path="url(#a)">
<g transform="translate(127.27 417.87) rotate(77.975) scale(.08 -.08)">
<use xlink:href="#n"/>
</g>
</g>
<path d="m290.39 311.85 4.344 3.3283q1.9051 1.4596 3.3648-0.44546l4.7089-6.1459q1.4596-1.9051-0.44546-3.3648l-4.344-3.3283q-1.9051-1.4596-3.3648 0.44546l-4.7089 6.1459q-1.4596 1.9051 0.44546 3.3648z" clip-path="url(#a)" fill="#fff" stroke="#fff"/>
<g clip-path="url(#a)">
<g transform="translate(292.86 308.62) rotate(37.459) scale(.08 -.08)">
<use xlink:href="#n"/>
</g>
</g>
<path d="m202.3 368.28 1.2671-5.3238q0.55572-2.3348-1.7791-2.8905l-7.5321-1.7928q-2.3348-0.55572-2.8905 1.7791l-1.2671 5.3238q-0.55572 2.3348 1.7791 2.8905l7.5321 1.7928q2.3348 0.55572 2.8905-1.7791z" clip-path="url(#a)" fill="#fff" stroke="#fff"/>
<g clip-path="url(#a)">
<g transform="translate(198.35 367.34) rotate(-76.612) scale(.08 -.08)">
<use xlink:href="#n"/>
</g>
</g>
<path d="m218.86 367.05 0.43339-4.5808q0.22605-2.3893-2.1633-2.6154l-7.7081-0.72926q-2.3893-0.22605-2.6154 2.1633l-0.43338 4.5808q-0.22605 2.3893 2.1633 2.6154l7.7081 0.72926q2.3893 0.22605 2.6154-2.1633z" clip-path="url(#a)" fill="#fff" stroke="#fff"/>
<g clip-path="url(#a)">
<g transform="translate(214.82 366.67) rotate(-84.595) scale(.08 -.08)">
<defs>
<path id="t" d="m9.8125 72.906h41.891v-8.3125h-32.031v-21.484h28.906v-8.2969h-28.906v-34.812h-9.8594z"/>
</defs>
<use xlink:href="#t"/>
</g>
</g>
<path d="m224.2 362.17 0.3116 4.8137q0.15503 2.395 2.55 2.24l7.7263-0.50014q2.395-0.15503 2.24-2.55l-0.3116-4.8137q-0.15503-2.395-2.55-2.24l-7.7263 0.50014q-2.395 0.15503-2.24 2.55z" clip-path="url(#a)" fill="#fff" stroke="#fff"/>
<g clip-path="url(#a)">
<g transform="translate(228.25 361.9) rotate(86.296) scale(.08 -.08)">
<use xlink:href="#r"/>
</g>
</g>
<path d="m246.45 309.08 2.5793 4.8266q1.1312 2.1167 3.2479 0.98557l6.8286-3.6491q2.1167-1.1312 0.98557-3.2479l-2.5793-4.8266q-1.1312-2.1167-3.2479-0.98557l-6.8286 3.6491q-2.1167 1.1312-0.98557 3.2479z" clip-path="url(#a)" fill="#fff" stroke="#fff"/>
<g clip-path="url(#a)">
<g transform="translate(250.04 307.16) rotate(61.88) scale(.08 -.08)">
<use xlink:href="#n"/>
</g>
</g>
<path d="m412.86 513.68v33.808q0 2.4 2.4 2.4h7.7425q2.4 0 2.4-2.4v-33.808q0-2.4-2.4-2.4h-7.7425q-2.4 0-2.4 2.4z" clip-path="url(#a)" fill="#fff" stroke="#fff"/>
<g clip-path="url(#a)">
<g transform="translate(416.93 513.68) rotate(90) scale(.08 -.08)">
<use xlink:href="#j"/>
<use x="44.083984" xlink:href="#d"/>
<use x="105.607422" xlink:href="#l"/>
<use x="144.970703" xlink:href="#k"/>
<use x="242.382812" xlink:href="#g"/>
<use x="270.166016" xlink:href="#i"/>
<use x="333.544922" xlink:href="#e"/>
<use x="394.824219" xlink:href="#h"/>
</g>
</g>
<path d="m541.1 312.84 1.9449-5.1152q0.85295-2.2433-1.3904-3.0963l-7.237-2.7517q-2.2433-0.85295-3.0963 1.3904l-1.9449 5.1152q-0.85295 2.2433 1.3904 3.0963l7.237 2.7517q2.2433 0.85295 3.0963-1.3904z" clip-path="url(#a)" fill="#fff" stroke="#fff"/>
<g clip-path="url(#a)">
<g transform="translate(537.3 311.4) rotate(-69.182) scale(.08 -.08)">
<use xlink:href="#n"/>
</g>
</g>
<path d="m570.29 311.71 0.99405-4.7202q0.49458-2.3485-1.8539-2.8431l-7.5763-1.5955q-2.3485-0.49458-2.8431 1.8539l-0.99405 4.7202q-0.49458 2.3485 1.8539 2.8431l7.5763 1.5955q2.3485 0.49458 2.8431-1.8539z" clip-path="url(#a)" fill="#fff" stroke="#fff"/>
<g clip-path="url(#a)">
<g transform="translate(566.31 310.87) rotate(-78.108) scale(.08 -.08)">
<use xlink:href="#r"/>
</g>
</g>
<path d="m601.05 310.98 0.16612-5.47q0.072852-2.3989-2.326-2.4717l-7.7389-0.23502q-2.3989-0.072852-2.4717 2.326l-0.16612 5.47q-0.072851 2.3989 2.326 2.4717l7.7389 0.23502q2.3989 0.072851 2.4717-2.326z" clip-path="url(#a)" fill="#fff" stroke="#fff"/>
<g clip-path="url(#a)">
<g transform="translate(596.99 310.86) rotate(-88.261) scale(.08 -.08)">
<use xlink:href="#n"/>
</g>
</g>
<path d="m698.73 200.72 4.8178 2.5956q2.1129 1.1383 3.2512-0.97453l3.6723-6.8162q1.1383-2.1129-0.97453-3.2512l-4.8178-2.5956q-2.1129-1.1383-3.2512 0.97453l-3.6723 6.8162q-1.1383 2.1129 0.97453 3.2512z" clip-path="url(#a)" fill="#fff" stroke="#fff"/>
<g clip-path="url(#a)">
<g transform="translate(700.66 197.15) rotate(28.314) scale(.08 -.08)">
<use xlink:href="#n"/>
</g>
</g>
<path d="m466.19 513.68v33.808q0 2.4 2.4 2.4h7.7425q2.4 0 2.4-2.4v-33.808q0-2.4-2.4-2.4h-7.7425q-2.4 0-2.4 2.4z" clip-path="url(#a)" fill="#fff" stroke="#fff"/>
<g clip-path="url(#a)">
<g transform="translate(470.25 513.68) rotate(90) scale(.08 -.08)">
<use xlink:href="#j"/>
<use x="44.083984" xlink:href="#d"/>
<use x="105.607422" xlink:href="#l"/>
<use x="144.970703" xlink:href="#k"/>
<use x="242.382812" xlink:href="#g"/>
<use x="270.166016" xlink:href="#i"/>
<use x="333.544922" xlink:href="#e"/>
<use x="394.824219" xlink:href="#h"/>
</g>
</g>
<path d="m523.07 513.68v33.808q0 2.4 2.4 2.4h7.7425q2.4 0 2.4-2.4v-33.808q0-2.4-2.4-2.4h-7.7425q-2.4 0-2.4 2.4z" clip-path="url(#a)" fill="#fff" stroke="#fff"/>
<g clip-path="url(#a)">
<g transform="translate(527.13 513.68) rotate(90) scale(.08 -.08)">
<use xlink:href="#j"/>
<use x="44.083984" xlink:href="#d"/>
<use x="105.607422" xlink:href="#l"/>
<use x="144.970703" xlink:href="#k"/>
<use x="242.382812" xlink:href="#g"/>
<use x="270.166016" xlink:href="#i"/>
<use x="333.544922" xlink:href="#e"/>
<use x="394.824219" xlink:href="#h"/>
</g>
</g>
<path d="m583.51 513.68v33.808q0 2.4 2.4 2.4h7.7425q2.4 0 2.4-2.4v-33.808q0-2.4-2.4-2.4h-7.7425q-2.4 0-2.4 2.4z" clip-path="url(#a)" fill="#fff" stroke="#fff"/>
<g clip-path="url(#a)">
<g transform="translate(587.57 513.68) rotate(90) scale(.08 -.08)">
<use xlink:href="#j"/>
<use x="44.083984" xlink:href="#d"/>
<use x="105.607422" xlink:href="#l"/>
<use x="144.970703" xlink:href="#k"/>
<use x="242.382812" xlink:href="#g"/>
<use x="270.166016" xlink:href="#i"/>
<use x="333.544922" xlink:href="#e"/>
<use x="394.824219" xlink:href="#h"/>
</g>
</g>
<path d="m734.61 369.99 3.1155-4.4991q1.3663-1.9731-0.60678-3.3394l-6.3653-4.4078q-1.9731-1.3663-3.3394 0.60678l-3.1155 4.4991q-1.3663 1.9731 0.60678 3.3394l6.3653 4.4078q1.9731 1.3663 3.3394-0.60678z" clip-path="url(#a)" fill="#fff" stroke="#fff"/>
<g clip-path="url(#a)">
<g transform="translate(731.27 367.67) rotate(-55.298) scale(.08 -.08)">
<use xlink:href="#n"/>
</g>
</g>
<path d="m769.79 368.59 1.6708-4.2872q0.87149-2.2362-1.3647-3.1077l-7.214-2.8115q-2.2362-0.87149-3.1077 1.3647l-1.6708 4.2872q-0.87149 2.2362 1.3647 3.1077l7.214 2.8115q2.2362 0.87149 3.1077-1.3647z" clip-path="url(#a)" fill="#fff" stroke="#fff"/>
<g clip-path="url(#a)">
<g transform="translate(766.01 367.11) rotate(-68.708) scale(.08 -.08)">
<use xlink:href="#t"/>
</g>
</g>
<path d="m812.53 362.37 0.46224 4.8016q0.22998 2.389 2.6189 2.159l7.7069-0.74193q2.389-0.22998 2.159-2.6189l-0.46224-4.8016q-0.22998-2.389-2.6189-2.159l-7.7069 0.74193q-2.389 0.22998-2.159 2.6189z" clip-path="url(#a)" fill="#fff" stroke="#fff"/>
<g clip-path="url(#a)">
<g transform="translate(816.57 361.98) rotate(84.501) scale(.08 -.08)">
<use xlink:href="#r"/>
</g>
</g>
<path d="m912.96 312.89 4.8781 2.4803q2.1393 1.0878 3.2271-1.0516l3.5092-6.9016q1.0878-2.1393-1.0516-3.2271l-4.8781-2.4803q-2.1393-1.0878-3.2271 1.0516l-3.5092 6.9016q-1.0878 2.1393 1.0516 3.2271z" clip-path="url(#a)" fill="#fff" stroke="#fff"/>
<g clip-path="url(#a)">
<g transform="translate(914.81 309.26) rotate(26.952) scale(.08 -.08)">
<use xlink:href="#n"/>
</g>
</g>
<path d="m647.5 513.68v33.808q0 2.4 2.4 2.4h7.7425q2.4 0 2.4-2.4v-33.808q0-2.4-2.4-2.4h-7.7425q-2.4 0-2.4 2.4z" clip-path="url(#a)" fill="#fff" stroke="#fff"/>
<g clip-path="url(#a)">
<g transform="translate(651.56 513.68) rotate(90) scale(.08 -.08)">
<use xlink:href="#j"/>
<use x="44.083984" xlink:href="#d"/>
<use x="105.607422" xlink:href="#l"/>
<use x="144.970703" xlink:href="#k"/>
<use x="242.382812" xlink:href="#g"/>
<use x="270.166016" xlink:href="#i"/>
<use x="333.544922" xlink:href="#e"/>
<use x="394.824219" xlink:href="#h"/>
</g>
</g>
<path d="m715.04 513.68v33.808q0 2.4 2.4 2.4h7.7425q2.4 0 2.4-2.4v-33.808q0-2.4-2.4-2.4h-7.7425q-2.4 0-2.4 2.4z" clip-path="url(#a)" fill="#fff" stroke="#fff"/>
<g clip-path="url(#a)">
<g transform="translate(719.1 513.68) rotate(90) scale(.08 -.08)">
<use xlink:href="#j"/>
<use x="44.083984" xlink:href="#d"/>
<use x="105.607422" xlink:href="#l"/>
<use x="144.970703" xlink:href="#k"/>
<use x="242.382812" xlink:href="#g"/>
<use x="270.166016" xlink:href="#i"/>
<use x="333.544922" xlink:href="#e"/>
<use x="394.824219" xlink:href="#h"/>
</g>
</g>
<path d="m811.57 548.61 10.887-32.006q0.7729-2.2721-1.4992-3.045l-7.33-2.4934q-2.2721-0.7729-3.045 1.4992l-10.887 32.006q-0.7729 2.2721 1.4992 3.045l7.33 2.4934q2.2721 0.7729 3.045-1.4992z" clip-path="url(#a)" fill="#fff" stroke="#fff"/>
<g clip-path="url(#a)">
<g transform="translate(807.72 547.3) rotate(-71.214) scale(.08 -.08)">
<use xlink:href="#j"/>
<use x="44.083984" xlink:href="#d"/>
<use x="105.607422" xlink:href="#l"/>
<use x="144.970703" xlink:href="#k"/>
<use x="242.382812" xlink:href="#g"/>
<use x="270.166016" xlink:href="#i"/>
<use x="333.544922" xlink:href="#e"/>
<use x="394.824219" xlink:href="#h"/>
</g>
</g>
<path d="m837.02 516.6 10.887 32.006q0.7729 2.2721 3.045 1.4992l7.33-2.4934q2.2721-0.7729 1.4992-3.045l-10.887-32.006q-0.7729-2.2721-3.045-1.4992l-7.33 2.4934q-2.2721 0.7729-1.4992 3.045z" clip-path="url(#a)" fill="#fff" stroke="#fff"/>
<g clip-path="url(#a)">
<g transform="translate(840.87 515.29) rotate(71.214) scale(.08 -.08)">
<use xlink:href="#j"/>
<use x="44.083984" xlink:href="#d"/>
<use x="105.607422" xlink:href="#l"/>
<use x="144.970703" xlink:href="#k"/>
<use x="242.382812" xlink:href="#g"/>
<use x="270.166016" xlink:href="#i"/>
<use x="333.544922" xlink:href="#e"/>
<use x="394.824219" xlink:href="#h"/>
</g>
</g>
<path d="m990.41 425.68 2.7502-3.6889q1.4345-1.9241-0.4896-3.3586l-6.2072-4.6278q-1.9241-1.4345-3.3586 0.4896l-2.7502 3.6889q-1.4345 1.9241 0.4896 3.3586l6.2072 4.6278q1.9241 1.4345 3.3586-0.4896z" clip-path="url(#a)" fill="#fff" stroke="#fff"/>
<g clip-path="url(#a)">
<g transform="translate(987.15 423.25) rotate(-53.294) scale(.08 -.08)">
<use xlink:href="#t"/>
</g>
</g>
<path d="m1033.9 422.95 0.059494-5.5859q0.02556-2.3999-2.3743-2.4254l-7.7421-0.082458q-2.3999-0.02556-2.4254 2.3743l-0.059494 5.5859q-0.02556 2.3999 2.3743 2.4254l7.7421 0.082458q2.3999 0.02556 2.4254-2.3743z" clip-path="url(#a)" fill="#fff" stroke="#fff"/>
<g clip-path="url(#a)">
<g transform="translate(1029.8 422.91) rotate(-89.39) scale(.08 -.08)">
<defs>
<path id="ag" d="m64.406 67.281v-10.391q-4.9844 4.6406-10.625 6.9219-5.6406 2.2969-11.984 2.2969-12.5 0-19.141-7.6406t-6.6406-22.094q0-14.406 6.6406-22.047t19.141-7.6406q6.3438 0 11.984 2.2969t10.625 6.9375v-10.312q-5.1719-3.5156-10.969-5.2812-5.7812-1.75-12.219-1.75-16.562 0-26.094 10.125-9.5156 10.141-9.5156 27.672 0 17.578 9.5156 27.703 9.5312 10.141 26.094 10.141 6.5312 0 12.312-1.7344 5.7969-1.7344 10.875-5.2031z"/>
</defs>
<use xlink:href="#ag"/>
</g>
</g>
<path d="m1063.5 421.54 3.5315 4.6701q1.4476 1.9143 3.3619 0.46671l6.1756-4.67q1.9143-1.4476 0.46671-3.3619l-3.5315-4.6701q-1.4476-1.9143-3.3619-0.46671l-6.1756 4.67q-1.9143 1.4476-0.46671 3.3619z" clip-path="url(#a)" fill="#fff" stroke="#fff"/>
<g clip-path="url(#a)">
<g transform="translate(1066.8 419.09) rotate(52.904) scale(.08 -.08)">
<defs>
<path id="am" d="m8.6875 72.906h9.9219v-44.297q0-11.719 4.2344-16.875 4.25-5.1406 13.781-5.1406 9.4688 0 13.719 5.1406 4.25 5.1562 4.25 16.875v44.297h9.9062v-45.516q0-14.25-7.0625-21.531-7.0469-7.2812-20.812-7.2812-13.828 0-20.891 7.2812-7.0469 7.2812-7.0469 21.531z"/>
</defs>
<use xlink:href="#am"/>
</g>
</g>
<path d="m939.01 513.68v33.808q0 2.4 2.4 2.4h7.7425q2.4 0 2.4-2.4v-33.808q0-2.4-2.4-2.4h-7.7425q-2.4 0-2.4 2.4z" clip-path="url(#a)" fill="#fff" stroke="#fff"/>
<g clip-path="url(#a)">
<g transform="translate(943.07 513.68) rotate(90) scale(.08 -.08)">
<use xlink:href="#j"/>
<use x="44.083984" xlink:href="#d"/>
<use x="105.607422" xlink:href="#l"/>
<use x="144.970703" xlink:href="#k"/>
<use x="242.382812" xlink:href="#g"/>
<use x="270.166016" xlink:href="#i"/>
<use x="333.544922" xlink:href="#e"/>
<use x="394.824219" xlink:href="#h"/>
</g>
</g>
<path d="m1020.8 513.68v33.808q0 2.4 2.4 2.4h7.7425q2.4 0 2.4-2.4v-33.808q0-2.4-2.4-2.4h-7.7425q-2.4 0-2.4 2.4z" clip-path="url(#a)" fill="#fff" stroke="#fff"/>
<g clip-path="url(#a)">
<g transform="translate(1024.8 513.68) rotate(90) scale(.08 -.08)">
<use xlink:href="#j"/>
<use x="44.083984" xlink:href="#d"/>
<use x="105.607422" xlink:href="#l"/>
<use x="144.970703" xlink:href="#k"/>
<use x="242.382812" xlink:href="#g"/>
<use x="270.166016" xlink:href="#i"/>
<use x="333.544922" xlink:href="#e"/>
<use x="394.824219" xlink:href="#h"/>
</g>
</g>
<path d="m164.01 513.68v33.808q0 2.4 2.4 2.4h7.7425q2.4 0 2.4-2.4v-33.808q0-2.4-2.4-2.4h-7.7425q-2.4 0-2.4 2.4z" clip-path="url(#a)" fill="#fff" stroke="#fff"/>
<g clip-path="url(#a)">
<g transform="translate(168.08 513.68) rotate(90) scale(.08 -.08)">
<use xlink:href="#j"/>
<use x="44.083984" xlink:href="#d"/>
<use x="105.607422" xlink:href="#l"/>
<use x="144.970703" xlink:href="#k"/>
<use x="242.382812" xlink:href="#g"/>
<use x="270.166016" xlink:href="#i"/>
<use x="333.544922" xlink:href="#e"/>
<use x="394.824219" xlink:href="#h"/>
</g>
</g>
<path d="m196.01 513.68v33.808q0 2.4 2.4 2.4h7.7425q2.4 0 2.4-2.4v-33.808q0-2.4-2.4-2.4h-7.7425q-2.4 0-2.4 2.4z" clip-path="url(#a)" fill="#fff" stroke="#fff"/>
<g clip-path="url(#a)">
<g transform="translate(200.07 513.68) rotate(90) scale(.08 -.08)">
<use xlink:href="#j"/>
<use x="44.083984" xlink:href="#d"/>
<use x="105.607422" xlink:href="#l"/>
<use x="144.970703" xlink:href="#k"/>
<use x="242.382812" xlink:href="#g"/>
<use x="270.166016" xlink:href="#i"/>
<use x="333.544922" xlink:href="#e"/>
<use x="394.824219" xlink:href="#h"/>
</g>
</g>
<path d="m231.56 513.68v33.808q0 2.4 2.4 2.4h7.7425q2.4 0 2.4-2.4v-33.808q0-2.4-2.4-2.4h-7.7425q-2.4 0-2.4 2.4z" clip-path="url(#a)" fill="#fff" stroke="#fff"/>
<g clip-path="url(#a)">
<g transform="translate(235.62 513.68) rotate(90) scale(.08 -.08)">
<use xlink:href="#j"/>
<use x="44.083984" xlink:href="#d"/>
<use x="105.607422" xlink:href="#l"/>
<use x="144.970703" xlink:href="#k"/>
<use x="242.382812" xlink:href="#g"/>
<use x="270.166016" xlink:href="#i"/>
<use x="333.544922" xlink:href="#e"/>
<use x="394.824219" xlink:href="#h"/>
</g>
</g>
<path d="m229.17 426.48 3.8973-3.8417q1.7092-1.6848 0.024386-3.394l-5.4353-5.514q-1.6848-1.7092-3.394-0.024386l-3.8973 3.8417q-1.7092 1.6848-0.024386 3.394l5.4353 5.514q1.6848 1.7092 3.394 0.024386z" clip-path="url(#a)" fill="#fff" stroke="#fff"/>
<g clip-path="url(#a)">
<g transform="translate(226.32 423.58) rotate(-44.588) scale(.08 -.08)">
<use xlink:href="#n"/>
</g>
</g>
<path d="m286.18 422.74 0.25688-4.5941q0.13399-2.3963-2.2623-2.5302l-7.7304-0.43225q-2.3963-0.13399-2.5302 2.2623l-0.25688 4.5941q-0.13399 2.3963 2.2623 2.5302l7.7304 0.43225q2.3963 0.13399 2.5302-2.2623z" clip-path="url(#a)" fill="#fff" stroke="#fff"/>
<g clip-path="url(#a)">
<g transform="translate(282.12 422.51) rotate(-86.8) scale(.08 -.08)">
<use xlink:href="#t"/>
</g>
</g>
<path d="m294.67 419.75 1.5013 4.5842q0.74698 2.2808 3.0278 1.5338l7.3579-2.4098q2.2808-0.74698 1.5338-3.0278l-1.5013-4.5842q-0.74698-2.2808-3.0278-1.5338l-7.3579 2.4098q-2.2808 0.74698-1.5338 3.0278z" clip-path="url(#a)" fill="#fff" stroke="#fff"/>
<g clip-path="url(#a)">
<g transform="translate(298.53 418.48) rotate(71.866) scale(.08 -.08)">
<use xlink:href="#r"/>
</g>
</g>
<path d="m317.82 421.63 3.2635 4.393q1.4312 1.9266 3.3578 0.49535l6.2152-4.6171q1.9266-1.4312 0.49535-3.3578l-3.2635-4.393q-1.4312-1.9266-3.3578-0.49535l-6.2152 4.6171q-1.9266 1.4312-0.49535 3.3578z" clip-path="url(#a)" fill="#fff" stroke="#fff"/>
<g clip-path="url(#a)">
<g transform="translate(321.08 419.21) rotate(53.392) scale(.08 -.08)">
<use xlink:href="#n"/>
</g>
</g>
<path d="m270.66 513.68v33.808q0 2.4 2.4 2.4h7.7425q2.4 0 2.4-2.4v-33.808q0-2.4-2.4-2.4h-7.7425q-2.4 0-2.4 2.4z" clip-path="url(#a)" fill="#fff" stroke="#fff"/>
<g clip-path="url(#a)">
<g transform="translate(274.73 513.68) rotate(90) scale(.08 -.08)">
<use xlink:href="#j"/>
<use x="44.083984" xlink:href="#d"/>
<use x="105.607422" xlink:href="#l"/>
<use x="144.970703" xlink:href="#k"/>
<use x="242.382812" xlink:href="#g"/>
<use x="270.166016" xlink:href="#i"/>
<use x="333.544922" xlink:href="#e"/>
<use x="394.824219" xlink:href="#h"/>
</g>
</g>
<path d="m313.32 513.68v33.808q0 2.4 2.4 2.4h7.7425q2.4 0 2.4-2.4v-33.808q0-2.4-2.4-2.4h-7.7425q-2.4 0-2.4 2.4z" clip-path="url(#a)" fill="#fff" stroke="#fff"/>
<g clip-path="url(#a)">
<g transform="translate(317.39 513.68) rotate(90) scale(.08 -.08)">
<use xlink:href="#j"/>
<use x="44.083984" xlink:href="#d"/>
<use x="105.607422" xlink:href="#l"/>
<use x="144.970703" xlink:href="#k"/>
<use x="242.382812" xlink:href="#g"/>
<use x="270.166016" xlink:href="#i"/>
<use x="333.544922" xlink:href="#e"/>
<use x="394.824219" xlink:href="#h"/>
</g>
</g>
<path d="m359.54 513.68v33.808q0 2.4 2.4 2.4h7.7425q2.4 0 2.4-2.4v-33.808q0-2.4-2.4-2.4h-7.7425q-2.4 0-2.4 2.4z" clip-path="url(#a)" fill="#fff" stroke="#fff"/>
<g clip-path="url(#a)">
<g transform="translate(363.6 513.68) rotate(90) scale(.08 -.08)">
<use xlink:href="#j"/>
<use x="44.083984" xlink:href="#d"/>
<use x="105.607422" xlink:href="#l"/>
<use x="144.970703" xlink:href="#k"/>
<use x="242.382812" xlink:href="#g"/>
<use x="270.166016" xlink:href="#i"/>
<use x="333.544922" xlink:href="#e"/>
<use x="394.824219" xlink:href="#h"/>
</g>
</g>
<path d="m89.359 513.68v33.808q0 2.4 2.4 2.4h7.7425q2.4 0 2.4-2.4v-33.808q0-2.4-2.4-2.4h-7.7425q-2.4 0-2.4 2.4z" clip-path="url(#a)" fill="#fff" stroke="#fff"/>
<g clip-path="url(#a)">
<g transform="translate(93.422 513.68) rotate(90) scale(.08 -.08)">
<use xlink:href="#j"/>
<use x="44.083984" xlink:href="#d"/>
<use x="105.607422" xlink:href="#l"/>
<use x="144.970703" xlink:href="#k"/>
<use x="242.382812" xlink:href="#g"/>
<use x="270.166016" xlink:href="#i"/>
<use x="333.544922" xlink:href="#e"/>
<use x="394.824219" xlink:href="#h"/>
</g>
</g>
<path d="m110.69 513.68v33.808q0 2.4 2.4 2.4h7.7425q2.4 0 2.4-2.4v-33.808q0-2.4-2.4-2.4h-7.7425q-2.4 0-2.4 2.4z" clip-path="url(#a)" fill="#fff" stroke="#fff"/>
<g clip-path="url(#a)">
<g transform="translate(114.75 513.68) rotate(90) scale(.08 -.08)">
<use xlink:href="#j"/>
<use x="44.083984" xlink:href="#d"/>
<use x="105.607422" xlink:href="#l"/>
<use x="144.970703" xlink:href="#k"/>
<use x="242.382812" xlink:href="#g"/>
<use x="270.166016" xlink:href="#i"/>
<use x="333.544922" xlink:href="#e"/>
<use x="394.824219" xlink:href="#h"/>
</g>
</g>
<path d="m135.57 513.68v33.808q0 2.4 2.4 2.4h7.7425q2.4 0 2.4-2.4v-33.808q0-2.4-2.4-2.4h-7.7425q-2.4 0-2.4 2.4z" clip-path="url(#a)" fill="#fff" stroke="#fff"/>
<g clip-path="url(#a)">
<g transform="translate(139.64 513.68) rotate(90) scale(.08 -.08)">
<use xlink:href="#j"/>
<use x="44.083984" xlink:href="#d"/>
<use x="105.607422" xlink:href="#l"/>
<use x="144.970703" xlink:href="#k"/>
<use x="242.382812" xlink:href="#g"/>
<use x="270.166016" xlink:href="#i"/>
<use x="333.544922" xlink:href="#e"/>
<use x="394.824219" xlink:href="#h"/>
</g>
</g>
<path d="m1106.1 513.68v33.808q0 2.4 2.4 2.4h7.7425q2.4 0 2.4-2.4v-33.808q0-2.4-2.4-2.4h-7.7425q-2.4 0-2.4 2.4z" clip-path="url(#a)" fill="#fff" stroke="#fff"/>
<g clip-path="url(#a)">
<g transform="translate(1110.2 513.68) rotate(90) scale(.08 -.08)">
<use xlink:href="#j"/>
<use x="44.083984" xlink:href="#d"/>
<use x="105.607422" xlink:href="#l"/>
<use x="144.970703" xlink:href="#k"/>
<use x="242.382812" xlink:href="#g"/>
<use x="270.166016" xlink:href="#i"/>
<use x="333.544922" xlink:href="#e"/>
<use x="394.824219" xlink:href="#h"/>
</g>
</g>
<defs>
<path id="b" d="m0 8.6603c2.2967 0 4.4997-0.9125 6.1237-2.5365 1.624-1.624 2.5365-3.827 2.5365-6.1237s-0.9125-4.4997-2.5365-6.1237c-1.624-1.624-3.827-2.5365-6.1237-2.5365s-4.4997 0.9125-6.1237 2.5365c-1.624 1.624-2.5365 3.827-2.5365 6.1237s0.9125 4.4997 2.5365 6.1237c1.624 1.624 3.827 2.5365 6.1237 2.5365z"/>
</defs>
<g clip-path="url(#a)" fill="#ffffff" stroke="#ffffff">
<use x="52.969697" y="585.454545" xlink:href="#b"/>
<use x="63.634737" y="585.454545" xlink:href="#b"/>
<use x="77.85479" y="585.454545" xlink:href="#b"/>
<use x="95.629856" y="585.454545" xlink:href="#b"/>
<use x="116.959935" y="585.454545" xlink:href="#b"/>
<use x="141.845027" y="585.454545" xlink:href="#b"/>
<use x="170.285133" y="585.454545" xlink:href="#b"/>
<use x="202.280252" y="585.454545" xlink:href="#b"/>
<use x="237.830384" y="585.454545" xlink:href="#b"/>
<use x="276.93553" y="585.454545" xlink:href="#b"/>
<use x="319.595688" y="585.454545" xlink:href="#b"/>
<use x="365.81086" y="585.454545" xlink:href="#b"/>
<use x="419.136059" y="585.454545" xlink:href="#b"/>
<use x="472.461257" y="585.454545" xlink:href="#b"/>
<use x="529.341468" y="585.454545" xlink:href="#b"/>
<use x="589.776693" y="585.454545" xlink:href="#b"/>
<use x="653.766931" y="585.454545" xlink:href="#b"/>
<use x="721.312182" y="585.454545" xlink:href="#b"/>
<use x="792.412447" y="585.454545" xlink:href="#b"/>
<use x="867.067724" y="585.454545" xlink:href="#b"/>
<use x="945.278015" y="585.454545" xlink:href="#b"/>
<use x="1027.043319" y="585.454545" xlink:href="#b"/>
<use x="1112.363636" y="585.454545" xlink:href="#b"/>
<use x="369.365874" y="364.458514" xlink:href="#b"/>
<use x="285.089841" y="27.878788" xlink:href="#b"/>
<use x="64.819741" y="475.719795" xlink:href="#b"/>
<use x="118.144939" y="364.458514" xlink:href="#b"/>
<use x="223.388143" y="252.613677" xlink:href="#b"/>
<use x="419.136059" y="475.719795" xlink:href="#b"/>
<use x="599.960325" y="140.388185" xlink:href="#b"/>
<use x="472.461257" y="475.719795" xlink:href="#b"/>
<use x="529.341468" y="475.719795" xlink:href="#b"/>
<use x="589.776693" y="475.719795" xlink:href="#b"/>
<use x="808.261881" y="252.613677" xlink:href="#b"/>
<use x="653.766931" y="475.719795" xlink:href="#b"/>
<use x="721.312182" y="475.719795" xlink:href="#b"/>
<use x="829.740085" y="475.719795" xlink:href="#b"/>
<use x="1028.228324" y="364.458514" xlink:href="#b"/>
<use x="945.278015" y="475.719795" xlink:href="#b"/>
<use x="1027.043319" y="475.719795" xlink:href="#b"/>
<use x="170.285133" y="475.719795" xlink:href="#b"/>
<use x="202.280252" y="475.719795" xlink:href="#b"/>
<use x="237.830384" y="475.719795" xlink:href="#b"/>
<use x="283.156803" y="364.458514" xlink:href="#b"/>
<use x="276.93553" y="475.719795" xlink:href="#b"/>
<use x="319.595688" y="475.719795" xlink:href="#b"/>
<use x="365.81086" y="475.719795" xlink:href="#b"/>
<use x="95.629856" y="475.719795" xlink:href="#b"/>
<use x="116.959935" y="475.719795" xlink:href="#b"/>
<use x="141.845027" y="475.719795" xlink:href="#b"/>
<use x="1112.363636" y="475.719795" xlink:href="#b"/>
</g>
<g clip-path="url(#a)">
<g transform="translate(43.67 588.21) scale(.1 -.1)">
<defs>
<path id="u" d="m54.891 33.016v-33.016h-8.9844v32.719q0 7.7656-3.0312 11.609-3.0312 3.8594-9.0781 3.8594-7.2812 0-11.484-4.6406-4.2031-4.625-4.2031-12.641v-30.906h-9.0312v75.984h9.0312v-29.797q3.2344 4.9375 7.5938 7.375 4.375 2.4375 10.094 2.4375 9.4219 0 14.25-5.8281 4.8438-5.8281 4.8438-17.156z"/>
</defs>
<use xlink:href="#j"/>
<use x="61.083984" xlink:href="#u"/>
<use x="124.462891" xlink:href="#d"/>
</g>
</g>
<g clip-path="url(#a)">
<g transform="translate(54.617 588.21) scale(.1 -.1)">
<defs>
<path id="s" d="m44.281 53.078v-8.5q-3.7969 1.9531-7.9062 2.9219-4.0938 0.98438-8.5 0.98438-6.6875 0-10.031-2.0469t-3.3438-6.1562q0-3.125 2.3906-4.9062t9.625-3.3906l3.0781-0.6875q9.5625-2.0469 13.594-5.7812t4.0312-10.422q0-7.625-6.0312-12.078-6.0312-4.4375-16.578-4.4375-4.3906 0-9.1562 0.85938t-10.031 2.5625v9.2812q4.9844-2.5938 9.8125-3.8906 4.8281-1.2812 9.5781-1.2812 6.3438 0 9.75 2.1719 3.4219 2.1719 3.4219 6.125 0 3.6562-2.4688 5.6094-2.4531 1.9531-10.812 3.7656l-3.125 0.73438q-8.3438 1.75-12.062 5.3906-3.7031 3.6406-3.7031 9.9844 0 7.7188 5.4688 11.906 5.4688 4.2031 15.531 4.2031 4.9688 0 9.3594-0.73438 4.4062-0.71875 8.1094-2.1875z"/>
<path id="o" d="m18.312 70.219v-15.531h18.5v-6.9844h-18.5v-29.688q0-6.6875 1.8281-8.5938t7.4531-1.9062h9.2188v-7.5156h-9.2188q-10.406 0-14.359 3.875-3.9531 3.8906-3.9531 14.141v29.688h-6.5938v6.9844h6.5938v15.531z"/>
</defs>
<use xlink:href="#h"/>
<use x="27.783203" xlink:href="#e"/>
<use x="89.0625" xlink:href="#s"/>
<use x="141.162109" xlink:href="#o"/>
</g>
</g>
<g clip-path="url(#a)">
<g transform="translate(66.559 588.21) scale(.1 -.1)">
<use xlink:href="#o"/>
<use x="39.208984" xlink:href="#g"/>
<use x="66.992188" xlink:href="#k"/>
<use x="164.404297" xlink:href="#d"/>
</g>
</g>
<g clip-path="url(#a)">
<g transform="translate(94.155 588.21) scale(.1 -.1)">
<defs>
<path id="p" d="m9.8125 72.906h9.8594v-72.906h-9.8594z"/>
</defs>
<use xlink:href="#p"/>
</g>
</g>
<g clip-path="url(#a)">
<g transform="translate(109.22 588.21) scale(.1 -.1)">
<defs>
<path id="v" d="m45.406 46.391v29.594h8.9844v-75.984h-8.9844v8.2031q-2.8281-4.875-7.1562-7.25-4.3125-2.375-10.375-2.375-9.9062 0-16.141 7.9062-6.2188 7.9219-6.2188 20.812t6.2188 20.797q6.2344 7.9062 16.141 7.9062 6.0625 0 10.375-2.375 4.3281-2.3594 7.1562-7.2344zm-30.609-19.094q0-9.9062 4.0781-15.547t11.203-5.6406 11.219 5.6406q4.1094 5.6406 4.1094 15.547t-4.1094 15.547q-4.0938 5.6406-11.219 5.6406t-11.203-5.6406-4.0781-15.547z"/>
</defs>
<use xlink:href="#v"/>
<use x="63.476562" xlink:href="#g"/>
<use x="91.259766" xlink:href="#v"/>
</g>
</g>
<g clip-path="url(#a)">
<g transform="translate(131.69 588.21) scale(.1 -.1)">
<use xlink:href="#o"/>
<use x="39.208984" xlink:href="#u"/>
<use x="102.587891" xlink:href="#e"/>
<use x="163.867188" xlink:href="#o"/>
</g>
</g>
<g clip-path="url(#a)">
<g transform="translate(168.81 588.21) scale(.1 -.1)">
<use xlink:href="#p"/>
</g>
</g>
<g clip-path="url(#a)">
<g transform="translate(192.52 588.21) scale(.1 -.1)">
<defs>
<path id="ad" d="m4.2031 54.688h8.9844l11.234-42.672 11.172 42.672h10.594l11.234-42.672 11.188 42.672h8.9844l-14.312-54.688h-10.594l-11.766 44.828-11.812-44.828h-10.609z"/>
</defs>
<use xlink:href="#ad"/>
<use x="81.787109" xlink:href="#e"/>
<use x="143.066406" xlink:href="#s"/>
</g>
</g>
<g clip-path="url(#a)">
<g transform="translate(211.82 588.21) scale(.1 -.1)">
<defs>
<path id="ak" d="m8.5 21.578v33.109h8.9844v-32.766q0-7.7656 3.0156-11.656 3.0312-3.875 9.0938-3.875 7.2656 0 11.484 4.6406 4.2344 4.6406 4.2344 12.656v31h8.9844v-54.688h-8.9844v8.4062q-3.2656-4.9844-7.5938-7.4062-4.3125-2.4219-10.031-2.4219-9.4219 0-14.312 5.8594-4.875 5.8594-4.875 17.141z"/>
<path id="ae" d="m45.406 27.984q0 9.7656-4.0312 15.125-4.0156 5.375-11.297 5.375-7.2188 0-11.25-5.375-4.0312-5.3594-4.0312-15.125 0-9.7188 4.0312-15.094t11.25-5.375q7.2812 0 11.297 5.375 4.0312 5.375 4.0312 15.094zm8.9844-21.203q0-13.953-6.2031-20.766-6.1875-6.8125-18.984-6.8125-4.7344 0-8.9375 0.70312t-8.1562 2.1719v8.7344q3.9531-2.1406 7.8125-3.1562 3.8594-1.0312 7.8594-1.0312 8.8438 0 13.234 4.6094t4.3906 13.938v4.4531q-2.7812-4.8438-7.125-7.2344t-10.406-2.3906q-10.047 0-16.203 7.6562-6.1562 7.6719-6.1562 20.328 0 12.688 6.1562 20.344 6.1562 7.6719 16.203 7.6719 6.0625 0 10.406-2.3906t7.125-7.2188v8.2969h8.9844z"/>
</defs>
<use xlink:href="#s"/>
<use x="52.099609" xlink:href="#ak"/>
<use x="115.478516" xlink:href="#ae"/>
<use x="178.955078" xlink:href="#ae"/>
<use x="242.431641" xlink:href="#d"/>
<use x="303.955078" xlink:href="#s"/>
<use x="356.054688" xlink:href="#o"/>
<use x="395.263672" xlink:href="#d"/>
<use x="456.787109" xlink:href="#v"/>
</g>
</g>
<g clip-path="url(#a)">
<g transform="translate(271.92 588.21) scale(.1 -.1)">
<defs>
<path id="q" d="m30.609 48.391q-7.2188 0-11.422-5.6406t-4.2031-15.453 4.1719-15.453q4.1875-5.6406 11.453-5.6406 7.1875 0 11.375 5.6562 4.2031 5.6719 4.2031 15.438 0 9.7188-4.2031 15.406-4.1875 5.6875-11.375 5.6875zm0 7.6094q11.719 0 18.406-7.625 6.7031-7.6094 6.7031-21.078 0-13.422-6.7031-21.078-6.6875-7.6406-18.406-7.6406-11.766 0-18.438 7.6406-6.6562 7.6562-6.6562 21.078 0 13.469 6.6562 21.078 6.6719 7.625 18.438 7.625z"/>
</defs>
<use xlink:href="#o"/>
<use x="39.208984" xlink:href="#q"/>
</g>
</g>
<g clip-path="url(#a)">
<g transform="translate(310.29 588.21) scale(.1 -.1)">
<defs>
<path id="af" d="m48.688 27.297q0 9.9062-4.0781 15.547t-11.203 5.6406q-7.1406 0-11.219-5.6406t-4.0781-15.547 4.0781-15.547 11.219-5.6406q7.125 0 11.203 5.6406t4.0781 15.547zm-30.578 19.094q2.8438 4.875 7.1562 7.2344 4.3281 2.375 10.328 2.375 9.9688 0 16.188-7.9062 6.2344-7.9062 6.2344-20.797t-6.2344-20.812q-6.2188-7.9062-16.188-7.9062-6 0-10.328 2.375-4.3125 2.375-7.1562 7.25v-8.2031h-9.0312v75.984h9.0312z"/>
<path id="ao" d="m32.172-5.0781q-3.7969-9.7656-7.4219-12.734-3.6094-2.9844-9.6562-2.9844h-7.1875v7.5156h5.2812q3.7031 0 5.75 1.7656 2.0625 1.75 4.5469 8.2969l1.6094 4.0938-22.109 53.812h9.5156l17.094-42.766 17.094 42.766h9.5156z"/>
</defs>
<use xlink:href="#af"/>
<use x="63.476562" xlink:href="#ak"/>
<use x="126.855469" xlink:href="#ao"/>
</g>
</g>
<g clip-path="url(#a)">
<g transform="translate(346.22 588.21) scale(.1 -.1)">
<defs>
<path id="ap" d="m2.9844 54.688h9.5156l17.094-45.891 17.094 45.891h9.5156l-20.516-54.688h-12.203z"/>
</defs>
<use xlink:href="#q"/>
<use x="61.181641" xlink:href="#af"/>
<use x="124.658203" xlink:href="#h"/>
<use x="152.441406" xlink:href="#g"/>
<use x="180.224609" xlink:href="#ap"/>
<use x="239.404297" xlink:href="#g"/>
<use x="267.1875" xlink:href="#q"/>
<use x="328.369141" xlink:href="#i"/>
</g>
</g>
<g clip-path="url(#a)">
<g transform="translate(405.63 588.21) scale(.1 -.1)">
<use xlink:href="#ad"/>
<use x="81.787109" xlink:href="#u"/>
<use x="145.166016" xlink:href="#d"/>
<use x="206.689453" xlink:href="#i"/>
</g>
</g>
<g clip-path="url(#a)">
<g transform="translate(470.99 588.21) scale(.1 -.1)">
<use xlink:href="#p"/>
</g>
</g>
<g clip-path="url(#a)">
<g transform="translate(519.76 588.21) scale(.1 -.1)">
<use xlink:href="#o"/>
<use x="39.208984" xlink:href="#q"/>
<use x="100.390625" xlink:href="#h"/>
<use x="128.173828" xlink:href="#v"/>
</g>
</g>
<g clip-path="url(#a)">
<g transform="translate(576.7 588.21) scale(.1 -.1)">
<use xlink:href="#o"/>
<use x="39.208984" xlink:href="#u"/>
<use x="102.587891" xlink:href="#d"/>
<use x="164.111328" xlink:href="#k"/>
</g>
</g>
<g clip-path="url(#a)">
<g transform="translate(652.29 588.21) scale(.1 -.1)">
<use xlink:href="#p"/>
</g>
</g>
<g clip-path="url(#a)">
<g transform="translate(711.55 588.21) scale(.1 -.1)">
<use xlink:href="#ad"/>
<use x="81.787109" xlink:href="#e"/>
<use x="143.066406" xlink:href="#s"/>
</g>
</g>
<g clip-path="url(#a)">
<g transform="translate(774.28 588.21) scale(.1 -.1)">
<defs>
<path id="ar" d="m9.0781 75.984h9.0312v-44.875l26.812 23.578h11.469l-29-25.578 30.234-29.109h-11.719l-27.797 26.703v-26.703h-9.0312z"/>
</defs>
<use xlink:href="#h"/>
<use x="27.783203" xlink:href="#q"/>
<use x="88.964844" xlink:href="#q"/>
<use x="150.146484" xlink:href="#ar"/>
<use x="208.056641" xlink:href="#g"/>
<use x="235.839844" xlink:href="#i"/>
<use x="299.21875" xlink:href="#ae"/>
</g>
</g>
<g clip-path="url(#a)">
<g transform="translate(860.19 588.21) scale(.1 -.1)">
<defs>
<path id="al" d="m37.109 75.984v-7.4844h-8.5938q-4.8281 0-6.7188-1.9531-1.875-1.9531-1.875-7.0312v-4.8281h14.797v-6.9844h-14.797v-47.703h-9.0312v47.703h-8.5938v6.9844h8.5938v3.8125q0 9.125 4.25 13.297 4.25 4.1875 13.469 4.1875z"/>
</defs>
<use xlink:href="#al"/>
<use x="35.205078" xlink:href="#q"/>
<use x="96.386719" xlink:href="#l"/>
</g>
</g>
<g clip-path="url(#a)">
<g transform="translate(942.21 588.21) scale(.1 -.1)">
<use xlink:href="#e"/>
</g>
</g>
<g clip-path="url(#a)">
<g transform="translate(1019.5 588.21) scale(.1 -.1)">
<defs>
<path id="aq" d="m18.109 8.2031v-29h-9.0312v75.484h9.0312v-8.2969q2.8438 4.875 7.1562 7.2344 4.3281 2.375 10.328 2.375 9.9688 0 16.188-7.9062 6.2344-7.9062 6.2344-20.797t-6.2344-20.812q-6.2188-7.9062-16.188-7.9062-6 0-10.328 2.375-4.3125 2.375-7.1562 7.25zm30.578 19.094q0 9.9062-4.0781 15.547t-11.203 5.6406q-7.1406 0-11.219-5.6406t-4.0781-15.547 4.0781-15.547 11.219-5.6406q7.125 0 11.203 5.6406t4.0781 15.547z"/>
</defs>
<use xlink:href="#al"/>
<use x="35.205078" xlink:href="#aq"/>
<use x="98.681641" xlink:href="#s"/>
</g>
</g>
<g clip-path="url(#a)">
<g transform="translate(1110.8 588.21) scale(.1 -.1)">
<defs>
<path id="f" d="m10.688 12.406h10.312v-12.406h-10.312z"/>
</defs>
<use xlink:href="#f"/>
</g>
</g>
<g clip-path="url(#a)">
<g transform="translate(348.28 367.22) scale(.1 -.1)">
<defs>
<path id="an" d="m9.8125 72.906h14.703l18.594-49.609 18.703 49.609h14.703v-72.906h-9.625v64.016l-18.797-50h-9.9062l-18.797 50v-64.016h-9.5781z"/>
</defs>
<use xlink:href="#p"/>
<use x="29.492188" xlink:href="#an"/>
<use x="115.771484" xlink:href="#r"/>
<use x="176.074219" xlink:href="#w"/>
<use x="231.787109" xlink:href="#p"/>
<use x="261.279297" xlink:href="#ag"/>
<use x="331.103516" xlink:href="#p"/>
<use x="360.595703" xlink:href="#j"/>
</g>
</g>
<g clip-path="url(#a)">
<g transform="translate(277.14 30.638) scale(.1 -.1)">
<defs>
<path id="c" d="m12.406 8.2969h16.109v55.625l-17.531-3.5156v8.9844l17.438 3.5156h9.8594v-64.609h16.109v-8.2969h-41.984z"/>
</defs>
<use xlink:href="#c"/>
<use x="63.623047" xlink:href="#f"/>
<use x="95.410156" xlink:href="#c"/>
</g>
</g>
<g clip-path="url(#a)">
<g transform="translate(56.868 478.48) scale(.1 -.1)">
<defs>
<path id="m" d="m19.188 8.2969h34.422v-8.2969h-46.281v8.2969q5.6094 5.8125 15.297 15.594 9.7031 9.7969 12.188 12.641 4.7344 5.3125 6.6094 9 1.8906 3.6875 1.8906 7.25 0 5.8125-4.0781 9.4688-4.0781 3.6719-10.625 3.6719-4.6406 0-9.7969-1.6094-5.1406-1.6094-11-4.8906v9.9688q5.9531 2.3906 11.125 3.6094 5.1875 1.2188 9.4844 1.2188 11.328 0 18.062-5.6719 6.7344-5.6562 6.7344-15.125 0-4.5-1.6875-8.5312-1.6719-4.0156-6.125-9.4844-1.2188-1.4219-7.7656-8.1875-6.5312-6.7656-18.453-18.922z"/>
</defs>
<use xlink:href="#c"/>
<use x="63.623047" xlink:href="#f"/>
<use x="95.410156" xlink:href="#m"/>
</g>
</g>
<g clip-path="url(#a)">
<g transform="translate(110.19 367.22) scale(.1 -.1)">
<defs>
<path id="ac" d="m40.578 39.312q7.0781-1.5156 11.047-6.3125 3.9844-4.7812 3.9844-11.812 0-10.781-7.4219-16.703-7.4219-5.9062-21.094-5.9062-4.5781 0-9.4375 0.90625t-10.031 2.7188v9.5156q4.0938-2.3906 8.9688-3.6094 4.8906-1.2188 10.219-1.2188 9.2656 0 14.125 3.6562t4.8594 10.641q0 6.4531-4.5156 10.078-4.5156 3.6406-12.562 3.6406h-8.5v8.1094h8.8906q7.2656 0 11.125 2.9062t3.8594 8.375q0 5.6094-3.9844 8.6094-3.9688 3.0156-11.391 3.0156-4.0625 0-8.7031-0.89062-4.6406-0.875-10.203-2.7188v8.7812q5.625 1.5625 10.531 2.3438t9.25 0.78125q11.234 0 17.766-5.1094 6.5469-5.0938 6.5469-13.781 0-6.0625-3.4688-10.234t-9.8594-5.7812z"/>
</defs>
<use xlink:href="#c"/>
<use x="63.623047" xlink:href="#f"/>
<use x="95.410156" xlink:href="#ac"/>
</g>
</g>
<g clip-path="url(#a)">
<g transform="translate(215.44 255.37) scale(.1 -.1)">
<defs>
<path id="ab" d="m37.797 64.312-24.906-38.922h24.906zm-2.5938 8.5938h12.406v-47.516h10.406v-8.2031h-10.406v-17.188h-9.8125v17.188h-32.906v9.5156z"/>
</defs>
<use xlink:href="#c"/>
<use x="63.623047" xlink:href="#f"/>
<use x="95.410156" xlink:href="#ab"/>
</g>
</g>
<g clip-path="url(#a)">
<g transform="translate(411.18 478.48) scale(.1 -.1)">
<defs>
<path id="aa" d="m10.797 72.906h38.719v-8.3125h-29.688v-17.859q2.1406 0.73438 4.2812 1.0938 2.1562 0.35938 4.3125 0.35938 12.203 0 19.328-6.6875 7.1406-6.6875 7.1406-18.109 0-11.766-7.3281-18.297-7.3281-6.5156-20.656-6.5156-4.5938 0-9.3594 0.78125-4.75 0.78125-9.8281 2.3438v9.9219q4.3906-2.3906 9.0781-3.5625t9.9062-1.1719q8.4531 0 13.375 4.4375 4.9375 4.4375 4.9375 12.062 0 7.6094-4.9375 12.047-4.9219 4.4531-13.375 4.4531-3.9531 0-7.8906-0.875-3.9219-0.875-8.0156-2.7344z"/>
</defs>
<use xlink:href="#c"/>
<use x="63.623047" xlink:href="#f"/>
<use x="95.410156" xlink:href="#aa"/>
</g>
</g>
<g clip-path="url(#a)">
<g transform="translate(592.01 143.15) scale(.1 -.1)">
<defs>
<path id="z" d="m33.016 40.375q-6.6406 0-10.531-4.5469-3.875-4.5312-3.875-12.438 0-7.8594 3.875-12.438 3.8906-4.5625 10.531-4.5625t10.516 4.5625q3.875 4.5781 3.875 12.438 0 7.9062-3.875 12.438-3.875 4.5469-10.516 4.5469zm19.578 30.922v-8.9844q-3.7188 1.75-7.5 2.6719-3.7812 0.9375-7.5 0.9375-9.7656 0-14.922-6.5938-5.1406-6.5938-5.875-19.922 2.875 4.25 7.2188 6.5156 4.3594 2.2656 9.5781 2.2656 10.984 0 17.359-6.6719 6.375-6.6562 6.375-18.125 0-11.234-6.6406-18.031-6.6406-6.7812-17.672-6.7812-12.656 0-19.344 9.6875-6.6875 9.7031-6.6875 28.109 0 17.281 8.2031 27.562t22.016 10.281q3.7188 0 7.5-0.73438t7.8906-2.1875z"/>
</defs>
<use xlink:href="#c"/>
<use x="63.623047" xlink:href="#f"/>
<use x="95.410156" xlink:href="#z"/>
</g>
</g>
<g clip-path="url(#a)">
<g transform="translate(464.51 478.48) scale(.1 -.1)">
<defs>
<path id="ah" d="m31.781 34.625q-7.0312 0-11.062-3.7656-4.0156-3.7656-4.0156-10.344 0-6.5938 4.0156-10.359 4.0312-3.7656 11.062-3.7656t11.078 3.7812q4.0625 3.7969 4.0625 10.344 0 6.5781-4.0312 10.344-4.0156 3.7656-11.109 3.7656zm-9.8594 4.1875q-6.3438 1.5625-9.8906 5.9062-3.5312 4.3594-3.5312 10.609 0 8.7344 6.2188 13.812 6.2344 5.0781 17.062 5.0781 10.891 0 17.094-5.0781t6.2031-13.812q0-6.25-3.5469-10.609-3.5312-4.3438-9.8281-5.9062 7.125-1.6562 11.094-6.5 3.9844-4.8281 3.9844-11.797 0-10.609-6.4688-16.281-6.4688-5.6562-18.531-5.6562-12.047 0-18.531 5.6562-6.4688 5.6719-6.4688 16.281 0 6.9688 4 11.797 4.0156 4.8438 11.141 6.5zm-3.6094 15.578q0-5.6562 3.5312-8.8281 3.5469-3.1719 9.9375-3.1719 6.3594 0 9.9375 3.1719 3.5938 3.1719 3.5938 8.8281 0 5.6719-3.5938 8.8438-3.5781 3.1719-9.9375 3.1719-6.3906 0-9.9375-3.1719-3.5312-3.1719-3.5312-8.8438z"/>
</defs>
<use xlink:href="#c"/>
<use x="63.623047" xlink:href="#f"/>
<use x="95.410156" xlink:href="#ah"/>
</g>
</g>
<g clip-path="url(#a)">
<g transform="translate(521.39 478.48) scale(.1 -.1)">
<defs>
<path id="y" d="m10.984 1.5156v8.9844q3.7188-1.7656 7.5156-2.6875 3.8125-0.92188 7.4844-0.92188 9.7656 0 14.906 6.5625 5.1562 6.5625 5.8906 19.953-2.8281-4.2031-7.1875-6.4531-4.3438-2.25-9.6094-2.25-10.938 0-17.312 6.6094-6.375 6.625-6.375 18.109 0 11.219 6.6406 18 6.6406 6.7969 17.672 6.7969 12.656 0 19.312-9.7031 6.6719-9.6875 6.6719-28.141 0-17.234-8.1875-27.516-8.1719-10.281-21.984-10.281-3.7188 0-7.5312 0.73438-3.7969 0.73438-7.9062 2.2031zm19.625 30.906q6.6406 0 10.516 4.5312 3.8906 4.5469 3.8906 12.469 0 7.8594-3.8906 12.422-3.875 4.5625-10.516 4.5625t-10.516-4.5625-3.875-12.422q0-7.9219 3.875-12.469 3.875-4.5312 10.516-4.5312z"/>
</defs>
<use xlink:href="#c"/>
<use x="63.623047" xlink:href="#f"/>
<use x="95.410156" xlink:href="#y"/>
</g>
</g>
<g clip-path="url(#a)">
<g transform="translate(578.64 478.48) scale(.1 -.1)">
<defs>
<path id="aj" d="m31.781 66.406q-7.6094 0-11.453-7.5-3.8281-7.4844-3.8281-22.531 0-14.984 3.8281-22.484 3.8438-7.5 11.453-7.5 7.6719 0 11.5 7.5 3.8438 7.5 3.8438 22.484 0 15.047-3.8438 22.531-3.8281 7.5-11.5 7.5zm0 7.8125q12.266 0 18.734-9.7031 6.4688-9.6875 6.4688-28.141 0-18.406-6.4688-28.109-6.4688-9.6875-18.734-9.6875-12.25 0-18.719 9.6875-6.4688 9.7031-6.4688 28.109 0 18.453 6.4688 28.141 6.4688 9.7031 18.719 9.7031z"/>
</defs>
<use xlink:href="#c"/>
<use x="63.623047" xlink:href="#f"/>
<use x="95.410156" xlink:href="#c"/>
<use x="159.033203" xlink:href="#aj"/>
</g>
</g>
<g clip-path="url(#a)">
<g transform="translate(797.13 255.37) scale(.1 -.1)">
<use xlink:href="#c"/>
<use x="63.623047" xlink:href="#f"/>
<use x="95.410156" xlink:href="#c"/>
<use x="159.033203" xlink:href="#c"/>
</g>
</g>
<g clip-path="url(#a)">
<g transform="translate(642.63 478.48) scale(.1 -.1)">
<use xlink:href="#c"/>
<use x="63.623047" xlink:href="#f"/>
<use x="95.410156" xlink:href="#c"/>
<use x="159.033203" xlink:href="#m"/>
</g>
</g>
<g clip-path="url(#a)">
<g transform="translate(710.18 478.48) scale(.1 -.1)">
<use xlink:href="#c"/>
<use x="63.623047" xlink:href="#f"/>
<use x="95.410156" xlink:href="#c"/>
<use x="159.033203" xlink:href="#ac"/>
</g>
</g>
<g clip-path="url(#a)">
<g transform="translate(818.61 478.48) scale(.1 -.1)">
<use xlink:href="#c"/>
<use x="63.623047" xlink:href="#f"/>
<use x="95.410156" xlink:href="#c"/>
<use x="159.033203" xlink:href="#ab"/>
</g>
</g>
<g clip-path="url(#a)">
<g transform="translate(1017.1 367.22) scale(.1 -.1)">
<use xlink:href="#c"/>
<use x="63.623047" xlink:href="#f"/>
<use x="95.410156" xlink:href="#c"/>
<use x="159.033203" xlink:href="#aa"/>
</g>
</g>
<g clip-path="url(#a)">
<g transform="translate(934.15 478.48) scale(.1 -.1)">
<use xlink:href="#c"/>
<use x="63.623047" xlink:href="#f"/>
<use x="95.410156" xlink:href="#c"/>
<use x="159.033203" xlink:href="#z"/>
</g>
</g>
<g clip-path="url(#a)">
<g transform="translate(1015.9 478.48) scale(.1 -.1)">
<defs>
<path id="ai" d="m8.2031 72.906h46.875v-4.2031l-26.469-68.703h-10.297l24.906 64.594h-35.016z"/>
</defs>
<use xlink:href="#c"/>
<use x="63.623047" xlink:href="#f"/>
<use x="95.410156" xlink:href="#c"/>
<use x="159.033203" xlink:href="#ai"/>
</g>
</g>
<g clip-path="url(#a)">
<g transform="translate(159.15 478.48) scale(.1 -.1)">
<use xlink:href="#c"/>
<use x="63.623047" xlink:href="#f"/>
<use x="95.410156" xlink:href="#c"/>
<use x="159.033203" xlink:href="#y"/>
</g>
</g>
<g clip-path="url(#a)">
<g transform="translate(191.15 478.48) scale(.1 -.1)">
<use xlink:href="#c"/>
<use x="63.623047" xlink:href="#f"/>
<use x="95.410156" xlink:href="#m"/>
<use x="159.033203" xlink:href="#aj"/>
</g>
</g>
<g clip-path="url(#a)">
<g transform="translate(226.7 478.48) scale(.1 -.1)">
<use xlink:href="#c"/>
<use x="63.623047" xlink:href="#f"/>
<use x="95.410156" xlink:href="#m"/>
<use x="159.033203" xlink:href="#c"/>
</g>
</g>
<g clip-path="url(#a)">
<g transform="translate(272.02 367.22) scale(.1 -.1)">
<use xlink:href="#c"/>
<use x="63.623047" xlink:href="#f"/>
<use x="95.410156" xlink:href="#m"/>
<use x="159.033203" xlink:href="#m"/>
</g>
</g>
<g clip-path="url(#a)">
<g transform="translate(265.8 478.48) scale(.1 -.1)">
<use xlink:href="#c"/>
<use x="63.623047" xlink:href="#f"/>
<use x="95.410156" xlink:href="#m"/>
<use x="159.033203" xlink:href="#ac"/>
</g>
</g>
<g clip-path="url(#a)">
<g transform="translate(308.46 478.48) scale(.1 -.1)">
<use xlink:href="#c"/>
<use x="63.623047" xlink:href="#f"/>
<use x="95.410156" xlink:href="#m"/>
<use x="159.033203" xlink:href="#ab"/>
</g>
</g>
<g clip-path="url(#a)">
<g transform="translate(354.68 478.48) scale(.1 -.1)">
<use xlink:href="#c"/>
<use x="63.623047" xlink:href="#f"/>
<use x="95.410156" xlink:href="#m"/>
<use x="159.033203" xlink:href="#aa"/>
</g>
</g>
<g clip-path="url(#a)">
<g transform="translate(84.497 478.48) scale(.1 -.1)">
<use xlink:href="#c"/>
<use x="63.623047" xlink:href="#f"/>
<use x="95.410156" xlink:href="#m"/>
<use x="159.033203" xlink:href="#z"/>
</g>
</g>
<g clip-path="url(#a)">
<g transform="translate(105.83 478.48) scale(.1 -.1)">
<use xlink:href="#c"/>
<use x="63.623047" xlink:href="#f"/>
<use x="95.410156" xlink:href="#m"/>
<use x="159.033203" xlink:href="#ai"/>
</g>
</g>
<g clip-path="url(#a)">
<g transform="translate(130.71 478.48) scale(.1 -.1)">
<use xlink:href="#c"/>
<use x="63.623047" xlink:href="#f"/>
<use x="95.410156" xlink:href="#m"/>
<use x="159.033203" xlink:href="#ah"/>
</g>
</g>
<g clip-path="url(#a)">
<g transform="translate(1101.2 478.48) scale(.1 -.1)">
<use xlink:href="#c"/>
<use x="63.623047" xlink:href="#f"/>
<use x="95.410156" xlink:href="#m"/>
<use x="159.033203" xlink:href="#y"/>
</g>
</g>
<defs>
<clipPath id="a">
<rect width="1165.3" height="613.33"/>
</clipPath>
</defs>
</svg>
