<?xml version="1.0" encoding="UTF-8"?>
<!DOCTYPE svg  PUBLIC '-//W3C//DTD SVG 1.1//EN'  'http://www.w3.org/Graphics/SVG/1.1/DTD/svg11.dtd'>
<svg width="557.33pt" height="293.33pt" version="1.1" viewBox="0 0 557.33 293.33" xmlns="http://www.w3.org/2000/svg" xmlns:xlink="http://www.w3.org/1999/xlink">
<defs>
<style type="text/css">*{stroke-linecap:butt;stroke-linejoin:round;}</style>
</defs>
<path d="m0 293.33h557.33v-293.33h-557.33z" fill="#fff"/>
<g fill="none" stroke="#000">
<path d="m302.54 14.719-179.75 67.382" clip-path="url(#a)"/>
<path d="m302.54 14.719 153.06 133.49" clip-path="url(#a)"/>
<path d="m302.54 14.719 26.681 198.69" clip-path="url(#a)"/>
<path d="m122.79 82.101-96.894 131.31" clip-path="url(#a)"/>
<path d="m122.79 82.101-46.341 131.31" clip-path="url(#a)"/>
<path d="m122.79 82.101 88.469 66.109" clip-path="url(#a)"/>
<path d="m122.79 82.101 54.766 131.31" clip-path="url(#a)"/>
<path d="m455.6 148.21-75.83 65.202" clip-path="url(#a)"/>
<path d="m455.6 148.21 25.277 65.202" clip-path="url(#a)"/>
<path d="m455.6 148.21 75.83 65.202" clip-path="url(#a)"/>
<path d="m455.6 148.21-25.277 65.202" clip-path="url(#a)"/>
<path d="m379.77 213.41v65.202" clip-path="url(#a)"/>
<path d="m480.88 213.41v65.202" clip-path="url(#a)"/>
<path d="m531.43 213.41v65.202" clip-path="url(#a)"/>
<path d="m25.899 213.41v65.202" clip-path="url(#a)"/>
<path d="m76.452 213.41v65.202" clip-path="url(#a)"/>
<path d="m211.26 148.21-84.256 65.202" clip-path="url(#a)"/>
<path d="m211.26 148.21 16.851 65.202" clip-path="url(#a)"/>
<path d="m211.26 148.21 67.405 65.202" clip-path="url(#a)"/>
<path d="m177.56 213.41v65.202" clip-path="url(#a)"/>
<path d="m127.01 213.41v65.202" clip-path="url(#a)"/>
<path d="m228.11 213.41v65.202" clip-path="url(#a)"/>
<path d="m278.67 213.41v65.202" clip-path="url(#a)"/>
<path d="m329.22 213.41v65.202" clip-path="url(#a)"/>
<path d="m430.33 213.41v65.202" clip-path="url(#a)"/>
</g>
<path d="m212.05 55.338 5.6334-2.1118q2.2473-0.84245 1.4048-3.0897l-2.7178-7.2498q-0.84245-2.2473-3.0897-1.4048l-5.6334 2.1118q-2.2473 0.84245-1.4048 3.0897l2.7178 7.2498q0.84245 2.2473 3.0897 1.4048z" clip-path="url(#a)" fill="#fff" stroke="#fff"/>
<g clip-path="url(#a)">
<defs>
<path id="o" d="m9.8125 72.906h9.8594v-29.891h35.844v29.891h9.8594v-72.906h-9.8594v34.719h-35.844v-34.719h-9.8594z"/>
</defs>
<g transform="translate(210.62 51.533) rotate(-20.55) scale(.08 -.08)">
<use xlink:href="#o"/>
</g>
</g>
<path d="m372.68 84.214 4.5342 3.9543q1.8088 1.5775 3.3862-0.23131l5.0889-5.8351q1.5775-1.8088-0.23131-3.3862l-4.5342-3.9543q-1.8088-1.5775-3.3862 0.23131l-5.0889 5.8351q-1.5775 1.8088 0.23131 3.3862z" clip-path="url(#a)" fill="#fff" stroke="#fff"/>
<g clip-path="url(#a)">
<g transform="translate(375.35 81.151) rotate(41.092) scale(.08 -.08)">
<use xlink:href="#o"/>
</g>
</g>
<path d="m309.27 112 0.77923 5.8029q0.31941 2.3786 2.6981 2.0592l7.6736-1.0304q2.3786-0.31941 2.0592-2.6981l-0.77923-5.8029q-0.31941-2.3786-2.6981-2.0592l-7.6736 1.0304q-2.3786 0.31941-2.0592 2.6981z" clip-path="url(#a)" fill="#fff" stroke="#fff"/>
<g clip-path="url(#a)">
<defs>
<path id="u" d="m8.6875 72.906h9.9219v-44.297q0-11.719 4.2344-16.875 4.25-5.1406 13.781-5.1406 9.4688 0 13.719 5.1406 4.25 5.1562 4.25 16.875v44.297h9.9062v-45.516q0-14.25-7.0625-21.531-7.0469-7.2812-20.812-7.2812-13.828 0-20.891 7.2812-7.0469 7.2812-7.0469 21.531z"/>
</defs>
<g transform="translate(313.3 111.46) rotate(82.352) scale(.08 -.08)">
<use xlink:href="#u"/>
</g>
</g>
<path d="m77.768 153.68 3.2493-4.4034q1.425-1.9312-0.50616-3.3562l-6.23-4.5971q-1.9312-1.425-3.3562 0.50616l-3.2493 4.4034q-1.425 1.9312 0.50616 3.3562l6.23 4.5971q1.9312 1.425 3.3562-0.50616z" clip-path="url(#a)" fill="#fff" stroke="#fff"/>
<g clip-path="url(#a)">
<defs>
<path id="q" d="m34.188 63.188-13.391-36.281h26.812zm-5.5781 9.7188h11.188l27.781-72.906h-10.25l-6.6406 18.703h-32.859l-6.6406-18.703h-10.406z"/>
</defs>
<g transform="translate(74.498 151.27) rotate(-53.576) scale(.08 -.08)">
<use xlink:href="#q"/>
</g>
</g>
<path d="m104.77 152.01 1.5313-4.339q0.7987-2.2632-1.4645-3.0619l-7.3012-2.5766q-2.2632-0.7987-3.0619 1.4645l-1.5313 4.339q-0.7987 2.2632 1.4645 3.0619l7.3012 2.5766q2.2632 0.7987 3.0619-1.4645z" clip-path="url(#a)" fill="#fff" stroke="#fff"/>
<g clip-path="url(#a)">
<defs>
<path id="p" d="m9.8125 72.906h41.891v-8.3125h-32.031v-21.484h28.906v-8.2969h-28.906v-34.812h-9.8594z"/>
</defs>
<g transform="translate(100.94 150.66) rotate(-70.562) scale(.08 -.08)">
<use xlink:href="#p"/>
</g>
</g>
<path d="m161.08 118.54 4.3838 3.2758q1.9225 1.4366 3.3592-0.4859l4.6346-6.2022q1.4366-1.9225-0.4859-3.3592l-4.3838-3.2758q-1.9225-1.4366-3.3592 0.4859l-4.6346 6.2022q-1.4366 1.9225 0.4859 3.3592z" clip-path="url(#a)" fill="#fff" stroke="#fff"/>
<g clip-path="url(#a)">
<g transform="translate(163.51 115.29) rotate(36.769) scale(.08 -.08)">
<use xlink:href="#q"/>
</g>
</g>
<path d="m143.41 147.83 1.955 4.6874q0.92385 2.2151 3.1389 1.2912l7.1459-2.9804q2.2151-0.92385 1.2912-3.1389l-1.955-4.6874q-0.92384-2.2151-3.1389-1.2912l-7.1459 2.9804q-2.2151 0.92384-1.2912 3.1389z" clip-path="url(#a)" fill="#fff" stroke="#fff"/>
<g clip-path="url(#a)">
<defs>
<path id="n" d="m53.516 70.516v-9.625q-5.6094 2.6875-10.594 4-4.9844 1.3281-9.625 1.3281-8.0469 0-12.422-3.125t-4.375-8.8906q0-4.8438 2.9062-7.3125 2.9062-2.4531 11.016-3.9688l5.9531-1.2188q11.031-2.1094 16.281-7.4062t5.25-14.172q0-10.609-7.1094-16.078-7.0938-5.4688-20.812-5.4688-5.1719 0-11.016 1.1719-5.8281 1.1719-12.078 3.4688v10.156q6-3.3594 11.766-5.0781 5.7656-1.7031 11.328-1.7031 8.4375 0 13.031 3.3125 4.5938 3.3281 4.5938 9.4844 0 5.3594-3.2969 8.3906t-10.812 4.5469l-6.0156 1.1719q-11.031 2.1875-15.969 6.875-4.9219 4.6875-4.9219 13.047 0 9.6719 6.8125 15.234t18.766 5.5625q5.1406 0 10.453-0.9375 5.3281-0.92188 10.891-2.7656z"/>
</defs>
<g transform="translate(147.16 146.26) rotate(67.36) scale(.08 -.08)">
<use xlink:href="#n"/>
</g>
</g>
<path d="m419.7 187.35 4.1495-3.5679q1.8198-1.5647 0.25506-3.3845l-5.0479-5.8707q-1.5647-1.8198-3.3845-0.25506l-4.1495 3.5679q-1.8198 1.5647-0.25506 3.3845l5.0479 5.8707q1.5647 1.8198 3.3845 0.25506z" clip-path="url(#a)" fill="#fff" stroke="#fff"/>
<g clip-path="url(#a)">
<g transform="translate(417.05 184.27) rotate(-40.69) scale(.08 -.08)">
<use xlink:href="#q"/>
</g>
</g>
<path d="m461.48 180.71 1.8358 4.7354q0.8675 2.2377 3.1052 1.3702l7.219-2.7986q2.2377-0.8675 1.3702-3.1052l-1.8358-4.7354q-0.8675-2.2377-3.1052-1.3702l-7.219 2.7986q-2.2377 0.8675-1.3702 3.1052z" clip-path="url(#a)" fill="#fff" stroke="#fff"/>
<g clip-path="url(#a)">
<g transform="translate(465.27 179.24) rotate(68.81) scale(.08 -.08)">
<use xlink:href="#n"/>
</g>
</g>
<path d="m487.58 183.97 3.705 3.1857q1.8198 1.5647 3.3845-0.25506l5.0479-5.8707q1.5647-1.8198-0.25506-3.3845l-3.705-3.1857q-1.8198-1.5647-3.3845 0.25506l-5.0479 5.8707q-1.5647 1.8198 0.25506 3.3845z" clip-path="url(#a)" fill="#fff" stroke="#fff"/>
<g clip-path="url(#a)">
<defs>
<path id="g" d="m-0.29688 72.906h61.672v-8.3125h-25.875v-64.594h-9.9062v64.594h-25.891z"/>
</defs>
<g transform="translate(490.23 180.89) rotate(40.69) scale(.08 -.08)">
<use xlink:href="#g"/>
</g>
</g>
<path d="m447.75 185.81 2.1163-5.4591q0.8675-2.2377-1.3702-3.1052l-7.219-2.7986q-2.2377-0.8675-3.1052 1.3702l-2.1163 5.4591q-0.8675 2.2377 1.3702 3.1052l7.219 2.7986q2.2377 0.8675 3.1052-1.3702z" clip-path="url(#a)" fill="#fff" stroke="#fff"/>
<g clip-path="url(#a)">
<g transform="translate(443.97 184.34) rotate(-68.81) scale(.08 -.08)">
<use xlink:href="#u"/>
</g>
</g>
<path d="m373.5 228.37v35.285q0 2.4 2.4 2.4h7.7425q2.4 0 2.4-2.4v-35.285q0-2.4-2.4-2.4h-7.7425q-2.4 0-2.4 2.4z" clip-path="url(#a)" fill="#fff" stroke="#fff"/>
<g clip-path="url(#a)">
<defs>
<path id="l" d="m56.203 29.594v-4.3906h-41.312q0.59375-9.2812 5.5938-14.141t13.938-4.8594q5.1719 0 10.031 1.2656t9.6562 3.8125v-8.5q-4.8438-2.0469-9.9219-3.125t-10.297-1.0781q-13.094 0-20.734 7.6094-7.6406 7.625-7.6406 20.625 0 13.422 7.25 21.297 7.25 7.8906 19.562 7.8906 11.031 0 17.453-7.1094 6.4219-7.0938 6.4219-19.297zm-8.9844 2.6406q-0.09375 7.3594-4.125 11.75-4.0312 4.4062-10.672 4.4062-7.5156 0-12.031-4.25t-5.2031-11.969z"/>
<path id="i" d="m41.109 46.297q-1.5156 0.875-3.2969 1.2812-1.7812 0.42188-3.9219 0.42188-7.625 0-11.703-4.9531t-4.0781-14.234v-28.812h-9.0312v54.688h9.0312v-8.5q2.8438 4.9844 7.375 7.3906 4.5469 2.4219 11.047 2.4219 0.92188 0 2.0469-0.125 1.125-0.10938 2.4844-0.35938z"/>
<path id="k" d="m52 44.188q3.375 6.0625 8.0625 8.9375t11.031 2.875q8.5469 0 13.188-5.9844 4.6406-5.9688 4.6406-17v-33.016h-9.0312v32.719q0 7.8594-2.7969 11.656-2.7812 3.8125-8.4844 3.8125-6.9844 0-11.047-4.6406-4.0469-4.625-4.0469-12.641v-30.906h-9.0312v32.719q0 7.9062-2.7812 11.688t-8.5938 3.7812q-6.8906 0-10.953-4.6562-4.0469-4.6562-4.0469-12.625v-30.906h-9.0312v54.688h9.0312v-8.5q3.0781 5.0312 7.375 7.4219t10.203 2.3906q5.9688 0 10.141-3.0312 4.1719-3.0156 6.1719-8.7812z"/>
<path id="e" d="m9.4219 54.688h8.9844v-54.688h-8.9844zm0 21.297h8.9844v-11.391h-8.9844z"/>
<path id="j" d="m54.891 33.016v-33.016h-8.9844v32.719q0 7.7656-3.0312 11.609-3.0312 3.8594-9.0781 3.8594-7.2812 0-11.484-4.6406-4.2031-4.625-4.2031-12.641v-30.906h-9.0312v54.688h9.0312v-8.5q3.2344 4.9375 7.5938 7.375 4.375 2.4375 10.094 2.4375 9.4219 0 14.25-5.8281 4.8438-5.8281 4.8438-17.156z"/>
<path id="f" d="m34.281 27.484q-10.891 0-15.094-2.4844t-4.2031-8.5q0-4.7812 3.1562-7.5938 3.1562-2.7969 8.5625-2.7969 7.4844 0 12 5.2969t4.5156 14.078v2zm17.922 3.7188v-31.203h-8.9844v8.2969q-3.0781-4.9688-7.6719-7.3438t-11.234-2.375q-8.3906 0-13.359 4.7188-4.9531 4.7188-4.9531 12.625 0 9.2188 6.1719 13.906 6.1875 4.6875 18.438 4.6875h12.609v0.89062q0 6.2031-4.0781 9.5938t-11.453 3.3906q-4.6875 0-9.1406-1.125-4.4375-1.125-8.5312-3.375v8.3125q4.9219 1.9062 9.5625 2.8438 4.6406 0.95312 9.0312 0.95312 11.875 0 17.734-6.1562 5.8594-6.1406 5.8594-18.641z"/>
<path id="h" d="m9.4219 75.984h8.9844v-75.984h-8.9844z"/>
</defs>
<g transform="translate(377.57 228.37) rotate(90) scale(.08 -.08)">
<use xlink:href="#g"/>
<use x="60.818359" xlink:href="#l"/>
<use x="122.341797" xlink:href="#i"/>
<use x="163.439453" xlink:href="#k"/>
<use x="260.851562" xlink:href="#e"/>
<use x="288.634766" xlink:href="#j"/>
<use x="352.013672" xlink:href="#f"/>
<use x="413.292969" xlink:href="#h"/>
</g>
</g>
<path d="m474.61 228.37v35.285q0 2.4 2.4 2.4h7.7425q2.4 0 2.4-2.4v-35.285q0-2.4-2.4-2.4h-7.7425q-2.4 0-2.4 2.4z" clip-path="url(#a)" fill="#fff" stroke="#fff"/>
<g clip-path="url(#a)">
<g transform="translate(478.67 228.37) rotate(90) scale(.08 -.08)">
<use xlink:href="#g"/>
<use x="60.818359" xlink:href="#l"/>
<use x="122.341797" xlink:href="#i"/>
<use x="163.439453" xlink:href="#k"/>
<use x="260.851562" xlink:href="#e"/>
<use x="288.634766" xlink:href="#j"/>
<use x="352.013672" xlink:href="#f"/>
<use x="413.292969" xlink:href="#h"/>
</g>
</g>
<path d="m525.16 228.37v35.285q0 2.4 2.4 2.4h7.7425q2.4 0 2.4-2.4v-35.285q0-2.4-2.4-2.4h-7.7425q-2.4 0-2.4 2.4z" clip-path="url(#a)" fill="#fff" stroke="#fff"/>
<g clip-path="url(#a)">
<g transform="translate(529.23 228.37) rotate(90) scale(.08 -.08)">
<use xlink:href="#g"/>
<use x="60.818359" xlink:href="#l"/>
<use x="122.341797" xlink:href="#i"/>
<use x="163.439453" xlink:href="#k"/>
<use x="260.851562" xlink:href="#e"/>
<use x="288.634766" xlink:href="#j"/>
<use x="352.013672" xlink:href="#f"/>
<use x="413.292969" xlink:href="#h"/>
</g>
</g>
<path d="m19.628 228.37v35.285q0 2.4 2.4 2.4h7.7425q2.4 0 2.4-2.4v-35.285q0-2.4-2.4-2.4h-7.7425q-2.4 0-2.4 2.4z" clip-path="url(#a)" fill="#fff" stroke="#fff"/>
<g clip-path="url(#a)">
<g transform="translate(23.691 228.37) rotate(90) scale(.08 -.08)">
<use xlink:href="#g"/>
<use x="60.818359" xlink:href="#l"/>
<use x="122.341797" xlink:href="#i"/>
<use x="163.439453" xlink:href="#k"/>
<use x="260.851562" xlink:href="#e"/>
<use x="288.634766" xlink:href="#j"/>
<use x="352.013672" xlink:href="#f"/>
<use x="413.292969" xlink:href="#h"/>
</g>
</g>
<path d="m70.181 228.37v35.285q0 2.4 2.4 2.4h7.7425q2.4 0 2.4-2.4v-35.285q0-2.4-2.4-2.4h-7.7425q-2.4 0-2.4 2.4z" clip-path="url(#a)" fill="#fff" stroke="#fff"/>
<g clip-path="url(#a)">
<g transform="translate(74.245 228.37) rotate(90) scale(.08 -.08)">
<use xlink:href="#g"/>
<use x="60.818359" xlink:href="#l"/>
<use x="122.341797" xlink:href="#i"/>
<use x="163.439453" xlink:href="#k"/>
<use x="260.851562" xlink:href="#e"/>
<use x="288.634766" xlink:href="#j"/>
<use x="352.013672" xlink:href="#f"/>
<use x="413.292969" xlink:href="#h"/>
</g>
</g>
<path d="m171.15 187.18 3.6389-2.816q1.898-1.4688 0.42923-3.3669l-4.7385-6.1232q-1.4688-1.898-3.3669-0.42923l-3.6389 2.816q-1.898 1.4688-0.42923 3.3669l4.7385 6.1232q1.4688 1.898 3.3669 0.42923z" clip-path="url(#a)" fill="#fff" stroke="#fff"/>
<g clip-path="url(#a)">
<g transform="translate(168.67 183.96) rotate(-37.735) scale(.08 -.08)">
<use xlink:href="#p"/>
</g>
</g>
<path d="m212.98 179.93 1.2649 4.8942q0.60054 2.3237 2.9242 1.7231l7.4962-1.9374q2.3237-0.60054 1.7231-2.9242l-1.2649-4.8942q-0.60054-2.3236-2.9242-1.7231l-7.4962 1.9374q-2.3237 0.60054-1.7231 2.9242z" clip-path="url(#a)" fill="#fff" stroke="#fff"/>
<g clip-path="url(#a)">
<defs>
<path id="ad" d="m9.8125 72.906h46.094v-8.3125h-36.234v-21.578h34.719v-8.2969h-34.719v-26.422h37.109v-8.2969h-46.969z"/>
</defs>
<g transform="translate(216.92 178.92) rotate(75.509) scale(.08 -.08)">
<use xlink:href="#ad"/>
</g>
</g>
<path d="m238.6 183.38 4.0151 3.8839q1.725 1.6686 3.3936-0.056374l5.3831-5.565q1.6686-1.725-0.056374-3.3936l-4.0151-3.8839q-1.725-1.6686-3.3936 0.056374l-5.3831 5.565q-1.6686 1.725 0.056374 3.3936z" clip-path="url(#a)" fill="#fff" stroke="#fff"/>
<g clip-path="url(#a)">
<defs>
<path id="ae" d="m64.406 67.281v-10.391q-4.9844 4.6406-10.625 6.9219-5.6406 2.2969-11.984 2.2969-12.5 0-19.141-7.6406t-6.6406-22.094q0-14.406 6.6406-22.047t19.141-7.6406q6.3438 0 11.984 2.2969t10.625 6.9375v-10.312q-5.1719-3.5156-10.969-5.2812-5.7812-1.75-12.219-1.75-16.562 0-26.094 10.125-9.5156 10.141-9.5156 27.672 0 17.578 9.5156 27.703 9.5312 10.141 26.094 10.141 6.5312 0 12.312-1.7344 5.7969-1.7344 10.875-5.2031z"/>
</defs>
<g transform="translate(241.42 180.46) rotate(44.048) scale(.08 -.08)">
<use xlink:href="#ae"/>
</g>
</g>
<path d="m171.29 228.37v35.285q0 2.4 2.4 2.4h7.7425q2.4 0 2.4-2.4v-35.285q0-2.4-2.4-2.4h-7.7425q-2.4 0-2.4 2.4z" clip-path="url(#a)" fill="#fff" stroke="#fff"/>
<g clip-path="url(#a)">
<g transform="translate(175.35 228.37) rotate(90) scale(.08 -.08)">
<use xlink:href="#g"/>
<use x="60.818359" xlink:href="#l"/>
<use x="122.341797" xlink:href="#i"/>
<use x="163.439453" xlink:href="#k"/>
<use x="260.851562" xlink:href="#e"/>
<use x="288.634766" xlink:href="#j"/>
<use x="352.013672" xlink:href="#f"/>
<use x="413.292969" xlink:href="#h"/>
</g>
</g>
<path d="m120.73 228.37v35.285q0 2.4 2.4 2.4h7.7425q2.4 0 2.4-2.4v-35.285q0-2.4-2.4-2.4h-7.7425q-2.4 0-2.4 2.4z" clip-path="url(#a)" fill="#fff" stroke="#fff"/>
<g clip-path="url(#a)">
<g transform="translate(124.8 228.37) rotate(90) scale(.08 -.08)">
<use xlink:href="#g"/>
<use x="60.818359" xlink:href="#l"/>
<use x="122.341797" xlink:href="#i"/>
<use x="163.439453" xlink:href="#k"/>
<use x="260.851562" xlink:href="#e"/>
<use x="288.634766" xlink:href="#j"/>
<use x="352.013672" xlink:href="#f"/>
<use x="413.292969" xlink:href="#h"/>
</g>
</g>
<path d="m221.84 228.37v35.285q0 2.4 2.4 2.4h7.7425q2.4 0 2.4-2.4v-35.285q0-2.4-2.4-2.4h-7.7425q-2.4 0-2.4 2.4z" clip-path="url(#a)" fill="#fff" stroke="#fff"/>
<g clip-path="url(#a)">
<g transform="translate(225.91 228.37) rotate(90) scale(.08 -.08)">
<use xlink:href="#g"/>
<use x="60.818359" xlink:href="#l"/>
<use x="122.341797" xlink:href="#i"/>
<use x="163.439453" xlink:href="#k"/>
<use x="260.851562" xlink:href="#e"/>
<use x="288.634766" xlink:href="#j"/>
<use x="352.013672" xlink:href="#f"/>
<use x="413.292969" xlink:href="#h"/>
</g>
</g>
<path d="m272.4 228.37v35.285q0 2.4 2.4 2.4h7.7425q2.4 0 2.4-2.4v-35.285q0-2.4-2.4-2.4h-7.7425q-2.4 0-2.4 2.4z" clip-path="url(#a)" fill="#fff" stroke="#fff"/>
<g clip-path="url(#a)">
<g transform="translate(276.46 228.37) rotate(90) scale(.08 -.08)">
<use xlink:href="#g"/>
<use x="60.818359" xlink:href="#l"/>
<use x="122.341797" xlink:href="#i"/>
<use x="163.439453" xlink:href="#k"/>
<use x="260.851562" xlink:href="#e"/>
<use x="288.634766" xlink:href="#j"/>
<use x="352.013672" xlink:href="#f"/>
<use x="413.292969" xlink:href="#h"/>
</g>
</g>
<path d="m322.95 228.37v35.285q0 2.4 2.4 2.4h7.7425q2.4 0 2.4-2.4v-35.285q0-2.4-2.4-2.4h-7.7425q-2.4 0-2.4 2.4z" clip-path="url(#a)" fill="#fff" stroke="#fff"/>
<g clip-path="url(#a)">
<g transform="translate(327.01 228.37) rotate(90) scale(.08 -.08)">
<use xlink:href="#g"/>
<use x="60.818359" xlink:href="#l"/>
<use x="122.341797" xlink:href="#i"/>
<use x="163.439453" xlink:href="#k"/>
<use x="260.851562" xlink:href="#e"/>
<use x="288.634766" xlink:href="#j"/>
<use x="352.013672" xlink:href="#f"/>
<use x="413.292969" xlink:href="#h"/>
</g>
</g>
<path d="m424.06 228.37v35.285q0 2.4 2.4 2.4h7.7425q2.4 0 2.4-2.4v-35.285q0-2.4-2.4-2.4h-7.7425q-2.4 0-2.4 2.4z" clip-path="url(#a)" fill="#fff" stroke="#fff"/>
<g clip-path="url(#a)">
<g transform="translate(428.12 228.37) rotate(90) scale(.08 -.08)">
<use xlink:href="#g"/>
<use x="60.818359" xlink:href="#l"/>
<use x="122.341797" xlink:href="#i"/>
<use x="163.439453" xlink:href="#k"/>
<use x="260.851562" xlink:href="#e"/>
<use x="288.634766" xlink:href="#j"/>
<use x="352.013672" xlink:href="#f"/>
<use x="413.292969" xlink:href="#h"/>
</g>
</g>
<defs>
<path id="c" d="m0 8.6603c2.2967 0 4.4997-0.9125 6.1237-2.5365 1.624-1.624 2.5365-3.827 2.5365-6.1237s-0.9125-4.4997-2.5365-6.1237c-1.624-1.624-3.827-2.5365-6.1237-2.5365s-4.4997 0.9125-6.1237 2.5365c-1.624 1.624-2.5365 3.827-2.5365 6.1237s0.9125 4.4997 2.5365 6.1237c1.624 1.624 3.827 2.5365 6.1237 2.5365z"/>
</defs>
<g clip-path="url(#a)">
<use x="25.898921" y="278.614004" fill="#ffffff" stroke="#ffffff" xlink:href="#c"/>
</g>
<g clip-path="url(#a)">
<use x="76.45247" y="278.614004" fill="#ffffff" stroke="#ffffff" xlink:href="#c"/>
</g>
<g clip-path="url(#a)">
<use x="127.006019" y="278.614004" fill="#ffffff" stroke="#ffffff" xlink:href="#c"/>
</g>
<g clip-path="url(#a)">
<use x="177.559568" y="278.614004" fill="#ffffff" stroke="#ffffff" xlink:href="#c"/>
</g>
<g clip-path="url(#a)">
<use x="228.113117" y="278.614004" fill="#ffffff" stroke="#ffffff" xlink:href="#c"/>
</g>
<g clip-path="url(#a)">
<use x="278.666667" y="278.614004" fill="#ffffff" stroke="#ffffff" xlink:href="#c"/>
</g>
<g clip-path="url(#a)">
<use x="329.220216" y="278.614004" fill="#ffffff" stroke="#ffffff" xlink:href="#c"/>
</g>
<g clip-path="url(#a)">
<use x="379.773765" y="278.614004" fill="#ffffff" stroke="#ffffff" xlink:href="#c"/>
</g>
<g clip-path="url(#a)">
<use x="430.327314" y="278.614004" fill="#ffffff" stroke="#ffffff" xlink:href="#c"/>
</g>
<g clip-path="url(#a)">
<use x="480.880863" y="278.614004" fill="#ffffff" stroke="#ffffff" xlink:href="#c"/>
</g>
<g clip-path="url(#a)">
<use x="531.434413" y="278.614004" fill="#ffffff" stroke="#ffffff" xlink:href="#c"/>
</g>
<g clip-path="url(#a)">
<use x="302.539176" y="14.719329" fill="#ffffff" stroke="#ffffff" xlink:href="#c"/>
</g>
<g clip-path="url(#a)">
<use x="122.793223" y="82.101246" fill="#ffffff" stroke="#ffffff" xlink:href="#c"/>
</g>
<g clip-path="url(#a)">
<use x="455.604089" y="148.210186" fill="#ffffff" stroke="#ffffff" xlink:href="#c"/>
</g>
<g clip-path="url(#a)">
<use x="379.773765" y="213.412095" fill="#ffffff" stroke="#ffffff" xlink:href="#c"/>
</g>
<g clip-path="url(#a)">
<use x="480.880863" y="213.412095" fill="#ffffff" stroke="#ffffff" xlink:href="#c"/>
</g>
<g clip-path="url(#a)">
<use x="531.434413" y="213.412095" fill="#ffffff" stroke="#ffffff" xlink:href="#c"/>
</g>
<g clip-path="url(#a)">
<use x="25.898921" y="213.412095" fill="#ffffff" stroke="#ffffff" xlink:href="#c"/>
</g>
<g clip-path="url(#a)">
<use x="76.45247" y="213.412095" fill="#ffffff" stroke="#ffffff" xlink:href="#c"/>
</g>
<g clip-path="url(#a)">
<use x="211.261934" y="148.210186" fill="#ffffff" stroke="#ffffff" xlink:href="#c"/>
</g>
<g clip-path="url(#a)">
<use x="177.559568" y="213.412095" fill="#ffffff" stroke="#ffffff" xlink:href="#c"/>
</g>
<g clip-path="url(#a)">
<use x="127.006019" y="213.412095" fill="#ffffff" stroke="#ffffff" xlink:href="#c"/>
</g>
<g clip-path="url(#a)">
<use x="228.113117" y="213.412095" fill="#ffffff" stroke="#ffffff" xlink:href="#c"/>
</g>
<g clip-path="url(#a)">
<use x="278.666667" y="213.412095" fill="#ffffff" stroke="#ffffff" xlink:href="#c"/>
</g>
<g clip-path="url(#a)">
<use x="329.220216" y="213.412095" fill="#ffffff" stroke="#ffffff" xlink:href="#c"/>
</g>
<g clip-path="url(#a)">
<use x="430.327314" y="213.412095" fill="#ffffff" stroke="#ffffff" xlink:href="#c"/>
</g>
<g clip-path="url(#a)">
<g transform="translate(16.089 281.37) scale(.1 -.1)">
<use xlink:href="#p"/>
<use x="57.519531" xlink:href="#o"/>
<use x="132.714844" xlink:href="#n"/>
</g>
</g>
<g clip-path="url(#a)">
<defs>
<path id="ab" d="m44.281 53.078v-8.5q-3.7969 1.9531-7.9062 2.9219-4.0938 0.98438-8.5 0.98438-6.6875 0-10.031-2.0469t-3.3438-6.1562q0-3.125 2.3906-4.9062t9.625-3.3906l3.0781-0.6875q9.5625-2.0469 13.594-5.7812t4.0312-10.422q0-7.625-6.0312-12.078-6.0312-4.4375-16.578-4.4375-4.3906 0-9.1562 0.85938t-10.031 2.5625v9.2812q4.9844-2.5938 9.8125-3.8906 4.8281-1.2812 9.5781-1.2812 6.3438 0 9.75 2.1719 3.4219 2.1719 3.4219 6.125 0 3.6562-2.4688 5.6094-2.4531 1.9531-10.812 3.7656l-3.125 0.73438q-8.3438 1.75-12.062 5.3906-3.7031 3.6406-3.7031 9.9844 0 7.7188 5.4688 11.906 5.4688 4.2031 15.531 4.2031 4.9688 0 9.3594-0.73438 4.4062-0.71875 8.1094-2.1875z"/>
</defs>
<g transform="translate(72.459 281.37) scale(.1 -.1)">
<use xlink:href="#e"/>
<use x="27.783203" xlink:href="#ab"/>
</g>
</g>
<g clip-path="url(#a)">
<g transform="translate(123.94 281.37) scale(.1 -.1)">
<use xlink:href="#f"/>
</g>
</g>
<g clip-path="url(#a)">
<defs>
<path id="ac" d="m45.406 27.984q0 9.7656-4.0312 15.125-4.0156 5.375-11.297 5.375-7.2188 0-11.25-5.375-4.0312-5.3594-4.0312-15.125 0-9.7188 4.0312-15.094t11.25-5.375q7.2812 0 11.297 5.375 4.0312 5.375 4.0312 15.094zm8.9844-21.203q0-13.953-6.2031-20.766-6.1875-6.8125-18.984-6.8125-4.7344 0-8.9375 0.70312t-8.1562 2.1719v8.7344q3.9531-2.1406 7.8125-3.1562 3.8594-1.0312 7.8594-1.0312 8.8438 0 13.234 4.6094t4.3906 13.938v4.4531q-2.7812-4.8438-7.125-7.2344t-10.406-2.3906q-10.047 0-16.203 7.6562-6.1562 7.6719-6.1562 20.328 0 12.688 6.1562 20.344 6.1562 7.6719 16.203 7.6719 6.0625 0 10.406-2.3906t7.125-7.2188v8.2969h8.9844z"/>
<path id="m" d="m30.609 48.391q-7.2188 0-11.422-5.6406t-4.2031-15.453 4.1719-15.453q4.1875-5.6406 11.453-5.6406 7.1875 0 11.375 5.6562 4.2031 5.6719 4.2031 15.438 0 9.7188-4.2031 15.406-4.1875 5.6875-11.375 5.6875zm0 7.6094q11.719 0 18.406-7.625 6.7031-7.6094 6.7031-21.078 0-13.422-6.7031-21.078-6.6875-7.6406-18.406-7.6406-11.766 0-18.438 7.6406-6.6562 7.6562-6.6562 21.078 0 13.469 6.6562 21.078 6.6719 7.625 18.438 7.625z"/>
<path id="aj" d="m45.406 46.391v29.594h8.9844v-75.984h-8.9844v8.2031q-2.8281-4.875-7.1562-7.25-4.3125-2.375-10.375-2.375-9.9062 0-16.141 7.9062-6.2188 7.9219-6.2188 20.812t6.2188 20.797q6.2344 7.9062 16.141 7.9062 6.0625 0 10.375-2.375 4.3281-2.3594 7.1562-7.2344zm-30.609-19.094q0-9.9062 4.0781-15.547t11.203-5.6406 11.219 5.6406q4.1094 5.6406 4.1094 15.547t-4.1094 15.547q-4.0938 5.6406-11.219 5.6406t-11.203-5.6406-4.0781-15.547z"/>
</defs>
<g transform="translate(165.09 281.37) scale(.1 -.1)">
<use xlink:href="#ac"/>
<use x="63.476562" xlink:href="#m"/>
<use x="124.658203" xlink:href="#m"/>
<use x="185.839844" xlink:href="#aj"/>
</g>
</g>
<g clip-path="url(#a)">
<defs>
<path id="s" d="m54.891 33.016v-33.016h-8.9844v32.719q0 7.7656-3.0312 11.609-3.0312 3.8594-9.0781 3.8594-7.2812 0-11.484-4.6406-4.2031-4.625-4.2031-12.641v-30.906h-9.0312v75.984h9.0312v-29.797q3.2344 4.9375 7.5938 7.375 4.375 2.4375 10.094 2.4375 9.4219 0 14.25-5.8281 4.8438-5.8281 4.8438-17.156z"/>
</defs>
<g transform="translate(217.21 281.37) scale(.1 -.1)">
<use xlink:href="#s"/>
<use x="63.378906" xlink:href="#e"/>
<use x="91.162109" xlink:href="#ac"/>
<use x="154.638672" xlink:href="#s"/>
</g>
</g>
<g clip-path="url(#a)">
<defs>
<path id="t" d="m48.781 52.594v-8.4062q-3.8125 2.1094-7.6406 3.1562t-7.7344 1.0469q-8.75 0-13.594-5.5469-4.8281-5.5312-4.8281-15.547t4.8281-15.562q4.8438-5.5312 13.594-5.5312 3.9062 0 7.7344 1.0469t7.6406 3.1562v-8.3125q-3.7656-1.75-7.7969-2.625-4.0156-0.89062-8.5625-0.89062-12.359 0-19.641 7.7656-7.2656 7.7656-7.2656 20.953 0 13.375 7.3438 21.031 7.3594 7.6719 20.156 7.6719 4.1406 0 8.0938-0.85938 3.9531-0.84375 7.6719-2.5469z"/>
</defs>
<g transform="translate(262.64 281.37) scale(.1 -.1)">
<use xlink:href="#ab"/>
<use x="52.099609" xlink:href="#t"/>
<use x="107.080078" xlink:href="#s"/>
<use x="170.458984" xlink:href="#m"/>
<use x="231.640625" xlink:href="#m"/>
<use x="292.822266" xlink:href="#h"/>
</g>
</g>
<g clip-path="url(#a)">
<defs>
<path id="aa" d="m4.8906 31.391h26.312v-8h-26.312z"/>
</defs>
<g transform="translate(325.61 281.37) scale(.1 -.1)">
<use xlink:href="#aa"/>
<use x="36.083984" xlink:href="#aa"/>
</g>
</g>
<g clip-path="url(#a)">
<g transform="translate(377.02 281.37) scale(.1 -.1)">
<use xlink:href="#t"/>
</g>
</g>
<g clip-path="url(#a)">
<defs>
<path id="ai" d="m25.391 72.906h8.2969l-25.391-82.188h-8.2969z"/>
</defs>
<g transform="translate(428.64 281.37) scale(.1 -.1)">
<use xlink:href="#ai"/>
</g>
</g>
<g clip-path="url(#a)">
<g transform="translate(477.82 281.37) scale(.1 -.1)">
<use xlink:href="#m"/>
</g>
</g>
<g clip-path="url(#a)">
<defs>
<path id="b" d="m12.406 8.2969h16.109v55.625l-17.531-3.5156v8.9844l17.438 3.5156h9.8594v-64.609h16.109v-8.2969h-41.984z"/>
<path id="r" d="m10.984 1.5156v8.9844q3.7188-1.7656 7.5156-2.6875 3.8125-0.92188 7.4844-0.92188 9.7656 0 14.906 6.5625 5.1562 6.5625 5.8906 19.953-2.8281-4.2031-7.1875-6.4531-4.3438-2.25-9.6094-2.25-10.938 0-17.312 6.6094-6.375 6.625-6.375 18.109 0 11.219 6.6406 18 6.6406 6.7969 17.672 6.7969 12.656 0 19.312-9.7031 6.6719-9.6875 6.6719-28.141 0-17.234-8.1875-27.516-8.1719-10.281-21.984-10.281-3.7188 0-7.5312 0.73438-3.7969 0.73438-7.9062 2.2031zm19.625 30.906q6.6406 0 10.516 4.5312 3.8906 4.5469 3.8906 12.469 0 7.8594-3.8906 12.422-3.875 4.5625-10.516 4.5625t-10.516-4.5625-3.875-12.422q0-7.9219 3.875-12.469 3.875-4.5312 10.516-4.5312z"/>
<path id="af" d="m31.781 34.625q-7.0312 0-11.062-3.7656-4.0156-3.7656-4.0156-10.344 0-6.5938 4.0156-10.359 4.0312-3.7656 11.062-3.7656t11.078 3.7812q4.0625 3.7969 4.0625 10.344 0 6.5781-4.0312 10.344-4.0156 3.7656-11.109 3.7656zm-9.8594 4.1875q-6.3438 1.5625-9.8906 5.9062-3.5312 4.3594-3.5312 10.609 0 8.7344 6.2188 13.812 6.2344 5.0781 17.062 5.0781 10.891 0 17.094-5.0781t6.2031-13.812q0-6.25-3.5469-10.609-3.5312-4.3438-9.8281-5.9062 7.125-1.6562 11.094-6.5 3.9844-4.8281 3.9844-11.797 0-10.609-6.4688-16.281-6.4688-5.6562-18.531-5.6562-12.047 0-18.531 5.6562-6.4688 5.6719-6.4688 16.281 0 6.9688 4 11.797 4.0156 4.8438 11.141 6.5zm-3.6094 15.578q0-5.6562 3.5312-8.8281 3.5469-3.1719 9.9375-3.1719 6.3594 0 9.9375 3.1719 3.5938 3.1719 3.5938 8.8281 0 5.6719-3.5938 8.8438-3.5781 3.1719-9.9375 3.1719-6.3906 0-9.9375-3.1719-3.5312-3.1719-3.5312-8.8438z"/>
</defs>
<g transform="translate(518.71 281.37) scale(.1 -.1)">
<use xlink:href="#b"/>
<use x="63.623047" xlink:href="#r"/>
<use x="127.246094" xlink:href="#r"/>
<use x="190.869141" xlink:href="#af"/>
</g>
</g>
<g clip-path="url(#a)">
<defs>
<path id="d" d="m10.688 12.406h10.312v-12.406h-10.312z"/>
</defs>
<g transform="translate(294.59 17.479) scale(.1 -.1)">
<use xlink:href="#b"/>
<use x="63.623047" xlink:href="#d"/>
<use x="95.410156" xlink:href="#b"/>
</g>
</g>
<g clip-path="url(#a)">
<defs>
<path id="z" d="m19.188 8.2969h34.422v-8.2969h-46.281v8.2969q5.6094 5.8125 15.297 15.594 9.7031 9.7969 12.188 12.641 4.7344 5.3125 6.6094 9 1.8906 3.6875 1.8906 7.25 0 5.8125-4.0781 9.4688-4.0781 3.6719-10.625 3.6719-4.6406 0-9.7969-1.6094-5.1406-1.6094-11-4.8906v9.9688q5.9531 2.3906 11.125 3.6094 5.1875 1.2188 9.4844 1.2188 11.328 0 18.062-5.6719 6.7344-5.6562 6.7344-15.125 0-4.5-1.6875-8.5312-1.6719-4.0156-6.125-9.4844-1.2188-1.4219-7.7656-8.1875-6.5312-6.7656-18.453-18.922z"/>
</defs>
<g transform="translate(114.84 84.861) scale(.1 -.1)">
<use xlink:href="#b"/>
<use x="63.623047" xlink:href="#d"/>
<use x="95.410156" xlink:href="#z"/>
</g>
</g>
<g clip-path="url(#a)">
<defs>
<path id="y" d="m40.578 39.312q7.0781-1.5156 11.047-6.3125 3.9844-4.7812 3.9844-11.812 0-10.781-7.4219-16.703-7.4219-5.9062-21.094-5.9062-4.5781 0-9.4375 0.90625t-10.031 2.7188v9.5156q4.0938-2.3906 8.9688-3.6094 4.8906-1.2188 10.219-1.2188 9.2656 0 14.125 3.6562t4.8594 10.641q0 6.4531-4.5156 10.078-4.5156 3.6406-12.562 3.6406h-8.5v8.1094h8.8906q7.2656 0 11.125 2.9062t3.8594 8.375q0 5.6094-3.9844 8.6094-3.9688 3.0156-11.391 3.0156-4.0625 0-8.7031-0.89062-4.6406-0.875-10.203-2.7188v8.7812q5.625 1.5625 10.531 2.3438t9.25 0.78125q11.234 0 17.766-5.1094 6.5469-5.0938 6.5469-13.781 0-6.0625-3.4688-10.234t-9.8594-5.7812z"/>
</defs>
<g transform="translate(447.65 150.97) scale(.1 -.1)">
<use xlink:href="#b"/>
<use x="63.623047" xlink:href="#d"/>
<use x="95.410156" xlink:href="#y"/>
</g>
</g>
<g clip-path="url(#a)">
<defs>
<path id="x" d="m10.797 72.906h38.719v-8.3125h-29.688v-17.859q2.1406 0.73438 4.2812 1.0938 2.1562 0.35938 4.3125 0.35938 12.203 0 19.328-6.6875 7.1406-6.6875 7.1406-18.109 0-11.766-7.3281-18.297-7.3281-6.5156-20.656-6.5156-4.5938 0-9.3594 0.78125-4.75 0.78125-9.8281 2.3438v9.9219q4.3906-2.3906 9.0781-3.5625t9.9062-1.1719q8.4531 0 13.375 4.4375 4.9375 4.4375 4.9375 12.062 0 7.6094-4.9375 12.047-4.9219 4.4531-13.375 4.4531-3.9531 0-7.8906-0.875-3.9219-0.875-8.0156-2.7344z"/>
</defs>
<g transform="translate(371.82 216.17) scale(.1 -.1)">
<use xlink:href="#b"/>
<use x="63.623047" xlink:href="#d"/>
<use x="95.410156" xlink:href="#x"/>
</g>
</g>
<g clip-path="url(#a)">
<defs>
<path id="w" d="m33.016 40.375q-6.6406 0-10.531-4.5469-3.875-4.5312-3.875-12.438 0-7.8594 3.875-12.438 3.8906-4.5625 10.531-4.5625t10.516 4.5625q3.875 4.5781 3.875 12.438 0 7.9062-3.875 12.438-3.875 4.5469-10.516 4.5469zm19.578 30.922v-8.9844q-3.7188 1.75-7.5 2.6719-3.7812 0.9375-7.5 0.9375-9.7656 0-14.922-6.5938-5.1406-6.5938-5.875-19.922 2.875 4.25 7.2188 6.5156 4.3594 2.2656 9.5781 2.2656 10.984 0 17.359-6.6719 6.375-6.6562 6.375-18.125 0-11.234-6.6406-18.031-6.6406-6.7812-17.672-6.7812-12.656 0-19.344 9.6875-6.6875 9.7031-6.6875 28.109 0 17.281 8.2031 27.562t22.016 10.281q3.7188 0 7.5-0.73438t7.8906-2.1875z"/>
</defs>
<g transform="translate(472.93 216.17) scale(.1 -.1)">
<use xlink:href="#b"/>
<use x="63.623047" xlink:href="#d"/>
<use x="95.410156" xlink:href="#w"/>
</g>
</g>
<g clip-path="url(#a)">
<defs>
<path id="v" d="m8.2031 72.906h46.875v-4.2031l-26.469-68.703h-10.297l24.906 64.594h-35.016z"/>
</defs>
<g transform="translate(523.48 216.17) scale(.1 -.1)">
<use xlink:href="#b"/>
<use x="63.623047" xlink:href="#d"/>
<use x="95.410156" xlink:href="#v"/>
</g>
</g>
<g clip-path="url(#a)">
<g transform="translate(17.947 216.17) scale(.1 -.1)">
<use xlink:href="#b"/>
<use x="63.623047" xlink:href="#d"/>
<use x="95.410156" xlink:href="#r"/>
</g>
</g>
<g clip-path="url(#a)">
<defs>
<path id="ah" d="m31.781 66.406q-7.6094 0-11.453-7.5-3.8281-7.4844-3.8281-22.531 0-14.984 3.8281-22.484 3.8438-7.5 11.453-7.5 7.6719 0 11.5 7.5 3.8438 7.5 3.8438 22.484 0 15.047-3.8438 22.531-3.8281 7.5-11.5 7.5zm0 7.8125q12.266 0 18.734-9.7031 6.4688-9.6875 6.4688-28.141 0-18.406-6.4688-28.109-6.4688-9.6875-18.734-9.6875-12.25 0-18.719 9.6875-6.4688 9.7031-6.4688 28.109 0 18.453 6.4688 28.141 6.4688 9.7031 18.719 9.7031z"/>
</defs>
<g transform="translate(65.32 216.17) scale(.1 -.1)">
<use xlink:href="#b"/>
<use x="63.623047" xlink:href="#d"/>
<use x="95.410156" xlink:href="#b"/>
<use x="159.033203" xlink:href="#ah"/>
</g>
</g>
<g clip-path="url(#a)">
<g transform="translate(200.13 150.97) scale(.1 -.1)">
<use xlink:href="#b"/>
<use x="63.623047" xlink:href="#d"/>
<use x="95.410156" xlink:href="#b"/>
<use x="159.033203" xlink:href="#b"/>
</g>
</g>
<g clip-path="url(#a)">
<g transform="translate(166.43 216.17) scale(.1 -.1)">
<use xlink:href="#b"/>
<use x="63.623047" xlink:href="#d"/>
<use x="95.410156" xlink:href="#b"/>
<use x="159.033203" xlink:href="#z"/>
</g>
</g>
<g clip-path="url(#a)">
<g transform="translate(115.87 216.17) scale(.1 -.1)">
<use xlink:href="#b"/>
<use x="63.623047" xlink:href="#d"/>
<use x="95.410156" xlink:href="#b"/>
<use x="159.033203" xlink:href="#y"/>
</g>
</g>
<g clip-path="url(#a)">
<defs>
<path id="ag" d="m37.797 64.312-24.906-38.922h24.906zm-2.5938 8.5938h12.406v-47.516h10.406v-8.2031h-10.406v-17.188h-9.8125v17.188h-32.906v9.5156z"/>
</defs>
<g transform="translate(216.98 216.17) scale(.1 -.1)">
<use xlink:href="#b"/>
<use x="63.623047" xlink:href="#d"/>
<use x="95.410156" xlink:href="#b"/>
<use x="159.033203" xlink:href="#ag"/>
</g>
</g>
<g clip-path="url(#a)">
<g transform="translate(267.53 216.17) scale(.1 -.1)">
<use xlink:href="#b"/>
<use x="63.623047" xlink:href="#d"/>
<use x="95.410156" xlink:href="#b"/>
<use x="159.033203" xlink:href="#x"/>
</g>
</g>
<g clip-path="url(#a)">
<g transform="translate(318.09 216.17) scale(.1 -.1)">
<use xlink:href="#b"/>
<use x="63.623047" xlink:href="#d"/>
<use x="95.410156" xlink:href="#b"/>
<use x="159.033203" xlink:href="#w"/>
</g>
</g>
<g clip-path="url(#a)">
<g transform="translate(419.19 216.17) scale(.1 -.1)">
<use xlink:href="#b"/>
<use x="63.623047" xlink:href="#d"/>
<use x="95.410156" xlink:href="#b"/>
<use x="159.033203" xlink:href="#v"/>
</g>
</g>
<defs>
<clipPath id="a">
<rect width="557.33" height="293.33"/>
</clipPath>
</defs>
</svg>
