<?xml version="1.0" encoding="UTF-8"?>
<!DOCTYPE svg  PUBLIC '-//W3C//DTD SVG 1.1//EN'  'http://www.w3.org/Graphics/SVG/1.1/DTD/svg11.dtd'>
<svg width="1317.3pt" height="693.33pt" version="1.1" viewBox="0 0 1317.3 693.33" xmlns="http://www.w3.org/2000/svg" xmlns:xlink="http://www.w3.org/1999/xlink">
<defs>
<style type="text/css">*{stroke-linecap:butt;stroke-linejoin:round;white-space:pre;}</style>
</defs>
<path d="m0 693.33h1317.3v-693.33h-1317.3z" fill="#fff"/>
<g fill="none" stroke="#000">
<path d="m549.64 32.622-489.55 505.04" clip-path="url(#a)"/>
<path d="m549.64 32.622-400.88 505.04" clip-path="url(#a)"/>
<path d="m549.64 32.622 156.13 130.06" clip-path="url(#a)"/>
<path d="m549.64 32.622 86.854 505.04" clip-path="url(#a)"/>
<path d="m549.64 32.622 338.11 130.06" clip-path="url(#a)"/>
<path d="m549.64 32.622 401.66 257.23" clip-path="url(#a)"/>
<path d="m549.64 32.622-445.22 505.04" clip-path="url(#a)"/>
<path d="m549.64 32.622 352.89 505.04" clip-path="url(#a)"/>
<path d="m60.089 537.66v123.05" clip-path="url(#a)"/>
<path d="m148.77 537.66v123.05" clip-path="url(#a)"/>
<path d="m705.78 162.68 241.09 374.98" clip-path="url(#a)" stroke-dasharray="3.7,1.6"/>
<path d="m705.78 162.68 551.47 498.03" clip-path="url(#a)"/>
<path d="m705.78 162.68-512.67 374.98" clip-path="url(#a)"/>
<path d="m705.78 162.68-279.89 127.16" clip-path="url(#a)"/>
<path d="m636.5 537.66v123.05" clip-path="url(#a)"/>
<path d="m887.75 162.68 325.15 498.03" clip-path="url(#a)"/>
<path d="m887.75 162.68-206.92 374.98" clip-path="url(#a)"/>
<path d="m887.75 162.68-118.24 127.16" clip-path="url(#a)"/>
<path d="m951.3 289.85-4.4339 247.81" clip-path="url(#a)"/>
<path d="m951.3 289.85 39.905 247.81" clip-path="url(#a)"/>
<path d="m951.3 289.85 84.244 247.81" clip-path="url(#a)"/>
<path d="m951.3 289.85-119.72 124.76" clip-path="url(#a)"/>
<path d="m946.87 537.66v123.05" clip-path="url(#a)"/>
<path d="m991.21 537.66v123.05" clip-path="url(#a)"/>
<path d="m1035.5 537.66v123.05" clip-path="url(#a)"/>
<path d="m831.59 414.61 248.3 123.05" clip-path="url(#a)"/>
<path d="m831.59 414.61 292.64 123.05" clip-path="url(#a)"/>
<path d="m831.59 414.61-638.48 123.05" clip-path="url(#a)" stroke-dasharray="3.7,1.6"/>
<path d="m831.59 414.61-239.43 123.05" clip-path="url(#a)" stroke-dasharray="3.7,1.6"/>
<path d="m831.59 414.61 336.98 123.05" clip-path="url(#a)"/>
<path d="m1079.9 537.66v123.05" clip-path="url(#a)"/>
<path d="m1124.2 537.66v123.05" clip-path="url(#a)"/>
<path d="m680.84 537.66v123.05" clip-path="url(#a)"/>
<path d="m769.51 289.85-44.339 247.81" clip-path="url(#a)"/>
<path d="m769.51 289.85 44.339 124.76" clip-path="url(#a)"/>
<path d="m725.18 537.66v123.05" clip-path="url(#a)"/>
<path d="m813.85 414.61-44.339 123.05" clip-path="url(#a)"/>
<path d="m813.85 414.61v123.05" clip-path="url(#a)"/>
<path d="m813.85 414.61 44.339 123.05" clip-path="url(#a)"/>
<path d="m769.51 537.66v123.05" clip-path="url(#a)"/>
<path d="m813.85 537.66v123.05" clip-path="url(#a)"/>
<path d="m858.19 537.66v123.05" clip-path="url(#a)"/>
<path d="m193.11 537.66v123.05" clip-path="url(#a)"/>
<path d="m425.89 289.85-188.44 247.81" clip-path="url(#a)"/>
<path d="m425.89 289.85 11.085 124.76" clip-path="url(#a)"/>
<path d="m425.89 289.85-77.593 124.76" clip-path="url(#a)"/>
<path d="m425.89 289.85 99.763 124.76" clip-path="url(#a)"/>
<path d="m425.89 289.85 166.27 247.81" clip-path="url(#a)"/>
<path d="m425.89 289.85-11.085 247.81" clip-path="url(#a)"/>
<path d="m237.45 537.66v123.05" clip-path="url(#a)"/>
<path d="m436.97 414.61 155.19 123.05" clip-path="url(#a)" stroke-dasharray="3.7,1.6"/>
<path d="m436.97 414.61-155.19 123.05" clip-path="url(#a)"/>
<path d="m348.29 414.61-22.17 123.05" clip-path="url(#a)"/>
<path d="m348.29 414.61 22.17 123.05" clip-path="url(#a)"/>
<path d="m525.65 414.61 66.509 123.05" clip-path="url(#a)" stroke-dasharray="3.7,1.6"/>
<path d="m525.65 414.61-66.509 123.05" clip-path="url(#a)"/>
<path d="m525.65 414.61-22.17 123.05" clip-path="url(#a)"/>
<path d="m525.65 414.61 22.17 123.05" clip-path="url(#a)"/>
<path d="m592.16 537.66v123.05" clip-path="url(#a)"/>
<path d="m459.14 537.66v123.05" clip-path="url(#a)"/>
<path d="m503.48 537.66v123.05" clip-path="url(#a)"/>
<path d="m104.43 537.66v123.05" clip-path="url(#a)"/>
<path d="m326.12 537.66v123.05" clip-path="url(#a)"/>
<path d="m370.46 537.66v123.05" clip-path="url(#a)"/>
<path d="m281.78 537.66v123.05" clip-path="url(#a)"/>
<path d="m414.8 537.66v123.05" clip-path="url(#a)"/>
<path d="m547.82 537.66v123.05" clip-path="url(#a)"/>
<path d="m902.53 537.66v123.05" clip-path="url(#a)"/>
<path d="m1168.6 537.66v123.05" clip-path="url(#a)"/>
</g>
<path d="m307.82 291.11 3.1025-3.2006q1.6704-1.7233-0.052836-3.3937l-5.5593-5.3889q-1.7233-1.6704-3.3937 0.052836l-3.1025 3.2006q-1.6704 1.7233 0.052836 3.3937l5.5593 5.3889q1.7233 1.6704 3.3937-0.052836z" clip-path="url(#a)" fill="#fff" stroke="#fff"/>
<g clip-path="url(#a)">
<defs>
<path id="v" d="m9.8125 72.906h9.8594v-64.609h35.5v-8.2969h-45.359z"/>
</defs>
<g transform="translate(304.9 288.28) rotate(-45.892) scale(.08 -.08)">
<use xlink:href="#v"/>
</g>
</g>
<path d="m352.73 290.79 2.7713-3.4913q1.4921-1.8798-0.3877-3.3719l-6.0643-4.8136q-1.8798-1.4921-3.3719 0.3877l-2.7713 3.4913q-1.4921 1.8798 0.3877 3.3719l6.0643 4.8136q1.8798 1.4921 3.3719-0.3877z" clip-path="url(#a)" fill="#fff" stroke="#fff"/>
<g clip-path="url(#a)">
<g transform="translate(349.55 288.26) rotate(-51.559) scale(.08 -.08)">
<use xlink:href="#v"/>
</g>
</g>
<path d="m621.38 100.55 4.6225 3.8506q1.844 1.5361 3.3801-0.30792l4.9555-5.9489q1.5361-1.844-0.30792-3.3801l-4.6225-3.8506q-1.844-1.5361-3.3801 0.30792l-4.9555 5.9489q-1.5361 1.844 0.30792 3.3801z" clip-path="url(#a)" fill="#fff" stroke="#fff"/>
<g clip-path="url(#a)">
<defs>
<path id="ab" d="m9.8125 72.906h9.8594v-29.891h35.844v29.891h9.8594v-72.906h-9.8594v34.719h-35.844v-34.719h-9.8594z"/>
</defs>
<g transform="translate(623.99 97.424) rotate(39.795) scale(.08 -.08)">
<use xlink:href="#ab"/>
</g>
</g>
<path d="m586.51 284.01 0.75549 4.393q0.40677 2.3653 2.772 1.9585l7.6305-1.3122q2.3653-0.40677 1.9585-2.772l-0.75549-4.393q-0.40677-2.3653-2.772-1.9585l-7.6305 1.3122q-2.3653 0.40677-1.9585 2.772z" clip-path="url(#a)" fill="#fff" stroke="#fff"/>
<g clip-path="url(#a)">
<g transform="translate(590.52 283.32) rotate(80.242) scale(.08 -.08)">
<use xlink:href="#v"/>
</g>
</g>
<path d="m713.64 102.43 5.6151 2.16q2.24 0.86167 3.1017-1.3783l2.7798-7.2263q0.86167-2.24-1.3783-3.1017l-5.6151-2.16q-2.24-0.86167-3.1017 1.3783l-2.7798 7.2263q-0.86167 2.24 1.3783 3.1017z" clip-path="url(#a)" fill="#fff" stroke="#fff"/>
<g clip-path="url(#a)">
<g transform="translate(715.1 98.633) rotate(21.04) scale(.08 -.08)">
<use xlink:href="#ab"/>
</g>
</g>
<path d="m744.56 164.89 5.0664 3.2445q2.0211 1.2943 3.3154-0.72677l4.1755-6.5201q1.2943-2.0211-0.72677-3.3154l-5.0664-3.2445q-2.0211-1.2943-3.3154 0.72677l-4.1755 6.5201q-1.2943 2.0211 0.72677 3.3154z" clip-path="url(#a)" fill="#fff" stroke="#fff"/>
<g clip-path="url(#a)">
<g transform="translate(746.75 161.47) rotate(32.636) scale(.08 -.08)">
<use xlink:href="#ab"/>
</g>
</g>
<path d="m329.8 291.48 3.8718-4.3921q1.5871-1.8003-0.21326-3.3874l-5.8079-5.12q-1.8003-1.5871-3.3874 0.21326l-3.8718 4.3921q-1.5871 1.8003 0.21326 3.3874l5.8079 5.12q1.8003 1.5871 3.3874-0.21326z" clip-path="url(#a)" fill="#fff" stroke="#fff"/>
<g clip-path="url(#a)">
<defs>
<path id="t" d="m8.6875 72.906h9.9219v-44.297q0-11.719 4.2344-16.875 4.25-5.1406 13.781-5.1406 9.4688 0 13.719 5.1406 4.25 5.1562 4.25 16.875v44.297h9.9062v-45.516q0-14.25-7.0625-21.531-7.0469-7.2812-20.812-7.2812-13.828 0-20.891 7.2812-7.0469 7.2812-7.0469 21.531z"/>
</defs>
<g transform="translate(326.76 288.8) rotate(-48.602) scale(.08 -.08)">
<use xlink:href="#t"/>
</g>
</g>
<path d="m719.27 286.33 3.3535 4.7995q1.3746 1.9673 3.342 0.59269l6.3467-4.4346q1.9673-1.3746 0.59269-3.342l-3.3535-4.7995q-1.3746-1.9673-3.342-0.59269l-6.3467 4.4346q-1.9673 1.3746-0.59269 3.342z" clip-path="url(#a)" fill="#fff" stroke="#fff"/>
<g clip-path="url(#a)">
<g transform="translate(722.6 284.01) rotate(55.057) scale(.08 -.08)">
<use xlink:href="#t"/>
</g>
</g>
<path d="m53.817 581.54v35.285q0 2.4 2.4 2.4h7.7425q2.4 0 2.4-2.4v-35.285q0-2.4-2.4-2.4h-7.7425q-2.4 0-2.4 2.4z" clip-path="url(#a)" fill="#fff" stroke="#fff"/>
<g clip-path="url(#a)">
<defs>
<path id="j" d="m-0.29688 72.906h61.672v-8.3125h-25.875v-64.594h-9.9062v64.594h-25.891z"/>
<path id="e" d="m56.203 29.594v-4.3906h-41.312q0.59375-9.2812 5.5938-14.141t13.938-4.8594q5.1719 0 10.031 1.2656t9.6562 3.8125v-8.5q-4.8438-2.0469-9.9219-3.125t-10.297-1.0781q-13.094 0-20.734 7.6094-7.6406 7.625-7.6406 20.625 0 13.422 7.25 21.297 7.25 7.8906 19.562 7.8906 11.031 0 17.453-7.1094 6.4219-7.0938 6.4219-19.297zm-8.9844 2.6406q-0.09375 7.3594-4.125 11.75-4.0312 4.4062-10.672 4.4062-7.5156 0-12.031-4.25t-5.2031-11.969z"/>
<path id="f" d="m41.109 46.297q-1.5156 0.875-3.2969 1.2812-1.7812 0.42188-3.9219 0.42188-7.625 0-11.703-4.9531t-4.0781-14.234v-28.812h-9.0312v54.688h9.0312v-8.5q2.8438 4.9844 7.375 7.3906 4.5469 2.4219 11.047 2.4219 0.92188 0 2.0469-0.125 1.125-0.10938 2.4844-0.35938z"/>
<path id="l" d="m52 44.188q3.375 6.0625 8.0625 8.9375t11.031 2.875q8.5469 0 13.188-5.9844 4.6406-5.9688 4.6406-17v-33.016h-9.0312v32.719q0 7.8594-2.7969 11.656-2.7812 3.8125-8.4844 3.8125-6.9844 0-11.047-4.6406-4.0469-4.625-4.0469-12.641v-30.906h-9.0312v32.719q0 7.9062-2.7812 11.688t-8.5938 3.7812q-6.8906 0-10.953-4.6562-4.0469-4.6562-4.0469-12.625v-30.906h-9.0312v54.688h9.0312v-8.5q3.0781 5.0312 7.375 7.4219t10.203 2.3906q5.9688 0 10.141-3.0312 4.1719-3.0156 6.1719-8.7812z"/>
<path id="g" d="m9.4219 54.688h8.9844v-54.688h-8.9844zm0 21.297h8.9844v-11.391h-8.9844z"/>
<path id="i" d="m54.891 33.016v-33.016h-8.9844v32.719q0 7.7656-3.0312 11.609-3.0312 3.8594-9.0781 3.8594-7.2812 0-11.484-4.6406-4.2031-4.625-4.2031-12.641v-30.906h-9.0312v54.688h9.0312v-8.5q3.2344 4.9375 7.5938 7.375 4.375 2.4375 10.094 2.4375 9.4219 0 14.25-5.8281 4.8438-5.8281 4.8438-17.156z"/>
<path id="h" d="m34.281 27.484q-10.891 0-15.094-2.4844t-4.2031-8.5q0-4.7812 3.1562-7.5938 3.1562-2.7969 8.5625-2.7969 7.4844 0 12 5.2969t4.5156 14.078v2zm17.922 3.7188v-31.203h-8.9844v8.2969q-3.0781-4.9688-7.6719-7.3438t-11.234-2.375q-8.3906 0-13.359 4.7188-4.9531 4.7188-4.9531 12.625 0 9.2188 6.1719 13.906 6.1875 4.6875 18.438 4.6875h12.609v0.89062q0 6.2031-4.0781 9.5938t-11.453 3.3906q-4.6875 0-9.1406-1.125-4.4375-1.125-8.5312-3.375v8.3125q4.9219 1.9062 9.5625 2.8438 4.6406 0.95312 9.0312 0.95312 11.875 0 17.734-6.1562 5.8594-6.1406 5.8594-18.641z"/>
<path id="k" d="m9.4219 75.984h8.9844v-75.984h-8.9844z"/>
</defs>
<g transform="translate(57.881 581.54) rotate(90) scale(.08 -.08)">
<use xlink:href="#j"/>
<use x="60.818359" xlink:href="#e"/>
<use x="122.341797" xlink:href="#f"/>
<use x="163.439453" xlink:href="#l"/>
<use x="260.851562" xlink:href="#g"/>
<use x="288.634766" xlink:href="#i"/>
<use x="352.013672" xlink:href="#h"/>
<use x="413.292969" xlink:href="#k"/>
</g>
</g>
<path d="m142.5 581.54v35.285q0 2.4 2.4 2.4h7.7425q2.4 0 2.4-2.4v-35.285q0-2.4-2.4-2.4h-7.7425q-2.4 0-2.4 2.4z" clip-path="url(#a)" fill="#fff" stroke="#fff"/>
<g clip-path="url(#a)">
<g transform="translate(146.56 581.54) rotate(90) scale(.08 -.08)">
<use xlink:href="#j"/>
<use x="60.818359" xlink:href="#e"/>
<use x="122.341797" xlink:href="#f"/>
<use x="163.439453" xlink:href="#l"/>
<use x="260.851562" xlink:href="#g"/>
<use x="288.634766" xlink:href="#i"/>
<use x="352.013672" xlink:href="#h"/>
<use x="413.292969" xlink:href="#k"/>
</g>
</g>
<path d="m819.57 351.26 2.9596 4.6031q1.298 2.0187 3.3167 0.72078l6.5125-4.1873q2.0187-1.298 0.72078-3.3167l-2.9596-4.6031q-1.298-2.0187-3.3167-0.72078l-6.5125 4.1873q-2.0187 1.298-0.72078 3.3167z" clip-path="url(#a)" fill="#fff" stroke="#fff"/>
<g clip-path="url(#a)">
<defs>
<path id="o" d="m34.188 63.188-13.391-36.281h26.812zm-5.5781 9.7188h11.188l27.781-72.906h-10.25l-6.6406 18.703h-32.859l-6.6406-18.703h-10.406z"/>
</defs>
<g transform="translate(822.99 349.06) rotate(57.261) scale(.08 -.08)">
<use xlink:href="#o"/>
</g>
</g>
<path d="m975.28 414.52 4.0614 3.6678q1.7812 1.6086 3.3897-0.1726l5.1893-5.7461q1.6086-1.7812-0.1726-3.3897l-4.0614-3.6678q-1.7812-1.6086-3.3897 0.1726l-5.1893 5.7461q-1.6086 1.7812 0.1726 3.3897z" clip-path="url(#a)" fill="#fff" stroke="#fff"/>
<g clip-path="url(#a)">
<g transform="translate(978 411.5) rotate(42.085) scale(.08 -.08)">
<use xlink:href="#o"/>
</g>
</g>
<path d="m451.2 356.66 3.8934-2.8477q1.9371-1.4169 0.52028-3.354l-4.5708-6.2493q-1.4169-1.9371-3.354-0.52028l-3.8934 2.8477q-1.9371 1.4169-0.52028 3.354l4.5708 6.2493q1.4169 1.9371 3.354 0.52028z" clip-path="url(#a)" fill="#fff" stroke="#fff"/>
<g clip-path="url(#a)">
<defs>
<path id="u" d="m19.672 64.797v-27.391h12.406q6.8906 0 10.641 3.5625 3.7656 3.5625 3.7656 10.156 0 6.5469-3.7656 10.109-3.75 3.5625-10.641 3.5625zm-9.8594 8.1094h22.266q12.266 0 18.531-5.5469 6.2812-5.5469 6.2812-16.234 0-10.797-6.2812-16.312-6.2656-5.5156-18.531-5.5156h-12.406v-29.297h-9.8594z"/>
</defs>
<g transform="translate(448.8 353.38) rotate(-36.182) scale(.08 -.08)">
<use xlink:href="#u"/>
</g>
</g>
<path d="m565.93 233.11 4.9824-2.2637q2.1851-0.99275 1.1923-3.1778l-3.2026-7.0491q-0.99275-2.1851-3.1778-1.1923l-4.9824 2.2637q-2.1851 0.99275-1.1923 3.1778l3.2026 7.0491q0.99275 2.1851 3.1778 1.1923z" clip-path="url(#a)" fill="#fff" stroke="#fff"/>
<g clip-path="url(#a)">
<g transform="translate(564.25 229.41) rotate(-24.434) scale(.08 -.08)">
<use xlink:href="#o"/>
</g>
</g>
<path d="m630.23 581.54v35.285q0 2.4 2.4 2.4h7.7425q2.4 0 2.4-2.4v-35.285q0-2.4-2.4-2.4h-7.7425q-2.4 0-2.4 2.4z" clip-path="url(#a)" fill="#fff" stroke="#fff"/>
<g clip-path="url(#a)">
<g transform="translate(634.29 581.54) rotate(90) scale(.08 -.08)">
<use xlink:href="#j"/>
<use x="60.818359" xlink:href="#e"/>
<use x="122.341797" xlink:href="#f"/>
<use x="163.439453" xlink:href="#l"/>
<use x="260.851562" xlink:href="#g"/>
<use x="288.634766" xlink:href="#i"/>
<use x="352.013672" xlink:href="#h"/>
<use x="413.292969" xlink:href="#k"/>
</g>
</g>
<path d="m1043.6 412.83 2.9917 4.5823q1.312 2.0096 3.3217 0.69757l6.4831-4.2327q2.0096-1.312 0.69757-3.3217l-2.9917-4.5823q-1.312-2.0096-3.3217-0.69757l-6.4831 4.2327q-2.0096 1.312-0.69757 3.3217z" clip-path="url(#a)" fill="#fff" stroke="#fff"/>
<g clip-path="url(#a)">
<g transform="translate(1047 410.61) rotate(56.86) scale(.08 -.08)">
<use xlink:href="#o"/>
</g>
</g>
<path d="m788.62 355.31 2.3305-4.2234q1.1595-2.1013-0.94179-3.2608l-6.7789-3.7407q-2.1013-1.1595-3.2608 0.94179l-2.3305 4.2234q-1.1595 2.1013 0.94179 3.2608l6.7789 3.7407q2.1013 1.1595 3.2608-0.94179z" clip-path="url(#a)" fill="#fff" stroke="#fff"/>
<g clip-path="url(#a)">
<g transform="translate(785.06 353.35) rotate(-61.11) scale(.08 -.08)">
<use xlink:href="#u"/>
</g>
</g>
<path d="m831.36 232.54 3.7264-4.0078q1.6342-1.7576-0.12339-3.3919l-5.6702-5.2721q-1.7576-1.6342-3.3919 0.12339l-3.7264 4.0078q-1.6342 1.7576 0.12339 3.3919l5.6702 5.2721q1.7576 1.6342 3.3919-0.12339z" clip-path="url(#a)" fill="#fff" stroke="#fff"/>
<g clip-path="url(#a)">
<g transform="translate(828.39 229.77) rotate(-47.083) scale(.08 -.08)">
<use xlink:href="#o"/>
</g>
</g>
<path d="m955.31 416.6 0.097899-5.4716q0.042934-2.3996-2.3567-2.4426l-7.7413-0.13851q-2.3996-0.042935-2.4426 2.3567l-0.097899 5.4716q-0.042935 2.3996 2.3567 2.4426l7.7413 0.13851q2.3996 0.042934 2.4426-2.3567z" clip-path="url(#a)" fill="#fff" stroke="#fff"/>
<g clip-path="url(#a)">
<g transform="translate(951.25 416.53) rotate(-88.975) scale(.08 -.08)">
<use xlink:href="#o"/>
</g>
</g>
<path d="m964.7 412.48 0.73151 4.5427q0.38156 2.3695 2.751 1.9879l7.644-1.2309q2.3695-0.38156 1.9879-2.751l-0.73151-4.5427q-0.38156-2.3695-2.751-1.9879l-7.644 1.2309q-2.3695 0.38156-1.9879 2.751z" clip-path="url(#a)" fill="#fff" stroke="#fff"/>
<g clip-path="url(#a)">
<defs>
<path id="ac" d="m9.8125 72.906h41.891v-8.3125h-32.031v-21.484h28.906v-8.2969h-28.906v-34.812h-9.8594z"/>
</defs>
<g transform="translate(968.71 411.83) rotate(80.852) scale(.08 -.08)">
<use xlink:href="#ac"/>
</g>
</g>
<path d="m986.71 413.49 1.5526 4.5671q0.77247 2.2723 3.0448 1.4998l7.3305-2.492q2.2723-0.77247 1.4998-3.0448l-1.5526-4.5671q-0.77247-2.2723-3.0448-1.4998l-7.3305 2.492q-2.2723 0.77247-1.4998 3.0448z" clip-path="url(#a)" fill="#fff" stroke="#fff"/>
<g clip-path="url(#a)">
<g transform="translate(990.56 412.18) rotate(71.224) scale(.08 -.08)">
<use xlink:href="#u"/>
</g>
</g>
<path d="m894.08 358.55 3.789-3.9487q1.6617-1.7317-0.070048-3.3934l-5.5866-5.3606q-1.7317-1.6617-3.3934 0.070048l-3.789 3.9487q-1.6617 1.7317 0.070047 3.3934l5.5866 5.3606q1.7317 1.6617 3.3934-0.070048z" clip-path="url(#a)" fill="#fff" stroke="#fff"/>
<g clip-path="url(#a)">
<g transform="translate(891.15 355.73) rotate(-46.183) scale(.08 -.08)">
<use xlink:href="#o"/>
</g>
</g>
<path d="m940.6 581.54v35.285q0 2.4 2.4 2.4h7.7425q2.4 0 2.4-2.4v-35.285q0-2.4-2.4-2.4h-7.7425q-2.4 0-2.4 2.4z" clip-path="url(#a)" fill="#fff" stroke="#fff"/>
<g clip-path="url(#a)">
<g transform="translate(944.66 581.54) rotate(90) scale(.08 -.08)">
<use xlink:href="#j"/>
<use x="60.818359" xlink:href="#e"/>
<use x="122.341797" xlink:href="#f"/>
<use x="163.439453" xlink:href="#l"/>
<use x="260.851562" xlink:href="#g"/>
<use x="288.634766" xlink:href="#i"/>
<use x="352.013672" xlink:href="#h"/>
<use x="413.292969" xlink:href="#k"/>
</g>
</g>
<path d="m984.94 581.54v35.285q0 2.4 2.4 2.4h7.7425q2.4 0 2.4-2.4v-35.285q0-2.4-2.4-2.4h-7.7425q-2.4 0-2.4 2.4z" clip-path="url(#a)" fill="#fff" stroke="#fff"/>
<g clip-path="url(#a)">
<g transform="translate(989 581.54) rotate(90) scale(.08 -.08)">
<use xlink:href="#j"/>
<use x="60.818359" xlink:href="#e"/>
<use x="122.341797" xlink:href="#f"/>
<use x="163.439453" xlink:href="#l"/>
<use x="260.851562" xlink:href="#g"/>
<use x="288.634766" xlink:href="#i"/>
<use x="352.013672" xlink:href="#h"/>
<use x="413.292969" xlink:href="#k"/>
</g>
</g>
<path d="m1029.3 581.54v35.285q0 2.4 2.4 2.4h7.7425q2.4 0 2.4-2.4v-35.285q0-2.4-2.4-2.4h-7.7425q-2.4 0-2.4 2.4z" clip-path="url(#a)" fill="#fff" stroke="#fff"/>
<g clip-path="url(#a)">
<g transform="translate(1033.3 581.54) rotate(90) scale(.08 -.08)">
<use xlink:href="#j"/>
<use x="60.818359" xlink:href="#e"/>
<use x="122.341797" xlink:href="#f"/>
<use x="163.439453" xlink:href="#l"/>
<use x="260.851562" xlink:href="#g"/>
<use x="288.634766" xlink:href="#i"/>
<use x="352.013672" xlink:href="#h"/>
<use x="413.292969" xlink:href="#k"/>
</g>
</g>
<path d="m950.5 480.54 4.9034 2.43q2.1504 1.0657 3.2161-1.0847l3.438-6.9373q1.0657-2.1504-1.0847-3.2161l-4.9034-2.43q-2.1504-1.0657-3.2161 1.0847l-3.438 6.9373q-1.0657 2.1504 1.0847 3.2161z" clip-path="url(#a)" fill="#fff" stroke="#fff"/>
<g clip-path="url(#a)">
<g transform="translate(952.31 476.9) rotate(26.362) scale(.08 -.08)">
<use xlink:href="#o"/>
</g>
</g>
<path d="m973.36 481.03 4.2415 1.7835q2.2124 0.93027 3.1426-1.2821l3.0011-7.1372q0.93027-2.2124-1.2821-3.1426l-4.2415-1.7835q-2.2124-0.93027-3.1426 1.2821l-3.0011 7.1372q-0.93027 2.2124 1.2821 3.1426z" clip-path="url(#a)" fill="#fff" stroke="#fff"/>
<g clip-path="url(#a)">
<g transform="translate(974.93 477.28) rotate(22.806) scale(.08 -.08)">
<use xlink:href="#ac"/>
</g>
</g>
<path d="m511.17 482.75 4.7366-0.91285q2.3566-0.45418 1.9025-2.8108l-1.4652-7.6026q-0.45418-2.3566-2.8108-1.9025l-4.7366 0.91285q-2.3566 0.45418-1.9025 2.8108l1.4652 7.6026q0.45418 2.3566 2.8108 1.9025z" clip-path="url(#a)" fill="#fff" stroke="#fff"/>
<g clip-path="url(#a)">
<g transform="translate(510.4 478.76) rotate(-10.908) scale(.08 -.08)">
<use xlink:href="#u"/>
</g>
</g>
<path d="m712.31 482.96 4.8673-2.5015q2.1346-1.097 1.0376-3.2316l-3.5391-6.8863q-1.097-2.1346-3.2316-1.0376l-4.8673 2.5015q-2.1346 1.097-1.0376 3.2316l3.5391 6.8863q1.097 2.1346 3.2316 1.0376z" clip-path="url(#a)" fill="#fff" stroke="#fff"/>
<g clip-path="url(#a)">
<g transform="translate(710.45 479.35) rotate(-27.2) scale(.08 -.08)">
<use xlink:href="#o"/>
</g>
</g>
<path d="m995.18 481.02 5.4998 2.0083q2.2544 0.82322 3.0776-1.4312l2.6557-7.2728q0.82322-2.2544-1.4312-3.0776l-5.4998-2.0083q-2.2544-0.82322-3.0776 1.4312l-2.6557 7.2728q-0.82322 2.2544 1.4312 3.0776z" clip-path="url(#a)" fill="#fff" stroke="#fff"/>
<g clip-path="url(#a)">
<g transform="translate(996.57 477.21) rotate(20.06) scale(.08 -.08)">
<use xlink:href="#t"/>
</g>
</g>
<path d="m1073.6 581.54v35.285q0 2.4 2.4 2.4h7.7425q2.4 0 2.4-2.4v-35.285q0-2.4-2.4-2.4h-7.7425q-2.4 0-2.4 2.4z" clip-path="url(#a)" fill="#fff" stroke="#fff"/>
<g clip-path="url(#a)">
<g transform="translate(1077.7 581.54) rotate(90) scale(.08 -.08)">
<use xlink:href="#j"/>
<use x="60.818359" xlink:href="#e"/>
<use x="122.341797" xlink:href="#f"/>
<use x="163.439453" xlink:href="#l"/>
<use x="260.851562" xlink:href="#g"/>
<use x="288.634766" xlink:href="#i"/>
<use x="352.013672" xlink:href="#h"/>
<use x="413.292969" xlink:href="#k"/>
</g>
</g>
<path d="m1118 581.54v35.285q0 2.4 2.4 2.4h7.7425q2.4 0 2.4-2.4v-35.285q0-2.4-2.4-2.4h-7.7425q-2.4 0-2.4 2.4z" clip-path="url(#a)" fill="#fff" stroke="#fff"/>
<g clip-path="url(#a)">
<g transform="translate(1122 581.54) rotate(90) scale(.08 -.08)">
<use xlink:href="#j"/>
<use x="60.818359" xlink:href="#e"/>
<use x="122.341797" xlink:href="#f"/>
<use x="163.439453" xlink:href="#l"/>
<use x="260.851562" xlink:href="#g"/>
<use x="288.634766" xlink:href="#i"/>
<use x="352.013672" xlink:href="#h"/>
<use x="413.292969" xlink:href="#k"/>
</g>
</g>
<path d="m674.56 581.54v35.285q0 2.4 2.4 2.4h7.7425q2.4 0 2.4-2.4v-35.285q0-2.4-2.4-2.4h-7.7425q-2.4 0-2.4 2.4z" clip-path="url(#a)" fill="#fff" stroke="#fff"/>
<g clip-path="url(#a)">
<g transform="translate(678.63 581.54) rotate(90) scale(.08 -.08)">
<use xlink:href="#j"/>
<use x="60.818359" xlink:href="#e"/>
<use x="122.341797" xlink:href="#f"/>
<use x="163.439453" xlink:href="#l"/>
<use x="260.851562" xlink:href="#g"/>
<use x="288.634766" xlink:href="#i"/>
<use x="352.013672" xlink:href="#h"/>
<use x="413.292969" xlink:href="#k"/>
</g>
</g>
<path d="m752.96 417.96 1.1091-6.1991q0.4227-2.3625-1.9398-2.7852l-7.6215-1.3636q-2.3625-0.4227-2.7852 1.9398l-1.1091 6.1991q-0.4227 2.3625 1.9398 2.7852l7.6215 1.3636q2.3625 0.4227 2.7852-1.9398z" clip-path="url(#a)" fill="#fff" stroke="#fff"/>
<g clip-path="url(#a)">
<defs>
<path id="ak" d="m39.406 66.219q-10.75 0-17.078-8.0156-6.3125-8-6.3125-21.828 0-13.766 6.3125-21.781 6.3281-8 17.078-8 10.734 0 17.016 8 6.2812 8.0156 6.2812 21.781 0 13.828-6.2812 21.828-6.2812 8.0156-17.016 8.0156zm13.812-64.906 13-14.203h-11.922l-10.797 11.672q-1.6094-0.09375-2.4688-0.14062-0.84375-0.0625-1.625-0.0625-15.375 0-24.594 10.281-9.2031 10.281-9.2031 27.516 0 17.281 9.2031 27.562 9.2188 10.281 24.594 10.281 15.328 0 24.5-10.281 9.1875-10.281 9.1875-27.562 0-12.688-5.1094-21.734-5.0938-9.0312-14.766-13.328z"/>
</defs>
<g transform="translate(748.96 417.24) rotate(-79.856) scale(.08 -.08)">
<use xlink:href="#ak"/>
</g>
</g>
<path d="m784.84 351.7 1.8707 5.2637q0.80369 2.2614 3.0651 1.4577l7.2955-2.5927q2.2614-0.80369 1.4577-3.0651l-1.8707-5.2637q-0.80369-2.2614-3.0651-1.4577l-7.2955 2.5927q-2.2614 0.80369-1.4577 3.0651z" clip-path="url(#a)" fill="#fff" stroke="#fff"/>
<g clip-path="url(#a)">
<defs>
<path id="r" d="m64.406 67.281v-10.391q-4.9844 4.6406-10.625 6.9219-5.6406 2.2969-11.984 2.2969-12.5 0-19.141-7.6406t-6.6406-22.094q0-14.406 6.6406-22.047t19.141-7.6406q6.3438 0 11.984 2.2969t10.625 6.9375v-10.312q-5.1719-3.5156-10.969-5.2812-5.7812-1.75-12.219-1.75-16.562 0-26.094 10.125-9.5156 10.141-9.5156 27.672 0 17.578 9.5156 27.703 9.5312 10.141 26.094 10.141 6.5312 0 12.312-1.7344 5.7969-1.7344 10.875-5.2031z"/>
</defs>
<g transform="translate(788.67 350.34) rotate(70.435) scale(.08 -.08)">
<use xlink:href="#r"/>
</g>
</g>
<path d="m718.9 581.54v35.285q0 2.4 2.4 2.4h7.7425q2.4 0 2.4-2.4v-35.285q0-2.4-2.4-2.4h-7.7425q-2.4 0-2.4 2.4z" clip-path="url(#a)" fill="#fff" stroke="#fff"/>
<g clip-path="url(#a)">
<g transform="translate(722.97 581.54) rotate(90) scale(.08 -.08)">
<use xlink:href="#j"/>
<use x="60.818359" xlink:href="#e"/>
<use x="122.341797" xlink:href="#f"/>
<use x="163.439453" xlink:href="#l"/>
<use x="260.851562" xlink:href="#g"/>
<use x="288.634766" xlink:href="#i"/>
<use x="352.013672" xlink:href="#h"/>
<use x="413.292969" xlink:href="#k"/>
</g>
</g>
<path d="m796.64 480.89 1.8937-5.2555q0.81359-2.2579-1.4443-3.0715l-7.284-2.6247q-2.2579-0.81359-3.0715 1.4443l-1.8937 5.2555q-0.81359 2.2579 1.4443 3.0715l7.284 2.6247q2.2579 0.81359 3.0715-1.4443z" clip-path="url(#a)" fill="#fff" stroke="#fff"/>
<g clip-path="url(#a)">
<g transform="translate(792.81 479.51) rotate(-70.184) scale(.08 -.08)">
<use xlink:href="#r"/>
</g>
</g>
<path d="m807.58 473.14v5.985q0 2.4 2.4 2.4h7.7425q2.4 0 2.4-2.4v-5.985q0-2.4-2.4-2.4h-7.7425q-2.4 0-2.4 2.4z" clip-path="url(#a)" fill="#fff" stroke="#fff"/>
<g clip-path="url(#a)">
<defs>
<path id="aa" d="m9.8125 72.906h13.281l32.328-60.984v60.984h9.5625v-72.906h-13.281l-32.312 60.984v-60.984h-9.5781z"/>
</defs>
<g transform="translate(811.65 473.14) rotate(90) scale(.08 -.08)">
<use xlink:href="#aa"/>
</g>
</g>
<path d="m829.18 475.63 1.8937 5.2555q0.81359 2.2579 3.0715 1.4443l7.284-2.6247q2.2579-0.81359 1.4443-3.0715l-1.8937-5.2555q-0.81359-2.2579-3.0715-1.4443l-7.284 2.6247q-2.2579 0.81359-1.4443 3.0715z" clip-path="url(#a)" fill="#fff" stroke="#fff"/>
<g clip-path="url(#a)">
<g transform="translate(833 474.26) rotate(70.184) scale(.08 -.08)">
<use xlink:href="#r"/>
</g>
</g>
<path d="m763.24 581.54v35.285q0 2.4 2.4 2.4h7.7425q2.4 0 2.4-2.4v-35.285q0-2.4-2.4-2.4h-7.7425q-2.4 0-2.4 2.4z" clip-path="url(#a)" fill="#fff" stroke="#fff"/>
<g clip-path="url(#a)">
<g transform="translate(767.31 581.54) rotate(90) scale(.08 -.08)">
<use xlink:href="#j"/>
<use x="60.818359" xlink:href="#e"/>
<use x="122.341797" xlink:href="#f"/>
<use x="163.439453" xlink:href="#l"/>
<use x="260.851562" xlink:href="#g"/>
<use x="288.634766" xlink:href="#i"/>
<use x="352.013672" xlink:href="#h"/>
<use x="413.292969" xlink:href="#k"/>
</g>
</g>
<path d="m807.58 581.54v35.285q0 2.4 2.4 2.4h7.7425q2.4 0 2.4-2.4v-35.285q0-2.4-2.4-2.4h-7.7425q-2.4 0-2.4 2.4z" clip-path="url(#a)" fill="#fff" stroke="#fff"/>
<g clip-path="url(#a)">
<g transform="translate(811.65 581.54) rotate(90) scale(.08 -.08)">
<use xlink:href="#j"/>
<use x="60.818359" xlink:href="#e"/>
<use x="122.341797" xlink:href="#f"/>
<use x="163.439453" xlink:href="#l"/>
<use x="260.851562" xlink:href="#g"/>
<use x="288.634766" xlink:href="#i"/>
<use x="352.013672" xlink:href="#h"/>
<use x="413.292969" xlink:href="#k"/>
</g>
</g>
<path d="m851.92 581.54v35.285q0 2.4 2.4 2.4h7.7425q2.4 0 2.4-2.4v-35.285q0-2.4-2.4-2.4h-7.7425q-2.4 0-2.4 2.4z" clip-path="url(#a)" fill="#fff" stroke="#fff"/>
<g clip-path="url(#a)">
<g transform="translate(855.99 581.54) rotate(90) scale(.08 -.08)">
<use xlink:href="#j"/>
<use x="60.818359" xlink:href="#e"/>
<use x="122.341797" xlink:href="#f"/>
<use x="163.439453" xlink:href="#l"/>
<use x="260.851562" xlink:href="#g"/>
<use x="288.634766" xlink:href="#i"/>
<use x="352.013672" xlink:href="#h"/>
<use x="413.292969" xlink:href="#k"/>
</g>
</g>
<path d="m186.83 581.54v35.285q0 2.4 2.4 2.4h7.7425q2.4 0 2.4-2.4v-35.285q0-2.4-2.4-2.4h-7.7425q-2.4 0-2.4 2.4z" clip-path="url(#a)" fill="#fff" stroke="#fff"/>
<g clip-path="url(#a)">
<g transform="translate(190.9 581.54) rotate(90) scale(.08 -.08)">
<use xlink:href="#j"/>
<use x="60.818359" xlink:href="#e"/>
<use x="122.341797" xlink:href="#f"/>
<use x="163.439453" xlink:href="#l"/>
<use x="260.851562" xlink:href="#g"/>
<use x="288.634766" xlink:href="#i"/>
<use x="352.013672" xlink:href="#h"/>
<use x="413.292969" xlink:href="#k"/>
</g>
</g>
<path d="m335.27 419.38 2.7851-3.6626q1.4527-1.9104-0.4577-3.3631l-6.163-4.6865q-1.9104-1.4527-3.3631 0.4577l-2.7851 3.6626q-1.4527 1.9104 0.4577 3.3631l6.163 4.6865q1.9104 1.4527 3.3631-0.4577z" clip-path="url(#a)" fill="#fff" stroke="#fff"/>
<g clip-path="url(#a)">
<g transform="translate(332.03 416.92) rotate(-52.75) scale(.08 -.08)">
<use xlink:href="#ac"/>
</g>
</g>
<path d="m424.96 350.27 0.44736 5.0352q0.2124 2.3906 2.603 2.1782l7.7121-0.6852q2.3906-0.2124 2.1782-2.603l-0.44736-5.0352q-0.2124-2.3906-2.603-2.1782l-7.7121 0.6852q-2.3906 0.2124-2.1782 2.603z" clip-path="url(#a)" fill="#fff" stroke="#fff"/>
<g clip-path="url(#a)">
<defs>
<path id="x" d="m9.8125 72.906h46.094v-8.3125h-36.234v-21.578h34.719v-8.2969h-34.719v-26.422h37.109v-8.2969h-46.969z"/>
</defs>
<g transform="translate(429.01 349.91) rotate(84.923) scale(.08 -.08)">
<use xlink:href="#x"/>
</g>
</g>
<path d="m391.08 357.69 2.6697-4.2925q1.2675-2.038-0.77051-3.3055l-6.5747-4.089q-2.038-1.2675-3.3055 0.77051l-2.6697 4.2925q-1.2675 2.038 0.77051 3.3055l6.5747 4.089q2.038 1.2675 3.3055-0.77051z" clip-path="url(#a)" fill="#fff" stroke="#fff"/>
<g clip-path="url(#a)">
<g transform="translate(387.63 355.54) rotate(-58.121) scale(.08 -.08)">
<use xlink:href="#x"/>
</g>
</g>
<path d="m469.29 354.17 3.1569 3.948q1.4988 1.8744 3.3733 0.37559l6.047-4.8353q1.8744-1.4988 0.37559-3.3733l-3.1569-3.948q-1.4988-1.8744-3.3733-0.37559l-6.047 4.8353q-1.8744 1.4988-0.37559 3.3733z" clip-path="url(#a)" fill="#fff" stroke="#fff"/>
<g clip-path="url(#a)">
<g transform="translate(472.47 351.63) rotate(51.353) scale(.08 -.08)">
<use xlink:href="#x"/>
</g>
</g>
<path d="m502.26 414.93 3.1125 4.6388q1.3372 1.993 3.3302 0.65577l6.4294-4.3138q1.993-1.3372 0.65577-3.3302l-3.1125-4.6388q-1.3372-1.993-3.3302-0.65577l-6.4294 4.3138q-1.993 1.3372-0.65577 3.3302z" clip-path="url(#a)" fill="#fff" stroke="#fff"/>
<g clip-path="url(#a)">
<g transform="translate(505.63 412.67) rotate(56.14) scale(.08 -.08)">
<use xlink:href="#r"/>
</g>
</g>
<path d="m426.48 416.96 0.26164-5.8492q0.10725-2.3976-2.2904-2.5048l-7.7348-0.34598q-2.3976-0.10725-2.5048 2.2904l-0.26164 5.8492q-0.10724 2.3976 2.2904 2.5048l7.7348 0.34598q2.3976 0.10725 2.5048-2.2904z" clip-path="url(#a)" fill="#fff" stroke="#fff"/>
<g clip-path="url(#a)">
<g transform="translate(422.42 416.78) rotate(-87.439) scale(.08 -.08)">
<use xlink:href="#t"/>
</g>
</g>
<path d="m231.17 581.54v35.285q0 2.4 2.4 2.4h7.7425q2.4 0 2.4-2.4v-35.285q0-2.4-2.4-2.4h-7.7425q-2.4 0-2.4 2.4z" clip-path="url(#a)" fill="#fff" stroke="#fff"/>
<g clip-path="url(#a)">
<g transform="translate(235.24 581.54) rotate(90) scale(.08 -.08)">
<use xlink:href="#j"/>
<use x="60.818359" xlink:href="#e"/>
<use x="122.341797" xlink:href="#f"/>
<use x="163.439453" xlink:href="#l"/>
<use x="260.851562" xlink:href="#g"/>
<use x="288.634766" xlink:href="#i"/>
<use x="352.013672" xlink:href="#h"/>
<use x="413.292969" xlink:href="#k"/>
</g>
</g>
<path d="m508.52 479.35 4.2881 3.4001q1.8806 1.4911 3.3717-0.38943l4.8105-6.0668q1.4911-1.8806-0.38943-3.3717l-4.2881-3.4001q-1.8806-1.4911-3.3717 0.38943l-4.8105 6.0668q-1.4911 1.8806 0.38943 3.3717z" clip-path="url(#a)" fill="#fff" stroke="#fff"/>
<g clip-path="url(#a)">
<g transform="translate(511.05 476.17) rotate(38.412) scale(.08 -.08)">
<use xlink:href="#o"/>
</g>
</g>
<path d="m361.28 482.63 3.9795-3.1555q1.8806-1.4911 0.38943-3.3717l-4.8105-6.0668q-1.4911-1.8806-3.3717-0.38943l-3.9795 3.1555q-1.8806 1.4911-0.38943 3.3717l4.8105 6.0668q1.4911 1.8806 3.3717 0.38943z" clip-path="url(#a)" fill="#fff" stroke="#fff"/>
<g clip-path="url(#a)">
<defs>
<path id="aj" d="m53.516 70.516v-9.625q-5.6094 2.6875-10.594 4-4.9844 1.3281-9.625 1.3281-8.0469 0-12.422-3.125t-4.375-8.8906q0-4.8438 2.9062-7.3125 2.9062-2.4531 11.016-3.9688l5.9531-1.2188q11.031-2.1094 16.281-7.4062t5.25-14.172q0-10.609-7.1094-16.078-7.0938-5.4688-20.812-5.4688-5.1719 0-11.016 1.1719-5.8281 1.1719-12.078 3.4688v10.156q6-3.3594 11.766-5.0781 5.7656-1.7031 11.328-1.7031 8.4375 0 13.031 3.3125 4.5938 3.3281 4.5938 9.4844 0 5.3594-3.2969 8.3906t-10.812 4.5469l-6.0156 1.1719q-11.031 2.1875-15.969 6.875-4.9219 4.6875-4.9219 13.047 0 9.6719 6.8125 15.234t18.766 5.5625q5.1406 0 10.453-0.9375 5.3281-0.92188 10.891-2.7656z"/>
</defs>
<g transform="translate(358.76 479.44) rotate(-38.412) scale(.08 -.08)">
<use xlink:href="#aj"/>
</g>
</g>
<path d="m342.88 480 0.99051-5.4977q0.42555-2.362-1.9364-2.7875l-7.6198-1.3728q-2.362-0.42555-2.7875 1.9364l-0.99051 5.4977q-0.42555 2.362 1.9364 2.7875l7.6198 1.3728q2.362 0.42555 2.7875-1.9364z" clip-path="url(#a)" fill="#fff" stroke="#fff"/>
<g clip-path="url(#a)">
<g transform="translate(338.89 479.28) rotate(-79.787) scale(.08 -.08)">
<use xlink:href="#r"/>
</g>
</g>
<path d="m352.65 474.15 1.1166 6.1977q0.42555 2.362 2.7875 1.9364l7.6198-1.3728q2.362-0.42555 1.9364-2.7875l-1.1166-6.1977q-0.42555-2.362-2.7875-1.9364l-7.6198 1.3728q-2.362 0.42555-1.9364 2.7875z" clip-path="url(#a)" fill="#fff" stroke="#fff"/>
<g clip-path="url(#a)">
<g transform="translate(356.65 473.43) rotate(79.787) scale(.08 -.08)">
<use xlink:href="#ak"/>
</g>
</g>
<path d="m552.09 476.71 2.6021 4.8143q1.1412 2.1113 3.2525 0.97016l6.8112-3.6815q2.1113-1.1412 0.97016-3.2525l-2.6021-4.8143q-1.1412-2.1113-3.2525-0.97016l-6.8112 3.6815q-2.1113 1.1412-0.97016 3.2525z" clip-path="url(#a)" fill="#fff" stroke="#fff"/>
<g clip-path="url(#a)">
<g transform="translate(555.66 474.78) rotate(61.609) scale(.08 -.08)">
<use xlink:href="#o"/>
</g>
</g>
<path d="m496.45 481.83 2.929-5.4191q1.1412-2.1113-0.97016-3.2525l-6.8112-3.6815q-2.1113-1.1412-3.2525 0.97016l-2.929 5.4191q-1.1412 2.1113 0.97016 3.2525l6.8112 3.6815q2.1113 1.1412 3.2525-0.97016z" clip-path="url(#a)" fill="#fff" stroke="#fff"/>
<g clip-path="url(#a)">
<defs>
<path id="am" d="m19.672 64.797v-56.688h11.922q15.094 0 22.094 6.8281 7 6.8438 7 21.594 0 14.641-7 21.453t-22.094 6.8125zm-9.8594 8.1094h20.266q21.188 0 31.094-8.8125 9.9219-8.8125 9.9219-27.562 0-18.859-9.9688-27.703-9.9531-8.8281-31.047-8.8281h-20.266z"/>
</defs>
<g transform="translate(492.87 479.9) rotate(-61.609) scale(.08 -.08)">
<use xlink:href="#am"/>
</g>
</g>
<path d="m520.29 479.75 0.90052-4.9983q0.42555-2.362-1.9364-2.7875l-7.6198-1.3728q-2.362-0.42555-2.7875 1.9364l-0.90052 4.9983q-0.42555 2.362 1.9364 2.7875l7.6198 1.3728q2.362 0.42555 2.7875-1.9364z" clip-path="url(#a)" fill="#fff" stroke="#fff"/>
<g clip-path="url(#a)">
<g transform="translate(516.29 479.03) rotate(-79.787) scale(.08 -.08)">
<use xlink:href="#aj"/>
</g>
</g>
<path d="m530.04 474.37 1.0382 5.7622q0.42555 2.362 2.7875 1.9364l7.6198-1.3728q2.362-0.42555 1.9364-2.7875l-1.0382-5.7622q-0.42555-2.362-2.7875-1.9364l-7.6198 1.3728q-2.362 0.42555-1.9364 2.7875z" clip-path="url(#a)" fill="#fff" stroke="#fff"/>
<g clip-path="url(#a)">
<g transform="translate(534.04 473.65) rotate(79.787) scale(.08 -.08)">
<use xlink:href="#t"/>
</g>
</g>
<path d="m585.89 581.54v35.285q0 2.4 2.4 2.4h7.7425q2.4 0 2.4-2.4v-35.285q0-2.4-2.4-2.4h-7.7425q-2.4 0-2.4 2.4z" clip-path="url(#a)" fill="#fff" stroke="#fff"/>
<g clip-path="url(#a)">
<g transform="translate(589.95 581.54) rotate(90) scale(.08 -.08)">
<use xlink:href="#j"/>
<use x="60.818359" xlink:href="#e"/>
<use x="122.341797" xlink:href="#f"/>
<use x="163.439453" xlink:href="#l"/>
<use x="260.851562" xlink:href="#g"/>
<use x="288.634766" xlink:href="#i"/>
<use x="352.013672" xlink:href="#h"/>
<use x="413.292969" xlink:href="#k"/>
</g>
</g>
<path d="m452.87 581.54v35.285q0 2.4 2.4 2.4h7.7425q2.4 0 2.4-2.4v-35.285q0-2.4-2.4-2.4h-7.7425q-2.4 0-2.4 2.4z" clip-path="url(#a)" fill="#fff" stroke="#fff"/>
<g clip-path="url(#a)">
<g transform="translate(456.93 581.54) rotate(90) scale(.08 -.08)">
<use xlink:href="#j"/>
<use x="60.818359" xlink:href="#e"/>
<use x="122.341797" xlink:href="#f"/>
<use x="163.439453" xlink:href="#l"/>
<use x="260.851562" xlink:href="#g"/>
<use x="288.634766" xlink:href="#i"/>
<use x="352.013672" xlink:href="#h"/>
<use x="413.292969" xlink:href="#k"/>
</g>
</g>
<path d="m497.21 581.54v35.285q0 2.4 2.4 2.4h7.7425q2.4 0 2.4-2.4v-35.285q0-2.4-2.4-2.4h-7.7425q-2.4 0-2.4 2.4z" clip-path="url(#a)" fill="#fff" stroke="#fff"/>
<g clip-path="url(#a)">
<g transform="translate(501.27 581.54) rotate(90) scale(.08 -.08)">
<use xlink:href="#j"/>
<use x="60.818359" xlink:href="#e"/>
<use x="122.341797" xlink:href="#f"/>
<use x="163.439453" xlink:href="#l"/>
<use x="260.851562" xlink:href="#g"/>
<use x="288.634766" xlink:href="#i"/>
<use x="352.013672" xlink:href="#h"/>
<use x="413.292969" xlink:href="#k"/>
</g>
</g>
<path d="m98.157 581.54v35.285q0 2.4 2.4 2.4h7.7425q2.4 0 2.4-2.4v-35.285q0-2.4-2.4-2.4h-7.7425q-2.4 0-2.4 2.4z" clip-path="url(#a)" fill="#fff" stroke="#fff"/>
<g clip-path="url(#a)">
<g transform="translate(102.22 581.54) rotate(90) scale(.08 -.08)">
<use xlink:href="#j"/>
<use x="60.818359" xlink:href="#e"/>
<use x="122.341797" xlink:href="#f"/>
<use x="163.439453" xlink:href="#l"/>
<use x="260.851562" xlink:href="#g"/>
<use x="288.634766" xlink:href="#i"/>
<use x="352.013672" xlink:href="#h"/>
<use x="413.292969" xlink:href="#k"/>
</g>
</g>
<path d="m319.85 581.54v35.285q0 2.4 2.4 2.4h7.7425q2.4 0 2.4-2.4v-35.285q0-2.4-2.4-2.4h-7.7425q-2.4 0-2.4 2.4z" clip-path="url(#a)" fill="#fff" stroke="#fff"/>
<g clip-path="url(#a)">
<g transform="translate(323.92 581.54) rotate(90) scale(.08 -.08)">
<use xlink:href="#j"/>
<use x="60.818359" xlink:href="#e"/>
<use x="122.341797" xlink:href="#f"/>
<use x="163.439453" xlink:href="#l"/>
<use x="260.851562" xlink:href="#g"/>
<use x="288.634766" xlink:href="#i"/>
<use x="352.013672" xlink:href="#h"/>
<use x="413.292969" xlink:href="#k"/>
</g>
</g>
<path d="m364.19 581.54v35.285q0 2.4 2.4 2.4h7.7425q2.4 0 2.4-2.4v-35.285q0-2.4-2.4-2.4h-7.7425q-2.4 0-2.4 2.4z" clip-path="url(#a)" fill="#fff" stroke="#fff"/>
<g clip-path="url(#a)">
<g transform="translate(368.25 581.54) rotate(90) scale(.08 -.08)">
<use xlink:href="#j"/>
<use x="60.818359" xlink:href="#e"/>
<use x="122.341797" xlink:href="#f"/>
<use x="163.439453" xlink:href="#l"/>
<use x="260.851562" xlink:href="#g"/>
<use x="288.634766" xlink:href="#i"/>
<use x="352.013672" xlink:href="#h"/>
<use x="413.292969" xlink:href="#k"/>
</g>
</g>
<path d="m275.51 581.54v35.285q0 2.4 2.4 2.4h7.7425q2.4 0 2.4-2.4v-35.285q0-2.4-2.4-2.4h-7.7425q-2.4 0-2.4 2.4z" clip-path="url(#a)" fill="#fff" stroke="#fff"/>
<g clip-path="url(#a)">
<g transform="translate(279.58 581.54) rotate(90) scale(.08 -.08)">
<use xlink:href="#j"/>
<use x="60.818359" xlink:href="#e"/>
<use x="122.341797" xlink:href="#f"/>
<use x="163.439453" xlink:href="#l"/>
<use x="260.851562" xlink:href="#g"/>
<use x="288.634766" xlink:href="#i"/>
<use x="352.013672" xlink:href="#h"/>
<use x="413.292969" xlink:href="#k"/>
</g>
</g>
<path d="m408.53 581.54v35.285q0 2.4 2.4 2.4h7.7425q2.4 0 2.4-2.4v-35.285q0-2.4-2.4-2.4h-7.7425q-2.4 0-2.4 2.4z" clip-path="url(#a)" fill="#fff" stroke="#fff"/>
<g clip-path="url(#a)">
<g transform="translate(412.59 581.54) rotate(90) scale(.08 -.08)">
<use xlink:href="#j"/>
<use x="60.818359" xlink:href="#e"/>
<use x="122.341797" xlink:href="#f"/>
<use x="163.439453" xlink:href="#l"/>
<use x="260.851562" xlink:href="#g"/>
<use x="288.634766" xlink:href="#i"/>
<use x="352.013672" xlink:href="#h"/>
<use x="413.292969" xlink:href="#k"/>
</g>
</g>
<path d="m541.55 581.54v35.285q0 2.4 2.4 2.4h7.7425q2.4 0 2.4-2.4v-35.285q0-2.4-2.4-2.4h-7.7425q-2.4 0-2.4 2.4z" clip-path="url(#a)" fill="#fff" stroke="#fff"/>
<g clip-path="url(#a)">
<g transform="translate(545.61 581.54) rotate(90) scale(.08 -.08)">
<use xlink:href="#j"/>
<use x="60.818359" xlink:href="#e"/>
<use x="122.341797" xlink:href="#f"/>
<use x="163.439453" xlink:href="#l"/>
<use x="260.851562" xlink:href="#g"/>
<use x="288.634766" xlink:href="#i"/>
<use x="352.013672" xlink:href="#h"/>
<use x="413.292969" xlink:href="#k"/>
</g>
</g>
<path d="m896.26 581.54v35.285q0 2.4 2.4 2.4h7.7425q2.4 0 2.4-2.4v-35.285q0-2.4-2.4-2.4h-7.7425q-2.4 0-2.4 2.4z" clip-path="url(#a)" fill="#fff" stroke="#fff"/>
<g clip-path="url(#a)">
<g transform="translate(900.32 581.54) rotate(90) scale(.08 -.08)">
<use xlink:href="#j"/>
<use x="60.818359" xlink:href="#e"/>
<use x="122.341797" xlink:href="#f"/>
<use x="163.439453" xlink:href="#l"/>
<use x="260.851562" xlink:href="#g"/>
<use x="288.634766" xlink:href="#i"/>
<use x="352.013672" xlink:href="#h"/>
<use x="413.292969" xlink:href="#k"/>
</g>
</g>
<path d="m1162.3 581.54v35.285q0 2.4 2.4 2.4h7.7425q2.4 0 2.4-2.4v-35.285q0-2.4-2.4-2.4h-7.7425q-2.4 0-2.4 2.4z" clip-path="url(#a)" fill="#fff" stroke="#fff"/>
<g clip-path="url(#a)">
<g transform="translate(1166.4 581.54) rotate(90) scale(.08 -.08)">
<use xlink:href="#j"/>
<use x="60.818359" xlink:href="#e"/>
<use x="122.341797" xlink:href="#f"/>
<use x="163.439453" xlink:href="#l"/>
<use x="260.851562" xlink:href="#g"/>
<use x="288.634766" xlink:href="#i"/>
<use x="352.013672" xlink:href="#h"/>
<use x="413.292969" xlink:href="#k"/>
</g>
</g>
<defs>
<path id="b" d="m0 8.6603c2.2967 0 4.4997-0.9125 6.1237-2.5365 1.624-1.624 2.5365-3.827 2.5365-6.1237s-0.9125-4.4997-2.5365-6.1237c-1.624-1.624-3.827-2.5365-6.1237-2.5365s-4.4997 0.9125-6.1237 2.5365c-1.624 1.624-2.5365 3.827-2.5365 6.1237s0.9125 4.4997 2.5365 6.1237c1.624 1.624 3.827 2.5365 6.1237 2.5365z"/>
</defs>
<g clip-path="url(#a)">
<use x="60.08866" y="660.711547" fill="#ffffff" stroke="#ffffff" xlink:href="#b"/>
</g>
<g clip-path="url(#a)">
<use x="104.427771" y="660.711547" fill="#ffffff" stroke="#ffffff" xlink:href="#b"/>
</g>
<g clip-path="url(#a)">
<use x="148.766883" y="660.711547" fill="#ffffff" stroke="#ffffff" xlink:href="#b"/>
</g>
<g clip-path="url(#a)">
<use x="193.105995" y="660.711547" fill="#ffffff" stroke="#ffffff" xlink:href="#b"/>
</g>
<g clip-path="url(#a)">
<use x="237.445106" y="660.711547" fill="#ffffff" stroke="#ffffff" xlink:href="#b"/>
</g>
<g clip-path="url(#a)">
<use x="281.784218" y="660.711547" fill="#ffffff" stroke="#ffffff" xlink:href="#b"/>
</g>
<g clip-path="url(#a)">
<use x="326.12333" y="660.711547" fill="#ffffff" stroke="#ffffff" xlink:href="#b"/>
</g>
<g clip-path="url(#a)">
<use x="370.462441" y="660.711547" fill="#ffffff" stroke="#ffffff" xlink:href="#b"/>
</g>
<g clip-path="url(#a)">
<use x="414.801553" y="660.711547" fill="#ffffff" stroke="#ffffff" xlink:href="#b"/>
</g>
<g clip-path="url(#a)">
<use x="459.140664" y="660.711547" fill="#ffffff" stroke="#ffffff" xlink:href="#b"/>
</g>
<g clip-path="url(#a)">
<use x="503.479776" y="660.711547" fill="#ffffff" stroke="#ffffff" xlink:href="#b"/>
</g>
<g clip-path="url(#a)">
<use x="547.818888" y="660.711547" fill="#ffffff" stroke="#ffffff" xlink:href="#b"/>
</g>
<g clip-path="url(#a)">
<use x="592.157999" y="660.711547" fill="#ffffff" stroke="#ffffff" xlink:href="#b"/>
</g>
<g clip-path="url(#a)">
<use x="636.497111" y="660.711547" fill="#ffffff" stroke="#ffffff" xlink:href="#b"/>
</g>
<g clip-path="url(#a)">
<use x="680.836222" y="660.711547" fill="#ffffff" stroke="#ffffff" xlink:href="#b"/>
</g>
<g clip-path="url(#a)">
<use x="725.175334" y="660.711547" fill="#ffffff" stroke="#ffffff" xlink:href="#b"/>
</g>
<g clip-path="url(#a)">
<use x="769.514446" y="660.711547" fill="#ffffff" stroke="#ffffff" xlink:href="#b"/>
</g>
<g clip-path="url(#a)">
<use x="813.853557" y="660.711547" fill="#ffffff" stroke="#ffffff" xlink:href="#b"/>
</g>
<g clip-path="url(#a)">
<use x="858.192669" y="660.711547" fill="#ffffff" stroke="#ffffff" xlink:href="#b"/>
</g>
<g clip-path="url(#a)">
<use x="902.531781" y="660.711547" fill="#ffffff" stroke="#ffffff" xlink:href="#b"/>
</g>
<g clip-path="url(#a)">
<use x="946.870892" y="660.711547" fill="#ffffff" stroke="#ffffff" xlink:href="#b"/>
</g>
<g clip-path="url(#a)">
<use x="991.210004" y="660.711547" fill="#ffffff" stroke="#ffffff" xlink:href="#b"/>
</g>
<g clip-path="url(#a)">
<use x="1035.549115" y="660.711547" fill="#ffffff" stroke="#ffffff" xlink:href="#b"/>
</g>
<g clip-path="url(#a)">
<use x="1079.888227" y="660.711547" fill="#ffffff" stroke="#ffffff" xlink:href="#b"/>
</g>
<g clip-path="url(#a)">
<use x="1124.227339" y="660.711547" fill="#ffffff" stroke="#ffffff" xlink:href="#b"/>
</g>
<g clip-path="url(#a)">
<use x="1168.56645" y="660.711547" fill="#ffffff" stroke="#ffffff" xlink:href="#b"/>
</g>
<g clip-path="url(#a)">
<use x="549.643257" y="32.621786" fill="#ffffff" stroke="#ffffff" xlink:href="#b"/>
</g>
<g clip-path="url(#a)">
<use x="60.08866" y="537.661106" fill="#ffffff" stroke="#ffffff" xlink:href="#b"/>
</g>
<g clip-path="url(#a)">
<use x="148.766883" y="537.661106" fill="#ffffff" stroke="#ffffff" xlink:href="#b"/>
</g>
<g clip-path="url(#a)">
<use x="705.776973" y="162.683859" fill="#ffffff" stroke="#ffffff" xlink:href="#b"/>
</g>
<g clip-path="url(#a)">
<use x="636.497111" y="537.661106" fill="#ffffff" stroke="#ffffff" xlink:href="#b"/>
</g>
<g clip-path="url(#a)">
<use x="887.752077" y="162.683859" fill="#ffffff" stroke="#ffffff" xlink:href="#b"/>
</g>
<g clip-path="url(#a)">
<use x="951.304803" y="289.848457" fill="#ffffff" stroke="#ffffff" xlink:href="#b"/>
</g>
<g clip-path="url(#a)">
<use x="946.870892" y="537.661106" fill="#ffffff" stroke="#ffffff" xlink:href="#b"/>
</g>
<g clip-path="url(#a)">
<use x="991.210004" y="537.661106" fill="#ffffff" stroke="#ffffff" xlink:href="#b"/>
</g>
<g clip-path="url(#a)">
<use x="1035.549115" y="537.661106" fill="#ffffff" stroke="#ffffff" xlink:href="#b"/>
</g>
<g clip-path="url(#a)">
<use x="831.589202" y="414.610665" fill="#ffffff" stroke="#ffffff" xlink:href="#b"/>
</g>
<g clip-path="url(#a)">
<use x="1079.888227" y="537.661106" fill="#ffffff" stroke="#ffffff" xlink:href="#b"/>
</g>
<g clip-path="url(#a)">
<use x="1124.227339" y="537.661106" fill="#ffffff" stroke="#ffffff" xlink:href="#b"/>
</g>
<g clip-path="url(#a)">
<use x="1212.905562" y="660.711547" fill="#ffffff" stroke="#ffffff" xlink:href="#b"/>
</g>
<g clip-path="url(#a)">
<use x="680.836222" y="537.661106" fill="#ffffff" stroke="#ffffff" xlink:href="#b"/>
</g>
<g clip-path="url(#a)">
<use x="769.514446" y="289.848457" fill="#ffffff" stroke="#ffffff" xlink:href="#b"/>
</g>
<g clip-path="url(#a)">
<use x="725.175334" y="537.661106" fill="#ffffff" stroke="#ffffff" xlink:href="#b"/>
</g>
<g clip-path="url(#a)">
<use x="813.853557" y="414.610665" fill="#ffffff" stroke="#ffffff" xlink:href="#b"/>
</g>
<g clip-path="url(#a)">
<use x="769.514446" y="537.661106" fill="#ffffff" stroke="#ffffff" xlink:href="#b"/>
</g>
<g clip-path="url(#a)">
<use x="813.853557" y="537.661106" fill="#ffffff" stroke="#ffffff" xlink:href="#b"/>
</g>
<g clip-path="url(#a)">
<use x="858.192669" y="537.661106" fill="#ffffff" stroke="#ffffff" xlink:href="#b"/>
</g>
<g clip-path="url(#a)">
<use x="1257.244673" y="660.711547" fill="#ffffff" stroke="#ffffff" xlink:href="#b"/>
</g>
<g clip-path="url(#a)">
<use x="193.105995" y="537.661106" fill="#ffffff" stroke="#ffffff" xlink:href="#b"/>
</g>
<g clip-path="url(#a)">
<use x="425.886331" y="289.848457" fill="#ffffff" stroke="#ffffff" xlink:href="#b"/>
</g>
<g clip-path="url(#a)">
<use x="237.445106" y="537.661106" fill="#ffffff" stroke="#ffffff" xlink:href="#b"/>
</g>
<g clip-path="url(#a)">
<use x="436.971109" y="414.610665" fill="#ffffff" stroke="#ffffff" xlink:href="#b"/>
</g>
<g clip-path="url(#a)">
<use x="348.292885" y="414.610665" fill="#ffffff" stroke="#ffffff" xlink:href="#b"/>
</g>
<g clip-path="url(#a)">
<use x="525.649332" y="414.610665" fill="#ffffff" stroke="#ffffff" xlink:href="#b"/>
</g>
<g clip-path="url(#a)">
<use x="592.157999" y="537.661106" fill="#ffffff" stroke="#ffffff" xlink:href="#b"/>
</g>
<g clip-path="url(#a)">
<use x="459.140664" y="537.661106" fill="#ffffff" stroke="#ffffff" xlink:href="#b"/>
</g>
<g clip-path="url(#a)">
<use x="503.479776" y="537.661106" fill="#ffffff" stroke="#ffffff" xlink:href="#b"/>
</g>
<g clip-path="url(#a)">
<use x="104.427771" y="537.661106" fill="#ffffff" stroke="#ffffff" xlink:href="#b"/>
</g>
<g clip-path="url(#a)">
<use x="326.12333" y="537.661106" fill="#ffffff" stroke="#ffffff" xlink:href="#b"/>
</g>
<g clip-path="url(#a)">
<use x="370.462441" y="537.661106" fill="#ffffff" stroke="#ffffff" xlink:href="#b"/>
</g>
<g clip-path="url(#a)">
<use x="281.784218" y="537.661106" fill="#ffffff" stroke="#ffffff" xlink:href="#b"/>
</g>
<g clip-path="url(#a)">
<use x="414.801553" y="537.661106" fill="#ffffff" stroke="#ffffff" xlink:href="#b"/>
</g>
<g clip-path="url(#a)">
<use x="547.818888" y="537.661106" fill="#ffffff" stroke="#ffffff" xlink:href="#b"/>
</g>
<g clip-path="url(#a)">
<use x="902.531781" y="537.661106" fill="#ffffff" stroke="#ffffff" xlink:href="#b"/>
</g>
<g clip-path="url(#a)">
<use x="1168.56645" y="537.661106" fill="#ffffff" stroke="#ffffff" xlink:href="#b"/>
</g>
<g clip-path="url(#a)">
<defs>
<path id="y" d="m30.609 48.391q-7.2188 0-11.422-5.6406t-4.2031-15.453 4.1719-15.453q4.1875-5.6406 11.453-5.6406 7.1875 0 11.375 5.6562 4.2031 5.6719 4.2031 15.438 0 9.7188-4.2031 15.406-4.1875 5.6875-11.375 5.6875zm0 7.6094q11.719 0 18.406-7.625 6.7031-7.6094 6.7031-21.078 0-13.422-6.7031-21.078-6.6875-7.6406-18.406-7.6406-11.766 0-18.438 7.6406-6.6562 7.6562-6.6562 21.078 0 13.469 6.6562 21.078 6.6719 7.625 18.438 7.625z"/>
<path id="ap" d="m4.2031 54.688h8.9844l11.234-42.672 11.172 42.672h10.594l11.234-42.672 11.188 42.672h8.9844l-14.312-54.688h-10.594l-11.766 44.828-11.812-44.828h-10.609z"/>
<path id="aq" d="m2.9844 54.688h9.5156l17.094-45.891 17.094 45.891h9.5156l-20.516-54.688h-12.203z"/>
</defs>
<g transform="translate(38.012 663.47) scale(.1 -.1)">
<use xlink:href="#ab"/>
<use x="75.195312" xlink:href="#y"/>
<use x="136.376953" xlink:href="#ap"/>
<use x="218.164062" xlink:href="#e"/>
<use x="279.6875" xlink:href="#aq"/>
<use x="338.867188" xlink:href="#e"/>
<use x="400.390625" xlink:href="#f"/>
</g>
</g>
<g clip-path="url(#a)">
<defs>
<path id="an" d="m11.719 12.406h10.297v-8.4062l-8-15.625h-6.2969l4 15.625z"/>
</defs>
<g transform="translate(102.84 663.47) scale(.1 -.1)">
<use xlink:href="#an"/>
</g>
</g>
<g clip-path="url(#a)">
<defs>
<path id="at" d="m37.109 75.984v-7.4844h-8.5938q-4.8281 0-6.7188-1.9531-1.875-1.9531-1.875-7.0312v-4.8281h14.797v-6.9844h-14.797v-47.703h-9.0312v47.703h-8.5938v6.9844h8.5938v3.8125q0 9.125 4.25 13.297 4.25 4.1875 13.469 4.1875z"/>
<path id="ar" d="m18.312 70.219v-15.531h18.5v-6.9844h-18.5v-29.688q0-6.6875 1.8281-8.5938t7.4531-1.9062h9.2188v-7.5156h-9.2188q-10.406 0-14.359 3.875-3.9531 3.8906-3.9531 14.141v29.688h-6.5938v6.9844h6.5938v15.531z"/>
</defs>
<g transform="translate(136.85 663.47) scale(.1 -.1)">
<use xlink:href="#h"/>
<use x="61.279297" xlink:href="#at"/>
<use x="96.46875" xlink:href="#ar"/>
<use x="135.677734" xlink:href="#e"/>
<use x="197.201172" xlink:href="#f"/>
</g>
</g>
<g clip-path="url(#a)">
<defs>
<path id="ai" d="m45.406 27.984q0 9.7656-4.0312 15.125-4.0156 5.375-11.297 5.375-7.2188 0-11.25-5.375-4.0312-5.3594-4.0312-15.125 0-9.7188 4.0312-15.094t11.25-5.375q7.2812 0 11.297 5.375 4.0312 5.375 4.0312 15.094zm8.9844-21.203q0-13.953-6.2031-20.766-6.1875-6.8125-18.984-6.8125-4.7344 0-8.9375 0.70312t-8.1562 2.1719v8.7344q3.9531-2.1406 7.8125-3.1562 3.8594-1.0312 7.8594-1.0312 8.8438 0 13.234 4.6094t4.3906 13.938v4.4531q-2.7812-4.8438-7.125-7.2344t-10.406-2.3906q-10.047 0-16.203 7.6562-6.1562 7.6719-6.1562 20.328 0 12.688 6.1562 20.344 6.1562 7.6719 16.203 7.6719 6.0625 0 10.406-2.3906t7.125-7.2188v8.2969h8.9844z"/>
</defs>
<g transform="translate(177.85 663.47) scale(.1 -.1)">
<use xlink:href="#ai"/>
<use x="63.476562" xlink:href="#g"/>
<use x="91.259766" xlink:href="#aq"/>
<use x="150.439453" xlink:href="#g"/>
<use x="178.222656" xlink:href="#i"/>
<use x="241.601562" xlink:href="#ai"/>
</g>
</g>
<g clip-path="url(#a)">
<g transform="translate(234.38 663.47) scale(.1 -.1)">
<use xlink:href="#h"/>
</g>
</g>
<g clip-path="url(#a)">
<defs>
<path id="bc" d="m14.797 27.297q0-9.9062 4.0781-15.547t11.203-5.6406 11.219 5.6406q4.1094 5.6406 4.1094 15.547t-4.1094 15.547q-4.0938 5.6406-11.219 5.6406t-11.203-5.6406-4.0781-15.547zm30.609-19.094q-2.8281-4.875-7.1562-7.25-4.3125-2.375-10.375-2.375-9.9062 0-16.141 7.9062-6.2188 7.9219-6.2188 20.812t6.2188 20.797q6.2344 7.9062 16.141 7.9062 6.0625 0 10.375-2.375 4.3281-2.3594 7.1562-7.2344v8.2969h8.9844v-75.484h-8.9844z"/>
<path id="bb" d="m8.5 21.578v33.109h8.9844v-32.766q0-7.7656 3.0156-11.656 3.0312-3.875 9.0938-3.875 7.2656 0 11.484 4.6406 4.2344 4.6406 4.2344 12.656v31h8.9844v-54.688h-8.9844v8.4062q-3.2656-4.9844-7.5938-7.4062-4.3125-2.4219-10.031-2.4219-9.4219 0-14.312 5.8594-4.875 5.8594-4.875 17.141z"/>
<path id="z" d="m45.406 46.391v29.594h8.9844v-75.984h-8.9844v8.2031q-2.8281-4.875-7.1562-7.25-4.3125-2.375-10.375-2.375-9.9062 0-16.141 7.9062-6.2188 7.9219-6.2188 20.812t6.2188 20.797q6.2344 7.9062 16.141 7.9062 6.0625 0 10.375-2.375 4.3281-2.3594 7.1562-7.2344zm-30.609-19.094q0-9.9062 4.0781-15.547t11.203-5.6406 11.219 5.6406q4.1094 5.6406 4.1094 15.547t-4.1094 15.547q-4.0938 5.6406-11.219 5.6406t-11.203-5.6406-4.0781-15.547z"/>
</defs>
<g transform="translate(260.62 663.47) scale(.1 -.1)">
<use xlink:href="#f"/>
<use x="41.082031" xlink:href="#e"/>
<use x="102.605469" xlink:href="#bc"/>
<use x="166.082031" xlink:href="#bb"/>
<use x="229.460938" xlink:href="#g"/>
<use x="257.244141" xlink:href="#f"/>
<use x="298.326172" xlink:href="#e"/>
<use x="359.849609" xlink:href="#z"/>
</g>
</g>
<g clip-path="url(#a)">
<defs>
<path id="ba" d="m33.797-14.703h-4.8906l-0.046875 14.703q-5.125 0.09375-10.25 1.1875-5.125 1.1094-10.312 3.3125v8.7812q4.9844-3.125 10.078-4.7188 5.1094-1.5781 10.531-1.625v22.266q-10.797 1.75-15.703 5.9531t-4.9062 11.531q0 7.9531 5.3281 12.531 5.3281 4.5938 15.281 5.2812v11.484h4.8906v-11.328q4.5312-0.20312 8.7812-0.96875 4.25-0.75 8.2969-2.0625v-8.5469q-4.0469 2.0469-8.3281 3.1719-4.2656 1.125-8.75 1.3125v-20.844q11.078-1.7031 16.297-6.1094 5.2344-4.3906 5.2344-12 0-8.25-5.5469-13.016t-15.984-5.5zm-4.8906 52.297v20.031q-5.6562-0.64062-8.6406-3.2344-2.9844-2.5781-2.9844-6.875 0-4.2031 2.75-6.5469 2.7656-2.3438 8.875-3.375zm4.8906-9.375v-21.141q6.1875 0.82812 9.3438 3.5156t3.1562 7.0781q0 4.2969-3.0156 6.8281-3 2.5469-9.4844 3.7188z"/>
</defs>
<g transform="translate(322.94 663.47) scale(.1 -.1)">
<use xlink:href="#ba"/>
</g>
</g>
<g clip-path="url(#a)">
<defs>
<path id="ae" d="m10.797 72.906h38.719v-8.3125h-29.688v-17.859q2.1406 0.73438 4.2812 1.0938 2.1562 0.35938 4.3125 0.35938 12.203 0 19.328-6.6875 7.1406-6.6875 7.1406-18.109 0-11.766-7.3281-18.297-7.3281-6.5156-20.656-6.5156-4.5938 0-9.3594 0.78125-4.75 0.78125-9.8281 2.3438v9.9219q4.3906-2.3906 9.0781-3.5625t9.9062-1.1719q8.4531 0 13.375 4.4375 4.9375 4.4375 4.9375 12.062 0 7.6094-4.9375 12.047-4.9219 4.4531-13.375 4.4531-3.9531 0-7.8906-0.875-3.9219-0.875-8.0156-2.7344z"/>
<path id="s" d="m31.781 66.406q-7.6094 0-11.453-7.5-3.8281-7.4844-3.8281-22.531 0-14.984 3.8281-22.484 3.8438-7.5 11.453-7.5 7.6719 0 11.5 7.5 3.8438 7.5 3.8438 22.484 0 15.047-3.8438 22.531-3.8281 7.5-11.5 7.5zm0 7.8125q12.266 0 18.734-9.7031 6.4688-9.6875 6.4688-28.141 0-18.406-6.4688-28.109-6.4688-9.6875-18.734-9.6875-12.25 0-18.719 9.6875-6.4688 9.7031-6.4688 28.109 0 18.453 6.4688 28.141 6.4688 9.7031 18.719 9.7031z"/>
<path id="d" d="m10.688 12.406h10.312v-12.406h-10.312z"/>
</defs>
<g transform="translate(352.97 663.47) scale(.1 -.1)">
<use xlink:href="#ae"/>
<use x="63.623047" xlink:href="#s"/>
<use x="127.246094" xlink:href="#s"/>
<use x="190.869141" xlink:href="#d"/>
<use x="222.65625" xlink:href="#s"/>
<use x="286.279297" xlink:href="#s"/>
</g>
</g>
<g clip-path="url(#a)">
<defs>
<path id="az" d="m31 75.875q-6.5312-11.219-9.7188-22.219-3.1719-10.984-3.1719-22.266 0-11.266 3.2031-22.328t9.6875-22.25h-7.8125q-7.3125 11.484-10.953 22.562t-3.6406 22.016q0 10.891 3.6094 21.922 3.625 11.047 10.984 22.562z"/>
</defs>
<g transform="translate(412.85 663.47) scale(.1 -.1)">
<use xlink:href="#az"/>
</g>
</g>
<g clip-path="url(#a)">
<defs>
<path id="aw" d="m39.406 66.219q-10.75 0-17.078-8.0156-6.3125-8-6.3125-21.828 0-13.766 6.3125-21.781 6.3281-8 17.078-8 10.734 0 17.016 8 6.2812 8.0156 6.2812 21.781 0 13.828-6.2812 21.828-6.2812 8.0156-17.016 8.0156zm0 8q15.328 0 24.5-10.281 9.1875-10.281 9.1875-27.562 0-17.234-9.1875-27.516-9.1719-10.281-24.5-10.281-15.375 0-24.594 10.25-9.2031 10.266-9.2031 27.547t9.2031 27.562q9.2188 10.281 24.594 10.281z"/>
</defs>
<g transform="translate(447.72 663.47) scale(.1 -.1)">
<use xlink:href="#aa"/>
<use x="74.804688" xlink:href="#aw"/>
<use x="153.515625" xlink:href="#aa"/>
</g>
</g>
<g clip-path="url(#a)">
<defs>
<path id="av" d="m44.391 34.188q3.1719-1.0781 6.1719-4.5938t6.0312-9.6719l10.016-19.922h-10.609l-9.3125 18.703q-3.625 7.3281-7.0156 9.7188t-9.25 2.3906h-10.75v-30.812h-9.8594v72.906h22.266q12.5 0 18.656-5.2344 6.1562-5.2188 6.1562-15.766 0-6.8906-3.2031-11.438-3.2031-4.5312-9.2969-6.2812zm-24.719 30.609v-25.875h12.406q7.125 0 10.766 3.2969t3.6406 9.6875-3.6406 9.6406-10.766 3.25z"/>
<path id="ax" d="m19.672 34.812v-26.703h15.828q7.9531 0 11.781 3.2969 3.8438 3.2969 3.8438 10.078 0 6.8438-3.8438 10.078-3.8281 3.25-11.781 3.25zm0 29.984v-21.969h14.609q7.2188 0 10.75 2.7031 3.5469 2.7188 3.5469 8.2812 0 5.5156-3.5469 8.25-3.5312 2.7344-10.75 2.7344zm-9.8594 8.1094h25.203q11.281 0 17.375-4.6875 6.1094-4.6875 6.1094-13.328 0-6.7031-3.125-10.656t-9.1875-4.9219q7.2812-1.5625 11.312-6.5312 4.0312-4.9531 4.0312-12.375 0-9.7656-6.6406-15.094-6.6406-5.3125-18.906-5.3125h-26.172z"/>
</defs>
<g transform="translate(469.93 663.47) scale(.1 -.1)">
<use xlink:href="#av"/>
<use x="69.482422" xlink:href="#x"/>
<use x="132.666016" xlink:href="#ac"/>
<use x="190.185547" xlink:href="#t"/>
<use x="263.378906" xlink:href="#aa"/>
<use x="338.183594" xlink:href="#am"/>
<use x="415.169922" xlink:href="#o"/>
<use x="483.578125" xlink:href="#ax"/>
<use x="552.181641" xlink:href="#v"/>
<use x="607.894531" xlink:href="#x"/>
</g>
</g>
<g clip-path="url(#a)">
<defs>
<path id="ay" d="m8.0156 75.875h7.8125q7.3125-11.516 10.953-22.562 3.6406-11.031 3.6406-21.922 0-10.938-3.6406-22.016t-10.953-22.562h-7.8125q6.4844 11.188 9.6875 22.25t3.2031 22.328q0 11.281-3.2031 22.266-3.2031 11-9.6875 22.219z"/>
</defs>
<g transform="translate(545.87 663.47) scale(.1 -.1)">
<use xlink:href="#ay"/>
</g>
</g>
<g clip-path="url(#a)">
<defs>
<path id="as" d="m18.109 8.2031v-29h-9.0312v75.484h9.0312v-8.2969q2.8438 4.875 7.1562 7.2344 4.3281 2.375 10.328 2.375 9.9688 0 16.188-7.9062 6.2344-7.9062 6.2344-20.797t-6.2344-20.812q-6.2188-7.9062-16.188-7.9062-6 0-10.328 2.375-4.3125 2.375-7.1562 7.25zm30.578 19.094q0 9.9062-4.0781 15.547t-11.203 5.6406q-7.1406 0-11.219-5.6406t-4.0781-15.547 4.0781-15.547 11.219-5.6406q7.125 0 11.203 5.6406t4.0781 15.547z"/>
<path id="w" d="m44.281 53.078v-8.5q-3.7969 1.9531-7.9062 2.9219-4.0938 0.98438-8.5 0.98438-6.6875 0-10.031-2.0469t-3.3438-6.1562q0-3.125 2.3906-4.9062t9.625-3.3906l3.0781-0.6875q9.5625-2.0469 13.594-5.7812t4.0312-10.422q0-7.625-6.0312-12.078-6.0312-4.4375-16.578-4.4375-4.3906 0-9.1562 0.85938t-10.031 2.5625v9.2812q4.9844-2.5938 9.8125-3.8906 4.8281-1.2812 9.5781-1.2812 6.3438 0 9.75 2.1719 3.4219 2.1719 3.4219 6.125 0 3.6562-2.4688 5.6094-2.4531 1.9531-10.812 3.7656l-3.125 0.73438q-8.3438 1.75-12.062 5.3906-3.7031 3.6406-3.7031 9.9844 0 7.7188 5.4688 11.906 5.4688 4.2031 15.531 4.2031 4.9688 0 9.3594-0.73438 4.4062-0.71875 8.1094-2.1875z"/>
</defs>
<g transform="translate(573.72 663.47) scale(.1 -.1)">
<use xlink:href="#z"/>
<use x="63.476562" xlink:href="#e"/>
<use x="125" xlink:href="#as"/>
<use x="188.476562" xlink:href="#y"/>
<use x="249.658203" xlink:href="#w"/>
<use x="301.757812" xlink:href="#g"/>
<use x="329.541016" xlink:href="#ar"/>
</g>
</g>
<g clip-path="url(#a)">
<defs>
<path id="au" d="m48.688 27.297q0 9.9062-4.0781 15.547t-11.203 5.6406q-7.1406 0-11.219-5.6406t-4.0781-15.547 4.0781-15.547 11.219-5.6406q7.125 0 11.203 5.6406t4.0781 15.547zm-30.578 19.094q2.8438 4.875 7.1562 7.2344 4.3281 2.375 10.328 2.375 9.9688 0 16.188-7.9062 6.2344-7.9062 6.2344-20.797t-6.2344-20.812q-6.2188-7.9062-16.188-7.9062-6 0-10.328 2.375-4.3125 2.375-7.1562 7.25v-8.2031h-9.0312v75.984h9.0312z"/>
</defs>
<g transform="translate(620.3 663.47) scale(.1 -.1)">
<use xlink:href="#au"/>
<use x="63.476562" xlink:href="#e"/>
<use x="125" xlink:href="#at"/>
<use x="160.205078" xlink:href="#y"/>
<use x="221.386719" xlink:href="#f"/>
<use x="262.46875" xlink:href="#e"/>
</g>
</g>
<g clip-path="url(#a)">
<g transform="translate(664.35 663.47) scale(.1 -.1)">
<use xlink:href="#w"/>
<use x="52.099609" xlink:href="#e"/>
<use x="113.623047" xlink:href="#e"/>
<use x="175.146484" xlink:href="#g"/>
<use x="202.929688" xlink:href="#i"/>
<use x="266.308594" xlink:href="#ai"/>
</g>
</g>
<g clip-path="url(#a)">
<defs>
<path id="ao" d="m32.172-5.0781q-3.7969-9.7656-7.4219-12.734-3.6094-2.9844-9.6562-2.9844h-7.1875v7.5156h5.2812q3.7031 0 5.75 1.7656 2.0625 1.75 4.5469 8.2969l1.6094 4.0938-22.109 53.812h9.5156l17.094-42.766 17.094 42.766h9.5156z"/>
</defs>
<g transform="translate(715.98 663.47) scale(.1 -.1)">
<use xlink:href="#h"/>
<use x="61.279297" xlink:href="#i"/>
<use x="124.658203" xlink:href="#ao"/>
</g>
</g>
<g clip-path="url(#a)">
<g transform="translate(756.11 663.47) scale(.1 -.1)">
<use xlink:href="#as"/>
<use x="63.476562" xlink:href="#k"/>
<use x="91.259766" xlink:href="#h"/>
<use x="152.539062" xlink:href="#i"/>
<use x="215.917969" xlink:href="#w"/>
</g>
</g>
<g clip-path="url(#a)">
<g transform="translate(808.74 663.47) scale(.1 -.1)">
<use xlink:href="#y"/>
<use x="61.181641" xlink:href="#f"/>
</g>
</g>
<g clip-path="url(#a)">
<g transform="translate(844.88 663.47) scale(.1 -.1)">
<use xlink:href="#g"/>
<use x="27.783203" xlink:href="#z"/>
<use x="91.259766" xlink:href="#e"/>
<use x="152.783203" xlink:href="#h"/>
<use x="214.0625" xlink:href="#w"/>
</g>
</g>
<g clip-path="url(#a)">
<g transform="translate(900.94 663.47) scale(.1 -.1)">
<use xlink:href="#an"/>
</g>
</g>
<g clip-path="url(#a)">
<defs>
<path id="p" d="m9.8125 72.906h9.8594v-72.906h-9.8594z"/>
</defs>
<g transform="translate(945.4 663.47) scale(.1 -.1)">
<use xlink:href="#p"/>
</g>
</g>
<g clip-path="url(#a)">
<g transform="translate(981.45 663.47) scale(.1 -.1)">
<use xlink:href="#ap"/>
<use x="81.787109" xlink:href="#h"/>
<use x="143.066406" xlink:href="#w"/>
</g>
</g>
<g clip-path="url(#a)">
<g transform="translate(1022.8 663.47) scale(.1 -.1)">
<use xlink:href="#w"/>
<use x="52.099609" xlink:href="#y"/>
<use x="113.28125" xlink:href="#f"/>
<use x="154.378906" xlink:href="#f"/>
<use x="195.492188" xlink:href="#ao"/>
</g>
</g>
<g clip-path="url(#a)">
<g transform="translate(1078.4 663.47) scale(.1 -.1)">
<use xlink:href="#p"/>
</g>
</g>
<g clip-path="url(#a)">
<g transform="translate(1116.5 663.47) scale(.1 -.1)">
<use xlink:href="#z"/>
<use x="63.476562" xlink:href="#g"/>
<use x="91.259766" xlink:href="#z"/>
</g>
</g>
<g clip-path="url(#a)">
<g transform="translate(1167 663.47) scale(.1 -.1)">
<use xlink:href="#d"/>
</g>
</g>
<g clip-path="url(#a)">
<defs>
<path id="c" d="m12.406 8.2969h16.109v55.625l-17.531-3.5156v8.9844l17.438 3.5156h9.8594v-64.609h16.109v-8.2969h-41.984z"/>
</defs>
<g transform="translate(541.69 35.381) scale(.1 -.1)">
<use xlink:href="#c"/>
<use x="63.623047" xlink:href="#d"/>
<use x="95.410156" xlink:href="#c"/>
</g>
</g>
<g clip-path="url(#a)">
<defs>
<path id="m" d="m19.188 8.2969h34.422v-8.2969h-46.281v8.2969q5.6094 5.8125 15.297 15.594 9.7031 9.7969 12.188 12.641 4.7344 5.3125 6.6094 9 1.8906 3.6875 1.8906 7.25 0 5.8125-4.0781 9.4688-4.0781 3.6719-10.625 3.6719-4.6406 0-9.7969-1.6094-5.1406-1.6094-11-4.8906v9.9688q5.9531 2.3906 11.125 3.6094 5.1875 1.2188 9.4844 1.2188 11.328 0 18.062-5.6719 6.7344-5.6562 6.7344-15.125 0-4.5-1.6875-8.5312-1.6719-4.0156-6.125-9.4844-1.2188-1.4219-7.7656-8.1875-6.5312-6.7656-18.453-18.922z"/>
</defs>
<g transform="translate(52.137 540.42) scale(.1 -.1)">
<use xlink:href="#c"/>
<use x="63.623047" xlink:href="#d"/>
<use x="95.410156" xlink:href="#m"/>
</g>
</g>
<g clip-path="url(#a)">
<defs>
<path id="n" d="m40.578 39.312q7.0781-1.5156 11.047-6.3125 3.9844-4.7812 3.9844-11.812 0-10.781-7.4219-16.703-7.4219-5.9062-21.094-5.9062-4.5781 0-9.4375 0.90625t-10.031 2.7188v9.5156q4.0938-2.3906 8.9688-3.6094 4.8906-1.2188 10.219-1.2188 9.2656 0 14.125 3.6562t4.8594 10.641q0 6.4531-4.5156 10.078-4.5156 3.6406-12.562 3.6406h-8.5v8.1094h8.8906q7.2656 0 11.125 2.9062t3.8594 8.375q0 5.6094-3.9844 8.6094-3.9688 3.0156-11.391 3.0156-4.0625 0-8.7031-0.89062-4.6406-0.875-10.203-2.7188v8.7812q5.625 1.5625 10.531 2.3438t9.25 0.78125q11.234 0 17.766-5.1094 6.5469-5.0938 6.5469-13.781 0-6.0625-3.4688-10.234t-9.8594-5.7812z"/>
</defs>
<g transform="translate(140.82 540.42) scale(.1 -.1)">
<use xlink:href="#c"/>
<use x="63.623047" xlink:href="#d"/>
<use x="95.410156" xlink:href="#n"/>
</g>
</g>
<g clip-path="url(#a)">
<defs>
<path id="q" d="m37.797 64.312-24.906-38.922h24.906zm-2.5938 8.5938h12.406v-47.516h10.406v-8.2031h-10.406v-17.188h-9.8125v17.188h-32.906v9.5156z"/>
</defs>
<g transform="translate(697.83 165.44) scale(.1 -.1)">
<use xlink:href="#c"/>
<use x="63.623047" xlink:href="#d"/>
<use x="95.410156" xlink:href="#q"/>
</g>
</g>
<g clip-path="url(#a)">
<g transform="translate(628.55 540.42) scale(.1 -.1)">
<use xlink:href="#c"/>
<use x="63.623047" xlink:href="#d"/>
<use x="95.410156" xlink:href="#ae"/>
</g>
</g>
<g clip-path="url(#a)">
<defs>
<path id="ad" d="m33.016 40.375q-6.6406 0-10.531-4.5469-3.875-4.5312-3.875-12.438 0-7.8594 3.875-12.438 3.8906-4.5625 10.531-4.5625t10.516 4.5625q3.875 4.5781 3.875 12.438 0 7.9062-3.875 12.438-3.875 4.5469-10.516 4.5469zm19.578 30.922v-8.9844q-3.7188 1.75-7.5 2.6719-3.7812 0.9375-7.5 0.9375-9.7656 0-14.922-6.5938-5.1406-6.5938-5.875-19.922 2.875 4.25 7.2188 6.5156 4.3594 2.2656 9.5781 2.2656 10.984 0 17.359-6.6719 6.375-6.6562 6.375-18.125 0-11.234-6.6406-18.031-6.6406-6.7812-17.672-6.7812-12.656 0-19.344 9.6875-6.6875 9.7031-6.6875 28.109 0 17.281 8.2031 27.562t22.016 10.281q3.7188 0 7.5-0.73438t7.8906-2.1875z"/>
</defs>
<g transform="translate(879.8 165.44) scale(.1 -.1)">
<use xlink:href="#c"/>
<use x="63.623047" xlink:href="#d"/>
<use x="95.410156" xlink:href="#ad"/>
</g>
</g>
<g clip-path="url(#a)">
<defs>
<path id="ah" d="m8.2031 72.906h46.875v-4.2031l-26.469-68.703h-10.297l24.906 64.594h-35.016z"/>
</defs>
<g transform="translate(943.35 292.61) scale(.1 -.1)">
<use xlink:href="#c"/>
<use x="63.623047" xlink:href="#d"/>
<use x="95.410156" xlink:href="#ah"/>
</g>
</g>
<g clip-path="url(#a)">
<g transform="translate(935.74 540.42) scale(.1 -.1)">
<use xlink:href="#c"/>
<use x="63.623047" xlink:href="#d"/>
<use x="95.410156" xlink:href="#c"/>
<use x="159.033203" xlink:href="#c"/>
</g>
</g>
<g clip-path="url(#a)">
<g transform="translate(980.08 540.42) scale(.1 -.1)">
<use xlink:href="#c"/>
<use x="63.623047" xlink:href="#d"/>
<use x="95.410156" xlink:href="#c"/>
<use x="159.033203" xlink:href="#m"/>
</g>
</g>
<g clip-path="url(#a)">
<g transform="translate(1024.4 540.42) scale(.1 -.1)">
<use xlink:href="#c"/>
<use x="63.623047" xlink:href="#d"/>
<use x="95.410156" xlink:href="#c"/>
<use x="159.033203" xlink:href="#n"/>
</g>
</g>
<g clip-path="url(#a)">
<g transform="translate(820.46 417.37) scale(.1 -.1)">
<use xlink:href="#c"/>
<use x="63.623047" xlink:href="#d"/>
<use x="95.410156" xlink:href="#c"/>
<use x="159.033203" xlink:href="#q"/>
</g>
</g>
<g clip-path="url(#a)">
<g transform="translate(1068.8 540.42) scale(.1 -.1)">
<use xlink:href="#c"/>
<use x="63.623047" xlink:href="#d"/>
<use x="95.410156" xlink:href="#c"/>
<use x="159.033203" xlink:href="#ae"/>
</g>
</g>
<g clip-path="url(#a)">
<g transform="translate(1113.1 540.42) scale(.1 -.1)">
<use xlink:href="#c"/>
<use x="63.623047" xlink:href="#d"/>
<use x="95.410156" xlink:href="#c"/>
<use x="159.033203" xlink:href="#ad"/>
</g>
</g>
<g clip-path="url(#a)">
<defs>
<path id="al" d="m9.8125 72.906h14.703l18.594-49.609 18.703 49.609h14.703v-72.906h-9.625v64.016l-18.797-50h-9.9062l-18.797 50v-64.016h-9.5781z"/>
</defs>
<g transform="translate(1191.8 663.47) scale(.1 -.1)">
<use xlink:href="#p"/>
<use x="29.492188" xlink:href="#al"/>
<use x="115.771484" xlink:href="#u"/>
<use x="176.074219" xlink:href="#v"/>
<use x="231.787109" xlink:href="#p"/>
<use x="261.279297" xlink:href="#r"/>
<use x="331.103516" xlink:href="#p"/>
<use x="360.595703" xlink:href="#j"/>
</g>
</g>
<g clip-path="url(#a)">
<defs>
<path id="ag" d="m31.781 34.625q-7.0312 0-11.062-3.7656-4.0156-3.7656-4.0156-10.344 0-6.5938 4.0156-10.359 4.0312-3.7656 11.062-3.7656t11.078 3.7812q4.0625 3.7969 4.0625 10.344 0 6.5781-4.0312 10.344-4.0156 3.7656-11.109 3.7656zm-9.8594 4.1875q-6.3438 1.5625-9.8906 5.9062-3.5312 4.3594-3.5312 10.609 0 8.7344 6.2188 13.812 6.2344 5.0781 17.062 5.0781 10.891 0 17.094-5.0781t6.2031-13.812q0-6.25-3.5469-10.609-3.5312-4.3438-9.8281-5.9062 7.125-1.6562 11.094-6.5 3.9844-4.8281 3.9844-11.797 0-10.609-6.4688-16.281-6.4688-5.6562-18.531-5.6562-12.047 0-18.531 5.6562-6.4688 5.6719-6.4688 16.281 0 6.9688 4 11.797 4.0156 4.8438 11.141 6.5zm-3.6094 15.578q0-5.6562 3.5312-8.8281 3.5469-3.1719 9.9375-3.1719 6.3594 0 9.9375 3.1719 3.5938 3.1719 3.5938 8.8281 0 5.6719-3.5938 8.8438-3.5781 3.1719-9.9375 3.1719-6.3906 0-9.9375-3.1719-3.5312-3.1719-3.5312-8.8438z"/>
</defs>
<g transform="translate(669.7 540.42) scale(.1 -.1)">
<use xlink:href="#c"/>
<use x="63.623047" xlink:href="#d"/>
<use x="95.410156" xlink:href="#c"/>
<use x="159.033203" xlink:href="#ag"/>
</g>
</g>
<g clip-path="url(#a)">
<defs>
<path id="af" d="m10.984 1.5156v8.9844q3.7188-1.7656 7.5156-2.6875 3.8125-0.92188 7.4844-0.92188 9.7656 0 14.906 6.5625 5.1562 6.5625 5.8906 19.953-2.8281-4.2031-7.1875-6.4531-4.3438-2.25-9.6094-2.25-10.938 0-17.312 6.6094-6.375 6.625-6.375 18.109 0 11.219 6.6406 18 6.6406 6.7969 17.672 6.7969 12.656 0 19.312-9.7031 6.6719-9.6875 6.6719-28.141 0-17.234-8.1875-27.516-8.1719-10.281-21.984-10.281-3.7188 0-7.5312 0.73438-3.7969 0.73438-7.9062 2.2031zm19.625 30.906q6.6406 0 10.516 4.5312 3.8906 4.5469 3.8906 12.469 0 7.8594-3.8906 12.422-3.875 4.5625-10.516 4.5625t-10.516-4.5625-3.875-12.422q0-7.9219 3.875-12.469 3.875-4.5312 10.516-4.5312z"/>
</defs>
<g transform="translate(758.38 292.61) scale(.1 -.1)">
<use xlink:href="#c"/>
<use x="63.623047" xlink:href="#d"/>
<use x="95.410156" xlink:href="#c"/>
<use x="159.033203" xlink:href="#af"/>
</g>
</g>
<g clip-path="url(#a)">
<g transform="translate(714.04 540.42) scale(.1 -.1)">
<use xlink:href="#c"/>
<use x="63.623047" xlink:href="#d"/>
<use x="95.410156" xlink:href="#m"/>
<use x="159.033203" xlink:href="#s"/>
</g>
</g>
<g clip-path="url(#a)">
<g transform="translate(802.72 417.37) scale(.1 -.1)">
<use xlink:href="#c"/>
<use x="63.623047" xlink:href="#d"/>
<use x="95.410156" xlink:href="#m"/>
<use x="159.033203" xlink:href="#c"/>
</g>
</g>
<g clip-path="url(#a)">
<g transform="translate(758.38 540.42) scale(.1 -.1)">
<use xlink:href="#c"/>
<use x="63.623047" xlink:href="#d"/>
<use x="95.410156" xlink:href="#m"/>
<use x="159.033203" xlink:href="#m"/>
</g>
</g>
<g clip-path="url(#a)">
<g transform="translate(802.72 540.42) scale(.1 -.1)">
<use xlink:href="#c"/>
<use x="63.623047" xlink:href="#d"/>
<use x="95.410156" xlink:href="#m"/>
<use x="159.033203" xlink:href="#n"/>
</g>
</g>
<g clip-path="url(#a)">
<g transform="translate(847.06 540.42) scale(.1 -.1)">
<use xlink:href="#c"/>
<use x="63.623047" xlink:href="#d"/>
<use x="95.410156" xlink:href="#m"/>
<use x="159.033203" xlink:href="#q"/>
</g>
</g>
<g clip-path="url(#a)">
<g transform="translate(1236.2 663.47) scale(.1 -.1)">
<use xlink:href="#p"/>
<use x="29.492188" xlink:href="#al"/>
<use x="115.771484" xlink:href="#u"/>
<use x="176.074219" xlink:href="#v"/>
<use x="231.787109" xlink:href="#p"/>
<use x="261.279297" xlink:href="#r"/>
<use x="331.103516" xlink:href="#p"/>
<use x="360.595703" xlink:href="#j"/>
</g>
</g>
<g clip-path="url(#a)">
<g transform="translate(181.97 540.42) scale(.1 -.1)">
<use xlink:href="#c"/>
<use x="63.623047" xlink:href="#d"/>
<use x="95.410156" xlink:href="#m"/>
<use x="159.033203" xlink:href="#ad"/>
</g>
</g>
<g clip-path="url(#a)">
<g transform="translate(414.75 292.61) scale(.1 -.1)">
<use xlink:href="#c"/>
<use x="63.623047" xlink:href="#d"/>
<use x="95.410156" xlink:href="#m"/>
<use x="159.033203" xlink:href="#ah"/>
</g>
</g>
<g clip-path="url(#a)">
<g transform="translate(226.31 540.42) scale(.1 -.1)">
<use xlink:href="#c"/>
<use x="63.623047" xlink:href="#d"/>
<use x="95.410156" xlink:href="#m"/>
<use x="159.033203" xlink:href="#ag"/>
</g>
</g>
<g clip-path="url(#a)">
<g transform="translate(425.84 417.37) scale(.1 -.1)">
<use xlink:href="#c"/>
<use x="63.623047" xlink:href="#d"/>
<use x="95.410156" xlink:href="#m"/>
<use x="159.033203" xlink:href="#af"/>
</g>
</g>
<g clip-path="url(#a)">
<g transform="translate(337.16 417.37) scale(.1 -.1)">
<use xlink:href="#c"/>
<use x="63.623047" xlink:href="#d"/>
<use x="95.410156" xlink:href="#n"/>
<use x="159.033203" xlink:href="#s"/>
</g>
</g>
<g clip-path="url(#a)">
<g transform="translate(514.52 417.37) scale(.1 -.1)">
<use xlink:href="#c"/>
<use x="63.623047" xlink:href="#d"/>
<use x="95.410156" xlink:href="#n"/>
<use x="159.033203" xlink:href="#c"/>
</g>
</g>
<g clip-path="url(#a)">
<g transform="translate(581.03 540.42) scale(.1 -.1)">
<use xlink:href="#c"/>
<use x="63.623047" xlink:href="#d"/>
<use x="95.410156" xlink:href="#n"/>
<use x="159.033203" xlink:href="#m"/>
</g>
</g>
<g clip-path="url(#a)">
<g transform="translate(448.01 540.42) scale(.1 -.1)">
<use xlink:href="#c"/>
<use x="63.623047" xlink:href="#d"/>
<use x="95.410156" xlink:href="#n"/>
<use x="159.033203" xlink:href="#q"/>
</g>
</g>
<g clip-path="url(#a)">
<g transform="translate(492.35 540.42) scale(.1 -.1)">
<use xlink:href="#c"/>
<use x="63.623047" xlink:href="#d"/>
<use x="95.410156" xlink:href="#n"/>
<use x="159.033203" xlink:href="#ae"/>
</g>
</g>
<g clip-path="url(#a)">
<g transform="translate(93.295 540.42) scale(.1 -.1)">
<use xlink:href="#c"/>
<use x="63.623047" xlink:href="#d"/>
<use x="95.410156" xlink:href="#n"/>
<use x="159.033203" xlink:href="#ad"/>
</g>
</g>
<g clip-path="url(#a)">
<g transform="translate(314.99 540.42) scale(.1 -.1)">
<use xlink:href="#c"/>
<use x="63.623047" xlink:href="#d"/>
<use x="95.410156" xlink:href="#n"/>
<use x="159.033203" xlink:href="#ah"/>
</g>
</g>
<g clip-path="url(#a)">
<g transform="translate(359.33 540.42) scale(.1 -.1)">
<use xlink:href="#c"/>
<use x="63.623047" xlink:href="#d"/>
<use x="95.410156" xlink:href="#n"/>
<use x="159.033203" xlink:href="#ag"/>
</g>
</g>
<g clip-path="url(#a)">
<g transform="translate(270.65 540.42) scale(.1 -.1)">
<use xlink:href="#c"/>
<use x="63.623047" xlink:href="#d"/>
<use x="95.410156" xlink:href="#n"/>
<use x="159.033203" xlink:href="#af"/>
</g>
</g>
<g clip-path="url(#a)">
<g transform="translate(403.67 540.42) scale(.1 -.1)">
<use xlink:href="#c"/>
<use x="63.623047" xlink:href="#d"/>
<use x="95.410156" xlink:href="#q"/>
<use x="159.033203" xlink:href="#s"/>
</g>
</g>
<g clip-path="url(#a)">
<g transform="translate(536.69 540.42) scale(.1 -.1)">
<use xlink:href="#c"/>
<use x="63.623047" xlink:href="#d"/>
<use x="95.410156" xlink:href="#q"/>
<use x="159.033203" xlink:href="#c"/>
</g>
</g>
<g clip-path="url(#a)">
<g transform="translate(891.4 540.42) scale(.1 -.1)">
<use xlink:href="#c"/>
<use x="63.623047" xlink:href="#d"/>
<use x="95.410156" xlink:href="#q"/>
<use x="159.033203" xlink:href="#m"/>
</g>
</g>
<g clip-path="url(#a)">
<g transform="translate(1157.4 540.42) scale(.1 -.1)">
<use xlink:href="#c"/>
<use x="63.623047" xlink:href="#d"/>
<use x="95.410156" xlink:href="#q"/>
<use x="159.033203" xlink:href="#n"/>
</g>
</g>
<defs>
<clipPath id="a">
<rect width="1317.3" height="693.33"/>
</clipPath>
</defs>
</svg>
