<?xml version="1.0" encoding="UTF-8"?>
<!DOCTYPE svg  PUBLIC '-//W3C//DTD SVG 1.1//EN'  'http://www.w3.org/Graphics/SVG/1.1/DTD/svg11.dtd'>
<svg width="1216pt" height="640pt" version="1.1" viewBox="0 0 1216 640" xmlns="http://www.w3.org/2000/svg" xmlns:xlink="http://www.w3.org/1999/xlink">
<metadata>
<rdf:RDF xmlns:cc="http://creativecommons.org/ns#" xmlns:dc="http://purl.org/dc/elements/1.1/" xmlns:rdf="http://www.w3.org/1999/02/22-rdf-syntax-ns#">
<cc:Work>
<dc:type rdf:resource="http://purl.org/dc/dcmitype/StillImage"/>
<dc:date>2021-02-25T11:31:09.420289</dc:date>
<dc:format>image/svg+xml</dc:format>
<dc:creator>
<cc:Agent>
<dc:title>Matplotlib v3.3.3, https://matplotlib.org/</dc:title>
</cc:Agent>
</dc:creator>
</cc:Work>
</rdf:RDF>
</metadata>
<defs>
<style type="text/css">*{stroke-linecap:butt;stroke-linejoin:round;}</style>
</defs>
<path d="m0 640h1216v-640h-1216z" fill="#fff"/>
<g fill="none" stroke="#000">
<path d="m225.03 29.091-169.76 486.57" clip-path="url(#a)"/>
<path d="m225.03 29.091-89.815 292.92" clip-path="url(#a)"/>
<path d="m225.03 29.091 259.57 97.853" clip-path="url(#a)"/>
<path d="m55.273 515.66v95.248" clip-path="url(#a)"/>
<path d="m135.21 322.01-69.643 193.65" clip-path="url(#a)"/>
<path d="m135.21 322.01-55.91 193.65" clip-path="url(#a)"/>
<path d="m135.21 322.01-38.745 193.65" clip-path="url(#a)"/>
<path d="m135.21 322.01-18.146 193.65" clip-path="url(#a)"/>
<path d="m135.21 322.01 5.8853 193.65" clip-path="url(#a)"/>
<path d="m135.21 322.01 48.799 97.079" clip-path="url(#a)"/>
<path d="m135.21 322.01 127.76 97.079" clip-path="url(#a)"/>
<path d="m484.6 126.94-127.22 388.72" clip-path="url(#a)"/>
<path d="m484.6 126.94-79.154 388.72" clip-path="url(#a)"/>
<path d="m484.6 126.94-27.658 388.72" clip-path="url(#a)"/>
<path d="m484.6 126.94 234.03 97.656" clip-path="url(#a)"/>
<path d="m357.38 515.66v95.248" clip-path="url(#a)"/>
<path d="m405.45 515.66v95.248" clip-path="url(#a)"/>
<path d="m456.94 515.66v95.248" clip-path="url(#a)"/>
<path d="m718.63 224.6-148.4 291.06" clip-path="url(#a)"/>
<path d="m718.63 224.6-21.371 291.06" clip-path="url(#a)"/>
<path d="m718.63 224.6 71.494 97.41" clip-path="url(#a)"/>
<path d="m718.63 224.6 98.272 97.41" clip-path="url(#a)"/>
<path d="m570.24 515.66v95.248" clip-path="url(#a)"/>
<path d="m697.26 515.66v95.248" clip-path="url(#a)"/>
<path d="m790.13 322.01-278.25 193.65" clip-path="url(#a)"/>
<path d="m790.13 322.01-158.09 193.65" clip-path="url(#a)"/>
<path d="m790.13 322.01 47.892 193.65" clip-path="url(#a)"/>
<path d="m790.13 322.01 123.42 193.65" clip-path="url(#a)"/>
<path d="m790.13 322.01 265.03 97.079" clip-path="url(#a)"/>
<path d="m816.9 322.01-50.981 193.65" clip-path="url(#a)"/>
<path d="m816.9 322.01-305.03 193.65" clip-path="url(#a)" stroke-dasharray="3.7,1.6"/>
<path d="m816.9 322.01 21.113 193.65" clip-path="url(#a)" stroke-dasharray="3.7,1.6"/>
<path d="m816.9 322.01 96.641 193.65" clip-path="url(#a)" stroke-dasharray="3.7,1.6"/>
<path d="m816.9 322.01 238.26 97.079" clip-path="url(#a)" stroke-dasharray="3.7,1.6"/>
<path d="m765.92 515.66v95.248" clip-path="url(#a)"/>
<path d="m511.87 515.66v95.248" clip-path="url(#a)"/>
<path d="m632.03 515.66v95.248" clip-path="url(#a)"/>
<path d="m838.02 515.66v95.248" clip-path="url(#a)"/>
<path d="m913.54 515.66v95.248" clip-path="url(#a)"/>
<path d="m1055.2 419.09-62.654 96.573" clip-path="url(#a)"/>
<path d="m1055.2 419.09 62.654 96.573" clip-path="url(#a)"/>
<path d="m992.51 515.66v95.248" clip-path="url(#a)"/>
<path d="m1117.8 515.66-42.914 95.248" clip-path="url(#a)"/>
<path d="m1117.8 515.66 42.914 95.248" clip-path="url(#a)"/>
<path d="m65.572 515.66v95.248" clip-path="url(#a)"/>
<path d="m79.304 515.66v95.248" clip-path="url(#a)"/>
<path d="m96.47 515.66v95.248" clip-path="url(#a)"/>
<path d="m117.07 515.66v95.248" clip-path="url(#a)"/>
<path d="m141.1 515.66v95.248" clip-path="url(#a)"/>
<path d="m184.01 419.09-15.449 96.573" clip-path="url(#a)"/>
<path d="m184.01 419.09 15.449 96.573" clip-path="url(#a)"/>
<path d="m262.97 419.09-29.181 96.573" clip-path="url(#a)"/>
<path d="m262.97 419.09 29.181 96.573" clip-path="url(#a)"/>
<path d="m233.79 515.66v95.248" clip-path="url(#a)"/>
<path d="m292.16 515.66-20.599 95.248" clip-path="url(#a)"/>
<path d="m292.16 515.66 20.599 95.248" clip-path="url(#a)"/>
<path d="m168.56 515.66v95.248" clip-path="url(#a)"/>
<path d="m199.46 515.66v95.248" clip-path="url(#a)"/>
</g>
<path d="m145.34 276.55 1.4684-4.2087q0.79059-2.266-1.4755-3.0566l-7.3104-2.5505q-2.266-0.79059-3.0566 1.4755l-1.4684 4.2087q-0.79059 2.266 1.4755 3.0566l7.3104 2.5505q2.266 0.79059 3.0566-1.4755z" clip-path="url(#a)" fill="#fff" stroke="#fff"/>
<g clip-path="url(#a)">
<g transform="translate(141.5 275.21) rotate(-70.767) scale(.08 -.08)">
<defs>
<path id="ai" d="m9.8125 72.906h9.8594v-64.609h35.5v-8.2969h-45.359z"/>
</defs>
<use xlink:href="#ai"/>
</g>
</g>
<path d="m185.24 180.26 1.7637-5.7519q0.70356-2.2946-1.591-2.9981l-7.4023-2.2697q-2.2946-0.70356-2.9981 1.591l-1.7637 5.7519q-0.70356 2.2946 1.591 2.9981l7.4023 2.2697q2.2946 0.70356 2.9981-1.591z" clip-path="url(#a)" fill="#fff" stroke="#fff"/>
<g clip-path="url(#a)">
<g transform="translate(181.35 179.07) rotate(-72.953) scale(.08 -.08)">
<defs>
<path id="t" d="m9.8125 72.906h9.8594v-29.891h35.844v29.891h9.8594v-72.906h-9.8594v34.719h-35.844v-34.719h-9.8594z"/>
</defs>
<use xlink:href="#t"/>
</g>
</g>
<path d="m349.79 82.824 5.6295 2.1222q2.2457 0.84659 3.0923-1.3991l2.7311-7.2448q0.84659-2.2457-1.3991-3.0923l-5.6295-2.1222q-2.2457-0.84659-3.0923 1.3991l-2.7311 7.2448q-0.84659 2.2457 1.3991 3.0923z" clip-path="url(#a)" fill="#fff" stroke="#fff"/>
<g clip-path="url(#a)">
<g transform="translate(351.22 79.022) rotate(20.655) scale(.08 -.08)">
<use xlink:href="#t"/>
</g>
</g>
<path d="m49.001 546.38v33.808q0 2.4 2.4 2.4h7.7425q2.4 0 2.4-2.4v-33.808q0-2.4-2.4-2.4h-7.7425q-2.4 0-2.4 2.4z" clip-path="url(#a)" fill="#fff" stroke="#fff"/>
<g clip-path="url(#a)">
<g transform="translate(53.065 546.38) rotate(90) scale(.08 -.08)">
<defs>
<path id="l" d="m-0.29688 72.906h61.672v-8.3125h-25.875v-64.594h-9.9062v64.594h-25.891z"/>
<path id="d" d="m56.203 29.594v-4.3906h-41.312q0.59375-9.2812 5.5938-14.141t13.938-4.8594q5.1719 0 10.031 1.2656t9.6562 3.8125v-8.5q-4.8438-2.0469-9.9219-3.125t-10.297-1.0781q-13.094 0-20.734 7.6094-7.6406 7.625-7.6406 20.625 0 13.422 7.25 21.297 7.25 7.8906 19.562 7.8906 11.031 0 17.453-7.1094 6.4219-7.0938 6.4219-19.297zm-8.9844 2.6406q-0.09375 7.3594-4.125 11.75-4.0312 4.4062-10.672 4.4062-7.5156 0-12.031-4.25t-5.2031-11.969z"/>
<path id="j" d="m41.109 46.297q-1.5156 0.875-3.2969 1.2812-1.7812 0.42188-3.9219 0.42188-7.625 0-11.703-4.9531t-4.0781-14.234v-28.812h-9.0312v54.688h9.0312v-8.5q2.8438 4.9844 7.375 7.3906 4.5469 2.4219 11.047 2.4219 0.92188 0 2.0469-0.125 1.125-0.10938 2.4844-0.35938z"/>
<path id="k" d="m52 44.188q3.375 6.0625 8.0625 8.9375t11.031 2.875q8.5469 0 13.188-5.9844 4.6406-5.9688 4.6406-17v-33.016h-9.0312v32.719q0 7.8594-2.7969 11.656-2.7812 3.8125-8.4844 3.8125-6.9844 0-11.047-4.6406-4.0469-4.625-4.0469-12.641v-30.906h-9.0312v32.719q0 7.9062-2.7812 11.688t-8.5938 3.7812q-6.8906 0-10.953-4.6562-4.0469-4.6562-4.0469-12.625v-30.906h-9.0312v54.688h9.0312v-8.5q3.0781 5.0312 7.375 7.4219t10.203 2.3906q5.9688 0 10.141-3.0312 4.1719-3.0156 6.1719-8.7812z"/>
<path id="f" d="m9.4219 54.688h8.9844v-54.688h-8.9844zm0 21.297h8.9844v-11.391h-8.9844z"/>
<path id="i" d="m54.891 33.016v-33.016h-8.9844v32.719q0 7.7656-3.0312 11.609-3.0312 3.8594-9.0781 3.8594-7.2812 0-11.484-4.6406-4.2031-4.625-4.2031-12.641v-30.906h-9.0312v54.688h9.0312v-8.5q3.2344 4.9375 7.5938 7.375 4.375 2.4375 10.094 2.4375 9.4219 0 14.25-5.8281 4.8438-5.8281 4.8438-17.156z"/>
<path id="e" d="m34.281 27.484q-10.891 0-15.094-2.4844t-4.2031-8.5q0-4.7812 3.1562-7.5938 3.1562-2.7969 8.5625-2.7969 7.4844 0 12 5.2969t4.5156 14.078v2zm17.922 3.7188v-31.203h-8.9844v8.2969q-3.0781-4.9688-7.6719-7.3438t-11.234-2.375q-8.3906 0-13.359 4.7188-4.9531 4.7188-4.9531 12.625 0 9.2188 6.1719 13.906 6.1875 4.6875 18.438 4.6875h12.609v0.89062q0 6.2031-4.0781 9.5938t-11.453 3.3906q-4.6875 0-9.1406-1.125-4.4375-1.125-8.5312-3.375v8.3125q4.9219 1.9062 9.5625 2.8438 4.6406 0.95312 9.0312 0.95312 11.875 0 17.734-6.1562 5.8594-6.1406 5.8594-18.641z"/>
<path id="h" d="m9.4219 75.984h8.9844v-75.984h-8.9844z"/>
</defs>
<use xlink:href="#l"/>
<use x="44.083984" xlink:href="#d"/>
<use x="105.607422" xlink:href="#j"/>
<use x="144.970703" xlink:href="#k"/>
<use x="242.382812" xlink:href="#f"/>
<use x="270.166016" xlink:href="#i"/>
<use x="333.544922" xlink:href="#e"/>
<use x="394.824219" xlink:href="#h"/>
</g>
</g>
<path d="m105.37 423.53 1.8519-5.1496q0.81218-2.2584-1.4462-3.0706l-7.2857-2.6201q-2.2584-0.81218-3.0706 1.4462l-1.8519 5.1496q-0.81218 2.2584 1.4462 3.0706l7.2857 2.6201q2.2584 0.81218 3.0706-1.4462z" clip-path="url(#a)" fill="#fff" stroke="#fff"/>
<g clip-path="url(#a)">
<g transform="translate(101.54 422.16) rotate(-70.22) scale(.08 -.08)">
<defs>
<path id="n" d="m34.188 63.188-13.391-36.281h26.812zm-5.5781 9.7188h11.188l27.781-72.906h-10.25l-6.6406 18.703h-32.859l-6.6406-18.703h-10.406z"/>
</defs>
<use xlink:href="#n"/>
</g>
</g>
<path d="m112.43 423.53 1.7087-5.9183q0.66573-2.3058-1.6401-2.9715l-7.4387-2.1477q-2.3058-0.66573-2.9715 1.6401l-1.7087 5.9183q-0.66573 2.3058 1.6401 2.9715l7.4387 2.1477q2.3058 0.66573 2.9715-1.6401z" clip-path="url(#a)" fill="#fff" stroke="#fff"/>
<g clip-path="url(#a)">
<g transform="translate(108.53 422.41) rotate(-73.896) scale(.08 -.08)">
<defs>
<path id="v" d="m19.672 64.797v-56.688h11.922q15.094 0 22.094 6.8281 7 6.8438 7 21.594 0 14.641-7 21.453t-22.094 6.8125zm-9.8594 8.1094h20.266q21.188 0 31.094-8.8125 9.9219-8.8125 9.9219-27.562 0-18.859-9.9688-27.703-9.9531-8.8281-31.047-8.8281h-20.266z"/>
</defs>
<use xlink:href="#v"/>
</g>
</g>
<path d="m121.54 422.32 0.9027-4.5118q0.47085-2.3534-1.8825-2.8242l-7.592-1.519q-2.3534-0.47085-2.8242 1.8825l-0.9027 4.5118q-0.47085 2.3534 1.8825 2.8242l7.592 1.519q2.3534 0.47085 2.8242-1.8825z" clip-path="url(#a)" fill="#fff" stroke="#fff"/>
<g clip-path="url(#a)">
<g transform="translate(117.56 421.52) rotate(-78.686) scale(.08 -.08)">
<defs>
<path id="u" d="m9.8125 72.906h41.891v-8.3125h-32.031v-21.484h28.906v-8.2969h-28.906v-34.812h-9.8594z"/>
</defs>
<use xlink:href="#u"/>
</g>
</g>
<path d="m132.1 422.49 0.57471-6.1331q0.22391-2.3895-2.1656-2.6134l-7.7087-0.72235q-2.3895-0.22391-2.6134 2.1656l-0.57471 6.1331q-0.22391 2.3895 2.1656 2.6134l7.7087 0.72235q2.3895 0.22391 2.6134-2.1656z" clip-path="url(#a)" fill="#fff" stroke="#fff"/>
<g clip-path="url(#a)">
<g transform="translate(128.05 422.11) rotate(-84.647) scale(.08 -.08)">
<use xlink:href="#v"/>
</g>
</g>
<path d="m131.82 416.62 0.14653 4.8215q0.072905 2.3989 2.4718 2.326l7.7389-0.2352q2.3989-0.072905 2.326-2.4718l-0.14653-4.8215q-0.072905-2.3989-2.4718-2.326l-7.7389 0.23519q-2.3989 0.072905-2.326 2.4718z" clip-path="url(#a)" fill="#fff" stroke="#fff"/>
<g clip-path="url(#a)">
<g transform="translate(135.88 416.49) rotate(88.259) scale(.08 -.08)">
<defs>
<path id="y" d="m19.672 64.797v-27.391h12.406q6.8906 0 10.641 3.5625 3.7656 3.5625 3.7656 10.156 0 6.5469-3.7656 10.109-3.75 3.5625-10.641 3.5625zm-9.8594 8.1094h22.266q12.266 0 18.531-5.5469 6.2812-5.5469 6.2812-16.234 0-10.797-6.2812-16.312-6.2656-5.5156-18.531-5.5156h-12.406v-29.297h-9.8594z"/>
</defs>
<use xlink:href="#y"/>
</g>
</g>
<path d="m152.78 370.92 2.4578 4.8895q1.0779 2.1443 3.2222 1.0664l6.9177-3.4773q2.1443-1.0779 1.0664-3.2222l-2.4578-4.8895q-1.0779-2.1443-3.2222-1.0664l-6.9177 3.4773q-2.1443 1.0779-1.0664 3.2222z" clip-path="url(#a)" fill="#fff" stroke="#fff"/>
<g clip-path="url(#a)">
<g transform="translate(156.41 369.1) rotate(63.313) scale(.08 -.08)">
<use xlink:href="#n"/>
</g>
</g>
<path d="m193.12 373.89 4.3573 3.3109q1.9109 1.452 3.3629-0.4589l4.6843-6.1647q1.452-1.9109-0.4589-3.3629l-4.3573-3.3109q-1.9109-1.452-3.3629 0.4589l-4.6843 6.1647q-1.452 1.9109 0.4589 3.3629z" clip-path="url(#a)" fill="#fff" stroke="#fff"/>
<g clip-path="url(#a)">
<g transform="translate(195.58 370.65) rotate(37.23) scale(.08 -.08)">
<use xlink:href="#n"/>
</g>
</g>
<path d="m426.1 325.85 1.7022-5.201q0.7465-2.281-1.5345-3.0274l-7.3584-2.4082q-2.281-0.7465-3.0274 1.5345l-1.7022 5.201q-0.7465 2.281 1.5345 3.0274l7.3584 2.4082q2.281 0.7465 3.0274-1.5345z" clip-path="url(#a)" fill="#fff" stroke="#fff"/>
<g clip-path="url(#a)">
<g transform="translate(422.24 324.59) rotate(-71.878) scale(.08 -.08)">
<use xlink:href="#n"/>
</g>
</g>
<path d="m450.71 324.81 0.91811-4.5087q0.47888-2.3517-1.8729-2.8306l-7.5868-1.5449q-2.3517-0.47888-2.8306 1.8729l-0.91811 4.5087q-0.47888 2.3517 1.8729 2.8306l7.5868 1.5449q2.3517 0.47888 2.8306-1.8729z" clip-path="url(#a)" fill="#fff" stroke="#fff"/>
<g clip-path="url(#a)">
<g transform="translate(446.73 324) rotate(-78.49) scale(.08 -.08)">
<use xlink:href="#u"/>
</g>
</g>
<path d="m476.85 324.28 0.36045-5.0659q0.17033-2.3939-2.2236-2.5643l-7.723-0.5495q-2.3939-0.17033-2.5643 2.2236l-0.36045 5.0659q-0.17033 2.3939 2.2236 2.5643l7.723 0.5495q2.3939 0.17033 2.5643-2.2236z" clip-path="url(#a)" fill="#fff" stroke="#fff"/>
<g clip-path="url(#a)">
<g transform="translate(472.79 323.99) rotate(-85.93) scale(.08 -.08)">
<defs>
<path id="ap" d="m53.516 70.516v-9.625q-5.6094 2.6875-10.594 4-4.9844 1.3281-9.625 1.3281-8.0469 0-12.422-3.125t-4.375-8.8906q0-4.8438 2.9062-7.3125 2.9062-2.4531 11.016-3.9688l5.9531-1.2188q11.031-2.1094 16.281-7.4062t5.25-14.172q0-10.609-7.1094-16.078-7.0938-5.4688-20.812-5.4688-5.1719 0-11.016 1.1719-5.8281 1.1719-12.078 3.4688v10.156q6-3.3594 11.766-5.0781 5.7656-1.7031 11.328-1.7031 8.4375 0 13.031 3.3125 4.5938 3.3281 4.5938 9.4844 0 5.3594-3.2969 8.3906t-10.812 4.5469l-6.0156 1.1719q-11.031 2.1875-15.969 6.875-4.9219 4.6875-4.9219 13.047 0 9.6719 6.8125 15.234t18.766 5.5625q5.1406 0 10.453-0.9375 5.3281-0.92188 10.891-2.7656z"/>
</defs>
<use xlink:href="#ap"/>
</g>
</g>
<path d="m596.68 180.51 5.0504 2.1075q2.2149 0.92424 3.1391-1.2907l2.9816-7.1454q0.92424-2.2149-1.2907-3.1391l-5.0504-2.1075q-2.2149-0.92424-3.1391 1.2907l-2.9816 7.1454q-0.92424 2.2149 1.2907 3.1391z" clip-path="url(#a)" fill="#fff" stroke="#fff"/>
<g clip-path="url(#a)">
<g transform="translate(598.24 176.76) rotate(22.65) scale(.08 -.08)">
<use xlink:href="#n"/>
</g>
</g>
<path d="m351.11 546.38v33.808q0 2.4 2.4 2.4h7.7425q2.4 0 2.4-2.4v-33.808q0-2.4-2.4-2.4h-7.7425q-2.4 0-2.4 2.4z" clip-path="url(#a)" fill="#fff" stroke="#fff"/>
<g clip-path="url(#a)">
<g transform="translate(355.18 546.38) rotate(90) scale(.08 -.08)">
<use xlink:href="#l"/>
<use x="44.083984" xlink:href="#d"/>
<use x="105.607422" xlink:href="#j"/>
<use x="144.970703" xlink:href="#k"/>
<use x="242.382812" xlink:href="#f"/>
<use x="270.166016" xlink:href="#i"/>
<use x="333.544922" xlink:href="#e"/>
<use x="394.824219" xlink:href="#h"/>
</g>
</g>
<path d="m399.18 546.38v33.808q0 2.4 2.4 2.4h7.7425q2.4 0 2.4-2.4v-33.808q0-2.4-2.4-2.4h-7.7425q-2.4 0-2.4 2.4z" clip-path="url(#a)" fill="#fff" stroke="#fff"/>
<g clip-path="url(#a)">
<g transform="translate(403.24 546.38) rotate(90) scale(.08 -.08)">
<use xlink:href="#l"/>
<use x="44.083984" xlink:href="#d"/>
<use x="105.607422" xlink:href="#j"/>
<use x="144.970703" xlink:href="#k"/>
<use x="242.382812" xlink:href="#f"/>
<use x="270.166016" xlink:href="#i"/>
<use x="333.544922" xlink:href="#e"/>
<use x="394.824219" xlink:href="#h"/>
</g>
</g>
<path d="m450.67 546.38v33.808q0 2.4 2.4 2.4h7.7425q2.4 0 2.4-2.4v-33.808q0-2.4-2.4-2.4h-7.7425q-2.4 0-2.4 2.4z" clip-path="url(#a)" fill="#fff" stroke="#fff"/>
<g clip-path="url(#a)">
<g transform="translate(454.74 546.38) rotate(90) scale(.08 -.08)">
<use xlink:href="#l"/>
<use x="44.083984" xlink:href="#d"/>
<use x="105.607422" xlink:href="#j"/>
<use x="144.970703" xlink:href="#k"/>
<use x="242.382812" xlink:href="#f"/>
<use x="270.166016" xlink:href="#i"/>
<use x="333.544922" xlink:href="#e"/>
<use x="394.824219" xlink:href="#h"/>
</g>
</g>
<path d="m648.98 375.03 2.09-4.0992q1.0901-2.1381-1.048-3.2283l-6.8977-3.5168q-2.1381-1.0901-3.2283 1.048l-2.09 4.0992q-1.0901 2.1381 1.048 3.2283l6.8977 3.5168q2.1381 1.0901 3.2283-1.048z" clip-path="url(#a)" fill="#fff" stroke="#fff"/>
<g clip-path="url(#a)">
<g transform="translate(645.36 373.18) rotate(-62.986) scale(.08 -.08)">
<use xlink:href="#u"/>
</g>
</g>
<path d="m714.04 372.81 0.32641-4.4455q0.17574-2.3936-2.2178-2.5693l-7.7217-0.56696q-2.3936-0.17574-2.5693 2.2178l-0.32641 4.4455q-0.17574 2.3936 2.2178 2.5693l7.7217 0.56696q2.3936 0.17574 2.5693-2.2178z" clip-path="url(#a)" fill="#fff" stroke="#fff"/>
<g clip-path="url(#a)">
<g transform="translate(709.98 372.52) rotate(-85.801) scale(.08 -.08)">
<use xlink:href="#ai"/>
</g>
</g>
<path d="m747.54 274.59 3.5597 4.8501q1.4201 1.9348 3.3549 0.51475l6.2417-4.5811q1.9348-1.4201 0.51475-3.3549l-3.5597-4.8501q-1.4201-1.9348-3.3549-0.51475l-6.2417 4.5811q-1.9348 1.4201-0.51475 3.3549z" clip-path="url(#a)" fill="#fff" stroke="#fff"/>
<g clip-path="url(#a)">
<g transform="translate(750.82 272.19) rotate(53.723) scale(.08 -.08)">
<use xlink:href="#t"/>
</g>
</g>
<path d="m761.22 275.64 4.2728 4.2353q1.7045 1.6896 3.3941-0.014961l5.4506-5.4989q1.6896-1.7045-0.01496-3.3941l-4.2728-4.2353q-1.7045-1.6896-3.3941 0.014961l-5.4506 5.4989q-1.6896 1.7045 0.01496 3.3941z" clip-path="url(#a)" fill="#fff" stroke="#fff"/>
<g clip-path="url(#a)">
<g transform="translate(764.08 272.75) rotate(44.747) scale(.08 -.08)">
<use xlink:href="#t"/>
</g>
</g>
<path d="m563.96 546.38v33.808q0 2.4 2.4 2.4h7.7425q2.4 0 2.4-2.4v-33.808q0-2.4-2.4-2.4h-7.7425q-2.4 0-2.4 2.4z" clip-path="url(#a)" fill="#fff" stroke="#fff"/>
<g clip-path="url(#a)">
<g transform="translate(568.03 546.38) rotate(90) scale(.08 -.08)">
<use xlink:href="#l"/>
<use x="44.083984" xlink:href="#d"/>
<use x="105.607422" xlink:href="#j"/>
<use x="144.970703" xlink:href="#k"/>
<use x="242.382812" xlink:href="#f"/>
<use x="270.166016" xlink:href="#i"/>
<use x="333.544922" xlink:href="#e"/>
<use x="394.824219" xlink:href="#h"/>
</g>
</g>
<path d="m690.99 546.38v33.808q0 2.4 2.4 2.4h7.7425q2.4 0 2.4-2.4v-33.808q0-2.4-2.4-2.4h-7.7425q-2.4 0-2.4 2.4z" clip-path="url(#a)" fill="#fff" stroke="#fff"/>
<g clip-path="url(#a)">
<g transform="translate(695.05 546.38) rotate(90) scale(.08 -.08)">
<use xlink:href="#l"/>
<use x="44.083984" xlink:href="#d"/>
<use x="105.607422" xlink:href="#j"/>
<use x="144.970703" xlink:href="#k"/>
<use x="242.382812" xlink:href="#f"/>
<use x="270.166016" xlink:href="#i"/>
<use x="333.544922" xlink:href="#e"/>
<use x="394.824219" xlink:href="#h"/>
</g>
</g>
<path d="m652.3 425.57 4.5625-3.1753q1.9699-1.371 0.59893-3.3409l-4.4228-6.3549q-1.371-1.9699-3.3409-0.59893l-4.5626 3.1753q-1.9699 1.371-0.59893 3.3409l4.4228 6.3549q1.371 1.9699 3.3409 0.59893z" clip-path="url(#a)" fill="#fff" stroke="#fff"/>
<g clip-path="url(#a)">
<g transform="translate(649.98 422.23) rotate(-34.836) scale(.08 -.08)">
<defs>
<path id="p" d="m44.391 34.188q3.1719-1.0781 6.1719-4.5938t6.0312-9.6719l10.016-19.922h-10.609l-9.3125 18.703q-3.625 7.3281-7.0156 9.7188t-9.25 2.3906h-10.75v-30.812h-9.8594v72.906h22.266q12.5 0 18.656-5.2344 6.1562-5.2188 6.1562-15.766 0-6.8906-3.2031-11.438-3.2031-4.5312-9.2969-6.2812zm-24.719 30.609v-25.875h12.406q7.125 0 10.766 3.2969t3.6406 9.6875-3.6406 9.6406-10.766 3.25z"/>
</defs>
<use xlink:href="#p"/>
</g>
</g>
<path d="m714.41 424.67 3.0505-3.7367q1.5178-1.8591-0.34137-3.3769l-5.9977-4.8964q-1.8591-1.5178-3.3769 0.34137l-3.0505 3.7367q-1.5178 1.8591 0.34137 3.3769l5.9977 4.8964q1.8591 1.5178 3.3769-0.34137z" clip-path="url(#a)" fill="#fff" stroke="#fff"/>
<g clip-path="url(#a)">
<g transform="translate(711.26 422.1) rotate(-50.772) scale(.08 -.08)">
<use xlink:href="#y"/>
</g>
</g>
<path d="m807.33 417.68 1.3138 5.3125q0.57618 2.3298 2.906 1.7536l7.5161-1.8588q2.3298-0.57618 1.7536-2.906l-1.3138-5.3125q-0.57618-2.3298-2.906-1.7536l-7.5161 1.8588q-2.3298 0.57618-1.7536 2.906z" clip-path="url(#a)" fill="#fff" stroke="#fff"/>
<g clip-path="url(#a)">
<g transform="translate(811.27 416.71) rotate(76.109) scale(.08 -.08)">
<use xlink:href="#n"/>
</g>
</g>
<path d="m844.89 419.61 3.3107 5.1947q1.2899 2.0239 3.3138 0.73402l6.5292-4.1612q2.0239-1.2899 0.73402-3.3138l-3.3107-5.1947q-1.2899-2.0239-3.3138-0.73402l-6.5292 4.1612q-2.0239 1.2899-0.73402 3.3138z" clip-path="url(#a)" fill="#fff" stroke="#fff"/>
<g clip-path="url(#a)">
<g transform="translate(848.32 417.42) rotate(57.49) scale(.08 -.08)">
<use xlink:href="#v"/>
</g>
</g>
<path d="m917.92 375.5 5.1386 1.8822q2.2536 0.82546 3.079-1.4281l2.663-7.2701q0.82546-2.2536-1.4281-3.079l-5.1386-1.8822q-2.2536-0.82546-3.079 1.4281l-2.663 7.2701q-0.82546 2.2536 1.4281 3.079z" clip-path="url(#a)" fill="#fff" stroke="#fff"/>
<g clip-path="url(#a)">
<g transform="translate(919.31 371.68) rotate(20.117) scale(.08 -.08)">
<use xlink:href="#n"/>
</g>
</g>
<path d="m796.86 422.76 1.2281-4.6648q0.61101-2.3209-1.7099-2.9319l-7.4874-1.9712q-2.3209-0.61101-2.9319 1.7099l-1.2281 4.6648q-0.61101 2.3209 1.7099 2.9319l7.4874 1.9712q2.3209 0.61101 2.9319-1.7099z" clip-path="url(#a)" fill="#fff" stroke="#fff"/>
<g clip-path="url(#a)">
<g transform="translate(792.93 421.73) rotate(-75.251) scale(.08 -.08)">
<use xlink:href="#y"/>
</g>
</g>
<path d="m665.4 425.62 4.6929-2.9793q2.0262-1.2863 0.73983-3.3125l-4.1498-6.5365q-1.2863-2.0262-3.3125-0.73983l-4.6929 2.9793q-2.0262 1.2863-0.73983 3.3125l4.1498 6.5365q1.2863 2.0262 3.3125 0.73983z" clip-path="url(#a)" fill="#fff" stroke="#fff"/>
<g clip-path="url(#a)">
<g transform="translate(663.23 422.19) rotate(-32.41) scale(.08 -.08)">
<use xlink:href="#p"/>
</g>
</g>
<path d="m820.93 416.8 0.59314 5.4403q0.26013 2.3859 2.646 2.1257l7.6969-0.83918q2.3859-0.26013 2.1257-2.646l-0.59314-5.4403q-0.26013-2.3859-2.646-2.1257l-7.6969 0.83918q-2.3859 0.26013-2.1257 2.646z" clip-path="url(#a)" fill="#fff" stroke="#fff"/>
<g clip-path="url(#a)">
<g transform="translate(824.97 416.35) rotate(83.778) scale(.08 -.08)">
<use xlink:href="#n"/>
</g>
</g>
<path d="m858.24 418.88 2.7506 5.5118q1.0717 2.1474 3.2191 1.0758l6.9277-3.4573q2.1474-1.0717 1.0758-3.2191l-2.7506-5.5118q-1.0717-2.1474-3.2191-1.0758l-6.9277 3.4573q-2.1474 1.0717-1.0758 3.2191z" clip-path="url(#a)" fill="#fff" stroke="#fff"/>
<g clip-path="url(#a)">
<g transform="translate(861.87 417.07) rotate(63.479) scale(.08 -.08)">
<use xlink:href="#v"/>
</g>
</g>
<path d="m931.13 375.32 5.068 2.065q2.2226 0.90561 3.1282-1.317l2.9215-7.1701q0.90561-2.2226-1.317-3.1282l-5.068-2.065q-2.2226-0.90561-3.1282 1.317l-2.9215 7.1701q-0.90561 2.2226 1.317 3.1282z" clip-path="url(#a)" fill="#fff" stroke="#fff"/>
<g clip-path="url(#a)">
<g transform="translate(932.66 371.56) rotate(22.169) scale(.08 -.08)">
<use xlink:href="#n"/>
</g>
</g>
<path d="m759.65 546.38v33.808q0 2.4 2.4 2.4h7.7425q2.4 0 2.4-2.4v-33.808q0-2.4-2.4-2.4h-7.7425q-2.4 0-2.4 2.4z" clip-path="url(#a)" fill="#fff" stroke="#fff"/>
<g clip-path="url(#a)">
<g transform="translate(763.71 546.38) rotate(90) scale(.08 -.08)">
<use xlink:href="#l"/>
<use x="44.083984" xlink:href="#d"/>
<use x="105.607422" xlink:href="#j"/>
<use x="144.970703" xlink:href="#k"/>
<use x="242.382812" xlink:href="#f"/>
<use x="270.166016" xlink:href="#i"/>
<use x="333.544922" xlink:href="#e"/>
<use x="394.824219" xlink:href="#h"/>
</g>
</g>
<path d="m505.6 546.38v33.808q0 2.4 2.4 2.4h7.7425q2.4 0 2.4-2.4v-33.808q0-2.4-2.4-2.4h-7.7425q-2.4 0-2.4 2.4z" clip-path="url(#a)" fill="#fff" stroke="#fff"/>
<g clip-path="url(#a)">
<g transform="translate(509.67 546.38) rotate(90) scale(.08 -.08)">
<use xlink:href="#l"/>
<use x="44.083984" xlink:href="#d"/>
<use x="105.607422" xlink:href="#j"/>
<use x="144.970703" xlink:href="#k"/>
<use x="242.382812" xlink:href="#f"/>
<use x="270.166016" xlink:href="#i"/>
<use x="333.544922" xlink:href="#e"/>
<use x="394.824219" xlink:href="#h"/>
</g>
</g>
<path d="m625.76 546.38v33.808q0 2.4 2.4 2.4h7.7425q2.4 0 2.4-2.4v-33.808q0-2.4-2.4-2.4h-7.7425q-2.4 0-2.4 2.4z" clip-path="url(#a)" fill="#fff" stroke="#fff"/>
<g clip-path="url(#a)">
<g transform="translate(629.82 546.38) rotate(90) scale(.08 -.08)">
<use xlink:href="#l"/>
<use x="44.083984" xlink:href="#d"/>
<use x="105.607422" xlink:href="#j"/>
<use x="144.970703" xlink:href="#k"/>
<use x="242.382812" xlink:href="#f"/>
<use x="270.166016" xlink:href="#i"/>
<use x="333.544922" xlink:href="#e"/>
<use x="394.824219" xlink:href="#h"/>
</g>
</g>
<path d="m831.75 546.38v33.808q0 2.4 2.4 2.4h7.7425q2.4 0 2.4-2.4v-33.808q0-2.4-2.4-2.4h-7.7425q-2.4 0-2.4 2.4z" clip-path="url(#a)" fill="#fff" stroke="#fff"/>
<g clip-path="url(#a)">
<g transform="translate(835.81 546.38) rotate(90) scale(.08 -.08)">
<use xlink:href="#l"/>
<use x="44.083984" xlink:href="#d"/>
<use x="105.607422" xlink:href="#j"/>
<use x="144.970703" xlink:href="#k"/>
<use x="242.382812" xlink:href="#f"/>
<use x="270.166016" xlink:href="#i"/>
<use x="333.544922" xlink:href="#e"/>
<use x="394.824219" xlink:href="#h"/>
</g>
</g>
<path d="m907.27 546.38v33.808q0 2.4 2.4 2.4h7.7425q2.4 0 2.4-2.4v-33.808q0-2.4-2.4-2.4h-7.7425q-2.4 0-2.4 2.4z" clip-path="url(#a)" fill="#fff" stroke="#fff"/>
<g clip-path="url(#a)">
<g transform="translate(911.34 546.38) rotate(90) scale(.08 -.08)">
<use xlink:href="#l"/>
<use x="44.083984" xlink:href="#d"/>
<use x="105.607422" xlink:href="#j"/>
<use x="144.970703" xlink:href="#k"/>
<use x="242.382812" xlink:href="#f"/>
<use x="270.166016" xlink:href="#i"/>
<use x="333.544922" xlink:href="#e"/>
<use x="394.824219" xlink:href="#h"/>
</g>
</g>
<path d="m1027.6 473.12 3.0254-4.6633q1.3062-2.0134-0.70716-3.3196l-6.4953-4.214q-2.0134-1.3062-3.3196 0.70716l-3.0254 4.6633q-1.3062 2.0134 0.70716 3.3196l6.4953 4.214q2.0134 1.3062 3.3196-0.70716z" clip-path="url(#a)" fill="#fff" stroke="#fff"/>
<g clip-path="url(#a)">
<g transform="translate(1024.2 470.91) rotate(-57.026) scale(.08 -.08)">
<use xlink:href="#p"/>
</g>
</g>
<path d="m1079.7 468.45 3.0404 4.6864q1.3062 2.0134 3.3196 0.70716l6.4953-4.214q2.0134-1.3062 0.70716-3.3196l-3.0404-4.6864q-1.3062-2.0134-3.3196-0.70716l-6.4953 4.214q-2.0134 1.3062-0.70716 3.3196z" clip-path="url(#a)" fill="#fff" stroke="#fff"/>
<g clip-path="url(#a)">
<g transform="translate(1083.1 466.23) rotate(57.026) scale(.08 -.08)">
<defs>
<path id="z" d="m64.406 67.281v-10.391q-4.9844 4.6406-10.625 6.9219-5.6406 2.2969-11.984 2.2969-12.5 0-19.141-7.6406t-6.6406-22.094q0-14.406 6.6406-22.047t19.141-7.6406q6.3438 0 11.984 2.2969t10.625 6.9375v-10.312q-5.1719-3.5156-10.969-5.2812-5.7812-1.75-12.219-1.75-16.562 0-26.094 10.125-9.5156 10.141-9.5156 27.672 0 17.578 9.5156 27.703 9.5312 10.141 26.094 10.141 6.5312 0 12.312-1.7344 5.7969-1.7344 10.875-5.2031z"/>
</defs>
<use xlink:href="#z"/>
</g>
</g>
<path d="m986.23 546.38v33.808q0 2.4 2.4 2.4h7.7425q2.4 0 2.4-2.4v-33.808q0-2.4-2.4-2.4h-7.7425q-2.4 0-2.4 2.4z" clip-path="url(#a)" fill="#fff" stroke="#fff"/>
<g clip-path="url(#a)">
<g transform="translate(990.3 546.38) rotate(90) scale(.08 -.08)">
<use xlink:href="#l"/>
<use x="44.083984" xlink:href="#d"/>
<use x="105.607422" xlink:href="#j"/>
<use x="144.970703" xlink:href="#k"/>
<use x="242.382812" xlink:href="#f"/>
<use x="270.166016" xlink:href="#i"/>
<use x="333.544922" xlink:href="#e"/>
<use x="394.824219" xlink:href="#h"/>
</g>
</g>
<path d="m1095.1 581.27 13.887-30.823q0.98587-2.1882-1.2023-3.174l-7.0591-3.1805q-2.1882-0.98587-3.174 1.2023l-13.887 30.823q-0.98587 2.1882 1.2023 3.174l7.0591 3.1805q2.1882 0.98587 3.174-1.2023z" clip-path="url(#a)" fill="#fff" stroke="#fff"/>
<g clip-path="url(#a)">
<g transform="translate(1091.4 579.6) rotate(-65.746) scale(.08 -.08)">
<use xlink:href="#l"/>
<use x="44.083984" xlink:href="#d"/>
<use x="105.607422" xlink:href="#j"/>
<use x="144.970703" xlink:href="#k"/>
<use x="242.382812" xlink:href="#f"/>
<use x="270.166016" xlink:href="#i"/>
<use x="333.544922" xlink:href="#e"/>
<use x="394.824219" xlink:href="#h"/>
</g>
</g>
<path d="m1126.6 550.45 13.887 30.823q0.98587 2.1882 3.174 1.2023l7.0591-3.1805q2.1882-0.98587 1.2023-3.174l-13.887-30.823q-0.98587-2.1882-3.174-1.2023l-7.0591 3.1805q-2.1882 0.98587-1.2023 3.174z" clip-path="url(#a)" fill="#fff" stroke="#fff"/>
<g clip-path="url(#a)">
<g transform="translate(1130.3 548.78) rotate(65.746) scale(.08 -.08)">
<use xlink:href="#l"/>
<use x="44.083984" xlink:href="#d"/>
<use x="105.607422" xlink:href="#j"/>
<use x="144.970703" xlink:href="#k"/>
<use x="242.382812" xlink:href="#f"/>
<use x="270.166016" xlink:href="#i"/>
<use x="333.544922" xlink:href="#e"/>
<use x="394.824219" xlink:href="#h"/>
</g>
</g>
<path d="m59.301 546.38v33.808q0 2.4 2.4 2.4h7.7425q2.4 0 2.4-2.4v-33.808q0-2.4-2.4-2.4h-7.7425q-2.4 0-2.4 2.4z" clip-path="url(#a)" fill="#fff" stroke="#fff"/>
<g clip-path="url(#a)">
<g transform="translate(63.364 546.38) rotate(90) scale(.08 -.08)">
<use xlink:href="#l"/>
<use x="44.083984" xlink:href="#d"/>
<use x="105.607422" xlink:href="#j"/>
<use x="144.970703" xlink:href="#k"/>
<use x="242.382812" xlink:href="#f"/>
<use x="270.166016" xlink:href="#i"/>
<use x="333.544922" xlink:href="#e"/>
<use x="394.824219" xlink:href="#h"/>
</g>
</g>
<path d="m73.033 546.38v33.808q0 2.4 2.4 2.4h7.7425q2.4 0 2.4-2.4v-33.808q0-2.4-2.4-2.4h-7.7425q-2.4 0-2.4 2.4z" clip-path="url(#a)" fill="#fff" stroke="#fff"/>
<g clip-path="url(#a)">
<g transform="translate(77.097 546.38) rotate(90) scale(.08 -.08)">
<use xlink:href="#l"/>
<use x="44.083984" xlink:href="#d"/>
<use x="105.607422" xlink:href="#j"/>
<use x="144.970703" xlink:href="#k"/>
<use x="242.382812" xlink:href="#f"/>
<use x="270.166016" xlink:href="#i"/>
<use x="333.544922" xlink:href="#e"/>
<use x="394.824219" xlink:href="#h"/>
</g>
</g>
<path d="m90.199 546.38v33.808q0 2.4 2.4 2.4h7.7425q2.4 0 2.4-2.4v-33.808q0-2.4-2.4-2.4h-7.7425q-2.4 0-2.4 2.4z" clip-path="url(#a)" fill="#fff" stroke="#fff"/>
<g clip-path="url(#a)">
<g transform="translate(94.262 546.38) rotate(90) scale(.08 -.08)">
<use xlink:href="#l"/>
<use x="44.083984" xlink:href="#d"/>
<use x="105.607422" xlink:href="#j"/>
<use x="144.970703" xlink:href="#k"/>
<use x="242.382812" xlink:href="#f"/>
<use x="270.166016" xlink:href="#i"/>
<use x="333.544922" xlink:href="#e"/>
<use x="394.824219" xlink:href="#h"/>
</g>
</g>
<path d="m110.8 546.38v33.808q0 2.4 2.4 2.4h7.7425q2.4 0 2.4-2.4v-33.808q0-2.4-2.4-2.4h-7.7425q-2.4 0-2.4 2.4z" clip-path="url(#a)" fill="#fff" stroke="#fff"/>
<g clip-path="url(#a)">
<g transform="translate(114.86 546.38) rotate(90) scale(.08 -.08)">
<use xlink:href="#l"/>
<use x="44.083984" xlink:href="#d"/>
<use x="105.607422" xlink:href="#j"/>
<use x="144.970703" xlink:href="#k"/>
<use x="242.382812" xlink:href="#f"/>
<use x="270.166016" xlink:href="#i"/>
<use x="333.544922" xlink:href="#e"/>
<use x="394.824219" xlink:href="#h"/>
</g>
</g>
<path d="m134.83 546.38v33.808q0 2.4 2.4 2.4h7.7425q2.4 0 2.4-2.4v-33.808q0-2.4-2.4-2.4h-7.7425q-2.4 0-2.4 2.4z" clip-path="url(#a)" fill="#fff" stroke="#fff"/>
<g clip-path="url(#a)">
<g transform="translate(138.89 546.38) rotate(90) scale(.08 -.08)">
<use xlink:href="#l"/>
<use x="44.083984" xlink:href="#d"/>
<use x="105.607422" xlink:href="#j"/>
<use x="144.970703" xlink:href="#k"/>
<use x="242.382812" xlink:href="#f"/>
<use x="270.166016" xlink:href="#i"/>
<use x="333.544922" xlink:href="#e"/>
<use x="394.824219" xlink:href="#h"/>
</g>
</g>
<path d="m182.04 471.11 0.87808-5.489q0.37911-2.3699-1.9908-2.749l-7.6453-1.223q-2.3699-0.37911-2.749 1.9908l-0.87808 5.489q-0.37911 2.3699 1.9908 2.749l7.6453 1.223q2.3699 0.37911 2.749-1.9908z" clip-path="url(#a)" fill="#fff" stroke="#fff"/>
<g clip-path="url(#a)">
<g transform="translate(178.03 470.47) rotate(-80.911) scale(.08 -.08)">
<use xlink:href="#p"/>
</g>
</g>
<path d="m185.1 465.61 0.88242 5.5161q0.37911 2.3699 2.749 1.9908l7.6453-1.223q2.3699-0.37911 1.9908-2.749l-0.88242-5.5161q-0.37911-2.3699-2.749-1.9908l-7.6453 1.223q-2.3699 0.37911-1.9908 2.749z" clip-path="url(#a)" fill="#fff" stroke="#fff"/>
<g clip-path="url(#a)">
<g transform="translate(189.12 464.97) rotate(80.911) scale(.08 -.08)">
<use xlink:href="#z"/>
</g>
</g>
<path d="m253.58 471.85 1.6079-5.3211q0.6942-2.2974-1.6032-2.9916l-7.4115-2.2395q-2.2974-0.6942-2.9916 1.6032l-1.6079 5.3211q-0.6942 2.2974 1.6032 2.9916l7.4115 2.2395q2.2974 0.6942 2.9916-1.6032z" clip-path="url(#a)" fill="#fff" stroke="#fff"/>
<g clip-path="url(#a)">
<g transform="translate(249.69 470.67) rotate(-73.187) scale(.08 -.08)">
<use xlink:href="#p"/>
</g>
</g>
<path d="m270.75 466.52 1.6158 5.3475q0.6942 2.2974 2.9916 1.6032l7.4115-2.2395q2.2974-0.6942 1.6032-2.9916l-1.6158-5.3475q-0.6942-2.2974-2.9916-1.6032l-7.4115 2.2395q-2.2974 0.6942-1.6032 2.9916z" clip-path="url(#a)" fill="#fff" stroke="#fff"/>
<g clip-path="url(#a)">
<g transform="translate(274.64 465.34) rotate(73.187) scale(.08 -.08)">
<use xlink:href="#z"/>
</g>
</g>
<path d="m227.52 546.38v33.808q0 2.4 2.4 2.4h7.7425q2.4 0 2.4-2.4v-33.808q0-2.4-2.4-2.4h-7.7425q-2.4 0-2.4 2.4z" clip-path="url(#a)" fill="#fff" stroke="#fff"/>
<g clip-path="url(#a)">
<g transform="translate(231.59 546.38) rotate(90) scale(.08 -.08)">
<use xlink:href="#l"/>
<use x="44.083984" xlink:href="#d"/>
<use x="105.607422" xlink:href="#j"/>
<use x="144.970703" xlink:href="#k"/>
<use x="242.382812" xlink:href="#f"/>
<use x="270.166016" xlink:href="#i"/>
<use x="333.544922" xlink:href="#e"/>
<use x="394.824219" xlink:href="#h"/>
</g>
</g>
<path d="m284.41 581.13 7.1461-33.044q0.5073-2.3458-1.8385-2.8531l-7.5676-1.6366q-2.3458-0.5073-2.8531 1.8385l-7.1461 33.044q-0.5073 2.3458 1.8385 2.8531l7.5676 1.6366q2.3458 0.5073 2.8531-1.8385z" clip-path="url(#a)" fill="#fff" stroke="#fff"/>
<g clip-path="url(#a)">
<g transform="translate(280.44 580.27) rotate(-77.797) scale(.08 -.08)">
<use xlink:href="#l"/>
<use x="44.083984" xlink:href="#d"/>
<use x="105.607422" xlink:href="#j"/>
<use x="144.970703" xlink:href="#k"/>
<use x="242.382812" xlink:href="#f"/>
<use x="270.166016" xlink:href="#i"/>
<use x="333.544922" xlink:href="#e"/>
<use x="394.824219" xlink:href="#h"/>
</g>
</g>
<path d="m292.75 548.09 7.1461 33.044q0.5073 2.3458 2.8531 1.8385l7.5676-1.6366q2.3458-0.5073 1.8385-2.8531l-7.1461-33.044q-0.5073-2.3458-2.8531-1.8385l-7.5676 1.6366q-2.3458 0.5073-1.8385 2.8531z" clip-path="url(#a)" fill="#fff" stroke="#fff"/>
<g clip-path="url(#a)">
<g transform="translate(296.72 547.23) rotate(77.797) scale(.08 -.08)">
<use xlink:href="#l"/>
<use x="44.083984" xlink:href="#d"/>
<use x="105.607422" xlink:href="#j"/>
<use x="144.970703" xlink:href="#k"/>
<use x="242.382812" xlink:href="#f"/>
<use x="270.166016" xlink:href="#i"/>
<use x="333.544922" xlink:href="#e"/>
<use x="394.824219" xlink:href="#h"/>
</g>
</g>
<path d="m162.29 546.38v33.808q0 2.4 2.4 2.4h7.7425q2.4 0 2.4-2.4v-33.808q0-2.4-2.4-2.4h-7.7425q-2.4 0-2.4 2.4z" clip-path="url(#a)" fill="#fff" stroke="#fff"/>
<g clip-path="url(#a)">
<g transform="translate(166.36 546.38) rotate(90) scale(.08 -.08)">
<use xlink:href="#l"/>
<use x="44.083984" xlink:href="#d"/>
<use x="105.607422" xlink:href="#j"/>
<use x="144.970703" xlink:href="#k"/>
<use x="242.382812" xlink:href="#f"/>
<use x="270.166016" xlink:href="#i"/>
<use x="333.544922" xlink:href="#e"/>
<use x="394.824219" xlink:href="#h"/>
</g>
</g>
<path d="m193.19 546.38v33.808q0 2.4 2.4 2.4h7.7425q2.4 0 2.4-2.4v-33.808q0-2.4-2.4-2.4h-7.7425q-2.4 0-2.4 2.4z" clip-path="url(#a)" fill="#fff" stroke="#fff"/>
<g clip-path="url(#a)">
<g transform="translate(197.25 546.38) rotate(90) scale(.08 -.08)">
<use xlink:href="#l"/>
<use x="44.083984" xlink:href="#d"/>
<use x="105.607422" xlink:href="#j"/>
<use x="144.970703" xlink:href="#k"/>
<use x="242.382812" xlink:href="#f"/>
<use x="270.166016" xlink:href="#i"/>
<use x="333.544922" xlink:href="#e"/>
<use x="394.824219" xlink:href="#h"/>
</g>
</g>
<defs>
<path id="b" d="m0 8.6603c2.2967 0 4.4997-0.9125 6.1237-2.5365 1.624-1.624 2.5365-3.827 2.5365-6.1237s-0.9125-4.4997-2.5365-6.1237c-1.624-1.624-3.827-2.5365-6.1237-2.5365s-4.4997 0.9125-6.1237 2.5365c-1.624 1.624-2.5365 3.827-2.5365 6.1237s0.9125 4.4997 2.5365 6.1237c1.624 1.624 3.827 2.5365 6.1237 2.5365z"/>
</defs>
<g clip-path="url(#a)" fill="#ffffff" stroke="#ffffff">
<use x="55.272727" y="610.909091" xlink:href="#b"/>
<use x="65.571993" y="610.909091" xlink:href="#b"/>
<use x="79.304348" y="610.909091" xlink:href="#b"/>
<use x="96.469791" y="610.909091" xlink:href="#b"/>
<use x="117.068323" y="610.909091" xlink:href="#b"/>
<use x="141.099944" y="610.909091" xlink:href="#b"/>
<use x="168.564653" y="610.909091" xlink:href="#b"/>
<use x="199.462451" y="610.909091" xlink:href="#b"/>
<use x="233.793337" y="610.909091" xlink:href="#b"/>
<use x="271.557312" y="610.909091" xlink:href="#b"/>
<use x="312.754376" y="610.909091" xlink:href="#b"/>
<use x="357.384529" y="610.909091" xlink:href="#b"/>
<use x="405.44777" y="610.909091" xlink:href="#b"/>
<use x="456.944099" y="610.909091" xlink:href="#b"/>
<use x="511.873518" y="610.909091" xlink:href="#b"/>
<use x="570.236025" y="610.909091" xlink:href="#b"/>
<use x="632.031621" y="610.909091" xlink:href="#b"/>
<use x="697.260305" y="610.909091" xlink:href="#b"/>
<use x="765.922078" y="610.909091" xlink:href="#b"/>
<use x="838.01694" y="610.909091" xlink:href="#b"/>
<use x="913.54489" y="610.909091" xlink:href="#b"/>
<use x="992.505929" y="610.909091" xlink:href="#b"/>
<use x="1074.900056" y="610.909091" xlink:href="#b"/>
<use x="1160.727273" y="610.909091" xlink:href="#b"/>
<use x="225.029765" y="29.090909" xlink:href="#b"/>
<use x="55.272727" y="515.661385" xlink:href="#b"/>
<use x="135.214649" y="322.009456" xlink:href="#b"/>
<use x="484.60192" y="126.943784" xlink:href="#b"/>
<use x="357.384529" y="515.661385" xlink:href="#b"/>
<use x="405.44777" y="515.661385" xlink:href="#b"/>
<use x="456.944099" y="515.661385" xlink:href="#b"/>
<use x="718.631282" y="224.599832" xlink:href="#b"/>
<use x="570.236025" y="515.661385" xlink:href="#b"/>
<use x="697.260305" y="515.661385" xlink:href="#b"/>
<use x="790.125353" y="322.009456" xlink:href="#b"/>
<use x="816.903444" y="322.009456" xlink:href="#b"/>
<use x="765.922078" y="515.661385" xlink:href="#b"/>
<use x="511.873518" y="515.661385" xlink:href="#b"/>
<use x="632.031621" y="515.661385" xlink:href="#b"/>
<use x="838.01694" y="515.661385" xlink:href="#b"/>
<use x="913.54489" y="515.661385" xlink:href="#b"/>
<use x="1055.159797" y="419.088678" xlink:href="#b"/>
<use x="992.505929" y="515.661385" xlink:href="#b"/>
<use x="1117.813665" y="515.661385" xlink:href="#b"/>
<use x="65.571993" y="515.661385" xlink:href="#b"/>
<use x="79.304348" y="515.661385" xlink:href="#b"/>
<use x="96.469791" y="515.661385" xlink:href="#b"/>
<use x="117.068323" y="515.661385" xlink:href="#b"/>
<use x="141.099944" y="515.661385" xlink:href="#b"/>
<use x="184.013552" y="419.088678" xlink:href="#b"/>
<use x="262.974591" y="419.088678" xlink:href="#b"/>
<use x="233.793337" y="515.661385" xlink:href="#b"/>
<use x="292.155844" y="515.661385" xlink:href="#b"/>
<use x="168.564653" y="515.661385" xlink:href="#b"/>
<use x="199.462451" y="515.661385" xlink:href="#b"/>
</g>
<g clip-path="url(#a)">
<g transform="translate(41.306 613.67) scale(.1 -.1)">
<defs>
<path id="ao" d="m3.3281 72.906h9.9531l15.328-61.625 15.281 61.625h11.094l15.328-61.625 15.281 61.625h10.016l-18.312-72.906h-12.406l-15.375 63.281-15.531-63.281h-12.406z"/>
<path id="s" d="m54.891 33.016v-33.016h-8.9844v32.719q0 7.7656-3.0312 11.609-3.0312 3.8594-9.0781 3.8594-7.2812 0-11.484-4.6406-4.2031-4.625-4.2031-12.641v-30.906h-9.0312v75.984h9.0312v-29.797q3.2344 4.9375 7.5938 7.375 4.375 2.4375 10.094 2.4375 9.4219 0 14.25-5.8281 4.8438-5.8281 4.8438-17.156z"/>
</defs>
<use xlink:href="#ao"/>
<use x="98.876953" xlink:href="#s"/>
<use x="162.255859" xlink:href="#f"/>
<use x="190.039062" xlink:href="#h"/>
<use x="217.822266" xlink:href="#d"/>
</g>
</g>
<g clip-path="url(#a)">
<g transform="translate(52.252 613.67) scale(.1 -.1)">
<defs>
<path id="ah" d="m30.609 48.391q-7.2188 0-11.422-5.6406t-4.2031-15.453 4.1719-15.453q4.1875-5.6406 11.453-5.6406 7.1875 0 11.375 5.6562 4.2031 5.6719 4.2031 15.438 0 9.7188-4.2031 15.406-4.1875 5.6875-11.375 5.6875zm0 7.6094q11.719 0 18.406-7.625 6.7031-7.6094 6.7031-21.078 0-13.422-6.7031-21.078-6.6875-7.6406-18.406-7.6406-11.766 0-18.438 7.6406-6.6562 7.6562-6.6562 21.078 0 13.469 6.6562 21.078 6.6719 7.625 18.438 7.625z"/>
<path id="o" d="m18.312 70.219v-15.531h18.5v-6.9844h-18.5v-29.688q0-6.6875 1.8281-8.5938t7.4531-1.9062h9.2188v-7.5156h-9.2188q-10.406 0-14.359 3.875-3.9531 3.8906-3.9531 14.141v29.688h-6.5938v6.9844h6.5938v15.531z"/>
</defs>
<use xlink:href="#ah"/>
<use x="61.181641" xlink:href="#o"/>
<use x="100.390625" xlink:href="#s"/>
<use x="163.769531" xlink:href="#d"/>
<use x="225.292969" xlink:href="#j"/>
</g>
</g>
<g clip-path="url(#a)">
<g transform="translate(68.411 613.67) scale(.1 -.1)">
<defs>
<path id="w" d="m32.172-5.0781q-3.7969-9.7656-7.4219-12.734-3.6094-2.9844-9.6562-2.9844h-7.1875v7.5156h5.2812q3.7031 0 5.75 1.7656 2.0625 1.75 4.5469 8.2969l1.6094 4.0938-22.109 53.812h9.5156l17.094-42.766 17.094 42.766h9.5156z"/>
</defs>
<use xlink:href="#k"/>
<use x="97.412109" xlink:href="#e"/>
<use x="158.691406" xlink:href="#w"/>
</g>
</g>
<g clip-path="url(#a)">
<g transform="translate(90.219 613.67) scale(.1 -.1)">
<defs>
<path id="an" d="m48.688 27.297q0 9.9062-4.0781 15.547t-11.203 5.6406q-7.1406 0-11.219-5.6406t-4.0781-15.547 4.0781-15.547 11.219-5.6406q7.125 0 11.203 5.6406t4.0781 15.547zm-30.578 19.094q2.8438 4.875 7.1562 7.2344 4.3281 2.375 10.328 2.375 9.9688 0 16.188-7.9062 6.2344-7.9062 6.2344-20.797t-6.2344-20.812q-6.2188-7.9062-16.188-7.9062-6 0-10.328 2.375-4.3125 2.375-7.1562 7.25v-8.2031h-9.0312v75.984h9.0312z"/>
</defs>
<use xlink:href="#an"/>
<use x="63.476562" xlink:href="#d"/>
</g>
</g>
<g clip-path="url(#a)">
<g transform="translate(111.11 613.67) scale(.1 -.1)">
<defs>
<path id="at" d="m9.0781 75.984h9.0312v-44.875l26.812 23.578h11.469l-29-25.578 30.234-29.109h-11.719l-27.797 26.703v-26.703h-9.0312z"/>
</defs>
<use xlink:href="#ah"/>
<use x="61.181641" xlink:href="#at"/>
</g>
</g>
<g clip-path="url(#a)">
<g transform="translate(122.87 613.67) scale(.1 -.1)">
<defs>
<path id="r" d="m4.2031 54.688h8.9844l11.234-42.672 11.172 42.672h10.594l11.234-42.672 11.188 42.672h8.9844l-14.312-54.688h-10.594l-11.766 44.828-11.812-44.828h-10.609z"/>
<path id="x" d="m45.406 27.984q0 9.7656-4.0312 15.125-4.0156 5.375-11.297 5.375-7.2188 0-11.25-5.375-4.0312-5.3594-4.0312-15.125 0-9.7188 4.0312-15.094t11.25-5.375q7.2812 0 11.297 5.375 4.0312 5.375 4.0312 15.094zm8.9844-21.203q0-13.953-6.2031-20.766-6.1875-6.8125-18.984-6.8125-4.7344 0-8.9375 0.70312t-8.1562 2.1719v8.7344q3.9531-2.1406 7.8125-3.1562 3.8594-1.0312 7.8594-1.0312 8.8438 0 13.234 4.6094t4.3906 13.938v4.4531q-2.7812-4.8438-7.125-7.2344t-10.406-2.3906q-10.047 0-16.203 7.6562-6.1562 7.6719-6.1562 20.328 0 12.688 6.1562 20.344 6.1562 7.6719 16.203 7.6719 6.0625 0 10.406-2.3906t7.125-7.2188v8.2969h8.9844z"/>
</defs>
<use xlink:href="#r"/>
<use x="81.787109" xlink:href="#e"/>
<use x="143.066406" xlink:href="#f"/>
<use x="170.849609" xlink:href="#o"/>
<use x="210.058594" xlink:href="#f"/>
<use x="237.841797" xlink:href="#i"/>
<use x="301.220703" xlink:href="#x"/>
</g>
</g>
<g clip-path="url(#a)">
<g transform="translate(164.01 613.67) scale(.1 -.1)">
<use xlink:href="#f"/>
<use x="27.783203" xlink:href="#i"/>
</g>
</g>
<g clip-path="url(#a)">
<g transform="translate(190.44 613.67) scale(.1 -.1)">
<use xlink:href="#h"/>
<use x="27.783203" xlink:href="#f"/>
<use x="55.566406" xlink:href="#i"/>
<use x="118.945312" xlink:href="#d"/>
</g>
</g>
<g clip-path="url(#a)">
<g transform="translate(228.77 613.67) scale(.1 -.1)">
<use xlink:href="#e"/>
<use x="61.279297" xlink:href="#o"/>
</g>
</g>
<g clip-path="url(#a)">
<g transform="translate(259.04 613.67) scale(.1 -.1)">
<use xlink:href="#l"/>
<use x="44.083984" xlink:href="#ah"/>
<use x="105.265625" xlink:href="#r"/>
<use x="187.052734" xlink:href="#i"/>
</g>
</g>
<g clip-path="url(#a)">
<g transform="translate(298.62 613.67) scale(.1 -.1)">
<defs>
<path id="aj" d="m19.672 34.812v-26.703h15.828q7.9531 0 11.781 3.2969 3.8438 3.2969 3.8438 10.078 0 6.8438-3.8438 10.078-3.8281 3.25-11.781 3.25zm0 29.984v-21.969h14.609q7.2188 0 10.75 2.7031 3.5469 2.7188 3.5469 8.2812 0 5.5156-3.5469 8.25-3.5312 2.7344-10.75 2.7344zm-9.8594 8.1094h25.203q11.281 0 17.375-4.6875 6.1094-4.6875 6.1094-13.328 0-6.7031-3.125-10.656t-9.1875-4.9219q7.2812-1.5625 11.312-6.5312 4.0312-4.9531 4.0312-12.375 0-9.7656-6.6406-15.094-6.6406-5.3125-18.906-5.3125h-26.172z"/>
</defs>
<use xlink:href="#aj"/>
<use x="68.603516" xlink:href="#e"/>
<use x="129.882812" xlink:href="#x"/>
<use x="193.359375" xlink:href="#d"/>
<use x="254.882812" xlink:href="#h"/>
</g>
</g>
<g clip-path="url(#a)">
<g transform="translate(350.22 613.67) scale(.1 -.1)">
<use xlink:href="#r"/>
<use x="81.787109" xlink:href="#d"/>
</g>
</g>
<g clip-path="url(#a)">
<g transform="translate(397.36 613.67) scale(.1 -.1)">
<use xlink:href="#e"/>
<use x="61.279297" xlink:href="#j"/>
<use x="100.142578" xlink:href="#d"/>
</g>
</g>
<g clip-path="url(#a)">
<g transform="translate(441.4 613.67) scale(.1 -.1)">
<defs>
<path id="al" d="m18.109 8.2031v-29h-9.0312v75.484h9.0312v-8.2969q2.8438 4.875 7.1562 7.2344 4.3281 2.375 10.328 2.375 9.9688 0 16.188-7.9062 6.2344-7.9062 6.2344-20.797t-6.2344-20.812q-6.2188-7.9062-16.188-7.9062-6 0-10.328 2.375-4.3125 2.375-7.1562 7.25zm30.578 19.094q0 9.9062-4.0781 15.547t-11.203 5.6406q-7.1406 0-11.219-5.6406t-4.0781-15.547 4.0781-15.547 11.219-5.6406q7.125 0 11.203 5.6406t4.0781 15.547z"/>
</defs>
<use xlink:href="#s"/>
<use x="63.378906" xlink:href="#e"/>
<use x="124.658203" xlink:href="#al"/>
<use x="188.134766" xlink:href="#al"/>
<use x="251.611328" xlink:href="#w"/>
</g>
</g>
<g clip-path="url(#a)">
<g transform="translate(501.27 613.67) scale(.1 -.1)">
<use xlink:href="#r"/>
<use x="81.787109" xlink:href="#f"/>
<use x="109.570312" xlink:href="#o"/>
<use x="148.779297" xlink:href="#s"/>
</g>
</g>
<g clip-path="url(#a)">
<g transform="translate(562.03 613.67) scale(.1 -.1)">
<use xlink:href="#o"/>
<use x="39.208984" xlink:href="#s"/>
<use x="102.587891" xlink:href="#d"/>
</g>
</g>
<g clip-path="url(#a)">
<g transform="translate(614.93 613.67) scale(.1 -.1)">
<defs>
<path id="as" d="m14.797 27.297q0-9.9062 4.0781-15.547t11.203-5.6406 11.219 5.6406q4.1094 5.6406 4.1094 15.547t-4.1094 15.547q-4.0938 5.6406-11.219 5.6406t-11.203-5.6406-4.0781-15.547zm30.609-19.094q-2.8281-4.875-7.1562-7.25-4.3125-2.375-10.375-2.375-9.9062 0-16.141 7.9062-6.2188 7.9219-6.2188 20.812t6.2188 20.797q6.2344 7.9062 16.141 7.9062 6.0625 0 10.375-2.375 4.3281-2.3594 7.1562-7.2344v8.2969h8.9844v-75.484h-8.9844z"/>
<path id="ar" d="m8.5 21.578v33.109h8.9844v-32.766q0-7.7656 3.0156-11.656 3.0312-3.875 9.0938-3.875 7.2656 0 11.484 4.6406 4.2344 4.6406 4.2344 12.656v31h8.9844v-54.688h-8.9844v8.4062q-3.2656-4.9844-7.5938-7.4062-4.3125-2.4219-10.031-2.4219-9.4219 0-14.312 5.8594-4.875 5.8594-4.875 17.141z"/>
</defs>
<use xlink:href="#as"/>
<use x="63.476562" xlink:href="#ar"/>
<use x="126.855469" xlink:href="#e"/>
<use x="188.134766" xlink:href="#h"/>
<use x="215.917969" xlink:href="#f"/>
<use x="243.701172" xlink:href="#o"/>
<use x="282.910156" xlink:href="#w"/>
</g>
</g>
<g clip-path="url(#a)">
<g transform="translate(687.85 613.67) scale(.1 -.1)">
<defs>
<path id="au" d="m45.406 46.391v29.594h8.9844v-75.984h-8.9844v8.2031q-2.8281-4.875-7.1562-7.25-4.3125-2.375-10.375-2.375-9.9062 0-16.141 7.9062-6.2188 7.9219-6.2188 20.812t6.2188 20.797q6.2344 7.9062 16.141 7.9062 6.0625 0 10.375-2.375 4.3281-2.3594 7.1562-7.2344zm-30.609-19.094q0-9.9062 4.0781-15.547t11.203-5.6406 11.219 5.6406q4.1094 5.6406 4.1094 15.547t-4.1094 15.547q-4.0938 5.6406-11.219 5.6406t-11.203-5.6406-4.0781-15.547z"/>
</defs>
<use xlink:href="#e"/>
<use x="61.279297" xlink:href="#i"/>
<use x="124.658203" xlink:href="#au"/>
</g>
</g>
<g clip-path="url(#a)">
<g transform="translate(748.01 613.67) scale(.1 -.1)">
<defs>
<path id="ak" d="m44.281 53.078v-8.5q-3.7969 1.9531-7.9062 2.9219-4.0938 0.98438-8.5 0.98438-6.6875 0-10.031-2.0469t-3.3438-6.1562q0-3.125 2.3906-4.9062t9.625-3.3906l3.0781-0.6875q9.5625-2.0469 13.594-5.7812t4.0312-10.422q0-7.625-6.0312-12.078-6.0312-4.4375-16.578-4.4375-4.3906 0-9.1562 0.85938t-10.031 2.5625v9.2812q4.9844-2.5938 9.8125-3.8906 4.8281-1.2812 9.5781-1.2812 6.3438 0 9.75 2.1719 3.4219 2.1719 3.4219 6.125 0 3.6562-2.4688 5.6094-2.4531 1.9531-10.812 3.7656l-3.125 0.73438q-8.3438 1.75-12.062 5.3906-3.7031 3.6406-3.7031 9.9844 0 7.7188 5.4688 11.906 5.4688 4.2031 15.531 4.2031 4.9688 0 9.3594-0.73438 4.4062-0.71875 8.1094-2.1875z"/>
<path id="aq" d="m2.9844 54.688h9.5156l17.094-45.891 17.094 45.891h9.5156l-20.516-54.688h-12.203z"/>
<path id="am" d="m48.781 52.594v-8.4062q-3.8125 2.1094-7.6406 3.1562t-7.7344 1.0469q-8.75 0-13.594-5.5469-4.8281-5.5312-4.8281-15.547t4.8281-15.562q4.8438-5.5312 13.594-5.5312 3.9062 0 7.7344 1.0469t7.6406 3.1562v-8.3125q-3.7656-1.75-7.7969-2.625-4.0156-0.89062-8.5625-0.89062-12.359 0-19.641 7.7656-7.2656 7.7656-7.2656 20.953 0 13.375 7.3438 21.031 7.3594 7.6719 20.156 7.6719 4.1406 0 8.0938-0.85938 3.9531-0.84375 7.6719-2.5469z"/>
</defs>
<use xlink:href="#ak"/>
<use x="52.099609" xlink:href="#d"/>
<use x="113.623047" xlink:href="#j"/>
<use x="154.736328" xlink:href="#aq"/>
<use x="213.916016" xlink:href="#f"/>
<use x="241.699219" xlink:href="#am"/>
<use x="296.679688" xlink:href="#d"/>
</g>
</g>
<g clip-path="url(#a)">
<g transform="translate(830.85 613.67) scale(.1 -.1)">
<use xlink:href="#r"/>
<use x="81.787109" xlink:href="#d"/>
</g>
</g>
<g clip-path="url(#a)">
<g transform="translate(905.33 613.67) scale(.1 -.1)">
<use xlink:href="#x"/>
<use x="63.476562" xlink:href="#d"/>
<use x="125" xlink:href="#o"/>
</g>
</g>
<g clip-path="url(#a)">
<g transform="translate(987.48 613.67) scale(.1 -.1)">
<use xlink:href="#e"/>
<use x="61.279297" xlink:href="#o"/>
</g>
</g>
<g clip-path="url(#a)">
<g transform="translate(1058.8 613.67) scale(.1 -.1)">
<use xlink:href="#u"/>
<use x="48.394531" xlink:href="#e"/>
<use x="109.673828" xlink:href="#k"/>
<use x="207.085938" xlink:href="#f"/>
<use x="234.869141" xlink:href="#h"/>
<use x="262.652344" xlink:href="#w"/>
</g>
</g>
<g clip-path="url(#a)">
<g transform="translate(1144 613.67) scale(.1 -.1)">
<use xlink:href="#aj"/>
<use x="68.603516" xlink:href="#e"/>
<use x="129.882812" xlink:href="#x"/>
<use x="193.359375" xlink:href="#d"/>
<use x="254.882812" xlink:href="#h"/>
<use x="282.666016" xlink:href="#ak"/>
</g>
</g>
<g clip-path="url(#a)">
<g transform="translate(217.08 31.85) scale(.1 -.1)">
<defs>
<path id="c" d="m12.406 8.2969h16.109v55.625l-17.531-3.5156v8.9844l17.438 3.5156h9.8594v-64.609h16.109v-8.2969h-41.984z"/>
<path id="g" d="m10.688 12.406h10.312v-12.406h-10.312z"/>
</defs>
<use xlink:href="#c"/>
<use x="63.623047" xlink:href="#g"/>
<use x="95.410156" xlink:href="#c"/>
</g>
</g>
<g clip-path="url(#a)">
<g transform="translate(47.321 518.42) scale(.1 -.1)">
<defs>
<path id="m" d="m19.188 8.2969h34.422v-8.2969h-46.281v8.2969q5.6094 5.8125 15.297 15.594 9.7031 9.7969 12.188 12.641 4.7344 5.3125 6.6094 9 1.8906 3.6875 1.8906 7.25 0 5.8125-4.0781 9.4688-4.0781 3.6719-10.625 3.6719-4.6406 0-9.7969-1.6094-5.1406-1.6094-11-4.8906v9.9688q5.9531 2.3906 11.125 3.6094 5.1875 1.2188 9.4844 1.2188 11.328 0 18.062-5.6719 6.7344-5.6562 6.7344-15.125 0-4.5-1.6875-8.5312-1.6719-4.0156-6.125-9.4844-1.2188-1.4219-7.7656-8.1875-6.5312-6.7656-18.453-18.922z"/>
</defs>
<use xlink:href="#c"/>
<use x="63.623047" xlink:href="#g"/>
<use x="95.410156" xlink:href="#m"/>
</g>
</g>
<g clip-path="url(#a)">
<g transform="translate(127.26 324.77) scale(.1 -.1)">
<defs>
<path id="q" d="m40.578 39.312q7.0781-1.5156 11.047-6.3125 3.9844-4.7812 3.9844-11.812 0-10.781-7.4219-16.703-7.4219-5.9062-21.094-5.9062-4.5781 0-9.4375 0.90625t-10.031 2.7188v9.5156q4.0938-2.3906 8.9688-3.6094 4.8906-1.2188 10.219-1.2188 9.2656 0 14.125 3.6562t4.8594 10.641q0 6.4531-4.5156 10.078-4.5156 3.6406-12.562 3.6406h-8.5v8.1094h8.8906q7.2656 0 11.125 2.9062t3.8594 8.375q0 5.6094-3.9844 8.6094-3.9688 3.0156-11.391 3.0156-4.0625 0-8.7031-0.89062-4.6406-0.875-10.203-2.7188v8.7812q5.625 1.5625 10.531 2.3438t9.25 0.78125q11.234 0 17.766-5.1094 6.5469-5.0938 6.5469-13.781 0-6.0625-3.4688-10.234t-9.8594-5.7812z"/>
</defs>
<use xlink:href="#c"/>
<use x="63.623047" xlink:href="#g"/>
<use x="95.410156" xlink:href="#q"/>
</g>
</g>
<g clip-path="url(#a)">
<g transform="translate(476.65 129.7) scale(.1 -.1)">
<defs>
<path id="af" d="m37.797 64.312-24.906-38.922h24.906zm-2.5938 8.5938h12.406v-47.516h10.406v-8.2031h-10.406v-17.188h-9.8125v17.188h-32.906v9.5156z"/>
</defs>
<use xlink:href="#c"/>
<use x="63.623047" xlink:href="#g"/>
<use x="95.410156" xlink:href="#af"/>
</g>
</g>
<g clip-path="url(#a)">
<g transform="translate(349.43 518.42) scale(.1 -.1)">
<defs>
<path id="ae" d="m10.797 72.906h38.719v-8.3125h-29.688v-17.859q2.1406 0.73438 4.2812 1.0938 2.1562 0.35938 4.3125 0.35938 12.203 0 19.328-6.6875 7.1406-6.6875 7.1406-18.109 0-11.766-7.3281-18.297-7.3281-6.5156-20.656-6.5156-4.5938 0-9.3594 0.78125-4.75 0.78125-9.8281 2.3438v9.9219q4.3906-2.3906 9.0781-3.5625t9.9062-1.1719q8.4531 0 13.375 4.4375 4.9375 4.4375 4.9375 12.062 0 7.6094-4.9375 12.047-4.9219 4.4531-13.375 4.4531-3.9531 0-7.8906-0.875-3.9219-0.875-8.0156-2.7344z"/>
</defs>
<use xlink:href="#c"/>
<use x="63.623047" xlink:href="#g"/>
<use x="95.410156" xlink:href="#ae"/>
</g>
</g>
<g clip-path="url(#a)">
<g transform="translate(397.5 518.42) scale(.1 -.1)">
<defs>
<path id="ad" d="m33.016 40.375q-6.6406 0-10.531-4.5469-3.875-4.5312-3.875-12.438 0-7.8594 3.875-12.438 3.8906-4.5625 10.531-4.5625t10.516 4.5625q3.875 4.5781 3.875 12.438 0 7.9062-3.875 12.438-3.875 4.5469-10.516 4.5469zm19.578 30.922v-8.9844q-3.7188 1.75-7.5 2.6719-3.7812 0.9375-7.5 0.9375-9.7656 0-14.922-6.5938-5.1406-6.5938-5.875-19.922 2.875 4.25 7.2188 6.5156 4.3594 2.2656 9.5781 2.2656 10.984 0 17.359-6.6719 6.375-6.6562 6.375-18.125 0-11.234-6.6406-18.031-6.6406-6.7812-17.672-6.7812-12.656 0-19.344 9.6875-6.6875 9.7031-6.6875 28.109 0 17.281 8.2031 27.562t22.016 10.281q3.7188 0 7.5-0.73438t7.8906-2.1875z"/>
</defs>
<use xlink:href="#c"/>
<use x="63.623047" xlink:href="#g"/>
<use x="95.410156" xlink:href="#ad"/>
</g>
</g>
<g clip-path="url(#a)">
<g transform="translate(448.99 518.42) scale(.1 -.1)">
<defs>
<path id="ac" d="m8.2031 72.906h46.875v-4.2031l-26.469-68.703h-10.297l24.906 64.594h-35.016z"/>
</defs>
<use xlink:href="#c"/>
<use x="63.623047" xlink:href="#g"/>
<use x="95.410156" xlink:href="#ac"/>
</g>
</g>
<g clip-path="url(#a)">
<g transform="translate(710.68 227.36) scale(.1 -.1)">
<defs>
<path id="ab" d="m31.781 34.625q-7.0312 0-11.062-3.7656-4.0156-3.7656-4.0156-10.344 0-6.5938 4.0156-10.359 4.0312-3.7656 11.062-3.7656t11.078 3.7812q4.0625 3.7969 4.0625 10.344 0 6.5781-4.0312 10.344-4.0156 3.7656-11.109 3.7656zm-9.8594 4.1875q-6.3438 1.5625-9.8906 5.9062-3.5312 4.3594-3.5312 10.609 0 8.7344 6.2188 13.812 6.2344 5.0781 17.062 5.0781 10.891 0 17.094-5.0781t6.2031-13.812q0-6.25-3.5469-10.609-3.5312-4.3438-9.8281-5.9062 7.125-1.6562 11.094-6.5 3.9844-4.8281 3.9844-11.797 0-10.609-6.4688-16.281-6.4688-5.6562-18.531-5.6562-12.047 0-18.531 5.6562-6.4688 5.6719-6.4688 16.281 0 6.9688 4 11.797 4.0156 4.8438 11.141 6.5zm-3.6094 15.578q0-5.6562 3.5312-8.8281 3.5469-3.1719 9.9375-3.1719 6.3594 0 9.9375 3.1719 3.5938 3.1719 3.5938 8.8281 0 5.6719-3.5938 8.8438-3.5781 3.1719-9.9375 3.1719-6.3906 0-9.9375-3.1719-3.5312-3.1719-3.5312-8.8438z"/>
</defs>
<use xlink:href="#c"/>
<use x="63.623047" xlink:href="#g"/>
<use x="95.410156" xlink:href="#ab"/>
</g>
</g>
<g clip-path="url(#a)">
<g transform="translate(562.28 518.42) scale(.1 -.1)">
<defs>
<path id="aa" d="m10.984 1.5156v8.9844q3.7188-1.7656 7.5156-2.6875 3.8125-0.92188 7.4844-0.92188 9.7656 0 14.906 6.5625 5.1562 6.5625 5.8906 19.953-2.8281-4.2031-7.1875-6.4531-4.3438-2.25-9.6094-2.25-10.938 0-17.312 6.6094-6.375 6.625-6.375 18.109 0 11.219 6.6406 18 6.6406 6.7969 17.672 6.7969 12.656 0 19.312-9.7031 6.6719-9.6875 6.6719-28.141 0-17.234-8.1875-27.516-8.1719-10.281-21.984-10.281-3.7188 0-7.5312 0.73438-3.7969 0.73438-7.9062 2.2031zm19.625 30.906q6.6406 0 10.516 4.5312 3.8906 4.5469 3.8906 12.469 0 7.8594-3.8906 12.422-3.875 4.5625-10.516 4.5625t-10.516-4.5625-3.875-12.422q0-7.9219 3.875-12.469 3.875-4.5312 10.516-4.5312z"/>
</defs>
<use xlink:href="#c"/>
<use x="63.623047" xlink:href="#g"/>
<use x="95.410156" xlink:href="#aa"/>
</g>
</g>
<g clip-path="url(#a)">
<g transform="translate(686.13 518.42) scale(.1 -.1)">
<defs>
<path id="ag" d="m31.781 66.406q-7.6094 0-11.453-7.5-3.8281-7.4844-3.8281-22.531 0-14.984 3.8281-22.484 3.8438-7.5 11.453-7.5 7.6719 0 11.5 7.5 3.8438 7.5 3.8438 22.484 0 15.047-3.8438 22.531-3.8281 7.5-11.5 7.5zm0 7.8125q12.266 0 18.734-9.7031 6.4688-9.6875 6.4688-28.141 0-18.406-6.4688-28.109-6.4688-9.6875-18.734-9.6875-12.25 0-18.719 9.6875-6.4688 9.7031-6.4688 28.109 0 18.453 6.4688 28.141 6.4688 9.7031 18.719 9.7031z"/>
</defs>
<use xlink:href="#c"/>
<use x="63.623047" xlink:href="#g"/>
<use x="95.410156" xlink:href="#c"/>
<use x="159.033203" xlink:href="#ag"/>
</g>
</g>
<g clip-path="url(#a)">
<g transform="translate(778.99 324.77) scale(.1 -.1)">
<use xlink:href="#c"/>
<use x="63.623047" xlink:href="#g"/>
<use x="95.410156" xlink:href="#c"/>
<use x="159.033203" xlink:href="#c"/>
</g>
</g>
<g clip-path="url(#a)">
<g transform="translate(805.77 324.77) scale(.1 -.1)">
<use xlink:href="#c"/>
<use x="63.623047" xlink:href="#g"/>
<use x="95.410156" xlink:href="#c"/>
<use x="159.033203" xlink:href="#m"/>
</g>
</g>
<g clip-path="url(#a)">
<g transform="translate(754.79 518.42) scale(.1 -.1)">
<use xlink:href="#c"/>
<use x="63.623047" xlink:href="#g"/>
<use x="95.410156" xlink:href="#c"/>
<use x="159.033203" xlink:href="#q"/>
</g>
</g>
<g clip-path="url(#a)">
<g transform="translate(500.74 518.42) scale(.1 -.1)">
<use xlink:href="#c"/>
<use x="63.623047" xlink:href="#g"/>
<use x="95.410156" xlink:href="#c"/>
<use x="159.033203" xlink:href="#af"/>
</g>
</g>
<g clip-path="url(#a)">
<g transform="translate(620.9 518.42) scale(.1 -.1)">
<use xlink:href="#c"/>
<use x="63.623047" xlink:href="#g"/>
<use x="95.410156" xlink:href="#c"/>
<use x="159.033203" xlink:href="#ae"/>
</g>
</g>
<g clip-path="url(#a)">
<g transform="translate(826.88 518.42) scale(.1 -.1)">
<use xlink:href="#c"/>
<use x="63.623047" xlink:href="#g"/>
<use x="95.410156" xlink:href="#c"/>
<use x="159.033203" xlink:href="#ad"/>
</g>
</g>
<g clip-path="url(#a)">
<g transform="translate(902.41 518.42) scale(.1 -.1)">
<use xlink:href="#c"/>
<use x="63.623047" xlink:href="#g"/>
<use x="95.410156" xlink:href="#c"/>
<use x="159.033203" xlink:href="#ac"/>
</g>
</g>
<g clip-path="url(#a)">
<g transform="translate(1044 421.85) scale(.1 -.1)">
<use xlink:href="#c"/>
<use x="63.623047" xlink:href="#g"/>
<use x="95.410156" xlink:href="#c"/>
<use x="159.033203" xlink:href="#ab"/>
</g>
</g>
<g clip-path="url(#a)">
<g transform="translate(981.37 518.42) scale(.1 -.1)">
<use xlink:href="#c"/>
<use x="63.623047" xlink:href="#g"/>
<use x="95.410156" xlink:href="#c"/>
<use x="159.033203" xlink:href="#aa"/>
</g>
</g>
<g clip-path="url(#a)">
<g transform="translate(1106.7 518.42) scale(.1 -.1)">
<use xlink:href="#c"/>
<use x="63.623047" xlink:href="#g"/>
<use x="95.410156" xlink:href="#m"/>
<use x="159.033203" xlink:href="#ag"/>
</g>
</g>
<g clip-path="url(#a)">
<g transform="translate(54.439 518.42) scale(.1 -.1)">
<use xlink:href="#c"/>
<use x="63.623047" xlink:href="#g"/>
<use x="95.410156" xlink:href="#m"/>
<use x="159.033203" xlink:href="#c"/>
</g>
</g>
<g clip-path="url(#a)">
<g transform="translate(68.172 518.42) scale(.1 -.1)">
<use xlink:href="#c"/>
<use x="63.623047" xlink:href="#g"/>
<use x="95.410156" xlink:href="#m"/>
<use x="159.033203" xlink:href="#m"/>
</g>
</g>
<g clip-path="url(#a)">
<g transform="translate(85.337 518.42) scale(.1 -.1)">
<use xlink:href="#c"/>
<use x="63.623047" xlink:href="#g"/>
<use x="95.410156" xlink:href="#m"/>
<use x="159.033203" xlink:href="#q"/>
</g>
</g>
<g clip-path="url(#a)">
<g transform="translate(105.94 518.42) scale(.1 -.1)">
<use xlink:href="#c"/>
<use x="63.623047" xlink:href="#g"/>
<use x="95.410156" xlink:href="#m"/>
<use x="159.033203" xlink:href="#af"/>
</g>
</g>
<g clip-path="url(#a)">
<g transform="translate(129.97 518.42) scale(.1 -.1)">
<use xlink:href="#c"/>
<use x="63.623047" xlink:href="#g"/>
<use x="95.410156" xlink:href="#m"/>
<use x="159.033203" xlink:href="#ae"/>
</g>
</g>
<g clip-path="url(#a)">
<g transform="translate(172.88 421.85) scale(.1 -.1)">
<use xlink:href="#c"/>
<use x="63.623047" xlink:href="#g"/>
<use x="95.410156" xlink:href="#m"/>
<use x="159.033203" xlink:href="#ad"/>
</g>
</g>
<g clip-path="url(#a)">
<g transform="translate(251.84 421.85) scale(.1 -.1)">
<use xlink:href="#c"/>
<use x="63.623047" xlink:href="#g"/>
<use x="95.410156" xlink:href="#m"/>
<use x="159.033203" xlink:href="#ac"/>
</g>
</g>
<g clip-path="url(#a)">
<g transform="translate(222.66 518.42) scale(.1 -.1)">
<use xlink:href="#c"/>
<use x="63.623047" xlink:href="#g"/>
<use x="95.410156" xlink:href="#m"/>
<use x="159.033203" xlink:href="#ab"/>
</g>
</g>
<g clip-path="url(#a)">
<g transform="translate(281.02 518.42) scale(.1 -.1)">
<use xlink:href="#c"/>
<use x="63.623047" xlink:href="#g"/>
<use x="95.410156" xlink:href="#m"/>
<use x="159.033203" xlink:href="#aa"/>
</g>
</g>
<g clip-path="url(#a)">
<g transform="translate(157.43 518.42) scale(.1 -.1)">
<use xlink:href="#c"/>
<use x="63.623047" xlink:href="#g"/>
<use x="95.410156" xlink:href="#q"/>
<use x="159.033203" xlink:href="#ag"/>
</g>
</g>
<g clip-path="url(#a)">
<g transform="translate(188.33 518.42) scale(.1 -.1)">
<use xlink:href="#c"/>
<use x="63.623047" xlink:href="#g"/>
<use x="95.410156" xlink:href="#q"/>
<use x="159.033203" xlink:href="#c"/>
</g>
</g>
<defs>
<clipPath id="a">
<rect width="1216" height="640"/>
</clipPath>
</defs>
</svg>
