<?xml version="1.0" encoding="UTF-8"?>
<!DOCTYPE svg  PUBLIC '-//W3C//DTD SVG 1.1//EN'  'http://www.w3.org/Graphics/SVG/1.1/DTD/svg11.dtd'>
<svg width="1672pt" height="880pt" version="1.1" viewBox="0 0 1672 880" xmlns="http://www.w3.org/2000/svg" xmlns:xlink="http://www.w3.org/1999/xlink">
<defs>
<style type="text/css">*{stroke-linecap:butt;stroke-linejoin:round;}</style>
</defs>
<path d="m0 880h1672v-880h-1672z" fill="#fff"/>
<g fill="none" stroke="#000">
<path d="m687.2 40.914-611.02 669.19" clip-path="url(#a)"/>
<path d="m687.2 40.914-302.35 409.43" clip-path="url(#a)"/>
<path d="m687.2 40.914 6.3319 669.19" clip-path="url(#a)"/>
<path d="m687.2 40.914 153.55 139.8" clip-path="url(#a)"/>
<path d="m687.2 40.914 623.69 669.19" clip-path="url(#a)"/>
<path d="m687.2 40.914 734.5 409.43" clip-path="url(#a)"/>
<path d="m687.2 40.914-563.54 669.19" clip-path="url(#a)"/>
<path d="m687.2 40.914-41.157 669.19" clip-path="url(#a)"/>
<path d="m76.177 710.1v128.98" clip-path="url(#a)"/>
<path d="m384.86 450.34-166.21 130.78" clip-path="url(#a)"/>
<path d="m384.86 450.34-71.233 259.76" clip-path="url(#a)"/>
<path d="m384.86 450.34-23.744 259.76" clip-path="url(#a)"/>
<path d="m384.86 450.34 23.744 259.76" clip-path="url(#a)"/>
<path d="m384.86 450.34 71.233 259.76" clip-path="url(#a)"/>
<path d="m384.86 450.34 166.21 130.78" clip-path="url(#a)"/>
<path d="m693.53 710.1v128.98" clip-path="url(#a)"/>
<path d="m840.75 180.72-99.727 529.39" clip-path="url(#a)"/>
<path d="m840.75 180.72-52.238 529.39" clip-path="url(#a)"/>
<path d="m840.75 180.72-4.7489 529.39" clip-path="url(#a)"/>
<path d="m840.75 180.72 156.71 136.33" clip-path="url(#a)"/>
<path d="m1310.9 710.1v128.98" clip-path="url(#a)"/>
<path d="m1421.7 450.34-63.319 259.76" clip-path="url(#a)"/>
<path d="m1421.7 450.34 7.9148 259.76" clip-path="url(#a)"/>
<path d="m1421.7 450.34 79.148 259.76" clip-path="url(#a)"/>
<path d="m1421.7 450.34 126.64 259.76" clip-path="url(#a)"/>
<path d="m1421.7 450.34-324.51 130.78" clip-path="url(#a)" stroke-dasharray="3.7,1.6"/>
<path d="m1421.7 450.34 174.13 259.76" clip-path="url(#a)"/>
<path d="m1358.4 710.1v128.98" clip-path="url(#a)"/>
<path d="m1429.6 710.1-23.744 128.98" clip-path="url(#a)"/>
<path d="m1429.6 710.1 23.744 128.98" clip-path="url(#a)"/>
<path d="m1500.8 710.1v128.98" clip-path="url(#a)"/>
<path d="m1548.3 710.1v128.98" clip-path="url(#a)"/>
<path d="m741.02 710.1v128.98" clip-path="url(#a)"/>
<path d="m788.51 710.1v128.98" clip-path="url(#a)"/>
<path d="m836 710.1v128.98" clip-path="url(#a)"/>
<path d="m997.46 317.05-113.97 393.05" clip-path="url(#a)"/>
<path d="m997.46 317.05-66.485 393.05" clip-path="url(#a)"/>
<path d="m997.46 317.05-18.996 393.05" clip-path="url(#a)"/>
<path d="m997.46 317.05 28.493 393.05" clip-path="url(#a)"/>
<path d="m997.46 317.05 170.96 133.3" clip-path="url(#a)"/>
<path d="m883.49 710.1v128.98" clip-path="url(#a)"/>
<path d="m930.98 710.1v128.98" clip-path="url(#a)"/>
<path d="m978.47 710.1v128.98" clip-path="url(#a)"/>
<path d="m1026 710.1v128.98" clip-path="url(#a)"/>
<path d="m1168.4 450.34-71.233 130.78" clip-path="url(#a)"/>
<path d="m1168.4 450.34v259.76" clip-path="url(#a)"/>
<path d="m1168.4 450.34 71.233 130.78" clip-path="url(#a)"/>
<path d="m1097.2 581.12v128.98" clip-path="url(#a)"/>
<path d="m1168.4 710.1v128.98" clip-path="url(#a)"/>
<path d="m1239.7 581.12-23.744 128.98" clip-path="url(#a)"/>
<path d="m1239.7 581.12 23.744 128.98" clip-path="url(#a)"/>
<path d="m1215.9 710.1v128.98" clip-path="url(#a)"/>
<path d="m1263.4 710.1v128.98" clip-path="url(#a)"/>
<path d="m1097.2 710.1-23.744 128.98" clip-path="url(#a)"/>
<path d="m1097.2 710.1 23.744 128.98" clip-path="url(#a)"/>
<path d="m218.64 581.12-47.489 128.98" clip-path="url(#a)"/>
<path d="m218.64 581.12v128.98" clip-path="url(#a)"/>
<path d="m218.64 581.12 47.489 128.98" clip-path="url(#a)"/>
<path d="m313.62 710.1v128.98" clip-path="url(#a)"/>
<path d="m361.11 710.1v128.98" clip-path="url(#a)"/>
<path d="m408.6 710.1v128.98" clip-path="url(#a)"/>
<path d="m456.09 710.1v128.98" clip-path="url(#a)"/>
<path d="m551.07 581.12-47.489 128.98" clip-path="url(#a)"/>
<path d="m551.07 581.12v128.98" clip-path="url(#a)"/>
<path d="m551.07 581.12 47.489 128.98" clip-path="url(#a)"/>
<path d="m503.58 710.1v128.98" clip-path="url(#a)"/>
<path d="m551.07 710.1v128.98" clip-path="url(#a)"/>
<path d="m598.56 710.1v128.98" clip-path="url(#a)"/>
<path d="m171.15 710.1v128.98" clip-path="url(#a)"/>
<path d="m218.64 710.1v128.98" clip-path="url(#a)"/>
<path d="m266.13 710.1v128.98" clip-path="url(#a)"/>
<path d="m123.67 710.1v128.98" clip-path="url(#a)"/>
<path d="m646.04 710.1v128.98" clip-path="url(#a)"/>
<path d="m1595.8 710.1v128.98" clip-path="url(#a)"/>
</g>
<path d="m384.82 381.38 3.0056-3.2917q1.6183-1.7723-0.15405-3.3906l-5.7176-5.2206q-1.7723-1.6183-3.3906 0.15405l-3.0056 3.2917q-1.6183 1.7723 0.15405 3.3906l5.7176 5.2206q1.7723 1.6183 3.3906-0.15405z" clip-path="url(#a)" fill="#fff" stroke="#fff"/>
<g clip-path="url(#a)">
<defs>
<path id="ah" d="m9.8125 72.906h9.8594v-64.609h35.5v-8.2969h-45.359z"/>
</defs>
<g transform="translate(381.82 378.64) rotate(-47.601) scale(.08 -.08)">
<use xlink:href="#ah"/>
</g>
</g>
<path d="m539.29 251.77 3.5739-4.8397q1.4257-1.9306-0.50495-3.3563l-6.2283-4.5994q-1.9306-1.4257-3.3563 0.50495l-3.5739 4.8397q-1.4257 1.9306 0.50495 3.3563l6.2283 4.5994q1.9306 1.4257 3.3563-0.50495z" clip-path="url(#a)" fill="#fff" stroke="#fff"/>
<g clip-path="url(#a)">
<defs>
<path id="ai" d="m9.8125 72.906h9.8594v-29.891h35.844v29.891h9.8594v-72.906h-9.8594v34.719h-35.844v-34.719h-9.8594z"/>
</defs>
<g transform="translate(536.02 249.36) rotate(-53.556) scale(.08 -.08)">
<use xlink:href="#ai"/>
</g>
</g>
<path d="m684.08 373.34 0.042175 4.4573q0.022707 2.3999 2.4226 2.3772l7.7422-0.073256q2.3999-0.022708 2.3772-2.4226l-0.042175-4.4573q-0.022707-2.3999-2.4226-2.3772l-7.7422 0.073256q-2.3999 0.022708-2.3772 2.4226z" clip-path="url(#a)" fill="#fff" stroke="#fff"/>
<g clip-path="url(#a)">
<g transform="translate(688.14 373.3) rotate(89.458) scale(.08 -.08)">
<use xlink:href="#ah"/>
</g>
</g>
<path d="m757.53 113.43 4.4486 4.0504q1.7746 1.6158 3.3904-0.15886l5.2125-5.725q1.6158-1.7746-0.15886-3.3904l-4.4486-4.0504q-1.7746-1.6158-3.3904 0.15886l-5.2125 5.725q-1.6158 1.7746 0.15886 3.3904z" clip-path="url(#a)" fill="#fff" stroke="#fff"/>
<g clip-path="url(#a)">
<g transform="translate(760.26 110.42) rotate(42.317) scale(.08 -.08)">
<use xlink:href="#ai"/>
</g>
</g>
<path d="m992.94 378.15 3.0391 3.2608q1.6363 1.7557 3.392 0.11938l5.6639-5.2788q1.7557-1.6363 0.11938-3.392l-3.0391-3.2608q-1.6363-1.7557-3.392-0.11938l-5.6639 5.2788q-1.7557 1.6363-0.11938 3.392z" clip-path="url(#a)" fill="#fff" stroke="#fff"/>
<g clip-path="url(#a)">
<g transform="translate(995.91 375.38) rotate(47.016) scale(.08 -.08)">
<use xlink:href="#ah"/>
</g>
</g>
<path d="m1048.8 249.64 5.255 2.9293q2.0963 1.1685 3.2649-0.92776l3.7698-6.7628q1.1685-2.0963-0.92776-3.2649l-5.255-2.9293q-2.0963-1.1685-3.2649 0.92776l-3.7698 6.7628q-1.1685 2.0963 0.92776 3.2649z" clip-path="url(#a)" fill="#fff" stroke="#fff"/>
<g clip-path="url(#a)">
<g transform="translate(1050.7 246.09) rotate(29.137) scale(.08 -.08)">
<use xlink:href="#ai"/>
</g>
</g>
<path d="m408.34 381.79 3.7714-4.4785q1.5459-1.8358-0.28984-3.3817l-5.9223-4.9873q-1.8358-1.5459-3.3817 0.28984l-3.7714 4.4785q-1.5459 1.8358 0.28984 3.3817l5.9223 4.9873q1.8358 1.5459 3.3817-0.28984z" clip-path="url(#a)" fill="#fff" stroke="#fff"/>
<g clip-path="url(#a)">
<defs>
<path id="af" d="m8.6875 72.906h9.9219v-44.297q0-11.719 4.2344-16.875 4.25-5.1406 13.781-5.1406 9.4688 0 13.719 5.1406 4.25 5.1562 4.25 16.875v44.297h9.9062v-45.516q0-14.25-7.0625-21.531-7.0469-7.2812-20.812-7.2812-13.828 0-20.891 7.2812-7.0469 7.2812-7.0469 21.531z"/>
</defs>
<g transform="translate(405.24 379.17) rotate(-49.899) scale(.08 -.08)">
<use xlink:href="#af"/>
</g>
</g>
<path d="m672.7 378.82 0.35942-5.844q0.14733-2.3955-2.2481-2.5428l-7.7279-0.47529q-2.3955-0.14733-2.5428 2.2481l-0.35942 5.844q-0.14733 2.3955 2.2481 2.5428l7.7279 0.47529q2.3955 0.14733 2.5428-2.2481z" clip-path="url(#a)" fill="#fff" stroke="#fff"/>
<g clip-path="url(#a)">
<g transform="translate(668.65 378.57) rotate(-86.481) scale(.08 -.08)">
<use xlink:href="#af"/>
</g>
</g>
<path d="m69.906 756.95v35.285q0 2.4 2.4 2.4h7.7425q2.4 0 2.4-2.4v-35.285q0-2.4-2.4-2.4h-7.7425q-2.4 0-2.4 2.4z" clip-path="url(#a)" fill="#fff" stroke="#fff"/>
<g clip-path="url(#a)">
<defs>
<path id="l" d="m-0.29688 72.906h61.672v-8.3125h-25.875v-64.594h-9.9062v64.594h-25.891z"/>
<path id="e" d="m56.203 29.594v-4.3906h-41.312q0.59375-9.2812 5.5938-14.141t13.938-4.8594q5.1719 0 10.031 1.2656t9.6562 3.8125v-8.5q-4.8438-2.0469-9.9219-3.125t-10.297-1.0781q-13.094 0-20.734 7.6094-7.6406 7.625-7.6406 20.625 0 13.422 7.25 21.297 7.25 7.8906 19.562 7.8906 11.031 0 17.453-7.1094 6.4219-7.0938 6.4219-19.297zm-8.9844 2.6406q-0.09375 7.3594-4.125 11.75-4.0312 4.4062-10.672 4.4062-7.5156 0-12.031-4.25t-5.2031-11.969z"/>
<path id="d" d="m41.109 46.297q-1.5156 0.875-3.2969 1.2812-1.7812 0.42188-3.9219 0.42188-7.625 0-11.703-4.9531t-4.0781-14.234v-28.812h-9.0312v54.688h9.0312v-8.5q2.8438 4.9844 7.375 7.3906 4.5469 2.4219 11.047 2.4219 0.92188 0 2.0469-0.125 1.125-0.10938 2.4844-0.35938z"/>
<path id="k" d="m52 44.188q3.375 6.0625 8.0625 8.9375t11.031 2.875q8.5469 0 13.188-5.9844 4.6406-5.9688 4.6406-17v-33.016h-9.0312v32.719q0 7.8594-2.7969 11.656-2.7812 3.8125-8.4844 3.8125-6.9844 0-11.047-4.6406-4.0469-4.625-4.0469-12.641v-30.906h-9.0312v32.719q0 7.9062-2.7812 11.688t-8.5938 3.7812q-6.8906 0-10.953-4.6562-4.0469-4.6562-4.0469-12.625v-30.906h-9.0312v54.688h9.0312v-8.5q3.0781 5.0312 7.375 7.4219t10.203 2.3906q5.9688 0 10.141-3.0312 4.1719-3.0156 6.1719-8.7812z"/>
<path id="h" d="m9.4219 54.688h8.9844v-54.688h-8.9844zm0 21.297h8.9844v-11.391h-8.9844z"/>
<path id="i" d="m54.891 33.016v-33.016h-8.9844v32.719q0 7.7656-3.0312 11.609-3.0312 3.8594-9.0781 3.8594-7.2812 0-11.484-4.6406-4.2031-4.625-4.2031-12.641v-30.906h-9.0312v54.688h9.0312v-8.5q3.2344 4.9375 7.5938 7.375 4.375 2.4375 10.094 2.4375 9.4219 0 14.25-5.8281 4.8438-5.8281 4.8438-17.156z"/>
<path id="g" d="m34.281 27.484q-10.891 0-15.094-2.4844t-4.2031-8.5q0-4.7812 3.1562-7.5938 3.1562-2.7969 8.5625-2.7969 7.4844 0 12 5.2969t4.5156 14.078v2zm17.922 3.7188v-31.203h-8.9844v8.2969q-3.0781-4.9688-7.6719-7.3438t-11.234-2.375q-8.3906 0-13.359 4.7188-4.9531 4.7188-4.9531 12.625 0 9.2188 6.1719 13.906 6.1875 4.6875 18.438 4.6875h12.609v0.89062q0 6.2031-4.0781 9.5938t-11.453 3.3906q-4.6875 0-9.1406-1.125-4.4375-1.125-8.5312-3.375v8.3125q4.9219 1.9062 9.5625 2.8438 4.6406 0.95312 9.0312 0.95312 11.875 0 17.734-6.1562 5.8594-6.1406 5.8594-18.641z"/>
<path id="j" d="m9.4219 75.984h8.9844v-75.984h-8.9844z"/>
</defs>
<g transform="translate(73.97 756.95) rotate(90) scale(.08 -.08)">
<use xlink:href="#l"/>
<use x="60.818359" xlink:href="#e"/>
<use x="122.341797" xlink:href="#d"/>
<use x="163.439453" xlink:href="#k"/>
<use x="260.851562" xlink:href="#h"/>
<use x="288.634766" xlink:href="#i"/>
<use x="352.013672" xlink:href="#g"/>
<use x="413.292969" xlink:href="#j"/>
</g>
</g>
<path d="m303.48 522.35 4.3008-3.3839q1.8862-1.484 0.40211-3.3702l-4.7876-6.0848q-1.4841-1.8862-3.3702-0.40211l-4.3008 3.3839q-1.8862 1.4841-0.40211 3.3702l4.7876 6.0848q1.4841 1.8862 3.3702 0.40211z" clip-path="url(#a)" fill="#fff" stroke="#fff"/>
<g clip-path="url(#a)">
<defs>
<path id="r" d="m34.188 63.188-13.391-36.281h26.812zm-5.5781 9.7188h11.188l27.781-72.906h-10.25l-6.6406 18.703h-32.859l-6.6406-18.703h-10.406z"/>
</defs>
<g transform="translate(300.96 519.16) rotate(-38.196) scale(.08 -.08)">
<use xlink:href="#r"/>
</g>
</g>
<path d="m354.47 584.87 1.6393-5.978q0.63472-2.3146-1.6798-2.9493l-7.4668-2.0476q-2.3145-0.63472-2.9493 1.6798l-1.6393 5.978q-0.63471 2.3145 1.6798 2.9493l7.4668 2.0476q2.3145 0.63472 2.9493-1.6798z" clip-path="url(#a)" fill="#fff" stroke="#fff"/>
<g clip-path="url(#a)">
<defs>
<path id="au" d="m59.516 10.406v19.578h-16.109v8.1094h25.875v-31.312q-5.7031-4.0469-12.594-6.125-6.875-2.0781-14.688-2.0781-17.094 0-26.75 9.9844-9.6406 10-9.6406 27.812 0 17.875 9.6406 27.859 9.6562 9.9844 26.75 9.9844 7.125 0 13.547-1.7656 6.4219-1.75 11.844-5.1719v-10.5q-5.4688 4.6406-11.625 6.9844t-12.938 2.3438q-13.391 0-20.109-7.4688-6.7031-7.4688-6.7031-22.266 0-14.75 6.7031-22.219 6.7188-7.4688 20.109-7.4688 5.2188 0 9.3125 0.90625 4.1094 0.90625 7.375 2.8125z"/>
</defs>
<g transform="translate(350.55 583.8) rotate(-74.665) scale(.08 -.08)">
<use xlink:href="#au"/>
</g>
</g>
<path d="m379.02 583.09 0.41885-4.5821q0.21847-2.39-2.1716-2.6085l-7.7104-0.7048q-2.39-0.21847-2.6085 2.1716l-0.41885 4.5821q-0.21847 2.39 2.1716 2.6085l7.7104 0.7048q2.39 0.21847 2.6085-2.1716z" clip-path="url(#a)" fill="#fff" stroke="#fff"/>
<g clip-path="url(#a)">
<defs>
<path id="v" d="m9.8125 72.906h41.891v-8.3125h-32.031v-21.484h28.906v-8.2969h-28.906v-34.812h-9.8594z"/>
</defs>
<g transform="translate(374.97 582.72) rotate(-84.777) scale(.08 -.08)">
<use xlink:href="#v"/>
</g>
</g>
<path d="m390.2 577.73 0.56074 6.1344q0.21847 2.39 2.6085 2.1716l7.7104-0.7048q2.39-0.21847 2.1716-2.6085l-0.56074-6.1344q-0.21847-2.39-2.6085-2.1716l-7.7104 0.7048q-2.39 0.21847-2.1716 2.6085z" clip-path="url(#a)" fill="#fff" stroke="#fff"/>
<g clip-path="url(#a)">
<defs>
<path id="y" d="m19.672 64.797v-56.688h11.922q15.094 0 22.094 6.8281 7 6.8438 7 21.594 0 14.641-7 21.453t-22.094 6.8125zm-9.8594 8.1094h20.266q21.188 0 31.094-8.8125 9.9219-8.8125 9.9219-27.562 0-18.859-9.9688-27.703-9.9531-8.8281-31.047-8.8281h-20.266z"/>
</defs>
<g transform="translate(394.25 577.36) rotate(84.777) scale(.08 -.08)">
<use xlink:href="#y"/>
</g>
</g>
<path d="m413.79 579.56 1.2757 4.652q0.63472 2.3145 2.9493 1.6798l7.4668-2.0476q2.3145-0.63471 1.6798-2.9493l-1.2757-4.652q-0.63471-2.3145-2.9493-1.6798l-7.4668 2.0476q-2.3145 0.63471-1.6798 2.9493z" clip-path="url(#a)" fill="#fff" stroke="#fff"/>
<g clip-path="url(#a)">
<defs>
<path id="x" d="m19.672 64.797v-27.391h12.406q6.8906 0 10.641 3.5625 3.7656 3.5625 3.7656 10.156 0 6.5469-3.7656 10.109-3.75 3.5625-10.641 3.5625zm-9.8594 8.1094h22.266q12.266 0 18.531-5.5469 6.2812-5.5469 6.2812-16.234 0-10.797-6.2812-16.312-6.2656-5.5156-18.531-5.5156h-12.406v-29.297h-9.8594z"/>
</defs>
<g transform="translate(417.71 578.48) rotate(74.665) scale(.08 -.08)">
<use xlink:href="#x"/>
</g>
</g>
<path d="m461.93 518.97 4.3008 3.3839q1.8862 1.484 3.3702-0.40211l4.7876-6.0848q1.4841-1.8862-0.40211-3.3702l-4.3008-3.3839q-1.8862-1.4841-3.3702 0.40211l-4.7876 6.0848q-1.4841 1.8862 0.40211 3.3702z" clip-path="url(#a)" fill="#fff" stroke="#fff"/>
<g clip-path="url(#a)">
<g transform="translate(464.45 515.78) rotate(38.196) scale(.08 -.08)">
<use xlink:href="#r"/>
</g>
</g>
<path d="m687.26 756.95v35.285q0 2.4 2.4 2.4h7.7425q2.4 0 2.4-2.4v-35.285q0-2.4-2.4-2.4h-7.7425q-2.4 0-2.4 2.4z" clip-path="url(#a)" fill="#fff" stroke="#fff"/>
<g clip-path="url(#a)">
<g transform="translate(691.33 756.95) rotate(90) scale(.08 -.08)">
<use xlink:href="#l"/>
<use x="60.818359" xlink:href="#e"/>
<use x="122.341797" xlink:href="#d"/>
<use x="163.439453" xlink:href="#k"/>
<use x="260.851562" xlink:href="#h"/>
<use x="288.634766" xlink:href="#i"/>
<use x="352.013672" xlink:href="#g"/>
<use x="413.292969" xlink:href="#j"/>
</g>
</g>
<path d="m796.54 449.26 1.0131-5.3779q0.4443-2.3585-1.9142-2.8028l-7.6087-1.4333q-2.3585-0.4443-2.8028 1.9142l-1.0131 5.3779q-0.4443 2.3585 1.9142 2.8028l7.6087 1.4333q2.3585 0.4443 2.8028-1.9142z" clip-path="url(#a)" fill="#fff" stroke="#fff"/>
<g clip-path="url(#a)">
<g transform="translate(792.55 448.51) rotate(-79.332) scale(.08 -.08)">
<use xlink:href="#r"/>
</g>
</g>
<path d="m820.57 449.09 0.60491-6.1302q0.23568-2.3884-2.1527-2.6241l-7.7051-0.76031q-2.3884-0.23568-2.6241 2.1527l-0.60491 6.1302q-0.23568 2.3884 2.1527 2.6241l7.7051 0.76031q2.3884 0.23568 2.6241-2.1527z" clip-path="url(#a)" fill="#fff" stroke="#fff"/>
<g clip-path="url(#a)">
<g transform="translate(816.52 448.69) rotate(-84.365) scale(.08 -.08)">
<use xlink:href="#y"/>
</g>
</g>
<path d="m844.62 447.88 0.04327-4.8236q0.021529-2.3999-2.3784-2.4214l-7.7422-0.069451q-2.3999-0.021529-2.4214 2.3784l-0.04327 4.8236q-0.021529 2.3999 2.3784 2.4214l7.7422 0.069451q2.3999 0.021529 2.4214-2.3784z" clip-path="url(#a)" fill="#fff" stroke="#fff"/>
<g clip-path="url(#a)">
<g transform="translate(840.56 447.84) rotate(-89.486) scale(.08 -.08)">
<use xlink:href="#x"/>
</g>
</g>
<path d="m912.93 251.82 4.1288 3.5918q1.8107 1.5752 3.3859-0.23549l5.0817-5.8414q1.5752-1.8107-0.23549-3.3859l-4.1288-3.5918q-1.8107-1.5752-3.3859 0.23549l-5.0817 5.8414q-1.5752 1.8107 0.23549 3.3859z" clip-path="url(#a)" fill="#fff" stroke="#fff"/>
<g clip-path="url(#a)">
<g transform="translate(915.59 248.75) rotate(41.022) scale(.08 -.08)">
<use xlink:href="#r"/>
</g>
</g>
<path d="m1304.6 756.95v35.285q0 2.4 2.4 2.4h7.7425q2.4 0 2.4-2.4v-35.285q0-2.4-2.4-2.4h-7.7425q-2.4 0-2.4 2.4z" clip-path="url(#a)" fill="#fff" stroke="#fff"/>
<g clip-path="url(#a)">
<g transform="translate(1308.7 756.95) rotate(90) scale(.08 -.08)">
<use xlink:href="#l"/>
<use x="60.818359" xlink:href="#e"/>
<use x="122.341797" xlink:href="#d"/>
<use x="163.439453" xlink:href="#k"/>
<use x="260.851562" xlink:href="#h"/>
<use x="288.634766" xlink:href="#i"/>
<use x="352.013672" xlink:href="#g"/>
<use x="413.292969" xlink:href="#j"/>
</g>
</g>
<path d="m1395.6 583.94 1.0897-4.4704q0.56838-2.3317-1.7633-2.9001l-7.5222-1.8336q-2.3317-0.56838-2.9001 1.7633l-1.0897 4.4704q-0.56838 2.3317 1.7633 2.9001l7.5222 1.8336q2.3317 0.56838 2.9001-1.7633z" clip-path="url(#a)" fill="#fff" stroke="#fff"/>
<g clip-path="url(#a)">
<g transform="translate(1391.6 582.98) rotate(-76.301) scale(.08 -.08)">
<use xlink:href="#v"/>
</g>
</g>
<path d="m1419.3 577.34 0.18761 6.1571q0.073094 2.3989 2.472 2.3258l7.7389-0.2358q2.3989-0.073093 2.3258-2.472l-0.18761-6.1571q-0.073094-2.3989-2.472-2.3258l-7.7389 0.2358q-2.3989 0.073093-2.3258 2.472z" clip-path="url(#a)" fill="#fff" stroke="#fff"/>
<g clip-path="url(#a)">
<g transform="translate(1423.4 577.21) rotate(88.255) scale(.08 -.08)">
<use xlink:href="#y"/>
</g>
</g>
<path d="m1454.5 579.43 1.5951 5.2349q0.69952 2.2958 2.9953 1.5963l7.4063-2.2567q2.2958-0.69952 1.5963-2.9953l-1.5951-5.2349q-0.69952-2.2958-2.9953-1.5963l-7.4063 2.2567q-2.2958 0.69952-1.5963 2.9953z" clip-path="url(#a)" fill="#fff" stroke="#fff"/>
<g clip-path="url(#a)">
<g transform="translate(1458.4 578.25) rotate(73.054) scale(.08 -.08)">
<use xlink:href="#r"/>
</g>
</g>
<path d="m1478.3 580.69 2.2256 4.5651q1.0517 2.1573 3.209 1.1056l6.9595-3.3929q2.1573-1.0517 1.1056-3.209l-2.2256-4.5651q-1.0517-2.1573-3.209-1.1056l-6.9595 3.3929q-2.1573 1.0517-1.1056 3.209z" clip-path="url(#a)" fill="#fff" stroke="#fff"/>
<g clip-path="url(#a)">
<defs>
<path id="as" d="m53.516 70.516v-9.625q-5.6094 2.6875-10.594 4-4.9844 1.3281-9.625 1.3281-8.0469 0-12.422-3.125t-4.375-8.8906q0-4.8438 2.9062-7.3125 2.9062-2.4531 11.016-3.9688l5.9531-1.2188q11.031-2.1094 16.281-7.4062t5.25-14.172q0-10.609-7.1094-16.078-7.0938-5.4688-20.812-5.4688-5.1719 0-11.016 1.1719-5.8281 1.1719-12.078 3.4688v10.156q6-3.3594 11.766-5.0781 5.7656-1.7031 11.328-1.7031 8.4375 0 13.031 3.3125 4.5938 3.3281 4.5938 9.4844 0 5.3594-3.2969 8.3906t-10.812 4.5469l-6.0156 1.1719q-11.031 2.1875-15.969 6.875-4.9219 4.6875-4.9219 13.047 0 9.6719 6.8125 15.234t18.766 5.5625q5.1406 0 10.453-0.9375 5.3281-0.92188 10.891-2.7656z"/>
</defs>
<g transform="translate(1481.9 578.91) rotate(64.01) scale(.08 -.08)">
<use xlink:href="#as"/>
</g>
</g>
<path d="m1259.2 522.57 5.0758-2.0456q2.226-0.89709 1.3289-3.1231l-2.8941-7.1813q-0.89709-2.226-3.1231-1.3289l-5.0758 2.0456q-2.226 0.89709-1.3289 3.1231l2.8941 7.1813q0.89709 2.226 3.1231 1.3289z" clip-path="url(#a)" fill="#fff" stroke="#fff"/>
<g clip-path="url(#a)">
<g transform="translate(1257.7 518.8) rotate(-21.949) scale(.08 -.08)">
<use xlink:href="#r"/>
</g>
</g>
<path d="m1501.9 581.28 3.2601 4.8634q1.3363 1.9935 3.3299 0.6572l6.4312-4.3111q1.9935-1.3363 0.6572-3.3299l-3.2601-4.8634q-1.3363-1.9935-3.3299-0.6572l-6.4312 4.3111q-1.9935 1.3363-0.6572 3.3299z" clip-path="url(#a)" fill="#fff" stroke="#fff"/>
<g clip-path="url(#a)">
<g transform="translate(1505.3 579.02) rotate(56.165) scale(.08 -.08)">
<use xlink:href="#af"/>
</g>
</g>
<path d="m1352.1 756.95v35.285q0 2.4 2.4 2.4h7.7425q2.4 0 2.4-2.4v-35.285q0-2.4-2.4-2.4h-7.7425q-2.4 0-2.4 2.4z" clip-path="url(#a)" fill="#fff" stroke="#fff"/>
<g clip-path="url(#a)">
<g transform="translate(1356.2 756.95) rotate(90) scale(.08 -.08)">
<use xlink:href="#l"/>
<use x="60.818359" xlink:href="#e"/>
<use x="122.341797" xlink:href="#d"/>
<use x="163.439453" xlink:href="#k"/>
<use x="260.851562" xlink:href="#h"/>
<use x="288.634766" xlink:href="#i"/>
<use x="352.013672" xlink:href="#g"/>
<use x="413.292969" xlink:href="#j"/>
</g>
</g>
<path d="m1420.7 793.08 6.3883-34.702q0.43452-2.3603-1.9258-2.7949l-7.6145-1.4018q-2.3603-0.43452-2.7949 1.9258l-6.3883 34.702q-0.43452 2.3603 1.9258 2.7949l7.6145 1.4018q2.3603 0.43452 2.7949-1.9258z" clip-path="url(#a)" fill="#fff" stroke="#fff"/>
<g clip-path="url(#a)">
<g transform="translate(1416.7 792.35) rotate(-79.569) scale(.08 -.08)">
<use xlink:href="#l"/>
<use x="60.818359" xlink:href="#e"/>
<use x="122.341797" xlink:href="#d"/>
<use x="163.439453" xlink:href="#k"/>
<use x="260.851562" xlink:href="#h"/>
<use x="288.634766" xlink:href="#i"/>
<use x="352.013672" xlink:href="#g"/>
<use x="413.292969" xlink:href="#j"/>
</g>
</g>
<path d="m1432.1 758.38 6.3883 34.702q0.43452 2.3603 2.7949 1.9258l7.6145-1.4018q2.3603-0.43452 1.9258-2.7949l-6.3883-34.702q-0.43452-2.3603-2.7949-1.9258l-7.6146 1.4018q-2.3603 0.43452-1.9258 2.7949z" clip-path="url(#a)" fill="#fff" stroke="#fff"/>
<g clip-path="url(#a)">
<g transform="translate(1436.1 757.64) rotate(79.569) scale(.08 -.08)">
<use xlink:href="#l"/>
<use x="60.818359" xlink:href="#e"/>
<use x="122.341797" xlink:href="#d"/>
<use x="163.439453" xlink:href="#k"/>
<use x="260.851562" xlink:href="#h"/>
<use x="288.634766" xlink:href="#i"/>
<use x="352.013672" xlink:href="#g"/>
<use x="413.292969" xlink:href="#j"/>
</g>
</g>
<path d="m1494.6 756.95v35.285q0 2.4 2.4 2.4h7.7425q2.4 0 2.4-2.4v-35.285q0-2.4-2.4-2.4h-7.7425q-2.4 0-2.4 2.4z" clip-path="url(#a)" fill="#fff" stroke="#fff"/>
<g clip-path="url(#a)">
<g transform="translate(1498.6 756.95) rotate(90) scale(.08 -.08)">
<use xlink:href="#l"/>
<use x="60.818359" xlink:href="#e"/>
<use x="122.341797" xlink:href="#d"/>
<use x="163.439453" xlink:href="#k"/>
<use x="260.851562" xlink:href="#h"/>
<use x="288.634766" xlink:href="#i"/>
<use x="352.013672" xlink:href="#g"/>
<use x="413.292969" xlink:href="#j"/>
</g>
</g>
<path d="m1542.1 756.95v35.285q0 2.4 2.4 2.4h7.7425q2.4 0 2.4-2.4v-35.285q0-2.4-2.4-2.4h-7.7425q-2.4 0-2.4 2.4z" clip-path="url(#a)" fill="#fff" stroke="#fff"/>
<g clip-path="url(#a)">
<g transform="translate(1546.1 756.95) rotate(90) scale(.08 -.08)">
<use xlink:href="#l"/>
<use x="60.818359" xlink:href="#e"/>
<use x="122.341797" xlink:href="#d"/>
<use x="163.439453" xlink:href="#k"/>
<use x="260.851562" xlink:href="#h"/>
<use x="288.634766" xlink:href="#i"/>
<use x="352.013672" xlink:href="#g"/>
<use x="413.292969" xlink:href="#j"/>
</g>
</g>
<path d="m734.75 756.95v35.285q0 2.4 2.4 2.4h7.7425q2.4 0 2.4-2.4v-35.285q0-2.4-2.4-2.4h-7.7425q-2.4 0-2.4 2.4z" clip-path="url(#a)" fill="#fff" stroke="#fff"/>
<g clip-path="url(#a)">
<g transform="translate(738.81 756.95) rotate(90) scale(.08 -.08)">
<use xlink:href="#l"/>
<use x="60.818359" xlink:href="#e"/>
<use x="122.341797" xlink:href="#d"/>
<use x="163.439453" xlink:href="#k"/>
<use x="260.851562" xlink:href="#h"/>
<use x="288.634766" xlink:href="#i"/>
<use x="352.013672" xlink:href="#g"/>
<use x="413.292969" xlink:href="#j"/>
</g>
</g>
<path d="m782.24 756.95v35.285q0 2.4 2.4 2.4h7.7425q2.4 0 2.4-2.4v-35.285q0-2.4-2.4-2.4h-7.7425q-2.4 0-2.4 2.4z" clip-path="url(#a)" fill="#fff" stroke="#fff"/>
<g clip-path="url(#a)">
<g transform="translate(786.3 756.95) rotate(90) scale(.08 -.08)">
<use xlink:href="#l"/>
<use x="60.818359" xlink:href="#e"/>
<use x="122.341797" xlink:href="#d"/>
<use x="163.439453" xlink:href="#k"/>
<use x="260.851562" xlink:href="#h"/>
<use x="288.634766" xlink:href="#i"/>
<use x="352.013672" xlink:href="#g"/>
<use x="413.292969" xlink:href="#j"/>
</g>
</g>
<path d="m829.73 756.95v35.285q0 2.4 2.4 2.4h7.7425q2.4 0 2.4-2.4v-35.285q0-2.4-2.4-2.4h-7.7425q-2.4 0-2.4 2.4z" clip-path="url(#a)" fill="#fff" stroke="#fff"/>
<g clip-path="url(#a)">
<g transform="translate(833.79 756.95) rotate(90) scale(.08 -.08)">
<use xlink:href="#l"/>
<use x="60.818359" xlink:href="#e"/>
<use x="122.341797" xlink:href="#d"/>
<use x="163.439453" xlink:href="#k"/>
<use x="260.851562" xlink:href="#h"/>
<use x="288.634766" xlink:href="#i"/>
<use x="352.013672" xlink:href="#g"/>
<use x="413.292969" xlink:href="#j"/>
</g>
</g>
<path d="m945.72 517.99 1.5481-5.3388q0.66839-2.305-1.6367-2.9734l-7.4362-2.1563q-2.305-0.66839-2.9734 1.6367l-1.5481 5.3388q-0.66839 2.305 1.6367 2.9734l7.4362 2.1563q2.305 0.66839 2.9734-1.6367z" clip-path="url(#a)" fill="#fff" stroke="#fff"/>
<g clip-path="url(#a)">
<defs>
<path id="ag" d="m44.391 34.188q3.1719-1.0781 6.1719-4.5938t6.0312-9.6719l10.016-19.922h-10.609l-9.3125 18.703q-3.625 7.3281-7.0156 9.7188t-9.25 2.3906h-10.75v-30.812h-9.8594v72.906h22.266q12.5 0 18.656-5.2344 6.1562-5.2188 6.1562-15.766 0-6.8906-3.2031-11.438-3.2031-4.5312-9.2969-6.2812zm-24.719 30.609v-25.875h12.406q7.125 0 10.766 3.2969t3.6406 9.6875-3.6406 9.6406-10.766 3.25z"/>
</defs>
<g transform="translate(941.82 516.86) rotate(-73.83) scale(.08 -.08)">
<use xlink:href="#ag"/>
</g>
</g>
<path d="m969.95 517.32 0.9127-5.3959q0.40027-2.3664-1.9661-2.7667l-7.6341-1.2913q-2.3664-0.40027-2.7667 1.9661l-0.9127 5.3959q-0.40027 2.3664 1.9661 2.7667l7.6341 1.2913q2.3664 0.40027 2.7667-1.9661z" clip-path="url(#a)" fill="#fff" stroke="#fff"/>
<g clip-path="url(#a)">
<g transform="translate(965.94 516.64) rotate(-80.399) scale(.08 -.08)">
<use xlink:href="#r"/>
</g>
</g>
<path d="m994.08 516.96 0.29735-6.1528q0.11585-2.3972-2.2814-2.5131l-7.7335-0.37374q-2.3972-0.11585-2.5131 2.2814l-0.29735 6.1528q-0.11585 2.3972 2.2814 2.5131l7.7335 0.37374q2.3972 0.11585 2.5131-2.2814z" clip-path="url(#a)" fill="#fff" stroke="#fff"/>
<g clip-path="url(#a)">
<g transform="translate(990.02 516.76) rotate(-87.233) scale(.08 -.08)">
<use xlink:href="#y"/>
</g>
</g>
<path d="m1005.3 511.62 0.34877 4.8111q0.17353 2.3937 2.5672 2.2202l7.7222-0.5598q2.3937-0.17352 2.2202-2.5672l-0.34877-4.8111q-0.17353-2.3937-2.5672-2.2202l-7.7222 0.5598q-2.3937 0.17353-2.2202 2.5672z" clip-path="url(#a)" fill="#fff" stroke="#fff"/>
<g clip-path="url(#a)">
<g transform="translate(1009.3 511.33) rotate(85.854) scale(.08 -.08)">
<use xlink:href="#x"/>
</g>
</g>
<path d="m1076.9 386.96 4.3157 3.3649q1.8927 1.4757 3.3684-0.41699l4.7607-6.1059q1.4757-1.8927-0.41699-3.3684l-4.3157-3.3649q-1.8927-1.4757-3.3684 0.41699l-4.7607 6.1059q-1.4757 1.8927 0.41699 3.3684z" clip-path="url(#a)" fill="#fff" stroke="#fff"/>
<g clip-path="url(#a)">
<g transform="translate(1079.4 383.75) rotate(37.943) scale(.08 -.08)">
<use xlink:href="#r"/>
</g>
</g>
<path d="m877.22 756.95v35.285q0 2.4 2.4 2.4h7.7425q2.4 0 2.4-2.4v-35.285q0-2.4-2.4-2.4h-7.7425q-2.4 0-2.4 2.4z" clip-path="url(#a)" fill="#fff" stroke="#fff"/>
<g clip-path="url(#a)">
<g transform="translate(881.28 756.95) rotate(90) scale(.08 -.08)">
<use xlink:href="#l"/>
<use x="60.818359" xlink:href="#e"/>
<use x="122.341797" xlink:href="#d"/>
<use x="163.439453" xlink:href="#k"/>
<use x="260.851562" xlink:href="#h"/>
<use x="288.634766" xlink:href="#i"/>
<use x="352.013672" xlink:href="#g"/>
<use x="413.292969" xlink:href="#j"/>
</g>
</g>
<path d="m924.71 756.95v35.285q0 2.4 2.4 2.4h7.7425q2.4 0 2.4-2.4v-35.285q0-2.4-2.4-2.4h-7.7425q-2.4 0-2.4 2.4z" clip-path="url(#a)" fill="#fff" stroke="#fff"/>
<g clip-path="url(#a)">
<g transform="translate(928.77 756.95) rotate(90) scale(.08 -.08)">
<use xlink:href="#l"/>
<use x="60.818359" xlink:href="#e"/>
<use x="122.341797" xlink:href="#d"/>
<use x="163.439453" xlink:href="#k"/>
<use x="260.851562" xlink:href="#h"/>
<use x="288.634766" xlink:href="#i"/>
<use x="352.013672" xlink:href="#g"/>
<use x="413.292969" xlink:href="#j"/>
</g>
</g>
<path d="m972.2 756.95v35.285q0 2.4 2.4 2.4h7.7425q2.4 0 2.4-2.4v-35.285q0-2.4-2.4-2.4h-7.7425q-2.4 0-2.4 2.4z" clip-path="url(#a)" fill="#fff" stroke="#fff"/>
<g clip-path="url(#a)">
<g transform="translate(976.26 756.95) rotate(90) scale(.08 -.08)">
<use xlink:href="#l"/>
<use x="60.818359" xlink:href="#e"/>
<use x="122.341797" xlink:href="#d"/>
<use x="163.439453" xlink:href="#k"/>
<use x="260.851562" xlink:href="#h"/>
<use x="288.634766" xlink:href="#i"/>
<use x="352.013672" xlink:href="#g"/>
<use x="413.292969" xlink:href="#j"/>
</g>
</g>
<path d="m1019.7 756.95v35.285q0 2.4 2.4 2.4h7.7425q2.4 0 2.4-2.4v-35.285q0-2.4-2.4-2.4h-7.7425q-2.4 0-2.4 2.4z" clip-path="url(#a)" fill="#fff" stroke="#fff"/>
<g clip-path="url(#a)">
<g transform="translate(1023.7 756.95) rotate(90) scale(.08 -.08)">
<use xlink:href="#l"/>
<use x="60.818359" xlink:href="#e"/>
<use x="122.341797" xlink:href="#d"/>
<use x="163.439453" xlink:href="#k"/>
<use x="260.851562" xlink:href="#h"/>
<use x="288.634766" xlink:href="#i"/>
<use x="352.013672" xlink:href="#g"/>
<use x="413.292969" xlink:href="#j"/>
</g>
</g>
<path d="m1137 521.14 2.6177-4.8058q1.148-2.1076-0.95961-3.2556l-6.7993-3.7035q-2.1076-1.148-3.2556 0.95961l-2.6177 4.8058q-1.148 2.1076 0.95961 3.2556l6.7993 3.7035q2.1076 1.148 3.2556-0.95961z" clip-path="url(#a)" fill="#fff" stroke="#fff"/>
<g clip-path="url(#a)">
<g transform="translate(1133.4 519.19) rotate(-61.423) scale(.08 -.08)">
<use xlink:href="#r"/>
</g>
</g>
<path d="m1162.2 577.92v4.6012q0 2.4 2.4 2.4h7.7425q2.4 0 2.4-2.4v-4.6012q0-2.4-2.4-2.4h-7.7425q-2.4 0-2.4 2.4z" clip-path="url(#a)" fill="#fff" stroke="#fff"/>
<g clip-path="url(#a)">
<g transform="translate(1166.2 577.92) rotate(90) scale(.08 -.08)">
<use xlink:href="#v"/>
</g>
</g>
<path d="m1197.4 516.61 2.3074 4.2361q1.148 2.1076 3.2556 0.95961l6.7993-3.7035q2.1076-1.148 0.95961-3.2556l-2.3074-4.2361q-1.148-2.1076-3.2556-0.95961l-6.7993 3.7035q-2.1076 1.148-0.95961 3.2556z" clip-path="url(#a)" fill="#fff" stroke="#fff"/>
<g clip-path="url(#a)">
<g transform="translate(1200.9 514.67) rotate(61.423) scale(.08 -.08)">
<use xlink:href="#x"/>
</g>
</g>
<path d="m1090.9 642.46v6.2975q0 2.4 2.4 2.4h7.7425q2.4 0 2.4-2.4v-6.2975q0-2.4-2.4-2.4h-7.7425q-2.4 0-2.4 2.4z" clip-path="url(#a)" fill="#fff" stroke="#fff"/>
<g clip-path="url(#a)">
<defs>
<path id="at" d="m39.406 66.219q-10.75 0-17.078-8.0156-6.3125-8-6.3125-21.828 0-13.766 6.3125-21.781 6.3281-8 17.078-8 10.734 0 17.016 8 6.2812 8.0156 6.2812 21.781 0 13.828-6.2812 21.828-6.2812 8.0156-17.016 8.0156zm13.812-64.906 13-14.203h-11.922l-10.797 11.672q-1.6094-0.09375-2.4688-0.14062-0.84375-0.0625-1.625-0.0625-15.375 0-24.594 10.281-9.2031 10.281-9.2031 27.516 0 17.281 9.2031 27.562 9.2188 10.281 24.594 10.281 15.328 0 24.5-10.281 9.1875-10.281 9.1875-27.562 0-12.688-5.1094-21.734-5.0938-9.0312-14.766-13.328z"/>
</defs>
<g transform="translate(1095 642.46) rotate(90) scale(.08 -.08)">
<use xlink:href="#at"/>
</g>
</g>
<path d="m1162.2 756.95v35.285q0 2.4 2.4 2.4h7.7425q2.4 0 2.4-2.4v-35.285q0-2.4-2.4-2.4h-7.7425q-2.4 0-2.4 2.4z" clip-path="url(#a)" fill="#fff" stroke="#fff"/>
<g clip-path="url(#a)">
<g transform="translate(1166.2 756.95) rotate(90) scale(.08 -.08)">
<use xlink:href="#l"/>
<use x="60.818359" xlink:href="#e"/>
<use x="122.341797" xlink:href="#d"/>
<use x="163.439453" xlink:href="#k"/>
<use x="260.851562" xlink:href="#h"/>
<use x="288.634766" xlink:href="#i"/>
<use x="352.013672" xlink:href="#g"/>
<use x="413.292969" xlink:href="#j"/>
</g>
</g>
<path d="m1233.5 649.01 0.83305-4.5252q0.43452-2.3603-1.9258-2.7949l-7.6145-1.4018q-2.3603-0.43452-2.7949 1.9258l-0.83305 4.5252q-0.43452 2.3603 1.9258 2.7949l7.6146 1.4018q2.3603 0.43452 2.7949-1.9258z" clip-path="url(#a)" fill="#fff" stroke="#fff"/>
<g clip-path="url(#a)">
<g transform="translate(1229.5 648.27) rotate(-79.569) scale(.08 -.08)">
<use xlink:href="#v"/>
</g>
</g>
<path d="m1244.9 644 1.0114 5.4939q0.43452 2.3603 2.7949 1.9258l7.6145-1.4018q2.3603-0.43452 1.9258-2.7949l-1.0114-5.4939q-0.43452-2.3603-2.7949-1.9258l-7.6145 1.4018q-2.3603 0.43452-1.9258 2.7949z" clip-path="url(#a)" fill="#fff" stroke="#fff"/>
<g clip-path="url(#a)">
<defs>
<path id="aj" d="m64.406 67.281v-10.391q-4.9844 4.6406-10.625 6.9219-5.6406 2.2969-11.984 2.2969-12.5 0-19.141-7.6406t-6.6406-22.094q0-14.406 6.6406-22.047t19.141-7.6406q6.3438 0 11.984 2.2969t10.625 6.9375v-10.312q-5.1719-3.5156-10.969-5.2812-5.7812-1.75-12.219-1.75-16.562 0-26.094 10.125-9.5156 10.141-9.5156 27.672 0 17.578 9.5156 27.703 9.5312 10.141 26.094 10.141 6.5312 0 12.312-1.7344 5.7969-1.7344 10.875-5.2031z"/>
</defs>
<g transform="translate(1248.9 643.26) rotate(79.569) scale(.08 -.08)">
<use xlink:href="#aj"/>
</g>
</g>
<path d="m1209.6 756.95v35.285q0 2.4 2.4 2.4h7.7425q2.4 0 2.4-2.4v-35.285q0-2.4-2.4-2.4h-7.7425q-2.4 0-2.4 2.4z" clip-path="url(#a)" fill="#fff" stroke="#fff"/>
<g clip-path="url(#a)">
<g transform="translate(1213.7 756.95) rotate(90) scale(.08 -.08)">
<use xlink:href="#l"/>
<use x="60.818359" xlink:href="#e"/>
<use x="122.341797" xlink:href="#d"/>
<use x="163.439453" xlink:href="#k"/>
<use x="260.851562" xlink:href="#h"/>
<use x="288.634766" xlink:href="#i"/>
<use x="352.013672" xlink:href="#g"/>
<use x="413.292969" xlink:href="#j"/>
</g>
</g>
<path d="m1257.1 756.95v35.285q0 2.4 2.4 2.4h7.7425q2.4 0 2.4-2.4v-35.285q0-2.4-2.4-2.4h-7.7425q-2.4 0-2.4 2.4z" clip-path="url(#a)" fill="#fff" stroke="#fff"/>
<g clip-path="url(#a)">
<g transform="translate(1261.2 756.95) rotate(90) scale(.08 -.08)">
<use xlink:href="#l"/>
<use x="60.818359" xlink:href="#e"/>
<use x="122.341797" xlink:href="#d"/>
<use x="163.439453" xlink:href="#k"/>
<use x="260.851562" xlink:href="#h"/>
<use x="288.634766" xlink:href="#i"/>
<use x="352.013672" xlink:href="#g"/>
<use x="413.292969" xlink:href="#j"/>
</g>
</g>
<path d="m1088.3 793.08 6.3883-34.702q0.43452-2.3603-1.9258-2.7949l-7.6145-1.4018q-2.3603-0.43452-2.7949 1.9258l-6.3883 34.702q-0.43452 2.3603 1.9258 2.7949l7.6145 1.4018q2.3603 0.43452 2.7949-1.9258z" clip-path="url(#a)" fill="#fff" stroke="#fff"/>
<g clip-path="url(#a)">
<g transform="translate(1084.3 792.35) rotate(-79.569) scale(.08 -.08)">
<use xlink:href="#l"/>
<use x="60.818359" xlink:href="#e"/>
<use x="122.341797" xlink:href="#d"/>
<use x="163.439453" xlink:href="#k"/>
<use x="260.851562" xlink:href="#h"/>
<use x="288.634766" xlink:href="#i"/>
<use x="352.013672" xlink:href="#g"/>
<use x="413.292969" xlink:href="#j"/>
</g>
</g>
<path d="m1099.7 758.38 6.3883 34.702q0.43452 2.3603 2.7949 1.9258l7.6145-1.4018q2.3603-0.43452 1.9258-2.7949l-6.3883-34.702q-0.43452-2.3603-2.7949-1.9258l-7.6145 1.4018q-2.3603 0.43452-1.9258 2.7949z" clip-path="url(#a)" fill="#fff" stroke="#fff"/>
<g clip-path="url(#a)">
<g transform="translate(1103.7 757.64) rotate(79.569) scale(.08 -.08)">
<use xlink:href="#l"/>
<use x="60.818359" xlink:href="#e"/>
<use x="122.341797" xlink:href="#d"/>
<use x="163.439453" xlink:href="#k"/>
<use x="260.851562" xlink:href="#h"/>
<use x="288.634766" xlink:href="#i"/>
<use x="352.013672" xlink:href="#g"/>
<use x="413.292969" xlink:href="#j"/>
</g>
</g>
<path d="m199.99 649.94 1.5898-4.3179q0.82922-2.2522-1.423-3.0814l-7.2657-2.6751q-2.2522-0.82922-3.0814 1.423l-1.5898 4.3179q-0.82922 2.2522 1.423 3.0814l7.2657 2.6751q2.2522 0.82922 3.0814-1.423z" clip-path="url(#a)" fill="#fff" stroke="#fff"/>
<g clip-path="url(#a)">
<g transform="translate(196.18 648.53) rotate(-69.787) scale(.08 -.08)">
<use xlink:href="#v"/>
</g>
</g>
<path d="m212.37 643.08v5.055q0 2.4 2.4 2.4h7.7425q2.4 0 2.4-2.4v-5.055q0-2.4-2.4-2.4h-7.7425q-2.4 0-2.4 2.4z" clip-path="url(#a)" fill="#fff" stroke="#fff"/>
<g clip-path="url(#a)">
<defs>
<path id="av" d="m9.8125 72.906h46.094v-8.3125h-36.234v-21.578h34.719v-8.2969h-34.719v-26.422h37.109v-8.2969h-46.969z"/>
</defs>
<g transform="translate(216.44 643.08) rotate(90) scale(.08 -.08)">
<use xlink:href="#av"/>
</g>
</g>
<path d="m235.54 645.16 1.9301 5.2422q0.82922 2.2522 3.0814 1.423l7.2657-2.6751q2.2522-0.82922 1.423-3.0814l-1.9301-5.2422q-0.82922-2.2522-3.0814-1.423l-7.2657 2.6751q-2.2522 0.82922-1.423 3.0814z" clip-path="url(#a)" fill="#fff" stroke="#fff"/>
<g clip-path="url(#a)">
<g transform="translate(239.35 643.75) rotate(69.787) scale(.08 -.08)">
<use xlink:href="#aj"/>
</g>
</g>
<path d="m307.35 756.95v35.285q0 2.4 2.4 2.4h7.7425q2.4 0 2.4-2.4v-35.285q0-2.4-2.4-2.4h-7.7425q-2.4 0-2.4 2.4z" clip-path="url(#a)" fill="#fff" stroke="#fff"/>
<g clip-path="url(#a)">
<g transform="translate(311.41 756.95) rotate(90) scale(.08 -.08)">
<use xlink:href="#l"/>
<use x="60.818359" xlink:href="#e"/>
<use x="122.341797" xlink:href="#d"/>
<use x="163.439453" xlink:href="#k"/>
<use x="260.851562" xlink:href="#h"/>
<use x="288.634766" xlink:href="#i"/>
<use x="352.013672" xlink:href="#g"/>
<use x="413.292969" xlink:href="#j"/>
</g>
</g>
<path d="m354.84 756.95v35.285q0 2.4 2.4 2.4h7.7425q2.4 0 2.4-2.4v-35.285q0-2.4-2.4-2.4h-7.7425q-2.4 0-2.4 2.4z" clip-path="url(#a)" fill="#fff" stroke="#fff"/>
<g clip-path="url(#a)">
<g transform="translate(358.9 756.95) rotate(90) scale(.08 -.08)">
<use xlink:href="#l"/>
<use x="60.818359" xlink:href="#e"/>
<use x="122.341797" xlink:href="#d"/>
<use x="163.439453" xlink:href="#k"/>
<use x="260.851562" xlink:href="#h"/>
<use x="288.634766" xlink:href="#i"/>
<use x="352.013672" xlink:href="#g"/>
<use x="413.292969" xlink:href="#j"/>
</g>
</g>
<path d="m402.33 756.95v35.285q0 2.4 2.4 2.4h7.7425q2.4 0 2.4-2.4v-35.285q0-2.4-2.4-2.4h-7.7425q-2.4 0-2.4 2.4z" clip-path="url(#a)" fill="#fff" stroke="#fff"/>
<g clip-path="url(#a)">
<g transform="translate(406.39 756.95) rotate(90) scale(.08 -.08)">
<use xlink:href="#l"/>
<use x="60.818359" xlink:href="#e"/>
<use x="122.341797" xlink:href="#d"/>
<use x="163.439453" xlink:href="#k"/>
<use x="260.851562" xlink:href="#h"/>
<use x="288.634766" xlink:href="#i"/>
<use x="352.013672" xlink:href="#g"/>
<use x="413.292969" xlink:href="#j"/>
</g>
</g>
<path d="m449.82 756.95v35.285q0 2.4 2.4 2.4h7.7425q2.4 0 2.4-2.4v-35.285q0-2.4-2.4-2.4h-7.7425q-2.4 0-2.4 2.4z" clip-path="url(#a)" fill="#fff" stroke="#fff"/>
<g clip-path="url(#a)">
<g transform="translate(453.88 756.95) rotate(90) scale(.08 -.08)">
<use xlink:href="#l"/>
<use x="60.818359" xlink:href="#e"/>
<use x="122.341797" xlink:href="#d"/>
<use x="163.439453" xlink:href="#k"/>
<use x="260.851562" xlink:href="#h"/>
<use x="288.634766" xlink:href="#i"/>
<use x="352.013672" xlink:href="#g"/>
<use x="413.292969" xlink:href="#j"/>
</g>
</g>
<path d="m532.25 650.39 1.9206-5.2164q0.82922-2.2522-1.423-3.0814l-7.2657-2.6751q-2.2522-0.82922-3.0814 1.423l-1.9206 5.2164q-0.82922 2.2522 1.423 3.0814l7.2657 2.6751q2.2522 0.82922 3.0814-1.423z" clip-path="url(#a)" fill="#fff" stroke="#fff"/>
<g clip-path="url(#a)">
<g transform="translate(528.43 648.98) rotate(-69.787) scale(.08 -.08)">
<use xlink:href="#ag"/>
</g>
</g>
<path d="m544.8 642.82v5.5862q0 2.4 2.4 2.4h7.7425q2.4 0 2.4-2.4v-5.5862q0-2.4-2.4-2.4h-7.7425q-2.4 0-2.4 2.4z" clip-path="url(#a)" fill="#fff" stroke="#fff"/>
<g clip-path="url(#a)">
<g transform="translate(548.86 642.82) rotate(90) scale(.08 -.08)">
<use xlink:href="#aj"/>
</g>
</g>
<path d="m567.97 645.17 1.9206 5.2164q0.82922 2.2522 3.0814 1.423l7.2657-2.6751q2.2522-0.82922 1.423-3.0814l-1.9206-5.2164q-0.82922-2.2522-3.0814-1.423l-7.2657 2.6751q-2.2522 0.82922-1.423 3.0814z" clip-path="url(#a)" fill="#fff" stroke="#fff"/>
<g clip-path="url(#a)">
<g transform="translate(571.78 643.77) rotate(69.787) scale(.08 -.08)">
<use xlink:href="#ag"/>
</g>
</g>
<path d="m497.31 756.95v35.285q0 2.4 2.4 2.4h7.7425q2.4 0 2.4-2.4v-35.285q0-2.4-2.4-2.4h-7.7425q-2.4 0-2.4 2.4z" clip-path="url(#a)" fill="#fff" stroke="#fff"/>
<g clip-path="url(#a)">
<g transform="translate(501.37 756.95) rotate(90) scale(.08 -.08)">
<use xlink:href="#l"/>
<use x="60.818359" xlink:href="#e"/>
<use x="122.341797" xlink:href="#d"/>
<use x="163.439453" xlink:href="#k"/>
<use x="260.851562" xlink:href="#h"/>
<use x="288.634766" xlink:href="#i"/>
<use x="352.013672" xlink:href="#g"/>
<use x="413.292969" xlink:href="#j"/>
</g>
</g>
<path d="m544.8 756.95v35.285q0 2.4 2.4 2.4h7.7425q2.4 0 2.4-2.4v-35.285q0-2.4-2.4-2.4h-7.7425q-2.4 0-2.4 2.4z" clip-path="url(#a)" fill="#fff" stroke="#fff"/>
<g clip-path="url(#a)">
<g transform="translate(548.86 756.95) rotate(90) scale(.08 -.08)">
<use xlink:href="#l"/>
<use x="60.818359" xlink:href="#e"/>
<use x="122.341797" xlink:href="#d"/>
<use x="163.439453" xlink:href="#k"/>
<use x="260.851562" xlink:href="#h"/>
<use x="288.634766" xlink:href="#i"/>
<use x="352.013672" xlink:href="#g"/>
<use x="413.292969" xlink:href="#j"/>
</g>
</g>
<path d="m592.28 756.95v35.285q0 2.4 2.4 2.4h7.7425q2.4 0 2.4-2.4v-35.285q0-2.4-2.4-2.4h-7.7425q-2.4 0-2.4 2.4z" clip-path="url(#a)" fill="#fff" stroke="#fff"/>
<g clip-path="url(#a)">
<g transform="translate(596.35 756.95) rotate(90) scale(.08 -.08)">
<use xlink:href="#l"/>
<use x="60.818359" xlink:href="#e"/>
<use x="122.341797" xlink:href="#d"/>
<use x="163.439453" xlink:href="#k"/>
<use x="260.851562" xlink:href="#h"/>
<use x="288.634766" xlink:href="#i"/>
<use x="352.013672" xlink:href="#g"/>
<use x="413.292969" xlink:href="#j"/>
</g>
</g>
<path d="m164.88 756.95v35.285q0 2.4 2.4 2.4h7.7425q2.4 0 2.4-2.4v-35.285q0-2.4-2.4-2.4h-7.7425q-2.4 0-2.4 2.4z" clip-path="url(#a)" fill="#fff" stroke="#fff"/>
<g clip-path="url(#a)">
<g transform="translate(168.95 756.95) rotate(90) scale(.08 -.08)">
<use xlink:href="#l"/>
<use x="60.818359" xlink:href="#e"/>
<use x="122.341797" xlink:href="#d"/>
<use x="163.439453" xlink:href="#k"/>
<use x="260.851562" xlink:href="#h"/>
<use x="288.634766" xlink:href="#i"/>
<use x="352.013672" xlink:href="#g"/>
<use x="413.292969" xlink:href="#j"/>
</g>
</g>
<path d="m212.37 756.95v35.285q0 2.4 2.4 2.4h7.7425q2.4 0 2.4-2.4v-35.285q0-2.4-2.4-2.4h-7.7425q-2.4 0-2.4 2.4z" clip-path="url(#a)" fill="#fff" stroke="#fff"/>
<g clip-path="url(#a)">
<g transform="translate(216.44 756.95) rotate(90) scale(.08 -.08)">
<use xlink:href="#l"/>
<use x="60.818359" xlink:href="#e"/>
<use x="122.341797" xlink:href="#d"/>
<use x="163.439453" xlink:href="#k"/>
<use x="260.851562" xlink:href="#h"/>
<use x="288.634766" xlink:href="#i"/>
<use x="352.013672" xlink:href="#g"/>
<use x="413.292969" xlink:href="#j"/>
</g>
</g>
<path d="m259.86 756.95v35.285q0 2.4 2.4 2.4h7.7425q2.4 0 2.4-2.4v-35.285q0-2.4-2.4-2.4h-7.7425q-2.4 0-2.4 2.4z" clip-path="url(#a)" fill="#fff" stroke="#fff"/>
<g clip-path="url(#a)">
<g transform="translate(263.93 756.95) rotate(90) scale(.08 -.08)">
<use xlink:href="#l"/>
<use x="60.818359" xlink:href="#e"/>
<use x="122.341797" xlink:href="#d"/>
<use x="163.439453" xlink:href="#k"/>
<use x="260.851562" xlink:href="#h"/>
<use x="288.634766" xlink:href="#i"/>
<use x="352.013672" xlink:href="#g"/>
<use x="413.292969" xlink:href="#j"/>
</g>
</g>
<path d="m117.39 756.95v35.285q0 2.4 2.4 2.4h7.7425q2.4 0 2.4-2.4v-35.285q0-2.4-2.4-2.4h-7.7425q-2.4 0-2.4 2.4z" clip-path="url(#a)" fill="#fff" stroke="#fff"/>
<g clip-path="url(#a)">
<g transform="translate(121.46 756.95) rotate(90) scale(.08 -.08)">
<use xlink:href="#l"/>
<use x="60.818359" xlink:href="#e"/>
<use x="122.341797" xlink:href="#d"/>
<use x="163.439453" xlink:href="#k"/>
<use x="260.851562" xlink:href="#h"/>
<use x="288.634766" xlink:href="#i"/>
<use x="352.013672" xlink:href="#g"/>
<use x="413.292969" xlink:href="#j"/>
</g>
</g>
<path d="m639.77 756.95v35.285q0 2.4 2.4 2.4h7.7425q2.4 0 2.4-2.4v-35.285q0-2.4-2.4-2.4h-7.7425q-2.4 0-2.4 2.4z" clip-path="url(#a)" fill="#fff" stroke="#fff"/>
<g clip-path="url(#a)">
<g transform="translate(643.84 756.95) rotate(90) scale(.08 -.08)">
<use xlink:href="#l"/>
<use x="60.818359" xlink:href="#e"/>
<use x="122.341797" xlink:href="#d"/>
<use x="163.439453" xlink:href="#k"/>
<use x="260.851562" xlink:href="#h"/>
<use x="288.634766" xlink:href="#i"/>
<use x="352.013672" xlink:href="#g"/>
<use x="413.292969" xlink:href="#j"/>
</g>
</g>
<path d="m1589.6 756.95v35.285q0 2.4 2.4 2.4h7.7425q2.4 0 2.4-2.4v-35.285q0-2.4-2.4-2.4h-7.7425q-2.4 0-2.4 2.4z" clip-path="url(#a)" fill="#fff" stroke="#fff"/>
<g clip-path="url(#a)">
<g transform="translate(1593.6 756.95) rotate(90) scale(.08 -.08)">
<use xlink:href="#l"/>
<use x="60.818359" xlink:href="#e"/>
<use x="122.341797" xlink:href="#d"/>
<use x="163.439453" xlink:href="#k"/>
<use x="260.851562" xlink:href="#h"/>
<use x="288.634766" xlink:href="#i"/>
<use x="352.013672" xlink:href="#g"/>
<use x="413.292969" xlink:href="#j"/>
</g>
</g>
<defs>
<path id="b" d="m0 8.6603c2.2967 0 4.4997-0.9125 6.1237-2.5365 1.624-1.624 2.5365-3.827 2.5365-6.1237s-0.9125-4.4997-2.5365-6.1237c-1.624-1.624-3.827-2.5365-6.1237-2.5365s-4.4997 0.9125-6.1237 2.5365c-1.624 1.624-2.5365 3.827-2.5365 6.1237s0.9125 4.4997 2.5365 6.1237c1.624 1.624 3.827 2.5365 6.1237 2.5365z"/>
</defs>
<g clip-path="url(#a)">
<use x="76.1771" y="839.086073" fill="#ffffff" stroke="#ffffff" xlink:href="#b"/>
</g>
<g clip-path="url(#a)">
<use x="123.666032" y="839.086073" fill="#ffffff" stroke="#ffffff" xlink:href="#b"/>
</g>
<g clip-path="url(#a)">
<use x="171.154963" y="839.086073" fill="#ffffff" stroke="#ffffff" xlink:href="#b"/>
</g>
<g clip-path="url(#a)">
<use x="218.643894" y="839.086073" fill="#ffffff" stroke="#ffffff" xlink:href="#b"/>
</g>
<g clip-path="url(#a)">
<use x="266.132825" y="839.086073" fill="#ffffff" stroke="#ffffff" xlink:href="#b"/>
</g>
<g clip-path="url(#a)">
<use x="313.621756" y="839.086073" fill="#ffffff" stroke="#ffffff" xlink:href="#b"/>
</g>
<g clip-path="url(#a)">
<use x="361.110688" y="839.086073" fill="#ffffff" stroke="#ffffff" xlink:href="#b"/>
</g>
<g clip-path="url(#a)">
<use x="408.599619" y="839.086073" fill="#ffffff" stroke="#ffffff" xlink:href="#b"/>
</g>
<g clip-path="url(#a)">
<use x="456.08855" y="839.086073" fill="#ffffff" stroke="#ffffff" xlink:href="#b"/>
</g>
<g clip-path="url(#a)">
<use x="503.577481" y="839.086073" fill="#ffffff" stroke="#ffffff" xlink:href="#b"/>
</g>
<g clip-path="url(#a)">
<use x="551.066413" y="839.086073" fill="#ffffff" stroke="#ffffff" xlink:href="#b"/>
</g>
<g clip-path="url(#a)">
<use x="598.555344" y="839.086073" fill="#ffffff" stroke="#ffffff" xlink:href="#b"/>
</g>
<g clip-path="url(#a)">
<use x="646.044275" y="839.086073" fill="#ffffff" stroke="#ffffff" xlink:href="#b"/>
</g>
<g clip-path="url(#a)">
<use x="693.533206" y="839.086073" fill="#ffffff" stroke="#ffffff" xlink:href="#b"/>
</g>
<g clip-path="url(#a)">
<use x="741.022138" y="839.086073" fill="#ffffff" stroke="#ffffff" xlink:href="#b"/>
</g>
<g clip-path="url(#a)">
<use x="788.511069" y="839.086073" fill="#ffffff" stroke="#ffffff" xlink:href="#b"/>
</g>
<g clip-path="url(#a)">
<use x="836" y="839.086073" fill="#ffffff" stroke="#ffffff" xlink:href="#b"/>
</g>
<g clip-path="url(#a)">
<use x="883.488931" y="839.086073" fill="#ffffff" stroke="#ffffff" xlink:href="#b"/>
</g>
<g clip-path="url(#a)">
<use x="930.977862" y="839.086073" fill="#ffffff" stroke="#ffffff" xlink:href="#b"/>
</g>
<g clip-path="url(#a)">
<use x="978.466794" y="839.086073" fill="#ffffff" stroke="#ffffff" xlink:href="#b"/>
</g>
<g clip-path="url(#a)">
<use x="1025.955725" y="839.086073" fill="#ffffff" stroke="#ffffff" xlink:href="#b"/>
</g>
<g clip-path="url(#a)">
<use x="1073.444656" y="839.086073" fill="#ffffff" stroke="#ffffff" xlink:href="#b"/>
</g>
<g clip-path="url(#a)">
<use x="1120.933587" y="839.086073" fill="#ffffff" stroke="#ffffff" xlink:href="#b"/>
</g>
<g clip-path="url(#a)">
<use x="1168.422519" y="839.086073" fill="#ffffff" stroke="#ffffff" xlink:href="#b"/>
</g>
<g clip-path="url(#a)">
<use x="1215.91145" y="839.086073" fill="#ffffff" stroke="#ffffff" xlink:href="#b"/>
</g>
<g clip-path="url(#a)">
<use x="1263.400381" y="839.086073" fill="#ffffff" stroke="#ffffff" xlink:href="#b"/>
</g>
<g clip-path="url(#a)">
<use x="1310.889312" y="839.086073" fill="#ffffff" stroke="#ffffff" xlink:href="#b"/>
</g>
<g clip-path="url(#a)">
<use x="1358.378244" y="839.086073" fill="#ffffff" stroke="#ffffff" xlink:href="#b"/>
</g>
<g clip-path="url(#a)">
<use x="1405.867175" y="839.086073" fill="#ffffff" stroke="#ffffff" xlink:href="#b"/>
</g>
<g clip-path="url(#a)">
<use x="1453.356106" y="839.086073" fill="#ffffff" stroke="#ffffff" xlink:href="#b"/>
</g>
<g clip-path="url(#a)">
<use x="1500.845037" y="839.086073" fill="#ffffff" stroke="#ffffff" xlink:href="#b"/>
</g>
<g clip-path="url(#a)">
<use x="1548.333968" y="839.086073" fill="#ffffff" stroke="#ffffff" xlink:href="#b"/>
</g>
<g clip-path="url(#a)">
<use x="1595.8229" y="839.086073" fill="#ffffff" stroke="#ffffff" xlink:href="#b"/>
</g>
<g clip-path="url(#a)">
<use x="687.201349" y="40.913927" fill="#ffffff" stroke="#ffffff" xlink:href="#b"/>
</g>
<g clip-path="url(#a)">
<use x="76.1771" y="710.103449" fill="#ffffff" stroke="#ffffff" xlink:href="#b"/>
</g>
<g clip-path="url(#a)">
<use x="384.855153" y="450.343911" fill="#ffffff" stroke="#ffffff" xlink:href="#b"/>
</g>
<g clip-path="url(#a)">
<use x="693.533206" y="710.103449" fill="#ffffff" stroke="#ffffff" xlink:href="#b"/>
</g>
<g clip-path="url(#a)">
<use x="840.748893" y="180.716507" fill="#ffffff" stroke="#ffffff" xlink:href="#b"/>
</g>
<g clip-path="url(#a)">
<use x="1310.889312" y="710.103449" fill="#ffffff" stroke="#ffffff" xlink:href="#b"/>
</g>
<g clip-path="url(#a)">
<use x="1421.696819" y="450.343911" fill="#ffffff" stroke="#ffffff" xlink:href="#b"/>
</g>
<g clip-path="url(#a)">
<use x="1358.378244" y="710.103449" fill="#ffffff" stroke="#ffffff" xlink:href="#b"/>
</g>
<g clip-path="url(#a)">
<use x="1429.61164" y="710.103449" fill="#ffffff" stroke="#ffffff" xlink:href="#b"/>
</g>
<g clip-path="url(#a)">
<use x="1500.845037" y="710.103449" fill="#ffffff" stroke="#ffffff" xlink:href="#b"/>
</g>
<g clip-path="url(#a)">
<use x="1548.333968" y="710.103449" fill="#ffffff" stroke="#ffffff" xlink:href="#b"/>
</g>
<g clip-path="url(#a)">
<use x="741.022138" y="710.103449" fill="#ffffff" stroke="#ffffff" xlink:href="#b"/>
</g>
<g clip-path="url(#a)">
<use x="788.511069" y="710.103449" fill="#ffffff" stroke="#ffffff" xlink:href="#b"/>
</g>
<g clip-path="url(#a)">
<use x="836" y="710.103449" fill="#ffffff" stroke="#ffffff" xlink:href="#b"/>
</g>
<g clip-path="url(#a)">
<use x="997.462366" y="317.048789" fill="#ffffff" stroke="#ffffff" xlink:href="#b"/>
</g>
<g clip-path="url(#a)">
<use x="883.488931" y="710.103449" fill="#ffffff" stroke="#ffffff" xlink:href="#b"/>
</g>
<g clip-path="url(#a)">
<use x="930.977862" y="710.103449" fill="#ffffff" stroke="#ffffff" xlink:href="#b"/>
</g>
<g clip-path="url(#a)">
<use x="978.466794" y="710.103449" fill="#ffffff" stroke="#ffffff" xlink:href="#b"/>
</g>
<g clip-path="url(#a)">
<use x="1025.955725" y="710.103449" fill="#ffffff" stroke="#ffffff" xlink:href="#b"/>
</g>
<g clip-path="url(#a)">
<use x="1168.422519" y="450.343911" fill="#ffffff" stroke="#ffffff" xlink:href="#b"/>
</g>
<g clip-path="url(#a)">
<use x="1097.189122" y="581.120825" fill="#ffffff" stroke="#ffffff" xlink:href="#b"/>
</g>
<g clip-path="url(#a)">
<use x="1168.422519" y="710.103449" fill="#ffffff" stroke="#ffffff" xlink:href="#b"/>
</g>
<g clip-path="url(#a)">
<use x="1239.655915" y="581.120825" fill="#ffffff" stroke="#ffffff" xlink:href="#b"/>
</g>
<g clip-path="url(#a)">
<use x="1215.91145" y="710.103449" fill="#ffffff" stroke="#ffffff" xlink:href="#b"/>
</g>
<g clip-path="url(#a)">
<use x="1263.400381" y="710.103449" fill="#ffffff" stroke="#ffffff" xlink:href="#b"/>
</g>
<g clip-path="url(#a)">
<use x="1097.189122" y="710.103449" fill="#ffffff" stroke="#ffffff" xlink:href="#b"/>
</g>
<g clip-path="url(#a)">
<use x="218.643894" y="581.120825" fill="#ffffff" stroke="#ffffff" xlink:href="#b"/>
</g>
<g clip-path="url(#a)">
<use x="313.621756" y="710.103449" fill="#ffffff" stroke="#ffffff" xlink:href="#b"/>
</g>
<g clip-path="url(#a)">
<use x="361.110688" y="710.103449" fill="#ffffff" stroke="#ffffff" xlink:href="#b"/>
</g>
<g clip-path="url(#a)">
<use x="408.599619" y="710.103449" fill="#ffffff" stroke="#ffffff" xlink:href="#b"/>
</g>
<g clip-path="url(#a)">
<use x="456.08855" y="710.103449" fill="#ffffff" stroke="#ffffff" xlink:href="#b"/>
</g>
<g clip-path="url(#a)">
<use x="551.066413" y="581.120825" fill="#ffffff" stroke="#ffffff" xlink:href="#b"/>
</g>
<g clip-path="url(#a)">
<use x="503.577481" y="710.103449" fill="#ffffff" stroke="#ffffff" xlink:href="#b"/>
</g>
<g clip-path="url(#a)">
<use x="551.066413" y="710.103449" fill="#ffffff" stroke="#ffffff" xlink:href="#b"/>
</g>
<g clip-path="url(#a)">
<use x="598.555344" y="710.103449" fill="#ffffff" stroke="#ffffff" xlink:href="#b"/>
</g>
<g clip-path="url(#a)">
<use x="171.154963" y="710.103449" fill="#ffffff" stroke="#ffffff" xlink:href="#b"/>
</g>
<g clip-path="url(#a)">
<use x="218.643894" y="710.103449" fill="#ffffff" stroke="#ffffff" xlink:href="#b"/>
</g>
<g clip-path="url(#a)">
<use x="266.132825" y="710.103449" fill="#ffffff" stroke="#ffffff" xlink:href="#b"/>
</g>
<g clip-path="url(#a)">
<use x="123.666032" y="710.103449" fill="#ffffff" stroke="#ffffff" xlink:href="#b"/>
</g>
<g clip-path="url(#a)">
<use x="646.044275" y="710.103449" fill="#ffffff" stroke="#ffffff" xlink:href="#b"/>
</g>
<g clip-path="url(#a)">
<use x="1595.8229" y="710.103449" fill="#ffffff" stroke="#ffffff" xlink:href="#b"/>
</g>
<g clip-path="url(#a)">
<defs>
<path id="t" d="m44.281 53.078v-8.5q-3.7969 1.9531-7.9062 2.9219-4.0938 0.98438-8.5 0.98438-6.6875 0-10.031-2.0469t-3.3438-6.1562q0-3.125 2.3906-4.9062t9.625-3.3906l3.0781-0.6875q9.5625-2.0469 13.594-5.7812t4.0312-10.422q0-7.625-6.0312-12.078-6.0312-4.4375-16.578-4.4375-4.3906 0-9.1562 0.85938t-10.031 2.5625v9.2812q4.9844-2.5938 9.8125-3.8906 4.8281-1.2812 9.5781-1.2812 6.3438 0 9.75 2.1719 3.4219 2.1719 3.4219 6.125 0 3.6562-2.4688 5.6094-2.4531 1.9531-10.812 3.7656l-3.125 0.73438q-8.3438 1.75-12.062 5.3906-3.7031 3.6406-3.7031 9.9844 0 7.7188 5.4688 11.906 5.4688 4.2031 15.531 4.2031 4.9688 0 9.3594-0.73438 4.4062-0.71875 8.1094-2.1875z"/>
<path id="o" d="m18.312 70.219v-15.531h18.5v-6.9844h-18.5v-29.688q0-6.6875 1.8281-8.5938t7.4531-1.9062h9.2188v-7.5156h-9.2188q-10.406 0-14.359 3.875-3.9531 3.8906-3.9531 14.141v29.688h-6.5938v6.9844h6.5938v15.531z"/>
<path id="w" d="m32.172-5.0781q-3.7969-9.7656-7.4219-12.734-3.6094-2.9844-9.6562-2.9844h-7.1875v7.5156h5.2812q3.7031 0 5.75 1.7656 2.0625 1.75 4.5469 8.2969l1.6094 4.0938-22.109 53.812h9.5156l17.094-42.766 17.094 42.766h9.5156z"/>
</defs>
<g transform="translate(60.949 841.85) scale(.1 -.1)">
<use xlink:href="#v"/>
<use x="57.410156" xlink:href="#h"/>
<use x="85.193359" xlink:href="#d"/>
<use x="126.306641" xlink:href="#t"/>
<use x="178.40625" xlink:href="#o"/>
<use x="217.615234" xlink:href="#j"/>
<use x="245.398438" xlink:href="#w"/>
</g>
</g>
<g clip-path="url(#a)">
<defs>
<path id="ap" d="m11.719 12.406h10.297v-8.4062l-8-15.625h-6.2969l4 15.625z"/>
</defs>
<g transform="translate(122.08 841.85) scale(.1 -.1)">
<use xlink:href="#ap"/>
</g>
</g>
<g clip-path="url(#a)">
<defs>
<path id="q" d="m54.891 33.016v-33.016h-8.9844v32.719q0 7.7656-3.0312 11.609-3.0312 3.8594-9.0781 3.8594-7.2812 0-11.484-4.6406-4.2031-4.625-4.2031-12.641v-30.906h-9.0312v75.984h9.0312v-29.797q3.2344 4.9375 7.5938 7.375 4.375 2.4375 10.094 2.4375 9.4219 0 14.25-5.8281 4.8438-5.8281 4.8438-17.156z"/>
</defs>
<g transform="translate(162.95 841.85) scale(.1 -.1)">
<use xlink:href="#o"/>
<use x="39.208984" xlink:href="#q"/>
<use x="102.587891" xlink:href="#e"/>
</g>
</g>
<g clip-path="url(#a)">
<defs>
<path id="u" d="m30.609 48.391q-7.2188 0-11.422-5.6406t-4.2031-15.453 4.1719-15.453q4.1875-5.6406 11.453-5.6406 7.1875 0 11.375 5.6562 4.2031 5.6719 4.2031 15.438 0 9.7188-4.2031 15.406-4.1875 5.6875-11.375 5.6875zm0 7.6094q11.719 0 18.406-7.625 6.7031-7.6094 6.7031-21.078 0-13.422-6.7031-21.078-6.6875-7.6406-18.406-7.6406-11.766 0-18.438 7.6406-6.6562 7.6562-6.6562 21.078 0 13.469 6.6562 21.078 6.6719 7.625 18.438 7.625z"/>
</defs>
<g transform="translate(205.32 841.85) scale(.1 -.1)">
<use xlink:href="#u"/>
<use x="61.181641" xlink:href="#o"/>
<use x="100.390625" xlink:href="#q"/>
<use x="163.769531" xlink:href="#e"/>
<use x="225.292969" xlink:href="#d"/>
</g>
</g>
<g clip-path="url(#a)">
<defs>
<path id="aq" d="m2.9844 54.688h9.5156l17.094-45.891 17.094 45.891h9.5156l-20.516-54.688h-12.203z"/>
<path id="ac" d="m4.2031 54.688h8.9844l11.234-42.672 11.172 42.672h10.594l11.234-42.672 11.188 42.672h8.9844l-14.312-54.688h-10.594l-11.766 44.828-11.812-44.828h-10.609z"/>
</defs>
<g transform="translate(244.36 841.85) scale(.1 -.1)">
<use xlink:href="#d"/>
<use x="41.082031" xlink:href="#e"/>
<use x="102.605469" xlink:href="#aq"/>
<use x="161.785156" xlink:href="#h"/>
<use x="189.568359" xlink:href="#e"/>
<use x="251.091797" xlink:href="#ac"/>
<use x="332.878906" xlink:href="#e"/>
<use x="394.402344" xlink:href="#d"/>
</g>
</g>
<g clip-path="url(#a)">
<defs>
<path id="s" d="m48.781 52.594v-8.4062q-3.8125 2.1094-7.6406 3.1562t-7.7344 1.0469q-8.75 0-13.594-5.5469-4.8281-5.5312-4.8281-15.547t4.8281-15.562q4.8438-5.5312 13.594-5.5312 3.9062 0 7.7344 1.0469t7.6406 3.1562v-8.3125q-3.7656-1.75-7.7969-2.625-4.0156-0.89062-8.5625-0.89062-12.359 0-19.641 7.7656-7.2656 7.7656-7.2656 20.953 0 13.375 7.3438 21.031 7.3594 7.6719 20.156 7.6719 4.1406 0 8.0938-0.85938 3.9531-0.84375 7.6719-2.5469z"/>
</defs>
<g transform="translate(296.94 841.85) scale(.1 -.1)">
<use xlink:href="#s"/>
<use x="54.980469" xlink:href="#j"/>
<use x="82.763672" xlink:href="#e"/>
<use x="144.287109" xlink:href="#g"/>
<use x="205.566406" xlink:href="#d"/>
<use x="246.679688" xlink:href="#j"/>
<use x="274.462891" xlink:href="#w"/>
</g>
</g>
<g clip-path="url(#a)">
<g transform="translate(352.27 841.85) scale(.1 -.1)">
<use xlink:href="#q"/>
<use x="63.378906" xlink:href="#g"/>
<use x="124.658203" xlink:href="#t"/>
</g>
</g>
<g clip-path="url(#a)">
<g transform="translate(394.26 841.85) scale(.1 -.1)">
<use xlink:href="#i"/>
<use x="63.378906" xlink:href="#e"/>
<use x="124.902344" xlink:href="#aq"/>
<use x="184.082031" xlink:href="#e"/>
<use x="245.605469" xlink:href="#d"/>
</g>
</g>
<g clip-path="url(#a)">
<defs>
<path id="ar" d="m48.688 27.297q0 9.9062-4.0781 15.547t-11.203 5.6406q-7.1406 0-11.219-5.6406t-4.0781-15.547 4.0781-15.547 11.219-5.6406q7.125 0 11.203 5.6406t4.0781 15.547zm-30.578 19.094q2.8438 4.875 7.1562 7.2344 4.3281 2.375 10.328 2.375 9.9688 0 16.188-7.9062 6.2344-7.9062 6.2344-20.797t-6.2344-20.812q-6.2188-7.9062-16.188-7.9062-6 0-10.328 2.375-4.3125 2.375-7.1562 7.25v-8.2031h-9.0312v75.984h9.0312z"/>
</defs>
<g transform="translate(443.59 841.85) scale(.1 -.1)">
<use xlink:href="#ar"/>
<use x="63.476562" xlink:href="#e"/>
<use x="125" xlink:href="#e"/>
<use x="186.523438" xlink:href="#i"/>
</g>
</g>
<g clip-path="url(#a)">
<g transform="translate(498.56 841.85) scale(.1 -.1)">
<use xlink:href="#o"/>
<use x="39.208984" xlink:href="#u"/>
</g>
</g>
<g clip-path="url(#a)">
<defs>
<path id="ao" d="m9.8125 72.906h13.281l32.328-60.984v60.984h9.5625v-72.906h-13.281l-32.312 60.984v-60.984h-9.5781z"/>
<path id="an" d="m9.0781 75.984h9.0312v-44.875l26.812 23.578h11.469l-29-25.578 30.234-29.109h-11.719l-27.797 26.703v-26.703h-9.0312z"/>
</defs>
<g transform="translate(540.29 841.85) scale(.1 -.1)">
<use xlink:href="#ao"/>
<use x="74.804688" xlink:href="#h"/>
<use x="102.587891" xlink:href="#s"/>
<use x="157.568359" xlink:href="#an"/>
</g>
</g>
<g clip-path="url(#a)">
<defs>
<path id="aw" d="m17.922 72.906v-27.109h-8.2969v27.109z"/>
</defs>
<g transform="translate(594.58 841.85) scale(.1 -.1)">
<use xlink:href="#aw"/>
<use x="27.490234" xlink:href="#t"/>
</g>
</g>
<g clip-path="url(#a)">
<g transform="translate(644.46 841.85) scale(.1 -.1)">
<use xlink:href="#ap"/>
</g>
</g>
<g clip-path="url(#a)">
<g transform="translate(688.42 841.85) scale(.1 -.1)">
<use xlink:href="#u"/>
<use x="61.181641" xlink:href="#d"/>
</g>
</g>
<g clip-path="url(#a)">
<g transform="translate(734.78 841.85) scale(.1 -.1)">
<use xlink:href="#q"/>
<use x="63.378906" xlink:href="#e"/>
</g>
</g>
<g clip-path="url(#a)">
<defs>
<path id="ad" d="m8.5 21.578v33.109h8.9844v-32.766q0-7.7656 3.0156-11.656 3.0312-3.875 9.0938-3.875 7.2656 0 11.484 4.6406 4.2344 4.6406 4.2344 12.656v31h8.9844v-54.688h-8.9844v8.4062q-3.2656-4.9844-7.5938-7.4062-4.3125-2.4219-10.031-2.4219-9.4219 0-14.312 5.8594-4.875 5.8594-4.875 17.141z"/>
<path id="ae" d="m45.406 46.391v29.594h8.9844v-75.984h-8.9844v8.2031q-2.8281-4.875-7.1562-7.25-4.3125-2.375-10.375-2.375-9.9062 0-16.141 7.9062-6.2188 7.9219-6.2188 20.812t6.2188 20.797q6.2344 7.9062 16.141 7.9062 6.0625 0 10.375-2.375 4.3281-2.3594 7.1562-7.2344zm-30.609-19.094q0-9.9062 4.0781-15.547t11.203-5.6406 11.219 5.6406q4.1094 5.6406 4.1094 15.547t-4.1094 15.547q-4.0938 5.6406-11.219 5.6406t-11.203-5.6406-4.0781-15.547z"/>
</defs>
<g transform="translate(773.63 841.85) scale(.1 -.1)">
<use xlink:href="#ac"/>
<use x="81.787109" xlink:href="#u"/>
<use x="142.96875" xlink:href="#ad"/>
<use x="206.347656" xlink:href="#j"/>
<use x="234.130859" xlink:href="#ae"/>
</g>
</g>
<g clip-path="url(#a)">
<g transform="translate(822.79 841.85) scale(.1 -.1)">
<use xlink:href="#an"/>
<use x="57.910156" xlink:href="#i"/>
<use x="121.289062" xlink:href="#u"/>
<use x="182.470703" xlink:href="#ac"/>
</g>
</g>
<g clip-path="url(#a)">
<g transform="translate(873.34 841.85) scale(.1 -.1)">
<use xlink:href="#o"/>
<use x="39.208984" xlink:href="#q"/>
<use x="102.587891" xlink:href="#g"/>
<use x="163.867188" xlink:href="#o"/>
</g>
</g>
<g clip-path="url(#a)">
<g transform="translate(920.2 841.85) scale(.1 -.1)">
<use xlink:href="#ao"/>
<use x="74.804688" xlink:href="#h"/>
<use x="102.587891" xlink:href="#s"/>
<use x="157.568359" xlink:href="#an"/>
</g>
</g>
<g clip-path="url(#a)">
<g transform="translate(967.89 841.85) scale(.1 -.1)">
<use xlink:href="#u"/>
<use x="61.181641" xlink:href="#i"/>
<use x="124.560547" xlink:href="#j"/>
<use x="152.34375" xlink:href="#w"/>
</g>
</g>
<g clip-path="url(#a)">
<defs>
<path id="az" d="m45.406 27.984q0 9.7656-4.0312 15.125-4.0156 5.375-11.297 5.375-7.2188 0-11.25-5.375-4.0312-5.3594-4.0312-15.125 0-9.7188 4.0312-15.094t11.25-5.375q7.2812 0 11.297 5.375 4.0312 5.375 4.0312 15.094zm8.9844-21.203q0-13.953-6.2031-20.766-6.1875-6.8125-18.984-6.8125-4.7344 0-8.9375 0.70312t-8.1562 2.1719v8.7344q3.9531-2.1406 7.8125-3.1562 3.8594-1.0312 7.8594-1.0312 8.8438 0 13.234 4.6094t4.3906 13.938v4.4531q-2.7812-4.8438-7.125-7.2344t-10.406-2.3906q-10.047 0-16.203 7.6562-6.1562 7.6719-6.1562 20.328 0 12.688 6.1562 20.344 6.1562 7.6719 16.203 7.6719 6.0625 0 10.406-2.3906t7.125-7.2188v8.2969h8.9844z"/>
</defs>
<g transform="translate(1006.1 841.85) scale(.1 -.1)">
<use xlink:href="#s"/>
<use x="54.980469" xlink:href="#q"/>
<use x="118.359375" xlink:href="#g"/>
<use x="179.638672" xlink:href="#d"/>
<use x="220.736328" xlink:href="#az"/>
<use x="284.212891" xlink:href="#e"/>
<use x="345.736328" xlink:href="#t"/>
</g>
</g>
<g clip-path="url(#a)">
<defs>
<path id="ax" d="m33.797-14.703h-4.8906l-0.046875 14.703q-5.125 0.09375-10.25 1.1875-5.125 1.1094-10.312 3.3125v8.7812q4.9844-3.125 10.078-4.7188 5.1094-1.5781 10.531-1.625v22.266q-10.797 1.75-15.703 5.9531t-4.9062 11.531q0 7.9531 5.3281 12.531 5.3281 4.5938 15.281 5.2812v11.484h4.8906v-11.328q4.5312-0.20312 8.7812-0.96875 4.25-0.75 8.2969-2.0625v-8.5469q-4.0469 2.0469-8.3281 3.1719-4.2656 1.125-8.75 1.3125v-20.844q11.078-1.7031 16.297-6.1094 5.2344-4.3906 5.2344-12 0-8.25-5.5469-13.016t-15.984-5.5zm-4.8906 52.297v20.031q-5.6562-0.64062-8.6406-3.2344-2.9844-2.5781-2.9844-6.875 0-4.2031 2.75-6.5469 2.7656-2.3438 8.875-3.375zm4.8906-9.375v-21.141q6.1875 0.82812 9.3438 3.5156t3.1562 7.0781q0 4.2969-3.0156 6.8281-3 2.5469-9.4844 3.7188z"/>
</defs>
<g transform="translate(1070.3 841.85) scale(.1 -.1)">
<use xlink:href="#ax"/>
</g>
</g>
<g clip-path="url(#a)">
<defs>
<path id="c" d="m12.406 8.2969h16.109v55.625l-17.531-3.5156v8.9844l17.438 3.5156h9.8594v-64.609h16.109v-8.2969h-41.984z"/>
<path id="m" d="m40.578 39.312q7.0781-1.5156 11.047-6.3125 3.9844-4.7812 3.9844-11.812 0-10.781-7.4219-16.703-7.4219-5.9062-21.094-5.9062-4.5781 0-9.4375 0.90625t-10.031 2.7188v9.5156q4.0938-2.3906 8.9688-3.6094 4.8906-1.2188 10.219-1.2188 9.2656 0 14.125 3.6562t4.8594 10.641q0 6.4531-4.5156 10.078-4.5156 3.6406-12.562 3.6406h-8.5v8.1094h8.8906q7.2656 0 11.125 2.9062t3.8594 8.375q0 5.6094-3.9844 8.6094-3.9688 3.0156-11.391 3.0156-4.0625 0-8.7031-0.89062-4.6406-0.875-10.203-2.7188v8.7812q5.625 1.5625 10.531 2.3438t9.25 0.78125q11.234 0 17.766-5.1094 6.5469-5.0938 6.5469-13.781 0-6.0625-3.4688-10.234t-9.8594-5.7812z"/>
</defs>
<g transform="translate(1114.6 841.85) scale(.1 -.1)">
<use xlink:href="#c"/>
<use x="63.623047" xlink:href="#m"/>
</g>
</g>
<g clip-path="url(#a)">
<defs>
<path id="ba" d="m37.109 75.984v-7.4844h-8.5938q-4.8281 0-6.7188-1.9531-1.875-1.9531-1.875-7.0312v-4.8281h14.797v-6.9844h-14.797v-47.703h-9.0312v47.703h-8.5938v6.9844h8.5938v3.8125q0 9.125 4.25 13.297 4.25 4.1875 13.469 4.1875z"/>
</defs>
<g transform="translate(1161.5 841.85) scale(.1 -.1)">
<use xlink:href="#ba"/>
<use x="35.205078" xlink:href="#u"/>
<use x="96.386719" xlink:href="#d"/>
</g>
</g>
<g clip-path="url(#a)">
<g transform="translate(1212.8 841.85) scale(.1 -.1)">
<use xlink:href="#g"/>
</g>
</g>
<g clip-path="url(#a)">
<g transform="translate(1245.8 841.85) scale(.1 -.1)">
<use xlink:href="#q"/>
<use x="63.378906" xlink:href="#g"/>
<use x="124.658203" xlink:href="#h"/>
<use x="152.441406" xlink:href="#d"/>
<use x="193.523438" xlink:href="#s"/>
<use x="248.503906" xlink:href="#ad"/>
<use x="311.882812" xlink:href="#o"/>
</g>
</g>
<g clip-path="url(#a)">
<g transform="translate(1296.3 841.85) scale(.1 -.1)">
<use xlink:href="#ac"/>
<use x="81.787109" xlink:href="#q"/>
<use x="145.166016" xlink:href="#h"/>
<use x="172.949219" xlink:href="#s"/>
<use x="227.929688" xlink:href="#q"/>
</g>
</g>
<g clip-path="url(#a)">
<g transform="translate(1354.4 841.85) scale(.1 -.1)">
<use xlink:href="#h"/>
<use x="27.783203" xlink:href="#t"/>
</g>
</g>
<g clip-path="url(#a)">
<defs>
<path id="ay" d="m18.109 8.2031v-29h-9.0312v75.484h9.0312v-8.2969q2.8438 4.875 7.1562 7.2344 4.3281 2.375 10.328 2.375 9.9688 0 16.188-7.9062 6.2344-7.9062 6.2344-20.797t-6.2344-20.812q-6.2188-7.9062-16.188-7.9062-6 0-10.328 2.375-4.3125 2.375-7.1562 7.25zm30.578 19.094q0 9.9062-4.0781 15.547t-11.203 5.6406q-7.1406 0-11.219-5.6406t-4.0781-15.547 4.0781-15.547 11.219-5.6406q7.125 0 11.203 5.6406t4.0781 15.547z"/>
</defs>
<g transform="translate(1390.7 841.85) scale(.1 -.1)">
<use xlink:href="#ay"/>
<use x="63.476562" xlink:href="#d"/>
<use x="104.558594" xlink:href="#e"/>
<use x="166.082031" xlink:href="#o"/>
<use x="205.291016" xlink:href="#o"/>
<use x="244.5" xlink:href="#w"/>
</g>
</g>
<g clip-path="url(#a)">
<g transform="translate(1439.4 841.85) scale(.1 -.1)">
<use xlink:href="#k"/>
<use x="97.412109" xlink:href="#ad"/>
<use x="160.791016" xlink:href="#s"/>
<use x="215.771484" xlink:href="#q"/>
</g>
</g>
<g clip-path="url(#a)">
<g transform="translate(1480.4 841.85) scale(.1 -.1)">
<use xlink:href="#h"/>
<use x="27.783203" xlink:href="#i"/>
<use x="91.162109" xlink:href="#ae"/>
<use x="154.638672" xlink:href="#ad"/>
<use x="218.017578" xlink:href="#t"/>
<use x="270.117188" xlink:href="#o"/>
<use x="309.326172" xlink:href="#d"/>
<use x="350.439453" xlink:href="#w"/>
</g>
</g>
<g clip-path="url(#a)">
<g transform="translate(1526.1 841.85) scale(.1 -.1)">
<use xlink:href="#t"/>
<use x="52.099609" xlink:href="#o"/>
<use x="91.308594" xlink:href="#g"/>
<use x="152.587891" xlink:href="#i"/>
<use x="215.966797" xlink:href="#ae"/>
<use x="279.443359" xlink:href="#g"/>
<use x="340.722656" xlink:href="#d"/>
<use x="381.820312" xlink:href="#ae"/>
</g>
</g>
<g clip-path="url(#a)">
<defs>
<path id="f" d="m10.688 12.406h10.312v-12.406h-10.312z"/>
</defs>
<g transform="translate(1594.2 841.85) scale(.1 -.1)">
<use xlink:href="#f"/>
</g>
</g>
<g clip-path="url(#a)">
<g transform="translate(679.25 43.673) scale(.1 -.1)">
<use xlink:href="#c"/>
<use x="63.623047" xlink:href="#f"/>
<use x="95.410156" xlink:href="#c"/>
</g>
</g>
<g clip-path="url(#a)">
<defs>
<path id="n" d="m19.188 8.2969h34.422v-8.2969h-46.281v8.2969q5.6094 5.8125 15.297 15.594 9.7031 9.7969 12.188 12.641 4.7344 5.3125 6.6094 9 1.8906 3.6875 1.8906 7.25 0 5.8125-4.0781 9.4688-4.0781 3.6719-10.625 3.6719-4.6406 0-9.7969-1.6094-5.1406-1.6094-11-4.8906v9.9688q5.9531 2.3906 11.125 3.6094 5.1875 1.2188 9.4844 1.2188 11.328 0 18.062-5.6719 6.7344-5.6562 6.7344-15.125 0-4.5-1.6875-8.5312-1.6719-4.0156-6.125-9.4844-1.2188-1.4219-7.7656-8.1875-6.5312-6.7656-18.453-18.922z"/>
</defs>
<g transform="translate(68.226 712.86) scale(.1 -.1)">
<use xlink:href="#c"/>
<use x="63.623047" xlink:href="#f"/>
<use x="95.410156" xlink:href="#n"/>
</g>
</g>
<g clip-path="url(#a)">
<g transform="translate(376.9 453.1) scale(.1 -.1)">
<use xlink:href="#c"/>
<use x="63.623047" xlink:href="#f"/>
<use x="95.410156" xlink:href="#m"/>
</g>
</g>
<g clip-path="url(#a)">
<defs>
<path id="p" d="m37.797 64.312-24.906-38.922h24.906zm-2.5938 8.5938h12.406v-47.516h10.406v-8.2031h-10.406v-17.188h-9.8125v17.188h-32.906v9.5156z"/>
</defs>
<g transform="translate(685.58 712.86) scale(.1 -.1)">
<use xlink:href="#c"/>
<use x="63.623047" xlink:href="#f"/>
<use x="95.410156" xlink:href="#p"/>
</g>
</g>
<g clip-path="url(#a)">
<defs>
<path id="ab" d="m10.797 72.906h38.719v-8.3125h-29.688v-17.859q2.1406 0.73438 4.2812 1.0938 2.1562 0.35938 4.3125 0.35938 12.203 0 19.328-6.6875 7.1406-6.6875 7.1406-18.109 0-11.766-7.3281-18.297-7.3281-6.5156-20.656-6.5156-4.5938 0-9.3594 0.78125-4.75 0.78125-9.8281 2.3438v9.9219q4.3906-2.3906 9.0781-3.5625t9.9062-1.1719q8.4531 0 13.375 4.4375 4.9375 4.4375 4.9375 12.062 0 7.6094-4.9375 12.047-4.9219 4.4531-13.375 4.4531-3.9531 0-7.8906-0.875-3.9219-0.875-8.0156-2.7344z"/>
</defs>
<g transform="translate(832.8 183.48) scale(.1 -.1)">
<use xlink:href="#c"/>
<use x="63.623047" xlink:href="#f"/>
<use x="95.410156" xlink:href="#ab"/>
</g>
</g>
<g clip-path="url(#a)">
<defs>
<path id="aa" d="m33.016 40.375q-6.6406 0-10.531-4.5469-3.875-4.5312-3.875-12.438 0-7.8594 3.875-12.438 3.8906-4.5625 10.531-4.5625t10.516 4.5625q3.875 4.5781 3.875 12.438 0 7.9062-3.875 12.438-3.875 4.5469-10.516 4.5469zm19.578 30.922v-8.9844q-3.7188 1.75-7.5 2.6719-3.7812 0.9375-7.5 0.9375-9.7656 0-14.922-6.5938-5.1406-6.5938-5.875-19.922 2.875 4.25 7.2188 6.5156 4.3594 2.2656 9.5781 2.2656 10.984 0 17.359-6.6719 6.375-6.6562 6.375-18.125 0-11.234-6.6406-18.031-6.6406-6.7812-17.672-6.7812-12.656 0-19.344 9.6875-6.6875 9.7031-6.6875 28.109 0 17.281 8.2031 27.562t22.016 10.281q3.7188 0 7.5-0.73438t7.8906-2.1875z"/>
</defs>
<g transform="translate(1302.9 712.86) scale(.1 -.1)">
<use xlink:href="#c"/>
<use x="63.623047" xlink:href="#f"/>
<use x="95.410156" xlink:href="#aa"/>
</g>
</g>
<g clip-path="url(#a)">
<defs>
<path id="z" d="m8.2031 72.906h46.875v-4.2031l-26.469-68.703h-10.297l24.906 64.594h-35.016z"/>
</defs>
<g transform="translate(1413.7 453.1) scale(.1 -.1)">
<use xlink:href="#c"/>
<use x="63.623047" xlink:href="#f"/>
<use x="95.410156" xlink:href="#z"/>
</g>
</g>
<g clip-path="url(#a)">
<g transform="translate(1347.2 712.86) scale(.1 -.1)">
<use xlink:href="#c"/>
<use x="63.623047" xlink:href="#f"/>
<use x="95.410156" xlink:href="#c"/>
<use x="159.033203" xlink:href="#c"/>
</g>
</g>
<g clip-path="url(#a)">
<g transform="translate(1418.5 712.86) scale(.1 -.1)">
<use xlink:href="#c"/>
<use x="63.623047" xlink:href="#f"/>
<use x="95.410156" xlink:href="#c"/>
<use x="159.033203" xlink:href="#n"/>
</g>
</g>
<g clip-path="url(#a)">
<g transform="translate(1489.7 712.86) scale(.1 -.1)">
<use xlink:href="#c"/>
<use x="63.623047" xlink:href="#f"/>
<use x="95.410156" xlink:href="#c"/>
<use x="159.033203" xlink:href="#m"/>
</g>
</g>
<g clip-path="url(#a)">
<g transform="translate(1537.2 712.86) scale(.1 -.1)">
<use xlink:href="#c"/>
<use x="63.623047" xlink:href="#f"/>
<use x="95.410156" xlink:href="#c"/>
<use x="159.033203" xlink:href="#p"/>
</g>
</g>
<g clip-path="url(#a)">
<g transform="translate(729.89 712.86) scale(.1 -.1)">
<use xlink:href="#c"/>
<use x="63.623047" xlink:href="#f"/>
<use x="95.410156" xlink:href="#c"/>
<use x="159.033203" xlink:href="#ab"/>
</g>
</g>
<g clip-path="url(#a)">
<g transform="translate(777.38 712.86) scale(.1 -.1)">
<use xlink:href="#c"/>
<use x="63.623047" xlink:href="#f"/>
<use x="95.410156" xlink:href="#c"/>
<use x="159.033203" xlink:href="#aa"/>
</g>
</g>
<g clip-path="url(#a)">
<g transform="translate(824.87 712.86) scale(.1 -.1)">
<use xlink:href="#c"/>
<use x="63.623047" xlink:href="#f"/>
<use x="95.410156" xlink:href="#c"/>
<use x="159.033203" xlink:href="#z"/>
</g>
</g>
<g clip-path="url(#a)">
<defs>
<path id="al" d="m31.781 34.625q-7.0312 0-11.062-3.7656-4.0156-3.7656-4.0156-10.344 0-6.5938 4.0156-10.359 4.0312-3.7656 11.062-3.7656t11.078 3.7812q4.0625 3.7969 4.0625 10.344 0 6.5781-4.0312 10.344-4.0156 3.7656-11.109 3.7656zm-9.8594 4.1875q-6.3438 1.5625-9.8906 5.9062-3.5312 4.3594-3.5312 10.609 0 8.7344 6.2188 13.812 6.2344 5.0781 17.062 5.0781 10.891 0 17.094-5.0781t6.2031-13.812q0-6.25-3.5469-10.609-3.5312-4.3438-9.8281-5.9062 7.125-1.6562 11.094-6.5 3.9844-4.8281 3.9844-11.797 0-10.609-6.4688-16.281-6.4688-5.6562-18.531-5.6562-12.047 0-18.531 5.6562-6.4688 5.6719-6.4688 16.281 0 6.9688 4 11.797 4.0156 4.8438 11.141 6.5zm-3.6094 15.578q0-5.6562 3.5312-8.8281 3.5469-3.1719 9.9375-3.1719 6.3594 0 9.9375 3.1719 3.5938 3.1719 3.5938 8.8281 0 5.6719-3.5938 8.8438-3.5781 3.1719-9.9375 3.1719-6.3906 0-9.9375-3.1719-3.5312-3.1719-3.5312-8.8438z"/>
</defs>
<g transform="translate(986.33 319.81) scale(.1 -.1)">
<use xlink:href="#c"/>
<use x="63.623047" xlink:href="#f"/>
<use x="95.410156" xlink:href="#c"/>
<use x="159.033203" xlink:href="#al"/>
</g>
</g>
<g clip-path="url(#a)">
<defs>
<path id="ak" d="m10.984 1.5156v8.9844q3.7188-1.7656 7.5156-2.6875 3.8125-0.92188 7.4844-0.92188 9.7656 0 14.906 6.5625 5.1562 6.5625 5.8906 19.953-2.8281-4.2031-7.1875-6.4531-4.3438-2.25-9.6094-2.25-10.938 0-17.312 6.6094-6.375 6.625-6.375 18.109 0 11.219 6.6406 18 6.6406 6.7969 17.672 6.7969 12.656 0 19.312-9.7031 6.6719-9.6875 6.6719-28.141 0-17.234-8.1875-27.516-8.1719-10.281-21.984-10.281-3.7188 0-7.5312 0.73438-3.7969 0.73438-7.9062 2.2031zm19.625 30.906q6.6406 0 10.516 4.5312 3.8906 4.5469 3.8906 12.469 0 7.8594-3.8906 12.422-3.875 4.5625-10.516 4.5625t-10.516-4.5625-3.875-12.422q0-7.9219 3.875-12.469 3.875-4.5312 10.516-4.5312z"/>
</defs>
<g transform="translate(872.36 712.86) scale(.1 -.1)">
<use xlink:href="#c"/>
<use x="63.623047" xlink:href="#f"/>
<use x="95.410156" xlink:href="#c"/>
<use x="159.033203" xlink:href="#ak"/>
</g>
</g>
<g clip-path="url(#a)">
<defs>
<path id="am" d="m31.781 66.406q-7.6094 0-11.453-7.5-3.8281-7.4844-3.8281-22.531 0-14.984 3.8281-22.484 3.8438-7.5 11.453-7.5 7.6719 0 11.5 7.5 3.8438 7.5 3.8438 22.484 0 15.047-3.8438 22.531-3.8281 7.5-11.5 7.5zm0 7.8125q12.266 0 18.734-9.7031 6.4688-9.6875 6.4688-28.141 0-18.406-6.4688-28.109-6.4688-9.6875-18.734-9.6875-12.25 0-18.719 9.6875-6.4688 9.7031-6.4688 28.109 0 18.453 6.4688 28.141 6.4688 9.7031 18.719 9.7031z"/>
</defs>
<g transform="translate(919.85 712.86) scale(.1 -.1)">
<use xlink:href="#c"/>
<use x="63.623047" xlink:href="#f"/>
<use x="95.410156" xlink:href="#n"/>
<use x="159.033203" xlink:href="#am"/>
</g>
</g>
<g clip-path="url(#a)">
<g transform="translate(967.33 712.86) scale(.1 -.1)">
<use xlink:href="#c"/>
<use x="63.623047" xlink:href="#f"/>
<use x="95.410156" xlink:href="#n"/>
<use x="159.033203" xlink:href="#c"/>
</g>
</g>
<g clip-path="url(#a)">
<g transform="translate(1014.8 712.86) scale(.1 -.1)">
<use xlink:href="#c"/>
<use x="63.623047" xlink:href="#f"/>
<use x="95.410156" xlink:href="#n"/>
<use x="159.033203" xlink:href="#n"/>
</g>
</g>
<g clip-path="url(#a)">
<g transform="translate(1157.3 453.1) scale(.1 -.1)">
<use xlink:href="#c"/>
<use x="63.623047" xlink:href="#f"/>
<use x="95.410156" xlink:href="#n"/>
<use x="159.033203" xlink:href="#m"/>
</g>
</g>
<g clip-path="url(#a)">
<g transform="translate(1086.1 583.88) scale(.1 -.1)">
<use xlink:href="#c"/>
<use x="63.623047" xlink:href="#f"/>
<use x="95.410156" xlink:href="#n"/>
<use x="159.033203" xlink:href="#p"/>
</g>
</g>
<g clip-path="url(#a)">
<g transform="translate(1157.3 712.86) scale(.1 -.1)">
<use xlink:href="#c"/>
<use x="63.623047" xlink:href="#f"/>
<use x="95.410156" xlink:href="#n"/>
<use x="159.033203" xlink:href="#ab"/>
</g>
</g>
<g clip-path="url(#a)">
<g transform="translate(1228.5 583.88) scale(.1 -.1)">
<use xlink:href="#c"/>
<use x="63.623047" xlink:href="#f"/>
<use x="95.410156" xlink:href="#n"/>
<use x="159.033203" xlink:href="#aa"/>
</g>
</g>
<g clip-path="url(#a)">
<g transform="translate(1204.8 712.86) scale(.1 -.1)">
<use xlink:href="#c"/>
<use x="63.623047" xlink:href="#f"/>
<use x="95.410156" xlink:href="#n"/>
<use x="159.033203" xlink:href="#z"/>
</g>
</g>
<g clip-path="url(#a)">
<g transform="translate(1252.3 712.86) scale(.1 -.1)">
<use xlink:href="#c"/>
<use x="63.623047" xlink:href="#f"/>
<use x="95.410156" xlink:href="#n"/>
<use x="159.033203" xlink:href="#al"/>
</g>
</g>
<g clip-path="url(#a)">
<g transform="translate(1086.1 712.86) scale(.1 -.1)">
<use xlink:href="#c"/>
<use x="63.623047" xlink:href="#f"/>
<use x="95.410156" xlink:href="#n"/>
<use x="159.033203" xlink:href="#ak"/>
</g>
</g>
<g clip-path="url(#a)">
<g transform="translate(207.51 583.88) scale(.1 -.1)">
<use xlink:href="#c"/>
<use x="63.623047" xlink:href="#f"/>
<use x="95.410156" xlink:href="#m"/>
<use x="159.033203" xlink:href="#am"/>
</g>
</g>
<g clip-path="url(#a)">
<g transform="translate(302.49 712.86) scale(.1 -.1)">
<use xlink:href="#c"/>
<use x="63.623047" xlink:href="#f"/>
<use x="95.410156" xlink:href="#m"/>
<use x="159.033203" xlink:href="#c"/>
</g>
</g>
<g clip-path="url(#a)">
<g transform="translate(349.98 712.86) scale(.1 -.1)">
<use xlink:href="#c"/>
<use x="63.623047" xlink:href="#f"/>
<use x="95.410156" xlink:href="#m"/>
<use x="159.033203" xlink:href="#n"/>
</g>
</g>
<g clip-path="url(#a)">
<g transform="translate(397.47 712.86) scale(.1 -.1)">
<use xlink:href="#c"/>
<use x="63.623047" xlink:href="#f"/>
<use x="95.410156" xlink:href="#m"/>
<use x="159.033203" xlink:href="#m"/>
</g>
</g>
<g clip-path="url(#a)">
<g transform="translate(444.96 712.86) scale(.1 -.1)">
<use xlink:href="#c"/>
<use x="63.623047" xlink:href="#f"/>
<use x="95.410156" xlink:href="#m"/>
<use x="159.033203" xlink:href="#p"/>
</g>
</g>
<g clip-path="url(#a)">
<g transform="translate(539.93 583.88) scale(.1 -.1)">
<use xlink:href="#c"/>
<use x="63.623047" xlink:href="#f"/>
<use x="95.410156" xlink:href="#m"/>
<use x="159.033203" xlink:href="#ab"/>
</g>
</g>
<g clip-path="url(#a)">
<g transform="translate(492.44 712.86) scale(.1 -.1)">
<use xlink:href="#c"/>
<use x="63.623047" xlink:href="#f"/>
<use x="95.410156" xlink:href="#m"/>
<use x="159.033203" xlink:href="#aa"/>
</g>
</g>
<g clip-path="url(#a)">
<g transform="translate(539.93 712.86) scale(.1 -.1)">
<use xlink:href="#c"/>
<use x="63.623047" xlink:href="#f"/>
<use x="95.410156" xlink:href="#m"/>
<use x="159.033203" xlink:href="#z"/>
</g>
</g>
<g clip-path="url(#a)">
<g transform="translate(587.42 712.86) scale(.1 -.1)">
<use xlink:href="#c"/>
<use x="63.623047" xlink:href="#f"/>
<use x="95.410156" xlink:href="#m"/>
<use x="159.033203" xlink:href="#al"/>
</g>
</g>
<g clip-path="url(#a)">
<g transform="translate(160.02 712.86) scale(.1 -.1)">
<use xlink:href="#c"/>
<use x="63.623047" xlink:href="#f"/>
<use x="95.410156" xlink:href="#m"/>
<use x="159.033203" xlink:href="#ak"/>
</g>
</g>
<g clip-path="url(#a)">
<g transform="translate(207.51 712.86) scale(.1 -.1)">
<use xlink:href="#c"/>
<use x="63.623047" xlink:href="#f"/>
<use x="95.410156" xlink:href="#p"/>
<use x="159.033203" xlink:href="#am"/>
</g>
</g>
<g clip-path="url(#a)">
<g transform="translate(255 712.86) scale(.1 -.1)">
<use xlink:href="#c"/>
<use x="63.623047" xlink:href="#f"/>
<use x="95.410156" xlink:href="#p"/>
<use x="159.033203" xlink:href="#c"/>
</g>
</g>
<g clip-path="url(#a)">
<g transform="translate(112.53 712.86) scale(.1 -.1)">
<use xlink:href="#c"/>
<use x="63.623047" xlink:href="#f"/>
<use x="95.410156" xlink:href="#p"/>
<use x="159.033203" xlink:href="#n"/>
</g>
</g>
<g clip-path="url(#a)">
<g transform="translate(634.91 712.86) scale(.1 -.1)">
<use xlink:href="#c"/>
<use x="63.623047" xlink:href="#f"/>
<use x="95.410156" xlink:href="#p"/>
<use x="159.033203" xlink:href="#m"/>
</g>
</g>
<g clip-path="url(#a)">
<g transform="translate(1584.7 712.86) scale(.1 -.1)">
<use xlink:href="#c"/>
<use x="63.623047" xlink:href="#f"/>
<use x="95.410156" xlink:href="#p"/>
<use x="159.033203" xlink:href="#p"/>
</g>
</g>
<defs>
<clipPath id="a">
<rect width="1672" height="880"/>
</clipPath>
</defs>
</svg>
