<?xml version="1.0" encoding="UTF-8"?>
<!DOCTYPE svg  PUBLIC '-//W3C//DTD SVG 1.1//EN'  'http://www.w3.org/Graphics/SVG/1.1/DTD/svg11.dtd'>
<svg width="1216pt" height="640pt" version="1.1" viewBox="0 0 1216 640" xmlns="http://www.w3.org/2000/svg" xmlns:xlink="http://www.w3.org/1999/xlink">
<defs>
<style type="text/css">*{stroke-linecap:butt;stroke-linejoin:round;}</style>
</defs>
<path d="m0 640h1216v-640h-1216z" fill="#fff"/>
<g fill="none" stroke="#000">
<path d="m492.54 29.091v83.885" clip-path="url(#a)"/>
<path d="m492.54 112.98-437.26 416.42" clip-path="url(#a)"/>
<path d="m492.54 112.98-427.03 416.42" clip-path="url(#a)"/>
<path d="m492.54 112.98-247.52 83.745" clip-path="url(#a)"/>
<path d="m492.54 112.98 81.344 416.42" clip-path="url(#a)"/>
<path d="m492.54 112.98 245.11 333.77" clip-path="url(#a)"/>
<path d="m492.54 112.98 241.7 333.77" clip-path="url(#a)"/>
<path d="m492.54 112.98 543.66 333.77" clip-path="url(#a)"/>
<path d="m55.273 529.39v81.515" clip-path="url(#a)"/>
<path d="m65.508 529.39v81.515" clip-path="url(#a)"/>
<path d="m245.01 196.72-62.741 83.576" clip-path="url(#a)"/>
<path d="m245.01 196.72 62.741 166.94" clip-path="url(#a)"/>
<path d="m573.88 529.39v81.515" clip-path="url(#a)"/>
<path d="m737.65 446.74-102.36 82.649" clip-path="url(#a)"/>
<path d="m737.65 446.74 102.36 82.649" clip-path="url(#a)"/>
<path d="m734.24 446.74-34.119 82.649" clip-path="url(#a)"/>
<path d="m734.24 446.74 34.119 82.649" clip-path="url(#a)"/>
<path d="m1036.2 446.74-121.12 82.649" clip-path="url(#a)"/>
<path d="m1036.2 446.74-42.649 82.649" clip-path="url(#a)"/>
<path d="m1036.2 446.74 39.237 82.649" clip-path="url(#a)"/>
<path d="m1036.2 446.74 124.53 82.649" clip-path="url(#a)"/>
<path d="m915.07 529.39v81.515" clip-path="url(#a)"/>
<path d="m993.54 529.39v81.515" clip-path="url(#a)"/>
<path d="m1075.4 529.39v81.515" clip-path="url(#a)"/>
<path d="m700.12 529.39v81.515" clip-path="url(#a)"/>
<path d="m768.36 529.39v81.515" clip-path="url(#a)"/>
<path d="m635.3 529.39v81.515" clip-path="url(#a)"/>
<path d="m840.01 529.39v81.515" clip-path="url(#a)"/>
<path d="m182.27 280.3-74.114 83.365" clip-path="url(#a)"/>
<path d="m182.27 280.3-10.994 249.1" clip-path="url(#a)"/>
<path d="m182.27 280.3 85.108 83.365" clip-path="url(#a)"/>
<path d="m307.75 363.66 102.36 165.73" clip-path="url(#a)"/>
<path d="m307.75 363.66 180.83 83.083" clip-path="url(#a)"/>
<path d="m307.75 363.66-71.65 165.73" clip-path="url(#a)" stroke-dasharray="3.7,1.6"/>
<path d="m307.75 363.66-211.54 165.73" clip-path="url(#a)" stroke-dasharray="3.7,1.6"/>
<path d="m410.11 529.39v81.515" clip-path="url(#a)"/>
<path d="m488.58 446.74-27.295 82.649" clip-path="url(#a)"/>
<path d="m488.58 446.74 27.295 82.649" clip-path="url(#a)"/>
<path d="m461.29 529.39v81.515" clip-path="url(#a)"/>
<path d="m515.88 529.39v81.515" clip-path="url(#a)"/>
<path d="m108.16 363.66 35.825 83.083" clip-path="url(#a)"/>
<path d="m108.16 363.66-20.471 83.083" clip-path="url(#a)"/>
<path d="m108.16 363.66 20.471 83.083" clip-path="url(#a)"/>
<path d="m171.28 529.39v81.515" clip-path="url(#a)"/>
<path d="m267.38 363.66 94.964 83.083" clip-path="url(#a)"/>
<path d="m267.38 363.66-48.335 83.083" clip-path="url(#a)"/>
<path d="m267.38 363.66 48.335 83.083" clip-path="url(#a)"/>
<path d="m219.04 446.74-17.059 82.649" clip-path="url(#a)"/>
<path d="m219.04 446.74 17.059 82.649" clip-path="url(#a)"/>
<path d="m315.71 446.74-42.08 82.649" clip-path="url(#a)"/>
<path d="m315.71 446.74-1.1373 82.649" clip-path="url(#a)"/>
<path d="m315.71 446.74 43.217 82.649" clip-path="url(#a)"/>
<path d="m273.63 529.39v81.515" clip-path="url(#a)"/>
<path d="m314.58 529.39v81.515" clip-path="url(#a)"/>
<path d="m358.93 529.39v81.515" clip-path="url(#a)"/>
<path d="m201.98 529.39v81.515" clip-path="url(#a)"/>
<path d="m236.1 529.39v81.515" clip-path="url(#a)"/>
<path d="m87.686 446.74-8.5297 82.649" clip-path="url(#a)"/>
<path d="m87.686 446.74 8.5297 82.649" clip-path="url(#a)"/>
<path d="m128.63 446.74-11.942 82.649" clip-path="url(#a)"/>
<path d="m128.63 446.74 11.942 82.649" clip-path="url(#a)"/>
<path d="m116.69 529.39v81.515" clip-path="url(#a)"/>
<path d="m140.57 529.39v81.515" clip-path="url(#a)"/>
<path d="m79.156 529.39v81.515" clip-path="url(#a)"/>
<path d="m96.215 529.39v81.515" clip-path="url(#a)"/>
<path d="m1160.7 529.39v81.515" clip-path="url(#a)"/>
</g>
<path d="m486.27 68.025v6.0162q0 2.4 2.4 2.4h7.7425q2.4 0 2.4-2.4v-6.0162q0-2.4-2.4-2.4h-7.7425q-2.4 0-2.4 2.4z" clip-path="url(#a)" fill="#fff" stroke="#fff"/>
<g clip-path="url(#a)">
<defs>
<path id="ae" d="m9.8125 72.906h9.8594v-29.891h35.844v29.891h9.8594v-72.906h-9.8594v34.719h-35.844v-34.719h-9.8594z"/>
</defs>
<g transform="translate(490.33 68.025) rotate(90) scale(.08 -.08)">
<use xlink:href="#ae"/>
</g>
</g>
<path d="m276.56 327.31 3.332-3.1732q1.738-1.6551 0.082858-3.3931l-5.3395-5.6068q-1.6551-1.738-3.3931-0.082857l-3.332 3.1732q-1.738 1.6551-0.082857 3.3931l5.3395 5.6068q1.6551 1.738 3.3931 0.082857z" clip-path="url(#a)" fill="#fff" stroke="#fff"/>
<g clip-path="url(#a)">
<defs>
<path id="r" d="m9.8125 72.906h41.891v-8.3125h-32.031v-21.484h28.906v-8.2969h-28.906v-34.812h-9.8594z"/>
</defs>
<g transform="translate(273.76 324.37) rotate(-43.601) scale(.08 -.08)">
<use xlink:href="#r"/>
</g>
</g>
<path d="m281.75 327.28 3.2942-3.2124q1.7183-1.6756 0.042695-3.3938l-5.4055-5.5432q-1.6756-1.7183-3.3938-0.042695l-3.2942 3.2124q-1.7183 1.6756-0.042695 3.3938l5.4055 5.5432q1.6756 1.7183 3.3938 0.042695z" clip-path="url(#a)" fill="#fff" stroke="#fff"/>
<g clip-path="url(#a)">
<g transform="translate(278.92 324.37) rotate(-44.279) scale(.08 -.08)">
<use xlink:href="#r"/>
</g>
</g>
<path d="m368.19 161.67 5.1838-1.7538q2.2734-0.76916 1.5043-3.0426l-2.4813-7.3341q-0.76916-2.2734-3.0426-1.5043l-5.1838 1.7538q-2.2734 0.76916-1.5043 3.0426l2.4813 7.3341q0.76916 2.2734 3.0426 1.5043z" clip-path="url(#a)" fill="#fff" stroke="#fff"/>
<g clip-path="url(#a)">
<defs>
<path id="q" d="m34.188 63.188-13.391-36.281h26.812zm-5.5781 9.7188h11.188l27.781-72.906h-10.25l-6.6406 18.703h-32.859l-6.6406-18.703h-10.406z"/>
</defs>
<g transform="translate(366.89 157.82) rotate(-18.692) scale(.08 -.08)">
<use xlink:href="#q"/>
</g>
</g>
<path d="m526.61 320.13 0.88214 4.5159q0.46012 2.3555 2.8156 1.8954l7.5989-1.4844q2.3555-0.46012 1.8954-2.8156l-0.88214-4.5159q-0.46012-2.3555-2.8156-1.8954l-7.5989 1.4844q-2.3555 0.46012-1.8954 2.8156z" clip-path="url(#a)" fill="#fff" stroke="#fff"/>
<g clip-path="url(#a)">
<g transform="translate(530.6 319.35) rotate(78.947) scale(.08 -.08)">
<use xlink:href="#r"/>
</g>
</g>
<path d="m608.61 281.63 2.8552 3.8879q1.4206 1.9344 3.355 0.51381l6.2405-4.5829q1.9344-1.4206 0.5138-3.355l-2.8552-3.8879q-1.4206-1.9344-3.355-0.51381l-6.2405 4.5829q-1.9344 1.4206-0.5138 3.355z" clip-path="url(#a)" fill="#fff" stroke="#fff"/>
<g clip-path="url(#a)">
<defs>
<path id="u" d="m19.672 64.797v-27.391h12.406q6.8906 0 10.641 3.5625 3.7656 3.5625 3.7656 10.156 0 6.5469-3.7656 10.109-3.75 3.5625-10.641 3.5625zm-9.8594 8.1094h22.266q12.266 0 18.531-5.5469 6.2812-5.5469 6.2812-16.234 0-10.797-6.2812-16.312-6.2656-5.5156-18.531-5.5156h-12.406v-29.297h-9.8594z"/>
</defs>
<g transform="translate(611.89 279.22) rotate(53.707) scale(.08 -.08)">
<use xlink:href="#u"/>
</g>
</g>
<path d="m606.7 281.32 3.2097 4.4324q1.4077 1.9438 3.3515 0.53618l6.2709-4.5412q1.9438-1.4077 0.53618-3.3515l-3.2097-4.4324q-1.4077-1.9438-3.3515-0.53618l-6.2709 4.5412q-1.9438 1.4077-0.53618 3.3515z" clip-path="url(#a)" fill="#fff" stroke="#fff"/>
<g clip-path="url(#a)">
<g transform="translate(610 278.94) rotate(54.089) scale(.08 -.08)">
<use xlink:href="#q"/>
</g>
</g>
<path d="m758.75 283.77 4.6637 2.8632q2.0453 1.2557 3.301-0.78962l4.0509-6.5982q1.2557-2.0453-0.78962-3.301l-4.6637-2.8632q-2.0453-1.2557-3.301 0.78962l-4.0509 6.5982q-1.2557 2.0453 0.78962 3.301z" clip-path="url(#a)" fill="#fff" stroke="#fff"/>
<g clip-path="url(#a)">
<g transform="translate(760.88 280.31) rotate(31.547) scale(.08 -.08)">
<use xlink:href="#q"/>
</g>
</g>
<path d="m49.001 553.25v33.808q0 2.4 2.4 2.4h7.7425q2.4 0 2.4-2.4v-33.808q0-2.4-2.4-2.4h-7.7425q-2.4 0-2.4 2.4z" clip-path="url(#a)" fill="#fff" stroke="#fff"/>
<g clip-path="url(#a)">
<defs>
<path id="i" d="m-0.29688 72.906h61.672v-8.3125h-25.875v-64.594h-9.9062v64.594h-25.891z"/>
<path id="f" d="m56.203 29.594v-4.3906h-41.312q0.59375-9.2812 5.5938-14.141t13.938-4.8594q5.1719 0 10.031 1.2656t9.6562 3.8125v-8.5q-4.8438-2.0469-9.9219-3.125t-10.297-1.0781q-13.094 0-20.734 7.6094-7.6406 7.625-7.6406 20.625 0 13.422 7.25 21.297 7.25 7.8906 19.562 7.8906 11.031 0 17.453-7.1094 6.4219-7.0938 6.4219-19.297zm-8.9844 2.6406q-0.09375 7.3594-4.125 11.75-4.0312 4.4062-10.672 4.4062-7.5156 0-12.031-4.25t-5.2031-11.969z"/>
<path id="h" d="m41.109 46.297q-1.5156 0.875-3.2969 1.2812-1.7812 0.42188-3.9219 0.42188-7.625 0-11.703-4.9531t-4.0781-14.234v-28.812h-9.0312v54.688h9.0312v-8.5q2.8438 4.9844 7.375 7.3906 4.5469 2.4219 11.047 2.4219 0.92188 0 2.0469-0.125 1.125-0.10938 2.4844-0.35938z"/>
<path id="l" d="m52 44.188q3.375 6.0625 8.0625 8.9375t11.031 2.875q8.5469 0 13.188-5.9844 4.6406-5.9688 4.6406-17v-33.016h-9.0312v32.719q0 7.8594-2.7969 11.656-2.7812 3.8125-8.4844 3.8125-6.9844 0-11.047-4.6406-4.0469-4.625-4.0469-12.641v-30.906h-9.0312v32.719q0 7.9062-2.7812 11.688t-8.5938 3.7812q-6.8906 0-10.953-4.6562-4.0469-4.6562-4.0469-12.625v-30.906h-9.0312v54.688h9.0312v-8.5q3.0781 5.0312 7.375 7.4219t10.203 2.3906q5.9688 0 10.141-3.0312 4.1719-3.0156 6.1719-8.7812z"/>
<path id="g" d="m9.4219 54.688h8.9844v-54.688h-8.9844zm0 21.297h8.9844v-11.391h-8.9844z"/>
<path id="j" d="m54.891 33.016v-33.016h-8.9844v32.719q0 7.7656-3.0312 11.609-3.0312 3.8594-9.0781 3.8594-7.2812 0-11.484-4.6406-4.2031-4.625-4.2031-12.641v-30.906h-9.0312v54.688h9.0312v-8.5q3.2344 4.9375 7.5938 7.375 4.375 2.4375 10.094 2.4375 9.4219 0 14.25-5.8281 4.8438-5.8281 4.8438-17.156z"/>
<path id="e" d="m34.281 27.484q-10.891 0-15.094-2.4844t-4.2031-8.5q0-4.7812 3.1562-7.5938 3.1562-2.7969 8.5625-2.7969 7.4844 0 12 5.2969t4.5156 14.078v2zm17.922 3.7188v-31.203h-8.9844v8.2969q-3.0781-4.9688-7.6719-7.3438t-11.234-2.375q-8.3906 0-13.359 4.7188-4.9531 4.7188-4.9531 12.625 0 9.2188 6.1719 13.906 6.1875 4.6875 18.438 4.6875h12.609v0.89062q0 6.2031-4.0781 9.5938t-11.453 3.3906q-4.6875 0-9.1406-1.125-4.4375-1.125-8.5312-3.375v8.3125q4.9219 1.9062 9.5625 2.8438 4.6406 0.95312 9.0312 0.95312 11.875 0 17.734-6.1562 5.8594-6.1406 5.8594-18.641z"/>
<path id="k" d="m9.4219 75.984h8.9844v-75.984h-8.9844z"/>
</defs>
<g transform="translate(53.065 553.25) rotate(90) scale(.08 -.08)">
<use xlink:href="#i"/>
<use x="44.083984" xlink:href="#f"/>
<use x="105.607422" xlink:href="#h"/>
<use x="144.970703" xlink:href="#l"/>
<use x="242.382812" xlink:href="#g"/>
<use x="270.166016" xlink:href="#j"/>
<use x="333.544922" xlink:href="#e"/>
<use x="394.824219" xlink:href="#k"/>
</g>
</g>
<path d="m59.237 553.25v33.808q0 2.4 2.4 2.4h7.7425q2.4 0 2.4-2.4v-33.808q0-2.4-2.4-2.4h-7.7425q-2.4 0-2.4 2.4z" clip-path="url(#a)" fill="#fff" stroke="#fff"/>
<g clip-path="url(#a)">
<g transform="translate(63.301 553.25) rotate(90) scale(.08 -.08)">
<use xlink:href="#i"/>
<use x="44.083984" xlink:href="#f"/>
<use x="105.607422" xlink:href="#h"/>
<use x="144.970703" xlink:href="#l"/>
<use x="242.382812" xlink:href="#g"/>
<use x="270.166016" xlink:href="#j"/>
<use x="333.544922" xlink:href="#e"/>
<use x="394.824219" xlink:href="#k"/>
</g>
</g>
<path d="m216.98 244.51 3.3538-4.4675q1.4409-1.9194-0.47849-3.3602l-6.1919-4.6483q-1.9194-1.4409-3.3602 0.47849l-3.3538 4.4675q-1.4409 1.9194 0.47849 3.3602l6.1919 4.6483q1.9194 1.4409 3.3602-0.47849z" clip-path="url(#a)" fill="#fff" stroke="#fff"/>
<g clip-path="url(#a)">
<defs>
<path id="p" d="m64.406 67.281v-10.391q-4.9844 4.6406-10.625 6.9219-5.6406 2.2969-11.984 2.2969-12.5 0-19.141-7.6406t-6.6406-22.094q0-14.406 6.6406-22.047t19.141-7.6406q6.3438 0 11.984 2.2969t10.625 6.9375v-10.312q-5.1719-3.5156-10.969-5.2812-5.7812-1.75-12.219-1.75-16.562 0-26.094 10.125-9.5156 10.141-9.5156 27.672 0 17.578 9.5156 27.703 9.5312 10.141 26.094 10.141 6.5312 0 12.312-1.7344 5.7969-1.7344 10.875-5.2031z"/>
</defs>
<g transform="translate(213.73 242.07) rotate(-53.104) scale(.08 -.08)">
<use xlink:href="#p"/>
</g>
</g>
<path d="m269.62 280.03 1.7784 4.7319q0.84432 2.2466 3.0909 1.4023l7.2476-2.7238q2.2466-0.84432 1.4023-3.0909l-1.7784-4.7319q-0.84432-2.2466-3.0909-1.4023l-7.2476 2.7238q-2.2466 0.84432-1.4023 3.0909z" clip-path="url(#a)" fill="#fff" stroke="#fff"/>
<g clip-path="url(#a)">
<defs>
<path id="ak" d="m9.8125 72.906h46.094v-8.3125h-36.234v-21.578h34.719v-8.2969h-34.719v-26.422h37.109v-8.2969h-46.969z"/>
</defs>
<g transform="translate(273.43 278.6) rotate(69.402) scale(.08 -.08)">
<use xlink:href="#ak"/>
</g>
</g>
<path d="m567.61 553.25v33.808q0 2.4 2.4 2.4h7.7425q2.4 0 2.4-2.4v-33.808q0-2.4-2.4-2.4h-7.7425q-2.4 0-2.4 2.4z" clip-path="url(#a)" fill="#fff" stroke="#fff"/>
<g clip-path="url(#a)">
<g transform="translate(571.67 553.25) rotate(90) scale(.08 -.08)">
<use xlink:href="#i"/>
<use x="44.083984" xlink:href="#f"/>
<use x="105.607422" xlink:href="#h"/>
<use x="144.970703" xlink:href="#l"/>
<use x="242.382812" xlink:href="#g"/>
<use x="270.166016" xlink:href="#j"/>
<use x="333.544922" xlink:href="#e"/>
<use x="394.824219" xlink:href="#k"/>
</g>
</g>
<path d="m688.62 494.39 3.5799-2.8906q1.8673-1.5077 0.35952-3.375l-4.8641-6.0239q-1.5077-1.8673-3.375-0.35952l-3.5799 2.8906q-1.8673 1.5077-0.35952 3.375l4.8641 6.0239q1.5077 1.8673 3.375 0.35952z" clip-path="url(#a)" fill="#fff" stroke="#fff"/>
<g clip-path="url(#a)">
<g transform="translate(686.07 491.23) rotate(-38.919) scale(.08 -.08)">
<use xlink:href="#r"/>
</g>
</g>
<path d="m782.72 491.19 4.3463 3.5094q1.8673 1.5077 3.375-0.35952l4.8641-6.0239q1.5077-1.8673-0.35952-3.375l-4.3463-3.5094q-1.8673-1.5077-3.375 0.35952l-4.8641 6.0239q-1.5077 1.8673 0.35952 3.375z" clip-path="url(#a)" fill="#fff" stroke="#fff"/>
<g clip-path="url(#a)">
<g transform="translate(785.27 488.03) rotate(38.919) scale(.08 -.08)">
<use xlink:href="#p"/>
</g>
</g>
<path d="m722.01 492.8 1.9289-4.6725q0.9158-2.2184-1.3026-3.1342l-7.1567-2.9544q-2.2184-0.9158-3.1342 1.3026l-1.9289 4.6725q-0.9158 2.2184 1.3026 3.1342l7.1567 2.9544q2.2184 0.9158 3.1342-1.3026z" clip-path="url(#a)" fill="#fff" stroke="#fff"/>
<g clip-path="url(#a)">
<g transform="translate(718.26 491.25) rotate(-67.568) scale(.08 -.08)">
<use xlink:href="#ak"/>
</g>
</g>
<path d="m744.44 487.88 2.1316 5.1636q0.9158 2.2184 3.1342 1.3026l7.1567-2.9544q2.2184-0.9158 1.3026-3.1342l-2.1316-5.1636q-0.9158-2.2184-3.1342-1.3026l-7.1567 2.9544q-2.2184 0.9158-1.3026 3.1342z" clip-path="url(#a)" fill="#fff" stroke="#fff"/>
<g clip-path="url(#a)">
<g transform="translate(748.19 486.33) rotate(67.568) scale(.08 -.08)">
<use xlink:href="#p"/>
</g>
</g>
<path d="m976.87 494.82 4.5916-3.1331q1.9824-1.3527 0.6297-3.3352l-4.364-6.3954q-1.3527-1.9824-3.3352-0.6297l-4.5916 3.1331q-1.9824 1.3527-0.6297 3.3352l4.364 6.3954q1.3527 1.9824 3.3352 0.6297z" clip-path="url(#a)" fill="#fff" stroke="#fff"/>
<g clip-path="url(#a)">
<defs>
<path id="y" d="m44.391 34.188q3.1719-1.0781 6.1719-4.5938t6.0312-9.6719l10.016-19.922h-10.609l-9.3125 18.703q-3.625 7.3281-7.0156 9.7188t-9.25 2.3906h-10.75v-30.812h-9.8594v72.906h22.266q12.5 0 18.656-5.2344 6.1562-5.2188 6.1562-15.766 0-6.8906-3.2031-11.438-3.2031-4.5312-9.2969-6.2812zm-24.719 30.609v-25.875h12.406q7.125 0 10.766 3.2969t3.6406 9.6875-3.6406 9.6406-10.766 3.25z"/>
</defs>
<g transform="translate(974.58 491.46) rotate(-34.308) scale(.08 -.08)">
<use xlink:href="#y"/>
</g>
</g>
<path d="m1019.4 492.99 2.11-4.0889q1.1006-2.1328-1.0322-3.2333l-6.8804-3.5505q-2.1328-1.1006-3.2333 1.0322l-2.11 4.0889q-1.1006 2.1328 1.0322 3.2333l6.8804 3.5505q2.1328 1.1006 3.2333-1.0322z" clip-path="url(#a)" fill="#fff" stroke="#fff"/>
<g clip-path="url(#a)">
<g transform="translate(1015.8 491.13) rotate(-62.705) scale(.08 -.08)">
<use xlink:href="#r"/>
</g>
</g>
<path d="m1048.9 488.24 2.3957 5.0464q1.0293 2.1681 3.1974 1.1388l6.9943-3.3205q2.1681-1.0293 1.1388-3.1974l-2.3957-5.0464q-1.0293-2.1681-3.1974-1.1388l-6.9943 3.3205q-2.1681 1.0293-1.1388 3.1974z" clip-path="url(#a)" fill="#fff" stroke="#fff"/>
<g clip-path="url(#a)">
<g transform="translate(1052.6 486.49) rotate(64.604) scale(.08 -.08)">
<use xlink:href="#p"/>
</g>
</g>
<path d="m1092.6 491.68 4.8784 3.2376q1.9997 1.3271 3.3268-0.67256l4.2814-6.4511q1.3271-1.9997-0.67256-3.3268l-4.8784-3.2376q-1.9997-1.3271-3.3268 0.67256l-4.2814 6.4511q-1.3271 1.9997 0.67256 3.3268z" clip-path="url(#a)" fill="#fff" stroke="#fff"/>
<g clip-path="url(#a)">
<defs>
<path id="am" d="m8.6875 72.906h9.9219v-44.297q0-11.719 4.2344-16.875 4.25-5.1406 13.781-5.1406 9.4688 0 13.719 5.1406 4.25 5.1562 4.25 16.875v44.297h9.9062v-45.516q0-14.25-7.0625-21.531-7.0469-7.2812-20.812-7.2812-13.828 0-20.891 7.2812-7.0469 7.2812-7.0469 21.531z"/>
</defs>
<g transform="translate(1094.8 488.29) rotate(33.571) scale(.08 -.08)">
<use xlink:href="#am"/>
</g>
</g>
<path d="m908.8 553.25v33.808q0 2.4 2.4 2.4h7.7425q2.4 0 2.4-2.4v-33.808q0-2.4-2.4-2.4h-7.7425q-2.4 0-2.4 2.4z" clip-path="url(#a)" fill="#fff" stroke="#fff"/>
<g clip-path="url(#a)">
<g transform="translate(912.86 553.25) rotate(90) scale(.08 -.08)">
<use xlink:href="#i"/>
<use x="44.083984" xlink:href="#f"/>
<use x="105.607422" xlink:href="#h"/>
<use x="144.970703" xlink:href="#l"/>
<use x="242.382812" xlink:href="#g"/>
<use x="270.166016" xlink:href="#j"/>
<use x="333.544922" xlink:href="#e"/>
<use x="394.824219" xlink:href="#k"/>
</g>
</g>
<path d="m987.27 553.25v33.808q0 2.4 2.4 2.4h7.7425q2.4 0 2.4-2.4v-33.808q0-2.4-2.4-2.4h-7.7425q-2.4 0-2.4 2.4z" clip-path="url(#a)" fill="#fff" stroke="#fff"/>
<g clip-path="url(#a)">
<g transform="translate(991.34 553.25) rotate(90) scale(.08 -.08)">
<use xlink:href="#i"/>
<use x="44.083984" xlink:href="#f"/>
<use x="105.607422" xlink:href="#h"/>
<use x="144.970703" xlink:href="#l"/>
<use x="242.382812" xlink:href="#g"/>
<use x="270.166016" xlink:href="#j"/>
<use x="333.544922" xlink:href="#e"/>
<use x="394.824219" xlink:href="#k"/>
</g>
</g>
<path d="m1069.2 553.25v33.808q0 2.4 2.4 2.4h7.7425q2.4 0 2.4-2.4v-33.808q0-2.4-2.4-2.4h-7.7425q-2.4 0-2.4 2.4z" clip-path="url(#a)" fill="#fff" stroke="#fff"/>
<g clip-path="url(#a)">
<g transform="translate(1073.2 553.25) rotate(90) scale(.08 -.08)">
<use xlink:href="#i"/>
<use x="44.083984" xlink:href="#f"/>
<use x="105.607422" xlink:href="#h"/>
<use x="144.970703" xlink:href="#l"/>
<use x="242.382812" xlink:href="#g"/>
<use x="270.166016" xlink:href="#j"/>
<use x="333.544922" xlink:href="#e"/>
<use x="394.824219" xlink:href="#k"/>
</g>
</g>
<path d="m693.85 553.25v33.808q0 2.4 2.4 2.4h7.7425q2.4 0 2.4-2.4v-33.808q0-2.4-2.4-2.4h-7.7425q-2.4 0-2.4 2.4z" clip-path="url(#a)" fill="#fff" stroke="#fff"/>
<g clip-path="url(#a)">
<g transform="translate(697.91 553.25) rotate(90) scale(.08 -.08)">
<use xlink:href="#i"/>
<use x="44.083984" xlink:href="#f"/>
<use x="105.607422" xlink:href="#h"/>
<use x="144.970703" xlink:href="#l"/>
<use x="242.382812" xlink:href="#g"/>
<use x="270.166016" xlink:href="#j"/>
<use x="333.544922" xlink:href="#e"/>
<use x="394.824219" xlink:href="#k"/>
</g>
</g>
<path d="m762.09 553.25v33.808q0 2.4 2.4 2.4h7.7425q2.4 0 2.4-2.4v-33.808q0-2.4-2.4-2.4h-7.7425q-2.4 0-2.4 2.4z" clip-path="url(#a)" fill="#fff" stroke="#fff"/>
<g clip-path="url(#a)">
<g transform="translate(766.15 553.25) rotate(90) scale(.08 -.08)">
<use xlink:href="#i"/>
<use x="44.083984" xlink:href="#f"/>
<use x="105.607422" xlink:href="#h"/>
<use x="144.970703" xlink:href="#l"/>
<use x="242.382812" xlink:href="#g"/>
<use x="270.166016" xlink:href="#j"/>
<use x="333.544922" xlink:href="#e"/>
<use x="394.824219" xlink:href="#k"/>
</g>
</g>
<path d="m629.02 553.25v33.808q0 2.4 2.4 2.4h7.7425q2.4 0 2.4-2.4v-33.808q0-2.4-2.4-2.4h-7.7425q-2.4 0-2.4 2.4z" clip-path="url(#a)" fill="#fff" stroke="#fff"/>
<g clip-path="url(#a)">
<g transform="translate(633.09 553.25) rotate(90) scale(.08 -.08)">
<use xlink:href="#i"/>
<use x="44.083984" xlink:href="#f"/>
<use x="105.607422" xlink:href="#h"/>
<use x="144.970703" xlink:href="#l"/>
<use x="242.382812" xlink:href="#g"/>
<use x="270.166016" xlink:href="#j"/>
<use x="333.544922" xlink:href="#e"/>
<use x="394.824219" xlink:href="#k"/>
</g>
</g>
<path d="m833.74 553.25v33.808q0 2.4 2.4 2.4h7.7425q2.4 0 2.4-2.4v-33.808q0-2.4-2.4-2.4h-7.7425q-2.4 0-2.4 2.4z" clip-path="url(#a)" fill="#fff" stroke="#fff"/>
<g clip-path="url(#a)">
<g transform="translate(837.8 553.25) rotate(90) scale(.08 -.08)">
<use xlink:href="#i"/>
<use x="44.083984" xlink:href="#f"/>
<use x="105.607422" xlink:href="#h"/>
<use x="144.970703" xlink:href="#l"/>
<use x="242.382812" xlink:href="#g"/>
<use x="270.166016" xlink:href="#j"/>
<use x="333.544922" xlink:href="#e"/>
<use x="394.824219" xlink:href="#k"/>
</g>
</g>
<path d="m147.9 328.39 3.9973-4.4963q1.5946-1.7937-0.19905-3.3883l-5.7864-5.1443q-1.7937-1.5946-3.3883 0.19905l-3.9973 4.4963q-1.5946 1.7937 0.19905 3.3883l5.7864 5.1443q1.7937 1.5946 3.3883-0.19905z" clip-path="url(#a)" fill="#fff" stroke="#fff"/>
<g clip-path="url(#a)">
<g transform="translate(144.87 325.69) rotate(-48.362) scale(.08 -.08)">
<use xlink:href="#ae"/>
</g>
</g>
<path d="m182.94 407.35 0.19654-4.4532q0.10582-2.3977-2.2918-2.5035l-7.735-0.34138q-2.3977-0.10582-2.5035 2.2918l-0.19654 4.4532q-0.10582 2.3977 2.2918 2.5035l7.735 0.34138q2.3977 0.10582 2.5035-2.2918z" clip-path="url(#a)" fill="#fff" stroke="#fff"/>
<g clip-path="url(#a)">
<defs>
<path id="ad" d="m9.8125 72.906h9.8594v-64.609h35.5v-8.2969h-45.359z"/>
</defs>
<g transform="translate(178.88 407.17) rotate(-87.473) scale(.08 -.08)">
<use xlink:href="#ad"/>
</g>
</g>
<path d="m218.29 324.35 4.2979 4.2099q1.7145 1.6794 3.3939-0.035103l5.4179-5.5311q1.6794-1.7145-0.035103-3.3939l-4.2979-4.2099q-1.7145-1.6794-3.3939 0.035103l-5.4179 5.5311q-1.6794 1.7145 0.035103 3.3939z" clip-path="url(#a)" fill="#fff" stroke="#fff"/>
<g clip-path="url(#a)">
<g transform="translate(221.13 321.45) rotate(44.407) scale(.08 -.08)">
<use xlink:href="#ae"/>
</g>
</g>
<path d="m352.33 447.77 2.5347 4.1041q1.2611 2.042 3.3031 0.78083l6.5874-4.0684q2.042-1.2611 0.78083-3.3031l-2.5347-4.1041q-1.2611-2.042-3.3031-0.78083l-6.5874 4.0684q-2.042 1.2611-0.78083 3.3031z" clip-path="url(#a)" fill="#fff" stroke="#fff"/>
<g clip-path="url(#a)">
<g transform="translate(355.79 445.64) rotate(58.3) scale(.08 -.08)">
<use xlink:href="#u"/>
</g>
</g>
<path d="m393.06 409.76 4.9728 2.2847q2.1808 1.002 3.1828-1.1788l3.2324-7.0355q1.002-2.1808-1.1788-3.1828l-4.9728-2.2847q-2.1808-1.002-3.1828 1.1788l-3.2324 7.0355q-1.002 2.1808 1.1788 3.1828z" clip-path="url(#a)" fill="#fff" stroke="#fff"/>
<g clip-path="url(#a)">
<g transform="translate(394.76 406.07) rotate(24.676) scale(.08 -.08)">
<use xlink:href="#q"/>
</g>
</g>
<path d="m276.6 451.53 2.1716-5.0232q0.95239-2.2029-1.2506-3.1553l-7.1068-3.0724q-2.2029-0.95239-3.1553 1.2506l-2.1716 5.0232q-0.95239 2.2029 1.2506 3.1553l7.1068 3.0724q2.2029 0.95239 3.1553-1.2506z" clip-path="url(#a)" fill="#fff" stroke="#fff"/>
<g clip-path="url(#a)">
<g transform="translate(272.87 449.92) rotate(-66.62) scale(.08 -.08)">
<use xlink:href="#q"/>
</g>
</g>
<path d="m203.7 453.15 4.3078-3.375q1.8892-1.4801 0.40909-3.3694l-4.775-6.0947q-1.4801-1.8892-3.3694-0.40909l-4.3078 3.375q-1.8892 1.4801-0.40909 3.3694l4.775 6.0947q1.4801 1.8892 3.3694 0.40909z" clip-path="url(#a)" fill="#fff" stroke="#fff"/>
<g clip-path="url(#a)">
<g transform="translate(201.19 449.95) rotate(-38.077) scale(.08 -.08)">
<use xlink:href="#q"/>
</g>
</g>
<path d="m403.84 553.25v33.808q0 2.4 2.4 2.4h7.7425q2.4 0 2.4-2.4v-33.808q0-2.4-2.4-2.4h-7.7425q-2.4 0-2.4 2.4z" clip-path="url(#a)" fill="#fff" stroke="#fff"/>
<g clip-path="url(#a)">
<g transform="translate(407.9 553.25) rotate(90) scale(.08 -.08)">
<use xlink:href="#i"/>
<use x="44.083984" xlink:href="#f"/>
<use x="105.607422" xlink:href="#h"/>
<use x="144.970703" xlink:href="#l"/>
<use x="242.382812" xlink:href="#g"/>
<use x="270.166016" xlink:href="#j"/>
<use x="333.544922" xlink:href="#e"/>
<use x="394.824219" xlink:href="#k"/>
</g>
</g>
<path d="m480.02 492.68 1.7432-5.2784q0.75263-2.2789-1.5263-3.0316l-7.3519-2.428q-2.2789-0.75263-3.0316 1.5263l-1.7432 5.2783q-0.75263 2.2789 1.5263 3.0316l7.3519 2.428q2.2789 0.75263 3.0316-1.5263z" clip-path="url(#a)" fill="#fff" stroke="#fff"/>
<g clip-path="url(#a)">
<g transform="translate(476.16 491.4) rotate(-71.724) scale(.08 -.08)">
<use xlink:href="#y"/>
</g>
</g>
<path d="m495.4 487.38 1.7518 5.3045q0.75263 2.2789 3.0316 1.5263l7.3519-2.428q2.2789-0.75263 1.5263-3.0316l-1.7518-5.3045q-0.75263-2.2789-3.0316-1.5263l-7.3519 2.428q-2.2789 0.75263-1.5263 3.0316z" clip-path="url(#a)" fill="#fff" stroke="#fff"/>
<g clip-path="url(#a)">
<g transform="translate(499.26 486.11) rotate(71.724) scale(.08 -.08)">
<use xlink:href="#p"/>
</g>
</g>
<path d="m455.02 553.25v33.808q0 2.4 2.4 2.4h7.7425q2.4 0 2.4-2.4v-33.808q0-2.4-2.4-2.4h-7.7425q-2.4 0-2.4 2.4z" clip-path="url(#a)" fill="#fff" stroke="#fff"/>
<g clip-path="url(#a)">
<g transform="translate(459.08 553.25) rotate(90) scale(.08 -.08)">
<use xlink:href="#i"/>
<use x="44.083984" xlink:href="#f"/>
<use x="105.607422" xlink:href="#h"/>
<use x="144.970703" xlink:href="#l"/>
<use x="242.382812" xlink:href="#g"/>
<use x="270.166016" xlink:href="#j"/>
<use x="333.544922" xlink:href="#e"/>
<use x="394.824219" xlink:href="#k"/>
</g>
</g>
<path d="m509.61 553.25v33.808q0 2.4 2.4 2.4h7.7425q2.4 0 2.4-2.4v-33.808q0-2.4-2.4-2.4h-7.7425q-2.4 0-2.4 2.4z" clip-path="url(#a)" fill="#fff" stroke="#fff"/>
<g clip-path="url(#a)">
<g transform="translate(513.67 553.25) rotate(90) scale(.08 -.08)">
<use xlink:href="#i"/>
<use x="44.083984" xlink:href="#f"/>
<use x="105.607422" xlink:href="#h"/>
<use x="144.970703" xlink:href="#l"/>
<use x="242.382812" xlink:href="#g"/>
<use x="270.166016" xlink:href="#j"/>
<use x="333.544922" xlink:href="#e"/>
<use x="394.824219" xlink:href="#k"/>
</g>
</g>
<path d="m119.23 405.17 2.1669 5.0252q0.95029 2.2038 3.1541 1.2536l7.1097-3.0657q2.2038-0.95029 1.2536-3.1541l-2.1669-5.0252q-0.95029-2.2038-3.1541-1.2536l-7.1097 3.0657q-2.2038 0.95029-1.2536 3.1541z" clip-path="url(#a)" fill="#fff" stroke="#fff"/>
<g clip-path="url(#a)">
<g transform="translate(122.96 403.57) rotate(66.674) scale(.08 -.08)">
<use xlink:href="#q"/>
</g>
</g>
<path d="m103.43 409.05 1.154-4.6837q0.57418-2.3303-1.7561-2.9045l-7.5177-1.8523q-2.3303-0.57418-2.9045 1.7561l-1.154 4.6837q-0.57418 2.3303 1.7561 2.9045l7.5177 1.8523q2.3303 0.57418 2.9045-1.7561z" clip-path="url(#a)" fill="#fff" stroke="#fff"/>
<g clip-path="url(#a)">
<g transform="translate(99.488 408.07) rotate(-76.158) scale(.08 -.08)">
<use xlink:href="#u"/>
</g>
</g>
<path d="m111.65 404.05 1.3093 5.3136q0.57418 2.3303 2.9045 1.7561l7.5177-1.8523q2.3303-0.57418 1.7561-2.9045l-1.3093-5.3136q-0.57418-2.3303-2.9045-1.7561l-7.5177 1.8523q-2.3303 0.57418-1.7561 2.9045z" clip-path="url(#a)" fill="#fff" stroke="#fff"/>
<g clip-path="url(#a)">
<g transform="translate(115.59 403.07) rotate(76.158) scale(.08 -.08)">
<use xlink:href="#q"/>
</g>
</g>
<path d="m165.01 553.25v33.808q0 2.4 2.4 2.4h7.7425q2.4 0 2.4-2.4v-33.808q0-2.4-2.4-2.4h-7.7425q-2.4 0-2.4 2.4z" clip-path="url(#a)" fill="#fff" stroke="#fff"/>
<g clip-path="url(#a)">
<g transform="translate(169.07 553.25) rotate(90) scale(.08 -.08)">
<use xlink:href="#i"/>
<use x="44.083984" xlink:href="#f"/>
<use x="105.607422" xlink:href="#h"/>
<use x="144.970703" xlink:href="#l"/>
<use x="242.382812" xlink:href="#g"/>
<use x="270.166016" xlink:href="#j"/>
<use x="333.544922" xlink:href="#e"/>
<use x="394.824219" xlink:href="#k"/>
</g>
</g>
<path d="m308.67 408.12 4.1187 3.6034q1.8063 1.5803 3.3866-0.226l5.0981-5.8272q1.5803-1.8063-0.226-3.3866l-4.1187-3.6034q-1.8063-1.5803-3.3866 0.226l-5.0981 5.8272q-1.5803 1.8063 0.226 3.3866z" clip-path="url(#a)" fill="#fff" stroke="#fff"/>
<g clip-path="url(#a)">
<g transform="translate(311.35 405.06) rotate(41.182) scale(.08 -.08)">
<use xlink:href="#q"/>
</g>
</g>
<path d="m247.08 411.02 3.0976-5.3245q1.2069-2.0745-0.8676-3.2814l-6.6923-3.8934q-2.0745-1.2069-3.2814 0.8676l-3.0976 5.3245q-1.2069 2.0745 0.8676 3.2814l6.6923 3.8934q2.0745 1.2069 3.2814-0.8676z" clip-path="url(#a)" fill="#fff" stroke="#fff"/>
<g clip-path="url(#a)">
<defs>
<path id="an" d="m19.672 64.797v-56.688h11.922q15.094 0 22.094 6.8281 7 6.8438 7 21.594 0 14.641-7 21.453t-22.094 6.8125zm-9.8594 8.1094h20.266q21.188 0 31.094-8.8125 9.9219-8.8125 9.9219-27.562 0-18.859-9.9688-27.703-9.9531-8.8281-31.047-8.8281h-20.266z"/>
</defs>
<g transform="translate(243.57 408.98) rotate(-59.81) scale(.08 -.08)">
<use xlink:href="#an"/>
</g>
</g>
<path d="m284.91 406.27 2.4257 4.1695q1.2069 2.0745 3.2814 0.8676l6.6923-3.8934q2.0745-1.2069 0.8676-3.2814l-2.4257-4.1695q-1.2069-2.0745-3.2814-0.8676l-6.6923 3.8934q-2.0745 1.2069-0.8676 3.2814z" clip-path="url(#a)" fill="#fff" stroke="#fff"/>
<g clip-path="url(#a)">
<g transform="translate(288.43 404.23) rotate(59.81) scale(.08 -.08)">
<use xlink:href="#u"/>
</g>
</g>
<path d="m216.19 491.59 0.93013-4.5063q0.48515-2.3505-1.8653-2.8356l-7.5827-1.5651q-2.3505-0.48515-2.8356 1.8653l-0.93013 4.5063q-0.48515 2.3505 1.8653 2.8356l7.5827 1.5651q2.3505 0.48515 2.8356-1.8653z" clip-path="url(#a)" fill="#fff" stroke="#fff"/>
<g clip-path="url(#a)">
<g transform="translate(212.21 490.77) rotate(-78.337) scale(.08 -.08)">
<use xlink:href="#r"/>
</g>
</g>
<path d="m220.87 486.6 1.1292 5.4709q0.48515 2.3505 2.8356 1.8653l7.5827-1.5651q2.3505-0.48515 1.8653-2.8356l-1.1292-5.4709q-0.48515-2.3505-2.8356-1.8653l-7.5827 1.5651q-2.3505 0.48515-1.8653 2.8356z" clip-path="url(#a)" fill="#fff" stroke="#fff"/>
<g clip-path="url(#a)">
<g transform="translate(224.85 485.78) rotate(78.337) scale(.08 -.08)">
<use xlink:href="#p"/>
</g>
</g>
<path d="m299 493.39 2.5221-4.9537q1.0889-2.1387-1.0498-3.2277l-6.8997-3.5129q-2.1387-1.0889-3.2277 1.0498l-2.5221 4.9537q-1.0889 2.1387 1.0498 3.2277l6.8997 3.5129q2.1387 1.0889 3.2277-1.0498z" clip-path="url(#a)" fill="#fff" stroke="#fff"/>
<g clip-path="url(#a)">
<g transform="translate(295.38 491.55) rotate(-63.017) scale(.08 -.08)">
<use xlink:href="#y"/>
</g>
</g>
<path d="m321.38 490.46 0.06331-4.6008q0.033022-2.3998-2.3668-2.4328l-7.7418-0.10653q-2.3998-0.033023-2.4328 2.3668l-0.06331 4.6008q-0.033022 2.3998 2.3668 2.4328l7.7418 0.10653q2.3998 0.033022 2.4328-2.3668z" clip-path="url(#a)" fill="#fff" stroke="#fff"/>
<g clip-path="url(#a)">
<g transform="translate(317.32 490.4) rotate(-89.212) scale(.08 -.08)">
<use xlink:href="#r"/>
</g>
</g>
<path d="m330.47 488.5 2.5885 4.9503q1.1121 2.1268 3.2389 1.0147l6.8611-3.5877q2.1268-1.1121 1.0147-3.2389l-2.5885-4.9503q-1.1121-2.1268-3.2389-1.0147l-6.8611 3.5877q-2.1268 1.1121-1.0147 3.2389z" clip-path="url(#a)" fill="#fff" stroke="#fff"/>
<g clip-path="url(#a)">
<g transform="translate(334.07 486.62) rotate(62.395) scale(.08 -.08)">
<use xlink:href="#p"/>
</g>
</g>
<path d="m267.36 553.25v33.808q0 2.4 2.4 2.4h7.7425q2.4 0 2.4-2.4v-33.808q0-2.4-2.4-2.4h-7.7425q-2.4 0-2.4 2.4z" clip-path="url(#a)" fill="#fff" stroke="#fff"/>
<g clip-path="url(#a)">
<g transform="translate(271.43 553.25) rotate(90) scale(.08 -.08)">
<use xlink:href="#i"/>
<use x="44.083984" xlink:href="#f"/>
<use x="105.607422" xlink:href="#h"/>
<use x="144.970703" xlink:href="#l"/>
<use x="242.382812" xlink:href="#g"/>
<use x="270.166016" xlink:href="#j"/>
<use x="333.544922" xlink:href="#e"/>
<use x="394.824219" xlink:href="#k"/>
</g>
</g>
<path d="m308.31 553.25v33.808q0 2.4 2.4 2.4h7.7425q2.4 0 2.4-2.4v-33.808q0-2.4-2.4-2.4h-7.7425q-2.4 0-2.4 2.4z" clip-path="url(#a)" fill="#fff" stroke="#fff"/>
<g clip-path="url(#a)">
<g transform="translate(312.37 553.25) rotate(90) scale(.08 -.08)">
<use xlink:href="#i"/>
<use x="44.083984" xlink:href="#f"/>
<use x="105.607422" xlink:href="#h"/>
<use x="144.970703" xlink:href="#l"/>
<use x="242.382812" xlink:href="#g"/>
<use x="270.166016" xlink:href="#j"/>
<use x="333.544922" xlink:href="#e"/>
<use x="394.824219" xlink:href="#k"/>
</g>
</g>
<path d="m352.66 553.25v33.808q0 2.4 2.4 2.4h7.7425q2.4 0 2.4-2.4v-33.808q0-2.4-2.4-2.4h-7.7425q-2.4 0-2.4 2.4z" clip-path="url(#a)" fill="#fff" stroke="#fff"/>
<g clip-path="url(#a)">
<g transform="translate(356.72 553.25) rotate(90) scale(.08 -.08)">
<use xlink:href="#i"/>
<use x="44.083984" xlink:href="#f"/>
<use x="105.607422" xlink:href="#h"/>
<use x="144.970703" xlink:href="#l"/>
<use x="242.382812" xlink:href="#g"/>
<use x="270.166016" xlink:href="#j"/>
<use x="333.544922" xlink:href="#e"/>
<use x="394.824219" xlink:href="#k"/>
</g>
</g>
<path d="m195.71 553.25v33.808q0 2.4 2.4 2.4h7.7425q2.4 0 2.4-2.4v-33.808q0-2.4-2.4-2.4h-7.7425q-2.4 0-2.4 2.4z" clip-path="url(#a)" fill="#fff" stroke="#fff"/>
<g clip-path="url(#a)">
<g transform="translate(199.78 553.25) rotate(90) scale(.08 -.08)">
<use xlink:href="#i"/>
<use x="44.083984" xlink:href="#f"/>
<use x="105.607422" xlink:href="#h"/>
<use x="144.970703" xlink:href="#l"/>
<use x="242.382812" xlink:href="#g"/>
<use x="270.166016" xlink:href="#j"/>
<use x="333.544922" xlink:href="#e"/>
<use x="394.824219" xlink:href="#k"/>
</g>
</g>
<path d="m229.83 553.25v33.808q0 2.4 2.4 2.4h7.7425q2.4 0 2.4-2.4v-33.808q0-2.4-2.4-2.4h-7.7425q-2.4 0-2.4 2.4z" clip-path="url(#a)" fill="#fff" stroke="#fff"/>
<g clip-path="url(#a)">
<g transform="translate(233.9 553.25) rotate(90) scale(.08 -.08)">
<use xlink:href="#i"/>
<use x="44.083984" xlink:href="#f"/>
<use x="105.607422" xlink:href="#h"/>
<use x="144.970703" xlink:href="#l"/>
<use x="242.382812" xlink:href="#g"/>
<use x="270.166016" xlink:href="#j"/>
<use x="333.544922" xlink:href="#e"/>
<use x="394.824219" xlink:href="#k"/>
</g>
</g>
<path d="m89.423 491 0.47236-4.5769q0.24638-2.3873-2.1409-2.6337l-7.7016-0.79484q-2.3873-0.24638-2.6337 2.1409l-0.47236 4.5769q-0.24638 2.3873 2.1409 2.6337l7.7016 0.79484q2.3873 0.24638 2.6337-2.1409z" clip-path="url(#a)" fill="#fff" stroke="#fff"/>
<g clip-path="url(#a)">
<g transform="translate(85.381 490.58) rotate(-84.108) scale(.08 -.08)">
<use xlink:href="#r"/>
</g>
</g>
<path d="m85.426 485.93 0.57348 5.5567q0.24638 2.3873 2.6337 2.1409l7.7016-0.79484q2.3873-0.24638 2.1409-2.6337l-0.57348-5.5567q-0.24638-2.3873-2.6337-2.1409l-7.7016 0.79484q-2.3873 0.24638-2.1409 2.6337z" clip-path="url(#a)" fill="#fff" stroke="#fff"/>
<g clip-path="url(#a)">
<g transform="translate(89.468 485.52) rotate(84.108) scale(.08 -.08)">
<use xlink:href="#p"/>
</g>
</g>
<path d="m128.47 491.72 0.79491-5.5016q0.3432-2.3753-2.0321-2.7185l-7.6629-1.1072q-2.3753-0.3432-2.7185 2.0321l-0.79491 5.5016q-0.3432 2.3753 2.0321 2.7185l7.6629 1.1072q2.3753 0.3432 2.7185-2.0321z" clip-path="url(#a)" fill="#fff" stroke="#fff"/>
<g clip-path="url(#a)">
<g transform="translate(124.45 491.14) rotate(-81.778) scale(.08 -.08)">
<use xlink:href="#y"/>
</g>
</g>
<path d="m127.99 486.2 0.79884 5.5288q0.3432 2.3753 2.7185 2.0321l7.6629-1.1072q2.3753-0.3432 2.0321-2.7185l-0.79884-5.5288q-0.3432-2.3753-2.7185-2.0321l-7.6629 1.1072q-2.3753 0.3432-2.0321 2.7185z" clip-path="url(#a)" fill="#fff" stroke="#fff"/>
<g clip-path="url(#a)">
<g transform="translate(132.02 485.62) rotate(81.778) scale(.08 -.08)">
<use xlink:href="#p"/>
</g>
</g>
<path d="m110.42 553.25v33.808q0 2.4 2.4 2.4h7.7425q2.4 0 2.4-2.4v-33.808q0-2.4-2.4-2.4h-7.7425q-2.4 0-2.4 2.4z" clip-path="url(#a)" fill="#fff" stroke="#fff"/>
<g clip-path="url(#a)">
<g transform="translate(114.48 553.25) rotate(90) scale(.08 -.08)">
<use xlink:href="#i"/>
<use x="44.083984" xlink:href="#f"/>
<use x="105.607422" xlink:href="#h"/>
<use x="144.970703" xlink:href="#l"/>
<use x="242.382812" xlink:href="#g"/>
<use x="270.166016" xlink:href="#j"/>
<use x="333.544922" xlink:href="#e"/>
<use x="394.824219" xlink:href="#k"/>
</g>
</g>
<path d="m134.3 553.25v33.808q0 2.4 2.4 2.4h7.7425q2.4 0 2.4-2.4v-33.808q0-2.4-2.4-2.4h-7.7425q-2.4 0-2.4 2.4z" clip-path="url(#a)" fill="#fff" stroke="#fff"/>
<g clip-path="url(#a)">
<g transform="translate(138.36 553.25) rotate(90) scale(.08 -.08)">
<use xlink:href="#i"/>
<use x="44.083984" xlink:href="#f"/>
<use x="105.607422" xlink:href="#h"/>
<use x="144.970703" xlink:href="#l"/>
<use x="242.382812" xlink:href="#g"/>
<use x="270.166016" xlink:href="#j"/>
<use x="333.544922" xlink:href="#e"/>
<use x="394.824219" xlink:href="#k"/>
</g>
</g>
<path d="m72.885 553.25v33.808q0 2.4 2.4 2.4h7.7425q2.4 0 2.4-2.4v-33.808q0-2.4-2.4-2.4h-7.7425q-2.4 0-2.4 2.4z" clip-path="url(#a)" fill="#fff" stroke="#fff"/>
<g clip-path="url(#a)">
<g transform="translate(76.949 553.25) rotate(90) scale(.08 -.08)">
<use xlink:href="#i"/>
<use x="44.083984" xlink:href="#f"/>
<use x="105.607422" xlink:href="#h"/>
<use x="144.970703" xlink:href="#l"/>
<use x="242.382812" xlink:href="#g"/>
<use x="270.166016" xlink:href="#j"/>
<use x="333.544922" xlink:href="#e"/>
<use x="394.824219" xlink:href="#k"/>
</g>
</g>
<path d="m89.944 553.25v33.808q0 2.4 2.4 2.4h7.7425q2.4 0 2.4-2.4v-33.808q0-2.4-2.4-2.4h-7.7425q-2.4 0-2.4 2.4z" clip-path="url(#a)" fill="#fff" stroke="#fff"/>
<g clip-path="url(#a)">
<g transform="translate(94.008 553.25) rotate(90) scale(.08 -.08)">
<use xlink:href="#i"/>
<use x="44.083984" xlink:href="#f"/>
<use x="105.607422" xlink:href="#h"/>
<use x="144.970703" xlink:href="#l"/>
<use x="242.382812" xlink:href="#g"/>
<use x="270.166016" xlink:href="#j"/>
<use x="333.544922" xlink:href="#e"/>
<use x="394.824219" xlink:href="#k"/>
</g>
</g>
<path d="m1154.5 553.25v33.808q0 2.4 2.4 2.4h7.7425q2.4 0 2.4-2.4v-33.808q0-2.4-2.4-2.4h-7.7425q-2.4 0-2.4 2.4z" clip-path="url(#a)" fill="#fff" stroke="#fff"/>
<g clip-path="url(#a)">
<g transform="translate(1158.5 553.25) rotate(90) scale(.08 -.08)">
<use xlink:href="#i"/>
<use x="44.083984" xlink:href="#f"/>
<use x="105.607422" xlink:href="#h"/>
<use x="144.970703" xlink:href="#l"/>
<use x="242.382812" xlink:href="#g"/>
<use x="270.166016" xlink:href="#j"/>
<use x="333.544922" xlink:href="#e"/>
<use x="394.824219" xlink:href="#k"/>
</g>
</g>
<defs>
<path id="b" d="m0 8.6603c2.2967 0 4.4997-0.9125 6.1237-2.5365 1.624-1.624 2.5365-3.827 2.5365-6.1237s-0.9125-4.4997-2.5365-6.1237c-1.624-1.624-3.827-2.5365-6.1237-2.5365s-4.4997 0.9125-6.1237 2.5365c-1.624 1.624-2.5365 3.827-2.5365 6.1237s0.9125 4.4997 2.5365 6.1237c1.624 1.624 3.827 2.5365 6.1237 2.5365z"/>
</defs>
<g clip-path="url(#a)" fill="#ffffff" stroke="#ffffff">
<use x="55.272727" y="610.909091" xlink:href="#b"/>
<use x="65.508418" y="610.909091" xlink:href="#b"/>
<use x="79.156004" y="610.909091" xlink:href="#b"/>
<use x="96.215488" y="610.909091" xlink:href="#b"/>
<use x="116.686869" y="610.909091" xlink:href="#b"/>
<use x="140.570146" y="610.909091" xlink:href="#b"/>
<use x="171.277217" y="610.909091" xlink:href="#b"/>
<use x="201.984287" y="610.909091" xlink:href="#b"/>
<use x="236.103255" y="610.909091" xlink:href="#b"/>
<use x="273.634119" y="610.909091" xlink:href="#b"/>
<use x="314.57688" y="610.909091" xlink:href="#b"/>
<use x="358.931538" y="610.909091" xlink:href="#b"/>
<use x="410.109989" y="610.909091" xlink:href="#b"/>
<use x="461.28844" y="610.909091" xlink:href="#b"/>
<use x="515.878788" y="610.909091" xlink:href="#b"/>
<use x="573.881033" y="610.909091" xlink:href="#b"/>
<use x="635.295174" y="610.909091" xlink:href="#b"/>
<use x="700.121212" y="610.909091" xlink:href="#b"/>
<use x="768.359147" y="610.909091" xlink:href="#b"/>
<use x="840.008979" y="610.909091" xlink:href="#b"/>
<use x="915.070707" y="610.909091" xlink:href="#b"/>
<use x="993.544332" y="610.909091" xlink:href="#b"/>
<use x="1075.429854" y="610.909091" xlink:href="#b"/>
<use x="1160.727273" y="610.909091" xlink:href="#b"/>
<use x="362.343434" y="446.74485" xlink:href="#b"/>
<use x="143.982043" y="446.74485" xlink:href="#b"/>
<use x="492.537082" y="29.090909" xlink:href="#b"/>
<use x="492.537082" y="112.975951" xlink:href="#b"/>
<use x="55.272727" y="529.393953" xlink:href="#b"/>
<use x="65.508418" y="529.393953" xlink:href="#b"/>
<use x="245.012096" y="196.720652" xlink:href="#b"/>
<use x="573.881033" y="529.393953" xlink:href="#b"/>
<use x="737.652076" y="446.74485" xlink:href="#b"/>
<use x="734.24018" y="446.74485" xlink:href="#b"/>
<use x="1036.193042" y="446.74485" xlink:href="#b"/>
<use x="915.070707" y="529.393953" xlink:href="#b"/>
<use x="993.544332" y="529.393953" xlink:href="#b"/>
<use x="1075.429854" y="529.393953" xlink:href="#b"/>
<use x="700.121212" y="529.393953" xlink:href="#b"/>
<use x="768.359147" y="529.393953" xlink:href="#b"/>
<use x="635.295174" y="529.393953" xlink:href="#b"/>
<use x="840.008979" y="529.393953" xlink:href="#b"/>
<use x="182.271106" y="280.296903" xlink:href="#b"/>
<use x="307.753086" y="363.662259" xlink:href="#b"/>
<use x="410.109989" y="529.393953" xlink:href="#b"/>
<use x="488.583614" y="446.74485" xlink:href="#b"/>
<use x="461.28844" y="529.393953" xlink:href="#b"/>
<use x="515.878788" y="529.393953" xlink:href="#b"/>
<use x="108.157127" y="363.662259" xlink:href="#b"/>
<use x="171.277217" y="529.393953" xlink:href="#b"/>
<use x="267.378975" y="363.662259" xlink:href="#b"/>
<use x="219.043771" y="446.74485" xlink:href="#b"/>
<use x="315.714179" y="446.74485" xlink:href="#b"/>
<use x="273.634119" y="529.393953" xlink:href="#b"/>
<use x="314.57688" y="529.393953" xlink:href="#b"/>
<use x="358.931538" y="529.393953" xlink:href="#b"/>
<use x="201.984287" y="529.393953" xlink:href="#b"/>
<use x="236.103255" y="529.393953" xlink:href="#b"/>
<use x="87.685746" y="446.74485" xlink:href="#b"/>
<use x="128.628507" y="446.74485" xlink:href="#b"/>
<use x="116.686869" y="529.393953" xlink:href="#b"/>
<use x="140.570146" y="529.393953" xlink:href="#b"/>
<use x="79.156004" y="529.393953" xlink:href="#b"/>
<use x="96.215488" y="529.393953" xlink:href="#b"/>
<use x="1160.727273" y="529.393953" xlink:href="#b"/>
</g>
<g clip-path="url(#a)">
<defs>
<path id="v" d="m9.8125 72.906h9.8594v-72.906h-9.8594z"/>
<path id="m" d="m18.312 70.219v-15.531h18.5v-6.9844h-18.5v-29.688q0-6.6875 1.8281-8.5938t7.4531-1.9062h9.2188v-7.5156h-9.2188q-10.406 0-14.359 3.875-3.9531 3.8906-3.9531 14.141v29.688h-6.5938v6.9844h6.5938v15.531z"/>
</defs>
<g transform="translate(51.838 613.67) scale(.1 -.1)">
<use xlink:href="#v"/>
<use x="29.492188" xlink:href="#m"/>
</g>
</g>
<g clip-path="url(#a)">
<defs>
<path id="x" d="m44.281 53.078v-8.5q-3.7969 1.9531-7.9062 2.9219-4.0938 0.98438-8.5 0.98438-6.6875 0-10.031-2.0469t-3.3438-6.1562q0-3.125 2.3906-4.9062t9.625-3.3906l3.0781-0.6875q9.5625-2.0469 13.594-5.7812t4.0312-10.422q0-7.625-6.0312-12.078-6.0312-4.4375-16.578-4.4375-4.3906 0-9.1562 0.85938t-10.031 2.5625v9.2812q4.9844-2.5938 9.8125-3.8906 4.8281-1.2812 9.5781-1.2812 6.3438 0 9.75 2.1719 3.4219 2.1719 3.4219 6.125 0 3.6562-2.4688 5.6094-2.4531 1.9531-10.812 3.7656l-3.125 0.73438q-8.3438 1.75-12.062 5.3906-3.7031 3.6406-3.7031 9.9844 0 7.7188 5.4688 11.906 5.4688 4.2031 15.531 4.2031 4.9688 0 9.3594-0.73438 4.4062-0.71875 8.1094-2.1875z"/>
</defs>
<g transform="translate(61.515 613.67) scale(.1 -.1)">
<use xlink:href="#g"/>
<use x="27.783203" xlink:href="#x"/>
</g>
</g>
<g clip-path="url(#a)">
<defs>
<path id="t" d="m54.891 33.016v-33.016h-8.9844v32.719q0 7.7656-3.0312 11.609-3.0312 3.8594-9.0781 3.8594-7.2812 0-11.484-4.6406-4.2031-4.625-4.2031-12.641v-30.906h-9.0312v75.984h9.0312v-29.797q3.2344 4.9375 7.5938 7.375 4.375 2.4375 10.094 2.4375 9.4219 0 14.25-5.8281 4.8438-5.8281 4.8438-17.156z"/>
</defs>
<g transform="translate(70.951 613.67) scale(.1 -.1)">
<use xlink:href="#m"/>
<use x="39.208984" xlink:href="#t"/>
<use x="102.587891" xlink:href="#f"/>
</g>
</g>
<g clip-path="url(#a)">
<defs>
<path id="s" d="m30.609 48.391q-7.2188 0-11.422-5.6406t-4.2031-15.453 4.1719-15.453q4.1875-5.6406 11.453-5.6406 7.1875 0 11.375 5.6562 4.2031 5.6719 4.2031 15.438 0 9.7188-4.2031 15.406-4.1875 5.6875-11.375 5.6875zm0 7.6094q11.719 0 18.406-7.625 6.7031-7.6094 6.7031-21.078 0-13.422-6.7031-21.078-6.6875-7.6406-18.406-7.6406-11.766 0-18.438 7.6406-6.6562 7.6562-6.6562 21.078 0 13.469 6.6562 21.078 6.6719 7.625 18.438 7.625z"/>
</defs>
<g transform="translate(73.408 613.67) scale(.1 -.1)">
<use xlink:href="#e"/>
<use x="61.279297" xlink:href="#m"/>
<use x="100.488281" xlink:href="#m"/>
<use x="139.697266" xlink:href="#f"/>
<use x="201.220703" xlink:href="#j"/>
<use x="264.599609" xlink:href="#m"/>
<use x="303.808594" xlink:href="#g"/>
<use x="331.591797" xlink:href="#s"/>
<use x="392.773438" xlink:href="#j"/>
</g>
</g>
<g clip-path="url(#a)">
<g transform="translate(111.67 613.67) scale(.1 -.1)">
<use xlink:href="#m"/>
<use x="39.208984" xlink:href="#s"/>
</g>
</g>
<g clip-path="url(#a)">
<defs>
<path id="ai" d="m45.406 46.391v29.594h8.9844v-75.984h-8.9844v8.2031q-2.8281-4.875-7.1562-7.25-4.3125-2.375-10.375-2.375-9.9062 0-16.141 7.9062-6.2188 7.9219-6.2188 20.812t6.2188 20.797q6.2344 7.9062 16.141 7.9062 6.0625 0 10.375-2.375 4.3281-2.3594 7.1562-7.2344zm-30.609-19.094q0-9.9062 4.0781-15.547t11.203-5.6406 11.219 5.6406q4.1094 5.6406 4.1094 15.547t-4.1094 15.547q-4.0938 5.6406-11.219 5.6406t-11.203-5.6406-4.0781-15.547z"/>
</defs>
<g transform="translate(126.52 613.67) scale(.1 -.1)">
<use xlink:href="#ai"/>
<use x="63.476562" xlink:href="#f"/>
<use x="125" xlink:href="#m"/>
<use x="164.208984" xlink:href="#e"/>
<use x="225.488281" xlink:href="#g"/>
<use x="253.271484" xlink:href="#k"/>
</g>
</g>
<g clip-path="url(#a)">
<g transform="translate(161.87 613.67) scale(.1 -.1)">
<use xlink:href="#e"/>
<use x="61.279297" xlink:href="#j"/>
<use x="124.658203" xlink:href="#ai"/>
</g>
</g>
<g clip-path="url(#a)">
<g transform="translate(193.78 613.67) scale(.1 -.1)">
<use xlink:href="#m"/>
<use x="39.208984" xlink:href="#t"/>
<use x="102.587891" xlink:href="#f"/>
</g>
</g>
<g clip-path="url(#a)">
<defs>
<path id="aq" d="m14.797 27.297q0-9.9062 4.0781-15.547t11.203-5.6406 11.219 5.6406q4.1094 5.6406 4.1094 15.547t-4.1094 15.547q-4.0938 5.6406-11.219 5.6406t-11.203-5.6406-4.0781-15.547zm30.609-19.094q-2.8281-4.875-7.1562-7.25-4.3125-2.375-10.375-2.375-9.9062 0-16.141 7.9062-6.2188 7.9219-6.2188 20.812t6.2188 20.797q6.2344 7.9062 16.141 7.9062 6.0625 0 10.375-2.375 4.3281-2.3594 7.1562-7.2344v8.2969h8.9844v-75.484h-8.9844z"/>
<path id="ah" d="m8.5 21.578v33.109h8.9844v-32.766q0-7.7656 3.0156-11.656 3.0312-3.875 9.0938-3.875 7.2656 0 11.484 4.6406 4.2344 4.6406 4.2344 12.656v31h8.9844v-54.688h-8.9844v8.4062q-3.2656-4.9844-7.5938-7.4062-4.3125-2.4219-10.031-2.4219-9.4219 0-14.312 5.8594-4.875 5.8594-4.875 17.141z"/>
<path id="ao" d="m32.172-5.0781q-3.7969-9.7656-7.4219-12.734-3.6094-2.9844-9.6562-2.9844h-7.1875v7.5156h5.2812q3.7031 0 5.75 1.7656 2.0625 1.75 4.5469 8.2969l1.6094 4.0938-22.109 53.812h9.5156l17.094-42.766 17.094 42.766h9.5156z"/>
</defs>
<g transform="translate(219 613.67) scale(.1 -.1)">
<use xlink:href="#aq"/>
<use x="63.476562" xlink:href="#ah"/>
<use x="126.855469" xlink:href="#e"/>
<use x="188.134766" xlink:href="#k"/>
<use x="215.917969" xlink:href="#g"/>
<use x="243.701172" xlink:href="#m"/>
<use x="282.910156" xlink:href="#ao"/>
</g>
</g>
<g clip-path="url(#a)">
<defs>
<path id="al" d="m37.109 75.984v-7.4844h-8.5938q-4.8281 0-6.7188-1.9531-1.875-1.9531-1.875-7.0312v-4.8281h14.797v-6.9844h-14.797v-47.703h-9.0312v47.703h-8.5938v6.9844h8.5938v3.8125q0 9.125 4.25 13.297 4.25 4.1875 13.469 4.1875z"/>
</defs>
<g transform="translate(268.81 613.67) scale(.1 -.1)">
<use xlink:href="#s"/>
<use x="61.181641" xlink:href="#al"/>
</g>
</g>
<g clip-path="url(#a)">
<g transform="translate(306.37 613.67) scale(.1 -.1)">
<use xlink:href="#m"/>
<use x="39.208984" xlink:href="#t"/>
<use x="102.587891" xlink:href="#f"/>
</g>
</g>
<g clip-path="url(#a)">
<defs>
<path id="ap" d="m4.2031 54.688h8.9844l11.234-42.672 11.172 42.672h10.594l11.234-42.672 11.188 42.672h8.9844l-14.312-54.688h-10.594l-11.766 44.828-11.812-44.828h-10.609z"/>
<path id="as" d="m9.0781 75.984h9.0312v-44.875l26.812 23.578h11.469l-29-25.578 30.234-29.109h-11.719l-27.797 26.703v-26.703h-9.0312z"/>
</defs>
<g transform="translate(346.83 613.67) scale(.1 -.1)">
<use xlink:href="#ap"/>
<use x="81.787109" xlink:href="#s"/>
<use x="142.96875" xlink:href="#h"/>
<use x="184.082031" xlink:href="#as"/>
</g>
</g>
<g clip-path="url(#a)">
<defs>
<path id="at" d="m45.406 27.984q0 9.7656-4.0312 15.125-4.0156 5.375-11.297 5.375-7.2188 0-11.25-5.375-4.0312-5.3594-4.0312-15.125 0-9.7188 4.0312-15.094t11.25-5.375q7.2812 0 11.297 5.375 4.0312 5.375 4.0312 15.094zm8.9844-21.203q0-13.953-6.2031-20.766-6.1875-6.8125-18.984-6.8125-4.7344 0-8.9375 0.70312t-8.1562 2.1719v8.7344q3.9531-2.1406 7.8125-3.1562 3.8594-1.0312 7.8594-1.0312 8.8438 0 13.234 4.6094t4.3906 13.938v4.4531q-2.7812-4.8438-7.125-7.2344t-10.406-2.3906q-10.047 0-16.203 7.6562-6.1562 7.6719-6.1562 20.328 0 12.688 6.1562 20.344 6.1562 7.6719 16.203 7.6719 6.0625 0 10.406-2.3906t7.125-7.2188v8.2969h8.9844z"/>
</defs>
<g transform="translate(393.61 613.67) scale(.1 -.1)">
<use xlink:href="#m"/>
<use x="39.208984" xlink:href="#e"/>
<use x="100.488281" xlink:href="#ah"/>
<use x="163.867188" xlink:href="#at"/>
<use x="227.34375" xlink:href="#t"/>
<use x="290.722656" xlink:href="#m"/>
</g>
</g>
<g clip-path="url(#a)">
<g transform="translate(456.26 613.67) scale(.1 -.1)">
<use xlink:href="#e"/>
<use x="61.279297" xlink:href="#m"/>
</g>
</g>
<g clip-path="url(#a)">
<g transform="translate(487.97 613.67) scale(.1 -.1)">
<use xlink:href="#i"/>
<use x="44.083984" xlink:href="#s"/>
<use x="105.265625" xlink:href="#l"/>
<use x="202.677734" xlink:href="#g"/>
<use x="230.460938" xlink:href="#u"/>
<use x="288.513672" xlink:href="#g"/>
<use x="316.296875" xlink:href="#k"/>
<use x="344.080078" xlink:href="#e"/>
<use x="405.359375" xlink:href="#m"/>
<use x="444.568359" xlink:href="#f"/>
<use x="506.091797" xlink:href="#x"/>
</g>
</g>
<g clip-path="url(#a)">
<g transform="translate(563.73 613.67) scale(.1 -.1)">
<use xlink:href="#m"/>
<use x="39.208984" xlink:href="#t"/>
<use x="102.587891" xlink:href="#e"/>
<use x="163.867188" xlink:href="#m"/>
</g>
</g>
<g clip-path="url(#a)">
<g transform="translate(625.05 613.67) scale(.1 -.1)">
<use xlink:href="#x"/>
<use x="52.099609" xlink:href="#f"/>
<use x="113.623047" xlink:href="#m"/>
<use x="152.832031" xlink:href="#x"/>
</g>
</g>
<g clip-path="url(#a)">
<g transform="translate(691 613.67) scale(.1 -.1)">
<use xlink:href="#m"/>
<use x="39.208984" xlink:href="#t"/>
<use x="102.587891" xlink:href="#g"/>
<use x="130.371094" xlink:href="#x"/>
</g>
</g>
<g clip-path="url(#a)">
<g transform="translate(753 613.67) scale(.1 -.1)">
<use xlink:href="#x"/>
<use x="52.099609" xlink:href="#m"/>
<use x="91.308594" xlink:href="#ah"/>
<use x="154.6875" xlink:href="#ai"/>
<use x="218.164062" xlink:href="#g"/>
<use x="245.947266" xlink:href="#s"/>
</g>
</g>
<g clip-path="url(#a)">
<defs>
<path id="ar" d="m18.109 8.2031v-29h-9.0312v75.484h9.0312v-8.2969q2.8438 4.875 7.1562 7.2344 4.3281 2.375 10.328 2.375 9.9688 0 16.188-7.9062 6.2344-7.9062 6.2344-20.797t-6.2344-20.812q-6.2188-7.9062-16.188-7.9062-6 0-10.328 2.375-4.3125 2.375-7.1562 7.25zm30.578 19.094q0 9.9062-4.0781 15.547t-11.203 5.6406q-7.1406 0-11.219-5.6406t-4.0781-15.547 4.0781-15.547 11.219-5.6406q7.125 0 11.203 5.6406t4.0781 15.547z"/>
</defs>
<g transform="translate(826.69 613.67) scale(.1 -.1)">
<use xlink:href="#e"/>
<use x="61.279297" xlink:href="#ar"/>
<use x="124.755859" xlink:href="#e"/>
<use x="186.035156" xlink:href="#h"/>
<use x="227.148438" xlink:href="#m"/>
</g>
</g>
<g clip-path="url(#a)">
<g transform="translate(903.44 613.67) scale(.1 -.1)">
<use xlink:href="#al"/>
<use x="35.205078" xlink:href="#h"/>
<use x="74.068359" xlink:href="#s"/>
<use x="135.25" xlink:href="#l"/>
</g>
</g>
<g clip-path="url(#a)">
<g transform="translate(985.34 613.67) scale(.1 -.1)">
<use xlink:href="#m"/>
<use x="39.208984" xlink:href="#t"/>
<use x="102.587891" xlink:href="#f"/>
</g>
</g>
<g clip-path="url(#a)">
<g transform="translate(1059.5 613.67) scale(.1 -.1)">
<use xlink:href="#s"/>
<use x="61.181641" xlink:href="#m"/>
<use x="100.390625" xlink:href="#t"/>
<use x="163.769531" xlink:href="#f"/>
<use x="225.292969" xlink:href="#h"/>
<use x="266.40625" xlink:href="#x"/>
</g>
</g>
<g clip-path="url(#a)">
<defs>
<path id="d" d="m10.688 12.406h10.312v-12.406h-10.312z"/>
</defs>
<g transform="translate(1159.1 613.67) scale(.1 -.1)">
<use xlink:href="#d"/>
</g>
</g>
<g clip-path="url(#a)">
<defs>
<path id="aj" d="m9.8125 72.906h14.703l18.594-49.609 18.703 49.609h14.703v-72.906h-9.625v64.016l-18.797-50h-9.9062l-18.797 50v-64.016h-9.5781z"/>
</defs>
<g transform="translate(341.26 449.5) scale(.1 -.1)">
<use xlink:href="#v"/>
<use x="29.492188" xlink:href="#aj"/>
<use x="115.771484" xlink:href="#u"/>
<use x="176.074219" xlink:href="#ad"/>
<use x="231.787109" xlink:href="#v"/>
<use x="261.279297" xlink:href="#p"/>
<use x="331.103516" xlink:href="#v"/>
<use x="360.595703" xlink:href="#i"/>
</g>
</g>
<g clip-path="url(#a)">
<g transform="translate(122.9 449.5) scale(.1 -.1)">
<use xlink:href="#v"/>
<use x="29.492188" xlink:href="#aj"/>
<use x="115.771484" xlink:href="#u"/>
<use x="176.074219" xlink:href="#ad"/>
<use x="231.787109" xlink:href="#v"/>
<use x="261.279297" xlink:href="#p"/>
<use x="331.103516" xlink:href="#v"/>
<use x="360.595703" xlink:href="#i"/>
</g>
</g>
<g clip-path="url(#a)">
<defs>
<path id="c" d="m12.406 8.2969h16.109v55.625l-17.531-3.5156v8.9844l17.438 3.5156h9.8594v-64.609h16.109v-8.2969h-41.984z"/>
</defs>
<g transform="translate(484.59 31.85) scale(.1 -.1)">
<use xlink:href="#c"/>
<use x="63.623047" xlink:href="#d"/>
<use x="95.410156" xlink:href="#c"/>
</g>
</g>
<g clip-path="url(#a)">
<defs>
<path id="n" d="m19.188 8.2969h34.422v-8.2969h-46.281v8.2969q5.6094 5.8125 15.297 15.594 9.7031 9.7969 12.188 12.641 4.7344 5.3125 6.6094 9 1.8906 3.6875 1.8906 7.25 0 5.8125-4.0781 9.4688-4.0781 3.6719-10.625 3.6719-4.6406 0-9.7969-1.6094-5.1406-1.6094-11-4.8906v9.9688q5.9531 2.3906 11.125 3.6094 5.1875 1.2188 9.4844 1.2188 11.328 0 18.062-5.6719 6.7344-5.6562 6.7344-15.125 0-4.5-1.6875-8.5312-1.6719-4.0156-6.125-9.4844-1.2188-1.4219-7.7656-8.1875-6.5312-6.7656-18.453-18.922z"/>
</defs>
<g transform="translate(484.59 115.74) scale(.1 -.1)">
<use xlink:href="#c"/>
<use x="63.623047" xlink:href="#d"/>
<use x="95.410156" xlink:href="#n"/>
</g>
</g>
<g clip-path="url(#a)">
<defs>
<path id="w" d="m37.797 64.312-24.906-38.922h24.906zm-2.5938 8.5938h12.406v-47.516h10.406v-8.2031h-10.406v-17.188h-9.8125v17.188h-32.906v9.5156z"/>
</defs>
<g transform="translate(47.321 532.15) scale(.1 -.1)">
<use xlink:href="#c"/>
<use x="63.623047" xlink:href="#d"/>
<use x="95.410156" xlink:href="#w"/>
</g>
</g>
<g clip-path="url(#a)">
<defs>
<path id="ag" d="m10.797 72.906h38.719v-8.3125h-29.688v-17.859q2.1406 0.73438 4.2812 1.0938 2.1562 0.35938 4.3125 0.35938 12.203 0 19.328-6.6875 7.1406-6.6875 7.1406-18.109 0-11.766-7.3281-18.297-7.3281-6.5156-20.656-6.5156-4.5938 0-9.3594 0.78125-4.75 0.78125-9.8281 2.3438v9.9219q4.3906-2.3906 9.0781-3.5625t9.9062-1.1719q8.4531 0 13.375 4.4375 4.9375 4.4375 4.9375 12.062 0 7.6094-4.9375 12.047-4.9219 4.4531-13.375 4.4531-3.9531 0-7.8906-0.875-3.9219-0.875-8.0156-2.7344z"/>
</defs>
<g transform="translate(57.557 532.15) scale(.1 -.1)">
<use xlink:href="#c"/>
<use x="63.623047" xlink:href="#d"/>
<use x="95.410156" xlink:href="#ag"/>
</g>
</g>
<g clip-path="url(#a)">
<defs>
<path id="ab" d="m33.016 40.375q-6.6406 0-10.531-4.5469-3.875-4.5312-3.875-12.438 0-7.8594 3.875-12.438 3.8906-4.5625 10.531-4.5625t10.516 4.5625q3.875 4.5781 3.875 12.438 0 7.9062-3.875 12.438-3.875 4.5469-10.516 4.5469zm19.578 30.922v-8.9844q-3.7188 1.75-7.5 2.6719-3.7812 0.9375-7.5 0.9375-9.7656 0-14.922-6.5938-5.1406-6.5938-5.875-19.922 2.875 4.25 7.2188 6.5156 4.3594 2.2656 9.5781 2.2656 10.984 0 17.359-6.6719 6.375-6.6562 6.375-18.125 0-11.234-6.6406-18.031-6.6406-6.7812-17.672-6.7812-12.656 0-19.344 9.6875-6.6875 9.7031-6.6875 28.109 0 17.281 8.2031 27.562t22.016 10.281q3.7188 0 7.5-0.73438t7.8906-2.1875z"/>
</defs>
<g transform="translate(237.06 199.48) scale(.1 -.1)">
<use xlink:href="#c"/>
<use x="63.623047" xlink:href="#d"/>
<use x="95.410156" xlink:href="#ab"/>
</g>
</g>
<g clip-path="url(#a)">
<defs>
<path id="af" d="m8.2031 72.906h46.875v-4.2031l-26.469-68.703h-10.297l24.906 64.594h-35.016z"/>
</defs>
<g transform="translate(565.93 532.15) scale(.1 -.1)">
<use xlink:href="#c"/>
<use x="63.623047" xlink:href="#d"/>
<use x="95.410156" xlink:href="#af"/>
</g>
</g>
<g clip-path="url(#a)">
<defs>
<path id="aa" d="m31.781 34.625q-7.0312 0-11.062-3.7656-4.0156-3.7656-4.0156-10.344 0-6.5938 4.0156-10.359 4.0312-3.7656 11.062-3.7656t11.078 3.7812q4.0625 3.7969 4.0625 10.344 0 6.5781-4.0312 10.344-4.0156 3.7656-11.109 3.7656zm-9.8594 4.1875q-6.3438 1.5625-9.8906 5.9062-3.5312 4.3594-3.5312 10.609 0 8.7344 6.2188 13.812 6.2344 5.0781 17.062 5.0781 10.891 0 17.094-5.0781t6.2031-13.812q0-6.25-3.5469-10.609-3.5312-4.3438-9.8281-5.9062 7.125-1.6562 11.094-6.5 3.9844-4.8281 3.9844-11.797 0-10.609-6.4688-16.281-6.4688-5.6562-18.531-5.6562-12.047 0-18.531 5.6562-6.4688 5.6719-6.4688 16.281 0 6.9688 4 11.797 4.0156 4.8438 11.141 6.5zm-3.6094 15.578q0-5.6562 3.5312-8.8281 3.5469-3.1719 9.9375-3.1719 6.3594 0 9.9375 3.1719 3.5938 3.1719 3.5938 8.8281 0 5.6719-3.5938 8.8438-3.5781 3.1719-9.9375 3.1719-6.3906 0-9.9375-3.1719-3.5312-3.1719-3.5312-8.8438z"/>
</defs>
<g transform="translate(729.7 449.5) scale(.1 -.1)">
<use xlink:href="#c"/>
<use x="63.623047" xlink:href="#d"/>
<use x="95.410156" xlink:href="#aa"/>
</g>
</g>
<g clip-path="url(#a)">
<defs>
<path id="z" d="m10.984 1.5156v8.9844q3.7188-1.7656 7.5156-2.6875 3.8125-0.92188 7.4844-0.92188 9.7656 0 14.906 6.5625 5.1562 6.5625 5.8906 19.953-2.8281-4.2031-7.1875-6.4531-4.3438-2.25-9.6094-2.25-10.938 0-17.312 6.6094-6.375 6.625-6.375 18.109 0 11.219 6.6406 18 6.6406 6.7969 17.672 6.7969 12.656 0 19.312-9.7031 6.6719-9.6875 6.6719-28.141 0-17.234-8.1875-27.516-8.1719-10.281-21.984-10.281-3.7188 0-7.5312 0.73438-3.7969 0.73438-7.9062 2.2031zm19.625 30.906q6.6406 0 10.516 4.5312 3.8906 4.5469 3.8906 12.469 0 7.8594-3.8906 12.422-3.875 4.5625-10.516 4.5625t-10.516-4.5625-3.875-12.422q0-7.9219 3.875-12.469 3.875-4.5312 10.516-4.5312z"/>
</defs>
<g transform="translate(726.29 449.5) scale(.1 -.1)">
<use xlink:href="#c"/>
<use x="63.623047" xlink:href="#d"/>
<use x="95.410156" xlink:href="#z"/>
</g>
</g>
<g clip-path="url(#a)">
<defs>
<path id="ac" d="m31.781 66.406q-7.6094 0-11.453-7.5-3.8281-7.4844-3.8281-22.531 0-14.984 3.8281-22.484 3.8438-7.5 11.453-7.5 7.6719 0 11.5 7.5 3.8438 7.5 3.8438 22.484 0 15.047-3.8438 22.531-3.8281 7.5-11.5 7.5zm0 7.8125q12.266 0 18.734-9.7031 6.4688-9.6875 6.4688-28.141 0-18.406-6.4688-28.109-6.4688-9.6875-18.734-9.6875-12.25 0-18.719 9.6875-6.4688 9.7031-6.4688 28.109 0 18.453 6.4688 28.141 6.4688 9.7031 18.719 9.7031z"/>
</defs>
<g transform="translate(1025.1 449.5) scale(.1 -.1)">
<use xlink:href="#c"/>
<use x="63.623047" xlink:href="#d"/>
<use x="95.410156" xlink:href="#c"/>
<use x="159.033203" xlink:href="#ac"/>
</g>
</g>
<g clip-path="url(#a)">
<g transform="translate(903.94 532.15) scale(.1 -.1)">
<use xlink:href="#c"/>
<use x="63.623047" xlink:href="#d"/>
<use x="95.410156" xlink:href="#c"/>
<use x="159.033203" xlink:href="#c"/>
</g>
</g>
<g clip-path="url(#a)">
<g transform="translate(982.41 532.15) scale(.1 -.1)">
<use xlink:href="#c"/>
<use x="63.623047" xlink:href="#d"/>
<use x="95.410156" xlink:href="#c"/>
<use x="159.033203" xlink:href="#n"/>
</g>
</g>
<g clip-path="url(#a)">
<defs>
<path id="o" d="m40.578 39.312q7.0781-1.5156 11.047-6.3125 3.9844-4.7812 3.9844-11.812 0-10.781-7.4219-16.703-7.4219-5.9062-21.094-5.9062-4.5781 0-9.4375 0.90625t-10.031 2.7188v9.5156q4.0938-2.3906 8.9688-3.6094 4.8906-1.2188 10.219-1.2188 9.2656 0 14.125 3.6562t4.8594 10.641q0 6.4531-4.5156 10.078-4.5156 3.6406-12.562 3.6406h-8.5v8.1094h8.8906q7.2656 0 11.125 2.9062t3.8594 8.375q0 5.6094-3.9844 8.6094-3.9688 3.0156-11.391 3.0156-4.0625 0-8.7031-0.89062-4.6406-0.875-10.203-2.7188v8.7812q5.625 1.5625 10.531 2.3438t9.25 0.78125q11.234 0 17.766-5.1094 6.5469-5.0938 6.5469-13.781 0-6.0625-3.4688-10.234t-9.8594-5.7812z"/>
</defs>
<g transform="translate(1064.3 532.15) scale(.1 -.1)">
<use xlink:href="#c"/>
<use x="63.623047" xlink:href="#d"/>
<use x="95.410156" xlink:href="#c"/>
<use x="159.033203" xlink:href="#o"/>
</g>
</g>
<g clip-path="url(#a)">
<g transform="translate(688.99 532.15) scale(.1 -.1)">
<use xlink:href="#c"/>
<use x="63.623047" xlink:href="#d"/>
<use x="95.410156" xlink:href="#c"/>
<use x="159.033203" xlink:href="#w"/>
</g>
</g>
<g clip-path="url(#a)">
<g transform="translate(757.23 532.15) scale(.1 -.1)">
<use xlink:href="#c"/>
<use x="63.623047" xlink:href="#d"/>
<use x="95.410156" xlink:href="#c"/>
<use x="159.033203" xlink:href="#ag"/>
</g>
</g>
<g clip-path="url(#a)">
<g transform="translate(624.16 532.15) scale(.1 -.1)">
<use xlink:href="#c"/>
<use x="63.623047" xlink:href="#d"/>
<use x="95.410156" xlink:href="#c"/>
<use x="159.033203" xlink:href="#ab"/>
</g>
</g>
<g clip-path="url(#a)">
<g transform="translate(828.88 532.15) scale(.1 -.1)">
<use xlink:href="#c"/>
<use x="63.623047" xlink:href="#d"/>
<use x="95.410156" xlink:href="#c"/>
<use x="159.033203" xlink:href="#af"/>
</g>
</g>
<g clip-path="url(#a)">
<g transform="translate(171.14 283.06) scale(.1 -.1)">
<use xlink:href="#c"/>
<use x="63.623047" xlink:href="#d"/>
<use x="95.410156" xlink:href="#c"/>
<use x="159.033203" xlink:href="#aa"/>
</g>
</g>
<g clip-path="url(#a)">
<g transform="translate(296.62 366.42) scale(.1 -.1)">
<use xlink:href="#c"/>
<use x="63.623047" xlink:href="#d"/>
<use x="95.410156" xlink:href="#c"/>
<use x="159.033203" xlink:href="#z"/>
</g>
</g>
<g clip-path="url(#a)">
<g transform="translate(398.98 532.15) scale(.1 -.1)">
<use xlink:href="#c"/>
<use x="63.623047" xlink:href="#d"/>
<use x="95.410156" xlink:href="#n"/>
<use x="159.033203" xlink:href="#ac"/>
</g>
</g>
<g clip-path="url(#a)">
<g transform="translate(477.45 449.5) scale(.1 -.1)">
<use xlink:href="#c"/>
<use x="63.623047" xlink:href="#d"/>
<use x="95.410156" xlink:href="#n"/>
<use x="159.033203" xlink:href="#c"/>
</g>
</g>
<g clip-path="url(#a)">
<g transform="translate(450.16 532.15) scale(.1 -.1)">
<use xlink:href="#c"/>
<use x="63.623047" xlink:href="#d"/>
<use x="95.410156" xlink:href="#n"/>
<use x="159.033203" xlink:href="#n"/>
</g>
</g>
<g clip-path="url(#a)">
<g transform="translate(504.75 532.15) scale(.1 -.1)">
<use xlink:href="#c"/>
<use x="63.623047" xlink:href="#d"/>
<use x="95.410156" xlink:href="#n"/>
<use x="159.033203" xlink:href="#o"/>
</g>
</g>
<g clip-path="url(#a)">
<g transform="translate(97.024 366.42) scale(.1 -.1)">
<use xlink:href="#c"/>
<use x="63.623047" xlink:href="#d"/>
<use x="95.410156" xlink:href="#n"/>
<use x="159.033203" xlink:href="#w"/>
</g>
</g>
<g clip-path="url(#a)">
<g transform="translate(160.14 532.15) scale(.1 -.1)">
<use xlink:href="#c"/>
<use x="63.623047" xlink:href="#d"/>
<use x="95.410156" xlink:href="#n"/>
<use x="159.033203" xlink:href="#ag"/>
</g>
</g>
<g clip-path="url(#a)">
<g transform="translate(256.25 366.42) scale(.1 -.1)">
<use xlink:href="#c"/>
<use x="63.623047" xlink:href="#d"/>
<use x="95.410156" xlink:href="#n"/>
<use x="159.033203" xlink:href="#ab"/>
</g>
</g>
<g clip-path="url(#a)">
<g transform="translate(207.91 449.5) scale(.1 -.1)">
<use xlink:href="#c"/>
<use x="63.623047" xlink:href="#d"/>
<use x="95.410156" xlink:href="#n"/>
<use x="159.033203" xlink:href="#aa"/>
</g>
</g>
<g clip-path="url(#a)">
<g transform="translate(304.58 449.5) scale(.1 -.1)">
<use xlink:href="#c"/>
<use x="63.623047" xlink:href="#d"/>
<use x="95.410156" xlink:href="#n"/>
<use x="159.033203" xlink:href="#z"/>
</g>
</g>
<g clip-path="url(#a)">
<g transform="translate(262.5 532.15) scale(.1 -.1)">
<use xlink:href="#c"/>
<use x="63.623047" xlink:href="#d"/>
<use x="95.410156" xlink:href="#o"/>
<use x="159.033203" xlink:href="#ac"/>
</g>
</g>
<g clip-path="url(#a)">
<g transform="translate(303.44 532.15) scale(.1 -.1)">
<use xlink:href="#c"/>
<use x="63.623047" xlink:href="#d"/>
<use x="95.410156" xlink:href="#o"/>
<use x="159.033203" xlink:href="#c"/>
</g>
</g>
<g clip-path="url(#a)">
<g transform="translate(347.8 532.15) scale(.1 -.1)">
<use xlink:href="#c"/>
<use x="63.623047" xlink:href="#d"/>
<use x="95.410156" xlink:href="#o"/>
<use x="159.033203" xlink:href="#n"/>
</g>
</g>
<g clip-path="url(#a)">
<g transform="translate(190.85 532.15) scale(.1 -.1)">
<use xlink:href="#c"/>
<use x="63.623047" xlink:href="#d"/>
<use x="95.410156" xlink:href="#o"/>
<use x="159.033203" xlink:href="#o"/>
</g>
</g>
<g clip-path="url(#a)">
<g transform="translate(224.97 532.15) scale(.1 -.1)">
<use xlink:href="#c"/>
<use x="63.623047" xlink:href="#d"/>
<use x="95.410156" xlink:href="#o"/>
<use x="159.033203" xlink:href="#w"/>
</g>
</g>
<g clip-path="url(#a)">
<g transform="translate(76.553 449.5) scale(.1 -.1)">
<use xlink:href="#c"/>
<use x="63.623047" xlink:href="#d"/>
<use x="95.410156" xlink:href="#o"/>
<use x="159.033203" xlink:href="#ab"/>
</g>
</g>
<g clip-path="url(#a)">
<g transform="translate(117.5 449.5) scale(.1 -.1)">
<use xlink:href="#c"/>
<use x="63.623047" xlink:href="#d"/>
<use x="95.410156" xlink:href="#o"/>
<use x="159.033203" xlink:href="#af"/>
</g>
</g>
<g clip-path="url(#a)">
<g transform="translate(105.55 532.15) scale(.1 -.1)">
<use xlink:href="#c"/>
<use x="63.623047" xlink:href="#d"/>
<use x="95.410156" xlink:href="#o"/>
<use x="159.033203" xlink:href="#aa"/>
</g>
</g>
<g clip-path="url(#a)">
<g transform="translate(129.44 532.15) scale(.1 -.1)">
<use xlink:href="#c"/>
<use x="63.623047" xlink:href="#d"/>
<use x="95.410156" xlink:href="#o"/>
<use x="159.033203" xlink:href="#z"/>
</g>
</g>
<g clip-path="url(#a)">
<g transform="translate(68.023 532.15) scale(.1 -.1)">
<use xlink:href="#c"/>
<use x="63.623047" xlink:href="#d"/>
<use x="95.410156" xlink:href="#w"/>
<use x="159.033203" xlink:href="#ac"/>
</g>
</g>
<g clip-path="url(#a)">
<g transform="translate(85.083 532.15) scale(.1 -.1)">
<use xlink:href="#c"/>
<use x="63.623047" xlink:href="#d"/>
<use x="95.410156" xlink:href="#w"/>
<use x="159.033203" xlink:href="#c"/>
</g>
</g>
<g clip-path="url(#a)">
<g transform="translate(1149.6 532.15) scale(.1 -.1)">
<use xlink:href="#c"/>
<use x="63.623047" xlink:href="#d"/>
<use x="95.410156" xlink:href="#w"/>
<use x="159.033203" xlink:href="#n"/>
</g>
</g>
<defs>
<clipPath id="a">
<rect width="1216" height="640"/>
</clipPath>
</defs>
</svg>
