<?xml version="1.0" encoding="UTF-8"?>
<!DOCTYPE svg  PUBLIC '-//W3C//DTD SVG 1.1//EN'  'http://www.w3.org/Graphics/SVG/1.1/DTD/svg11.dtd'>
<svg width="1469.3pt" height="773.33pt" version="1.1" viewBox="0 0 1469.3 773.33" xmlns="http://www.w3.org/2000/svg" xmlns:xlink="http://www.w3.org/1999/xlink">
<defs>
<style type="text/css">*{stroke-linecap:butt;stroke-linejoin:round;}</style>
</defs>
<path d="m0 773.33h1469.3v-773.33h-1469.3z" fill="#fff"/>
<g fill="none" stroke="#000">
<path d="m669.57 36.259-602.59 563.52" clip-path="url(#a)"/>
<path d="m669.57 36.259-522.01 426.22" clip-path="url(#a)"/>
<path d="m669.57 36.259-91.756 145.12" clip-path="url(#a)"/>
<path d="m669.57 36.259 173.81 145.12" clip-path="url(#a)"/>
<path d="m669.57 36.259 410.45 563.52" clip-path="url(#a)"/>
<path d="m669.57 36.259 590.03 145.12" clip-path="url(#a)"/>
<path d="m669.57 36.259 42.068 563.52" clip-path="url(#a)"/>
<path d="m66.983 599.78v137.3" clip-path="url(#a)"/>
<path d="m147.57 462.48-34.535 137.3" clip-path="url(#a)"/>
<path d="m147.57 462.48 34.535 137.3" clip-path="url(#a)"/>
<path d="m577.82 181.38 824.53 555.69" clip-path="url(#a)"/>
<path d="m577.82 181.38-326.65 418.4" clip-path="url(#a)"/>
<path d="m577.82 181.38-280.6 418.4" clip-path="url(#a)"/>
<path d="m577.82 181.38-188.51 281.1" clip-path="url(#a)"/>
<path d="m577.82 181.38-96.411 418.4" clip-path="url(#a)"/>
<path d="m577.82 181.38-50.364 418.4" clip-path="url(#a)"/>
<path d="m577.82 181.38 30.218 141.89" clip-path="url(#a)"/>
<path d="m577.82 181.38 87.777 418.4" clip-path="url(#a)"/>
<path d="m843.39 181.38-85.699 418.4" clip-path="url(#a)"/>
<path d="m843.39 181.38-39.652 418.4" clip-path="url(#a)"/>
<path d="m843.39 181.38 125.35 141.89" clip-path="url(#a)"/>
<path d="m1080 599.78v137.3" clip-path="url(#a)"/>
<path d="m1259.6 181.38-110.51 141.89" clip-path="url(#a)"/>
<path d="m1259.6 181.38-41.442 418.4" clip-path="url(#a)"/>
<path d="m1259.6 181.38 4.6047 418.4" clip-path="url(#a)"/>
<path d="m1259.6 181.38 50.652 418.4" clip-path="url(#a)"/>
<path d="m1259.6 181.38 96.699 418.4" clip-path="url(#a)"/>
<path d="m1149.1 323.27v139.21" clip-path="url(#a)"/>
<path d="m1218.2 599.78v137.3" clip-path="url(#a)"/>
<path d="m1264.2 599.78v137.3" clip-path="url(#a)"/>
<path d="m1310.3 599.78v137.3" clip-path="url(#a)"/>
<path d="m1149.1 462.48-23.024 137.3" clip-path="url(#a)"/>
<path d="m1149.1 462.48 23.024 137.3" clip-path="url(#a)"/>
<path d="m1126.1 599.78v137.3" clip-path="url(#a)"/>
<path d="m1172.1 599.78v137.3" clip-path="url(#a)"/>
<path d="m757.69 599.78v137.3" clip-path="url(#a)"/>
<path d="m803.74 599.78v137.3" clip-path="url(#a)"/>
<path d="m968.74 323.27-84.42 139.21" clip-path="url(#a)"/>
<path d="m968.74 323.27 19.186 276.51" clip-path="url(#a)"/>
<path d="m968.74 323.27 65.233 276.51" clip-path="url(#a)"/>
<path d="m884.32 462.48-34.535 137.3" clip-path="url(#a)"/>
<path d="m884.32 462.48 34.535 137.3" clip-path="url(#a)"/>
<path d="m987.93 599.78v137.3" clip-path="url(#a)"/>
<path d="m1034 599.78v137.3" clip-path="url(#a)"/>
<path d="m849.78 599.78v137.3" clip-path="url(#a)"/>
<path d="m918.86 599.78-23.024 137.3" clip-path="url(#a)"/>
<path d="m918.86 599.78 23.024 137.3" clip-path="url(#a)"/>
<path d="m251.17 599.78v137.3" clip-path="url(#a)"/>
<path d="m297.22 599.78v137.3" clip-path="url(#a)"/>
<path d="m389.31 462.48-46.047 137.3" clip-path="url(#a)"/>
<path d="m389.31 462.48v137.3" clip-path="url(#a)"/>
<path d="m389.31 462.48 46.047 137.3" clip-path="url(#a)"/>
<path d="m481.41 599.78v137.3" clip-path="url(#a)"/>
<path d="m527.45 599.78v137.3" clip-path="url(#a)"/>
<path d="m608.04 323.27-11.512 139.21" clip-path="url(#a)"/>
<path d="m608.04 323.27 11.512 276.51" clip-path="url(#a)"/>
<path d="m665.6 599.78v137.3" clip-path="url(#a)"/>
<path d="m596.53 462.48 23.024 137.3" clip-path="url(#a)" stroke-dasharray="3.7,1.6"/>
<path d="m596.53 462.48-23.024 137.3" clip-path="url(#a)"/>
<path d="m619.55 599.78v137.3" clip-path="url(#a)"/>
<path d="m573.5 599.78v137.3" clip-path="url(#a)"/>
<path d="m343.27 599.78v137.3" clip-path="url(#a)"/>
<path d="m389.31 599.78v137.3" clip-path="url(#a)"/>
<path d="m435.36 599.78v137.3" clip-path="url(#a)"/>
<path d="m113.03 599.78v137.3" clip-path="url(#a)"/>
<path d="m182.1 599.78-23.024 137.3" clip-path="url(#a)"/>
<path d="m182.1 599.78 23.024 137.3" clip-path="url(#a)"/>
<path d="m711.64 599.78v137.3" clip-path="url(#a)"/>
<path d="m1356.3 599.78v137.3" clip-path="url(#a)"/>
</g>
<path d="m370.93 324.12 3.2557-3.0446q1.7529-1.6393 0.11366-3.3922l-5.2884-5.655q-1.6393-1.7529-3.3922-0.11367l-3.2557 3.0446q-1.7529 1.6393-0.11367 3.3922l5.2884 5.655q1.6393 1.7529 3.3922 0.11366z" clip-path="url(#a)" fill="#fff" stroke="#fff"/>
<g clip-path="url(#a)">
<defs>
<path id="af" d="m9.8125 72.906h9.8594v-64.609h35.5v-8.2969h-45.359z"/>
</defs>
<g transform="translate(368.16 321.15) rotate(-43.081) scale(.08 -.08)">
<use xlink:href="#af"/>
</g>
</g>
<path d="m410.21 256.13 4.6602-3.805q1.859-1.5179 0.34114-3.3769l-4.8968-5.9973q-1.5179-1.859-3.3769-0.34114l-4.6602 3.805q-1.859 1.5179-0.34114 3.3769l4.8968 5.9973q1.5179 1.859 3.3769 0.34114z" clip-path="url(#a)" fill="#fff" stroke="#fff"/>
<g clip-path="url(#a)">
<defs>
<path id="y" d="m9.8125 72.906h9.8594v-29.891h35.844v29.891h9.8594v-72.906h-9.8594v34.719h-35.844v-34.719h-9.8594z"/>
</defs>
<g transform="translate(407.64 252.98) rotate(-39.232) scale(.08 -.08)">
<use xlink:href="#y"/>
</g>
</g>
<path d="m627.39 114.71 3.2151-5.0851q1.2826-2.0285-0.74596-3.3111l-6.5442-4.1377q-2.0285-1.2826-3.3111 0.74596l-3.2151 5.0851q-1.2826 2.0285 0.74596 3.3111l6.5442 4.1377q2.0285 1.2826 3.3111-0.74596z" clip-path="url(#a)" fill="#fff" stroke="#fff"/>
<g clip-path="url(#a)">
<g transform="translate(623.96 112.54) rotate(-57.696) scale(.08 -.08)">
<use xlink:href="#y"/>
</g>
</g>
<path d="m750.15 111.71 4.6182 3.8558q1.8423 1.5382 3.3805-0.30412l4.9622-5.9433q1.5382-1.8423-0.30411-3.3805l-4.6182-3.8558q-1.8423-1.5382-3.3805 0.30411l-4.9622 5.9433q-1.5382 1.8423 0.30411 3.3805z" clip-path="url(#a)" fill="#fff" stroke="#fff"/>
<g clip-path="url(#a)">
<g transform="translate(752.76 108.59) rotate(39.859) scale(.08 -.08)">
<use xlink:href="#y"/>
</g>
</g>
<path d="m868.42 319.91 2.6243 3.6031q1.413 1.94 3.353 0.52697l6.2584-4.5584q1.94-1.413 0.52697-3.353l-2.6243-3.6031q-1.413-1.94-3.353-0.52697l-6.2584 4.5584q-1.94 1.413-0.52697 3.353z" clip-path="url(#a)" fill="#fff" stroke="#fff"/>
<g clip-path="url(#a)">
<g transform="translate(871.7 317.52) rotate(53.932) scale(.08 -.08)">
<use xlink:href="#af"/>
</g>
</g>
<path d="m960.17 114.19 5.8421 1.4369q2.3305 0.57321 2.9038-1.7573l1.8492-7.5184q0.57321-2.3305-1.7573-2.9038l-5.8421-1.4369q-2.3305-0.57321-2.9038 1.7573l-1.8492 7.5184q-0.57321 2.3305 1.7573 2.9038z" clip-path="url(#a)" fill="#fff" stroke="#fff"/>
<g clip-path="url(#a)">
<g transform="translate(961.14 110.24) rotate(13.818) scale(.08 -.08)">
<use xlink:href="#y"/>
</g>
</g>
<path d="m684.14 315.56 0.43588 5.8388q0.17867 2.3933 2.572 2.2147l7.721-0.5764q2.3933-0.17867 2.2147-2.572l-0.43588-5.8388q-0.17867-2.3933-2.572-2.2147l-7.721 0.5764q-2.3933 0.17867-2.2147 2.572z" clip-path="url(#a)" fill="#fff" stroke="#fff"/>
<g clip-path="url(#a)">
<defs>
<path id="am" d="m8.6875 72.906h9.9219v-44.297q0-11.719 4.2344-16.875 4.25-5.1406 13.781-5.1406 9.4688 0 13.719 5.1406 4.25 5.1562 4.25 16.875v44.297h9.9062v-45.516q0-14.25-7.0625-21.531-7.0469-7.2812-20.812-7.2812-13.828 0-20.891 7.2812-7.0469 7.2812-7.0469 21.531z"/>
</defs>
<g transform="translate(688.19 315.26) rotate(85.731) scale(.08 -.08)">
<use xlink:href="#am"/>
</g>
</g>
<path d="m60.712 650.78v35.285q0 2.4 2.4 2.4h7.7425q2.4 0 2.4-2.4v-35.285q0-2.4-2.4-2.4h-7.7425q-2.4 0-2.4 2.4z" clip-path="url(#a)" fill="#fff" stroke="#fff"/>
<g clip-path="url(#a)">
<defs>
<path id="l" d="m-0.29688 72.906h61.672v-8.3125h-25.875v-64.594h-9.9062v64.594h-25.891z"/>
<path id="d" d="m56.203 29.594v-4.3906h-41.312q0.59375-9.2812 5.5938-14.141t13.938-4.8594q5.1719 0 10.031 1.2656t9.6562 3.8125v-8.5q-4.8438-2.0469-9.9219-3.125t-10.297-1.0781q-13.094 0-20.734 7.6094-7.6406 7.625-7.6406 20.625 0 13.422 7.25 21.297 7.25 7.8906 19.562 7.8906 11.031 0 17.453-7.1094 6.4219-7.0938 6.4219-19.297zm-8.9844 2.6406q-0.09375 7.3594-4.125 11.75-4.0312 4.4062-10.672 4.4062-7.5156 0-12.031-4.25t-5.2031-11.969z"/>
<path id="i" d="m41.109 46.297q-1.5156 0.875-3.2969 1.2812-1.7812 0.42188-3.9219 0.42188-7.625 0-11.703-4.9531t-4.0781-14.234v-28.812h-9.0312v54.688h9.0312v-8.5q2.8438 4.9844 7.375 7.3906 4.5469 2.4219 11.047 2.4219 0.92188 0 2.0469-0.125 1.125-0.10938 2.4844-0.35938z"/>
<path id="k" d="m52 44.188q3.375 6.0625 8.0625 8.9375t11.031 2.875q8.5469 0 13.188-5.9844 4.6406-5.9688 4.6406-17v-33.016h-9.0312v32.719q0 7.8594-2.7969 11.656-2.7812 3.8125-8.4844 3.8125-6.9844 0-11.047-4.6406-4.0469-4.625-4.0469-12.641v-30.906h-9.0312v32.719q0 7.9062-2.7812 11.688t-8.5938 3.7812q-6.8906 0-10.953-4.6562-4.0469-4.6562-4.0469-12.625v-30.906h-9.0312v54.688h9.0312v-8.5q3.0781 5.0312 7.375 7.4219t10.203 2.3906q5.9688 0 10.141-3.0312 4.1719-3.0156 6.1719-8.7812z"/>
<path id="h" d="m9.4219 54.688h8.9844v-54.688h-8.9844zm0 21.297h8.9844v-11.391h-8.9844z"/>
<path id="j" d="m54.891 33.016v-33.016h-8.9844v32.719q0 7.7656-3.0312 11.609-3.0312 3.8594-9.0781 3.8594-7.2812 0-11.484-4.6406-4.2031-4.625-4.2031-12.641v-30.906h-9.0312v54.688h9.0312v-8.5q3.2344 4.9375 7.5938 7.375 4.375 2.4375 10.094 2.4375 9.4219 0 14.25-5.8281 4.8438-5.8281 4.8438-17.156z"/>
<path id="g" d="m34.281 27.484q-10.891 0-15.094-2.4844t-4.2031-8.5q0-4.7812 3.1562-7.5938 3.1562-2.7969 8.5625-2.7969 7.4844 0 12 5.2969t4.5156 14.078v2zm17.922 3.7188v-31.203h-8.9844v8.2969q-3.0781-4.9688-7.6719-7.3438t-11.234-2.375q-8.3906 0-13.359 4.7188-4.9531 4.7188-4.9531 12.625 0 9.2188 6.1719 13.906 6.1875 4.6875 18.438 4.6875h12.609v0.89062q0 6.2031-4.0781 9.5938t-11.453 3.3906q-4.6875 0-9.1406-1.125-4.4375-1.125-8.5312-3.375v8.3125q4.9219 1.9062 9.5625 2.8438 4.6406 0.95312 9.0312 0.95312 11.875 0 17.734-6.1562 5.8594-6.1406 5.8594-18.641z"/>
<path id="f" d="m9.4219 75.984h8.9844v-75.984h-8.9844z"/>
</defs>
<g transform="translate(64.776 650.78) rotate(90) scale(.08 -.08)">
<use xlink:href="#l"/>
<use x="60.818359" xlink:href="#d"/>
<use x="122.341797" xlink:href="#i"/>
<use x="163.439453" xlink:href="#k"/>
<use x="260.851562" xlink:href="#h"/>
<use x="288.634766" xlink:href="#j"/>
<use x="352.013672" xlink:href="#g"/>
<use x="413.292969" xlink:href="#f"/>
</g>
</g>
<path d="m135.71 535.31 1.3349-5.3072q0.58545-2.3275-1.7421-2.9129l-7.5086-1.8887q-2.3275-0.58545-2.9129 1.7421l-1.3349 5.3072q-0.58545 2.3275 1.7421 2.9129l7.5086 1.8887q2.3275 0.58545 2.9129-1.7421z" clip-path="url(#a)" fill="#fff" stroke="#fff"/>
<g clip-path="url(#a)">
<defs>
<path id="q" d="m34.188 63.188-13.391-36.281h26.812zm-5.5781 9.7188h11.188l27.781-72.906h-10.25l-6.6406 18.703h-32.859l-6.6406-18.703h-10.406z"/>
</defs>
<g transform="translate(131.77 534.32) rotate(-75.881) scale(.08 -.08)">
<use xlink:href="#q"/>
</g>
</g>
<path d="m158.16 530.32 1.1767 4.678q0.58545 2.3275 2.9129 1.7421l7.5086-1.8887q2.3275-0.58545 1.7421-2.9129l-1.1767-4.678q-0.58545-2.3275-2.9129-1.7421l-7.5086 1.8887q-2.3275 0.58545-1.7421 2.9129z" clip-path="url(#a)" fill="#fff" stroke="#fff"/>
<g clip-path="url(#a)">
<defs>
<path id="s" d="m19.672 64.797v-27.391h12.406q6.8906 0 10.641 3.5625 3.7656 3.5625 3.7656 10.156 0 6.5469-3.7656 10.109-3.75 3.5625-10.641 3.5625zm-9.8594 8.1094h22.266q12.266 0 18.531-5.5469 6.2812-5.5469 6.2812-16.234 0-10.797-6.2812-16.312-6.2656-5.5156-18.531-5.5156h-12.406v-29.297h-9.8594z"/>
</defs>
<g transform="translate(162.1 529.33) rotate(75.881) scale(.08 -.08)">
<use xlink:href="#s"/>
</g>
</g>
<path d="m984.31 462.9 4.5381 3.0584q1.9902 1.3413 3.3315-0.6489l4.3271-6.4205q1.3413-1.9902-0.6489-3.3315l-4.5381-3.0584q-1.9902-1.3413-3.3315 0.6489l-4.3271 6.4205q-1.3413 1.9902 0.6489 3.3315z" clip-path="url(#a)" fill="#fff" stroke="#fff"/>
<g clip-path="url(#a)">
<g transform="translate(986.58 459.53) rotate(33.978) scale(.08 -.08)">
<use xlink:href="#q"/>
</g>
</g>
<path d="m418.02 396.25 2.8315-3.6268q1.4769-1.8918-0.41484-3.3687l-6.1029-4.7646q-1.8918-1.4769-3.3687 0.41484l-2.8315 3.6268q-1.4769 1.8918 0.41484 3.3687l6.1029 4.7646q1.8918 1.4769 3.3687-0.41484z" clip-path="url(#a)" fill="#fff" stroke="#fff"/>
<g clip-path="url(#a)">
<defs>
<path id="u" d="m9.8125 72.906h41.891v-8.3125h-32.031v-21.484h28.906v-8.2969h-28.906v-34.812h-9.8594z"/>
</defs>
<g transform="translate(414.82 393.75) rotate(-52.02) scale(.08 -.08)">
<use xlink:href="#u"/>
</g>
</g>
<path d="m441.45 395.98 2.5629-3.8214q1.3368-1.9932-0.65646-3.33l-6.4303-4.3125q-1.9932-1.3368-3.33 0.65646l-2.5629 3.8214q-1.3368 1.9932 0.65646 3.33l6.4303 4.3125q1.9932 1.3368 3.33-0.65646z" clip-path="url(#a)" fill="#fff" stroke="#fff"/>
<g clip-path="url(#a)">
<g transform="translate(438.07 393.72) rotate(-56.152) scale(.08 -.08)">
<use xlink:href="#u"/>
</g>
</g>
<path d="m487.06 327.98 3.4309-5.1161q1.3367-1.9933-0.65658-3.33l-6.4304-4.3123q-1.9933-1.3367-3.33 0.65658l-3.4309 5.1161q-1.3367 1.9933 0.65658 3.33l6.4304 4.3123q1.9933 1.3367 3.33-0.65658z" clip-path="url(#a)" fill="#fff" stroke="#fff"/>
<g clip-path="url(#a)">
<defs>
<path id="ah" d="m19.672 64.797v-56.688h11.922q15.094 0 22.094 6.8281 7 6.8438 7 21.594 0 14.641-7 21.453t-22.094 6.8125zm-9.8594 8.1094h20.266q21.188 0 31.094-8.8125 9.9219-8.8125 9.9219-27.562 0-18.859-9.9688-27.703-9.9531-8.8281-31.047-8.8281h-20.266z"/>
</defs>
<g transform="translate(483.68 325.72) rotate(-56.154) scale(.08 -.08)">
<use xlink:href="#ah"/>
</g>
</g>
<path d="m535.21 394.23 1.0332-4.4838q0.53891-2.3387-1.7998-2.8776l-7.5448-1.7385q-2.3387-0.53891-2.8776 1.7998l-1.0332 4.4838q-0.53891 2.3387 1.7998 2.8776l7.5448 1.7385q2.3387 0.53891 2.8776-1.7998z" clip-path="url(#a)" fill="#fff" stroke="#fff"/>
<g clip-path="url(#a)">
<g transform="translate(531.25 393.32) rotate(-77.024) scale(.08 -.08)">
<use xlink:href="#u"/>
</g>
</g>
<path d="m558.49 394.39 0.73619-6.1158q0.28683-2.3828-2.096-2.6696l-7.687-0.92532q-2.3828-0.28683-2.6696 2.096l-0.73619 6.1158q-0.28683 2.3828 2.096 2.6696l7.687 0.92532q2.3828 0.28683 2.6696-2.096z" clip-path="url(#a)" fill="#fff" stroke="#fff"/>
<g clip-path="url(#a)">
<g transform="translate(554.46 393.9) rotate(-83.136) scale(.08 -.08)">
<use xlink:href="#ah"/>
</g>
</g>
<path d="m586.22 250.96 1.1399 5.3525q0.49992 2.3474 2.8473 1.8474l7.5727-1.6128q2.3474-0.49992 1.8474-2.8473l-1.1399-5.3525q-0.49992-2.3474-2.8473-1.8474l-7.5727 1.6128q-2.3474 0.49992-1.8474 2.8473z" clip-path="url(#a)" fill="#fff" stroke="#fff"/>
<g clip-path="url(#a)">
<g transform="translate(590.2 250.11) rotate(77.977) scale(.08 -.08)">
<use xlink:href="#q"/>
</g>
</g>
<path d="m615.07 389.51 0.99044 4.721q0.49278 2.3489 2.8416 1.8561l7.5775-1.5897q2.3489-0.49278 1.8561-2.8416l-0.99044-4.721q-0.49278-2.3489-2.8416-1.8561l-7.5775 1.5897q-2.3489 0.49278-1.8561 2.8416z" clip-path="url(#a)" fill="#fff" stroke="#fff"/>
<g clip-path="url(#a)">
<g transform="translate(619.05 388.67) rotate(78.151) scale(.08 -.08)">
<use xlink:href="#s"/>
</g>
</g>
<path d="m806.22 394.09 0.92329-4.5077q0.48159-2.3512-1.8696-2.8328l-7.585-1.5536q-2.3512-0.48159-2.8328 1.8696l-0.92329 4.5077q-0.48159 2.3512 1.8696 2.8328l7.585 1.5536q2.3512 0.48159 2.8328-1.8696z" clip-path="url(#a)" fill="#fff" stroke="#fff"/>
<g clip-path="url(#a)">
<g transform="translate(802.24 393.28) rotate(-78.424) scale(.08 -.08)">
<use xlink:href="#u"/>
</g>
</g>
<path d="m829.58 393.57 0.45511-4.8022q0.22644-2.3893-2.1629-2.6157l-7.708-0.73049q-2.3893-0.22644-2.6157 2.1629l-0.45511 4.8022q-0.22644 2.3893 2.1629 2.6157l7.708 0.73049q2.3893 0.22644 2.6157-2.1629z" clip-path="url(#a)" fill="#fff" stroke="#fff"/>
<g clip-path="url(#a)">
<g transform="translate(825.53 393.19) rotate(-84.586) scale(.08 -.08)">
<use xlink:href="#s"/>
</g>
</g>
<path d="m899.55 254.43 3.6232 4.1013q1.589 1.7986 3.3876 0.20965l5.8025-5.1262q1.7986-1.589 0.20965-3.3876l-3.6232-4.1013q-1.589-1.7986-3.3876-0.20965l-5.8025 5.1262q-1.7986 1.589-0.20965 3.3876z" clip-path="url(#a)" fill="#fff" stroke="#fff"/>
<g clip-path="url(#a)">
<g transform="translate(902.6 251.74) rotate(48.541) scale(.08 -.08)">
<use xlink:href="#q"/>
</g>
</g>
<path d="m1073.7 650.78v35.285q0 2.4 2.4 2.4h7.7425q2.4 0 2.4-2.4v-35.285q0-2.4-2.4-2.4h-7.7425q-2.4 0-2.4 2.4z" clip-path="url(#a)" fill="#fff" stroke="#fff"/>
<g clip-path="url(#a)">
<g transform="translate(1077.8 650.78) rotate(90) scale(.08 -.08)">
<use xlink:href="#l"/>
<use x="60.818359" xlink:href="#d"/>
<use x="122.341797" xlink:href="#i"/>
<use x="163.439453" xlink:href="#k"/>
<use x="260.851562" xlink:href="#h"/>
<use x="288.634766" xlink:href="#j"/>
<use x="352.013672" xlink:href="#g"/>
<use x="413.292969" xlink:href="#f"/>
</g>
</g>
<path d="m1207.6 258.34 3.3627-4.3174q1.4747-1.8934-0.4187-3.3682l-6.1083-4.7576q-1.8934-1.4747-3.3682 0.4187l-3.3627 4.3174q-1.4747 1.8934 0.4187 3.3682l6.1083 4.7576q1.8934 1.4747 3.3682-0.4187z" clip-path="url(#a)" fill="#fff" stroke="#fff"/>
<g clip-path="url(#a)">
<g transform="translate(1204.4 255.84) rotate(-52.086) scale(.08 -.08)">
<use xlink:href="#q"/>
</g>
</g>
<path d="m1244.9 393.49 0.45354-4.5788q0.23656-2.3883-2.1517-2.6249l-7.7048-0.76316q-2.3883-0.23656-2.6249 2.1517l-0.45354 4.5788q-0.23656 2.3883 2.1517 2.6249l7.7048 0.76317q2.3883 0.23656 2.6249-2.1517z" clip-path="url(#a)" fill="#fff" stroke="#fff"/>
<g clip-path="url(#a)">
<g transform="translate(1240.9 393.09) rotate(-84.343) scale(.08 -.08)">
<use xlink:href="#u"/>
</g>
</g>
<path d="m1255.6 387.57 0.06779 6.1596q0.026412 2.3999 2.4263 2.3734l7.742-0.085206q2.3999-0.026412 2.3734-2.4263l-0.067791-6.1596q-0.026412-2.3999-2.4263-2.3734l-7.742 0.085206q-2.3999 0.026411-2.3734 2.4263z" clip-path="url(#a)" fill="#fff" stroke="#fff"/>
<g clip-path="url(#a)">
<g transform="translate(1259.7 387.52) rotate(89.369) scale(.08 -.08)">
<use xlink:href="#ah"/>
</g>
</g>
<path d="m1278.4 388.94 0.57974 4.7888q0.28844 2.3826 2.671 2.0942l7.6864-0.93053q2.3826-0.28844 2.0942-2.671l-0.57974-4.7888q-0.28844-2.3826-2.671-2.0942l-7.6864 0.93053q-2.3826 0.28844-2.0942 2.671z" clip-path="url(#a)" fill="#fff" stroke="#fff"/>
<g clip-path="url(#a)">
<g transform="translate(1282.4 388.45) rotate(83.097) scale(.08 -.08)">
<use xlink:href="#s"/>
</g>
</g>
<path d="m1301.2 389.14 1.3184 5.7046q0.54044 2.3384 2.8788 1.7979l7.5436-1.7435q2.3384-0.54044 1.7979-2.8788l-1.3184-5.7046q-0.54044-2.3384-2.8788-1.7979l-7.5436 1.7435q-2.3384 0.54044-1.7979 2.8788z" clip-path="url(#a)" fill="#fff" stroke="#fff"/>
<g clip-path="url(#a)">
<g transform="translate(1305.1 388.22) rotate(76.986) scale(.08 -.08)">
<use xlink:href="#am"/>
</g>
</g>
<path d="m1142.8 390.46v4.8238q0 2.4 2.4 2.4h7.7425q2.4 0 2.4-2.4v-4.8238q0-2.4-2.4-2.4h-7.7425q-2.4 0-2.4 2.4z" clip-path="url(#a)" fill="#fff" stroke="#fff"/>
<g clip-path="url(#a)">
<g transform="translate(1146.9 390.46) rotate(90) scale(.08 -.08)">
<use xlink:href="#s"/>
</g>
</g>
<path d="m1211.9 650.78v35.285q0 2.4 2.4 2.4h7.7425q2.4 0 2.4-2.4v-35.285q0-2.4-2.4-2.4h-7.7425q-2.4 0-2.4 2.4z" clip-path="url(#a)" fill="#fff" stroke="#fff"/>
<g clip-path="url(#a)">
<g transform="translate(1216 650.78) rotate(90) scale(.08 -.08)">
<use xlink:href="#l"/>
<use x="60.818359" xlink:href="#d"/>
<use x="122.341797" xlink:href="#i"/>
<use x="163.439453" xlink:href="#k"/>
<use x="260.851562" xlink:href="#h"/>
<use x="288.634766" xlink:href="#j"/>
<use x="352.013672" xlink:href="#g"/>
<use x="413.292969" xlink:href="#f"/>
</g>
</g>
<path d="m1257.9 650.78v35.285q0 2.4 2.4 2.4h7.7425q2.4 0 2.4-2.4v-35.285q0-2.4-2.4-2.4h-7.7425q-2.4 0-2.4 2.4z" clip-path="url(#a)" fill="#fff" stroke="#fff"/>
<g clip-path="url(#a)">
<g transform="translate(1262 650.78) rotate(90) scale(.08 -.08)">
<use xlink:href="#l"/>
<use x="60.818359" xlink:href="#d"/>
<use x="122.341797" xlink:href="#i"/>
<use x="163.439453" xlink:href="#k"/>
<use x="260.851562" xlink:href="#h"/>
<use x="288.634766" xlink:href="#j"/>
<use x="352.013672" xlink:href="#g"/>
<use x="413.292969" xlink:href="#f"/>
</g>
</g>
<path d="m1304 650.78v35.285q0 2.4 2.4 2.4h7.7425q2.4 0 2.4-2.4v-35.285q0-2.4-2.4-2.4h-7.7425q-2.4 0-2.4 2.4z" clip-path="url(#a)" fill="#fff" stroke="#fff"/>
<g clip-path="url(#a)">
<g transform="translate(1308 650.78) rotate(90) scale(.08 -.08)">
<use xlink:href="#l"/>
<use x="60.818359" xlink:href="#d"/>
<use x="122.341797" xlink:href="#i"/>
<use x="163.439453" xlink:href="#k"/>
<use x="260.851562" xlink:href="#h"/>
<use x="288.634766" xlink:href="#j"/>
<use x="352.013672" xlink:href="#g"/>
<use x="413.292969" xlink:href="#f"/>
</g>
</g>
<path d="m1143.3 534.66 0.836-4.9854q0.39691-2.367-1.97-2.7639l-7.6359-1.2805q-2.367-0.39691-2.7639 1.97l-0.836 4.9854q-0.39691 2.367 1.97 2.7639l7.6359 1.2805q2.367 0.39691 2.7639-1.97z" clip-path="url(#a)" fill="#fff" stroke="#fff"/>
<g clip-path="url(#a)">
<defs>
<path id="v" d="m9.8125 72.906h46.094v-8.3125h-36.234v-21.578h34.719v-8.2969h-34.719v-26.422h37.109v-8.2969h-46.969z"/>
</defs>
<g transform="translate(1139.3 533.98) rotate(-80.481) scale(.08 -.08)">
<use xlink:href="#v"/>
</g>
</g>
<path d="m1154 529.41 0.92386 5.5093q0.39691 2.367 2.7639 1.97l7.6359-1.2805q2.367-0.39691 1.97-2.7639l-0.92386-5.5093q-0.39691-2.367-2.7639-1.97l-7.6359 1.2805q-2.367 0.39691-1.97 2.7639z" clip-path="url(#a)" fill="#fff" stroke="#fff"/>
<g clip-path="url(#a)">
<defs>
<path id="t" d="m64.406 67.281v-10.391q-4.9844 4.6406-10.625 6.9219-5.6406 2.2969-11.984 2.2969-12.5 0-19.141-7.6406t-6.6406-22.094q0-14.406 6.6406-22.047t19.141-7.6406q6.3438 0 11.984 2.2969t10.625 6.9375v-10.312q-5.1719-3.5156-10.969-5.2812-5.7812-1.75-12.219-1.75-16.562 0-26.094 10.125-9.5156 10.141-9.5156 27.672 0 17.578 9.5156 27.703 9.5312 10.141 26.094 10.141 6.5312 0 12.312-1.7344 5.7969-1.7344 10.875-5.2031z"/>
</defs>
<g transform="translate(1158 528.74) rotate(80.481) scale(.08 -.08)">
<use xlink:href="#t"/>
</g>
</g>
<path d="m1119.8 650.78v35.285q0 2.4 2.4 2.4h7.7425q2.4 0 2.4-2.4v-35.285q0-2.4-2.4-2.4h-7.7425q-2.4 0-2.4 2.4z" clip-path="url(#a)" fill="#fff" stroke="#fff"/>
<g clip-path="url(#a)">
<g transform="translate(1123.9 650.78) rotate(90) scale(.08 -.08)">
<use xlink:href="#l"/>
<use x="60.818359" xlink:href="#d"/>
<use x="122.341797" xlink:href="#i"/>
<use x="163.439453" xlink:href="#k"/>
<use x="260.851562" xlink:href="#h"/>
<use x="288.634766" xlink:href="#j"/>
<use x="352.013672" xlink:href="#g"/>
<use x="413.292969" xlink:href="#f"/>
</g>
</g>
<path d="m1165.8 650.78v35.285q0 2.4 2.4 2.4h7.7425q2.4 0 2.4-2.4v-35.285q0-2.4-2.4-2.4h-7.7425q-2.4 0-2.4 2.4z" clip-path="url(#a)" fill="#fff" stroke="#fff"/>
<g clip-path="url(#a)">
<g transform="translate(1169.9 650.78) rotate(90) scale(.08 -.08)">
<use xlink:href="#l"/>
<use x="60.818359" xlink:href="#d"/>
<use x="122.341797" xlink:href="#i"/>
<use x="163.439453" xlink:href="#k"/>
<use x="260.851562" xlink:href="#h"/>
<use x="288.634766" xlink:href="#j"/>
<use x="352.013672" xlink:href="#g"/>
<use x="413.292969" xlink:href="#f"/>
</g>
</g>
<path d="m751.42 650.78v35.285q0 2.4 2.4 2.4h7.7425q2.4 0 2.4-2.4v-35.285q0-2.4-2.4-2.4h-7.7425q-2.4 0-2.4 2.4z" clip-path="url(#a)" fill="#fff" stroke="#fff"/>
<g clip-path="url(#a)">
<g transform="translate(755.48 650.78) rotate(90) scale(.08 -.08)">
<use xlink:href="#l"/>
<use x="60.818359" xlink:href="#d"/>
<use x="122.341797" xlink:href="#i"/>
<use x="163.439453" xlink:href="#k"/>
<use x="260.851562" xlink:href="#h"/>
<use x="288.634766" xlink:href="#j"/>
<use x="352.013672" xlink:href="#g"/>
<use x="413.292969" xlink:href="#f"/>
</g>
</g>
<path d="m797.47 650.78v35.285q0 2.4 2.4 2.4h7.7425q2.4 0 2.4-2.4v-35.285q0-2.4-2.4-2.4h-7.7425q-2.4 0-2.4 2.4z" clip-path="url(#a)" fill="#fff" stroke="#fff"/>
<g clip-path="url(#a)">
<g transform="translate(801.53 650.78) rotate(90) scale(.08 -.08)">
<use xlink:href="#l"/>
<use x="60.818359" xlink:href="#d"/>
<use x="122.341797" xlink:href="#i"/>
<use x="163.439453" xlink:href="#k"/>
<use x="260.851562" xlink:href="#h"/>
<use x="288.634766" xlink:href="#j"/>
<use x="352.013672" xlink:href="#g"/>
<use x="413.292969" xlink:href="#f"/>
</g>
</g>
<path d="m930.26 398.82 3.2654-5.3847q1.2445-2.0521-0.80767-3.2966l-6.6203-4.0147q-2.0521-1.2445-3.2966 0.80767l-3.2654 5.3847q-1.2445 2.0521 0.80767 3.2966l6.6203 4.0147q2.0521 1.2445 3.2966-0.80767z" clip-path="url(#a)" fill="#fff" stroke="#fff"/>
<g clip-path="url(#a)">
<defs>
<path id="at" d="m39.406 66.219q-10.75 0-17.078-8.0156-6.3125-8-6.3125-21.828 0-13.766 6.3125-21.781 6.3281-8 17.078-8 10.734 0 17.016 8 6.2812 8.0156 6.2812 21.781 0 13.828-6.2812 21.828-6.2812 8.0156-17.016 8.0156zm13.812-64.906 13-14.203h-11.922l-10.797 11.672q-1.6094-0.09375-2.4688-0.14062-0.84375-0.0625-1.625-0.0625-15.375 0-24.594 10.281-9.2031 10.281-9.2031 27.516 0 17.281 9.2031 27.562 9.2188 10.281 24.594 10.281 15.328 0 24.5-10.281 9.1875-10.281 9.1875-27.562 0-12.688-5.1094-21.734-5.0938-9.0312-14.766-13.328z"/>
</defs>
<g transform="translate(926.78 396.71) rotate(-58.766) scale(.08 -.08)">
<use xlink:href="#at"/>
</g>
</g>
<path d="m971.88 459.18 0.38479 5.5454q0.16613 2.3942 2.5604 2.2281l7.7239-0.53595q2.3942-0.16613 2.2281-2.5604l-0.38479-5.5454q-0.16613-2.3942-2.5604-2.2281l-7.7239 0.53595q-2.3942 0.16613-2.2281 2.5604z" clip-path="url(#a)" fill="#fff" stroke="#fff"/>
<g clip-path="url(#a)">
<defs>
<path id="as" d="m44.391 34.188q3.1719-1.0781 6.1719-4.5938t6.0312-9.6719l10.016-19.922h-10.609l-9.3125 18.703q-3.625 7.3281-7.0156 9.7188t-9.25 2.3906h-10.75v-30.812h-9.8594v72.906h22.266q12.5 0 18.656-5.2344 6.1562-5.2188 6.1562-15.766 0-6.8906-3.2031-11.438-3.2031-4.5312-9.2969-6.2812zm-24.719 30.609v-25.875h12.406q7.125 0 10.766 3.2969t3.6406 9.6875-3.6406 9.6406-10.766 3.25z"/>
</defs>
<g transform="translate(975.94 458.9) rotate(86.031) scale(.08 -.08)">
<use xlink:href="#as"/>
</g>
</g>
<path d="m994.61 460.24 1.2827 5.437q0.55108 2.3359 2.887 1.7848l7.5356-1.7778q2.3359-0.55108 1.7848-2.887l-1.2827-5.437q-0.55108-2.3359-2.887-1.7848l-7.5356 1.7778q-2.3359 0.55108-1.7848 2.887z" clip-path="url(#a)" fill="#fff" stroke="#fff"/>
<g clip-path="url(#a)">
<g transform="translate(998.57 459.31) rotate(76.726) scale(.08 -.08)">
<use xlink:href="#t"/>
</g>
</g>
<path d="m872.52 535.11 1.2331-4.9023q0.58545-2.3275-1.7421-2.9129l-7.5086-1.8887q-2.3275-0.58545-2.9129 1.7421l-1.2331 4.9023q-0.58545 2.3275 1.7421 2.9129l7.5086 1.8887q2.3275 0.58545 2.9129-1.7421z" clip-path="url(#a)" fill="#fff" stroke="#fff"/>
<g clip-path="url(#a)">
<g transform="translate(868.58 534.12) rotate(-75.881) scale(.08 -.08)">
<use xlink:href="#v"/>
</g>
</g>
<path d="m894.82 529.95 1.3627 5.4175q0.58545 2.3275 2.9129 1.7421l7.5086-1.8887q2.3275-0.58545 1.7421-2.9129l-1.3627-5.4175q-0.58545-2.3275-2.9129-1.7421l-7.5086 1.8887q-2.3275 0.58545-1.7421 2.9129z" clip-path="url(#a)" fill="#fff" stroke="#fff"/>
<g clip-path="url(#a)">
<g transform="translate(898.77 528.96) rotate(75.881) scale(.08 -.08)">
<use xlink:href="#t"/>
</g>
</g>
<path d="m981.65 650.78v35.285q0 2.4 2.4 2.4h7.7425q2.4 0 2.4-2.4v-35.285q0-2.4-2.4-2.4h-7.7425q-2.4 0-2.4 2.4z" clip-path="url(#a)" fill="#fff" stroke="#fff"/>
<g clip-path="url(#a)">
<g transform="translate(985.72 650.78) rotate(90) scale(.08 -.08)">
<use xlink:href="#l"/>
<use x="60.818359" xlink:href="#d"/>
<use x="122.341797" xlink:href="#i"/>
<use x="163.439453" xlink:href="#k"/>
<use x="260.851562" xlink:href="#h"/>
<use x="288.634766" xlink:href="#j"/>
<use x="352.013672" xlink:href="#g"/>
<use x="413.292969" xlink:href="#f"/>
</g>
</g>
<path d="m1027.7 650.78v35.285q0 2.4 2.4 2.4h7.7425q2.4 0 2.4-2.4v-35.285q0-2.4-2.4-2.4h-7.7425q-2.4 0-2.4 2.4z" clip-path="url(#a)" fill="#fff" stroke="#fff"/>
<g clip-path="url(#a)">
<g transform="translate(1031.8 650.78) rotate(90) scale(.08 -.08)">
<use xlink:href="#l"/>
<use x="60.818359" xlink:href="#d"/>
<use x="122.341797" xlink:href="#i"/>
<use x="163.439453" xlink:href="#k"/>
<use x="260.851562" xlink:href="#h"/>
<use x="288.634766" xlink:href="#j"/>
<use x="352.013672" xlink:href="#g"/>
<use x="413.292969" xlink:href="#f"/>
</g>
</g>
<path d="m843.51 650.78v35.285q0 2.4 2.4 2.4h7.7425q2.4 0 2.4-2.4v-35.285q0-2.4-2.4-2.4h-7.7425q-2.4 0-2.4 2.4z" clip-path="url(#a)" fill="#fff" stroke="#fff"/>
<g clip-path="url(#a)">
<g transform="translate(847.58 650.78) rotate(90) scale(.08 -.08)">
<use xlink:href="#l"/>
<use x="60.818359" xlink:href="#d"/>
<use x="122.341797" xlink:href="#i"/>
<use x="163.439453" xlink:href="#k"/>
<use x="260.851562" xlink:href="#h"/>
<use x="288.634766" xlink:href="#j"/>
<use x="352.013672" xlink:href="#g"/>
<use x="413.292969" xlink:href="#f"/>
</g>
</g>
<path d="m910.61 686.86 5.8355-34.799q0.39691-2.367-1.97-2.7639l-7.6359-1.2805q-2.367-0.39691-2.7639 1.97l-5.8355 34.799q-0.39691 2.367 1.97 2.7639l7.6359 1.2805q2.367 0.39691 2.7639-1.97z" clip-path="url(#a)" fill="#fff" stroke="#fff"/>
<g clip-path="url(#a)">
<g transform="translate(906.6 686.19) rotate(-80.481) scale(.08 -.08)">
<use xlink:href="#l"/>
<use x="60.818359" xlink:href="#d"/>
<use x="122.341797" xlink:href="#i"/>
<use x="163.439453" xlink:href="#k"/>
<use x="260.851562" xlink:href="#h"/>
<use x="288.634766" xlink:href="#j"/>
<use x="352.013672" xlink:href="#g"/>
<use x="413.292969" xlink:href="#f"/>
</g>
</g>
<path d="m921.26 652.06 5.8355 34.799q0.39691 2.367 2.7639 1.97l7.6359-1.2805q2.367-0.39691 1.97-2.7639l-5.8355-34.799q-0.39691-2.367-2.7639-1.97l-7.6359 1.2805q-2.367 0.39691-1.97 2.7639z" clip-path="url(#a)" fill="#fff" stroke="#fff"/>
<g clip-path="url(#a)">
<g transform="translate(925.27 651.39) rotate(80.481) scale(.08 -.08)">
<use xlink:href="#l"/>
<use x="60.818359" xlink:href="#d"/>
<use x="122.341797" xlink:href="#i"/>
<use x="163.439453" xlink:href="#k"/>
<use x="260.851562" xlink:href="#h"/>
<use x="288.634766" xlink:href="#j"/>
<use x="352.013672" xlink:href="#g"/>
<use x="413.292969" xlink:href="#f"/>
</g>
</g>
<path d="m244.9 650.78v35.285q0 2.4 2.4 2.4h7.7425q2.4 0 2.4-2.4v-35.285q0-2.4-2.4-2.4h-7.7425q-2.4 0-2.4 2.4z" clip-path="url(#a)" fill="#fff" stroke="#fff"/>
<g clip-path="url(#a)">
<g transform="translate(248.96 650.78) rotate(90) scale(.08 -.08)">
<use xlink:href="#l"/>
<use x="60.818359" xlink:href="#d"/>
<use x="122.341797" xlink:href="#i"/>
<use x="163.439453" xlink:href="#k"/>
<use x="260.851562" xlink:href="#h"/>
<use x="288.634766" xlink:href="#j"/>
<use x="352.013672" xlink:href="#g"/>
<use x="413.292969" xlink:href="#f"/>
</g>
</g>
<path d="m290.95 650.78v35.285q0 2.4 2.4 2.4h7.7425q2.4 0 2.4-2.4v-35.285q0-2.4-2.4-2.4h-7.7425q-2.4 0-2.4 2.4z" clip-path="url(#a)" fill="#fff" stroke="#fff"/>
<g clip-path="url(#a)">
<g transform="translate(295.01 650.78) rotate(90) scale(.08 -.08)">
<use xlink:href="#l"/>
<use x="60.818359" xlink:href="#d"/>
<use x="122.341797" xlink:href="#i"/>
<use x="163.439453" xlink:href="#k"/>
<use x="260.851562" xlink:href="#h"/>
<use x="288.634766" xlink:href="#j"/>
<use x="352.013672" xlink:href="#g"/>
<use x="413.292969" xlink:href="#f"/>
</g>
</g>
<path d="m371.43 535.52 1.6074-4.7926q0.76314-2.2754-1.5123-3.0386l-7.3407-2.4619q-2.2754-0.76314-3.0386 1.5123l-1.6074 4.7926q-0.76314 2.2754 1.5123 3.0386l7.3407 2.4619q2.2754 0.76314 3.0386-1.5123z" clip-path="url(#a)" fill="#fff" stroke="#fff"/>
<g clip-path="url(#a)">
<g transform="translate(367.58 534.23) rotate(-71.46) scale(.08 -.08)">
<use xlink:href="#v"/>
</g>
</g>
<path d="m383.04 528.6v5.055q0 2.4 2.4 2.4h7.7425q2.4 0 2.4-2.4v-5.055q0-2.4-2.4-2.4h-7.7425q-2.4 0-2.4 2.4z" clip-path="url(#a)" fill="#fff" stroke="#fff"/>
<g clip-path="url(#a)">
<g transform="translate(387.11 528.6) rotate(90) scale(.08 -.08)">
<use xlink:href="#v"/>
</g>
</g>
<path d="m405.5 530.47 1.7763 5.2963q0.76314 2.2754 3.0386 1.5123l7.3407-2.4619q2.2754-0.76314 1.5123-3.0386l-1.7763-5.2963q-0.76314-2.2754-3.0386-1.5123l-7.3407 2.4619q-2.2754 0.76314-1.5123 3.0386z" clip-path="url(#a)" fill="#fff" stroke="#fff"/>
<g clip-path="url(#a)">
<g transform="translate(409.36 529.18) rotate(71.46) scale(.08 -.08)">
<use xlink:href="#t"/>
</g>
</g>
<path d="m475.14 650.78v35.285q0 2.4 2.4 2.4h7.7425q2.4 0 2.4-2.4v-35.285q0-2.4-2.4-2.4h-7.7425q-2.4 0-2.4 2.4z" clip-path="url(#a)" fill="#fff" stroke="#fff"/>
<g clip-path="url(#a)">
<g transform="translate(479.2 650.78) rotate(90) scale(.08 -.08)">
<use xlink:href="#l"/>
<use x="60.818359" xlink:href="#d"/>
<use x="122.341797" xlink:href="#i"/>
<use x="163.439453" xlink:href="#k"/>
<use x="260.851562" xlink:href="#h"/>
<use x="288.634766" xlink:href="#j"/>
<use x="352.013672" xlink:href="#g"/>
<use x="413.292969" xlink:href="#f"/>
</g>
</g>
<path d="m521.18 650.78v35.285q0 2.4 2.4 2.4h7.7425q2.4 0 2.4-2.4v-35.285q0-2.4-2.4-2.4h-7.7425q-2.4 0-2.4 2.4z" clip-path="url(#a)" fill="#fff" stroke="#fff"/>
<g clip-path="url(#a)">
<g transform="translate(525.25 650.78) rotate(90) scale(.08 -.08)">
<use xlink:href="#l"/>
<use x="60.818359" xlink:href="#d"/>
<use x="122.341797" xlink:href="#i"/>
<use x="163.439453" xlink:href="#k"/>
<use x="260.851562" xlink:href="#h"/>
<use x="288.634766" xlink:href="#j"/>
<use x="352.013672" xlink:href="#g"/>
<use x="413.292969" xlink:href="#f"/>
</g>
</g>
<path d="m608.32 395.91 0.4166-5.0378q0.19779-2.3918-2.194-2.5896l-7.7162-0.63808q-2.3918-0.19779-2.5896 2.194l-0.4166 5.0378q-0.19779 2.3918 2.194 2.5896l7.7162 0.63808q2.3918 0.19779 2.5896-2.194z" clip-path="url(#a)" fill="#fff" stroke="#fff"/>
<g clip-path="url(#a)">
<g transform="translate(604.27 395.57) rotate(-85.273) scale(.08 -.08)">
<use xlink:href="#v"/>
</g>
</g>
<path d="m607.41 458.99 0.23237 5.5814q0.099832 2.3979 2.4978 2.2981l7.7358-0.32206q2.3979-0.099832 2.2981-2.4978l-0.23237-5.5814q-0.099832-2.3979-2.4978-2.2981l-7.7358 0.32206q-2.3979 0.099833-2.2981 2.4978z" clip-path="url(#a)" fill="#fff" stroke="#fff"/>
<g clip-path="url(#a)">
<g transform="translate(611.47 458.82) rotate(87.616) scale(.08 -.08)">
<use xlink:href="#t"/>
</g>
</g>
<path d="m659.32 650.78v35.285q0 2.4 2.4 2.4h7.7425q2.4 0 2.4-2.4v-35.285q0-2.4-2.4-2.4h-7.7425q-2.4 0-2.4 2.4z" clip-path="url(#a)" fill="#fff" stroke="#fff"/>
<g clip-path="url(#a)">
<g transform="translate(663.39 650.78) rotate(90) scale(.08 -.08)">
<use xlink:href="#l"/>
<use x="60.818359" xlink:href="#d"/>
<use x="122.341797" xlink:href="#i"/>
<use x="163.439453" xlink:href="#k"/>
<use x="260.851562" xlink:href="#h"/>
<use x="288.634766" xlink:href="#j"/>
<use x="352.013672" xlink:href="#g"/>
<use x="413.292969" xlink:href="#f"/>
</g>
</g>
<path d="m601.4 529.47 0.90505 5.3971q0.39691 2.367 2.7639 1.97l7.6359-1.2805q2.367-0.39691 1.97-2.7639l-0.90505-5.3971q-0.39691-2.367-2.7639-1.97l-7.6359 1.2805q-2.367 0.39691-1.97 2.7639z" clip-path="url(#a)" fill="#fff" stroke="#fff"/>
<g clip-path="url(#a)">
<g transform="translate(605.41 528.79) rotate(80.481) scale(.08 -.08)">
<use xlink:href="#q"/>
</g>
</g>
<path d="m590.78 534.67 0.83993-5.0088q0.39691-2.367-1.97-2.7639l-7.6359-1.2805q-2.367-0.39691-2.7639 1.97l-0.83993 5.0088q-0.39691 2.367 1.97 2.7639l7.6359 1.2805q2.367 0.39691 2.7639-1.97z" clip-path="url(#a)" fill="#fff" stroke="#fff"/>
<g clip-path="url(#a)">
<defs>
<path id="ar" d="m53.516 70.516v-9.625q-5.6094 2.6875-10.594 4-4.9844 1.3281-9.625 1.3281-8.0469 0-12.422-3.125t-4.375-8.8906q0-4.8438 2.9062-7.3125 2.9062-2.4531 11.016-3.9688l5.9531-1.2188q11.031-2.1094 16.281-7.4062t5.25-14.172q0-10.609-7.1094-16.078-7.0938-5.4688-20.812-5.4688-5.1719 0-11.016 1.1719-5.8281 1.1719-12.078 3.4688v10.156q6-3.3594 11.766-5.0781 5.7656-1.7031 11.328-1.7031 8.4375 0 13.031 3.3125 4.5938 3.3281 4.5938 9.4844 0 5.3594-3.2969 8.3906t-10.812 4.5469l-6.0156 1.1719q-11.031 2.1875-15.969 6.875-4.9219 4.6875-4.9219 13.047 0 9.6719 6.8125 15.234t18.766 5.5625q5.1406 0 10.453-0.9375 5.3281-0.92188 10.891-2.7656z"/>
</defs>
<g transform="translate(586.77 534) rotate(-80.481) scale(.08 -.08)">
<use xlink:href="#ar"/>
</g>
</g>
<path d="m613.28 650.78v35.285q0 2.4 2.4 2.4h7.7425q2.4 0 2.4-2.4v-35.285q0-2.4-2.4-2.4h-7.7425q-2.4 0-2.4 2.4z" clip-path="url(#a)" fill="#fff" stroke="#fff"/>
<g clip-path="url(#a)">
<g transform="translate(617.34 650.78) rotate(90) scale(.08 -.08)">
<use xlink:href="#l"/>
<use x="60.818359" xlink:href="#d"/>
<use x="122.341797" xlink:href="#i"/>
<use x="163.439453" xlink:href="#k"/>
<use x="260.851562" xlink:href="#h"/>
<use x="288.634766" xlink:href="#j"/>
<use x="352.013672" xlink:href="#g"/>
<use x="413.292969" xlink:href="#f"/>
</g>
</g>
<path d="m567.23 650.78v35.285q0 2.4 2.4 2.4h7.7425q2.4 0 2.4-2.4v-35.285q0-2.4-2.4-2.4h-7.7425q-2.4 0-2.4 2.4z" clip-path="url(#a)" fill="#fff" stroke="#fff"/>
<g clip-path="url(#a)">
<g transform="translate(571.29 650.78) rotate(90) scale(.08 -.08)">
<use xlink:href="#l"/>
<use x="60.818359" xlink:href="#d"/>
<use x="122.341797" xlink:href="#i"/>
<use x="163.439453" xlink:href="#k"/>
<use x="260.851562" xlink:href="#h"/>
<use x="288.634766" xlink:href="#j"/>
<use x="352.013672" xlink:href="#g"/>
<use x="413.292969" xlink:href="#f"/>
</g>
</g>
<path d="m336.99 650.78v35.285q0 2.4 2.4 2.4h7.7425q2.4 0 2.4-2.4v-35.285q0-2.4-2.4-2.4h-7.7425q-2.4 0-2.4 2.4z" clip-path="url(#a)" fill="#fff" stroke="#fff"/>
<g clip-path="url(#a)">
<g transform="translate(341.06 650.78) rotate(90) scale(.08 -.08)">
<use xlink:href="#l"/>
<use x="60.818359" xlink:href="#d"/>
<use x="122.341797" xlink:href="#i"/>
<use x="163.439453" xlink:href="#k"/>
<use x="260.851562" xlink:href="#h"/>
<use x="288.634766" xlink:href="#j"/>
<use x="352.013672" xlink:href="#g"/>
<use x="413.292969" xlink:href="#f"/>
</g>
</g>
<path d="m383.04 650.78v35.285q0 2.4 2.4 2.4h7.7425q2.4 0 2.4-2.4v-35.285q0-2.4-2.4-2.4h-7.7425q-2.4 0-2.4 2.4z" clip-path="url(#a)" fill="#fff" stroke="#fff"/>
<g clip-path="url(#a)">
<g transform="translate(387.11 650.78) rotate(90) scale(.08 -.08)">
<use xlink:href="#l"/>
<use x="60.818359" xlink:href="#d"/>
<use x="122.341797" xlink:href="#i"/>
<use x="163.439453" xlink:href="#k"/>
<use x="260.851562" xlink:href="#h"/>
<use x="288.634766" xlink:href="#j"/>
<use x="352.013672" xlink:href="#g"/>
<use x="413.292969" xlink:href="#f"/>
</g>
</g>
<path d="m429.09 650.78v35.285q0 2.4 2.4 2.4h7.7425q2.4 0 2.4-2.4v-35.285q0-2.4-2.4-2.4h-7.7425q-2.4 0-2.4 2.4z" clip-path="url(#a)" fill="#fff" stroke="#fff"/>
<g clip-path="url(#a)">
<g transform="translate(433.15 650.78) rotate(90) scale(.08 -.08)">
<use xlink:href="#l"/>
<use x="60.818359" xlink:href="#d"/>
<use x="122.341797" xlink:href="#i"/>
<use x="163.439453" xlink:href="#k"/>
<use x="260.851562" xlink:href="#h"/>
<use x="288.634766" xlink:href="#j"/>
<use x="352.013672" xlink:href="#g"/>
<use x="413.292969" xlink:href="#f"/>
</g>
</g>
<path d="m106.76 650.78v35.285q0 2.4 2.4 2.4h7.7425q2.4 0 2.4-2.4v-35.285q0-2.4-2.4-2.4h-7.7425q-2.4 0-2.4 2.4z" clip-path="url(#a)" fill="#fff" stroke="#fff"/>
<g clip-path="url(#a)">
<g transform="translate(110.82 650.78) rotate(90) scale(.08 -.08)">
<use xlink:href="#l"/>
<use x="60.818359" xlink:href="#d"/>
<use x="122.341797" xlink:href="#i"/>
<use x="163.439453" xlink:href="#k"/>
<use x="260.851562" xlink:href="#h"/>
<use x="288.634766" xlink:href="#j"/>
<use x="352.013672" xlink:href="#g"/>
<use x="413.292969" xlink:href="#f"/>
</g>
</g>
<path d="m173.86 686.86 5.8355-34.799q0.39691-2.367-1.97-2.7639l-7.6359-1.2805q-2.367-0.39691-2.7639 1.97l-5.8355 34.799q-0.39691 2.367 1.97 2.7639l7.6359 1.2805q2.367 0.39691 2.7639-1.97z" clip-path="url(#a)" fill="#fff" stroke="#fff"/>
<g clip-path="url(#a)">
<g transform="translate(169.85 686.19) rotate(-80.481) scale(.08 -.08)">
<use xlink:href="#l"/>
<use x="60.818359" xlink:href="#d"/>
<use x="122.341797" xlink:href="#i"/>
<use x="163.439453" xlink:href="#k"/>
<use x="260.851562" xlink:href="#h"/>
<use x="288.634766" xlink:href="#j"/>
<use x="352.013672" xlink:href="#g"/>
<use x="413.292969" xlink:href="#f"/>
</g>
</g>
<path d="m184.51 652.06 5.8355 34.799q0.39691 2.367 2.7639 1.97l7.6359-1.2805q2.367-0.39691 1.97-2.7639l-5.8355-34.799q-0.39691-2.367-2.7639-1.97l-7.6359 1.2805q-2.367 0.39691-1.97 2.7639z" clip-path="url(#a)" fill="#fff" stroke="#fff"/>
<g clip-path="url(#a)">
<g transform="translate(188.52 651.39) rotate(80.481) scale(.08 -.08)">
<use xlink:href="#l"/>
<use x="60.818359" xlink:href="#d"/>
<use x="122.341797" xlink:href="#i"/>
<use x="163.439453" xlink:href="#k"/>
<use x="260.851562" xlink:href="#h"/>
<use x="288.634766" xlink:href="#j"/>
<use x="352.013672" xlink:href="#g"/>
<use x="413.292969" xlink:href="#f"/>
</g>
</g>
<path d="m705.37 650.78v35.285q0 2.4 2.4 2.4h7.7425q2.4 0 2.4-2.4v-35.285q0-2.4-2.4-2.4h-7.7425q-2.4 0-2.4 2.4z" clip-path="url(#a)" fill="#fff" stroke="#fff"/>
<g clip-path="url(#a)">
<g transform="translate(709.44 650.78) rotate(90) scale(.08 -.08)">
<use xlink:href="#l"/>
<use x="60.818359" xlink:href="#d"/>
<use x="122.341797" xlink:href="#i"/>
<use x="163.439453" xlink:href="#k"/>
<use x="260.851562" xlink:href="#h"/>
<use x="288.634766" xlink:href="#j"/>
<use x="352.013672" xlink:href="#g"/>
<use x="413.292969" xlink:href="#f"/>
</g>
</g>
<path d="m1350 650.78v35.285q0 2.4 2.4 2.4h7.7425q2.4 0 2.4-2.4v-35.285q0-2.4-2.4-2.4h-7.7425q-2.4 0-2.4 2.4z" clip-path="url(#a)" fill="#fff" stroke="#fff"/>
<g clip-path="url(#a)">
<g transform="translate(1354.1 650.78) rotate(90) scale(.08 -.08)">
<use xlink:href="#l"/>
<use x="60.818359" xlink:href="#d"/>
<use x="122.341797" xlink:href="#i"/>
<use x="163.439453" xlink:href="#k"/>
<use x="260.851562" xlink:href="#h"/>
<use x="288.634766" xlink:href="#j"/>
<use x="352.013672" xlink:href="#g"/>
<use x="413.292969" xlink:href="#f"/>
</g>
</g>
<defs>
<path id="b" d="m0 8.6603c2.2967 0 4.4997-0.9125 6.1237-2.5365 1.624-1.624 2.5365-3.827 2.5365-6.1237s-0.9125-4.4997-2.5365-6.1237c-1.624-1.624-3.827-2.5365-6.1237-2.5365s-4.4997 0.9125-6.1237 2.5365c-1.624 1.624-2.5365 3.827-2.5365 6.1237s0.9125 4.4997 2.5365 6.1237c1.624 1.624 3.827 2.5365 6.1237 2.5365z"/>
</defs>
<g clip-path="url(#a)">
<use x="66.983288" y="737.074782" fill="#ffffff" stroke="#ffffff" xlink:href="#b"/>
</g>
<g clip-path="url(#a)">
<use x="113.030418" y="737.074782" fill="#ffffff" stroke="#ffffff" xlink:href="#b"/>
</g>
<g clip-path="url(#a)">
<use x="159.077547" y="737.074782" fill="#ffffff" stroke="#ffffff" xlink:href="#b"/>
</g>
<g clip-path="url(#a)">
<use x="205.124677" y="737.074782" fill="#ffffff" stroke="#ffffff" xlink:href="#b"/>
</g>
<g clip-path="url(#a)">
<use x="251.171806" y="737.074782" fill="#ffffff" stroke="#ffffff" xlink:href="#b"/>
</g>
<g clip-path="url(#a)">
<use x="297.218936" y="737.074782" fill="#ffffff" stroke="#ffffff" xlink:href="#b"/>
</g>
<g clip-path="url(#a)">
<use x="343.266065" y="737.074782" fill="#ffffff" stroke="#ffffff" xlink:href="#b"/>
</g>
<g clip-path="url(#a)">
<use x="389.313195" y="737.074782" fill="#ffffff" stroke="#ffffff" xlink:href="#b"/>
</g>
<g clip-path="url(#a)">
<use x="435.360325" y="737.074782" fill="#ffffff" stroke="#ffffff" xlink:href="#b"/>
</g>
<g clip-path="url(#a)">
<use x="481.407454" y="737.074782" fill="#ffffff" stroke="#ffffff" xlink:href="#b"/>
</g>
<g clip-path="url(#a)">
<use x="527.454584" y="737.074782" fill="#ffffff" stroke="#ffffff" xlink:href="#b"/>
</g>
<g clip-path="url(#a)">
<use x="573.501713" y="737.074782" fill="#ffffff" stroke="#ffffff" xlink:href="#b"/>
</g>
<g clip-path="url(#a)">
<use x="619.548843" y="737.074782" fill="#ffffff" stroke="#ffffff" xlink:href="#b"/>
</g>
<g clip-path="url(#a)">
<use x="665.595972" y="737.074782" fill="#ffffff" stroke="#ffffff" xlink:href="#b"/>
</g>
<g clip-path="url(#a)">
<use x="711.643102" y="737.074782" fill="#ffffff" stroke="#ffffff" xlink:href="#b"/>
</g>
<g clip-path="url(#a)">
<use x="757.690231" y="737.074782" fill="#ffffff" stroke="#ffffff" xlink:href="#b"/>
</g>
<g clip-path="url(#a)">
<use x="803.737361" y="737.074782" fill="#ffffff" stroke="#ffffff" xlink:href="#b"/>
</g>
<g clip-path="url(#a)">
<use x="849.784491" y="737.074782" fill="#ffffff" stroke="#ffffff" xlink:href="#b"/>
</g>
<g clip-path="url(#a)">
<use x="895.83162" y="737.074782" fill="#ffffff" stroke="#ffffff" xlink:href="#b"/>
</g>
<g clip-path="url(#a)">
<use x="941.87875" y="737.074782" fill="#ffffff" stroke="#ffffff" xlink:href="#b"/>
</g>
<g clip-path="url(#a)">
<use x="987.925879" y="737.074782" fill="#ffffff" stroke="#ffffff" xlink:href="#b"/>
</g>
<g clip-path="url(#a)">
<use x="1033.973009" y="737.074782" fill="#ffffff" stroke="#ffffff" xlink:href="#b"/>
</g>
<g clip-path="url(#a)">
<use x="1080.020138" y="737.074782" fill="#ffffff" stroke="#ffffff" xlink:href="#b"/>
</g>
<g clip-path="url(#a)">
<use x="1126.067268" y="737.074782" fill="#ffffff" stroke="#ffffff" xlink:href="#b"/>
</g>
<g clip-path="url(#a)">
<use x="1172.114397" y="737.074782" fill="#ffffff" stroke="#ffffff" xlink:href="#b"/>
</g>
<g clip-path="url(#a)">
<use x="1218.161527" y="737.074782" fill="#ffffff" stroke="#ffffff" xlink:href="#b"/>
</g>
<g clip-path="url(#a)">
<use x="1264.208657" y="737.074782" fill="#ffffff" stroke="#ffffff" xlink:href="#b"/>
</g>
<g clip-path="url(#a)">
<use x="1310.255786" y="737.074782" fill="#ffffff" stroke="#ffffff" xlink:href="#b"/>
</g>
<g clip-path="url(#a)">
<use x="1356.302916" y="737.074782" fill="#ffffff" stroke="#ffffff" xlink:href="#b"/>
</g>
<g clip-path="url(#a)">
<use x="669.574846" y="36.258552" fill="#ffffff" stroke="#ffffff" xlink:href="#b"/>
</g>
<g clip-path="url(#a)">
<use x="66.983288" y="599.776339" fill="#ffffff" stroke="#ffffff" xlink:href="#b"/>
</g>
<g clip-path="url(#a)">
<use x="147.565765" y="462.477896" fill="#ffffff" stroke="#ffffff" xlink:href="#b"/>
</g>
<g clip-path="url(#a)">
<use x="577.818632" y="181.380503" fill="#ffffff" stroke="#ffffff" xlink:href="#b"/>
</g>
<g clip-path="url(#a)">
<use x="843.389056" y="181.380503" fill="#ffffff" stroke="#ffffff" xlink:href="#b"/>
</g>
<g clip-path="url(#a)">
<use x="1080.020138" y="599.776339" fill="#ffffff" stroke="#ffffff" xlink:href="#b"/>
</g>
<g clip-path="url(#a)">
<use x="1259.603944" y="181.380503" fill="#ffffff" stroke="#ffffff" xlink:href="#b"/>
</g>
<g clip-path="url(#a)">
<use x="1149.090833" y="323.269481" fill="#ffffff" stroke="#ffffff" xlink:href="#b"/>
</g>
<g clip-path="url(#a)">
<use x="1218.161527" y="599.776339" fill="#ffffff" stroke="#ffffff" xlink:href="#b"/>
</g>
<g clip-path="url(#a)">
<use x="1264.208657" y="599.776339" fill="#ffffff" stroke="#ffffff" xlink:href="#b"/>
</g>
<g clip-path="url(#a)">
<use x="1310.255786" y="599.776339" fill="#ffffff" stroke="#ffffff" xlink:href="#b"/>
</g>
<g clip-path="url(#a)">
<use x="1149.090833" y="462.477896" fill="#ffffff" stroke="#ffffff" xlink:href="#b"/>
</g>
<g clip-path="url(#a)">
<use x="1126.067268" y="599.776339" fill="#ffffff" stroke="#ffffff" xlink:href="#b"/>
</g>
<g clip-path="url(#a)">
<use x="1172.114397" y="599.776339" fill="#ffffff" stroke="#ffffff" xlink:href="#b"/>
</g>
<g clip-path="url(#a)">
<use x="757.690231" y="599.776339" fill="#ffffff" stroke="#ffffff" xlink:href="#b"/>
</g>
<g clip-path="url(#a)">
<use x="803.737361" y="599.776339" fill="#ffffff" stroke="#ffffff" xlink:href="#b"/>
</g>
<g clip-path="url(#a)">
<use x="968.739575" y="323.269481" fill="#ffffff" stroke="#ffffff" xlink:href="#b"/>
</g>
<g clip-path="url(#a)">
<use x="884.319838" y="462.477896" fill="#ffffff" stroke="#ffffff" xlink:href="#b"/>
</g>
<g clip-path="url(#a)">
<use x="987.925879" y="599.776339" fill="#ffffff" stroke="#ffffff" xlink:href="#b"/>
</g>
<g clip-path="url(#a)">
<use x="1033.973009" y="599.776339" fill="#ffffff" stroke="#ffffff" xlink:href="#b"/>
</g>
<g clip-path="url(#a)">
<use x="849.784491" y="599.776339" fill="#ffffff" stroke="#ffffff" xlink:href="#b"/>
</g>
<g clip-path="url(#a)">
<use x="918.855185" y="599.776339" fill="#ffffff" stroke="#ffffff" xlink:href="#b"/>
</g>
<g clip-path="url(#a)">
<use x="1402.350045" y="737.074782" fill="#ffffff" stroke="#ffffff" xlink:href="#b"/>
</g>
<g clip-path="url(#a)">
<use x="251.171806" y="599.776339" fill="#ffffff" stroke="#ffffff" xlink:href="#b"/>
</g>
<g clip-path="url(#a)">
<use x="297.218936" y="599.776339" fill="#ffffff" stroke="#ffffff" xlink:href="#b"/>
</g>
<g clip-path="url(#a)">
<use x="389.313195" y="462.477896" fill="#ffffff" stroke="#ffffff" xlink:href="#b"/>
</g>
<g clip-path="url(#a)">
<use x="481.407454" y="599.776339" fill="#ffffff" stroke="#ffffff" xlink:href="#b"/>
</g>
<g clip-path="url(#a)">
<use x="527.454584" y="599.776339" fill="#ffffff" stroke="#ffffff" xlink:href="#b"/>
</g>
<g clip-path="url(#a)">
<use x="608.03706" y="323.269481" fill="#ffffff" stroke="#ffffff" xlink:href="#b"/>
</g>
<g clip-path="url(#a)">
<use x="665.595972" y="599.776339" fill="#ffffff" stroke="#ffffff" xlink:href="#b"/>
</g>
<g clip-path="url(#a)">
<use x="596.525278" y="462.477896" fill="#ffffff" stroke="#ffffff" xlink:href="#b"/>
</g>
<g clip-path="url(#a)">
<use x="619.548843" y="599.776339" fill="#ffffff" stroke="#ffffff" xlink:href="#b"/>
</g>
<g clip-path="url(#a)">
<use x="573.501713" y="599.776339" fill="#ffffff" stroke="#ffffff" xlink:href="#b"/>
</g>
<g clip-path="url(#a)">
<use x="343.266065" y="599.776339" fill="#ffffff" stroke="#ffffff" xlink:href="#b"/>
</g>
<g clip-path="url(#a)">
<use x="389.313195" y="599.776339" fill="#ffffff" stroke="#ffffff" xlink:href="#b"/>
</g>
<g clip-path="url(#a)">
<use x="435.360325" y="599.776339" fill="#ffffff" stroke="#ffffff" xlink:href="#b"/>
</g>
<g clip-path="url(#a)">
<use x="113.030418" y="599.776339" fill="#ffffff" stroke="#ffffff" xlink:href="#b"/>
</g>
<g clip-path="url(#a)">
<use x="182.101112" y="599.776339" fill="#ffffff" stroke="#ffffff" xlink:href="#b"/>
</g>
<g clip-path="url(#a)">
<use x="711.643102" y="599.776339" fill="#ffffff" stroke="#ffffff" xlink:href="#b"/>
</g>
<g clip-path="url(#a)">
<use x="1356.302916" y="599.776339" fill="#ffffff" stroke="#ffffff" xlink:href="#b"/>
</g>
<g clip-path="url(#a)">
<defs>
<path id="aq" d="m37.109 75.984v-7.4844h-8.5938q-4.8281 0-6.7188-1.9531-1.875-1.9531-1.875-7.0312v-4.8281h14.797v-6.9844h-14.797v-47.703h-9.0312v47.703h-8.5938v6.9844h8.5938v3.8125q0 9.125 4.25 13.297 4.25 4.1875 13.469 4.1875z"/>
<path id="m" d="m18.312 70.219v-15.531h18.5v-6.9844h-18.5v-29.688q0-6.6875 1.8281-8.5938t7.4531-1.9062h9.2188v-7.5156h-9.2188q-10.406 0-14.359 3.875-3.9531 3.8906-3.9531 14.141v29.688h-6.5938v6.9844h6.5938v15.531z"/>
</defs>
<g transform="translate(54.714 739.83) scale(.1 -.1)">
<use xlink:href="#q"/>
<use x="68.361328" xlink:href="#aq"/>
<use x="103.550781" xlink:href="#m"/>
<use x="142.759766" xlink:href="#d"/>
<use x="204.283203" xlink:href="#i"/>
</g>
</g>
<g clip-path="url(#a)">
<defs>
<path id="ae" d="m54.891 33.016v-33.016h-8.9844v32.719q0 7.7656-3.0312 11.609-3.0312 3.8594-9.0781 3.8594-7.2812 0-11.484-4.6406-4.2031-4.625-4.2031-12.641v-30.906h-9.0312v75.984h9.0312v-29.797q3.2344 4.9375 7.5938 7.375 4.375 2.4375 10.094 2.4375 9.4219 0 14.25-5.8281 4.8438-5.8281 4.8438-17.156z"/>
<path id="ao" d="m32.172-5.0781q-3.7969-9.7656-7.4219-12.734-3.6094-2.9844-9.6562-2.9844h-7.1875v7.5156h5.2812q3.7031 0 5.75 1.7656 2.0625 1.75 4.5469 8.2969l1.6094 4.0938-22.109 53.812h9.5156l17.094-42.766 17.094 42.766h9.5156z"/>
</defs>
<g transform="translate(101.87 739.83) scale(.1 -.1)">
<use xlink:href="#m"/>
<use x="39.208984" xlink:href="#ae"/>
<use x="102.587891" xlink:href="#d"/>
<use x="164.111328" xlink:href="#ao"/>
</g>
</g>
<g clip-path="url(#a)">
<defs>
<path id="aj" d="m44.281 53.078v-8.5q-3.7969 1.9531-7.9062 2.9219-4.0938 0.98438-8.5 0.98438-6.6875 0-10.031-2.0469t-3.3438-6.1562q0-3.125 2.3906-4.9062t9.625-3.3906l3.0781-0.6875q9.5625-2.0469 13.594-5.7812t4.0312-10.422q0-7.625-6.0312-12.078-6.0312-4.4375-16.578-4.4375-4.3906 0-9.1562 0.85938t-10.031 2.5625v9.2812q4.9844-2.5938 9.8125-3.8906 4.8281-1.2812 9.5781-1.2812 6.3438 0 9.75 2.1719 3.4219 2.1719 3.4219 6.125 0 3.6562-2.4688 5.6094-2.4531 1.9531-10.812 3.7656l-3.125 0.73438q-8.3438 1.75-12.062 5.3906-3.7031 3.6406-3.7031 9.9844 0 7.7188 5.4688 11.906 5.4688 4.2031 15.531 4.2031 4.9688 0 9.3594-0.73438 4.4062-0.71875 8.1094-2.1875z"/>
<path id="p" d="m30.609 48.391q-7.2188 0-11.422-5.6406t-4.2031-15.453 4.1719-15.453q4.1875-5.6406 11.453-5.6406 7.1875 0 11.375 5.6562 4.2031 5.6719 4.2031 15.438 0 9.7188-4.2031 15.406-4.1875 5.6875-11.375 5.6875zm0 7.6094q11.719 0 18.406-7.625 6.7031-7.6094 6.7031-21.078 0-13.422-6.7031-21.078-6.6875-7.6406-18.406-7.6406-11.766 0-18.438 7.6406-6.6562 7.6562-6.6562 21.078 0 13.469 6.6562 21.078 6.6719 7.625 18.438 7.625z"/>
<path id="ad" d="m4.2031 54.688h8.9844l11.234-42.672 11.172 42.672h10.594l11.234-42.672 11.188 42.672h8.9844l-14.312-54.688h-10.594l-11.766 44.828-11.812-44.828h-10.609z"/>
<path id="ak" d="m45.406 46.391v29.594h8.9844v-75.984h-8.9844v8.2031q-2.8281-4.875-7.1562-7.25-4.3125-2.375-10.375-2.375-9.9062 0-16.141 7.9062-6.2188 7.9219-6.2188 20.812t6.2188 20.797q6.2344 7.9062 16.141 7.9062 6.0625 0 10.375-2.375 4.3281-2.3594 7.1562-7.2344zm-30.609-19.094q0-9.9062 4.0781-15.547t11.203-5.6406 11.219 5.6406q4.1094 5.6406 4.1094 15.547t-4.1094 15.547q-4.0938 5.6406-11.219 5.6406t-11.203-5.6406-4.0781-15.547z"/>
</defs>
<g transform="translate(139.9 739.83) scale(.1 -.1)">
<use xlink:href="#aj"/>
<use x="52.099609" xlink:href="#ae"/>
<use x="115.478516" xlink:href="#p"/>
<use x="176.660156" xlink:href="#ad"/>
<use x="258.447266" xlink:href="#d"/>
<use x="319.970703" xlink:href="#ak"/>
</g>
</g>
<g clip-path="url(#a)">
<defs>
<path id="w" d="m8.5 21.578v33.109h8.9844v-32.766q0-7.7656 3.0156-11.656 3.0312-3.875 9.0938-3.875 7.2656 0 11.484 4.6406 4.2344 4.6406 4.2344 12.656v31h8.9844v-54.688h-8.9844v8.4062q-3.2656-4.9844-7.5938-7.4062-4.3125-2.4219-10.031-2.4219-9.4219 0-14.312 5.8594-4.875 5.8594-4.875 17.141z"/>
<path id="ax" d="m18.109 8.2031v-29h-9.0312v75.484h9.0312v-8.2969q2.8438 4.875 7.1562 7.2344 4.3281 2.375 10.328 2.375 9.9688 0 16.188-7.9062 6.2344-7.9062 6.2344-20.797t-6.2344-20.812q-6.2188-7.9062-16.188-7.9062-6 0-10.328 2.375-4.3125 2.375-7.1562 7.25zm30.578 19.094q0 9.9062-4.0781 15.547t-11.203 5.6406q-7.1406 0-11.219-5.6406t-4.0781-15.547 4.0781-15.547 11.219-5.6406q7.125 0 11.203 5.6406t4.0781 15.547z"/>
</defs>
<g transform="translate(198.78 739.83) scale(.1 -.1)">
<use xlink:href="#w"/>
<use x="63.378906" xlink:href="#ax"/>
</g>
</g>
<g clip-path="url(#a)">
<g transform="translate(237.84 739.83) scale(.1 -.1)">
<use xlink:href="#m"/>
<use x="39.208984" xlink:href="#ae"/>
<use x="102.587891" xlink:href="#d"/>
<use x="164.111328" xlink:href="#i"/>
<use x="205.193359" xlink:href="#d"/>
</g>
</g>
<g clip-path="url(#a)">
<g transform="translate(287.46 739.83) scale(.1 -.1)">
<use xlink:href="#ad"/>
<use x="81.787109" xlink:href="#g"/>
<use x="143.066406" xlink:href="#aj"/>
</g>
</g>
<g clip-path="url(#a)">
<g transform="translate(340.2 739.83) scale(.1 -.1)">
<use xlink:href="#g"/>
</g>
</g>
<g clip-path="url(#a)">
<g transform="translate(378.15 739.83) scale(.1 -.1)">
<use xlink:href="#f"/>
<use x="27.783203" xlink:href="#h"/>
<use x="55.566406" xlink:href="#m"/>
<use x="94.775391" xlink:href="#m"/>
<use x="133.984375" xlink:href="#f"/>
<use x="161.767578" xlink:href="#d"/>
</g>
</g>
<g clip-path="url(#a)">
<defs>
<path id="x" d="m48.688 27.297q0 9.9062-4.0781 15.547t-11.203 5.6406q-7.1406 0-11.219-5.6406t-4.0781-15.547 4.0781-15.547 11.219-5.6406q7.125 0 11.203 5.6406t4.0781 15.547zm-30.578 19.094q2.8438 4.875 7.1562 7.2344 4.3281 2.375 10.328 2.375 9.9688 0 16.188-7.9062 6.2344-7.9062 6.2344-20.797t-6.2344-20.812q-6.2188-7.9062-16.188-7.9062-6 0-10.328 2.375-4.3125 2.375-7.1562 7.25v-8.2031h-9.0312v75.984h9.0312z"/>
</defs>
<g transform="translate(417.48 739.83) scale(.1 -.1)">
<use xlink:href="#m"/>
<use x="39.208984" xlink:href="#i"/>
<use x="80.291016" xlink:href="#p"/>
<use x="141.472656" xlink:href="#w"/>
<use x="204.851562" xlink:href="#x"/>
<use x="268.328125" xlink:href="#f"/>
<use x="296.111328" xlink:href="#d"/>
</g>
</g>
<g clip-path="url(#a)">
<g transform="translate(476.39 739.83) scale(.1 -.1)">
<use xlink:href="#m"/>
<use x="39.208984" xlink:href="#p"/>
</g>
</g>
<g clip-path="url(#a)">
<defs>
<path id="az" d="m45.406 27.984q0 9.7656-4.0312 15.125-4.0156 5.375-11.297 5.375-7.2188 0-11.25-5.375-4.0312-5.3594-4.0312-15.125 0-9.7188 4.0312-15.094t11.25-5.375q7.2812 0 11.297 5.375 4.0312 5.375 4.0312 15.094zm8.9844-21.203q0-13.953-6.2031-20.766-6.1875-6.8125-18.984-6.8125-4.7344 0-8.9375 0.70312t-8.1562 2.1719v8.7344q3.9531-2.1406 7.8125-3.1562 3.8594-1.0312 7.8594-1.0312 8.8438 0 13.234 4.6094t4.3906 13.938v4.4531q-2.7812-4.8438-7.125-7.2344t-10.406-2.3906q-10.047 0-16.203 7.6562-6.1562 7.6719-6.1562 20.328 0 12.688 6.1562 20.344 6.1562 7.6719 16.203 7.6719 6.0625 0 10.406-2.3906t7.125-7.2188v8.2969h8.9844z"/>
</defs>
<g transform="translate(519.24 739.83) scale(.1 -.1)">
<use xlink:href="#az"/>
<use x="63.476562" xlink:href="#d"/>
<use x="125" xlink:href="#m"/>
</g>
</g>
<g clip-path="url(#a)">
<g transform="translate(565.67 739.83) scale(.1 -.1)">
<use xlink:href="#k"/>
<use x="97.412109" xlink:href="#ao"/>
</g>
</g>
<g clip-path="url(#a)">
<defs>
<path id="al" d="m48.781 52.594v-8.4062q-3.8125 2.1094-7.6406 3.1562t-7.7344 1.0469q-8.75 0-13.594-5.5469-4.8281-5.5312-4.8281-15.547t4.8281-15.562q4.8438-5.5312 13.594-5.5312 3.9062 0 7.7344 1.0469t7.6406 3.1562v-8.3125q-3.7656-1.75-7.7969-2.625-4.0156-0.89062-8.5625-0.89062-12.359 0-19.641 7.7656-7.2656 7.7656-7.2656 20.953 0 13.375 7.3438 21.031 7.3594 7.6719 20.156 7.6719 4.1406 0 8.0938-0.85938 3.9531-0.84375 7.6719-2.5469z"/>
</defs>
<g transform="translate(611.68 739.83) scale(.1 -.1)">
<use xlink:href="#al"/>
<use x="54.980469" xlink:href="#g"/>
<use x="116.259766" xlink:href="#i"/>
</g>
</g>
<g clip-path="url(#a)">
<defs>
<path id="ap" d="m9.0781 75.984h9.0312v-44.875l26.812 23.578h11.469l-29-25.578 30.234-29.109h-11.719l-27.797 26.703v-26.703h-9.0312z"/>
</defs>
<g transform="translate(642.92 739.83) scale(.1 -.1)">
<use xlink:href="#w"/>
<use x="63.378906" xlink:href="#j"/>
<use x="126.757812" xlink:href="#f"/>
<use x="154.541016" xlink:href="#p"/>
<use x="215.722656" xlink:href="#al"/>
<use x="270.703125" xlink:href="#ap"/>
<use x="328.566406" xlink:href="#d"/>
<use x="390.089844" xlink:href="#ak"/>
</g>
</g>
<g clip-path="url(#a)">
<defs>
<path id="av" d="m11.719 12.406h10.297v-8.4062l-8-15.625h-6.2969l4 15.625z"/>
</defs>
<g transform="translate(710.05 739.83) scale(.1 -.1)">
<use xlink:href="#av"/>
</g>
</g>
<g clip-path="url(#a)">
<g transform="translate(754.34 739.83) scale(.1 -.1)">
<use xlink:href="#h"/>
<use x="27.783203" xlink:href="#m"/>
</g>
</g>
<g clip-path="url(#a)">
<g transform="translate(792.76 739.83) scale(.1 -.1)">
<use xlink:href="#m"/>
<use x="39.208984" xlink:href="#p"/>
<use x="100.390625" xlink:href="#p"/>
<use x="161.572266" xlink:href="#ap"/>
</g>
</g>
<g clip-path="url(#a)">
<defs>
<path id="aw" d="m14.797 27.297q0-9.9062 4.0781-15.547t11.203-5.6406 11.219 5.6406q4.1094 5.6406 4.1094 15.547t-4.1094 15.547q-4.0938 5.6406-11.219 5.6406t-11.203-5.6406-4.0781-15.547zm30.609-19.094q-2.8281-4.875-7.1562-7.25-4.3125-2.375-10.375-2.375-9.9062 0-16.141 7.9062-6.2188 7.9219-6.2188 20.812t6.2188 20.797q6.2344 7.9062 16.141 7.9062 6.0625 0 10.375-2.375 4.3281-2.3594 7.1562-7.2344v8.2969h8.9844v-75.484h-8.9844z"/>
</defs>
<g transform="translate(837.02 739.83) scale(.1 -.1)">
<use xlink:href="#aw"/>
<use x="63.476562" xlink:href="#w"/>
<use x="126.855469" xlink:href="#h"/>
<use x="154.638672" xlink:href="#m"/>
<use x="193.847656" xlink:href="#d"/>
</g>
</g>
<g clip-path="url(#a)">
<g transform="translate(892.77 739.83) scale(.1 -.1)">
<use xlink:href="#g"/>
</g>
</g>
<g clip-path="url(#a)">
<g transform="translate(935.36 739.83) scale(.1 -.1)">
<use xlink:href="#x"/>
<use x="63.476562" xlink:href="#h"/>
<use x="91.259766" xlink:href="#m"/>
</g>
</g>
<g clip-path="url(#a)">
<g transform="translate(983.11 739.83) scale(.1 -.1)">
<use xlink:href="#p"/>
<use x="61.181641" xlink:href="#aq"/>
</g>
</g>
<g clip-path="url(#a)">
<g transform="translate(1022.7 739.83) scale(.1 -.1)">
<use xlink:href="#m"/>
<use x="39.208984" xlink:href="#h"/>
<use x="66.992188" xlink:href="#k"/>
<use x="164.404297" xlink:href="#d"/>
</g>
</g>
<g clip-path="url(#a)">
<g transform="translate(1071.7 739.83) scale(.1 -.1)">
<use xlink:href="#x"/>
<use x="63.476562" xlink:href="#w"/>
<use x="126.855469" xlink:href="#m"/>
</g>
</g>
<g clip-path="url(#a)">
<g transform="translate(1117.9 739.83) scale(.1 -.1)">
<use xlink:href="#m"/>
<use x="39.208984" xlink:href="#ae"/>
<use x="102.587891" xlink:href="#d"/>
</g>
</g>
<g clip-path="url(#a)">
<defs>
<path id="ay" d="m9.4219 54.688h8.9844v-55.672q0-10.438-3.9844-15.125-3.9688-4.6875-12.812-4.6875h-3.4219v7.6094h2.4062q5.125 0 6.9688 2.375 1.8594 2.3594 1.8594 9.8281zm0 21.297h8.9844v-11.391h-8.9844z"/>
</defs>
<g transform="translate(1164.5 739.83) scale(.1 -.1)">
<use xlink:href="#ay"/>
<use x="27.783203" xlink:href="#p"/>
<use x="88.964844" xlink:href="#x"/>
</g>
</g>
<g clip-path="url(#a)">
<g transform="translate(1208.4 739.83) scale(.1 -.1)">
<use xlink:href="#ad"/>
<use x="81.787109" xlink:href="#g"/>
<use x="143.066406" xlink:href="#aj"/>
</g>
</g>
<g clip-path="url(#a)">
<g transform="translate(1254.3 739.83) scale(.1 -.1)">
<use xlink:href="#ad"/>
<use x="81.787109" xlink:href="#d"/>
<use x="143.310547" xlink:href="#f"/>
<use x="171.09375" xlink:href="#f"/>
</g>
</g>
<g clip-path="url(#a)">
<g transform="translate(1297.8 739.83) scale(.1 -.1)">
<use xlink:href="#ak"/>
<use x="63.476562" xlink:href="#p"/>
<use x="124.658203" xlink:href="#j"/>
<use x="188.037109" xlink:href="#d"/>
</g>
</g>
<g clip-path="url(#a)">
<defs>
<path id="e" d="m10.688 12.406h10.312v-12.406h-10.312z"/>
</defs>
<g transform="translate(1354.7 739.83) scale(.1 -.1)">
<use xlink:href="#e"/>
</g>
</g>
<g clip-path="url(#a)">
<defs>
<path id="c" d="m12.406 8.2969h16.109v55.625l-17.531-3.5156v8.9844l17.438 3.5156h9.8594v-64.609h16.109v-8.2969h-41.984z"/>
</defs>
<g transform="translate(661.62 39.018) scale(.1 -.1)">
<use xlink:href="#c"/>
<use x="63.623047" xlink:href="#e"/>
<use x="95.410156" xlink:href="#c"/>
</g>
</g>
<g clip-path="url(#a)">
<defs>
<path id="o" d="m19.188 8.2969h34.422v-8.2969h-46.281v8.2969q5.6094 5.8125 15.297 15.594 9.7031 9.7969 12.188 12.641 4.7344 5.3125 6.6094 9 1.8906 3.6875 1.8906 7.25 0 5.8125-4.0781 9.4688-4.0781 3.6719-10.625 3.6719-4.6406 0-9.7969-1.6094-5.1406-1.6094-11-4.8906v9.9688q5.9531 2.3906 11.125 3.6094 5.1875 1.2188 9.4844 1.2188 11.328 0 18.062-5.6719 6.7344-5.6562 6.7344-15.125 0-4.5-1.6875-8.5312-1.6719-4.0156-6.125-9.4844-1.2188-1.4219-7.7656-8.1875-6.5312-6.7656-18.453-18.922z"/>
</defs>
<g transform="translate(59.032 602.54) scale(.1 -.1)">
<use xlink:href="#c"/>
<use x="63.623047" xlink:href="#e"/>
<use x="95.410156" xlink:href="#o"/>
</g>
</g>
<g clip-path="url(#a)">
<defs>
<path id="n" d="m40.578 39.312q7.0781-1.5156 11.047-6.3125 3.9844-4.7812 3.9844-11.812 0-10.781-7.4219-16.703-7.4219-5.9062-21.094-5.9062-4.5781 0-9.4375 0.90625t-10.031 2.7188v9.5156q4.0938-2.3906 8.9688-3.6094 4.8906-1.2188 10.219-1.2188 9.2656 0 14.125 3.6562t4.8594 10.641q0 6.4531-4.5156 10.078-4.5156 3.6406-12.562 3.6406h-8.5v8.1094h8.8906q7.2656 0 11.125 2.9062t3.8594 8.375q0 5.6094-3.9844 8.6094-3.9688 3.0156-11.391 3.0156-4.0625 0-8.7031-0.89062-4.6406-0.875-10.203-2.7188v8.7812q5.625 1.5625 10.531 2.3438t9.25 0.78125q11.234 0 17.766-5.1094 6.5469-5.0938 6.5469-13.781 0-6.0625-3.4688-10.234t-9.8594-5.7812z"/>
</defs>
<g transform="translate(139.61 465.24) scale(.1 -.1)">
<use xlink:href="#c"/>
<use x="63.623047" xlink:href="#e"/>
<use x="95.410156" xlink:href="#n"/>
</g>
</g>
<g clip-path="url(#a)">
<defs>
<path id="r" d="m37.797 64.312-24.906-38.922h24.906zm-2.5938 8.5938h12.406v-47.516h10.406v-8.2031h-10.406v-17.188h-9.8125v17.188h-32.906v9.5156z"/>
</defs>
<g transform="translate(569.87 184.14) scale(.1 -.1)">
<use xlink:href="#c"/>
<use x="63.623047" xlink:href="#e"/>
<use x="95.410156" xlink:href="#r"/>
</g>
</g>
<g clip-path="url(#a)">
<defs>
<path id="ab" d="m33.016 40.375q-6.6406 0-10.531-4.5469-3.875-4.5312-3.875-12.438 0-7.8594 3.875-12.438 3.8906-4.5625 10.531-4.5625t10.516 4.5625q3.875 4.5781 3.875 12.438 0 7.9062-3.875 12.438-3.875 4.5469-10.516 4.5469zm19.578 30.922v-8.9844q-3.7188 1.75-7.5 2.6719-3.7812 0.9375-7.5 0.9375-9.7656 0-14.922-6.5938-5.1406-6.5938-5.875-19.922 2.875 4.25 7.2188 6.5156 4.3594 2.2656 9.5781 2.2656 10.984 0 17.359-6.6719 6.375-6.6562 6.375-18.125 0-11.234-6.6406-18.031-6.6406-6.7812-17.672-6.7812-12.656 0-19.344 9.6875-6.6875 9.7031-6.6875 28.109 0 17.281 8.2031 27.562t22.016 10.281q3.7188 0 7.5-0.73438t7.8906-2.1875z"/>
</defs>
<g transform="translate(835.44 184.14) scale(.1 -.1)">
<use xlink:href="#c"/>
<use x="63.623047" xlink:href="#e"/>
<use x="95.410156" xlink:href="#ab"/>
</g>
</g>
<g clip-path="url(#a)">
<defs>
<path id="aa" d="m8.2031 72.906h46.875v-4.2031l-26.469-68.703h-10.297l24.906 64.594h-35.016z"/>
</defs>
<g transform="translate(1072.1 602.54) scale(.1 -.1)">
<use xlink:href="#c"/>
<use x="63.623047" xlink:href="#e"/>
<use x="95.410156" xlink:href="#aa"/>
</g>
</g>
<g clip-path="url(#a)">
<defs>
<path id="z" d="m31.781 34.625q-7.0312 0-11.062-3.7656-4.0156-3.7656-4.0156-10.344 0-6.5938 4.0156-10.359 4.0312-3.7656 11.062-3.7656t11.078 3.7812q4.0625 3.7969 4.0625 10.344 0 6.5781-4.0312 10.344-4.0156 3.7656-11.109 3.7656zm-9.8594 4.1875q-6.3438 1.5625-9.8906 5.9062-3.5312 4.3594-3.5312 10.609 0 8.7344 6.2188 13.812 6.2344 5.0781 17.062 5.0781 10.891 0 17.094-5.0781t6.2031-13.812q0-6.25-3.5469-10.609-3.5312-4.3438-9.8281-5.9062 7.125-1.6562 11.094-6.5 3.9844-4.8281 3.9844-11.797 0-10.609-6.4688-16.281-6.4688-5.6562-18.531-5.6562-12.047 0-18.531 5.6562-6.4688 5.6719-6.4688 16.281 0 6.9688 4 11.797 4.0156 4.8438 11.141 6.5zm-3.6094 15.578q0-5.6562 3.5312-8.8281 3.5469-3.1719 9.9375-3.1719 6.3594 0 9.9375 3.1719 3.5938 3.1719 3.5938 8.8281 0 5.6719-3.5938 8.8438-3.5781 3.1719-9.9375 3.1719-6.3906 0-9.9375-3.1719-3.5312-3.1719-3.5312-8.8438z"/>
</defs>
<g transform="translate(1251.7 184.14) scale(.1 -.1)">
<use xlink:href="#c"/>
<use x="63.623047" xlink:href="#e"/>
<use x="95.410156" xlink:href="#z"/>
</g>
</g>
<g clip-path="url(#a)">
<defs>
<path id="ac" d="m31.781 66.406q-7.6094 0-11.453-7.5-3.8281-7.4844-3.8281-22.531 0-14.984 3.8281-22.484 3.8438-7.5 11.453-7.5 7.6719 0 11.5 7.5 3.8438 7.5 3.8438 22.484 0 15.047-3.8438 22.531-3.8281 7.5-11.5 7.5zm0 7.8125q12.266 0 18.734-9.7031 6.4688-9.6875 6.4688-28.141 0-18.406-6.4688-28.109-6.4688-9.6875-18.734-9.6875-12.25 0-18.719 9.6875-6.4688 9.7031-6.4688 28.109 0 18.453 6.4688 28.141 6.4688 9.7031 18.719 9.7031z"/>
</defs>
<g transform="translate(1138 326.03) scale(.1 -.1)">
<use xlink:href="#c"/>
<use x="63.623047" xlink:href="#e"/>
<use x="95.410156" xlink:href="#c"/>
<use x="159.033203" xlink:href="#ac"/>
</g>
</g>
<g clip-path="url(#a)">
<g transform="translate(1207 602.54) scale(.1 -.1)">
<use xlink:href="#c"/>
<use x="63.623047" xlink:href="#e"/>
<use x="95.410156" xlink:href="#c"/>
<use x="159.033203" xlink:href="#c"/>
</g>
</g>
<g clip-path="url(#a)">
<g transform="translate(1253.1 602.54) scale(.1 -.1)">
<use xlink:href="#c"/>
<use x="63.623047" xlink:href="#e"/>
<use x="95.410156" xlink:href="#c"/>
<use x="159.033203" xlink:href="#o"/>
</g>
</g>
<g clip-path="url(#a)">
<g transform="translate(1299.1 602.54) scale(.1 -.1)">
<use xlink:href="#c"/>
<use x="63.623047" xlink:href="#e"/>
<use x="95.410156" xlink:href="#c"/>
<use x="159.033203" xlink:href="#n"/>
</g>
</g>
<g clip-path="url(#a)">
<g transform="translate(1138 465.24) scale(.1 -.1)">
<use xlink:href="#c"/>
<use x="63.623047" xlink:href="#e"/>
<use x="95.410156" xlink:href="#c"/>
<use x="159.033203" xlink:href="#r"/>
</g>
</g>
<g clip-path="url(#a)">
<defs>
<path id="an" d="m10.797 72.906h38.719v-8.3125h-29.688v-17.859q2.1406 0.73438 4.2812 1.0938 2.1562 0.35938 4.3125 0.35938 12.203 0 19.328-6.6875 7.1406-6.6875 7.1406-18.109 0-11.766-7.3281-18.297-7.3281-6.5156-20.656-6.5156-4.5938 0-9.3594 0.78125-4.75 0.78125-9.8281 2.3438v9.9219q4.3906-2.3906 9.0781-3.5625t9.9062-1.1719q8.4531 0 13.375 4.4375 4.9375 4.4375 4.9375 12.062 0 7.6094-4.9375 12.047-4.9219 4.4531-13.375 4.4531-3.9531 0-7.8906-0.875-3.9219-0.875-8.0156-2.7344z"/>
</defs>
<g transform="translate(1114.9 602.54) scale(.1 -.1)">
<use xlink:href="#c"/>
<use x="63.623047" xlink:href="#e"/>
<use x="95.410156" xlink:href="#c"/>
<use x="159.033203" xlink:href="#an"/>
</g>
</g>
<g clip-path="url(#a)">
<g transform="translate(1161 602.54) scale(.1 -.1)">
<use xlink:href="#c"/>
<use x="63.623047" xlink:href="#e"/>
<use x="95.410156" xlink:href="#c"/>
<use x="159.033203" xlink:href="#ab"/>
</g>
</g>
<g clip-path="url(#a)">
<g transform="translate(746.56 602.54) scale(.1 -.1)">
<use xlink:href="#c"/>
<use x="63.623047" xlink:href="#e"/>
<use x="95.410156" xlink:href="#c"/>
<use x="159.033203" xlink:href="#aa"/>
</g>
</g>
<g clip-path="url(#a)">
<g transform="translate(792.6 602.54) scale(.1 -.1)">
<use xlink:href="#c"/>
<use x="63.623047" xlink:href="#e"/>
<use x="95.410156" xlink:href="#c"/>
<use x="159.033203" xlink:href="#z"/>
</g>
</g>
<g clip-path="url(#a)">
<defs>
<path id="ai" d="m10.984 1.5156v8.9844q3.7188-1.7656 7.5156-2.6875 3.8125-0.92188 7.4844-0.92188 9.7656 0 14.906 6.5625 5.1562 6.5625 5.8906 19.953-2.8281-4.2031-7.1875-6.4531-4.3438-2.25-9.6094-2.25-10.938 0-17.312 6.6094-6.375 6.625-6.375 18.109 0 11.219 6.6406 18 6.6406 6.7969 17.672 6.7969 12.656 0 19.312-9.7031 6.6719-9.6875 6.6719-28.141 0-17.234-8.1875-27.516-8.1719-10.281-21.984-10.281-3.7188 0-7.5312 0.73438-3.7969 0.73438-7.9062 2.2031zm19.625 30.906q6.6406 0 10.516 4.5312 3.8906 4.5469 3.8906 12.469 0 7.8594-3.8906 12.422-3.875 4.5625-10.516 4.5625t-10.516-4.5625-3.875-12.422q0-7.9219 3.875-12.469 3.875-4.5312 10.516-4.5312z"/>
</defs>
<g transform="translate(957.61 326.03) scale(.1 -.1)">
<use xlink:href="#c"/>
<use x="63.623047" xlink:href="#e"/>
<use x="95.410156" xlink:href="#c"/>
<use x="159.033203" xlink:href="#ai"/>
</g>
</g>
<g clip-path="url(#a)">
<g transform="translate(873.19 465.24) scale(.1 -.1)">
<use xlink:href="#c"/>
<use x="63.623047" xlink:href="#e"/>
<use x="95.410156" xlink:href="#o"/>
<use x="159.033203" xlink:href="#ac"/>
</g>
</g>
<g clip-path="url(#a)">
<g transform="translate(976.79 602.54) scale(.1 -.1)">
<use xlink:href="#c"/>
<use x="63.623047" xlink:href="#e"/>
<use x="95.410156" xlink:href="#o"/>
<use x="159.033203" xlink:href="#c"/>
</g>
</g>
<g clip-path="url(#a)">
<g transform="translate(1022.8 602.54) scale(.1 -.1)">
<use xlink:href="#c"/>
<use x="63.623047" xlink:href="#e"/>
<use x="95.410156" xlink:href="#o"/>
<use x="159.033203" xlink:href="#o"/>
</g>
</g>
<g clip-path="url(#a)">
<g transform="translate(838.65 602.54) scale(.1 -.1)">
<use xlink:href="#c"/>
<use x="63.623047" xlink:href="#e"/>
<use x="95.410156" xlink:href="#o"/>
<use x="159.033203" xlink:href="#n"/>
</g>
</g>
<g clip-path="url(#a)">
<g transform="translate(907.72 602.54) scale(.1 -.1)">
<use xlink:href="#c"/>
<use x="63.623047" xlink:href="#e"/>
<use x="95.410156" xlink:href="#o"/>
<use x="159.033203" xlink:href="#r"/>
</g>
</g>
<g clip-path="url(#a)">
<defs>
<path id="ag" d="m9.8125 72.906h9.8594v-72.906h-9.8594z"/>
<path id="au" d="m9.8125 72.906h14.703l18.594-49.609 18.703 49.609h14.703v-72.906h-9.625v64.016l-18.797-50h-9.9062l-18.797 50v-64.016h-9.5781z"/>
</defs>
<g transform="translate(1381.3 739.83) scale(.1 -.1)">
<use xlink:href="#ag"/>
<use x="29.492188" xlink:href="#au"/>
<use x="115.771484" xlink:href="#s"/>
<use x="176.074219" xlink:href="#af"/>
<use x="231.787109" xlink:href="#ag"/>
<use x="261.279297" xlink:href="#t"/>
<use x="331.103516" xlink:href="#ag"/>
<use x="360.595703" xlink:href="#l"/>
</g>
</g>
<g clip-path="url(#a)">
<g transform="translate(240.04 602.54) scale(.1 -.1)">
<use xlink:href="#c"/>
<use x="63.623047" xlink:href="#e"/>
<use x="95.410156" xlink:href="#o"/>
<use x="159.033203" xlink:href="#ab"/>
</g>
</g>
<g clip-path="url(#a)">
<g transform="translate(286.09 602.54) scale(.1 -.1)">
<use xlink:href="#c"/>
<use x="63.623047" xlink:href="#e"/>
<use x="95.410156" xlink:href="#o"/>
<use x="159.033203" xlink:href="#aa"/>
</g>
</g>
<g clip-path="url(#a)">
<g transform="translate(378.18 465.24) scale(.1 -.1)">
<use xlink:href="#c"/>
<use x="63.623047" xlink:href="#e"/>
<use x="95.410156" xlink:href="#o"/>
<use x="159.033203" xlink:href="#z"/>
</g>
</g>
<g clip-path="url(#a)">
<g transform="translate(470.27 602.54) scale(.1 -.1)">
<use xlink:href="#c"/>
<use x="63.623047" xlink:href="#e"/>
<use x="95.410156" xlink:href="#o"/>
<use x="159.033203" xlink:href="#ai"/>
</g>
</g>
<g clip-path="url(#a)">
<g transform="translate(516.32 602.54) scale(.1 -.1)">
<use xlink:href="#c"/>
<use x="63.623047" xlink:href="#e"/>
<use x="95.410156" xlink:href="#n"/>
<use x="159.033203" xlink:href="#ac"/>
</g>
</g>
<g clip-path="url(#a)">
<g transform="translate(596.9 326.03) scale(.1 -.1)">
<use xlink:href="#c"/>
<use x="63.623047" xlink:href="#e"/>
<use x="95.410156" xlink:href="#n"/>
<use x="159.033203" xlink:href="#c"/>
</g>
</g>
<g clip-path="url(#a)">
<g transform="translate(654.46 602.54) scale(.1 -.1)">
<use xlink:href="#c"/>
<use x="63.623047" xlink:href="#e"/>
<use x="95.410156" xlink:href="#n"/>
<use x="159.033203" xlink:href="#o"/>
</g>
</g>
<g clip-path="url(#a)">
<g transform="translate(585.39 465.24) scale(.1 -.1)">
<use xlink:href="#c"/>
<use x="63.623047" xlink:href="#e"/>
<use x="95.410156" xlink:href="#n"/>
<use x="159.033203" xlink:href="#n"/>
</g>
</g>
<g clip-path="url(#a)">
<g transform="translate(608.42 602.54) scale(.1 -.1)">
<use xlink:href="#c"/>
<use x="63.623047" xlink:href="#e"/>
<use x="95.410156" xlink:href="#n"/>
<use x="159.033203" xlink:href="#r"/>
</g>
</g>
<g clip-path="url(#a)">
<g transform="translate(562.37 602.54) scale(.1 -.1)">
<use xlink:href="#c"/>
<use x="63.623047" xlink:href="#e"/>
<use x="95.410156" xlink:href="#n"/>
<use x="159.033203" xlink:href="#an"/>
</g>
</g>
<g clip-path="url(#a)">
<g transform="translate(332.13 602.54) scale(.1 -.1)">
<use xlink:href="#c"/>
<use x="63.623047" xlink:href="#e"/>
<use x="95.410156" xlink:href="#n"/>
<use x="159.033203" xlink:href="#ab"/>
</g>
</g>
<g clip-path="url(#a)">
<g transform="translate(378.18 602.54) scale(.1 -.1)">
<use xlink:href="#c"/>
<use x="63.623047" xlink:href="#e"/>
<use x="95.410156" xlink:href="#n"/>
<use x="159.033203" xlink:href="#aa"/>
</g>
</g>
<g clip-path="url(#a)">
<g transform="translate(424.23 602.54) scale(.1 -.1)">
<use xlink:href="#c"/>
<use x="63.623047" xlink:href="#e"/>
<use x="95.410156" xlink:href="#n"/>
<use x="159.033203" xlink:href="#z"/>
</g>
</g>
<g clip-path="url(#a)">
<g transform="translate(101.9 602.54) scale(.1 -.1)">
<use xlink:href="#c"/>
<use x="63.623047" xlink:href="#e"/>
<use x="95.410156" xlink:href="#n"/>
<use x="159.033203" xlink:href="#ai"/>
</g>
</g>
<g clip-path="url(#a)">
<g transform="translate(170.97 602.54) scale(.1 -.1)">
<use xlink:href="#c"/>
<use x="63.623047" xlink:href="#e"/>
<use x="95.410156" xlink:href="#r"/>
<use x="159.033203" xlink:href="#ac"/>
</g>
</g>
<g clip-path="url(#a)">
<g transform="translate(700.51 602.54) scale(.1 -.1)">
<use xlink:href="#c"/>
<use x="63.623047" xlink:href="#e"/>
<use x="95.410156" xlink:href="#r"/>
<use x="159.033203" xlink:href="#c"/>
</g>
</g>
<g clip-path="url(#a)">
<g transform="translate(1345.2 602.54) scale(.1 -.1)">
<use xlink:href="#c"/>
<use x="63.623047" xlink:href="#e"/>
<use x="95.410156" xlink:href="#r"/>
<use x="159.033203" xlink:href="#o"/>
</g>
</g>
<defs>
<clipPath id="a">
<rect width="1469.3" height="773.33"/>
</clipPath>
</defs>
</svg>
