<?xml version="1.0" encoding="UTF-8"?>
<!DOCTYPE svg  PUBLIC '-//W3C//DTD SVG 1.1//EN'  'http://www.w3.org/Graphics/SVG/1.1/DTD/svg11.dtd'>
<svg width="2128pt" height="1120pt" version="1.1" viewBox="0 0 2128 1120" xmlns="http://www.w3.org/2000/svg" xmlns:xlink="http://www.w3.org/1999/xlink">
<defs>
<style type="text/css">*{stroke-linecap:butt;stroke-linejoin:round;}</style>
</defs>
<path d="m0 1120h2128v-1120h-2128z" fill="#fff"/>
<g fill="none" stroke="#000">
<path d="m1117 52.017-853.33 210.38" clip-path="url(#a)"/>
<path d="m1117 52.017-501.19 816.93" clip-path="url(#a)"/>
<path d="m1117 52.017-377.35 416.08" clip-path="url(#a)"/>
<path d="m1117 52.017-58.901 210.38" clip-path="url(#a)"/>
<path d="m1117 52.017 112.12 816.93" clip-path="url(#a)"/>
<path d="m1117 52.017 342.11 416.08" clip-path="url(#a)"/>
<path d="m1117 52.017 678.24 816.93" clip-path="url(#a)"/>
<path d="m1117 52.017 728.79 617.89" clip-path="url(#a)"/>
<path d="m1117 52.017-548.37 816.93" clip-path="url(#a)"/>
<path d="m1117 52.017-218.12 816.93" clip-path="url(#a)"/>
<path d="m1117 52.017 64.939 816.93" clip-path="url(#a)"/>
<path d="m1117 52.017 631.07 816.93" clip-path="url(#a)"/>
<path d="m263.67 262.4-166.81 606.54" clip-path="url(#a)"/>
<path d="m263.67 262.4-119.63 606.54" clip-path="url(#a)"/>
<path d="m263.67 262.4-72.451 606.54" clip-path="url(#a)"/>
<path d="m263.67 262.4-25.274 606.54" clip-path="url(#a)"/>
<path d="m263.67 262.4 57.287 205.69" clip-path="url(#a)"/>
<path d="m263.67 262.4 116.26 606.54" clip-path="url(#a)"/>
<path d="m263.67 262.4 210.61 407.5" clip-path="url(#a)"/>
<path d="m615.82 868.94v199.04" clip-path="url(#a)"/>
<path d="m739.66 468.09-76.663 400.85" clip-path="url(#a)"/>
<path d="m739.66 468.09-29.486 400.85" clip-path="url(#a)"/>
<path d="m739.66 468.09 17.691 400.85" clip-path="url(#a)"/>
<path d="m739.66 468.09 88.457 201.81" clip-path="url(#a)"/>
<path d="m1058.1 262.4-88.457 205.69" clip-path="url(#a)"/>
<path d="m1058.1 262.4-17.691 606.54" clip-path="url(#a)"/>
<path d="m1058.1 262.4 29.486 606.54" clip-path="url(#a)"/>
<path d="m1058.1 262.4 76.663 606.54" clip-path="url(#a)"/>
<path d="m1229.1 868.94v199.04" clip-path="url(#a)"/>
<path d="m1459.1 468.09-182.81 400.85" clip-path="url(#a)"/>
<path d="m1459.1 468.09-135.63 400.85" clip-path="url(#a)"/>
<path d="m1459.1 468.09-88.457 400.85" clip-path="url(#a)"/>
<path d="m1459.1 468.09-41.28 400.85" clip-path="url(#a)"/>
<path d="m1459.1 468.09 76.663 400.85" clip-path="url(#a)"/>
<path d="m1459.1 468.09 218.19 201.81" clip-path="url(#a)"/>
<path d="m1459.1 468.09 5.8972 400.85" clip-path="url(#a)"/>
<path d="m1459.1 468.09 147.43 400.85" clip-path="url(#a)"/>
<path d="m1795.2 868.94v199.04" clip-path="url(#a)"/>
<path d="m1845.8 669.9-3.3698 199.04" clip-path="url(#a)"/>
<path d="m1845.8 669.9 43.807 199.04" clip-path="url(#a)"/>
<path d="m1845.8 669.9 90.985 199.04" clip-path="url(#a)"/>
<path d="m1845.8 669.9 138.16 199.04" clip-path="url(#a)"/>
<path d="m1845.8 669.9-310.02 199.04" clip-path="url(#a)" stroke-dasharray="3.7,1.6"/>
<path d="m1845.8 669.9-144.9 199.04" clip-path="url(#a)" stroke-dasharray="3.7,1.6"/>
<path d="m1845.8 669.9 185.34 199.04" clip-path="url(#a)"/>
<path d="m1842.4 868.94v199.04" clip-path="url(#a)"/>
<path d="m1889.6 868.94v199.04" clip-path="url(#a)"/>
<path d="m1936.8 868.94v199.04" clip-path="url(#a)"/>
<path d="m1984 868.94v199.04" clip-path="url(#a)"/>
<path d="m1276.3 868.94v199.04" clip-path="url(#a)"/>
<path d="m1323.5 868.94v199.04" clip-path="url(#a)"/>
<path d="m1370.7 868.94v199.04" clip-path="url(#a)"/>
<path d="m1417.8 868.94v199.04" clip-path="url(#a)"/>
<path d="m1535.8 868.94-23.589 199.04" clip-path="url(#a)"/>
<path d="m1535.8 868.94 23.589 199.04" clip-path="url(#a)"/>
<path d="m1677.3 669.9-23.589 199.04" clip-path="url(#a)"/>
<path d="m1677.3 669.9 23.589 199.04" clip-path="url(#a)"/>
<path d="m1653.7 868.94v199.04" clip-path="url(#a)"/>
<path d="m1700.9 868.94v199.04" clip-path="url(#a)"/>
<path d="m969.65 468.09-23.589 400.85" clip-path="url(#a)"/>
<path d="m969.65 468.09 23.589 201.81" clip-path="url(#a)"/>
<path d="m1040.4 868.94v199.04" clip-path="url(#a)"/>
<path d="m1087.6 868.94v199.04" clip-path="url(#a)"/>
<path d="m1134.8 868.94v199.04" clip-path="url(#a)"/>
<path d="m946.06 868.94v199.04" clip-path="url(#a)"/>
<path d="m993.23 669.9v199.04" clip-path="url(#a)"/>
<path d="m993.23 868.94v199.04" clip-path="url(#a)"/>
<path d="m662.99 868.94v199.04" clip-path="url(#a)"/>
<path d="m710.17 868.94v199.04" clip-path="url(#a)"/>
<path d="m757.35 868.94v199.04" clip-path="url(#a)"/>
<path d="m828.11 669.9-23.589 199.04" clip-path="url(#a)"/>
<path d="m828.11 669.9 23.589 199.04" clip-path="url(#a)"/>
<path d="m804.52 868.94v199.04" clip-path="url(#a)"/>
<path d="m851.7 868.94v199.04" clip-path="url(#a)"/>
<path d="m96.866 868.94v199.04" clip-path="url(#a)"/>
<path d="m144.04 868.94v199.04" clip-path="url(#a)"/>
<path d="m191.22 868.94v199.04" clip-path="url(#a)"/>
<path d="m238.4 868.94v199.04" clip-path="url(#a)"/>
<path d="m320.96 468.09-11.794 201.81" clip-path="url(#a)"/>
<path d="m320.96 468.09 11.794 400.85" clip-path="url(#a)"/>
<path d="m379.93 868.94v199.04" clip-path="url(#a)"/>
<path d="m474.28 669.9-47.177 199.04" clip-path="url(#a)"/>
<path d="m474.28 669.9v199.04" clip-path="url(#a)"/>
<path d="m474.28 669.9 47.177 199.04" clip-path="url(#a)"/>
<path d="m427.11 868.94v199.04" clip-path="url(#a)"/>
<path d="m474.28 868.94v199.04" clip-path="url(#a)"/>
<path d="m521.46 868.94v199.04" clip-path="url(#a)"/>
<path d="m309.16 669.9 23.589 199.04" clip-path="url(#a)" stroke-dasharray="3.7,1.6"/>
<path d="m309.16 669.9-23.589 199.04" clip-path="url(#a)"/>
<path d="m332.75 868.94v199.04" clip-path="url(#a)"/>
<path d="m285.57 868.94v199.04" clip-path="url(#a)"/>
<path d="m568.64 868.94v199.04" clip-path="url(#a)"/>
<path d="m898.88 868.94v199.04" clip-path="url(#a)"/>
<path d="m1181.9 868.94v199.04" clip-path="url(#a)"/>
<path d="m1465 868.94v199.04" clip-path="url(#a)"/>
<path d="m1606.5 868.94v199.04" clip-path="url(#a)"/>
<path d="m1748.1 868.94v199.04" clip-path="url(#a)"/>
<path d="m2031.1 868.94v199.04" clip-path="url(#a)"/>
</g>
<path d="m688.92 164.02 5.8413-1.4401q2.3302-0.5745 1.7557-2.9047l-1.8533-7.5174q-0.5745-2.3302-2.9047-1.7557l-5.8413 1.4401q-2.3302 0.5745-1.7557 2.9047l1.8534 7.5174q0.5745 2.3302 2.9047 1.7557z" clip-path="url(#a)" fill="#fff" stroke="#fff"/>
<g clip-path="url(#a)">
<defs>
<path id="ad" d="m9.8125 72.906h9.8594v-29.891h35.844v29.891h9.8594v-72.906h-9.8594v34.719h-35.844v-34.719h-9.8594z"/>
</defs>
<g transform="translate(687.95 160.07) rotate(-13.85) scale(.08 -.08)">
<use xlink:href="#ad"/>
</g>
</g>
<path d="m870.59 465.66 2.331-3.7994q1.255-2.0457-0.79065-3.3007l-6.5995-4.0488q-2.0457-1.255-3.3007 0.79065l-2.331 3.7994q-1.255 2.0457 0.79065 3.3007l6.5995 4.0488q2.0457 1.255 3.3007-0.79065z" clip-path="url(#a)" fill="#fff" stroke="#fff"/>
<g clip-path="url(#a)">
<defs>
<path id="al" d="m9.8125 72.906h9.8594v-64.609h35.5v-8.2969h-45.359z"/>
</defs>
<g transform="translate(867.13 463.53) rotate(-58.471) scale(.08 -.08)">
<use xlink:href="#al"/>
</g>
</g>
<path d="m930.95 266.5 4.0417-4.4565q1.6123-1.7778-0.16548-3.3901l-5.7352-5.2013q-1.7778-1.6123-3.3901 0.16548l-4.0417 4.4565q-1.6123 1.7778 0.16548 3.3901l5.7352 5.2013q1.7778 1.6123 3.3901-0.16548z" clip-path="url(#a)" fill="#fff" stroke="#fff"/>
<g clip-path="url(#a)">
<g transform="translate(927.94 263.77) rotate(-47.794) scale(.08 -.08)">
<use xlink:href="#ad"/>
</g>
</g>
<path d="m1092.8 161.8 1.622-5.7935q0.64706-2.3111-1.6641-2.9582l-7.4558-2.0874q-2.3111-0.64706-2.9582 1.6641l-1.622 5.7935q-0.64706 2.3111 1.6641 2.9582l7.4558 2.0874q2.3111 0.64706 2.9582-1.6641z" clip-path="url(#a)" fill="#fff" stroke="#fff"/>
<g clip-path="url(#a)">
<g transform="translate(1088.9 160.7) rotate(-74.359) scale(.08 -.08)">
<use xlink:href="#ad"/>
</g>
</g>
<path d="m1166.5 459.12 0.60607 4.4161q0.32632 2.3777 2.704 2.0514l7.6706-1.0527q2.3777-0.32632 2.0514-2.704l-0.60607-4.4161q-0.32632-2.3777-2.704-2.0514l-7.6706 1.0527q-2.3777 0.32632-2.0514 2.704z" clip-path="url(#a)" fill="#fff" stroke="#fff"/>
<g clip-path="url(#a)">
<g transform="translate(1170.6 458.57) rotate(82.185) scale(.08 -.08)">
<use xlink:href="#al"/>
</g>
</g>
<path d="m1281.3 261.71 3.8209 4.6471q1.5242 1.8538 3.3781 0.32958l5.9805-4.9173q1.8538-1.5242 0.32958-3.3781l-3.8209-4.6471q-1.5242-1.8538-3.3781-0.32958l-5.9805 4.9173q-1.8538 1.5242-0.32958 3.3781z" clip-path="url(#a)" fill="#fff" stroke="#fff"/>
<g clip-path="url(#a)">
<g transform="translate(1284.4 259.13) rotate(50.572) scale(.08 -.08)">
<use xlink:href="#ad"/>
</g>
</g>
<path d="m1449.9 462.77 2.8474 3.4296q1.5331 1.8465 3.3796 0.31347l5.957-4.9457q1.8465-1.5331 0.31347-3.3796l-2.8474-3.4296q-1.5331-1.8465-3.3796-0.31347l-5.957 4.9457q-1.8465 1.5331-0.31347 3.3796z" clip-path="url(#a)" fill="#fff" stroke="#fff"/>
<g clip-path="url(#a)">
<g transform="translate(1453 460.18) rotate(50.299) scale(.08 -.08)">
<use xlink:href="#al"/>
</g>
</g>
<path d="m1475 363.8 4.5889 3.8906q1.8306 1.552 3.3827-0.27858l5.0069-5.9057q1.552-1.8306-0.27858-3.3827l-4.5889-3.8906q-1.8306-1.552-3.3827 0.27858l-5.007 5.9057q-1.552 1.8306 0.27858 3.3827z" clip-path="url(#a)" fill="#fff" stroke="#fff"/>
<g clip-path="url(#a)">
<g transform="translate(1477.7 360.7) rotate(40.292) scale(.08 -.08)">
<use xlink:href="#ad"/>
</g>
</g>
<path d="m846.4 466.41 3.2632-4.8613q1.3376-1.9927-0.65508-3.3303l-6.4285-4.3152q-1.9927-1.3376-3.3303 0.65509l-3.2632 4.8613q-1.3376 1.9927 0.65509 3.3303l6.4285 4.3152q1.9927 1.3376 3.3303-0.65508z" clip-path="url(#a)" fill="#fff" stroke="#fff"/>
<g clip-path="url(#a)">
<defs>
<path id="v" d="m8.6875 72.906h9.9219v-44.297q0-11.719 4.2344-16.875 4.25-5.1406 13.781-5.1406 9.4688 0 13.719 5.1406 4.25 5.1562 4.25 16.875v44.297h9.9062v-45.516q0-14.25-7.0625-21.531-7.0469-7.2812-20.812-7.2812-13.828 0-20.891 7.2812-7.0469 7.2812-7.0469 21.531z"/>
</defs>
<g transform="translate(843.02 464.14) rotate(-56.128) scale(.08 -.08)">
<use xlink:href="#v"/>
</g>
</g>
<path d="m1013.2 464.93 1.5104-5.6568q0.61913-2.3188-1.6996-2.9379l-7.4804-1.9973q-2.3188-0.61913-2.9379 1.6996l-1.5104 5.6568q-0.61913 2.3188 1.6996 2.9379l7.4804 1.9973q2.3188 0.61913 2.9379-1.6996z" clip-path="url(#a)" fill="#fff" stroke="#fff"/>
<g clip-path="url(#a)">
<g transform="translate(1009.3 463.88) rotate(-75.05) scale(.08 -.08)">
<use xlink:href="#v"/>
</g>
</g>
<path d="m1143 458.06 0.46396 5.8366q0.19018 2.3925 2.5826 2.2023l7.7182-0.61353q2.3925-0.19018 2.2023-2.5826l-0.46396-5.8366q-0.19018-2.3925-2.5826-2.2023l-7.7182 0.61353q-2.3925 0.19018-2.2023 2.5826z" clip-path="url(#a)" fill="#fff" stroke="#fff"/>
<g clip-path="url(#a)">
<g transform="translate(1147 457.74) rotate(85.455) scale(.08 -.08)">
<use xlink:href="#v"/>
</g>
</g>
<path d="m1425.8 462 3.5793 4.6335q1.4672 1.8993 3.3665 0.43211l6.1272-4.7332q1.8993-1.4672 0.43211-3.3665l-3.5793-4.6335q-1.4672-1.8993-3.3665-0.43211l-6.1272 4.7332q-1.8993 1.4672-0.43211 3.3665z" clip-path="url(#a)" fill="#fff" stroke="#fff"/>
<g clip-path="url(#a)">
<g transform="translate(1429 459.51) rotate(52.314) scale(.08 -.08)">
<use xlink:href="#v"/>
</g>
</g>
<path d="m185.59 569.97 1.4511-5.2766q0.6364-2.3141-1.6777-2.9505l-7.4653-2.053q-2.3141-0.6364-2.9505 1.6777l-1.4511 5.2766q-0.6364 2.3141 1.6777 2.9505l7.4653 2.053q2.3141 0.6364 2.9505-1.6777z" clip-path="url(#a)" fill="#fff" stroke="#fff"/>
<g clip-path="url(#a)">
<defs>
<path id="s" d="m34.188 63.188-13.391-36.281h26.812zm-5.5781 9.7188h11.188l27.781-72.906h-10.25l-6.6406 18.703h-32.859l-6.6406-18.703h-10.406z"/>
</defs>
<g transform="translate(181.67 568.89) rotate(-74.623) scale(.08 -.08)">
<use xlink:href="#s"/>
</g>
</g>
<path d="m209.41 569.91 1.192-6.0436q0.4644-2.3546-1.8902-2.819l-7.5962-1.4982q-2.3546-0.4644-2.819 1.8902l-1.192 6.0436q-0.4644 2.3546 1.8902 2.819l7.5962 1.4982q2.3546 0.4644 2.819-1.8902z" clip-path="url(#a)" fill="#fff" stroke="#fff"/>
<g clip-path="url(#a)">
<defs>
<path id="ag" d="m19.672 64.797v-56.688h11.922q15.094 0 22.094 6.8281 7 6.8438 7 21.594 0 14.641-7 21.453t-22.094 6.8125zm-9.8594 8.1094h20.266q21.188 0 31.094-8.8125 9.9219-8.8125 9.9219-27.562 0-18.859-9.9688-27.703-9.9531-8.8281-31.047-8.8281h-20.266z"/>
</defs>
<g transform="translate(205.43 569.12) rotate(-78.843) scale(.08 -.08)">
<use xlink:href="#ag"/>
</g>
</g>
<path d="m233.4 568.7 0.54573-4.5688q0.28465-2.3831-2.0984-2.6677l-7.6878-0.9183q-2.3831-0.28465-2.6677 2.0984l-0.54573 4.5688q-0.28465 2.3831 2.0984 2.6677l7.6878 0.9183q2.3831 0.28465 2.6677-2.0984z" clip-path="url(#a)" fill="#fff" stroke="#fff"/>
<g clip-path="url(#a)">
<defs>
<path id="ae" d="m9.8125 72.906h41.891v-8.3125h-32.031v-21.484h28.906v-8.2969h-28.906v-34.812h-9.8594z"/>
</defs>
<g transform="translate(229.36 568.22) rotate(-83.188) scale(.08 -.08)">
<use xlink:href="#ae"/>
</g>
</g>
<path d="m257.2 568.34 0.20082-4.8196q0.099917-2.3979-2.298-2.4978l-7.7358-0.32234q-2.3979-0.099917-2.4978 2.298l-0.20082 4.8196q-0.099917 2.3979 2.298 2.4978l7.7358 0.32234q2.3979 0.099917 2.4978-2.298z" clip-path="url(#a)" fill="#fff" stroke="#fff"/>
<g clip-path="url(#a)">
<defs>
<path id="y" d="m19.672 64.797v-27.391h12.406q6.8906 0 10.641 3.5625 3.7656 3.5625 3.7656 10.156 0 6.5469-3.7656 10.109-3.75 3.5625-10.641 3.5625zm-9.8594 8.1094h22.266q12.266 0 18.531-5.5469 6.2812-5.5469 6.2812-16.234 0-10.797-6.2812-16.312-6.2656-5.5156-18.531-5.5156h-12.406v-29.297h-9.8594z"/>
</defs>
<g transform="translate(253.14 568.17) rotate(-87.614) scale(.08 -.08)">
<use xlink:href="#y"/>
</g>
</g>
<path d="m285.54 364.29 1.4682 5.2719q0.6439 2.312 2.9559 1.6681l7.4586-2.0773q2.312-0.6439 1.6681-2.9559l-1.4682-5.2719q-0.6439-2.312-2.9559-1.6681l-7.4586 2.0773q-2.312 0.6439-1.6681 2.9559z" clip-path="url(#a)" fill="#fff" stroke="#fff"/>
<g clip-path="url(#a)">
<g transform="translate(289.45 363.2) rotate(74.437) scale(.08 -.08)">
<use xlink:href="#s"/>
</g>
</g>
<path d="m315.13 564.16 1.0302 5.3747q0.45179 2.3571 2.8089 1.9053l7.6041-1.4575q2.3571-0.45179 1.9053-2.8089l-1.0302-5.3747q-0.45179-2.3571-2.8089-1.9053l-7.6041 1.4575q-2.3571 0.45179-1.9053 2.8089z" clip-path="url(#a)" fill="#fff" stroke="#fff"/>
<g clip-path="url(#a)">
<g transform="translate(319.12 563.4) rotate(79.15) scale(.08 -.08)">
<use xlink:href="#s"/>
</g>
</g>
<path d="m362.28 466.86 2.2435 4.3408q1.1019 2.1321 3.234 1.0301l6.8782-3.5549q2.1321-1.1019 1.0301-3.234l-2.2435-4.3408q-1.1019-2.1321-3.234-1.0301l-6.8782 3.5549q-2.1321 1.1019-1.0301 3.234z" clip-path="url(#a)" fill="#fff" stroke="#fff"/>
<g clip-path="url(#a)">
<defs>
<path id="k" d="m-0.29688 72.906h61.672v-8.3125h-25.875v-64.594h-9.9062v64.594h-25.891z"/>
</defs>
<g transform="translate(365.89 464.99) rotate(62.668) scale(.08 -.08)">
<use xlink:href="#k"/>
</g>
</g>
<path d="m609.54 950.82v35.285q0 2.4 2.4 2.4h7.7425q2.4 0 2.4-2.4v-35.285q0-2.4-2.4-2.4h-7.7425q-2.4 0-2.4 2.4z" clip-path="url(#a)" fill="#fff" stroke="#fff"/>
<g clip-path="url(#a)">
<defs>
<path id="c" d="m56.203 29.594v-4.3906h-41.312q0.59375-9.2812 5.5938-14.141t13.938-4.8594q5.1719 0 10.031 1.2656t9.6562 3.8125v-8.5q-4.8438-2.0469-9.9219-3.125t-10.297-1.0781q-13.094 0-20.734 7.6094-7.6406 7.625-7.6406 20.625 0 13.422 7.25 21.297 7.25 7.8906 19.562 7.8906 11.031 0 17.453-7.1094 6.4219-7.0938 6.4219-19.297zm-8.9844 2.6406q-0.09375 7.3594-4.125 11.75-4.0312 4.4062-10.672 4.4062-7.5156 0-12.031-4.25t-5.2031-11.969z"/>
<path id="h" d="m41.109 46.297q-1.5156 0.875-3.2969 1.2812-1.7812 0.42188-3.9219 0.42188-7.625 0-11.703-4.9531t-4.0781-14.234v-28.812h-9.0312v54.688h9.0312v-8.5q2.8438 4.9844 7.375 7.3906 4.5469 2.4219 11.047 2.4219 0.92188 0 2.0469-0.125 1.125-0.10938 2.4844-0.35938z"/>
<path id="i" d="m52 44.188q3.375 6.0625 8.0625 8.9375t11.031 2.875q8.5469 0 13.188-5.9844 4.6406-5.9688 4.6406-17v-33.016h-9.0312v32.719q0 7.8594-2.7969 11.656-2.7812 3.8125-8.4844 3.8125-6.9844 0-11.047-4.6406-4.0469-4.625-4.0469-12.641v-30.906h-9.0312v32.719q0 7.9062-2.7812 11.688t-8.5938 3.7812q-6.8906 0-10.953-4.6562-4.0469-4.6562-4.0469-12.625v-30.906h-9.0312v54.688h9.0312v-8.5q3.0781 5.0312 7.375 7.4219t10.203 2.3906q5.9688 0 10.141-3.0312 4.1719-3.0156 6.1719-8.7812z"/>
<path id="j" d="m9.4219 54.688h8.9844v-54.688h-8.9844zm0 21.297h8.9844v-11.391h-8.9844z"/>
<path id="g" d="m54.891 33.016v-33.016h-8.9844v32.719q0 7.7656-3.0312 11.609-3.0312 3.8594-9.0781 3.8594-7.2812 0-11.484-4.6406-4.2031-4.625-4.2031-12.641v-30.906h-9.0312v54.688h9.0312v-8.5q3.2344 4.9375 7.5938 7.375 4.375 2.4375 10.094 2.4375 9.4219 0 14.25-5.8281 4.8438-5.8281 4.8438-17.156z"/>
<path id="f" d="m34.281 27.484q-10.891 0-15.094-2.4844t-4.2031-8.5q0-4.7812 3.1562-7.5938 3.1562-2.7969 8.5625-2.7969 7.4844 0 12 5.2969t4.5156 14.078v2zm17.922 3.7188v-31.203h-8.9844v8.2969q-3.0781-4.9688-7.6719-7.3438t-11.234-2.375q-8.3906 0-13.359 4.7188-4.9531 4.7188-4.9531 12.625 0 9.2188 6.1719 13.906 6.1875 4.6875 18.438 4.6875h12.609v0.89062q0 6.2031-4.0781 9.5938t-11.453 3.3906q-4.6875 0-9.1406-1.125-4.4375-1.125-8.5312-3.375v8.3125q4.9219 1.9062 9.5625 2.8438 4.6406 0.95312 9.0312 0.95312 11.875 0 17.734-6.1562 5.8594-6.1406 5.8594-18.641z"/>
<path id="l" d="m9.4219 75.984h8.9844v-75.984h-8.9844z"/>
</defs>
<g transform="translate(613.61 950.82) rotate(90) scale(.08 -.08)">
<use xlink:href="#k"/>
<use x="60.818359" xlink:href="#c"/>
<use x="122.341797" xlink:href="#h"/>
<use x="163.439453" xlink:href="#i"/>
<use x="260.851562" xlink:href="#j"/>
<use x="288.634766" xlink:href="#g"/>
<use x="352.013672" xlink:href="#f"/>
<use x="413.292969" xlink:href="#l"/>
</g>
</g>
<path d="m706.97 672.38 1.028-5.3751q0.45083-2.3573-1.9064-2.8081l-7.6047-1.4544q-2.3573-0.45083-2.8081 1.9064l-1.028 5.3751q-0.45083 2.3573 1.9064 2.8081l7.6047 1.4544q2.3573 0.45083 2.8081-1.9064z" clip-path="url(#a)" fill="#fff" stroke="#fff"/>
<g clip-path="url(#a)">
<g transform="translate(702.98 671.62) rotate(-79.173) scale(.08 -.08)">
<use xlink:href="#s"/>
</g>
</g>
<path d="m730.99 671.38 0.35387-4.8108q0.17606-2.3935-2.2175-2.5696l-7.7216-0.56799q-2.3935-0.17606-2.5696 2.2175l-0.35387 4.8108q-0.17606 2.3935 2.2175 2.5696l7.7216 0.56799q2.3935 0.17606 2.5696-2.2175z" clip-path="url(#a)" fill="#fff" stroke="#fff"/>
<g clip-path="url(#a)">
<g transform="translate(726.94 671.09) rotate(-85.793) scale(.08 -.08)">
<use xlink:href="#y"/>
</g>
</g>
<path d="m742.12 666.06 0.24129 5.4672q0.10582 2.3977 2.5035 2.2918l7.735-0.34138q2.3977-0.10582 2.2918-2.5035l-0.24129-5.4672q-0.10582-2.3977-2.5035-2.2918l-7.735 0.34138q-2.3977 0.10582-2.2918 2.5035z" clip-path="url(#a)" fill="#fff" stroke="#fff"/>
<g clip-path="url(#a)">
<g transform="translate(746.18 665.88) rotate(87.473) scale(.08 -.08)">
<use xlink:href="#s"/>
</g>
</g>
<path d="m777.16 569.28 1.9616 4.4752q0.96348 2.1981 3.1616 1.2346l7.0912-3.1082q2.1981-0.96348 1.2346-3.1616l-1.9616-4.4752q-0.96348-2.1981-3.1616-1.2346l-7.0912 3.1082q-2.1981 0.96348-1.2346 3.1616z" clip-path="url(#a)" fill="#fff" stroke="#fff"/>
<g clip-path="url(#a)">
<g transform="translate(780.88 567.65) rotate(66.331) scale(.08 -.08)">
<use xlink:href="#k"/>
</g>
</g>
<path d="m1018.6 370.24 2.162-5.0273q0.94814-2.2048-1.2566-3.1529l-7.1127-3.0588q-2.2048-0.94814-3.1529 1.2566l-2.162 5.0273q-0.94814 2.2048 1.2566 3.1529l7.1127 3.0588q2.2048 0.94814 3.1529-1.2566z" clip-path="url(#a)" fill="#fff" stroke="#fff"/>
<g clip-path="url(#a)">
<g transform="translate(1014.8 368.63) rotate(-66.73) scale(.08 -.08)">
<use xlink:href="#s"/>
</g>
</g>
<path d="m1055.5 568.15 0.13415-4.5993q0.069972-2.399-2.329-2.469l-7.7392-0.22573q-2.399-0.069973-2.469 2.329l-0.13415 4.5993q-0.069973 2.399 2.329 2.469l7.7392 0.22574q2.399 0.069973 2.469-2.329z" clip-path="url(#a)" fill="#fff" stroke="#fff"/>
<g clip-path="url(#a)">
<g transform="translate(1051.4 568.03) rotate(-88.329) scale(.08 -.08)">
<use xlink:href="#ae"/>
</g>
</g>
<path d="m1066.5 563.68 0.22342 4.5958q0.11653 2.3972 2.5137 2.2806l7.7334-0.37594q2.3972-0.11653 2.2806-2.5137l-0.22342-4.5958q-0.11653-2.3972-2.5137-2.2806l-7.7334 0.37594q-2.3972 0.11653-2.2806 2.5137z" clip-path="url(#a)" fill="#fff" stroke="#fff"/>
<g clip-path="url(#a)">
<g transform="translate(1070.5 563.48) rotate(87.217) scale(.08 -.08)">
<use xlink:href="#ae"/>
</g>
</g>
<path d="m1089.9 563.94 0.63685 5.0387q0.30095 2.3811 2.682 2.0801l7.6814-0.97088q2.3811-0.30095 2.0801-2.682l-0.63685-5.0387q-0.30095-2.3811-2.682-2.0801l-7.6814 0.97088q-2.3811 0.30095-2.0801 2.682z" clip-path="url(#a)" fill="#fff" stroke="#fff"/>
<g clip-path="url(#a)">
<defs>
<path id="ao" d="m53.516 70.516v-9.625q-5.6094 2.6875-10.594 4-4.9844 1.3281-9.625 1.3281-8.0469 0-12.422-3.125t-4.375-8.8906q0-4.8438 2.9062-7.3125 2.9062-2.4531 11.016-3.9688l5.9531-1.2188q11.031-2.1094 16.281-7.4062t5.25-14.172q0-10.609-7.1094-16.078-7.0938-5.4688-20.812-5.4688-5.1719 0-11.016 1.1719-5.8281 1.1719-12.078 3.4688v10.156q6-3.3594 11.766-5.0781 5.7656-1.7031 11.328-1.7031 8.4375 0 13.031 3.3125 4.5938 3.3281 4.5938 9.4844 0 5.3594-3.2969 8.3906t-10.812 4.5469l-6.0156 1.1719q-11.031 2.1875-15.969 6.875-4.9219 4.6875-4.9219 13.047 0 9.6719 6.8125 15.234t18.766 5.5625q5.1406 0 10.453-0.9375 5.3281-0.92188 10.891-2.7656z"/>
</defs>
<g transform="translate(1093.9 563.43) rotate(82.796) scale(.08 -.08)">
<use xlink:href="#ao"/>
</g>
</g>
<path d="m1222.8 950.82v35.285q0 2.4 2.4 2.4h7.7425q2.4 0 2.4-2.4v-35.285q0-2.4-2.4-2.4h-7.7425q-2.4 0-2.4 2.4z" clip-path="url(#a)" fill="#fff" stroke="#fff"/>
<g clip-path="url(#a)">
<g transform="translate(1226.9 950.82) rotate(90) scale(.08 -.08)">
<use xlink:href="#k"/>
<use x="60.818359" xlink:href="#c"/>
<use x="122.341797" xlink:href="#h"/>
<use x="163.439453" xlink:href="#i"/>
<use x="260.851562" xlink:href="#j"/>
<use x="288.634766" xlink:href="#g"/>
<use x="352.013672" xlink:href="#f"/>
<use x="413.292969" xlink:href="#l"/>
</g>
</g>
<path d="m1372.3 673.61 2.2708-4.9791q0.99587-2.1836-1.1878-3.1795l-7.0445-3.2127q-2.1836-0.99587-3.1795 1.1878l-2.2708 4.9791q-0.99587 2.1836 1.1878 3.1795l7.0445 3.2127q2.1836 0.99587 3.1795-1.1878z" clip-path="url(#a)" fill="#fff" stroke="#fff"/>
<g clip-path="url(#a)">
<g transform="translate(1368.6 671.92) rotate(-65.484) scale(.08 -.08)">
<use xlink:href="#s"/>
</g>
</g>
<path d="m1396.4 672.84 1.5661-4.6285q0.76924-2.2734-1.5041-3.0426l-7.334-2.4816q-2.2734-0.76924-3.0426 1.5041l-1.5661 4.6285q-0.76924 2.2734 1.5041 3.0426l7.334 2.4816q2.2734 0.76924 3.0426-1.5041z" clip-path="url(#a)" fill="#fff" stroke="#fff"/>
<g clip-path="url(#a)">
<g transform="translate(1392.6 671.54) rotate(-71.306) scale(.08 -.08)">
<use xlink:href="#k"/>
</g>
</g>
<path d="m1420.3 672.88 1.3274-6.0153q0.51718-2.3436-1.8264-2.8608l-7.5606-1.6684q-2.3436-0.51718-2.8608 1.8264l-1.3274 6.0153q-0.51718 2.3436 1.8264 2.8608l7.5606 1.6684q2.3436 0.51718 2.8608-1.8264z" clip-path="url(#a)" fill="#fff" stroke="#fff"/>
<g clip-path="url(#a)">
<g transform="translate(1416.4 672) rotate(-77.556) scale(.08 -.08)">
<use xlink:href="#ag"/>
</g>
</g>
<path d="m1444.5 671.45 0.47135-4.577q0.24586-2.3874-2.1415-2.6332l-7.7018-0.79314q-2.3874-0.24586-2.6332 2.1415l-0.47135 4.577q-0.24586 2.3874 2.1415 2.6332l7.7018 0.79314q2.3874 0.24586 2.6332-2.1415z" clip-path="url(#a)" fill="#fff" stroke="#fff"/>
<g clip-path="url(#a)">
<g transform="translate(1440.4 671.03) rotate(-84.12) scale(.08 -.08)">
<use xlink:href="#ae"/>
</g>
</g>
<path d="m1490.8 667.33 0.90613 4.7379q0.45083 2.3573 2.8081 1.9064l7.6047-1.4544q2.3573-0.45083 1.9064-2.8081l-0.90613-4.7379q-0.45083-2.3573-2.8081-1.9064l-7.6047 1.4544q-2.3573 0.45083-1.9064 2.8081z" clip-path="url(#a)" fill="#fff" stroke="#fff"/>
<g clip-path="url(#a)">
<g transform="translate(1494.8 666.56) rotate(79.173) scale(.08 -.08)">
<use xlink:href="#y"/>
</g>
</g>
<path d="m1561.9 571.74 4.0176 3.7158q1.7619 1.6296 3.3915-0.13232l5.2572-5.684q1.6296-1.7619-0.13232-3.3915l-4.0176-3.7158q-1.7619-1.6296-3.3915 0.13232l-5.2572 5.684q-1.6296 1.7619 0.13232 3.3915z" clip-path="url(#a)" fill="#fff" stroke="#fff"/>
<g clip-path="url(#a)">
<g transform="translate(1564.7 568.76) rotate(42.766) scale(.08 -.08)">
<use xlink:href="#s"/>
</g>
</g>
<path d="m1455.7 665.68 0.086127 5.8544q0.035305 2.3997 2.435 2.3644l7.7417-0.11389q2.3997-0.035304 2.3644-2.435l-0.086127-5.8544q-0.035305-2.3997-2.435-2.3644l-7.7417 0.11389q-2.3997 0.035304-2.3644 2.435z" clip-path="url(#a)" fill="#fff" stroke="#fff"/>
<g clip-path="url(#a)">
<g transform="translate(1459.8 665.62) rotate(89.157) scale(.08 -.08)">
<use xlink:href="#v"/>
</g>
</g>
<path d="m1525.9 667.94 2.0211 5.4951q0.82845 2.2525 3.0809 1.424l7.2666-2.6726q2.2525-0.82844 1.424-3.0809l-2.0211-5.4951q-0.82844-2.2525-3.0809-1.424l-7.2666 2.6726q-2.2525 0.82844-1.424 3.0809z" clip-path="url(#a)" fill="#fff" stroke="#fff"/>
<g clip-path="url(#a)">
<g transform="translate(1529.7 666.53) rotate(69.807) scale(.08 -.08)">
<use xlink:href="#v"/>
</g>
</g>
<path d="m1789 950.82v35.285q0 2.4 2.4 2.4h7.7425q2.4 0 2.4-2.4v-35.285q0-2.4-2.4-2.4h-7.7425q-2.4 0-2.4 2.4z" clip-path="url(#a)" fill="#fff" stroke="#fff"/>
<g clip-path="url(#a)">
<g transform="translate(1793 950.82) rotate(90) scale(.08 -.08)">
<use xlink:href="#k"/>
<use x="60.818359" xlink:href="#c"/>
<use x="122.341797" xlink:href="#h"/>
<use x="163.439453" xlink:href="#i"/>
<use x="260.851562" xlink:href="#j"/>
<use x="288.634766" xlink:href="#g"/>
<use x="352.013672" xlink:href="#f"/>
<use x="413.292969" xlink:href="#l"/>
</g>
</g>
<path d="m1850.3 771.97 0.082714-4.8856q0.040627-2.3997-2.359-2.4403l-7.7414-0.13106q-2.3997-0.040627-2.4403 2.359l-0.082714 4.8855q-0.040627 2.3997 2.359 2.4403l7.7414 0.13106q2.3997 0.040627 2.4403-2.359z" clip-path="url(#a)" fill="#fff" stroke="#fff"/>
<g clip-path="url(#a)">
<g transform="translate(1846.3 771.9) rotate(-89.03) scale(.08 -.08)">
<use xlink:href="#k"/>
</g>
</g>
<path d="m1861.1 768.52 0.98904 4.4937q0.51588 2.3439 2.8598 1.828l7.5615-1.6642q2.3439-0.51588 1.828-2.8598l-0.98904-4.4937q-0.51588-2.3439-2.8598-1.828l-7.5615 1.6642q-2.3439 0.51588-1.828 2.8598z" clip-path="url(#a)" fill="#fff" stroke="#fff"/>
<g clip-path="url(#a)">
<g transform="translate(1865 767.65) rotate(77.587) scale(.08 -.08)">
<use xlink:href="#ae"/>
</g>
</g>
<path d="m1884.3 769.23 2.561 5.6024q0.99778 2.1828 3.1805 1.185l7.0417-3.2189q2.1828-0.99778 1.185-3.1805l-2.561-5.6024q-0.99778-2.1828-3.1805-1.185l-7.0417 3.2189q-2.1828 0.99778-1.185 3.1805z" clip-path="url(#a)" fill="#fff" stroke="#fff"/>
<g clip-path="url(#a)">
<g transform="translate(1888 767.54) rotate(65.434) scale(.08 -.08)">
<use xlink:href="#ag"/>
</g>
</g>
<path d="m1908 770.47 3.5126 5.0604q1.3685 1.9716 3.3401 0.60302l6.3604-4.415q1.9716-1.3685 0.60302-3.3401l-3.5126-5.0604q-1.3685-1.9716-3.3401-0.60302l-6.3604 4.415q-1.9716 1.3685-0.60302 3.3401z" clip-path="url(#a)" fill="#fff" stroke="#fff"/>
<g clip-path="url(#a)">
<g transform="translate(1911.3 768.15) rotate(55.234) scale(.08 -.08)">
<use xlink:href="#ag"/>
</g>
</g>
<path d="m1692.1 776 4.0592-2.6061q2.0196-1.2966 0.72298-3.3162l-4.1829-6.5153q-1.2966-2.0196-3.3162-0.72298l-4.0592 2.6061q-2.0196 1.2966-0.72298 3.3162l4.1829 6.5153q1.2966 2.0196 3.3162 0.72298z" clip-path="url(#a)" fill="#fff" stroke="#fff"/>
<g clip-path="url(#a)">
<g transform="translate(1689.9 772.58) rotate(-32.701) scale(.08 -.08)">
<use xlink:href="#y"/>
</g>
</g>
<path d="m1776.8 775.33 3.2209-4.4243q1.4125-1.9403-0.52775-3.3528l-6.2595-4.5569q-1.9403-1.4125-3.3528 0.52776l-3.2209 4.4243q-1.4125 1.9403 0.52776 3.3528l6.2595 4.5569q1.9403 1.4125 3.3528-0.52776z" clip-path="url(#a)" fill="#fff" stroke="#fff"/>
<g clip-path="url(#a)">
<g transform="translate(1773.5 772.93) rotate(-53.945) scale(.08 -.08)">
<use xlink:href="#s"/>
</g>
</g>
<path d="m1931.9 771.55 3.99 4.285q1.6355 1.7564 3.392 0.1209l5.6663-5.2763q1.7564-1.6355 0.1209-3.392l-3.99-4.285q-1.6355-1.7564-3.392-0.1209l-5.6663 5.2763q-1.7564 1.6355-0.1209 3.392z" clip-path="url(#a)" fill="#fff" stroke="#fff"/>
<g clip-path="url(#a)">
<g transform="translate(1934.9 768.78) rotate(47.041) scale(.08 -.08)">
<use xlink:href="#v"/>
</g>
</g>
<path d="m1836.2 950.82v35.285q0 2.4 2.4 2.4h7.7425q2.4 0 2.4-2.4v-35.285q0-2.4-2.4-2.4h-7.7425q-2.4 0-2.4 2.4z" clip-path="url(#a)" fill="#fff" stroke="#fff"/>
<g clip-path="url(#a)">
<g transform="translate(1840.2 950.82) rotate(90) scale(.08 -.08)">
<use xlink:href="#k"/>
<use x="60.818359" xlink:href="#c"/>
<use x="122.341797" xlink:href="#h"/>
<use x="163.439453" xlink:href="#i"/>
<use x="260.851562" xlink:href="#j"/>
<use x="288.634766" xlink:href="#g"/>
<use x="352.013672" xlink:href="#f"/>
<use x="413.292969" xlink:href="#l"/>
</g>
</g>
<path d="m1883.3 950.82v35.285q0 2.4 2.4 2.4h7.7425q2.4 0 2.4-2.4v-35.285q0-2.4-2.4-2.4h-7.7425q-2.4 0-2.4 2.4z" clip-path="url(#a)" fill="#fff" stroke="#fff"/>
<g clip-path="url(#a)">
<g transform="translate(1887.4 950.82) rotate(90) scale(.08 -.08)">
<use xlink:href="#k"/>
<use x="60.818359" xlink:href="#c"/>
<use x="122.341797" xlink:href="#h"/>
<use x="163.439453" xlink:href="#i"/>
<use x="260.851562" xlink:href="#j"/>
<use x="288.634766" xlink:href="#g"/>
<use x="352.013672" xlink:href="#f"/>
<use x="413.292969" xlink:href="#l"/>
</g>
</g>
<path d="m1930.5 950.82v35.285q0 2.4 2.4 2.4h7.7425q2.4 0 2.4-2.4v-35.285q0-2.4-2.4-2.4h-7.7425q-2.4 0-2.4 2.4z" clip-path="url(#a)" fill="#fff" stroke="#fff"/>
<g clip-path="url(#a)">
<g transform="translate(1934.6 950.82) rotate(90) scale(.08 -.08)">
<use xlink:href="#k"/>
<use x="60.818359" xlink:href="#c"/>
<use x="122.341797" xlink:href="#h"/>
<use x="163.439453" xlink:href="#i"/>
<use x="260.851562" xlink:href="#j"/>
<use x="288.634766" xlink:href="#g"/>
<use x="352.013672" xlink:href="#f"/>
<use x="413.292969" xlink:href="#l"/>
</g>
</g>
<path d="m1977.7 950.82v35.285q0 2.4 2.4 2.4h7.7425q2.4 0 2.4-2.4v-35.285q0-2.4-2.4-2.4h-7.7425q-2.4 0-2.4 2.4z" clip-path="url(#a)" fill="#fff" stroke="#fff"/>
<g clip-path="url(#a)">
<g transform="translate(1981.7 950.82) rotate(90) scale(.08 -.08)">
<use xlink:href="#k"/>
<use x="60.818359" xlink:href="#c"/>
<use x="122.341797" xlink:href="#h"/>
<use x="163.439453" xlink:href="#i"/>
<use x="260.851562" xlink:href="#j"/>
<use x="288.634766" xlink:href="#g"/>
<use x="352.013672" xlink:href="#f"/>
<use x="413.292969" xlink:href="#l"/>
</g>
</g>
<path d="m1270 950.82v35.285q0 2.4 2.4 2.4h7.7425q2.4 0 2.4-2.4v-35.285q0-2.4-2.4-2.4h-7.7425q-2.4 0-2.4 2.4z" clip-path="url(#a)" fill="#fff" stroke="#fff"/>
<g clip-path="url(#a)">
<g transform="translate(1274.1 950.82) rotate(90) scale(.08 -.08)">
<use xlink:href="#k"/>
<use x="60.818359" xlink:href="#c"/>
<use x="122.341797" xlink:href="#h"/>
<use x="163.439453" xlink:href="#i"/>
<use x="260.851562" xlink:href="#j"/>
<use x="288.634766" xlink:href="#g"/>
<use x="352.013672" xlink:href="#f"/>
<use x="413.292969" xlink:href="#l"/>
</g>
</g>
<path d="m1317.2 950.82v35.285q0 2.4 2.4 2.4h7.7425q2.4 0 2.4-2.4v-35.285q0-2.4-2.4-2.4h-7.7425q-2.4 0-2.4 2.4z" clip-path="url(#a)" fill="#fff" stroke="#fff"/>
<g clip-path="url(#a)">
<g transform="translate(1321.3 950.82) rotate(90) scale(.08 -.08)">
<use xlink:href="#k"/>
<use x="60.818359" xlink:href="#c"/>
<use x="122.341797" xlink:href="#h"/>
<use x="163.439453" xlink:href="#i"/>
<use x="260.851562" xlink:href="#j"/>
<use x="288.634766" xlink:href="#g"/>
<use x="352.013672" xlink:href="#f"/>
<use x="413.292969" xlink:href="#l"/>
</g>
</g>
<path d="m1364.4 950.82v35.285q0 2.4 2.4 2.4h7.7425q2.4 0 2.4-2.4v-35.285q0-2.4-2.4-2.4h-7.7425q-2.4 0-2.4 2.4z" clip-path="url(#a)" fill="#fff" stroke="#fff"/>
<g clip-path="url(#a)">
<g transform="translate(1368.4 950.82) rotate(90) scale(.08 -.08)">
<use xlink:href="#k"/>
<use x="60.818359" xlink:href="#c"/>
<use x="122.341797" xlink:href="#h"/>
<use x="163.439453" xlink:href="#i"/>
<use x="260.851562" xlink:href="#j"/>
<use x="288.634766" xlink:href="#g"/>
<use x="352.013672" xlink:href="#f"/>
<use x="413.292969" xlink:href="#l"/>
</g>
</g>
<path d="m1411.6 950.82v35.285q0 2.4 2.4 2.4h7.7425q2.4 0 2.4-2.4v-35.285q0-2.4-2.4-2.4h-7.7425q-2.4 0-2.4 2.4z" clip-path="url(#a)" fill="#fff" stroke="#fff"/>
<g clip-path="url(#a)">
<g transform="translate(1415.6 950.82) rotate(90) scale(.08 -.08)">
<use xlink:href="#k"/>
<use x="60.818359" xlink:href="#c"/>
<use x="122.341797" xlink:href="#h"/>
<use x="163.439453" xlink:href="#i"/>
<use x="260.851562" xlink:href="#j"/>
<use x="288.634766" xlink:href="#g"/>
<use x="352.013672" xlink:href="#f"/>
<use x="413.292969" xlink:href="#l"/>
</g>
</g>
<path d="m1528.1 986.72 4.1526-35.04q0.28245-2.3833-2.1009-2.6658l-7.6887-0.9112q-2.3833-0.28245-2.6658 2.1009l-4.1526 35.04q-0.28245 2.3833 2.1009 2.6658l7.6887 0.9112q2.3833 0.28245 2.6658-2.1009z" clip-path="url(#a)" fill="#fff" stroke="#fff"/>
<g clip-path="url(#a)">
<g transform="translate(1524.1 986.24) rotate(-83.241) scale(.08 -.08)">
<use xlink:href="#k"/>
<use x="60.818359" xlink:href="#c"/>
<use x="122.341797" xlink:href="#h"/>
<use x="163.439453" xlink:href="#i"/>
<use x="260.851562" xlink:href="#j"/>
<use x="288.634766" xlink:href="#g"/>
<use x="352.013672" xlink:href="#f"/>
<use x="413.292969" xlink:href="#l"/>
</g>
</g>
<path d="m1539.3 951.68 4.1526 35.04q0.28245 2.3833 2.6658 2.1009l7.6887-0.9112q2.3833-0.28245 2.1009-2.6658l-4.1526-35.04q-0.28245-2.3833-2.6658-2.1009l-7.6887 0.9112q-2.3833 0.28245-2.1009 2.6658z" clip-path="url(#a)" fill="#fff" stroke="#fff"/>
<g clip-path="url(#a)">
<g transform="translate(1543.3 951.2) rotate(83.241) scale(.08 -.08)">
<use xlink:href="#k"/>
<use x="60.818359" xlink:href="#c"/>
<use x="122.341797" xlink:href="#h"/>
<use x="163.439453" xlink:href="#i"/>
<use x="260.851562" xlink:href="#j"/>
<use x="288.634766" xlink:href="#g"/>
<use x="352.013672" xlink:href="#f"/>
<use x="413.292969" xlink:href="#l"/>
</g>
</g>
<path d="m1671.4 773.22 0.72496-6.1172q0.28245-2.3833-2.1009-2.6658l-7.6887-0.9112q-2.3833-0.28245-2.6658 2.1009l-0.72496 6.1172q-0.28245 2.3833 2.1009 2.6658l7.6887 0.9112q2.3833 0.28245 2.6658-2.1009z" clip-path="url(#a)" fill="#fff" stroke="#fff"/>
<g clip-path="url(#a)">
<g transform="translate(1667.3 772.74) rotate(-83.241) scale(.08 -.08)">
<use xlink:href="#ag"/>
</g>
</g>
<path d="m1682.6 767.77 0.5677 4.7902q0.28245 2.3833 2.6658 2.1009l7.6887-0.9112q2.3833-0.28245 2.1009-2.6658l-0.5677-4.7902q-0.28245-2.3833-2.6658-2.1009l-7.6887 0.9112q-2.3833 0.28245-2.1009 2.6658z" clip-path="url(#a)" fill="#fff" stroke="#fff"/>
<g clip-path="url(#a)">
<g transform="translate(1686.6 767.29) rotate(83.241) scale(.08 -.08)">
<use xlink:href="#y"/>
</g>
</g>
<path d="m1647.4 950.82v35.285q0 2.4 2.4 2.4h7.7425q2.4 0 2.4-2.4v-35.285q0-2.4-2.4-2.4h-7.7425q-2.4 0-2.4 2.4z" clip-path="url(#a)" fill="#fff" stroke="#fff"/>
<g clip-path="url(#a)">
<g transform="translate(1651.5 950.82) rotate(90) scale(.08 -.08)">
<use xlink:href="#k"/>
<use x="60.818359" xlink:href="#c"/>
<use x="122.341797" xlink:href="#h"/>
<use x="163.439453" xlink:href="#i"/>
<use x="260.851562" xlink:href="#j"/>
<use x="288.634766" xlink:href="#g"/>
<use x="352.013672" xlink:href="#f"/>
<use x="413.292969" xlink:href="#l"/>
</g>
</g>
<path d="m1694.6 950.82v35.285q0 2.4 2.4 2.4h7.7425q2.4 0 2.4-2.4v-35.285q0-2.4-2.4-2.4h-7.7425q-2.4 0-2.4 2.4z" clip-path="url(#a)" fill="#fff" stroke="#fff"/>
<g clip-path="url(#a)">
<g transform="translate(1698.7 950.82) rotate(90) scale(.08 -.08)">
<use xlink:href="#k"/>
<use x="60.818359" xlink:href="#c"/>
<use x="122.341797" xlink:href="#h"/>
<use x="163.439453" xlink:href="#i"/>
<use x="260.851562" xlink:href="#j"/>
<use x="288.634766" xlink:href="#g"/>
<use x="352.013672" xlink:href="#f"/>
<use x="413.292969" xlink:href="#l"/>
</g>
</g>
<path d="m963.96 671.41 0.29696-5.0463q0.14099-2.3959-2.2549-2.5368l-7.7291-0.45483q-2.3959-0.14099-2.5368 2.2549l-0.29696 5.0463q-0.14099 2.3959 2.2549 2.5368l7.7291 0.45483q2.3959 0.14099 2.5368-2.2549z" clip-path="url(#a)" fill="#fff" stroke="#fff"/>
<g clip-path="url(#a)">
<defs>
<path id="af" d="m9.8125 72.906h46.094v-8.3125h-36.234v-21.578h34.719v-8.2969h-34.719v-26.422h37.109v-8.2969h-46.969z"/>
</defs>
<g transform="translate(959.91 671.17) rotate(-86.632) scale(.08 -.08)">
<use xlink:href="#af"/>
</g>
</g>
<path d="m974.89 566.95 0.64854 5.5485q0.27863 2.3838 2.6624 2.1051l7.6901-0.89887q2.3838-0.27863 2.1051-2.6624l-0.64854-5.5485q-0.27863-2.3838-2.6624-2.1051l-7.6901 0.89887q-2.3838 0.27863-2.1051 2.6624z" clip-path="url(#a)" fill="#fff" stroke="#fff"/>
<g clip-path="url(#a)">
<defs>
<path id="ai" d="m64.406 67.281v-10.391q-4.9844 4.6406-10.625 6.9219-5.6406 2.2969-11.984 2.2969-12.5 0-19.141-7.6406t-6.6406-22.094q0-14.406 6.6406-22.047t19.141-7.6406q6.3438 0 11.984 2.2969t10.625 6.9375v-10.312q-5.1719-3.5156-10.969-5.2812-5.7812-1.75-12.219-1.75-16.562 0-26.094 10.125-9.5156 10.141-9.5156 27.672 0 17.578 9.5156 27.703 9.5312 10.141 26.094 10.141 6.5312 0 12.312-1.7344 5.7969-1.7344 10.875-5.2031z"/>
</defs>
<g transform="translate(978.92 566.48) rotate(83.333) scale(.08 -.08)">
<use xlink:href="#ai"/>
</g>
</g>
<path d="m1034.1 950.82v35.285q0 2.4 2.4 2.4h7.7425q2.4 0 2.4-2.4v-35.285q0-2.4-2.4-2.4h-7.7425q-2.4 0-2.4 2.4z" clip-path="url(#a)" fill="#fff" stroke="#fff"/>
<g clip-path="url(#a)">
<g transform="translate(1038.2 950.82) rotate(90) scale(.08 -.08)">
<use xlink:href="#k"/>
<use x="60.818359" xlink:href="#c"/>
<use x="122.341797" xlink:href="#h"/>
<use x="163.439453" xlink:href="#i"/>
<use x="260.851562" xlink:href="#j"/>
<use x="288.634766" xlink:href="#g"/>
<use x="352.013672" xlink:href="#f"/>
<use x="413.292969" xlink:href="#l"/>
</g>
</g>
<path d="m1081.3 950.82v35.285q0 2.4 2.4 2.4h7.7425q2.4 0 2.4-2.4v-35.285q0-2.4-2.4-2.4h-7.7425q-2.4 0-2.4 2.4z" clip-path="url(#a)" fill="#fff" stroke="#fff"/>
<g clip-path="url(#a)">
<g transform="translate(1085.4 950.82) rotate(90) scale(.08 -.08)">
<use xlink:href="#k"/>
<use x="60.818359" xlink:href="#c"/>
<use x="122.341797" xlink:href="#h"/>
<use x="163.439453" xlink:href="#i"/>
<use x="260.851562" xlink:href="#j"/>
<use x="288.634766" xlink:href="#g"/>
<use x="352.013672" xlink:href="#f"/>
<use x="413.292969" xlink:href="#l"/>
</g>
</g>
<path d="m1128.5 950.82v35.285q0 2.4 2.4 2.4h7.7425q2.4 0 2.4-2.4v-35.285q0-2.4-2.4-2.4h-7.7425q-2.4 0-2.4 2.4z" clip-path="url(#a)" fill="#fff" stroke="#fff"/>
<g clip-path="url(#a)">
<g transform="translate(1132.6 950.82) rotate(90) scale(.08 -.08)">
<use xlink:href="#k"/>
<use x="60.818359" xlink:href="#c"/>
<use x="122.341797" xlink:href="#h"/>
<use x="163.439453" xlink:href="#i"/>
<use x="260.851562" xlink:href="#j"/>
<use x="288.634766" xlink:href="#g"/>
<use x="352.013672" xlink:href="#f"/>
<use x="413.292969" xlink:href="#l"/>
</g>
</g>
<path d="m939.79 950.82v35.285q0 2.4 2.4 2.4h7.7425q2.4 0 2.4-2.4v-35.285q0-2.4-2.4-2.4h-7.7425q-2.4 0-2.4 2.4z" clip-path="url(#a)" fill="#fff" stroke="#fff"/>
<g clip-path="url(#a)">
<g transform="translate(943.85 950.82) rotate(90) scale(.08 -.08)">
<use xlink:href="#k"/>
<use x="60.818359" xlink:href="#c"/>
<use x="122.341797" xlink:href="#h"/>
<use x="163.439453" xlink:href="#i"/>
<use x="260.851562" xlink:href="#j"/>
<use x="288.634766" xlink:href="#g"/>
<use x="352.013672" xlink:href="#f"/>
<use x="413.292969" xlink:href="#l"/>
</g>
</g>
<path d="m986.96 767.01v4.8238q0 2.4 2.4 2.4h7.7425q2.4 0 2.4-2.4v-4.8238q0-2.4-2.4-2.4h-7.7425q-2.4 0-2.4 2.4z" clip-path="url(#a)" fill="#fff" stroke="#fff"/>
<g clip-path="url(#a)">
<g transform="translate(991.03 767.01) rotate(90) scale(.08 -.08)">
<use xlink:href="#y"/>
</g>
</g>
<path d="m986.96 950.82v35.285q0 2.4 2.4 2.4h7.7425q2.4 0 2.4-2.4v-35.285q0-2.4-2.4-2.4h-7.7425q-2.4 0-2.4 2.4z" clip-path="url(#a)" fill="#fff" stroke="#fff"/>
<g clip-path="url(#a)">
<g transform="translate(991.03 950.82) rotate(90) scale(.08 -.08)">
<use xlink:href="#k"/>
<use x="60.818359" xlink:href="#c"/>
<use x="122.341797" xlink:href="#h"/>
<use x="163.439453" xlink:href="#i"/>
<use x="260.851562" xlink:href="#j"/>
<use x="288.634766" xlink:href="#g"/>
<use x="352.013672" xlink:href="#f"/>
<use x="413.292969" xlink:href="#l"/>
</g>
</g>
<path d="m656.72 950.82v35.285q0 2.4 2.4 2.4h7.7425q2.4 0 2.4-2.4v-35.285q0-2.4-2.4-2.4h-7.7425q-2.4 0-2.4 2.4z" clip-path="url(#a)" fill="#fff" stroke="#fff"/>
<g clip-path="url(#a)">
<g transform="translate(660.79 950.82) rotate(90) scale(.08 -.08)">
<use xlink:href="#k"/>
<use x="60.818359" xlink:href="#c"/>
<use x="122.341797" xlink:href="#h"/>
<use x="163.439453" xlink:href="#i"/>
<use x="260.851562" xlink:href="#j"/>
<use x="288.634766" xlink:href="#g"/>
<use x="352.013672" xlink:href="#f"/>
<use x="413.292969" xlink:href="#l"/>
</g>
</g>
<path d="m703.9 950.82v35.285q0 2.4 2.4 2.4h7.7425q2.4 0 2.4-2.4v-35.285q0-2.4-2.4-2.4h-7.7425q-2.4 0-2.4 2.4z" clip-path="url(#a)" fill="#fff" stroke="#fff"/>
<g clip-path="url(#a)">
<g transform="translate(707.96 950.82) rotate(90) scale(.08 -.08)">
<use xlink:href="#k"/>
<use x="60.818359" xlink:href="#c"/>
<use x="122.341797" xlink:href="#h"/>
<use x="163.439453" xlink:href="#i"/>
<use x="260.851562" xlink:href="#j"/>
<use x="288.634766" xlink:href="#g"/>
<use x="352.013672" xlink:href="#f"/>
<use x="413.292969" xlink:href="#l"/>
</g>
</g>
<path d="m751.08 950.82v35.285q0 2.4 2.4 2.4h7.7425q2.4 0 2.4-2.4v-35.285q0-2.4-2.4-2.4h-7.7425q-2.4 0-2.4 2.4z" clip-path="url(#a)" fill="#fff" stroke="#fff"/>
<g clip-path="url(#a)">
<g transform="translate(755.14 950.82) rotate(90) scale(.08 -.08)">
<use xlink:href="#k"/>
<use x="60.818359" xlink:href="#c"/>
<use x="122.341797" xlink:href="#h"/>
<use x="163.439453" xlink:href="#i"/>
<use x="260.851562" xlink:href="#j"/>
<use x="288.634766" xlink:href="#g"/>
<use x="352.013672" xlink:href="#f"/>
<use x="413.292969" xlink:href="#l"/>
</g>
</g>
<path d="m822.25 772.67 0.59492-5.0199q0.28245-2.3833-2.1009-2.6658l-7.6887-0.9112q-2.3833-0.28245-2.6658 2.1009l-0.59492 5.0199q-0.28245 2.3833 2.1009 2.6658l7.6887 0.9112q2.3833 0.28245 2.6658-2.1009z" clip-path="url(#a)" fill="#fff" stroke="#fff"/>
<g clip-path="url(#a)">
<g transform="translate(818.21 772.19) rotate(-83.241) scale(.08 -.08)">
<use xlink:href="#af"/>
</g>
</g>
<path d="m833.35 767.39 0.65744 5.5474q0.28245 2.3833 2.6658 2.1009l7.6887-0.9112q2.3833-0.28245 2.1009-2.6658l-0.65744-5.5474q-0.28245-2.3833-2.6658-2.1009l-7.6887 0.9112q-2.3833 0.28245-2.1009 2.6658z" clip-path="url(#a)" fill="#fff" stroke="#fff"/>
<g clip-path="url(#a)">
<g transform="translate(837.39 766.91) rotate(83.241) scale(.08 -.08)">
<use xlink:href="#ai"/>
</g>
</g>
<path d="m798.25 950.82v35.285q0 2.4 2.4 2.4h7.7425q2.4 0 2.4-2.4v-35.285q0-2.4-2.4-2.4h-7.7425q-2.4 0-2.4 2.4z" clip-path="url(#a)" fill="#fff" stroke="#fff"/>
<g clip-path="url(#a)">
<g transform="translate(802.32 950.82) rotate(90) scale(.08 -.08)">
<use xlink:href="#k"/>
<use x="60.818359" xlink:href="#c"/>
<use x="122.341797" xlink:href="#h"/>
<use x="163.439453" xlink:href="#i"/>
<use x="260.851562" xlink:href="#j"/>
<use x="288.634766" xlink:href="#g"/>
<use x="352.013672" xlink:href="#f"/>
<use x="413.292969" xlink:href="#l"/>
</g>
</g>
<path d="m845.43 950.82v35.285q0 2.4 2.4 2.4h7.7425q2.4 0 2.4-2.4v-35.285q0-2.4-2.4-2.4h-7.7425q-2.4 0-2.4 2.4z" clip-path="url(#a)" fill="#fff" stroke="#fff"/>
<g clip-path="url(#a)">
<g transform="translate(849.49 950.82) rotate(90) scale(.08 -.08)">
<use xlink:href="#k"/>
<use x="60.818359" xlink:href="#c"/>
<use x="122.341797" xlink:href="#h"/>
<use x="163.439453" xlink:href="#i"/>
<use x="260.851562" xlink:href="#j"/>
<use x="288.634766" xlink:href="#g"/>
<use x="352.013672" xlink:href="#f"/>
<use x="413.292969" xlink:href="#l"/>
</g>
</g>
<path d="m90.594 950.82v35.285q0 2.4 2.4 2.4h7.7425q2.4 0 2.4-2.4v-35.285q0-2.4-2.4-2.4h-7.7425q-2.4 0-2.4 2.4z" clip-path="url(#a)" fill="#fff" stroke="#fff"/>
<g clip-path="url(#a)">
<g transform="translate(94.658 950.82) rotate(90) scale(.08 -.08)">
<use xlink:href="#k"/>
<use x="60.818359" xlink:href="#c"/>
<use x="122.341797" xlink:href="#h"/>
<use x="163.439453" xlink:href="#i"/>
<use x="260.851562" xlink:href="#j"/>
<use x="288.634766" xlink:href="#g"/>
<use x="352.013672" xlink:href="#f"/>
<use x="413.292969" xlink:href="#l"/>
</g>
</g>
<path d="m137.77 950.82v35.285q0 2.4 2.4 2.4h7.7425q2.4 0 2.4-2.4v-35.285q0-2.4-2.4-2.4h-7.7425q-2.4 0-2.4 2.4z" clip-path="url(#a)" fill="#fff" stroke="#fff"/>
<g clip-path="url(#a)">
<g transform="translate(141.84 950.82) rotate(90) scale(.08 -.08)">
<use xlink:href="#k"/>
<use x="60.818359" xlink:href="#c"/>
<use x="122.341797" xlink:href="#h"/>
<use x="163.439453" xlink:href="#i"/>
<use x="260.851562" xlink:href="#j"/>
<use x="288.634766" xlink:href="#g"/>
<use x="352.013672" xlink:href="#f"/>
<use x="413.292969" xlink:href="#l"/>
</g>
</g>
<path d="m184.95 950.82v35.285q0 2.4 2.4 2.4h7.7425q2.4 0 2.4-2.4v-35.285q0-2.4-2.4-2.4h-7.7425q-2.4 0-2.4 2.4z" clip-path="url(#a)" fill="#fff" stroke="#fff"/>
<g clip-path="url(#a)">
<g transform="translate(189.01 950.82) rotate(90) scale(.08 -.08)">
<use xlink:href="#k"/>
<use x="60.818359" xlink:href="#c"/>
<use x="122.341797" xlink:href="#h"/>
<use x="163.439453" xlink:href="#i"/>
<use x="260.851562" xlink:href="#j"/>
<use x="288.634766" xlink:href="#g"/>
<use x="352.013672" xlink:href="#f"/>
<use x="413.292969" xlink:href="#l"/>
</g>
</g>
<path d="m232.13 950.82v35.285q0 2.4 2.4 2.4h7.7425q2.4 0 2.4-2.4v-35.285q0-2.4-2.4-2.4h-7.7425q-2.4 0-2.4 2.4z" clip-path="url(#a)" fill="#fff" stroke="#fff"/>
<g clip-path="url(#a)">
<g transform="translate(236.19 950.82) rotate(90) scale(.08 -.08)">
<use xlink:href="#k"/>
<use x="60.818359" xlink:href="#c"/>
<use x="122.341797" xlink:href="#h"/>
<use x="163.439453" xlink:href="#i"/>
<use x="260.851562" xlink:href="#j"/>
<use x="288.634766" xlink:href="#g"/>
<use x="352.013672" xlink:href="#f"/>
<use x="413.292969" xlink:href="#l"/>
</g>
</g>
<path d="m321.17 571.89 0.29493-5.0464q0.14002-2.3959-2.2559-2.5359l-7.7293-0.45172q-2.3959-0.14002-2.5359 2.2559l-0.29493 5.0464q-0.14002 2.3959 2.2559 2.5359l7.7293 0.45172q2.3959 0.14002 2.5359-2.2559z" clip-path="url(#a)" fill="#fff" stroke="#fff"/>
<g clip-path="url(#a)">
<g transform="translate(317.12 571.65) rotate(-86.655) scale(.08 -.08)">
<use xlink:href="#af"/>
</g>
</g>
<path d="m320.5 665.91 0.1643 5.5838q0.070585 2.399 2.4695 2.3284l7.7392-0.22771q2.399-0.070585 2.3284-2.4695l-0.1643-5.5838q-0.070586-2.399-2.4695-2.3284l-7.7392 0.22771q-2.399 0.070586-2.3284 2.4695z" clip-path="url(#a)" fill="#fff" stroke="#fff"/>
<g clip-path="url(#a)">
<g transform="translate(324.57 665.79) rotate(88.315) scale(.08 -.08)">
<use xlink:href="#ai"/>
</g>
</g>
<path d="m373.66 950.82v35.285q0 2.4 2.4 2.4h7.7425q2.4 0 2.4-2.4v-35.285q0-2.4-2.4-2.4h-7.7425q-2.4 0-2.4 2.4z" clip-path="url(#a)" fill="#fff" stroke="#fff"/>
<g clip-path="url(#a)">
<g transform="translate(377.72 950.82) rotate(90) scale(.08 -.08)">
<use xlink:href="#k"/>
<use x="60.818359" xlink:href="#c"/>
<use x="122.341797" xlink:href="#h"/>
<use x="163.439453" xlink:href="#i"/>
<use x="260.851562" xlink:href="#j"/>
<use x="288.634766" xlink:href="#g"/>
<use x="352.013672" xlink:href="#f"/>
<use x="413.292969" xlink:href="#l"/>
</g>
</g>
<path d="m456.21 773.33 1.1659-4.9187q0.55352-2.3353-1.7818-2.8888l-7.5338-1.7857q-2.3353-0.55352-2.8888 1.7818l-1.1659 4.9187q-0.55352 2.3353 1.7818 2.8888l7.5338 1.7857q2.3353 0.55352 2.8888-1.7818z" clip-path="url(#a)" fill="#fff" stroke="#fff"/>
<g clip-path="url(#a)">
<g transform="translate(452.26 772.39) rotate(-76.666) scale(.08 -.08)">
<use xlink:href="#af"/>
</g>
</g>
<path d="m468.01 766.9v5.055q0 2.4 2.4 2.4h7.7425q2.4 0 2.4-2.4v-5.055q0-2.4-2.4-2.4h-7.7425q-2.4 0-2.4 2.4z" clip-path="url(#a)" fill="#fff" stroke="#fff"/>
<g clip-path="url(#a)">
<g transform="translate(472.08 766.9) rotate(90) scale(.08 -.08)">
<use xlink:href="#af"/>
</g>
</g>
<path d="m491.13 768.15 1.2884 5.4356q0.55352 2.3353 2.8888 1.7818l7.5338-1.7857q2.3353-0.55352 1.7818-2.8888l-1.2884-5.4356q-0.55352-2.3353-2.8888-1.7818l-7.5338 1.7857q-2.3353 0.55352-1.7818 2.8888z" clip-path="url(#a)" fill="#fff" stroke="#fff"/>
<g clip-path="url(#a)">
<g transform="translate(495.08 767.21) rotate(76.666) scale(.08 -.08)">
<use xlink:href="#ai"/>
</g>
</g>
<path d="m420.84 950.82v35.285q0 2.4 2.4 2.4h7.7425q2.4 0 2.4-2.4v-35.285q0-2.4-2.4-2.4h-7.7425q-2.4 0-2.4 2.4z" clip-path="url(#a)" fill="#fff" stroke="#fff"/>
<g clip-path="url(#a)">
<g transform="translate(424.9 950.82) rotate(90) scale(.08 -.08)">
<use xlink:href="#k"/>
<use x="60.818359" xlink:href="#c"/>
<use x="122.341797" xlink:href="#h"/>
<use x="163.439453" xlink:href="#i"/>
<use x="260.851562" xlink:href="#j"/>
<use x="288.634766" xlink:href="#g"/>
<use x="352.013672" xlink:href="#f"/>
<use x="413.292969" xlink:href="#l"/>
</g>
</g>
<path d="m468.01 950.82v35.285q0 2.4 2.4 2.4h7.7425q2.4 0 2.4-2.4v-35.285q0-2.4-2.4-2.4h-7.7425q-2.4 0-2.4 2.4z" clip-path="url(#a)" fill="#fff" stroke="#fff"/>
<g clip-path="url(#a)">
<g transform="translate(472.08 950.82) rotate(90) scale(.08 -.08)">
<use xlink:href="#k"/>
<use x="60.818359" xlink:href="#c"/>
<use x="122.341797" xlink:href="#h"/>
<use x="163.439453" xlink:href="#i"/>
<use x="260.851562" xlink:href="#j"/>
<use x="288.634766" xlink:href="#g"/>
<use x="352.013672" xlink:href="#f"/>
<use x="413.292969" xlink:href="#l"/>
</g>
</g>
<path d="m515.19 950.82v35.285q0 2.4 2.4 2.4h7.7425q2.4 0 2.4-2.4v-35.285q0-2.4-2.4-2.4h-7.7425q-2.4 0-2.4 2.4z" clip-path="url(#a)" fill="#fff" stroke="#fff"/>
<g clip-path="url(#a)">
<g transform="translate(519.25 950.82) rotate(90) scale(.08 -.08)">
<use xlink:href="#k"/>
<use x="60.818359" xlink:href="#c"/>
<use x="122.341797" xlink:href="#h"/>
<use x="163.439453" xlink:href="#i"/>
<use x="260.851562" xlink:href="#j"/>
<use x="288.634766" xlink:href="#g"/>
<use x="352.013672" xlink:href="#f"/>
<use x="413.292969" xlink:href="#l"/>
</g>
</g>
<path d="m314.41 767.44 0.64405 5.4345q0.28245 2.3833 2.6658 2.1009l7.6887-0.9112q2.3833-0.28245 2.1009-2.6658l-0.64405-5.4345q-0.28245-2.3833-2.6658-2.1009l-7.6887 0.9112q-2.3833 0.28245-2.1009 2.6658z" clip-path="url(#a)" fill="#fff" stroke="#fff"/>
<g clip-path="url(#a)">
<g transform="translate(318.44 766.97) rotate(83.241) scale(.08 -.08)">
<use xlink:href="#s"/>
</g>
</g>
<path d="m303.3 772.68 0.59771-5.0435q0.28245-2.3833-2.1009-2.6658l-7.6887-0.9112q-2.3833-0.28245-2.6658 2.1009l-0.59771 5.0435q-0.28245 2.3833 2.1009 2.6658l7.6887 0.9112q2.3833 0.28245 2.6658-2.1009z" clip-path="url(#a)" fill="#fff" stroke="#fff"/>
<g clip-path="url(#a)">
<g transform="translate(299.26 772.2) rotate(-83.241) scale(.08 -.08)">
<use xlink:href="#ao"/>
</g>
</g>
<path d="m326.48 950.82v35.285q0 2.4 2.4 2.4h7.7425q2.4 0 2.4-2.4v-35.285q0-2.4-2.4-2.4h-7.7425q-2.4 0-2.4 2.4z" clip-path="url(#a)" fill="#fff" stroke="#fff"/>
<g clip-path="url(#a)">
<g transform="translate(330.54 950.82) rotate(90) scale(.08 -.08)">
<use xlink:href="#k"/>
<use x="60.818359" xlink:href="#c"/>
<use x="122.341797" xlink:href="#h"/>
<use x="163.439453" xlink:href="#i"/>
<use x="260.851562" xlink:href="#j"/>
<use x="288.634766" xlink:href="#g"/>
<use x="352.013672" xlink:href="#f"/>
<use x="413.292969" xlink:href="#l"/>
</g>
</g>
<path d="m279.3 950.82v35.285q0 2.4 2.4 2.4h7.7425q2.4 0 2.4-2.4v-35.285q0-2.4-2.4-2.4h-7.7425q-2.4 0-2.4 2.4z" clip-path="url(#a)" fill="#fff" stroke="#fff"/>
<g clip-path="url(#a)">
<g transform="translate(283.37 950.82) rotate(90) scale(.08 -.08)">
<use xlink:href="#k"/>
<use x="60.818359" xlink:href="#c"/>
<use x="122.341797" xlink:href="#h"/>
<use x="163.439453" xlink:href="#i"/>
<use x="260.851562" xlink:href="#j"/>
<use x="288.634766" xlink:href="#g"/>
<use x="352.013672" xlink:href="#f"/>
<use x="413.292969" xlink:href="#l"/>
</g>
</g>
<path d="m562.37 950.82v35.285q0 2.4 2.4 2.4h7.7425q2.4 0 2.4-2.4v-35.285q0-2.4-2.4-2.4h-7.7425q-2.4 0-2.4 2.4z" clip-path="url(#a)" fill="#fff" stroke="#fff"/>
<g clip-path="url(#a)">
<g transform="translate(566.43 950.82) rotate(90) scale(.08 -.08)">
<use xlink:href="#k"/>
<use x="60.818359" xlink:href="#c"/>
<use x="122.341797" xlink:href="#h"/>
<use x="163.439453" xlink:href="#i"/>
<use x="260.851562" xlink:href="#j"/>
<use x="288.634766" xlink:href="#g"/>
<use x="352.013672" xlink:href="#f"/>
<use x="413.292969" xlink:href="#l"/>
</g>
</g>
<path d="m892.61 950.82v35.285q0 2.4 2.4 2.4h7.7425q2.4 0 2.4-2.4v-35.285q0-2.4-2.4-2.4h-7.7425q-2.4 0-2.4 2.4z" clip-path="url(#a)" fill="#fff" stroke="#fff"/>
<g clip-path="url(#a)">
<g transform="translate(896.67 950.82) rotate(90) scale(.08 -.08)">
<use xlink:href="#k"/>
<use x="60.818359" xlink:href="#c"/>
<use x="122.341797" xlink:href="#h"/>
<use x="163.439453" xlink:href="#i"/>
<use x="260.851562" xlink:href="#j"/>
<use x="288.634766" xlink:href="#g"/>
<use x="352.013672" xlink:href="#f"/>
<use x="413.292969" xlink:href="#l"/>
</g>
</g>
<path d="m1175.7 950.82v35.285q0 2.4 2.4 2.4h7.7425q2.4 0 2.4-2.4v-35.285q0-2.4-2.4-2.4h-7.7425q-2.4 0-2.4 2.4z" clip-path="url(#a)" fill="#fff" stroke="#fff"/>
<g clip-path="url(#a)">
<g transform="translate(1179.7 950.82) rotate(90) scale(.08 -.08)">
<use xlink:href="#k"/>
<use x="60.818359" xlink:href="#c"/>
<use x="122.341797" xlink:href="#h"/>
<use x="163.439453" xlink:href="#i"/>
<use x="260.851562" xlink:href="#j"/>
<use x="288.634766" xlink:href="#g"/>
<use x="352.013672" xlink:href="#f"/>
<use x="413.292969" xlink:href="#l"/>
</g>
</g>
<path d="m1458.7 950.82v35.285q0 2.4 2.4 2.4h7.7425q2.4 0 2.4-2.4v-35.285q0-2.4-2.4-2.4h-7.7425q-2.4 0-2.4 2.4z" clip-path="url(#a)" fill="#fff" stroke="#fff"/>
<g clip-path="url(#a)">
<g transform="translate(1462.8 950.82) rotate(90) scale(.08 -.08)">
<use xlink:href="#k"/>
<use x="60.818359" xlink:href="#c"/>
<use x="122.341797" xlink:href="#h"/>
<use x="163.439453" xlink:href="#i"/>
<use x="260.851562" xlink:href="#j"/>
<use x="288.634766" xlink:href="#g"/>
<use x="352.013672" xlink:href="#f"/>
<use x="413.292969" xlink:href="#l"/>
</g>
</g>
<path d="m1600.3 950.82v35.285q0 2.4 2.4 2.4h7.7425q2.4 0 2.4-2.4v-35.285q0-2.4-2.4-2.4h-7.7425q-2.4 0-2.4 2.4z" clip-path="url(#a)" fill="#fff" stroke="#fff"/>
<g clip-path="url(#a)">
<g transform="translate(1604.3 950.82) rotate(90) scale(.08 -.08)">
<use xlink:href="#k"/>
<use x="60.818359" xlink:href="#c"/>
<use x="122.341797" xlink:href="#h"/>
<use x="163.439453" xlink:href="#i"/>
<use x="260.851562" xlink:href="#j"/>
<use x="288.634766" xlink:href="#g"/>
<use x="352.013672" xlink:href="#f"/>
<use x="413.292969" xlink:href="#l"/>
</g>
</g>
<path d="m1741.8 950.82v35.285q0 2.4 2.4 2.4h7.7425q2.4 0 2.4-2.4v-35.285q0-2.4-2.4-2.4h-7.7425q-2.4 0-2.4 2.4z" clip-path="url(#a)" fill="#fff" stroke="#fff"/>
<g clip-path="url(#a)">
<g transform="translate(1745.9 950.82) rotate(90) scale(.08 -.08)">
<use xlink:href="#k"/>
<use x="60.818359" xlink:href="#c"/>
<use x="122.341797" xlink:href="#h"/>
<use x="163.439453" xlink:href="#i"/>
<use x="260.851562" xlink:href="#j"/>
<use x="288.634766" xlink:href="#g"/>
<use x="352.013672" xlink:href="#f"/>
<use x="413.292969" xlink:href="#l"/>
</g>
</g>
<path d="m2024.9 950.82v35.285q0 2.4 2.4 2.4h7.7425q2.4 0 2.4-2.4v-35.285q0-2.4-2.4-2.4h-7.7425q-2.4 0-2.4 2.4z" clip-path="url(#a)" fill="#fff" stroke="#fff"/>
<g clip-path="url(#a)">
<g transform="translate(2028.9 950.82) rotate(90) scale(.08 -.08)">
<use xlink:href="#k"/>
<use x="60.818359" xlink:href="#c"/>
<use x="122.341797" xlink:href="#h"/>
<use x="163.439453" xlink:href="#i"/>
<use x="260.851562" xlink:href="#j"/>
<use x="288.634766" xlink:href="#g"/>
<use x="352.013672" xlink:href="#f"/>
<use x="413.292969" xlink:href="#l"/>
</g>
</g>
<defs>
<path id="b" d="m0 8.6603c2.2967 0 4.4997-0.9125 6.1237-2.5365 1.624-1.624 2.5365-3.827 2.5365-6.1237s-0.9125-4.4997-2.5365-6.1237c-1.624-1.624-3.827-2.5365-6.1237-2.5365s-4.4997 0.9125-6.1237 2.5365c-1.624 1.624-2.5365 3.827-2.5365 6.1237s0.9125 4.4997 2.5365 6.1237c1.624 1.624 3.827 2.5365 6.1237 2.5365z"/>
</defs>
<g clip-path="url(#a)">
<use x="96.86551" y="1067.982792" fill="#ffffff" stroke="#ffffff" xlink:href="#b"/>
</g>
<g clip-path="url(#a)">
<use x="144.042802" y="1067.982792" fill="#ffffff" stroke="#ffffff" xlink:href="#b"/>
</g>
<g clip-path="url(#a)">
<use x="191.220094" y="1067.982792" fill="#ffffff" stroke="#ffffff" xlink:href="#b"/>
</g>
<g clip-path="url(#a)">
<use x="238.397386" y="1067.982792" fill="#ffffff" stroke="#ffffff" xlink:href="#b"/>
</g>
<g clip-path="url(#a)">
<use x="285.574679" y="1067.982792" fill="#ffffff" stroke="#ffffff" xlink:href="#b"/>
</g>
<g clip-path="url(#a)">
<use x="332.751971" y="1067.982792" fill="#ffffff" stroke="#ffffff" xlink:href="#b"/>
</g>
<g clip-path="url(#a)">
<use x="379.929263" y="1067.982792" fill="#ffffff" stroke="#ffffff" xlink:href="#b"/>
</g>
<g clip-path="url(#a)">
<use x="427.106555" y="1067.982792" fill="#ffffff" stroke="#ffffff" xlink:href="#b"/>
</g>
<g clip-path="url(#a)">
<use x="474.283847" y="1067.982792" fill="#ffffff" stroke="#ffffff" xlink:href="#b"/>
</g>
<g clip-path="url(#a)">
<use x="521.46114" y="1067.982792" fill="#ffffff" stroke="#ffffff" xlink:href="#b"/>
</g>
<g clip-path="url(#a)">
<use x="568.638432" y="1067.982792" fill="#ffffff" stroke="#ffffff" xlink:href="#b"/>
</g>
<g clip-path="url(#a)">
<use x="615.815724" y="1067.982792" fill="#ffffff" stroke="#ffffff" xlink:href="#b"/>
</g>
<g clip-path="url(#a)">
<use x="662.993016" y="1067.982792" fill="#ffffff" stroke="#ffffff" xlink:href="#b"/>
</g>
<g clip-path="url(#a)">
<use x="710.170308" y="1067.982792" fill="#ffffff" stroke="#ffffff" xlink:href="#b"/>
</g>
<g clip-path="url(#a)">
<use x="757.347601" y="1067.982792" fill="#ffffff" stroke="#ffffff" xlink:href="#b"/>
</g>
<g clip-path="url(#a)">
<use x="804.524893" y="1067.982792" fill="#ffffff" stroke="#ffffff" xlink:href="#b"/>
</g>
<g clip-path="url(#a)">
<use x="851.702185" y="1067.982792" fill="#ffffff" stroke="#ffffff" xlink:href="#b"/>
</g>
<g clip-path="url(#a)">
<use x="898.879477" y="1067.982792" fill="#ffffff" stroke="#ffffff" xlink:href="#b"/>
</g>
<g clip-path="url(#a)">
<use x="946.056769" y="1067.982792" fill="#ffffff" stroke="#ffffff" xlink:href="#b"/>
</g>
<g clip-path="url(#a)">
<use x="993.234062" y="1067.982792" fill="#ffffff" stroke="#ffffff" xlink:href="#b"/>
</g>
<g clip-path="url(#a)">
<use x="1040.411354" y="1067.982792" fill="#ffffff" stroke="#ffffff" xlink:href="#b"/>
</g>
<g clip-path="url(#a)">
<use x="1087.588646" y="1067.982792" fill="#ffffff" stroke="#ffffff" xlink:href="#b"/>
</g>
<g clip-path="url(#a)">
<use x="1134.765938" y="1067.982792" fill="#ffffff" stroke="#ffffff" xlink:href="#b"/>
</g>
<g clip-path="url(#a)">
<use x="1181.943231" y="1067.982792" fill="#ffffff" stroke="#ffffff" xlink:href="#b"/>
</g>
<g clip-path="url(#a)">
<use x="1229.120523" y="1067.982792" fill="#ffffff" stroke="#ffffff" xlink:href="#b"/>
</g>
<g clip-path="url(#a)">
<use x="1276.297815" y="1067.982792" fill="#ffffff" stroke="#ffffff" xlink:href="#b"/>
</g>
<g clip-path="url(#a)">
<use x="1323.475107" y="1067.982792" fill="#ffffff" stroke="#ffffff" xlink:href="#b"/>
</g>
<g clip-path="url(#a)">
<use x="1370.652399" y="1067.982792" fill="#ffffff" stroke="#ffffff" xlink:href="#b"/>
</g>
<g clip-path="url(#a)">
<use x="1417.829692" y="1067.982792" fill="#ffffff" stroke="#ffffff" xlink:href="#b"/>
</g>
<g clip-path="url(#a)">
<use x="1465.006984" y="1067.982792" fill="#ffffff" stroke="#ffffff" xlink:href="#b"/>
</g>
<g clip-path="url(#a)">
<use x="1512.184276" y="1067.982792" fill="#ffffff" stroke="#ffffff" xlink:href="#b"/>
</g>
<g clip-path="url(#a)">
<use x="1559.361568" y="1067.982792" fill="#ffffff" stroke="#ffffff" xlink:href="#b"/>
</g>
<g clip-path="url(#a)">
<use x="1606.53886" y="1067.982792" fill="#ffffff" stroke="#ffffff" xlink:href="#b"/>
</g>
<g clip-path="url(#a)">
<use x="1653.716153" y="1067.982792" fill="#ffffff" stroke="#ffffff" xlink:href="#b"/>
</g>
<g clip-path="url(#a)">
<use x="1700.893445" y="1067.982792" fill="#ffffff" stroke="#ffffff" xlink:href="#b"/>
</g>
<g clip-path="url(#a)">
<use x="1748.070737" y="1067.982792" fill="#ffffff" stroke="#ffffff" xlink:href="#b"/>
</g>
<g clip-path="url(#a)">
<use x="1795.248029" y="1067.982792" fill="#ffffff" stroke="#ffffff" xlink:href="#b"/>
</g>
<g clip-path="url(#a)">
<use x="1842.425321" y="1067.982792" fill="#ffffff" stroke="#ffffff" xlink:href="#b"/>
</g>
<g clip-path="url(#a)">
<use x="1889.602614" y="1067.982792" fill="#ffffff" stroke="#ffffff" xlink:href="#b"/>
</g>
<g clip-path="url(#a)">
<use x="1936.779906" y="1067.982792" fill="#ffffff" stroke="#ffffff" xlink:href="#b"/>
</g>
<g clip-path="url(#a)">
<use x="1983.957198" y="1067.982792" fill="#ffffff" stroke="#ffffff" xlink:href="#b"/>
</g>
<g clip-path="url(#a)">
<use x="2031.13449" y="1067.982792" fill="#ffffff" stroke="#ffffff" xlink:href="#b"/>
</g>
<g clip-path="url(#a)">
<use x="1117.004249" y="52.017208" fill="#ffffff" stroke="#ffffff" xlink:href="#b"/>
</g>
<g clip-path="url(#a)">
<use x="263.670936" y="262.398905" fill="#ffffff" stroke="#ffffff" xlink:href="#b"/>
</g>
<g clip-path="url(#a)">
<use x="615.815724" y="868.942749" fill="#ffffff" stroke="#ffffff" xlink:href="#b"/>
</g>
<g clip-path="url(#a)">
<use x="739.656116" y="468.093797" fill="#ffffff" stroke="#ffffff" xlink:href="#b"/>
</g>
<g clip-path="url(#a)">
<use x="1058.102838" y="262.398905" fill="#ffffff" stroke="#ffffff" xlink:href="#b"/>
</g>
<g clip-path="url(#a)">
<use x="1229.120523" y="868.942749" fill="#ffffff" stroke="#ffffff" xlink:href="#b"/>
</g>
<g clip-path="url(#a)">
<use x="1459.109822" y="468.093797" fill="#ffffff" stroke="#ffffff" xlink:href="#b"/>
</g>
<g clip-path="url(#a)">
<use x="1795.248029" y="868.942749" fill="#ffffff" stroke="#ffffff" xlink:href="#b"/>
</g>
<g clip-path="url(#a)">
<use x="1845.795128" y="669.902706" fill="#ffffff" stroke="#ffffff" xlink:href="#b"/>
</g>
<g clip-path="url(#a)">
<use x="1842.425321" y="868.942749" fill="#ffffff" stroke="#ffffff" xlink:href="#b"/>
</g>
<g clip-path="url(#a)">
<use x="1889.602614" y="868.942749" fill="#ffffff" stroke="#ffffff" xlink:href="#b"/>
</g>
<g clip-path="url(#a)">
<use x="1936.779906" y="868.942749" fill="#ffffff" stroke="#ffffff" xlink:href="#b"/>
</g>
<g clip-path="url(#a)">
<use x="1983.957198" y="868.942749" fill="#ffffff" stroke="#ffffff" xlink:href="#b"/>
</g>
<g clip-path="url(#a)">
<use x="1276.297815" y="868.942749" fill="#ffffff" stroke="#ffffff" xlink:href="#b"/>
</g>
<g clip-path="url(#a)">
<use x="1323.475107" y="868.942749" fill="#ffffff" stroke="#ffffff" xlink:href="#b"/>
</g>
<g clip-path="url(#a)">
<use x="1370.652399" y="868.942749" fill="#ffffff" stroke="#ffffff" xlink:href="#b"/>
</g>
<g clip-path="url(#a)">
<use x="1417.829692" y="868.942749" fill="#ffffff" stroke="#ffffff" xlink:href="#b"/>
</g>
<g clip-path="url(#a)">
<use x="1535.772922" y="868.942749" fill="#ffffff" stroke="#ffffff" xlink:href="#b"/>
</g>
<g clip-path="url(#a)">
<use x="1677.304799" y="669.902706" fill="#ffffff" stroke="#ffffff" xlink:href="#b"/>
</g>
<g clip-path="url(#a)">
<use x="1653.716153" y="868.942749" fill="#ffffff" stroke="#ffffff" xlink:href="#b"/>
</g>
<g clip-path="url(#a)">
<use x="1700.893445" y="868.942749" fill="#ffffff" stroke="#ffffff" xlink:href="#b"/>
</g>
<g clip-path="url(#a)">
<use x="969.645416" y="468.093797" fill="#ffffff" stroke="#ffffff" xlink:href="#b"/>
</g>
<g clip-path="url(#a)">
<use x="1040.411354" y="868.942749" fill="#ffffff" stroke="#ffffff" xlink:href="#b"/>
</g>
<g clip-path="url(#a)">
<use x="1087.588646" y="868.942749" fill="#ffffff" stroke="#ffffff" xlink:href="#b"/>
</g>
<g clip-path="url(#a)">
<use x="1134.765938" y="868.942749" fill="#ffffff" stroke="#ffffff" xlink:href="#b"/>
</g>
<g clip-path="url(#a)">
<use x="946.056769" y="868.942749" fill="#ffffff" stroke="#ffffff" xlink:href="#b"/>
</g>
<g clip-path="url(#a)">
<use x="993.234062" y="669.902706" fill="#ffffff" stroke="#ffffff" xlink:href="#b"/>
</g>
<g clip-path="url(#a)">
<use x="993.234062" y="868.942749" fill="#ffffff" stroke="#ffffff" xlink:href="#b"/>
</g>
<g clip-path="url(#a)">
<use x="662.993016" y="868.942749" fill="#ffffff" stroke="#ffffff" xlink:href="#b"/>
</g>
<g clip-path="url(#a)">
<use x="710.170308" y="868.942749" fill="#ffffff" stroke="#ffffff" xlink:href="#b"/>
</g>
<g clip-path="url(#a)">
<use x="757.347601" y="868.942749" fill="#ffffff" stroke="#ffffff" xlink:href="#b"/>
</g>
<g clip-path="url(#a)">
<use x="828.113539" y="669.902706" fill="#ffffff" stroke="#ffffff" xlink:href="#b"/>
</g>
<g clip-path="url(#a)">
<use x="804.524893" y="868.942749" fill="#ffffff" stroke="#ffffff" xlink:href="#b"/>
</g>
<g clip-path="url(#a)">
<use x="851.702185" y="868.942749" fill="#ffffff" stroke="#ffffff" xlink:href="#b"/>
</g>
<g clip-path="url(#a)">
<use x="96.86551" y="868.942749" fill="#ffffff" stroke="#ffffff" xlink:href="#b"/>
</g>
<g clip-path="url(#a)">
<use x="144.042802" y="868.942749" fill="#ffffff" stroke="#ffffff" xlink:href="#b"/>
</g>
<g clip-path="url(#a)">
<use x="191.220094" y="868.942749" fill="#ffffff" stroke="#ffffff" xlink:href="#b"/>
</g>
<g clip-path="url(#a)">
<use x="238.397386" y="868.942749" fill="#ffffff" stroke="#ffffff" xlink:href="#b"/>
</g>
<g clip-path="url(#a)">
<use x="320.957648" y="468.093797" fill="#ffffff" stroke="#ffffff" xlink:href="#b"/>
</g>
<g clip-path="url(#a)">
<use x="379.929263" y="868.942749" fill="#ffffff" stroke="#ffffff" xlink:href="#b"/>
</g>
<g clip-path="url(#a)">
<use x="474.283847" y="669.902706" fill="#ffffff" stroke="#ffffff" xlink:href="#b"/>
</g>
<g clip-path="url(#a)">
<use x="427.106555" y="868.942749" fill="#ffffff" stroke="#ffffff" xlink:href="#b"/>
</g>
<g clip-path="url(#a)">
<use x="474.283847" y="868.942749" fill="#ffffff" stroke="#ffffff" xlink:href="#b"/>
</g>
<g clip-path="url(#a)">
<use x="521.46114" y="868.942749" fill="#ffffff" stroke="#ffffff" xlink:href="#b"/>
</g>
<g clip-path="url(#a)">
<use x="309.163325" y="669.902706" fill="#ffffff" stroke="#ffffff" xlink:href="#b"/>
</g>
<g clip-path="url(#a)">
<use x="332.751971" y="868.942749" fill="#ffffff" stroke="#ffffff" xlink:href="#b"/>
</g>
<g clip-path="url(#a)">
<use x="285.574679" y="868.942749" fill="#ffffff" stroke="#ffffff" xlink:href="#b"/>
</g>
<g clip-path="url(#a)">
<use x="568.638432" y="868.942749" fill="#ffffff" stroke="#ffffff" xlink:href="#b"/>
</g>
<g clip-path="url(#a)">
<use x="898.879477" y="868.942749" fill="#ffffff" stroke="#ffffff" xlink:href="#b"/>
</g>
<g clip-path="url(#a)">
<use x="1181.943231" y="868.942749" fill="#ffffff" stroke="#ffffff" xlink:href="#b"/>
</g>
<g clip-path="url(#a)">
<use x="1465.006984" y="868.942749" fill="#ffffff" stroke="#ffffff" xlink:href="#b"/>
</g>
<g clip-path="url(#a)">
<use x="1606.53886" y="868.942749" fill="#ffffff" stroke="#ffffff" xlink:href="#b"/>
</g>
<g clip-path="url(#a)">
<use x="1748.070737" y="868.942749" fill="#ffffff" stroke="#ffffff" xlink:href="#b"/>
</g>
<g clip-path="url(#a)">
<use x="2031.13449" y="868.942749" fill="#ffffff" stroke="#ffffff" xlink:href="#b"/>
</g>
<g clip-path="url(#a)">
<defs>
<path id="au" d="m9.8125 72.906h9.8594v-72.906h-9.8594z"/>
</defs>
<g transform="translate(95.391 1070.7) scale(.1 -.1)">
<use xlink:href="#au"/>
</g>
</g>
<g clip-path="url(#a)">
<defs>
<path id="am" d="m8.5 21.578v33.109h8.9844v-32.766q0-7.7656 3.0156-11.656 3.0312-3.875 9.0938-3.875 7.2656 0 11.484 4.6406 4.2344 4.6406 4.2344 12.656v31h8.9844v-54.688h-8.9844v8.4062q-3.2656-4.9844-7.5938-7.4062-4.3125-2.4219-10.031-2.4219-9.4219 0-14.312 5.8594-4.875 5.8594-4.875 17.141z"/>
<path id="r" d="m44.281 53.078v-8.5q-3.7969 1.9531-7.9062 2.9219-4.0938 0.98438-8.5 0.98438-6.6875 0-10.031-2.0469t-3.3438-6.1562q0-3.125 2.3906-4.9062t9.625-3.3906l3.0781-0.6875q9.5625-2.0469 13.594-5.7812t4.0312-10.422q0-7.625-6.0312-12.078-6.0312-4.4375-16.578-4.4375-4.3906 0-9.1562 0.85938t-10.031 2.5625v9.2812q4.9844-2.5938 9.8125-3.8906 4.8281-1.2812 9.5781-1.2812 6.3438 0 9.75 2.1719 3.4219 2.1719 3.4219 6.125 0 3.6562-2.4688 5.6094-2.4531 1.9531-10.812 3.7656l-3.125 0.73438q-8.3438 1.75-12.062 5.3906-3.7031 3.6406-3.7031 9.9844 0 7.7188 5.4688 11.906 5.4688 4.2031 15.531 4.2031 4.9688 0 9.3594-0.73438 4.4062-0.71875 8.1094-2.1875z"/>
<path id="x" d="m45.406 46.391v29.594h8.9844v-75.984h-8.9844v8.2031q-2.8281-4.875-7.1562-7.25-4.3125-2.375-10.375-2.375-9.9062 0-16.141 7.9062-6.2188 7.9219-6.2188 20.812t6.2188 20.797q6.2344 7.9062 16.141 7.9062 6.0625 0 10.375-2.375 4.3281-2.3594 7.1562-7.2344zm-30.609-19.094q0-9.9062 4.0781-15.547t11.203-5.6406 11.219 5.6406q4.1094 5.6406 4.1094 15.547t-4.1094 15.547q-4.0938 5.6406-11.219 5.6406t-11.203-5.6406-4.0781-15.547z"/>
</defs>
<g transform="translate(132.02 1070.7) scale(.1 -.1)">
<use xlink:href="#am"/>
<use x="63.378906" xlink:href="#r"/>
<use x="115.478516" xlink:href="#c"/>
<use x="177.001953" xlink:href="#x"/>
</g>
</g>
<g clip-path="url(#a)">
<defs>
<path id="m" d="m18.312 70.219v-15.531h18.5v-6.9844h-18.5v-29.688q0-6.6875 1.8281-8.5938t7.4531-1.9062h9.2188v-7.5156h-9.2188q-10.406 0-14.359 3.875-3.9531 3.8906-3.9531 14.141v29.688h-6.5938v6.9844h6.5938v15.531z"/>
<path id="t" d="m30.609 48.391q-7.2188 0-11.422-5.6406t-4.2031-15.453 4.1719-15.453q4.1875-5.6406 11.453-5.6406 7.1875 0 11.375 5.6562 4.2031 5.6719 4.2031 15.438 0 9.7188-4.2031 15.406-4.1875 5.6875-11.375 5.6875zm0 7.6094q11.719 0 18.406-7.625 6.7031-7.6094 6.7031-21.078 0-13.422-6.7031-21.078-6.6875-7.6406-18.406-7.6406-11.766 0-18.438 7.6406-6.6562 7.6562-6.6562 21.078 0 13.469 6.6562 21.078 6.6719 7.625 18.438 7.625z"/>
</defs>
<g transform="translate(186.2 1070.7) scale(.1 -.1)">
<use xlink:href="#m"/>
<use x="39.208984" xlink:href="#t"/>
</g>
</g>
<g clip-path="url(#a)">
<defs>
<path id="ax" d="m9.0781 75.984h9.0312v-44.875l26.812 23.578h11.469l-29-25.578 30.234-29.109h-11.719l-27.797 26.703v-26.703h-9.0312z"/>
</defs>
<g transform="translate(227.4 1070.7) scale(.1 -.1)">
<use xlink:href="#m"/>
<use x="39.208984" xlink:href="#f"/>
<use x="100.488281" xlink:href="#ax"/>
<use x="158.351562" xlink:href="#c"/>
</g>
</g>
<g clip-path="url(#a)">
<defs>
<path id="ak" d="m32.172-5.0781q-3.7969-9.7656-7.4219-12.734-3.6094-2.9844-9.6562-2.9844h-7.1875v7.5156h5.2812q3.7031 0 5.75 1.7656 2.0625 1.75 4.5469 8.2969l1.6094 4.0938-22.109 53.812h9.5156l17.094-42.766 17.094 42.766h9.5156z"/>
</defs>
<g transform="translate(277.74 1070.7) scale(.1 -.1)">
<use xlink:href="#i"/>
<use x="97.412109" xlink:href="#ak"/>
</g>
</g>
<g clip-path="url(#a)">
<defs>
<path id="ac" d="m48.781 52.594v-8.4062q-3.8125 2.1094-7.6406 3.1562t-7.7344 1.0469q-8.75 0-13.594-5.5469-4.8281-5.5312-4.8281-15.547t4.8281-15.562q4.8438-5.5312 13.594-5.5312 3.9062 0 7.7344 1.0469t7.6406 3.1562v-8.3125q-3.7656-1.75-7.7969-2.625-4.0156-0.89062-8.5625-0.89062-12.359 0-19.641 7.7656-7.2656 7.7656-7.2656 20.953 0 13.375 7.3438 21.031 7.3594 7.6719 20.156 7.6719 4.1406 0 8.0938-0.85938 3.9531-0.84375 7.6719-2.5469z"/>
</defs>
<g transform="translate(322.28 1070.7) scale(.1 -.1)">
<use xlink:href="#ac"/>
<use x="54.980469" xlink:href="#f"/>
<use x="116.259766" xlink:href="#h"/>
<use x="157.373047" xlink:href="#r"/>
</g>
</g>
<g clip-path="url(#a)">
<defs>
<path id="u" d="m54.891 33.016v-33.016h-8.9844v32.719q0 7.7656-3.0312 11.609-3.0312 3.8594-9.0781 3.8594-7.2812 0-11.484-4.6406-4.2031-4.625-4.2031-12.641v-30.906h-9.0312v75.984h9.0312v-29.797q3.2344 4.9375 7.5938 7.375 4.375 2.4375 10.094 2.4375 9.4219 0 14.25-5.8281 4.8438-5.8281 4.8438-17.156z"/>
</defs>
<g transform="translate(366.59 1070.7) scale(.1 -.1)">
<use xlink:href="#m"/>
<use x="39.208984" xlink:href="#u"/>
<use x="102.587891" xlink:href="#c"/>
<use x="164.111328" xlink:href="#h"/>
<use x="205.193359" xlink:href="#c"/>
</g>
</g>
<g clip-path="url(#a)">
<g transform="translate(421.26 1070.7) scale(.1 -.1)">
<use xlink:href="#f"/>
<use x="61.279297" xlink:href="#l"/>
<use x="89.0625" xlink:href="#l"/>
</g>
</g>
<g clip-path="url(#a)">
<g transform="translate(466.08 1070.7) scale(.1 -.1)">
<use xlink:href="#m"/>
<use x="39.208984" xlink:href="#u"/>
<use x="102.587891" xlink:href="#c"/>
</g>
</g>
<g clip-path="url(#a)">
<g transform="translate(510.17 1070.7) scale(.1 -.1)">
<use xlink:href="#m"/>
<use x="39.208984" xlink:href="#j"/>
<use x="66.992188" xlink:href="#i"/>
<use x="164.404297" xlink:href="#c"/>
</g>
</g>
<g clip-path="url(#a)">
<defs>
<path id="aj" d="m11.719 12.406h10.297v-8.4062l-8-15.625h-6.2969l4 15.625z"/>
</defs>
<g transform="translate(567.05 1070.7) scale(.1 -.1)">
<use xlink:href="#aj"/>
</g>
</g>
<g clip-path="url(#a)">
<defs>
<path id="an" d="m48.688 27.297q0 9.9062-4.0781 15.547t-11.203 5.6406q-7.1406 0-11.219-5.6406t-4.0781-15.547 4.0781-15.547 11.219-5.6406q7.125 0 11.203 5.6406t4.0781 15.547zm-30.578 19.094q2.8438 4.875 7.1562 7.2344 4.3281 2.375 10.328 2.375 9.9688 0 16.188-7.9062 6.2344-7.9062 6.2344-20.797t-6.2344-20.812q-6.2188-7.9062-16.188-7.9062-6 0-10.328 2.375-4.3125 2.375-7.1562 7.25v-8.2031h-9.0312v75.984h9.0312z"/>
</defs>
<g transform="translate(607.51 1070.7) scale(.1 -.1)">
<use xlink:href="#an"/>
<use x="63.476562" xlink:href="#am"/>
<use x="126.855469" xlink:href="#m"/>
</g>
</g>
<g clip-path="url(#a)">
<defs>
<path id="as" d="m45.406 27.984q0 9.7656-4.0312 15.125-4.0156 5.375-11.297 5.375-7.2188 0-11.25-5.375-4.0312-5.3594-4.0312-15.125 0-9.7188 4.0312-15.094t11.25-5.375q7.2812 0 11.297 5.375 4.0312 5.375 4.0312 15.094zm8.9844-21.203q0-13.953-6.2031-20.766-6.1875-6.8125-18.984-6.8125-4.7344 0-8.9375 0.70312t-8.1562 2.1719v8.7344q3.9531-2.1406 7.8125-3.1562 3.8594-1.0312 7.8594-1.0312 8.8438 0 13.234 4.6094t4.3906 13.938v4.4531q-2.7812-4.8438-7.125-7.2344t-10.406-2.3906q-10.047 0-16.203 7.6562-6.1562 7.6719-6.1562 20.328 0 12.688 6.1562 20.344 6.1562 7.6719 16.203 7.6719 6.0625 0 10.406-2.3906t7.125-7.2188v8.2969h8.9844z"/>
</defs>
<g transform="translate(629.5 1070.7) scale(.1 -.1)">
<use xlink:href="#i"/>
<use x="97.412109" xlink:href="#f"/>
<use x="158.691406" xlink:href="#g"/>
<use x="222.070312" xlink:href="#f"/>
<use x="283.349609" xlink:href="#as"/>
<use x="346.826172" xlink:href="#c"/>
<use x="408.349609" xlink:href="#i"/>
<use x="505.761719" xlink:href="#c"/>
<use x="567.285156" xlink:href="#g"/>
<use x="630.664062" xlink:href="#m"/>
</g>
</g>
<g clip-path="url(#a)">
<g transform="translate(689.16 1070.7) scale(.1 -.1)">
<use xlink:href="#ac"/>
<use x="54.980469" xlink:href="#u"/>
<use x="118.359375" xlink:href="#f"/>
<use x="179.638672" xlink:href="#g"/>
<use x="243.017578" xlink:href="#as"/>
<use x="306.494141" xlink:href="#c"/>
<use x="368.017578" xlink:href="#r"/>
</g>
</g>
<g clip-path="url(#a)">
<g transform="translate(742.17 1070.7) scale(.1 -.1)">
<use xlink:href="#u"/>
<use x="63.378906" xlink:href="#f"/>
<use x="124.658203" xlink:href="#g"/>
<use x="188.037109" xlink:href="#x"/>
<use x="251.513672" xlink:href="#r"/>
</g>
</g>
<g clip-path="url(#a)">
<g transform="translate(796.45 1070.7) scale(.1 -.1)">
<use xlink:href="#m"/>
<use x="39.208984" xlink:href="#t"/>
<use x="100.390625" xlink:href="#t"/>
</g>
</g>
<g clip-path="url(#a)">
<defs>
<path id="at" d="m37.109 75.984v-7.4844h-8.5938q-4.8281 0-6.7188-1.9531-1.875-1.9531-1.875-7.0312v-4.8281h14.797v-6.9844h-14.797v-47.703h-9.0312v47.703h-8.5938v6.9844h8.5938v3.8125q0 9.125 4.25 13.297 4.25 4.1875 13.469 4.1875z"/>
<path id="aw" d="m14.797 27.297q0-9.9062 4.0781-15.547t11.203-5.6406 11.219 5.6406q4.1094 5.6406 4.1094 15.547t-4.1094 15.547q-4.0938 5.6406-11.219 5.6406t-11.203-5.6406-4.0781-15.547zm30.609-19.094q-2.8281-4.875-7.1562-7.25-4.3125-2.375-10.375-2.375-9.9062 0-16.141 7.9062-6.2188 7.9219-6.2188 20.812t6.2188 20.797q6.2344 7.9062 16.141 7.9062 6.0625 0 10.375-2.375 4.3281-2.3594 7.1562-7.2344v8.2969h8.9844v-75.484h-8.9844z"/>
</defs>
<g transform="translate(825.91 1070.7) scale(.1 -.1)">
<use xlink:href="#at"/>
<use x="35.205078" xlink:href="#h"/>
<use x="76.287109" xlink:href="#c"/>
<use x="137.810547" xlink:href="#aw"/>
<use x="201.287109" xlink:href="#am"/>
<use x="264.666016" xlink:href="#c"/>
<use x="326.189453" xlink:href="#g"/>
<use x="389.568359" xlink:href="#m"/>
<use x="428.777344" xlink:href="#l"/>
<use x="456.560547" xlink:href="#ak"/>
</g>
</g>
<g clip-path="url(#a)">
<g transform="translate(897.29 1070.7) scale(.1 -.1)">
<use xlink:href="#aj"/>
</g>
</g>
<g clip-path="url(#a)">
<g transform="translate(937.85 1070.7) scale(.1 -.1)">
<use xlink:href="#m"/>
<use x="39.208984" xlink:href="#u"/>
<use x="102.587891" xlink:href="#c"/>
</g>
</g>
<g clip-path="url(#a)">
<defs>
<path id="ar" d="m2.9844 54.688h9.5156l17.094-45.891 17.094 45.891h9.5156l-20.516-54.688h-12.203z"/>
</defs>
<g transform="translate(975.32 1070.7) scale(.1 -.1)">
<use xlink:href="#r"/>
<use x="52.099609" xlink:href="#c"/>
<use x="113.623047" xlink:href="#h"/>
<use x="154.736328" xlink:href="#ar"/>
<use x="213.916016" xlink:href="#j"/>
<use x="241.699219" xlink:href="#ac"/>
<use x="296.679688" xlink:href="#c"/>
</g>
</g>
<g clip-path="url(#a)">
<g transform="translate(1031.6 1070.7) scale(.1 -.1)">
<use xlink:href="#u"/>
<use x="63.378906" xlink:href="#f"/>
<use x="124.658203" xlink:href="#r"/>
</g>
</g>
<g clip-path="url(#a)">
<g transform="translate(1075.1 1070.7) scale(.1 -.1)">
<use xlink:href="#an"/>
<use x="63.476562" xlink:href="#c"/>
<use x="125" xlink:href="#c"/>
<use x="186.523438" xlink:href="#g"/>
</g>
</g>
<g clip-path="url(#a)">
<defs>
<path id="aq" d="m4.2031 54.688h8.9844l11.234-42.672 11.172 42.672h10.594l11.234-42.672 11.188 42.672h8.9844l-14.312-54.688h-10.594l-11.766 44.828-11.812-44.828h-10.609z"/>
</defs>
<g transform="translate(1123.6 1070.7) scale(.1 -.1)">
<use xlink:href="#r"/>
<use x="52.099609" xlink:href="#l"/>
<use x="79.882812" xlink:href="#t"/>
<use x="141.064453" xlink:href="#aq"/>
</g>
</g>
<g clip-path="url(#a)">
<g transform="translate(1180.4 1070.7) scale(.1 -.1)">
<use xlink:href="#aj"/>
</g>
</g>
<g clip-path="url(#a)">
<g transform="translate(1219.7 1070.7) scale(.1 -.1)">
<use xlink:href="#f"/>
<use x="61.279297" xlink:href="#g"/>
<use x="124.658203" xlink:href="#x"/>
</g>
</g>
<g clip-path="url(#a)">
<g transform="translate(1265.1 1070.7) scale(.1 -.1)">
<use xlink:href="#m"/>
<use x="39.208984" xlink:href="#u"/>
<use x="102.587891" xlink:href="#c"/>
<use x="164.111328" xlink:href="#ak"/>
</g>
</g>
<g clip-path="url(#a)">
<g transform="translate(1310.5 1070.7) scale(.1 -.1)">
<use xlink:href="#t"/>
<use x="61.181641" xlink:href="#at"/>
<use x="96.371094" xlink:href="#m"/>
<use x="135.580078" xlink:href="#c"/>
<use x="197.103516" xlink:href="#g"/>
</g>
</g>
<g clip-path="url(#a)">
<g transform="translate(1363.7 1070.7) scale(.1 -.1)">
<use xlink:href="#m"/>
<use x="39.208984" xlink:href="#h"/>
<use x="80.322266" xlink:href="#ak"/>
</g>
</g>
<g clip-path="url(#a)">
<g transform="translate(1412.8 1070.7) scale(.1 -.1)">
<use xlink:href="#m"/>
<use x="39.208984" xlink:href="#t"/>
</g>
</g>
<g clip-path="url(#a)">
<defs>
<path id="ap" d="m17.922 72.906v-27.109h-8.2969v27.109zm18.453 0v-27.109h-8.2969v27.109z"/>
</defs>
<g transform="translate(1462.7 1070.7) scale(.1 -.1)">
<use xlink:href="#ap"/>
</g>
</g>
<g clip-path="url(#a)">
<g transform="translate(1502.8 1070.7) scale(.1 -.1)">
<use xlink:href="#f"/>
<use x="61.279297" xlink:href="#x"/>
<use x="124.755859" xlink:href="#x"/>
</g>
</g>
<g clip-path="url(#a)">
<g transform="translate(1553.1 1070.7) scale(.1 -.1)">
<use xlink:href="#t"/>
<use x="61.181641" xlink:href="#g"/>
</g>
</g>
<g clip-path="url(#a)">
<g transform="translate(1604.2 1070.7) scale(.1 -.1)">
<use xlink:href="#ap"/>
</g>
</g>
<g clip-path="url(#a)">
<defs>
<path id="av" d="m54.891 54.688-19.781-26.609 20.797-28.078h-10.594l-15.922 21.484-15.906-21.484h-10.609l21.25 28.609-19.438 26.078h10.594l14.5-19.484 14.5 19.484z"/>
</defs>
<g transform="translate(1640.6 1070.7) scale(.1 -.1)">
<use xlink:href="#c"/>
<use x="61.507812" xlink:href="#av"/>
<use x="120.6875" xlink:href="#m"/>
<use x="159.896484" xlink:href="#h"/>
<use x="201.009766" xlink:href="#f"/>
</g>
</g>
<g clip-path="url(#a)">
<g transform="translate(1680.4 1070.7) scale(.1 -.1)">
<use xlink:href="#r"/>
<use x="52.099609" xlink:href="#c"/>
<use x="113.623047" xlink:href="#h"/>
<use x="154.736328" xlink:href="#ar"/>
<use x="213.916016" xlink:href="#j"/>
<use x="241.699219" xlink:href="#ac"/>
<use x="296.679688" xlink:href="#c"/>
<use x="358.203125" xlink:href="#r"/>
</g>
</g>
<g clip-path="url(#a)">
<g transform="translate(1746.5 1070.7) scale(.1 -.1)">
<use xlink:href="#aj"/>
</g>
</g>
<g clip-path="url(#a)">
<g transform="translate(1780.7 1070.7) scale(.1 -.1)">
<use xlink:href="#aq"/>
<use x="81.787109" xlink:href="#u"/>
<use x="145.166016" xlink:href="#j"/>
<use x="172.949219" xlink:href="#ac"/>
<use x="227.929688" xlink:href="#u"/>
</g>
</g>
<g clip-path="url(#a)">
<g transform="translate(1814.9 1070.7) scale(.1 -.1)">
<use xlink:href="#r"/>
<use x="52.099609" xlink:href="#t"/>
<use x="113.28125" xlink:href="#i"/>
<use x="210.693359" xlink:href="#c"/>
<use x="272.216797" xlink:href="#m"/>
<use x="311.425781" xlink:href="#j"/>
<use x="339.208984" xlink:href="#i"/>
<use x="436.621094" xlink:href="#c"/>
<use x="498.144531" xlink:href="#r"/>
</g>
</g>
<g clip-path="url(#a)">
<g transform="translate(1885.6 1070.7) scale(.1 -.1)">
<use xlink:href="#j"/>
<use x="27.783203" xlink:href="#r"/>
</g>
</g>
<g clip-path="url(#a)">
<g transform="translate(1928.6 1070.7) scale(.1 -.1)">
<use xlink:href="#g"/>
<use x="63.378906" xlink:href="#t"/>
<use x="124.560547" xlink:href="#m"/>
</g>
</g>
<g clip-path="url(#a)">
<g transform="translate(1965.2 1070.7) scale(.1 -.1)">
<use xlink:href="#g"/>
<use x="63.378906" xlink:href="#c"/>
<use x="124.902344" xlink:href="#c"/>
<use x="186.425781" xlink:href="#x"/>
<use x="249.902344" xlink:href="#c"/>
<use x="311.425781" xlink:href="#x"/>
</g>
</g>
<g clip-path="url(#a)">
<defs>
<path id="e" d="m10.688 12.406h10.312v-12.406h-10.312z"/>
</defs>
<g transform="translate(2029.5 1070.7) scale(.1 -.1)">
<use xlink:href="#e"/>
</g>
</g>
<g clip-path="url(#a)">
<defs>
<path id="d" d="m12.406 8.2969h16.109v55.625l-17.531-3.5156v8.9844l17.438 3.5156h9.8594v-64.609h16.109v-8.2969h-41.984z"/>
</defs>
<g transform="translate(1109.1 54.777) scale(.1 -.1)">
<use xlink:href="#d"/>
<use x="63.623047" xlink:href="#e"/>
<use x="95.410156" xlink:href="#d"/>
</g>
</g>
<g clip-path="url(#a)">
<defs>
<path id="q" d="m19.188 8.2969h34.422v-8.2969h-46.281v8.2969q5.6094 5.8125 15.297 15.594 9.7031 9.7969 12.188 12.641 4.7344 5.3125 6.6094 9 1.8906 3.6875 1.8906 7.25 0 5.8125-4.0781 9.4688-4.0781 3.6719-10.625 3.6719-4.6406 0-9.7969-1.6094-5.1406-1.6094-11-4.8906v9.9688q5.9531 2.3906 11.125 3.6094 5.1875 1.2188 9.4844 1.2188 11.328 0 18.062-5.6719 6.7344-5.6562 6.7344-15.125 0-4.5-1.6875-8.5312-1.6719-4.0156-6.125-9.4844-1.2188-1.4219-7.7656-8.1875-6.5312-6.7656-18.453-18.922z"/>
</defs>
<g transform="translate(255.72 265.16) scale(.1 -.1)">
<use xlink:href="#d"/>
<use x="63.623047" xlink:href="#e"/>
<use x="95.410156" xlink:href="#q"/>
</g>
</g>
<g clip-path="url(#a)">
<defs>
<path id="p" d="m40.578 39.312q7.0781-1.5156 11.047-6.3125 3.9844-4.7812 3.9844-11.812 0-10.781-7.4219-16.703-7.4219-5.9062-21.094-5.9062-4.5781 0-9.4375 0.90625t-10.031 2.7188v9.5156q4.0938-2.3906 8.9688-3.6094 4.8906-1.2188 10.219-1.2188 9.2656 0 14.125 3.6562t4.8594 10.641q0 6.4531-4.5156 10.078-4.5156 3.6406-12.562 3.6406h-8.5v8.1094h8.8906q7.2656 0 11.125 2.9062t3.8594 8.375q0 5.6094-3.9844 8.6094-3.9688 3.0156-11.391 3.0156-4.0625 0-8.7031-0.89062-4.6406-0.875-10.203-2.7188v8.7812q5.625 1.5625 10.531 2.3438t9.25 0.78125q11.234 0 17.766-5.1094 6.5469-5.0938 6.5469-13.781 0-6.0625-3.4688-10.234t-9.8594-5.7812z"/>
</defs>
<g transform="translate(607.86 871.7) scale(.1 -.1)">
<use xlink:href="#d"/>
<use x="63.623047" xlink:href="#e"/>
<use x="95.410156" xlink:href="#p"/>
</g>
</g>
<g clip-path="url(#a)">
<defs>
<path id="o" d="m37.797 64.312-24.906-38.922h24.906zm-2.5938 8.5938h12.406v-47.516h10.406v-8.2031h-10.406v-17.188h-9.8125v17.188h-32.906v9.5156z"/>
</defs>
<g transform="translate(731.7 470.85) scale(.1 -.1)">
<use xlink:href="#d"/>
<use x="63.623047" xlink:href="#e"/>
<use x="95.410156" xlink:href="#o"/>
</g>
</g>
<g clip-path="url(#a)">
<defs>
<path id="n" d="m10.797 72.906h38.719v-8.3125h-29.688v-17.859q2.1406 0.73438 4.2812 1.0938 2.1562 0.35938 4.3125 0.35938 12.203 0 19.328-6.6875 7.1406-6.6875 7.1406-18.109 0-11.766-7.3281-18.297-7.3281-6.5156-20.656-6.5156-4.5938 0-9.3594 0.78125-4.75 0.78125-9.8281 2.3438v9.9219q4.3906-2.3906 9.0781-3.5625t9.9062-1.1719q8.4531 0 13.375 4.4375 4.9375 4.4375 4.9375 12.062 0 7.6094-4.9375 12.047-4.9219 4.4531-13.375 4.4531-3.9531 0-7.8906-0.875-3.9219-0.875-8.0156-2.7344z"/>
</defs>
<g transform="translate(1050.2 265.16) scale(.1 -.1)">
<use xlink:href="#d"/>
<use x="63.623047" xlink:href="#e"/>
<use x="95.410156" xlink:href="#n"/>
</g>
</g>
<g clip-path="url(#a)">
<defs>
<path id="w" d="m33.016 40.375q-6.6406 0-10.531-4.5469-3.875-4.5312-3.875-12.438 0-7.8594 3.875-12.438 3.8906-4.5625 10.531-4.5625t10.516 4.5625q3.875 4.5781 3.875 12.438 0 7.9062-3.875 12.438-3.875 4.5469-10.516 4.5469zm19.578 30.922v-8.9844q-3.7188 1.75-7.5 2.6719-3.7812 0.9375-7.5 0.9375-9.7656 0-14.922-6.5938-5.1406-6.5938-5.875-19.922 2.875 4.25 7.2188 6.5156 4.3594 2.2656 9.5781 2.2656 10.984 0 17.359-6.6719 6.375-6.6562 6.375-18.125 0-11.234-6.6406-18.031-6.6406-6.7812-17.672-6.7812-12.656 0-19.344 9.6875-6.6875 9.7031-6.6875 28.109 0 17.281 8.2031 27.562t22.016 10.281q3.7188 0 7.5-0.73438t7.8906-2.1875z"/>
</defs>
<g transform="translate(1221.2 871.7) scale(.1 -.1)">
<use xlink:href="#d"/>
<use x="63.623047" xlink:href="#e"/>
<use x="95.410156" xlink:href="#w"/>
</g>
</g>
<g clip-path="url(#a)">
<defs>
<path id="ab" d="m8.2031 72.906h46.875v-4.2031l-26.469-68.703h-10.297l24.906 64.594h-35.016z"/>
</defs>
<g transform="translate(1451.2 470.85) scale(.1 -.1)">
<use xlink:href="#d"/>
<use x="63.623047" xlink:href="#e"/>
<use x="95.410156" xlink:href="#ab"/>
</g>
</g>
<g clip-path="url(#a)">
<defs>
<path id="aa" d="m31.781 34.625q-7.0312 0-11.062-3.7656-4.0156-3.7656-4.0156-10.344 0-6.5938 4.0156-10.359 4.0312-3.7656 11.062-3.7656t11.078 3.7812q4.0625 3.7969 4.0625 10.344 0 6.5781-4.0312 10.344-4.0156 3.7656-11.109 3.7656zm-9.8594 4.1875q-6.3438 1.5625-9.8906 5.9062-3.5312 4.3594-3.5312 10.609 0 8.7344 6.2188 13.812 6.2344 5.0781 17.062 5.0781 10.891 0 17.094-5.0781t6.2031-13.812q0-6.25-3.5469-10.609-3.5312-4.3438-9.8281-5.9062 7.125-1.6562 11.094-6.5 3.9844-4.8281 3.9844-11.797 0-10.609-6.4688-16.281-6.4688-5.6562-18.531-5.6562-12.047 0-18.531 5.6562-6.4688 5.6719-6.4688 16.281 0 6.9688 4 11.797 4.0156 4.8438 11.141 6.5zm-3.6094 15.578q0-5.6562 3.5312-8.8281 3.5469-3.1719 9.9375-3.1719 6.3594 0 9.9375 3.1719 3.5938 3.1719 3.5938 8.8281 0 5.6719-3.5938 8.8438-3.5781 3.1719-9.9375 3.1719-6.3906 0-9.9375-3.1719-3.5312-3.1719-3.5312-8.8438z"/>
</defs>
<g transform="translate(1787.3 871.7) scale(.1 -.1)">
<use xlink:href="#d"/>
<use x="63.623047" xlink:href="#e"/>
<use x="95.410156" xlink:href="#aa"/>
</g>
</g>
<g clip-path="url(#a)">
<defs>
<path id="z" d="m10.984 1.5156v8.9844q3.7188-1.7656 7.5156-2.6875 3.8125-0.92188 7.4844-0.92188 9.7656 0 14.906 6.5625 5.1562 6.5625 5.8906 19.953-2.8281-4.2031-7.1875-6.4531-4.3438-2.25-9.6094-2.25-10.938 0-17.312 6.6094-6.375 6.625-6.375 18.109 0 11.219 6.6406 18 6.6406 6.7969 17.672 6.7969 12.656 0 19.312-9.7031 6.6719-9.6875 6.6719-28.141 0-17.234-8.1875-27.516-8.1719-10.281-21.984-10.281-3.7188 0-7.5312 0.73438-3.7969 0.73438-7.9062 2.2031zm19.625 30.906q6.6406 0 10.516 4.5312 3.8906 4.5469 3.8906 12.469 0 7.8594-3.8906 12.422-3.875 4.5625-10.516 4.5625t-10.516-4.5625-3.875-12.422q0-7.9219 3.875-12.469 3.875-4.5312 10.516-4.5312z"/>
</defs>
<g transform="translate(1837.8 672.66) scale(.1 -.1)">
<use xlink:href="#d"/>
<use x="63.623047" xlink:href="#e"/>
<use x="95.410156" xlink:href="#z"/>
</g>
</g>
<g clip-path="url(#a)">
<g transform="translate(1831.3 871.7) scale(.1 -.1)">
<use xlink:href="#d"/>
<use x="63.623047" xlink:href="#e"/>
<use x="95.410156" xlink:href="#d"/>
<use x="159.033203" xlink:href="#n"/>
</g>
</g>
<g clip-path="url(#a)">
<g transform="translate(1878.5 871.7) scale(.1 -.1)">
<use xlink:href="#d"/>
<use x="63.623047" xlink:href="#e"/>
<use x="95.410156" xlink:href="#d"/>
<use x="159.033203" xlink:href="#w"/>
</g>
</g>
<g clip-path="url(#a)">
<g transform="translate(1925.6 871.7) scale(.1 -.1)">
<use xlink:href="#d"/>
<use x="63.623047" xlink:href="#e"/>
<use x="95.410156" xlink:href="#d"/>
<use x="159.033203" xlink:href="#ab"/>
</g>
</g>
<g clip-path="url(#a)">
<g transform="translate(1972.8 871.7) scale(.1 -.1)">
<use xlink:href="#d"/>
<use x="63.623047" xlink:href="#e"/>
<use x="95.410156" xlink:href="#d"/>
<use x="159.033203" xlink:href="#aa"/>
</g>
</g>
<g clip-path="url(#a)">
<g transform="translate(1265.2 871.7) scale(.1 -.1)">
<use xlink:href="#d"/>
<use x="63.623047" xlink:href="#e"/>
<use x="95.410156" xlink:href="#d"/>
<use x="159.033203" xlink:href="#z"/>
</g>
</g>
<g clip-path="url(#a)">
<defs>
<path id="ah" d="m31.781 66.406q-7.6094 0-11.453-7.5-3.8281-7.4844-3.8281-22.531 0-14.984 3.8281-22.484 3.8438-7.5 11.453-7.5 7.6719 0 11.5 7.5 3.8438 7.5 3.8438 22.484 0 15.047-3.8438 22.531-3.8281 7.5-11.5 7.5zm0 7.8125q12.266 0 18.734-9.7031 6.4688-9.6875 6.4688-28.141 0-18.406-6.4688-28.109-6.4688-9.6875-18.734-9.6875-12.25 0-18.719 9.6875-6.4688 9.7031-6.4688 28.109 0 18.453 6.4688 28.141 6.4688 9.7031 18.719 9.7031z"/>
</defs>
<g transform="translate(1312.3 871.7) scale(.1 -.1)">
<use xlink:href="#d"/>
<use x="63.623047" xlink:href="#e"/>
<use x="95.410156" xlink:href="#q"/>
<use x="159.033203" xlink:href="#ah"/>
</g>
</g>
<g clip-path="url(#a)">
<g transform="translate(1359.5 871.7) scale(.1 -.1)">
<use xlink:href="#d"/>
<use x="63.623047" xlink:href="#e"/>
<use x="95.410156" xlink:href="#q"/>
<use x="159.033203" xlink:href="#d"/>
</g>
</g>
<g clip-path="url(#a)">
<g transform="translate(1406.7 871.7) scale(.1 -.1)">
<use xlink:href="#d"/>
<use x="63.623047" xlink:href="#e"/>
<use x="95.410156" xlink:href="#q"/>
<use x="159.033203" xlink:href="#q"/>
</g>
</g>
<g clip-path="url(#a)">
<g transform="translate(1524.6 871.7) scale(.1 -.1)">
<use xlink:href="#d"/>
<use x="63.623047" xlink:href="#e"/>
<use x="95.410156" xlink:href="#q"/>
<use x="159.033203" xlink:href="#p"/>
</g>
</g>
<g clip-path="url(#a)">
<g transform="translate(1666.2 672.66) scale(.1 -.1)">
<use xlink:href="#d"/>
<use x="63.623047" xlink:href="#e"/>
<use x="95.410156" xlink:href="#q"/>
<use x="159.033203" xlink:href="#o"/>
</g>
</g>
<g clip-path="url(#a)">
<g transform="translate(1642.6 871.7) scale(.1 -.1)">
<use xlink:href="#d"/>
<use x="63.623047" xlink:href="#e"/>
<use x="95.410156" xlink:href="#q"/>
<use x="159.033203" xlink:href="#ab"/>
</g>
</g>
<g clip-path="url(#a)">
<g transform="translate(1689.8 871.7) scale(.1 -.1)">
<use xlink:href="#d"/>
<use x="63.623047" xlink:href="#e"/>
<use x="95.410156" xlink:href="#q"/>
<use x="159.033203" xlink:href="#aa"/>
</g>
</g>
<g clip-path="url(#a)">
<g transform="translate(958.51 470.85) scale(.1 -.1)">
<use xlink:href="#d"/>
<use x="63.623047" xlink:href="#e"/>
<use x="95.410156" xlink:href="#q"/>
<use x="159.033203" xlink:href="#z"/>
</g>
</g>
<g clip-path="url(#a)">
<g transform="translate(1029.3 871.7) scale(.1 -.1)">
<use xlink:href="#d"/>
<use x="63.623047" xlink:href="#e"/>
<use x="95.410156" xlink:href="#p"/>
<use x="159.033203" xlink:href="#ah"/>
</g>
</g>
<g clip-path="url(#a)">
<g transform="translate(1076.5 871.7) scale(.1 -.1)">
<use xlink:href="#d"/>
<use x="63.623047" xlink:href="#e"/>
<use x="95.410156" xlink:href="#p"/>
<use x="159.033203" xlink:href="#d"/>
</g>
</g>
<g clip-path="url(#a)">
<g transform="translate(1123.6 871.7) scale(.1 -.1)">
<use xlink:href="#d"/>
<use x="63.623047" xlink:href="#e"/>
<use x="95.410156" xlink:href="#p"/>
<use x="159.033203" xlink:href="#q"/>
</g>
</g>
<g clip-path="url(#a)">
<g transform="translate(934.92 871.7) scale(.1 -.1)">
<use xlink:href="#d"/>
<use x="63.623047" xlink:href="#e"/>
<use x="95.410156" xlink:href="#p"/>
<use x="159.033203" xlink:href="#p"/>
</g>
</g>
<g clip-path="url(#a)">
<g transform="translate(982.1 672.66) scale(.1 -.1)">
<use xlink:href="#d"/>
<use x="63.623047" xlink:href="#e"/>
<use x="95.410156" xlink:href="#p"/>
<use x="159.033203" xlink:href="#o"/>
</g>
</g>
<g clip-path="url(#a)">
<g transform="translate(982.1 871.7) scale(.1 -.1)">
<use xlink:href="#d"/>
<use x="63.623047" xlink:href="#e"/>
<use x="95.410156" xlink:href="#p"/>
<use x="159.033203" xlink:href="#n"/>
</g>
</g>
<g clip-path="url(#a)">
<g transform="translate(651.86 871.7) scale(.1 -.1)">
<use xlink:href="#d"/>
<use x="63.623047" xlink:href="#e"/>
<use x="95.410156" xlink:href="#p"/>
<use x="159.033203" xlink:href="#w"/>
</g>
</g>
<g clip-path="url(#a)">
<g transform="translate(699.04 871.7) scale(.1 -.1)">
<use xlink:href="#d"/>
<use x="63.623047" xlink:href="#e"/>
<use x="95.410156" xlink:href="#p"/>
<use x="159.033203" xlink:href="#ab"/>
</g>
</g>
<g clip-path="url(#a)">
<g transform="translate(746.21 871.7) scale(.1 -.1)">
<use xlink:href="#d"/>
<use x="63.623047" xlink:href="#e"/>
<use x="95.410156" xlink:href="#p"/>
<use x="159.033203" xlink:href="#aa"/>
</g>
</g>
<g clip-path="url(#a)">
<g transform="translate(816.98 672.66) scale(.1 -.1)">
<use xlink:href="#d"/>
<use x="63.623047" xlink:href="#e"/>
<use x="95.410156" xlink:href="#p"/>
<use x="159.033203" xlink:href="#z"/>
</g>
</g>
<g clip-path="url(#a)">
<g transform="translate(793.39 871.7) scale(.1 -.1)">
<use xlink:href="#d"/>
<use x="63.623047" xlink:href="#e"/>
<use x="95.410156" xlink:href="#o"/>
<use x="159.033203" xlink:href="#ah"/>
</g>
</g>
<g clip-path="url(#a)">
<g transform="translate(840.57 871.7) scale(.1 -.1)">
<use xlink:href="#d"/>
<use x="63.623047" xlink:href="#e"/>
<use x="95.410156" xlink:href="#o"/>
<use x="159.033203" xlink:href="#d"/>
</g>
</g>
<g clip-path="url(#a)">
<g transform="translate(85.733 871.7) scale(.1 -.1)">
<use xlink:href="#d"/>
<use x="63.623047" xlink:href="#e"/>
<use x="95.410156" xlink:href="#o"/>
<use x="159.033203" xlink:href="#q"/>
</g>
</g>
<g clip-path="url(#a)">
<g transform="translate(132.91 871.7) scale(.1 -.1)">
<use xlink:href="#d"/>
<use x="63.623047" xlink:href="#e"/>
<use x="95.410156" xlink:href="#o"/>
<use x="159.033203" xlink:href="#p"/>
</g>
</g>
<g clip-path="url(#a)">
<g transform="translate(180.09 871.7) scale(.1 -.1)">
<use xlink:href="#d"/>
<use x="63.623047" xlink:href="#e"/>
<use x="95.410156" xlink:href="#o"/>
<use x="159.033203" xlink:href="#o"/>
</g>
</g>
<g clip-path="url(#a)">
<g transform="translate(227.26 871.7) scale(.1 -.1)">
<use xlink:href="#d"/>
<use x="63.623047" xlink:href="#e"/>
<use x="95.410156" xlink:href="#o"/>
<use x="159.033203" xlink:href="#n"/>
</g>
</g>
<g clip-path="url(#a)">
<g transform="translate(309.82 470.85) scale(.1 -.1)">
<use xlink:href="#d"/>
<use x="63.623047" xlink:href="#e"/>
<use x="95.410156" xlink:href="#o"/>
<use x="159.033203" xlink:href="#w"/>
</g>
</g>
<g clip-path="url(#a)">
<g transform="translate(368.8 871.7) scale(.1 -.1)">
<use xlink:href="#d"/>
<use x="63.623047" xlink:href="#e"/>
<use x="95.410156" xlink:href="#o"/>
<use x="159.033203" xlink:href="#ab"/>
</g>
</g>
<g clip-path="url(#a)">
<g transform="translate(463.15 672.66) scale(.1 -.1)">
<use xlink:href="#d"/>
<use x="63.623047" xlink:href="#e"/>
<use x="95.410156" xlink:href="#o"/>
<use x="159.033203" xlink:href="#aa"/>
</g>
</g>
<g clip-path="url(#a)">
<g transform="translate(415.97 871.7) scale(.1 -.1)">
<use xlink:href="#d"/>
<use x="63.623047" xlink:href="#e"/>
<use x="95.410156" xlink:href="#o"/>
<use x="159.033203" xlink:href="#z"/>
</g>
</g>
<g clip-path="url(#a)">
<g transform="translate(463.15 871.7) scale(.1 -.1)">
<use xlink:href="#d"/>
<use x="63.623047" xlink:href="#e"/>
<use x="95.410156" xlink:href="#n"/>
<use x="159.033203" xlink:href="#ah"/>
</g>
</g>
<g clip-path="url(#a)">
<g transform="translate(510.33 871.7) scale(.1 -.1)">
<use xlink:href="#d"/>
<use x="63.623047" xlink:href="#e"/>
<use x="95.410156" xlink:href="#n"/>
<use x="159.033203" xlink:href="#d"/>
</g>
</g>
<g clip-path="url(#a)">
<g transform="translate(298.03 672.66) scale(.1 -.1)">
<use xlink:href="#d"/>
<use x="63.623047" xlink:href="#e"/>
<use x="95.410156" xlink:href="#n"/>
<use x="159.033203" xlink:href="#q"/>
</g>
</g>
<g clip-path="url(#a)">
<g transform="translate(321.62 871.7) scale(.1 -.1)">
<use xlink:href="#d"/>
<use x="63.623047" xlink:href="#e"/>
<use x="95.410156" xlink:href="#n"/>
<use x="159.033203" xlink:href="#p"/>
</g>
</g>
<g clip-path="url(#a)">
<g transform="translate(274.44 871.7) scale(.1 -.1)">
<use xlink:href="#d"/>
<use x="63.623047" xlink:href="#e"/>
<use x="95.410156" xlink:href="#n"/>
<use x="159.033203" xlink:href="#o"/>
</g>
</g>
<g clip-path="url(#a)">
<g transform="translate(557.51 871.7) scale(.1 -.1)">
<use xlink:href="#d"/>
<use x="63.623047" xlink:href="#e"/>
<use x="95.410156" xlink:href="#n"/>
<use x="159.033203" xlink:href="#n"/>
</g>
</g>
<g clip-path="url(#a)">
<g transform="translate(887.75 871.7) scale(.1 -.1)">
<use xlink:href="#d"/>
<use x="63.623047" xlink:href="#e"/>
<use x="95.410156" xlink:href="#n"/>
<use x="159.033203" xlink:href="#w"/>
</g>
</g>
<g clip-path="url(#a)">
<g transform="translate(1170.8 871.7) scale(.1 -.1)">
<use xlink:href="#d"/>
<use x="63.623047" xlink:href="#e"/>
<use x="95.410156" xlink:href="#n"/>
<use x="159.033203" xlink:href="#ab"/>
</g>
</g>
<g clip-path="url(#a)">
<g transform="translate(1453.9 871.7) scale(.1 -.1)">
<use xlink:href="#d"/>
<use x="63.623047" xlink:href="#e"/>
<use x="95.410156" xlink:href="#n"/>
<use x="159.033203" xlink:href="#aa"/>
</g>
</g>
<g clip-path="url(#a)">
<g transform="translate(1595.4 871.7) scale(.1 -.1)">
<use xlink:href="#d"/>
<use x="63.623047" xlink:href="#e"/>
<use x="95.410156" xlink:href="#n"/>
<use x="159.033203" xlink:href="#z"/>
</g>
</g>
<g clip-path="url(#a)">
<g transform="translate(1736.9 871.7) scale(.1 -.1)">
<use xlink:href="#d"/>
<use x="63.623047" xlink:href="#e"/>
<use x="95.410156" xlink:href="#w"/>
<use x="159.033203" xlink:href="#ah"/>
</g>
</g>
<g clip-path="url(#a)">
<g transform="translate(2020 871.7) scale(.1 -.1)">
<use xlink:href="#d"/>
<use x="63.623047" xlink:href="#e"/>
<use x="95.410156" xlink:href="#w"/>
<use x="159.033203" xlink:href="#d"/>
</g>
</g>
<defs>
<clipPath id="a">
<rect width="2128" height="1120"/>
</clipPath>
</defs>
</svg>
