<?xml version="1.0" encoding="UTF-8"?>
<!DOCTYPE svg  PUBLIC '-//W3C//DTD SVG 1.1//EN'  'http://www.w3.org/Graphics/SVG/1.1/DTD/svg11.dtd'>
<svg width="1874.7pt" height="986.67pt" version="1.1" viewBox="0 0 1874.7 986.67" xmlns="http://www.w3.org/2000/svg" xmlns:xlink="http://www.w3.org/1999/xlink">
<defs>
<style type="text/css">*{stroke-linecap:butt;stroke-linejoin:round;}</style>
</defs>
<path d="m0 986.67h1874.7v-986.67h-1874.7z" fill="#fff"/>
<g fill="none" stroke="#000">
<path d="m646.35 45.956-560.98 719.46" clip-path="url(#a)"/>
<path d="m646.35 45.956-450.54 366.44" clip-path="url(#a)"/>
<path d="m646.35 45.956-276.99 719.46" clip-path="url(#a)"/>
<path d="m646.35 45.956 92.983 185.28" clip-path="url(#a)"/>
<path d="m646.35 45.956 762.55 366.44" clip-path="url(#a)"/>
<path d="m646.35 45.956 432.98 719.46" clip-path="url(#a)"/>
<path d="m85.37 765.42v175.29" clip-path="url(#a)"/>
<path d="m195.81 412.39-63.108 353.02" clip-path="url(#a)"/>
<path d="m195.81 412.39-15.777 353.02" clip-path="url(#a)"/>
<path d="m195.81 412.39 78.886 177.73" clip-path="url(#a)"/>
<path d="m369.36 765.42v175.29" clip-path="url(#a)"/>
<path d="m739.33 231.24-251.64 181.15" clip-path="url(#a)"/>
<path d="m739.33 231.24-85.985 358.89" clip-path="url(#a)"/>
<path d="m739.33 231.24 8.6774 534.18" clip-path="url(#a)"/>
<path d="m739.33 231.24 91.507 181.15" clip-path="url(#a)"/>
<path d="m739.33 231.24 237.45 181.15" clip-path="url(#a)"/>
<path d="m1408.9 412.39-282.23 353.02" clip-path="url(#a)"/>
<path d="m1408.9 412.39-234.9 353.02" clip-path="url(#a)"/>
<path d="m1408.9 412.39-187.57 353.02" clip-path="url(#a)"/>
<path d="m1408.9 412.39-140.24 353.02" clip-path="url(#a)"/>
<path d="m1408.9 412.39-45.578 177.73" clip-path="url(#a)"/>
<path d="m1408.9 412.39 96.416 177.73" clip-path="url(#a)"/>
<path d="m1408.9 412.39 191.08 353.02" clip-path="url(#a)"/>
<path d="m1408.9 412.39 317.3 177.73" clip-path="url(#a)"/>
<path d="m1408.9 412.39 285.74 353.02" clip-path="url(#a)"/>
<path d="m1126.7 765.42v175.29" clip-path="url(#a)"/>
<path d="m1174 765.42v175.29" clip-path="url(#a)"/>
<path d="m1221.3 765.42v175.29" clip-path="url(#a)"/>
<path d="m1268.7 765.42v175.29" clip-path="url(#a)"/>
<path d="m1363.3 590.12-47.331 175.29" clip-path="url(#a)"/>
<path d="m1363.3 590.12v175.29" clip-path="url(#a)"/>
<path d="m1363.3 590.12 47.331 175.29" clip-path="url(#a)"/>
<path d="m1505.3 590.12-47.331 175.29" clip-path="url(#a)"/>
<path d="m1505.3 590.12v175.29" clip-path="url(#a)"/>
<path d="m1505.3 590.12 47.331 175.29" clip-path="url(#a)"/>
<path d="m1600 765.42v175.29" clip-path="url(#a)"/>
<path d="m1726.2 590.12-78.886 175.29" clip-path="url(#a)"/>
<path d="m1726.2 590.12 15.777 175.29" clip-path="url(#a)"/>
<path d="m1726.2 590.12 63.108 175.29" clip-path="url(#a)"/>
<path d="m1694.6 765.42v175.29" clip-path="url(#a)"/>
<path d="m1647.3 765.42v175.29" clip-path="url(#a)"/>
<path d="m1742 765.42v175.29" clip-path="url(#a)"/>
<path d="m1458 765.42v175.29" clip-path="url(#a)"/>
<path d="m1505.3 765.42v175.29" clip-path="url(#a)"/>
<path d="m1552.6 765.42v175.29" clip-path="url(#a)"/>
<path d="m1316 765.42v175.29" clip-path="url(#a)"/>
<path d="m1363.3 765.42v175.29" clip-path="url(#a)"/>
<path d="m1410.6 765.42v175.29" clip-path="url(#a)"/>
<path d="m487.69 412.39v177.73" clip-path="url(#a)"/>
<path d="m487.69 412.39-23.666 353.02" clip-path="url(#a)"/>
<path d="m487.69 412.39 23.666 353.02" clip-path="url(#a)"/>
<path d="m653.35 590.12-47.331 175.29" clip-path="url(#a)"/>
<path d="m653.35 590.12v175.29" clip-path="url(#a)"/>
<path d="m653.35 590.12 47.331 175.29" clip-path="url(#a)"/>
<path d="m748.01 765.42v175.29" clip-path="url(#a)"/>
<path d="m830.84 412.39-11.833 177.73" clip-path="url(#a)"/>
<path d="m830.84 412.39 11.833 353.02" clip-path="url(#a)"/>
<path d="m976.78 412.39-63.108 177.73" clip-path="url(#a)"/>
<path d="m976.78 412.39 7.8886 353.02" clip-path="url(#a)"/>
<path d="m976.78 412.39 55.22 353.02" clip-path="url(#a)"/>
<path d="m913.67 590.12-23.666 175.29" clip-path="url(#a)"/>
<path d="m913.67 590.12 23.666 175.29" clip-path="url(#a)"/>
<path d="m984.66 765.42v175.29" clip-path="url(#a)"/>
<path d="m1032 765.42v175.29" clip-path="url(#a)"/>
<path d="m890 765.42v175.29" clip-path="url(#a)"/>
<path d="m937.33 765.42v175.29" clip-path="url(#a)"/>
<path d="m819.01 590.12 23.666 175.29" clip-path="url(#a)" stroke-dasharray="3.7,1.6"/>
<path d="m819.01 590.12-23.666 175.29" clip-path="url(#a)"/>
<path d="m842.67 765.42v175.29" clip-path="url(#a)"/>
<path d="m795.34 765.42v175.29" clip-path="url(#a)"/>
<path d="m606.01 765.42v175.29" clip-path="url(#a)"/>
<path d="m653.35 765.42v175.29" clip-path="url(#a)"/>
<path d="m700.68 765.42v175.29" clip-path="url(#a)"/>
<path d="m487.69 590.12-70.997 175.29" clip-path="url(#a)"/>
<path d="m487.69 590.12 70.997 175.29" clip-path="url(#a)"/>
<path d="m464.02 765.42v175.29" clip-path="url(#a)"/>
<path d="m511.35 765.42v175.29" clip-path="url(#a)"/>
<path d="m416.69 765.42v175.29" clip-path="url(#a)"/>
<path d="m558.68 765.42v175.29" clip-path="url(#a)"/>
<path d="m132.7 765.42v175.29" clip-path="url(#a)"/>
<path d="m180.03 765.42v175.29" clip-path="url(#a)"/>
<path d="m274.69 590.12-47.331 175.29" clip-path="url(#a)"/>
<path d="m274.69 590.12v175.29" clip-path="url(#a)"/>
<path d="m274.69 590.12 47.331 175.29" clip-path="url(#a)"/>
<path d="m227.36 765.42v175.29" clip-path="url(#a)"/>
<path d="m274.69 765.42v175.29" clip-path="url(#a)"/>
<path d="m322.03 765.42v175.29" clip-path="url(#a)"/>
<path d="m1079.3 765.42v175.29" clip-path="url(#a)"/>
<path d="m1789.3 765.42v175.29" clip-path="url(#a)"/>
</g>
<path d="m369.43 411.3 2.7409-3.5152q1.4757-1.8927-0.41692-3.3684l-6.1058-4.7608q-1.8927-1.4757-3.3684 0.41692l-2.7409 3.5152q-1.4757 1.8927 0.41692 3.3684l6.1058 4.7608q1.8927 1.4757 3.3684-0.41692z" clip-path="url(#a)" fill="#fff" stroke="#fff"/>
<g clip-path="url(#a)">
<defs>
<path id="aq" d="m9.8125 72.906h9.8594v-64.609h35.5v-8.2969h-45.359z"/>
</defs>
<g transform="translate(366.23 408.8) rotate(-52.056) scale(.08 -.08)">
<use xlink:href="#aq"/>
</g>
</g>
<path d="m422.7 235.94 4.6674-3.7961q1.8619-1.5144 0.34757-3.3763l-4.8854-6.0066q-1.5144-1.8619-3.3763-0.34757l-4.6674 3.7961q-1.8619 1.5144-0.34757 3.3763l4.8854 6.0066q1.5144 1.8619 3.3763 0.34757z" clip-path="url(#a)" fill="#fff" stroke="#fff"/>
<g clip-path="url(#a)">
<defs>
<path id="ai" d="m9.8125 72.906h9.8594v-29.891h35.844v29.891h9.8594v-72.906h-9.8594v34.719h-35.844v-34.719h-9.8594z"/>
</defs>
<g transform="translate(420.14 232.78) rotate(-39.122) scale(.08 -.08)">
<use xlink:href="#ai"/>
</g>
</g>
<path d="m512.9 410.02 1.6015-4.1599q0.8623-2.2397-1.3774-3.102l-7.2255-2.7818q-2.2397-0.8623-3.102 1.3774l-1.6015 4.1599q-0.8623 2.2397 1.3774 3.102l7.2255 2.7818q2.2397 0.8623 3.102-1.3774z" clip-path="url(#a)" fill="#fff" stroke="#fff"/>
<g clip-path="url(#a)">
<g transform="translate(509.11 408.56) rotate(-68.943) scale(.08 -.08)">
<use xlink:href="#aq"/>
</g>
</g>
<path d="m685.89 138.72 2.6985 5.3771q1.0765 2.145 3.2215 1.0686l6.92-3.4728q2.145-1.0765 1.0686-3.2215l-2.6985-5.3771q-1.0765-2.145-3.2215-1.0686l-6.92 3.4728q-2.145 1.0765-1.0686 3.2215z" clip-path="url(#a)" fill="#fff" stroke="#fff"/>
<g clip-path="url(#a)">
<g transform="translate(689.52 136.9) rotate(63.35) scale(.08 -.08)">
<use xlink:href="#ai"/>
</g>
</g>
<path d="m1022.2 233.52 5.4226 2.6058q2.1632 1.0395 3.2027-1.1237l3.3535-6.9786q1.0395-2.1632-1.1237-3.2027l-5.4226-2.6058q-2.1632-1.0395-3.2027 1.1237l-3.3535 6.9786q-1.0395 2.1632 1.1237 3.2027z" clip-path="url(#a)" fill="#fff" stroke="#fff"/>
<g clip-path="url(#a)">
<g transform="translate(1024 229.86) rotate(25.666) scale(.08 -.08)">
<use xlink:href="#ai"/>
</g>
</g>
<path d="m855.95 406.41 3.019 5.0166q1.2375 2.0563 3.2939 0.81881l6.6338-3.9923q2.0563-1.2375 0.81881-3.2939l-3.019-5.0166q-1.2375-2.0563-3.2939-0.81881l-6.6338 3.9923q-2.0563 1.2375-0.81881 3.2939z" clip-path="url(#a)" fill="#fff" stroke="#fff"/>
<g clip-path="url(#a)">
<defs>
<path id="an" d="m8.6875 72.906h9.9219v-44.297q0-11.719 4.2344-16.875 4.25-5.1406 13.781-5.1406 9.4688 0 13.719 5.1406 4.25 5.1562 4.25 16.875v44.297h9.9062v-45.516q0-14.25-7.0625-21.531-7.0469-7.2812-20.812-7.2812-13.828 0-20.891 7.2812-7.0469 7.2812-7.0469 21.531z"/>
</defs>
<g transform="translate(859.44 404.32) rotate(58.96) scale(.08 -.08)">
<use xlink:href="#an"/>
</g>
</g>
<path d="m79.098 835.42v35.285q0 2.4 2.4 2.4h7.7425q2.4 0 2.4-2.4v-35.285q0-2.4-2.4-2.4h-7.7425q-2.4 0-2.4 2.4z" clip-path="url(#a)" fill="#fff" stroke="#fff"/>
<g clip-path="url(#a)">
<defs>
<path id="l" d="m-0.29688 72.906h61.672v-8.3125h-25.875v-64.594h-9.9062v64.594h-25.891z"/>
<path id="d" d="m56.203 29.594v-4.3906h-41.312q0.59375-9.2812 5.5938-14.141t13.938-4.8594q5.1719 0 10.031 1.2656t9.6562 3.8125v-8.5q-4.8438-2.0469-9.9219-3.125t-10.297-1.0781q-13.094 0-20.734 7.6094-7.6406 7.625-7.6406 20.625 0 13.422 7.25 21.297 7.25 7.8906 19.562 7.8906 11.031 0 17.453-7.1094 6.4219-7.0938 6.4219-19.297zm-8.9844 2.6406q-0.09375 7.3594-4.125 11.75-4.0312 4.4062-10.672 4.4062-7.5156 0-12.031-4.25t-5.2031-11.969z"/>
<path id="i" d="m41.109 46.297q-1.5156 0.875-3.2969 1.2812-1.7812 0.42188-3.9219 0.42188-7.625 0-11.703-4.9531t-4.0781-14.234v-28.812h-9.0312v54.688h9.0312v-8.5q2.8438 4.9844 7.375 7.3906 4.5469 2.4219 11.047 2.4219 0.92188 0 2.0469-0.125 1.125-0.10938 2.4844-0.35938z"/>
<path id="k" d="m52 44.188q3.375 6.0625 8.0625 8.9375t11.031 2.875q8.5469 0 13.188-5.9844 4.6406-5.9688 4.6406-17v-33.016h-9.0312v32.719q0 7.8594-2.7969 11.656-2.7812 3.8125-8.4844 3.8125-6.9844 0-11.047-4.6406-4.0469-4.625-4.0469-12.641v-30.906h-9.0312v32.719q0 7.9062-2.7812 11.688t-8.5938 3.7812q-6.8906 0-10.953-4.6562-4.0469-4.6562-4.0469-12.625v-30.906h-9.0312v54.688h9.0312v-8.5q3.0781 5.0312 7.375 7.4219t10.203 2.3906q5.9688 0 10.141-3.0312 4.1719-3.0156 6.1719-8.7812z"/>
<path id="g" d="m9.4219 54.688h8.9844v-54.688h-8.9844zm0 21.297h8.9844v-11.391h-8.9844z"/>
<path id="j" d="m54.891 33.016v-33.016h-8.9844v32.719q0 7.7656-3.0312 11.609-3.0312 3.8594-9.0781 3.8594-7.2812 0-11.484-4.6406-4.2031-4.625-4.2031-12.641v-30.906h-9.0312v54.688h9.0312v-8.5q3.2344 4.9375 7.5938 7.375 4.375 2.4375 10.094 2.4375 9.4219 0 14.25-5.8281 4.8438-5.8281 4.8438-17.156z"/>
<path id="f" d="m34.281 27.484q-10.891 0-15.094-2.4844t-4.2031-8.5q0-4.7812 3.1562-7.5938 3.1562-2.7969 8.5625-2.7969 7.4844 0 12 5.2969t4.5156 14.078v2zm17.922 3.7188v-31.203h-8.9844v8.2969q-3.0781-4.9688-7.6719-7.3438t-11.234-2.375q-8.3906 0-13.359 4.7188-4.9531 4.7188-4.9531 12.625 0 9.2188 6.1719 13.906 6.1875 4.6875 18.438 4.6875h12.609v0.89062q0 6.2031-4.0781 9.5938t-11.453 3.3906q-4.6875 0-9.1406-1.125-4.4375-1.125-8.5312-3.375v8.3125q4.9219 1.9062 9.5625 2.8438 4.6406 0.95312 9.0312 0.95312 11.875 0 17.734-6.1562 5.8594-6.1406 5.8594-18.641z"/>
<path id="h" d="m9.4219 75.984h8.9844v-75.984h-8.9844z"/>
</defs>
<g transform="translate(83.162 835.42) rotate(90) scale(.08 -.08)">
<use xlink:href="#l"/>
<use x="60.818359" xlink:href="#d"/>
<use x="122.341797" xlink:href="#i"/>
<use x="163.439453" xlink:href="#k"/>
<use x="260.851562" xlink:href="#g"/>
<use x="288.634766" xlink:href="#j"/>
<use x="352.013672" xlink:href="#f"/>
<use x="413.292969" xlink:href="#h"/>
</g>
</g>
<path d="m169.95 592.7 0.96302-5.3871q0.42234-2.3625-1.9402-2.7849l-7.6217-1.3625q-2.3625-0.42234-2.7849 1.9402l-0.96302 5.3871q-0.42234 2.3625 1.9402 2.7849l7.6217 1.3625q2.3625 0.42234 2.7849-1.9402z" clip-path="url(#a)" fill="#fff" stroke="#fff"/>
<g clip-path="url(#a)">
<defs>
<path id="u" d="m34.188 63.188-13.391-36.281h26.812zm-5.5781 9.7188h11.188l27.781-72.906h-10.25l-6.6406 18.703h-32.859l-6.6406-18.703h-10.406z"/>
</defs>
<g transform="translate(165.95 591.99) rotate(-79.865) scale(.08 -.08)">
<use xlink:href="#u"/>
</g>
</g>
<path d="m194.08 591.59 0.21536-4.8189q0.10715-2.3976-2.2905-2.5048l-7.7348-0.34568q-2.3976-0.10715-2.5048 2.2905l-0.21536 4.8189q-0.10715 2.3976 2.2905 2.5048l7.7348 0.34568q2.3976 0.10715 2.5048-2.2905z" clip-path="url(#a)" fill="#fff" stroke="#fff"/>
<g clip-path="url(#a)">
<defs>
<path id="ah" d="m19.672 64.797v-27.391h12.406q6.8906 0 10.641 3.5625 3.7656 3.5625 3.7656 10.156 0 6.5469-3.7656 10.109-3.75 3.5625-10.641 3.5625zm-9.8594 8.1094h22.266q12.266 0 18.531-5.5469 6.2812-5.5469 6.2812-16.234 0-10.797-6.2812-16.312-6.2656-5.5156-18.531-5.5156h-12.406v-29.297h-9.8594z"/>
</defs>
<g transform="translate(190.02 591.41) rotate(-87.441) scale(.08 -.08)">
<use xlink:href="#ah"/>
</g>
</g>
<path d="m228.41 501.3 2.2201 5.0019q0.97364 2.1936 3.1673 1.22l7.0768-3.141q2.1936-0.97364 1.22-3.1673l-2.2201-5.0019q-0.97364-2.1936-3.1673-1.22l-7.0768 3.141q-2.1936 0.97364-1.22 3.1673z" clip-path="url(#a)" fill="#fff" stroke="#fff"/>
<g clip-path="url(#a)">
<g transform="translate(232.12 499.65) rotate(66.066) scale(.08 -.08)">
<use xlink:href="#u"/>
</g>
</g>
<path d="m363.09 835.42v35.285q0 2.4 2.4 2.4h7.7425q2.4 0 2.4-2.4v-35.285q0-2.4-2.4-2.4h-7.7425q-2.4 0-2.4 2.4z" clip-path="url(#a)" fill="#fff" stroke="#fff"/>
<g clip-path="url(#a)">
<g transform="translate(367.15 835.42) rotate(90) scale(.08 -.08)">
<use xlink:href="#l"/>
<use x="60.818359" xlink:href="#d"/>
<use x="122.341797" xlink:href="#i"/>
<use x="163.439453" xlink:href="#k"/>
<use x="260.851562" xlink:href="#g"/>
<use x="288.634766" xlink:href="#j"/>
<use x="352.013672" xlink:href="#f"/>
<use x="413.292969" xlink:href="#h"/>
</g>
</g>
<path d="m614.95 328.5 4.4414-3.1973q1.9478-1.4022 0.54562-3.35l-4.5235-6.2837q-1.4022-1.9478-3.35-0.54562l-4.4414 3.1973q-1.9478 1.4022-0.54562 3.35l4.5235 6.2837q1.4022 1.9478 3.35 0.54562z" clip-path="url(#a)" fill="#fff" stroke="#fff"/>
<g clip-path="url(#a)">
<g transform="translate(612.58 325.21) rotate(-35.749) scale(.08 -.08)">
<use xlink:href="#u"/>
</g>
</g>
<path d="m701.8 414.8 1.2751-5.3219q0.55919-2.3339-1.7748-2.8931l-7.5294-1.804q-2.3339-0.55919-2.8931 1.7748l-1.2751 5.3219q-0.55919 2.3339 1.7748 2.8931l7.5294 1.804q2.3339 0.55919 2.8931-1.7748z" clip-path="url(#a)" fill="#fff" stroke="#fff"/>
<g clip-path="url(#a)">
<g transform="translate(697.85 413.86) rotate(-76.527) scale(.08 -.08)">
<use xlink:href="#u"/>
</g>
</g>
<path d="m737.36 495.89 0.08249 5.0781q0.038982 2.3997 2.4387 2.3607l7.7415-0.12576q2.3997-0.038981 2.3607-2.4387l-0.08249-5.0781q-0.038982-2.3997-2.4387-2.3607l-7.7415 0.12576q-2.3997 0.038981-2.3607 2.4387z" clip-path="url(#a)" fill="#fff" stroke="#fff"/>
<g clip-path="url(#a)">
<defs>
<path id="ao" d="m53.516 70.516v-9.625q-5.6094 2.6875-10.594 4-4.9844 1.3281-9.625 1.3281-8.0469 0-12.422-3.125t-4.375-8.8906q0-4.8438 2.9062-7.3125 2.9062-2.4531 11.016-3.9688l5.9531-1.2188q11.031-2.1094 16.281-7.4062t5.25-14.172q0-10.609-7.1094-16.078-7.0938-5.4688-20.812-5.4688-5.1719 0-11.016 1.1719-5.8281 1.1719-12.078 3.4688v10.156q6-3.3594 11.766-5.0781 5.7656-1.7031 11.328-1.7031 8.4375 0 13.031 3.3125 4.5938 3.3281 4.5938 9.4844 0 5.3594-3.2969 8.3906t-10.812 4.5469l-6.0156 1.1719q-11.031 2.1875-15.969 6.875-4.9219 4.6875-4.9219 13.047 0 9.6719 6.8125 15.234t18.766 5.5625q5.1406 0 10.453-0.9375 5.3281-0.92188 10.891-2.7656z"/>
</defs>
<g transform="translate(741.42 495.82) rotate(89.069) scale(.08 -.08)">
<use xlink:href="#ao"/>
</g>
</g>
<path d="m778.25 322.2 2.4674 4.8847q1.0821 2.1422 3.2243 1.0601l6.9109-3.4909q2.1422-1.0821 1.0601-3.2243l-2.4674-4.8847q-1.0821-2.1422-3.2243-1.0601l-6.9109 3.4909q-2.1422 1.0821-1.0601 3.2243z" clip-path="url(#a)" fill="#fff" stroke="#fff"/>
<g clip-path="url(#a)">
<g transform="translate(781.88 320.37) rotate(63.2) scale(.08 -.08)">
<use xlink:href="#u"/>
</g>
</g>
<path d="m851.8 324.93 4.8974 3.7364q1.9081 1.4557 3.3638-0.45235l4.6963-6.1556q1.4557-1.9081-0.45235-3.3638l-4.8974-3.7364q-1.9081-1.4557-3.3638 0.45235l-4.6963 6.1556q-1.4557 1.9081 0.45235 3.3638z" clip-path="url(#a)" fill="#fff" stroke="#fff"/>
<g clip-path="url(#a)">
<defs>
<path id="ad" d="m19.672 64.797v-56.688h11.922q15.094 0 22.094 6.8281 7 6.8438 7 21.594 0 14.641-7 21.453t-22.094 6.8125zm-9.8594 8.1094h20.266q21.188 0 31.094-8.8125 9.9219-8.8125 9.9219-27.562 0-18.859-9.9688-27.703-9.9531-8.8281-31.047-8.8281h-20.266z"/>
</defs>
<g transform="translate(854.27 321.7) rotate(37.341) scale(.08 -.08)">
<use xlink:href="#ad"/>
</g>
</g>
<path d="m1271.2 594.62 2.8732-3.5939q1.4987-1.8746-0.3759-3.3732l-6.0474-4.8348q-1.8746-1.4987-3.3732 0.3759l-2.8732 3.5939q-1.4987 1.8746 0.3759 3.3732l6.0474 4.8348q1.8746 1.4987 3.3732-0.3759z" clip-path="url(#a)" fill="#fff" stroke="#fff"/>
<g clip-path="url(#a)">
<defs>
<path id="ac" d="m9.8125 72.906h41.891v-8.3125h-32.031v-21.484h28.906v-8.2969h-28.906v-34.812h-9.8594z"/>
</defs>
<g transform="translate(1268.1 592.08) rotate(-51.359) scale(.08 -.08)">
<use xlink:href="#ac"/>
</g>
</g>
<path d="m1294.9 594.96 3.4339-5.1607q1.3295-1.9981-0.66856-3.3276l-6.4459-4.2891q-1.9981-1.3295-3.3276 0.66856l-3.4339 5.1607q-1.3295 1.9981 0.66856 3.3276l6.4459 4.2891q1.9981 1.3295 3.3276-0.66856z" clip-path="url(#a)" fill="#fff" stroke="#fff"/>
<g clip-path="url(#a)">
<defs>
<path id="at" d="m59.516 10.406v19.578h-16.109v8.1094h25.875v-31.312q-5.7031-4.0469-12.594-6.125-6.875-2.0781-14.688-2.0781-17.094 0-26.75 9.9844-9.6406 10-9.6406 27.812 0 17.875 9.6406 27.859 9.6562 9.9844 26.75 9.9844 7.125 0 13.547-1.7656 6.4219-1.75 11.844-5.1719v-10.5q-5.4688 4.6406-11.625 6.9844t-12.938 2.3438q-13.391 0-20.109-7.4688-6.7031-7.4688-6.7031-22.266 0-14.75 6.7031-22.219 6.7188-7.4688 20.109-7.4688 5.2188 0 9.3125 0.90625 4.1094 0.90625 7.375 2.8125z"/>
</defs>
<g transform="translate(1291.6 592.71) rotate(-56.36) scale(.08 -.08)">
<use xlink:href="#at"/>
</g>
</g>
<path d="m1319.6 593.88 2.1589-4.0633q1.1261-2.1194-0.99331-3.2455l-6.8373-3.6329q-2.1194-1.1261-3.2455 0.99331l-2.159 4.0633q-1.1261 2.1194 0.99331 3.2455l6.8373 3.6329q2.1194 1.1261 3.2455-0.99331z" clip-path="url(#a)" fill="#fff" stroke="#fff"/>
<g clip-path="url(#a)">
<g transform="translate(1316 591.97) rotate(-62.017) scale(.08 -.08)">
<use xlink:href="#ac"/>
</g>
</g>
<path d="m1343.5 594.08 2.2742-5.7248q0.88606-2.2304-1.3444-3.1165l-7.1955-2.8585q-2.2304-0.88606-3.1165 1.3444l-2.2742 5.7248q-0.88606 2.2304 1.3444 3.1165l7.1955 2.8585q2.2304 0.88606 3.1165-1.3444z" clip-path="url(#a)" fill="#fff" stroke="#fff"/>
<g clip-path="url(#a)">
<g transform="translate(1339.7 592.58) rotate(-68.334) scale(.08 -.08)">
<use xlink:href="#ad"/>
</g>
</g>
<path d="m1391.5 505.47 1.3594-5.301q0.59618-2.3248-1.7286-2.921l-7.4998-1.9233q-2.3248-0.59618-2.9209 1.7286l-1.3594 5.301q-0.59618 2.3248 1.7286 2.9209l7.4998 1.9233q2.3248 0.59618 2.921-1.7286z" clip-path="url(#a)" fill="#fff" stroke="#fff"/>
<g clip-path="url(#a)">
<g transform="translate(1387.6 504.46) rotate(-75.617) scale(.08 -.08)">
<use xlink:href="#u"/>
</g>
</g>
<path d="m1450.1 501.54 2.9373 5.4146q1.1444 2.1096 3.254 0.96518l6.8056-3.6919q2.1096-1.1444 0.96518-3.254l-2.9373-5.4146q-1.1444-2.1096-3.254-0.96518l-6.8056 3.6919q-2.1096 1.1444-0.96518 3.254z" clip-path="url(#a)" fill="#fff" stroke="#fff"/>
<g clip-path="url(#a)">
<g transform="translate(1453.7 499.6) rotate(61.521) scale(.08 -.08)">
<use xlink:href="#ad"/>
</g>
</g>
<path d="m1497.8 589.87 2.1902 4.0465q1.1424 2.1107 3.2531 0.96824l6.8091-3.6855q2.1107-1.1424 0.96824-3.2531l-2.1902-4.0465q-1.1424-2.1107-3.2531-0.96824l-6.8091 3.6855q-2.1107 1.1424-0.96824 3.2531z" clip-path="url(#a)" fill="#fff" stroke="#fff"/>
<g clip-path="url(#a)">
<g transform="translate(1501.4 587.93) rotate(61.575) scale(.08 -.08)">
<use xlink:href="#ac"/>
</g>
</g>
<path d="m1562.4 505.55 4.2085 2.3574q2.0939 1.1729 3.2668-0.921l3.7838-6.755q1.1729-2.0939-0.921-3.2668l-4.2085-2.3574q-2.0939-1.1729-3.2668 0.921l-3.7838 6.755q-1.1729 2.0939 0.921 3.2668z" clip-path="url(#a)" fill="#fff" stroke="#fff"/>
<g clip-path="url(#a)">
<g transform="translate(1564.4 502.01) rotate(29.255) scale(.08 -.08)">
<use xlink:href="#ah"/>
</g>
</g>
<path d="m1545.2 590.72 3.443 4.2537q1.5099 1.8655 3.3754 0.35555l6.0182-4.8711q1.8655-1.5099 0.35555-3.3754l-3.443-4.2537q-1.5099-1.8655-3.3754-0.35555l-6.0182 4.8711q-1.8655 1.5099-0.35555 3.3754z" clip-path="url(#a)" fill="#fff" stroke="#fff"/>
<g clip-path="url(#a)">
<g transform="translate(1548.3 588.17) rotate(51.013) scale(.08 -.08)">
<use xlink:href="#u"/>
</g>
</g>
<path d="m1120.4 835.42v35.285q0 2.4 2.4 2.4h7.7425q2.4 0 2.4-2.4v-35.285q0-2.4-2.4-2.4h-7.7425q-2.4 0-2.4 2.4z" clip-path="url(#a)" fill="#fff" stroke="#fff"/>
<g clip-path="url(#a)">
<g transform="translate(1124.5 835.42) rotate(90) scale(.08 -.08)">
<use xlink:href="#l"/>
<use x="60.818359" xlink:href="#d"/>
<use x="122.341797" xlink:href="#i"/>
<use x="163.439453" xlink:href="#k"/>
<use x="260.851562" xlink:href="#g"/>
<use x="288.634766" xlink:href="#j"/>
<use x="352.013672" xlink:href="#f"/>
<use x="413.292969" xlink:href="#h"/>
</g>
</g>
<path d="m1167.7 835.42v35.285q0 2.4 2.4 2.4h7.7425q2.4 0 2.4-2.4v-35.285q0-2.4-2.4-2.4h-7.7425q-2.4 0-2.4 2.4z" clip-path="url(#a)" fill="#fff" stroke="#fff"/>
<g clip-path="url(#a)">
<g transform="translate(1171.8 835.42) rotate(90) scale(.08 -.08)">
<use xlink:href="#l"/>
<use x="60.818359" xlink:href="#d"/>
<use x="122.341797" xlink:href="#i"/>
<use x="163.439453" xlink:href="#k"/>
<use x="260.851562" xlink:href="#g"/>
<use x="288.634766" xlink:href="#j"/>
<use x="352.013672" xlink:href="#f"/>
<use x="413.292969" xlink:href="#h"/>
</g>
</g>
<path d="m1215.1 835.42v35.285q0 2.4 2.4 2.4h7.7425q2.4 0 2.4-2.4v-35.285q0-2.4-2.4-2.4h-7.7425q-2.4 0-2.4 2.4z" clip-path="url(#a)" fill="#fff" stroke="#fff"/>
<g clip-path="url(#a)">
<g transform="translate(1219.1 835.42) rotate(90) scale(.08 -.08)">
<use xlink:href="#l"/>
<use x="60.818359" xlink:href="#d"/>
<use x="122.341797" xlink:href="#i"/>
<use x="163.439453" xlink:href="#k"/>
<use x="260.851562" xlink:href="#g"/>
<use x="288.634766" xlink:href="#j"/>
<use x="352.013672" xlink:href="#f"/>
<use x="413.292969" xlink:href="#h"/>
</g>
</g>
<path d="m1262.4 835.42v35.285q0 2.4 2.4 2.4h7.7425q2.4 0 2.4-2.4v-35.285q0-2.4-2.4-2.4h-7.7425q-2.4 0-2.4 2.4z" clip-path="url(#a)" fill="#fff" stroke="#fff"/>
<g clip-path="url(#a)">
<g transform="translate(1266.4 835.42) rotate(90) scale(.08 -.08)">
<use xlink:href="#l"/>
<use x="60.818359" xlink:href="#d"/>
<use x="122.341797" xlink:href="#i"/>
<use x="163.439453" xlink:href="#k"/>
<use x="260.851562" xlink:href="#g"/>
<use x="288.634766" xlink:href="#j"/>
<use x="352.013672" xlink:href="#f"/>
<use x="413.292969" xlink:href="#h"/>
</g>
</g>
<path d="m1345 681.85 1.3177-4.8802q0.62562-2.317-1.6914-2.9426l-7.4748-2.0183q-2.317-0.62562-2.9426 1.6914l-1.3177 4.8802q-0.62562 2.317 1.6914 2.9426l7.4748 2.0183q2.317 0.62562 2.9426-1.6914z" clip-path="url(#a)" fill="#fff" stroke="#fff"/>
<g clip-path="url(#a)">
<defs>
<path id="r" d="m9.8125 72.906h46.094v-8.3125h-36.234v-21.578h34.719v-8.2969h-34.719v-26.422h37.109v-8.2969h-46.969z"/>
</defs>
<g transform="translate(1341.1 680.79) rotate(-74.89) scale(.08 -.08)">
<use xlink:href="#r"/>
</g>
</g>
<path d="m1357 675.24v5.055q0 2.4 2.4 2.4h7.7425q2.4 0 2.4-2.4v-5.055q0-2.4-2.4-2.4h-7.7425q-2.4 0-2.4 2.4z" clip-path="url(#a)" fill="#fff" stroke="#fff"/>
<g clip-path="url(#a)">
<g transform="translate(1361.1 675.24) rotate(90) scale(.08 -.08)">
<use xlink:href="#r"/>
</g>
</g>
<path d="m1380.2 676.71 1.4562 5.3931q0.62562 2.317 2.9426 1.6914l7.4748-2.0183q2.317-0.62562 1.6914-2.9426l-1.4562-5.3931q-0.62562-2.317-2.9426-1.6914l-7.4748 2.0183q-2.317 0.62562-1.6914 2.9426z" clip-path="url(#a)" fill="#fff" stroke="#fff"/>
<g clip-path="url(#a)">
<defs>
<path id="t" d="m64.406 67.281v-10.391q-4.9844 4.6406-10.625 6.9219-5.6406 2.2969-11.984 2.2969-12.5 0-19.141-7.6406t-6.6406-22.094q0-14.406 6.6406-22.047t19.141-7.6406q6.3438 0 11.984 2.2969t10.625 6.9375v-10.312q-5.1719-3.5156-10.969-5.2812-5.7812-1.75-12.219-1.75-16.562 0-26.094 10.125-9.5156 10.141-9.5156 27.672 0 17.578 9.5156 27.703 9.5312 10.141 26.094 10.141 6.5312 0 12.312-1.7344 5.7969-1.7344 10.875-5.2031z"/>
</defs>
<g transform="translate(1384.1 675.65) rotate(74.89) scale(.08 -.08)">
<use xlink:href="#t"/>
</g>
</g>
<path d="m1487 681.85 1.3177-4.8802q0.62562-2.317-1.6914-2.9426l-7.4748-2.0183q-2.317-0.62562-2.9426 1.6914l-1.3177 4.8802q-0.62562 2.317 1.6914 2.9426l7.4748 2.0183q2.317 0.62562 2.9426-1.6914z" clip-path="url(#a)" fill="#fff" stroke="#fff"/>
<g clip-path="url(#a)">
<g transform="translate(1483.1 680.79) rotate(-74.89) scale(.08 -.08)">
<use xlink:href="#r"/>
</g>
</g>
<path d="m1499 675.24v5.055q0 2.4 2.4 2.4h7.7425q2.4 0 2.4-2.4v-5.055q0-2.4-2.4-2.4h-7.7425q-2.4 0-2.4 2.4z" clip-path="url(#a)" fill="#fff" stroke="#fff"/>
<g clip-path="url(#a)">
<g transform="translate(1503.1 675.24) rotate(90) scale(.08 -.08)">
<use xlink:href="#r"/>
</g>
</g>
<path d="m1522.2 676.71 1.4562 5.3931q0.62562 2.317 2.9426 1.6914l7.4748-2.0183q2.317-0.62562 1.6914-2.9426l-1.4562-5.3931q-0.62562-2.317-2.9426-1.6914l-7.4748 2.0183q-2.317 0.62562-1.6914 2.9426z" clip-path="url(#a)" fill="#fff" stroke="#fff"/>
<g clip-path="url(#a)">
<g transform="translate(1526.1 675.65) rotate(74.89) scale(.08 -.08)">
<use xlink:href="#t"/>
</g>
</g>
<path d="m1593.7 835.42v35.285q0 2.4 2.4 2.4h7.7425q2.4 0 2.4-2.4v-35.285q0-2.4-2.4-2.4h-7.7425q-2.4 0-2.4 2.4z" clip-path="url(#a)" fill="#fff" stroke="#fff"/>
<g clip-path="url(#a)">
<g transform="translate(1597.8 835.42) rotate(90) scale(.08 -.08)">
<use xlink:href="#l"/>
<use x="60.818359" xlink:href="#d"/>
<use x="122.341797" xlink:href="#i"/>
<use x="163.439453" xlink:href="#k"/>
<use x="260.851562" xlink:href="#g"/>
<use x="288.634766" xlink:href="#j"/>
<use x="352.013672" xlink:href="#f"/>
<use x="413.292969" xlink:href="#h"/>
</g>
</g>
<path d="m1691.3 682.89 2.2925-5.0942q0.98491-2.1886-1.2037-3.1735l-7.0605-3.1774q-2.1886-0.98491-3.1735 1.2037l-2.2925 5.0942q-0.98491 2.1886 1.2037 3.1735l7.0605 3.1774q2.1886 0.98491 3.1735-1.2037z" clip-path="url(#a)" fill="#fff" stroke="#fff"/>
<g clip-path="url(#a)">
<g transform="translate(1687.6 681.22) rotate(-65.771) scale(.08 -.08)">
<use xlink:href="#t"/>
</g>
</g>
<path d="m1727.6 676.04 0.41246 4.5827q0.21514 2.3903 2.6055 2.1752l7.7113-0.69405q2.3903-0.21514 2.1752-2.6055l-0.41246-4.5827q-0.21514-2.3903-2.6055-2.1752l-7.7113 0.69405q-2.3903 0.21514-2.1752 2.6055z" clip-path="url(#a)" fill="#fff" stroke="#fff"/>
<g clip-path="url(#a)">
<g transform="translate(1731.7 675.68) rotate(84.857) scale(.08 -.08)">
<use xlink:href="#ac"/>
</g>
</g>
<path d="m1750.9 677.14 1.9833 5.5089q0.81296 2.2581 3.0711 1.4452l7.2848-2.6226q2.2581-0.81296 1.4452-3.0711l-1.9833-5.5089q-0.81296-2.2581-3.0711-1.4452l-7.2848 2.6226q-2.2581 0.81296-1.4452 3.0711z" clip-path="url(#a)" fill="#fff" stroke="#fff"/>
<g clip-path="url(#a)">
<g transform="translate(1754.7 675.76) rotate(70.2) scale(.08 -.08)">
<use xlink:href="#an"/>
</g>
</g>
<path d="m1688.4 835.42v35.285q0 2.4 2.4 2.4h7.7425q2.4 0 2.4-2.4v-35.285q0-2.4-2.4-2.4h-7.7425q-2.4 0-2.4 2.4z" clip-path="url(#a)" fill="#fff" stroke="#fff"/>
<g clip-path="url(#a)">
<g transform="translate(1692.4 835.42) rotate(90) scale(.08 -.08)">
<use xlink:href="#l"/>
<use x="60.818359" xlink:href="#d"/>
<use x="122.341797" xlink:href="#i"/>
<use x="163.439453" xlink:href="#k"/>
<use x="260.851562" xlink:href="#g"/>
<use x="288.634766" xlink:href="#j"/>
<use x="352.013672" xlink:href="#f"/>
<use x="413.292969" xlink:href="#h"/>
</g>
</g>
<path d="m1641 835.42v35.285q0 2.4 2.4 2.4h7.7425q2.4 0 2.4-2.4v-35.285q0-2.4-2.4-2.4h-7.7425q-2.4 0-2.4 2.4z" clip-path="url(#a)" fill="#fff" stroke="#fff"/>
<g clip-path="url(#a)">
<g transform="translate(1645.1 835.42) rotate(90) scale(.08 -.08)">
<use xlink:href="#l"/>
<use x="60.818359" xlink:href="#d"/>
<use x="122.341797" xlink:href="#i"/>
<use x="163.439453" xlink:href="#k"/>
<use x="260.851562" xlink:href="#g"/>
<use x="288.634766" xlink:href="#j"/>
<use x="352.013672" xlink:href="#f"/>
<use x="413.292969" xlink:href="#h"/>
</g>
</g>
<path d="m1735.7 835.42v35.285q0 2.4 2.4 2.4h7.7425q2.4 0 2.4-2.4v-35.285q0-2.4-2.4-2.4h-7.7425q-2.4 0-2.4 2.4z" clip-path="url(#a)" fill="#fff" stroke="#fff"/>
<g clip-path="url(#a)">
<g transform="translate(1739.8 835.42) rotate(90) scale(.08 -.08)">
<use xlink:href="#l"/>
<use x="60.818359" xlink:href="#d"/>
<use x="122.341797" xlink:href="#i"/>
<use x="163.439453" xlink:href="#k"/>
<use x="260.851562" xlink:href="#g"/>
<use x="288.634766" xlink:href="#j"/>
<use x="352.013672" xlink:href="#f"/>
<use x="413.292969" xlink:href="#h"/>
</g>
</g>
<path d="m1451.7 835.42v35.285q0 2.4 2.4 2.4h7.7425q2.4 0 2.4-2.4v-35.285q0-2.4-2.4-2.4h-7.7425q-2.4 0-2.4 2.4z" clip-path="url(#a)" fill="#fff" stroke="#fff"/>
<g clip-path="url(#a)">
<g transform="translate(1455.8 835.42) rotate(90) scale(.08 -.08)">
<use xlink:href="#l"/>
<use x="60.818359" xlink:href="#d"/>
<use x="122.341797" xlink:href="#i"/>
<use x="163.439453" xlink:href="#k"/>
<use x="260.851562" xlink:href="#g"/>
<use x="288.634766" xlink:href="#j"/>
<use x="352.013672" xlink:href="#f"/>
<use x="413.292969" xlink:href="#h"/>
</g>
</g>
<path d="m1499 835.42v35.285q0 2.4 2.4 2.4h7.7425q2.4 0 2.4-2.4v-35.285q0-2.4-2.4-2.4h-7.7425q-2.4 0-2.4 2.4z" clip-path="url(#a)" fill="#fff" stroke="#fff"/>
<g clip-path="url(#a)">
<g transform="translate(1503.1 835.42) rotate(90) scale(.08 -.08)">
<use xlink:href="#l"/>
<use x="60.818359" xlink:href="#d"/>
<use x="122.341797" xlink:href="#i"/>
<use x="163.439453" xlink:href="#k"/>
<use x="260.851562" xlink:href="#g"/>
<use x="288.634766" xlink:href="#j"/>
<use x="352.013672" xlink:href="#f"/>
<use x="413.292969" xlink:href="#h"/>
</g>
</g>
<path d="m1546.4 835.42v35.285q0 2.4 2.4 2.4h7.7425q2.4 0 2.4-2.4v-35.285q0-2.4-2.4-2.4h-7.7425q-2.4 0-2.4 2.4z" clip-path="url(#a)" fill="#fff" stroke="#fff"/>
<g clip-path="url(#a)">
<g transform="translate(1550.4 835.42) rotate(90) scale(.08 -.08)">
<use xlink:href="#l"/>
<use x="60.818359" xlink:href="#d"/>
<use x="122.341797" xlink:href="#i"/>
<use x="163.439453" xlink:href="#k"/>
<use x="260.851562" xlink:href="#g"/>
<use x="288.634766" xlink:href="#j"/>
<use x="352.013672" xlink:href="#f"/>
<use x="413.292969" xlink:href="#h"/>
</g>
</g>
<path d="m1309.7 835.42v35.285q0 2.4 2.4 2.4h7.7425q2.4 0 2.4-2.4v-35.285q0-2.4-2.4-2.4h-7.7425q-2.4 0-2.4 2.4z" clip-path="url(#a)" fill="#fff" stroke="#fff"/>
<g clip-path="url(#a)">
<g transform="translate(1313.8 835.42) rotate(90) scale(.08 -.08)">
<use xlink:href="#l"/>
<use x="60.818359" xlink:href="#d"/>
<use x="122.341797" xlink:href="#i"/>
<use x="163.439453" xlink:href="#k"/>
<use x="260.851562" xlink:href="#g"/>
<use x="288.634766" xlink:href="#j"/>
<use x="352.013672" xlink:href="#f"/>
<use x="413.292969" xlink:href="#h"/>
</g>
</g>
<path d="m1357 835.42v35.285q0 2.4 2.4 2.4h7.7425q2.4 0 2.4-2.4v-35.285q0-2.4-2.4-2.4h-7.7425q-2.4 0-2.4 2.4z" clip-path="url(#a)" fill="#fff" stroke="#fff"/>
<g clip-path="url(#a)">
<g transform="translate(1361.1 835.42) rotate(90) scale(.08 -.08)">
<use xlink:href="#l"/>
<use x="60.818359" xlink:href="#d"/>
<use x="122.341797" xlink:href="#i"/>
<use x="163.439453" xlink:href="#k"/>
<use x="260.851562" xlink:href="#g"/>
<use x="288.634766" xlink:href="#j"/>
<use x="352.013672" xlink:href="#f"/>
<use x="413.292969" xlink:href="#h"/>
</g>
</g>
<path d="m1404.4 835.42v35.285q0 2.4 2.4 2.4h7.7425q2.4 0 2.4-2.4v-35.285q0-2.4-2.4-2.4h-7.7425q-2.4 0-2.4 2.4z" clip-path="url(#a)" fill="#fff" stroke="#fff"/>
<g clip-path="url(#a)">
<g transform="translate(1408.4 835.42) rotate(90) scale(.08 -.08)">
<use xlink:href="#l"/>
<use x="60.818359" xlink:href="#d"/>
<use x="122.341797" xlink:href="#i"/>
<use x="163.439453" xlink:href="#k"/>
<use x="260.851562" xlink:href="#g"/>
<use x="288.634766" xlink:href="#j"/>
<use x="352.013672" xlink:href="#f"/>
<use x="413.292969" xlink:href="#h"/>
</g>
</g>
<path d="m481.41 498.52v5.4725q0 2.4 2.4 2.4h7.7425q2.4 0 2.4-2.4v-5.4725q0-2.4-2.4-2.4h-7.7425q-2.4 0-2.4 2.4z" clip-path="url(#a)" fill="#fff" stroke="#fff"/>
<g clip-path="url(#a)">
<g transform="translate(485.48 498.52) rotate(90) scale(.08 -.08)">
<use xlink:href="#u"/>
</g>
</g>
<path d="m481.9 592.4 0.41202-6.1462q0.16053-2.3946-2.2341-2.5552l-7.7252-0.51787q-2.3946-0.16053-2.5552 2.2341l-0.41202 6.1462q-0.16053 2.3946 2.2341 2.5552l7.7252 0.51787q2.3946 0.16053 2.5552-2.2341z" clip-path="url(#a)" fill="#fff" stroke="#fff"/>
<g clip-path="url(#a)">
<g transform="translate(477.85 592.13) rotate(-86.165) scale(.08 -.08)">
<use xlink:href="#ad"/>
</g>
</g>
<path d="m493.1 586.92 0.32264 4.8129q0.16053 2.3946 2.5552 2.2341l7.7252-0.51787q2.3946-0.16053 2.2341-2.5552l-0.32264-4.8129q-0.16053-2.3946-2.5552-2.2341l-7.7252 0.51787q-2.3946 0.16053-2.2341 2.5552z" clip-path="url(#a)" fill="#fff" stroke="#fff"/>
<g clip-path="url(#a)">
<g transform="translate(497.15 586.65) rotate(86.165) scale(.08 -.08)">
<use xlink:href="#ah"/>
</g>
</g>
<path d="m635.01 682.09 1.449-5.3666q0.62562-2.317-1.6914-2.9426l-7.4748-2.0183q-2.317-0.62562-2.9426 1.6914l-1.449 5.3666q-0.62562 2.317 1.6914 2.9426l7.4748 2.0183q2.317 0.62562 2.9426-1.6914z" clip-path="url(#a)" fill="#fff" stroke="#fff"/>
<g clip-path="url(#a)">
<defs>
<path id="ap" d="m44.391 34.188q3.1719-1.0781 6.1719-4.5938t6.0312-9.6719l10.016-19.922h-10.609l-9.3125 18.703q-3.625 7.3281-7.0156 9.7188t-9.25 2.3906h-10.75v-30.812h-9.8594v72.906h22.266q12.5 0 18.656-5.2344 6.1562-5.2188 6.1562-15.766 0-6.8906-3.2031-11.438-3.2031-4.5312-9.2969-6.2812zm-24.719 30.609v-25.875h12.406q7.125 0 10.766 3.2969t3.6406 9.6875-3.6406 9.6406-10.766 3.25z"/>
</defs>
<g transform="translate(631.09 681.03) rotate(-74.89) scale(.08 -.08)">
<use xlink:href="#ap"/>
</g>
</g>
<path d="m647.07 675.24v5.055q0 2.4 2.4 2.4h7.7425q2.4 0 2.4-2.4v-5.055q0-2.4-2.4-2.4h-7.7425q-2.4 0-2.4 2.4z" clip-path="url(#a)" fill="#fff" stroke="#fff"/>
<g clip-path="url(#a)">
<g transform="translate(651.14 675.24) rotate(90) scale(.08 -.08)">
<use xlink:href="#r"/>
</g>
</g>
<path d="m670.23 676.71 1.4562 5.3931q0.62562 2.317 2.9426 1.6914l7.4748-2.0183q2.317-0.62562 1.6914-2.9426l-1.4562-5.3931q-0.62562-2.317-2.9426-1.6914l-7.4748 2.0183q-2.317 0.62562-1.6914 2.9426z" clip-path="url(#a)" fill="#fff" stroke="#fff"/>
<g clip-path="url(#a)">
<g transform="translate(674.15 675.65) rotate(74.89) scale(.08 -.08)">
<use xlink:href="#t"/>
</g>
</g>
<path d="m741.74 835.42v35.285q0 2.4 2.4 2.4h7.7425q2.4 0 2.4-2.4v-35.285q0-2.4-2.4-2.4h-7.7425q-2.4 0-2.4 2.4z" clip-path="url(#a)" fill="#fff" stroke="#fff"/>
<g clip-path="url(#a)">
<g transform="translate(745.8 835.42) rotate(90) scale(.08 -.08)">
<use xlink:href="#l"/>
<use x="60.818359" xlink:href="#d"/>
<use x="122.341797" xlink:href="#i"/>
<use x="163.439453" xlink:href="#k"/>
<use x="260.851562" xlink:href="#g"/>
<use x="288.634766" xlink:href="#j"/>
<use x="352.013672" xlink:href="#f"/>
<use x="413.292969" xlink:href="#h"/>
</g>
</g>
<path d="m831.01 504.2 0.3358-5.0438q0.15943-2.3947-2.2353-2.5541l-7.7254-0.51433q-2.3947-0.15943-2.5541 2.2353l-0.3358 5.0438q-0.15943 2.3947 2.2353 2.5541l7.7254 0.51433q2.3947 0.15943 2.5541-2.2353z" clip-path="url(#a)" fill="#fff" stroke="#fff"/>
<g clip-path="url(#a)">
<g transform="translate(826.96 503.93) rotate(-86.191) scale(.08 -.08)">
<use xlink:href="#r"/>
</g>
</g>
<path d="m830.39 586.32 0.18714 5.5831q0.080399 2.3987 2.4791 2.3183l7.7382-0.25937q2.3987-0.080399 2.3183-2.4791l-0.18714-5.5831q-0.080399-2.3987-2.4791-2.3183l-7.7382 0.25937q-2.3987 0.080399-2.3183 2.4791z" clip-path="url(#a)" fill="#fff" stroke="#fff"/>
<g clip-path="url(#a)">
<g transform="translate(834.45 586.19) rotate(88.08) scale(.08 -.08)">
<use xlink:href="#t"/>
</g>
</g>
<path d="m950.29 505.74 1.6914-4.7636q0.80306-2.2617-1.4586-3.0647l-7.2962-2.5907q-2.2617-0.80306-3.0647 1.4586l-1.6914 4.7636q-0.80306 2.2617 1.4586 3.0647l7.2962 2.5907q2.2617 0.80306 3.0647-1.4586z" clip-path="url(#a)" fill="#fff" stroke="#fff"/>
<g clip-path="url(#a)">
<g transform="translate(946.46 504.38) rotate(-70.451) scale(.08 -.08)">
<use xlink:href="#r"/>
</g>
</g>
<path d="m974.39 586.27 0.12418 5.5574q0.053616 2.3994 2.453 2.3458l7.7406-0.17297q2.3994-0.053616 2.3458-2.453l-0.12418-5.5574q-0.053616-2.3994-2.453-2.3458l-7.7406 0.17297q-2.3994 0.053616-2.3458 2.453z" clip-path="url(#a)" fill="#fff" stroke="#fff"/>
<g clip-path="url(#a)">
<g transform="translate(978.45 586.18) rotate(88.72) scale(.08 -.08)">
<use xlink:href="#ap"/>
</g>
</g>
<path d="m997.76 587.11 0.8633 5.5191q0.3709 2.3712 2.7421 2.0003l7.6495-1.1965q2.3712-0.3709 2.0003-2.7421l-0.8633-5.5191q-0.3709-2.3712-2.7421-2.0003l-7.6495 1.1965q-2.3712 0.3709-2.0003 2.7421z" clip-path="url(#a)" fill="#fff" stroke="#fff"/>
<g clip-path="url(#a)">
<g transform="translate(1001.8 586.49) rotate(81.11) scale(.08 -.08)">
<use xlink:href="#t"/>
</g>
</g>
<path d="m907.71 681.11 0.67632-5.0096q0.3211-2.3784-2.0573-2.6995l-7.6729-1.0359q-2.3784-0.3211-2.6995 2.0573l-0.67632 5.0096q-0.3211 2.3784 2.0573 2.6995l7.6729 1.0359q2.3784 0.3211 2.6995-2.0573z" clip-path="url(#a)" fill="#fff" stroke="#fff"/>
<g clip-path="url(#a)">
<g transform="translate(903.68 680.57) rotate(-82.311) scale(.08 -.08)">
<use xlink:href="#r"/>
</g>
</g>
<path d="m918.91 675.84 0.7474 5.536q0.3211 2.3784 2.6995 2.0573l7.6729-1.0359q2.3784-0.3211 2.0573-2.6995l-0.7474-5.536q-0.3211-2.3784-2.6995-2.0573l-7.6729 1.0359q-2.3784 0.3211-2.0573 2.6995z" clip-path="url(#a)" fill="#fff" stroke="#fff"/>
<g clip-path="url(#a)">
<g transform="translate(922.94 675.3) rotate(82.311) scale(.08 -.08)">
<use xlink:href="#t"/>
</g>
</g>
<path d="m978.39 835.42v35.285q0 2.4 2.4 2.4h7.7425q2.4 0 2.4-2.4v-35.285q0-2.4-2.4-2.4h-7.7425q-2.4 0-2.4 2.4z" clip-path="url(#a)" fill="#fff" stroke="#fff"/>
<g clip-path="url(#a)">
<g transform="translate(982.46 835.42) rotate(90) scale(.08 -.08)">
<use xlink:href="#l"/>
<use x="60.818359" xlink:href="#d"/>
<use x="122.341797" xlink:href="#i"/>
<use x="163.439453" xlink:href="#k"/>
<use x="260.851562" xlink:href="#g"/>
<use x="288.634766" xlink:href="#j"/>
<use x="352.013672" xlink:href="#f"/>
<use x="413.292969" xlink:href="#h"/>
</g>
</g>
<path d="m1025.7 835.42v35.285q0 2.4 2.4 2.4h7.7425q2.4 0 2.4-2.4v-35.285q0-2.4-2.4-2.4h-7.7425q-2.4 0-2.4 2.4z" clip-path="url(#a)" fill="#fff" stroke="#fff"/>
<g clip-path="url(#a)">
<g transform="translate(1029.8 835.42) rotate(90) scale(.08 -.08)">
<use xlink:href="#l"/>
<use x="60.818359" xlink:href="#d"/>
<use x="122.341797" xlink:href="#i"/>
<use x="163.439453" xlink:href="#k"/>
<use x="260.851562" xlink:href="#g"/>
<use x="288.634766" xlink:href="#j"/>
<use x="352.013672" xlink:href="#f"/>
<use x="413.292969" xlink:href="#h"/>
</g>
</g>
<path d="m883.73 835.42v35.285q0 2.4 2.4 2.4h7.7425q2.4 0 2.4-2.4v-35.285q0-2.4-2.4-2.4h-7.7425q-2.4 0-2.4 2.4z" clip-path="url(#a)" fill="#fff" stroke="#fff"/>
<g clip-path="url(#a)">
<g transform="translate(887.79 835.42) rotate(90) scale(.08 -.08)">
<use xlink:href="#l"/>
<use x="60.818359" xlink:href="#d"/>
<use x="122.341797" xlink:href="#i"/>
<use x="163.439453" xlink:href="#k"/>
<use x="260.851562" xlink:href="#g"/>
<use x="288.634766" xlink:href="#j"/>
<use x="352.013672" xlink:href="#f"/>
<use x="413.292969" xlink:href="#h"/>
</g>
</g>
<path d="m931.06 835.42v35.285q0 2.4 2.4 2.4h7.7425q2.4 0 2.4-2.4v-35.285q0-2.4-2.4-2.4h-7.7425q-2.4 0-2.4 2.4z" clip-path="url(#a)" fill="#fff" stroke="#fff"/>
<g clip-path="url(#a)">
<g transform="translate(935.13 835.42) rotate(90) scale(.08 -.08)">
<use xlink:href="#l"/>
<use x="60.818359" xlink:href="#d"/>
<use x="122.341797" xlink:href="#i"/>
<use x="163.439453" xlink:href="#k"/>
<use x="260.851562" xlink:href="#g"/>
<use x="288.634766" xlink:href="#j"/>
<use x="352.013672" xlink:href="#f"/>
<use x="413.292969" xlink:href="#h"/>
</g>
</g>
<path d="m824.26 675.9 0.73218 5.4233q0.3211 2.3784 2.6995 2.0573l7.6729-1.0359q2.3784-0.3211 2.0573-2.6995l-0.73218-5.4233q-0.3211-2.3784-2.6995-2.0573l-7.6729 1.0359q-2.3784 0.3211-2.0573 2.6995z" clip-path="url(#a)" fill="#fff" stroke="#fff"/>
<g clip-path="url(#a)">
<g transform="translate(828.28 675.35) rotate(82.311) scale(.08 -.08)">
<use xlink:href="#u"/>
</g>
</g>
<path d="m813.05 681.13 0.6795-5.0331q0.3211-2.3784-2.0573-2.6995l-7.6729-1.0359q-2.3784-0.3211-2.6995 2.0573l-0.6795 5.0331q-0.3211 2.3784 2.0573 2.6995l7.6729 1.0359q2.3784 0.3211 2.6995-2.0573z" clip-path="url(#a)" fill="#fff" stroke="#fff"/>
<g clip-path="url(#a)">
<g transform="translate(809.02 680.58) rotate(-82.311) scale(.08 -.08)">
<use xlink:href="#ao"/>
</g>
</g>
<path d="m836.4 835.42v35.285q0 2.4 2.4 2.4h7.7425q2.4 0 2.4-2.4v-35.285q0-2.4-2.4-2.4h-7.7425q-2.4 0-2.4 2.4z" clip-path="url(#a)" fill="#fff" stroke="#fff"/>
<g clip-path="url(#a)">
<g transform="translate(840.46 835.42) rotate(90) scale(.08 -.08)">
<use xlink:href="#l"/>
<use x="60.818359" xlink:href="#d"/>
<use x="122.341797" xlink:href="#i"/>
<use x="163.439453" xlink:href="#k"/>
<use x="260.851562" xlink:href="#g"/>
<use x="288.634766" xlink:href="#j"/>
<use x="352.013672" xlink:href="#f"/>
<use x="413.292969" xlink:href="#h"/>
</g>
</g>
<path d="m789.07 835.42v35.285q0 2.4 2.4 2.4h7.7425q2.4 0 2.4-2.4v-35.285q0-2.4-2.4-2.4h-7.7425q-2.4 0-2.4 2.4z" clip-path="url(#a)" fill="#fff" stroke="#fff"/>
<g clip-path="url(#a)">
<g transform="translate(793.13 835.42) rotate(90) scale(.08 -.08)">
<use xlink:href="#l"/>
<use x="60.818359" xlink:href="#d"/>
<use x="122.341797" xlink:href="#i"/>
<use x="163.439453" xlink:href="#k"/>
<use x="260.851562" xlink:href="#g"/>
<use x="288.634766" xlink:href="#j"/>
<use x="352.013672" xlink:href="#f"/>
<use x="413.292969" xlink:href="#h"/>
</g>
</g>
<path d="m599.74 835.42v35.285q0 2.4 2.4 2.4h7.7425q2.4 0 2.4-2.4v-35.285q0-2.4-2.4-2.4h-7.7425q-2.4 0-2.4 2.4z" clip-path="url(#a)" fill="#fff" stroke="#fff"/>
<g clip-path="url(#a)">
<g transform="translate(603.81 835.42) rotate(90) scale(.08 -.08)">
<use xlink:href="#l"/>
<use x="60.818359" xlink:href="#d"/>
<use x="122.341797" xlink:href="#i"/>
<use x="163.439453" xlink:href="#k"/>
<use x="260.851562" xlink:href="#g"/>
<use x="288.634766" xlink:href="#j"/>
<use x="352.013672" xlink:href="#f"/>
<use x="413.292969" xlink:href="#h"/>
</g>
</g>
<path d="m647.07 835.42v35.285q0 2.4 2.4 2.4h7.7425q2.4 0 2.4-2.4v-35.285q0-2.4-2.4-2.4h-7.7425q-2.4 0-2.4 2.4z" clip-path="url(#a)" fill="#fff" stroke="#fff"/>
<g clip-path="url(#a)">
<g transform="translate(651.14 835.42) rotate(90) scale(.08 -.08)">
<use xlink:href="#l"/>
<use x="60.818359" xlink:href="#d"/>
<use x="122.341797" xlink:href="#i"/>
<use x="163.439453" xlink:href="#k"/>
<use x="260.851562" xlink:href="#g"/>
<use x="288.634766" xlink:href="#j"/>
<use x="352.013672" xlink:href="#f"/>
<use x="413.292969" xlink:href="#h"/>
</g>
</g>
<path d="m694.41 835.42v35.285q0 2.4 2.4 2.4h7.7425q2.4 0 2.4-2.4v-35.285q0-2.4-2.4-2.4h-7.7425q-2.4 0-2.4 2.4z" clip-path="url(#a)" fill="#fff" stroke="#fff"/>
<g clip-path="url(#a)">
<g transform="translate(698.47 835.42) rotate(90) scale(.08 -.08)">
<use xlink:href="#l"/>
<use x="60.818359" xlink:href="#d"/>
<use x="122.341797" xlink:href="#i"/>
<use x="163.439453" xlink:href="#k"/>
<use x="260.851562" xlink:href="#g"/>
<use x="288.634766" xlink:href="#j"/>
<use x="352.013672" xlink:href="#f"/>
<use x="413.292969" xlink:href="#h"/>
</g>
</g>
<path d="m457.05 682.47 1.8976-4.6853q0.90095-2.2245-1.3235-3.1254l-7.1762-2.9065q-2.2245-0.90095-3.1254 1.3235l-1.8976 4.6853q-0.90095 2.2245 1.3235 3.1254l7.1762 2.9065q2.2245 0.90095 3.1254-1.3235z" clip-path="url(#a)" fill="#fff" stroke="#fff"/>
<g clip-path="url(#a)">
<g transform="translate(453.28 680.94) rotate(-67.951) scale(.08 -.08)">
<use xlink:href="#r"/>
</g>
</g>
<path d="m516.32 677.54 2.0971 5.1777q0.90095 2.2245 3.1254 1.3235l7.1762-2.9065q2.2245-0.90095 1.3235-3.1254l-2.0971-5.1777q-0.90095-2.2245-3.1254-1.3235l-7.1762 2.9065q-2.2245 0.90095-1.3235 3.1254z" clip-path="url(#a)" fill="#fff" stroke="#fff"/>
<g clip-path="url(#a)">
<g transform="translate(520.09 676.01) rotate(67.951) scale(.08 -.08)">
<use xlink:href="#t"/>
</g>
</g>
<path d="m457.75 835.42v35.285q0 2.4 2.4 2.4h7.7425q2.4 0 2.4-2.4v-35.285q0-2.4-2.4-2.4h-7.7425q-2.4 0-2.4 2.4z" clip-path="url(#a)" fill="#fff" stroke="#fff"/>
<g clip-path="url(#a)">
<g transform="translate(461.81 835.42) rotate(90) scale(.08 -.08)">
<use xlink:href="#l"/>
<use x="60.818359" xlink:href="#d"/>
<use x="122.341797" xlink:href="#i"/>
<use x="163.439453" xlink:href="#k"/>
<use x="260.851562" xlink:href="#g"/>
<use x="288.634766" xlink:href="#j"/>
<use x="352.013672" xlink:href="#f"/>
<use x="413.292969" xlink:href="#h"/>
</g>
</g>
<path d="m505.08 835.42v35.285q0 2.4 2.4 2.4h7.7425q2.4 0 2.4-2.4v-35.285q0-2.4-2.4-2.4h-7.7425q-2.4 0-2.4 2.4z" clip-path="url(#a)" fill="#fff" stroke="#fff"/>
<g clip-path="url(#a)">
<g transform="translate(509.14 835.42) rotate(90) scale(.08 -.08)">
<use xlink:href="#l"/>
<use x="60.818359" xlink:href="#d"/>
<use x="122.341797" xlink:href="#i"/>
<use x="163.439453" xlink:href="#k"/>
<use x="260.851562" xlink:href="#g"/>
<use x="288.634766" xlink:href="#j"/>
<use x="352.013672" xlink:href="#f"/>
<use x="413.292969" xlink:href="#h"/>
</g>
</g>
<path d="m410.42 835.42v35.285q0 2.4 2.4 2.4h7.7425q2.4 0 2.4-2.4v-35.285q0-2.4-2.4-2.4h-7.7425q-2.4 0-2.4 2.4z" clip-path="url(#a)" fill="#fff" stroke="#fff"/>
<g clip-path="url(#a)">
<g transform="translate(414.48 835.42) rotate(90) scale(.08 -.08)">
<use xlink:href="#l"/>
<use x="60.818359" xlink:href="#d"/>
<use x="122.341797" xlink:href="#i"/>
<use x="163.439453" xlink:href="#k"/>
<use x="260.851562" xlink:href="#g"/>
<use x="288.634766" xlink:href="#j"/>
<use x="352.013672" xlink:href="#f"/>
<use x="413.292969" xlink:href="#h"/>
</g>
</g>
<path d="m552.41 835.42v35.285q0 2.4 2.4 2.4h7.7425q2.4 0 2.4-2.4v-35.285q0-2.4-2.4-2.4h-7.7425q-2.4 0-2.4 2.4z" clip-path="url(#a)" fill="#fff" stroke="#fff"/>
<g clip-path="url(#a)">
<g transform="translate(556.48 835.42) rotate(90) scale(.08 -.08)">
<use xlink:href="#l"/>
<use x="60.818359" xlink:href="#d"/>
<use x="122.341797" xlink:href="#i"/>
<use x="163.439453" xlink:href="#k"/>
<use x="260.851562" xlink:href="#g"/>
<use x="288.634766" xlink:href="#j"/>
<use x="352.013672" xlink:href="#f"/>
<use x="413.292969" xlink:href="#h"/>
</g>
</g>
<path d="m126.43 835.42v35.285q0 2.4 2.4 2.4h7.7425q2.4 0 2.4-2.4v-35.285q0-2.4-2.4-2.4h-7.7425q-2.4 0-2.4 2.4z" clip-path="url(#a)" fill="#fff" stroke="#fff"/>
<g clip-path="url(#a)">
<g transform="translate(130.49 835.42) rotate(90) scale(.08 -.08)">
<use xlink:href="#l"/>
<use x="60.818359" xlink:href="#d"/>
<use x="122.341797" xlink:href="#i"/>
<use x="163.439453" xlink:href="#k"/>
<use x="260.851562" xlink:href="#g"/>
<use x="288.634766" xlink:href="#j"/>
<use x="352.013672" xlink:href="#f"/>
<use x="413.292969" xlink:href="#h"/>
</g>
</g>
<path d="m173.76 835.42v35.285q0 2.4 2.4 2.4h7.7425q2.4 0 2.4-2.4v-35.285q0-2.4-2.4-2.4h-7.7425q-2.4 0-2.4 2.4z" clip-path="url(#a)" fill="#fff" stroke="#fff"/>
<g clip-path="url(#a)">
<g transform="translate(177.82 835.42) rotate(90) scale(.08 -.08)">
<use xlink:href="#l"/>
<use x="60.818359" xlink:href="#d"/>
<use x="122.341797" xlink:href="#i"/>
<use x="163.439453" xlink:href="#k"/>
<use x="260.851562" xlink:href="#g"/>
<use x="288.634766" xlink:href="#j"/>
<use x="352.013672" xlink:href="#f"/>
<use x="413.292969" xlink:href="#h"/>
</g>
</g>
<path d="m256.42 681.85 1.3177-4.8802q0.62562-2.317-1.6914-2.9426l-7.4748-2.0183q-2.317-0.62562-2.9426 1.6914l-1.3177 4.8802q-0.62562 2.317 1.6914 2.9426l7.4748 2.0183q2.317 0.62562 2.9426-1.6914z" clip-path="url(#a)" fill="#fff" stroke="#fff"/>
<g clip-path="url(#a)">
<g transform="translate(252.5 680.79) rotate(-74.89) scale(.08 -.08)">
<use xlink:href="#r"/>
</g>
</g>
<path d="m268.42 675.24v5.055q0 2.4 2.4 2.4h7.7425q2.4 0 2.4-2.4v-5.055q0-2.4-2.4-2.4h-7.7425q-2.4 0-2.4 2.4z" clip-path="url(#a)" fill="#fff" stroke="#fff"/>
<g clip-path="url(#a)">
<g transform="translate(272.49 675.24) rotate(90) scale(.08 -.08)">
<use xlink:href="#r"/>
</g>
</g>
<path d="m291.58 676.71 1.4562 5.3931q0.62562 2.317 2.9426 1.6914l7.4748-2.0183q2.317-0.62562 1.6914-2.9426l-1.4562-5.3931q-0.62562-2.317-2.9426-1.6914l-7.4748 2.0183q-2.317 0.62562-1.6914 2.9426z" clip-path="url(#a)" fill="#fff" stroke="#fff"/>
<g clip-path="url(#a)">
<g transform="translate(295.5 675.65) rotate(74.89) scale(.08 -.08)">
<use xlink:href="#t"/>
</g>
</g>
<path d="m221.09 835.42v35.285q0 2.4 2.4 2.4h7.7425q2.4 0 2.4-2.4v-35.285q0-2.4-2.4-2.4h-7.7425q-2.4 0-2.4 2.4z" clip-path="url(#a)" fill="#fff" stroke="#fff"/>
<g clip-path="url(#a)">
<g transform="translate(225.16 835.42) rotate(90) scale(.08 -.08)">
<use xlink:href="#l"/>
<use x="60.818359" xlink:href="#d"/>
<use x="122.341797" xlink:href="#i"/>
<use x="163.439453" xlink:href="#k"/>
<use x="260.851562" xlink:href="#g"/>
<use x="288.634766" xlink:href="#j"/>
<use x="352.013672" xlink:href="#f"/>
<use x="413.292969" xlink:href="#h"/>
</g>
</g>
<path d="m268.42 835.42v35.285q0 2.4 2.4 2.4h7.7425q2.4 0 2.4-2.4v-35.285q0-2.4-2.4-2.4h-7.7425q-2.4 0-2.4 2.4z" clip-path="url(#a)" fill="#fff" stroke="#fff"/>
<g clip-path="url(#a)">
<g transform="translate(272.49 835.42) rotate(90) scale(.08 -.08)">
<use xlink:href="#l"/>
<use x="60.818359" xlink:href="#d"/>
<use x="122.341797" xlink:href="#i"/>
<use x="163.439453" xlink:href="#k"/>
<use x="260.851562" xlink:href="#g"/>
<use x="288.634766" xlink:href="#j"/>
<use x="352.013672" xlink:href="#f"/>
<use x="413.292969" xlink:href="#h"/>
</g>
</g>
<path d="m315.75 835.42v35.285q0 2.4 2.4 2.4h7.7425q2.4 0 2.4-2.4v-35.285q0-2.4-2.4-2.4h-7.7425q-2.4 0-2.4 2.4z" clip-path="url(#a)" fill="#fff" stroke="#fff"/>
<g clip-path="url(#a)">
<g transform="translate(319.82 835.42) rotate(90) scale(.08 -.08)">
<use xlink:href="#l"/>
<use x="60.818359" xlink:href="#d"/>
<use x="122.341797" xlink:href="#i"/>
<use x="163.439453" xlink:href="#k"/>
<use x="260.851562" xlink:href="#g"/>
<use x="288.634766" xlink:href="#j"/>
<use x="352.013672" xlink:href="#f"/>
<use x="413.292969" xlink:href="#h"/>
</g>
</g>
<path d="m1073.1 835.42v35.285q0 2.4 2.4 2.4h7.7425q2.4 0 2.4-2.4v-35.285q0-2.4-2.4-2.4h-7.7425q-2.4 0-2.4 2.4z" clip-path="url(#a)" fill="#fff" stroke="#fff"/>
<g clip-path="url(#a)">
<g transform="translate(1077.1 835.42) rotate(90) scale(.08 -.08)">
<use xlink:href="#l"/>
<use x="60.818359" xlink:href="#d"/>
<use x="122.341797" xlink:href="#i"/>
<use x="163.439453" xlink:href="#k"/>
<use x="260.851562" xlink:href="#g"/>
<use x="288.634766" xlink:href="#j"/>
<use x="352.013672" xlink:href="#f"/>
<use x="413.292969" xlink:href="#h"/>
</g>
</g>
<path d="m1783 835.42v35.285q0 2.4 2.4 2.4h7.7425q2.4 0 2.4-2.4v-35.285q0-2.4-2.4-2.4h-7.7425q-2.4 0-2.4 2.4z" clip-path="url(#a)" fill="#fff" stroke="#fff"/>
<g clip-path="url(#a)">
<g transform="translate(1787.1 835.42) rotate(90) scale(.08 -.08)">
<use xlink:href="#l"/>
<use x="60.818359" xlink:href="#d"/>
<use x="122.341797" xlink:href="#i"/>
<use x="163.439453" xlink:href="#k"/>
<use x="260.851562" xlink:href="#g"/>
<use x="288.634766" xlink:href="#j"/>
<use x="352.013672" xlink:href="#f"/>
<use x="413.292969" xlink:href="#h"/>
</g>
</g>
<defs>
<path id="b" d="m0 8.6603c2.2967 0 4.4997-0.9125 6.1237-2.5365 1.624-1.624 2.5365-3.827 2.5365-6.1237s-0.9125-4.4997-2.5365-6.1237c-1.624-1.624-3.827-2.5365-6.1237-2.5365s-4.4997 0.9125-6.1237 2.5365c-1.624 1.624-2.5365 3.827-2.5365 6.1237s0.9125 4.4997 2.5365 6.1237c1.624 1.624 3.827 2.5365 6.1237 2.5365z"/>
</defs>
<g clip-path="url(#a)">
<use x="85.369551" y="940.710391" fill="#ffffff" stroke="#ffffff" xlink:href="#b"/>
</g>
<g clip-path="url(#a)">
<use x="132.700873" y="940.710391" fill="#ffffff" stroke="#ffffff" xlink:href="#b"/>
</g>
<g clip-path="url(#a)">
<use x="180.032194" y="940.710391" fill="#ffffff" stroke="#ffffff" xlink:href="#b"/>
</g>
<g clip-path="url(#a)">
<use x="227.363515" y="940.710391" fill="#ffffff" stroke="#ffffff" xlink:href="#b"/>
</g>
<g clip-path="url(#a)">
<use x="274.694836" y="940.710391" fill="#ffffff" stroke="#ffffff" xlink:href="#b"/>
</g>
<g clip-path="url(#a)">
<use x="322.026157" y="940.710391" fill="#ffffff" stroke="#ffffff" xlink:href="#b"/>
</g>
<g clip-path="url(#a)">
<use x="369.357479" y="940.710391" fill="#ffffff" stroke="#ffffff" xlink:href="#b"/>
</g>
<g clip-path="url(#a)">
<use x="416.6888" y="940.710391" fill="#ffffff" stroke="#ffffff" xlink:href="#b"/>
</g>
<g clip-path="url(#a)">
<use x="464.020121" y="940.710391" fill="#ffffff" stroke="#ffffff" xlink:href="#b"/>
</g>
<g clip-path="url(#a)">
<use x="511.351442" y="940.710391" fill="#ffffff" stroke="#ffffff" xlink:href="#b"/>
</g>
<g clip-path="url(#a)">
<use x="558.682764" y="940.710391" fill="#ffffff" stroke="#ffffff" xlink:href="#b"/>
</g>
<g clip-path="url(#a)">
<use x="606.014085" y="940.710391" fill="#ffffff" stroke="#ffffff" xlink:href="#b"/>
</g>
<g clip-path="url(#a)">
<use x="653.345406" y="940.710391" fill="#ffffff" stroke="#ffffff" xlink:href="#b"/>
</g>
<g clip-path="url(#a)">
<use x="700.676727" y="940.710391" fill="#ffffff" stroke="#ffffff" xlink:href="#b"/>
</g>
<g clip-path="url(#a)">
<use x="748.008048" y="940.710391" fill="#ffffff" stroke="#ffffff" xlink:href="#b"/>
</g>
<g clip-path="url(#a)">
<use x="795.33937" y="940.710391" fill="#ffffff" stroke="#ffffff" xlink:href="#b"/>
</g>
<g clip-path="url(#a)">
<use x="842.670691" y="940.710391" fill="#ffffff" stroke="#ffffff" xlink:href="#b"/>
</g>
<g clip-path="url(#a)">
<use x="890.002012" y="940.710391" fill="#ffffff" stroke="#ffffff" xlink:href="#b"/>
</g>
<g clip-path="url(#a)">
<use x="937.333333" y="940.710391" fill="#ffffff" stroke="#ffffff" xlink:href="#b"/>
</g>
<g clip-path="url(#a)">
<use x="984.664655" y="940.710391" fill="#ffffff" stroke="#ffffff" xlink:href="#b"/>
</g>
<g clip-path="url(#a)">
<use x="1031.995976" y="940.710391" fill="#ffffff" stroke="#ffffff" xlink:href="#b"/>
</g>
<g clip-path="url(#a)">
<use x="1079.327297" y="940.710391" fill="#ffffff" stroke="#ffffff" xlink:href="#b"/>
</g>
<g clip-path="url(#a)">
<use x="1126.658618" y="940.710391" fill="#ffffff" stroke="#ffffff" xlink:href="#b"/>
</g>
<g clip-path="url(#a)">
<use x="1173.989939" y="940.710391" fill="#ffffff" stroke="#ffffff" xlink:href="#b"/>
</g>
<g clip-path="url(#a)">
<use x="1221.321261" y="940.710391" fill="#ffffff" stroke="#ffffff" xlink:href="#b"/>
</g>
<g clip-path="url(#a)">
<use x="1268.652582" y="940.710391" fill="#ffffff" stroke="#ffffff" xlink:href="#b"/>
</g>
<g clip-path="url(#a)">
<use x="1315.983903" y="940.710391" fill="#ffffff" stroke="#ffffff" xlink:href="#b"/>
</g>
<g clip-path="url(#a)">
<use x="1363.315224" y="940.710391" fill="#ffffff" stroke="#ffffff" xlink:href="#b"/>
</g>
<g clip-path="url(#a)">
<use x="1410.646546" y="940.710391" fill="#ffffff" stroke="#ffffff" xlink:href="#b"/>
</g>
<g clip-path="url(#a)">
<use x="1457.977867" y="940.710391" fill="#ffffff" stroke="#ffffff" xlink:href="#b"/>
</g>
<g clip-path="url(#a)">
<use x="1505.309188" y="940.710391" fill="#ffffff" stroke="#ffffff" xlink:href="#b"/>
</g>
<g clip-path="url(#a)">
<use x="1552.640509" y="940.710391" fill="#ffffff" stroke="#ffffff" xlink:href="#b"/>
</g>
<g clip-path="url(#a)">
<use x="1599.97183" y="940.710391" fill="#ffffff" stroke="#ffffff" xlink:href="#b"/>
</g>
<g clip-path="url(#a)">
<use x="1647.303152" y="940.710391" fill="#ffffff" stroke="#ffffff" xlink:href="#b"/>
</g>
<g clip-path="url(#a)">
<use x="1694.634473" y="940.710391" fill="#ffffff" stroke="#ffffff" xlink:href="#b"/>
</g>
<g clip-path="url(#a)">
<use x="1741.965794" y="940.710391" fill="#ffffff" stroke="#ffffff" xlink:href="#b"/>
</g>
<g clip-path="url(#a)">
<use x="1789.297115" y="940.710391" fill="#ffffff" stroke="#ffffff" xlink:href="#b"/>
</g>
<g clip-path="url(#a)">
<use x="646.347967" y="45.956276" fill="#ffffff" stroke="#ffffff" xlink:href="#b"/>
</g>
<g clip-path="url(#a)">
<use x="85.369551" y="765.417152" fill="#ffffff" stroke="#ffffff" xlink:href="#b"/>
</g>
<g clip-path="url(#a)">
<use x="195.809301" y="412.392153" fill="#ffffff" stroke="#ffffff" xlink:href="#b"/>
</g>
<g clip-path="url(#a)">
<use x="369.357479" y="765.417152" fill="#ffffff" stroke="#ffffff" xlink:href="#b"/>
</g>
<g clip-path="url(#a)">
<use x="739.33064" y="231.238033" fill="#ffffff" stroke="#ffffff" xlink:href="#b"/>
</g>
<g clip-path="url(#a)">
<use x="1408.893534" y="412.392153" fill="#ffffff" stroke="#ffffff" xlink:href="#b"/>
</g>
<g clip-path="url(#a)">
<use x="1126.658618" y="765.417152" fill="#ffffff" stroke="#ffffff" xlink:href="#b"/>
</g>
<g clip-path="url(#a)">
<use x="1173.989939" y="765.417152" fill="#ffffff" stroke="#ffffff" xlink:href="#b"/>
</g>
<g clip-path="url(#a)">
<use x="1221.321261" y="765.417152" fill="#ffffff" stroke="#ffffff" xlink:href="#b"/>
</g>
<g clip-path="url(#a)">
<use x="1268.652582" y="765.417152" fill="#ffffff" stroke="#ffffff" xlink:href="#b"/>
</g>
<g clip-path="url(#a)">
<use x="1363.315224" y="590.123913" fill="#ffffff" stroke="#ffffff" xlink:href="#b"/>
</g>
<g clip-path="url(#a)">
<use x="1505.309188" y="590.123913" fill="#ffffff" stroke="#ffffff" xlink:href="#b"/>
</g>
<g clip-path="url(#a)">
<use x="1599.97183" y="765.417152" fill="#ffffff" stroke="#ffffff" xlink:href="#b"/>
</g>
<g clip-path="url(#a)">
<use x="1726.188687" y="590.123913" fill="#ffffff" stroke="#ffffff" xlink:href="#b"/>
</g>
<g clip-path="url(#a)">
<use x="1694.634473" y="765.417152" fill="#ffffff" stroke="#ffffff" xlink:href="#b"/>
</g>
<g clip-path="url(#a)">
<use x="1647.303152" y="765.417152" fill="#ffffff" stroke="#ffffff" xlink:href="#b"/>
</g>
<g clip-path="url(#a)">
<use x="1741.965794" y="765.417152" fill="#ffffff" stroke="#ffffff" xlink:href="#b"/>
</g>
<g clip-path="url(#a)">
<use x="1457.977867" y="765.417152" fill="#ffffff" stroke="#ffffff" xlink:href="#b"/>
</g>
<g clip-path="url(#a)">
<use x="1505.309188" y="765.417152" fill="#ffffff" stroke="#ffffff" xlink:href="#b"/>
</g>
<g clip-path="url(#a)">
<use x="1552.640509" y="765.417152" fill="#ffffff" stroke="#ffffff" xlink:href="#b"/>
</g>
<g clip-path="url(#a)">
<use x="1315.983903" y="765.417152" fill="#ffffff" stroke="#ffffff" xlink:href="#b"/>
</g>
<g clip-path="url(#a)">
<use x="1363.315224" y="765.417152" fill="#ffffff" stroke="#ffffff" xlink:href="#b"/>
</g>
<g clip-path="url(#a)">
<use x="1410.646546" y="765.417152" fill="#ffffff" stroke="#ffffff" xlink:href="#b"/>
</g>
<g clip-path="url(#a)">
<use x="487.685782" y="412.392153" fill="#ffffff" stroke="#ffffff" xlink:href="#b"/>
</g>
<g clip-path="url(#a)">
<use x="653.345406" y="590.123913" fill="#ffffff" stroke="#ffffff" xlink:href="#b"/>
</g>
<g clip-path="url(#a)">
<use x="748.008048" y="765.417152" fill="#ffffff" stroke="#ffffff" xlink:href="#b"/>
</g>
<g clip-path="url(#a)">
<use x="830.837861" y="412.392153" fill="#ffffff" stroke="#ffffff" xlink:href="#b"/>
</g>
<g clip-path="url(#a)">
<use x="976.776101" y="412.392153" fill="#ffffff" stroke="#ffffff" xlink:href="#b"/>
</g>
<g clip-path="url(#a)">
<use x="913.667673" y="590.123913" fill="#ffffff" stroke="#ffffff" xlink:href="#b"/>
</g>
<g clip-path="url(#a)">
<use x="984.664655" y="765.417152" fill="#ffffff" stroke="#ffffff" xlink:href="#b"/>
</g>
<g clip-path="url(#a)">
<use x="1031.995976" y="765.417152" fill="#ffffff" stroke="#ffffff" xlink:href="#b"/>
</g>
<g clip-path="url(#a)">
<use x="890.002012" y="765.417152" fill="#ffffff" stroke="#ffffff" xlink:href="#b"/>
</g>
<g clip-path="url(#a)">
<use x="937.333333" y="765.417152" fill="#ffffff" stroke="#ffffff" xlink:href="#b"/>
</g>
<g clip-path="url(#a)">
<use x="819.00503" y="590.123913" fill="#ffffff" stroke="#ffffff" xlink:href="#b"/>
</g>
<g clip-path="url(#a)">
<use x="842.670691" y="765.417152" fill="#ffffff" stroke="#ffffff" xlink:href="#b"/>
</g>
<g clip-path="url(#a)">
<use x="795.33937" y="765.417152" fill="#ffffff" stroke="#ffffff" xlink:href="#b"/>
</g>
<g clip-path="url(#a)">
<use x="606.014085" y="765.417152" fill="#ffffff" stroke="#ffffff" xlink:href="#b"/>
</g>
<g clip-path="url(#a)">
<use x="653.345406" y="765.417152" fill="#ffffff" stroke="#ffffff" xlink:href="#b"/>
</g>
<g clip-path="url(#a)">
<use x="700.676727" y="765.417152" fill="#ffffff" stroke="#ffffff" xlink:href="#b"/>
</g>
<g clip-path="url(#a)">
<use x="487.685782" y="590.123913" fill="#ffffff" stroke="#ffffff" xlink:href="#b"/>
</g>
<g clip-path="url(#a)">
<use x="464.020121" y="765.417152" fill="#ffffff" stroke="#ffffff" xlink:href="#b"/>
</g>
<g clip-path="url(#a)">
<use x="511.351442" y="765.417152" fill="#ffffff" stroke="#ffffff" xlink:href="#b"/>
</g>
<g clip-path="url(#a)">
<use x="416.6888" y="765.417152" fill="#ffffff" stroke="#ffffff" xlink:href="#b"/>
</g>
<g clip-path="url(#a)">
<use x="558.682764" y="765.417152" fill="#ffffff" stroke="#ffffff" xlink:href="#b"/>
</g>
<g clip-path="url(#a)">
<use x="132.700873" y="765.417152" fill="#ffffff" stroke="#ffffff" xlink:href="#b"/>
</g>
<g clip-path="url(#a)">
<use x="180.032194" y="765.417152" fill="#ffffff" stroke="#ffffff" xlink:href="#b"/>
</g>
<g clip-path="url(#a)">
<use x="274.694836" y="590.123913" fill="#ffffff" stroke="#ffffff" xlink:href="#b"/>
</g>
<g clip-path="url(#a)">
<use x="227.363515" y="765.417152" fill="#ffffff" stroke="#ffffff" xlink:href="#b"/>
</g>
<g clip-path="url(#a)">
<use x="274.694836" y="765.417152" fill="#ffffff" stroke="#ffffff" xlink:href="#b"/>
</g>
<g clip-path="url(#a)">
<use x="322.026157" y="765.417152" fill="#ffffff" stroke="#ffffff" xlink:href="#b"/>
</g>
<g clip-path="url(#a)">
<use x="1079.327297" y="765.417152" fill="#ffffff" stroke="#ffffff" xlink:href="#b"/>
</g>
<g clip-path="url(#a)">
<use x="1789.297115" y="765.417152" fill="#ffffff" stroke="#ffffff" xlink:href="#b"/>
</g>
<g clip-path="url(#a)">
<defs>
<path id="as" d="m3.3281 72.906h9.9531l15.328-61.625 15.281 61.625h11.094l15.328-61.625 15.281 61.625h10.016l-18.312-72.906h-12.406l-15.375 63.281-15.531-63.281h-12.406z"/>
<path id="v" d="m54.891 33.016v-33.016h-8.9844v32.719q0 7.7656-3.0312 11.609-3.0312 3.8594-9.0781 3.8594-7.2812 0-11.484-4.6406-4.2031-4.625-4.2031-12.641v-30.906h-9.0312v75.984h9.0312v-29.797q3.2344 4.9375 7.5938 7.375 4.375 2.4375 10.094 2.4375 9.4219 0 14.25-5.8281 4.8438-5.8281 4.8438-17.156z"/>
</defs>
<g transform="translate(71.012 943.47) scale(.1 -.1)">
<use xlink:href="#as"/>
<use x="98.876953" xlink:href="#v"/>
<use x="162.255859" xlink:href="#d"/>
<use x="223.779297" xlink:href="#j"/>
</g>
</g>
<g clip-path="url(#a)">
<defs>
<path id="ag" d="m4.2031 54.688h8.9844l11.234-42.672 11.172 42.672h10.594l11.234-42.672 11.188 42.672h8.9844l-14.312-54.688h-10.594l-11.766 44.828-11.812-44.828h-10.609z"/>
</defs>
<g transform="translate(125.54 943.47) scale(.1 -.1)">
<use xlink:href="#ag"/>
<use x="81.787109" xlink:href="#d"/>
</g>
</g>
<g clip-path="url(#a)">
<defs>
<path id="al" d="m48.781 52.594v-8.4062q-3.8125 2.1094-7.6406 3.1562t-7.7344 1.0469q-8.75 0-13.594-5.5469-4.8281-5.5312-4.8281-15.547t4.8281-15.562q4.8438-5.5312 13.594-5.5312 3.9062 0 7.7344 1.0469t7.6406 3.1562v-8.3125q-3.7656-1.75-7.7969-2.625-4.0156-0.89062-8.5625-0.89062-12.359 0-19.641 7.7656-7.2656 7.7656-7.2656 20.953 0 13.375 7.3438 21.031 7.3594 7.6719 20.156 7.6719 4.1406 0 8.0938-0.85938 3.9531-0.84375 7.6719-2.5469z"/>
<path id="x" d="m45.406 46.391v29.594h8.9844v-75.984h-8.9844v8.2031q-2.8281-4.875-7.1562-7.25-4.3125-2.375-10.375-2.375-9.9062 0-16.141 7.9062-6.2188 7.9219-6.2188 20.812t6.2188 20.797q6.2344 7.9062 16.141 7.9062 6.0625 0 10.375-2.375 4.3281-2.3594 7.1562-7.2344zm-30.609-19.094q0-9.9062 4.0781-15.547t11.203-5.6406 11.219 5.6406q4.1094 5.6406 4.1094 15.547t-4.1094 15.547q-4.0938 5.6406-11.219 5.6406t-11.203-5.6406-4.0781-15.547z"/>
</defs>
<g transform="translate(165.19 943.47) scale(.1 -.1)">
<use xlink:href="#al"/>
<use x="54.980469" xlink:href="#f"/>
<use x="116.259766" xlink:href="#h"/>
<use x="144.042969" xlink:href="#h"/>
<use x="171.826172" xlink:href="#d"/>
<use x="233.349609" xlink:href="#x"/>
</g>
</g>
<g clip-path="url(#a)">
<defs>
<path id="m" d="m18.312 70.219v-15.531h18.5v-6.9844h-18.5v-29.688q0-6.6875 1.8281-8.5938t7.4531-1.9062h9.2188v-7.5156h-9.2188q-10.406 0-14.359 3.875-3.9531 3.8906-3.9531 14.141v29.688h-6.5938v6.9844h6.5938v15.531z"/>
</defs>
<g transform="translate(219.16 943.47) scale(.1 -.1)">
<use xlink:href="#m"/>
<use x="39.208984" xlink:href="#v"/>
<use x="102.587891" xlink:href="#d"/>
</g>
</g>
<g clip-path="url(#a)">
<defs>
<path id="ak" d="m37.109 75.984v-7.4844h-8.5938q-4.8281 0-6.7188-1.9531-1.875-1.9531-1.875-7.0312v-4.8281h14.797v-6.9844h-14.797v-47.703h-9.0312v47.703h-8.5938v6.9844h8.5938v3.8125q0 9.125 4.25 13.297 4.25 4.1875 13.469 4.1875z"/>
<path id="q" d="m30.609 48.391q-7.2188 0-11.422-5.6406t-4.2031-15.453 4.1719-15.453q4.1875-5.6406 11.453-5.6406 7.1875 0 11.375 5.6562 4.2031 5.6719 4.2031 15.438 0 9.7188-4.2031 15.406-4.1875 5.6875-11.375 5.6875zm0 7.6094q11.719 0 18.406-7.625 6.7031-7.6094 6.7031-21.078 0-13.422-6.7031-21.078-6.6875-7.6406-18.406-7.6406-11.766 0-18.438 7.6406-6.6562 7.6562-6.6562 21.078 0 13.469 6.6562 21.078 6.6719 7.625 18.438 7.625z"/>
</defs>
<g transform="translate(262.69 943.47) scale(.1 -.1)">
<use xlink:href="#ak"/>
<use x="35.205078" xlink:href="#i"/>
<use x="76.287109" xlink:href="#q"/>
<use x="137.46875" xlink:href="#j"/>
<use x="200.847656" xlink:href="#m"/>
</g>
</g>
<g clip-path="url(#a)">
<defs>
<path id="y" d="m44.281 53.078v-8.5q-3.7969 1.9531-7.9062 2.9219-4.0938 0.98438-8.5 0.98438-6.6875 0-10.031-2.0469t-3.3438-6.1562q0-3.125 2.3906-4.9062t9.625-3.3906l3.0781-0.6875q9.5625-2.0469 13.594-5.7812t4.0312-10.422q0-7.625-6.0312-12.078-6.0312-4.4375-16.578-4.4375-4.3906 0-9.1562 0.85938t-10.031 2.5625v9.2812q4.9844-2.5938 9.8125-3.8906 4.8281-1.2812 9.5781-1.2812 6.3438 0 9.75 2.1719 3.4219 2.1719 3.4219 6.125 0 3.6562-2.4688 5.6094-2.4531 1.9531-10.812 3.7656l-3.125 0.73438q-8.3438 1.75-12.062 5.3906-3.7031 3.6406-3.7031 9.9844 0 7.7188 5.4688 11.906 5.4688 4.2031 15.531 4.2031 4.9688 0 9.3594-0.73438 4.4062-0.71875 8.1094-2.1875z"/>
<path id="ar" d="m9.0781 75.984h9.0312v-44.875l26.812 23.578h11.469l-29-25.578 30.234-29.109h-11.719l-27.797 26.703v-26.703h-9.0312z"/>
</defs>
<g transform="translate(310.28 943.47) scale(.1 -.1)">
<use xlink:href="#x"/>
<use x="63.476562" xlink:href="#d"/>
<use x="125" xlink:href="#y"/>
<use x="177.099609" xlink:href="#ar"/>
</g>
</g>
<g clip-path="url(#a)">
<defs>
<path id="am" d="m48.688 27.297q0 9.9062-4.0781 15.547t-11.203 5.6406q-7.1406 0-11.219-5.6406t-4.0781-15.547 4.0781-15.547 11.219-5.6406q7.125 0 11.203 5.6406t4.0781 15.547zm-30.578 19.094q2.8438 4.875 7.1562 7.2344 4.3281 2.375 10.328 2.375 9.9688 0 16.188-7.9062 6.2344-7.9062 6.2344-20.797t-6.2344-20.812q-6.2188-7.9062-16.188-7.9062-6 0-10.328 2.375-4.3125 2.375-7.1562 7.25v-8.2031h-9.0312v75.984h9.0312z"/>
<path id="w" d="m8.5 21.578v33.109h8.9844v-32.766q0-7.7656 3.0156-11.656 3.0312-3.875 9.0938-3.875 7.2656 0 11.484 4.6406 4.2344 4.6406 4.2344 12.656v31h8.9844v-54.688h-8.9844v8.4062q-3.2656-4.9844-7.5938-7.4062-4.3125-2.4219-10.031-2.4219-9.4219 0-14.312 5.8594-4.875 5.8594-4.875 17.141z"/>
</defs>
<g transform="translate(354.93 943.47) scale(.1 -.1)">
<use xlink:href="#f"/>
<use x="61.279297" xlink:href="#am"/>
<use x="124.755859" xlink:href="#q"/>
<use x="185.9375" xlink:href="#w"/>
<use x="249.316406" xlink:href="#m"/>
</g>
</g>
<g clip-path="url(#a)">
<g transform="translate(410.46 943.47) scale(.1 -.1)">
<use xlink:href="#f"/>
<use x="61.279297" xlink:href="#j"/>
</g>
</g>
<g clip-path="url(#a)">
<defs>
<path id="aw" d="m54.891 54.688-19.781-26.609 20.797-28.078h-10.594l-15.922 21.484-15.906-21.484h-10.609l21.25 28.609-19.438 26.078h10.594l14.5-19.484 14.5 19.484z"/>
<path id="av" d="m32.172-5.0781q-3.7969-9.7656-7.4219-12.734-3.6094-2.9844-9.6562-2.9844h-7.1875v7.5156h5.2812q3.7031 0 5.75 1.7656 2.0625 1.75 4.5469 8.2969l1.6094 4.0938-22.109 53.812h9.5156l17.094-42.766 17.094 42.766h9.5156z"/>
</defs>
<g transform="translate(438.6 943.47) scale(.1 -.1)">
<use xlink:href="#d"/>
<use x="61.507812" xlink:href="#aw"/>
<use x="120.6875" xlink:href="#m"/>
<use x="159.896484" xlink:href="#i"/>
<use x="200.978516" xlink:href="#d"/>
<use x="262.501953" xlink:href="#k"/>
<use x="359.914062" xlink:href="#d"/>
<use x="421.4375" xlink:href="#h"/>
<use x="449.220703" xlink:href="#av"/>
</g>
</g>
<g clip-path="url(#a)">
<g transform="translate(485.2 943.47) scale(.1 -.1)">
<use xlink:href="#am"/>
<use x="63.476562" xlink:href="#q"/>
<use x="124.658203" xlink:href="#g"/>
<use x="152.441406" xlink:href="#y"/>
<use x="204.541016" xlink:href="#m"/>
<use x="243.75" xlink:href="#d"/>
<use x="305.273438" xlink:href="#i"/>
<use x="346.355469" xlink:href="#q"/>
<use x="407.537109" xlink:href="#w"/>
<use x="470.916016" xlink:href="#y"/>
</g>
</g>
<g clip-path="url(#a)">
<g transform="translate(543.56 943.47) scale(.1 -.1)">
<use xlink:href="#al"/>
<use x="54.980469" xlink:href="#i"/>
<use x="96.0625" xlink:href="#q"/>
<use x="157.244141" xlink:href="#ag"/>
<use x="239.03125" xlink:href="#x"/>
</g>
</g>
<g clip-path="url(#a)">
<g transform="translate(601.46 943.47) scale(.1 -.1)">
<use xlink:href="#g"/>
<use x="27.783203" xlink:href="#j"/>
</g>
</g>
<g clip-path="url(#a)">
<g transform="translate(645.14 943.47) scale(.1 -.1)">
<use xlink:href="#m"/>
<use x="39.208984" xlink:href="#v"/>
<use x="102.587891" xlink:href="#d"/>
</g>
</g>
<g clip-path="url(#a)">
<g transform="translate(691.67 943.47) scale(.1 -.1)">
<use xlink:href="#v"/>
<use x="63.378906" xlink:href="#f"/>
<use x="124.658203" xlink:href="#h"/>
<use x="152.441406" xlink:href="#h"/>
</g>
</g>
<g clip-path="url(#a)">
<g transform="translate(729.58 943.47) scale(.1 -.1)">
<use xlink:href="#q"/>
<use x="61.181641" xlink:href="#w"/>
<use x="124.560547" xlink:href="#m"/>
<use x="163.769531" xlink:href="#y"/>
<use x="215.869141" xlink:href="#g"/>
<use x="243.652344" xlink:href="#x"/>
<use x="307.128906" xlink:href="#d"/>
</g>
</g>
<g clip-path="url(#a)">
<g transform="translate(787.06 943.47) scale(.1 -.1)">
<use xlink:href="#q"/>
<use x="61.181641" xlink:href="#w"/>
<use x="124.560547" xlink:href="#i"/>
</g>
</g>
<g clip-path="url(#a)">
<g transform="translate(831.32 943.47) scale(.1 -.1)">
<use xlink:href="#x"/>
<use x="63.476562" xlink:href="#q"/>
<use x="124.658203" xlink:href="#q"/>
<use x="185.839844" xlink:href="#i"/>
</g>
</g>
<g clip-path="url(#a)">
<defs>
<path id="aj" d="m14.797 27.297q0-9.9062 4.0781-15.547t11.203-5.6406 11.219 5.6406q4.1094 5.6406 4.1094 15.547t-4.1094 15.547q-4.0938 5.6406-11.219 5.6406t-11.203-5.6406-4.0781-15.547zm30.609-19.094q-2.8281-4.875-7.1562-7.25-4.3125-2.375-10.375-2.375-9.9062 0-16.141 7.9062-6.2188 7.9219-6.2188 20.812t6.2188 20.797q6.2344 7.9062 16.141 7.9062 6.0625 0 10.375-2.375 4.3281-2.3594 7.1562-7.2344v8.2969h8.9844v-75.484h-8.9844z"/>
</defs>
<g transform="translate(877.23 943.47) scale(.1 -.1)">
<use xlink:href="#aj"/>
<use x="63.476562" xlink:href="#w"/>
<use x="126.855469" xlink:href="#g"/>
<use x="154.638672" xlink:href="#m"/>
<use x="193.847656" xlink:href="#d"/>
</g>
</g>
<g clip-path="url(#a)">
<g transform="translate(927.84 943.47) scale(.1 -.1)">
<use xlink:href="#h"/>
<use x="27.783203" xlink:href="#f"/>
<use x="89.0625" xlink:href="#m"/>
<use x="128.271484" xlink:href="#d"/>
</g>
</g>
<g clip-path="url(#a)">
<g transform="translate(979.64 943.47) scale(.1 -.1)">
<use xlink:href="#f"/>
<use x="61.279297" xlink:href="#m"/>
</g>
</g>
<g clip-path="url(#a)">
<defs>
<path id="ax" d="m45.406 27.984q0 9.7656-4.0312 15.125-4.0156 5.375-11.297 5.375-7.2188 0-11.25-5.375-4.0312-5.3594-4.0312-15.125 0-9.7188 4.0312-15.094t11.25-5.375q7.2812 0 11.297 5.375 4.0312 5.375 4.0312 15.094zm8.9844-21.203q0-13.953-6.2031-20.766-6.1875-6.8125-18.984-6.8125-4.7344 0-8.9375 0.70312t-8.1562 2.1719v8.7344q3.9531-2.1406 7.8125-3.1562 3.8594-1.0312 7.8594-1.0312 8.8438 0 13.234 4.6094t4.3906 13.938v4.4531q-2.7812-4.8438-7.125-7.2344t-10.406-2.3906q-10.047 0-16.203 7.6562-6.1562 7.6719-6.1562 20.328 0 12.688 6.1562 20.344 6.1562 7.6719 16.203 7.6719 6.0625 0 10.406-2.3906t7.125-7.2188v8.2969h8.9844z"/>
</defs>
<g transform="translate(1019.1 943.47) scale(.1 -.1)">
<use xlink:href="#j"/>
<use x="63.378906" xlink:href="#g"/>
<use x="91.162109" xlink:href="#ax"/>
<use x="154.638672" xlink:href="#v"/>
<use x="218.017578" xlink:href="#m"/>
</g>
</g>
<g clip-path="url(#a)">
<defs>
<path id="au" d="m11.719 12.406h10.297v-8.4062l-8-15.625h-6.2969l4 15.625z"/>
</defs>
<g transform="translate(1077.7 943.47) scale(.1 -.1)">
<use xlink:href="#au"/>
</g>
</g>
<g clip-path="url(#a)">
<g transform="translate(1123.3 943.47) scale(.1 -.1)">
<use xlink:href="#g"/>
<use x="27.783203" xlink:href="#m"/>
</g>
</g>
<g clip-path="url(#a)">
<g transform="translate(1154.1 943.47) scale(.1 -.1)">
<use xlink:href="#y"/>
<use x="52.099609" xlink:href="#d"/>
<use x="113.623047" xlink:href="#d"/>
<use x="175.146484" xlink:href="#k"/>
<use x="272.558594" xlink:href="#d"/>
<use x="334.082031" xlink:href="#x"/>
</g>
</g>
<g clip-path="url(#a)">
<g transform="translate(1216.3 943.47) scale(.1 -.1)">
<use xlink:href="#m"/>
<use x="39.208984" xlink:href="#q"/>
</g>
</g>
<g clip-path="url(#a)">
<g transform="translate(1257.7 943.47) scale(.1 -.1)">
<use xlink:href="#m"/>
<use x="39.208984" xlink:href="#f"/>
<use x="100.488281" xlink:href="#ar"/>
<use x="158.351562" xlink:href="#d"/>
</g>
</g>
<g clip-path="url(#a)">
<g transform="translate(1307.8 943.47) scale(.1 -.1)">
<use xlink:href="#m"/>
<use x="39.208984" xlink:href="#v"/>
<use x="102.587891" xlink:href="#d"/>
</g>
</g>
<g clip-path="url(#a)">
<g transform="translate(1350.7 943.47) scale(.1 -.1)">
<use xlink:href="#v"/>
<use x="63.378906" xlink:href="#q"/>
<use x="124.560547" xlink:href="#m"/>
<use x="163.769531" xlink:href="#d"/>
<use x="225.292969" xlink:href="#h"/>
</g>
</g>
<g clip-path="url(#a)">
<g transform="translate(1399.5 943.47) scale(.1 -.1)">
<use xlink:href="#y"/>
<use x="52.099609" xlink:href="#m"/>
<use x="91.308594" xlink:href="#f"/>
<use x="152.587891" xlink:href="#ak"/>
<use x="187.792969" xlink:href="#ak"/>
</g>
</g>
<g clip-path="url(#a)">
<g transform="translate(1445.2 943.47) scale(.1 -.1)">
<use xlink:href="#aj"/>
<use x="63.476562" xlink:href="#w"/>
<use x="126.855469" xlink:href="#g"/>
<use x="154.638672" xlink:href="#m"/>
<use x="193.847656" xlink:href="#d"/>
</g>
</g>
<g clip-path="url(#a)">
<g transform="translate(1502.2 943.47) scale(.1 -.1)">
<use xlink:href="#f"/>
</g>
</g>
<g clip-path="url(#a)">
<g transform="translate(1539.5 943.47) scale(.1 -.1)">
<use xlink:href="#ag"/>
<use x="81.787109" xlink:href="#v"/>
<use x="145.166016" xlink:href="#g"/>
<use x="172.949219" xlink:href="#h"/>
<use x="200.732422" xlink:href="#d"/>
</g>
</g>
<g clip-path="url(#a)">
<g transform="translate(1595 943.47) scale(.1 -.1)">
<use xlink:href="#m"/>
<use x="39.208984" xlink:href="#q"/>
</g>
</g>
<g clip-path="url(#a)">
<g transform="translate(1634.5 943.47) scale(.1 -.1)">
<use xlink:href="#aj"/>
<use x="63.476562" xlink:href="#w"/>
<use x="126.855469" xlink:href="#g"/>
<use x="154.638672" xlink:href="#d"/>
<use x="216.162109" xlink:href="#m"/>
</g>
</g>
<g clip-path="url(#a)">
<g transform="translate(1681.6 943.47) scale(.1 -.1)">
<use xlink:href="#m"/>
<use x="39.208984" xlink:href="#v"/>
<use x="102.587891" xlink:href="#d"/>
<use x="164.111328" xlink:href="#k"/>
</g>
</g>
<g clip-path="url(#a)">
<g transform="translate(1728.5 943.47) scale(.1 -.1)">
<use xlink:href="#x"/>
<use x="63.476562" xlink:href="#q"/>
<use x="124.658203" xlink:href="#ag"/>
<use x="206.445312" xlink:href="#j"/>
</g>
</g>
<g clip-path="url(#a)">
<defs>
<path id="e" d="m10.688 12.406h10.312v-12.406h-10.312z"/>
</defs>
<g transform="translate(1787.7 943.47) scale(.1 -.1)">
<use xlink:href="#e"/>
</g>
</g>
<g clip-path="url(#a)">
<defs>
<path id="c" d="m12.406 8.2969h16.109v55.625l-17.531-3.5156v8.9844l17.438 3.5156h9.8594v-64.609h16.109v-8.2969h-41.984z"/>
</defs>
<g transform="translate(638.4 48.716) scale(.1 -.1)">
<use xlink:href="#c"/>
<use x="63.623047" xlink:href="#e"/>
<use x="95.410156" xlink:href="#c"/>
</g>
</g>
<g clip-path="url(#a)">
<defs>
<path id="p" d="m19.188 8.2969h34.422v-8.2969h-46.281v8.2969q5.6094 5.8125 15.297 15.594 9.7031 9.7969 12.188 12.641 4.7344 5.3125 6.6094 9 1.8906 3.6875 1.8906 7.25 0 5.8125-4.0781 9.4688-4.0781 3.6719-10.625 3.6719-4.6406 0-9.7969-1.6094-5.1406-1.6094-11-4.8906v9.9688q5.9531 2.3906 11.125 3.6094 5.1875 1.2188 9.4844 1.2188 11.328 0 18.062-5.6719 6.7344-5.6562 6.7344-15.125 0-4.5-1.6875-8.5312-1.6719-4.0156-6.125-9.4844-1.2188-1.4219-7.7656-8.1875-6.5312-6.7656-18.453-18.922z"/>
</defs>
<g transform="translate(77.418 768.18) scale(.1 -.1)">
<use xlink:href="#c"/>
<use x="63.623047" xlink:href="#e"/>
<use x="95.410156" xlink:href="#p"/>
</g>
</g>
<g clip-path="url(#a)">
<defs>
<path id="o" d="m40.578 39.312q7.0781-1.5156 11.047-6.3125 3.9844-4.7812 3.9844-11.812 0-10.781-7.4219-16.703-7.4219-5.9062-21.094-5.9062-4.5781 0-9.4375 0.90625t-10.031 2.7188v9.5156q4.0938-2.3906 8.9688-3.6094 4.8906-1.2188 10.219-1.2188 9.2656 0 14.125 3.6562t4.8594 10.641q0 6.4531-4.5156 10.078-4.5156 3.6406-12.562 3.6406h-8.5v8.1094h8.8906q7.2656 0 11.125 2.9062t3.8594 8.375q0 5.6094-3.9844 8.6094-3.9688 3.0156-11.391 3.0156-4.0625 0-8.7031-0.89062-4.6406-0.875-10.203-2.7188v8.7812q5.625 1.5625 10.531 2.3438t9.25 0.78125q11.234 0 17.766-5.1094 6.5469-5.0938 6.5469-13.781 0-6.0625-3.4688-10.234t-9.8594-5.7812z"/>
</defs>
<g transform="translate(187.86 415.15) scale(.1 -.1)">
<use xlink:href="#c"/>
<use x="63.623047" xlink:href="#e"/>
<use x="95.410156" xlink:href="#o"/>
</g>
</g>
<g clip-path="url(#a)">
<defs>
<path id="n" d="m37.797 64.312-24.906-38.922h24.906zm-2.5938 8.5938h12.406v-47.516h10.406v-8.2031h-10.406v-17.188h-9.8125v17.188h-32.906v9.5156z"/>
</defs>
<g transform="translate(361.41 768.18) scale(.1 -.1)">
<use xlink:href="#c"/>
<use x="63.623047" xlink:href="#e"/>
<use x="95.410156" xlink:href="#n"/>
</g>
</g>
<g clip-path="url(#a)">
<defs>
<path id="s" d="m10.797 72.906h38.719v-8.3125h-29.688v-17.859q2.1406 0.73438 4.2812 1.0938 2.1562 0.35938 4.3125 0.35938 12.203 0 19.328-6.6875 7.1406-6.6875 7.1406-18.109 0-11.766-7.3281-18.297-7.3281-6.5156-20.656-6.5156-4.5938 0-9.3594 0.78125-4.75 0.78125-9.8281 2.3438v9.9219q4.3906-2.3906 9.0781-3.5625t9.9062-1.1719q8.4531 0 13.375 4.4375 4.9375 4.4375 4.9375 12.062 0 7.6094-4.9375 12.047-4.9219 4.4531-13.375 4.4531-3.9531 0-7.8906-0.875-3.9219-0.875-8.0156-2.7344z"/>
</defs>
<g transform="translate(731.38 234) scale(.1 -.1)">
<use xlink:href="#c"/>
<use x="63.623047" xlink:href="#e"/>
<use x="95.410156" xlink:href="#s"/>
</g>
</g>
<g clip-path="url(#a)">
<defs>
<path id="aa" d="m33.016 40.375q-6.6406 0-10.531-4.5469-3.875-4.5312-3.875-12.438 0-7.8594 3.875-12.438 3.8906-4.5625 10.531-4.5625t10.516 4.5625q3.875 4.5781 3.875 12.438 0 7.9062-3.875 12.438-3.875 4.5469-10.516 4.5469zm19.578 30.922v-8.9844q-3.7188 1.75-7.5 2.6719-3.7812 0.9375-7.5 0.9375-9.7656 0-14.922-6.5938-5.1406-6.5938-5.875-19.922 2.875 4.25 7.2188 6.5156 4.3594 2.2656 9.5781 2.2656 10.984 0 17.359-6.6719 6.375-6.6562 6.375-18.125 0-11.234-6.6406-18.031-6.6406-6.7812-17.672-6.7812-12.656 0-19.344 9.6875-6.6875 9.7031-6.6875 28.109 0 17.281 8.2031 27.562t22.016 10.281q3.7188 0 7.5-0.73438t7.8906-2.1875z"/>
</defs>
<g transform="translate(1400.9 415.15) scale(.1 -.1)">
<use xlink:href="#c"/>
<use x="63.623047" xlink:href="#e"/>
<use x="95.410156" xlink:href="#aa"/>
</g>
</g>
<g clip-path="url(#a)">
<defs>
<path id="z" d="m10.984 1.5156v8.9844q3.7188-1.7656 7.5156-2.6875 3.8125-0.92188 7.4844-0.92188 9.7656 0 14.906 6.5625 5.1562 6.5625 5.8906 19.953-2.8281-4.2031-7.1875-6.4531-4.3438-2.25-9.6094-2.25-10.938 0-17.312 6.6094-6.375 6.625-6.375 18.109 0 11.219 6.6406 18 6.6406 6.7969 17.672 6.7969 12.656 0 19.312-9.7031 6.6719-9.6875 6.6719-28.141 0-17.234-8.1875-27.516-8.1719-10.281-21.984-10.281-3.7188 0-7.5312 0.73438-3.7969 0.73438-7.9062 2.2031zm19.625 30.906q6.6406 0 10.516 4.5312 3.8906 4.5469 3.8906 12.469 0 7.8594-3.8906 12.422-3.875 4.5625-10.516 4.5625t-10.516-4.5625-3.875-12.422q0-7.9219 3.875-12.469 3.875-4.5312 10.516-4.5312z"/>
</defs>
<g transform="translate(1118.7 768.18) scale(.1 -.1)">
<use xlink:href="#c"/>
<use x="63.623047" xlink:href="#e"/>
<use x="95.410156" xlink:href="#z"/>
</g>
</g>
<g clip-path="url(#a)">
<defs>
<path id="ab" d="m31.781 66.406q-7.6094 0-11.453-7.5-3.8281-7.4844-3.8281-22.531 0-14.984 3.8281-22.484 3.8438-7.5 11.453-7.5 7.6719 0 11.5 7.5 3.8438 7.5 3.8438 22.484 0 15.047-3.8438 22.531-3.8281 7.5-11.5 7.5zm0 7.8125q12.266 0 18.734-9.7031 6.4688-9.6875 6.4688-28.141 0-18.406-6.4688-28.109-6.4688-9.6875-18.734-9.6875-12.25 0-18.719 9.6875-6.4688 9.7031-6.4688 28.109 0 18.453 6.4688 28.141 6.4688 9.7031 18.719 9.7031z"/>
</defs>
<g transform="translate(1162.9 768.18) scale(.1 -.1)">
<use xlink:href="#c"/>
<use x="63.623047" xlink:href="#e"/>
<use x="95.410156" xlink:href="#c"/>
<use x="159.033203" xlink:href="#ab"/>
</g>
</g>
<g clip-path="url(#a)">
<g transform="translate(1210.2 768.18) scale(.1 -.1)">
<use xlink:href="#c"/>
<use x="63.623047" xlink:href="#e"/>
<use x="95.410156" xlink:href="#c"/>
<use x="159.033203" xlink:href="#c"/>
</g>
</g>
<g clip-path="url(#a)">
<g transform="translate(1257.5 768.18) scale(.1 -.1)">
<use xlink:href="#c"/>
<use x="63.623047" xlink:href="#e"/>
<use x="95.410156" xlink:href="#c"/>
<use x="159.033203" xlink:href="#p"/>
</g>
</g>
<g clip-path="url(#a)">
<g transform="translate(1352.2 592.88) scale(.1 -.1)">
<use xlink:href="#c"/>
<use x="63.623047" xlink:href="#e"/>
<use x="95.410156" xlink:href="#c"/>
<use x="159.033203" xlink:href="#o"/>
</g>
</g>
<g clip-path="url(#a)">
<g transform="translate(1494.2 592.88) scale(.1 -.1)">
<use xlink:href="#c"/>
<use x="63.623047" xlink:href="#e"/>
<use x="95.410156" xlink:href="#c"/>
<use x="159.033203" xlink:href="#n"/>
</g>
</g>
<g clip-path="url(#a)">
<g transform="translate(1588.8 768.18) scale(.1 -.1)">
<use xlink:href="#c"/>
<use x="63.623047" xlink:href="#e"/>
<use x="95.410156" xlink:href="#c"/>
<use x="159.033203" xlink:href="#s"/>
</g>
</g>
<g clip-path="url(#a)">
<g transform="translate(1715.1 592.88) scale(.1 -.1)">
<use xlink:href="#c"/>
<use x="63.623047" xlink:href="#e"/>
<use x="95.410156" xlink:href="#c"/>
<use x="159.033203" xlink:href="#aa"/>
</g>
</g>
<g clip-path="url(#a)">
<defs>
<path id="af" d="m8.2031 72.906h46.875v-4.2031l-26.469-68.703h-10.297l24.906 64.594h-35.016z"/>
</defs>
<g transform="translate(1683.5 768.18) scale(.1 -.1)">
<use xlink:href="#c"/>
<use x="63.623047" xlink:href="#e"/>
<use x="95.410156" xlink:href="#c"/>
<use x="159.033203" xlink:href="#af"/>
</g>
</g>
<g clip-path="url(#a)">
<defs>
<path id="ae" d="m31.781 34.625q-7.0312 0-11.062-3.7656-4.0156-3.7656-4.0156-10.344 0-6.5938 4.0156-10.359 4.0312-3.7656 11.062-3.7656t11.078 3.7812q4.0625 3.7969 4.0625 10.344 0 6.5781-4.0312 10.344-4.0156 3.7656-11.109 3.7656zm-9.8594 4.1875q-6.3438 1.5625-9.8906 5.9062-3.5312 4.3594-3.5312 10.609 0 8.7344 6.2188 13.812 6.2344 5.0781 17.062 5.0781 10.891 0 17.094-5.0781t6.2031-13.812q0-6.25-3.5469-10.609-3.5312-4.3438-9.8281-5.9062 7.125-1.6562 11.094-6.5 3.9844-4.8281 3.9844-11.797 0-10.609-6.4688-16.281-6.4688-5.6562-18.531-5.6562-12.047 0-18.531 5.6562-6.4688 5.6719-6.4688 16.281 0 6.9688 4 11.797 4.0156 4.8438 11.141 6.5zm-3.6094 15.578q0-5.6562 3.5312-8.8281 3.5469-3.1719 9.9375-3.1719 6.3594 0 9.9375 3.1719 3.5938 3.1719 3.5938 8.8281 0 5.6719-3.5938 8.8438-3.5781 3.1719-9.9375 3.1719-6.3906 0-9.9375-3.1719-3.5312-3.1719-3.5312-8.8438z"/>
</defs>
<g transform="translate(1636.2 768.18) scale(.1 -.1)">
<use xlink:href="#c"/>
<use x="63.623047" xlink:href="#e"/>
<use x="95.410156" xlink:href="#c"/>
<use x="159.033203" xlink:href="#ae"/>
</g>
</g>
<g clip-path="url(#a)">
<g transform="translate(1730.8 768.18) scale(.1 -.1)">
<use xlink:href="#c"/>
<use x="63.623047" xlink:href="#e"/>
<use x="95.410156" xlink:href="#c"/>
<use x="159.033203" xlink:href="#z"/>
</g>
</g>
<g clip-path="url(#a)">
<g transform="translate(1446.8 768.18) scale(.1 -.1)">
<use xlink:href="#c"/>
<use x="63.623047" xlink:href="#e"/>
<use x="95.410156" xlink:href="#p"/>
<use x="159.033203" xlink:href="#ab"/>
</g>
</g>
<g clip-path="url(#a)">
<g transform="translate(1494.2 768.18) scale(.1 -.1)">
<use xlink:href="#c"/>
<use x="63.623047" xlink:href="#e"/>
<use x="95.410156" xlink:href="#p"/>
<use x="159.033203" xlink:href="#c"/>
</g>
</g>
<g clip-path="url(#a)">
<g transform="translate(1541.5 768.18) scale(.1 -.1)">
<use xlink:href="#c"/>
<use x="63.623047" xlink:href="#e"/>
<use x="95.410156" xlink:href="#p"/>
<use x="159.033203" xlink:href="#p"/>
</g>
</g>
<g clip-path="url(#a)">
<g transform="translate(1304.9 768.18) scale(.1 -.1)">
<use xlink:href="#c"/>
<use x="63.623047" xlink:href="#e"/>
<use x="95.410156" xlink:href="#p"/>
<use x="159.033203" xlink:href="#o"/>
</g>
</g>
<g clip-path="url(#a)">
<g transform="translate(1352.2 768.18) scale(.1 -.1)">
<use xlink:href="#c"/>
<use x="63.623047" xlink:href="#e"/>
<use x="95.410156" xlink:href="#p"/>
<use x="159.033203" xlink:href="#n"/>
</g>
</g>
<g clip-path="url(#a)">
<g transform="translate(1399.5 768.18) scale(.1 -.1)">
<use xlink:href="#c"/>
<use x="63.623047" xlink:href="#e"/>
<use x="95.410156" xlink:href="#p"/>
<use x="159.033203" xlink:href="#s"/>
</g>
</g>
<g clip-path="url(#a)">
<g transform="translate(476.55 415.15) scale(.1 -.1)">
<use xlink:href="#c"/>
<use x="63.623047" xlink:href="#e"/>
<use x="95.410156" xlink:href="#p"/>
<use x="159.033203" xlink:href="#aa"/>
</g>
</g>
<g clip-path="url(#a)">
<g transform="translate(642.21 592.88) scale(.1 -.1)">
<use xlink:href="#c"/>
<use x="63.623047" xlink:href="#e"/>
<use x="95.410156" xlink:href="#p"/>
<use x="159.033203" xlink:href="#af"/>
</g>
</g>
<g clip-path="url(#a)">
<g transform="translate(736.88 768.18) scale(.1 -.1)">
<use xlink:href="#c"/>
<use x="63.623047" xlink:href="#e"/>
<use x="95.410156" xlink:href="#p"/>
<use x="159.033203" xlink:href="#ae"/>
</g>
</g>
<g clip-path="url(#a)">
<g transform="translate(819.71 415.15) scale(.1 -.1)">
<use xlink:href="#c"/>
<use x="63.623047" xlink:href="#e"/>
<use x="95.410156" xlink:href="#p"/>
<use x="159.033203" xlink:href="#z"/>
</g>
</g>
<g clip-path="url(#a)">
<g transform="translate(965.64 415.15) scale(.1 -.1)">
<use xlink:href="#c"/>
<use x="63.623047" xlink:href="#e"/>
<use x="95.410156" xlink:href="#o"/>
<use x="159.033203" xlink:href="#ab"/>
</g>
</g>
<g clip-path="url(#a)">
<g transform="translate(902.53 592.88) scale(.1 -.1)">
<use xlink:href="#c"/>
<use x="63.623047" xlink:href="#e"/>
<use x="95.410156" xlink:href="#o"/>
<use x="159.033203" xlink:href="#c"/>
</g>
</g>
<g clip-path="url(#a)">
<g transform="translate(973.53 768.18) scale(.1 -.1)">
<use xlink:href="#c"/>
<use x="63.623047" xlink:href="#e"/>
<use x="95.410156" xlink:href="#o"/>
<use x="159.033203" xlink:href="#p"/>
</g>
</g>
<g clip-path="url(#a)">
<g transform="translate(1020.9 768.18) scale(.1 -.1)">
<use xlink:href="#c"/>
<use x="63.623047" xlink:href="#e"/>
<use x="95.410156" xlink:href="#o"/>
<use x="159.033203" xlink:href="#o"/>
</g>
</g>
<g clip-path="url(#a)">
<g transform="translate(878.87 768.18) scale(.1 -.1)">
<use xlink:href="#c"/>
<use x="63.623047" xlink:href="#e"/>
<use x="95.410156" xlink:href="#o"/>
<use x="159.033203" xlink:href="#n"/>
</g>
</g>
<g clip-path="url(#a)">
<g transform="translate(926.2 768.18) scale(.1 -.1)">
<use xlink:href="#c"/>
<use x="63.623047" xlink:href="#e"/>
<use x="95.410156" xlink:href="#o"/>
<use x="159.033203" xlink:href="#s"/>
</g>
</g>
<g clip-path="url(#a)">
<g transform="translate(807.87 592.88) scale(.1 -.1)">
<use xlink:href="#c"/>
<use x="63.623047" xlink:href="#e"/>
<use x="95.410156" xlink:href="#o"/>
<use x="159.033203" xlink:href="#aa"/>
</g>
</g>
<g clip-path="url(#a)">
<g transform="translate(831.54 768.18) scale(.1 -.1)">
<use xlink:href="#c"/>
<use x="63.623047" xlink:href="#e"/>
<use x="95.410156" xlink:href="#o"/>
<use x="159.033203" xlink:href="#af"/>
</g>
</g>
<g clip-path="url(#a)">
<g transform="translate(784.21 768.18) scale(.1 -.1)">
<use xlink:href="#c"/>
<use x="63.623047" xlink:href="#e"/>
<use x="95.410156" xlink:href="#o"/>
<use x="159.033203" xlink:href="#ae"/>
</g>
</g>
<g clip-path="url(#a)">
<g transform="translate(594.88 768.18) scale(.1 -.1)">
<use xlink:href="#c"/>
<use x="63.623047" xlink:href="#e"/>
<use x="95.410156" xlink:href="#o"/>
<use x="159.033203" xlink:href="#z"/>
</g>
</g>
<g clip-path="url(#a)">
<g transform="translate(642.21 768.18) scale(.1 -.1)">
<use xlink:href="#c"/>
<use x="63.623047" xlink:href="#e"/>
<use x="95.410156" xlink:href="#n"/>
<use x="159.033203" xlink:href="#ab"/>
</g>
</g>
<g clip-path="url(#a)">
<g transform="translate(689.54 768.18) scale(.1 -.1)">
<use xlink:href="#c"/>
<use x="63.623047" xlink:href="#e"/>
<use x="95.410156" xlink:href="#n"/>
<use x="159.033203" xlink:href="#c"/>
</g>
</g>
<g clip-path="url(#a)">
<g transform="translate(476.55 592.88) scale(.1 -.1)">
<use xlink:href="#c"/>
<use x="63.623047" xlink:href="#e"/>
<use x="95.410156" xlink:href="#n"/>
<use x="159.033203" xlink:href="#p"/>
</g>
</g>
<g clip-path="url(#a)">
<g transform="translate(452.89 768.18) scale(.1 -.1)">
<use xlink:href="#c"/>
<use x="63.623047" xlink:href="#e"/>
<use x="95.410156" xlink:href="#n"/>
<use x="159.033203" xlink:href="#o"/>
</g>
</g>
<g clip-path="url(#a)">
<g transform="translate(500.22 768.18) scale(.1 -.1)">
<use xlink:href="#c"/>
<use x="63.623047" xlink:href="#e"/>
<use x="95.410156" xlink:href="#n"/>
<use x="159.033203" xlink:href="#n"/>
</g>
</g>
<g clip-path="url(#a)">
<g transform="translate(405.56 768.18) scale(.1 -.1)">
<use xlink:href="#c"/>
<use x="63.623047" xlink:href="#e"/>
<use x="95.410156" xlink:href="#n"/>
<use x="159.033203" xlink:href="#s"/>
</g>
</g>
<g clip-path="url(#a)">
<g transform="translate(547.55 768.18) scale(.1 -.1)">
<use xlink:href="#c"/>
<use x="63.623047" xlink:href="#e"/>
<use x="95.410156" xlink:href="#n"/>
<use x="159.033203" xlink:href="#aa"/>
</g>
</g>
<g clip-path="url(#a)">
<g transform="translate(121.57 768.18) scale(.1 -.1)">
<use xlink:href="#c"/>
<use x="63.623047" xlink:href="#e"/>
<use x="95.410156" xlink:href="#n"/>
<use x="159.033203" xlink:href="#af"/>
</g>
</g>
<g clip-path="url(#a)">
<g transform="translate(168.9 768.18) scale(.1 -.1)">
<use xlink:href="#c"/>
<use x="63.623047" xlink:href="#e"/>
<use x="95.410156" xlink:href="#n"/>
<use x="159.033203" xlink:href="#ae"/>
</g>
</g>
<g clip-path="url(#a)">
<g transform="translate(263.56 592.88) scale(.1 -.1)">
<use xlink:href="#c"/>
<use x="63.623047" xlink:href="#e"/>
<use x="95.410156" xlink:href="#n"/>
<use x="159.033203" xlink:href="#z"/>
</g>
</g>
<g clip-path="url(#a)">
<g transform="translate(216.23 768.18) scale(.1 -.1)">
<use xlink:href="#c"/>
<use x="63.623047" xlink:href="#e"/>
<use x="95.410156" xlink:href="#s"/>
<use x="159.033203" xlink:href="#ab"/>
</g>
</g>
<g clip-path="url(#a)">
<g transform="translate(263.56 768.18) scale(.1 -.1)">
<use xlink:href="#c"/>
<use x="63.623047" xlink:href="#e"/>
<use x="95.410156" xlink:href="#s"/>
<use x="159.033203" xlink:href="#c"/>
</g>
</g>
<g clip-path="url(#a)">
<g transform="translate(310.89 768.18) scale(.1 -.1)">
<use xlink:href="#c"/>
<use x="63.623047" xlink:href="#e"/>
<use x="95.410156" xlink:href="#s"/>
<use x="159.033203" xlink:href="#p"/>
</g>
</g>
<g clip-path="url(#a)">
<g transform="translate(1068.2 768.18) scale(.1 -.1)">
<use xlink:href="#c"/>
<use x="63.623047" xlink:href="#e"/>
<use x="95.410156" xlink:href="#s"/>
<use x="159.033203" xlink:href="#o"/>
</g>
</g>
<g clip-path="url(#a)">
<g transform="translate(1778.2 768.18) scale(.1 -.1)">
<use xlink:href="#c"/>
<use x="63.623047" xlink:href="#e"/>
<use x="95.410156" xlink:href="#s"/>
<use x="159.033203" xlink:href="#n"/>
</g>
</g>
<defs>
<clipPath id="a">
<rect width="1874.7" height="986.67"/>
</clipPath>
</defs>
</svg>
