<?xml version="1.0" encoding="UTF-8"?>
<!DOCTYPE svg  PUBLIC '-//W3C//DTD SVG 1.1//EN'  'http://www.w3.org/Graphics/SVG/1.1/DTD/svg11.dtd'>
<svg width="2077.3pt" height="1093.3pt" version="1.1" viewBox="0 0 2077.3 1093.3" xmlns="http://www.w3.org/2000/svg" xmlns:xlink="http://www.w3.org/1999/xlink">
<defs>
<style type="text/css">*{stroke-linecap:butt;stroke-linejoin:round;}</style>
</defs>
<path d="m0 1093.3h2077.3v-1093.3h-2077.3z" fill="#fff"/>
<g fill="none" stroke="#000">
<path d="m916.65 50.611-728.06 343.23" clip-path="url(#a)"/>
<path d="m916.65 50.611-401.85 508.91" clip-path="url(#a)"/>
<path d="m916.65 50.611-407.6 831.79" clip-path="url(#a)"/>
<path d="m916.65 50.611-177.33 831.79" clip-path="url(#a)"/>
<path d="m916.65 50.611-131.28 831.79" clip-path="url(#a)"/>
<path d="m916.65 50.611-27.658 671.47" clip-path="url(#a)"/>
<path d="m916.65 50.611 98.99 831.79" clip-path="url(#a)"/>
<path d="m916.65 50.611 427.12 508.91" clip-path="url(#a)"/>
<path d="m916.65 50.611 467.42 831.79" clip-path="url(#a)"/>
<path d="m916.65 50.611 629.33 173.77" clip-path="url(#a)"/>
<path d="m916.65 50.611-223.39 831.79" clip-path="url(#a)"/>
<path d="m916.65 50.611 52.936 831.79" clip-path="url(#a)"/>
<path d="m916.65 50.611 421.37 831.79" clip-path="url(#a)"/>
<path d="m188.59 393.84-94.027 488.56" clip-path="url(#a)"/>
<path d="m188.59 393.84-47.973 488.56" clip-path="url(#a)"/>
<path d="m188.59 393.84 97.864 165.68" clip-path="url(#a)"/>
<path d="m188.59 393.84 44.135 488.56" clip-path="url(#a)"/>
<path d="m514.8 559.52-97.864 322.88" clip-path="url(#a)"/>
<path d="m514.8 559.52-51.811 322.88" clip-path="url(#a)"/>
<path d="m514.8 559.52 40.297 322.88" clip-path="url(#a)"/>
<path d="m514.8 559.52 109.38 162.55" clip-path="url(#a)"/>
<path d="m509.05 882.4v160.32" clip-path="url(#a)"/>
<path d="m739.32 882.4v160.32" clip-path="url(#a)"/>
<path d="m785.37 882.4v160.32" clip-path="url(#a)"/>
<path d="m888.99 722.08-34.54 160.32" clip-path="url(#a)"/>
<path d="m888.99 722.08 34.54 160.32" clip-path="url(#a)"/>
<path d="m1015.6 882.4v160.32" clip-path="url(#a)"/>
<path d="m1343.8 559.52 639 483.2" clip-path="url(#a)"/>
<path d="m1343.8 559.52-282.08 322.88" clip-path="url(#a)"/>
<path d="m1343.8 559.52-236.03 322.88" clip-path="url(#a)"/>
<path d="m1343.8 559.52-120.89 162.55" clip-path="url(#a)"/>
<path d="m1384.1 882.4v160.32" clip-path="url(#a)"/>
<path d="m1546 224.38-115.85 658.02" clip-path="url(#a)"/>
<path d="m1546 224.38-69.8 658.02" clip-path="url(#a)"/>
<path d="m1546 224.38-23.747 658.02" clip-path="url(#a)"/>
<path d="m1546 224.38 209.4 169.46" clip-path="url(#a)"/>
<path d="m1430.1 882.4v160.32" clip-path="url(#a)"/>
<path d="m1476.2 882.4v160.32" clip-path="url(#a)"/>
<path d="m1522.2 882.4v160.32" clip-path="url(#a)"/>
<path d="m1755.4 393.84-187.09 488.56" clip-path="url(#a)"/>
<path d="m1755.4 393.84-141.04 488.56" clip-path="url(#a)"/>
<path d="m1755.4 393.84-94.986 488.56" clip-path="url(#a)"/>
<path d="m1755.4 393.84-25.905 165.68" clip-path="url(#a)"/>
<path d="m1755.4 393.84 43.175 488.56" clip-path="url(#a)"/>
<path d="m1755.4 393.84 89.229 488.56" clip-path="url(#a)"/>
<path d="m1755.4 393.84 135.28 488.56" clip-path="url(#a)"/>
<path d="m1755.4 393.84 181.34 488.56" clip-path="url(#a)"/>
<path d="m1568.3 882.4v160.32" clip-path="url(#a)"/>
<path d="m1614.3 882.4v160.32" clip-path="url(#a)"/>
<path d="m1660.4 882.4v160.32" clip-path="url(#a)"/>
<path d="m1729.5 559.52-23.027 162.55" clip-path="url(#a)"/>
<path d="m1729.5 559.52 23.027 322.88" clip-path="url(#a)"/>
<path d="m1798.6 882.4v160.32" clip-path="url(#a)"/>
<path d="m1844.6 882.4v160.32" clip-path="url(#a)"/>
<path d="m1890.7 882.4v160.32" clip-path="url(#a)"/>
<path d="m1706.4 722.08v160.32" clip-path="url(#a)"/>
<path d="m1752.5 882.4v160.32" clip-path="url(#a)"/>
<path d="m1706.4 882.4v160.32" clip-path="url(#a)"/>
<path d="m1061.7 882.4v160.32" clip-path="url(#a)"/>
<path d="m1107.7 882.4v160.32" clip-path="url(#a)"/>
<path d="m1222.9 722.08-69.081 160.32" clip-path="url(#a)"/>
<path d="m1222.9 722.08-23.027 160.32" clip-path="url(#a)"/>
<path d="m1222.9 722.08 23.027 160.32" clip-path="url(#a)"/>
<path d="m1222.9 722.08 69.081 160.32" clip-path="url(#a)"/>
<path d="m1153.8 882.4v160.32" clip-path="url(#a)"/>
<path d="m1199.9 882.4v160.32" clip-path="url(#a)"/>
<path d="m1245.9 882.4v160.32" clip-path="url(#a)"/>
<path d="m1292 882.4v160.32" clip-path="url(#a)"/>
<path d="m854.45 882.4-23.027 160.32" clip-path="url(#a)"/>
<path d="m854.45 882.4 23.027 160.32" clip-path="url(#a)"/>
<path d="m923.53 882.4v160.32" clip-path="url(#a)"/>
<path d="m416.94 882.4v160.32" clip-path="url(#a)"/>
<path d="m462.99 882.4v160.32" clip-path="url(#a)"/>
<path d="m555.1 882.4v160.32" clip-path="url(#a)"/>
<path d="m624.18 722.08-23.027 160.32" clip-path="url(#a)"/>
<path d="m624.18 722.08 23.027 160.32" clip-path="url(#a)"/>
<path d="m601.15 882.4v160.32" clip-path="url(#a)"/>
<path d="m647.21 882.4v160.32" clip-path="url(#a)"/>
<path d="m94.562 882.4v160.32" clip-path="url(#a)"/>
<path d="m140.62 882.4v160.32" clip-path="url(#a)"/>
<path d="m286.45 559.52-99.783 322.88" clip-path="url(#a)"/>
<path d="m286.45 559.52 15.351 162.55" clip-path="url(#a)"/>
<path d="m286.45 559.52 84.432 322.88" clip-path="url(#a)"/>
<path d="m232.72 882.4v160.32" clip-path="url(#a)"/>
<path d="m186.67 882.4v160.32" clip-path="url(#a)"/>
<path d="m301.8 722.08-23.027 160.32" clip-path="url(#a)"/>
<path d="m301.8 722.08 23.027 160.32" clip-path="url(#a)"/>
<path d="m370.89 882.4v160.32" clip-path="url(#a)"/>
<path d="m278.78 882.4v160.32" clip-path="url(#a)"/>
<path d="m324.83 882.4v160.32" clip-path="url(#a)"/>
<path d="m693.26 882.4v160.32" clip-path="url(#a)"/>
<path d="m969.59 882.4v160.32" clip-path="url(#a)"/>
<path d="m1338 882.4v160.32" clip-path="url(#a)"/>
<path d="m1936.7 882.4v160.32" clip-path="url(#a)"/>
</g>
<path d="m552.57 229.18 5.4418-2.5655q2.1709-1.0234 1.1475-3.1943l-3.3016-7.0033q-1.0234-2.1709-3.1943-1.1475l-5.4418 2.5655q-2.1709 1.0234-1.1475 3.1943l3.3016 7.0033q1.0234 2.1709 3.1943 1.1475z" clip-path="url(#a)" fill="#fff" stroke="#fff"/>
<g clip-path="url(#a)">
<defs>
<path id="ac" d="m9.8125 72.906h9.8594v-29.891h35.844v29.891h9.8594v-72.906h-9.8594v34.719h-35.844v-34.719h-9.8594z"/>
</defs>
<g transform="translate(550.84 225.51) rotate(-25.241) scale(.08 -.08)">
<use xlink:href="#ac"/>
</g>
</g>
<path d="m718.78 311.31 3.7284-4.7217q1.4873-1.8836-0.39628-3.3709l-6.0765-4.7981q-1.8836-1.4873-3.3709 0.39628l-3.7284 4.7217q-1.4873 1.8836 0.39628 3.3709l6.0765 4.7981q1.8836 1.4873 3.3709-0.39628z" clip-path="url(#a)" fill="#fff" stroke="#fff"/>
<g clip-path="url(#a)">
<g transform="translate(715.6 308.8) rotate(-51.705) scale(.08 -.08)">
<use xlink:href="#ac"/>
</g>
</g>
<path d="m717.5 471.27 1.9615-4.0027q1.0561-2.1552-1.0991-3.2112l-6.9526-3.407q-2.1551-1.0561-3.2112 1.0991l-1.9615 4.0027q-1.0561 2.1552 1.0991 3.2112l6.9526 3.407q2.1551 1.0561 3.2112-1.0991z" clip-path="url(#a)" fill="#fff" stroke="#fff"/>
<g clip-path="url(#a)">
<defs>
<path id="x" d="m9.8125 72.906h9.8594v-64.609h35.5v-8.2969h-45.359z"/>
</defs>
<g transform="translate(713.85 469.48) rotate(-63.894) scale(.08 -.08)">
<use xlink:href="#x"/>
</g>
</g>
<path d="m833.65 469.99 0.92943-4.3595q0.50042-2.3472-1.8468-2.8477l-7.5723-1.6144q-2.3472-0.50042-2.8477 1.8468l-0.92943 4.3595q-0.50042 2.3472 1.8468 2.8477l7.5723 1.6144q2.3472 0.50042 2.8477-1.8468z" clip-path="url(#a)" fill="#fff" stroke="#fff"/>
<g clip-path="url(#a)">
<g transform="translate(829.68 469.15) rotate(-77.965) scale(.08 -.08)">
<use xlink:href="#x"/>
</g>
</g>
<path d="m856.86 469.68 0.69492-4.403q0.37416-2.3707-1.9965-2.7448l-7.6478-1.207q-2.3707-0.37416-2.7448 1.9965l-0.69492 4.403q-0.37416 2.3707 1.9965 2.7448l7.6478 1.207q2.3707 0.37416 2.7448-1.9965z" clip-path="url(#a)" fill="#fff" stroke="#fff"/>
<g clip-path="url(#a)">
<g transform="translate(852.84 469.05) rotate(-81.031) scale(.08 -.08)">
<use xlink:href="#x"/>
</g>
</g>
<path d="m908.96 389.61 0.2476-6.0112q0.098774-2.398-2.2992-2.4967l-7.7359-0.31865q-2.398-0.098774-2.4967 2.2992l-0.2476 6.0112q-0.098774 2.398 2.2992 2.4967l7.7359 0.31865q2.398 0.098774 2.4967-2.2992z" clip-path="url(#a)" fill="#fff" stroke="#fff"/>
<g clip-path="url(#a)">
<g transform="translate(904.9 389.44) rotate(-87.641) scale(.08 -.08)">
<use xlink:href="#ac"/>
</g>
</g>
<path d="m959.65 465.03 0.52676 4.4263q0.28362 2.3832 2.6668 2.0996l7.6882-0.91497q2.3832-0.28362 2.0996-2.6668l-0.52676-4.4263q-0.28362-2.3832-2.6668-2.0996l-7.6882 0.91497q-2.3832 0.28362-2.0996 2.6668z" clip-path="url(#a)" fill="#fff" stroke="#fff"/>
<g clip-path="url(#a)">
<g transform="translate(963.69 464.55) rotate(83.213) scale(.08 -.08)">
<use xlink:href="#x"/>
</g>
</g>
<path d="m1123.5 306.8 3.8677 4.6083q1.5429 1.8383 3.3812 0.29544l5.9306-4.9774q1.8383-1.5429 0.29544-3.3812l-3.8677-4.6083q-1.5429-1.8383-3.3812-0.29544l-5.9306 4.9774q-1.8383 1.5429-0.29544 3.3812z" clip-path="url(#a)" fill="#fff" stroke="#fff"/>
<g clip-path="url(#a)">
<g transform="translate(1126.6 304.18) rotate(49.994) scale(.08 -.08)">
<use xlink:href="#ac"/>
</g>
</g>
<path d="m1143.8 467.63 2.1837 3.886q1.1757 2.0923 3.268 0.91653l6.7498-3.793q2.0923-1.1757 0.91653-3.268l-2.1837-3.886q-1.1757-2.0923-3.268-0.91653l-6.7498 3.793q-2.0923 1.1757-0.91653 3.268z" clip-path="url(#a)" fill="#fff" stroke="#fff"/>
<g clip-path="url(#a)">
<g transform="translate(1147.3 465.64) rotate(60.666) scale(.08 -.08)">
<use xlink:href="#x"/>
</g>
</g>
<path d="m1226.7 142.74 5.7992 1.6013q2.3134 0.63879 2.9522-1.6746l2.0608-7.4632q0.63879-2.3134-1.6746-2.9522l-5.7992-1.6013q-2.3134-0.63879-2.9522 1.6746l-2.0608 7.4632q-0.63879 2.3134 1.6746 2.9522z" clip-path="url(#a)" fill="#fff" stroke="#fff"/>
<g clip-path="url(#a)">
<g transform="translate(1227.8 138.82) rotate(15.436) scale(.08 -.08)">
<use xlink:href="#ac"/>
</g>
</g>
<path d="m810.25 470.96 1.5186-5.6546q0.62249-2.3179-1.6954-2.9404l-7.4775-2.0082q-2.3179-0.62249-2.9404 1.6954l-1.5186 5.6546q-0.62249 2.3179 1.6954 2.9404l7.4775 2.0082q2.3179 0.62249 2.9404-1.6954z" clip-path="url(#a)" fill="#fff" stroke="#fff"/>
<g clip-path="url(#a)">
<defs>
<path id="ag" d="m8.6875 72.906h9.9219v-44.297q0-11.719 4.2344-16.875 4.25-5.1406 13.781-5.1406 9.4688 0 13.719 5.1406 4.25 5.1562 4.25 16.875v44.297h9.9062v-45.516q0-14.25-7.0625-21.531-7.0469-7.2812-20.812-7.2812-13.828 0-20.891 7.2812-7.0469 7.2812-7.0469 21.531z"/>
</defs>
<g transform="translate(806.33 469.91) rotate(-74.967) scale(.08 -.08)">
<use xlink:href="#ag"/>
</g>
</g>
<path d="m936.67 463.98 0.37187 5.8432q0.15243 2.3952 2.5476 2.2427l7.7269-0.49175q2.3952-0.15243 2.2427-2.5476l-0.37187-5.8432q-0.15243-2.3952-2.5476-2.2427l-7.7269 0.49175q-2.3952 0.15243-2.2427 2.5476z" clip-path="url(#a)" fill="#fff" stroke="#fff"/>
<g clip-path="url(#a)">
<g transform="translate(940.73 463.72) rotate(86.359) scale(.08 -.08)">
<use xlink:href="#ag"/>
</g>
</g>
<path d="m1120.4 466.73 2.6459 5.2231q1.0846 2.141 3.2255 1.0564l6.9068-3.4989q2.141-1.0846 1.0564-3.2255l-2.6459-5.2231q-1.0846-2.141-3.2255-1.0564l-6.9068 3.4989q-2.141 1.0846-1.0564 3.2255z" clip-path="url(#a)" fill="#fff" stroke="#fff"/>
<g clip-path="url(#a)">
<g transform="translate(1124 464.89) rotate(63.134) scale(.08 -.08)">
<use xlink:href="#ag"/>
</g>
</g>
<path d="m147.22 641.99 1.0342-5.3739q0.45357-2.3568-1.9032-2.8103l-7.603-1.4632q-2.3568-0.45357-2.8103 1.9032l-1.0342 5.3739q-0.45357 2.3568 1.9032 2.8103l7.603 1.4632q2.3568 0.45357 2.8103-1.9032z" clip-path="url(#a)" fill="#fff" stroke="#fff"/>
<g clip-path="url(#a)">
<defs>
<path id="t" d="m34.188 63.188-13.391-36.281h26.812zm-5.5781 9.7188h11.188l27.781-72.906h-10.25l-6.6406 18.703h-32.859l-6.6406-18.703h-10.406z"/>
</defs>
<g transform="translate(143.23 641.22) rotate(-79.106) scale(.08 -.08)">
<use xlink:href="#t"/>
</g>
</g>
<path d="m170.62 641.02 0.44964-4.5792q0.23454-2.3885-2.154-2.623l-7.7054-0.75662q-2.3885-0.23453-2.623 2.154l-0.44965 4.5792q-0.23453 2.3885 2.154 2.623l7.7054 0.75662q2.3885 0.23453 2.623-2.154z" clip-path="url(#a)" fill="#fff" stroke="#fff"/>
<g clip-path="url(#a)">
<defs>
<path id="u" d="m9.8125 72.906h41.891v-8.3125h-32.031v-21.484h28.906v-8.2969h-28.906v-34.812h-9.8594z"/>
</defs>
<g transform="translate(166.57 640.63) rotate(-84.392) scale(.08 -.08)">
<use xlink:href="#u"/>
</g>
</g>
<path d="m230.73 477.52 2.7832 4.7119q1.2206 2.0664 3.287 0.84585l6.6664-3.9377q2.0664-1.2206 0.84585-3.287l-2.7832-4.7119q-1.2206-2.0664-3.287-0.84585l-6.6664 3.9377q-2.0664 1.2206-0.84585 3.287z" clip-path="url(#a)" fill="#fff" stroke="#fff"/>
<g clip-path="url(#a)">
<g transform="translate(234.23 475.45) rotate(59.431) scale(.08 -.08)">
<use xlink:href="#t"/>
</g>
</g>
<path d="m204.18 636.16 0.45694 5.0582q0.21593 2.3903 2.6062 2.1743l7.7111-0.6966q2.3903-0.21593 2.1743-2.6062l-0.45694-5.0582q-0.21593-2.3903-2.6062-2.1743l-7.7111 0.6966q-2.3903 0.21593-2.1743 2.6062z" clip-path="url(#a)" fill="#fff" stroke="#fff"/>
<g clip-path="url(#a)">
<defs>
<path id="ab" d="m53.516 70.516v-9.625q-5.6094 2.6875-10.594 4-4.9844 1.3281-9.625 1.3281-8.0469 0-12.422-3.125t-4.375-8.8906q0-4.8438 2.9062-7.3125 2.9062-2.4531 11.016-3.9688l5.9531-1.2188q11.031-2.1094 16.281-7.4062t5.25-14.172q0-10.609-7.1094-16.078-7.0938-5.4688-20.812-5.4688-5.1719 0-11.016 1.1719-5.8281 1.1719-12.078 3.4688v10.156q6-3.3594 11.766-5.0781 5.7656-1.7031 11.328-1.7031 8.4375 0 13.031 3.3125 4.5938 3.3281 4.5938 9.4844 0 5.3594-3.2969 8.3906t-10.812 4.5469l-6.0156 1.1719q-11.031 2.1875-15.969 6.875-4.9219 4.6875-4.9219 13.047 0 9.6719 6.8125 15.234t18.766 5.5625q5.1406 0 10.453-0.9375 5.3281-0.92188 10.891-2.7656z"/>
</defs>
<g transform="translate(208.23 635.79) rotate(84.838) scale(.08 -.08)">
<use xlink:href="#ab"/>
</g>
</g>
<path d="m471.08 725.4 1.5874-5.2372q0.69617-2.2968-1.6006-2.993l-7.4096-2.2459q-2.2968-0.69617-2.993 1.6006l-1.5874 5.2372q-0.69617 2.2968 1.6006 2.993l7.4096 2.2459q2.2968 0.69617 2.993-1.6006z" clip-path="url(#a)" fill="#fff" stroke="#fff"/>
<g clip-path="url(#a)">
<g transform="translate(467.19 724.22) rotate(-73.138) scale(.08 -.08)">
<use xlink:href="#t"/>
</g>
</g>
<path d="m494.73 724.23 0.72902-4.5431q0.38025-2.3697-1.9894-2.7499l-7.6447-1.2267q-2.3697-0.38026-2.7499 1.9894l-0.72902 4.5431q-0.38025 2.3697 1.9894 2.7499l7.6447 1.2267q2.3697 0.38025 2.7499-1.9894z" clip-path="url(#a)" fill="#fff" stroke="#fff"/>
<g clip-path="url(#a)">
<g transform="translate(490.71 723.58) rotate(-80.884) scale(.08 -.08)">
<use xlink:href="#u"/>
</g>
</g>
<path d="m528.43 719.35 0.5974 4.7866q0.29723 2.3815 2.6788 2.0843l7.6829-0.95888q2.3815-0.29723 2.0843-2.6788l-0.5974-4.7866q-0.29723-2.3815-2.6788-2.0843l-7.6829 0.95888q-2.3815 0.29723-2.0843 2.6788z" clip-path="url(#a)" fill="#fff" stroke="#fff"/>
<g clip-path="url(#a)">
<defs>
<path id="ah" d="m19.672 64.797v-27.391h12.406q6.8906 0 10.641 3.5625 3.7656 3.5625 3.7656 10.156 0 6.5469-3.7656 10.109-3.75 3.5625-10.641 3.5625zm-9.8594 8.1094h22.266q12.266 0 18.531-5.5469 6.2812-5.5469 6.2812-16.234 0-10.797-6.2812-16.312-6.2656-5.5156-18.531-5.5156h-12.406v-29.297h-9.8594z"/>
</defs>
<g transform="translate(532.46 718.84) rotate(82.886) scale(.08 -.08)">
<use xlink:href="#ah"/>
</g>
</g>
<path d="m562.76 642.03 3.0551 4.5403q1.3398 1.9912 3.331 0.65137l6.4237-4.3223q1.9912-1.3398 0.65137-3.331l-3.0551-4.5403q-1.3398-1.9912-3.331-0.65137l-6.4237 4.3223q-1.9912 1.3398-0.65137 3.331z" clip-path="url(#a)" fill="#fff" stroke="#fff"/>
<g clip-path="url(#a)">
<g transform="translate(566.13 639.76) rotate(56.064) scale(.08 -.08)">
<use xlink:href="#t"/>
</g>
</g>
<path d="m502.78 944.92v35.285q0 2.4 2.4 2.4h7.7425q2.4 0 2.4-2.4v-35.285q0-2.4-2.4-2.4h-7.7425q-2.4 0-2.4 2.4z" clip-path="url(#a)" fill="#fff" stroke="#fff"/>
<g clip-path="url(#a)">
<defs>
<path id="k" d="m-0.29688 72.906h61.672v-8.3125h-25.875v-64.594h-9.9062v64.594h-25.891z"/>
<path id="e" d="m56.203 29.594v-4.3906h-41.312q0.59375-9.2812 5.5938-14.141t13.938-4.8594q5.1719 0 10.031 1.2656t9.6562 3.8125v-8.5q-4.8438-2.0469-9.9219-3.125t-10.297-1.0781q-13.094 0-20.734 7.6094-7.6406 7.625-7.6406 20.625 0 13.422 7.25 21.297 7.25 7.8906 19.562 7.8906 11.031 0 17.453-7.1094 6.4219-7.0938 6.4219-19.297zm-8.9844 2.6406q-0.09375 7.3594-4.125 11.75-4.0312 4.4062-10.672 4.4062-7.5156 0-12.031-4.25t-5.2031-11.969z"/>
<path id="g" d="m41.109 46.297q-1.5156 0.875-3.2969 1.2812-1.7812 0.42188-3.9219 0.42188-7.625 0-11.703-4.9531t-4.0781-14.234v-28.812h-9.0312v54.688h9.0312v-8.5q2.8438 4.9844 7.375 7.3906 4.5469 2.4219 11.047 2.4219 0.92188 0 2.0469-0.125 1.125-0.10938 2.4844-0.35938z"/>
<path id="l" d="m52 44.188q3.375 6.0625 8.0625 8.9375t11.031 2.875q8.5469 0 13.188-5.9844 4.6406-5.9688 4.6406-17v-33.016h-9.0312v32.719q0 7.8594-2.7969 11.656-2.7812 3.8125-8.4844 3.8125-6.9844 0-11.047-4.6406-4.0469-4.625-4.0469-12.641v-30.906h-9.0312v32.719q0 7.9062-2.7812 11.688t-8.5938 3.7812q-6.8906 0-10.953-4.6562-4.0469-4.6562-4.0469-12.625v-30.906h-9.0312v54.688h9.0312v-8.5q3.0781 5.0312 7.375 7.4219t10.203 2.3906q5.9688 0 10.141-3.0312 4.1719-3.0156 6.1719-8.7812z"/>
<path id="i" d="m9.4219 54.688h8.9844v-54.688h-8.9844zm0 21.297h8.9844v-11.391h-8.9844z"/>
<path id="h" d="m54.891 33.016v-33.016h-8.9844v32.719q0 7.7656-3.0312 11.609-3.0312 3.8594-9.0781 3.8594-7.2812 0-11.484-4.6406-4.2031-4.625-4.2031-12.641v-30.906h-9.0312v54.688h9.0312v-8.5q3.2344 4.9375 7.5938 7.375 4.375 2.4375 10.094 2.4375 9.4219 0 14.25-5.8281 4.8438-5.8281 4.8438-17.156z"/>
<path id="f" d="m34.281 27.484q-10.891 0-15.094-2.4844t-4.2031-8.5q0-4.7812 3.1562-7.5938 3.1562-2.7969 8.5625-2.7969 7.4844 0 12 5.2969t4.5156 14.078v2zm17.922 3.7188v-31.203h-8.9844v8.2969q-3.0781-4.9688-7.6719-7.3438t-11.234-2.375q-8.3906 0-13.359 4.7188-4.9531 4.7188-4.9531 12.625 0 9.2188 6.1719 13.906 6.1875 4.6875 18.438 4.6875h12.609v0.89062q0 6.2031-4.0781 9.5938t-11.453 3.3906q-4.6875 0-9.1406-1.125-4.4375-1.125-8.5312-3.375v8.3125q4.9219 1.9062 9.5625 2.8438 4.6406 0.95312 9.0312 0.95312 11.875 0 17.734-6.1562 5.8594-6.1406 5.8594-18.641z"/>
<path id="j" d="m9.4219 75.984h8.9844v-75.984h-8.9844z"/>
</defs>
<g transform="translate(506.84 944.92) rotate(90) scale(.08 -.08)">
<use xlink:href="#k"/>
<use x="60.818359" xlink:href="#e"/>
<use x="122.341797" xlink:href="#g"/>
<use x="163.439453" xlink:href="#l"/>
<use x="260.851562" xlink:href="#i"/>
<use x="288.634766" xlink:href="#h"/>
<use x="352.013672" xlink:href="#f"/>
<use x="413.292969" xlink:href="#j"/>
</g>
</g>
<path d="m733.05 944.92v35.285q0 2.4 2.4 2.4h7.7425q2.4 0 2.4-2.4v-35.285q0-2.4-2.4-2.4h-7.7425q-2.4 0-2.4 2.4z" clip-path="url(#a)" fill="#fff" stroke="#fff"/>
<g clip-path="url(#a)">
<g transform="translate(737.11 944.92) rotate(90) scale(.08 -.08)">
<use xlink:href="#k"/>
<use x="60.818359" xlink:href="#e"/>
<use x="122.341797" xlink:href="#g"/>
<use x="163.439453" xlink:href="#l"/>
<use x="260.851562" xlink:href="#i"/>
<use x="288.634766" xlink:href="#h"/>
<use x="352.013672" xlink:href="#f"/>
<use x="413.292969" xlink:href="#j"/>
</g>
</g>
<path d="m779.1 944.92v35.285q0 2.4 2.4 2.4h7.7425q2.4 0 2.4-2.4v-35.285q0-2.4-2.4-2.4h-7.7425q-2.4 0-2.4 2.4z" clip-path="url(#a)" fill="#fff" stroke="#fff"/>
<g clip-path="url(#a)">
<g transform="translate(783.16 944.92) rotate(90) scale(.08 -.08)">
<use xlink:href="#k"/>
<use x="60.818359" xlink:href="#e"/>
<use x="122.341797" xlink:href="#g"/>
<use x="163.439453" xlink:href="#l"/>
<use x="260.851562" xlink:href="#i"/>
<use x="288.634766" xlink:href="#h"/>
<use x="352.013672" xlink:href="#f"/>
<use x="413.292969" xlink:href="#j"/>
</g>
</g>
<path d="m877.37 805.81 0.96907-4.498q0.50547-2.3462-1.8407-2.8516l-7.5688-1.6307q-2.3462-0.50547-2.8516 1.8407l-0.96907 4.498q-0.50547 2.3462 1.8407 2.8516l7.5688 1.6307q2.3462 0.50547 2.8516-1.8407z" clip-path="url(#a)" fill="#fff" stroke="#fff"/>
<g clip-path="url(#a)">
<g transform="translate(873.39 804.95) rotate(-77.842) scale(.08 -.08)">
<use xlink:href="#u"/>
</g>
</g>
<path d="m899.6 801.08 1.0696 4.9648q0.50546 2.3462 2.8516 1.8407l7.5688-1.6307q2.3462-0.50547 1.8407-2.8516l-1.0696-4.9648q-0.50547-2.3462-2.8516-1.8407l-7.5688 1.6307q-2.3462 0.50547-1.8407 2.8516z" clip-path="url(#a)" fill="#fff" stroke="#fff"/>
<g clip-path="url(#a)">
<g transform="translate(903.57 800.22) rotate(77.842) scale(.08 -.08)">
<use xlink:href="#ab"/>
</g>
</g>
<path d="m1009.4 944.92v35.285q0 2.4 2.4 2.4h7.7425q2.4 0 2.4-2.4v-35.285q0-2.4-2.4-2.4h-7.7425q-2.4 0-2.4 2.4z" clip-path="url(#a)" fill="#fff" stroke="#fff"/>
<g clip-path="url(#a)">
<g transform="translate(1013.4 944.92) rotate(90) scale(.08 -.08)">
<use xlink:href="#k"/>
<use x="60.818359" xlink:href="#e"/>
<use x="122.341797" xlink:href="#g"/>
<use x="163.439453" xlink:href="#l"/>
<use x="260.851562" xlink:href="#i"/>
<use x="288.634766" xlink:href="#h"/>
<use x="352.013672" xlink:href="#f"/>
<use x="413.292969" xlink:href="#j"/>
</g>
</g>
<path d="m1657.3 804.47 4.365 3.3007q1.9143 1.4476 3.3619-0.46674l4.6699-6.1756q1.4476-1.9143-0.46674-3.3619l-4.365-3.3007q-1.9143-1.4476-3.3619 0.46674l-4.6699 6.1756q-1.4476 1.9143 0.46674 3.3619z" clip-path="url(#a)" fill="#fff" stroke="#fff"/>
<g clip-path="url(#a)">
<g transform="translate(1659.8 801.23) rotate(37.096) scale(.08 -.08)">
<use xlink:href="#t"/>
</g>
</g>
<path d="m1205.4 727.41 4.0528-4.639q1.579-1.8074-0.22837-3.3864l-5.8307-5.094q-1.8074-1.579-3.3864 0.22837l-4.0528 4.639q-1.579 1.8074 0.22837 3.3864l5.8307 5.094q1.8074 1.579 3.3864-0.22836z" clip-path="url(#a)" fill="#fff" stroke="#fff"/>
<g clip-path="url(#a)">
<defs>
<path id="ap" d="m19.672 64.797v-56.688h11.922q15.094 0 22.094 6.8281 7 6.8438 7 21.594 0 14.641-7 21.453t-22.094 6.8125zm-9.8594 8.1094h20.266q21.188 0 31.094-8.8125 9.9219-8.8125 9.9219-27.562 0-18.859-9.9688-27.703-9.9531-8.8281-31.047-8.8281h-20.266z"/>
</defs>
<g transform="translate(1202.4 724.73) rotate(-48.858) scale(.08 -.08)">
<use xlink:href="#ap"/>
</g>
</g>
<path d="m1229.4 726.61 2.8467-3.8942q1.4163-1.9375-0.52117-3.3539l-6.2505-4.5692q-1.9375-1.4163-3.3539 0.52117l-2.8467 3.8942q-1.4163 1.9375 0.52117 3.3539l6.2505 4.5692q1.9375 1.4163 3.3539-0.52117z" clip-path="url(#a)" fill="#fff" stroke="#fff"/>
<g clip-path="url(#a)">
<g transform="translate(1226.1 724.21) rotate(-53.833) scale(.08 -.08)">
<use xlink:href="#ah"/>
</g>
</g>
<path d="m1286.7 646.74 3.2658-4.3912q1.4322-1.9258-0.49357-3.358l-6.2127-4.6204q-1.9258-1.4322-3.358 0.49357l-3.2658 4.3912q-1.4322 1.9258 0.49357 3.358l6.2127 4.6204q1.9258 1.4322 3.358-0.49357z" clip-path="url(#a)" fill="#fff" stroke="#fff"/>
<g clip-path="url(#a)">
<g transform="translate(1283.5 644.31) rotate(-53.362) scale(.08 -.08)">
<use xlink:href="#t"/>
</g>
</g>
<path d="m1377.8 944.92v35.285q0 2.4 2.4 2.4h7.7425q2.4 0 2.4-2.4v-35.285q0-2.4-2.4-2.4h-7.7425q-2.4 0-2.4 2.4z" clip-path="url(#a)" fill="#fff" stroke="#fff"/>
<g clip-path="url(#a)">
<g transform="translate(1381.9 944.92) rotate(90) scale(.08 -.08)">
<use xlink:href="#k"/>
<use x="60.818359" xlink:href="#e"/>
<use x="122.341797" xlink:href="#g"/>
<use x="163.439453" xlink:href="#l"/>
<use x="260.851562" xlink:href="#i"/>
<use x="288.634766" xlink:href="#h"/>
<use x="352.013672" xlink:href="#f"/>
<use x="413.292969" xlink:href="#j"/>
</g>
</g>
<path d="m1493.8 557.17 0.94892-5.3896q0.41616-2.3636-1.9475-2.7798l-7.6252-1.3425q-2.3636-0.41616-2.7798 1.9475l-0.94892 5.3896q-0.41616 2.3636 1.9475 2.7798l7.6252 1.3425q2.3636 0.41616 2.7798-1.9475z" clip-path="url(#a)" fill="#fff" stroke="#fff"/>
<g clip-path="url(#a)">
<g transform="translate(1489.8 556.47) rotate(-80.015) scale(.08 -.08)">
<use xlink:href="#t"/>
</g>
</g>
<path d="m1517.1 556.34 0.48536-4.5756q0.25316-2.3866-2.1334-2.6398l-7.6993-0.81672q-2.3866-0.25316-2.6398 2.1334l-0.48536 4.5756q-0.25316 2.3866 2.1334 2.6398l7.6993 0.81672q2.3866 0.25316 2.6398-2.1334z" clip-path="url(#a)" fill="#fff" stroke="#fff"/>
<g clip-path="url(#a)">
<g transform="translate(1513 555.91) rotate(-83.945) scale(.08 -.08)">
<use xlink:href="#u"/>
</g>
</g>
<path d="m1540.3 556.16 0.18316-5.0754q0.086555-2.3984-2.3119-2.485l-7.7375-0.27923q-2.3984-0.086555-2.485 2.3119l-0.18316 5.0754q-0.086555 2.3984 2.3119 2.485l7.7375 0.27923q2.3984 0.086555 2.485-2.3119z" clip-path="url(#a)" fill="#fff" stroke="#fff"/>
<g clip-path="url(#a)">
<g transform="translate(1536.2 556.01) rotate(-87.933) scale(.08 -.08)">
<use xlink:href="#ab"/>
</g>
</g>
<path d="m1644.6 312.27 4.254 3.4426q1.8656 1.5098 3.3754-0.35587l4.8706-6.0186q1.5098-1.8656-0.35587-3.3754l-4.254-3.4426q-1.8656-1.5098-3.3754 0.35587l-4.8706 6.0186q-1.5098 1.8656 0.35587 3.3754z" clip-path="url(#a)" fill="#fff" stroke="#fff"/>
<g clip-path="url(#a)">
<g transform="translate(1647.2 309.11) rotate(38.982) scale(.08 -.08)">
<use xlink:href="#t"/>
</g>
</g>
<path d="m1423.9 944.92v35.285q0 2.4 2.4 2.4h7.7425q2.4 0 2.4-2.4v-35.285q0-2.4-2.4-2.4h-7.7425q-2.4 0-2.4 2.4z" clip-path="url(#a)" fill="#fff" stroke="#fff"/>
<g clip-path="url(#a)">
<g transform="translate(1427.9 944.92) rotate(90) scale(.08 -.08)">
<use xlink:href="#k"/>
<use x="60.818359" xlink:href="#e"/>
<use x="122.341797" xlink:href="#g"/>
<use x="163.439453" xlink:href="#l"/>
<use x="260.851562" xlink:href="#i"/>
<use x="288.634766" xlink:href="#h"/>
<use x="352.013672" xlink:href="#f"/>
<use x="413.292969" xlink:href="#j"/>
</g>
</g>
<path d="m1469.9 944.92v35.285q0 2.4 2.4 2.4h7.7425q2.4 0 2.4-2.4v-35.285q0-2.4-2.4-2.4h-7.7425q-2.4 0-2.4 2.4z" clip-path="url(#a)" fill="#fff" stroke="#fff"/>
<g clip-path="url(#a)">
<g transform="translate(1474 944.92) rotate(90) scale(.08 -.08)">
<use xlink:href="#k"/>
<use x="60.818359" xlink:href="#e"/>
<use x="122.341797" xlink:href="#g"/>
<use x="163.439453" xlink:href="#l"/>
<use x="260.851562" xlink:href="#i"/>
<use x="288.634766" xlink:href="#h"/>
<use x="352.013672" xlink:href="#f"/>
<use x="413.292969" xlink:href="#j"/>
</g>
</g>
<path d="m1516 944.92v35.285q0 2.4 2.4 2.4h7.7425q2.4 0 2.4-2.4v-35.285q0-2.4-2.4-2.4h-7.7425q-2.4 0-2.4 2.4z" clip-path="url(#a)" fill="#fff" stroke="#fff"/>
<g clip-path="url(#a)">
<g transform="translate(1520 944.92) rotate(90) scale(.08 -.08)">
<use xlink:href="#k"/>
<use x="60.818359" xlink:href="#e"/>
<use x="122.341797" xlink:href="#g"/>
<use x="163.439453" xlink:href="#l"/>
<use x="260.851562" xlink:href="#i"/>
<use x="288.634766" xlink:href="#h"/>
<use x="352.013672" xlink:href="#f"/>
<use x="413.292969" xlink:href="#j"/>
</g>
</g>
<path d="m1666.7 642.92 1.9571-5.1106q0.8583-2.2413-1.383-3.0996l-7.2305-2.7689q-2.2413-0.8583-3.0996 1.383l-1.9571 5.1106q-0.8583 2.2413 1.383 3.0996l7.2305 2.7689q2.2413 0.8583 3.0996-1.383z" clip-path="url(#a)" fill="#fff" stroke="#fff"/>
<g clip-path="url(#a)">
<g transform="translate(1662.9 641.46) rotate(-69.046) scale(.08 -.08)">
<use xlink:href="#t"/>
</g>
</g>
<path d="m1690.2 642.07 1.2762-4.4207q0.66566-2.3058-1.6402-2.9715l-7.4387-2.1475q-2.3058-0.66566-2.9715 1.6402l-1.2762 4.4207q-0.66566 2.3058 1.6402 2.9715l7.4387 2.1475q2.3058 0.66566 2.9715-1.6402z" clip-path="url(#a)" fill="#fff" stroke="#fff"/>
<g clip-path="url(#a)">
<g transform="translate(1686.3 640.94) rotate(-73.897) scale(.08 -.08)">
<use xlink:href="#u"/>
</g>
</g>
<path d="m1713.6 641.58 0.87814-4.5167q0.45803-2.3559-1.8979-2.8139l-7.6002-1.4776q-2.3559-0.45803-2.8139 1.8979l-0.87814 4.5167q-0.45803 2.3559 1.8979 2.8139l7.6002 1.4776q2.3559 0.45803 2.8139-1.8979z" clip-path="url(#a)" fill="#fff" stroke="#fff"/>
<g clip-path="url(#a)">
<g transform="translate(1709.6 640.8) rotate(-78.998) scale(.08 -.08)">
<use xlink:href="#u"/>
</g>
</g>
<path d="m1748.1 480.69 0.95158-6.0861q0.37075-2.3712-2.0004-2.7419l-7.6496-1.196q-2.3712-0.37075-2.7419 2.0004l-0.95158 6.0861q-0.37075 2.3712 2.0004 2.7419l7.6496 1.196q2.3712 0.37075 2.7419-2.0004z" clip-path="url(#a)" fill="#fff" stroke="#fff"/>
<g clip-path="url(#a)">
<g transform="translate(1744.1 480.07) rotate(-81.113) scale(.08 -.08)">
<use xlink:href="#ap"/>
</g>
</g>
<path d="m1770.5 636.38 0.40505 4.5834q0.21127 2.3907 2.602 2.1794l7.7124-0.68157q2.3907-0.21127 2.1794-2.602l-0.40505-4.5834q-0.21127-2.3907-2.602-2.1794l-7.7124 0.68157q-2.3907 0.21127-2.1794 2.602z" clip-path="url(#a)" fill="#fff" stroke="#fff"/>
<g clip-path="url(#a)">
<g transform="translate(1774.6 636.02) rotate(84.95) scale(.08 -.08)">
<use xlink:href="#u"/>
</g>
</g>
<path d="m1793.4 636.98 0.82669 4.5264q0.4312 2.3609 2.7921 1.9297l7.6165-1.3911q2.3609-0.4312 1.9297-2.7921l-0.82669-4.5264q-0.4312-2.3609-2.7921-1.9297l-7.6165 1.3911q-2.3609 0.4312-1.9297 2.7921z" clip-path="url(#a)" fill="#fff" stroke="#fff"/>
<g clip-path="url(#a)">
<g transform="translate(1797.4 636.25) rotate(79.65) scale(.08 -.08)">
<use xlink:href="#u"/>
</g>
</g>
<path d="m1816.3 637.35 1.3553 4.8946q0.64047 2.313 2.9534 1.6725l7.4617-2.0662q2.313-0.64047 1.6725-2.9534l-1.3553-4.8946q-0.64047-2.313-2.9534-1.6725l-7.4617 2.0662q-2.313 0.64047-1.6725 2.9534z" clip-path="url(#a)" fill="#fff" stroke="#fff"/>
<g clip-path="url(#a)">
<g transform="translate(1820.2 636.26) rotate(74.522) scale(.08 -.08)">
<use xlink:href="#ab"/>
</g>
</g>
<path d="m1839.2 637.56 2.0374 5.4891q0.83513 2.25 3.0851 1.4149l7.2586-2.6942q2.25-0.83513 1.4149-3.0851l-2.0374-5.4891q-0.83513-2.25-3.0851-1.4149l-7.2586 2.6942q-2.25 0.83513-1.4149 3.0851z" clip-path="url(#a)" fill="#fff" stroke="#fff"/>
<g clip-path="url(#a)">
<g transform="translate(1843 636.14) rotate(69.637) scale(.08 -.08)">
<use xlink:href="#ag"/>
</g>
</g>
<path d="m1562 944.92v35.285q0 2.4 2.4 2.4h7.7425q2.4 0 2.4-2.4v-35.285q0-2.4-2.4-2.4h-7.7425q-2.4 0-2.4 2.4z" clip-path="url(#a)" fill="#fff" stroke="#fff"/>
<g clip-path="url(#a)">
<g transform="translate(1566.1 944.92) rotate(90) scale(.08 -.08)">
<use xlink:href="#k"/>
<use x="60.818359" xlink:href="#e"/>
<use x="122.341797" xlink:href="#g"/>
<use x="163.439453" xlink:href="#l"/>
<use x="260.851562" xlink:href="#i"/>
<use x="288.634766" xlink:href="#h"/>
<use x="352.013672" xlink:href="#f"/>
<use x="413.292969" xlink:href="#j"/>
</g>
</g>
<path d="m1608.1 944.92v35.285q0 2.4 2.4 2.4h7.7425q2.4 0 2.4-2.4v-35.285q0-2.4-2.4-2.4h-7.7425q-2.4 0-2.4 2.4z" clip-path="url(#a)" fill="#fff" stroke="#fff"/>
<g clip-path="url(#a)">
<g transform="translate(1612.1 944.92) rotate(90) scale(.08 -.08)">
<use xlink:href="#k"/>
<use x="60.818359" xlink:href="#e"/>
<use x="122.341797" xlink:href="#g"/>
<use x="163.439453" xlink:href="#l"/>
<use x="260.851562" xlink:href="#i"/>
<use x="288.634766" xlink:href="#h"/>
<use x="352.013672" xlink:href="#f"/>
<use x="413.292969" xlink:href="#j"/>
</g>
</g>
<path d="m1654.1 944.92v35.285q0 2.4 2.4 2.4h7.7425q2.4 0 2.4-2.4v-35.285q0-2.4-2.4-2.4h-7.7425q-2.4 0-2.4 2.4z" clip-path="url(#a)" fill="#fff" stroke="#fff"/>
<g clip-path="url(#a)">
<g transform="translate(1658.2 944.92) rotate(90) scale(.08 -.08)">
<use xlink:href="#k"/>
<use x="60.818359" xlink:href="#e"/>
<use x="122.341797" xlink:href="#g"/>
<use x="163.439453" xlink:href="#l"/>
<use x="260.851562" xlink:href="#i"/>
<use x="288.634766" xlink:href="#h"/>
<use x="352.013672" xlink:href="#f"/>
<use x="413.292969" xlink:href="#j"/>
</g>
</g>
<path d="m1723.8 644.18 0.709-5.005q0.33662-2.3763-2.0397-2.7129l-7.666-1.0859q-2.3763-0.33662-2.7129 2.0397l-0.709 5.005q-0.33662 2.3763 2.0397 2.7129l7.666 1.0859q2.3763 0.33662 2.7129-2.0397z" clip-path="url(#a)" fill="#fff" stroke="#fff"/>
<g clip-path="url(#a)">
<defs>
<path id="an" d="m9.8125 72.906h46.094v-8.3125h-36.234v-21.578h34.719v-8.2969h-34.719v-26.422h37.109v-8.2969h-46.969z"/>
</defs>
<g transform="translate(1719.8 643.61) rotate(-81.937) scale(.08 -.08)">
<use xlink:href="#an"/>
</g>
</g>
<path d="m1734.5 718.62 0.39739 5.5721q0.17073 2.3939 2.5646 2.2232l7.7229-0.55078q2.3939-0.17073 2.2232-2.5646l-0.39739-5.5721q-0.17073-2.3939-2.5646-2.2232l-7.7229 0.55078q-2.3939 0.17073-2.2232 2.5646z" clip-path="url(#a)" fill="#fff" stroke="#fff"/>
<g clip-path="url(#a)">
<defs>
<path id="ad" d="m64.406 67.281v-10.391q-4.9844 4.6406-10.625 6.9219-5.6406 2.2969-11.984 2.2969-12.5 0-19.141-7.6406t-6.6406-22.094q0-14.406 6.6406-22.047t19.141-7.6406q6.3438 0 11.984 2.2969t10.625 6.9375v-10.312q-5.1719-3.5156-10.969-5.2812-5.7812-1.75-12.219-1.75-16.562 0-26.094 10.125-9.5156 10.141-9.5156 27.672 0 17.578 9.5156 27.703 9.5312 10.141 26.094 10.141 6.5312 0 12.312-1.7344 5.7969-1.7344 10.875-5.2031z"/>
</defs>
<g transform="translate(1738.6 718.33) rotate(85.921) scale(.08 -.08)">
<use xlink:href="#ad"/>
</g>
</g>
<path d="m1792.3 944.92v35.285q0 2.4 2.4 2.4h7.7425q2.4 0 2.4-2.4v-35.285q0-2.4-2.4-2.4h-7.7425q-2.4 0-2.4 2.4z" clip-path="url(#a)" fill="#fff" stroke="#fff"/>
<g clip-path="url(#a)">
<g transform="translate(1796.3 944.92) rotate(90) scale(.08 -.08)">
<use xlink:href="#k"/>
<use x="60.818359" xlink:href="#e"/>
<use x="122.341797" xlink:href="#g"/>
<use x="163.439453" xlink:href="#l"/>
<use x="260.851562" xlink:href="#i"/>
<use x="288.634766" xlink:href="#h"/>
<use x="352.013672" xlink:href="#f"/>
<use x="413.292969" xlink:href="#j"/>
</g>
</g>
<path d="m1838.3 944.92v35.285q0 2.4 2.4 2.4h7.7425q2.4 0 2.4-2.4v-35.285q0-2.4-2.4-2.4h-7.7425q-2.4 0-2.4 2.4z" clip-path="url(#a)" fill="#fff" stroke="#fff"/>
<g clip-path="url(#a)">
<g transform="translate(1842.4 944.92) rotate(90) scale(.08 -.08)">
<use xlink:href="#k"/>
<use x="60.818359" xlink:href="#e"/>
<use x="122.341797" xlink:href="#g"/>
<use x="163.439453" xlink:href="#l"/>
<use x="260.851562" xlink:href="#i"/>
<use x="288.634766" xlink:href="#h"/>
<use x="352.013672" xlink:href="#f"/>
<use x="413.292969" xlink:href="#j"/>
</g>
</g>
<path d="m1884.4 944.92v35.285q0 2.4 2.4 2.4h7.7425q2.4 0 2.4-2.4v-35.285q0-2.4-2.4-2.4h-7.7425q-2.4 0-2.4 2.4z" clip-path="url(#a)" fill="#fff" stroke="#fff"/>
<g clip-path="url(#a)">
<g transform="translate(1888.5 944.92) rotate(90) scale(.08 -.08)">
<use xlink:href="#k"/>
<use x="60.818359" xlink:href="#e"/>
<use x="122.341797" xlink:href="#g"/>
<use x="163.439453" xlink:href="#l"/>
<use x="260.851562" xlink:href="#i"/>
<use x="288.634766" xlink:href="#h"/>
<use x="352.013672" xlink:href="#f"/>
<use x="413.292969" xlink:href="#j"/>
</g>
</g>
<path d="m1700.2 799.7v5.0788q0 2.4 2.4 2.4h7.7425q2.4 0 2.4-2.4v-5.0788q0-2.4-2.4-2.4h-7.7425q-2.4 0-2.4 2.4z" clip-path="url(#a)" fill="#fff" stroke="#fff"/>
<g clip-path="url(#a)">
<g transform="translate(1704.2 799.7) rotate(90) scale(.08 -.08)">
<use xlink:href="#ab"/>
</g>
</g>
<path d="m1746.2 944.92v35.285q0 2.4 2.4 2.4h7.7425q2.4 0 2.4-2.4v-35.285q0-2.4-2.4-2.4h-7.7425q-2.4 0-2.4 2.4z" clip-path="url(#a)" fill="#fff" stroke="#fff"/>
<g clip-path="url(#a)">
<g transform="translate(1750.3 944.92) rotate(90) scale(.08 -.08)">
<use xlink:href="#k"/>
<use x="60.818359" xlink:href="#e"/>
<use x="122.341797" xlink:href="#g"/>
<use x="163.439453" xlink:href="#l"/>
<use x="260.851562" xlink:href="#i"/>
<use x="288.634766" xlink:href="#h"/>
<use x="352.013672" xlink:href="#f"/>
<use x="413.292969" xlink:href="#j"/>
</g>
</g>
<path d="m1700.2 944.92v35.285q0 2.4 2.4 2.4h7.7425q2.4 0 2.4-2.4v-35.285q0-2.4-2.4-2.4h-7.7425q-2.4 0-2.4 2.4z" clip-path="url(#a)" fill="#fff" stroke="#fff"/>
<g clip-path="url(#a)">
<g transform="translate(1704.2 944.92) rotate(90) scale(.08 -.08)">
<use xlink:href="#k"/>
<use x="60.818359" xlink:href="#e"/>
<use x="122.341797" xlink:href="#g"/>
<use x="163.439453" xlink:href="#l"/>
<use x="260.851562" xlink:href="#i"/>
<use x="288.634766" xlink:href="#h"/>
<use x="352.013672" xlink:href="#f"/>
<use x="413.292969" xlink:href="#j"/>
</g>
</g>
<path d="m1055.4 944.92v35.285q0 2.4 2.4 2.4h7.7425q2.4 0 2.4-2.4v-35.285q0-2.4-2.4-2.4h-7.7425q-2.4 0-2.4 2.4z" clip-path="url(#a)" fill="#fff" stroke="#fff"/>
<g clip-path="url(#a)">
<g transform="translate(1059.5 944.92) rotate(90) scale(.08 -.08)">
<use xlink:href="#k"/>
<use x="60.818359" xlink:href="#e"/>
<use x="122.341797" xlink:href="#g"/>
<use x="163.439453" xlink:href="#l"/>
<use x="260.851562" xlink:href="#i"/>
<use x="288.634766" xlink:href="#h"/>
<use x="352.013672" xlink:href="#f"/>
<use x="413.292969" xlink:href="#j"/>
</g>
</g>
<path d="m1101.5 944.92v35.285q0 2.4 2.4 2.4h7.7425q2.4 0 2.4-2.4v-35.285q0-2.4-2.4-2.4h-7.7425q-2.4 0-2.4 2.4z" clip-path="url(#a)" fill="#fff" stroke="#fff"/>
<g clip-path="url(#a)">
<g transform="translate(1105.5 944.92) rotate(90) scale(.08 -.08)">
<use xlink:href="#k"/>
<use x="60.818359" xlink:href="#e"/>
<use x="122.341797" xlink:href="#g"/>
<use x="163.439453" xlink:href="#l"/>
<use x="260.851562" xlink:href="#i"/>
<use x="288.634766" xlink:href="#h"/>
<use x="352.013672" xlink:href="#f"/>
<use x="413.292969" xlink:href="#j"/>
</g>
</g>
<path d="m1193 807.27 2.1997-5.105q0.94972-2.2041-1.2544-3.1538l-7.1105-3.0638q-2.2041-0.94972-3.1538 1.2544l-2.1997 5.105q-0.94972 2.2041 1.2544 3.1538l7.1105 3.0638q2.2041 0.94972 3.1538-1.2544z" clip-path="url(#a)" fill="#fff" stroke="#fff"/>
<g clip-path="url(#a)">
<defs>
<path id="au" d="m44.391 34.188q3.1719-1.0781 6.1719-4.5938t6.0312-9.6719l10.016-19.922h-10.609l-9.3125 18.703q-3.625 7.3281-7.0156 9.7188t-9.25 2.3906h-10.75v-30.812h-9.8594v72.906h22.266q12.5 0 18.656-5.2344 6.1562-5.2188 6.1562-15.766 0-6.8906-3.2031-11.438-3.2031-4.5312-9.2969-6.2812zm-24.719 30.609v-25.875h12.406q7.125 0 10.766 3.2969t3.6406 9.6875-3.6406 9.6406-10.766 3.25z"/>
</defs>
<g transform="translate(1189.3 805.66) rotate(-66.689) scale(.08 -.08)">
<use xlink:href="#au"/>
</g>
</g>
<path d="m1217.2 805.84 0.77802-5.4169q0.34121-2.3756-2.0344-2.7168l-7.6639-1.1008q-2.3756-0.34121-2.7168 2.0344l-0.77802 5.4169q-0.34121 2.3756 2.0344 2.7168l7.6639 1.1008q2.3756 0.34121 2.7168-2.0344z" clip-path="url(#a)" fill="#fff" stroke="#fff"/>
<g clip-path="url(#a)">
<g transform="translate(1213.2 805.26) rotate(-81.827) scale(.08 -.08)">
<use xlink:href="#t"/>
</g>
</g>
<path d="m1227.8 800.42 0.77802 5.4169q0.34121 2.3756 2.7168 2.0344l7.6639-1.1008q2.3756-0.34121 2.0344-2.7168l-0.77802-5.4169q-0.34121-2.3756-2.7168-2.0344l-7.6639 1.1008q-2.3756 0.34121-2.0344 2.7168z" clip-path="url(#a)" fill="#fff" stroke="#fff"/>
<g clip-path="url(#a)">
<g transform="translate(1231.8 799.84) rotate(81.827) scale(.08 -.08)">
<use xlink:href="#t"/>
</g>
</g>
<path d="m1250.7 802.5 1.9088 4.43q0.94972 2.2041 3.1538 1.2544l7.1105-3.0638q2.2041-0.94972 1.2544-3.1538l-1.9088-4.43q-0.94972-2.2041-3.1538-1.2544l-7.1105 3.0638q-2.2041 0.94972-1.2544 3.1538z" clip-path="url(#a)" fill="#fff" stroke="#fff"/>
<g clip-path="url(#a)">
<g transform="translate(1254.4 800.9) rotate(66.689) scale(.08 -.08)">
<use xlink:href="#ah"/>
</g>
</g>
<path d="m1147.5 944.92v35.285q0 2.4 2.4 2.4h7.7425q2.4 0 2.4-2.4v-35.285q0-2.4-2.4-2.4h-7.7425q-2.4 0-2.4 2.4z" clip-path="url(#a)" fill="#fff" stroke="#fff"/>
<g clip-path="url(#a)">
<g transform="translate(1151.6 944.92) rotate(90) scale(.08 -.08)">
<use xlink:href="#k"/>
<use x="60.818359" xlink:href="#e"/>
<use x="122.341797" xlink:href="#g"/>
<use x="163.439453" xlink:href="#l"/>
<use x="260.851562" xlink:href="#i"/>
<use x="288.634766" xlink:href="#h"/>
<use x="352.013672" xlink:href="#f"/>
<use x="413.292969" xlink:href="#j"/>
</g>
</g>
<path d="m1193.6 944.92v35.285q0 2.4 2.4 2.4h7.7425q2.4 0 2.4-2.4v-35.285q0-2.4-2.4-2.4h-7.7425q-2.4 0-2.4 2.4z" clip-path="url(#a)" fill="#fff" stroke="#fff"/>
<g clip-path="url(#a)">
<g transform="translate(1197.6 944.92) rotate(90) scale(.08 -.08)">
<use xlink:href="#k"/>
<use x="60.818359" xlink:href="#e"/>
<use x="122.341797" xlink:href="#g"/>
<use x="163.439453" xlink:href="#l"/>
<use x="260.851562" xlink:href="#i"/>
<use x="288.634766" xlink:href="#h"/>
<use x="352.013672" xlink:href="#f"/>
<use x="413.292969" xlink:href="#j"/>
</g>
</g>
<path d="m1239.6 944.92v35.285q0 2.4 2.4 2.4h7.7425q2.4 0 2.4-2.4v-35.285q0-2.4-2.4-2.4h-7.7425q-2.4 0-2.4 2.4z" clip-path="url(#a)" fill="#fff" stroke="#fff"/>
<g clip-path="url(#a)">
<g transform="translate(1243.7 944.92) rotate(90) scale(.08 -.08)">
<use xlink:href="#k"/>
<use x="60.818359" xlink:href="#e"/>
<use x="122.341797" xlink:href="#g"/>
<use x="163.439453" xlink:href="#l"/>
<use x="260.851562" xlink:href="#i"/>
<use x="288.634766" xlink:href="#h"/>
<use x="352.013672" xlink:href="#f"/>
<use x="413.292969" xlink:href="#j"/>
</g>
</g>
<path d="m1285.7 944.92v35.285q0 2.4 2.4 2.4h7.7425q2.4 0 2.4-2.4v-35.285q0-2.4-2.4-2.4h-7.7425q-2.4 0-2.4 2.4z" clip-path="url(#a)" fill="#fff" stroke="#fff"/>
<g clip-path="url(#a)">
<g transform="translate(1289.8 944.92) rotate(90) scale(.08 -.08)">
<use xlink:href="#k"/>
<use x="60.818359" xlink:href="#e"/>
<use x="122.341797" xlink:href="#g"/>
<use x="163.439453" xlink:href="#l"/>
<use x="260.851562" xlink:href="#i"/>
<use x="288.634766" xlink:href="#h"/>
<use x="352.013672" xlink:href="#f"/>
<use x="413.292969" xlink:href="#j"/>
</g>
</g>
<path d="m846.64 980.92 5.0165-34.927q0.34121-2.3756-2.0344-2.7168l-7.6639-1.1008q-2.3756-0.34121-2.7168 2.0344l-5.0165 34.927q-0.34121 2.3756 2.0344 2.7168l7.6639 1.1008q2.3756 0.34121 2.7168-2.0344z" clip-path="url(#a)" fill="#fff" stroke="#fff"/>
<g clip-path="url(#a)">
<g transform="translate(842.61 980.34) rotate(-81.827) scale(.08 -.08)">
<use xlink:href="#k"/>
<use x="60.818359" xlink:href="#e"/>
<use x="122.341797" xlink:href="#g"/>
<use x="163.439453" xlink:href="#l"/>
<use x="260.851562" xlink:href="#i"/>
<use x="288.634766" xlink:href="#h"/>
<use x="352.013672" xlink:href="#f"/>
<use x="413.292969" xlink:href="#j"/>
</g>
</g>
<path d="m857.25 945.99 5.0165 34.927q0.34121 2.3756 2.7168 2.0344l7.6639-1.1008q2.3756-0.34121 2.0344-2.7168l-5.0165-34.927q-0.34121-2.3756-2.7168-2.0344l-7.6639 1.1008q-2.3756 0.34121-2.0344 2.7168z" clip-path="url(#a)" fill="#fff" stroke="#fff"/>
<g clip-path="url(#a)">
<g transform="translate(861.27 945.41) rotate(81.827) scale(.08 -.08)">
<use xlink:href="#k"/>
<use x="60.818359" xlink:href="#e"/>
<use x="122.341797" xlink:href="#g"/>
<use x="163.439453" xlink:href="#l"/>
<use x="260.851562" xlink:href="#i"/>
<use x="288.634766" xlink:href="#h"/>
<use x="352.013672" xlink:href="#f"/>
<use x="413.292969" xlink:href="#j"/>
</g>
</g>
<path d="m917.26 944.92v35.285q0 2.4 2.4 2.4h7.7425q2.4 0 2.4-2.4v-35.285q0-2.4-2.4-2.4h-7.7425q-2.4 0-2.4 2.4z" clip-path="url(#a)" fill="#fff" stroke="#fff"/>
<g clip-path="url(#a)">
<g transform="translate(921.32 944.92) rotate(90) scale(.08 -.08)">
<use xlink:href="#k"/>
<use x="60.818359" xlink:href="#e"/>
<use x="122.341797" xlink:href="#g"/>
<use x="163.439453" xlink:href="#l"/>
<use x="260.851562" xlink:href="#i"/>
<use x="288.634766" xlink:href="#h"/>
<use x="352.013672" xlink:href="#f"/>
<use x="413.292969" xlink:href="#j"/>
</g>
</g>
<path d="m410.67 944.92v35.285q0 2.4 2.4 2.4h7.7425q2.4 0 2.4-2.4v-35.285q0-2.4-2.4-2.4h-7.7425q-2.4 0-2.4 2.4z" clip-path="url(#a)" fill="#fff" stroke="#fff"/>
<g clip-path="url(#a)">
<g transform="translate(414.73 944.92) rotate(90) scale(.08 -.08)">
<use xlink:href="#k"/>
<use x="60.818359" xlink:href="#e"/>
<use x="122.341797" xlink:href="#g"/>
<use x="163.439453" xlink:href="#l"/>
<use x="260.851562" xlink:href="#i"/>
<use x="288.634766" xlink:href="#h"/>
<use x="352.013672" xlink:href="#f"/>
<use x="413.292969" xlink:href="#j"/>
</g>
</g>
<path d="m456.72 944.92v35.285q0 2.4 2.4 2.4h7.7425q2.4 0 2.4-2.4v-35.285q0-2.4-2.4-2.4h-7.7425q-2.4 0-2.4 2.4z" clip-path="url(#a)" fill="#fff" stroke="#fff"/>
<g clip-path="url(#a)">
<g transform="translate(460.79 944.92) rotate(90) scale(.08 -.08)">
<use xlink:href="#k"/>
<use x="60.818359" xlink:href="#e"/>
<use x="122.341797" xlink:href="#g"/>
<use x="163.439453" xlink:href="#l"/>
<use x="260.851562" xlink:href="#i"/>
<use x="288.634766" xlink:href="#h"/>
<use x="352.013672" xlink:href="#f"/>
<use x="413.292969" xlink:href="#j"/>
</g>
</g>
<path d="m548.83 944.92v35.285q0 2.4 2.4 2.4h7.7425q2.4 0 2.4-2.4v-35.285q0-2.4-2.4-2.4h-7.7425q-2.4 0-2.4 2.4z" clip-path="url(#a)" fill="#fff" stroke="#fff"/>
<g clip-path="url(#a)">
<g transform="translate(552.89 944.92) rotate(90) scale(.08 -.08)">
<use xlink:href="#k"/>
<use x="60.818359" xlink:href="#e"/>
<use x="122.341797" xlink:href="#g"/>
<use x="163.439453" xlink:href="#l"/>
<use x="260.851562" xlink:href="#i"/>
<use x="288.634766" xlink:href="#h"/>
<use x="352.013672" xlink:href="#f"/>
<use x="413.292969" xlink:href="#j"/>
</g>
</g>
<path d="m618.52 805.63 0.71867-5.0037q0.34121-2.3756-2.0344-2.7168l-7.6639-1.1007q-2.3756-0.34121-2.7168 2.0344l-0.71867 5.0037q-0.34121 2.3756 2.0344 2.7168l7.6639 1.1007q2.3756 0.34121 2.7168-2.0344z" clip-path="url(#a)" fill="#fff" stroke="#fff"/>
<g clip-path="url(#a)">
<g transform="translate(614.49 805.05) rotate(-81.827) scale(.08 -.08)">
<use xlink:href="#an"/>
</g>
</g>
<path d="m629.09 800.36 0.7942 5.5295q0.34121 2.3756 2.7168 2.0344l7.6639-1.1007q2.3756-0.34121 2.0344-2.7168l-0.7942-5.5295q-0.34121-2.3756-2.7168-2.0344l-7.6639 1.1008q-2.3756 0.34121-2.0344 2.7168z" clip-path="url(#a)" fill="#fff" stroke="#fff"/>
<g clip-path="url(#a)">
<g transform="translate(633.11 799.79) rotate(81.827) scale(.08 -.08)">
<use xlink:href="#ad"/>
</g>
</g>
<path d="m594.88 944.92v35.285q0 2.4 2.4 2.4h7.7425q2.4 0 2.4-2.4v-35.285q0-2.4-2.4-2.4h-7.7425q-2.4 0-2.4 2.4z" clip-path="url(#a)" fill="#fff" stroke="#fff"/>
<g clip-path="url(#a)">
<g transform="translate(598.95 944.92) rotate(90) scale(.08 -.08)">
<use xlink:href="#k"/>
<use x="60.818359" xlink:href="#e"/>
<use x="122.341797" xlink:href="#g"/>
<use x="163.439453" xlink:href="#l"/>
<use x="260.851562" xlink:href="#i"/>
<use x="288.634766" xlink:href="#h"/>
<use x="352.013672" xlink:href="#f"/>
<use x="413.292969" xlink:href="#j"/>
</g>
</g>
<path d="m640.94 944.92v35.285q0 2.4 2.4 2.4h7.7425q2.4 0 2.4-2.4v-35.285q0-2.4-2.4-2.4h-7.7425q-2.4 0-2.4 2.4z" clip-path="url(#a)" fill="#fff" stroke="#fff"/>
<g clip-path="url(#a)">
<g transform="translate(645 944.92) rotate(90) scale(.08 -.08)">
<use xlink:href="#k"/>
<use x="60.818359" xlink:href="#e"/>
<use x="122.341797" xlink:href="#g"/>
<use x="163.439453" xlink:href="#l"/>
<use x="260.851562" xlink:href="#i"/>
<use x="288.634766" xlink:href="#h"/>
<use x="352.013672" xlink:href="#f"/>
<use x="413.292969" xlink:href="#j"/>
</g>
</g>
<path d="m88.291 944.92v35.285q0 2.4 2.4 2.4h7.7425q2.4 0 2.4-2.4v-35.285q0-2.4-2.4-2.4h-7.7425q-2.4 0-2.4 2.4z" clip-path="url(#a)" fill="#fff" stroke="#fff"/>
<g clip-path="url(#a)">
<g transform="translate(92.355 944.92) rotate(90) scale(.08 -.08)">
<use xlink:href="#k"/>
<use x="60.818359" xlink:href="#e"/>
<use x="122.341797" xlink:href="#g"/>
<use x="163.439453" xlink:href="#l"/>
<use x="260.851562" xlink:href="#i"/>
<use x="288.634766" xlink:href="#h"/>
<use x="352.013672" xlink:href="#f"/>
<use x="413.292969" xlink:href="#j"/>
</g>
</g>
<path d="m134.35 944.92v35.285q0 2.4 2.4 2.4h7.7425q2.4 0 2.4-2.4v-35.285q0-2.4-2.4-2.4h-7.7425q-2.4 0-2.4 2.4z" clip-path="url(#a)" fill="#fff" stroke="#fff"/>
<g clip-path="url(#a)">
<g transform="translate(138.41 944.92) rotate(90) scale(.08 -.08)">
<use xlink:href="#k"/>
<use x="60.818359" xlink:href="#e"/>
<use x="122.341797" xlink:href="#g"/>
<use x="163.439453" xlink:href="#l"/>
<use x="260.851562" xlink:href="#i"/>
<use x="288.634766" xlink:href="#h"/>
<use x="352.013672" xlink:href="#f"/>
<use x="413.292969" xlink:href="#j"/>
</g>
</g>
<path d="m241.81 725.23 1.4926-4.8296q0.70864-2.293-1.5844-3.0016l-7.3973-2.2861q-2.293-0.70864-3.0016 1.5844l-1.4926 4.8296q-0.70864 2.293 1.5844 3.0016l7.3973 2.2861q2.293 0.70864 3.0016-1.5844z" clip-path="url(#a)" fill="#fff" stroke="#fff"/>
<g clip-path="url(#a)">
<g transform="translate(237.92 724.03) rotate(-72.826) scale(.08 -.08)">
<use xlink:href="#an"/>
</g>
</g>
<path d="m287.59 638.26 0.59209 6.2696q0.22565 2.3894 2.615 2.1637l7.7082-0.72795q2.3894-0.22565 2.1637-2.615l-0.59209-6.2696q-0.22565-2.3894-2.615-2.1637l-7.7082 0.72795q-2.3894 0.22565-2.1637 2.615z" clip-path="url(#a)" fill="#fff" stroke="#fff"/>
<g clip-path="url(#a)">
<defs>
<path id="av" d="m39.406 66.219q-10.75 0-17.078-8.0156-6.3125-8-6.3125-21.828 0-13.766 6.3125-21.781 6.3281-8 17.078-8 10.734 0 17.016 8 6.2812 8.0156 6.2812 21.781 0 13.828-6.2812 21.828-6.2812 8.0156-17.016 8.0156zm13.812-64.906 13-14.203h-11.922l-10.797 11.672q-1.6094-0.09375-2.4688-0.14062-0.84375-0.0625-1.625-0.0625-15.375 0-24.594 10.281-9.2031 10.281-9.2031 27.516 0 17.281 9.2031 27.562 9.2188 10.281 24.594 10.281 15.328 0 24.5-10.281 9.1875-10.281 9.1875-27.562 0-12.688-5.1094-21.734-5.0938-9.0312-14.766-13.328z"/>
</defs>
<g transform="translate(291.64 637.87) rotate(84.605) scale(.08 -.08)">
<use xlink:href="#av"/>
</g>
</g>
<path d="m321.9 719.85 1.4133 5.4045q0.60718 2.3219 2.9291 1.7147l7.4906-1.9588q2.3219-0.60718 1.7147-2.9291l-1.4133-5.4045q-0.60718-2.3219-2.9291-1.7147l-7.4906 1.9588q-2.3219 0.60718-1.7147 2.9291z" clip-path="url(#a)" fill="#fff" stroke="#fff"/>
<g clip-path="url(#a)">
<g transform="translate(325.83 718.82) rotate(75.345) scale(.08 -.08)">
<use xlink:href="#ad"/>
</g>
</g>
<path d="m226.45 944.92v35.285q0 2.4 2.4 2.4h7.7425q2.4 0 2.4-2.4v-35.285q0-2.4-2.4-2.4h-7.7425q-2.4 0-2.4 2.4z" clip-path="url(#a)" fill="#fff" stroke="#fff"/>
<g clip-path="url(#a)">
<g transform="translate(230.52 944.92) rotate(90) scale(.08 -.08)">
<use xlink:href="#k"/>
<use x="60.818359" xlink:href="#e"/>
<use x="122.341797" xlink:href="#g"/>
<use x="163.439453" xlink:href="#l"/>
<use x="260.851562" xlink:href="#i"/>
<use x="288.634766" xlink:href="#h"/>
<use x="352.013672" xlink:href="#f"/>
<use x="413.292969" xlink:href="#j"/>
</g>
</g>
<path d="m180.4 944.92v35.285q0 2.4 2.4 2.4h7.7425q2.4 0 2.4-2.4v-35.285q0-2.4-2.4-2.4h-7.7425q-2.4 0-2.4 2.4z" clip-path="url(#a)" fill="#fff" stroke="#fff"/>
<g clip-path="url(#a)">
<g transform="translate(184.46 944.92) rotate(90) scale(.08 -.08)">
<use xlink:href="#k"/>
<use x="60.818359" xlink:href="#e"/>
<use x="122.341797" xlink:href="#g"/>
<use x="163.439453" xlink:href="#l"/>
<use x="260.851562" xlink:href="#i"/>
<use x="288.634766" xlink:href="#h"/>
<use x="352.013672" xlink:href="#f"/>
<use x="413.292969" xlink:href="#j"/>
</g>
</g>
<path d="m296.1 805.89 0.7942-5.5295q0.34121-2.3756-2.0344-2.7168l-7.6639-1.1008q-2.3756-0.34121-2.7168 2.0344l-0.7942 5.5295q-0.34121 2.3756 2.0344 2.7168l7.6639 1.1007q2.3756 0.34121 2.7168-2.0344z" clip-path="url(#a)" fill="#fff" stroke="#fff"/>
<g clip-path="url(#a)">
<g transform="translate(292.08 805.32) rotate(-81.827) scale(.08 -.08)">
<use xlink:href="#ad"/>
</g>
</g>
<path d="m306.78 800.85 0.65416 4.5545q0.34121 2.3756 2.7168 2.0344l7.6639-1.1008q2.3756-0.34121 2.0344-2.7168l-0.65416-4.5545q-0.34121-2.3756-2.7168-2.0344l-7.6639 1.1008q-2.3756 0.34121-2.0344 2.7168z" clip-path="url(#a)" fill="#fff" stroke="#fff"/>
<g clip-path="url(#a)">
<g transform="translate(310.81 800.27) rotate(81.827) scale(.08 -.08)">
<use xlink:href="#u"/>
</g>
</g>
<path d="m364.61 944.92v35.285q0 2.4 2.4 2.4h7.7425q2.4 0 2.4-2.4v-35.285q0-2.4-2.4-2.4h-7.7425q-2.4 0-2.4 2.4z" clip-path="url(#a)" fill="#fff" stroke="#fff"/>
<g clip-path="url(#a)">
<g transform="translate(368.68 944.92) rotate(90) scale(.08 -.08)">
<use xlink:href="#k"/>
<use x="60.818359" xlink:href="#e"/>
<use x="122.341797" xlink:href="#g"/>
<use x="163.439453" xlink:href="#l"/>
<use x="260.851562" xlink:href="#i"/>
<use x="288.634766" xlink:href="#h"/>
<use x="352.013672" xlink:href="#f"/>
<use x="413.292969" xlink:href="#j"/>
</g>
</g>
<path d="m272.51 944.92v35.285q0 2.4 2.4 2.4h7.7425q2.4 0 2.4-2.4v-35.285q0-2.4-2.4-2.4h-7.7425q-2.4 0-2.4 2.4z" clip-path="url(#a)" fill="#fff" stroke="#fff"/>
<g clip-path="url(#a)">
<g transform="translate(276.57 944.92) rotate(90) scale(.08 -.08)">
<use xlink:href="#k"/>
<use x="60.818359" xlink:href="#e"/>
<use x="122.341797" xlink:href="#g"/>
<use x="163.439453" xlink:href="#l"/>
<use x="260.851562" xlink:href="#i"/>
<use x="288.634766" xlink:href="#h"/>
<use x="352.013672" xlink:href="#f"/>
<use x="413.292969" xlink:href="#j"/>
</g>
</g>
<path d="m318.56 944.92v35.285q0 2.4 2.4 2.4h7.7425q2.4 0 2.4-2.4v-35.285q0-2.4-2.4-2.4h-7.7425q-2.4 0-2.4 2.4z" clip-path="url(#a)" fill="#fff" stroke="#fff"/>
<g clip-path="url(#a)">
<g transform="translate(322.62 944.92) rotate(90) scale(.08 -.08)">
<use xlink:href="#k"/>
<use x="60.818359" xlink:href="#e"/>
<use x="122.341797" xlink:href="#g"/>
<use x="163.439453" xlink:href="#l"/>
<use x="260.851562" xlink:href="#i"/>
<use x="288.634766" xlink:href="#h"/>
<use x="352.013672" xlink:href="#f"/>
<use x="413.292969" xlink:href="#j"/>
</g>
</g>
<path d="m686.99 944.92v35.285q0 2.4 2.4 2.4h7.7425q2.4 0 2.4-2.4v-35.285q0-2.4-2.4-2.4h-7.7425q-2.4 0-2.4 2.4z" clip-path="url(#a)" fill="#fff" stroke="#fff"/>
<g clip-path="url(#a)">
<g transform="translate(691.06 944.92) rotate(90) scale(.08 -.08)">
<use xlink:href="#k"/>
<use x="60.818359" xlink:href="#e"/>
<use x="122.341797" xlink:href="#g"/>
<use x="163.439453" xlink:href="#l"/>
<use x="260.851562" xlink:href="#i"/>
<use x="288.634766" xlink:href="#h"/>
<use x="352.013672" xlink:href="#f"/>
<use x="413.292969" xlink:href="#j"/>
</g>
</g>
<path d="m963.31 944.92v35.285q0 2.4 2.4 2.4h7.7425q2.4 0 2.4-2.4v-35.285q0-2.4-2.4-2.4h-7.7425q-2.4 0-2.4 2.4z" clip-path="url(#a)" fill="#fff" stroke="#fff"/>
<g clip-path="url(#a)">
<g transform="translate(967.38 944.92) rotate(90) scale(.08 -.08)">
<use xlink:href="#k"/>
<use x="60.818359" xlink:href="#e"/>
<use x="122.341797" xlink:href="#g"/>
<use x="163.439453" xlink:href="#l"/>
<use x="260.851562" xlink:href="#i"/>
<use x="288.634766" xlink:href="#h"/>
<use x="352.013672" xlink:href="#f"/>
<use x="413.292969" xlink:href="#j"/>
</g>
</g>
<path d="m1331.7 944.92v35.285q0 2.4 2.4 2.4h7.7425q2.4 0 2.4-2.4v-35.285q0-2.4-2.4-2.4h-7.7425q-2.4 0-2.4 2.4z" clip-path="url(#a)" fill="#fff" stroke="#fff"/>
<g clip-path="url(#a)">
<g transform="translate(1335.8 944.92) rotate(90) scale(.08 -.08)">
<use xlink:href="#k"/>
<use x="60.818359" xlink:href="#e"/>
<use x="122.341797" xlink:href="#g"/>
<use x="163.439453" xlink:href="#l"/>
<use x="260.851562" xlink:href="#i"/>
<use x="288.634766" xlink:href="#h"/>
<use x="352.013672" xlink:href="#f"/>
<use x="413.292969" xlink:href="#j"/>
</g>
</g>
<path d="m1930.4 944.92v35.285q0 2.4 2.4 2.4h7.7425q2.4 0 2.4-2.4v-35.285q0-2.4-2.4-2.4h-7.7425q-2.4 0-2.4 2.4z" clip-path="url(#a)" fill="#fff" stroke="#fff"/>
<g clip-path="url(#a)">
<g transform="translate(1934.5 944.92) rotate(90) scale(.08 -.08)">
<use xlink:href="#k"/>
<use x="60.818359" xlink:href="#e"/>
<use x="122.341797" xlink:href="#g"/>
<use x="163.439453" xlink:href="#l"/>
<use x="260.851562" xlink:href="#i"/>
<use x="288.634766" xlink:href="#h"/>
<use x="352.013672" xlink:href="#f"/>
<use x="413.292969" xlink:href="#j"/>
</g>
</g>
<defs>
<path id="b" d="m0 8.6603c2.2967 0 4.4997-0.9125 6.1237-2.5365 1.624-1.624 2.5365-3.827 2.5365-6.1237s-0.9125-4.4997-2.5365-6.1237c-1.624-1.624-3.827-2.5365-6.1237-2.5365s-4.4997 0.9125-6.1237 2.5365c-1.624 1.624-2.5365 3.827-2.5365 6.1237s0.9125 4.4997 2.5365 6.1237c1.624 1.624 3.827 2.5365 6.1237 2.5365z"/>
</defs>
<g clip-path="url(#a)">
<use x="94.562479" y="1042.722029" fill="#ffffff" stroke="#ffffff" xlink:href="#b"/>
</g>
<g clip-path="url(#a)">
<use x="140.616342" y="1042.722029" fill="#ffffff" stroke="#ffffff" xlink:href="#b"/>
</g>
<g clip-path="url(#a)">
<use x="186.670205" y="1042.722029" fill="#ffffff" stroke="#ffffff" xlink:href="#b"/>
</g>
<g clip-path="url(#a)">
<use x="232.724067" y="1042.722029" fill="#ffffff" stroke="#ffffff" xlink:href="#b"/>
</g>
<g clip-path="url(#a)">
<use x="278.77793" y="1042.722029" fill="#ffffff" stroke="#ffffff" xlink:href="#b"/>
</g>
<g clip-path="url(#a)">
<use x="324.831793" y="1042.722029" fill="#ffffff" stroke="#ffffff" xlink:href="#b"/>
</g>
<g clip-path="url(#a)">
<use x="370.885656" y="1042.722029" fill="#ffffff" stroke="#ffffff" xlink:href="#b"/>
</g>
<g clip-path="url(#a)">
<use x="416.939519" y="1042.722029" fill="#ffffff" stroke="#ffffff" xlink:href="#b"/>
</g>
<g clip-path="url(#a)">
<use x="462.993382" y="1042.722029" fill="#ffffff" stroke="#ffffff" xlink:href="#b"/>
</g>
<g clip-path="url(#a)">
<use x="509.047244" y="1042.722029" fill="#ffffff" stroke="#ffffff" xlink:href="#b"/>
</g>
<g clip-path="url(#a)">
<use x="555.101107" y="1042.722029" fill="#ffffff" stroke="#ffffff" xlink:href="#b"/>
</g>
<g clip-path="url(#a)">
<use x="601.15497" y="1042.722029" fill="#ffffff" stroke="#ffffff" xlink:href="#b"/>
</g>
<g clip-path="url(#a)">
<use x="647.208833" y="1042.722029" fill="#ffffff" stroke="#ffffff" xlink:href="#b"/>
</g>
<g clip-path="url(#a)">
<use x="693.262696" y="1042.722029" fill="#ffffff" stroke="#ffffff" xlink:href="#b"/>
</g>
<g clip-path="url(#a)">
<use x="739.316558" y="1042.722029" fill="#ffffff" stroke="#ffffff" xlink:href="#b"/>
</g>
<g clip-path="url(#a)">
<use x="785.370421" y="1042.722029" fill="#ffffff" stroke="#ffffff" xlink:href="#b"/>
</g>
<g clip-path="url(#a)">
<use x="831.424284" y="1042.722029" fill="#ffffff" stroke="#ffffff" xlink:href="#b"/>
</g>
<g clip-path="url(#a)">
<use x="877.478147" y="1042.722029" fill="#ffffff" stroke="#ffffff" xlink:href="#b"/>
</g>
<g clip-path="url(#a)">
<use x="923.53201" y="1042.722029" fill="#ffffff" stroke="#ffffff" xlink:href="#b"/>
</g>
<g clip-path="url(#a)">
<use x="969.585872" y="1042.722029" fill="#ffffff" stroke="#ffffff" xlink:href="#b"/>
</g>
<g clip-path="url(#a)">
<use x="1015.639735" y="1042.722029" fill="#ffffff" stroke="#ffffff" xlink:href="#b"/>
</g>
<g clip-path="url(#a)">
<use x="1061.693598" y="1042.722029" fill="#ffffff" stroke="#ffffff" xlink:href="#b"/>
</g>
<g clip-path="url(#a)">
<use x="1107.747461" y="1042.722029" fill="#ffffff" stroke="#ffffff" xlink:href="#b"/>
</g>
<g clip-path="url(#a)">
<use x="1153.801324" y="1042.722029" fill="#ffffff" stroke="#ffffff" xlink:href="#b"/>
</g>
<g clip-path="url(#a)">
<use x="1199.855187" y="1042.722029" fill="#ffffff" stroke="#ffffff" xlink:href="#b"/>
</g>
<g clip-path="url(#a)">
<use x="1245.909049" y="1042.722029" fill="#ffffff" stroke="#ffffff" xlink:href="#b"/>
</g>
<g clip-path="url(#a)">
<use x="1291.962912" y="1042.722029" fill="#ffffff" stroke="#ffffff" xlink:href="#b"/>
</g>
<g clip-path="url(#a)">
<use x="1338.016775" y="1042.722029" fill="#ffffff" stroke="#ffffff" xlink:href="#b"/>
</g>
<g clip-path="url(#a)">
<use x="1384.070638" y="1042.722029" fill="#ffffff" stroke="#ffffff" xlink:href="#b"/>
</g>
<g clip-path="url(#a)">
<use x="1430.124501" y="1042.722029" fill="#ffffff" stroke="#ffffff" xlink:href="#b"/>
</g>
<g clip-path="url(#a)">
<use x="1476.178363" y="1042.722029" fill="#ffffff" stroke="#ffffff" xlink:href="#b"/>
</g>
<g clip-path="url(#a)">
<use x="1522.232226" y="1042.722029" fill="#ffffff" stroke="#ffffff" xlink:href="#b"/>
</g>
<g clip-path="url(#a)">
<use x="1568.286089" y="1042.722029" fill="#ffffff" stroke="#ffffff" xlink:href="#b"/>
</g>
<g clip-path="url(#a)">
<use x="1614.339952" y="1042.722029" fill="#ffffff" stroke="#ffffff" xlink:href="#b"/>
</g>
<g clip-path="url(#a)">
<use x="1660.393815" y="1042.722029" fill="#ffffff" stroke="#ffffff" xlink:href="#b"/>
</g>
<g clip-path="url(#a)">
<use x="1706.447677" y="1042.722029" fill="#ffffff" stroke="#ffffff" xlink:href="#b"/>
</g>
<g clip-path="url(#a)">
<use x="1752.50154" y="1042.722029" fill="#ffffff" stroke="#ffffff" xlink:href="#b"/>
</g>
<g clip-path="url(#a)">
<use x="1798.555403" y="1042.722029" fill="#ffffff" stroke="#ffffff" xlink:href="#b"/>
</g>
<g clip-path="url(#a)">
<use x="1844.609266" y="1042.722029" fill="#ffffff" stroke="#ffffff" xlink:href="#b"/>
</g>
<g clip-path="url(#a)">
<use x="1890.663129" y="1042.722029" fill="#ffffff" stroke="#ffffff" xlink:href="#b"/>
</g>
<g clip-path="url(#a)">
<use x="1936.716992" y="1042.722029" fill="#ffffff" stroke="#ffffff" xlink:href="#b"/>
</g>
<g clip-path="url(#a)">
<use x="916.649762" y="50.611305" fill="#ffffff" stroke="#ffffff" xlink:href="#b"/>
</g>
<g clip-path="url(#a)">
<use x="188.589116" y="393.840969" fill="#ffffff" stroke="#ffffff" xlink:href="#b"/>
</g>
<g clip-path="url(#a)">
<use x="514.803977" y="559.523925" fill="#ffffff" stroke="#ffffff" xlink:href="#b"/>
</g>
<g clip-path="url(#a)">
<use x="509.047244" y="882.399415" fill="#ffffff" stroke="#ffffff" xlink:href="#b"/>
</g>
<g clip-path="url(#a)">
<use x="739.316558" y="882.399415" fill="#ffffff" stroke="#ffffff" xlink:href="#b"/>
</g>
<g clip-path="url(#a)">
<use x="785.370421" y="882.399415" fill="#ffffff" stroke="#ffffff" xlink:href="#b"/>
</g>
<g clip-path="url(#a)">
<use x="888.991613" y="722.076802" fill="#ffffff" stroke="#ffffff" xlink:href="#b"/>
</g>
<g clip-path="url(#a)">
<use x="1015.639735" y="882.399415" fill="#ffffff" stroke="#ffffff" xlink:href="#b"/>
</g>
<g clip-path="url(#a)">
<use x="1343.773508" y="559.523925" fill="#ffffff" stroke="#ffffff" xlink:href="#b"/>
</g>
<g clip-path="url(#a)">
<use x="1384.070638" y="882.399415" fill="#ffffff" stroke="#ffffff" xlink:href="#b"/>
</g>
<g clip-path="url(#a)">
<use x="1545.978749" y="224.382889" fill="#ffffff" stroke="#ffffff" xlink:href="#b"/>
</g>
<g clip-path="url(#a)">
<use x="1430.124501" y="882.399415" fill="#ffffff" stroke="#ffffff" xlink:href="#b"/>
</g>
<g clip-path="url(#a)">
<use x="1476.178363" y="882.399415" fill="#ffffff" stroke="#ffffff" xlink:href="#b"/>
</g>
<g clip-path="url(#a)">
<use x="1522.232226" y="882.399415" fill="#ffffff" stroke="#ffffff" xlink:href="#b"/>
</g>
<g clip-path="url(#a)">
<use x="1755.379907" y="393.840969" fill="#ffffff" stroke="#ffffff" xlink:href="#b"/>
</g>
<g clip-path="url(#a)">
<use x="1568.286089" y="882.399415" fill="#ffffff" stroke="#ffffff" xlink:href="#b"/>
</g>
<g clip-path="url(#a)">
<use x="1614.339952" y="882.399415" fill="#ffffff" stroke="#ffffff" xlink:href="#b"/>
</g>
<g clip-path="url(#a)">
<use x="1660.393815" y="882.399415" fill="#ffffff" stroke="#ffffff" xlink:href="#b"/>
</g>
<g clip-path="url(#a)">
<use x="1729.474609" y="559.523925" fill="#ffffff" stroke="#ffffff" xlink:href="#b"/>
</g>
<g clip-path="url(#a)">
<use x="1798.555403" y="882.399415" fill="#ffffff" stroke="#ffffff" xlink:href="#b"/>
</g>
<g clip-path="url(#a)">
<use x="1844.609266" y="882.399415" fill="#ffffff" stroke="#ffffff" xlink:href="#b"/>
</g>
<g clip-path="url(#a)">
<use x="1890.663129" y="882.399415" fill="#ffffff" stroke="#ffffff" xlink:href="#b"/>
</g>
<g clip-path="url(#a)">
<use x="1706.447677" y="722.076802" fill="#ffffff" stroke="#ffffff" xlink:href="#b"/>
</g>
<g clip-path="url(#a)">
<use x="1752.50154" y="882.399415" fill="#ffffff" stroke="#ffffff" xlink:href="#b"/>
</g>
<g clip-path="url(#a)">
<use x="1706.447677" y="882.399415" fill="#ffffff" stroke="#ffffff" xlink:href="#b"/>
</g>
<g clip-path="url(#a)">
<use x="1982.770854" y="1042.722029" fill="#ffffff" stroke="#ffffff" xlink:href="#b"/>
</g>
<g clip-path="url(#a)">
<use x="1061.693598" y="882.399415" fill="#ffffff" stroke="#ffffff" xlink:href="#b"/>
</g>
<g clip-path="url(#a)">
<use x="1107.747461" y="882.399415" fill="#ffffff" stroke="#ffffff" xlink:href="#b"/>
</g>
<g clip-path="url(#a)">
<use x="1222.882118" y="722.076802" fill="#ffffff" stroke="#ffffff" xlink:href="#b"/>
</g>
<g clip-path="url(#a)">
<use x="1153.801324" y="882.399415" fill="#ffffff" stroke="#ffffff" xlink:href="#b"/>
</g>
<g clip-path="url(#a)">
<use x="1199.855187" y="882.399415" fill="#ffffff" stroke="#ffffff" xlink:href="#b"/>
</g>
<g clip-path="url(#a)">
<use x="1245.909049" y="882.399415" fill="#ffffff" stroke="#ffffff" xlink:href="#b"/>
</g>
<g clip-path="url(#a)">
<use x="1291.962912" y="882.399415" fill="#ffffff" stroke="#ffffff" xlink:href="#b"/>
</g>
<g clip-path="url(#a)">
<use x="854.451215" y="882.399415" fill="#ffffff" stroke="#ffffff" xlink:href="#b"/>
</g>
<g clip-path="url(#a)">
<use x="923.53201" y="882.399415" fill="#ffffff" stroke="#ffffff" xlink:href="#b"/>
</g>
<g clip-path="url(#a)">
<use x="416.939519" y="882.399415" fill="#ffffff" stroke="#ffffff" xlink:href="#b"/>
</g>
<g clip-path="url(#a)">
<use x="462.993382" y="882.399415" fill="#ffffff" stroke="#ffffff" xlink:href="#b"/>
</g>
<g clip-path="url(#a)">
<use x="555.101107" y="882.399415" fill="#ffffff" stroke="#ffffff" xlink:href="#b"/>
</g>
<g clip-path="url(#a)">
<use x="624.181901" y="722.076802" fill="#ffffff" stroke="#ffffff" xlink:href="#b"/>
</g>
<g clip-path="url(#a)">
<use x="601.15497" y="882.399415" fill="#ffffff" stroke="#ffffff" xlink:href="#b"/>
</g>
<g clip-path="url(#a)">
<use x="647.208833" y="882.399415" fill="#ffffff" stroke="#ffffff" xlink:href="#b"/>
</g>
<g clip-path="url(#a)">
<use x="94.562479" y="882.399415" fill="#ffffff" stroke="#ffffff" xlink:href="#b"/>
</g>
<g clip-path="url(#a)">
<use x="140.616342" y="882.399415" fill="#ffffff" stroke="#ffffff" xlink:href="#b"/>
</g>
<g clip-path="url(#a)">
<use x="286.453574" y="559.523925" fill="#ffffff" stroke="#ffffff" xlink:href="#b"/>
</g>
<g clip-path="url(#a)">
<use x="232.724067" y="882.399415" fill="#ffffff" stroke="#ffffff" xlink:href="#b"/>
</g>
<g clip-path="url(#a)">
<use x="186.670205" y="882.399415" fill="#ffffff" stroke="#ffffff" xlink:href="#b"/>
</g>
<g clip-path="url(#a)">
<use x="301.804862" y="722.076802" fill="#ffffff" stroke="#ffffff" xlink:href="#b"/>
</g>
<g clip-path="url(#a)">
<use x="370.885656" y="882.399415" fill="#ffffff" stroke="#ffffff" xlink:href="#b"/>
</g>
<g clip-path="url(#a)">
<use x="278.77793" y="882.399415" fill="#ffffff" stroke="#ffffff" xlink:href="#b"/>
</g>
<g clip-path="url(#a)">
<use x="324.831793" y="882.399415" fill="#ffffff" stroke="#ffffff" xlink:href="#b"/>
</g>
<g clip-path="url(#a)">
<use x="693.262696" y="882.399415" fill="#ffffff" stroke="#ffffff" xlink:href="#b"/>
</g>
<g clip-path="url(#a)">
<use x="969.585872" y="882.399415" fill="#ffffff" stroke="#ffffff" xlink:href="#b"/>
</g>
<g clip-path="url(#a)">
<use x="1338.016775" y="882.399415" fill="#ffffff" stroke="#ffffff" xlink:href="#b"/>
</g>
<g clip-path="url(#a)">
<use x="1936.716992" y="882.399415" fill="#ffffff" stroke="#ffffff" xlink:href="#b"/>
</g>
<g clip-path="url(#a)">
<defs>
<path id="w" d="m54.891 33.016v-33.016h-8.9844v32.719q0 7.7656-3.0312 11.609-3.0312 3.8594-9.0781 3.8594-7.2812 0-11.484-4.6406-4.2031-4.625-4.2031-12.641v-30.906h-9.0312v75.984h9.0312v-29.797q3.2344 4.9375 7.5938 7.375 4.375 2.4375 10.094 2.4375 9.4219 0 14.25-5.8281 4.8438-5.8281 4.8438-17.156z"/>
<path id="o" d="m44.281 53.078v-8.5q-3.7969 1.9531-7.9062 2.9219-4.0938 0.98438-8.5 0.98438-6.6875 0-10.031-2.0469t-3.3438-6.1562q0-3.125 2.3906-4.9062t9.625-3.3906l3.0781-0.6875q9.5625-2.0469 13.594-5.7812t4.0312-10.422q0-7.625-6.0312-12.078-6.0312-4.4375-16.578-4.4375-4.3906 0-9.1562 0.85938t-10.031 2.5625v9.2812q4.9844-2.5938 9.8125-3.8906 4.8281-1.2812 9.5781-1.2812 6.3438 0 9.75 2.1719 3.4219 2.1719 3.4219 6.125 0 3.6562-2.4688 5.6094-2.4531 1.9531-10.812 3.7656l-3.125 0.73438q-8.3438 1.75-12.062 5.3906-3.7031 3.6406-3.7031 9.9844 0 7.7188 5.4688 11.906 5.4688 4.2031 15.531 4.2031 4.9688 0 9.3594-0.73438 4.4062-0.71875 8.1094-2.1875z"/>
</defs>
<g transform="translate(84.346 1045.5) scale(.1 -.1)">
<use xlink:href="#k"/>
<use x="61.083984" xlink:href="#w"/>
<use x="124.462891" xlink:href="#i"/>
<use x="152.246094" xlink:href="#o"/>
</g>
</g>
<g clip-path="url(#a)">
<g transform="translate(136.62 1045.5) scale(.1 -.1)">
<use xlink:href="#i"/>
<use x="27.783203" xlink:href="#o"/>
</g>
</g>
<g clip-path="url(#a)">
<g transform="translate(183.61 1045.5) scale(.1 -.1)">
<use xlink:href="#f"/>
</g>
</g>
<g clip-path="url(#a)">
<defs>
<path id="aa" d="m48.688 27.297q0 9.9062-4.0781 15.547t-11.203 5.6406q-7.1406 0-11.219-5.6406t-4.0781-15.547 4.0781-15.547 11.219-5.6406q7.125 0 11.203 5.6406t4.0781 15.547zm-30.578 19.094q2.8438 4.875 7.1562 7.2344 4.3281 2.375 10.328 2.375 9.9688 0 16.188-7.9062 6.2344-7.9062 6.2344-20.797t-6.2344-20.812q-6.2188-7.9062-16.188-7.9062-6 0-10.328 2.375-4.3125 2.375-7.1562 7.25v-8.2031h-9.0312v75.984h9.0312z"/>
<path id="v" d="m8.5 21.578v33.109h8.9844v-32.766q0-7.7656 3.0156-11.656 3.0312-3.875 9.0938-3.875 7.2656 0 11.484 4.6406 4.2344 4.6406 4.2344 12.656v31h8.9844v-54.688h-8.9844v8.4062q-3.2656-4.9844-7.5938-7.4062-4.3125-2.4219-10.031-2.4219-9.4219 0-14.312 5.8594-4.875 5.8594-4.875 17.141z"/>
<path id="ak" d="m32.172-5.0781q-3.7969-9.7656-7.4219-12.734-3.6094-2.9844-9.6562-2.9844h-7.1875v7.5156h5.2812q3.7031 0 5.75 1.7656 2.0625 1.75 4.5469 8.2969l1.6094 4.0938-22.109 53.812h9.5156l17.094-42.766 17.094 42.766h9.5156z"/>
</defs>
<g transform="translate(220.82 1045.5) scale(.1 -.1)">
<use xlink:href="#aa"/>
<use x="63.476562" xlink:href="#v"/>
<use x="126.855469" xlink:href="#o"/>
<use x="178.955078" xlink:href="#ak"/>
</g>
</g>
<g clip-path="url(#a)">
<defs>
<path id="as" d="m45.406 27.984q0 9.7656-4.0312 15.125-4.0156 5.375-11.297 5.375-7.2188 0-11.25-5.375-4.0312-5.3594-4.0312-15.125 0-9.7188 4.0312-15.094t11.25-5.375q7.2812 0 11.297 5.375 4.0312 5.375 4.0312 15.094zm8.9844-21.203q0-13.953-6.2031-20.766-6.1875-6.8125-18.984-6.8125-4.7344 0-8.9375 0.70312t-8.1562 2.1719v8.7344q3.9531-2.1406 7.8125-3.1562 3.8594-1.0312 7.8594-1.0312 8.8438 0 13.234 4.6094t4.3906 13.938v4.4531q-2.7812-4.8438-7.125-7.2344t-10.406-2.3906q-10.047 0-16.203 7.6562-6.1562 7.6719-6.1562 20.328 0 12.688 6.1562 20.344 6.1562 7.6719 16.203 7.6719 6.0625 0 10.406-2.3906t7.125-7.2188v8.2969h8.9844z"/>
<path id="s" d="m30.609 48.391q-7.2188 0-11.422-5.6406t-4.2031-15.453 4.1719-15.453q4.1875-5.6406 11.453-5.6406 7.1875 0 11.375 5.6562 4.2031 5.6719 4.2031 15.438 0 9.7188-4.2031 15.406-4.1875 5.6875-11.375 5.6875zm0 7.6094q11.719 0 18.406-7.625 6.7031-7.6094 6.7031-21.078 0-13.422-6.7031-21.078-6.6875-7.6406-18.406-7.6406-11.766 0-18.438 7.6406-6.6562 7.6562-6.6562 21.078 0 13.469 6.6562 21.078 6.6719 7.625 18.438 7.625z"/>
<path id="ar" d="m18.109 8.2031v-29h-9.0312v75.484h9.0312v-8.2969q2.8438 4.875 7.1562 7.2344 4.3281 2.375 10.328 2.375 9.9688 0 16.188-7.9062 6.2344-7.9062 6.2344-20.797t-6.2344-20.812q-6.2188-7.9062-16.188-7.9062-6 0-10.328 2.375-4.3125 2.375-7.1562 7.25zm30.578 19.094q0 9.9062-4.0781 15.547t-11.203 5.6406q-7.1406 0-11.219-5.6406t-4.0781-15.547 4.0781-15.547 11.219-5.6406q7.125 0 11.203 5.6406t4.0781 15.547z"/>
</defs>
<g transform="translate(264.15 1045.5) scale(.1 -.1)">
<use xlink:href="#as"/>
<use x="63.476562" xlink:href="#g"/>
<use x="104.558594" xlink:href="#s"/>
<use x="165.740234" xlink:href="#v"/>
<use x="229.119141" xlink:href="#ar"/>
</g>
</g>
<g clip-path="url(#a)">
<defs>
<path id="ao" d="m37.109 75.984v-7.4844h-8.5938q-4.8281 0-6.7188-1.9531-1.875-1.9531-1.875-7.0312v-4.8281h14.797v-6.9844h-14.797v-47.703h-9.0312v47.703h-8.5938v6.9844h8.5938v3.8125q0 9.125 4.25 13.297 4.25 4.1875 13.469 4.1875z"/>
</defs>
<g transform="translate(320.01 1045.5) scale(.1 -.1)">
<use xlink:href="#s"/>
<use x="61.181641" xlink:href="#ao"/>
</g>
</g>
<g clip-path="url(#a)">
<defs>
<path id="r" d="m18.312 70.219v-15.531h18.5v-6.9844h-18.5v-29.688q0-6.6875 1.8281-8.5938t7.4531-1.9062h9.2188v-7.5156h-9.2188q-10.406 0-14.359 3.875-3.9531 3.8906-3.9531 14.141v29.688h-6.5938v6.9844h6.5938v15.531z"/>
</defs>
<g transform="translate(357.49 1045.5) scale(.1 -.1)">
<use xlink:href="#w"/>
<use x="63.378906" xlink:href="#s"/>
<use x="124.560547" xlink:href="#o"/>
<use x="176.660156" xlink:href="#r"/>
<use x="215.869141" xlink:href="#o"/>
</g>
</g>
<g clip-path="url(#a)">
<g transform="translate(405.77 1045.5) scale(.1 -.1)">
<use xlink:href="#r"/>
<use x="39.208984" xlink:href="#w"/>
<use x="102.587891" xlink:href="#e"/>
<use x="164.111328" xlink:href="#ak"/>
</g>
</g>
<g clip-path="url(#a)">
<g transform="translate(454.8 1045.5) scale(.1 -.1)">
<use xlink:href="#f"/>
<use x="61.279297" xlink:href="#g"/>
<use x="102.361328" xlink:href="#e"/>
</g>
</g>
<g clip-path="url(#a)">
<g transform="translate(498.93 1045.5) scale(.1 -.1)">
<use xlink:href="#f"/>
<use x="61.279297" xlink:href="#j"/>
<use x="89.0625" xlink:href="#o"/>
<use x="141.162109" xlink:href="#s"/>
</g>
</g>
<g clip-path="url(#a)">
<g transform="translate(535.81 1045.5) scale(.1 -.1)">
<use xlink:href="#g"/>
<use x="41.113281" xlink:href="#v"/>
<use x="104.492188" xlink:href="#h"/>
<use x="167.871094" xlink:href="#h"/>
<use x="231.25" xlink:href="#i"/>
<use x="259.033203" xlink:href="#h"/>
<use x="322.412109" xlink:href="#as"/>
</g>
</g>
<g clip-path="url(#a)">
<g transform="translate(598.09 1045.5) scale(.1 -.1)">
<use xlink:href="#f"/>
</g>
</g>
<g clip-path="url(#a)">
<g transform="translate(621.03 1045.5) scale(.1 -.1)">
<use xlink:href="#g"/>
<use x="41.082031" xlink:href="#e"/>
<use x="102.605469" xlink:href="#o"/>
<use x="154.705078" xlink:href="#r"/>
<use x="193.914062" xlink:href="#f"/>
<use x="255.193359" xlink:href="#v"/>
<use x="318.572266" xlink:href="#g"/>
<use x="359.685547" xlink:href="#f"/>
<use x="420.964844" xlink:href="#h"/>
<use x="484.34375" xlink:href="#r"/>
</g>
</g>
<g clip-path="url(#a)">
<defs>
<path id="aq" d="m11.719 12.406h10.297v-8.4062l-8-15.625h-6.2969l4 15.625z"/>
</defs>
<g transform="translate(691.67 1045.5) scale(.1 -.1)">
<use xlink:href="#aq"/>
</g>
</g>
<g clip-path="url(#a)">
<defs>
<path id="al" d="m4.2031 54.688h8.9844l11.234-42.672 11.172 42.672h10.594l11.234-42.672 11.188 42.672h8.9844l-14.312-54.688h-10.594l-11.766 44.828-11.812-44.828h-10.609z"/>
<path id="at" d="m48.781 52.594v-8.4062q-3.8125 2.1094-7.6406 3.1562t-7.7344 1.0469q-8.75 0-13.594-5.5469-4.8281-5.5312-4.8281-15.547t4.8281-15.562q4.8438-5.5312 13.594-5.5312 3.9062 0 7.7344 1.0469t7.6406 3.1562v-8.3125q-3.7656-1.75-7.7969-2.625-4.0156-0.89062-8.5625-0.89062-12.359 0-19.641 7.7656-7.2656 7.7656-7.2656 20.953 0 13.375 7.3438 21.031 7.3594 7.6719 20.156 7.6719 4.1406 0 8.0938-0.85938 3.9531-0.84375 7.6719-2.5469z"/>
</defs>
<g transform="translate(724.75 1045.5) scale(.1 -.1)">
<use xlink:href="#al"/>
<use x="81.787109" xlink:href="#w"/>
<use x="145.166016" xlink:href="#i"/>
<use x="172.949219" xlink:href="#at"/>
<use x="227.929688" xlink:href="#w"/>
</g>
</g>
<g clip-path="url(#a)">
<g transform="translate(775.25 1045.5) scale(.1 -.1)">
<use xlink:href="#f"/>
<use x="61.279297" xlink:href="#j"/>
<use x="89.0625" xlink:href="#o"/>
<use x="141.162109" xlink:href="#s"/>
</g>
</g>
<g clip-path="url(#a)">
<g transform="translate(818.82 1045.5) scale(.1 -.1)">
<use xlink:href="#l"/>
<use x="97.412109" xlink:href="#v"/>
<use x="160.791016" xlink:href="#o"/>
<use x="212.890625" xlink:href="#r"/>
</g>
</g>
<g clip-path="url(#a)">
<g transform="translate(871.23 1045.5) scale(.1 -.1)">
<use xlink:href="#aa"/>
<use x="63.476562" xlink:href="#e"/>
</g>
</g>
<g clip-path="url(#a)">
<defs>
<path id="am" d="m45.406 46.391v29.594h8.9844v-75.984h-8.9844v8.2031q-2.8281-4.875-7.1562-7.25-4.3125-2.375-10.375-2.375-9.9062 0-16.141 7.9062-6.2188 7.9219-6.2188 20.812t6.2188 20.797q6.2344 7.9062 16.141 7.9062 6.0625 0 10.375-2.375 4.3281-2.3594 7.1562-7.2344zm-30.609-19.094q0-9.9062 4.0781-15.547t11.203-5.6406 11.219 5.6406q4.1094 5.6406 4.1094 15.547t-4.1094 15.547q-4.0938 5.6406-11.219 5.6406t-11.203-5.6406-4.0781-15.547z"/>
</defs>
<g transform="translate(898.59 1045.5) scale(.1 -.1)">
<use xlink:href="#al"/>
<use x="81.787109" xlink:href="#s"/>
<use x="142.96875" xlink:href="#h"/>
<use x="206.347656" xlink:href="#am"/>
<use x="269.824219" xlink:href="#e"/>
<use x="331.347656" xlink:href="#g"/>
<use x="372.460938" xlink:href="#ao"/>
<use x="407.666016" xlink:href="#v"/>
<use x="471.044922" xlink:href="#j"/>
</g>
</g>
<g clip-path="url(#a)">
<defs>
<path id="ax" d="m4.8906 31.391h26.312v-8h-26.312z"/>
</defs>
<g transform="translate(967.78 1045.5) scale(.1 -.1)">
<use xlink:href="#ax"/>
</g>
</g>
<g clip-path="url(#a)">
<g transform="translate(1010 1045.5) scale(.1 -.1)">
<use xlink:href="#o"/>
<use x="52.099609" xlink:href="#s"/>
</g>
</g>
<g clip-path="url(#a)">
<defs>
<path id="ba" d="m9.4219 54.688h8.9844v-55.672q0-10.438-3.9844-15.125-3.9688-4.6875-12.812-4.6875h-3.4219v7.6094h2.4062q5.125 0 6.9688 2.375 1.8594 2.3594 1.8594 9.8281zm0 21.297h8.9844v-11.391h-8.9844z"/>
</defs>
<g transform="translate(1052.6 1045.5) scale(.1 -.1)">
<use xlink:href="#ba"/>
<use x="27.783203" xlink:href="#v"/>
<use x="91.162109" xlink:href="#o"/>
<use x="143.261719" xlink:href="#r"/>
</g>
</g>
<g clip-path="url(#a)">
<defs>
<path id="az" d="m9.0781 75.984h9.0312v-44.875l26.812 23.578h11.469l-29-25.578 30.234-29.109h-11.719l-27.797 26.703v-26.703h-9.0312z"/>
</defs>
<g transform="translate(1099.2 1045.5) scale(.1 -.1)">
<use xlink:href="#f"/>
<use x="61.279297" xlink:href="#o"/>
<use x="113.378906" xlink:href="#az"/>
</g>
</g>
<g clip-path="url(#a)">
<g transform="translate(1146.9 1045.5) scale(.1 -.1)">
<use xlink:href="#ao"/>
<use x="35.205078" xlink:href="#s"/>
<use x="96.386719" xlink:href="#g"/>
</g>
</g>
<g clip-path="url(#a)">
<g transform="translate(1187.6 1045.5) scale(.1 -.1)">
<use xlink:href="#al"/>
<use x="81.787109" xlink:href="#w"/>
<use x="145.166016" xlink:href="#f"/>
<use x="206.445312" xlink:href="#r"/>
</g>
</g>
<g clip-path="url(#a)">
<g transform="translate(1236.7 1045.5) scale(.1 -.1)">
<use xlink:href="#ak"/>
<use x="59.179688" xlink:href="#s"/>
<use x="120.361328" xlink:href="#v"/>
</g>
</g>
<g clip-path="url(#a)">
<g transform="translate(1279.5 1045.5) scale(.1 -.1)">
<use xlink:href="#h"/>
<use x="63.378906" xlink:href="#e"/>
<use x="124.902344" xlink:href="#e"/>
<use x="186.425781" xlink:href="#am"/>
</g>
</g>
<g clip-path="url(#a)">
<g transform="translate(1336.4 1045.5) scale(.1 -.1)">
<use xlink:href="#aq"/>
</g>
</g>
<g clip-path="url(#a)">
<g transform="translate(1374.7 1045.5) scale(.1 -.1)">
<use xlink:href="#f"/>
<use x="61.279297" xlink:href="#h"/>
<use x="124.658203" xlink:href="#am"/>
</g>
</g>
<g clip-path="url(#a)">
<defs>
<path id="ai" d="m9.8125 72.906h9.8594v-72.906h-9.8594z"/>
</defs>
<g transform="translate(1428.6 1045.5) scale(.1 -.1)">
<use xlink:href="#ai"/>
</g>
</g>
<g clip-path="url(#a)">
<defs>
<path id="ay" d="m17.922 72.906v-27.109h-8.2969v27.109z"/>
</defs>
<g transform="translate(1469.9 1045.5) scale(.1 -.1)">
<use xlink:href="#ay"/>
<use x="27.490234" xlink:href="#l"/>
</g>
</g>
<g clip-path="url(#a)">
<g transform="translate(1511.3 1045.5) scale(.1 -.1)">
<use xlink:href="#o"/>
<use x="52.099609" xlink:href="#v"/>
<use x="115.478516" xlink:href="#g"/>
<use x="156.560547" xlink:href="#e"/>
</g>
</g>
<g clip-path="url(#a)">
<g transform="translate(1557.1 1045.5) scale(.1 -.1)">
<use xlink:href="#r"/>
<use x="39.208984" xlink:href="#w"/>
<use x="102.587891" xlink:href="#e"/>
<use x="164.111328" xlink:href="#ak"/>
</g>
</g>
<g clip-path="url(#a)">
<g transform="translate(1606.1 1045.5) scale(.1 -.1)">
<use xlink:href="#al"/>
<use x="81.787109" xlink:href="#i"/>
<use x="109.570312" xlink:href="#j"/>
<use x="137.353516" xlink:href="#j"/>
</g>
</g>
<g clip-path="url(#a)">
<g transform="translate(1654.2 1045.5) scale(.1 -.1)">
<use xlink:href="#am"/>
<use x="63.476562" xlink:href="#s"/>
</g>
</g>
<g clip-path="url(#a)">
<g transform="translate(1694.8 1045.5) scale(.1 -.1)">
<use xlink:href="#r"/>
<use x="39.208984" xlink:href="#w"/>
<use x="102.587891" xlink:href="#e"/>
<use x="164.111328" xlink:href="#i"/>
<use x="191.894531" xlink:href="#g"/>
</g>
</g>
<g clip-path="url(#a)">
<g transform="translate(1741.7 1045.5) scale(.1 -.1)">
<use xlink:href="#aa"/>
<use x="63.476562" xlink:href="#e"/>
<use x="125" xlink:href="#o"/>
<use x="177.099609" xlink:href="#r"/>
</g>
</g>
<g clip-path="url(#a)">
<g transform="translate(1793.5 1045.5) scale(.1 -.1)">
<use xlink:href="#r"/>
<use x="39.208984" xlink:href="#s"/>
</g>
</g>
<g clip-path="url(#a)">
<g transform="translate(1838.4 1045.5) scale(.1 -.1)">
<use xlink:href="#aa"/>
<use x="63.476562" xlink:href="#e"/>
</g>
</g>
<g clip-path="url(#a)">
<g transform="translate(1864.6 1045.5) scale(.1 -.1)">
<use xlink:href="#w"/>
<use x="63.378906" xlink:href="#s"/>
<use x="124.560547" xlink:href="#o"/>
<use x="176.660156" xlink:href="#ar"/>
<use x="240.136719" xlink:href="#i"/>
<use x="267.919922" xlink:href="#r"/>
<use x="307.128906" xlink:href="#f"/>
<use x="368.408203" xlink:href="#aa"/>
<use x="431.884766" xlink:href="#j"/>
<use x="459.667969" xlink:href="#e"/>
</g>
</g>
<g clip-path="url(#a)">
<defs>
<path id="d" d="m10.688 12.406h10.312v-12.406h-10.312z"/>
</defs>
<g transform="translate(1935.1 1045.5) scale(.1 -.1)">
<use xlink:href="#d"/>
</g>
</g>
<g clip-path="url(#a)">
<defs>
<path id="c" d="m12.406 8.2969h16.109v55.625l-17.531-3.5156v8.9844l17.438 3.5156h9.8594v-64.609h16.109v-8.2969h-41.984z"/>
</defs>
<g transform="translate(908.7 53.371) scale(.1 -.1)">
<use xlink:href="#c"/>
<use x="63.623047" xlink:href="#d"/>
<use x="95.410156" xlink:href="#c"/>
</g>
</g>
<g clip-path="url(#a)">
<defs>
<path id="q" d="m19.188 8.2969h34.422v-8.2969h-46.281v8.2969q5.6094 5.8125 15.297 15.594 9.7031 9.7969 12.188 12.641 4.7344 5.3125 6.6094 9 1.8906 3.6875 1.8906 7.25 0 5.8125-4.0781 9.4688-4.0781 3.6719-10.625 3.6719-4.6406 0-9.7969-1.6094-5.1406-1.6094-11-4.8906v9.9688q5.9531 2.3906 11.125 3.6094 5.1875 1.2188 9.4844 1.2188 11.328 0 18.062-5.6719 6.7344-5.6562 6.7344-15.125 0-4.5-1.6875-8.5312-1.6719-4.0156-6.125-9.4844-1.2188-1.4219-7.7656-8.1875-6.5312-6.7656-18.453-18.922z"/>
</defs>
<g transform="translate(180.64 396.6) scale(.1 -.1)">
<use xlink:href="#c"/>
<use x="63.623047" xlink:href="#d"/>
<use x="95.410156" xlink:href="#q"/>
</g>
</g>
<g clip-path="url(#a)">
<defs>
<path id="p" d="m40.578 39.312q7.0781-1.5156 11.047-6.3125 3.9844-4.7812 3.9844-11.812 0-10.781-7.4219-16.703-7.4219-5.9062-21.094-5.9062-4.5781 0-9.4375 0.90625t-10.031 2.7188v9.5156q4.0938-2.3906 8.9688-3.6094 4.8906-1.2188 10.219-1.2188 9.2656 0 14.125 3.6562t4.8594 10.641q0 6.4531-4.5156 10.078-4.5156 3.6406-12.562 3.6406h-8.5v8.1094h8.8906q7.2656 0 11.125 2.9062t3.8594 8.375q0 5.6094-3.9844 8.6094-3.9688 3.0156-11.391 3.0156-4.0625 0-8.7031-0.89062-4.6406-0.875-10.203-2.7188v8.7812q5.625 1.5625 10.531 2.3438t9.25 0.78125q11.234 0 17.766-5.1094 6.5469-5.0938 6.5469-13.781 0-6.0625-3.4688-10.234t-9.8594-5.7812z"/>
</defs>
<g transform="translate(506.85 562.28) scale(.1 -.1)">
<use xlink:href="#c"/>
<use x="63.623047" xlink:href="#d"/>
<use x="95.410156" xlink:href="#p"/>
</g>
</g>
<g clip-path="url(#a)">
<defs>
<path id="n" d="m37.797 64.312-24.906-38.922h24.906zm-2.5938 8.5938h12.406v-47.516h10.406v-8.2031h-10.406v-17.188h-9.8125v17.188h-32.906v9.5156z"/>
</defs>
<g transform="translate(501.1 885.16) scale(.1 -.1)">
<use xlink:href="#c"/>
<use x="63.623047" xlink:href="#d"/>
<use x="95.410156" xlink:href="#n"/>
</g>
</g>
<g clip-path="url(#a)">
<defs>
<path id="m" d="m10.797 72.906h38.719v-8.3125h-29.688v-17.859q2.1406 0.73438 4.2812 1.0938 2.1562 0.35938 4.3125 0.35938 12.203 0 19.328-6.6875 7.1406-6.6875 7.1406-18.109 0-11.766-7.3281-18.297-7.3281-6.5156-20.656-6.5156-4.5938 0-9.3594 0.78125-4.75 0.78125-9.8281 2.3438v9.9219q4.3906-2.3906 9.0781-3.5625t9.9062-1.1719q8.4531 0 13.375 4.4375 4.9375 4.4375 4.9375 12.062 0 7.6094-4.9375 12.047-4.9219 4.4531-13.375 4.4531-3.9531 0-7.8906-0.875-3.9219-0.875-8.0156-2.7344z"/>
</defs>
<g transform="translate(731.36 885.16) scale(.1 -.1)">
<use xlink:href="#c"/>
<use x="63.623047" xlink:href="#d"/>
<use x="95.410156" xlink:href="#m"/>
</g>
</g>
<g clip-path="url(#a)">
<defs>
<path id="af" d="m33.016 40.375q-6.6406 0-10.531-4.5469-3.875-4.5312-3.875-12.438 0-7.8594 3.875-12.438 3.8906-4.5625 10.531-4.5625t10.516 4.5625q3.875 4.5781 3.875 12.438 0 7.9062-3.875 12.438-3.875 4.5469-10.516 4.5469zm19.578 30.922v-8.9844q-3.7188 1.75-7.5 2.6719-3.7812 0.9375-7.5 0.9375-9.7656 0-14.922-6.5938-5.1406-6.5938-5.875-19.922 2.875 4.25 7.2188 6.5156 4.3594 2.2656 9.5781 2.2656 10.984 0 17.359-6.6719 6.375-6.6562 6.375-18.125 0-11.234-6.6406-18.031-6.6406-6.7812-17.672-6.7812-12.656 0-19.344 9.6875-6.6875 9.7031-6.6875 28.109 0 17.281 8.2031 27.562t22.016 10.281q3.7188 0 7.5-0.73438t7.8906-2.1875z"/>
</defs>
<g transform="translate(777.42 885.16) scale(.1 -.1)">
<use xlink:href="#c"/>
<use x="63.623047" xlink:href="#d"/>
<use x="95.410156" xlink:href="#af"/>
</g>
</g>
<g clip-path="url(#a)">
<defs>
<path id="z" d="m8.2031 72.906h46.875v-4.2031l-26.469-68.703h-10.297l24.906 64.594h-35.016z"/>
</defs>
<g transform="translate(881.04 724.84) scale(.1 -.1)">
<use xlink:href="#c"/>
<use x="63.623047" xlink:href="#d"/>
<use x="95.410156" xlink:href="#z"/>
</g>
</g>
<g clip-path="url(#a)">
<defs>
<path id="y" d="m31.781 34.625q-7.0312 0-11.062-3.7656-4.0156-3.7656-4.0156-10.344 0-6.5938 4.0156-10.359 4.0312-3.7656 11.062-3.7656t11.078 3.7812q4.0625 3.7969 4.0625 10.344 0 6.5781-4.0312 10.344-4.0156 3.7656-11.109 3.7656zm-9.8594 4.1875q-6.3438 1.5625-9.8906 5.9062-3.5312 4.3594-3.5312 10.609 0 8.7344 6.2188 13.812 6.2344 5.0781 17.062 5.0781 10.891 0 17.094-5.0781t6.2031-13.812q0-6.25-3.5469-10.609-3.5312-4.3438-9.8281-5.9062 7.125-1.6562 11.094-6.5 3.9844-4.8281 3.9844-11.797 0-10.609-6.4688-16.281-6.4688-5.6562-18.531-5.6562-12.047 0-18.531 5.6562-6.4688 5.6719-6.4688 16.281 0 6.9688 4 11.797 4.0156 4.8438 11.141 6.5zm-3.6094 15.578q0-5.6562 3.5312-8.8281 3.5469-3.1719 9.9375-3.1719 6.3594 0 9.9375 3.1719 3.5938 3.1719 3.5938 8.8281 0 5.6719-3.5938 8.8438-3.5781 3.1719-9.9375 3.1719-6.3906 0-9.9375-3.1719-3.5312-3.1719-3.5312-8.8438z"/>
</defs>
<g transform="translate(1007.7 885.16) scale(.1 -.1)">
<use xlink:href="#c"/>
<use x="63.623047" xlink:href="#d"/>
<use x="95.410156" xlink:href="#y"/>
</g>
</g>
<g clip-path="url(#a)">
<defs>
<path id="ae" d="m10.984 1.5156v8.9844q3.7188-1.7656 7.5156-2.6875 3.8125-0.92188 7.4844-0.92188 9.7656 0 14.906 6.5625 5.1562 6.5625 5.8906 19.953-2.8281-4.2031-7.1875-6.4531-4.3438-2.25-9.6094-2.25-10.938 0-17.312 6.6094-6.375 6.625-6.375 18.109 0 11.219 6.6406 18 6.6406 6.7969 17.672 6.7969 12.656 0 19.312-9.7031 6.6719-9.6875 6.6719-28.141 0-17.234-8.1875-27.516-8.1719-10.281-21.984-10.281-3.7188 0-7.5312 0.73438-3.7969 0.73438-7.9062 2.2031zm19.625 30.906q6.6406 0 10.516 4.5312 3.8906 4.5469 3.8906 12.469 0 7.8594-3.8906 12.422-3.875 4.5625-10.516 4.5625t-10.516-4.5625-3.875-12.422q0-7.9219 3.875-12.469 3.875-4.5312 10.516-4.5312z"/>
</defs>
<g transform="translate(1335.8 562.28) scale(.1 -.1)">
<use xlink:href="#c"/>
<use x="63.623047" xlink:href="#d"/>
<use x="95.410156" xlink:href="#ae"/>
</g>
</g>
<g clip-path="url(#a)">
<defs>
<path id="aj" d="m31.781 66.406q-7.6094 0-11.453-7.5-3.8281-7.4844-3.8281-22.531 0-14.984 3.8281-22.484 3.8438-7.5 11.453-7.5 7.6719 0 11.5 7.5 3.8438 7.5 3.8438 22.484 0 15.047-3.8438 22.531-3.8281 7.5-11.5 7.5zm0 7.8125q12.266 0 18.734-9.7031 6.4688-9.6875 6.4688-28.141 0-18.406-6.4688-28.109-6.4688-9.6875-18.734-9.6875-12.25 0-18.719 9.6875-6.4688 9.7031-6.4688 28.109 0 18.453 6.4688 28.141 6.4688 9.7031 18.719 9.7031z"/>
</defs>
<g transform="translate(1372.9 885.16) scale(.1 -.1)">
<use xlink:href="#c"/>
<use x="63.623047" xlink:href="#d"/>
<use x="95.410156" xlink:href="#c"/>
<use x="159.033203" xlink:href="#aj"/>
</g>
</g>
<g clip-path="url(#a)">
<g transform="translate(1534.8 227.14) scale(.1 -.1)">
<use xlink:href="#c"/>
<use x="63.623047" xlink:href="#d"/>
<use x="95.410156" xlink:href="#c"/>
<use x="159.033203" xlink:href="#c"/>
</g>
</g>
<g clip-path="url(#a)">
<g transform="translate(1419 885.16) scale(.1 -.1)">
<use xlink:href="#c"/>
<use x="63.623047" xlink:href="#d"/>
<use x="95.410156" xlink:href="#c"/>
<use x="159.033203" xlink:href="#m"/>
</g>
</g>
<g clip-path="url(#a)">
<g transform="translate(1465 885.16) scale(.1 -.1)">
<use xlink:href="#c"/>
<use x="63.623047" xlink:href="#d"/>
<use x="95.410156" xlink:href="#c"/>
<use x="159.033203" xlink:href="#af"/>
</g>
</g>
<g clip-path="url(#a)">
<g transform="translate(1511.1 885.16) scale(.1 -.1)">
<use xlink:href="#c"/>
<use x="63.623047" xlink:href="#d"/>
<use x="95.410156" xlink:href="#c"/>
<use x="159.033203" xlink:href="#z"/>
</g>
</g>
<g clip-path="url(#a)">
<g transform="translate(1744.2 396.6) scale(.1 -.1)">
<use xlink:href="#c"/>
<use x="63.623047" xlink:href="#d"/>
<use x="95.410156" xlink:href="#c"/>
<use x="159.033203" xlink:href="#y"/>
</g>
</g>
<g clip-path="url(#a)">
<g transform="translate(1557.2 885.16) scale(.1 -.1)">
<use xlink:href="#c"/>
<use x="63.623047" xlink:href="#d"/>
<use x="95.410156" xlink:href="#c"/>
<use x="159.033203" xlink:href="#ae"/>
</g>
</g>
<g clip-path="url(#a)">
<g transform="translate(1603.2 885.16) scale(.1 -.1)">
<use xlink:href="#c"/>
<use x="63.623047" xlink:href="#d"/>
<use x="95.410156" xlink:href="#q"/>
<use x="159.033203" xlink:href="#aj"/>
</g>
</g>
<g clip-path="url(#a)">
<g transform="translate(1649.3 885.16) scale(.1 -.1)">
<use xlink:href="#c"/>
<use x="63.623047" xlink:href="#d"/>
<use x="95.410156" xlink:href="#q"/>
<use x="159.033203" xlink:href="#c"/>
</g>
</g>
<g clip-path="url(#a)">
<g transform="translate(1718.3 562.28) scale(.1 -.1)">
<use xlink:href="#c"/>
<use x="63.623047" xlink:href="#d"/>
<use x="95.410156" xlink:href="#q"/>
<use x="159.033203" xlink:href="#q"/>
</g>
</g>
<g clip-path="url(#a)">
<g transform="translate(1787.4 885.16) scale(.1 -.1)">
<use xlink:href="#c"/>
<use x="63.623047" xlink:href="#d"/>
<use x="95.410156" xlink:href="#q"/>
<use x="159.033203" xlink:href="#p"/>
</g>
</g>
<g clip-path="url(#a)">
<g transform="translate(1833.5 885.16) scale(.1 -.1)">
<use xlink:href="#c"/>
<use x="63.623047" xlink:href="#d"/>
<use x="95.410156" xlink:href="#q"/>
<use x="159.033203" xlink:href="#n"/>
</g>
</g>
<g clip-path="url(#a)">
<g transform="translate(1879.5 885.16) scale(.1 -.1)">
<use xlink:href="#c"/>
<use x="63.623047" xlink:href="#d"/>
<use x="95.410156" xlink:href="#q"/>
<use x="159.033203" xlink:href="#m"/>
</g>
</g>
<g clip-path="url(#a)">
<g transform="translate(1695.3 724.84) scale(.1 -.1)">
<use xlink:href="#c"/>
<use x="63.623047" xlink:href="#d"/>
<use x="95.410156" xlink:href="#q"/>
<use x="159.033203" xlink:href="#z"/>
</g>
</g>
<g clip-path="url(#a)">
<g transform="translate(1741.4 885.16) scale(.1 -.1)">
<use xlink:href="#c"/>
<use x="63.623047" xlink:href="#d"/>
<use x="95.410156" xlink:href="#q"/>
<use x="159.033203" xlink:href="#y"/>
</g>
</g>
<g clip-path="url(#a)">
<g transform="translate(1695.3 885.16) scale(.1 -.1)">
<use xlink:href="#c"/>
<use x="63.623047" xlink:href="#d"/>
<use x="95.410156" xlink:href="#q"/>
<use x="159.033203" xlink:href="#ae"/>
</g>
</g>
<g clip-path="url(#a)">
<defs>
<path id="aw" d="m9.8125 72.906h14.703l18.594-49.609 18.703 49.609h14.703v-72.906h-9.625v64.016l-18.797-50h-9.9062l-18.797 50v-64.016h-9.5781z"/>
</defs>
<g transform="translate(1961.7 1045.5) scale(.1 -.1)">
<use xlink:href="#ai"/>
<use x="29.492188" xlink:href="#aw"/>
<use x="115.771484" xlink:href="#ah"/>
<use x="176.074219" xlink:href="#x"/>
<use x="231.787109" xlink:href="#ai"/>
<use x="261.279297" xlink:href="#ad"/>
<use x="331.103516" xlink:href="#ai"/>
<use x="360.595703" xlink:href="#k"/>
</g>
</g>
<g clip-path="url(#a)">
<g transform="translate(1050.6 885.16) scale(.1 -.1)">
<use xlink:href="#c"/>
<use x="63.623047" xlink:href="#d"/>
<use x="95.410156" xlink:href="#p"/>
<use x="159.033203" xlink:href="#c"/>
</g>
</g>
<g clip-path="url(#a)">
<g transform="translate(1096.6 885.16) scale(.1 -.1)">
<use xlink:href="#c"/>
<use x="63.623047" xlink:href="#d"/>
<use x="95.410156" xlink:href="#p"/>
<use x="159.033203" xlink:href="#q"/>
</g>
</g>
<g clip-path="url(#a)">
<g transform="translate(1211.7 724.84) scale(.1 -.1)">
<use xlink:href="#c"/>
<use x="63.623047" xlink:href="#d"/>
<use x="95.410156" xlink:href="#p"/>
<use x="159.033203" xlink:href="#p"/>
</g>
</g>
<g clip-path="url(#a)">
<g transform="translate(1142.7 885.16) scale(.1 -.1)">
<use xlink:href="#c"/>
<use x="63.623047" xlink:href="#d"/>
<use x="95.410156" xlink:href="#p"/>
<use x="159.033203" xlink:href="#n"/>
</g>
</g>
<g clip-path="url(#a)">
<g transform="translate(1188.7 885.16) scale(.1 -.1)">
<use xlink:href="#c"/>
<use x="63.623047" xlink:href="#d"/>
<use x="95.410156" xlink:href="#p"/>
<use x="159.033203" xlink:href="#m"/>
</g>
</g>
<g clip-path="url(#a)">
<g transform="translate(1234.8 885.16) scale(.1 -.1)">
<use xlink:href="#c"/>
<use x="63.623047" xlink:href="#d"/>
<use x="95.410156" xlink:href="#p"/>
<use x="159.033203" xlink:href="#af"/>
</g>
</g>
<g clip-path="url(#a)">
<g transform="translate(1280.8 885.16) scale(.1 -.1)">
<use xlink:href="#c"/>
<use x="63.623047" xlink:href="#d"/>
<use x="95.410156" xlink:href="#p"/>
<use x="159.033203" xlink:href="#z"/>
</g>
</g>
<g clip-path="url(#a)">
<g transform="translate(843.32 885.16) scale(.1 -.1)">
<use xlink:href="#c"/>
<use x="63.623047" xlink:href="#d"/>
<use x="95.410156" xlink:href="#p"/>
<use x="159.033203" xlink:href="#y"/>
</g>
</g>
<g clip-path="url(#a)">
<g transform="translate(912.4 885.16) scale(.1 -.1)">
<use xlink:href="#c"/>
<use x="63.623047" xlink:href="#d"/>
<use x="95.410156" xlink:href="#p"/>
<use x="159.033203" xlink:href="#ae"/>
</g>
</g>
<g clip-path="url(#a)">
<g transform="translate(405.81 885.16) scale(.1 -.1)">
<use xlink:href="#c"/>
<use x="63.623047" xlink:href="#d"/>
<use x="95.410156" xlink:href="#n"/>
<use x="159.033203" xlink:href="#aj"/>
</g>
</g>
<g clip-path="url(#a)">
<g transform="translate(451.86 885.16) scale(.1 -.1)">
<use xlink:href="#c"/>
<use x="63.623047" xlink:href="#d"/>
<use x="95.410156" xlink:href="#n"/>
<use x="159.033203" xlink:href="#c"/>
</g>
</g>
<g clip-path="url(#a)">
<g transform="translate(543.97 885.16) scale(.1 -.1)">
<use xlink:href="#c"/>
<use x="63.623047" xlink:href="#d"/>
<use x="95.410156" xlink:href="#n"/>
<use x="159.033203" xlink:href="#q"/>
</g>
</g>
<g clip-path="url(#a)">
<g transform="translate(613.05 724.84) scale(.1 -.1)">
<use xlink:href="#c"/>
<use x="63.623047" xlink:href="#d"/>
<use x="95.410156" xlink:href="#n"/>
<use x="159.033203" xlink:href="#p"/>
</g>
</g>
<g clip-path="url(#a)">
<g transform="translate(590.02 885.16) scale(.1 -.1)">
<use xlink:href="#c"/>
<use x="63.623047" xlink:href="#d"/>
<use x="95.410156" xlink:href="#n"/>
<use x="159.033203" xlink:href="#n"/>
</g>
</g>
<g clip-path="url(#a)">
<g transform="translate(636.08 885.16) scale(.1 -.1)">
<use xlink:href="#c"/>
<use x="63.623047" xlink:href="#d"/>
<use x="95.410156" xlink:href="#n"/>
<use x="159.033203" xlink:href="#m"/>
</g>
</g>
<g clip-path="url(#a)">
<g transform="translate(83.43 885.16) scale(.1 -.1)">
<use xlink:href="#c"/>
<use x="63.623047" xlink:href="#d"/>
<use x="95.410156" xlink:href="#n"/>
<use x="159.033203" xlink:href="#af"/>
</g>
</g>
<g clip-path="url(#a)">
<g transform="translate(129.48 885.16) scale(.1 -.1)">
<use xlink:href="#c"/>
<use x="63.623047" xlink:href="#d"/>
<use x="95.410156" xlink:href="#n"/>
<use x="159.033203" xlink:href="#z"/>
</g>
</g>
<g clip-path="url(#a)">
<g transform="translate(275.32 562.28) scale(.1 -.1)">
<use xlink:href="#c"/>
<use x="63.623047" xlink:href="#d"/>
<use x="95.410156" xlink:href="#n"/>
<use x="159.033203" xlink:href="#y"/>
</g>
</g>
<g clip-path="url(#a)">
<g transform="translate(221.59 885.16) scale(.1 -.1)">
<use xlink:href="#c"/>
<use x="63.623047" xlink:href="#d"/>
<use x="95.410156" xlink:href="#n"/>
<use x="159.033203" xlink:href="#ae"/>
</g>
</g>
<g clip-path="url(#a)">
<g transform="translate(175.54 885.16) scale(.1 -.1)">
<use xlink:href="#c"/>
<use x="63.623047" xlink:href="#d"/>
<use x="95.410156" xlink:href="#m"/>
<use x="159.033203" xlink:href="#aj"/>
</g>
</g>
<g clip-path="url(#a)">
<g transform="translate(290.67 724.84) scale(.1 -.1)">
<use xlink:href="#c"/>
<use x="63.623047" xlink:href="#d"/>
<use x="95.410156" xlink:href="#m"/>
<use x="159.033203" xlink:href="#c"/>
</g>
</g>
<g clip-path="url(#a)">
<g transform="translate(359.75 885.16) scale(.1 -.1)">
<use xlink:href="#c"/>
<use x="63.623047" xlink:href="#d"/>
<use x="95.410156" xlink:href="#m"/>
<use x="159.033203" xlink:href="#q"/>
</g>
</g>
<g clip-path="url(#a)">
<g transform="translate(267.65 885.16) scale(.1 -.1)">
<use xlink:href="#c"/>
<use x="63.623047" xlink:href="#d"/>
<use x="95.410156" xlink:href="#m"/>
<use x="159.033203" xlink:href="#p"/>
</g>
</g>
<g clip-path="url(#a)">
<g transform="translate(313.7 885.16) scale(.1 -.1)">
<use xlink:href="#c"/>
<use x="63.623047" xlink:href="#d"/>
<use x="95.410156" xlink:href="#m"/>
<use x="159.033203" xlink:href="#n"/>
</g>
</g>
<g clip-path="url(#a)">
<g transform="translate(682.13 885.16) scale(.1 -.1)">
<use xlink:href="#c"/>
<use x="63.623047" xlink:href="#d"/>
<use x="95.410156" xlink:href="#m"/>
<use x="159.033203" xlink:href="#m"/>
</g>
</g>
<g clip-path="url(#a)">
<g transform="translate(958.45 885.16) scale(.1 -.1)">
<use xlink:href="#c"/>
<use x="63.623047" xlink:href="#d"/>
<use x="95.410156" xlink:href="#m"/>
<use x="159.033203" xlink:href="#af"/>
</g>
</g>
<g clip-path="url(#a)">
<g transform="translate(1326.9 885.16) scale(.1 -.1)">
<use xlink:href="#c"/>
<use x="63.623047" xlink:href="#d"/>
<use x="95.410156" xlink:href="#m"/>
<use x="159.033203" xlink:href="#z"/>
</g>
</g>
<g clip-path="url(#a)">
<g transform="translate(1925.6 885.16) scale(.1 -.1)">
<use xlink:href="#c"/>
<use x="63.623047" xlink:href="#d"/>
<use x="95.410156" xlink:href="#m"/>
<use x="159.033203" xlink:href="#y"/>
</g>
</g>
<defs>
<clipPath id="a">
<rect width="2077.3" height="1093.3"/>
</clipPath>
</defs>
</svg>
