<?xml version="1.0" encoding="UTF-8"?>
<!DOCTYPE svg  PUBLIC '-//W3C//DTD SVG 1.1//EN'  'http://www.w3.org/Graphics/SVG/1.1/DTD/svg11.dtd'>
<svg width="456pt" height="240pt" version="1.1" viewBox="0 0 456 240" xmlns="http://www.w3.org/2000/svg" xmlns:xlink="http://www.w3.org/1999/xlink">
<metadata>
<rdf:RDF xmlns:cc="http://creativecommons.org/ns#" xmlns:dc="http://purl.org/dc/elements/1.1/" xmlns:rdf="http://www.w3.org/1999/02/22-rdf-syntax-ns#">
<cc:Work>
<dc:type rdf:resource="http://purl.org/dc/dcmitype/StillImage"/>
<dc:date>2021-02-25T11:33:22.270419</dc:date>
<dc:format>image/svg+xml</dc:format>
<dc:creator>
<cc:Agent>
<dc:title>Matplotlib v3.3.3, https://matplotlib.org/</dc:title>
</cc:Agent>
</dc:creator>
</cc:Work>
</rdf:RDF>
</metadata>
<defs>
<style type="text/css">*{stroke-linecap:butt;stroke-linejoin:round;}</style>
</defs>
<path d="m0 240h456v-240h-456z" fill="#fff"/>
<g fill="none" stroke="#000">
<path d="m97.259 10.909v44.025" clip-path="url(#a)"/>
<path d="m97.259 54.935-76.531 131.22" clip-path="url(#a)"/>
<path d="m97.259 54.935-52.615 131.22" clip-path="url(#a)"/>
<path d="m97.259 54.935-20.727 131.22" clip-path="url(#a)"/>
<path d="m97.259 54.935 19.133 131.22" clip-path="url(#a)"/>
<path d="m97.259 54.935 130.74 43.914" clip-path="url(#a)"/>
<path d="m20.727 186.15v42.94" clip-path="url(#a)"/>
<path d="m44.643 186.15v42.94" clip-path="url(#a)"/>
<path d="m76.531 186.15v42.94" clip-path="url(#a)"/>
<path d="m116.39 186.15v42.94" clip-path="url(#a)"/>
<path d="m228 98.849-63.776 87.302" clip-path="url(#a)"/>
<path d="m228 98.849 63.776 43.765" clip-path="url(#a)"/>
<path d="m164.22 186.15v42.94" clip-path="url(#a)"/>
<path d="m291.78 142.61-127.55 43.537" clip-path="url(#a)" stroke-dasharray="3.7,1.6"/>
<path d="m291.78 142.61-71.748 43.537" clip-path="url(#a)"/>
<path d="m291.78 142.61-7.972 43.537" clip-path="url(#a)"/>
<path d="m291.78 142.61 63.776 43.537" clip-path="url(#a)"/>
<path d="m291.78 142.61 143.5 43.537" clip-path="url(#a)"/>
<path d="m220.03 186.15v42.94" clip-path="url(#a)"/>
<path d="m283.8 186.15v42.94" clip-path="url(#a)"/>
<path d="m355.55 186.15v42.94" clip-path="url(#a)"/>
<path d="m435.27 186.15v42.94" clip-path="url(#a)"/>
</g>
<path d="m90.987 29.914v6.0162q0 2.4 2.4 2.4h7.7425q2.4 0 2.4-2.4v-6.0162q0-2.4-2.4-2.4h-7.7425q-2.4 0-2.4 2.4z" clip-path="url(#a)" fill="#fff" stroke="#fff"/>
<g clip-path="url(#a)">
<g transform="translate(95.051 29.914) rotate(90) scale(.08 -.08)">
<defs>
<path id="x" d="m9.8125 72.906h9.8594v-29.891h35.844v29.891h9.8594v-72.906h-9.8594v34.719h-35.844v-34.719h-9.8594z"/>
</defs>
<use xlink:href="#x"/>
</g>
</g>
<path d="m63.032 126.07 2.7571-4.7272q1.2092-2.0731-0.864-3.2823l-6.6881-3.9008q-2.0732-1.2092-3.2823 0.864l-2.7571 4.7272q-1.2092 2.0731 0.864 3.2823l6.6881 3.9008q2.0732 1.2092 3.2823-0.864z" clip-path="url(#a)" fill="#fff" stroke="#fff"/>
<g clip-path="url(#a)">
<g transform="translate(59.521 124.02) rotate(-59.747) scale(.08 -.08)">
<defs>
<path id="m" d="m34.188 63.188-13.391-36.281h26.812zm-5.5781 9.7188h11.188l27.781-72.906h-10.25l-6.6406 18.703h-32.859l-6.6406-18.703h-10.406z"/>
</defs>
<use xlink:href="#m"/>
</g>
</g>
<path d="m75.916 125.01 1.7125-4.2707q0.89322-2.2276-1.3344-3.1208l-7.1863-2.8816q-2.2276-0.89322-3.1208 1.3344l-1.7125 4.2707q-0.89322 2.2276 1.3344 3.1208l7.1863 2.8816q2.2276 0.89322 3.1208-1.3344z" clip-path="url(#a)" fill="#fff" stroke="#fff"/>
<g clip-path="url(#a)">
<g transform="translate(72.144 123.5) rotate(-68.15) scale(.08 -.08)">
<defs>
<path id="r" d="m9.8125 72.906h41.891v-8.3125h-32.031v-21.484h28.906v-8.2969h-28.906v-34.812h-9.8594z"/>
</defs>
<use xlink:href="#r"/>
</g>
</g>
<path d="m92.609 124.56 0.96113-6.0846q0.37447-2.3706-1.9961-2.7451l-7.6477-1.208q-2.3706-0.37447-2.7451 1.9961l-0.96113 6.0846q-0.37447 2.3706 1.9961 2.7451l7.6477 1.208q2.3706 0.37447 2.7451-1.9961z" clip-path="url(#a)" fill="#fff" stroke="#fff"/>
<g clip-path="url(#a)">
<g transform="translate(88.595 123.93) rotate(-81.024) scale(.08 -.08)">
<defs>
<path id="z" d="m19.672 64.797v-56.688h11.922q15.094 0 22.094 6.8281 7 6.8438 7 21.594 0 14.641-7 21.453t-22.094 6.8125zm-9.8594 8.1094h20.266q21.188 0 31.094-8.8125 9.9219-8.8125 9.9219-27.562 0-18.859-9.9688-27.703-9.9531-8.8281-31.047-8.8281h-20.266z"/>
</defs>
<use xlink:href="#z"/>
</g>
</g>
<path d="m100.27 119.06 0.696 4.7733q0.34628 2.3749 2.7212 2.0286l7.6615-1.1171q2.3749-0.34628 2.0286-2.7212l-0.696-4.7733q-0.34628-2.3749-2.7212-2.0286l-7.6615 1.1171q-2.3749 0.34628-2.0286 2.7212z" clip-path="url(#a)" fill="#fff" stroke="#fff"/>
<g clip-path="url(#a)">
<g transform="translate(104.29 118.47) rotate(81.704) scale(.08 -.08)">
<defs>
<path id="p" d="m19.672 64.797v-27.391h12.406q6.8906 0 10.641 3.5625 3.7656 3.5625 3.7656 10.156 0 6.5469-3.7656 10.109-3.75 3.5625-10.641 3.5625zm-9.8594 8.1094h22.266q12.266 0 18.531-5.5469 6.2812-5.5469 6.2812-16.234 0-10.797-6.2812-16.312-6.2656-5.5156-18.531-5.5156h-12.406v-29.297h-9.8594z"/>
</defs>
<use xlink:href="#p"/>
</g>
</g>
<path d="m158.04 81.965 5.1877 1.7425q2.2751 0.76417 3.0393-1.5109l2.4653-7.3395q0.76418-2.2751-1.5109-3.0393l-5.1877-1.7425q-2.2751-0.76417-3.0393 1.5109l-2.4653 7.3395q-0.76417 2.2751 1.5109 3.0393z" clip-path="url(#a)" fill="#fff" stroke="#fff"/>
<g clip-path="url(#a)">
<g transform="translate(159.33 78.113) rotate(18.567) scale(.08 -.08)">
<use xlink:href="#m"/>
</g>
</g>
<path d="m14.456 190.72v33.808q0 2.4 2.4 2.4h7.7425q2.4 0 2.4-2.4v-33.808q0-2.4-2.4-2.4h-7.7425q-2.4 0-2.4 2.4z" clip-path="url(#a)" fill="#fff" stroke="#fff"/>
<g clip-path="url(#a)">
<g transform="translate(18.52 190.72) rotate(90) scale(.08 -.08)">
<defs>
<path id="i" d="m-0.29688 72.906h61.672v-8.3125h-25.875v-64.594h-9.9062v64.594h-25.891z"/>
<path id="l" d="m56.203 29.594v-4.3906h-41.312q0.59375-9.2812 5.5938-14.141t13.938-4.8594q5.1719 0 10.031 1.2656t9.6562 3.8125v-8.5q-4.8438-2.0469-9.9219-3.125t-10.297-1.0781q-13.094 0-20.734 7.6094-7.6406 7.625-7.6406 20.625 0 13.422 7.25 21.297 7.25 7.8906 19.562 7.8906 11.031 0 17.453-7.1094 6.4219-7.0938 6.4219-19.297zm-8.9844 2.6406q-0.09375 7.3594-4.125 11.75-4.0312 4.4062-10.672 4.4062-7.5156 0-12.031-4.25t-5.2031-11.969z"/>
<path id="j" d="m41.109 46.297q-1.5156 0.875-3.2969 1.2812-1.7812 0.42188-3.9219 0.42188-7.625 0-11.703-4.9531t-4.0781-14.234v-28.812h-9.0312v54.688h9.0312v-8.5q2.8438 4.9844 7.375 7.3906 4.5469 2.4219 11.047 2.4219 0.92188 0 2.0469-0.125 1.125-0.10938 2.4844-0.35938z"/>
<path id="h" d="m52 44.188q3.375 6.0625 8.0625 8.9375t11.031 2.875q8.5469 0 13.188-5.9844 4.6406-5.9688 4.6406-17v-33.016h-9.0312v32.719q0 7.8594-2.7969 11.656-2.7812 3.8125-8.4844 3.8125-6.9844 0-11.047-4.6406-4.0469-4.625-4.0469-12.641v-30.906h-9.0312v32.719q0 7.9062-2.7812 11.688t-8.5938 3.7812q-6.8906 0-10.953-4.6562-4.0469-4.6562-4.0469-12.625v-30.906h-9.0312v54.688h9.0312v-8.5q3.0781 5.0312 7.375 7.4219t10.203 2.3906q5.9688 0 10.141-3.0312 4.1719-3.0156 6.1719-8.7812z"/>
<path id="f" d="m9.4219 54.688h8.9844v-54.688h-8.9844zm0 21.297h8.9844v-11.391h-8.9844z"/>
<path id="e" d="m54.891 33.016v-33.016h-8.9844v32.719q0 7.7656-3.0312 11.609-3.0312 3.8594-9.0781 3.8594-7.2812 0-11.484-4.6406-4.2031-4.625-4.2031-12.641v-30.906h-9.0312v54.688h9.0312v-8.5q3.2344 4.9375 7.5938 7.375 4.375 2.4375 10.094 2.4375 9.4219 0 14.25-5.8281 4.8438-5.8281 4.8438-17.156z"/>
<path id="g" d="m34.281 27.484q-10.891 0-15.094-2.4844t-4.2031-8.5q0-4.7812 3.1562-7.5938 3.1562-2.7969 8.5625-2.7969 7.4844 0 12 5.2969t4.5156 14.078v2zm17.922 3.7188v-31.203h-8.9844v8.2969q-3.0781-4.9688-7.6719-7.3438t-11.234-2.375q-8.3906 0-13.359 4.7188-4.9531 4.7188-4.9531 12.625 0 9.2188 6.1719 13.906 6.1875 4.6875 18.438 4.6875h12.609v0.89062q0 6.2031-4.0781 9.5938t-11.453 3.3906q-4.6875 0-9.1406-1.125-4.4375-1.125-8.5312-3.375v8.3125q4.9219 1.9062 9.5625 2.8438 4.6406 0.95312 9.0312 0.95312 11.875 0 17.734-6.1562 5.8594-6.1406 5.8594-18.641z"/>
<path id="k" d="m9.4219 75.984h8.9844v-75.984h-8.9844z"/>
</defs>
<use xlink:href="#i"/>
<use x="44.083984" xlink:href="#l"/>
<use x="105.607422" xlink:href="#j"/>
<use x="144.970703" xlink:href="#h"/>
<use x="242.382812" xlink:href="#f"/>
<use x="270.166016" xlink:href="#e"/>
<use x="333.544922" xlink:href="#g"/>
<use x="394.824219" xlink:href="#k"/>
</g>
</g>
<path d="m38.372 190.72v33.808q0 2.4 2.4 2.4h7.7425q2.4 0 2.4-2.4v-33.808q0-2.4-2.4-2.4h-7.7425q-2.4 0-2.4 2.4z" clip-path="url(#a)" fill="#fff" stroke="#fff"/>
<g clip-path="url(#a)">
<g transform="translate(42.436 190.72) rotate(90) scale(.08 -.08)">
<use xlink:href="#i"/>
<use x="44.083984" xlink:href="#l"/>
<use x="105.607422" xlink:href="#j"/>
<use x="144.970703" xlink:href="#h"/>
<use x="242.382812" xlink:href="#f"/>
<use x="270.166016" xlink:href="#e"/>
<use x="333.544922" xlink:href="#g"/>
<use x="394.824219" xlink:href="#k"/>
</g>
</g>
<path d="m70.26 190.72v33.808q0 2.4 2.4 2.4h7.7425q2.4 0 2.4-2.4v-33.808q0-2.4-2.4-2.4h-7.7425q-2.4 0-2.4 2.4z" clip-path="url(#a)" fill="#fff" stroke="#fff"/>
<g clip-path="url(#a)">
<g transform="translate(74.324 190.72) rotate(90) scale(.08 -.08)">
<use xlink:href="#i"/>
<use x="44.083984" xlink:href="#l"/>
<use x="105.607422" xlink:href="#j"/>
<use x="144.970703" xlink:href="#h"/>
<use x="242.382812" xlink:href="#f"/>
<use x="270.166016" xlink:href="#e"/>
<use x="333.544922" xlink:href="#g"/>
<use x="394.824219" xlink:href="#k"/>
</g>
</g>
<path d="m110.12 190.72v33.808q0 2.4 2.4 2.4h7.7425q2.4 0 2.4-2.4v-33.808q0-2.4-2.4-2.4h-7.7425q-2.4 0-2.4 2.4z" clip-path="url(#a)" fill="#fff" stroke="#fff"/>
<g clip-path="url(#a)">
<g transform="translate(114.18 190.72) rotate(90) scale(.08 -.08)">
<use xlink:href="#i"/>
<use x="44.083984" xlink:href="#l"/>
<use x="105.607422" xlink:href="#j"/>
<use x="144.970703" xlink:href="#h"/>
<use x="242.382812" xlink:href="#f"/>
<use x="270.166016" xlink:href="#e"/>
<use x="333.544922" xlink:href="#g"/>
<use x="394.824219" xlink:href="#k"/>
</g>
</g>
<path d="m199.53 148.45 3.2952-4.5108q1.4157-1.938-0.52224-3.3537l-6.252-4.5672q-1.938-1.4157-3.3537 0.52224l-3.2952 4.5108q-1.4157 1.938 0.52224 3.3537l6.252 4.5672q1.938 1.4157 3.3537-0.52224z" clip-path="url(#a)" fill="#fff" stroke="#fff"/>
<g clip-path="url(#a)">
<g transform="translate(196.25 146.06) rotate(-53.851) scale(.08 -.08)">
<defs>
<path id="aa" d="m64.406 67.281v-10.391q-4.9844 4.6406-10.625 6.9219-5.6406 2.2969-11.984 2.2969-12.5 0-19.141-7.6406t-6.6406-22.094q0-14.406 6.6406-22.047t19.141-7.6406q6.3438 0 11.984 2.2969t10.625 6.9375v-10.312q-5.1719-3.5156-10.969-5.2812-5.7812-1.75-12.219-1.75-16.562 0-26.094 10.125-9.5156 10.141-9.5156 27.672 0 17.578 9.5156 27.703 9.5312 10.141 26.094 10.141 6.5312 0 12.312-1.7344 5.7969-1.7344 10.875-5.2031z"/>
</defs>
<use xlink:href="#aa"/>
</g>
</g>
<path d="m254.26 124.47 4.168 2.8602q1.9789 1.358 3.3368-0.6209l4.3809-6.3839q1.358-1.9789-0.6209-3.3368l-4.168-2.8602q-1.9789-1.358-3.3368 0.6209l-4.3809 6.3839q-1.358 1.9789 0.6209 3.3368z" clip-path="url(#a)" fill="#fff" stroke="#fff"/>
<g clip-path="url(#a)">
<g transform="translate(256.56 121.12) rotate(34.459) scale(.08 -.08)">
<defs>
<path id="y" d="m9.8125 72.906h46.094v-8.3125h-36.234v-21.578h34.719v-8.2969h-34.719v-26.422h37.109v-8.2969h-46.969z"/>
</defs>
<use xlink:href="#y"/>
</g>
</g>
<path d="m157.95 190.72v33.808q0 2.4 2.4 2.4h7.7425q2.4 0 2.4-2.4v-33.808q0-2.4-2.4-2.4h-7.7425q-2.4 0-2.4 2.4z" clip-path="url(#a)" fill="#fff" stroke="#fff"/>
<g clip-path="url(#a)">
<g transform="translate(162.02 190.72) rotate(90) scale(.08 -.08)">
<use xlink:href="#i"/>
<use x="44.083984" xlink:href="#l"/>
<use x="105.607422" xlink:href="#j"/>
<use x="144.970703" xlink:href="#h"/>
<use x="242.382812" xlink:href="#f"/>
<use x="270.166016" xlink:href="#e"/>
<use x="333.544922" xlink:href="#g"/>
<use x="394.824219" xlink:href="#k"/>
</g>
</g>
<path d="m227.44 171.2 5.1791-1.7678q2.2713-0.77527 1.4961-3.0466l-2.501-7.3274q-0.77527-2.2713-3.0466-1.4961l-5.1791 1.7678q-2.2713 0.77527-1.4961 3.0466l2.501 7.3274q0.77527 2.2713 3.0466 1.4961z" clip-path="url(#a)" fill="#fff" stroke="#fff"/>
<g clip-path="url(#a)">
<g transform="translate(226.12 167.36) rotate(-18.846) scale(.08 -.08)">
<use xlink:href="#m"/>
</g>
</g>
<path d="m256.82 171.16 4.6785-2.8389q2.0518-1.245 0.80676-3.2968l-4.0165-6.6192q-1.245-2.0518-3.2968-0.80676l-4.6785 2.8389q-2.0518 1.245-0.80676 3.2968l4.0165 6.6192q1.245 2.0518 3.2968 0.80676z" clip-path="url(#a)" fill="#fff" stroke="#fff"/>
<g clip-path="url(#a)">
<g transform="translate(254.71 167.69) rotate(-31.249) scale(.08 -.08)">
<use xlink:href="#m"/>
</g>
</g>
<path d="m293.54 167.78 0.82875-4.526q0.43227-2.3607-1.9285-2.793l-7.6159-1.3945q-2.3607-0.43228-2.793 1.9285l-0.82875 4.526q-0.43228 2.3608 1.9285 2.793l7.6159 1.3945q2.3608 0.43228 2.793-1.9285z" clip-path="url(#a)" fill="#fff" stroke="#fff"/>
<g clip-path="url(#a)">
<g transform="translate(289.55 167.04) rotate(-79.624) scale(.08 -.08)">
<use xlink:href="#r"/>
</g>
</g>
<path d="m318.14 168.2 3.984 2.7197q1.9822 1.3531 3.3353-0.62904l4.3653-6.3946q1.3531-1.9822-0.62904-3.3353l-3.984-2.7197q-1.9822-1.3531-3.3353 0.62904l-4.3653 6.3946q-1.3531 1.9822 0.62904 3.3353z" clip-path="url(#a)" fill="#fff" stroke="#fff"/>
<g clip-path="url(#a)">
<g transform="translate(320.43 164.85) rotate(34.32) scale(.08 -.08)">
<use xlink:href="#p"/>
</g>
</g>
<path d="m358.9 169.53 5.6028 1.6999q2.2966 0.6968 2.9934-1.5998l2.2479-7.409q0.6968-2.2966-1.5998-2.9934l-5.6028-1.6999q-2.2966-0.6968-2.9934 1.5998l-2.2479 7.409q-0.6968 2.2966 1.5998 2.9934z" clip-path="url(#a)" fill="#fff" stroke="#fff"/>
<g clip-path="url(#a)">
<g transform="translate(360.08 165.65) rotate(16.878) scale(.08 -.08)">
<defs>
<path id="w" d="m8.6875 72.906h9.9219v-44.297q0-11.719 4.2344-16.875 4.25-5.1406 13.781-5.1406 9.4688 0 13.719 5.1406 4.25 5.1562 4.25 16.875v44.297h9.9062v-45.516q0-14.25-7.0625-21.531-7.0469-7.2812-20.812-7.2812-13.828 0-20.891 7.2812-7.0469 7.2812-7.0469 21.531z"/>
</defs>
<use xlink:href="#w"/>
</g>
</g>
<path d="m213.76 190.72v33.808q0 2.4 2.4 2.4h7.7425q2.4 0 2.4-2.4v-33.808q0-2.4-2.4-2.4h-7.7425q-2.4 0-2.4 2.4z" clip-path="url(#a)" fill="#fff" stroke="#fff"/>
<g clip-path="url(#a)">
<g transform="translate(217.82 190.72) rotate(90) scale(.08 -.08)">
<use xlink:href="#i"/>
<use x="44.083984" xlink:href="#l"/>
<use x="105.607422" xlink:href="#j"/>
<use x="144.970703" xlink:href="#h"/>
<use x="242.382812" xlink:href="#f"/>
<use x="270.166016" xlink:href="#e"/>
<use x="333.544922" xlink:href="#g"/>
<use x="394.824219" xlink:href="#k"/>
</g>
</g>
<path d="m277.53 190.72v33.808q0 2.4 2.4 2.4h7.7425q2.4 0 2.4-2.4v-33.808q0-2.4-2.4-2.4h-7.7425q-2.4 0-2.4 2.4z" clip-path="url(#a)" fill="#fff" stroke="#fff"/>
<g clip-path="url(#a)">
<g transform="translate(281.6 190.72) rotate(90) scale(.08 -.08)">
<use xlink:href="#i"/>
<use x="44.083984" xlink:href="#l"/>
<use x="105.607422" xlink:href="#j"/>
<use x="144.970703" xlink:href="#h"/>
<use x="242.382812" xlink:href="#f"/>
<use x="270.166016" xlink:href="#e"/>
<use x="333.544922" xlink:href="#g"/>
<use x="394.824219" xlink:href="#k"/>
</g>
</g>
<path d="m349.28 190.72v33.808q0 2.4 2.4 2.4h7.7425q2.4 0 2.4-2.4v-33.808q0-2.4-2.4-2.4h-7.7425q-2.4 0-2.4 2.4z" clip-path="url(#a)" fill="#fff" stroke="#fff"/>
<g clip-path="url(#a)">
<g transform="translate(353.34 190.72) rotate(90) scale(.08 -.08)">
<use xlink:href="#i"/>
<use x="44.083984" xlink:href="#l"/>
<use x="105.607422" xlink:href="#j"/>
<use x="144.970703" xlink:href="#h"/>
<use x="242.382812" xlink:href="#f"/>
<use x="270.166016" xlink:href="#e"/>
<use x="333.544922" xlink:href="#g"/>
<use x="394.824219" xlink:href="#k"/>
</g>
</g>
<path d="m429 190.72v33.808q0 2.4 2.4 2.4h7.7425q2.4 0 2.4-2.4v-33.808q0-2.4-2.4-2.4h-7.7425q-2.4 0-2.4 2.4z" clip-path="url(#a)" fill="#fff" stroke="#fff"/>
<g clip-path="url(#a)">
<g transform="translate(433.07 190.72) rotate(90) scale(.08 -.08)">
<use xlink:href="#i"/>
<use x="44.083984" xlink:href="#l"/>
<use x="105.607422" xlink:href="#j"/>
<use x="144.970703" xlink:href="#h"/>
<use x="242.382812" xlink:href="#f"/>
<use x="270.166016" xlink:href="#e"/>
<use x="333.544922" xlink:href="#g"/>
<use x="394.824219" xlink:href="#k"/>
</g>
</g>
<defs>
<path id="b" d="m0 8.6603c2.2967 0 4.4997-0.9125 6.1237-2.5365 1.624-1.624 2.5365-3.827 2.5365-6.1237s-0.9125-4.4997-2.5365-6.1237c-1.624-1.624-3.827-2.5365-6.1237-2.5365s-4.4997 0.9125-6.1237 2.5365c-1.624 1.624-2.5365 3.827-2.5365 6.1237s0.9125 4.4997 2.5365 6.1237c1.624 1.624 3.827 2.5365 6.1237 2.5365z"/>
</defs>
<g clip-path="url(#a)" fill="#ffffff" stroke="#ffffff">
<use x="20.727273" y="229.090909" xlink:href="#b"/>
<use x="44.643357" y="229.090909" xlink:href="#b"/>
<use x="76.531469" y="229.090909" xlink:href="#b"/>
<use x="116.391608" y="229.090909" xlink:href="#b"/>
<use x="164.223776" y="229.090909" xlink:href="#b"/>
<use x="220.027972" y="229.090909" xlink:href="#b"/>
<use x="283.804196" y="229.090909" xlink:href="#b"/>
<use x="355.552448" y="229.090909" xlink:href="#b"/>
<use x="435.272727" y="229.090909" xlink:href="#b"/>
<use x="97.258741" y="10.909091" xlink:href="#b"/>
<use x="97.258741" y="54.934507" xlink:href="#b"/>
<use x="20.727273" y="186.151224" xlink:href="#b"/>
<use x="44.643357" y="186.151224" xlink:href="#b"/>
<use x="76.531469" y="186.151224" xlink:href="#b"/>
<use x="116.391608" y="186.151224" xlink:href="#b"/>
<use x="228" y="98.84883" xlink:href="#b"/>
<use x="164.223776" y="186.151224" xlink:href="#b"/>
<use x="291.776224" y="142.614201" xlink:href="#b"/>
<use x="220.027972" y="186.151224" xlink:href="#b"/>
<use x="283.804196" y="186.151224" xlink:href="#b"/>
<use x="355.552448" y="186.151224" xlink:href="#b"/>
<use x="435.272727" y="186.151224" xlink:href="#b"/>
</g>
<g clip-path="url(#a)">
<g transform="translate(19.252 231.85) scale(.1 -.1)">
<defs>
<path id="q" d="m9.8125 72.906h9.8594v-72.906h-9.8594z"/>
</defs>
<use xlink:href="#q"/>
</g>
</g>
<g clip-path="url(#a)">
<g transform="translate(36.906 231.85) scale(.1 -.1)">
<defs>
<path id="v" d="m45.406 46.391v29.594h8.9844v-75.984h-8.9844v8.2031q-2.8281-4.875-7.1562-7.25-4.3125-2.375-10.375-2.375-9.9062 0-16.141 7.9062-6.2188 7.9219-6.2188 20.812t6.2188 20.797q6.2344 7.9062 16.141 7.9062 6.0625 0 10.375-2.375 4.3281-2.3594 7.1562-7.2344zm-30.609-19.094q0-9.9062 4.0781-15.547t11.203-5.6406 11.219 5.6406q4.1094 5.6406 4.1094 15.547t-4.1094 15.547q-4.0938 5.6406-11.219 5.6406t-11.203-5.6406-4.0781-15.547z"/>
</defs>
<use xlink:href="#v"/>
<use x="63.476562" xlink:href="#f"/>
<use x="91.259766" xlink:href="#v"/>
</g>
</g>
<g clip-path="url(#a)">
<g transform="translate(70.028 231.85) scale(.1 -.1)">
<defs>
<path id="ai" d="m17.922 72.906v-27.109h-8.2969v27.109z"/>
<path id="u" d="m18.312 70.219v-15.531h18.5v-6.9844h-18.5v-29.688q0-6.6875 1.8281-8.5938t7.4531-1.9062h9.2188v-7.5156h-9.2188q-10.406 0-14.359 3.875-3.9531 3.8906-3.9531 14.141v29.688h-6.5938v6.9844h6.5938v15.531z"/>
</defs>
<use xlink:href="#e"/>
<use x="63.378906" xlink:href="#ai"/>
<use x="90.869141" xlink:href="#u"/>
</g>
</g>
<g clip-path="url(#a)">
<g transform="translate(103.18 231.85) scale(.1 -.1)">
<defs>
<path id="ak" d="m9.0781 75.984h9.0312v-44.875l26.812 23.578h11.469l-29-25.578 30.234-29.109h-11.719l-27.797 26.703v-26.703h-9.0312z"/>
<path id="aj" d="m30.609 48.391q-7.2188 0-11.422-5.6406t-4.2031-15.453 4.1719-15.453q4.1875-5.6406 11.453-5.6406 7.1875 0 11.375 5.6562 4.2031 5.6719 4.2031 15.438 0 9.7188-4.2031 15.406-4.1875 5.6875-11.375 5.6875zm0 7.6094q11.719 0 18.406-7.625 6.7031-7.6094 6.7031-21.078 0-13.422-6.7031-21.078-6.6875-7.6406-18.406-7.6406-11.766 0-18.438 7.6406-6.6562 7.6562-6.6562 21.078 0 13.469 6.6562 21.078 6.6719 7.625 18.438 7.625z"/>
<path id="n" d="m4.2031 54.688h8.9844l11.234-42.672 11.172 42.672h10.594l11.234-42.672 11.188 42.672h8.9844l-14.312-54.688h-10.594l-11.766 44.828-11.812-44.828h-10.609z"/>
</defs>
<use xlink:href="#ak"/>
<use x="57.910156" xlink:href="#e"/>
<use x="121.289062" xlink:href="#aj"/>
<use x="182.470703" xlink:href="#n"/>
</g>
</g>
<g clip-path="url(#a)">
<g transform="translate(151.94 231.85) scale(.1 -.1)">
<defs>
<path id="al" d="m54.891 33.016v-33.016h-8.9844v32.719q0 7.7656-3.0312 11.609-3.0312 3.8594-9.0781 3.8594-7.2812 0-11.484-4.6406-4.2031-4.625-4.2031-12.641v-30.906h-9.0312v75.984h9.0312v-29.797q3.2344 4.9375 7.5938 7.375 4.375 2.4375 10.094 2.4375 9.4219 0 14.25-5.8281 4.8438-5.8281 4.8438-17.156z"/>
</defs>
<use xlink:href="#n"/>
<use x="81.787109" xlink:href="#al"/>
<use x="145.166016" xlink:href="#g"/>
<use x="206.445312" xlink:href="#u"/>
</g>
</g>
<g clip-path="url(#a)">
<g transform="translate(218.55 231.85) scale(.1 -.1)">
<use xlink:href="#q"/>
</g>
</g>
<g clip-path="url(#a)">
<g transform="translate(274.05 231.85) scale(.1 -.1)">
<defs>
<path id="o" d="m44.281 53.078v-8.5q-3.7969 1.9531-7.9062 2.9219-4.0938 0.98438-8.5 0.98438-6.6875 0-10.031-2.0469t-3.3438-6.1562q0-3.125 2.3906-4.9062t9.625-3.3906l3.0781-0.6875q9.5625-2.0469 13.594-5.7812t4.0312-10.422q0-7.625-6.0312-12.078-6.0312-4.4375-16.578-4.4375-4.3906 0-9.1562 0.85938t-10.031 2.5625v9.2812q4.9844-2.5938 9.8125-3.8906 4.8281-1.2812 9.5781-1.2812 6.3438 0 9.75 2.1719 3.4219 2.1719 3.4219 6.125 0 3.6562-2.4688 5.6094-2.4531 1.9531-10.812 3.7656l-3.125 0.73438q-8.3438 1.75-12.062 5.3906-3.7031 3.6406-3.7031 9.9844 0 7.7188 5.4688 11.906 5.4688 4.2031 15.531 4.2031 4.9688 0 9.3594-0.73438 4.4062-0.71875 8.1094-2.1875z"/>
</defs>
<use xlink:href="#n"/>
<use x="81.787109" xlink:href="#g"/>
<use x="143.066406" xlink:href="#o"/>
</g>
</g>
<g clip-path="url(#a)">
<g transform="translate(336.35 231.85) scale(.1 -.1)">
<defs>
<path id="am" d="m45.406 27.984q0 9.7656-4.0312 15.125-4.0156 5.375-11.297 5.375-7.2188 0-11.25-5.375-4.0312-5.3594-4.0312-15.125 0-9.7188 4.0312-15.094t11.25-5.375q7.2812 0 11.297 5.375 4.0312 5.375 4.0312 15.094zm8.9844-21.203q0-13.953-6.2031-20.766-6.1875-6.8125-18.984-6.8125-4.7344 0-8.9375 0.70312t-8.1562 2.1719v8.7344q3.9531-2.1406 7.8125-3.1562 3.8594-1.0312 7.8594-1.0312 8.8438 0 13.234 4.6094t4.3906 13.938v4.4531q-2.7812-4.8438-7.125-7.2344t-10.406-2.3906q-10.047 0-16.203 7.6562-6.1562 7.6719-6.1562 20.328 0 12.688 6.1562 20.344 6.1562 7.6719 16.203 7.6719 6.0625 0 10.406-2.3906t7.125-7.2188v8.2969h8.9844z"/>
</defs>
<use xlink:href="#h"/>
<use x="97.412109" xlink:href="#f"/>
<use x="125.195312" xlink:href="#o"/>
<use x="177.294922" xlink:href="#o"/>
<use x="229.394531" xlink:href="#f"/>
<use x="257.177734" xlink:href="#e"/>
<use x="320.556641" xlink:href="#am"/>
</g>
</g>
<g clip-path="url(#a)">
<g transform="translate(433.68 231.85) scale(.1 -.1)">
<defs>
<path id="d" d="m10.688 12.406h10.312v-12.406h-10.312z"/>
</defs>
<use xlink:href="#d"/>
</g>
</g>
<g clip-path="url(#a)">
<g transform="translate(89.307 13.668) scale(.1 -.1)">
<defs>
<path id="c" d="m12.406 8.2969h16.109v55.625l-17.531-3.5156v8.9844l17.438 3.5156h9.8594v-64.609h16.109v-8.2969h-41.984z"/>
</defs>
<use xlink:href="#c"/>
<use x="63.623047" xlink:href="#d"/>
<use x="95.410156" xlink:href="#c"/>
</g>
</g>
<g clip-path="url(#a)">
<g transform="translate(89.307 57.694) scale(.1 -.1)">
<defs>
<path id="t" d="m19.188 8.2969h34.422v-8.2969h-46.281v8.2969q5.6094 5.8125 15.297 15.594 9.7031 9.7969 12.188 12.641 4.7344 5.3125 6.6094 9 1.8906 3.6875 1.8906 7.25 0 5.8125-4.0781 9.4688-4.0781 3.6719-10.625 3.6719-4.6406 0-9.7969-1.6094-5.1406-1.6094-11-4.8906v9.9688q5.9531 2.3906 11.125 3.6094 5.1875 1.2188 9.4844 1.2188 11.328 0 18.062-5.6719 6.7344-5.6562 6.7344-15.125 0-4.5-1.6875-8.5312-1.6719-4.0156-6.125-9.4844-1.2188-1.4219-7.7656-8.1875-6.5312-6.7656-18.453-18.922z"/>
</defs>
<use xlink:href="#c"/>
<use x="63.623047" xlink:href="#d"/>
<use x="95.410156" xlink:href="#t"/>
</g>
</g>
<g clip-path="url(#a)">
<g transform="translate(12.776 188.91) scale(.1 -.1)">
<defs>
<path id="s" d="m37.797 64.312-24.906-38.922h24.906zm-2.5938 8.5938h12.406v-47.516h10.406v-8.2031h-10.406v-17.188h-9.8125v17.188h-32.906v9.5156z"/>
</defs>
<use xlink:href="#c"/>
<use x="63.623047" xlink:href="#d"/>
<use x="95.410156" xlink:href="#s"/>
</g>
</g>
<g clip-path="url(#a)">
<g transform="translate(36.692 188.91) scale(.1 -.1)">
<defs>
<path id="af" d="m10.797 72.906h38.719v-8.3125h-29.688v-17.859q2.1406 0.73438 4.2812 1.0938 2.1562 0.35938 4.3125 0.35938 12.203 0 19.328-6.6875 7.1406-6.6875 7.1406-18.109 0-11.766-7.3281-18.297-7.3281-6.5156-20.656-6.5156-4.5938 0-9.3594 0.78125-4.75 0.78125-9.8281 2.3438v9.9219q4.3906-2.3906 9.0781-3.5625t9.9062-1.1719q8.4531 0 13.375 4.4375 4.9375 4.4375 4.9375 12.062 0 7.6094-4.9375 12.047-4.9219 4.4531-13.375 4.4531-3.9531 0-7.8906-0.875-3.9219-0.875-8.0156-2.7344z"/>
</defs>
<use xlink:href="#c"/>
<use x="63.623047" xlink:href="#d"/>
<use x="95.410156" xlink:href="#af"/>
</g>
</g>
<g clip-path="url(#a)">
<g transform="translate(68.58 188.91) scale(.1 -.1)">
<defs>
<path id="ae" d="m33.016 40.375q-6.6406 0-10.531-4.5469-3.875-4.5312-3.875-12.438 0-7.8594 3.875-12.438 3.8906-4.5625 10.531-4.5625t10.516 4.5625q3.875 4.5781 3.875 12.438 0 7.9062-3.875 12.438-3.875 4.5469-10.516 4.5469zm19.578 30.922v-8.9844q-3.7188 1.75-7.5 2.6719-3.7812 0.9375-7.5 0.9375-9.7656 0-14.922-6.5938-5.1406-6.5938-5.875-19.922 2.875 4.25 7.2188 6.5156 4.3594 2.2656 9.5781 2.2656 10.984 0 17.359-6.6719 6.375-6.6562 6.375-18.125 0-11.234-6.6406-18.031-6.6406-6.7812-17.672-6.7812-12.656 0-19.344 9.6875-6.6875 9.7031-6.6875 28.109 0 17.281 8.2031 27.562t22.016 10.281q3.7188 0 7.5-0.73438t7.8906-2.1875z"/>
</defs>
<use xlink:href="#c"/>
<use x="63.623047" xlink:href="#d"/>
<use x="95.410156" xlink:href="#ae"/>
</g>
</g>
<g clip-path="url(#a)">
<g transform="translate(108.44 188.91) scale(.1 -.1)">
<defs>
<path id="ad" d="m8.2031 72.906h46.875v-4.2031l-26.469-68.703h-10.297l24.906 64.594h-35.016z"/>
</defs>
<use xlink:href="#c"/>
<use x="63.623047" xlink:href="#d"/>
<use x="95.410156" xlink:href="#ad"/>
</g>
</g>
<g clip-path="url(#a)">
<g transform="translate(220.05 101.61) scale(.1 -.1)">
<defs>
<path id="ac" d="m31.781 34.625q-7.0312 0-11.062-3.7656-4.0156-3.7656-4.0156-10.344 0-6.5938 4.0156-10.359 4.0312-3.7656 11.062-3.7656t11.078 3.7812q4.0625 3.7969 4.0625 10.344 0 6.5781-4.0312 10.344-4.0156 3.7656-11.109 3.7656zm-9.8594 4.1875q-6.3438 1.5625-9.8906 5.9062-3.5312 4.3594-3.5312 10.609 0 8.7344 6.2188 13.812 6.2344 5.0781 17.062 5.0781 10.891 0 17.094-5.0781t6.2031-13.812q0-6.25-3.5469-10.609-3.5312-4.3438-9.8281-5.9062 7.125-1.6562 11.094-6.5 3.9844-4.8281 3.9844-11.797 0-10.609-6.4688-16.281-6.4688-5.6562-18.531-5.6562-12.047 0-18.531 5.6562-6.4688 5.6719-6.4688 16.281 0 6.9688 4 11.797 4.0156 4.8438 11.141 6.5zm-3.6094 15.578q0-5.6562 3.5312-8.8281 3.5469-3.1719 9.9375-3.1719 6.3594 0 9.9375 3.1719 3.5938 3.1719 3.5938 8.8281 0 5.6719-3.5938 8.8438-3.5781 3.1719-9.9375 3.1719-6.3906 0-9.9375-3.1719-3.5312-3.1719-3.5312-8.8438z"/>
</defs>
<use xlink:href="#c"/>
<use x="63.623047" xlink:href="#d"/>
<use x="95.410156" xlink:href="#ac"/>
</g>
</g>
<g clip-path="url(#a)">
<g transform="translate(156.27 188.91) scale(.1 -.1)">
<defs>
<path id="ab" d="m10.984 1.5156v8.9844q3.7188-1.7656 7.5156-2.6875 3.8125-0.92188 7.4844-0.92188 9.7656 0 14.906 6.5625 5.1562 6.5625 5.8906 19.953-2.8281-4.2031-7.1875-6.4531-4.3438-2.25-9.6094-2.25-10.938 0-17.312 6.6094-6.375 6.625-6.375 18.109 0 11.219 6.6406 18 6.6406 6.7969 17.672 6.7969 12.656 0 19.312-9.7031 6.6719-9.6875 6.6719-28.141 0-17.234-8.1875-27.516-8.1719-10.281-21.984-10.281-3.7188 0-7.5312 0.73438-3.7969 0.73438-7.9062 2.2031zm19.625 30.906q6.6406 0 10.516 4.5312 3.8906 4.5469 3.8906 12.469 0 7.8594-3.8906 12.422-3.875 4.5625-10.516 4.5625t-10.516-4.5625-3.875-12.422q0-7.9219 3.875-12.469 3.875-4.5312 10.516-4.5312z"/>
</defs>
<use xlink:href="#c"/>
<use x="63.623047" xlink:href="#d"/>
<use x="95.410156" xlink:href="#ab"/>
</g>
</g>
<g clip-path="url(#a)">
<g transform="translate(280.64 145.37) scale(.1 -.1)">
<defs>
<path id="ah" d="m31.781 66.406q-7.6094 0-11.453-7.5-3.8281-7.4844-3.8281-22.531 0-14.984 3.8281-22.484 3.8438-7.5 11.453-7.5 7.6719 0 11.5 7.5 3.8438 7.5 3.8438 22.484 0 15.047-3.8438 22.531-3.8281 7.5-11.5 7.5zm0 7.8125q12.266 0 18.734-9.7031 6.4688-9.6875 6.4688-28.141 0-18.406-6.4688-28.109-6.4688-9.6875-18.734-9.6875-12.25 0-18.719 9.6875-6.4688 9.7031-6.4688 28.109 0 18.453 6.4688 28.141 6.4688 9.7031 18.719 9.7031z"/>
</defs>
<use xlink:href="#c"/>
<use x="63.623047" xlink:href="#d"/>
<use x="95.410156" xlink:href="#c"/>
<use x="159.033203" xlink:href="#ah"/>
</g>
</g>
<g clip-path="url(#a)">
<g transform="translate(208.9 188.91) scale(.1 -.1)">
<use xlink:href="#c"/>
<use x="63.623047" xlink:href="#d"/>
<use x="95.410156" xlink:href="#c"/>
<use x="159.033203" xlink:href="#c"/>
</g>
</g>
<g clip-path="url(#a)">
<g transform="translate(272.67 188.91) scale(.1 -.1)">
<use xlink:href="#c"/>
<use x="63.623047" xlink:href="#d"/>
<use x="95.410156" xlink:href="#c"/>
<use x="159.033203" xlink:href="#t"/>
</g>
</g>
<g clip-path="url(#a)">
<g transform="translate(344.42 188.91) scale(.1 -.1)">
<defs>
<path id="ag" d="m40.578 39.312q7.0781-1.5156 11.047-6.3125 3.9844-4.7812 3.9844-11.812 0-10.781-7.4219-16.703-7.4219-5.9062-21.094-5.9062-4.5781 0-9.4375 0.90625t-10.031 2.7188v9.5156q4.0938-2.3906 8.9688-3.6094 4.8906-1.2188 10.219-1.2188 9.2656 0 14.125 3.6562t4.8594 10.641q0 6.4531-4.5156 10.078-4.5156 3.6406-12.562 3.6406h-8.5v8.1094h8.8906q7.2656 0 11.125 2.9062t3.8594 8.375q0 5.6094-3.9844 8.6094-3.9688 3.0156-11.391 3.0156-4.0625 0-8.7031-0.89062-4.6406-0.875-10.203-2.7188v8.7812q5.625 1.5625 10.531 2.3438t9.25 0.78125q11.234 0 17.766-5.1094 6.5469-5.0938 6.5469-13.781 0-6.0625-3.4688-10.234t-9.8594-5.7812z"/>
</defs>
<use xlink:href="#c"/>
<use x="63.623047" xlink:href="#d"/>
<use x="95.410156" xlink:href="#c"/>
<use x="159.033203" xlink:href="#ag"/>
</g>
</g>
<g clip-path="url(#a)">
<g transform="translate(424.14 188.91) scale(.1 -.1)">
<use xlink:href="#c"/>
<use x="63.623047" xlink:href="#d"/>
<use x="95.410156" xlink:href="#c"/>
<use x="159.033203" xlink:href="#s"/>
</g>
</g>
<defs>
<clipPath id="a">
<rect width="456" height="240"/>
</clipPath>
</defs>
</svg>
