<?xml version="1.0" encoding="UTF-8"?>
<!DOCTYPE svg  PUBLIC '-//W3C//DTD SVG 1.1//EN'  'http://www.w3.org/Graphics/SVG/1.1/DTD/svg11.dtd'>
<svg width="658.67pt" height="346.67pt" version="1.1" viewBox="0 0 658.67 346.67" xmlns="http://www.w3.org/2000/svg" xmlns:xlink="http://www.w3.org/1999/xlink">
<defs>
<style type="text/css">*{stroke-linecap:butt;stroke-linejoin:round;}</style>
</defs>
<path d="m0 346.67h658.67v-346.67h-658.67z" fill="#fff"/>
<g fill="none" stroke="#000">
<path d="m151.8 16.86-121.39 251.64" clip-path="url(#a)"/>
<path d="m151.8 16.86 192.96 64.803" clip-path="url(#a)"/>
<path d="m151.8 16.86-71.567 251.64" clip-path="url(#a)"/>
<path d="m30.411 268.5v61.31" clip-path="url(#a)"/>
<path d="m344.75 81.664-214.7 186.83" clip-path="url(#a)"/>
<path d="m344.75 81.664-164.88 186.83" clip-path="url(#a)"/>
<path d="m344.75 81.664-15.421 63.36" clip-path="url(#a)"/>
<path d="m344.75 81.664-65.241 186.83" clip-path="url(#a)"/>
<path d="m344.75 81.664 84.22 186.83" clip-path="url(#a)"/>
<path d="m344.75 81.664 134.04 186.83" clip-path="url(#a)"/>
<path d="m344.75 81.664 241.98 63.36" clip-path="url(#a)"/>
<path d="m130.05 268.5v61.31" clip-path="url(#a)"/>
<path d="m179.87 268.5v61.31" clip-path="url(#a)"/>
<path d="m329.33 145.02-49.82 62.163" clip-path="url(#a)"/>
<path d="m329.33 145.02 49.82 123.47" clip-path="url(#a)"/>
<path d="m279.51 268.5v61.31" clip-path="url(#a)"/>
<path d="m428.97 268.5v61.31" clip-path="url(#a)"/>
<path d="m478.79 268.5v61.31" clip-path="url(#a)"/>
<path d="m586.74 145.02-33.214 62.163" clip-path="url(#a)"/>
<path d="m586.74 145.02-8.3034 123.47" clip-path="url(#a)"/>
<path d="m586.74 145.02 41.517 123.47" clip-path="url(#a)"/>
<path d="m553.53 207.19 24.91 61.31" clip-path="url(#a)" stroke-dasharray="3.7,1.6"/>
<path d="m553.53 207.19-24.91 61.31" clip-path="url(#a)"/>
<path d="m578.44 268.5v61.31" clip-path="url(#a)"/>
<path d="m528.61 268.5v61.31" clip-path="url(#a)"/>
<path d="m279.51 207.19-49.82 61.31" clip-path="url(#a)"/>
<path d="m279.51 207.19 49.82 61.31" clip-path="url(#a)"/>
<path d="m379.15 268.5v61.31" clip-path="url(#a)"/>
<path d="m229.69 268.5v61.31" clip-path="url(#a)"/>
<path d="m329.33 268.5v61.31" clip-path="url(#a)"/>
<path d="m80.231 268.5v61.31" clip-path="url(#a)"/>
<path d="m628.26 268.5v61.31" clip-path="url(#a)"/>
</g>
<path d="m95.785 147.41 1.9367-4.0148q1.0428-2.1616-1.1189-3.2044l-6.9735-3.364q-2.1616-1.0428-3.2044 1.1189l-1.9367 4.0148q-1.0428 2.1616 1.1189 3.2044l6.9735 3.364q2.1616 1.0428 3.2044-1.1189z" clip-path="url(#a)" fill="#fff" stroke="#fff"/>
<g clip-path="url(#a)">
<defs>
<path id="v" d="m9.8125 72.906h9.8594v-64.609h35.5v-8.2969h-45.359z"/>
</defs>
<g transform="translate(92.125 145.64) rotate(-64.248) scale(.08 -.08)">
<use xlink:href="#v"/>
</g>
</g>
<path d="m243.43 54.249 5.7032 1.9154q2.2751 0.76409 3.0392-1.511l2.465-7.3396q0.76409-2.2751-1.511-3.0392l-5.7032-1.9154q-2.2751-0.76409-3.0392 1.511l-2.465 7.3396q-0.76409 2.2751 1.511 3.0392z" clip-path="url(#a)" fill="#fff" stroke="#fff"/>
<g clip-path="url(#a)">
<defs>
<path id="w" d="m9.8125 72.906h9.8594v-29.891h35.844v29.891h9.8594v-72.906h-9.8594v34.719h-35.844v-34.719h-9.8594z"/>
</defs>
<g transform="translate(244.72 50.397) rotate(18.564) scale(.08 -.08)">
<use xlink:href="#w"/>
</g>
</g>
<path d="m121.25 147.21 1.6017-5.6317q0.65654-2.3085-1.6519-2.965l-7.4472-2.118q-2.3085-0.65654-2.965 1.6519l-1.6017 5.6317q-0.65654 2.3085 1.6519 2.965l7.4472 2.118q2.3085 0.65654 2.965-1.6519z" clip-path="url(#a)" fill="#fff" stroke="#fff"/>
<g clip-path="url(#a)">
<defs>
<path id="p" d="m8.6875 72.906h9.9219v-44.297q0-11.719 4.2344-16.875 4.25-5.1406 13.781-5.1406 9.4688 0 13.719 5.1406 4.25 5.1562 4.25 16.875v44.297h9.9062v-45.516q0-14.25-7.0625-21.531-7.0469-7.2812-20.812-7.2812-13.828 0-20.891 7.2812-7.0469 7.2812-7.0469 21.531z"/>
</defs>
<g transform="translate(117.34 146.1) rotate(-74.124) scale(.08 -.08)">
<use xlink:href="#p"/>
</g>
</g>
<path d="m24.14 281.51v35.285q0 2.4 2.4 2.4h7.7425q2.4 0 2.4-2.4v-35.285q0-2.4-2.4-2.4h-7.7425q-2.4 0-2.4 2.4z" clip-path="url(#a)" fill="#fff" stroke="#fff"/>
<g clip-path="url(#a)">
<defs>
<path id="e" d="m-0.29688 72.906h61.672v-8.3125h-25.875v-64.594h-9.9062v64.594h-25.891z"/>
<path id="l" d="m56.203 29.594v-4.3906h-41.312q0.59375-9.2812 5.5938-14.141t13.938-4.8594q5.1719 0 10.031 1.2656t9.6562 3.8125v-8.5q-4.8438-2.0469-9.9219-3.125t-10.297-1.0781q-13.094 0-20.734 7.6094-7.6406 7.625-7.6406 20.625 0 13.422 7.25 21.297 7.25 7.8906 19.562 7.8906 11.031 0 17.453-7.1094 6.4219-7.0938 6.4219-19.297zm-8.9844 2.6406q-0.09375 7.3594-4.125 11.75-4.0312 4.4062-10.672 4.4062-7.5156 0-12.031-4.25t-5.2031-11.969z"/>
<path id="g" d="m41.109 46.297q-1.5156 0.875-3.2969 1.2812-1.7812 0.42188-3.9219 0.42188-7.625 0-11.703-4.9531t-4.0781-14.234v-28.812h-9.0312v54.688h9.0312v-8.5q2.8438 4.9844 7.375 7.3906 4.5469 2.4219 11.047 2.4219 0.92188 0 2.0469-0.125 1.125-0.10938 2.4844-0.35938z"/>
<path id="i" d="m52 44.188q3.375 6.0625 8.0625 8.9375t11.031 2.875q8.5469 0 13.188-5.9844 4.6406-5.9688 4.6406-17v-33.016h-9.0312v32.719q0 7.8594-2.7969 11.656-2.7812 3.8125-8.4844 3.8125-6.9844 0-11.047-4.6406-4.0469-4.625-4.0469-12.641v-30.906h-9.0312v32.719q0 7.9062-2.7812 11.688t-8.5938 3.7812q-6.8906 0-10.953-4.6562-4.0469-4.6562-4.0469-12.625v-30.906h-9.0312v54.688h9.0312v-8.5q3.0781 5.0312 7.375 7.4219t10.203 2.3906q5.9688 0 10.141-3.0312 4.1719-3.0156 6.1719-8.7812z"/>
<path id="k" d="m9.4219 54.688h8.9844v-54.688h-8.9844zm0 21.297h8.9844v-11.391h-8.9844z"/>
<path id="h" d="m54.891 33.016v-33.016h-8.9844v32.719q0 7.7656-3.0312 11.609-3.0312 3.8594-9.0781 3.8594-7.2812 0-11.484-4.6406-4.2031-4.625-4.2031-12.641v-30.906h-9.0312v54.688h9.0312v-8.5q3.2344 4.9375 7.5938 7.375 4.375 2.4375 10.094 2.4375 9.4219 0 14.25-5.8281 4.8438-5.8281 4.8438-17.156z"/>
<path id="f" d="m34.281 27.484q-10.891 0-15.094-2.4844t-4.2031-8.5q0-4.7812 3.1562-7.5938 3.1562-2.7969 8.5625-2.7969 7.4844 0 12 5.2969t4.5156 14.078v2zm17.922 3.7188v-31.203h-8.9844v8.2969q-3.0781-4.9688-7.6719-7.3438t-11.234-2.375q-8.3906 0-13.359 4.7188-4.9531 4.7188-4.9531 12.625 0 9.2188 6.1719 13.906 6.1875 4.6875 18.438 4.6875h12.609v0.89062q0 6.2031-4.0781 9.5938t-11.453 3.3906q-4.6875 0-9.1406-1.125-4.4375-1.125-8.5312-3.375v8.3125q4.9219 1.9062 9.5625 2.8438 4.6406 0.95312 9.0312 0.95312 11.875 0 17.734-6.1562 5.8594-6.1406 5.8594-18.641z"/>
<path id="j" d="m9.4219 75.984h8.9844v-75.984h-8.9844z"/>
</defs>
<g transform="translate(28.204 281.51) rotate(90) scale(.08 -.08)">
<use xlink:href="#e"/>
<use x="60.818359" xlink:href="#l"/>
<use x="122.341797" xlink:href="#g"/>
<use x="163.439453" xlink:href="#i"/>
<use x="260.851562" xlink:href="#k"/>
<use x="288.634766" xlink:href="#h"/>
<use x="352.013672" xlink:href="#f"/>
<use x="413.292969" xlink:href="#j"/>
</g>
</g>
<path d="m239.78 181.32 3.471-3.0205q1.8105-1.5755 0.23501-3.386l-5.0826-5.8407q-1.5755-1.8105-3.386-0.23501l-3.471 3.0205q-1.8105 1.5755-0.23501 3.386l5.0826 5.8407q1.5755 1.8105 3.386 0.23501z" clip-path="url(#a)" fill="#fff" stroke="#fff"/>
<g clip-path="url(#a)">
<defs>
<path id="x" d="m9.8125 72.906h41.891v-8.3125h-32.031v-21.484h28.906v-8.2969h-28.906v-34.812h-9.8594z"/>
</defs>
<g transform="translate(237.12 178.26) rotate(-41.03) scale(.08 -.08)">
<use xlink:href="#x"/>
</g>
</g>
<path d="m264.98 181.54 4.076-4.6186q1.5881-1.7995-0.21142-3.3875l-5.8052-5.1231q-1.7995-1.5881-3.3875 0.21142l-4.076 4.6186q-1.5881 1.7995 0.21142 3.3875l5.8052 5.1231q1.7995 1.5881 3.3875-0.21142z" clip-path="url(#a)" fill="#fff" stroke="#fff"/>
<g clip-path="url(#a)">
<defs>
<path id="y" d="m19.672 64.797v-56.688h11.922q15.094 0 22.094 6.8281 7 6.8438 7 21.594 0 14.641-7 21.453t-22.094 6.8125zm-9.8594 8.1094h20.266q21.188 0 31.094-8.8125 9.9219-8.8125 9.9219-27.562 0-18.859-9.9688-27.703-9.9531-8.8281-31.047-8.8281h-20.266z"/>
</defs>
<g transform="translate(261.93 178.85) rotate(-48.571) scale(.08 -.08)">
<use xlink:href="#y"/>
</g>
</g>
<path d="m342.49 117.49 1.2941-5.3173q0.56755-2.3319-1.7644-2.8995l-7.5229-1.8309q-2.3319-0.56755-2.8995 1.7644l-1.2941 5.3173q-0.56755 2.3319 1.7644 2.8995l7.5229 1.8309q2.3319 0.56755 2.8995-1.7644z" clip-path="url(#a)" fill="#fff" stroke="#fff"/>
<g clip-path="url(#a)">
<defs>
<path id="r" d="m34.188 63.188-13.391-36.281h26.812zm-5.5781 9.7188h11.188l27.781-72.906h-10.25l-6.6406 18.703h-32.859l-6.6406-18.703h-10.406z"/>
</defs>
<g transform="translate(338.54 116.52) rotate(-76.321) scale(.08 -.08)">
<use xlink:href="#r"/>
</g>
</g>
<path d="m317.3 179.32 1.5169-4.344q0.79122-2.2658-1.4746-3.057l-7.3097-2.5525q-2.2658-0.79122-3.057 1.4746l-1.5169 4.344q-0.79122 2.2658 1.4746 3.057l7.3097 2.5525q2.2658 0.79122 3.057-1.4746z" clip-path="url(#a)" fill="#fff" stroke="#fff"/>
<g clip-path="url(#a)">
<g transform="translate(313.46 177.98) rotate(-70.751) scale(.08 -.08)">
<use xlink:href="#x"/>
</g>
</g>
<path d="m380.16 175.46 1.9823 4.3976q0.98629 2.188 3.1743 1.2017l7.0585-3.1818q2.188-0.98629 1.2017-3.1743l-1.9823-4.3976q-0.98629-2.188-3.1743-1.2017l-7.0585 3.1818q-2.188 0.98629-1.2017 3.1743z" clip-path="url(#a)" fill="#fff" stroke="#fff"/>
<g clip-path="url(#a)">
<defs>
<path id="aa" d="m19.672 64.797v-27.391h12.406q6.8906 0 10.641 3.5625 3.7656 3.5625 3.7656 10.156 0 6.5469-3.7656 10.109-3.75 3.5625-10.641 3.5625zm-9.8594 8.1094h22.266q12.266 0 18.531-5.5469 6.2812-5.5469 6.2812-16.234 0-10.797-6.2812-16.312-6.2656-5.5156-18.531-5.5156h-12.406v-29.297h-9.8594z"/>
</defs>
<g transform="translate(383.86 173.79) rotate(65.735) scale(.08 -.08)">
<use xlink:href="#aa"/>
</g>
</g>
<path d="m405.08 176.51 3.1901 4.4465q1.399 1.95 3.3491 0.55101l6.2909-4.5134q1.95-1.399 0.55101-3.3491l-3.1901-4.4465q-1.399-1.95-3.3491-0.55101l-6.2909 4.5134q-1.95 1.399-0.55101 3.3491z" clip-path="url(#a)" fill="#fff" stroke="#fff"/>
<g clip-path="url(#a)">
<g transform="translate(408.39 174.14) rotate(54.343) scale(.08 -.08)">
<use xlink:href="#r"/>
</g>
</g>
<path d="m461.51 118.72 5.294 1.3862q2.3217 0.60791 2.9296-1.7138l1.9611-7.49q0.60791-2.3217-1.7138-2.9296l-5.294-1.3862q-2.3217-0.60791-2.9296 1.7138l-1.9611 7.49q-0.60791 2.3217 1.7138 2.9296z" clip-path="url(#a)" fill="#fff" stroke="#fff"/>
<g clip-path="url(#a)">
<g transform="translate(462.54 114.79) rotate(14.673) scale(.08 -.08)">
<use xlink:href="#r"/>
</g>
</g>
<path d="m123.78 281.51v35.285q0 2.4 2.4 2.4h7.7425q2.4 0 2.4-2.4v-35.285q0-2.4-2.4-2.4h-7.7425q-2.4 0-2.4 2.4z" clip-path="url(#a)" fill="#fff" stroke="#fff"/>
<g clip-path="url(#a)">
<g transform="translate(127.84 281.51) rotate(90) scale(.08 -.08)">
<use xlink:href="#e"/>
<use x="60.818359" xlink:href="#l"/>
<use x="122.341797" xlink:href="#g"/>
<use x="163.439453" xlink:href="#i"/>
<use x="260.851562" xlink:href="#k"/>
<use x="288.634766" xlink:href="#h"/>
<use x="352.013672" xlink:href="#f"/>
<use x="413.292969" xlink:href="#j"/>
</g>
</g>
<path d="m173.6 281.51v35.285q0 2.4 2.4 2.4h7.7425q2.4 0 2.4-2.4v-35.285q0-2.4-2.4-2.4h-7.7425q-2.4 0-2.4 2.4z" clip-path="url(#a)" fill="#fff" stroke="#fff"/>
<g clip-path="url(#a)">
<g transform="translate(177.66 281.51) rotate(90) scale(.08 -.08)">
<use xlink:href="#e"/>
<use x="60.818359" xlink:href="#l"/>
<use x="122.341797" xlink:href="#g"/>
<use x="163.439453" xlink:href="#i"/>
<use x="260.851562" xlink:href="#k"/>
<use x="288.634766" xlink:href="#h"/>
<use x="352.013672" xlink:href="#f"/>
<use x="413.292969" xlink:href="#j"/>
</g>
</g>
<path d="m307.35 182.48 3.9384-4.914q1.5009-1.8728-0.37184-3.3737l-6.0416-4.842q-1.8728-1.5009-3.3737 0.37184l-3.9384 4.914q-1.5009 1.8728 0.37184 3.3737l6.0416 4.842q1.8728 1.5009 3.3737-0.37184z" clip-path="url(#a)" fill="#fff" stroke="#fff"/>
<g clip-path="url(#a)">
<defs>
<path id="al" d="m39.406 66.219q-10.75 0-17.078-8.0156-6.3125-8-6.3125-21.828 0-13.766 6.3125-21.781 6.3281-8 17.078-8 10.734 0 17.016 8 6.2812 8.0156 6.2812 21.781 0 13.828-6.2812 21.828-6.2812 8.0156-17.016 8.0156zm13.812-64.906 13-14.203h-11.922l-10.797 11.672q-1.6094-0.09375-2.4688-0.14062-0.84375-0.0625-1.625-0.0625-15.375 0-24.594 10.281-9.2031 10.281-9.2031 27.516 0 17.281 9.2031 27.562 9.2188 10.281 24.594 10.281 15.328 0 24.5-10.281 9.1875-10.281 9.1875-27.562 0-12.688-5.1094-21.734-5.0938-9.0312-14.766-13.328z"/>
</defs>
<g transform="translate(304.18 179.94) rotate(-51.29) scale(.08 -.08)">
<use xlink:href="#al"/>
</g>
</g>
<path d="m347.38 206.52 2.0903 5.1804q0.89804 2.2257 3.1237 1.3276l7.18-2.8971q2.2257-0.89804 1.3276-3.1237l-2.0903-5.1804q-0.89804-2.2257-3.1237-1.3276l-7.18 2.8971q-2.2257 0.89804-1.3276 3.1237z" clip-path="url(#a)" fill="#fff" stroke="#fff"/>
<g clip-path="url(#a)">
<defs>
<path id="z" d="m64.406 67.281v-10.391q-4.9844 4.6406-10.625 6.9219-5.6406 2.2969-11.984 2.2969-12.5 0-19.141-7.6406t-6.6406-22.094q0-14.406 6.6406-22.047t19.141-7.6406q6.3438 0 11.984 2.2969t10.625 6.9375v-10.312q-5.1719-3.5156-10.969-5.2812-5.7812-1.75-12.219-1.75-16.562 0-26.094 10.125-9.5156 10.141-9.5156 27.672 0 17.578 9.5156 27.703 9.5312 10.141 26.094 10.141 6.5312 0 12.312-1.7344 5.7969-1.7344 10.875-5.2031z"/>
</defs>
<g transform="translate(351.15 205) rotate(68.026) scale(.08 -.08)">
<use xlink:href="#z"/>
</g>
</g>
<path d="m273.24 281.51v35.285q0 2.4 2.4 2.4h7.7425q2.4 0 2.4-2.4v-35.285q0-2.4-2.4-2.4h-7.7425q-2.4 0-2.4 2.4z" clip-path="url(#a)" fill="#fff" stroke="#fff"/>
<g clip-path="url(#a)">
<g transform="translate(277.31 281.51) rotate(90) scale(.08 -.08)">
<use xlink:href="#e"/>
<use x="60.818359" xlink:href="#l"/>
<use x="122.341797" xlink:href="#g"/>
<use x="163.439453" xlink:href="#i"/>
<use x="260.851562" xlink:href="#k"/>
<use x="288.634766" xlink:href="#h"/>
<use x="352.013672" xlink:href="#f"/>
<use x="413.292969" xlink:href="#j"/>
</g>
</g>
<path d="m422.7 281.51v35.285q0 2.4 2.4 2.4h7.7425q2.4 0 2.4-2.4v-35.285q0-2.4-2.4-2.4h-7.7425q-2.4 0-2.4 2.4z" clip-path="url(#a)" fill="#fff" stroke="#fff"/>
<g clip-path="url(#a)">
<g transform="translate(426.77 281.51) rotate(90) scale(.08 -.08)">
<use xlink:href="#e"/>
<use x="60.818359" xlink:href="#l"/>
<use x="122.341797" xlink:href="#g"/>
<use x="163.439453" xlink:href="#i"/>
<use x="260.851562" xlink:href="#k"/>
<use x="288.634766" xlink:href="#h"/>
<use x="352.013672" xlink:href="#f"/>
<use x="413.292969" xlink:href="#j"/>
</g>
</g>
<path d="m472.52 281.51v35.285q0 2.4 2.4 2.4h7.7425q2.4 0 2.4-2.4v-35.285q0-2.4-2.4-2.4h-7.7425q-2.4 0-2.4 2.4z" clip-path="url(#a)" fill="#fff" stroke="#fff"/>
<g clip-path="url(#a)">
<g transform="translate(476.59 281.51) rotate(90) scale(.08 -.08)">
<use xlink:href="#e"/>
<use x="60.818359" xlink:href="#l"/>
<use x="122.341797" xlink:href="#g"/>
<use x="163.439453" xlink:href="#i"/>
<use x="260.851562" xlink:href="#k"/>
<use x="288.634766" xlink:href="#h"/>
<use x="352.013672" xlink:href="#f"/>
<use x="413.292969" xlink:href="#j"/>
</g>
</g>
<path d="m574.47 181.29 2.3822-4.4585q1.131-2.1168-0.98579-3.2478l-6.8289-3.6487q-2.1168-1.131-3.2478 0.98579l-2.3822 4.4585q-1.131 2.1168 0.98579 3.2478l6.8289 3.6487q2.1168 1.131 3.2478-0.98579z" clip-path="url(#a)" fill="#fff" stroke="#fff"/>
<g clip-path="url(#a)">
<defs>
<path id="n" d="m9.8125 72.906h46.094v-8.3125h-36.234v-21.578h34.719v-8.2969h-34.719v-26.422h37.109v-8.2969h-46.969z"/>
</defs>
<g transform="translate(570.89 179.37) rotate(-61.884) scale(.08 -.08)">
<use xlink:href="#n"/>
</g>
</g>
<path d="m588.66 209.97 0.37482-5.5737q0.16103-2.3946-2.2336-2.5556l-7.7251-0.5195q-2.3946-0.16103-2.5556 2.2336l-0.37482 5.5737q-0.16103 2.3946 2.2336 2.5556l7.7251 0.5195q2.3946 0.16103 2.5556-2.2336z" clip-path="url(#a)" fill="#fff" stroke="#fff"/>
<g clip-path="url(#a)">
<g transform="translate(584.6 209.69) rotate(-86.153) scale(.08 -.08)">
<use xlink:href="#z"/>
</g>
</g>
<path d="m600.62 205.98 1.866 5.5497q0.7649 2.2748 3.0397 1.5099l7.3387-2.4676q2.2748-0.7649 1.5099-3.0397l-1.866-5.5497q-0.7649-2.2748-3.0397-1.5099l-7.3387 2.4676q-2.2748 0.7649-1.5099 3.0397z" clip-path="url(#a)" fill="#fff" stroke="#fff"/>
<g clip-path="url(#a)">
<g transform="translate(604.47 204.69) rotate(71.415) scale(.08 -.08)">
<use xlink:href="#p"/>
</g>
</g>
<path d="m559.14 237.67 2.0599 5.07q0.9034 2.2235 3.1269 1.3201l7.173-2.9144q2.2235-0.9034 1.3201-3.1269l-2.0599-5.07q-0.9034-2.2235-3.1269-1.3201l-7.173 2.9144q-2.2235 0.9034-1.3201 3.1269z" clip-path="url(#a)" fill="#fff" stroke="#fff"/>
<g clip-path="url(#a)">
<g transform="translate(562.91 236.14) rotate(67.888) scale(.08 -.08)">
<use xlink:href="#r"/>
</g>
</g>
<path d="m545.92 242.55 1.9117-4.7052q0.9034-2.2235-1.3201-3.1269l-7.173-2.9144q-2.2235-0.9034-3.1269 1.3201l-1.9117 4.7052q-0.9034 2.2235 1.3201 3.1269l7.173 2.9144q2.2235 0.9034 3.1269-1.3201z" clip-path="url(#a)" fill="#fff" stroke="#fff"/>
<g clip-path="url(#a)">
<defs>
<path id="u" d="m53.516 70.516v-9.625q-5.6094 2.6875-10.594 4-4.9844 1.3281-9.625 1.3281-8.0469 0-12.422-3.125t-4.375-8.8906q0-4.8438 2.9062-7.3125 2.9062-2.4531 11.016-3.9688l5.9531-1.2188q11.031-2.1094 16.281-7.4062t5.25-14.172q0-10.609-7.1094-16.078-7.0938-5.4688-20.812-5.4688-5.1719 0-11.016 1.1719-5.8281 1.1719-12.078 3.4688v10.156q6-3.3594 11.766-5.0781 5.7656-1.7031 11.328-1.7031 8.4375 0 13.031 3.3125 4.5938 3.3281 4.5938 9.4844 0 5.3594-3.2969 8.3906t-10.812 4.5469l-6.0156 1.1719q-11.031 2.1875-15.969 6.875-4.9219 4.6875-4.9219 13.047 0 9.6719 6.8125 15.234t18.766 5.5625q5.1406 0 10.453-0.9375 5.3281-0.92188 10.891-2.7656z"/>
</defs>
<g transform="translate(542.16 241.02) rotate(-67.888) scale(.08 -.08)">
<use xlink:href="#u"/>
</g>
</g>
<path d="m572.16 281.51v35.285q0 2.4 2.4 2.4h7.7425q2.4 0 2.4-2.4v-35.285q0-2.4-2.4-2.4h-7.7425q-2.4 0-2.4 2.4z" clip-path="url(#a)" fill="#fff" stroke="#fff"/>
<g clip-path="url(#a)">
<g transform="translate(576.23 281.51) rotate(90) scale(.08 -.08)">
<use xlink:href="#e"/>
<use x="60.818359" xlink:href="#l"/>
<use x="122.341797" xlink:href="#g"/>
<use x="163.439453" xlink:href="#i"/>
<use x="260.851562" xlink:href="#k"/>
<use x="288.634766" xlink:href="#h"/>
<use x="352.013672" xlink:href="#f"/>
<use x="413.292969" xlink:href="#j"/>
</g>
</g>
<path d="m522.34 281.51v35.285q0 2.4 2.4 2.4h7.7425q2.4 0 2.4-2.4v-35.285q0-2.4-2.4-2.4h-7.7425q-2.4 0-2.4 2.4z" clip-path="url(#a)" fill="#fff" stroke="#fff"/>
<g clip-path="url(#a)">
<g transform="translate(526.41 281.51) rotate(90) scale(.08 -.08)">
<use xlink:href="#e"/>
<use x="60.818359" xlink:href="#l"/>
<use x="122.341797" xlink:href="#g"/>
<use x="163.439453" xlink:href="#i"/>
<use x="260.851562" xlink:href="#k"/>
<use x="288.634766" xlink:href="#h"/>
<use x="352.013672" xlink:href="#f"/>
<use x="413.292969" xlink:href="#j"/>
</g>
</g>
<path d="m257.88 243.76 3.1879-3.9231q1.5135-1.8626-0.34905-3.3761l-6.0088-4.8827q-1.8626-1.5135-3.3761 0.34905l-3.1879 3.9231q-1.5135 1.8626 0.34905 3.3761l6.0088 4.8827q1.8626 1.5135 3.3761-0.34905z" clip-path="url(#a)" fill="#fff" stroke="#fff"/>
<g clip-path="url(#a)">
<g transform="translate(254.72 241.2) rotate(-50.903) scale(.08 -.08)">
<use xlink:href="#n"/>
</g>
</g>
<path d="m297.79 239.63 3.5229 4.3354q1.5135 1.8626 3.3761 0.34905l6.0088-4.8827q1.8626-1.5135 0.34905-3.3761l-3.5229-4.3354q-1.5135-1.8626-3.3761-0.34905l-6.0088 4.8827q-1.8626 1.5135-0.34905 3.3761z" clip-path="url(#a)" fill="#fff" stroke="#fff"/>
<g clip-path="url(#a)">
<g transform="translate(300.95 237.07) rotate(50.903) scale(.08 -.08)">
<use xlink:href="#z"/>
</g>
</g>
<path d="m372.88 281.51v35.285q0 2.4 2.4 2.4h7.7425q2.4 0 2.4-2.4v-35.285q0-2.4-2.4-2.4h-7.7425q-2.4 0-2.4 2.4z" clip-path="url(#a)" fill="#fff" stroke="#fff"/>
<g clip-path="url(#a)">
<g transform="translate(376.95 281.51) rotate(90) scale(.08 -.08)">
<use xlink:href="#e"/>
<use x="60.818359" xlink:href="#l"/>
<use x="122.341797" xlink:href="#g"/>
<use x="163.439453" xlink:href="#i"/>
<use x="260.851562" xlink:href="#k"/>
<use x="288.634766" xlink:href="#h"/>
<use x="352.013672" xlink:href="#f"/>
<use x="413.292969" xlink:href="#j"/>
</g>
</g>
<path d="m223.42 281.51v35.285q0 2.4 2.4 2.4h7.7425q2.4 0 2.4-2.4v-35.285q0-2.4-2.4-2.4h-7.7425q-2.4 0-2.4 2.4z" clip-path="url(#a)" fill="#fff" stroke="#fff"/>
<g clip-path="url(#a)">
<g transform="translate(227.49 281.51) rotate(90) scale(.08 -.08)">
<use xlink:href="#e"/>
<use x="60.818359" xlink:href="#l"/>
<use x="122.341797" xlink:href="#g"/>
<use x="163.439453" xlink:href="#i"/>
<use x="260.851562" xlink:href="#k"/>
<use x="288.634766" xlink:href="#h"/>
<use x="352.013672" xlink:href="#f"/>
<use x="413.292969" xlink:href="#j"/>
</g>
</g>
<path d="m323.06 281.51v35.285q0 2.4 2.4 2.4h7.7425q2.4 0 2.4-2.4v-35.285q0-2.4-2.4-2.4h-7.7425q-2.4 0-2.4 2.4z" clip-path="url(#a)" fill="#fff" stroke="#fff"/>
<g clip-path="url(#a)">
<g transform="translate(327.13 281.51) rotate(90) scale(.08 -.08)">
<use xlink:href="#e"/>
<use x="60.818359" xlink:href="#l"/>
<use x="122.341797" xlink:href="#g"/>
<use x="163.439453" xlink:href="#i"/>
<use x="260.851562" xlink:href="#k"/>
<use x="288.634766" xlink:href="#h"/>
<use x="352.013672" xlink:href="#f"/>
<use x="413.292969" xlink:href="#j"/>
</g>
</g>
<path d="m73.96 281.51v35.285q0 2.4 2.4 2.4h7.7425q2.4 0 2.4-2.4v-35.285q0-2.4-2.4-2.4h-7.7425q-2.4 0-2.4 2.4z" clip-path="url(#a)" fill="#fff" stroke="#fff"/>
<g clip-path="url(#a)">
<g transform="translate(78.024 281.51) rotate(90) scale(.08 -.08)">
<use xlink:href="#e"/>
<use x="60.818359" xlink:href="#l"/>
<use x="122.341797" xlink:href="#g"/>
<use x="163.439453" xlink:href="#i"/>
<use x="260.851562" xlink:href="#k"/>
<use x="288.634766" xlink:href="#h"/>
<use x="352.013672" xlink:href="#f"/>
<use x="413.292969" xlink:href="#j"/>
</g>
</g>
<path d="m621.98 281.51v35.285q0 2.4 2.4 2.4h7.7425q2.4 0 2.4-2.4v-35.285q0-2.4-2.4-2.4h-7.7425q-2.4 0-2.4 2.4z" clip-path="url(#a)" fill="#fff" stroke="#fff"/>
<g clip-path="url(#a)">
<g transform="translate(626.05 281.51) rotate(90) scale(.08 -.08)">
<use xlink:href="#e"/>
<use x="60.818359" xlink:href="#l"/>
<use x="122.341797" xlink:href="#g"/>
<use x="163.439453" xlink:href="#i"/>
<use x="260.851562" xlink:href="#k"/>
<use x="288.634766" xlink:href="#h"/>
<use x="352.013672" xlink:href="#f"/>
<use x="413.292969" xlink:href="#j"/>
</g>
</g>
<defs>
<path id="c" d="m0 8.6603c2.2967 0 4.4997-0.9125 6.1237-2.5365 1.624-1.624 2.5365-3.827 2.5365-6.1237s-0.9125-4.4997-2.5365-6.1237c-1.624-1.624-3.827-2.5365-6.1237-2.5365s-4.4997 0.9125-6.1237 2.5365c-1.624 1.624-2.5365 3.827-2.5365 6.1237s0.9125 4.4997 2.5365 6.1237c1.624 1.624 3.827 2.5365 6.1237 2.5365z"/>
</defs>
<g clip-path="url(#a)">
<use x="30.411027" y="329.806329" fill="#ffffff" stroke="#ffffff" xlink:href="#c"/>
</g>
<g clip-path="url(#a)">
<use x="80.231412" y="329.806329" fill="#ffffff" stroke="#ffffff" xlink:href="#c"/>
</g>
<g clip-path="url(#a)">
<use x="130.051796" y="329.806329" fill="#ffffff" stroke="#ffffff" xlink:href="#c"/>
</g>
<g clip-path="url(#a)">
<use x="179.87218" y="329.806329" fill="#ffffff" stroke="#ffffff" xlink:href="#c"/>
</g>
<g clip-path="url(#a)">
<use x="229.692565" y="329.806329" fill="#ffffff" stroke="#ffffff" xlink:href="#c"/>
</g>
<g clip-path="url(#a)">
<use x="279.512949" y="329.806329" fill="#ffffff" stroke="#ffffff" xlink:href="#c"/>
</g>
<g clip-path="url(#a)">
<use x="329.333333" y="329.806329" fill="#ffffff" stroke="#ffffff" xlink:href="#c"/>
</g>
<g clip-path="url(#a)">
<use x="379.153718" y="329.806329" fill="#ffffff" stroke="#ffffff" xlink:href="#c"/>
</g>
<g clip-path="url(#a)">
<use x="428.974102" y="329.806329" fill="#ffffff" stroke="#ffffff" xlink:href="#c"/>
</g>
<g clip-path="url(#a)">
<use x="478.794486" y="329.806329" fill="#ffffff" stroke="#ffffff" xlink:href="#c"/>
</g>
<g clip-path="url(#a)">
<use x="528.614871" y="329.806329" fill="#ffffff" stroke="#ffffff" xlink:href="#c"/>
</g>
<g clip-path="url(#a)">
<use x="578.435255" y="329.806329" fill="#ffffff" stroke="#ffffff" xlink:href="#c"/>
</g>
<g clip-path="url(#a)">
<use x="628.255639" y="329.806329" fill="#ffffff" stroke="#ffffff" xlink:href="#c"/>
</g>
<g clip-path="url(#a)">
<use x="151.798789" y="16.860338" fill="#ffffff" stroke="#ffffff" xlink:href="#c"/>
</g>
<g clip-path="url(#a)">
<use x="30.411027" y="268.496394" fill="#ffffff" stroke="#ffffff" xlink:href="#c"/>
</g>
<g clip-path="url(#a)">
<use x="344.753928" y="81.663821" fill="#ffffff" stroke="#ffffff" xlink:href="#c"/>
</g>
<g clip-path="url(#a)">
<use x="130.051796" y="268.496394" fill="#ffffff" stroke="#ffffff" xlink:href="#c"/>
</g>
<g clip-path="url(#a)">
<use x="179.87218" y="268.496394" fill="#ffffff" stroke="#ffffff" xlink:href="#c"/>
</g>
<g clip-path="url(#a)">
<use x="329.333333" y="145.023636" fill="#ffffff" stroke="#ffffff" xlink:href="#c"/>
</g>
<g clip-path="url(#a)">
<use x="279.512949" y="268.496394" fill="#ffffff" stroke="#ffffff" xlink:href="#c"/>
</g>
<g clip-path="url(#a)">
<use x="428.974102" y="268.496394" fill="#ffffff" stroke="#ffffff" xlink:href="#c"/>
</g>
<g clip-path="url(#a)">
<use x="478.794486" y="268.496394" fill="#ffffff" stroke="#ffffff" xlink:href="#c"/>
</g>
<g clip-path="url(#a)">
<use x="586.738652" y="145.023636" fill="#ffffff" stroke="#ffffff" xlink:href="#c"/>
</g>
<g clip-path="url(#a)">
<use x="553.525063" y="207.18646" fill="#ffffff" stroke="#ffffff" xlink:href="#c"/>
</g>
<g clip-path="url(#a)">
<use x="578.435255" y="268.496394" fill="#ffffff" stroke="#ffffff" xlink:href="#c"/>
</g>
<g clip-path="url(#a)">
<use x="528.614871" y="268.496394" fill="#ffffff" stroke="#ffffff" xlink:href="#c"/>
</g>
<g clip-path="url(#a)">
<use x="279.512949" y="207.18646" fill="#ffffff" stroke="#ffffff" xlink:href="#c"/>
</g>
<g clip-path="url(#a)">
<use x="379.153718" y="268.496394" fill="#ffffff" stroke="#ffffff" xlink:href="#c"/>
</g>
<g clip-path="url(#a)">
<use x="229.692565" y="268.496394" fill="#ffffff" stroke="#ffffff" xlink:href="#c"/>
</g>
<g clip-path="url(#a)">
<use x="329.333333" y="268.496394" fill="#ffffff" stroke="#ffffff" xlink:href="#c"/>
</g>
<g clip-path="url(#a)">
<use x="80.231412" y="268.496394" fill="#ffffff" stroke="#ffffff" xlink:href="#c"/>
</g>
<g clip-path="url(#a)">
<use x="628.255639" y="268.496394" fill="#ffffff" stroke="#ffffff" xlink:href="#c"/>
</g>
<g clip-path="url(#a)">
<defs>
<path id="o" d="m9.8125 72.906h13.281l32.328-60.984v60.984h9.5625v-72.906h-13.281l-32.312 60.984v-60.984h-9.5781z"/>
<path id="ak" d="m6.2969 72.906h10.594l18.125-27.109 18.203 27.109h10.594l-23.438-35.016 25-37.891h-10.594l-20.5 31-20.656-31h-10.641l26.016 38.922z"/>
</defs>
<g transform="translate(17.033 332.57) scale(.1 -.1)">
<use xlink:href="#o"/>
<use x="74.804688" xlink:href="#n"/>
<use x="137.988281" xlink:href="#ak"/>
<use x="206.478516" xlink:href="#e"/>
</g>
</g>
<g clip-path="url(#a)">
<defs>
<path id="ao" d="m11.719 12.406h10.297v-8.4062l-8-15.625h-6.2969l4 15.625z"/>
</defs>
<g transform="translate(78.642 332.57) scale(.1 -.1)">
<use xlink:href="#ao"/>
</g>
</g>
<g clip-path="url(#a)">
<defs>
<path id="q" d="m44.391 34.188q3.1719-1.0781 6.1719-4.5938t6.0312-9.6719l10.016-19.922h-10.609l-9.3125 18.703q-3.625 7.3281-7.0156 9.7188t-9.25 2.3906h-10.75v-30.812h-9.8594v72.906h22.266q12.5 0 18.656-5.2344 6.1562-5.2188 6.1562-15.766 0-6.8906-3.2031-11.438-3.2031-4.5312-9.2969-6.2812zm-24.719 30.609v-25.875h12.406q7.125 0 10.766 3.2969t3.6406 9.6875-3.6406 9.6406-10.766 3.25z"/>
</defs>
<g transform="translate(113.44 332.57) scale(.1 -.1)">
<use xlink:href="#e"/>
<use x="61.083984" xlink:href="#w"/>
<use x="136.279297" xlink:href="#n"/>
<use x="199.462891" xlink:href="#q"/>
<use x="268.945312" xlink:href="#n"/>
</g>
</g>
<g clip-path="url(#a)">
<defs>
<path id="m" d="m39.406 66.219q-10.75 0-17.078-8.0156-6.3125-8-6.3125-21.828 0-13.766 6.3125-21.781 6.3281-8 17.078-8 10.734 0 17.016 8 6.2812 8.0156 6.2812 21.781 0 13.828-6.2812 21.828-6.2812 8.0156-17.016 8.0156zm0 8q15.328 0 24.5-10.281 9.1875-10.281 9.1875-27.562 0-17.234-9.1875-27.516-9.1719-10.281-24.5-10.281-15.375 0-24.594 10.25-9.2031 10.266-9.2031 27.547t9.2031 27.562q9.2188 10.281 24.594 10.281z"/>
</defs>
<g transform="translate(158.71 332.57) scale(.1 -.1)">
<use xlink:href="#u"/>
<use x="63.476562" xlink:href="#w"/>
<use x="138.671875" xlink:href="#m"/>
<use x="217.382812" xlink:href="#p"/>
<use x="290.576172" xlink:href="#v"/>
<use x="346.289062" xlink:href="#y"/>
</g>
</g>
<g clip-path="url(#a)">
<defs>
<path id="t" d="m-0.20312 72.906h10.609l20.203-29.984 20.078 29.984h10.594l-25.781-38.188v-34.719h-9.9062v34.719z"/>
</defs>
<g transform="translate(216.19 332.57) scale(.1 -.1)">
<use xlink:href="#m"/>
<use x="78.710938" xlink:href="#o"/>
<use x="153.515625" xlink:href="#v"/>
<use x="209.025391" xlink:href="#t"/>
</g>
</g>
<g clip-path="url(#a)">
<defs>
<path id="ad" d="m19.672 34.812v-26.703h15.828q7.9531 0 11.781 3.2969 3.8438 3.2969 3.8438 10.078 0 6.8438-3.8438 10.078-3.8281 3.25-11.781 3.25zm0 29.984v-21.969h14.609q7.2188 0 10.75 2.7031 3.5469 2.7188 3.5469 8.2812 0 5.5156-3.5469 8.25-3.5312 2.7344-10.75 2.7344zm-9.8594 8.1094h25.203q11.281 0 17.375-4.6875 6.1094-4.6875 6.1094-13.328 0-6.7031-3.125-10.656t-9.1875-4.9219q7.2812-1.5625 11.312-6.5312 4.0312-4.9531 4.0312-12.375 0-9.7656-6.6406-15.094-6.6406-5.3125-18.906-5.3125h-26.172z"/>
</defs>
<g transform="translate(272.92 332.57) scale(.1 -.1)">
<use xlink:href="#ad"/>
<use x="68.603516" xlink:href="#n"/>
</g>
</g>
<g clip-path="url(#a)">
<g transform="translate(318.5 332.57) scale(.1 -.1)">
<use xlink:href="#m"/>
<use x="78.710938" xlink:href="#o"/>
<use x="153.515625" xlink:href="#n"/>
</g>
</g>
<g clip-path="url(#a)">
<g transform="translate(358.65 332.57) scale(.1 -.1)">
<use xlink:href="#aa"/>
<use x="60.302734" xlink:href="#n"/>
<use x="123.486328" xlink:href="#q"/>
<use x="192.96875" xlink:href="#u"/>
<use x="256.445312" xlink:href="#m"/>
<use x="335.15625" xlink:href="#o"/>
</g>
</g>
<g clip-path="url(#a)">
<defs>
<path id="ab" d="m9.8125 72.906h9.8594v-72.906h-9.8594z"/>
<path id="ac" d="m59.516 10.406v19.578h-16.109v8.1094h25.875v-31.312q-5.7031-4.0469-12.594-6.125-6.875-2.0781-14.688-2.0781-17.094 0-26.75 9.9844-9.6406 10-9.6406 27.812 0 17.875 9.6406 27.859 9.6562 9.9844 26.75 9.9844 7.125 0 13.547-1.7656 6.4219-1.75 11.844-5.1719v-10.5q-5.4688 4.6406-11.625 6.9844t-12.938 2.3438q-13.391 0-20.109-7.4688-6.7031-7.4688-6.7031-22.266 0-14.75 6.7031-22.219 6.7188-7.4688 20.109-7.4688 5.2188 0 9.3125 0.90625 4.1094 0.90625 7.375 2.8125z"/>
</defs>
<g transform="translate(403.89 332.57) scale(.1 -.1)">
<use xlink:href="#ad"/>
<use x="68.603516" xlink:href="#q"/>
<use x="138.085938" xlink:href="#ab"/>
<use x="167.578125" xlink:href="#o"/>
<use x="242.382812" xlink:href="#ac"/>
<use x="319.873047" xlink:href="#ab"/>
<use x="349.365234" xlink:href="#o"/>
<use x="424.169922" xlink:href="#ac"/>
</g>
</g>
<g clip-path="url(#a)">
<g transform="translate(468.15 332.57) scale(.1 -.1)">
<use xlink:href="#t"/>
<use x="61.005859" xlink:href="#m"/>
<use x="139.716797" xlink:href="#p"/>
</g>
</g>
<g clip-path="url(#a)">
<g transform="translate(514.5 332.57) scale(.1 -.1)">
<use xlink:href="#t"/>
<use x="61.005859" xlink:href="#m"/>
<use x="139.716797" xlink:href="#p"/>
<use x="212.910156" xlink:href="#q"/>
</g>
</g>
<g clip-path="url(#a)">
<g transform="translate(563.84 332.57) scale(.1 -.1)">
<use xlink:href="#x"/>
<use x="57.519531" xlink:href="#m"/>
<use x="136.230469" xlink:href="#m"/>
<use x="214.941406" xlink:href="#y"/>
</g>
</g>
<g clip-path="url(#a)">
<defs>
<path id="d" d="m10.688 12.406h10.312v-12.406h-10.312z"/>
</defs>
<g transform="translate(626.67 332.57) scale(.1 -.1)">
<use xlink:href="#d"/>
</g>
</g>
<g clip-path="url(#a)">
<defs>
<path id="b" d="m12.406 8.2969h16.109v55.625l-17.531-3.5156v8.9844l17.438 3.5156h9.8594v-64.609h16.109v-8.2969h-41.984z"/>
</defs>
<g transform="translate(143.85 19.62) scale(.1 -.1)">
<use xlink:href="#b"/>
<use x="63.623047" xlink:href="#d"/>
<use x="95.410156" xlink:href="#b"/>
</g>
</g>
<g clip-path="url(#a)">
<defs>
<path id="s" d="m19.188 8.2969h34.422v-8.2969h-46.281v8.2969q5.6094 5.8125 15.297 15.594 9.7031 9.7969 12.188 12.641 4.7344 5.3125 6.6094 9 1.8906 3.6875 1.8906 7.25 0 5.8125-4.0781 9.4688-4.0781 3.6719-10.625 3.6719-4.6406 0-9.7969-1.6094-5.1406-1.6094-11-4.8906v9.9688q5.9531 2.3906 11.125 3.6094 5.1875 1.2188 9.4844 1.2188 11.328 0 18.062-5.6719 6.7344-5.6562 6.7344-15.125 0-4.5-1.6875-8.5312-1.6719-4.0156-6.125-9.4844-1.2188-1.4219-7.7656-8.1875-6.5312-6.7656-18.453-18.922z"/>
</defs>
<g transform="translate(22.459 271.26) scale(.1 -.1)">
<use xlink:href="#b"/>
<use x="63.623047" xlink:href="#d"/>
<use x="95.410156" xlink:href="#s"/>
</g>
</g>
<g clip-path="url(#a)">
<defs>
<path id="ai" d="m40.578 39.312q7.0781-1.5156 11.047-6.3125 3.9844-4.7812 3.9844-11.812 0-10.781-7.4219-16.703-7.4219-5.9062-21.094-5.9062-4.5781 0-9.4375 0.90625t-10.031 2.7188v9.5156q4.0938-2.3906 8.9688-3.6094 4.8906-1.2188 10.219-1.2188 9.2656 0 14.125 3.6562t4.8594 10.641q0 6.4531-4.5156 10.078-4.5156 3.6406-12.562 3.6406h-8.5v8.1094h8.8906q7.2656 0 11.125 2.9062t3.8594 8.375q0 5.6094-3.9844 8.6094-3.9688 3.0156-11.391 3.0156-4.0625 0-8.7031-0.89062-4.6406-0.875-10.203-2.7188v8.7812q5.625 1.5625 10.531 2.3438t9.25 0.78125q11.234 0 17.766-5.1094 6.5469-5.0938 6.5469-13.781 0-6.0625-3.4688-10.234t-9.8594-5.7812z"/>
</defs>
<g transform="translate(336.8 84.423) scale(.1 -.1)">
<use xlink:href="#b"/>
<use x="63.623047" xlink:href="#d"/>
<use x="95.410156" xlink:href="#ai"/>
</g>
</g>
<g clip-path="url(#a)">
<defs>
<path id="ah" d="m33.016 40.375q-6.6406 0-10.531-4.5469-3.875-4.5312-3.875-12.438 0-7.8594 3.875-12.438 3.8906-4.5625 10.531-4.5625t10.516 4.5625q3.875 4.5781 3.875 12.438 0 7.9062-3.875 12.438-3.875 4.5469-10.516 4.5469zm19.578 30.922v-8.9844q-3.7188 1.75-7.5 2.6719-3.7812 0.9375-7.5 0.9375-9.7656 0-14.922-6.5938-5.1406-6.5938-5.875-19.922 2.875 4.25 7.2188 6.5156 4.3594 2.2656 9.5781 2.2656 10.984 0 17.359-6.6719 6.375-6.6562 6.375-18.125 0-11.234-6.6406-18.031-6.6406-6.7812-17.672-6.7812-12.656 0-19.344 9.6875-6.6875 9.7031-6.6875 28.109 0 17.281 8.2031 27.562t22.016 10.281q3.7188 0 7.5-0.73438t7.8906-2.1875z"/>
</defs>
<g transform="translate(122.1 271.26) scale(.1 -.1)">
<use xlink:href="#b"/>
<use x="63.623047" xlink:href="#d"/>
<use x="95.410156" xlink:href="#ah"/>
</g>
</g>
<g clip-path="url(#a)">
<defs>
<path id="ag" d="m8.2031 72.906h46.875v-4.2031l-26.469-68.703h-10.297l24.906 64.594h-35.016z"/>
</defs>
<g transform="translate(171.92 271.26) scale(.1 -.1)">
<use xlink:href="#b"/>
<use x="63.623047" xlink:href="#d"/>
<use x="95.410156" xlink:href="#ag"/>
</g>
</g>
<g clip-path="url(#a)">
<defs>
<path id="af" d="m31.781 34.625q-7.0312 0-11.062-3.7656-4.0156-3.7656-4.0156-10.344 0-6.5938 4.0156-10.359 4.0312-3.7656 11.062-3.7656t11.078 3.7812q4.0625 3.7969 4.0625 10.344 0 6.5781-4.0312 10.344-4.0156 3.7656-11.109 3.7656zm-9.8594 4.1875q-6.3438 1.5625-9.8906 5.9062-3.5312 4.3594-3.5312 10.609 0 8.7344 6.2188 13.812 6.2344 5.0781 17.062 5.0781 10.891 0 17.094-5.0781t6.2031-13.812q0-6.25-3.5469-10.609-3.5312-4.3438-9.8281-5.9062 7.125-1.6562 11.094-6.5 3.9844-4.8281 3.9844-11.797 0-10.609-6.4688-16.281-6.4688-5.6562-18.531-5.6562-12.047 0-18.531 5.6562-6.4688 5.6719-6.4688 16.281 0 6.9688 4 11.797 4.0156 4.8438 11.141 6.5zm-3.6094 15.578q0-5.6562 3.5312-8.8281 3.5469-3.1719 9.9375-3.1719 6.3594 0 9.9375 3.1719 3.5938 3.1719 3.5938 8.8281 0 5.6719-3.5938 8.8438-3.5781 3.1719-9.9375 3.1719-6.3906 0-9.9375-3.1719-3.5312-3.1719-3.5312-8.8438z"/>
</defs>
<g transform="translate(321.38 147.78) scale(.1 -.1)">
<use xlink:href="#b"/>
<use x="63.623047" xlink:href="#d"/>
<use x="95.410156" xlink:href="#af"/>
</g>
</g>
<g clip-path="url(#a)">
<defs>
<path id="ae" d="m10.984 1.5156v8.9844q3.7188-1.7656 7.5156-2.6875 3.8125-0.92188 7.4844-0.92188 9.7656 0 14.906 6.5625 5.1562 6.5625 5.8906 19.953-2.8281-4.2031-7.1875-6.4531-4.3438-2.25-9.6094-2.25-10.938 0-17.312 6.6094-6.375 6.625-6.375 18.109 0 11.219 6.6406 18 6.6406 6.7969 17.672 6.7969 12.656 0 19.312-9.7031 6.6719-9.6875 6.6719-28.141 0-17.234-8.1875-27.516-8.1719-10.281-21.984-10.281-3.7188 0-7.5312 0.73438-3.7969 0.73438-7.9062 2.2031zm19.625 30.906q6.6406 0 10.516 4.5312 3.8906 4.5469 3.8906 12.469 0 7.8594-3.8906 12.422-3.875 4.5625-10.516 4.5625t-10.516-4.5625-3.875-12.422q0-7.9219 3.875-12.469 3.875-4.5312 10.516-4.5312z"/>
</defs>
<g transform="translate(271.56 271.26) scale(.1 -.1)">
<use xlink:href="#b"/>
<use x="63.623047" xlink:href="#d"/>
<use x="95.410156" xlink:href="#ae"/>
</g>
</g>
<g clip-path="url(#a)">
<defs>
<path id="aj" d="m31.781 66.406q-7.6094 0-11.453-7.5-3.8281-7.4844-3.8281-22.531 0-14.984 3.8281-22.484 3.8438-7.5 11.453-7.5 7.6719 0 11.5 7.5 3.8438 7.5 3.8438 22.484 0 15.047-3.8438 22.531-3.8281 7.5-11.5 7.5zm0 7.8125q12.266 0 18.734-9.7031 6.4688-9.6875 6.4688-28.141 0-18.406-6.4688-28.109-6.4688-9.6875-18.734-9.6875-12.25 0-18.719 9.6875-6.4688 9.7031-6.4688 28.109 0 18.453 6.4688 28.141 6.4688 9.7031 18.719 9.7031z"/>
</defs>
<g transform="translate(417.84 271.26) scale(.1 -.1)">
<use xlink:href="#b"/>
<use x="63.623047" xlink:href="#d"/>
<use x="95.410156" xlink:href="#b"/>
<use x="159.033203" xlink:href="#aj"/>
</g>
</g>
<g clip-path="url(#a)">
<g transform="translate(467.66 271.26) scale(.1 -.1)">
<use xlink:href="#b"/>
<use x="63.623047" xlink:href="#d"/>
<use x="95.410156" xlink:href="#b"/>
<use x="159.033203" xlink:href="#b"/>
</g>
</g>
<g clip-path="url(#a)">
<g transform="translate(575.61 147.78) scale(.1 -.1)">
<use xlink:href="#b"/>
<use x="63.623047" xlink:href="#d"/>
<use x="95.410156" xlink:href="#b"/>
<use x="159.033203" xlink:href="#s"/>
</g>
</g>
<g clip-path="url(#a)">
<g transform="translate(542.39 209.95) scale(.1 -.1)">
<use xlink:href="#b"/>
<use x="63.623047" xlink:href="#d"/>
<use x="95.410156" xlink:href="#b"/>
<use x="159.033203" xlink:href="#ai"/>
</g>
</g>
<g clip-path="url(#a)">
<defs>
<path id="an" d="m37.797 64.312-24.906-38.922h24.906zm-2.5938 8.5938h12.406v-47.516h10.406v-8.2031h-10.406v-17.188h-9.8125v17.188h-32.906v9.5156z"/>
</defs>
<g transform="translate(567.3 271.26) scale(.1 -.1)">
<use xlink:href="#b"/>
<use x="63.623047" xlink:href="#d"/>
<use x="95.410156" xlink:href="#b"/>
<use x="159.033203" xlink:href="#an"/>
</g>
</g>
<g clip-path="url(#a)">
<defs>
<path id="am" d="m10.797 72.906h38.719v-8.3125h-29.688v-17.859q2.1406 0.73438 4.2812 1.0938 2.1562 0.35938 4.3125 0.35938 12.203 0 19.328-6.6875 7.1406-6.6875 7.1406-18.109 0-11.766-7.3281-18.297-7.3281-6.5156-20.656-6.5156-4.5938 0-9.3594 0.78125-4.75 0.78125-9.8281 2.3438v9.9219q4.3906-2.3906 9.0781-3.5625t9.9062-1.1719q8.4531 0 13.375 4.4375 4.9375 4.4375 4.9375 12.062 0 7.6094-4.9375 12.047-4.9219 4.4531-13.375 4.4531-3.9531 0-7.8906-0.875-3.9219-0.875-8.0156-2.7344z"/>
</defs>
<g transform="translate(517.48 271.26) scale(.1 -.1)">
<use xlink:href="#b"/>
<use x="63.623047" xlink:href="#d"/>
<use x="95.410156" xlink:href="#b"/>
<use x="159.033203" xlink:href="#am"/>
</g>
</g>
<g clip-path="url(#a)">
<g transform="translate(268.38 209.95) scale(.1 -.1)">
<use xlink:href="#b"/>
<use x="63.623047" xlink:href="#d"/>
<use x="95.410156" xlink:href="#b"/>
<use x="159.033203" xlink:href="#ah"/>
</g>
</g>
<g clip-path="url(#a)">
<g transform="translate(368.02 271.26) scale(.1 -.1)">
<use xlink:href="#b"/>
<use x="63.623047" xlink:href="#d"/>
<use x="95.410156" xlink:href="#b"/>
<use x="159.033203" xlink:href="#ag"/>
</g>
</g>
<g clip-path="url(#a)">
<g transform="translate(218.56 271.26) scale(.1 -.1)">
<use xlink:href="#b"/>
<use x="63.623047" xlink:href="#d"/>
<use x="95.410156" xlink:href="#b"/>
<use x="159.033203" xlink:href="#af"/>
</g>
</g>
<g clip-path="url(#a)">
<g transform="translate(318.2 271.26) scale(.1 -.1)">
<use xlink:href="#b"/>
<use x="63.623047" xlink:href="#d"/>
<use x="95.410156" xlink:href="#b"/>
<use x="159.033203" xlink:href="#ae"/>
</g>
</g>
<g clip-path="url(#a)">
<g transform="translate(69.099 271.26) scale(.1 -.1)">
<use xlink:href="#b"/>
<use x="63.623047" xlink:href="#d"/>
<use x="95.410156" xlink:href="#s"/>
<use x="159.033203" xlink:href="#aj"/>
</g>
</g>
<g clip-path="url(#a)">
<g transform="translate(617.12 271.26) scale(.1 -.1)">
<use xlink:href="#b"/>
<use x="63.623047" xlink:href="#d"/>
<use x="95.410156" xlink:href="#s"/>
<use x="159.033203" xlink:href="#b"/>
</g>
</g>
<defs>
<clipPath id="a">
<rect width="658.67" height="346.67"/>
</clipPath>
</defs>
</svg>
