<?xml version="1.0" encoding="UTF-8"?>
<!DOCTYPE svg  PUBLIC '-//W3C//DTD SVG 1.1//EN'  'http://www.w3.org/Graphics/SVG/1.1/DTD/svg11.dtd'>
<svg width="709.33pt" height="373.33pt" version="1.1" viewBox="0 0 709.33 373.33" xmlns="http://www.w3.org/2000/svg" xmlns:xlink="http://www.w3.org/1999/xlink">
<metadata>
<rdf:RDF xmlns:cc="http://creativecommons.org/ns#" xmlns:dc="http://purl.org/dc/elements/1.1/" xmlns:rdf="http://www.w3.org/1999/02/22-rdf-syntax-ns#">
<cc:Work>
<dc:type rdf:resource="http://purl.org/dc/dcmitype/StillImage"/>
<dc:date>2021-02-25T11:35:31.787519</dc:date>
<dc:format>image/svg+xml</dc:format>
<dc:creator>
<cc:Agent>
<dc:title>Matplotlib v3.3.3, https://matplotlib.org/</dc:title>
</cc:Agent>
</dc:creator>
</cc:Work>
</rdf:RDF>
</metadata>
<defs>
<style type="text/css">*{stroke-linecap:butt;stroke-linejoin:round;}</style>
</defs>
<path d="m0 373.33h709.33v-373.33h-709.33z" fill="#fff"/>
<g fill="none" stroke="#000">
<path d="m250.32 16.97-187.76 114.05" clip-path="url(#a)"/>
<path d="m250.32 16.97-118.87 227.5" clip-path="url(#a)"/>
<path d="m250.32 16.97-34.355 114.05" clip-path="url(#a)"/>
<path d="m250.32 16.97 68.527 227.5" clip-path="url(#a)"/>
<path d="m250.32 16.97 272.45 114.05" clip-path="url(#a)"/>
<path d="m62.556 131.02-30.313 113.45" clip-path="url(#a)"/>
<path d="m62.556 131.02-13.779 113.45" clip-path="url(#a)"/>
<path d="m62.556 131.02 8.2673 113.45" clip-path="url(#a)"/>
<path d="m62.556 131.02 35.825 113.45" clip-path="url(#a)"/>
<path d="m131.45 244.47v111.9" clip-path="url(#a)"/>
<path d="m215.96 131.02-45.929 113.45" clip-path="url(#a)"/>
<path d="m215.96 131.02-1.8372 113.45" clip-path="url(#a)"/>
<path d="m215.96 131.02 47.767 113.45" clip-path="url(#a)"/>
<path d="m318.84 244.47v111.9" clip-path="url(#a)"/>
<path d="m522.77 131.02-143.3 113.45" clip-path="url(#a)"/>
<path d="m522.77 131.02-77.161 113.45" clip-path="url(#a)"/>
<path d="m522.77 131.02-5.5115 113.45" clip-path="url(#a)"/>
<path d="m522.77 131.02 71.65 113.45" clip-path="url(#a)"/>
<path d="m522.77 131.02 154.32 113.45" clip-path="url(#a)"/>
<path d="m379.47 244.47v111.9" clip-path="url(#a)"/>
<path d="m445.61 244.47v111.9" clip-path="url(#a)"/>
<path d="m517.26 244.47v111.9" clip-path="url(#a)"/>
<path d="m594.42 244.47v111.9" clip-path="url(#a)"/>
<path d="m170.03 244.47v111.9" clip-path="url(#a)"/>
<path d="m214.12 244.47v111.9" clip-path="url(#a)"/>
<path d="m263.73 244.47v111.9" clip-path="url(#a)"/>
<path d="m32.242 244.47v111.9" clip-path="url(#a)"/>
<path d="m48.777 244.47v111.9" clip-path="url(#a)"/>
<path d="m70.823 244.47v111.9" clip-path="url(#a)"/>
<path d="m98.381 244.47v111.9" clip-path="url(#a)"/>
<path d="m677.09 244.47v111.9" clip-path="url(#a)"/>
</g>
<path d="m157.12 80.915 5.142-3.1233q2.0512-1.2459 0.8053-3.2972l-4.0195-6.6174q-1.2459-2.0512-3.2972-0.8053l-5.142 3.1233q-2.0512 1.2459-0.8053 3.2972l4.0195 6.6174q1.2459 2.0512 3.2972 0.8053z" clip-path="url(#a)" fill="#fff" stroke="#fff"/>
<g clip-path="url(#a)">
<g transform="translate(155.01 77.442) rotate(-31.275) scale(.08 -.08)">
<defs>
<path id="o" d="m9.8125 72.906h9.8594v-29.891h35.844v29.891h9.8594v-72.906h-9.8594v34.719h-35.844v-34.719h-9.8594z"/>
</defs>
<use xlink:href="#o"/>
</g>
</g>
<path d="m195.41 135.6 2.0642-3.9507q1.1114-2.1272-1.0157-3.2386l-6.8623-3.5855q-2.1272-1.1114-3.2386 1.0157l-2.0642 3.9507q-1.1114 2.1272 1.0157 3.2386l6.8623 3.5855q2.1272 1.1114 3.2386-1.0157z" clip-path="url(#a)" fill="#fff" stroke="#fff"/>
<g clip-path="url(#a)">
<g transform="translate(191.81 133.72) rotate(-62.413) scale(.08 -.08)">
<defs>
<path id="t" d="m9.8125 72.906h9.8594v-64.609h35.5v-8.2969h-45.359z"/>
</defs>
<use xlink:href="#t"/>
</g>
</g>
<path d="m238.27 78.682 1.7353-5.7606q0.69224-2.298-1.6058-2.9902l-7.4134-2.2332q-2.298-0.69224-2.9902 1.6058l-1.7353 5.7606q-0.69224 2.298 1.6058 2.9902l7.4134 2.2332q2.298 0.69224 2.9902-1.6058z" clip-path="url(#a)" fill="#fff" stroke="#fff"/>
<g clip-path="url(#a)">
<g transform="translate(234.38 77.51) rotate(-73.236) scale(.08 -.08)">
<use xlink:href="#o"/>
</g>
</g>
<path d="m277.93 130.39 1.2856 4.2681q0.6922 2.298 2.9902 1.6058l7.4135-2.2331q2.298-0.6922 1.6058-2.9902l-1.2856-4.2681q-0.6922-2.298-2.9902-1.6058l-7.4135 2.2331q-2.298 0.6922-1.6058 2.9902z" clip-path="url(#a)" fill="#fff" stroke="#fff"/>
<g clip-path="url(#a)">
<g transform="translate(281.82 129.22) rotate(73.237) scale(.08 -.08)">
<use xlink:href="#t"/>
</g>
</g>
<path d="m381.35 78.616 5.5497 2.323q2.2139 0.92671 3.1406-1.2872l2.9896-7.142q0.92671-2.2139-1.2872-3.1406l-5.5497-2.323q-2.2139-0.92671-3.1406 1.2872l-2.9896 7.142q-0.92671 2.2139 1.2872 3.1406z" clip-path="url(#a)" fill="#fff" stroke="#fff"/>
<g clip-path="url(#a)">
<g transform="translate(382.91 74.868) rotate(22.714) scale(.08 -.08)">
<use xlink:href="#o"/>
</g>
</g>
<path d="m52.752 192 1.4127-5.287q0.61953-2.3187-1.6991-2.9382l-7.4801-1.9986q-2.3187-0.61953-2.9382 1.6991l-1.4126 5.287q-0.61953 2.3187 1.6991 2.9382l7.4801 1.9986q2.3187 0.61953 2.9382-1.6991z" clip-path="url(#a)" fill="#fff" stroke="#fff"/>
<g clip-path="url(#a)">
<g transform="translate(48.825 190.96) rotate(-75.04) scale(.08 -.08)">
<defs>
<path id="q" d="m34.188 63.188-13.391-36.281h26.812zm-5.5781 9.7188h11.188l27.781-72.906h-10.25l-6.6406 18.703h-32.859l-6.6406-18.703h-10.406z"/>
</defs>
<use xlink:href="#q"/>
</g>
</g>
<path d="m61.615 190.78 0.55475-4.5677q0.28936-2.3825-2.0931-2.6718l-7.686-0.93347q-2.3825-0.28936-2.6718 2.0931l-0.55475 4.5677q-0.28936 2.3825 2.0931 2.6718l7.686 0.93347q2.3825 0.28936 2.6718-2.0931z" clip-path="url(#a)" fill="#fff" stroke="#fff"/>
<g clip-path="url(#a)">
<g transform="translate(57.58 190.29) rotate(-83.075) scale(.08 -.08)">
<defs>
<path id="p" d="m9.8125 72.906h41.891v-8.3125h-32.031v-21.484h28.906v-8.2969h-28.906v-34.812h-9.8594z"/>
</defs>
<use xlink:href="#p"/>
</g>
</g>
<path d="m60.268 185.9 0.33441 4.5891q0.17443 2.3937 2.5681 2.2192l7.722-0.56271q2.3937-0.17443 2.2192-2.5681l-0.33441-4.5891q-0.17443-2.3937-2.5681-2.2192l-7.722 0.56271q-2.3937 0.17443-2.2192 2.5681z" clip-path="url(#a)" fill="#fff" stroke="#fff"/>
<g clip-path="url(#a)">
<g transform="translate(64.321 185.61) rotate(85.832) scale(.08 -.08)">
<use xlink:href="#p"/>
</g>
</g>
<path d="m73.723 187.21 1.5293 4.843q0.72268 2.2886 3.0113 1.5659l7.3832-2.3314q2.2886-0.72268 1.5659-3.0113l-1.5293-4.843q-0.72268-2.2886-3.0113-1.5659l-7.3832 2.3314q-2.2886 0.72268-1.5659 3.0113z" clip-path="url(#a)" fill="#fff" stroke="#fff"/>
<g clip-path="url(#a)">
<g transform="translate(77.599 185.99) rotate(72.475) scale(.08 -.08)">
<defs>
<path id="s" d="m53.516 70.516v-9.625q-5.6094 2.6875-10.594 4-4.9844 1.3281-9.625 1.3281-8.0469 0-12.422-3.125t-4.375-8.8906q0-4.8438 2.9062-7.3125 2.9062-2.4531 11.016-3.9688l5.9531-1.2188q11.031-2.1094 16.281-7.4062t5.25-14.172q0-10.609-7.1094-16.078-7.0938-5.4688-20.812-5.4688-5.1719 0-11.016 1.1719-5.8281 1.1719-12.078 3.4688v10.156q6-3.3594 11.766-5.0781 5.7656-1.7031 11.328-1.7031 8.4375 0 13.031 3.3125 4.5938 3.3281 4.5938 9.4844 0 5.3594-3.2969 8.3906t-10.812 4.5469l-6.0156 1.1719q-11.031 2.1875-15.969 6.875-4.9219 4.6875-4.9219 13.047 0 9.6719 6.8125 15.234t18.766 5.5625q5.1406 0 10.453-0.9375 5.3281-0.92188 10.891-2.7656z"/>
</defs>
<use xlink:href="#s"/>
</g>
</g>
<path d="m125.18 283.51v33.808q0 2.4 2.4 2.4h7.7425q2.4 0 2.4-2.4v-33.808q0-2.4-2.4-2.4h-7.7425q-2.4 0-2.4 2.4z" clip-path="url(#a)" fill="#fff" stroke="#fff"/>
<g clip-path="url(#a)">
<g transform="translate(129.24 283.51) rotate(90) scale(.08 -.08)">
<defs>
<path id="k" d="m-0.29688 72.906h61.672v-8.3125h-25.875v-64.594h-9.9062v64.594h-25.891z"/>
<path id="f" d="m56.203 29.594v-4.3906h-41.312q0.59375-9.2812 5.5938-14.141t13.938-4.8594q5.1719 0 10.031 1.2656t9.6562 3.8125v-8.5q-4.8438-2.0469-9.9219-3.125t-10.297-1.0781q-13.094 0-20.734 7.6094-7.6406 7.625-7.6406 20.625 0 13.422 7.25 21.297 7.25 7.8906 19.562 7.8906 11.031 0 17.453-7.1094 6.4219-7.0938 6.4219-19.297zm-8.9844 2.6406q-0.09375 7.3594-4.125 11.75-4.0312 4.4062-10.672 4.4062-7.5156 0-12.031-4.25t-5.2031-11.969z"/>
<path id="j" d="m41.109 46.297q-1.5156 0.875-3.2969 1.2812-1.7812 0.42188-3.9219 0.42188-7.625 0-11.703-4.9531t-4.0781-14.234v-28.812h-9.0312v54.688h9.0312v-8.5q2.8438 4.9844 7.375 7.3906 4.5469 2.4219 11.047 2.4219 0.92188 0 2.0469-0.125 1.125-0.10938 2.4844-0.35938z"/>
<path id="l" d="m52 44.188q3.375 6.0625 8.0625 8.9375t11.031 2.875q8.5469 0 13.188-5.9844 4.6406-5.9688 4.6406-17v-33.016h-9.0312v32.719q0 7.8594-2.7969 11.656-2.7812 3.8125-8.4844 3.8125-6.9844 0-11.047-4.6406-4.0469-4.625-4.0469-12.641v-30.906h-9.0312v32.719q0 7.9062-2.7812 11.688t-8.5938 3.7812q-6.8906 0-10.953-4.6562-4.0469-4.6562-4.0469-12.625v-30.906h-9.0312v54.688h9.0312v-8.5q3.0781 5.0312 7.375 7.4219t10.203 2.3906q5.9688 0 10.141-3.0312 4.1719-3.0156 6.1719-8.7812z"/>
<path id="e" d="m9.4219 54.688h8.9844v-54.688h-8.9844zm0 21.297h8.9844v-11.391h-8.9844z"/>
<path id="g" d="m54.891 33.016v-33.016h-8.9844v32.719q0 7.7656-3.0312 11.609-3.0312 3.8594-9.0781 3.8594-7.2812 0-11.484-4.6406-4.2031-4.625-4.2031-12.641v-30.906h-9.0312v54.688h9.0312v-8.5q3.2344 4.9375 7.5938 7.375 4.375 2.4375 10.094 2.4375 9.4219 0 14.25-5.8281 4.8438-5.8281 4.8438-17.156z"/>
<path id="h" d="m34.281 27.484q-10.891 0-15.094-2.4844t-4.2031-8.5q0-4.7812 3.1562-7.5938 3.1562-2.7969 8.5625-2.7969 7.4844 0 12 5.2969t4.5156 14.078v2zm17.922 3.7188v-31.203h-8.9844v8.2969q-3.0781-4.9688-7.6719-7.3438t-11.234-2.375q-8.3906 0-13.359 4.7188-4.9531 4.7188-4.9531 12.625 0 9.2188 6.1719 13.906 6.1875 4.6875 18.438 4.6875h12.609v0.89062q0 6.2031-4.0781 9.5938t-11.453 3.3906q-4.6875 0-9.1406-1.125-4.4375-1.125-8.5312-3.375v8.3125q4.9219 1.9062 9.5625 2.8438 4.6406 0.95312 9.0312 0.95312 11.875 0 17.734-6.1562 5.8594-6.1406 5.8594-18.641z"/>
<path id="i" d="m9.4219 75.984h8.9844v-75.984h-8.9844z"/>
</defs>
<use xlink:href="#k"/>
<use x="44.083984" xlink:href="#f"/>
<use x="105.607422" xlink:href="#j"/>
<use x="144.970703" xlink:href="#l"/>
<use x="242.382812" xlink:href="#e"/>
<use x="270.166016" xlink:href="#g"/>
<use x="333.544922" xlink:href="#h"/>
<use x="394.824219" xlink:href="#i"/>
</g>
</g>
<path d="m197.78 192.63 2.0536-5.0726q0.9006-2.2246-1.324-3.1252l-7.1767-2.9054q-2.2246-0.9006-3.1252 1.324l-2.0536 5.0726q-0.9006 2.2246 1.324 3.1252l7.1767 2.9054q2.2246 0.9006 3.1252-1.324z" clip-path="url(#a)" fill="#fff" stroke="#fff"/>
<g clip-path="url(#a)">
<g transform="translate(194.01 191.11) rotate(-67.96) scale(.08 -.08)">
<use xlink:href="#q"/>
</g>
</g>
<path d="m221.26 190.92 0.099739-6.1592q0.038859-2.3997-2.3608-2.4385l-7.7415-0.12536q-2.3997-0.038859-2.4385 2.3608l-0.099738 6.1592q-0.03886 2.3997 2.3608 2.4385l7.7415 0.12536q2.3997 0.03886 2.4385-2.3608z" clip-path="url(#a)" fill="#fff" stroke="#fff"/>
<g clip-path="url(#a)">
<g transform="translate(217.2 190.86) rotate(-89.072) scale(.08 -.08)">
<defs>
<path id="u" d="m19.672 64.797v-56.688h11.922q15.094 0 22.094 6.8281 7 6.8438 7 21.594 0 14.641-7 21.453t-22.094 6.8125zm-9.8594 8.1094h20.266q21.188 0 31.094-8.8125 9.9219-8.8125 9.9219-27.562 0-18.859-9.9688-27.703-9.9531-8.8281-31.047-8.8281h-20.266z"/>
</defs>
<use xlink:href="#u"/>
</g>
</g>
<path d="m233.13 187.95 1.8718 4.4458q0.93129 2.2119 3.1432 1.2806l7.1358-3.0044q2.2119-0.93129 1.2806-3.1432l-1.8718-4.4458q-0.93129-2.2119-3.1432-1.2806l-7.1358 3.0044q-2.2119 0.93129-1.2806 3.1432z" clip-path="url(#a)" fill="#fff" stroke="#fff"/>
<g clip-path="url(#a)">
<g transform="translate(236.87 186.38) rotate(67.167) scale(.08 -.08)">
<defs>
<path id="ak" d="m19.672 64.797v-27.391h12.406q6.8906 0 10.641 3.5625 3.7656 3.5625 3.7656 10.156 0 6.5469-3.7656 10.109-3.75 3.5625-10.641 3.5625zm-9.8594 8.1094h22.266q12.266 0 18.531-5.5469 6.2812-5.5469 6.2812-16.234 0-10.797-6.2812-16.312-6.2656-5.5156-18.531-5.5156h-12.406v-29.297h-9.8594z"/>
</defs>
<use xlink:href="#ak"/>
</g>
</g>
<path d="m312.57 283.51v33.808q0 2.4 2.4 2.4h7.7425q2.4 0 2.4-2.4v-33.808q0-2.4-2.4-2.4h-7.7425q-2.4 0-2.4 2.4z" clip-path="url(#a)" fill="#fff" stroke="#fff"/>
<g clip-path="url(#a)">
<g transform="translate(316.63 283.51) rotate(90) scale(.08 -.08)">
<use xlink:href="#k"/>
<use x="44.083984" xlink:href="#f"/>
<use x="105.607422" xlink:href="#j"/>
<use x="144.970703" xlink:href="#l"/>
<use x="242.382812" xlink:href="#e"/>
<use x="270.166016" xlink:href="#g"/>
<use x="333.544922" xlink:href="#h"/>
<use x="394.824219" xlink:href="#i"/>
</g>
</g>
<path d="m452.87 194.36 4.2906-3.3969q1.8817-1.4897 0.39193-3.3714l-4.806-6.0703q-1.4897-1.8817-3.3714-0.39193l-4.2906 3.3969q-1.8817 1.4897-0.39193 3.3714l4.806 6.0703q1.4897 1.8817 3.3714 0.39193z" clip-path="url(#a)" fill="#fff" stroke="#fff"/>
<g clip-path="url(#a)">
<g transform="translate(450.34 191.17) rotate(-38.369) scale(.08 -.08)">
<use xlink:href="#q"/>
</g>
</g>
<path d="m488.08 193.17 2.5877-3.8047q1.3497-1.9845-0.6348-3.3342l-6.4021-4.3542q-1.9845-1.3497-3.3342 0.6348l-2.5877 3.8047q-1.3497 1.9845 0.6348 3.3342l6.4021 4.3542q1.9845 1.3497 3.3342-0.6348z" clip-path="url(#a)" fill="#fff" stroke="#fff"/>
<g clip-path="url(#a)">
<g transform="translate(484.72 190.89) rotate(-55.779) scale(.08 -.08)">
<use xlink:href="#p"/>
</g>
</g>
<path d="m526.13 191.12 0.2989-6.1527q0.11646-2.3972-2.2807-2.5136l-7.7334-0.37569q-2.3972-0.11646-2.5136 2.2807l-0.2989 6.1527q-0.11646 2.3972 2.2807 2.5136l7.7334 0.37569q2.3972 0.11646 2.5136-2.2807z" clip-path="url(#a)" fill="#fff" stroke="#fff"/>
<g clip-path="url(#a)">
<g transform="translate(522.07 190.93) rotate(-87.219) scale(.08 -.08)">
<use xlink:href="#u"/>
</g>
</g>
<path d="m551.93 188.94 2.7119 4.2941q1.2815 2.0292 3.3107 0.74767l6.5463-4.1343q2.0292-1.2815 0.74767-3.3107l-2.7119-4.2941q-1.2815-2.0292-3.3107-0.74767l-6.5463 4.1343q-2.0292 1.2815-0.74767 3.3107z" clip-path="url(#a)" fill="#fff" stroke="#fff"/>
<g clip-path="url(#a)">
<g transform="translate(555.37 186.77) rotate(57.726) scale(.08 -.08)">
<use xlink:href="#s"/>
</g>
</g>
<path d="m593.86 191.06 4.7174 3.468q1.9337 1.4216 3.3553-0.51212l4.586-6.2382q1.4216-1.9337-0.51212-3.3553l-4.7174-3.468q-1.9337-1.4216-3.3553 0.51212l-4.586 6.2382q-1.4216 1.9337 0.51212 3.3553z" clip-path="url(#a)" fill="#fff" stroke="#fff"/>
<g clip-path="url(#a)">
<g transform="translate(596.26 187.79) rotate(36.322) scale(.08 -.08)">
<defs>
<path id="aj" d="m8.6875 72.906h9.9219v-44.297q0-11.719 4.2344-16.875 4.25-5.1406 13.781-5.1406 9.4688 0 13.719 5.1406 4.25 5.1562 4.25 16.875v44.297h9.9062v-45.516q0-14.25-7.0625-21.531-7.0469-7.2812-20.812-7.2812-13.828 0-20.891 7.2812-7.0469 7.2812-7.0469 21.531z"/>
</defs>
<use xlink:href="#aj"/>
</g>
</g>
<path d="m373.2 283.51v33.808q0 2.4 2.4 2.4h7.7425q2.4 0 2.4-2.4v-33.808q0-2.4-2.4-2.4h-7.7425q-2.4 0-2.4 2.4z" clip-path="url(#a)" fill="#fff" stroke="#fff"/>
<g clip-path="url(#a)">
<g transform="translate(377.26 283.51) rotate(90) scale(.08 -.08)">
<use xlink:href="#k"/>
<use x="44.083984" xlink:href="#f"/>
<use x="105.607422" xlink:href="#j"/>
<use x="144.970703" xlink:href="#l"/>
<use x="242.382812" xlink:href="#e"/>
<use x="270.166016" xlink:href="#g"/>
<use x="333.544922" xlink:href="#h"/>
<use x="394.824219" xlink:href="#i"/>
</g>
</g>
<path d="m439.34 283.51v33.808q0 2.4 2.4 2.4h7.7425q2.4 0 2.4-2.4v-33.808q0-2.4-2.4-2.4h-7.7425q-2.4 0-2.4 2.4z" clip-path="url(#a)" fill="#fff" stroke="#fff"/>
<g clip-path="url(#a)">
<g transform="translate(443.4 283.51) rotate(90) scale(.08 -.08)">
<use xlink:href="#k"/>
<use x="44.083984" xlink:href="#f"/>
<use x="105.607422" xlink:href="#j"/>
<use x="144.970703" xlink:href="#l"/>
<use x="242.382812" xlink:href="#e"/>
<use x="270.166016" xlink:href="#g"/>
<use x="333.544922" xlink:href="#h"/>
<use x="394.824219" xlink:href="#i"/>
</g>
</g>
<path d="m510.99 283.51v33.808q0 2.4 2.4 2.4h7.7425q2.4 0 2.4-2.4v-33.808q0-2.4-2.4-2.4h-7.7425q-2.4 0-2.4 2.4z" clip-path="url(#a)" fill="#fff" stroke="#fff"/>
<g clip-path="url(#a)">
<g transform="translate(515.05 283.51) rotate(90) scale(.08 -.08)">
<use xlink:href="#k"/>
<use x="44.083984" xlink:href="#f"/>
<use x="105.607422" xlink:href="#j"/>
<use x="144.970703" xlink:href="#l"/>
<use x="242.382812" xlink:href="#e"/>
<use x="270.166016" xlink:href="#g"/>
<use x="333.544922" xlink:href="#h"/>
<use x="394.824219" xlink:href="#i"/>
</g>
</g>
<path d="m588.15 283.51v33.808q0 2.4 2.4 2.4h7.7425q2.4 0 2.4-2.4v-33.808q0-2.4-2.4-2.4h-7.7425q-2.4 0-2.4 2.4z" clip-path="url(#a)" fill="#fff" stroke="#fff"/>
<g clip-path="url(#a)">
<g transform="translate(592.21 283.51) rotate(90) scale(.08 -.08)">
<use xlink:href="#k"/>
<use x="44.083984" xlink:href="#f"/>
<use x="105.607422" xlink:href="#j"/>
<use x="144.970703" xlink:href="#l"/>
<use x="242.382812" xlink:href="#e"/>
<use x="270.166016" xlink:href="#g"/>
<use x="333.544922" xlink:href="#h"/>
<use x="394.824219" xlink:href="#i"/>
</g>
</g>
<path d="m163.76 283.51v33.808q0 2.4 2.4 2.4h7.7425q2.4 0 2.4-2.4v-33.808q0-2.4-2.4-2.4h-7.7425q-2.4 0-2.4 2.4z" clip-path="url(#a)" fill="#fff" stroke="#fff"/>
<g clip-path="url(#a)">
<g transform="translate(167.82 283.51) rotate(90) scale(.08 -.08)">
<use xlink:href="#k"/>
<use x="44.083984" xlink:href="#f"/>
<use x="105.607422" xlink:href="#j"/>
<use x="144.970703" xlink:href="#l"/>
<use x="242.382812" xlink:href="#e"/>
<use x="270.166016" xlink:href="#g"/>
<use x="333.544922" xlink:href="#h"/>
<use x="394.824219" xlink:href="#i"/>
</g>
</g>
<path d="m207.85 283.51v33.808q0 2.4 2.4 2.4h7.7425q2.4 0 2.4-2.4v-33.808q0-2.4-2.4-2.4h-7.7425q-2.4 0-2.4 2.4z" clip-path="url(#a)" fill="#fff" stroke="#fff"/>
<g clip-path="url(#a)">
<g transform="translate(211.92 283.51) rotate(90) scale(.08 -.08)">
<use xlink:href="#k"/>
<use x="44.083984" xlink:href="#f"/>
<use x="105.607422" xlink:href="#j"/>
<use x="144.970703" xlink:href="#l"/>
<use x="242.382812" xlink:href="#e"/>
<use x="270.166016" xlink:href="#g"/>
<use x="333.544922" xlink:href="#h"/>
<use x="394.824219" xlink:href="#i"/>
</g>
</g>
<path d="m257.46 283.51v33.808q0 2.4 2.4 2.4h7.7425q2.4 0 2.4-2.4v-33.808q0-2.4-2.4-2.4h-7.7425q-2.4 0-2.4 2.4z" clip-path="url(#a)" fill="#fff" stroke="#fff"/>
<g clip-path="url(#a)">
<g transform="translate(261.52 283.51) rotate(90) scale(.08 -.08)">
<use xlink:href="#k"/>
<use x="44.083984" xlink:href="#f"/>
<use x="105.607422" xlink:href="#j"/>
<use x="144.970703" xlink:href="#l"/>
<use x="242.382812" xlink:href="#e"/>
<use x="270.166016" xlink:href="#g"/>
<use x="333.544922" xlink:href="#h"/>
<use x="394.824219" xlink:href="#i"/>
</g>
</g>
<path d="m25.971 283.51v33.808q0 2.4 2.4 2.4h7.7425q2.4 0 2.4-2.4v-33.808q0-2.4-2.4-2.4h-7.7425q-2.4 0-2.4 2.4z" clip-path="url(#a)" fill="#fff" stroke="#fff"/>
<g clip-path="url(#a)">
<g transform="translate(30.035 283.51) rotate(90) scale(.08 -.08)">
<use xlink:href="#k"/>
<use x="44.083984" xlink:href="#f"/>
<use x="105.607422" xlink:href="#j"/>
<use x="144.970703" xlink:href="#l"/>
<use x="242.382812" xlink:href="#e"/>
<use x="270.166016" xlink:href="#g"/>
<use x="333.544922" xlink:href="#h"/>
<use x="394.824219" xlink:href="#i"/>
</g>
</g>
<path d="m42.506 283.51v33.808q0 2.4 2.4 2.4h7.7425q2.4 0 2.4-2.4v-33.808q0-2.4-2.4-2.4h-7.7425q-2.4 0-2.4 2.4z" clip-path="url(#a)" fill="#fff" stroke="#fff"/>
<g clip-path="url(#a)">
<g transform="translate(46.57 283.51) rotate(90) scale(.08 -.08)">
<use xlink:href="#k"/>
<use x="44.083984" xlink:href="#f"/>
<use x="105.607422" xlink:href="#j"/>
<use x="144.970703" xlink:href="#l"/>
<use x="242.382812" xlink:href="#e"/>
<use x="270.166016" xlink:href="#g"/>
<use x="333.544922" xlink:href="#h"/>
<use x="394.824219" xlink:href="#i"/>
</g>
</g>
<path d="m64.552 283.51v33.808q0 2.4 2.4 2.4h7.7425q2.4 0 2.4-2.4v-33.808q0-2.4-2.4-2.4h-7.7425q-2.4 0-2.4 2.4z" clip-path="url(#a)" fill="#fff" stroke="#fff"/>
<g clip-path="url(#a)">
<g transform="translate(68.616 283.51) rotate(90) scale(.08 -.08)">
<use xlink:href="#k"/>
<use x="44.083984" xlink:href="#f"/>
<use x="105.607422" xlink:href="#j"/>
<use x="144.970703" xlink:href="#l"/>
<use x="242.382812" xlink:href="#e"/>
<use x="270.166016" xlink:href="#g"/>
<use x="333.544922" xlink:href="#h"/>
<use x="394.824219" xlink:href="#i"/>
</g>
</g>
<path d="m92.109 283.51v33.808q0 2.4 2.4 2.4h7.7425q2.4 0 2.4-2.4v-33.808q0-2.4-2.4-2.4h-7.7425q-2.4 0-2.4 2.4z" clip-path="url(#a)" fill="#fff" stroke="#fff"/>
<g clip-path="url(#a)">
<g transform="translate(96.173 283.51) rotate(90) scale(.08 -.08)">
<use xlink:href="#k"/>
<use x="44.083984" xlink:href="#f"/>
<use x="105.607422" xlink:href="#j"/>
<use x="144.970703" xlink:href="#l"/>
<use x="242.382812" xlink:href="#e"/>
<use x="270.166016" xlink:href="#g"/>
<use x="333.544922" xlink:href="#h"/>
<use x="394.824219" xlink:href="#i"/>
</g>
</g>
<path d="m670.82 283.51v33.808q0 2.4 2.4 2.4h7.7425q2.4 0 2.4-2.4v-33.808q0-2.4-2.4-2.4h-7.7425q-2.4 0-2.4 2.4z" clip-path="url(#a)" fill="#fff" stroke="#fff"/>
<g clip-path="url(#a)">
<g transform="translate(674.88 283.51) rotate(90) scale(.08 -.08)">
<use xlink:href="#k"/>
<use x="44.083984" xlink:href="#f"/>
<use x="105.607422" xlink:href="#j"/>
<use x="144.970703" xlink:href="#l"/>
<use x="242.382812" xlink:href="#e"/>
<use x="270.166016" xlink:href="#g"/>
<use x="333.544922" xlink:href="#h"/>
<use x="394.824219" xlink:href="#i"/>
</g>
</g>
<defs>
<path id="b" d="m0 8.6603c2.2967 0 4.4997-0.9125 6.1237-2.5365 1.624-1.624 2.5365-3.827 2.5365-6.1237s-0.9125-4.4997-2.5365-6.1237c-1.624-1.624-3.827-2.5365-6.1237-2.5365s-4.4997 0.9125-6.1237 2.5365c-1.624 1.624-2.5365 3.827-2.5365 6.1237s0.9125 4.4997 2.5365 6.1237c1.624 1.624 3.827 2.5365 6.1237 2.5365z"/>
</defs>
<g clip-path="url(#a)" fill="#ffffff" stroke="#ffffff">
<use x="32.242424" y="356.363636" xlink:href="#b"/>
<use x="48.777001" y="356.363636" xlink:href="#b"/>
<use x="70.823103" y="356.363636" xlink:href="#b"/>
<use x="98.38073" y="356.363636" xlink:href="#b"/>
<use x="131.449883" y="356.363636" xlink:href="#b"/>
<use x="170.030562" y="356.363636" xlink:href="#b"/>
<use x="214.122766" y="356.363636" xlink:href="#b"/>
<use x="263.726496" y="356.363636" xlink:href="#b"/>
<use x="318.841751" y="356.363636" xlink:href="#b"/>
<use x="379.468531" y="356.363636" xlink:href="#b"/>
<use x="445.606838" y="356.363636" xlink:href="#b"/>
<use x="517.256669" y="356.363636" xlink:href="#b"/>
<use x="594.418026" y="356.363636" xlink:href="#b"/>
<use x="677.090909" y="356.363636" xlink:href="#b"/>
<use x="250.315117" y="16.969697" xlink:href="#b"/>
<use x="62.555815" y="131.016569" xlink:href="#b"/>
<use x="131.449883" y="244.468395" xlink:href="#b"/>
<use x="215.959941" y="131.016569" xlink:href="#b"/>
<use x="318.841751" y="244.468395" xlink:href="#b"/>
<use x="522.768195" y="131.016569" xlink:href="#b"/>
<use x="379.468531" y="244.468395" xlink:href="#b"/>
<use x="445.606838" y="244.468395" xlink:href="#b"/>
<use x="517.256669" y="244.468395" xlink:href="#b"/>
<use x="594.418026" y="244.468395" xlink:href="#b"/>
<use x="170.030562" y="244.468395" xlink:href="#b"/>
<use x="214.122766" y="244.468395" xlink:href="#b"/>
<use x="263.726496" y="244.468395" xlink:href="#b"/>
<use x="32.242424" y="244.468395" xlink:href="#b"/>
<use x="48.777001" y="244.468395" xlink:href="#b"/>
<use x="70.823103" y="244.468395" xlink:href="#b"/>
<use x="98.38073" y="244.468395" xlink:href="#b"/>
<use x="677.090909" y="244.468395" xlink:href="#b"/>
</g>
<g clip-path="url(#a)">
<g transform="translate(30.767 359.12) scale(.1 -.1)">
<defs>
<path id="al" d="m9.8125 72.906h9.8594v-72.906h-9.8594z"/>
</defs>
<use xlink:href="#al"/>
</g>
</g>
<g clip-path="url(#a)">
<g transform="translate(40.521 359.12) scale(.1 -.1)">
<defs>
<path id="ad" d="m4.2031 54.688h8.9844l11.234-42.672 11.172 42.672h10.594l11.234-42.672 11.188 42.672h8.9844l-14.312-54.688h-10.594l-11.766 44.828-11.812-44.828h-10.609z"/>
</defs>
<use xlink:href="#ad"/>
<use x="81.787109" xlink:href="#e"/>
<use x="109.570312" xlink:href="#i"/>
<use x="137.353516" xlink:href="#i"/>
</g>
</g>
<g clip-path="url(#a)">
<g transform="translate(64.572 359.12) scale(.1 -.1)">
<defs>
<path id="ai" d="m48.688 27.297q0 9.9062-4.0781 15.547t-11.203 5.6406q-7.1406 0-11.219-5.6406t-4.0781-15.547 4.0781-15.547 11.219-5.6406q7.125 0 11.203 5.6406t4.0781 15.547zm-30.578 19.094q2.8438 4.875 7.1562 7.2344 4.3281 2.375 10.328 2.375 9.9688 0 16.188-7.9062 6.2344-7.9062 6.2344-20.797t-6.2344-20.812q-6.2188-7.9062-16.188-7.9062-6 0-10.328 2.375-4.3125 2.375-7.1562 7.25v-8.2031h-9.0312v75.984h9.0312z"/>
</defs>
<use xlink:href="#ai"/>
<use x="63.476562" xlink:href="#f"/>
</g>
</g>
<g clip-path="url(#a)">
<g transform="translate(82.84 359.12) scale(.1 -.1)">
<defs>
<path id="n" d="m54.891 33.016v-33.016h-8.9844v32.719q0 7.7656-3.0312 11.609-3.0312 3.8594-9.0781 3.8594-7.2812 0-11.484-4.6406-4.2031-4.625-4.2031-12.641v-30.906h-9.0312v75.984h9.0312v-29.797q3.2344 4.9375 7.5938 7.375 4.375 2.4375 10.094 2.4375 9.4219 0 14.25-5.8281 4.8438-5.8281 4.8438-17.156z"/>
<path id="m" d="m18.109 8.2031v-29h-9.0312v75.484h9.0312v-8.2969q2.8438 4.875 7.1562 7.2344 4.3281 2.375 10.328 2.375 9.9688 0 16.188-7.9062 6.2344-7.9062 6.2344-20.797t-6.2344-20.812q-6.2188-7.9062-16.188-7.9062-6 0-10.328 2.375-4.3125 2.375-7.1562 7.25zm30.578 19.094q0 9.9062-4.0781 15.547t-11.203 5.6406q-7.1406 0-11.219-5.6406t-4.0781-15.547 4.0781-15.547 11.219-5.6406q7.125 0 11.203 5.6406t4.0781 15.547z"/>
<path id="ac" d="m32.172-5.0781q-3.7969-9.7656-7.4219-12.734-3.6094-2.9844-9.6562-2.9844h-7.1875v7.5156h5.2812q3.7031 0 5.75 1.7656 2.0625 1.75 4.5469 8.2969l1.6094 4.0938-22.109 53.812h9.5156l17.094-42.766 17.094 42.766h9.5156z"/>
</defs>
<use xlink:href="#n"/>
<use x="63.378906" xlink:href="#h"/>
<use x="124.658203" xlink:href="#m"/>
<use x="188.134766" xlink:href="#m"/>
<use x="251.611328" xlink:href="#ac"/>
</g>
</g>
<g clip-path="url(#a)">
<g transform="translate(128.3 359.12) scale(.1 -.1)">
<defs>
<path id="ag" d="m37.109 75.984v-7.4844h-8.5938q-4.8281 0-6.7188-1.9531-1.875-1.9531-1.875-7.0312v-4.8281h14.797v-6.9844h-14.797v-47.703h-9.0312v47.703h-8.5938v6.9844h8.5938v3.8125q0 9.125 4.25 13.297 4.25 4.1875 13.469 4.1875z"/>
</defs>
<use xlink:href="#e"/>
<use x="27.783203" xlink:href="#ag"/>
</g>
</g>
<g clip-path="url(#a)">
<g transform="translate(158.87 359.12) scale(.1 -.1)">
<defs>
<path id="ae" d="m18.312 70.219v-15.531h18.5v-6.9844h-18.5v-29.688q0-6.6875 1.8281-8.5938t7.4531-1.9062h9.2188v-7.5156h-9.2188q-10.406 0-14.359 3.875-3.9531 3.8906-3.9531 14.141v29.688h-6.5938v6.9844h6.5938v15.531z"/>
</defs>
<use xlink:href="#ae"/>
<use x="39.208984" xlink:href="#n"/>
<use x="102.587891" xlink:href="#f"/>
<use x="164.111328" xlink:href="#ac"/>
</g>
</g>
<g clip-path="url(#a)">
<g transform="translate(205.14 359.12) scale(.1 -.1)">
<defs>
<path id="ah" d="m48.781 52.594v-8.4062q-3.8125 2.1094-7.6406 3.1562t-7.7344 1.0469q-8.75 0-13.594-5.5469-4.8281-5.5312-4.8281-15.547t4.8281-15.562q4.8438-5.5312 13.594-5.5312 3.9062 0 7.7344 1.0469t7.6406 3.1562v-8.3125q-3.7656-1.75-7.7969-2.625-4.0156-0.89062-8.5625-0.89062-12.359 0-19.641 7.7656-7.2656 7.7656-7.2656 20.953 0 13.375 7.3438 21.031 7.3594 7.6719 20.156 7.6719 4.1406 0 8.0938-0.85938 3.9531-0.84375 7.6719-2.5469z"/>
</defs>
<use xlink:href="#ah"/>
<use x="54.980469" xlink:href="#h"/>
<use x="116.259766" xlink:href="#g"/>
</g>
</g>
<g clip-path="url(#a)">
<g transform="translate(249.95 359.12) scale(.1 -.1)">
<defs>
<path id="af" d="m44.281 53.078v-8.5q-3.7969 1.9531-7.9062 2.9219-4.0938 0.98438-8.5 0.98438-6.6875 0-10.031-2.0469t-3.3438-6.1562q0-3.125 2.3906-4.9062t9.625-3.3906l3.0781-0.6875q9.5625-2.0469 13.594-5.7812t4.0312-10.422q0-7.625-6.0312-12.078-6.0312-4.4375-16.578-4.4375-4.3906 0-9.1562 0.85938t-10.031 2.5625v9.2812q4.9844-2.5938 9.8125-3.8906 4.8281-1.2812 9.5781-1.2812 6.3438 0 9.75 2.1719 3.4219 2.1719 3.4219 6.125 0 3.6562-2.4688 5.6094-2.4531 1.9531-10.812 3.7656l-3.125 0.73438q-8.3438 1.75-12.062 5.3906-3.7031 3.6406-3.7031 9.9844 0 7.7188 5.4688 11.906 5.4688 4.2031 15.531 4.2031 4.9688 0 9.3594-0.73438 4.4062-0.71875 8.1094-2.1875z"/>
<path id="ao" d="m2.9844 54.688h9.5156l17.094-45.891 17.094 45.891h9.5156l-20.516-54.688h-12.203z"/>
</defs>
<use xlink:href="#af"/>
<use x="52.099609" xlink:href="#f"/>
<use x="113.623047" xlink:href="#j"/>
<use x="154.736328" xlink:href="#ao"/>
<use x="213.916016" xlink:href="#f"/>
</g>
</g>
<g clip-path="url(#a)">
<g transform="translate(305.34 359.12) scale(.1 -.1)">
<use xlink:href="#ad"/>
<use x="81.787109" xlink:href="#n"/>
<use x="145.166016" xlink:href="#f"/>
<use x="206.689453" xlink:href="#g"/>
</g>
</g>
<g clip-path="url(#a)">
<g transform="translate(368.42 359.12) scale(.1 -.1)">
<defs>
<path id="r" d="m30.609 48.391q-7.2188 0-11.422-5.6406t-4.2031-15.453 4.1719-15.453q4.1875-5.6406 11.453-5.6406 7.1875 0 11.375 5.6562 4.2031 5.6719 4.2031 15.438 0 9.7188-4.2031 15.406-4.1875 5.6875-11.375 5.6875zm0 7.6094q11.719 0 18.406-7.625 6.7031-7.6094 6.7031-21.078 0-13.422-6.7031-21.078-6.6875-7.6406-18.406-7.6406-11.766 0-18.438 7.6406-6.6562 7.6562-6.6562 21.078 0 13.469 6.6562 21.078 6.6719 7.625 18.438 7.625z"/>
<path id="aq" d="m45.406 46.391v29.594h8.9844v-75.984h-8.9844v8.2031q-2.8281-4.875-7.1562-7.25-4.3125-2.375-10.375-2.375-9.9062 0-16.141 7.9062-6.2188 7.9219-6.2188 20.812t6.2188 20.797q6.2344 7.9062 16.141 7.9062 6.0625 0 10.375-2.375 4.3281-2.3594 7.1562-7.2344zm-30.609-19.094q0-9.9062 4.0781-15.547t11.203-5.6406 11.219 5.6406q4.1094 5.6406 4.1094 15.547t-4.1094 15.547q-4.0938 5.6406-11.219 5.6406t-11.203-5.6406-4.0781-15.547z"/>
</defs>
<use xlink:href="#ag"/>
<use x="35.205078" xlink:href="#r"/>
<use x="96.386719" xlink:href="#r"/>
<use x="157.568359" xlink:href="#aq"/>
</g>
</g>
<g clip-path="url(#a)">
<g transform="translate(441.61 359.12) scale(.1 -.1)">
<use xlink:href="#e"/>
<use x="27.783203" xlink:href="#af"/>
</g>
</g>
<g clip-path="url(#a)">
<g transform="translate(501.79 359.12) scale(.1 -.1)">
<defs>
<path id="ap" d="m45.406 27.984q0 9.7656-4.0312 15.125-4.0156 5.375-11.297 5.375-7.2188 0-11.25-5.375-4.0312-5.3594-4.0312-15.125 0-9.7188 4.0312-15.094t11.25-5.375q7.2812 0 11.297 5.375 4.0312 5.375 4.0312 15.094zm8.9844-21.203q0-13.953-6.2031-20.766-6.1875-6.8125-18.984-6.8125-4.7344 0-8.9375 0.70312t-8.1562 2.1719v8.7344q3.9531-2.1406 7.8125-3.1562 3.8594-1.0312 7.8594-1.0312 8.8438 0 13.234 4.6094t4.3906 13.938v4.4531q-2.7812-4.8438-7.125-7.2344t-10.406-2.3906q-10.047 0-16.203 7.6562-6.1562 7.6719-6.1562 20.328 0 12.688 6.1562 20.344 6.1562 7.6719 16.203 7.6719 6.0625 0 10.406-2.3906t7.125-7.2188v8.2969h8.9844z"/>
</defs>
<use xlink:href="#m"/>
<use x="63.476562" xlink:href="#e"/>
<use x="91.259766" xlink:href="#m"/>
<use x="154.736328" xlink:href="#e"/>
<use x="182.519531" xlink:href="#g"/>
<use x="245.898438" xlink:href="#ap"/>
</g>
</g>
<g clip-path="url(#a)">
<g transform="translate(586.23 359.12) scale(.1 -.1)">
<use xlink:href="#n"/>
<use x="63.378906" xlink:href="#r"/>
<use x="124.560547" xlink:href="#ae"/>
</g>
</g>
<g clip-path="url(#a)">
<g transform="translate(675.5 359.12) scale(.1 -.1)">
<defs>
<path id="d" d="m10.688 12.406h10.312v-12.406h-10.312z"/>
</defs>
<use xlink:href="#d"/>
</g>
</g>
<g clip-path="url(#a)">
<g transform="translate(242.36 19.729) scale(.1 -.1)">
<defs>
<path id="c" d="m12.406 8.2969h16.109v55.625l-17.531-3.5156v8.9844l17.438 3.5156h9.8594v-64.609h16.109v-8.2969h-41.984z"/>
</defs>
<use xlink:href="#c"/>
<use x="63.623047" xlink:href="#d"/>
<use x="95.410156" xlink:href="#c"/>
</g>
</g>
<g clip-path="url(#a)">
<g transform="translate(54.604 133.78) scale(.1 -.1)">
<defs>
<path id="ab" d="m19.188 8.2969h34.422v-8.2969h-46.281v8.2969q5.6094 5.8125 15.297 15.594 9.7031 9.7969 12.188 12.641 4.7344 5.3125 6.6094 9 1.8906 3.6875 1.8906 7.25 0 5.8125-4.0781 9.4688-4.0781 3.6719-10.625 3.6719-4.6406 0-9.7969-1.6094-5.1406-1.6094-11-4.8906v9.9688q5.9531 2.3906 11.125 3.6094 5.1875 1.2188 9.4844 1.2188 11.328 0 18.062-5.6719 6.7344-5.6562 6.7344-15.125 0-4.5-1.6875-8.5312-1.6719-4.0156-6.125-9.4844-1.2188-1.4219-7.7656-8.1875-6.5312-6.7656-18.453-18.922z"/>
</defs>
<use xlink:href="#c"/>
<use x="63.623047" xlink:href="#d"/>
<use x="95.410156" xlink:href="#ab"/>
</g>
</g>
<g clip-path="url(#a)">
<g transform="translate(123.5 247.23) scale(.1 -.1)">
<defs>
<path id="aa" d="m40.578 39.312q7.0781-1.5156 11.047-6.3125 3.9844-4.7812 3.9844-11.812 0-10.781-7.4219-16.703-7.4219-5.9062-21.094-5.9062-4.5781 0-9.4375 0.90625t-10.031 2.7188v9.5156q4.0938-2.3906 8.9688-3.6094 4.8906-1.2188 10.219-1.2188 9.2656 0 14.125 3.6562t4.8594 10.641q0 6.4531-4.5156 10.078-4.5156 3.6406-12.562 3.6406h-8.5v8.1094h8.8906q7.2656 0 11.125 2.9062t3.8594 8.375q0 5.6094-3.9844 8.6094-3.9688 3.0156-11.391 3.0156-4.0625 0-8.7031-0.89062-4.6406-0.875-10.203-2.7188v8.7812q5.625 1.5625 10.531 2.3438t9.25 0.78125q11.234 0 17.766-5.1094 6.5469-5.0938 6.5469-13.781 0-6.0625-3.4688-10.234t-9.8594-5.7812z"/>
</defs>
<use xlink:href="#c"/>
<use x="63.623047" xlink:href="#d"/>
<use x="95.410156" xlink:href="#aa"/>
</g>
</g>
<g clip-path="url(#a)">
<g transform="translate(208.01 133.78) scale(.1 -.1)">
<defs>
<path id="z" d="m37.797 64.312-24.906-38.922h24.906zm-2.5938 8.5938h12.406v-47.516h10.406v-8.2031h-10.406v-17.188h-9.8125v17.188h-32.906v9.5156z"/>
</defs>
<use xlink:href="#c"/>
<use x="63.623047" xlink:href="#d"/>
<use x="95.410156" xlink:href="#z"/>
</g>
</g>
<g clip-path="url(#a)">
<g transform="translate(310.89 247.23) scale(.1 -.1)">
<defs>
<path id="y" d="m10.797 72.906h38.719v-8.3125h-29.688v-17.859q2.1406 0.73438 4.2812 1.0938 2.1562 0.35938 4.3125 0.35938 12.203 0 19.328-6.6875 7.1406-6.6875 7.1406-18.109 0-11.766-7.3281-18.297-7.3281-6.5156-20.656-6.5156-4.5938 0-9.3594 0.78125-4.75 0.78125-9.8281 2.3438v9.9219q4.3906-2.3906 9.0781-3.5625t9.9062-1.1719q8.4531 0 13.375 4.4375 4.9375 4.4375 4.9375 12.062 0 7.6094-4.9375 12.047-4.9219 4.4531-13.375 4.4531-3.9531 0-7.8906-0.875-3.9219-0.875-8.0156-2.7344z"/>
</defs>
<use xlink:href="#c"/>
<use x="63.623047" xlink:href="#d"/>
<use x="95.410156" xlink:href="#y"/>
</g>
</g>
<g clip-path="url(#a)">
<g transform="translate(514.82 133.78) scale(.1 -.1)">
<defs>
<path id="x" d="m33.016 40.375q-6.6406 0-10.531-4.5469-3.875-4.5312-3.875-12.438 0-7.8594 3.875-12.438 3.8906-4.5625 10.531-4.5625t10.516 4.5625q3.875 4.5781 3.875 12.438 0 7.9062-3.875 12.438-3.875 4.5469-10.516 4.5469zm19.578 30.922v-8.9844q-3.7188 1.75-7.5 2.6719-3.7812 0.9375-7.5 0.9375-9.7656 0-14.922-6.5938-5.1406-6.5938-5.875-19.922 2.875 4.25 7.2188 6.5156 4.3594 2.2656 9.5781 2.2656 10.984 0 17.359-6.6719 6.375-6.6562 6.375-18.125 0-11.234-6.6406-18.031-6.6406-6.7812-17.672-6.7812-12.656 0-19.344 9.6875-6.6875 9.7031-6.6875 28.109 0 17.281 8.2031 27.562t22.016 10.281q3.7188 0 7.5-0.73438t7.8906-2.1875z"/>
</defs>
<use xlink:href="#c"/>
<use x="63.623047" xlink:href="#d"/>
<use x="95.410156" xlink:href="#x"/>
</g>
</g>
<g clip-path="url(#a)">
<g transform="translate(371.52 247.23) scale(.1 -.1)">
<defs>
<path id="w" d="m31.781 34.625q-7.0312 0-11.062-3.7656-4.0156-3.7656-4.0156-10.344 0-6.5938 4.0156-10.359 4.0312-3.7656 11.062-3.7656t11.078 3.7812q4.0625 3.7969 4.0625 10.344 0 6.5781-4.0312 10.344-4.0156 3.7656-11.109 3.7656zm-9.8594 4.1875q-6.3438 1.5625-9.8906 5.9062-3.5312 4.3594-3.5312 10.609 0 8.7344 6.2188 13.812 6.2344 5.0781 17.062 5.0781 10.891 0 17.094-5.0781t6.2031-13.812q0-6.25-3.5469-10.609-3.5312-4.3438-9.8281-5.9062 7.125-1.6562 11.094-6.5 3.9844-4.8281 3.9844-11.797 0-10.609-6.4688-16.281-6.4688-5.6562-18.531-5.6562-12.047 0-18.531 5.6562-6.4688 5.6719-6.4688 16.281 0 6.9688 4 11.797 4.0156 4.8438 11.141 6.5zm-3.6094 15.578q0-5.6562 3.5312-8.8281 3.5469-3.1719 9.9375-3.1719 6.3594 0 9.9375 3.1719 3.5938 3.1719 3.5938 8.8281 0 5.6719-3.5938 8.8438-3.5781 3.1719-9.9375 3.1719-6.3906 0-9.9375-3.1719-3.5312-3.1719-3.5312-8.8438z"/>
</defs>
<use xlink:href="#c"/>
<use x="63.623047" xlink:href="#d"/>
<use x="95.410156" xlink:href="#w"/>
</g>
</g>
<g clip-path="url(#a)">
<g transform="translate(437.66 247.23) scale(.1 -.1)">
<defs>
<path id="v" d="m10.984 1.5156v8.9844q3.7188-1.7656 7.5156-2.6875 3.8125-0.92188 7.4844-0.92188 9.7656 0 14.906 6.5625 5.1562 6.5625 5.8906 19.953-2.8281-4.2031-7.1875-6.4531-4.3438-2.25-9.6094-2.25-10.938 0-17.312 6.6094-6.375 6.625-6.375 18.109 0 11.219 6.6406 18 6.6406 6.7969 17.672 6.7969 12.656 0 19.312-9.7031 6.6719-9.6875 6.6719-28.141 0-17.234-8.1875-27.516-8.1719-10.281-21.984-10.281-3.7188 0-7.5312 0.73438-3.7969 0.73438-7.9062 2.2031zm19.625 30.906q6.6406 0 10.516 4.5312 3.8906 4.5469 3.8906 12.469 0 7.8594-3.8906 12.422-3.875 4.5625-10.516 4.5625t-10.516-4.5625-3.875-12.422q0-7.9219 3.875-12.469 3.875-4.5312 10.516-4.5312z"/>
</defs>
<use xlink:href="#c"/>
<use x="63.623047" xlink:href="#d"/>
<use x="95.410156" xlink:href="#v"/>
</g>
</g>
<g clip-path="url(#a)">
<g transform="translate(506.12 247.23) scale(.1 -.1)">
<defs>
<path id="an" d="m31.781 66.406q-7.6094 0-11.453-7.5-3.8281-7.4844-3.8281-22.531 0-14.984 3.8281-22.484 3.8438-7.5 11.453-7.5 7.6719 0 11.5 7.5 3.8438 7.5 3.8438 22.484 0 15.047-3.8438 22.531-3.8281 7.5-11.5 7.5zm0 7.8125q12.266 0 18.734-9.7031 6.4688-9.6875 6.4688-28.141 0-18.406-6.4688-28.109-6.4688-9.6875-18.734-9.6875-12.25 0-18.719 9.6875-6.4688 9.7031-6.4688 28.109 0 18.453 6.4688 28.141 6.4688 9.7031 18.719 9.7031z"/>
</defs>
<use xlink:href="#c"/>
<use x="63.623047" xlink:href="#d"/>
<use x="95.410156" xlink:href="#c"/>
<use x="159.033203" xlink:href="#an"/>
</g>
</g>
<g clip-path="url(#a)">
<g transform="translate(583.29 247.23) scale(.1 -.1)">
<use xlink:href="#c"/>
<use x="63.623047" xlink:href="#d"/>
<use x="95.410156" xlink:href="#c"/>
<use x="159.033203" xlink:href="#c"/>
</g>
</g>
<g clip-path="url(#a)">
<g transform="translate(158.9 247.23) scale(.1 -.1)">
<use xlink:href="#c"/>
<use x="63.623047" xlink:href="#d"/>
<use x="95.410156" xlink:href="#c"/>
<use x="159.033203" xlink:href="#ab"/>
</g>
</g>
<g clip-path="url(#a)">
<g transform="translate(202.99 247.23) scale(.1 -.1)">
<use xlink:href="#c"/>
<use x="63.623047" xlink:href="#d"/>
<use x="95.410156" xlink:href="#c"/>
<use x="159.033203" xlink:href="#aa"/>
</g>
</g>
<g clip-path="url(#a)">
<g transform="translate(252.59 247.23) scale(.1 -.1)">
<use xlink:href="#c"/>
<use x="63.623047" xlink:href="#d"/>
<use x="95.410156" xlink:href="#c"/>
<use x="159.033203" xlink:href="#z"/>
</g>
</g>
<g clip-path="url(#a)">
<g transform="translate(21.11 247.23) scale(.1 -.1)">
<use xlink:href="#c"/>
<use x="63.623047" xlink:href="#d"/>
<use x="95.410156" xlink:href="#c"/>
<use x="159.033203" xlink:href="#y"/>
</g>
</g>
<g clip-path="url(#a)">
<g transform="translate(37.644 247.23) scale(.1 -.1)">
<use xlink:href="#c"/>
<use x="63.623047" xlink:href="#d"/>
<use x="95.410156" xlink:href="#c"/>
<use x="159.033203" xlink:href="#x"/>
</g>
</g>
<g clip-path="url(#a)">
<g transform="translate(59.69 247.23) scale(.1 -.1)">
<defs>
<path id="am" d="m8.2031 72.906h46.875v-4.2031l-26.469-68.703h-10.297l24.906 64.594h-35.016z"/>
</defs>
<use xlink:href="#c"/>
<use x="63.623047" xlink:href="#d"/>
<use x="95.410156" xlink:href="#c"/>
<use x="159.033203" xlink:href="#am"/>
</g>
</g>
<g clip-path="url(#a)">
<g transform="translate(87.248 247.23) scale(.1 -.1)">
<use xlink:href="#c"/>
<use x="63.623047" xlink:href="#d"/>
<use x="95.410156" xlink:href="#c"/>
<use x="159.033203" xlink:href="#w"/>
</g>
</g>
<g clip-path="url(#a)">
<g transform="translate(665.96 247.23) scale(.1 -.1)">
<use xlink:href="#c"/>
<use x="63.623047" xlink:href="#d"/>
<use x="95.410156" xlink:href="#c"/>
<use x="159.033203" xlink:href="#v"/>
</g>
</g>
<defs>
<clipPath id="a">
<rect width="709.33" height="373.33"/>
</clipPath>
</defs>
</svg>
