<?xml version="1.0" encoding="UTF-8"?>
<!DOCTYPE svg  PUBLIC '-//W3C//DTD SVG 1.1//EN'  'http://www.w3.org/Graphics/SVG/1.1/DTD/svg11.dtd'>
<svg width="709.33pt" height="373.33pt" version="1.1" viewBox="0 0 709.33 373.33" xmlns="http://www.w3.org/2000/svg" xmlns:xlink="http://www.w3.org/1999/xlink">
<defs>
<style type="text/css">*{stroke-linecap:butt;stroke-linejoin:round;}</style>
</defs>
<path d="m0 373.33h709.33v-373.33h-709.33z" fill="#fff"/>
<g fill="none" stroke="#000">
<path d="m400.53 18.073-205.49 69.823" clip-path="url(#a)"/>
<path d="m400.53 18.073 28.438 271.13" clip-path="url(#a)"/>
<path d="m400.53 18.073 177.05 205.07" clip-path="url(#a)"/>
<path d="m195.05 87.896-96.321 68.268" clip-path="url(#a)"/>
<path d="m195.05 87.896-13.76 201.3" clip-path="url(#a)"/>
<path d="m195.05 87.896 110.08 201.3" clip-path="url(#a)"/>
<path d="m428.97 289.2v66.059" clip-path="url(#a)"/>
<path d="m577.58 223.14-99.073 66.059" clip-path="url(#a)"/>
<path d="m577.58 223.14-49.537 66.059" clip-path="url(#a)"/>
<path d="m577.58 223.14v66.059" clip-path="url(#a)"/>
<path d="m577.58 223.14 49.537 66.059" clip-path="url(#a)"/>
<path d="m577.58 223.14 99.073 66.059" clip-path="url(#a)"/>
<path d="m478.51 289.2v66.059" clip-path="url(#a)"/>
<path d="m528.05 289.2v66.059" clip-path="url(#a)"/>
<path d="m577.58 289.2v66.059" clip-path="url(#a)"/>
<path d="m627.12 289.2v66.059" clip-path="url(#a)"/>
<path d="m98.727 156.16-16.512 66.978" clip-path="url(#a)"/>
<path d="m98.727 156.16-16.512 133.04" clip-path="url(#a)"/>
<path d="m98.727 156.16 33.024 133.04" clip-path="url(#a)"/>
<path d="m181.29 289.2v66.059" clip-path="url(#a)"/>
<path d="m305.13 289.2-74.305 66.059" clip-path="url(#a)"/>
<path d="m305.13 289.2-24.768 66.059" clip-path="url(#a)"/>
<path d="m305.13 289.2 24.768 66.059" clip-path="url(#a)"/>
<path d="m305.13 289.2 74.305 66.059" clip-path="url(#a)"/>
<path d="m82.215 223.14 49.537 66.059" clip-path="url(#a)" stroke-dasharray="3.7,1.6"/>
<path d="m82.215 223.14-49.537 66.059" clip-path="url(#a)"/>
<path d="m82.215 289.2v66.059" clip-path="url(#a)"/>
<path d="m131.75 289.2v66.059" clip-path="url(#a)"/>
<path d="m32.678 289.2v66.059" clip-path="url(#a)"/>
<path d="m676.66 289.2v66.059" clip-path="url(#a)"/>
</g>
<path d="m296.96 59.89 5.6964-1.9356q2.2724-0.77215 1.5002-3.0445l-2.491-7.3308q-0.77215-2.2724-3.0445-1.5002l-5.6964 1.9356q-2.2724 0.77215-1.5002 3.0445l2.491 7.3308q0.77215 2.2724 3.0445 1.5002z" clip-path="url(#a)" fill="#fff" stroke="#fff"/>
<g clip-path="url(#a)">
<defs>
<path id="q" d="m9.8125 72.906h9.8594v-29.891h35.844v29.891h9.8594v-72.906h-9.8594v34.719h-35.844v-34.719h-9.8594z"/>
</defs>
<g transform="translate(295.65 56.043) rotate(-18.768) scale(.08 -.08)">
<use xlink:href="#q"/>
</g>
</g>
<path d="m408.28 152.07 0.46498 4.4332q0.25036 2.3869 2.6373 2.1366l7.7003-0.80766q2.3869-0.25036 2.1366-2.6373l-0.46498-4.4332q-0.25036-2.3869-2.6373-2.1366l-7.7003 0.80766q-2.3869 0.25035-2.1366 2.6373z" clip-path="url(#a)" fill="#fff" stroke="#fff"/>
<g clip-path="url(#a)">
<defs>
<path id="r" d="m9.8125 72.906h9.8594v-64.609h35.5v-8.2969h-45.359z"/>
</defs>
<g transform="translate(412.32 151.65) rotate(84.012) scale(.08 -.08)">
<use xlink:href="#r"/>
</g>
</g>
<path d="m482.35 122.43 3.9316 4.5539q1.5684 1.8166 3.385 0.24823l5.8605-5.0597q1.8166-1.5684 0.24823-3.385l-3.9316-4.5539q-1.5684-1.8166-3.385-0.24823l-5.8605 5.0597q-1.8166 1.5684-0.24823 3.385z" clip-path="url(#a)" fill="#fff" stroke="#fff"/>
<g clip-path="url(#a)">
<g transform="translate(485.42 119.77) rotate(49.194) scale(.08 -.08)">
<use xlink:href="#q"/>
</g>
</g>
<path d="m148.28 128.73 4.4648-3.1644q1.9581-1.3878 0.57029-3.3459l-4.477-6.3168q-1.3878-1.9581-3.3459-0.57029l-4.4648 3.1644q-1.9581 1.3878-0.57029 3.3459l4.477 6.3168q1.3878 1.9581 3.3459 0.57029z" clip-path="url(#a)" fill="#fff" stroke="#fff"/>
<g clip-path="url(#a)">
<defs>
<path id="n" d="m34.188 63.188-13.391-36.281h26.812zm-5.5781 9.7188h11.188l27.781-72.906h-10.25l-6.6406 18.703h-32.859l-6.6406-18.703h-10.406z"/>
</defs>
<g transform="translate(145.93 125.41) rotate(-35.327) scale(.08 -.08)">
<use xlink:href="#n"/>
</g>
</g>
<path d="m194.27 191.27 0.31379-4.5905q0.16367-2.3944-2.2307-2.5581l-7.7245-0.52801q-2.3944-0.16367-2.5581 2.2307l-0.31379 4.5905q-0.16367 2.3944 2.2307 2.5581l7.7245 0.52801q2.3944 0.16367 2.5581-2.2307z" clip-path="url(#a)" fill="#fff" stroke="#fff"/>
<g clip-path="url(#a)">
<defs>
<path id="x" d="m9.8125 72.906h41.891v-8.3125h-32.031v-21.484h28.906v-8.2969h-28.906v-34.812h-9.8594z"/>
</defs>
<g transform="translate(190.21 190.99) rotate(-86.09) scale(.08 -.08)">
<use xlink:href="#x"/>
</g>
</g>
<path d="m243.37 189.33 2.4367 4.456q1.1515 2.1057 3.2572 0.95423l6.7931-3.7148q2.1057-1.1515 0.95423-3.2572l-2.4367-4.456q-1.1515-2.1057-3.2572-0.95423l-6.7931 3.7148q-2.1057 1.1515-0.95423 3.2572z" clip-path="url(#a)" fill="#fff" stroke="#fff"/>
<g clip-path="url(#a)">
<defs>
<path id="m" d="m53.516 70.516v-9.625q-5.6094 2.6875-10.594 4-4.9844 1.3281-9.625 1.3281-8.0469 0-12.422-3.125t-4.375-8.8906q0-4.8438 2.9062-7.3125 2.9062-2.4531 11.016-3.9688l5.9531-1.2188q11.031-2.1094 16.281-7.4062t5.25-14.172q0-10.609-7.1094-16.078-7.0938-5.4688-20.812-5.4688-5.1719 0-11.016 1.1719-5.8281 1.1719-12.078 3.4688v10.156q6-3.3594 11.766-5.0781 5.7656-1.7031 11.328-1.7031 8.4375 0 13.031 3.3125 4.5938 3.3281 4.5938 9.4844 0 5.3594-3.2969 8.3906t-10.812 4.5469l-6.0156 1.1719q-11.031 2.1875-15.969 6.875-4.9219 4.6875-4.9219 13.047 0 9.6719 6.8125 15.234t18.766 5.5625q5.1406 0 10.453-0.9375 5.3281-0.92188 10.891-2.7656z"/>
</defs>
<g transform="translate(246.93 187.38) rotate(61.328) scale(.08 -.08)">
<use xlink:href="#m"/>
</g>
</g>
<path d="m422.7 304.59v35.285q0 2.4 2.4 2.4h7.7425q2.4 0 2.4-2.4v-35.285q0-2.4-2.4-2.4h-7.7425q-2.4 0-2.4 2.4z" clip-path="url(#a)" fill="#fff" stroke="#fff"/>
<g clip-path="url(#a)">
<defs>
<path id="d" d="m-0.29688 72.906h61.672v-8.3125h-25.875v-64.594h-9.9062v64.594h-25.891z"/>
<path id="l" d="m56.203 29.594v-4.3906h-41.312q0.59375-9.2812 5.5938-14.141t13.938-4.8594q5.1719 0 10.031 1.2656t9.6562 3.8125v-8.5q-4.8438-2.0469-9.9219-3.125t-10.297-1.0781q-13.094 0-20.734 7.6094-7.6406 7.625-7.6406 20.625 0 13.422 7.25 21.297 7.25 7.8906 19.562 7.8906 11.031 0 17.453-7.1094 6.4219-7.0938 6.4219-19.297zm-8.9844 2.6406q-0.09375 7.3594-4.125 11.75-4.0312 4.4062-10.672 4.4062-7.5156 0-12.031-4.25t-5.2031-11.969z"/>
<path id="g" d="m41.109 46.297q-1.5156 0.875-3.2969 1.2812-1.7812 0.42188-3.9219 0.42188-7.625 0-11.703-4.9531t-4.0781-14.234v-28.812h-9.0312v54.688h9.0312v-8.5q2.8438 4.9844 7.375 7.3906 4.5469 2.4219 11.047 2.4219 0.92188 0 2.0469-0.125 1.125-0.10938 2.4844-0.35938z"/>
<path id="i" d="m52 44.188q3.375 6.0625 8.0625 8.9375t11.031 2.875q8.5469 0 13.188-5.9844 4.6406-5.9688 4.6406-17v-33.016h-9.0312v32.719q0 7.8594-2.7969 11.656-2.7812 3.8125-8.4844 3.8125-6.9844 0-11.047-4.6406-4.0469-4.625-4.0469-12.641v-30.906h-9.0312v32.719q0 7.9062-2.7812 11.688t-8.5938 3.7812q-6.8906 0-10.953-4.6562-4.0469-4.6562-4.0469-12.625v-30.906h-9.0312v54.688h9.0312v-8.5q3.0781 5.0312 7.375 7.4219t10.203 2.3906q5.9688 0 10.141-3.0312 4.1719-3.0156 6.1719-8.7812z"/>
<path id="k" d="m9.4219 54.688h8.9844v-54.688h-8.9844zm0 21.297h8.9844v-11.391h-8.9844z"/>
<path id="h" d="m54.891 33.016v-33.016h-8.9844v32.719q0 7.7656-3.0312 11.609-3.0312 3.8594-9.0781 3.8594-7.2812 0-11.484-4.6406-4.2031-4.625-4.2031-12.641v-30.906h-9.0312v54.688h9.0312v-8.5q3.2344 4.9375 7.5938 7.375 4.375 2.4375 10.094 2.4375 9.4219 0 14.25-5.8281 4.8438-5.8281 4.8438-17.156z"/>
<path id="f" d="m34.281 27.484q-10.891 0-15.094-2.4844t-4.2031-8.5q0-4.7812 3.1562-7.5938 3.1562-2.7969 8.5625-2.7969 7.4844 0 12 5.2969t4.5156 14.078v2zm17.922 3.7188v-31.203h-8.9844v8.2969q-3.0781-4.9688-7.6719-7.3438t-11.234-2.375q-8.3906 0-13.359 4.7188-4.9531 4.7188-4.9531 12.625 0 9.2188 6.1719 13.906 6.1875 4.6875 18.438 4.6875h12.609v0.89062q0 6.2031-4.0781 9.5938t-11.453 3.3906q-4.6875 0-9.1406-1.125-4.4375-1.125-8.5312-3.375v8.3125q4.9219 1.9062 9.5625 2.8438 4.6406 0.95312 9.0312 0.95312 11.875 0 17.734-6.1562 5.8594-6.1406 5.8594-18.641z"/>
<path id="j" d="m9.4219 75.984h8.9844v-75.984h-8.9844z"/>
</defs>
<g transform="translate(426.76 304.59) rotate(90) scale(.08 -.08)">
<use xlink:href="#d"/>
<use x="60.818359" xlink:href="#l"/>
<use x="122.341797" xlink:href="#g"/>
<use x="163.439453" xlink:href="#i"/>
<use x="260.851562" xlink:href="#k"/>
<use x="288.634766" xlink:href="#h"/>
<use x="352.013672" xlink:href="#f"/>
<use x="413.292969" xlink:href="#j"/>
</g>
</g>
<path d="m529.25 262.91 4.5532-3.0359q1.9968-1.3314 0.6654-3.3282l-4.2952-6.4418q-1.3314-1.9968-3.3282-0.6654l-4.5532 3.0359q-1.9968 1.3314-0.6654 3.3282l4.2952 6.4418q1.3314 1.9968 3.3282 0.6654z" clip-path="url(#a)" fill="#fff" stroke="#fff"/>
<g clip-path="url(#a)">
<g transform="translate(526.99 259.53) rotate(-33.694) scale(.08 -.08)">
<use xlink:href="#n"/>
</g>
</g>
<path d="m556.45 261.77 2.7605-3.6812q1.4399-1.9201-0.48025-3.36l-6.1943-4.645q-1.9201-1.4399-3.36 0.48025l-2.7605 3.6812q-1.4399 1.9201 0.48025 3.36l6.1943 4.645q1.9201 1.4399 3.36-0.48025z" clip-path="url(#a)" fill="#fff" stroke="#fff"/>
<g clip-path="url(#a)">
<g transform="translate(553.2 259.34) rotate(-53.134) scale(.08 -.08)">
<use xlink:href="#x"/>
</g>
</g>
<path d="m571.31 253.09v6.16q0 2.4 2.4 2.4h7.7425q2.4 0 2.4-2.4v-6.16q0-2.4-2.4-2.4h-7.7425q-2.4 0-2.4 2.4z" clip-path="url(#a)" fill="#fff" stroke="#fff"/>
<g clip-path="url(#a)">
<defs>
<path id="u" d="m19.672 64.797v-56.688h11.922q15.094 0 22.094 6.8281 7 6.8438 7 21.594 0 14.641-7 21.453t-22.094 6.8125zm-9.8594 8.1094h20.266q21.188 0 31.094-8.8125 9.9219-8.8125 9.9219-27.562 0-18.859-9.9688-27.703-9.9531-8.8281-31.047-8.8281h-20.266z"/>
</defs>
<g transform="translate(575.37 253.09) rotate(90) scale(.08 -.08)">
<use xlink:href="#u"/>
</g>
</g>
<path d="m595.81 257.9 3.047 4.0632q1.4399 1.9201 3.36 0.48025l6.1943-4.645q1.9201-1.4399 0.48025-3.36l-3.047-4.0632q-1.4399-1.9201-3.36-0.48025l-6.1943 4.645q-1.9201 1.4399-0.48025 3.36z" clip-path="url(#a)" fill="#fff" stroke="#fff"/>
<g clip-path="url(#a)">
<g transform="translate(599.06 255.46) rotate(53.134) scale(.08 -.08)">
<use xlink:href="#m"/>
</g>
</g>
<path d="m621.2 259.77 4.8714 3.2481q1.9968 1.3314 3.3282-0.6654l4.2952-6.4418q1.3314-1.9968-0.6654-3.3282l-4.8714-3.2481q-1.9968-1.3314-3.3282 0.6654l-4.2952 6.4418q-1.3314 1.9968 0.6654 3.3282z" clip-path="url(#a)" fill="#fff" stroke="#fff"/>
<g clip-path="url(#a)">
<defs>
<path id="o" d="m8.6875 72.906h9.9219v-44.297q0-11.719 4.2344-16.875 4.25-5.1406 13.781-5.1406 9.4688 0 13.719 5.1406 4.25 5.1562 4.25 16.875v44.297h9.9062v-45.516q0-14.25-7.0625-21.531-7.0469-7.2812-20.812-7.2812-13.828 0-20.891 7.2812-7.0469 7.2812-7.0469 21.531z"/>
</defs>
<g transform="translate(623.46 256.38) rotate(33.694) scale(.08 -.08)">
<use xlink:href="#o"/>
</g>
</g>
<path d="m472.24 304.59v35.285q0 2.4 2.4 2.4h7.7425q2.4 0 2.4-2.4v-35.285q0-2.4-2.4-2.4h-7.7425q-2.4 0-2.4 2.4z" clip-path="url(#a)" fill="#fff" stroke="#fff"/>
<g clip-path="url(#a)">
<g transform="translate(476.3 304.59) rotate(90) scale(.08 -.08)">
<use xlink:href="#d"/>
<use x="60.818359" xlink:href="#l"/>
<use x="122.341797" xlink:href="#g"/>
<use x="163.439453" xlink:href="#i"/>
<use x="260.851562" xlink:href="#k"/>
<use x="288.634766" xlink:href="#h"/>
<use x="352.013672" xlink:href="#f"/>
<use x="413.292969" xlink:href="#j"/>
</g>
</g>
<path d="m521.77 304.59v35.285q0 2.4 2.4 2.4h7.7425q2.4 0 2.4-2.4v-35.285q0-2.4-2.4-2.4h-7.7425q-2.4 0-2.4 2.4z" clip-path="url(#a)" fill="#fff" stroke="#fff"/>
<g clip-path="url(#a)">
<g transform="translate(525.84 304.59) rotate(90) scale(.08 -.08)">
<use xlink:href="#d"/>
<use x="60.818359" xlink:href="#l"/>
<use x="122.341797" xlink:href="#g"/>
<use x="163.439453" xlink:href="#i"/>
<use x="260.851562" xlink:href="#k"/>
<use x="288.634766" xlink:href="#h"/>
<use x="352.013672" xlink:href="#f"/>
<use x="413.292969" xlink:href="#j"/>
</g>
</g>
<path d="m571.31 304.59v35.285q0 2.4 2.4 2.4h7.7425q2.4 0 2.4-2.4v-35.285q0-2.4-2.4-2.4h-7.7425q-2.4 0-2.4 2.4z" clip-path="url(#a)" fill="#fff" stroke="#fff"/>
<g clip-path="url(#a)">
<g transform="translate(575.37 304.59) rotate(90) scale(.08 -.08)">
<use xlink:href="#d"/>
<use x="60.818359" xlink:href="#l"/>
<use x="122.341797" xlink:href="#g"/>
<use x="163.439453" xlink:href="#i"/>
<use x="260.851562" xlink:href="#k"/>
<use x="288.634766" xlink:href="#h"/>
<use x="352.013672" xlink:href="#f"/>
<use x="413.292969" xlink:href="#j"/>
</g>
</g>
<path d="m620.85 304.59v35.285q0 2.4 2.4 2.4h7.7425q2.4 0 2.4-2.4v-35.285q0-2.4-2.4-2.4h-7.7425q-2.4 0-2.4 2.4z" clip-path="url(#a)" fill="#fff" stroke="#fff"/>
<g clip-path="url(#a)">
<g transform="translate(624.91 304.59) rotate(90) scale(.08 -.08)">
<use xlink:href="#d"/>
<use x="60.818359" xlink:href="#l"/>
<use x="122.341797" xlink:href="#g"/>
<use x="163.439453" xlink:href="#i"/>
<use x="260.851562" xlink:href="#k"/>
<use x="288.634766" xlink:href="#h"/>
<use x="352.013672" xlink:href="#f"/>
<use x="413.292969" xlink:href="#j"/>
</g>
</g>
<path d="m95.955 193.61 1.21-4.908q0.57448-2.3302-1.7558-2.9047l-7.5174-1.8533q-2.3302-0.57448-2.9047 1.7558l-1.21 4.908q-0.57448 2.3302 1.7558 2.9047l7.5174 1.8533q2.3302 0.57448 2.9047-1.7558z" clip-path="url(#a)" fill="#fff" stroke="#fff"/>
<g clip-path="url(#a)">
<defs>
<path id="s" d="m9.8125 72.906h46.094v-8.3125h-36.234v-21.578h34.719v-8.2969h-34.719v-26.422h37.109v-8.2969h-46.969z"/>
</defs>
<g transform="translate(92.009 192.64) rotate(-76.151) scale(.08 -.08)">
<use xlink:href="#s"/>
</g>
</g>
<path d="m96.383 225.96 0.62264-5.0165q0.29561-2.3817-2.0861-2.6773l-7.6835-0.95366q-2.3817-0.29561-2.6773 2.0861l-0.62264 5.0165q-0.29561 2.3817 2.0861 2.6773l7.6835 0.95366q2.3817 0.29561 2.6773-2.0861z" clip-path="url(#a)" fill="#fff" stroke="#fff"/>
<g clip-path="url(#a)">
<g transform="translate(92.35 225.46) rotate(-82.925) scale(.08 -.08)">
<use xlink:href="#s"/>
</g>
</g>
<path d="m108.48 221.48 1.3459 5.4217q0.57822 2.3293 2.9075 1.7511l7.5144-1.8653q2.3293-0.57822 1.7511-2.9075l-1.3459-5.4217q-0.57822-2.3293-2.9075-1.7511l-7.5144 1.8653q-2.3293 0.57822-1.7511 2.9075z" clip-path="url(#a)" fill="#fff" stroke="#fff"/>
<g clip-path="url(#a)">
<defs>
<path id="ah" d="m64.406 67.281v-10.391q-4.9844 4.6406-10.625 6.9219-5.6406 2.2969-11.984 2.2969-12.5 0-19.141-7.6406t-6.6406-22.094q0-14.406 6.6406-22.047t19.141-7.6406q6.3438 0 11.984 2.2969t10.625 6.9375v-10.312q-5.1719-3.5156-10.969-5.2812-5.7812-1.75-12.219-1.75-16.562 0-26.094 10.125-9.5156 10.141-9.5156 27.672 0 17.578 9.5156 27.703 9.5312 10.141 26.094 10.141 6.5312 0 12.312-1.7344 5.7969-1.7344 10.875-5.2031z"/>
</defs>
<g transform="translate(112.42 220.5) rotate(76.059) scale(.08 -.08)">
<use xlink:href="#ah"/>
</g>
</g>
<path d="m175.02 304.59v35.285q0 2.4 2.4 2.4h7.7425q2.4 0 2.4-2.4v-35.285q0-2.4-2.4-2.4h-7.7425q-2.4 0-2.4 2.4z" clip-path="url(#a)" fill="#fff" stroke="#fff"/>
<g clip-path="url(#a)">
<g transform="translate(179.08 304.59) rotate(90) scale(.08 -.08)">
<use xlink:href="#d"/>
<use x="60.818359" xlink:href="#l"/>
<use x="122.341797" xlink:href="#g"/>
<use x="163.439453" xlink:href="#i"/>
<use x="260.851562" xlink:href="#k"/>
<use x="288.634766" xlink:href="#h"/>
<use x="352.013672" xlink:href="#f"/>
<use x="413.292969" xlink:href="#j"/>
</g>
</g>
<path d="m258.96 338.64 26.371-23.444q1.7937-1.5946 0.19905-3.3883l-5.1443-5.7864q-1.5946-1.7937-3.3883-0.19905l-26.371 23.444q-1.7937 1.5946-0.19905 3.3883l5.1443 5.7864q1.5946 1.7937 3.3883 0.19905z" clip-path="url(#a)" fill="#fff" stroke="#fff"/>
<g clip-path="url(#a)">
<g transform="translate(256.26 335.6) rotate(-41.638) scale(.08 -.08)">
<use xlink:href="#d"/>
<use x="60.818359" xlink:href="#l"/>
<use x="122.341797" xlink:href="#g"/>
<use x="163.439453" xlink:href="#i"/>
<use x="260.851562" xlink:href="#k"/>
<use x="288.634766" xlink:href="#h"/>
<use x="352.013672" xlink:href="#f"/>
<use x="413.292969" xlink:href="#j"/>
</g>
</g>
<path d="m292.42 340.95 12.388-33.039q0.84258-2.2472-1.4046-3.0898l-7.2497-2.7182q-2.2472-0.84258-3.0898 1.4046l-12.388 33.039q-0.84258 2.2472 1.4046 3.0898l7.2497 2.7182q2.2472 0.84258 3.0898-1.4046z" clip-path="url(#a)" fill="#fff" stroke="#fff"/>
<g clip-path="url(#a)">
<g transform="translate(288.62 339.53) rotate(-69.447) scale(.08 -.08)">
<use xlink:href="#d"/>
<use x="60.818359" xlink:href="#l"/>
<use x="122.341797" xlink:href="#g"/>
<use x="163.439453" xlink:href="#i"/>
<use x="260.851562" xlink:href="#k"/>
<use x="288.634766" xlink:href="#h"/>
<use x="352.013672" xlink:href="#f"/>
<use x="413.292969" xlink:href="#j"/>
</g>
</g>
<path d="m305.45 307.91 12.388 33.039q0.84258 2.2472 3.0898 1.4046l7.2497-2.7182q2.2472-0.84258 1.4046-3.0898l-12.388-33.039q-0.84258-2.2472-3.0898-1.4046l-7.2497 2.7182q-2.2472 0.84258-1.4046 3.0898z" clip-path="url(#a)" fill="#fff" stroke="#fff"/>
<g clip-path="url(#a)">
<g transform="translate(309.25 306.49) rotate(69.447) scale(.08 -.08)">
<use xlink:href="#d"/>
<use x="60.818359" xlink:href="#l"/>
<use x="122.341797" xlink:href="#g"/>
<use x="163.439453" xlink:href="#i"/>
<use x="260.851562" xlink:href="#k"/>
<use x="288.634766" xlink:href="#h"/>
<use x="352.013672" xlink:href="#f"/>
<use x="413.292969" xlink:href="#j"/>
</g>
</g>
<path d="m324.93 315.2 26.371 23.444q1.7937 1.5946 3.3883-0.19905l5.1443-5.7864q1.5946-1.7937-0.19905-3.3883l-26.371-23.444q-1.7937-1.5946-3.3883 0.19905l-5.1443 5.7864q-1.5946 1.7937 0.19905 3.3883z" clip-path="url(#a)" fill="#fff" stroke="#fff"/>
<g clip-path="url(#a)">
<g transform="translate(327.63 312.16) rotate(41.638) scale(.08 -.08)">
<use xlink:href="#d"/>
<use x="60.818359" xlink:href="#l"/>
<use x="122.341797" xlink:href="#g"/>
<use x="163.439453" xlink:href="#i"/>
<use x="260.851562" xlink:href="#k"/>
<use x="288.634766" xlink:href="#h"/>
<use x="352.013672" xlink:href="#f"/>
<use x="413.292969" xlink:href="#j"/>
</g>
</g>
<path d="m100.32 257.74 3.2832 4.3782q1.4399 1.9201 3.36 0.48025l6.1943-4.645q1.9201-1.4399 0.48025-3.36l-3.2832-4.3782q-1.4399-1.9201-3.36-0.48025l-6.1943 4.645q-1.9201 1.4399-0.48025 3.36z" clip-path="url(#a)" fill="#fff" stroke="#fff"/>
<g clip-path="url(#a)">
<g transform="translate(103.58 255.31) rotate(53.134) scale(.08 -.08)">
<use xlink:href="#n"/>
</g>
</g>
<path d="m60.94 261.97 3.047-4.0632q1.4399-1.9201-0.48025-3.36l-6.1943-4.645q-1.9201-1.4399-3.36 0.48025l-3.047 4.0632q-1.4399 1.9201 0.48025 3.36l6.1943 4.645q1.9201 1.4399 3.36-0.48025z" clip-path="url(#a)" fill="#fff" stroke="#fff"/>
<g clip-path="url(#a)">
<g transform="translate(57.689 259.53) rotate(-53.134) scale(.08 -.08)">
<use xlink:href="#m"/>
</g>
</g>
<path d="m75.943 304.59v35.285q0 2.4 2.4 2.4h7.7425q2.4 0 2.4-2.4v-35.285q0-2.4-2.4-2.4h-7.7425q-2.4 0-2.4 2.4z" clip-path="url(#a)" fill="#fff" stroke="#fff"/>
<g clip-path="url(#a)">
<g transform="translate(80.007 304.59) rotate(90) scale(.08 -.08)">
<use xlink:href="#d"/>
<use x="60.818359" xlink:href="#l"/>
<use x="122.341797" xlink:href="#g"/>
<use x="163.439453" xlink:href="#i"/>
<use x="260.851562" xlink:href="#k"/>
<use x="288.634766" xlink:href="#h"/>
<use x="352.013672" xlink:href="#f"/>
<use x="413.292969" xlink:href="#j"/>
</g>
</g>
<path d="m125.48 304.59v35.285q0 2.4 2.4 2.4h7.7425q2.4 0 2.4-2.4v-35.285q0-2.4-2.4-2.4h-7.7425q-2.4 0-2.4 2.4z" clip-path="url(#a)" fill="#fff" stroke="#fff"/>
<g clip-path="url(#a)">
<g transform="translate(129.54 304.59) rotate(90) scale(.08 -.08)">
<use xlink:href="#d"/>
<use x="60.818359" xlink:href="#l"/>
<use x="122.341797" xlink:href="#g"/>
<use x="163.439453" xlink:href="#i"/>
<use x="260.851562" xlink:href="#k"/>
<use x="288.634766" xlink:href="#h"/>
<use x="352.013672" xlink:href="#f"/>
<use x="413.292969" xlink:href="#j"/>
</g>
</g>
<path d="m26.407 304.59v35.285q0 2.4 2.4 2.4h7.7425q2.4 0 2.4-2.4v-35.285q0-2.4-2.4-2.4h-7.7425q-2.4 0-2.4 2.4z" clip-path="url(#a)" fill="#fff" stroke="#fff"/>
<g clip-path="url(#a)">
<g transform="translate(30.47 304.59) rotate(90) scale(.08 -.08)">
<use xlink:href="#d"/>
<use x="60.818359" xlink:href="#l"/>
<use x="122.341797" xlink:href="#g"/>
<use x="163.439453" xlink:href="#i"/>
<use x="260.851562" xlink:href="#k"/>
<use x="288.634766" xlink:href="#h"/>
<use x="352.013672" xlink:href="#f"/>
<use x="413.292969" xlink:href="#j"/>
</g>
</g>
<path d="m670.38 304.59v35.285q0 2.4 2.4 2.4h7.7425q2.4 0 2.4-2.4v-35.285q0-2.4-2.4-2.4h-7.7425q-2.4 0-2.4 2.4z" clip-path="url(#a)" fill="#fff" stroke="#fff"/>
<g clip-path="url(#a)">
<g transform="translate(674.45 304.59) rotate(90) scale(.08 -.08)">
<use xlink:href="#d"/>
<use x="60.818359" xlink:href="#l"/>
<use x="122.341797" xlink:href="#g"/>
<use x="163.439453" xlink:href="#i"/>
<use x="260.851562" xlink:href="#k"/>
<use x="288.634766" xlink:href="#h"/>
<use x="352.013672" xlink:href="#f"/>
<use x="413.292969" xlink:href="#j"/>
</g>
</g>
<defs>
<path id="b" d="m0 8.6603c2.2967 0 4.4997-0.9125 6.1237-2.5365 1.624-1.624 2.5365-3.827 2.5365-6.1237s-0.9125-4.4997-2.5365-6.1237c-1.624-1.624-3.827-2.5365-6.1237-2.5365s-4.4997 0.9125-6.1237 2.5365c-1.624 1.624-2.5365 3.827-2.5365 6.1237s0.9125 4.4997 2.5365 6.1237c1.624 1.624 3.827 2.5365 6.1237 2.5365z"/>
</defs>
<g clip-path="url(#a)">
<use x="32.677876" y="355.260323" fill="#ffffff" stroke="#ffffff" xlink:href="#b"/>
</g>
<g clip-path="url(#a)">
<use x="82.214613" y="355.260323" fill="#ffffff" stroke="#ffffff" xlink:href="#b"/>
</g>
<g clip-path="url(#a)">
<use x="131.75135" y="355.260323" fill="#ffffff" stroke="#ffffff" xlink:href="#b"/>
</g>
<g clip-path="url(#a)">
<use x="181.288087" y="355.260323" fill="#ffffff" stroke="#ffffff" xlink:href="#b"/>
</g>
<g clip-path="url(#a)">
<use x="230.824824" y="355.260323" fill="#ffffff" stroke="#ffffff" xlink:href="#b"/>
</g>
<g clip-path="url(#a)">
<use x="280.361561" y="355.260323" fill="#ffffff" stroke="#ffffff" xlink:href="#b"/>
</g>
<g clip-path="url(#a)">
<use x="329.898298" y="355.260323" fill="#ffffff" stroke="#ffffff" xlink:href="#b"/>
</g>
<g clip-path="url(#a)">
<use x="379.435035" y="355.260323" fill="#ffffff" stroke="#ffffff" xlink:href="#b"/>
</g>
<g clip-path="url(#a)">
<use x="428.971772" y="355.260323" fill="#ffffff" stroke="#ffffff" xlink:href="#b"/>
</g>
<g clip-path="url(#a)">
<use x="478.508509" y="355.260323" fill="#ffffff" stroke="#ffffff" xlink:href="#b"/>
</g>
<g clip-path="url(#a)">
<use x="528.045246" y="355.260323" fill="#ffffff" stroke="#ffffff" xlink:href="#b"/>
</g>
<g clip-path="url(#a)">
<use x="577.581983" y="355.260323" fill="#ffffff" stroke="#ffffff" xlink:href="#b"/>
</g>
<g clip-path="url(#a)">
<use x="627.11872" y="355.260323" fill="#ffffff" stroke="#ffffff" xlink:href="#b"/>
</g>
<g clip-path="url(#a)">
<use x="676.655457" y="355.260323" fill="#ffffff" stroke="#ffffff" xlink:href="#b"/>
</g>
<g clip-path="url(#a)">
<use x="400.534016" y="18.073011" fill="#ffffff" stroke="#ffffff" xlink:href="#b"/>
</g>
<g clip-path="url(#a)">
<use x="195.048292" y="87.89628" fill="#ffffff" stroke="#ffffff" xlink:href="#b"/>
</g>
<g clip-path="url(#a)">
<use x="428.971772" y="289.201218" fill="#ffffff" stroke="#ffffff" xlink:href="#b"/>
</g>
<g clip-path="url(#a)">
<use x="577.581983" y="223.142113" fill="#ffffff" stroke="#ffffff" xlink:href="#b"/>
</g>
<g clip-path="url(#a)">
<use x="478.508509" y="289.201218" fill="#ffffff" stroke="#ffffff" xlink:href="#b"/>
</g>
<g clip-path="url(#a)">
<use x="528.045246" y="289.201218" fill="#ffffff" stroke="#ffffff" xlink:href="#b"/>
</g>
<g clip-path="url(#a)">
<use x="577.581983" y="289.201218" fill="#ffffff" stroke="#ffffff" xlink:href="#b"/>
</g>
<g clip-path="url(#a)">
<use x="627.11872" y="289.201218" fill="#ffffff" stroke="#ffffff" xlink:href="#b"/>
</g>
<g clip-path="url(#a)">
<use x="98.726859" y="156.164053" fill="#ffffff" stroke="#ffffff" xlink:href="#b"/>
</g>
<g clip-path="url(#a)">
<use x="181.288087" y="289.201218" fill="#ffffff" stroke="#ffffff" xlink:href="#b"/>
</g>
<g clip-path="url(#a)">
<use x="305.12993" y="289.201218" fill="#ffffff" stroke="#ffffff" xlink:href="#b"/>
</g>
<g clip-path="url(#a)">
<use x="82.214613" y="223.142113" fill="#ffffff" stroke="#ffffff" xlink:href="#b"/>
</g>
<g clip-path="url(#a)">
<use x="82.214613" y="289.201218" fill="#ffffff" stroke="#ffffff" xlink:href="#b"/>
</g>
<g clip-path="url(#a)">
<use x="131.75135" y="289.201218" fill="#ffffff" stroke="#ffffff" xlink:href="#b"/>
</g>
<g clip-path="url(#a)">
<use x="32.677876" y="289.201218" fill="#ffffff" stroke="#ffffff" xlink:href="#b"/>
</g>
<g clip-path="url(#a)">
<use x="676.655457" y="289.201218" fill="#ffffff" stroke="#ffffff" xlink:href="#b"/>
</g>
<g clip-path="url(#a)">
<defs>
<path id="p" d="m9.8125 72.906h9.8594v-72.906h-9.8594z"/>
<path id="t" d="m44.391 34.188q3.1719-1.0781 6.1719-4.5938t6.0312-9.6719l10.016-19.922h-10.609l-9.3125 18.703q-3.625 7.3281-7.0156 9.7188t-9.25 2.3906h-10.75v-30.812h-9.8594v72.906h22.266q12.5 0 18.656-5.2344 6.1562-5.2188 6.1562-15.766 0-6.8906-3.2031-11.438-3.2031-4.5312-9.2969-6.2812zm-24.719 30.609v-25.875h12.406q7.125 0 10.766 3.2969t3.6406 9.6875-3.6406 9.6406-10.766 3.25z"/>
</defs>
<g transform="translate(17.755 358.02) scale(.1 -.1)">
<use xlink:href="#d"/>
<use x="61.083984" xlink:href="#q"/>
<use x="136.279297" xlink:href="#s"/>
<use x="199.462891" xlink:href="#p"/>
<use x="228.955078" xlink:href="#t"/>
</g>
</g>
<g clip-path="url(#a)">
<defs>
<path id="ag" d="m59.516 10.406v19.578h-16.109v8.1094h25.875v-31.312q-5.7031-4.0469-12.594-6.125-6.875-2.0781-14.688-2.0781-17.094 0-26.75 9.9844-9.6406 10-9.6406 27.812 0 17.875 9.6406 27.859 9.6562 9.9844 26.75 9.9844 7.125 0 13.547-1.7656 6.4219-1.75 11.844-5.1719v-10.5q-5.4688 4.6406-11.625 6.9844t-12.938 2.3438q-13.391 0-20.109-7.4688-6.7031-7.4688-6.7031-22.266 0-14.75 6.7031-22.219 6.7188-7.4688 20.109-7.4688 5.2188 0 9.3125 0.90625 4.1094 0.90625 7.375 2.8125z"/>
</defs>
<g transform="translate(67.819 358.02) scale(.1 -.1)">
<use xlink:href="#ag"/>
<use x="77.490234" xlink:href="#t"/>
<use x="146.972656" xlink:href="#p"/>
<use x="176.464844" xlink:href="#r"/>
<use x="232.177734" xlink:href="#r"/>
</g>
</g>
<g clip-path="url(#a)">
<g transform="translate(113.16 358.02) scale(.1 -.1)">
<use xlink:href="#u"/>
<use x="77.001953" xlink:href="#p"/>
<use x="106.494141" xlink:href="#m"/>
<use x="169.970703" xlink:href="#q"/>
<use x="245.166016" xlink:href="#s"/>
<use x="308.349609" xlink:href="#m"/>
</g>
</g>
<g clip-path="url(#a)">
<g transform="translate(171.23 358.02) scale(.1 -.1)">
<use xlink:href="#n"/>
<use x="68.408203" xlink:href="#t"/>
<use x="137.890625" xlink:href="#s"/>
</g>
</g>
<g clip-path="url(#a)">
<defs>
<path id="w" d="m39.406 66.219q-10.75 0-17.078-8.0156-6.3125-8-6.3125-21.828 0-13.766 6.3125-21.781 6.3281-8 17.078-8 10.734 0 17.016 8 6.2812 8.0156 6.2812 21.781 0 13.828-6.2812 21.828-6.2812 8.0156-17.016 8.0156zm0 8q15.328 0 24.5-10.281 9.1875-10.281 9.1875-27.562 0-17.234-9.1875-27.516-9.1719-10.281-24.5-10.281-15.375 0-24.594 10.25-9.2031 10.266-9.2031 27.547t9.2031 27.562q9.2188 10.281 24.594 10.281z"/>
</defs>
<g transform="translate(220.18 358.02) scale(.1 -.1)">
<use xlink:href="#w"/>
<use x="78.710938" xlink:href="#o"/>
<use x="151.904297" xlink:href="#d"/>
</g>
</g>
<g clip-path="url(#a)">
<g transform="translate(273.89 358.02) scale(.1 -.1)">
<use xlink:href="#d"/>
<use x="60.974609" xlink:href="#n"/>
</g>
</g>
<g clip-path="url(#a)">
<g transform="translate(318.44 358.02) scale(.1 -.1)">
<use xlink:href="#d"/>
<use x="61.083984" xlink:href="#q"/>
<use x="136.279297" xlink:href="#p"/>
<use x="165.771484" xlink:href="#m"/>
</g>
</g>
<g clip-path="url(#a)">
<defs>
<path id="ad" d="m3.3281 72.906h9.9531l15.328-61.625 15.281 61.625h11.094l15.328-61.625 15.281 61.625h10.016l-18.312-72.906h-12.406l-15.375 63.281-15.531-63.281h-12.406z"/>
</defs>
<g transform="translate(360.45 358.02) scale(.1 -.1)">
<use xlink:href="#ad"/>
<use x="98.876953" xlink:href="#w"/>
<use x="177.587891" xlink:href="#t"/>
<use x="247.070312" xlink:href="#r"/>
<use x="302.783203" xlink:href="#u"/>
</g>
</g>
<g clip-path="url(#a)">
<defs>
<path id="ae" d="m9.8125 72.906h13.281l32.328-60.984v60.984h9.5625v-72.906h-13.281l-32.312 60.984v-60.984h-9.5781z"/>
</defs>
<g transform="translate(417.96 358.02) scale(.1 -.1)">
<use xlink:href="#n"/>
<use x="68.408203" xlink:href="#ae"/>
<use x="143.212891" xlink:href="#u"/>
</g>
</g>
<g clip-path="url(#a)">
<g transform="translate(463.27 358.02) scale(.1 -.1)">
<use xlink:href="#m"/>
<use x="63.476562" xlink:href="#o"/>
<use x="136.669922" xlink:href="#m"/>
<use x="200.146484" xlink:href="#q"/>
<use x="275.341797" xlink:href="#p"/>
</g>
</g>
<g clip-path="url(#a)">
<g transform="translate(523.4 358.02) scale(.1 -.1)">
<use xlink:href="#p"/>
<use x="29.492188" xlink:href="#m"/>
</g>
</g>
<g clip-path="url(#a)">
<defs>
<path id="af" d="m9.8125 72.906h9.8594v-67.828q0-13.188-5-19.141t-16.094-5.9531h-3.75v8.2969h3.0781q6.5312 0 9.2188 3.6719 2.6875 3.6562 2.6875 13.125z"/>
</defs>
<g transform="translate(566.22 358.02) scale(.1 -.1)">
<use xlink:href="#af"/>
<use x="29.492188" xlink:href="#o"/>
<use x="102.685547" xlink:href="#m"/>
<use x="166.162109" xlink:href="#d"/>
</g>
</g>
<g clip-path="url(#a)">
<defs>
<path id="ai" d="m19.672 34.812v-26.703h15.828q7.9531 0 11.781 3.2969 3.8438 3.2969 3.8438 10.078 0 6.8438-3.8438 10.078-3.8281 3.25-11.781 3.25zm0 29.984v-21.969h14.609q7.2188 0 10.75 2.7031 3.5469 2.7188 3.5469 8.2812 0 5.5156-3.5469 8.25-3.5312 2.7344-10.75 2.7344zm-9.8594 8.1094h25.203q11.281 0 17.375-4.6875 6.1094-4.6875 6.1094-13.328 0-6.7031-3.125-10.656t-9.1875-4.9219q7.2812-1.5625 11.312-6.5312 4.0312-4.9531 4.0312-12.375 0-9.7656-6.6406-15.094-6.6406-5.3125-18.906-5.3125h-26.172z"/>
</defs>
<g transform="translate(600.19 358.02) scale(.1 -.1)">
<use xlink:href="#x"/>
<use x="57.378906" xlink:href="#n"/>
<use x="125.787109" xlink:href="#ai"/>
<use x="194.390625" xlink:href="#o"/>
<use x="267.583984" xlink:href="#r"/>
<use x="323.25" xlink:href="#w"/>
<use x="401.960938" xlink:href="#o"/>
<use x="475.154297" xlink:href="#m"/>
</g>
</g>
<g clip-path="url(#a)">
<defs>
<path id="v" d="m15.094 12.406h9.9062v-12.406h-9.9062zm0 60.5h9.9062v-31.984l-0.96875-17.438h-7.9219l-1.0156 17.438z"/>
</defs>
<g transform="translate(668.64 358.02) scale(.1 -.1)">
<use xlink:href="#v"/>
<use x="40.087891" xlink:href="#v"/>
<use x="80.175781" xlink:href="#v"/>
<use x="120.263672" xlink:href="#v"/>
</g>
</g>
<g clip-path="url(#a)">
<defs>
<path id="c" d="m12.406 8.2969h16.109v55.625l-17.531-3.5156v8.9844l17.438 3.5156h9.8594v-64.609h16.109v-8.2969h-41.984z"/>
<path id="e" d="m10.688 12.406h10.312v-12.406h-10.312z"/>
</defs>
<g transform="translate(392.58 20.832) scale(.1 -.1)">
<use xlink:href="#c"/>
<use x="63.623047" xlink:href="#e"/>
<use x="95.410156" xlink:href="#c"/>
</g>
</g>
<g clip-path="url(#a)">
<defs>
<path id="ac" d="m19.188 8.2969h34.422v-8.2969h-46.281v8.2969q5.6094 5.8125 15.297 15.594 9.7031 9.7969 12.188 12.641 4.7344 5.3125 6.6094 9 1.8906 3.6875 1.8906 7.25 0 5.8125-4.0781 9.4688-4.0781 3.6719-10.625 3.6719-4.6406 0-9.7969-1.6094-5.1406-1.6094-11-4.8906v9.9688q5.9531 2.3906 11.125 3.6094 5.1875 1.2188 9.4844 1.2188 11.328 0 18.062-5.6719 6.7344-5.6562 6.7344-15.125 0-4.5-1.6875-8.5312-1.6719-4.0156-6.125-9.4844-1.2188-1.4219-7.7656-8.1875-6.5312-6.7656-18.453-18.922z"/>
</defs>
<g transform="translate(187.1 90.656) scale(.1 -.1)">
<use xlink:href="#c"/>
<use x="63.623047" xlink:href="#e"/>
<use x="95.410156" xlink:href="#ac"/>
</g>
</g>
<g clip-path="url(#a)">
<defs>
<path id="ab" d="m40.578 39.312q7.0781-1.5156 11.047-6.3125 3.9844-4.7812 3.9844-11.812 0-10.781-7.4219-16.703-7.4219-5.9062-21.094-5.9062-4.5781 0-9.4375 0.90625t-10.031 2.7188v9.5156q4.0938-2.3906 8.9688-3.6094 4.8906-1.2188 10.219-1.2188 9.2656 0 14.125 3.6562t4.8594 10.641q0 6.4531-4.5156 10.078-4.5156 3.6406-12.562 3.6406h-8.5v8.1094h8.8906q7.2656 0 11.125 2.9062t3.8594 8.375q0 5.6094-3.9844 8.6094-3.9688 3.0156-11.391 3.0156-4.0625 0-8.7031-0.89062-4.6406-0.875-10.203-2.7188v8.7812q5.625 1.5625 10.531 2.3438t9.25 0.78125q11.234 0 17.766-5.1094 6.5469-5.0938 6.5469-13.781 0-6.0625-3.4688-10.234t-9.8594-5.7812z"/>
</defs>
<g transform="translate(421.02 291.96) scale(.1 -.1)">
<use xlink:href="#c"/>
<use x="63.623047" xlink:href="#e"/>
<use x="95.410156" xlink:href="#ab"/>
</g>
</g>
<g clip-path="url(#a)">
<defs>
<path id="aa" d="m37.797 64.312-24.906-38.922h24.906zm-2.5938 8.5938h12.406v-47.516h10.406v-8.2031h-10.406v-17.188h-9.8125v17.188h-32.906v9.5156z"/>
</defs>
<g transform="translate(569.63 225.9) scale(.1 -.1)">
<use xlink:href="#c"/>
<use x="63.623047" xlink:href="#e"/>
<use x="95.410156" xlink:href="#aa"/>
</g>
</g>
<g clip-path="url(#a)">
<defs>
<path id="z" d="m33.016 40.375q-6.6406 0-10.531-4.5469-3.875-4.5312-3.875-12.438 0-7.8594 3.875-12.438 3.8906-4.5625 10.531-4.5625t10.516 4.5625q3.875 4.5781 3.875 12.438 0 7.9062-3.875 12.438-3.875 4.5469-10.516 4.5469zm19.578 30.922v-8.9844q-3.7188 1.75-7.5 2.6719-3.7812 0.9375-7.5 0.9375-9.7656 0-14.922-6.5938-5.1406-6.5938-5.875-19.922 2.875 4.25 7.2188 6.5156 4.3594 2.2656 9.5781 2.2656 10.984 0 17.359-6.6719 6.375-6.6562 6.375-18.125 0-11.234-6.6406-18.031-6.6406-6.7812-17.672-6.7812-12.656 0-19.344 9.6875-6.6875 9.7031-6.6875 28.109 0 17.281 8.2031 27.562t22.016 10.281q3.7188 0 7.5-0.73438t7.8906-2.1875z"/>
</defs>
<g transform="translate(470.56 291.96) scale(.1 -.1)">
<use xlink:href="#c"/>
<use x="63.623047" xlink:href="#e"/>
<use x="95.410156" xlink:href="#z"/>
</g>
</g>
<g clip-path="url(#a)">
<defs>
<path id="y" d="m8.2031 72.906h46.875v-4.2031l-26.469-68.703h-10.297l24.906 64.594h-35.016z"/>
</defs>
<g transform="translate(520.09 291.96) scale(.1 -.1)">
<use xlink:href="#c"/>
<use x="63.623047" xlink:href="#e"/>
<use x="95.410156" xlink:href="#y"/>
</g>
</g>
<g clip-path="url(#a)">
<defs>
<path id="ak" d="m31.781 34.625q-7.0312 0-11.062-3.7656-4.0156-3.7656-4.0156-10.344 0-6.5938 4.0156-10.359 4.0312-3.7656 11.062-3.7656t11.078 3.7812q4.0625 3.7969 4.0625 10.344 0 6.5781-4.0312 10.344-4.0156 3.7656-11.109 3.7656zm-9.8594 4.1875q-6.3438 1.5625-9.8906 5.9062-3.5312 4.3594-3.5312 10.609 0 8.7344 6.2188 13.812 6.2344 5.0781 17.062 5.0781 10.891 0 17.094-5.0781t6.2031-13.812q0-6.25-3.5469-10.609-3.5312-4.3438-9.8281-5.9062 7.125-1.6562 11.094-6.5 3.9844-4.8281 3.9844-11.797 0-10.609-6.4688-16.281-6.4688-5.6562-18.531-5.6562-12.047 0-18.531 5.6562-6.4688 5.6719-6.4688 16.281 0 6.9688 4 11.797 4.0156 4.8438 11.141 6.5zm-3.6094 15.578q0-5.6562 3.5312-8.8281 3.5469-3.1719 9.9375-3.1719 6.3594 0 9.9375 3.1719 3.5938 3.1719 3.5938 8.8281 0 5.6719-3.5938 8.8438-3.5781 3.1719-9.9375 3.1719-6.3906 0-9.9375-3.1719-3.5312-3.1719-3.5312-8.8438z"/>
</defs>
<g transform="translate(569.63 291.96) scale(.1 -.1)">
<use xlink:href="#c"/>
<use x="63.623047" xlink:href="#e"/>
<use x="95.410156" xlink:href="#ak"/>
</g>
</g>
<g clip-path="url(#a)">
<defs>
<path id="aj" d="m10.984 1.5156v8.9844q3.7188-1.7656 7.5156-2.6875 3.8125-0.92188 7.4844-0.92188 9.7656 0 14.906 6.5625 5.1562 6.5625 5.8906 19.953-2.8281-4.2031-7.1875-6.4531-4.3438-2.25-9.6094-2.25-10.938 0-17.312 6.6094-6.375 6.625-6.375 18.109 0 11.219 6.6406 18 6.6406 6.7969 17.672 6.7969 12.656 0 19.312-9.7031 6.6719-9.6875 6.6719-28.141 0-17.234-8.1875-27.516-8.1719-10.281-21.984-10.281-3.7188 0-7.5312 0.73438-3.7969 0.73438-7.9062 2.2031zm19.625 30.906q6.6406 0 10.516 4.5312 3.8906 4.5469 3.8906 12.469 0 7.8594-3.8906 12.422-3.875 4.5625-10.516 4.5625t-10.516-4.5625-3.875-12.422q0-7.9219 3.875-12.469 3.875-4.5312 10.516-4.5312z"/>
</defs>
<g transform="translate(619.17 291.96) scale(.1 -.1)">
<use xlink:href="#c"/>
<use x="63.623047" xlink:href="#e"/>
<use x="95.410156" xlink:href="#aj"/>
</g>
</g>
<g clip-path="url(#a)">
<defs>
<path id="am" d="m31.781 66.406q-7.6094 0-11.453-7.5-3.8281-7.4844-3.8281-22.531 0-14.984 3.8281-22.484 3.8438-7.5 11.453-7.5 7.6719 0 11.5 7.5 3.8438 7.5 3.8438 22.484 0 15.047-3.8438 22.531-3.8281 7.5-11.5 7.5zm0 7.8125q12.266 0 18.734-9.7031 6.4688-9.6875 6.4688-28.141 0-18.406-6.4688-28.109-6.4688-9.6875-18.734-9.6875-12.25 0-18.719 9.6875-6.4688 9.7031-6.4688 28.109 0 18.453 6.4688 28.141 6.4688 9.7031 18.719 9.7031z"/>
</defs>
<g transform="translate(87.594 158.92) scale(.1 -.1)">
<use xlink:href="#c"/>
<use x="63.623047" xlink:href="#e"/>
<use x="95.410156" xlink:href="#c"/>
<use x="159.033203" xlink:href="#am"/>
</g>
</g>
<g clip-path="url(#a)">
<g transform="translate(170.16 291.96) scale(.1 -.1)">
<use xlink:href="#c"/>
<use x="63.623047" xlink:href="#e"/>
<use x="95.410156" xlink:href="#c"/>
<use x="159.033203" xlink:href="#c"/>
</g>
</g>
<g clip-path="url(#a)">
<g transform="translate(294 291.96) scale(.1 -.1)">
<use xlink:href="#c"/>
<use x="63.623047" xlink:href="#e"/>
<use x="95.410156" xlink:href="#c"/>
<use x="159.033203" xlink:href="#ac"/>
</g>
</g>
<g clip-path="url(#a)">
<g transform="translate(71.082 225.9) scale(.1 -.1)">
<use xlink:href="#c"/>
<use x="63.623047" xlink:href="#e"/>
<use x="95.410156" xlink:href="#c"/>
<use x="159.033203" xlink:href="#ab"/>
</g>
</g>
<g clip-path="url(#a)">
<g transform="translate(71.082 291.96) scale(.1 -.1)">
<use xlink:href="#c"/>
<use x="63.623047" xlink:href="#e"/>
<use x="95.410156" xlink:href="#c"/>
<use x="159.033203" xlink:href="#aa"/>
</g>
</g>
<g clip-path="url(#a)">
<defs>
<path id="al" d="m10.797 72.906h38.719v-8.3125h-29.688v-17.859q2.1406 0.73438 4.2812 1.0938 2.1562 0.35938 4.3125 0.35938 12.203 0 19.328-6.6875 7.1406-6.6875 7.1406-18.109 0-11.766-7.3281-18.297-7.3281-6.5156-20.656-6.5156-4.5938 0-9.3594 0.78125-4.75 0.78125-9.8281 2.3438v9.9219q4.3906-2.3906 9.0781-3.5625t9.9062-1.1719q8.4531 0 13.375 4.4375 4.9375 4.4375 4.9375 12.062 0 7.6094-4.9375 12.047-4.9219 4.4531-13.375 4.4531-3.9531 0-7.8906-0.875-3.9219-0.875-8.0156-2.7344z"/>
</defs>
<g transform="translate(120.62 291.96) scale(.1 -.1)">
<use xlink:href="#c"/>
<use x="63.623047" xlink:href="#e"/>
<use x="95.410156" xlink:href="#c"/>
<use x="159.033203" xlink:href="#al"/>
</g>
</g>
<g clip-path="url(#a)">
<g transform="translate(21.545 291.96) scale(.1 -.1)">
<use xlink:href="#c"/>
<use x="63.623047" xlink:href="#e"/>
<use x="95.410156" xlink:href="#c"/>
<use x="159.033203" xlink:href="#z"/>
</g>
</g>
<g clip-path="url(#a)">
<g transform="translate(665.52 291.96) scale(.1 -.1)">
<use xlink:href="#c"/>
<use x="63.623047" xlink:href="#e"/>
<use x="95.410156" xlink:href="#c"/>
<use x="159.033203" xlink:href="#y"/>
</g>
</g>
<defs>
<clipPath id="a">
<rect width="709.33" height="373.33"/>
</clipPath>
</defs>
</svg>
