<?xml version="1.0" encoding="UTF-8"?>
<!DOCTYPE svg  PUBLIC '-//W3C//DTD SVG 1.1//EN'  'http://www.w3.org/Graphics/SVG/1.1/DTD/svg11.dtd'>
<svg width="912pt" height="480pt" version="1.1" viewBox="0 0 912 480" xmlns="http://www.w3.org/2000/svg" xmlns:xlink="http://www.w3.org/1999/xlink">
<defs>
<style type="text/css">*{stroke-linecap:butt;stroke-linejoin:round;}</style>
</defs>
<path d="m0 480h912v-480h-912z" fill="#fff"/>
<g fill="none" stroke="#000">
<path d="m401.01 21.818-328.15 110.03" clip-path="url(#a)"/>
<path d="m401.01 21.818-213.25 328.77" clip-path="url(#a)"/>
<path d="m401.01 21.818-13.732 110.03" clip-path="url(#a)"/>
<path d="m401.01 21.818 30.604 328.77" clip-path="url(#a)"/>
<path d="m401.01 21.818 305.49 328.77" clip-path="url(#a)"/>
<path d="m401.01 21.818 219.03 110.03" clip-path="url(#a)"/>
<path d="m72.86 131.85-31.405 218.74" clip-path="url(#a)"/>
<path d="m72.86 131.85-18.104 218.74" clip-path="url(#a)"/>
<path d="m72.86 131.85-0.36947 218.74" clip-path="url(#a)"/>
<path d="m72.86 131.85 49.878 109.66" clip-path="url(#a)"/>
<path d="m187.76 350.59v107.59" clip-path="url(#a)"/>
<path d="m387.28 131.85-159.61 218.74" clip-path="url(#a)"/>
<path d="m387.28 131.85-115.27 218.74" clip-path="url(#a)"/>
<path d="m387.28 131.85-39.903 109.66" clip-path="url(#a)"/>
<path d="m387.28 131.85 106.41 218.74" clip-path="url(#a)"/>
<path d="m387.28 131.85 208.38 109.66" clip-path="url(#a)"/>
<path d="m431.61 350.59v107.59" clip-path="url(#a)"/>
<path d="m706.5 350.59v107.59" clip-path="url(#a)"/>
<path d="m620.04 131.85 166.26 218.74" clip-path="url(#a)"/>
<path d="m620.04 131.85-392.38 218.74" clip-path="url(#a)" stroke-dasharray="3.7,1.6"/>
<path d="m620.04 131.85-24.385 109.66" clip-path="url(#a)" stroke-dasharray="3.7,1.6"/>
<path d="m620.04 131.85 250.5 218.74" clip-path="url(#a)"/>
<path d="m786.31 350.59v107.59" clip-path="url(#a)"/>
<path d="m227.67 350.59v107.59" clip-path="url(#a)"/>
<path d="m272 350.59v107.59" clip-path="url(#a)"/>
<path d="m347.38 241.51-26.602 109.09" clip-path="url(#a)"/>
<path d="m347.38 241.51 26.602 109.09" clip-path="url(#a)"/>
<path d="m493.69 350.59v107.59" clip-path="url(#a)"/>
<path d="m595.66 241.51-35.469 109.09" clip-path="url(#a)"/>
<path d="m595.66 241.51 35.469 109.09" clip-path="url(#a)"/>
<path d="m560.19 350.59v107.59" clip-path="url(#a)"/>
<path d="m631.13 350.59v107.59" clip-path="url(#a)"/>
<path d="m320.77 350.59v107.59" clip-path="url(#a)"/>
<path d="m373.98 350.59v107.59" clip-path="url(#a)"/>
<path d="m41.455 350.59v107.59" clip-path="url(#a)"/>
<path d="m54.755 350.59v107.59" clip-path="url(#a)"/>
<path d="m72.49 350.59v107.59" clip-path="url(#a)"/>
<path d="m122.74 241.51-28.08 109.09" clip-path="url(#a)"/>
<path d="m122.74 241.51-1.4779 109.09" clip-path="url(#a)"/>
<path d="m122.74 241.51 29.558 109.09" clip-path="url(#a)"/>
<path d="m94.658 350.59v107.59" clip-path="url(#a)"/>
<path d="m121.26 350.59v107.59" clip-path="url(#a)"/>
<path d="m152.3 350.59v107.59" clip-path="url(#a)"/>
<path d="m870.55 350.59v107.59" clip-path="url(#a)"/>
</g>
<path d="m236.08 83.736 5.7041-1.9126q2.2755-0.76299 1.5125-3.0385l-2.4614-7.3408q-0.76299-2.2755-3.0385-1.5125l-5.7041 1.9126q-2.2755 0.76298-1.5125 3.0385l2.4614 7.3408q0.76299 2.2755 3.0385 1.5125z" clip-path="url(#a)" fill="#fff" stroke="#fff"/>
<g clip-path="url(#a)">
<defs>
<path id="u" d="m9.8125 72.906h9.8594v-29.891h35.844v29.891h9.8594v-72.906h-9.8594v34.719h-35.844v-34.719h-9.8594z"/>
</defs>
<g transform="translate(234.78 79.883) rotate(-18.537) scale(.08 -.08)">
<use xlink:href="#u"/>
</g>
</g>
<path d="m298.44 191.49 2.4256-3.7397q1.306-2.0135-0.70754-3.3195l-6.4958-4.2132q-2.0135-1.306-3.3195 0.70754l-2.4256 3.7397q-1.306 2.0135 0.70754 3.3195l6.4958 4.2132q2.0135 1.306 3.3195-0.70754z" clip-path="url(#a)" fill="#fff" stroke="#fff"/>
<g clip-path="url(#a)">
<defs>
<path id="t" d="m9.8125 72.906h9.8594v-64.609h35.5v-8.2969h-45.359z"/>
</defs>
<g transform="translate(295.03 189.28) rotate(-57.032) scale(.08 -.08)">
<use xlink:href="#t"/>
</g>
</g>
<path d="m399.99 80.595 0.74505-5.9699q0.29722-2.3815-2.0843-2.6787l-7.6829-0.95883q-2.3815-0.29722-2.6787 2.0843l-0.74505 5.9699q-0.29722 2.3815 2.0843 2.6787l7.6829 0.95883q2.3815 0.29722 2.6787-2.0843z" clip-path="url(#a)" fill="#fff" stroke="#fff"/>
<g clip-path="url(#a)">
<g transform="translate(395.96 80.092) rotate(-82.886) scale(.08 -.08)">
<use xlink:href="#u"/>
</g>
</g>
<path d="m409.86 184.57 0.41315 4.4383q0.22244 2.3897 2.6121 2.1672l7.7092-0.71762q2.3897-0.22245 2.1672-2.6121l-0.41315-4.4383q-0.22245-2.3897-2.6121-2.1672l-7.7092 0.71762q-2.3897 0.22245-2.1672 2.6121z" clip-path="url(#a)" fill="#fff" stroke="#fff"/>
<g clip-path="url(#a)">
<g transform="translate(413.91 184.19) rotate(84.682) scale(.08 -.08)">
<use xlink:href="#t"/>
</g>
</g>
<path d="m547.64 188.84 3.0342 3.2654q1.6337 1.7582 3.3918 0.12452l5.6719-5.2702q1.7582-1.6337 0.12452-3.3918l-3.0342-3.2654q-1.6337-1.7582-3.3918-0.12452l-5.6719 5.2702q-1.7582 1.6337-0.12452 3.3918z" clip-path="url(#a)" fill="#fff" stroke="#fff"/>
<g clip-path="url(#a)">
<g transform="translate(550.62 186.08) rotate(47.102) scale(.08 -.08)">
<use xlink:href="#t"/>
</g>
</g>
<path d="m505.02 81.087 5.376 2.7006q2.1446 1.0773 3.2219-1.0673l3.4755-6.9186q1.0773-2.1446-1.0673-3.2219l-5.376-2.7006q-2.1446-1.0773-3.2219 1.0673l-3.4755 6.9186q-1.0773 2.1446 1.0673 3.2219z" clip-path="url(#a)" fill="#fff" stroke="#fff"/>
<g clip-path="url(#a)">
<g transform="translate(506.85 77.456) rotate(26.673) scale(.08 -.08)">
<use xlink:href="#u"/>
</g>
</g>
<path d="m62.976 244.82 0.77771-5.417q0.34107-2.3756-2.0346-2.7167l-7.6639-1.1003q-2.3756-0.34107-2.7167 2.0346l-0.77771 5.417q-0.34107 2.3756 2.0346 2.7167l7.6639 1.1003q2.3756 0.34107 2.7167-2.0346z" clip-path="url(#a)" fill="#fff" stroke="#fff"/>
<g clip-path="url(#a)">
<defs>
<path id="n" d="m34.188 63.188-13.391-36.281h26.812zm-5.5781 9.7188h11.188l27.781-72.906h-10.25l-6.6406 18.703h-32.859l-6.6406-18.703h-10.406z"/>
</defs>
<g transform="translate(58.953 244.24) rotate(-81.83) scale(.08 -.08)">
<use xlink:href="#n"/>
</g>
</g>
<path d="m69.803 244.81 0.50809-6.139q0.19796-2.3918-2.1939-2.5898l-7.7161-0.63861q-2.3918-0.19796-2.5898 2.1939l-0.50809 6.139q-0.19796 2.3918 2.1939 2.5898l7.7161 0.63862q2.3918 0.19796 2.5898-2.1939z" clip-path="url(#a)" fill="#fff" stroke="#fff"/>
<g clip-path="url(#a)">
<defs>
<path id="v" d="m19.672 64.797v-56.688h11.922q15.094 0 22.094 6.8281 7 6.8438 7 21.594 0 14.641-7 21.453t-22.094 6.8125zm-9.8594 8.1094h20.266q21.188 0 31.094-8.8125 9.9219-8.8125 9.9219-27.562 0-18.859-9.9688-27.703-9.9531-8.8281-31.047-8.8281h-20.266z"/>
</defs>
<g transform="translate(65.753 244.47) rotate(-85.269) scale(.08 -.08)">
<use xlink:href="#v"/>
</g>
</g>
<path d="m78.942 243.64 0.008148-4.8237q0.004054-2.4-2.3959-2.404l-7.7425-0.013077q-2.4-0.004054-2.404 2.3959l-0.008148 4.8237q-0.004053 2.4 2.3959 2.4041l7.7425 0.013077q2.4 0.004054 2.404-2.3959z" clip-path="url(#a)" fill="#fff" stroke="#fff"/>
<g clip-path="url(#a)">
<defs>
<path id="af" d="m19.672 64.797v-27.391h12.406q6.8906 0 10.641 3.5625 3.7656 3.5625 3.7656 10.156 0 6.5469-3.7656 10.109-3.75 3.5625-10.641 3.5625zm-9.8594 8.1094h22.266q12.266 0 18.531-5.5469 6.2812-5.5469 6.2812-16.234 0-10.797-6.2812-16.312-6.2656-5.5156-18.531-5.5156h-12.406v-29.297h-9.8594z"/>
</defs>
<g transform="translate(74.878 243.64) rotate(-89.903) scale(.08 -.08)">
<use xlink:href="#af"/>
</g>
</g>
<path d="m90.957 186.78 2.2658 4.9814q0.99369 2.1846 3.1783 1.1909l7.0477-3.2057q2.1846-0.99369 1.1909-3.1783l-2.2658-4.9814q-0.99369-2.1846-3.1783-1.1909l-7.0477 3.2057q-2.1846 0.99369-1.1909 3.1783z" clip-path="url(#a)" fill="#fff" stroke="#fff"/>
<g clip-path="url(#a)">
<g transform="translate(94.656 185.1) rotate(65.541) scale(.08 -.08)">
<use xlink:href="#n"/>
</g>
</g>
<path d="m181.49 387.48v33.808q0 2.4 2.4 2.4h7.7425q2.4 0 2.4-2.4v-33.808q0-2.4-2.4-2.4h-7.7425q-2.4 0-2.4 2.4z" clip-path="url(#a)" fill="#fff" stroke="#fff"/>
<g clip-path="url(#a)">
<defs>
<path id="l" d="m-0.29688 72.906h61.672v-8.3125h-25.875v-64.594h-9.9062v64.594h-25.891z"/>
<path id="e" d="m56.203 29.594v-4.3906h-41.312q0.59375-9.2812 5.5938-14.141t13.938-4.8594q5.1719 0 10.031 1.2656t9.6562 3.8125v-8.5q-4.8438-2.0469-9.9219-3.125t-10.297-1.0781q-13.094 0-20.734 7.6094-7.6406 7.625-7.6406 20.625 0 13.422 7.25 21.297 7.25 7.8906 19.562 7.8906 11.031 0 17.453-7.1094 6.4219-7.0938 6.4219-19.297zm-8.9844 2.6406q-0.09375 7.3594-4.125 11.75-4.0312 4.4062-10.672 4.4062-7.5156 0-12.031-4.25t-5.2031-11.969z"/>
<path id="i" d="m41.109 46.297q-1.5156 0.875-3.2969 1.2812-1.7812 0.42188-3.9219 0.42188-7.625 0-11.703-4.9531t-4.0781-14.234v-28.812h-9.0312v54.688h9.0312v-8.5q2.8438 4.9844 7.375 7.3906 4.5469 2.4219 11.047 2.4219 0.92188 0 2.0469-0.125 1.125-0.10938 2.4844-0.35938z"/>
<path id="j" d="m52 44.188q3.375 6.0625 8.0625 8.9375t11.031 2.875q8.5469 0 13.188-5.9844 4.6406-5.9688 4.6406-17v-33.016h-9.0312v32.719q0 7.8594-2.7969 11.656-2.7812 3.8125-8.4844 3.8125-6.9844 0-11.047-4.6406-4.0469-4.625-4.0469-12.641v-30.906h-9.0312v32.719q0 7.9062-2.7812 11.688t-8.5938 3.7812q-6.8906 0-10.953-4.6562-4.0469-4.6562-4.0469-12.625v-30.906h-9.0312v54.688h9.0312v-8.5q3.0781 5.0312 7.375 7.4219t10.203 2.3906q5.9688 0 10.141-3.0312 4.1719-3.0156 6.1719-8.7812z"/>
<path id="k" d="m9.4219 54.688h8.9844v-54.688h-8.9844zm0 21.297h8.9844v-11.391h-8.9844z"/>
<path id="g" d="m54.891 33.016v-33.016h-8.9844v32.719q0 7.7656-3.0312 11.609-3.0312 3.8594-9.0781 3.8594-7.2812 0-11.484-4.6406-4.2031-4.625-4.2031-12.641v-30.906h-9.0312v54.688h9.0312v-8.5q3.2344 4.9375 7.5938 7.375 4.375 2.4375 10.094 2.4375 9.4219 0 14.25-5.8281 4.8438-5.8281 4.8438-17.156z"/>
<path id="d" d="m34.281 27.484q-10.891 0-15.094-2.4844t-4.2031-8.5q0-4.7812 3.1562-7.5938 3.1562-2.7969 8.5625-2.7969 7.4844 0 12 5.2969t4.5156 14.078v2zm17.922 3.7188v-31.203h-8.9844v8.2969q-3.0781-4.9688-7.6719-7.3438t-11.234-2.375q-8.3906 0-13.359 4.7188-4.9531 4.7188-4.9531 12.625 0 9.2188 6.1719 13.906 6.1875 4.6875 18.438 4.6875h12.609v0.89062q0 6.2031-4.0781 9.5938t-11.453 3.3906q-4.6875 0-9.1406-1.125-4.4375-1.125-8.5312-3.375v8.3125q4.9219 1.9062 9.5625 2.8438 4.6406 0.95312 9.0312 0.95312 11.875 0 17.734-6.1562 5.8594-6.1406 5.8594-18.641z"/>
<path id="h" d="m9.4219 75.984h8.9844v-75.984h-8.9844z"/>
</defs>
<g transform="translate(185.56 387.48) rotate(90) scale(.08 -.08)">
<use xlink:href="#l"/>
<use x="44.083984" xlink:href="#e"/>
<use x="105.607422" xlink:href="#i"/>
<use x="144.970703" xlink:href="#j"/>
<use x="242.382812" xlink:href="#k"/>
<use x="270.166016" xlink:href="#g"/>
<use x="333.544922" xlink:href="#d"/>
<use x="394.824219" xlink:href="#h"/>
</g>
</g>
<path d="m310.93 247.13 3.2257-4.4208q1.4147-1.9388-0.5241-3.3534l-6.2545-4.5637q-1.9388-1.4147-3.3534 0.5241l-3.2257 4.4208q-1.4147 1.9388 0.5241 3.3534l6.2545 4.5637q1.9388 1.4147 3.3534-0.5241z" clip-path="url(#a)" fill="#fff" stroke="#fff"/>
<g clip-path="url(#a)">
<g transform="translate(307.64 244.73) rotate(-53.883) scale(.08 -.08)">
<use xlink:href="#n"/>
</g>
</g>
<path d="m333.75 246.87 2.8719-5.4496q1.1189-2.1232-1.0043-3.2421l-6.8496-3.6096q-2.1232-1.1189-3.2421 1.0043l-2.8719 5.4496q-1.1189 2.1232 1.0043 3.2421l6.8496 3.6096q2.1232 1.1189 3.2421-1.0043z" clip-path="url(#a)" fill="#fff" stroke="#fff"/>
<g clip-path="url(#a)">
<g transform="translate(330.16 244.97) rotate(-62.211) scale(.08 -.08)">
<use xlink:href="#v"/>
</g>
</g>
<path d="m372.4 191.09 1.6495-4.533q0.82068-2.2553-1.4346-3.076l-7.2758-2.6475q-2.2553-0.82068-3.076 1.4346l-1.6495 4.533q-0.82068 2.2553 1.4346 3.076l7.2758 2.6475q2.2553 0.82068 3.076-1.4346z" clip-path="url(#a)" fill="#fff" stroke="#fff"/>
<g clip-path="url(#a)">
<g transform="translate(368.58 189.7) rotate(-70.004) scale(.08 -.08)">
<use xlink:href="#af"/>
</g>
</g>
<path d="m433.5 241.19 2.6946 5.5394q1.0499 2.1582 3.208 1.1083l6.9624-3.3869q2.1582-1.0499 1.1083-3.208l-2.6946-5.5394q-1.0498-2.1582-3.208-1.1083l-6.9624 3.3869q-2.1582 1.0499-1.1083 3.208z" clip-path="url(#a)" fill="#fff" stroke="#fff"/>
<g clip-path="url(#a)">
<g transform="translate(437.15 239.42) rotate(64.059) scale(.08 -.08)">
<use xlink:href="#v"/>
</g>
</g>
<path d="m486.13 190.95 4.8429 2.5485q2.1239 1.1177 3.2415-1.0062l3.6056-6.8517q1.1177-2.1239-1.0062-3.2415l-4.8429-2.5485q-2.1239-1.1177-3.2415 1.0062l-3.6056 6.8517q-1.1177 2.1239 1.0062 3.2415z" clip-path="url(#a)" fill="#fff" stroke="#fff"/>
<g clip-path="url(#a)">
<g transform="translate(488.02 187.36) rotate(27.755) scale(.08 -.08)">
<use xlink:href="#n"/>
</g>
</g>
<path d="m425.34 387.48v33.808q0 2.4 2.4 2.4h7.7425q2.4 0 2.4-2.4v-33.808q0-2.4-2.4-2.4h-7.7425q-2.4 0-2.4 2.4z" clip-path="url(#a)" fill="#fff" stroke="#fff"/>
<g clip-path="url(#a)">
<g transform="translate(429.41 387.48) rotate(90) scale(.08 -.08)">
<use xlink:href="#l"/>
<use x="44.083984" xlink:href="#e"/>
<use x="105.607422" xlink:href="#i"/>
<use x="144.970703" xlink:href="#j"/>
<use x="242.382812" xlink:href="#k"/>
<use x="270.166016" xlink:href="#g"/>
<use x="333.544922" xlink:href="#d"/>
<use x="394.824219" xlink:href="#h"/>
</g>
</g>
<path d="m700.23 387.48v33.808q0 2.4 2.4 2.4h7.7425q2.4 0 2.4-2.4v-33.808q0-2.4-2.4-2.4h-7.7425q-2.4 0-2.4 2.4z" clip-path="url(#a)" fill="#fff" stroke="#fff"/>
<g clip-path="url(#a)">
<g transform="translate(704.29 387.48) rotate(90) scale(.08 -.08)">
<use xlink:href="#l"/>
<use x="44.083984" xlink:href="#e"/>
<use x="105.607422" xlink:href="#i"/>
<use x="144.970703" xlink:href="#j"/>
<use x="242.382812" xlink:href="#k"/>
<use x="270.166016" xlink:href="#g"/>
<use x="333.544922" xlink:href="#d"/>
<use x="394.824219" xlink:href="#h"/>
</g>
</g>
<path d="m696.65 242.99 3.0733 4.0434q1.4523 1.9107 3.363 0.45843l6.1641-4.6852q1.9107-1.4523 0.45843-3.363l-3.0733-4.0434q-1.4523-1.9107-3.363-0.45843l-6.1641 4.6852q-1.9107 1.4523-0.45843 3.363z" clip-path="url(#a)" fill="#fff" stroke="#fff"/>
<g clip-path="url(#a)">
<defs>
<path id="al" d="m53.516 70.516v-9.625q-5.6094 2.6875-10.594 4-4.9844 1.3281-9.625 1.3281-8.0469 0-12.422-3.125t-4.375-8.8906q0-4.8438 2.9062-7.3125 2.9062-2.4531 11.016-3.9688l5.9531-1.2188q11.031-2.1094 16.281-7.4062t5.25-14.172q0-10.609-7.1094-16.078-7.0938-5.4688-20.812-5.4688-5.1719 0-11.016 1.1719-5.8281 1.1719-12.078 3.4688v10.156q6-3.3594 11.766-5.0781 5.7656-1.7031 11.328-1.7031 8.4375 0 13.031 3.3125 4.5938 3.3281 4.5938 9.4844 0 5.3594-3.2969 8.3906t-10.812 4.5469l-6.0156 1.1719q-11.031 2.1875-15.969 6.875-4.9219 4.6875-4.9219 13.047 0 9.6719 6.8125 15.234t18.766 5.5625q5.1406 0 10.453-0.9375 5.3281-0.92188 10.891-2.7656z"/>
</defs>
<g transform="translate(699.88 240.54) rotate(52.762) scale(.08 -.08)">
<use xlink:href="#al"/>
</g>
</g>
<path d="m424.52 248.03 4.7799-2.6647q2.0963-1.1686 0.92763-3.2649l-3.77-6.7626q-1.1686-2.0963-3.2649-0.92763l-4.7799 2.6647q-2.0963 1.1686-0.92763 3.2649l3.77 6.7626q1.1686 2.0963 3.2649 0.92763z" clip-path="url(#a)" fill="#fff" stroke="#fff"/>
<g clip-path="url(#a)">
<g transform="translate(422.54 244.48) rotate(-29.139) scale(.08 -.08)">
<use xlink:href="#n"/>
</g>
</g>
<path d="m613.38 190.71 1.1879-5.342q0.52097-2.3428-1.8218-2.8637l-7.5579-1.6807q-2.3428-0.52097-2.8637 1.8218l-1.1879 5.342q-0.52097 2.3428 1.8218 2.8637l7.5579 1.6807q2.3428 0.52097 2.8637-1.8218z" clip-path="url(#a)" fill="#fff" stroke="#fff"/>
<g clip-path="url(#a)">
<g transform="translate(609.41 189.83) rotate(-77.463) scale(.08 -.08)">
<use xlink:href="#n"/>
</g>
</g>
<path d="m738.97 244.02 4.4102 3.8511q1.8078 1.5786 3.3864-0.22918l5.0926-5.832q1.5786-1.8078-0.22918-3.3864l-4.4102-3.8511q-1.8078-1.5786-3.3864 0.22918l-5.0926 5.832q-1.5786 1.8078 0.22918 3.3864z" clip-path="url(#a)" fill="#fff" stroke="#fff"/>
<g clip-path="url(#a)">
<defs>
<path id="ak" d="m8.6875 72.906h9.9219v-44.297q0-11.719 4.2344-16.875 4.25-5.1406 13.781-5.1406 9.4688 0 13.719 5.1406 4.25 5.1562 4.25 16.875v44.297h9.9062v-45.516q0-14.25-7.0625-21.531-7.0469-7.2812-20.812-7.2812-13.828 0-20.891 7.2812-7.0469 7.2812-7.0469 21.531z"/>
</defs>
<g transform="translate(741.64 240.96) rotate(41.128) scale(.08 -.08)">
<use xlink:href="#ak"/>
</g>
</g>
<path d="m780.04 387.48v33.808q0 2.4 2.4 2.4h7.7425q2.4 0 2.4-2.4v-33.808q0-2.4-2.4-2.4h-7.7425q-2.4 0-2.4 2.4z" clip-path="url(#a)" fill="#fff" stroke="#fff"/>
<g clip-path="url(#a)">
<g transform="translate(784.1 387.48) rotate(90) scale(.08 -.08)">
<use xlink:href="#l"/>
<use x="44.083984" xlink:href="#e"/>
<use x="105.607422" xlink:href="#i"/>
<use x="144.970703" xlink:href="#j"/>
<use x="242.382812" xlink:href="#k"/>
<use x="270.166016" xlink:href="#g"/>
<use x="333.544922" xlink:href="#d"/>
<use x="394.824219" xlink:href="#h"/>
</g>
</g>
<path d="m221.4 387.48v33.808q0 2.4 2.4 2.4h7.7425q2.4 0 2.4-2.4v-33.808q0-2.4-2.4-2.4h-7.7425q-2.4 0-2.4 2.4z" clip-path="url(#a)" fill="#fff" stroke="#fff"/>
<g clip-path="url(#a)">
<g transform="translate(225.46 387.48) rotate(90) scale(.08 -.08)">
<use xlink:href="#l"/>
<use x="44.083984" xlink:href="#e"/>
<use x="105.607422" xlink:href="#i"/>
<use x="144.970703" xlink:href="#j"/>
<use x="242.382812" xlink:href="#k"/>
<use x="270.166016" xlink:href="#g"/>
<use x="333.544922" xlink:href="#d"/>
<use x="394.824219" xlink:href="#h"/>
</g>
</g>
<path d="m265.73 387.48v33.808q0 2.4 2.4 2.4h7.7425q2.4 0 2.4-2.4v-33.808q0-2.4-2.4-2.4h-7.7425q-2.4 0-2.4 2.4z" clip-path="url(#a)" fill="#fff" stroke="#fff"/>
<g clip-path="url(#a)">
<g transform="translate(269.8 387.48) rotate(90) scale(.08 -.08)">
<use xlink:href="#l"/>
<use x="44.083984" xlink:href="#e"/>
<use x="105.607422" xlink:href="#i"/>
<use x="144.970703" xlink:href="#j"/>
<use x="242.382812" xlink:href="#k"/>
<use x="270.166016" xlink:href="#g"/>
<use x="333.544922" xlink:href="#d"/>
<use x="394.824219" xlink:href="#h"/>
</g>
</g>
<path d="m339.62 299.77 1.0901-4.4702q0.56861-2.3317-1.7631-2.9003l-7.5221-1.8343q-2.3317-0.56861-2.9003 1.7631l-1.0901 4.4702q-0.56861 2.3317 1.7631 2.9003l7.5221 1.8343q2.3317 0.56861 2.9003-1.7631z" clip-path="url(#a)" fill="#fff" stroke="#fff"/>
<g clip-path="url(#a)">
<defs>
<path id="ao" d="m9.8125 72.906h41.891v-8.3125h-32.031v-21.484h28.906v-8.2969h-28.906v-34.812h-9.8594z"/>
</defs>
<g transform="translate(335.67 298.81) rotate(-76.295) scale(.08 -.08)">
<use xlink:href="#ao"/>
</g>
</g>
<path d="m353.92 294.82 1.3235 5.4272q0.56861 2.3317 2.9003 1.7631l7.5221-1.8343q2.3317-0.56861 1.7631-2.9003l-1.3235-5.4272q-0.56861-2.3317-2.9003-1.7631l-7.5221 1.8343q-2.3317 0.56861-1.7631 2.9003z" clip-path="url(#a)" fill="#fff" stroke="#fff"/>
<g clip-path="url(#a)">
<defs>
<path id="r" d="m64.406 67.281v-10.391q-4.9844 4.6406-10.625 6.9219-5.6406 2.2969-11.984 2.2969-12.5 0-19.141-7.6406t-6.6406-22.094q0-14.406 6.6406-22.047t19.141-7.6406q6.3438 0 11.984 2.2969t10.625 6.9375v-10.312q-5.1719-3.5156-10.969-5.2812-5.7812-1.75-12.219-1.75-16.562 0-26.094 10.125-9.5156 10.141-9.5156 27.672 0 17.578 9.5156 27.703 9.5312 10.141 26.094 10.141 6.5312 0 12.312-1.7344 5.7969-1.7344 10.875-5.2031z"/>
</defs>
<g transform="translate(357.87 293.86) rotate(76.295) scale(.08 -.08)">
<use xlink:href="#r"/>
</g>
</g>
<path d="m487.41 387.48v33.808q0 2.4 2.4 2.4h7.7425q2.4 0 2.4-2.4v-33.808q0-2.4-2.4-2.4h-7.7425q-2.4 0-2.4 2.4z" clip-path="url(#a)" fill="#fff" stroke="#fff"/>
<g clip-path="url(#a)">
<g transform="translate(491.48 387.48) rotate(90) scale(.08 -.08)">
<use xlink:href="#l"/>
<use x="44.083984" xlink:href="#e"/>
<use x="105.607422" xlink:href="#i"/>
<use x="144.970703" xlink:href="#j"/>
<use x="242.382812" xlink:href="#k"/>
<use x="270.166016" xlink:href="#g"/>
<use x="333.544922" xlink:href="#d"/>
<use x="394.824219" xlink:href="#h"/>
</g>
</g>
<path d="m583.03 300.63 1.7188-5.2863q0.74212-2.2824-1.5403-3.0245l-7.3631-2.3941q-2.2824-0.74212-3.0245 1.5403l-1.7188 5.2863q-0.74211 2.2824 1.5403 3.0245l7.3631 2.3941q2.2824 0.74212 3.0245-1.5403z" clip-path="url(#a)" fill="#fff" stroke="#fff"/>
<g clip-path="url(#a)">
<defs>
<path id="ae" d="m44.391 34.188q3.1719-1.0781 6.1719-4.5938t6.0312-9.6719l10.016-19.922h-10.609l-9.3125 18.703q-3.625 7.3281-7.0156 9.7188t-9.25 2.3906h-10.75v-30.812h-9.8594v72.906h22.266q12.5 0 18.656-5.2344 6.1562-5.2188 6.1562-15.766 0-6.8906-3.2031-11.438-3.2031-4.5312-9.2969-6.2812zm-24.719 30.609v-25.875h12.406q7.125 0 10.766 3.2969t3.6406 9.6875-3.6406 9.6406-10.766 3.25z"/>
</defs>
<g transform="translate(579.17 299.38) rotate(-71.988) scale(.08 -.08)">
<use xlink:href="#ae"/>
</g>
</g>
<path d="m606.57 295.33 1.7273 5.3125q0.74212 2.2824 3.0245 1.5403l7.3631-2.3941q2.2824-0.74212 1.5403-3.0245l-1.7273-5.3125q-0.74212-2.2824-3.0245-1.5403l-7.3631 2.3941q-2.2824 0.74212-1.5403 3.0245z" clip-path="url(#a)" fill="#fff" stroke="#fff"/>
<g clip-path="url(#a)">
<g transform="translate(610.43 294.08) rotate(71.988) scale(.08 -.08)">
<use xlink:href="#r"/>
</g>
</g>
<path d="m553.92 387.48v33.808q0 2.4 2.4 2.4h7.7425q2.4 0 2.4-2.4v-33.808q0-2.4-2.4-2.4h-7.7425q-2.4 0-2.4 2.4z" clip-path="url(#a)" fill="#fff" stroke="#fff"/>
<g clip-path="url(#a)">
<g transform="translate(557.98 387.48) rotate(90) scale(.08 -.08)">
<use xlink:href="#l"/>
<use x="44.083984" xlink:href="#e"/>
<use x="105.607422" xlink:href="#i"/>
<use x="144.970703" xlink:href="#j"/>
<use x="242.382812" xlink:href="#k"/>
<use x="270.166016" xlink:href="#g"/>
<use x="333.544922" xlink:href="#d"/>
<use x="394.824219" xlink:href="#h"/>
</g>
</g>
<path d="m624.86 387.48v33.808q0 2.4 2.4 2.4h7.7425q2.4 0 2.4-2.4v-33.808q0-2.4-2.4-2.4h-7.7425q-2.4 0-2.4 2.4z" clip-path="url(#a)" fill="#fff" stroke="#fff"/>
<g clip-path="url(#a)">
<g transform="translate(628.92 387.48) rotate(90) scale(.08 -.08)">
<use xlink:href="#l"/>
<use x="44.083984" xlink:href="#e"/>
<use x="105.607422" xlink:href="#i"/>
<use x="144.970703" xlink:href="#j"/>
<use x="242.382812" xlink:href="#k"/>
<use x="270.166016" xlink:href="#g"/>
<use x="333.544922" xlink:href="#d"/>
<use x="394.824219" xlink:href="#h"/>
</g>
</g>
<path d="m314.5 387.48v33.808q0 2.4 2.4 2.4h7.7425q2.4 0 2.4-2.4v-33.808q0-2.4-2.4-2.4h-7.7425q-2.4 0-2.4 2.4z" clip-path="url(#a)" fill="#fff" stroke="#fff"/>
<g clip-path="url(#a)">
<g transform="translate(318.57 387.48) rotate(90) scale(.08 -.08)">
<use xlink:href="#l"/>
<use x="44.083984" xlink:href="#e"/>
<use x="105.607422" xlink:href="#i"/>
<use x="144.970703" xlink:href="#j"/>
<use x="242.382812" xlink:href="#k"/>
<use x="270.166016" xlink:href="#g"/>
<use x="333.544922" xlink:href="#d"/>
<use x="394.824219" xlink:href="#h"/>
</g>
</g>
<path d="m367.71 387.48v33.808q0 2.4 2.4 2.4h7.7425q2.4 0 2.4-2.4v-33.808q0-2.4-2.4-2.4h-7.7425q-2.4 0-2.4 2.4z" clip-path="url(#a)" fill="#fff" stroke="#fff"/>
<g clip-path="url(#a)">
<g transform="translate(371.77 387.48) rotate(90) scale(.08 -.08)">
<use xlink:href="#l"/>
<use x="44.083984" xlink:href="#e"/>
<use x="105.607422" xlink:href="#i"/>
<use x="144.970703" xlink:href="#j"/>
<use x="242.382812" xlink:href="#k"/>
<use x="270.166016" xlink:href="#g"/>
<use x="333.544922" xlink:href="#d"/>
<use x="394.824219" xlink:href="#h"/>
</g>
</g>
<path d="m35.183 387.48v33.808q0 2.4 2.4 2.4h7.7425q2.4 0 2.4-2.4v-33.808q0-2.4-2.4-2.4h-7.7425q-2.4 0-2.4 2.4z" clip-path="url(#a)" fill="#fff" stroke="#fff"/>
<g clip-path="url(#a)">
<g transform="translate(39.247 387.48) rotate(90) scale(.08 -.08)">
<use xlink:href="#l"/>
<use x="44.083984" xlink:href="#e"/>
<use x="105.607422" xlink:href="#i"/>
<use x="144.970703" xlink:href="#j"/>
<use x="242.382812" xlink:href="#k"/>
<use x="270.166016" xlink:href="#g"/>
<use x="333.544922" xlink:href="#d"/>
<use x="394.824219" xlink:href="#h"/>
</g>
</g>
<path d="m48.484 387.48v33.808q0 2.4 2.4 2.4h7.7425q2.4 0 2.4-2.4v-33.808q0-2.4-2.4-2.4h-7.7425q-2.4 0-2.4 2.4z" clip-path="url(#a)" fill="#fff" stroke="#fff"/>
<g clip-path="url(#a)">
<g transform="translate(52.548 387.48) rotate(90) scale(.08 -.08)">
<use xlink:href="#l"/>
<use x="44.083984" xlink:href="#e"/>
<use x="105.607422" xlink:href="#i"/>
<use x="144.970703" xlink:href="#j"/>
<use x="242.382812" xlink:href="#k"/>
<use x="270.166016" xlink:href="#g"/>
<use x="333.544922" xlink:href="#d"/>
<use x="394.824219" xlink:href="#h"/>
</g>
</g>
<path d="m66.219 387.48v33.808q0 2.4 2.4 2.4h7.7425q2.4 0 2.4-2.4v-33.808q0-2.4-2.4-2.4h-7.7425q-2.4 0-2.4 2.4z" clip-path="url(#a)" fill="#fff" stroke="#fff"/>
<g clip-path="url(#a)">
<g transform="translate(70.283 387.48) rotate(90) scale(.08 -.08)">
<use xlink:href="#l"/>
<use x="44.083984" xlink:href="#e"/>
<use x="105.607422" xlink:href="#i"/>
<use x="144.970703" xlink:href="#j"/>
<use x="242.382812" xlink:href="#k"/>
<use x="270.166016" xlink:href="#g"/>
<use x="333.544922" xlink:href="#d"/>
<use x="394.824219" xlink:href="#h"/>
</g>
</g>
<path d="m114.08 300.32 1.3926-5.4099q0.59828-2.3242-1.726-2.9225l-7.4981-1.9301q-2.3242-0.59828-2.9225 1.726l-1.3926 5.4099q-0.59828 2.3242 1.726 2.9225l7.4981 1.9301q2.3242 0.59828 2.9225-1.726z" clip-path="url(#a)" fill="#fff" stroke="#fff"/>
<g clip-path="url(#a)">
<g transform="translate(110.14 299.31) rotate(-75.565) scale(.08 -.08)">
<use xlink:href="#r"/>
</g>
</g>
<path d="m128.23 298.91 0.075302-5.5582q0.032512-2.3998-2.3673-2.4323l-7.7418-0.10488q-2.3998-0.032512-2.4323 2.3673l-0.075302 5.5582q-0.032512 2.3998 2.3673 2.4323l7.7418 0.10488q2.3998 0.032512 2.4323-2.3673z" clip-path="url(#a)" fill="#fff" stroke="#fff"/>
<g clip-path="url(#a)">
<g transform="translate(124.17 298.86) rotate(-89.224) scale(.08 -.08)">
<use xlink:href="#ae"/>
</g>
</g>
<path d="m130.73 294.99 1.461 5.3918q0.62767 2.3165 2.9441 1.6888l7.473-2.0249q2.3165-0.62766 1.6888-2.9441l-1.461-5.3918q-0.62767-2.3165-2.9441-1.6888l-7.473 2.0249q-2.3165 0.62767-1.6888 2.9441z" clip-path="url(#a)" fill="#fff" stroke="#fff"/>
<g clip-path="url(#a)">
<g transform="translate(134.66 293.93) rotate(74.839) scale(.08 -.08)">
<use xlink:href="#r"/>
</g>
</g>
<path d="m88.387 387.48v33.808q0 2.4 2.4 2.4h7.7425q2.4 0 2.4-2.4v-33.808q0-2.4-2.4-2.4h-7.7425q-2.4 0-2.4 2.4z" clip-path="url(#a)" fill="#fff" stroke="#fff"/>
<g clip-path="url(#a)">
<g transform="translate(92.451 387.48) rotate(90) scale(.08 -.08)">
<use xlink:href="#l"/>
<use x="44.083984" xlink:href="#e"/>
<use x="105.607422" xlink:href="#i"/>
<use x="144.970703" xlink:href="#j"/>
<use x="242.382812" xlink:href="#k"/>
<use x="270.166016" xlink:href="#g"/>
<use x="333.544922" xlink:href="#d"/>
<use x="394.824219" xlink:href="#h"/>
</g>
</g>
<path d="m114.99 387.48v33.808q0 2.4 2.4 2.4h7.7425q2.4 0 2.4-2.4v-33.808q0-2.4-2.4-2.4h-7.7425q-2.4 0-2.4 2.4z" clip-path="url(#a)" fill="#fff" stroke="#fff"/>
<g clip-path="url(#a)">
<g transform="translate(119.05 387.48) rotate(90) scale(.08 -.08)">
<use xlink:href="#l"/>
<use x="44.083984" xlink:href="#e"/>
<use x="105.607422" xlink:href="#i"/>
<use x="144.970703" xlink:href="#j"/>
<use x="242.382812" xlink:href="#k"/>
<use x="270.166016" xlink:href="#g"/>
<use x="333.544922" xlink:href="#d"/>
<use x="394.824219" xlink:href="#h"/>
</g>
</g>
<path d="m146.02 387.48v33.808q0 2.4 2.4 2.4h7.7425q2.4 0 2.4-2.4v-33.808q0-2.4-2.4-2.4h-7.7425q-2.4 0-2.4 2.4z" clip-path="url(#a)" fill="#fff" stroke="#fff"/>
<g clip-path="url(#a)">
<g transform="translate(150.09 387.48) rotate(90) scale(.08 -.08)">
<use xlink:href="#l"/>
<use x="44.083984" xlink:href="#e"/>
<use x="105.607422" xlink:href="#i"/>
<use x="144.970703" xlink:href="#j"/>
<use x="242.382812" xlink:href="#k"/>
<use x="270.166016" xlink:href="#g"/>
<use x="333.544922" xlink:href="#d"/>
<use x="394.824219" xlink:href="#h"/>
</g>
</g>
<path d="m864.27 387.48v33.808q0 2.4 2.4 2.4h7.7425q2.4 0 2.4-2.4v-33.808q0-2.4-2.4-2.4h-7.7425q-2.4 0-2.4 2.4z" clip-path="url(#a)" fill="#fff" stroke="#fff"/>
<g clip-path="url(#a)">
<g transform="translate(868.34 387.48) rotate(90) scale(.08 -.08)">
<use xlink:href="#l"/>
<use x="44.083984" xlink:href="#e"/>
<use x="105.607422" xlink:href="#i"/>
<use x="144.970703" xlink:href="#j"/>
<use x="242.382812" xlink:href="#k"/>
<use x="270.166016" xlink:href="#g"/>
<use x="333.544922" xlink:href="#d"/>
<use x="394.824219" xlink:href="#h"/>
</g>
</g>
<defs>
<path id="b" d="m0 8.6603c2.2967 0 4.4997-0.9125 6.1237-2.5365 1.624-1.624 2.5365-3.827 2.5365-6.1237s-0.9125-4.4997-2.5365-6.1237c-1.624-1.624-3.827-2.5365-6.1237-2.5365s-4.4997 0.9125-6.1237 2.5365c-1.624 1.624-2.5365 3.827-2.5365 6.1237s0.9125 4.4997 2.5365 6.1237c1.624 1.624 3.827 2.5365 6.1237 2.5365z"/>
</defs>
<g clip-path="url(#a)">
<use x="41.454545" y="458.181818" fill="#ffffff" stroke="#ffffff" xlink:href="#b"/>
</g>
<g clip-path="url(#a)">
<use x="54.755469" y="458.181818" fill="#ffffff" stroke="#ffffff" xlink:href="#b"/>
</g>
<g clip-path="url(#a)">
<use x="72.490034" y="458.181818" fill="#ffffff" stroke="#ffffff" xlink:href="#b"/>
</g>
<g clip-path="url(#a)">
<use x="94.65824" y="458.181818" fill="#ffffff" stroke="#ffffff" xlink:href="#b"/>
</g>
<g clip-path="url(#a)">
<use x="121.260088" y="458.181818" fill="#ffffff" stroke="#ffffff" xlink:href="#b"/>
</g>
<g clip-path="url(#a)">
<use x="152.295576" y="458.181818" fill="#ffffff" stroke="#ffffff" xlink:href="#b"/>
</g>
<g clip-path="url(#a)">
<use x="187.764706" y="458.181818" fill="#ffffff" stroke="#ffffff" xlink:href="#b"/>
</g>
<g clip-path="url(#a)">
<use x="227.667477" y="458.181818" fill="#ffffff" stroke="#ffffff" xlink:href="#b"/>
</g>
<g clip-path="url(#a)">
<use x="272.003889" y="458.181818" fill="#ffffff" stroke="#ffffff" xlink:href="#b"/>
</g>
<g clip-path="url(#a)">
<use x="320.773943" y="458.181818" fill="#ffffff" stroke="#ffffff" xlink:href="#b"/>
</g>
<g clip-path="url(#a)">
<use x="373.977637" y="458.181818" fill="#ffffff" stroke="#ffffff" xlink:href="#b"/>
</g>
<g clip-path="url(#a)">
<use x="431.614973" y="458.181818" fill="#ffffff" stroke="#ffffff" xlink:href="#b"/>
</g>
<g clip-path="url(#a)">
<use x="493.68595" y="458.181818" fill="#ffffff" stroke="#ffffff" xlink:href="#b"/>
</g>
<g clip-path="url(#a)">
<use x="560.190569" y="458.181818" fill="#ffffff" stroke="#ffffff" xlink:href="#b"/>
</g>
<g clip-path="url(#a)">
<use x="631.128828" y="458.181818" fill="#ffffff" stroke="#ffffff" xlink:href="#b"/>
</g>
<g clip-path="url(#a)">
<use x="706.500729" y="458.181818" fill="#ffffff" stroke="#ffffff" xlink:href="#b"/>
</g>
<g clip-path="url(#a)">
<use x="786.306271" y="458.181818" fill="#ffffff" stroke="#ffffff" xlink:href="#b"/>
</g>
<g clip-path="url(#a)">
<use x="870.545455" y="458.181818" fill="#ffffff" stroke="#ffffff" xlink:href="#b"/>
</g>
<g clip-path="url(#a)">
<use x="401.010533" y="21.818182" fill="#ffffff" stroke="#ffffff" xlink:href="#b"/>
</g>
<g clip-path="url(#a)">
<use x="72.859504" y="131.849243" fill="#ffffff" stroke="#ffffff" xlink:href="#b"/>
</g>
<g clip-path="url(#a)">
<use x="187.764706" y="350.592796" fill="#ffffff" stroke="#ffffff" xlink:href="#b"/>
</g>
<g clip-path="url(#a)">
<use x="387.278561" y="131.849243" fill="#ffffff" stroke="#ffffff" xlink:href="#b"/>
</g>
<g clip-path="url(#a)">
<use x="431.614973" y="350.592796" fill="#ffffff" stroke="#ffffff" xlink:href="#b"/>
</g>
<g clip-path="url(#a)">
<use x="706.500729" y="350.592796" fill="#ffffff" stroke="#ffffff" xlink:href="#b"/>
</g>
<g clip-path="url(#a)">
<use x="620.044725" y="131.849243" fill="#ffffff" stroke="#ffffff" xlink:href="#b"/>
</g>
<g clip-path="url(#a)">
<use x="786.306271" y="350.592796" fill="#ffffff" stroke="#ffffff" xlink:href="#b"/>
</g>
<g clip-path="url(#a)">
<use x="227.667477" y="350.592796" fill="#ffffff" stroke="#ffffff" xlink:href="#b"/>
</g>
<g clip-path="url(#a)">
<use x="272.003889" y="350.592796" fill="#ffffff" stroke="#ffffff" xlink:href="#b"/>
</g>
<g clip-path="url(#a)">
<use x="347.37579" y="241.507092" fill="#ffffff" stroke="#ffffff" xlink:href="#b"/>
</g>
<g clip-path="url(#a)">
<use x="493.68595" y="350.592796" fill="#ffffff" stroke="#ffffff" xlink:href="#b"/>
</g>
<g clip-path="url(#a)">
<use x="595.659699" y="241.507092" fill="#ffffff" stroke="#ffffff" xlink:href="#b"/>
</g>
<g clip-path="url(#a)">
<use x="560.190569" y="350.592796" fill="#ffffff" stroke="#ffffff" xlink:href="#b"/>
</g>
<g clip-path="url(#a)">
<use x="631.128828" y="350.592796" fill="#ffffff" stroke="#ffffff" xlink:href="#b"/>
</g>
<g clip-path="url(#a)">
<use x="320.773943" y="350.592796" fill="#ffffff" stroke="#ffffff" xlink:href="#b"/>
</g>
<g clip-path="url(#a)">
<use x="373.977637" y="350.592796" fill="#ffffff" stroke="#ffffff" xlink:href="#b"/>
</g>
<g clip-path="url(#a)">
<use x="41.454545" y="350.592796" fill="#ffffff" stroke="#ffffff" xlink:href="#b"/>
</g>
<g clip-path="url(#a)">
<use x="54.755469" y="350.592796" fill="#ffffff" stroke="#ffffff" xlink:href="#b"/>
</g>
<g clip-path="url(#a)">
<use x="72.490034" y="350.592796" fill="#ffffff" stroke="#ffffff" xlink:href="#b"/>
</g>
<g clip-path="url(#a)">
<use x="122.737968" y="241.507092" fill="#ffffff" stroke="#ffffff" xlink:href="#b"/>
</g>
<g clip-path="url(#a)">
<use x="94.65824" y="350.592796" fill="#ffffff" stroke="#ffffff" xlink:href="#b"/>
</g>
<g clip-path="url(#a)">
<use x="121.260088" y="350.592796" fill="#ffffff" stroke="#ffffff" xlink:href="#b"/>
</g>
<g clip-path="url(#a)">
<use x="152.295576" y="350.592796" fill="#ffffff" stroke="#ffffff" xlink:href="#b"/>
</g>
<g clip-path="url(#a)">
<use x="870.545455" y="350.592796" fill="#ffffff" stroke="#ffffff" xlink:href="#b"/>
</g>
<g clip-path="url(#a)">
<defs>
<path id="an" d="m9.8125 72.906h9.8594v-72.906h-9.8594z"/>
</defs>
<g transform="translate(39.98 460.94) scale(.1 -.1)">
<use xlink:href="#an"/>
</g>
</g>
<g clip-path="url(#a)">
<defs>
<path id="s" d="m37.109 75.984v-7.4844h-8.5938q-4.8281 0-6.7188-1.9531-1.875-1.9531-1.875-7.0312v-4.8281h14.797v-6.9844h-14.797v-47.703h-9.0312v47.703h-8.5938v6.9844h8.5938v3.8125q0 9.125 4.25 13.297 4.25 4.1875 13.469 4.1875z"/>
<path id="aj" d="m32.172-5.0781q-3.7969-9.7656-7.4219-12.734-3.6094-2.9844-9.6562-2.9844h-7.1875v7.5156h5.2812q3.7031 0 5.75 1.7656 2.0625 1.75 4.5469 8.2969l1.6094 4.0938-22.109 53.812h9.5156l17.094-42.766 17.094 42.766h9.5156z"/>
</defs>
<g transform="translate(39.636 460.94) scale(.1 -.1)">
<use xlink:href="#s"/>
<use x="35.205078" xlink:href="#k"/>
<use x="62.988281" xlink:href="#g"/>
<use x="126.367188" xlink:href="#d"/>
<use x="187.646484" xlink:href="#h"/>
<use x="215.429688" xlink:href="#h"/>
<use x="243.212891" xlink:href="#aj"/>
</g>
</g>
<g clip-path="url(#a)">
<defs>
<path id="ac" d="m48.781 52.594v-8.4062q-3.8125 2.1094-7.6406 3.1562t-7.7344 1.0469q-8.75 0-13.594-5.5469-4.8281-5.5312-4.8281-15.547t4.8281-15.562q4.8438-5.5312 13.594-5.5312 3.9062 0 7.7344 1.0469t7.6406 3.1562v-8.3125q-3.7656-1.75-7.7969-2.625-4.0156-0.89062-8.5625-0.89062-12.359 0-19.641 7.7656-7.2656 7.7656-7.2656 20.953 0 13.375 7.3438 21.031 7.3594 7.6719 20.156 7.6719 4.1406 0 8.0938-0.85938 3.9531-0.84375 7.6719-2.5469z"/>
<path id="q" d="m45.406 46.391v29.594h8.9844v-75.984h-8.9844v8.2031q-2.8281-4.875-7.1562-7.25-4.3125-2.375-10.375-2.375-9.9062 0-16.141 7.9062-6.2188 7.9219-6.2188 20.812t6.2188 20.797q6.2344 7.9062 16.141 7.9062 6.0625 0 10.375-2.375 4.3281-2.3594 7.1562-7.2344zm-30.609-19.094q0-9.9062 4.0781-15.547t11.203-5.6406 11.219 5.6406q4.1094 5.6406 4.1094 15.547t-4.1094 15.547q-4.0938 5.6406-11.219 5.6406t-11.203-5.6406-4.0781-15.547z"/>
</defs>
<g transform="translate(57.648 460.94) scale(.1 -.1)">
<use xlink:href="#ac"/>
<use x="54.980469" xlink:href="#d"/>
<use x="116.259766" xlink:href="#h"/>
<use x="144.042969" xlink:href="#h"/>
<use x="171.826172" xlink:href="#e"/>
<use x="233.349609" xlink:href="#q"/>
</g>
</g>
<g clip-path="url(#a)">
<defs>
<path id="am" d="m9.8125 72.906h14.703l18.594-49.609 18.703 49.609h14.703v-72.906h-9.625v64.016l-18.797-50h-9.9062l-18.797 50v-64.016h-9.5781z"/>
<path id="p" d="m18.312 70.219v-15.531h18.5v-6.9844h-18.5v-29.688q0-6.6875 1.8281-8.5938t7.4531-1.9062h9.2188v-7.5156h-9.2188q-10.406 0-14.359 3.875-3.9531 3.8906-3.9531 14.141v29.688h-6.5938v6.9844h6.5938v15.531z"/>
</defs>
<g transform="translate(83.36 460.94) scale(.1 -.1)">
<use xlink:href="#am"/>
<use x="86.279297" xlink:href="#d"/>
<use x="147.558594" xlink:href="#p"/>
<use x="186.767578" xlink:href="#p"/>
</g>
</g>
<g clip-path="url(#a)">
<defs>
<path id="o" d="m30.609 48.391q-7.2188 0-11.422-5.6406t-4.2031-15.453 4.1719-15.453q4.1875-5.6406 11.453-5.6406 7.1875 0 11.375 5.6562 4.2031 5.6719 4.2031 15.438 0 9.7188-4.2031 15.406-4.1875 5.6875-11.375 5.6875zm0 7.6094q11.719 0 18.406-7.625 6.7031-7.6094 6.7031-21.078 0-13.422-6.7031-21.078-6.6875-7.6406-18.406-7.6406-11.766 0-18.438 7.6406-6.6562 7.6562-6.6562 21.078 0 13.469 6.6562 21.078 6.6719 7.625 18.438 7.625z"/>
</defs>
<g transform="translate(109.63 460.94) scale(.1 -.1)">
<use xlink:href="#s"/>
<use x="35.205078" xlink:href="#i"/>
<use x="74.068359" xlink:href="#o"/>
<use x="135.25" xlink:href="#j"/>
</g>
</g>
<g clip-path="url(#a)">
<defs>
<path id="ap" d="m19.672 34.812v-26.703h15.828q7.9531 0 11.781 3.2969 3.8438 3.2969 3.8438 10.078 0 6.8438-3.8438 10.078-3.8281 3.25-11.781 3.25zm0 29.984v-21.969h14.609q7.2188 0 10.75 2.7031 3.5469 2.7188 3.5469 8.2812 0 5.5156-3.5469 8.25-3.5312 2.7344-10.75 2.7344zm-9.8594 8.1094h25.203q11.281 0 17.375-4.6875 6.1094-4.6875 6.1094-13.328 0-6.7031-3.125-10.656t-9.1875-4.9219q7.2812-1.5625 11.312-6.5312 4.0312-4.9531 4.0312-12.375 0-9.7656-6.6406-15.094-6.6406-5.3125-18.906-5.3125h-26.172z"/>
</defs>
<g transform="translate(130.17 460.94) scale(.1 -.1)">
<use xlink:href="#ap"/>
<use x="68.603516" xlink:href="#o"/>
<use x="129.785156" xlink:href="#g"/>
<use x="193.164062" xlink:href="#d"/>
<use x="254.443359" xlink:href="#s"/>
<use x="289.648438" xlink:href="#k"/>
<use x="317.431641" xlink:href="#q"/>
<use x="380.908203" xlink:href="#e"/>
</g>
</g>
<g clip-path="url(#a)">
<g transform="translate(178.36 460.94) scale(.1 -.1)">
<use xlink:href="#d"/>
<use x="61.279297" xlink:href="#g"/>
<use x="124.658203" xlink:href="#q"/>
</g>
</g>
<g clip-path="url(#a)">
<defs>
<path id="ab" d="m54.891 33.016v-33.016h-8.9844v32.719q0 7.7656-3.0312 11.609-3.0312 3.8594-9.0781 3.8594-7.2812 0-11.484-4.6406-4.2031-4.625-4.2031-12.641v-30.906h-9.0312v75.984h9.0312v-29.797q3.2344 4.9375 7.5938 7.375 4.375 2.4375 10.094 2.4375 9.4219 0 14.25-5.8281 4.8438-5.8281 4.8438-17.156z"/>
</defs>
<g transform="translate(221.42 460.94) scale(.1 -.1)">
<use xlink:href="#ab"/>
<use x="63.378906" xlink:href="#e"/>
</g>
</g>
<g clip-path="url(#a)">
<g transform="translate(257.82 460.94) scale(.1 -.1)">
<use xlink:href="#j"/>
<use x="97.412109" xlink:href="#d"/>
<use x="158.691406" xlink:href="#q"/>
<use x="222.167969" xlink:href="#e"/>
</g>
</g>
<g clip-path="url(#a)">
<g transform="translate(312.57 460.94) scale(.1 -.1)">
<use xlink:href="#p"/>
<use x="39.208984" xlink:href="#ab"/>
<use x="102.587891" xlink:href="#e"/>
</g>
</g>
<g clip-path="url(#a)">
<defs>
<path id="as" d="m18.109 8.2031v-29h-9.0312v75.484h9.0312v-8.2969q2.8438 4.875 7.1562 7.2344 4.3281 2.375 10.328 2.375 9.9688 0 16.188-7.9062 6.2344-7.9062 6.2344-20.797t-6.2344-20.812q-6.2188-7.9062-16.188-7.9062-6 0-10.328 2.375-4.3125 2.375-7.1562 7.25zm30.578 19.094q0 9.9062-4.0781 15.547t-11.203 5.6406q-7.1406 0-11.219-5.6406t-4.0781-15.547 4.0781-15.547 11.219-5.6406q7.125 0 11.203 5.6406t4.0781 15.547z"/>
<path id="at" d="m9.4219 54.688h8.9844v-55.672q0-10.438-3.9844-15.125-3.9688-4.6875-12.812-4.6875h-3.4219v7.6094h2.4062q5.125 0 6.9688 2.375 1.8594 2.3594 1.8594 9.8281zm0 21.297h8.9844v-11.391h-8.9844z"/>
</defs>
<g transform="translate(356.63 460.94) scale(.1 -.1)">
<use xlink:href="#as"/>
<use x="63.476562" xlink:href="#i"/>
<use x="102.339844" xlink:href="#o"/>
<use x="163.521484" xlink:href="#at"/>
<use x="191.304688" xlink:href="#e"/>
<use x="252.828125" xlink:href="#ac"/>
<use x="307.808594" xlink:href="#p"/>
</g>
</g>
<g clip-path="url(#a)">
<defs>
<path id="ad" d="m48.688 27.297q0 9.9062-4.0781 15.547t-11.203 5.6406q-7.1406 0-11.219-5.6406t-4.0781-15.547 4.0781-15.547 11.219-5.6406q7.125 0 11.203 5.6406t4.0781 15.547zm-30.578 19.094q2.8438 4.875 7.1562 7.2344 4.3281 2.375 10.328 2.375 9.9688 0 16.188-7.9062 6.2344-7.9062 6.2344-20.797t-6.2344-20.812q-6.2188-7.9062-16.188-7.9062-6 0-10.328 2.375-4.3125 2.375-7.1562 7.25v-8.2031h-9.0312v75.984h9.0312z"/>
</defs>
<g transform="translate(420.25 460.94) scale(.1 -.1)">
<use xlink:href="#ad"/>
<use x="63.476562" xlink:href="#o"/>
<use x="124.658203" xlink:href="#p"/>
<use x="163.867188" xlink:href="#ab"/>
</g>
</g>
<g clip-path="url(#a)">
<defs>
<path id="aa" d="m44.281 53.078v-8.5q-3.7969 1.9531-7.9062 2.9219-4.0938 0.98438-8.5 0.98438-6.6875 0-10.031-2.0469t-3.3438-6.1562q0-3.125 2.3906-4.9062t9.625-3.3906l3.0781-0.6875q9.5625-2.0469 13.594-5.7812t4.0312-10.422q0-7.625-6.0312-12.078-6.0312-4.4375-16.578-4.4375-4.3906 0-9.1562 0.85938t-10.031 2.5625v9.2812q4.9844-2.5938 9.8125-3.8906 4.8281-1.2812 9.5781-1.2812 6.3438 0 9.75 2.1719 3.4219 2.1719 3.4219 6.125 0 3.6562-2.4688 5.6094-2.4531 1.9531-10.812 3.7656l-3.125 0.73438q-8.3438 1.75-12.062 5.3906-3.7031 3.6406-3.7031 9.9844 0 7.7188 5.4688 11.906 5.4688 4.2031 15.531 4.2031 4.9688 0 9.3594-0.73438 4.4062-0.71875 8.1094-2.1875z"/>
</defs>
<g transform="translate(481.98 460.94) scale(.1 -.1)">
<use xlink:href="#e"/>
<use x="61.523438" xlink:href="#d"/>
<use x="122.802734" xlink:href="#aa"/>
<use x="174.902344" xlink:href="#aj"/>
</g>
</g>
<g clip-path="url(#a)">
<g transform="translate(553.32 460.94) scale(.1 -.1)">
<use xlink:href="#s"/>
<use x="35.205078" xlink:href="#o"/>
<use x="96.386719" xlink:href="#i"/>
</g>
</g>
<g clip-path="url(#a)">
<defs>
<path id="ar" d="m8.5 21.578v33.109h8.9844v-32.766q0-7.7656 3.0156-11.656 3.0312-3.875 9.0938-3.875 7.2656 0 11.484 4.6406 4.2344 4.6406 4.2344 12.656v31h8.9844v-54.688h-8.9844v8.4062q-3.2656-4.9844-7.5938-7.4062-4.3125-2.4219-10.031-2.4219-9.4219 0-14.312 5.8594-4.875 5.8594-4.875 17.141z"/>
</defs>
<g transform="translate(625.36 460.94) scale(.1 -.1)">
<use xlink:href="#ar"/>
<use x="63.378906" xlink:href="#aa"/>
</g>
</g>
<g clip-path="url(#a)">
<g transform="translate(697.09 460.94) scale(.1 -.1)">
<use xlink:href="#d"/>
<use x="61.279297" xlink:href="#g"/>
<use x="124.658203" xlink:href="#q"/>
</g>
</g>
<g clip-path="url(#a)">
<g transform="translate(758.69 460.94) scale(.1 -.1)">
<use xlink:href="#i"/>
<use x="38.863281" xlink:href="#e"/>
<use x="100.386719" xlink:href="#d"/>
<use x="161.666016" xlink:href="#aa"/>
<use x="213.765625" xlink:href="#o"/>
<use x="274.947266" xlink:href="#g"/>
<use x="338.326172" xlink:href="#d"/>
<use x="399.605469" xlink:href="#ad"/>
<use x="463.082031" xlink:href="#h"/>
<use x="490.865234" xlink:href="#e"/>
</g>
</g>
<g clip-path="url(#a)">
<defs>
<path id="f" d="m10.688 12.406h10.312v-12.406h-10.312z"/>
</defs>
<g transform="translate(868.96 460.94) scale(.1 -.1)">
<use xlink:href="#f"/>
</g>
</g>
<g clip-path="url(#a)">
<defs>
<path id="c" d="m12.406 8.2969h16.109v55.625l-17.531-3.5156v8.9844l17.438 3.5156h9.8594v-64.609h16.109v-8.2969h-41.984z"/>
</defs>
<g transform="translate(393.06 24.578) scale(.1 -.1)">
<use xlink:href="#c"/>
<use x="63.623047" xlink:href="#f"/>
<use x="95.410156" xlink:href="#c"/>
</g>
</g>
<g clip-path="url(#a)">
<defs>
<path id="m" d="m19.188 8.2969h34.422v-8.2969h-46.281v8.2969q5.6094 5.8125 15.297 15.594 9.7031 9.7969 12.188 12.641 4.7344 5.3125 6.6094 9 1.8906 3.6875 1.8906 7.25 0 5.8125-4.0781 9.4688-4.0781 3.6719-10.625 3.6719-4.6406 0-9.7969-1.6094-5.1406-1.6094-11-4.8906v9.9688q5.9531 2.3906 11.125 3.6094 5.1875 1.2188 9.4844 1.2188 11.328 0 18.062-5.6719 6.7344-5.6562 6.7344-15.125 0-4.5-1.6875-8.5312-1.6719-4.0156-6.125-9.4844-1.2188-1.4219-7.7656-8.1875-6.5312-6.7656-18.453-18.922z"/>
</defs>
<g transform="translate(64.908 134.61) scale(.1 -.1)">
<use xlink:href="#c"/>
<use x="63.623047" xlink:href="#f"/>
<use x="95.410156" xlink:href="#m"/>
</g>
</g>
<g clip-path="url(#a)">
<defs>
<path id="z" d="m40.578 39.312q7.0781-1.5156 11.047-6.3125 3.9844-4.7812 3.9844-11.812 0-10.781-7.4219-16.703-7.4219-5.9062-21.094-5.9062-4.5781 0-9.4375 0.90625t-10.031 2.7188v9.5156q4.0938-2.3906 8.9688-3.6094 4.8906-1.2188 10.219-1.2188 9.2656 0 14.125 3.6562t4.8594 10.641q0 6.4531-4.5156 10.078-4.5156 3.6406-12.562 3.6406h-8.5v8.1094h8.8906q7.2656 0 11.125 2.9062t3.8594 8.375q0 5.6094-3.9844 8.6094-3.9688 3.0156-11.391 3.0156-4.0625 0-8.7031-0.89062-4.6406-0.875-10.203-2.7188v8.7812q5.625 1.5625 10.531 2.3438t9.25 0.78125q11.234 0 17.766-5.1094 6.5469-5.0938 6.5469-13.781 0-6.0625-3.4688-10.234t-9.8594-5.7812z"/>
</defs>
<g transform="translate(179.81 353.35) scale(.1 -.1)">
<use xlink:href="#c"/>
<use x="63.623047" xlink:href="#f"/>
<use x="95.410156" xlink:href="#z"/>
</g>
</g>
<g clip-path="url(#a)">
<defs>
<path id="y" d="m37.797 64.312-24.906-38.922h24.906zm-2.5938 8.5938h12.406v-47.516h10.406v-8.2031h-10.406v-17.188h-9.8125v17.188h-32.906v9.5156z"/>
</defs>
<g transform="translate(379.33 134.61) scale(.1 -.1)">
<use xlink:href="#c"/>
<use x="63.623047" xlink:href="#f"/>
<use x="95.410156" xlink:href="#y"/>
</g>
</g>
<g clip-path="url(#a)">
<defs>
<path id="x" d="m10.797 72.906h38.719v-8.3125h-29.688v-17.859q2.1406 0.73438 4.2812 1.0938 2.1562 0.35938 4.3125 0.35938 12.203 0 19.328-6.6875 7.1406-6.6875 7.1406-18.109 0-11.766-7.3281-18.297-7.3281-6.5156-20.656-6.5156-4.5938 0-9.3594 0.78125-4.75 0.78125-9.8281 2.3438v9.9219q4.3906-2.3906 9.0781-3.5625t9.9062-1.1719q8.4531 0 13.375 4.4375 4.9375 4.4375 4.9375 12.062 0 7.6094-4.9375 12.047-4.9219 4.4531-13.375 4.4531-3.9531 0-7.8906-0.875-3.9219-0.875-8.0156-2.7344z"/>
</defs>
<g transform="translate(423.66 353.35) scale(.1 -.1)">
<use xlink:href="#c"/>
<use x="63.623047" xlink:href="#f"/>
<use x="95.410156" xlink:href="#x"/>
</g>
</g>
<g clip-path="url(#a)">
<defs>
<path id="w" d="m33.016 40.375q-6.6406 0-10.531-4.5469-3.875-4.5312-3.875-12.438 0-7.8594 3.875-12.438 3.8906-4.5625 10.531-4.5625t10.516 4.5625q3.875 4.5781 3.875 12.438 0 7.9062-3.875 12.438-3.875 4.5469-10.516 4.5469zm19.578 30.922v-8.9844q-3.7188 1.75-7.5 2.6719-3.7812 0.9375-7.5 0.9375-9.7656 0-14.922-6.5938-5.1406-6.5938-5.875-19.922 2.875 4.25 7.2188 6.5156 4.3594 2.2656 9.5781 2.2656 10.984 0 17.359-6.6719 6.375-6.6562 6.375-18.125 0-11.234-6.6406-18.031-6.6406-6.7812-17.672-6.7812-12.656 0-19.344 9.6875-6.6875 9.7031-6.6875 28.109 0 17.281 8.2031 27.562t22.016 10.281q3.7188 0 7.5-0.73438t7.8906-2.1875z"/>
</defs>
<g transform="translate(698.55 353.35) scale(.1 -.1)">
<use xlink:href="#c"/>
<use x="63.623047" xlink:href="#f"/>
<use x="95.410156" xlink:href="#w"/>
</g>
</g>
<g clip-path="url(#a)">
<defs>
<path id="ah" d="m8.2031 72.906h46.875v-4.2031l-26.469-68.703h-10.297l24.906 64.594h-35.016z"/>
</defs>
<g transform="translate(612.09 134.61) scale(.1 -.1)">
<use xlink:href="#c"/>
<use x="63.623047" xlink:href="#f"/>
<use x="95.410156" xlink:href="#ah"/>
</g>
</g>
<g clip-path="url(#a)">
<defs>
<path id="ag" d="m10.984 1.5156v8.9844q3.7188-1.7656 7.5156-2.6875 3.8125-0.92188 7.4844-0.92188 9.7656 0 14.906 6.5625 5.1562 6.5625 5.8906 19.953-2.8281-4.2031-7.1875-6.4531-4.3438-2.25-9.6094-2.25-10.938 0-17.312 6.6094-6.375 6.625-6.375 18.109 0 11.219 6.6406 18 6.6406 6.7969 17.672 6.7969 12.656 0 19.312-9.7031 6.6719-9.6875 6.6719-28.141 0-17.234-8.1875-27.516-8.1719-10.281-21.984-10.281-3.7188 0-7.5312 0.73438-3.7969 0.73438-7.9062 2.2031zm19.625 30.906q6.6406 0 10.516 4.5312 3.8906 4.5469 3.8906 12.469 0 7.8594-3.8906 12.422-3.875 4.5625-10.516 4.5625t-10.516-4.5625-3.875-12.422q0-7.9219 3.875-12.469 3.875-4.5312 10.516-4.5312z"/>
</defs>
<g transform="translate(778.35 353.35) scale(.1 -.1)">
<use xlink:href="#c"/>
<use x="63.623047" xlink:href="#f"/>
<use x="95.410156" xlink:href="#ag"/>
</g>
</g>
<g clip-path="url(#a)">
<defs>
<path id="ai" d="m31.781 66.406q-7.6094 0-11.453-7.5-3.8281-7.4844-3.8281-22.531 0-14.984 3.8281-22.484 3.8438-7.5 11.453-7.5 7.6719 0 11.5 7.5 3.8438 7.5 3.8438 22.484 0 15.047-3.8438 22.531-3.8281 7.5-11.5 7.5zm0 7.8125q12.266 0 18.734-9.7031 6.4688-9.6875 6.4688-28.141 0-18.406-6.4688-28.109-6.4688-9.6875-18.734-9.6875-12.25 0-18.719 9.6875-6.4688 9.7031-6.4688 28.109 0 18.453 6.4688 28.141 6.4688 9.7031 18.719 9.7031z"/>
</defs>
<g transform="translate(216.53 353.35) scale(.1 -.1)">
<use xlink:href="#c"/>
<use x="63.623047" xlink:href="#f"/>
<use x="95.410156" xlink:href="#c"/>
<use x="159.033203" xlink:href="#ai"/>
</g>
</g>
<g clip-path="url(#a)">
<g transform="translate(260.87 353.35) scale(.1 -.1)">
<use xlink:href="#c"/>
<use x="63.623047" xlink:href="#f"/>
<use x="95.410156" xlink:href="#c"/>
<use x="159.033203" xlink:href="#c"/>
</g>
</g>
<g clip-path="url(#a)">
<g transform="translate(336.24 244.27) scale(.1 -.1)">
<use xlink:href="#c"/>
<use x="63.623047" xlink:href="#f"/>
<use x="95.410156" xlink:href="#c"/>
<use x="159.033203" xlink:href="#m"/>
</g>
</g>
<g clip-path="url(#a)">
<g transform="translate(482.55 353.35) scale(.1 -.1)">
<use xlink:href="#c"/>
<use x="63.623047" xlink:href="#f"/>
<use x="95.410156" xlink:href="#c"/>
<use x="159.033203" xlink:href="#z"/>
</g>
</g>
<g clip-path="url(#a)">
<g transform="translate(584.53 244.27) scale(.1 -.1)">
<use xlink:href="#c"/>
<use x="63.623047" xlink:href="#f"/>
<use x="95.410156" xlink:href="#c"/>
<use x="159.033203" xlink:href="#y"/>
</g>
</g>
<g clip-path="url(#a)">
<g transform="translate(549.06 353.35) scale(.1 -.1)">
<use xlink:href="#c"/>
<use x="63.623047" xlink:href="#f"/>
<use x="95.410156" xlink:href="#c"/>
<use x="159.033203" xlink:href="#x"/>
</g>
</g>
<g clip-path="url(#a)">
<g transform="translate(620 353.35) scale(.1 -.1)">
<use xlink:href="#c"/>
<use x="63.623047" xlink:href="#f"/>
<use x="95.410156" xlink:href="#c"/>
<use x="159.033203" xlink:href="#w"/>
</g>
</g>
<g clip-path="url(#a)">
<g transform="translate(309.64 353.35) scale(.1 -.1)">
<use xlink:href="#c"/>
<use x="63.623047" xlink:href="#f"/>
<use x="95.410156" xlink:href="#c"/>
<use x="159.033203" xlink:href="#ah"/>
</g>
</g>
<g clip-path="url(#a)">
<defs>
<path id="aq" d="m31.781 34.625q-7.0312 0-11.062-3.7656-4.0156-3.7656-4.0156-10.344 0-6.5938 4.0156-10.359 4.0312-3.7656 11.062-3.7656t11.078 3.7812q4.0625 3.7969 4.0625 10.344 0 6.5781-4.0312 10.344-4.0156 3.7656-11.109 3.7656zm-9.8594 4.1875q-6.3438 1.5625-9.8906 5.9062-3.5312 4.3594-3.5312 10.609 0 8.7344 6.2188 13.812 6.2344 5.0781 17.062 5.0781 10.891 0 17.094-5.0781t6.2031-13.812q0-6.25-3.5469-10.609-3.5312-4.3438-9.8281-5.9062 7.125-1.6562 11.094-6.5 3.9844-4.8281 3.9844-11.797 0-10.609-6.4688-16.281-6.4688-5.6562-18.531-5.6562-12.047 0-18.531 5.6562-6.4688 5.6719-6.4688 16.281 0 6.9688 4 11.797 4.0156 4.8438 11.141 6.5zm-3.6094 15.578q0-5.6562 3.5312-8.8281 3.5469-3.1719 9.9375-3.1719 6.3594 0 9.9375 3.1719 3.5938 3.1719 3.5938 8.8281 0 5.6719-3.5938 8.8438-3.5781 3.1719-9.9375 3.1719-6.3906 0-9.9375-3.1719-3.5312-3.1719-3.5312-8.8438z"/>
</defs>
<g transform="translate(362.84 353.35) scale(.1 -.1)">
<use xlink:href="#c"/>
<use x="63.623047" xlink:href="#f"/>
<use x="95.410156" xlink:href="#c"/>
<use x="159.033203" xlink:href="#aq"/>
</g>
</g>
<g clip-path="url(#a)">
<g transform="translate(30.322 353.35) scale(.1 -.1)">
<use xlink:href="#c"/>
<use x="63.623047" xlink:href="#f"/>
<use x="95.410156" xlink:href="#c"/>
<use x="159.033203" xlink:href="#ag"/>
</g>
</g>
<g clip-path="url(#a)">
<g transform="translate(43.623 353.35) scale(.1 -.1)">
<use xlink:href="#c"/>
<use x="63.623047" xlink:href="#f"/>
<use x="95.410156" xlink:href="#m"/>
<use x="159.033203" xlink:href="#ai"/>
</g>
</g>
<g clip-path="url(#a)">
<g transform="translate(61.357 353.35) scale(.1 -.1)">
<use xlink:href="#c"/>
<use x="63.623047" xlink:href="#f"/>
<use x="95.410156" xlink:href="#m"/>
<use x="159.033203" xlink:href="#c"/>
</g>
</g>
<g clip-path="url(#a)">
<g transform="translate(111.61 244.27) scale(.1 -.1)">
<use xlink:href="#c"/>
<use x="63.623047" xlink:href="#f"/>
<use x="95.410156" xlink:href="#m"/>
<use x="159.033203" xlink:href="#m"/>
</g>
</g>
<g clip-path="url(#a)">
<g transform="translate(83.525 353.35) scale(.1 -.1)">
<use xlink:href="#c"/>
<use x="63.623047" xlink:href="#f"/>
<use x="95.410156" xlink:href="#m"/>
<use x="159.033203" xlink:href="#z"/>
</g>
</g>
<g clip-path="url(#a)">
<g transform="translate(110.13 353.35) scale(.1 -.1)">
<use xlink:href="#c"/>
<use x="63.623047" xlink:href="#f"/>
<use x="95.410156" xlink:href="#m"/>
<use x="159.033203" xlink:href="#y"/>
</g>
</g>
<g clip-path="url(#a)">
<g transform="translate(141.16 353.35) scale(.1 -.1)">
<use xlink:href="#c"/>
<use x="63.623047" xlink:href="#f"/>
<use x="95.410156" xlink:href="#m"/>
<use x="159.033203" xlink:href="#x"/>
</g>
</g>
<g clip-path="url(#a)">
<g transform="translate(859.41 353.35) scale(.1 -.1)">
<use xlink:href="#c"/>
<use x="63.623047" xlink:href="#f"/>
<use x="95.410156" xlink:href="#m"/>
<use x="159.033203" xlink:href="#w"/>
</g>
</g>
<defs>
<clipPath id="a">
<rect width="912" height="480"/>
</clipPath>
</defs>
</svg>
