<?xml version="1.0" encoding="UTF-8"?>
<!DOCTYPE svg  PUBLIC '-//W3C//DTD SVG 1.1//EN'  'http://www.w3.org/Graphics/SVG/1.1/DTD/svg11.dtd'>
<svg width="658.67pt" height="346.67pt" version="1.1" viewBox="0 0 658.67 346.67" xmlns="http://www.w3.org/2000/svg" xmlns:xlink="http://www.w3.org/1999/xlink">
<defs>
<style type="text/css">*{stroke-linecap:butt;stroke-linejoin:round;}</style>
</defs>
<path d="m0 346.67h658.67v-346.67h-658.67z" fill="#fff"/>
<g fill="none" stroke="#000">
<path d="m346.36 16.668v54.881" clip-path="url(#a)"/>
<path d="m346.36 71.549-208 53.519" clip-path="url(#a)"/>
<path d="m346.36 71.549-17.022 207.82" clip-path="url(#a)"/>
<path d="m346.36 71.549 32.798 207.82" clip-path="url(#a)"/>
<path d="m346.36 71.549 192.22 105.84" clip-path="url(#a)"/>
<path d="m138.36 125.07-83.034 103.66" clip-path="url(#a)"/>
<path d="m138.36 125.07-8.3034 154.3" clip-path="url(#a)"/>
<path d="m138.36 125.07 91.337 52.326" clip-path="url(#a)"/>
<path d="m329.33 279.37v50.633" clip-path="url(#a)"/>
<path d="m379.15 279.37v50.633" clip-path="url(#a)"/>
<path d="m538.58 177.39-109.6 101.97" clip-path="url(#a)"/>
<path d="m538.58 177.39-9.9641 51.338" clip-path="url(#a)"/>
<path d="m538.58 177.39-9.9641 101.97" clip-path="url(#a)"/>
<path d="m538.58 177.39 39.856 101.97" clip-path="url(#a)"/>
<path d="m538.58 177.39 89.677 101.97" clip-path="url(#a)"/>
<path d="m428.97 279.37v50.633" clip-path="url(#a)"/>
<path d="m528.61 228.73 49.82 50.633" clip-path="url(#a)" stroke-dasharray="3.7,1.6"/>
<path d="m528.61 228.73-49.82 50.633" clip-path="url(#a)"/>
<path d="m528.61 279.37v50.633" clip-path="url(#a)"/>
<path d="m578.44 279.37v50.633" clip-path="url(#a)"/>
<path d="m478.79 279.37v50.633" clip-path="url(#a)"/>
<path d="m55.321 228.73-24.91 50.633" clip-path="url(#a)"/>
<path d="m55.321 228.73 24.91 50.633" clip-path="url(#a)"/>
<path d="m130.05 279.37v50.633" clip-path="url(#a)"/>
<path d="m229.69 177.39-49.82 101.97" clip-path="url(#a)"/>
<path d="m229.69 177.39v51.338" clip-path="url(#a)"/>
<path d="m229.69 177.39 49.82 101.97" clip-path="url(#a)"/>
<path d="m179.87 279.37v50.633" clip-path="url(#a)"/>
<path d="m229.69 228.73v50.633" clip-path="url(#a)"/>
<path d="m279.51 279.37v50.633" clip-path="url(#a)"/>
<path d="m229.69 279.37v50.633" clip-path="url(#a)"/>
<path d="m30.411 279.37v50.633" clip-path="url(#a)"/>
<path d="m80.231 279.37v50.633" clip-path="url(#a)"/>
<path d="m628.26 279.37v50.633" clip-path="url(#a)"/>
</g>
<path d="m340.08 41.101v6.0162q0 2.4 2.4 2.4h7.7425q2.4 0 2.4-2.4v-6.0162q0-2.4-2.4-2.4h-7.7425q-2.4 0-2.4 2.4z" clip-path="url(#a)" fill="#fff" stroke="#fff"/>
<g clip-path="url(#a)">
<defs>
<path id="al" d="m9.8125 72.906h9.8594v-29.891h35.844v29.891h9.8594v-72.906h-9.8594v34.719h-35.844v-34.719h-9.8594z"/>
</defs>
<g transform="translate(344.15 41.101) rotate(90) scale(.08 -.08)">
<use xlink:href="#al"/>
</g>
</g>
<path d="m241.27 105.06 5.2999-1.3637q2.3243-0.59804 1.7263-2.9223l-1.9293-7.4983q-0.59804-2.3243-2.9223-1.7263l-5.2999 1.3637q-2.3243 0.59804-1.7263 2.9223l1.9293 7.4983q0.59804 2.3243 2.9223 1.7263z" clip-path="url(#a)" fill="#fff" stroke="#fff"/>
<g clip-path="url(#a)">
<defs>
<path id="p" d="m34.188 63.188-13.391-36.281h26.812zm-5.5781 9.7188h11.188l27.781-72.906h-10.25l-6.6406 18.703h-32.859l-6.6406-18.703h-10.406z"/>
</defs>
<g transform="translate(240.26 101.13) rotate(-14.429) scale(.08 -.08)">
<use xlink:href="#p"/>
</g>
</g>
<path d="m343.91 178.26 0.37562-4.5859q0.19593-2.392-2.1961-2.5879l-7.7167-0.63206q-2.392-0.19592-2.5879 2.1961l-0.37562 4.5859q-0.19592 2.392 2.1961 2.5879l7.7167 0.63206q2.392 0.19593 2.5879-2.1961z" clip-path="url(#a)" fill="#fff" stroke="#fff"/>
<g clip-path="url(#a)">
<defs>
<path id="v" d="m9.8125 72.906h41.891v-8.3125h-32.031v-21.484h28.906v-8.2969h-28.906v-34.812h-9.8594z"/>
</defs>
<g transform="translate(339.86 177.93) rotate(-85.317) scale(.08 -.08)">
<use xlink:href="#v"/>
</g>
</g>
<path d="m356.18 174.05 0.752 4.7648q0.37415 2.3707 2.7448 1.9965l7.6478-1.207q2.3707-0.37415 1.9965-2.7448l-0.752-4.7648q-0.37415-2.3707-2.7448-1.9965l-7.6478 1.207q-2.3707 0.37415-1.9965 2.7448z" clip-path="url(#a)" fill="#fff" stroke="#fff"/>
<g clip-path="url(#a)">
<defs>
<path id="u" d="m19.672 64.797v-27.391h12.406q6.8906 0 10.641 3.5625 3.7656 3.5625 3.7656 10.156 0 6.5469-3.7656 10.109-3.75 3.5625-10.641 3.5625zm-9.8594 8.1094h22.266q12.266 0 18.531-5.5469 6.2812-5.5469 6.2812-16.234 0-10.797-6.2812-16.312-6.2656-5.5156-18.531-5.5156h-12.406v-29.297h-9.8594z"/>
</defs>
<g transform="translate(360.2 173.42) rotate(81.031) scale(.08 -.08)">
<use xlink:href="#u"/>
</g>
</g>
<path d="m437.05 128.65 4.7938 2.6396q2.1024 1.1576 3.26-0.94473l3.7346-6.7823q1.1576-2.1024-0.94473-3.26l-4.7938-2.6396q-2.1024-1.1576-3.26 0.94473l-3.7346 6.7823q-1.1576 2.1024 0.94473 3.26z" clip-path="url(#a)" fill="#fff" stroke="#fff"/>
<g clip-path="url(#a)">
<g transform="translate(439.01 125.09) rotate(28.839) scale(.08 -.08)">
<use xlink:href="#p"/>
</g>
</g>
<path d="m99.987 183 3.4923-4.36q1.5004-1.8732-0.37278-3.3736l-6.043-4.8404q-1.8732-1.5004-3.3736 0.37278l-3.4923 4.36q-1.5004 1.8732 0.37278 3.3736l6.043 4.8404q1.8732 1.5004 3.3736-0.37278z" clip-path="url(#a)" fill="#fff" stroke="#fff"/>
<g clip-path="url(#a)">
<defs>
<path id="n" d="m64.406 67.281v-10.391q-4.9844 4.6406-10.625 6.9219-5.6406 2.2969-11.984 2.2969-12.5 0-19.141-7.6406t-6.6406-22.094q0-14.406 6.6406-22.047t19.141-7.6406q6.3438 0 11.984 2.2969t10.625 6.9375v-10.312q-5.1719-3.5156-10.969-5.2812-5.7812-1.75-12.219-1.75-16.562 0-26.094 10.125-9.5156 10.141-9.5156 27.672 0 17.578 9.5156 27.703 9.5312 10.141 26.094 10.141 6.5312 0 12.312-1.7344 5.7969-1.7344 10.875-5.2031z"/>
</defs>
<g transform="translate(96.815 180.46) rotate(-51.306) scale(.08 -.08)">
<use xlink:href="#n"/>
</g>
</g>
<path d="m140.3 205.54 0.32161-5.9764q0.12897-2.3965-2.2676-2.5255l-7.7313-0.41606q-2.3965-0.12897-2.5255 2.2676l-0.32161 5.9764q-0.12897 2.3965 2.2676 2.5255l7.7313 0.41606q2.3965 0.12897 2.5255-2.2676z" clip-path="url(#a)" fill="#fff" stroke="#fff"/>
<g clip-path="url(#a)">
<defs>
<path id="ak" d="m9.8125 72.906h13.281l32.328-60.984v60.984h9.5625v-72.906h-13.281l-32.312 60.984v-60.984h-9.5781z"/>
</defs>
<g transform="translate(136.25 205.32) rotate(-86.92) scale(.08 -.08)">
<use xlink:href="#ak"/>
</g>
</g>
<path d="m178.48 155.28 4.8472 2.7769q2.0825 1.193 3.2755-0.88944l3.8488-6.7181q1.193-2.0825-0.88944-3.2755l-4.8472-2.7769q-2.0825-1.193-3.2755 0.88944l-3.8488 6.7181q-1.193 2.0825 0.88944 3.2755z" clip-path="url(#a)" fill="#fff" stroke="#fff"/>
<g clip-path="url(#a)">
<g transform="translate(180.5 151.76) rotate(29.808) scale(.08 -.08)">
<use xlink:href="#n"/>
</g>
</g>
<path d="m323.06 287.04v35.285q0 2.4 2.4 2.4h7.7425q2.4 0 2.4-2.4v-35.285q0-2.4-2.4-2.4h-7.7425q-2.4 0-2.4 2.4z" clip-path="url(#a)" fill="#fff" stroke="#fff"/>
<g clip-path="url(#a)">
<defs>
<path id="l" d="m-0.29688 72.906h61.672v-8.3125h-25.875v-64.594h-9.9062v64.594h-25.891z"/>
<path id="e" d="m56.203 29.594v-4.3906h-41.312q0.59375-9.2812 5.5938-14.141t13.938-4.8594q5.1719 0 10.031 1.2656t9.6562 3.8125v-8.5q-4.8438-2.0469-9.9219-3.125t-10.297-1.0781q-13.094 0-20.734 7.6094-7.6406 7.625-7.6406 20.625 0 13.422 7.25 21.297 7.25 7.8906 19.562 7.8906 11.031 0 17.453-7.1094 6.4219-7.0938 6.4219-19.297zm-8.9844 2.6406q-0.09375 7.3594-4.125 11.75-4.0312 4.4062-10.672 4.4062-7.5156 0-12.031-4.25t-5.2031-11.969z"/>
<path id="f" d="m41.109 46.297q-1.5156 0.875-3.2969 1.2812-1.7812 0.42188-3.9219 0.42188-7.625 0-11.703-4.9531t-4.0781-14.234v-28.812h-9.0312v54.688h9.0312v-8.5q2.8438 4.9844 7.375 7.3906 4.5469 2.4219 11.047 2.4219 0.92188 0 2.0469-0.125 1.125-0.10938 2.4844-0.35938z"/>
<path id="j" d="m52 44.188q3.375 6.0625 8.0625 8.9375t11.031 2.875q8.5469 0 13.188-5.9844 4.6406-5.9688 4.6406-17v-33.016h-9.0312v32.719q0 7.8594-2.7969 11.656-2.7812 3.8125-8.4844 3.8125-6.9844 0-11.047-4.6406-4.0469-4.625-4.0469-12.641v-30.906h-9.0312v32.719q0 7.9062-2.7812 11.688t-8.5938 3.7812q-6.8906 0-10.953-4.6562-4.0469-4.6562-4.0469-12.625v-30.906h-9.0312v54.688h9.0312v-8.5q3.0781 5.0312 7.375 7.4219t10.203 2.3906q5.9688 0 10.141-3.0312 4.1719-3.0156 6.1719-8.7812z"/>
<path id="i" d="m9.4219 54.688h8.9844v-54.688h-8.9844zm0 21.297h8.9844v-11.391h-8.9844z"/>
<path id="h" d="m54.891 33.016v-33.016h-8.9844v32.719q0 7.7656-3.0312 11.609-3.0312 3.8594-9.0781 3.8594-7.2812 0-11.484-4.6406-4.2031-4.625-4.2031-12.641v-30.906h-9.0312v54.688h9.0312v-8.5q3.2344 4.9375 7.5938 7.375 4.375 2.4375 10.094 2.4375 9.4219 0 14.25-5.8281 4.8438-5.8281 4.8438-17.156z"/>
<path id="g" d="m34.281 27.484q-10.891 0-15.094-2.4844t-4.2031-8.5q0-4.7812 3.1562-7.5938 3.1562-2.7969 8.5625-2.7969 7.4844 0 12 5.2969t4.5156 14.078v2zm17.922 3.7188v-31.203h-8.9844v8.2969q-3.0781-4.9688-7.6719-7.3438t-11.234-2.375q-8.3906 0-13.359 4.7188-4.9531 4.7188-4.9531 12.625 0 9.2188 6.1719 13.906 6.1875 4.6875 18.438 4.6875h12.609v0.89062q0 6.2031-4.0781 9.5938t-11.453 3.3906q-4.6875 0-9.1406-1.125-4.4375-1.125-8.5312-3.375v8.3125q4.9219 1.9062 9.5625 2.8438 4.6406 0.95312 9.0312 0.95312 11.875 0 17.734-6.1562 5.8594-6.1406 5.8594-18.641z"/>
<path id="k" d="m9.4219 75.984h8.9844v-75.984h-8.9844z"/>
</defs>
<g transform="translate(327.13 287.04) rotate(90) scale(.08 -.08)">
<use xlink:href="#l"/>
<use x="60.818359" xlink:href="#e"/>
<use x="122.341797" xlink:href="#f"/>
<use x="163.439453" xlink:href="#j"/>
<use x="260.851562" xlink:href="#i"/>
<use x="288.634766" xlink:href="#h"/>
<use x="352.013672" xlink:href="#g"/>
<use x="413.292969" xlink:href="#k"/>
</g>
</g>
<path d="m372.88 287.04v35.285q0 2.4 2.4 2.4h7.7425q2.4 0 2.4-2.4v-35.285q0-2.4-2.4-2.4h-7.7425q-2.4 0-2.4 2.4z" clip-path="url(#a)" fill="#fff" stroke="#fff"/>
<g clip-path="url(#a)">
<g transform="translate(376.95 287.04) rotate(90) scale(.08 -.08)">
<use xlink:href="#l"/>
<use x="60.818359" xlink:href="#e"/>
<use x="122.341797" xlink:href="#f"/>
<use x="163.439453" xlink:href="#j"/>
<use x="260.851562" xlink:href="#i"/>
<use x="288.634766" xlink:href="#h"/>
<use x="352.013672" xlink:href="#g"/>
<use x="413.292969" xlink:href="#k"/>
</g>
</g>
<path d="m486.01 234.86 4.0698-3.7863q1.7571-1.6348 0.12238-3.3919l-5.2738-5.6686q-1.6348-1.7571-3.3919-0.12238l-4.0698 3.7863q-1.7571 1.6348-0.12238 3.3919l5.2738 5.6686q1.6348 1.7571 3.3919 0.12238z" clip-path="url(#a)" fill="#fff" stroke="#fff"/>
<g clip-path="url(#a)">
<defs>
<path id="aj" d="m44.391 34.188q3.1719-1.0781 6.1719-4.5938t6.0312-9.6719l10.016-19.922h-10.609l-9.3125 18.703q-3.625 7.3281-7.0156 9.7188t-9.25 2.3906h-10.75v-30.812h-9.8594v72.906h22.266q12.5 0 18.656-5.2344 6.1562-5.2188 6.1562-15.766 0-6.8906-3.2031-11.438-3.2031-4.5312-9.2969-6.2812zm-24.719 30.609v-25.875h12.406q7.125 0 10.766 3.2969t3.6406 9.6875-3.6406 9.6406-10.766 3.25z"/>
</defs>
<g transform="translate(483.25 231.89) rotate(-42.934) scale(.08 -.08)">
<use xlink:href="#aj"/>
</g>
</g>
<path d="m539.27 206.74 0.96314-4.9624q0.45728-2.356-1.8988-2.8133l-7.6007-1.4752q-2.356-0.45728-2.8133 1.8988l-0.96315 4.9624q-0.45728 2.356 1.8988 2.8133l7.6007 1.4752q2.356 0.45728 2.8133-1.8988z" clip-path="url(#a)" fill="#fff" stroke="#fff"/>
<g clip-path="url(#a)">
<defs>
<path id="o" d="m9.8125 72.906h46.094v-8.3125h-36.234v-21.578h34.719v-8.2969h-34.719v-26.422h37.109v-8.2969h-46.969z"/>
</defs>
<g transform="translate(535.28 205.96) rotate(-79.016) scale(.08 -.08)">
<use xlink:href="#o"/>
</g>
</g>
<path d="m539.59 231.5 0.49161-5.031q0.2334-2.3886-2.1552-2.622l-7.7058-0.75297q-2.3886-0.2334-2.622 2.1552l-0.49161 5.031q-0.2334 2.3886 2.1552 2.622l7.7058 0.75297q2.3886 0.2334 2.622-2.1552z" clip-path="url(#a)" fill="#fff" stroke="#fff"/>
<g clip-path="url(#a)">
<g transform="translate(535.55 231.11) rotate(-84.419) scale(.08 -.08)">
<use xlink:href="#o"/>
</g>
</g>
<path d="m551.65 228.06 2.0336 5.2029q0.8737 2.2353 3.109 1.3616l7.2112-2.8186q2.2353-0.8737 1.3616-3.109l-2.0336-5.2029q-0.8737-2.2353-3.109-1.3616l-7.2112 2.8186q-2.2353 0.8737-1.3616 3.109z" clip-path="url(#a)" fill="#fff" stroke="#fff"/>
<g clip-path="url(#a)">
<g transform="translate(555.43 226.58) rotate(68.652) scale(.08 -.08)">
<use xlink:href="#n"/>
</g>
</g>
<path d="m576.77 230.32 3.8666 4.3967q1.5849 1.8022 3.3872 0.21729l5.814-5.1131q1.8022-1.5849 0.21729-3.3872l-3.8666-4.3967q-1.5849-1.8022-3.3872-0.21729l-5.814 5.1131q-1.8022 1.5849-0.21729 3.3872z" clip-path="url(#a)" fill="#fff" stroke="#fff"/>
<g clip-path="url(#a)">
<defs>
<path id="ah" d="m8.6875 72.906h9.9219v-44.297q0-11.719 4.2344-16.875 4.25-5.1406 13.781-5.1406 9.4688 0 13.719 5.1406 4.25 5.1562 4.25 16.875v44.297h9.9062v-45.516q0-14.25-7.0625-21.531-7.0469-7.2812-20.812-7.2812-13.828 0-20.891 7.2812-7.0469 7.2812-7.0469 21.531z"/>
</defs>
<g transform="translate(579.83 227.64) rotate(48.671) scale(.08 -.08)">
<use xlink:href="#ah"/>
</g>
</g>
<path d="m422.7 287.04v35.285q0 2.4 2.4 2.4h7.7425q2.4 0 2.4-2.4v-35.285q0-2.4-2.4-2.4h-7.7425q-2.4 0-2.4 2.4z" clip-path="url(#a)" fill="#fff" stroke="#fff"/>
<g clip-path="url(#a)">
<g transform="translate(426.77 287.04) rotate(90) scale(.08 -.08)">
<use xlink:href="#l"/>
<use x="60.818359" xlink:href="#e"/>
<use x="122.341797" xlink:href="#f"/>
<use x="163.439453" xlink:href="#j"/>
<use x="260.851562" xlink:href="#i"/>
<use x="288.634766" xlink:href="#h"/>
<use x="352.013672" xlink:href="#g"/>
<use x="413.292969" xlink:href="#k"/>
</g>
</g>
<path d="m547.14 256.5 3.8382 3.9008q1.6833 1.7107 3.394 0.027468l5.5189-5.4303q1.7107-1.6833 0.027467-3.394l-3.8382-3.9008q-1.6833-1.7107-3.394-0.027467l-5.5189 5.4303q-1.7107 1.6833-0.027468 3.394z" clip-path="url(#a)" fill="#fff" stroke="#fff"/>
<g clip-path="url(#a)">
<g transform="translate(550.03 253.65) rotate(45.464) scale(.08 -.08)">
<use xlink:href="#p"/>
</g>
</g>
<path d="m506.39 260.26 3.562-3.6202q1.6833-1.7107-0.027468-3.394l-5.5189-5.4303q-1.7107-1.6833-3.394 0.027468l-3.562 3.6202q-1.6833 1.7107 0.027468 3.394l5.5189 5.4303q1.7107 1.6833 3.394-0.027467z" clip-path="url(#a)" fill="#fff" stroke="#fff"/>
<g clip-path="url(#a)">
<defs>
<path id="ai" d="m53.516 70.516v-9.625q-5.6094 2.6875-10.594 4-4.9844 1.3281-9.625 1.3281-8.0469 0-12.422-3.125t-4.375-8.8906q0-4.8438 2.9062-7.3125 2.9062-2.4531 11.016-3.9688l5.9531-1.2188q11.031-2.1094 16.281-7.4062t5.25-14.172q0-10.609-7.1094-16.078-7.0938-5.4688-20.812-5.4688-5.1719 0-11.016 1.1719-5.8281 1.1719-12.078 3.4688v10.156q6-3.3594 11.766-5.0781 5.7656-1.7031 11.328-1.7031 8.4375 0 13.031 3.3125 4.5938 3.3281 4.5938 9.4844 0 5.3594-3.2969 8.3906t-10.812 4.5469l-6.0156 1.1719q-11.031 2.1875-15.969 6.875-4.9219 4.6875-4.9219 13.047 0 9.6719 6.8125 15.234t18.766 5.5625q5.1406 0 10.453-0.9375 5.3281-0.92188 10.891-2.7656z"/>
</defs>
<g transform="translate(503.5 257.41) rotate(-45.464) scale(.08 -.08)">
<use xlink:href="#ai"/>
</g>
</g>
<path d="m522.34 287.04v35.285q0 2.4 2.4 2.4h7.7425q2.4 0 2.4-2.4v-35.285q0-2.4-2.4-2.4h-7.7425q-2.4 0-2.4 2.4z" clip-path="url(#a)" fill="#fff" stroke="#fff"/>
<g clip-path="url(#a)">
<g transform="translate(526.41 287.04) rotate(90) scale(.08 -.08)">
<use xlink:href="#l"/>
<use x="60.818359" xlink:href="#e"/>
<use x="122.341797" xlink:href="#f"/>
<use x="163.439453" xlink:href="#j"/>
<use x="260.851562" xlink:href="#i"/>
<use x="288.634766" xlink:href="#h"/>
<use x="352.013672" xlink:href="#g"/>
<use x="413.292969" xlink:href="#k"/>
</g>
</g>
<path d="m572.16 287.04v35.285q0 2.4 2.4 2.4h7.7425q2.4 0 2.4-2.4v-35.285q0-2.4-2.4-2.4h-7.7425q-2.4 0-2.4 2.4z" clip-path="url(#a)" fill="#fff" stroke="#fff"/>
<g clip-path="url(#a)">
<g transform="translate(576.23 287.04) rotate(90) scale(.08 -.08)">
<use xlink:href="#l"/>
<use x="60.818359" xlink:href="#e"/>
<use x="122.341797" xlink:href="#f"/>
<use x="163.439453" xlink:href="#j"/>
<use x="260.851562" xlink:href="#i"/>
<use x="288.634766" xlink:href="#h"/>
<use x="352.013672" xlink:href="#g"/>
<use x="413.292969" xlink:href="#k"/>
</g>
</g>
<path d="m472.52 287.04v35.285q0 2.4 2.4 2.4h7.7425q2.4 0 2.4-2.4v-35.285q0-2.4-2.4-2.4h-7.7425q-2.4 0-2.4 2.4z" clip-path="url(#a)" fill="#fff" stroke="#fff"/>
<g clip-path="url(#a)">
<g transform="translate(476.59 287.04) rotate(90) scale(.08 -.08)">
<use xlink:href="#l"/>
<use x="60.818359" xlink:href="#e"/>
<use x="122.341797" xlink:href="#f"/>
<use x="163.439453" xlink:href="#j"/>
<use x="260.851562" xlink:href="#i"/>
<use x="288.634766" xlink:href="#h"/>
<use x="352.013672" xlink:href="#g"/>
<use x="413.292969" xlink:href="#k"/>
</g>
</g>
<path d="m47.478 258.88 2.0312-4.1287q1.0595-2.1535-1.094-3.213l-6.9473-3.4179q-2.1535-1.0595-3.213 1.094l-2.0312 4.1287q-1.0595 2.1535 1.094 3.213l6.9473 3.4179q2.1535 1.0595 3.213-1.094z" clip-path="url(#a)" fill="#fff" stroke="#fff"/>
<g clip-path="url(#a)">
<g transform="translate(43.831 257.09) rotate(-63.804) scale(.08 -.08)">
<use xlink:href="#v"/>
</g>
</g>
<path d="m60.916 254.31 2.466 5.0125q1.0595 2.1535 3.213 1.094l6.9473-3.4179q2.1535-1.0595 1.094-3.213l-2.466-5.0125q-1.0595-2.1535-3.213-1.094l-6.9473 3.4179q-2.1535 1.0595-1.094 3.213z" clip-path="url(#a)" fill="#fff" stroke="#fff"/>
<g clip-path="url(#a)">
<g transform="translate(64.563 252.52) rotate(63.804) scale(.08 -.08)">
<use xlink:href="#n"/>
</g>
</g>
<path d="m123.78 287.04v35.285q0 2.4 2.4 2.4h7.7425q2.4 0 2.4-2.4v-35.285q0-2.4-2.4-2.4h-7.7425q-2.4 0-2.4 2.4z" clip-path="url(#a)" fill="#fff" stroke="#fff"/>
<g clip-path="url(#a)">
<g transform="translate(127.84 287.04) rotate(90) scale(.08 -.08)">
<use xlink:href="#l"/>
<use x="60.818359" xlink:href="#e"/>
<use x="122.341797" xlink:href="#f"/>
<use x="163.439453" xlink:href="#j"/>
<use x="260.851562" xlink:href="#i"/>
<use x="288.634766" xlink:href="#h"/>
<use x="352.013672" xlink:href="#g"/>
<use x="413.292969" xlink:href="#k"/>
</g>
</g>
<path d="m209.31 233.4 2.2191-4.5419q1.0536-2.1564-1.1028-3.2099l-6.9566-3.3988q-2.1564-1.0536-3.2099 1.1028l-2.2191 4.5419q-1.0536 2.1564 1.1028 3.2099l6.9566 3.3988q2.1564 1.0536 3.2099-1.1028z" clip-path="url(#a)" fill="#fff" stroke="#fff"/>
<g clip-path="url(#a)">
<g transform="translate(205.66 231.62) rotate(-63.961) scale(.08 -.08)">
<use xlink:href="#o"/>
</g>
</g>
<path d="m223.42 200.54v5.055q0 2.4 2.4 2.4h7.7425q2.4 0 2.4-2.4v-5.055q0-2.4-2.4-2.4h-7.7425q-2.4 0-2.4 2.4z" clip-path="url(#a)" fill="#fff" stroke="#fff"/>
<g clip-path="url(#a)">
<g transform="translate(227.49 200.54) rotate(90) scale(.08 -.08)">
<use xlink:href="#o"/>
</g>
</g>
<path d="m247.74 228.62 2.4523 5.0192q1.0536 2.1564 3.2099 1.1028l6.9566-3.3988q2.1564-1.0536 1.1028-3.2099l-2.4523-5.0192q-1.0536-2.1564-3.2099-1.1028l-6.9566 3.3988q-2.1564 1.0536-1.1028 3.2099z" clip-path="url(#a)" fill="#fff" stroke="#fff"/>
<g clip-path="url(#a)">
<g transform="translate(251.39 226.84) rotate(63.961) scale(.08 -.08)">
<use xlink:href="#n"/>
</g>
</g>
<path d="m173.6 287.04v35.285q0 2.4 2.4 2.4h7.7425q2.4 0 2.4-2.4v-35.285q0-2.4-2.4-2.4h-7.7425q-2.4 0-2.4 2.4z" clip-path="url(#a)" fill="#fff" stroke="#fff"/>
<g clip-path="url(#a)">
<g transform="translate(177.66 287.04) rotate(90) scale(.08 -.08)">
<use xlink:href="#l"/>
<use x="60.818359" xlink:href="#e"/>
<use x="122.341797" xlink:href="#f"/>
<use x="163.439453" xlink:href="#j"/>
<use x="260.851562" xlink:href="#i"/>
<use x="288.634766" xlink:href="#h"/>
<use x="352.013672" xlink:href="#g"/>
<use x="413.292969" xlink:href="#k"/>
</g>
</g>
<path d="m223.42 251.64v4.8238q0 2.4 2.4 2.4h7.7425q2.4 0 2.4-2.4v-4.8238q0-2.4-2.4-2.4h-7.7425q-2.4 0-2.4 2.4z" clip-path="url(#a)" fill="#fff" stroke="#fff"/>
<g clip-path="url(#a)">
<g transform="translate(227.49 251.64) rotate(90) scale(.08 -.08)">
<use xlink:href="#u"/>
</g>
</g>
<path d="m273.24 287.04v35.285q0 2.4 2.4 2.4h7.7425q2.4 0 2.4-2.4v-35.285q0-2.4-2.4-2.4h-7.7425q-2.4 0-2.4 2.4z" clip-path="url(#a)" fill="#fff" stroke="#fff"/>
<g clip-path="url(#a)">
<g transform="translate(277.31 287.04) rotate(90) scale(.08 -.08)">
<use xlink:href="#l"/>
<use x="60.818359" xlink:href="#e"/>
<use x="122.341797" xlink:href="#f"/>
<use x="163.439453" xlink:href="#j"/>
<use x="260.851562" xlink:href="#i"/>
<use x="288.634766" xlink:href="#h"/>
<use x="352.013672" xlink:href="#g"/>
<use x="413.292969" xlink:href="#k"/>
</g>
</g>
<path d="m223.42 287.04v35.285q0 2.4 2.4 2.4h7.7425q2.4 0 2.4-2.4v-35.285q0-2.4-2.4-2.4h-7.7425q-2.4 0-2.4 2.4z" clip-path="url(#a)" fill="#fff" stroke="#fff"/>
<g clip-path="url(#a)">
<g transform="translate(227.49 287.04) rotate(90) scale(.08 -.08)">
<use xlink:href="#l"/>
<use x="60.818359" xlink:href="#e"/>
<use x="122.341797" xlink:href="#f"/>
<use x="163.439453" xlink:href="#j"/>
<use x="260.851562" xlink:href="#i"/>
<use x="288.634766" xlink:href="#h"/>
<use x="352.013672" xlink:href="#g"/>
<use x="413.292969" xlink:href="#k"/>
</g>
</g>
<path d="m24.14 287.04v35.285q0 2.4 2.4 2.4h7.7425q2.4 0 2.4-2.4v-35.285q0-2.4-2.4-2.4h-7.7425q-2.4 0-2.4 2.4z" clip-path="url(#a)" fill="#fff" stroke="#fff"/>
<g clip-path="url(#a)">
<g transform="translate(28.204 287.04) rotate(90) scale(.08 -.08)">
<use xlink:href="#l"/>
<use x="60.818359" xlink:href="#e"/>
<use x="122.341797" xlink:href="#f"/>
<use x="163.439453" xlink:href="#j"/>
<use x="260.851562" xlink:href="#i"/>
<use x="288.634766" xlink:href="#h"/>
<use x="352.013672" xlink:href="#g"/>
<use x="413.292969" xlink:href="#k"/>
</g>
</g>
<path d="m73.96 287.04v35.285q0 2.4 2.4 2.4h7.7425q2.4 0 2.4-2.4v-35.285q0-2.4-2.4-2.4h-7.7425q-2.4 0-2.4 2.4z" clip-path="url(#a)" fill="#fff" stroke="#fff"/>
<g clip-path="url(#a)">
<g transform="translate(78.024 287.04) rotate(90) scale(.08 -.08)">
<use xlink:href="#l"/>
<use x="60.818359" xlink:href="#e"/>
<use x="122.341797" xlink:href="#f"/>
<use x="163.439453" xlink:href="#j"/>
<use x="260.851562" xlink:href="#i"/>
<use x="288.634766" xlink:href="#h"/>
<use x="352.013672" xlink:href="#g"/>
<use x="413.292969" xlink:href="#k"/>
</g>
</g>
<path d="m621.98 287.04v35.285q0 2.4 2.4 2.4h7.7425q2.4 0 2.4-2.4v-35.285q0-2.4-2.4-2.4h-7.7425q-2.4 0-2.4 2.4z" clip-path="url(#a)" fill="#fff" stroke="#fff"/>
<g clip-path="url(#a)">
<g transform="translate(626.05 287.04) rotate(90) scale(.08 -.08)">
<use xlink:href="#l"/>
<use x="60.818359" xlink:href="#e"/>
<use x="122.341797" xlink:href="#f"/>
<use x="163.439453" xlink:href="#j"/>
<use x="260.851562" xlink:href="#i"/>
<use x="288.634766" xlink:href="#h"/>
<use x="352.013672" xlink:href="#g"/>
<use x="413.292969" xlink:href="#k"/>
</g>
</g>
<defs>
<path id="c" d="m0 8.6603c2.2967 0 4.4997-0.9125 6.1237-2.5365 1.624-1.624 2.5365-3.827 2.5365-6.1237s-0.9125-4.4997-2.5365-6.1237c-1.624-1.624-3.827-2.5365-6.1237-2.5365s-4.4997 0.9125-6.1237 2.5365c-1.624 1.624-2.5365 3.827-2.5365 6.1237s0.9125 4.4997 2.5365 6.1237c1.624 1.624 3.827 2.5365 6.1237 2.5365z"/>
</defs>
<g clip-path="url(#a)">
<use x="30.411027" y="329.998365" fill="#ffffff" stroke="#ffffff" xlink:href="#c"/>
</g>
<g clip-path="url(#a)">
<use x="80.231412" y="329.998365" fill="#ffffff" stroke="#ffffff" xlink:href="#c"/>
</g>
<g clip-path="url(#a)">
<use x="130.051796" y="329.998365" fill="#ffffff" stroke="#ffffff" xlink:href="#c"/>
</g>
<g clip-path="url(#a)">
<use x="179.87218" y="329.998365" fill="#ffffff" stroke="#ffffff" xlink:href="#c"/>
</g>
<g clip-path="url(#a)">
<use x="229.692565" y="329.998365" fill="#ffffff" stroke="#ffffff" xlink:href="#c"/>
</g>
<g clip-path="url(#a)">
<use x="279.512949" y="329.998365" fill="#ffffff" stroke="#ffffff" xlink:href="#c"/>
</g>
<g clip-path="url(#a)">
<use x="329.333333" y="329.998365" fill="#ffffff" stroke="#ffffff" xlink:href="#c"/>
</g>
<g clip-path="url(#a)">
<use x="379.153718" y="329.998365" fill="#ffffff" stroke="#ffffff" xlink:href="#c"/>
</g>
<g clip-path="url(#a)">
<use x="428.974102" y="329.998365" fill="#ffffff" stroke="#ffffff" xlink:href="#c"/>
</g>
<g clip-path="url(#a)">
<use x="478.794486" y="329.998365" fill="#ffffff" stroke="#ffffff" xlink:href="#c"/>
</g>
<g clip-path="url(#a)">
<use x="528.614871" y="329.998365" fill="#ffffff" stroke="#ffffff" xlink:href="#c"/>
</g>
<g clip-path="url(#a)">
<use x="578.435255" y="329.998365" fill="#ffffff" stroke="#ffffff" xlink:href="#c"/>
</g>
<g clip-path="url(#a)">
<use x="628.255639" y="329.998365" fill="#ffffff" stroke="#ffffff" xlink:href="#c"/>
</g>
<g clip-path="url(#a)">
<use x="346.355298" y="16.668302" fill="#ffffff" stroke="#ffffff" xlink:href="#c"/>
</g>
<g clip-path="url(#a)">
<use x="346.355298" y="71.549133" fill="#ffffff" stroke="#ffffff" xlink:href="#c"/>
</g>
<g clip-path="url(#a)">
<use x="138.355193" y="125.067667" fill="#ffffff" stroke="#ffffff" xlink:href="#c"/>
</g>
<g clip-path="url(#a)">
<use x="329.333333" y="279.36501" fill="#ffffff" stroke="#ffffff" xlink:href="#c"/>
</g>
<g clip-path="url(#a)">
<use x="379.153718" y="279.36501" fill="#ffffff" stroke="#ffffff" xlink:href="#c"/>
</g>
<g clip-path="url(#a)">
<use x="538.578948" y="177.393934" fill="#ffffff" stroke="#ffffff" xlink:href="#c"/>
</g>
<g clip-path="url(#a)">
<use x="428.974102" y="279.36501" fill="#ffffff" stroke="#ffffff" xlink:href="#c"/>
</g>
<g clip-path="url(#a)">
<use x="528.614871" y="228.731655" fill="#ffffff" stroke="#ffffff" xlink:href="#c"/>
</g>
<g clip-path="url(#a)">
<use x="528.614871" y="279.36501" fill="#ffffff" stroke="#ffffff" xlink:href="#c"/>
</g>
<g clip-path="url(#a)">
<use x="578.435255" y="279.36501" fill="#ffffff" stroke="#ffffff" xlink:href="#c"/>
</g>
<g clip-path="url(#a)">
<use x="478.794486" y="279.36501" fill="#ffffff" stroke="#ffffff" xlink:href="#c"/>
</g>
<g clip-path="url(#a)">
<use x="55.321219" y="228.731655" fill="#ffffff" stroke="#ffffff" xlink:href="#c"/>
</g>
<g clip-path="url(#a)">
<use x="130.051796" y="279.36501" fill="#ffffff" stroke="#ffffff" xlink:href="#c"/>
</g>
<g clip-path="url(#a)">
<use x="229.692565" y="177.393934" fill="#ffffff" stroke="#ffffff" xlink:href="#c"/>
</g>
<g clip-path="url(#a)">
<use x="179.87218" y="279.36501" fill="#ffffff" stroke="#ffffff" xlink:href="#c"/>
</g>
<g clip-path="url(#a)">
<use x="229.692565" y="228.731655" fill="#ffffff" stroke="#ffffff" xlink:href="#c"/>
</g>
<g clip-path="url(#a)">
<use x="279.512949" y="279.36501" fill="#ffffff" stroke="#ffffff" xlink:href="#c"/>
</g>
<g clip-path="url(#a)">
<use x="229.692565" y="279.36501" fill="#ffffff" stroke="#ffffff" xlink:href="#c"/>
</g>
<g clip-path="url(#a)">
<use x="30.411027" y="279.36501" fill="#ffffff" stroke="#ffffff" xlink:href="#c"/>
</g>
<g clip-path="url(#a)">
<use x="80.231412" y="279.36501" fill="#ffffff" stroke="#ffffff" xlink:href="#c"/>
</g>
<g clip-path="url(#a)">
<use x="628.255639" y="279.36501" fill="#ffffff" stroke="#ffffff" xlink:href="#c"/>
</g>
<g clip-path="url(#a)">
<g transform="translate(26.991 332.76) scale(.1 -.1)">
<use xlink:href="#p"/>
</g>
</g>
<g clip-path="url(#a)">
<defs>
<path id="ao" d="m18.109 8.2031v-29h-9.0312v75.484h9.0312v-8.2969q2.8438 4.875 7.1562 7.2344 4.3281 2.375 10.328 2.375 9.9688 0 16.188-7.9062 6.2344-7.9062 6.2344-20.797t-6.2344-20.812q-6.2188-7.9062-16.188-7.9062-6 0-10.328 2.375-4.3125 2.375-7.1562 7.25zm30.578 19.094q0 9.9062-4.0781 15.547t-11.203 5.6406q-7.1406 0-11.219-5.6406t-4.0781-15.547 4.0781-15.547 11.219-5.6406q7.125 0 11.203 5.6406t4.0781 15.547z"/>
<path id="t" d="m48.781 52.594v-8.4062q-3.8125 2.1094-7.6406 3.1562t-7.7344 1.0469q-8.75 0-13.594-5.5469-4.8281-5.5312-4.8281-15.547t4.8281-15.562q4.8438-5.5312 13.594-5.5312 3.9062 0 7.7344 1.0469t7.6406 3.1562v-8.3125q-3.7656-1.75-7.7969-2.625-4.0156-0.89062-8.5625-0.89062-12.359 0-19.641 7.7656-7.2656 7.7656-7.2656 20.953 0 13.375 7.3438 21.031 7.3594 7.6719 20.156 7.6719 4.1406 0 8.0938-0.85938 3.9531-0.84375 7.6719-2.5469z"/>
<path id="ap" d="m9.0781 75.984h9.0312v-44.875l26.812 23.578h11.469l-29-25.578 30.234-29.109h-11.719l-27.797 26.703v-26.703h-9.0312z"/>
<path id="af" d="m45.406 27.984q0 9.7656-4.0312 15.125-4.0156 5.375-11.297 5.375-7.2188 0-11.25-5.375-4.0312-5.3594-4.0312-15.125 0-9.7188 4.0312-15.094t11.25-5.375q7.2812 0 11.297 5.375 4.0312 5.375 4.0312 15.094zm8.9844-21.203q0-13.953-6.2031-20.766-6.1875-6.8125-18.984-6.8125-4.7344 0-8.9375 0.70312t-8.1562 2.1719v8.7344q3.9531-2.1406 7.8125-3.1562 3.8594-1.0312 7.8594-1.0312 8.8438 0 13.234 4.6094t4.3906 13.938v4.4531q-2.7812-4.8438-7.125-7.2344t-10.406-2.3906q-10.047 0-16.203 7.6562-6.1562 7.6719-6.1562 20.328 0 12.688 6.1562 20.344 6.1562 7.6719 16.203 7.6719 6.0625 0 10.406-2.3906t7.125-7.2188v8.2969h8.9844z"/>
</defs>
<g transform="translate(59.035 332.76) scale(.1 -.1)">
<use xlink:href="#ao"/>
<use x="63.476562" xlink:href="#g"/>
<use x="124.755859" xlink:href="#t"/>
<use x="179.736328" xlink:href="#ap"/>
<use x="237.630859" xlink:href="#g"/>
<use x="298.910156" xlink:href="#af"/>
<use x="362.386719" xlink:href="#e"/>
</g>
</g>
<g clip-path="url(#a)">
<defs>
<path id="r" d="m45.406 46.391v29.594h8.9844v-75.984h-8.9844v8.2031q-2.8281-4.875-7.1562-7.25-4.3125-2.375-10.375-2.375-9.9062 0-16.141 7.9062-6.2188 7.9219-6.2188 20.812t6.2188 20.797q6.2344 7.9062 16.141 7.9062 6.0625 0 10.375-2.375 4.3281-2.3594 7.1562-7.2344zm-30.609-19.094q0-9.9062 4.0781-15.547t11.203-5.6406 11.219 5.6406q4.1094 5.6406 4.1094 15.547t-4.1094 15.547q-4.0938 5.6406-11.219 5.6406t-11.203-5.6406-4.0781-15.547z"/>
</defs>
<g transform="translate(120.64 332.76) scale(.1 -.1)">
<use xlink:href="#g"/>
<use x="61.279297" xlink:href="#h"/>
<use x="124.658203" xlink:href="#r"/>
</g>
</g>
<g clip-path="url(#a)">
<defs>
<path id="s" d="m44.281 53.078v-8.5q-3.7969 1.9531-7.9062 2.9219-4.0938 0.98438-8.5 0.98438-6.6875 0-10.031-2.0469t-3.3438-6.1562q0-3.125 2.3906-4.9062t9.625-3.3906l3.0781-0.6875q9.5625-2.0469 13.594-5.7812t4.0312-10.422q0-7.625-6.0312-12.078-6.0312-4.4375-16.578-4.4375-4.3906 0-9.1562 0.85938t-10.031 2.5625v9.2812q4.9844-2.5938 9.8125-3.8906 4.8281-1.2812 9.5781-1.2812 6.3438 0 9.75 2.1719 3.4219 2.1719 3.4219 6.125 0 3.6562-2.4688 5.6094-2.4531 1.9531-10.812 3.7656l-3.125 0.73438q-8.3438 1.75-12.062 5.3906-3.7031 3.6406-3.7031 9.9844 0 7.7188 5.4688 11.906 5.4688 4.2031 15.531 4.2031 4.9688 0 9.3594-0.73438 4.4062-0.71875 8.1094-2.1875z"/>
<path id="q" d="m30.609 48.391q-7.2188 0-11.422-5.6406t-4.2031-15.453 4.1719-15.453q4.1875-5.6406 11.453-5.6406 7.1875 0 11.375 5.6562 4.2031 5.6719 4.2031 15.438 0 9.7188-4.2031 15.406-4.1875 5.6875-11.375 5.6875zm0 7.6094q11.719 0 18.406-7.625 6.7031-7.6094 6.7031-21.078 0-13.422-6.7031-21.078-6.6875-7.6406-18.406-7.6406-11.766 0-18.438 7.6406-6.6562 7.6562-6.6562 21.078 0 13.469 6.6562 21.078 6.6719 7.625 18.438 7.625z"/>
</defs>
<g transform="translate(166.26 332.76) scale(.1 -.1)">
<use xlink:href="#s"/>
<use x="52.099609" xlink:href="#q"/>
<use x="113.28125" xlink:href="#j"/>
<use x="210.693359" xlink:href="#e"/>
</g>
</g>
<g clip-path="url(#a)">
<defs>
<path id="ad" d="m4.2031 54.688h8.9844l11.234-42.672 11.172 42.672h10.594l11.234-42.672 11.188 42.672h8.9844l-14.312-54.688h-10.594l-11.766 44.828-11.812-44.828h-10.609z"/>
</defs>
<g transform="translate(208.45 332.76) scale(.1 -.1)">
<use xlink:href="#ad"/>
<use x="81.787109" xlink:href="#e"/>
<use x="143.310547" xlink:href="#r"/>
<use x="206.787109" xlink:href="#r"/>
<use x="270.263672" xlink:href="#i"/>
<use x="298.046875" xlink:href="#h"/>
<use x="361.425781" xlink:href="#af"/>
</g>
</g>
<g clip-path="url(#a)">
<g transform="translate(265.87 332.76) scale(.1 -.1)">
<use xlink:href="#t"/>
<use x="54.980469" xlink:href="#g"/>
<use x="116.259766" xlink:href="#f"/>
<use x="157.357422" xlink:href="#r"/>
<use x="220.833984" xlink:href="#s"/>
</g>
</g>
<g clip-path="url(#a)">
<g transform="translate(317.04 332.76) scale(.1 -.1)">
<use xlink:href="#ad"/>
<use x="81.787109" xlink:href="#e"/>
<use x="143.310547" xlink:href="#f"/>
<use x="184.392578" xlink:href="#e"/>
</g>
</g>
<g clip-path="url(#a)">
<defs>
<path id="ag" d="m37.109 75.984v-7.4844h-8.5938q-4.8281 0-6.7188-1.9531-1.875-1.9531-1.875-7.0312v-4.8281h14.797v-6.9844h-14.797v-47.703h-9.0312v47.703h-8.5938v6.9844h8.5938v3.8125q0 9.125 4.25 13.297 4.25 4.1875 13.469 4.1875z"/>
<path id="ae" d="m18.312 70.219v-15.531h18.5v-6.9844h-18.5v-29.688q0-6.6875 1.8281-8.5938t7.4531-1.9062h9.2188v-7.5156h-9.2188q-10.406 0-14.359 3.875-3.9531 3.8906-3.9531 14.141v29.688h-6.5938v6.9844h6.5938v15.531z"/>
</defs>
<g transform="translate(370.97 332.76) scale(.1 -.1)">
<use xlink:href="#k"/>
<use x="27.783203" xlink:href="#e"/>
<use x="89.306641" xlink:href="#ag"/>
<use x="124.496094" xlink:href="#ae"/>
</g>
</g>
<g clip-path="url(#a)">
<g transform="translate(424.42 332.76) scale(.1 -.1)">
<use xlink:href="#i"/>
<use x="27.783203" xlink:href="#h"/>
</g>
</g>
<g clip-path="url(#a)">
<defs>
<path id="an" d="m8.5 21.578v33.109h8.9844v-32.766q0-7.7656 3.0156-11.656 3.0312-3.875 9.0938-3.875 7.2656 0 11.484 4.6406 4.2344 4.6406 4.2344 12.656v31h8.9844v-54.688h-8.9844v8.4062q-3.2656-4.9844-7.5938-7.4062-4.3125-2.4219-10.031-2.4219-9.4219 0-14.312 5.8594-4.875 5.8594-4.875 17.141z"/>
</defs>
<g transform="translate(470.51 332.76) scale(.1 -.1)">
<use xlink:href="#q"/>
<use x="61.181641" xlink:href="#an"/>
<use x="124.560547" xlink:href="#f"/>
</g>
</g>
<g clip-path="url(#a)">
<g transform="translate(518.85 332.76) scale(.1 -.1)">
<use xlink:href="#ag"/>
<use x="35.205078" xlink:href="#i"/>
<use x="62.988281" xlink:href="#f"/>
<use x="104.101562" xlink:href="#s"/>
<use x="156.201172" xlink:href="#ae"/>
</g>
</g>
<g clip-path="url(#a)">
<g transform="translate(565.39 332.76) scale(.1 -.1)">
<use xlink:href="#f"/>
<use x="41.082031" xlink:href="#q"/>
<use x="102.263672" xlink:href="#q"/>
<use x="163.445312" xlink:href="#j"/>
</g>
</g>
<g clip-path="url(#a)">
<defs>
<path id="d" d="m10.688 12.406h10.312v-12.406h-10.312z"/>
</defs>
<g transform="translate(626.67 332.76) scale(.1 -.1)">
<use xlink:href="#d"/>
</g>
</g>
<g clip-path="url(#a)">
<defs>
<path id="b" d="m12.406 8.2969h16.109v55.625l-17.531-3.5156v8.9844l17.438 3.5156h9.8594v-64.609h16.109v-8.2969h-41.984z"/>
</defs>
<g transform="translate(338.4 19.428) scale(.1 -.1)">
<use xlink:href="#b"/>
<use x="63.623047" xlink:href="#d"/>
<use x="95.410156" xlink:href="#b"/>
</g>
</g>
<g clip-path="url(#a)">
<defs>
<path id="m" d="m19.188 8.2969h34.422v-8.2969h-46.281v8.2969q5.6094 5.8125 15.297 15.594 9.7031 9.7969 12.188 12.641 4.7344 5.3125 6.6094 9 1.8906 3.6875 1.8906 7.25 0 5.8125-4.0781 9.4688-4.0781 3.6719-10.625 3.6719-4.6406 0-9.7969-1.6094-5.1406-1.6094-11-4.8906v9.9688q5.9531 2.3906 11.125 3.6094 5.1875 1.2188 9.4844 1.2188 11.328 0 18.062-5.6719 6.7344-5.6562 6.7344-15.125 0-4.5-1.6875-8.5312-1.6719-4.0156-6.125-9.4844-1.2188-1.4219-7.7656-8.1875-6.5312-6.7656-18.453-18.922z"/>
</defs>
<g transform="translate(338.4 74.309) scale(.1 -.1)">
<use xlink:href="#b"/>
<use x="63.623047" xlink:href="#d"/>
<use x="95.410156" xlink:href="#m"/>
</g>
</g>
<g clip-path="url(#a)">
<defs>
<path id="ab" d="m37.797 64.312-24.906-38.922h24.906zm-2.5938 8.5938h12.406v-47.516h10.406v-8.2031h-10.406v-17.188h-9.8125v17.188h-32.906v9.5156z"/>
</defs>
<g transform="translate(130.4 127.83) scale(.1 -.1)">
<use xlink:href="#b"/>
<use x="63.623047" xlink:href="#d"/>
<use x="95.410156" xlink:href="#ab"/>
</g>
</g>
<g clip-path="url(#a)">
<defs>
<path id="aa" d="m10.797 72.906h38.719v-8.3125h-29.688v-17.859q2.1406 0.73438 4.2812 1.0938 2.1562 0.35938 4.3125 0.35938 12.203 0 19.328-6.6875 7.1406-6.6875 7.1406-18.109 0-11.766-7.3281-18.297-7.3281-6.5156-20.656-6.5156-4.5938 0-9.3594 0.78125-4.75 0.78125-9.8281 2.3438v9.9219q4.3906-2.3906 9.0781-3.5625t9.9062-1.1719q8.4531 0 13.375 4.4375 4.9375 4.4375 4.9375 12.062 0 7.6094-4.9375 12.047-4.9219 4.4531-13.375 4.4531-3.9531 0-7.8906-0.875-3.9219-0.875-8.0156-2.7344z"/>
</defs>
<g transform="translate(321.38 282.12) scale(.1 -.1)">
<use xlink:href="#b"/>
<use x="63.623047" xlink:href="#d"/>
<use x="95.410156" xlink:href="#aa"/>
</g>
</g>
<g clip-path="url(#a)">
<defs>
<path id="z" d="m33.016 40.375q-6.6406 0-10.531-4.5469-3.875-4.5312-3.875-12.438 0-7.8594 3.875-12.438 3.8906-4.5625 10.531-4.5625t10.516 4.5625q3.875 4.5781 3.875 12.438 0 7.9062-3.875 12.438-3.875 4.5469-10.516 4.5469zm19.578 30.922v-8.9844q-3.7188 1.75-7.5 2.6719-3.7812 0.9375-7.5 0.9375-9.7656 0-14.922-6.5938-5.1406-6.5938-5.875-19.922 2.875 4.25 7.2188 6.5156 4.3594 2.2656 9.5781 2.2656 10.984 0 17.359-6.6719 6.375-6.6562 6.375-18.125 0-11.234-6.6406-18.031-6.6406-6.7812-17.672-6.7812-12.656 0-19.344 9.6875-6.6875 9.7031-6.6875 28.109 0 17.281 8.2031 27.562t22.016 10.281q3.7188 0 7.5-0.73438t7.8906-2.1875z"/>
</defs>
<g transform="translate(371.2 282.12) scale(.1 -.1)">
<use xlink:href="#b"/>
<use x="63.623047" xlink:href="#d"/>
<use x="95.410156" xlink:href="#z"/>
</g>
</g>
<g clip-path="url(#a)">
<defs>
<path id="y" d="m8.2031 72.906h46.875v-4.2031l-26.469-68.703h-10.297l24.906 64.594h-35.016z"/>
</defs>
<g transform="translate(530.63 180.15) scale(.1 -.1)">
<use xlink:href="#b"/>
<use x="63.623047" xlink:href="#d"/>
<use x="95.410156" xlink:href="#y"/>
</g>
</g>
<g clip-path="url(#a)">
<defs>
<path id="x" d="m31.781 34.625q-7.0312 0-11.062-3.7656-4.0156-3.7656-4.0156-10.344 0-6.5938 4.0156-10.359 4.0312-3.7656 11.062-3.7656t11.078 3.7812q4.0625 3.7969 4.0625 10.344 0 6.5781-4.0312 10.344-4.0156 3.7656-11.109 3.7656zm-9.8594 4.1875q-6.3438 1.5625-9.8906 5.9062-3.5312 4.3594-3.5312 10.609 0 8.7344 6.2188 13.812 6.2344 5.0781 17.062 5.0781 10.891 0 17.094-5.0781t6.2031-13.812q0-6.25-3.5469-10.609-3.5312-4.3438-9.8281-5.9062 7.125-1.6562 11.094-6.5 3.9844-4.8281 3.9844-11.797 0-10.609-6.4688-16.281-6.4688-5.6562-18.531-5.6562-12.047 0-18.531 5.6562-6.4688 5.6719-6.4688 16.281 0 6.9688 4 11.797 4.0156 4.8438 11.141 6.5zm-3.6094 15.578q0-5.6562 3.5312-8.8281 3.5469-3.1719 9.9375-3.1719 6.3594 0 9.9375 3.1719 3.5938 3.1719 3.5938 8.8281 0 5.6719-3.5938 8.8438-3.5781 3.1719-9.9375 3.1719-6.3906 0-9.9375-3.1719-3.5312-3.1719-3.5312-8.8438z"/>
</defs>
<g transform="translate(421.02 282.12) scale(.1 -.1)">
<use xlink:href="#b"/>
<use x="63.623047" xlink:href="#d"/>
<use x="95.410156" xlink:href="#x"/>
</g>
</g>
<g clip-path="url(#a)">
<defs>
<path id="w" d="m10.984 1.5156v8.9844q3.7188-1.7656 7.5156-2.6875 3.8125-0.92188 7.4844-0.92188 9.7656 0 14.906 6.5625 5.1562 6.5625 5.8906 19.953-2.8281-4.2031-7.1875-6.4531-4.3438-2.25-9.6094-2.25-10.938 0-17.312 6.6094-6.375 6.625-6.375 18.109 0 11.219 6.6406 18 6.6406 6.7969 17.672 6.7969 12.656 0 19.312-9.7031 6.6719-9.6875 6.6719-28.141 0-17.234-8.1875-27.516-8.1719-10.281-21.984-10.281-3.7188 0-7.5312 0.73438-3.7969 0.73438-7.9062 2.2031zm19.625 30.906q6.6406 0 10.516 4.5312 3.8906 4.5469 3.8906 12.469 0 7.8594-3.8906 12.422-3.875 4.5625-10.516 4.5625t-10.516-4.5625-3.875-12.422q0-7.9219 3.875-12.469 3.875-4.5312 10.516-4.5312z"/>
</defs>
<g transform="translate(520.66 231.49) scale(.1 -.1)">
<use xlink:href="#b"/>
<use x="63.623047" xlink:href="#d"/>
<use x="95.410156" xlink:href="#w"/>
</g>
</g>
<g clip-path="url(#a)">
<defs>
<path id="ac" d="m31.781 66.406q-7.6094 0-11.453-7.5-3.8281-7.4844-3.8281-22.531 0-14.984 3.8281-22.484 3.8438-7.5 11.453-7.5 7.6719 0 11.5 7.5 3.8438 7.5 3.8438 22.484 0 15.047-3.8438 22.531-3.8281 7.5-11.5 7.5zm0 7.8125q12.266 0 18.734-9.7031 6.4688-9.6875 6.4688-28.141 0-18.406-6.4688-28.109-6.4688-9.6875-18.734-9.6875-12.25 0-18.719 9.6875-6.4688 9.7031-6.4688 28.109 0 18.453 6.4688 28.141 6.4688 9.7031 18.719 9.7031z"/>
</defs>
<g transform="translate(517.48 282.12) scale(.1 -.1)">
<use xlink:href="#b"/>
<use x="63.623047" xlink:href="#d"/>
<use x="95.410156" xlink:href="#b"/>
<use x="159.033203" xlink:href="#ac"/>
</g>
</g>
<g clip-path="url(#a)">
<g transform="translate(567.3 282.12) scale(.1 -.1)">
<use xlink:href="#b"/>
<use x="63.623047" xlink:href="#d"/>
<use x="95.410156" xlink:href="#b"/>
<use x="159.033203" xlink:href="#b"/>
</g>
</g>
<g clip-path="url(#a)">
<g transform="translate(467.66 282.12) scale(.1 -.1)">
<use xlink:href="#b"/>
<use x="63.623047" xlink:href="#d"/>
<use x="95.410156" xlink:href="#b"/>
<use x="159.033203" xlink:href="#m"/>
</g>
</g>
<g clip-path="url(#a)">
<defs>
<path id="am" d="m40.578 39.312q7.0781-1.5156 11.047-6.3125 3.9844-4.7812 3.9844-11.812 0-10.781-7.4219-16.703-7.4219-5.9062-21.094-5.9062-4.5781 0-9.4375 0.90625t-10.031 2.7188v9.5156q4.0938-2.3906 8.9688-3.6094 4.8906-1.2188 10.219-1.2188 9.2656 0 14.125 3.6562t4.8594 10.641q0 6.4531-4.5156 10.078-4.5156 3.6406-12.562 3.6406h-8.5v8.1094h8.8906q7.2656 0 11.125 2.9062t3.8594 8.375q0 5.6094-3.9844 8.6094-3.9688 3.0156-11.391 3.0156-4.0625 0-8.7031-0.89062-4.6406-0.875-10.203-2.7188v8.7812q5.625 1.5625 10.531 2.3438t9.25 0.78125q11.234 0 17.766-5.1094 6.5469-5.0938 6.5469-13.781 0-6.0625-3.4688-10.234t-9.8594-5.7812z"/>
</defs>
<g transform="translate(44.188 231.49) scale(.1 -.1)">
<use xlink:href="#b"/>
<use x="63.623047" xlink:href="#d"/>
<use x="95.410156" xlink:href="#b"/>
<use x="159.033203" xlink:href="#am"/>
</g>
</g>
<g clip-path="url(#a)">
<g transform="translate(118.92 282.12) scale(.1 -.1)">
<use xlink:href="#b"/>
<use x="63.623047" xlink:href="#d"/>
<use x="95.410156" xlink:href="#b"/>
<use x="159.033203" xlink:href="#ab"/>
</g>
</g>
<g clip-path="url(#a)">
<g transform="translate(218.56 180.15) scale(.1 -.1)">
<use xlink:href="#b"/>
<use x="63.623047" xlink:href="#d"/>
<use x="95.410156" xlink:href="#b"/>
<use x="159.033203" xlink:href="#aa"/>
</g>
</g>
<g clip-path="url(#a)">
<g transform="translate(168.74 282.12) scale(.1 -.1)">
<use xlink:href="#b"/>
<use x="63.623047" xlink:href="#d"/>
<use x="95.410156" xlink:href="#b"/>
<use x="159.033203" xlink:href="#z"/>
</g>
</g>
<g clip-path="url(#a)">
<g transform="translate(218.56 231.49) scale(.1 -.1)">
<use xlink:href="#b"/>
<use x="63.623047" xlink:href="#d"/>
<use x="95.410156" xlink:href="#b"/>
<use x="159.033203" xlink:href="#y"/>
</g>
</g>
<g clip-path="url(#a)">
<g transform="translate(268.38 282.12) scale(.1 -.1)">
<use xlink:href="#b"/>
<use x="63.623047" xlink:href="#d"/>
<use x="95.410156" xlink:href="#b"/>
<use x="159.033203" xlink:href="#x"/>
</g>
</g>
<g clip-path="url(#a)">
<g transform="translate(218.56 282.12) scale(.1 -.1)">
<use xlink:href="#b"/>
<use x="63.623047" xlink:href="#d"/>
<use x="95.410156" xlink:href="#b"/>
<use x="159.033203" xlink:href="#w"/>
</g>
</g>
<g clip-path="url(#a)">
<g transform="translate(19.278 282.12) scale(.1 -.1)">
<use xlink:href="#b"/>
<use x="63.623047" xlink:href="#d"/>
<use x="95.410156" xlink:href="#m"/>
<use x="159.033203" xlink:href="#ac"/>
</g>
</g>
<g clip-path="url(#a)">
<g transform="translate(69.099 282.12) scale(.1 -.1)">
<use xlink:href="#b"/>
<use x="63.623047" xlink:href="#d"/>
<use x="95.410156" xlink:href="#m"/>
<use x="159.033203" xlink:href="#b"/>
</g>
</g>
<g clip-path="url(#a)">
<g transform="translate(617.12 282.12) scale(.1 -.1)">
<use xlink:href="#b"/>
<use x="63.623047" xlink:href="#d"/>
<use x="95.410156" xlink:href="#m"/>
<use x="159.033203" xlink:href="#m"/>
</g>
</g>
<defs>
<clipPath id="a">
<rect width="658.67" height="346.67"/>
</clipPath>
</defs>
</svg>
