<?xml version="1.0" encoding="UTF-8"?>
<!DOCTYPE svg  PUBLIC '-//W3C//DTD SVG 1.1//EN'  'http://www.w3.org/Graphics/SVG/1.1/DTD/svg11.dtd'>
<svg width="962.67pt" height="506.67pt" version="1.1" viewBox="0 0 962.67 506.67" xmlns="http://www.w3.org/2000/svg" xmlns:xlink="http://www.w3.org/1999/xlink">
<defs>
<style type="text/css">*{stroke-linecap:butt;stroke-linejoin:round;}</style>
</defs>
<path d="m0 506.67h962.67v-506.67h-962.67z" fill="#fff"/>
<g fill="none" stroke="#000">
<path d="m397.77 23.943-224.95 158.72" clip-path="url(#a)"/>
<path d="m397.77 23.943-13.604 384.64" clip-path="url(#a)"/>
<path d="m397.77 23.943-110.77 80.357" clip-path="url(#a)"/>
<path d="m397.77 23.943 120 158.72" clip-path="url(#a)"/>
<path d="m397.77 23.943 229.32 384.64" clip-path="url(#a)"/>
<path d="m172.82 182.66-128.75 225.92" clip-path="url(#a)"/>
<path d="m172.82 182.66-80.165 225.92" clip-path="url(#a)"/>
<path d="m172.82 182.66-7.2877 151.79" clip-path="url(#a)"/>
<path d="m172.82 182.66 65.589 225.92" clip-path="url(#a)"/>
<path d="m172.82 182.66 150.61 76.617" clip-path="url(#a)"/>
<path d="m384.16 408.59v74.138" clip-path="url(#a)"/>
<path d="m287 104.3 194.34 78.362" clip-path="url(#a)"/>
<path d="m287 104.3-194.34 304.29" clip-path="url(#a)" stroke-dasharray="3.7,1.6"/>
<path d="m517.77 182.66 157.9 225.92" clip-path="url(#a)"/>
<path d="m517.77 182.66 267.22 76.617" clip-path="url(#a)"/>
<path d="m517.77 182.66-425.11 225.92" clip-path="url(#a)" stroke-dasharray="3.7,1.6"/>
<path d="m675.67 408.59v74.138" clip-path="url(#a)"/>
<path d="m784.99 259.28-60.731 149.31" clip-path="url(#a)"/>
<path d="m784.99 259.28 60.731 75.169" clip-path="url(#a)"/>
<path d="m724.26 408.59v74.138" clip-path="url(#a)"/>
<path d="m845.72 334.45-72.877 74.138" clip-path="url(#a)"/>
<path d="m845.72 334.45-24.292 74.138" clip-path="url(#a)"/>
<path d="m845.72 334.45 24.292 74.138" clip-path="url(#a)"/>
<path d="m845.72 334.45 72.877 74.138" clip-path="url(#a)"/>
<path d="m772.84 408.59v74.138" clip-path="url(#a)"/>
<path d="m821.43 408.59v74.138" clip-path="url(#a)"/>
<path d="m870.01 408.59v74.138" clip-path="url(#a)"/>
<path d="m481.33 182.66-48.585 225.92" clip-path="url(#a)"/>
<path d="m481.33 182.66 48.585 76.617" clip-path="url(#a)"/>
<path d="m432.75 408.59v74.138" clip-path="url(#a)"/>
<path d="m529.92 259.28-48.585 149.31" clip-path="url(#a)"/>
<path d="m529.92 259.28v149.31" clip-path="url(#a)"/>
<path d="m529.92 259.28 48.585 75.169" clip-path="url(#a)"/>
<path d="m481.33 408.59v74.138" clip-path="url(#a)"/>
<path d="m529.92 408.59v74.138" clip-path="url(#a)"/>
<path d="m578.5 334.45v74.138" clip-path="url(#a)"/>
<path d="m578.5 408.59v74.138" clip-path="url(#a)"/>
<path d="m44.072 408.59v74.138" clip-path="url(#a)"/>
<path d="m92.657 408.59v74.138" clip-path="url(#a)"/>
<path d="m165.53 334.45-24.292 74.138" clip-path="url(#a)"/>
<path d="m165.53 334.45 24.292 74.138" clip-path="url(#a)"/>
<path d="m238.41 408.59v74.138" clip-path="url(#a)"/>
<path d="m323.43 259.28-12.146 75.169" clip-path="url(#a)"/>
<path d="m323.43 259.28 12.146 149.31" clip-path="url(#a)"/>
<path d="m311.29 334.45 24.292 74.138" clip-path="url(#a)" stroke-dasharray="3.7,1.6"/>
<path d="m311.29 334.45-24.292 74.138" clip-path="url(#a)"/>
<path d="m335.58 408.59v74.138" clip-path="url(#a)"/>
<path d="m287 408.59v74.138" clip-path="url(#a)"/>
<path d="m141.24 408.59v74.138" clip-path="url(#a)"/>
<path d="m189.83 408.59v74.138" clip-path="url(#a)"/>
<path d="m627.09 408.59v74.138" clip-path="url(#a)"/>
<path d="m918.59 408.59v74.138" clip-path="url(#a)"/>
</g>
<path d="m286.45 110.16 4.9158-3.4685q1.961-1.3837 0.57734-3.3446l-4.4637-6.3263q-1.3837-1.961-3.3446-0.57734l-4.9158 3.4685q-1.961 1.3837-0.57734 3.3446l4.4637 6.3263q1.3837 1.961 3.3446 0.57734z" clip-path="url(#a)" fill="#fff" stroke="#fff"/>
<g clip-path="url(#a)">
<defs>
<path id="u" d="m9.8125 72.906h9.8594v-29.891h35.844v29.891h9.8594v-72.906h-9.8594v34.719h-35.844v-34.719h-9.8594z"/>
</defs>
<g transform="translate(284.11 106.84) rotate(-35.206) scale(.08 -.08)">
<use xlink:href="#u"/>
</g>
</g>
<path d="m397.15 218.71 0.15755-4.4547q0.084828-2.3985-2.3137-2.4833l-7.7377-0.27366q-2.3985-0.084828-2.4833 2.3137l-0.15755 4.4547q-0.084828 2.3985 2.3137 2.4833l7.7377 0.27366q2.3985 0.084828 2.4833-2.3137z" clip-path="url(#a)" fill="#fff" stroke="#fff"/>
<g clip-path="url(#a)">
<defs>
<path id="am" d="m9.8125 72.906h9.8594v-64.609h35.5v-8.2969h-45.359z"/>
</defs>
<g transform="translate(393.09 218.57) rotate(-87.974) scale(.08 -.08)">
<use xlink:href="#am"/>
</g>
</g>
<path d="m343.63 70.964 4.8698-3.5327q1.9427-1.4093 0.53341-3.3519l-4.5463-6.2672q-1.4093-1.9427-3.3519-0.53341l-4.8698 3.5327q-1.9427 1.4093-0.53342 3.3519l4.5463 6.2672q1.4093 1.9427 3.3519 0.53341z" clip-path="url(#a)" fill="#fff" stroke="#fff"/>
<g clip-path="url(#a)">
<g transform="translate(341.24 67.674) rotate(-35.958) scale(.08 -.08)">
<use xlink:href="#u"/>
</g>
</g>
<path d="m450.95 104.69 3.6284 4.799q1.4474 1.9144 3.3618 0.46697l6.1759-4.6695q1.9144-1.4474 0.46697-3.3618l-3.6284-4.799q-1.4474-1.9144-3.3618-0.46697l-6.1759 4.6695q-1.9144 1.4474-0.46697 3.3618z" clip-path="url(#a)" fill="#fff" stroke="#fff"/>
<g clip-path="url(#a)">
<g transform="translate(454.19 102.23) rotate(52.908) scale(.08 -.08)">
<use xlink:href="#u"/>
</g>
</g>
<path d="m505.54 216.96 2.9983 5.0291q1.229 2.0614 3.2904 0.83244l6.6503-3.9648q2.0614-1.229 0.83244-3.2904l-2.9983-5.0291q-1.229-2.0614-3.2904-0.83244l-6.6503 3.9648q-2.0614 1.229-0.83244 3.2904z" clip-path="url(#a)" fill="#fff" stroke="#fff"/>
<g clip-path="url(#a)">
<defs>
<path id="ae" d="m8.6875 72.906h9.9219v-44.297q0-11.719 4.2344-16.875 4.25-5.1406 13.781-5.1406 9.4688 0 13.719 5.1406 4.25 5.1562 4.25 16.875v44.297h9.9062v-45.516q0-14.25-7.0625-21.531-7.0469-7.2812-20.812-7.2812-13.828 0-20.891 7.2812-7.0469 7.2812-7.0469 21.531z"/>
</defs>
<g transform="translate(509.03 214.88) rotate(59.197) scale(.08 -.08)">
<use xlink:href="#ae"/>
</g>
</g>
<path d="m112.76 300.73 2.2782-3.9977q1.1883-2.0852-0.89688-3.2735l-6.7269-3.8335q-2.0852-1.1883-3.2735 0.89688l-2.2782 3.9977q-1.1883 2.0852 0.89688 3.2735l6.7269 3.8335q2.0852 1.1883 3.2735-0.89688z" clip-path="url(#a)" fill="#fff" stroke="#fff"/>
<g clip-path="url(#a)">
<defs>
<path id="ah" d="m9.8125 72.906h41.891v-8.3125h-32.031v-21.484h28.906v-8.2969h-28.906v-34.812h-9.8594z"/>
</defs>
<g transform="translate(109.23 298.72) rotate(-60.322) scale(.08 -.08)">
<use xlink:href="#ah"/>
</g>
</g>
<path d="m137.88 299.89 1.5387-4.3364q0.80257-2.2618-1.4593-3.0644l-7.2968-2.5891q-2.2618-0.80257-3.0644 1.4593l-1.5387 4.3364q-0.80257 2.2618 1.4593 3.0644l7.2968 2.5891q2.2618 0.80257 3.0644-1.4593z" clip-path="url(#a)" fill="#fff" stroke="#fff"/>
<g clip-path="url(#a)">
<g transform="translate(134.05 298.53) rotate(-70.464) scale(.08 -.08)">
<use xlink:href="#ah"/>
</g>
</g>
<path d="m175.31 261.59 0.26245-5.4662q0.1151-2.3972-2.2821-2.5123l-7.7336-0.37131q-2.3972-0.1151-2.5123 2.2821l-0.26245 5.4662q-0.1151 2.3972 2.2821 2.5123l7.7336 0.37131q2.3972 0.1151 2.5123-2.2821z" clip-path="url(#a)" fill="#fff" stroke="#fff"/>
<g clip-path="url(#a)">
<defs>
<path id="r" d="m34.188 63.188-13.391-36.281h26.812zm-5.5781 9.7188h11.188l27.781-72.906h-10.25l-6.6406 18.703h-32.859l-6.6406-18.703h-10.406z"/>
</defs>
<g transform="translate(171.25 261.39) rotate(-87.251) scale(.08 -.08)">
<use xlink:href="#r"/>
</g>
</g>
<path d="m198.89 294.93 1.416 4.8774q0.66913 2.3048 2.974 1.6357l7.4355-2.1586q2.3048-0.66913 1.6357-2.974l-1.416-4.8774q-0.66913-2.3048-2.974-1.6357l-7.4355 2.1586q-2.3048 0.66913-1.6357 2.974z" clip-path="url(#a)" fill="#fff" stroke="#fff"/>
<g clip-path="url(#a)">
<defs>
<path id="s" d="m53.516 70.516v-9.625q-5.6094 2.6875-10.594 4-4.9844 1.3281-9.625 1.3281-8.0469 0-12.422-3.125t-4.375-8.8906q0-4.8438 2.9062-7.3125 2.9062-2.4531 11.016-3.9688l5.9531-1.2188q11.031-2.1094 16.281-7.4062t5.25-14.172q0-10.609-7.1094-16.078-7.0938-5.4688-20.812-5.4688-5.1719 0-11.016 1.1719-5.8281 1.1719-12.078 3.4688v10.156q6-3.3594 11.766-5.0781 5.7656-1.7031 11.328-1.7031 8.4375 0 13.031 3.3125 4.5938 3.3281 4.5938 9.4844 0 5.3594-3.2969 8.3906t-10.812 4.5469l-6.0156 1.1719q-11.031 2.1875-15.969 6.875-4.9219 4.6875-4.9219 13.047 0 9.6719 6.8125 15.234t18.766 5.5625q5.1406 0 10.453-0.9375 5.3281-0.92188 10.891-2.7656z"/>
</defs>
<g transform="translate(202.79 293.8) rotate(73.811) scale(.08 -.08)">
<use xlink:href="#s"/>
</g>
</g>
<path d="m242.85 225.32 4.8777 2.4813q2.1391 1.0882 3.2273-1.0509l3.5105-6.9009q1.0882-2.1391-1.0509-3.2273l-4.8777-2.4813q-2.1391-1.0882-3.2273 1.051l-3.5105 6.9009q-1.0882 2.1391 1.0509 3.2273z" clip-path="url(#a)" fill="#fff" stroke="#fff"/>
<g clip-path="url(#a)">
<g transform="translate(244.69 221.7) rotate(26.963) scale(.08 -.08)">
<use xlink:href="#r"/>
</g>
</g>
<path d="m377.89 428.01v35.285q0 2.4 2.4 2.4h7.7425q2.4 0 2.4-2.4v-35.285q0-2.4-2.4-2.4h-7.7425q-2.4 0-2.4 2.4z" clip-path="url(#a)" fill="#fff" stroke="#fff"/>
<g clip-path="url(#a)">
<defs>
<path id="k" d="m-0.29688 72.906h61.672v-8.3125h-25.875v-64.594h-9.9062v64.594h-25.891z"/>
<path id="e" d="m56.203 29.594v-4.3906h-41.312q0.59375-9.2812 5.5938-14.141t13.938-4.8594q5.1719 0 10.031 1.2656t9.6562 3.8125v-8.5q-4.8438-2.0469-9.9219-3.125t-10.297-1.0781q-13.094 0-20.734 7.6094-7.6406 7.625-7.6406 20.625 0 13.422 7.25 21.297 7.25 7.8906 19.562 7.8906 11.031 0 17.453-7.1094 6.4219-7.0938 6.4219-19.297zm-8.9844 2.6406q-0.09375 7.3594-4.125 11.75-4.0312 4.4062-10.672 4.4062-7.5156 0-12.031-4.25t-5.2031-11.969z"/>
<path id="f" d="m41.109 46.297q-1.5156 0.875-3.2969 1.2812-1.7812 0.42188-3.9219 0.42188-7.625 0-11.703-4.9531t-4.0781-14.234v-28.812h-9.0312v54.688h9.0312v-8.5q2.8438 4.9844 7.375 7.3906 4.5469 2.4219 11.047 2.4219 0.92188 0 2.0469-0.125 1.125-0.10938 2.4844-0.35938z"/>
<path id="l" d="m52 44.188q3.375 6.0625 8.0625 8.9375t11.031 2.875q8.5469 0 13.188-5.9844 4.6406-5.9688 4.6406-17v-33.016h-9.0312v32.719q0 7.8594-2.7969 11.656-2.7812 3.8125-8.4844 3.8125-6.9844 0-11.047-4.6406-4.0469-4.625-4.0469-12.641v-30.906h-9.0312v32.719q0 7.9062-2.7812 11.688t-8.5938 3.7812q-6.8906 0-10.953-4.6562-4.0469-4.6562-4.0469-12.625v-30.906h-9.0312v54.688h9.0312v-8.5q3.0781 5.0312 7.375 7.4219t10.203 2.3906q5.9688 0 10.141-3.0312 4.1719-3.0156 6.1719-8.7812z"/>
<path id="j" d="m9.4219 54.688h8.9844v-54.688h-8.9844zm0 21.297h8.9844v-11.391h-8.9844z"/>
<path id="g" d="m54.891 33.016v-33.016h-8.9844v32.719q0 7.7656-3.0312 11.609-3.0312 3.8594-9.0781 3.8594-7.2812 0-11.484-4.6406-4.2031-4.625-4.2031-12.641v-30.906h-9.0312v54.688h9.0312v-8.5q3.2344 4.9375 7.5938 7.375 4.375 2.4375 10.094 2.4375 9.4219 0 14.25-5.8281 4.8438-5.8281 4.8438-17.156z"/>
<path id="i" d="m34.281 27.484q-10.891 0-15.094-2.4844t-4.2031-8.5q0-4.7812 3.1562-7.5938 3.1562-2.7969 8.5625-2.7969 7.4844 0 12 5.2969t4.5156 14.078v2zm17.922 3.7188v-31.203h-8.9844v8.2969q-3.0781-4.9688-7.6719-7.3438t-11.234-2.375q-8.3906 0-13.359 4.7188-4.9531 4.7188-4.9531 12.625 0 9.2188 6.1719 13.906 6.1875 4.6875 18.438 4.6875h12.609v0.89062q0 6.2031-4.0781 9.5938t-11.453 3.3906q-4.6875 0-9.1406-1.125-4.4375-1.125-8.5312-3.375v8.3125q4.9219 1.9062 9.5625 2.8438 4.6406 0.95312 9.0312 0.95312 11.875 0 17.734-6.1562 5.8594-6.1406 5.8594-18.641z"/>
<path id="h" d="m9.4219 75.984h8.9844v-75.984h-8.9844z"/>
</defs>
<g transform="translate(381.96 428.01) rotate(90) scale(.08 -.08)">
<use xlink:href="#k"/>
<use x="60.818359" xlink:href="#e"/>
<use x="122.341797" xlink:href="#f"/>
<use x="163.439453" xlink:href="#l"/>
<use x="260.851562" xlink:href="#j"/>
<use x="288.634766" xlink:href="#g"/>
<use x="352.013672" xlink:href="#i"/>
<use x="413.292969" xlink:href="#h"/>
</g>
</g>
<path d="m379.28 148.27 5.0754 2.0465q2.2259 0.89753 3.1234-1.3283l2.8955-7.1807q0.89753-2.2259-1.3283-3.1234l-5.0754-2.0465q-2.2259-0.89753-3.1234 1.3283l-2.8955 7.1807q-0.89753 2.2259 1.3283 3.1234z" clip-path="url(#a)" fill="#fff" stroke="#fff"/>
<g clip-path="url(#a)">
<g transform="translate(380.8 144.51) rotate(21.961) scale(.08 -.08)">
<use xlink:href="#r"/>
</g>
</g>
<path d="m193.74 261.96 2.7337-4.2803q1.2918-2.0227-0.73085-3.3145l-6.5252-4.1675q-2.0227-1.2918-3.3145 0.73085l-2.7337 4.2803q-1.2918 2.0227 0.73085 3.3145l6.5252 4.1675q2.0227 1.2918 3.3145-0.73085z" clip-path="url(#a)" fill="#fff" stroke="#fff"/>
<g clip-path="url(#a)">
<g transform="translate(190.32 259.77) rotate(-57.435) scale(.08 -.08)">
<use xlink:href="#s"/>
</g>
</g>
<path d="m589.82 296.69 3.5288 5.0491q1.3749 1.9672 3.342 0.5923l6.3462-4.4354q1.9672-1.3749 0.5923-3.342l-3.5288-5.0491q-1.3749-1.9672-3.342-0.5923l-6.3462 4.4354q-1.9672 1.3749-0.5923 3.342z" clip-path="url(#a)" fill="#fff" stroke="#fff"/>
<g clip-path="url(#a)">
<defs>
<path id="an" d="m19.672 64.797v-56.688h11.922q15.094 0 22.094 6.8281 7 6.8438 7 21.594 0 14.641-7 21.453t-22.094 6.8125zm-9.8594 8.1094h20.266q21.188 0 31.094-8.8125 9.9219-8.8125 9.9219-27.562 0-18.859-9.9688-27.703-9.9531-8.8281-31.047-8.8281h-20.266z"/>
</defs>
<g transform="translate(593.15 294.36) rotate(55.05) scale(.08 -.08)">
<use xlink:href="#an"/>
</g>
</g>
<path d="m647.02 226.24 5.2605 1.5083q2.307 0.66148 2.9685-1.6456l2.134-7.4426q0.66148-2.307-1.6456-2.9685l-5.2605-1.5083q-2.307-0.66148-2.9685 1.6456l-2.134 7.4426q-0.66148 2.307 1.6456 2.9685z" clip-path="url(#a)" fill="#fff" stroke="#fff"/>
<g clip-path="url(#a)">
<g transform="translate(648.14 222.34) rotate(15.999) scale(.08 -.08)">
<use xlink:href="#r"/>
</g>
</g>
<path d="m305.91 302.35 4.4848-2.3834q2.1193-1.1263 0.99302-3.2456l-3.6335-6.837q-1.1263-2.1193-3.2456-0.99302l-4.4848 2.3834q-2.1193 1.1263-0.99302 3.2456l3.6335 6.837q1.1263 2.1193 3.2456 0.99302z" clip-path="url(#a)" fill="#fff" stroke="#fff"/>
<g clip-path="url(#a)">
<g transform="translate(304.01 298.77) rotate(-27.988) scale(.08 -.08)">
<use xlink:href="#s"/>
</g>
</g>
<path d="m669.4 428.01v35.285q0 2.4 2.4 2.4h7.7425q2.4 0 2.4-2.4v-35.285q0-2.4-2.4-2.4h-7.7425q-2.4 0-2.4 2.4z" clip-path="url(#a)" fill="#fff" stroke="#fff"/>
<g clip-path="url(#a)">
<g transform="translate(673.46 428.01) rotate(90) scale(.08 -.08)">
<use xlink:href="#k"/>
<use x="60.818359" xlink:href="#e"/>
<use x="122.341797" xlink:href="#f"/>
<use x="163.439453" xlink:href="#l"/>
<use x="260.851562" xlink:href="#j"/>
<use x="288.634766" xlink:href="#g"/>
<use x="352.013672" xlink:href="#i"/>
<use x="413.292969" xlink:href="#h"/>
</g>
</g>
<path d="m759.38 338.88 2.1048-5.1746q0.90426-2.2231-1.3189-3.1274l-7.1719-2.9172q-2.2231-0.90426-3.1274 1.3189l-2.1048 5.1746q-0.90426 2.2231 1.3189 3.1274l7.1719 2.9172q2.2231 0.90426 3.1274-1.3189z" clip-path="url(#a)" fill="#fff" stroke="#fff"/>
<g clip-path="url(#a)">
<defs>
<path id="p" d="m64.406 67.281v-10.391q-4.9844 4.6406-10.625 6.9219-5.6406 2.2969-11.984 2.2969-12.5 0-19.141-7.6406t-6.6406-22.094q0-14.406 6.6406-22.047t19.141-7.6406q6.3438 0 11.984 2.2969t10.625 6.9375v-10.312q-5.1719-3.5156-10.969-5.2812-5.7812-1.75-12.219-1.75-16.562 0-26.094 10.125-9.5156 10.141-9.5156 27.672 0 17.578 9.5156 27.703 9.5312 10.141 26.094 10.141 6.5312 0 12.312-1.7344 5.7969-1.7344 10.875-5.2031z"/>
</defs>
<g transform="translate(755.61 337.35) rotate(-67.866) scale(.08 -.08)">
<use xlink:href="#p"/>
</g>
</g>
<path d="m808.89 298.84 3.1768 3.9321q1.5083 1.8669 3.3751 0.35858l6.0225-4.8657q1.8669-1.5083 0.35859-3.3751l-3.1768-3.9321q-1.5083-1.8669-3.3751-0.35859l-6.0225 4.8657q-1.8669 1.5083-0.35859 3.3751z" clip-path="url(#a)" fill="#fff" stroke="#fff"/>
<g clip-path="url(#a)">
<defs>
<path id="q" d="m9.8125 72.906h46.094v-8.3125h-36.234v-21.578h34.719v-8.2969h-34.719v-26.422h37.109v-8.2969h-46.969z"/>
</defs>
<g transform="translate(812.05 296.28) rotate(51.065) scale(.08 -.08)">
<use xlink:href="#q"/>
</g>
</g>
<path d="m717.98 428.01v35.285q0 2.4 2.4 2.4h7.7425q2.4 0 2.4-2.4v-35.285q0-2.4-2.4-2.4h-7.7425q-2.4 0-2.4 2.4z" clip-path="url(#a)" fill="#fff" stroke="#fff"/>
<g clip-path="url(#a)">
<g transform="translate(722.05 428.01) rotate(90) scale(.08 -.08)">
<use xlink:href="#k"/>
<use x="60.818359" xlink:href="#e"/>
<use x="122.341797" xlink:href="#f"/>
<use x="163.439453" xlink:href="#l"/>
<use x="260.851562" xlink:href="#j"/>
<use x="288.634766" xlink:href="#g"/>
<use x="352.013672" xlink:href="#i"/>
<use x="413.292969" xlink:href="#h"/>
</g>
</g>
<path d="m811.8 377.9 3.8968-3.9642q1.6824-1.7116-0.029113-3.394l-5.5215-5.4276q-1.7116-1.6824-3.394 0.029113l-3.8968 3.9642q-1.6824 1.7116 0.029113 3.394l5.5215 5.4276q1.7116 1.6824 3.394-0.029113z" clip-path="url(#a)" fill="#fff" stroke="#fff"/>
<g clip-path="url(#a)">
<defs>
<path id="af" d="m44.391 34.188q3.1719-1.0781 6.1719-4.5938t6.0312-9.6719l10.016-19.922h-10.609l-9.3125 18.703q-3.625 7.3281-7.0156 9.7188t-9.25 2.3906h-10.75v-30.812h-9.8594v72.906h22.266q12.5 0 18.656-5.2344 6.1562-5.2188 6.1562-15.766 0-6.8906-3.2031-11.438-3.2031-4.5312-9.2969-6.2812zm-24.719 30.609v-25.875h12.406q7.125 0 10.766 3.2969t3.6406 9.6875-3.6406 9.6406-10.766 3.25z"/>
</defs>
<g transform="translate(808.91 375.05) rotate(-45.491) scale(.08 -.08)">
<use xlink:href="#af"/>
</g>
</g>
<path d="m838.74 375.87 1.574-4.8037q0.7473-2.2807-1.5334-3.028l-7.3576-2.4108q-2.2807-0.7473-3.028 1.5334l-1.574 4.8037q-0.7473 2.2807 1.5334 3.028l7.3576 2.4108q2.2807 0.7473 3.028-1.5334z" clip-path="url(#a)" fill="#fff" stroke="#fff"/>
<g clip-path="url(#a)">
<g transform="translate(834.88 374.61) rotate(-71.858) scale(.08 -.08)">
<use xlink:href="#q"/>
</g>
</g>
<path d="m851.03 370.82 1.7394 5.3085q0.7473 2.2807 3.028 1.5334l7.3576-2.4108q2.2807-0.7473 1.5334-3.028l-1.7394-5.3085q-0.7473-2.2807-3.028-1.5334l-7.3576 2.4108q-2.2807 0.7473-1.5334 3.028z" clip-path="url(#a)" fill="#fff" stroke="#fff"/>
<g clip-path="url(#a)">
<g transform="translate(854.9 369.55) rotate(71.858) scale(.08 -.08)">
<use xlink:href="#p"/>
</g>
</g>
<path d="m875.63 373.83 4.1044 4.1755q1.6824 1.7116 3.394 0.029113l5.5215-5.4276q1.7116-1.6824 0.029113-3.394l-4.1044-4.1755q-1.6824-1.7116-3.394-0.029113l-5.5215 5.4276q-1.7116 1.6824-0.029113 3.394z" clip-path="url(#a)" fill="#fff" stroke="#fff"/>
<g clip-path="url(#a)">
<g transform="translate(878.53 370.98) rotate(45.491) scale(.08 -.08)">
<use xlink:href="#ae"/>
</g>
</g>
<path d="m766.57 428.01v35.285q0 2.4 2.4 2.4h7.7425q2.4 0 2.4-2.4v-35.285q0-2.4-2.4-2.4h-7.7425q-2.4 0-2.4 2.4z" clip-path="url(#a)" fill="#fff" stroke="#fff"/>
<g clip-path="url(#a)">
<g transform="translate(770.63 428.01) rotate(90) scale(.08 -.08)">
<use xlink:href="#k"/>
<use x="60.818359" xlink:href="#e"/>
<use x="122.341797" xlink:href="#f"/>
<use x="163.439453" xlink:href="#l"/>
<use x="260.851562" xlink:href="#j"/>
<use x="288.634766" xlink:href="#g"/>
<use x="352.013672" xlink:href="#i"/>
<use x="413.292969" xlink:href="#h"/>
</g>
</g>
<path d="m815.15 428.01v35.285q0 2.4 2.4 2.4h7.7425q2.4 0 2.4-2.4v-35.285q0-2.4-2.4-2.4h-7.7425q-2.4 0-2.4 2.4z" clip-path="url(#a)" fill="#fff" stroke="#fff"/>
<g clip-path="url(#a)">
<g transform="translate(819.22 428.01) rotate(90) scale(.08 -.08)">
<use xlink:href="#k"/>
<use x="60.818359" xlink:href="#e"/>
<use x="122.341797" xlink:href="#f"/>
<use x="163.439453" xlink:href="#l"/>
<use x="260.851562" xlink:href="#j"/>
<use x="288.634766" xlink:href="#g"/>
<use x="352.013672" xlink:href="#i"/>
<use x="413.292969" xlink:href="#h"/>
</g>
</g>
<path d="m863.74 428.01v35.285q0 2.4 2.4 2.4h7.7425q2.4 0 2.4-2.4v-35.285q0-2.4-2.4-2.4h-7.7425q-2.4 0-2.4 2.4z" clip-path="url(#a)" fill="#fff" stroke="#fff"/>
<g clip-path="url(#a)">
<g transform="translate(867.8 428.01) rotate(90) scale(.08 -.08)">
<use xlink:href="#k"/>
<use x="60.818359" xlink:href="#e"/>
<use x="122.341797" xlink:href="#f"/>
<use x="163.439453" xlink:href="#l"/>
<use x="260.851562" xlink:href="#j"/>
<use x="288.634766" xlink:href="#g"/>
<use x="352.013672" xlink:href="#i"/>
<use x="413.292969" xlink:href="#h"/>
</g>
</g>
<path d="m462.58 299.67 1.1745-5.4614q0.50458-2.3464-1.8418-2.8509l-7.5695-1.6278q-2.3464-0.50458-2.8509 1.8418l-1.1745 5.4614q-0.50458 2.3464 1.8418 2.8509l7.5694 1.6278q2.3464 0.50458 2.8509-1.8418z" clip-path="url(#a)" fill="#fff" stroke="#fff"/>
<g clip-path="url(#a)">
<g transform="translate(458.61 298.82) rotate(-77.863) scale(.08 -.08)">
<use xlink:href="#p"/>
</g>
</g>
<path d="m498.98 222.19 2.7071 4.269q1.2853 2.0268 3.3121 0.74157l6.5387-4.1463q2.0268-1.2853 0.74157-3.3121l-2.7071-4.269q-1.2853-2.0268-3.3121-0.74157l-6.5387 4.1463q-2.0268 1.2853-0.74157 3.3121z" clip-path="url(#a)" fill="#fff" stroke="#fff"/>
<g clip-path="url(#a)">
<g transform="translate(502.41 220.02) rotate(57.62) scale(.08 -.08)">
<use xlink:href="#q"/>
</g>
</g>
<path d="m426.48 428.01v35.285q0 2.4 2.4 2.4h7.7425q2.4 0 2.4-2.4v-35.285q0-2.4-2.4-2.4h-7.7425q-2.4 0-2.4 2.4z" clip-path="url(#a)" fill="#fff" stroke="#fff"/>
<g clip-path="url(#a)">
<g transform="translate(430.54 428.01) rotate(90) scale(.08 -.08)">
<use xlink:href="#k"/>
<use x="60.818359" xlink:href="#e"/>
<use x="122.341797" xlink:href="#f"/>
<use x="163.439453" xlink:href="#l"/>
<use x="260.851562" xlink:href="#j"/>
<use x="288.634766" xlink:href="#g"/>
<use x="352.013672" xlink:href="#i"/>
<use x="413.292969" xlink:href="#h"/>
</g>
</g>
<path d="m510.73 338.52 1.72-5.2859q0.74263-2.2822-1.5396-3.0248l-7.3625-2.3958q-2.2822-0.74263-3.0248 1.5396l-1.72 5.2859q-0.74263 2.2822 1.5396 3.0248l7.3625 2.3958q2.2822 0.74263 3.0248-1.5396z" clip-path="url(#a)" fill="#fff" stroke="#fff"/>
<g clip-path="url(#a)">
<g transform="translate(506.86 337.26) rotate(-71.975) scale(.08 -.08)">
<use xlink:href="#af"/>
</g>
</g>
<path d="m523.65 331.4v5.055q0 2.4 2.4 2.4h7.7425q2.4 0 2.4-2.4v-5.055q0-2.4-2.4-2.4h-7.7425q-2.4 0-2.4 2.4z" clip-path="url(#a)" fill="#fff" stroke="#fff"/>
<g clip-path="url(#a)">
<g transform="translate(527.71 331.4) rotate(90) scale(.08 -.08)">
<use xlink:href="#q"/>
</g>
</g>
<path d="m547.43 297.92 3.0323 4.6916q1.3028 2.0156 3.3184 0.71286l6.5025-4.2028q2.0156-1.3028 0.71286-3.3184l-3.0323-4.6916q-1.3028-2.0156-3.3184-0.71286l-6.5025 4.2028q-2.0156 1.3028-0.71286 3.3184z" clip-path="url(#a)" fill="#fff" stroke="#fff"/>
<g clip-path="url(#a)">
<g transform="translate(550.84 295.72) rotate(57.124) scale(.08 -.08)">
<use xlink:href="#p"/>
</g>
</g>
<path d="m475.06 428.01v35.285q0 2.4 2.4 2.4h7.7425q2.4 0 2.4-2.4v-35.285q0-2.4-2.4-2.4h-7.7425q-2.4 0-2.4 2.4z" clip-path="url(#a)" fill="#fff" stroke="#fff"/>
<g clip-path="url(#a)">
<g transform="translate(479.13 428.01) rotate(90) scale(.08 -.08)">
<use xlink:href="#k"/>
<use x="60.818359" xlink:href="#e"/>
<use x="122.341797" xlink:href="#f"/>
<use x="163.439453" xlink:href="#l"/>
<use x="260.851562" xlink:href="#j"/>
<use x="288.634766" xlink:href="#g"/>
<use x="352.013672" xlink:href="#i"/>
<use x="413.292969" xlink:href="#h"/>
</g>
</g>
<path d="m523.65 428.01v35.285q0 2.4 2.4 2.4h7.7425q2.4 0 2.4-2.4v-35.285q0-2.4-2.4-2.4h-7.7425q-2.4 0-2.4 2.4z" clip-path="url(#a)" fill="#fff" stroke="#fff"/>
<g clip-path="url(#a)">
<g transform="translate(527.71 428.01) rotate(90) scale(.08 -.08)">
<use xlink:href="#k"/>
<use x="60.818359" xlink:href="#e"/>
<use x="122.341797" xlink:href="#f"/>
<use x="163.439453" xlink:href="#l"/>
<use x="260.851562" xlink:href="#j"/>
<use x="288.634766" xlink:href="#g"/>
<use x="352.013672" xlink:href="#i"/>
<use x="413.292969" xlink:href="#h"/>
</g>
</g>
<path d="m572.23 368.37v6.2975q0 2.4 2.4 2.4h7.7425q2.4 0 2.4-2.4v-6.2975q0-2.4-2.4-2.4h-7.7425q-2.4 0-2.4 2.4z" clip-path="url(#a)" fill="#fff" stroke="#fff"/>
<g clip-path="url(#a)">
<defs>
<path id="ag" d="m39.406 66.219q-10.75 0-17.078-8.0156-6.3125-8-6.3125-21.828 0-13.766 6.3125-21.781 6.3281-8 17.078-8 10.734 0 17.016 8 6.2812 8.0156 6.2812 21.781 0 13.828-6.2812 21.828-6.2812 8.0156-17.016 8.0156zm13.812-64.906 13-14.203h-11.922l-10.797 11.672q-1.6094-0.09375-2.4688-0.14062-0.84375-0.0625-1.625-0.0625-15.375 0-24.594 10.281-9.2031 10.281-9.2031 27.516 0 17.281 9.2031 27.562 9.2188 10.281 24.594 10.281 15.328 0 24.5-10.281 9.1875-10.281 9.1875-27.562 0-12.688-5.1094-21.734-5.0938-9.0312-14.766-13.328z"/>
</defs>
<g transform="translate(576.29 368.37) rotate(90) scale(.08 -.08)">
<use xlink:href="#ag"/>
</g>
</g>
<path d="m572.23 428.01v35.285q0 2.4 2.4 2.4h7.7425q2.4 0 2.4-2.4v-35.285q0-2.4-2.4-2.4h-7.7425q-2.4 0-2.4 2.4z" clip-path="url(#a)" fill="#fff" stroke="#fff"/>
<g clip-path="url(#a)">
<g transform="translate(576.29 428.01) rotate(90) scale(.08 -.08)">
<use xlink:href="#k"/>
<use x="60.818359" xlink:href="#e"/>
<use x="122.341797" xlink:href="#f"/>
<use x="163.439453" xlink:href="#l"/>
<use x="260.851562" xlink:href="#j"/>
<use x="288.634766" xlink:href="#g"/>
<use x="352.013672" xlink:href="#i"/>
<use x="413.292969" xlink:href="#h"/>
</g>
</g>
<path d="m37.801 428.01v35.285q0 2.4 2.4 2.4h7.7425q2.4 0 2.4-2.4v-35.285q0-2.4-2.4-2.4h-7.7425q-2.4 0-2.4 2.4z" clip-path="url(#a)" fill="#fff" stroke="#fff"/>
<g clip-path="url(#a)">
<g transform="translate(41.865 428.01) rotate(90) scale(.08 -.08)">
<use xlink:href="#k"/>
<use x="60.818359" xlink:href="#e"/>
<use x="122.341797" xlink:href="#f"/>
<use x="163.439453" xlink:href="#l"/>
<use x="260.851562" xlink:href="#j"/>
<use x="288.634766" xlink:href="#g"/>
<use x="352.013672" xlink:href="#i"/>
<use x="413.292969" xlink:href="#h"/>
</g>
</g>
<path d="m86.386 428.01v35.285q0 2.4 2.4 2.4h7.7425q2.4 0 2.4-2.4v-35.285q0-2.4-2.4-2.4h-7.7425q-2.4 0-2.4 2.4z" clip-path="url(#a)" fill="#fff" stroke="#fff"/>
<g clip-path="url(#a)">
<g transform="translate(90.449 428.01) rotate(90) scale(.08 -.08)">
<use xlink:href="#k"/>
<use x="60.818359" xlink:href="#e"/>
<use x="122.341797" xlink:href="#f"/>
<use x="163.439453" xlink:href="#l"/>
<use x="260.851562" xlink:href="#j"/>
<use x="288.634766" xlink:href="#g"/>
<use x="352.013672" xlink:href="#i"/>
<use x="413.292969" xlink:href="#h"/>
</g>
</g>
<path d="m158.37 376.46 1.9609-5.9844q0.7473-2.2807-1.5334-3.028l-7.3576-2.4108q-2.2807-0.7473-3.028 1.5334l-1.9609 5.9844q-0.7473 2.2807 1.5334 3.028l7.3576 2.4108q2.2807 0.7473 3.028-1.5334z" clip-path="url(#a)" fill="#fff" stroke="#fff"/>
<g clip-path="url(#a)">
<g transform="translate(154.5 375.2) rotate(-71.858) scale(.08 -.08)">
<use xlink:href="#ag"/>
</g>
</g>
<path d="m170.85 370.82 1.7394 5.3085q0.7473 2.2807 3.028 1.5334l7.3576-2.4108q2.2807-0.7473 1.5334-3.028l-1.7394-5.3085q-0.7473-2.2807-3.028-1.5334l-7.3576 2.4108q-2.2807 0.7473-1.5334 3.028z" clip-path="url(#a)" fill="#fff" stroke="#fff"/>
<g clip-path="url(#a)">
<g transform="translate(174.71 369.55) rotate(71.858) scale(.08 -.08)">
<use xlink:href="#p"/>
</g>
</g>
<path d="m232.14 428.01v35.285q0 2.4 2.4 2.4h7.7425q2.4 0 2.4-2.4v-35.285q0-2.4-2.4-2.4h-7.7425q-2.4 0-2.4 2.4z" clip-path="url(#a)" fill="#fff" stroke="#fff"/>
<g clip-path="url(#a)">
<g transform="translate(236.2 428.01) rotate(90) scale(.08 -.08)">
<use xlink:href="#k"/>
<use x="60.818359" xlink:href="#e"/>
<use x="122.341797" xlink:href="#f"/>
<use x="163.439453" xlink:href="#l"/>
<use x="260.851562" xlink:href="#j"/>
<use x="288.634766" xlink:href="#g"/>
<use x="352.013672" xlink:href="#i"/>
<use x="413.292969" xlink:href="#h"/>
</g>
</g>
<path d="m323.15 300.36 0.80635-4.9903q0.38284-2.3693-1.9864-2.7521l-7.6434-1.235q-2.3693-0.38284-2.7521 1.9864l-0.80635 4.9903q-0.38284 2.3693 1.9864 2.7521l7.6434 1.235q2.3693 0.38284 2.7521-1.9864z" clip-path="url(#a)" fill="#fff" stroke="#fff"/>
<g clip-path="url(#a)">
<g transform="translate(319.14 299.71) rotate(-80.821) scale(.08 -.08)">
<use xlink:href="#q"/>
</g>
</g>
<path d="m323.03 331.66 0.45295 5.5679q0.1946 2.3921 2.5867 2.1975l7.717-0.62778q2.3921-0.1946 2.1975-2.5867l-0.45294-5.5679q-0.1946-2.3921-2.5867-2.1975l-7.717 0.62778q-2.3921 0.1946-2.1975 2.5867z" clip-path="url(#a)" fill="#fff" stroke="#fff"/>
<g clip-path="url(#a)">
<g transform="translate(327.08 331.33) rotate(85.349) scale(.08 -.08)">
<use xlink:href="#p"/>
</g>
</g>
<path d="m316.62 370.87 1.704 5.2004q0.7473 2.2807 3.028 1.5334l7.3576-2.4108q2.2807-0.7473 1.5334-3.028l-1.704-5.2004q-0.7473-2.2807-3.028-1.5334l-7.3576 2.4108q-2.2807 0.7473-1.5334 3.028z" clip-path="url(#a)" fill="#fff" stroke="#fff"/>
<g clip-path="url(#a)">
<g transform="translate(320.48 369.6) rotate(71.858) scale(.08 -.08)">
<use xlink:href="#r"/>
</g>
</g>
<path d="m304.31 375.88 1.5814-4.8263q0.7473-2.2807-1.5334-3.028l-7.3576-2.4108q-2.2807-0.7473-3.028 1.5334l-1.5814 4.8263q-0.7473 2.2807 1.5334 3.028l7.3576 2.4108q2.2807 0.7473 3.028-1.5334z" clip-path="url(#a)" fill="#fff" stroke="#fff"/>
<g clip-path="url(#a)">
<g transform="translate(300.45 374.62) rotate(-71.858) scale(.08 -.08)">
<use xlink:href="#s"/>
</g>
</g>
<path d="m329.31 428.01v35.285q0 2.4 2.4 2.4h7.7425q2.4 0 2.4-2.4v-35.285q0-2.4-2.4-2.4h-7.7425q-2.4 0-2.4 2.4z" clip-path="url(#a)" fill="#fff" stroke="#fff"/>
<g clip-path="url(#a)">
<g transform="translate(333.37 428.01) rotate(90) scale(.08 -.08)">
<use xlink:href="#k"/>
<use x="60.818359" xlink:href="#e"/>
<use x="122.341797" xlink:href="#f"/>
<use x="163.439453" xlink:href="#l"/>
<use x="260.851562" xlink:href="#j"/>
<use x="288.634766" xlink:href="#g"/>
<use x="352.013672" xlink:href="#i"/>
<use x="413.292969" xlink:href="#h"/>
</g>
</g>
<path d="m280.72 428.01v35.285q0 2.4 2.4 2.4h7.7425q2.4 0 2.4-2.4v-35.285q0-2.4-2.4-2.4h-7.7425q-2.4 0-2.4 2.4z" clip-path="url(#a)" fill="#fff" stroke="#fff"/>
<g clip-path="url(#a)">
<g transform="translate(284.79 428.01) rotate(90) scale(.08 -.08)">
<use xlink:href="#k"/>
<use x="60.818359" xlink:href="#e"/>
<use x="122.341797" xlink:href="#f"/>
<use x="163.439453" xlink:href="#l"/>
<use x="260.851562" xlink:href="#j"/>
<use x="288.634766" xlink:href="#g"/>
<use x="352.013672" xlink:href="#i"/>
<use x="413.292969" xlink:href="#h"/>
</g>
</g>
<path d="m134.97 428.01v35.285q0 2.4 2.4 2.4h7.7425q2.4 0 2.4-2.4v-35.285q0-2.4-2.4-2.4h-7.7425q-2.4 0-2.4 2.4z" clip-path="url(#a)" fill="#fff" stroke="#fff"/>
<g clip-path="url(#a)">
<g transform="translate(139.03 428.01) rotate(90) scale(.08 -.08)">
<use xlink:href="#k"/>
<use x="60.818359" xlink:href="#e"/>
<use x="122.341797" xlink:href="#f"/>
<use x="163.439453" xlink:href="#l"/>
<use x="260.851562" xlink:href="#j"/>
<use x="288.634766" xlink:href="#g"/>
<use x="352.013672" xlink:href="#i"/>
<use x="413.292969" xlink:href="#h"/>
</g>
</g>
<path d="m183.55 428.01v35.285q0 2.4 2.4 2.4h7.7425q2.4 0 2.4-2.4v-35.285q0-2.4-2.4-2.4h-7.7425q-2.4 0-2.4 2.4z" clip-path="url(#a)" fill="#fff" stroke="#fff"/>
<g clip-path="url(#a)">
<g transform="translate(187.62 428.01) rotate(90) scale(.08 -.08)">
<use xlink:href="#k"/>
<use x="60.818359" xlink:href="#e"/>
<use x="122.341797" xlink:href="#f"/>
<use x="163.439453" xlink:href="#l"/>
<use x="260.851562" xlink:href="#j"/>
<use x="288.634766" xlink:href="#g"/>
<use x="352.013672" xlink:href="#i"/>
<use x="413.292969" xlink:href="#h"/>
</g>
</g>
<path d="m620.82 428.01v35.285q0 2.4 2.4 2.4h7.7425q2.4 0 2.4-2.4v-35.285q0-2.4-2.4-2.4h-7.7425q-2.4 0-2.4 2.4z" clip-path="url(#a)" fill="#fff" stroke="#fff"/>
<g clip-path="url(#a)">
<g transform="translate(624.88 428.01) rotate(90) scale(.08 -.08)">
<use xlink:href="#k"/>
<use x="60.818359" xlink:href="#e"/>
<use x="122.341797" xlink:href="#f"/>
<use x="163.439453" xlink:href="#l"/>
<use x="260.851562" xlink:href="#j"/>
<use x="288.634766" xlink:href="#g"/>
<use x="352.013672" xlink:href="#i"/>
<use x="413.292969" xlink:href="#h"/>
</g>
</g>
<path d="m912.32 428.01v35.285q0 2.4 2.4 2.4h7.7425q2.4 0 2.4-2.4v-35.285q0-2.4-2.4-2.4h-7.7425q-2.4 0-2.4 2.4z" clip-path="url(#a)" fill="#fff" stroke="#fff"/>
<g clip-path="url(#a)">
<g transform="translate(916.39 428.01) rotate(90) scale(.08 -.08)">
<use xlink:href="#k"/>
<use x="60.818359" xlink:href="#e"/>
<use x="122.341797" xlink:href="#f"/>
<use x="163.439453" xlink:href="#l"/>
<use x="260.851562" xlink:href="#j"/>
<use x="288.634766" xlink:href="#g"/>
<use x="352.013672" xlink:href="#i"/>
<use x="413.292969" xlink:href="#h"/>
</g>
</g>
<defs>
<path id="b" d="m0 8.6603c2.2967 0 4.4997-0.9125 6.1237-2.5365 1.624-1.624 2.5365-3.827 2.5365-6.1237s-0.9125-4.4997-2.5365-6.1237c-1.624-1.624-3.827-2.5365-6.1237-2.5365s-4.4997 0.9125-6.1237 2.5365c-1.624 1.624-2.5365 3.827-2.5365 6.1237s0.9125 4.4997 2.5365 6.1237c1.624 1.624 3.827 2.5365 6.1237 2.5365z"/>
</defs>
<g clip-path="url(#a)">
<use x="44.072268" y="482.723972" fill="#ffffff" stroke="#ffffff" xlink:href="#b"/>
</g>
<g clip-path="url(#a)">
<use x="92.65683" y="482.723972" fill="#ffffff" stroke="#ffffff" xlink:href="#b"/>
</g>
<g clip-path="url(#a)">
<use x="141.241393" y="482.723972" fill="#ffffff" stroke="#ffffff" xlink:href="#b"/>
</g>
<g clip-path="url(#a)">
<use x="189.825956" y="482.723972" fill="#ffffff" stroke="#ffffff" xlink:href="#b"/>
</g>
<g clip-path="url(#a)">
<use x="238.410519" y="482.723972" fill="#ffffff" stroke="#ffffff" xlink:href="#b"/>
</g>
<g clip-path="url(#a)">
<use x="286.995082" y="482.723972" fill="#ffffff" stroke="#ffffff" xlink:href="#b"/>
</g>
<g clip-path="url(#a)">
<use x="335.579645" y="482.723972" fill="#ffffff" stroke="#ffffff" xlink:href="#b"/>
</g>
<g clip-path="url(#a)">
<use x="384.164208" y="482.723972" fill="#ffffff" stroke="#ffffff" xlink:href="#b"/>
</g>
<g clip-path="url(#a)">
<use x="432.74877" y="482.723972" fill="#ffffff" stroke="#ffffff" xlink:href="#b"/>
</g>
<g clip-path="url(#a)">
<use x="481.333333" y="482.723972" fill="#ffffff" stroke="#ffffff" xlink:href="#b"/>
</g>
<g clip-path="url(#a)">
<use x="529.917896" y="482.723972" fill="#ffffff" stroke="#ffffff" xlink:href="#b"/>
</g>
<g clip-path="url(#a)">
<use x="578.502459" y="482.723972" fill="#ffffff" stroke="#ffffff" xlink:href="#b"/>
</g>
<g clip-path="url(#a)">
<use x="627.087022" y="482.723972" fill="#ffffff" stroke="#ffffff" xlink:href="#b"/>
</g>
<g clip-path="url(#a)">
<use x="675.671585" y="482.723972" fill="#ffffff" stroke="#ffffff" xlink:href="#b"/>
</g>
<g clip-path="url(#a)">
<use x="724.256148" y="482.723972" fill="#ffffff" stroke="#ffffff" xlink:href="#b"/>
</g>
<g clip-path="url(#a)">
<use x="772.84071" y="482.723972" fill="#ffffff" stroke="#ffffff" xlink:href="#b"/>
</g>
<g clip-path="url(#a)">
<use x="821.425273" y="482.723972" fill="#ffffff" stroke="#ffffff" xlink:href="#b"/>
</g>
<g clip-path="url(#a)">
<use x="870.009836" y="482.723972" fill="#ffffff" stroke="#ffffff" xlink:href="#b"/>
</g>
<g clip-path="url(#a)">
<use x="918.594399" y="482.723972" fill="#ffffff" stroke="#ffffff" xlink:href="#b"/>
</g>
<g clip-path="url(#a)">
<use x="397.767885" y="23.942694" fill="#ffffff" stroke="#ffffff" xlink:href="#b"/>
</g>
<g clip-path="url(#a)">
<use x="172.821359" y="182.66222" fill="#ffffff" stroke="#ffffff" xlink:href="#b"/>
</g>
<g clip-path="url(#a)">
<use x="384.164208" y="408.586064" fill="#ffffff" stroke="#ffffff" xlink:href="#b"/>
</g>
<g clip-path="url(#a)">
<use x="286.995082" y="104.299803" fill="#ffffff" stroke="#ffffff" xlink:href="#b"/>
</g>
<g clip-path="url(#a)">
<use x="517.771755" y="182.66222" fill="#ffffff" stroke="#ffffff" xlink:href="#b"/>
</g>
<g clip-path="url(#a)">
<use x="675.671585" y="408.586064" fill="#ffffff" stroke="#ffffff" xlink:href="#b"/>
</g>
<g clip-path="url(#a)">
<use x="784.986851" y="259.278909" fill="#ffffff" stroke="#ffffff" xlink:href="#b"/>
</g>
<g clip-path="url(#a)">
<use x="724.256148" y="408.586064" fill="#ffffff" stroke="#ffffff" xlink:href="#b"/>
</g>
<g clip-path="url(#a)">
<use x="845.717555" y="334.448157" fill="#ffffff" stroke="#ffffff" xlink:href="#b"/>
</g>
<g clip-path="url(#a)">
<use x="772.84071" y="408.586064" fill="#ffffff" stroke="#ffffff" xlink:href="#b"/>
</g>
<g clip-path="url(#a)">
<use x="821.425273" y="408.586064" fill="#ffffff" stroke="#ffffff" xlink:href="#b"/>
</g>
<g clip-path="url(#a)">
<use x="870.009836" y="408.586064" fill="#ffffff" stroke="#ffffff" xlink:href="#b"/>
</g>
<g clip-path="url(#a)">
<use x="481.333333" y="182.66222" fill="#ffffff" stroke="#ffffff" xlink:href="#b"/>
</g>
<g clip-path="url(#a)">
<use x="432.74877" y="408.586064" fill="#ffffff" stroke="#ffffff" xlink:href="#b"/>
</g>
<g clip-path="url(#a)">
<use x="529.917896" y="259.278909" fill="#ffffff" stroke="#ffffff" xlink:href="#b"/>
</g>
<g clip-path="url(#a)">
<use x="481.333333" y="408.586064" fill="#ffffff" stroke="#ffffff" xlink:href="#b"/>
</g>
<g clip-path="url(#a)">
<use x="529.917896" y="408.586064" fill="#ffffff" stroke="#ffffff" xlink:href="#b"/>
</g>
<g clip-path="url(#a)">
<use x="578.502459" y="334.448157" fill="#ffffff" stroke="#ffffff" xlink:href="#b"/>
</g>
<g clip-path="url(#a)">
<use x="578.502459" y="408.586064" fill="#ffffff" stroke="#ffffff" xlink:href="#b"/>
</g>
<g clip-path="url(#a)">
<use x="44.072268" y="408.586064" fill="#ffffff" stroke="#ffffff" xlink:href="#b"/>
</g>
<g clip-path="url(#a)">
<use x="92.65683" y="408.586064" fill="#ffffff" stroke="#ffffff" xlink:href="#b"/>
</g>
<g clip-path="url(#a)">
<use x="165.533675" y="334.448157" fill="#ffffff" stroke="#ffffff" xlink:href="#b"/>
</g>
<g clip-path="url(#a)">
<use x="238.410519" y="408.586064" fill="#ffffff" stroke="#ffffff" xlink:href="#b"/>
</g>
<g clip-path="url(#a)">
<use x="323.433504" y="259.278909" fill="#ffffff" stroke="#ffffff" xlink:href="#b"/>
</g>
<g clip-path="url(#a)">
<use x="311.287363" y="334.448157" fill="#ffffff" stroke="#ffffff" xlink:href="#b"/>
</g>
<g clip-path="url(#a)">
<use x="335.579645" y="408.586064" fill="#ffffff" stroke="#ffffff" xlink:href="#b"/>
</g>
<g clip-path="url(#a)">
<use x="286.995082" y="408.586064" fill="#ffffff" stroke="#ffffff" xlink:href="#b"/>
</g>
<g clip-path="url(#a)">
<use x="141.241393" y="408.586064" fill="#ffffff" stroke="#ffffff" xlink:href="#b"/>
</g>
<g clip-path="url(#a)">
<use x="189.825956" y="408.586064" fill="#ffffff" stroke="#ffffff" xlink:href="#b"/>
</g>
<g clip-path="url(#a)">
<use x="627.087022" y="408.586064" fill="#ffffff" stroke="#ffffff" xlink:href="#b"/>
</g>
<g clip-path="url(#a)">
<use x="918.594399" y="408.586064" fill="#ffffff" stroke="#ffffff" xlink:href="#b"/>
</g>
<g clip-path="url(#a)">
<defs>
<path id="aq" d="m54.891 33.016v-33.016h-8.9844v32.719q0 7.7656-3.0312 11.609-3.0312 3.8594-9.0781 3.8594-7.2812 0-11.484-4.6406-4.2031-4.625-4.2031-12.641v-30.906h-9.0312v75.984h9.0312v-29.797q3.2344 4.9375 7.5938 7.375 4.375 2.4375 10.094 2.4375 9.4219 0 14.25-5.8281 4.8438-5.8281 4.8438-17.156z"/>
</defs>
<g transform="translate(29.643 485.48) scale(.1 -.1)">
<use xlink:href="#k"/>
<use x="61.083984" xlink:href="#aq"/>
<use x="124.462891" xlink:href="#e"/>
<use x="185.986328" xlink:href="#f"/>
<use x="227.068359" xlink:href="#e"/>
</g>
</g>
<g clip-path="url(#a)">
<defs>
<path id="ak" d="m4.2031 54.688h8.9844l11.234-42.672 11.172 42.672h10.594l11.234-42.672 11.188 42.672h8.9844l-14.312-54.688h-10.594l-11.766 44.828-11.812-44.828h-10.609z"/>
</defs>
<g transform="translate(80.361 485.48) scale(.1 -.1)">
<use xlink:href="#ak"/>
<use x="81.787109" xlink:href="#e"/>
<use x="143.310547" xlink:href="#f"/>
<use x="184.392578" xlink:href="#e"/>
</g>
</g>
<g clip-path="url(#a)">
<defs>
<path id="n" d="m40.578 39.312q7.0781-1.5156 11.047-6.3125 3.9844-4.7812 3.9844-11.812 0-10.781-7.4219-16.703-7.4219-5.9062-21.094-5.9062-4.5781 0-9.4375 0.90625t-10.031 2.7188v9.5156q4.0938-2.3906 8.9688-3.6094 4.8906-1.2188 10.219-1.2188 9.2656 0 14.125 3.6562t4.8594 10.641q0 6.4531-4.5156 10.078-4.5156 3.6406-12.562 3.6406h-8.5v8.1094h8.8906q7.2656 0 11.125 2.9062t3.8594 8.375q0 5.6094-3.9844 8.6094-3.9688 3.0156-11.391 3.0156-4.0625 0-8.7031-0.89062-4.6406-0.875-10.203-2.7188v8.7812q5.625 1.5625 10.531 2.3438t9.25 0.78125q11.234 0 17.766-5.1094 6.5469-5.0938 6.5469-13.781 0-6.0625-3.4688-10.234t-9.8594-5.7812z"/>
</defs>
<g transform="translate(138.06 485.48) scale(.1 -.1)">
<use xlink:href="#n"/>
</g>
</g>
<g clip-path="url(#a)">
<defs>
<path id="al" d="m45.406 46.391v29.594h8.9844v-75.984h-8.9844v8.2031q-2.8281-4.875-7.1562-7.25-4.3125-2.375-10.375-2.375-9.9062 0-16.141 7.9062-6.2188 7.9219-6.2188 20.812t6.2188 20.797q6.2344 7.9062 16.141 7.9062 6.0625 0 10.375-2.375 4.3281-2.3594 7.1562-7.2344zm-30.609-19.094q0-9.9062 4.0781-15.547t11.203-5.6406 11.219 5.6406q4.1094 5.6406 4.1094 15.547t-4.1094 15.547q-4.0938 5.6406-11.219 5.6406t-11.203-5.6406-4.0781-15.547z"/>
<path id="aa" d="m8.5 21.578v33.109h8.9844v-32.766q0-7.7656 3.0156-11.656 3.0312-3.875 9.0938-3.875 7.2656 0 11.484 4.6406 4.2344 4.6406 4.2344 12.656v31h8.9844v-54.688h-8.9844v8.4062q-3.2656-4.9844-7.5938-7.4062-4.3125-2.4219-10.031-2.4219-9.4219 0-14.312 5.8594-4.875 5.8594-4.875 17.141z"/>
<path id="ab" d="m18.312 70.219v-15.531h18.5v-6.9844h-18.5v-29.688q0-6.6875 1.8281-8.5938t7.4531-1.9062h9.2188v-7.5156h-9.2188q-10.406 0-14.359 3.875-3.9531 3.8906-3.9531 14.141v29.688h-6.5938v6.9844h6.5938v15.531z"/>
<path id="t" d="m44.281 53.078v-8.5q-3.7969 1.9531-7.9062 2.9219-4.0938 0.98438-8.5 0.98438-6.6875 0-10.031-2.0469t-3.3438-6.1562q0-3.125 2.3906-4.9062t9.625-3.3906l3.0781-0.6875q9.5625-2.0469 13.594-5.7812t4.0312-10.422q0-7.625-6.0312-12.078-6.0312-4.4375-16.578-4.4375-4.3906 0-9.1562 0.85938t-10.031 2.5625v9.2812q4.9844-2.5938 9.8125-3.8906 4.8281-1.2812 9.5781-1.2812 6.3438 0 9.75 2.1719 3.4219 2.1719 3.4219 6.125 0 3.6562-2.4688 5.6094-2.4531 1.9531-10.812 3.7656l-3.125 0.73438q-8.3438 1.75-12.062 5.3906-3.7031 3.6406-3.7031 9.9844 0 7.7188 5.4688 11.906 5.4688 4.2031 15.531 4.2031 4.9688 0 9.3594-0.73438 4.4062-0.71875 8.1094-2.1875z"/>
</defs>
<g transform="translate(174.47 485.48) scale(.1 -.1)">
<use xlink:href="#i"/>
<use x="61.279297" xlink:href="#al"/>
<use x="124.755859" xlink:href="#aa"/>
<use x="188.134766" xlink:href="#h"/>
<use x="215.917969" xlink:href="#ab"/>
<use x="255.126953" xlink:href="#t"/>
</g>
</g>
<g clip-path="url(#a)">
<g transform="translate(233.85 485.48) scale(.1 -.1)">
<use xlink:href="#j"/>
<use x="27.783203" xlink:href="#g"/>
</g>
</g>
<g clip-path="url(#a)">
<defs>
<path id="o" d="m30.609 48.391q-7.2188 0-11.422-5.6406t-4.2031-15.453 4.1719-15.453q4.1875-5.6406 11.453-5.6406 7.1875 0 11.375 5.6562 4.2031 5.6719 4.2031 15.438 0 9.7188-4.2031 15.406-4.1875 5.6875-11.375 5.6875zm0 7.6094q11.719 0 18.406-7.625 6.7031-7.6094 6.7031-21.078 0-13.422-6.7031-21.078-6.6875-7.6406-18.406-7.6406-11.766 0-18.438 7.6406-6.6562 7.6562-6.6562 21.078 0 13.469 6.6562 21.078 6.6719 7.625 18.438 7.625z"/>
</defs>
<g transform="translate(278.71 485.48) scale(.1 -.1)">
<use xlink:href="#o"/>
<use x="61.181641" xlink:href="#aa"/>
<use x="124.560547" xlink:href="#f"/>
</g>
</g>
<g clip-path="url(#a)">
<g transform="translate(322.54 485.48) scale(.1 -.1)">
<use xlink:href="#f"/>
<use x="41.082031" xlink:href="#o"/>
<use x="102.263672" xlink:href="#o"/>
<use x="163.445312" xlink:href="#l"/>
</g>
</g>
<g clip-path="url(#a)">
<defs>
<path id="ad" d="m48.688 27.297q0 9.9062-4.0781 15.547t-11.203 5.6406q-7.1406 0-11.219-5.6406t-4.0781-15.547 4.0781-15.547 11.219-5.6406q7.125 0 11.203 5.6406t4.0781 15.547zm-30.578 19.094q2.8438 4.875 7.1562 7.2344 4.3281 2.375 10.328 2.375 9.9688 0 16.188-7.9062 6.2344-7.9062 6.2344-20.797t-6.2344-20.812q-6.2188-7.9062-16.188-7.9062-6 0-10.328 2.375-4.3125 2.375-7.1562 7.25v-8.2031h-9.0312v75.984h9.0312z"/>
</defs>
<g transform="translate(375.86 485.48) scale(.1 -.1)">
<use xlink:href="#ad"/>
<use x="63.476562" xlink:href="#aa"/>
<use x="126.855469" xlink:href="#ab"/>
</g>
</g>
<g clip-path="url(#a)">
<g transform="translate(416.57 485.48) scale(.1 -.1)">
<use xlink:href="#ab"/>
<use x="39.208984" xlink:href="#o"/>
<use x="100.390625" xlink:href="#ak"/>
<use x="182.177734" xlink:href="#e"/>
<use x="243.701172" xlink:href="#h"/>
<use x="271.484375" xlink:href="#t"/>
</g>
</g>
<g clip-path="url(#a)">
<defs>
<path id="ac" d="m37.109 75.984v-7.4844h-8.5938q-4.8281 0-6.7188-1.9531-1.875-1.9531-1.875-7.0312v-4.8281h14.797v-6.9844h-14.797v-47.703h-9.0312v47.703h-8.5938v6.9844h8.5938v3.8125q0 9.125 4.25 13.297 4.25 4.1875 13.469 4.1875z"/>
</defs>
<g transform="translate(474.46 485.48) scale(.1 -.1)">
<use xlink:href="#ac"/>
<use x="35.205078" xlink:href="#o"/>
<use x="96.386719" xlink:href="#f"/>
</g>
</g>
<g clip-path="url(#a)">
<defs>
<path id="ap" d="m32.172-5.0781q-3.7969-9.7656-7.4219-12.734-3.6094-2.9844-9.6562-2.9844h-7.1875v7.5156h5.2812q3.7031 0 5.75 1.7656 2.0625 1.75 4.5469 8.2969l1.6094 4.0938-22.109 53.812h9.5156l17.094-42.766 17.094 42.766h9.5156z"/>
</defs>
<g transform="translate(519.34 485.48) scale(.1 -.1)">
<use xlink:href="#o"/>
<use x="61.181641" xlink:href="#g"/>
<use x="124.560547" xlink:href="#h"/>
<use x="152.34375" xlink:href="#ap"/>
</g>
</g>
<g clip-path="url(#a)">
<defs>
<path id="m" d="m19.188 8.2969h34.422v-8.2969h-46.281v8.2969q5.6094 5.8125 15.297 15.594 9.7031 9.7969 12.188 12.641 4.7344 5.3125 6.6094 9 1.8906 3.6875 1.8906 7.25 0 5.8125-4.0781 9.4688-4.0781 3.6719-10.625 3.6719-4.6406 0-9.7969-1.6094-5.1406-1.6094-11-4.8906v9.9688q5.9531 2.3906 11.125 3.6094 5.1875 1.2188 9.4844 1.2188 11.328 0 18.062-5.6719 6.7344-5.6562 6.7344-15.125 0-4.5-1.6875-8.5312-1.6719-4.0156-6.125-9.4844-1.2188-1.4219-7.7656-8.1875-6.5312-6.7656-18.453-18.922z"/>
</defs>
<g transform="translate(575.32 485.48) scale(.1 -.1)">
<use xlink:href="#m"/>
</g>
</g>
<g clip-path="url(#a)">
<defs>
<path id="ao" d="m11.719 12.406h10.297v-8.4062l-8-15.625h-6.2969l4 15.625z"/>
</defs>
<g transform="translate(625.5 485.48) scale(.1 -.1)">
<use xlink:href="#ao"/>
</g>
</g>
<g clip-path="url(#a)">
<g transform="translate(669.44 485.48) scale(.1 -.1)">
<use xlink:href="#g"/>
<use x="63.378906" xlink:href="#o"/>
</g>
</g>
<g clip-path="url(#a)">
<g transform="translate(709.46 485.48) scale(.1 -.1)">
<use xlink:href="#h"/>
<use x="27.783203" xlink:href="#j"/>
<use x="55.566406" xlink:href="#g"/>
<use x="118.945312" xlink:href="#e"/>
<use x="180.46875" xlink:href="#g"/>
<use x="243.847656" xlink:href="#t"/>
</g>
</g>
<g clip-path="url(#a)">
<g transform="translate(765.97 485.48) scale(.1 -.1)">
<use xlink:href="#ac"/>
<use x="35.205078" xlink:href="#o"/>
<use x="96.386719" xlink:href="#f"/>
</g>
</g>
<g clip-path="url(#a)">
<g transform="translate(810.94 485.48) scale(.1 -.1)">
<use xlink:href="#t"/>
<use x="52.099609" xlink:href="#o"/>
<use x="113.28125" xlink:href="#ac"/>
<use x="148.486328" xlink:href="#i"/>
</g>
</g>
<g clip-path="url(#a)">
<g transform="translate(860.58 485.48) scale(.1 -.1)">
<use xlink:href="#ad"/>
<use x="63.476562" xlink:href="#e"/>
<use x="125" xlink:href="#al"/>
</g>
</g>
<g clip-path="url(#a)">
<defs>
<path id="d" d="m10.688 12.406h10.312v-12.406h-10.312z"/>
</defs>
<g transform="translate(917.01 485.48) scale(.1 -.1)">
<use xlink:href="#d"/>
</g>
</g>
<g clip-path="url(#a)">
<defs>
<path id="c" d="m12.406 8.2969h16.109v55.625l-17.531-3.5156v8.9844l17.438 3.5156h9.8594v-64.609h16.109v-8.2969h-41.984z"/>
</defs>
<g transform="translate(389.82 26.702) scale(.1 -.1)">
<use xlink:href="#c"/>
<use x="63.623047" xlink:href="#d"/>
<use x="95.410156" xlink:href="#c"/>
</g>
</g>
<g clip-path="url(#a)">
<g transform="translate(164.87 185.42) scale(.1 -.1)">
<use xlink:href="#c"/>
<use x="63.623047" xlink:href="#d"/>
<use x="95.410156" xlink:href="#m"/>
</g>
</g>
<g clip-path="url(#a)">
<g transform="translate(376.21 411.35) scale(.1 -.1)">
<use xlink:href="#c"/>
<use x="63.623047" xlink:href="#d"/>
<use x="95.410156" xlink:href="#n"/>
</g>
</g>
<g clip-path="url(#a)">
<defs>
<path id="y" d="m37.797 64.312-24.906-38.922h24.906zm-2.5938 8.5938h12.406v-47.516h10.406v-8.2031h-10.406v-17.188h-9.8125v17.188h-32.906v9.5156z"/>
</defs>
<g transform="translate(279.04 107.06) scale(.1 -.1)">
<use xlink:href="#c"/>
<use x="63.623047" xlink:href="#d"/>
<use x="95.410156" xlink:href="#y"/>
</g>
</g>
<g clip-path="url(#a)">
<defs>
<path id="x" d="m10.797 72.906h38.719v-8.3125h-29.688v-17.859q2.1406 0.73438 4.2812 1.0938 2.1562 0.35938 4.3125 0.35938 12.203 0 19.328-6.6875 7.1406-6.6875 7.1406-18.109 0-11.766-7.3281-18.297-7.3281-6.5156-20.656-6.5156-4.5938 0-9.3594 0.78125-4.75 0.78125-9.8281 2.3438v9.9219q4.3906-2.3906 9.0781-3.5625t9.9062-1.1719q8.4531 0 13.375 4.4375 4.9375 4.4375 4.9375 12.062 0 7.6094-4.9375 12.047-4.9219 4.4531-13.375 4.4531-3.9531 0-7.8906-0.875-3.9219-0.875-8.0156-2.7344z"/>
</defs>
<g transform="translate(509.82 185.42) scale(.1 -.1)">
<use xlink:href="#c"/>
<use x="63.623047" xlink:href="#d"/>
<use x="95.410156" xlink:href="#x"/>
</g>
</g>
<g clip-path="url(#a)">
<defs>
<path id="w" d="m31.781 34.625q-7.0312 0-11.062-3.7656-4.0156-3.7656-4.0156-10.344 0-6.5938 4.0156-10.359 4.0312-3.7656 11.062-3.7656t11.078 3.7812q4.0625 3.7969 4.0625 10.344 0 6.5781-4.0312 10.344-4.0156 3.7656-11.109 3.7656zm-9.8594 4.1875q-6.3438 1.5625-9.8906 5.9062-3.5312 4.3594-3.5312 10.609 0 8.7344 6.2188 13.812 6.2344 5.0781 17.062 5.0781 10.891 0 17.094-5.0781t6.2031-13.812q0-6.25-3.5469-10.609-3.5312-4.3438-9.8281-5.9062 7.125-1.6562 11.094-6.5 3.9844-4.8281 3.9844-11.797 0-10.609-6.4688-16.281-6.4688-5.6562-18.531-5.6562-12.047 0-18.531 5.6562-6.4688 5.6719-6.4688 16.281 0 6.9688 4 11.797 4.0156 4.8438 11.141 6.5zm-3.6094 15.578q0-5.6562 3.5312-8.8281 3.5469-3.1719 9.9375-3.1719 6.3594 0 9.9375 3.1719 3.5938 3.1719 3.5938 8.8281 0 5.6719-3.5938 8.8438-3.5781 3.1719-9.9375 3.1719-6.3906 0-9.9375-3.1719-3.5312-3.1719-3.5312-8.8438z"/>
</defs>
<g transform="translate(667.72 411.35) scale(.1 -.1)">
<use xlink:href="#c"/>
<use x="63.623047" xlink:href="#d"/>
<use x="95.410156" xlink:href="#w"/>
</g>
</g>
<g clip-path="url(#a)">
<defs>
<path id="v" d="m10.984 1.5156v8.9844q3.7188-1.7656 7.5156-2.6875 3.8125-0.92188 7.4844-0.92188 9.7656 0 14.906 6.5625 5.1562 6.5625 5.8906 19.953-2.8281-4.2031-7.1875-6.4531-4.3438-2.25-9.6094-2.25-10.938 0-17.312 6.6094-6.375 6.625-6.375 18.109 0 11.219 6.6406 18 6.6406 6.7969 17.672 6.7969 12.656 0 19.312-9.7031 6.6719-9.6875 6.6719-28.141 0-17.234-8.1875-27.516-8.1719-10.281-21.984-10.281-3.7188 0-7.5312 0.73438-3.7969 0.73438-7.9062 2.2031zm19.625 30.906q6.6406 0 10.516 4.5312 3.8906 4.5469 3.8906 12.469 0 7.8594-3.8906 12.422-3.875 4.5625-10.516 4.5625t-10.516-4.5625-3.875-12.422q0-7.9219 3.875-12.469 3.875-4.5312 10.516-4.5312z"/>
</defs>
<g transform="translate(777.04 262.04) scale(.1 -.1)">
<use xlink:href="#c"/>
<use x="63.623047" xlink:href="#d"/>
<use x="95.410156" xlink:href="#v"/>
</g>
</g>
<g clip-path="url(#a)">
<defs>
<path id="z" d="m31.781 66.406q-7.6094 0-11.453-7.5-3.8281-7.4844-3.8281-22.531 0-14.984 3.8281-22.484 3.8438-7.5 11.453-7.5 7.6719 0 11.5 7.5 3.8438 7.5 3.8438 22.484 0 15.047-3.8438 22.531-3.8281 7.5-11.5 7.5zm0 7.8125q12.266 0 18.734-9.7031 6.4688-9.6875 6.4688-28.141 0-18.406-6.4688-28.109-6.4688-9.6875-18.734-9.6875-12.25 0-18.719 9.6875-6.4688 9.7031-6.4688 28.109 0 18.453 6.4688 28.141 6.4688 9.7031 18.719 9.7031z"/>
</defs>
<g transform="translate(713.12 411.35) scale(.1 -.1)">
<use xlink:href="#c"/>
<use x="63.623047" xlink:href="#d"/>
<use x="95.410156" xlink:href="#c"/>
<use x="159.033203" xlink:href="#z"/>
</g>
</g>
<g clip-path="url(#a)">
<g transform="translate(834.58 337.21) scale(.1 -.1)">
<use xlink:href="#c"/>
<use x="63.623047" xlink:href="#d"/>
<use x="95.410156" xlink:href="#c"/>
<use x="159.033203" xlink:href="#c"/>
</g>
</g>
<g clip-path="url(#a)">
<g transform="translate(761.71 411.35) scale(.1 -.1)">
<use xlink:href="#c"/>
<use x="63.623047" xlink:href="#d"/>
<use x="95.410156" xlink:href="#c"/>
<use x="159.033203" xlink:href="#m"/>
</g>
</g>
<g clip-path="url(#a)">
<g transform="translate(810.29 411.35) scale(.1 -.1)">
<use xlink:href="#c"/>
<use x="63.623047" xlink:href="#d"/>
<use x="95.410156" xlink:href="#c"/>
<use x="159.033203" xlink:href="#n"/>
</g>
</g>
<g clip-path="url(#a)">
<g transform="translate(858.88 411.35) scale(.1 -.1)">
<use xlink:href="#c"/>
<use x="63.623047" xlink:href="#d"/>
<use x="95.410156" xlink:href="#c"/>
<use x="159.033203" xlink:href="#y"/>
</g>
</g>
<g clip-path="url(#a)">
<g transform="translate(470.2 185.42) scale(.1 -.1)">
<use xlink:href="#c"/>
<use x="63.623047" xlink:href="#d"/>
<use x="95.410156" xlink:href="#c"/>
<use x="159.033203" xlink:href="#x"/>
</g>
</g>
<g clip-path="url(#a)">
<defs>
<path id="aj" d="m33.016 40.375q-6.6406 0-10.531-4.5469-3.875-4.5312-3.875-12.438 0-7.8594 3.875-12.438 3.8906-4.5625 10.531-4.5625t10.516 4.5625q3.875 4.5781 3.875 12.438 0 7.9062-3.875 12.438-3.875 4.5469-10.516 4.5469zm19.578 30.922v-8.9844q-3.7188 1.75-7.5 2.6719-3.7812 0.9375-7.5 0.9375-9.7656 0-14.922-6.5938-5.1406-6.5938-5.875-19.922 2.875 4.25 7.2188 6.5156 4.3594 2.2656 9.5781 2.2656 10.984 0 17.359-6.6719 6.375-6.6562 6.375-18.125 0-11.234-6.6406-18.031-6.6406-6.7812-17.672-6.7812-12.656 0-19.344 9.6875-6.6875 9.7031-6.6875 28.109 0 17.281 8.2031 27.562t22.016 10.281q3.7188 0 7.5-0.73438t7.8906-2.1875z"/>
</defs>
<g transform="translate(421.62 411.35) scale(.1 -.1)">
<use xlink:href="#c"/>
<use x="63.623047" xlink:href="#d"/>
<use x="95.410156" xlink:href="#c"/>
<use x="159.033203" xlink:href="#aj"/>
</g>
</g>
<g clip-path="url(#a)">
<defs>
<path id="ai" d="m8.2031 72.906h46.875v-4.2031l-26.469-68.703h-10.297l24.906 64.594h-35.016z"/>
</defs>
<g transform="translate(518.79 262.04) scale(.1 -.1)">
<use xlink:href="#c"/>
<use x="63.623047" xlink:href="#d"/>
<use x="95.410156" xlink:href="#c"/>
<use x="159.033203" xlink:href="#ai"/>
</g>
</g>
<g clip-path="url(#a)">
<g transform="translate(470.2 411.35) scale(.1 -.1)">
<use xlink:href="#c"/>
<use x="63.623047" xlink:href="#d"/>
<use x="95.410156" xlink:href="#c"/>
<use x="159.033203" xlink:href="#w"/>
</g>
</g>
<g clip-path="url(#a)">
<g transform="translate(518.79 411.35) scale(.1 -.1)">
<use xlink:href="#c"/>
<use x="63.623047" xlink:href="#d"/>
<use x="95.410156" xlink:href="#c"/>
<use x="159.033203" xlink:href="#v"/>
</g>
</g>
<g clip-path="url(#a)">
<g transform="translate(567.37 337.21) scale(.1 -.1)">
<use xlink:href="#c"/>
<use x="63.623047" xlink:href="#d"/>
<use x="95.410156" xlink:href="#m"/>
<use x="159.033203" xlink:href="#z"/>
</g>
</g>
<g clip-path="url(#a)">
<g transform="translate(567.37 411.35) scale(.1 -.1)">
<use xlink:href="#c"/>
<use x="63.623047" xlink:href="#d"/>
<use x="95.410156" xlink:href="#m"/>
<use x="159.033203" xlink:href="#c"/>
</g>
</g>
<g clip-path="url(#a)">
<g transform="translate(32.939 411.35) scale(.1 -.1)">
<use xlink:href="#c"/>
<use x="63.623047" xlink:href="#d"/>
<use x="95.410156" xlink:href="#m"/>
<use x="159.033203" xlink:href="#m"/>
</g>
</g>
<g clip-path="url(#a)">
<g transform="translate(81.524 411.35) scale(.1 -.1)">
<use xlink:href="#c"/>
<use x="63.623047" xlink:href="#d"/>
<use x="95.410156" xlink:href="#m"/>
<use x="159.033203" xlink:href="#n"/>
</g>
</g>
<g clip-path="url(#a)">
<g transform="translate(154.4 337.21) scale(.1 -.1)">
<use xlink:href="#c"/>
<use x="63.623047" xlink:href="#d"/>
<use x="95.410156" xlink:href="#m"/>
<use x="159.033203" xlink:href="#y"/>
</g>
</g>
<g clip-path="url(#a)">
<g transform="translate(227.28 411.35) scale(.1 -.1)">
<use xlink:href="#c"/>
<use x="63.623047" xlink:href="#d"/>
<use x="95.410156" xlink:href="#m"/>
<use x="159.033203" xlink:href="#x"/>
</g>
</g>
<g clip-path="url(#a)">
<g transform="translate(312.3 262.04) scale(.1 -.1)">
<use xlink:href="#c"/>
<use x="63.623047" xlink:href="#d"/>
<use x="95.410156" xlink:href="#m"/>
<use x="159.033203" xlink:href="#aj"/>
</g>
</g>
<g clip-path="url(#a)">
<g transform="translate(300.15 337.21) scale(.1 -.1)">
<use xlink:href="#c"/>
<use x="63.623047" xlink:href="#d"/>
<use x="95.410156" xlink:href="#m"/>
<use x="159.033203" xlink:href="#ai"/>
</g>
</g>
<g clip-path="url(#a)">
<g transform="translate(324.45 411.35) scale(.1 -.1)">
<use xlink:href="#c"/>
<use x="63.623047" xlink:href="#d"/>
<use x="95.410156" xlink:href="#m"/>
<use x="159.033203" xlink:href="#w"/>
</g>
</g>
<g clip-path="url(#a)">
<g transform="translate(275.86 411.35) scale(.1 -.1)">
<use xlink:href="#c"/>
<use x="63.623047" xlink:href="#d"/>
<use x="95.410156" xlink:href="#m"/>
<use x="159.033203" xlink:href="#v"/>
</g>
</g>
<g clip-path="url(#a)">
<g transform="translate(130.11 411.35) scale(.1 -.1)">
<use xlink:href="#c"/>
<use x="63.623047" xlink:href="#d"/>
<use x="95.410156" xlink:href="#n"/>
<use x="159.033203" xlink:href="#z"/>
</g>
</g>
<g clip-path="url(#a)">
<g transform="translate(178.69 411.35) scale(.1 -.1)">
<use xlink:href="#c"/>
<use x="63.623047" xlink:href="#d"/>
<use x="95.410156" xlink:href="#n"/>
<use x="159.033203" xlink:href="#c"/>
</g>
</g>
<g clip-path="url(#a)">
<g transform="translate(615.95 411.35) scale(.1 -.1)">
<use xlink:href="#c"/>
<use x="63.623047" xlink:href="#d"/>
<use x="95.410156" xlink:href="#n"/>
<use x="159.033203" xlink:href="#m"/>
</g>
</g>
<g clip-path="url(#a)">
<g transform="translate(907.46 411.35) scale(.1 -.1)">
<use xlink:href="#c"/>
<use x="63.623047" xlink:href="#d"/>
<use x="95.410156" xlink:href="#n"/>
<use x="159.033203" xlink:href="#n"/>
</g>
</g>
<defs>
<clipPath id="a">
<rect width="962.67" height="506.67"/>
</clipPath>
</defs>
</svg>
