<?xml version="1.0" encoding="UTF-8"?>
<!DOCTYPE svg  PUBLIC '-//W3C//DTD SVG 1.1//EN'  'http://www.w3.org/Graphics/SVG/1.1/DTD/svg11.dtd'>
<svg width="962.67pt" height="506.67pt" version="1.1" viewBox="0 0 962.67 506.67" xmlns="http://www.w3.org/2000/svg" xmlns:xlink="http://www.w3.org/1999/xlink">
<defs>
<style type="text/css">*{stroke-linecap:butt;stroke-linejoin:round;}</style>
</defs>
<path d="m0 506.67h962.67v-506.67h-962.67z" fill="#fff"/>
<g fill="none" stroke="#000">
<path d="m310.89 23.03-235.7 77.467" clip-path="url(#a)"/>
<path d="m310.89 23.03-2.0648 385.2" clip-path="url(#a)"/>
<path d="m310.89 23.03 237.76 231.89" clip-path="url(#a)"/>
<path d="m75.197 100.5-31.439 307.73" clip-path="url(#a)"/>
<path d="m75.197 100.5-18.817 307.73" clip-path="url(#a)"/>
<path d="m75.197 100.5 50.256 77.311" clip-path="url(#a)"/>
<path d="m308.83 408.23v75.404" clip-path="url(#a)"/>
<path d="m548.65 254.92 370.26 76.854" clip-path="url(#a)"/>
<path d="m548.65 254.92-161.99 153.31" clip-path="url(#a)"/>
<path d="m548.65 254.92-44.178 153.31" clip-path="url(#a)"/>
<path d="m548.65 254.92 206.17 76.854" clip-path="url(#a)"/>
<path d="m386.67 408.23-27.348 75.404" clip-path="url(#a)"/>
<path d="m386.67 408.23 27.348 75.404" clip-path="url(#a)"/>
<path d="m504.47 408.23-31.556 75.404" clip-path="url(#a)"/>
<path d="m504.47 408.23 31.556 75.404" clip-path="url(#a)"/>
<path d="m754.82 331.78-151.47 76.453" clip-path="url(#a)"/>
<path d="m754.82 331.78-79.942 76.453" clip-path="url(#a)"/>
<path d="m754.82 331.78-4.2075 76.453" clip-path="url(#a)"/>
<path d="m754.82 331.78 75.734 76.453" clip-path="url(#a)"/>
<path d="m754.82 331.78 159.88 76.453" clip-path="url(#a)"/>
<path d="m603.35 408.23v75.404" clip-path="url(#a)"/>
<path d="m674.88 408.23v75.404" clip-path="url(#a)"/>
<path d="m750.61 408.23v75.404" clip-path="url(#a)"/>
<path d="m830.55 408.23v75.404" clip-path="url(#a)"/>
<path d="m43.758 408.23v75.404" clip-path="url(#a)"/>
<path d="m56.38 408.23v75.404" clip-path="url(#a)"/>
<path d="m125.45 177.81-41.724 153.97" clip-path="url(#a)"/>
<path d="m125.45 177.81-5.9606 230.42" clip-path="url(#a)"/>
<path d="m125.45 177.81 47.685 77.116" clip-path="url(#a)"/>
<path d="m83.728 331.78-10.519 76.453" clip-path="url(#a)"/>
<path d="m83.728 331.78 10.519 76.453" clip-path="url(#a)"/>
<path d="m119.49 408.23v75.404" clip-path="url(#a)"/>
<path d="m173.14 254.92-53.645 153.31" clip-path="url(#a)" stroke-dasharray="3.7,1.6"/>
<path d="m173.14 254.92-24.193 153.31" clip-path="url(#a)"/>
<path d="m173.14 254.92 9.4668 153.31" clip-path="url(#a)"/>
<path d="m173.14 254.92 68.371 76.854" clip-path="url(#a)"/>
<path d="m148.94 408.23v75.404" clip-path="url(#a)"/>
<path d="m182.6 408.23v75.404" clip-path="url(#a)"/>
<path d="m241.51 331.78-21.037 76.453" clip-path="url(#a)"/>
<path d="m241.51 331.78 21.037 76.453" clip-path="url(#a)"/>
<path d="m220.47 408.23v75.404" clip-path="url(#a)"/>
<path d="m262.55 408.23v75.404" clip-path="url(#a)"/>
<path d="m73.21 408.23v75.404" clip-path="url(#a)"/>
<path d="m94.247 408.23v75.404" clip-path="url(#a)"/>
<path d="m914.7 408.23v75.404" clip-path="url(#a)"/>
</g>
<path d="m192.14 68.661 5.7155-1.8785q2.28-0.74938 1.5306-3.0294l-2.4175-7.3554q-0.74938-2.28-3.0294-1.5306l-5.7155 1.8785q-2.28 0.74938-1.5306 3.0294l2.4175 7.3554q0.74938 2.28 3.0294 1.5306z" clip-path="url(#a)" fill="#fff" stroke="#fff"/>
<g clip-path="url(#a)">
<defs>
<path id="ae" d="m9.8125 72.906h9.8594v-29.891h35.844v29.891h9.8594v-72.906h-9.8594v34.719h-35.844v-34.719h-9.8594z"/>
</defs>
<g transform="translate(190.88 64.8) rotate(-18.194) scale(.08 -.08)">
<use xlink:href="#ae"/>
</g>
</g>
<path d="m316.12 217.89 0.023893-4.4574q0.012864-2.4-2.3871-2.4128l-7.7424-0.041501q-2.4-0.012864-2.4128 2.3871l-0.023893 4.4574q-0.012864 2.4 2.3871 2.4128l7.7424 0.041501q2.4 0.012865 2.4128-2.3871z" clip-path="url(#a)" fill="#fff" stroke="#fff"/>
<g clip-path="url(#a)">
<defs>
<path id="ad" d="m9.8125 72.906h9.8594v-64.609h35.5v-8.2969h-45.359z"/>
</defs>
<g transform="translate(312.06 217.87) rotate(-89.693) scale(.08 -.08)">
<use xlink:href="#ad"/>
</g>
</g>
<path d="m423.24 141.37 4.3069 4.2007q1.7181 1.6757 3.3938-0.042394l5.406-5.5427q1.6757-1.7181-0.042393-3.3938l-4.3069-4.2007q-1.7181-1.6757-3.3938 0.042393l-5.406 5.5427q-1.6757 1.7181 0.042394 3.3938z" clip-path="url(#a)" fill="#fff" stroke="#fff"/>
<g clip-path="url(#a)">
<g transform="translate(426.08 138.46) rotate(44.284) scale(.08 -.08)">
<use xlink:href="#ae"/>
</g>
</g>
<path d="m65.458 257.53 0.51617-5.0525q0.24392-2.3876-2.1437-2.6315l-7.7024-0.7869q-2.3876-0.24392-2.6315 2.1437l-0.51617 5.0525q-0.24392 2.3876 2.1437 2.6315l7.7024 0.7869q2.3876 0.24392 2.6315-2.1437z" clip-path="url(#a)" fill="#fff" stroke="#fff"/>
<g clip-path="url(#a)">
<defs>
<path id="ab" d="m53.516 70.516v-9.625q-5.6094 2.6875-10.594 4-4.9844 1.3281-9.625 1.3281-8.0469 0-12.422-3.125t-4.375-8.8906q0-4.8438 2.9062-7.3125 2.9062-2.4531 11.016-3.9688l5.9531-1.2188q11.031-2.1094 16.281-7.4062t5.25-14.172q0-10.609-7.1094-16.078-7.0938-5.4688-20.812-5.4688-5.1719 0-11.016 1.1719-5.8281 1.1719-12.078 3.4688v10.156q6-3.3594 11.766-5.0781 5.7656-1.7031 11.328-1.7031 8.4375 0 13.031 3.3125 4.5938 3.3281 4.5938 9.4844 0 5.3594-3.2969 8.3906t-10.812 4.5469l-6.0156 1.1719q-11.031 2.1875-15.969 6.875-4.9219 4.6875-4.9219 13.047 0 9.6719 6.8125 15.234t18.766 5.5625q5.1406 0 10.453-0.9375 5.3281-0.92188 10.891-2.7656z"/>
</defs>
<g transform="translate(61.415 257.12) rotate(-84.167) scale(.08 -.08)">
<use xlink:href="#ab"/>
</g>
</g>
<path d="m71.907 257.04 0.28082-4.5927q0.14648-2.3955-2.249-2.542l-7.7281-0.47254q-2.3955-0.14648-2.542 2.249l-0.28082 4.5927q-0.14648 2.3955 2.249 2.542l7.7281 0.47254q2.3955 0.14648 2.542-2.249z" clip-path="url(#a)" fill="#fff" stroke="#fff"/>
<g clip-path="url(#a)">
<defs>
<path id="aq" d="m9.8125 72.906h41.891v-8.3125h-32.031v-21.484h28.906v-8.2969h-28.906v-34.812h-9.8594z"/>
</defs>
<g transform="translate(67.851 256.8) rotate(-86.501) scale(.08 -.08)">
<use xlink:href="#aq"/>
</g>
</g>
<path d="m93.575 140.28 2.9826 4.5883q1.308 2.0122 3.3203 0.70418l6.4915-4.2198q2.0122-1.308 0.70418-3.3203l-2.9826-4.5883q-1.308-2.0122-3.3203-0.70418l-6.4915 4.2198q-2.0122 1.308-0.70418 3.3203z" clip-path="url(#a)" fill="#fff" stroke="#fff"/>
<g clip-path="url(#a)">
<defs>
<path id="o" d="m34.188 63.188-13.391-36.281h26.812zm-5.5781 9.7188h11.188l27.781-72.906h-10.25l-6.6406 18.703h-32.859l-6.6406-18.703h-10.406z"/>
</defs>
<g transform="translate(96.982 138.06) rotate(56.974) scale(.08 -.08)">
<use xlink:href="#o"/>
</g>
</g>
<path d="m302.56 429.03v33.808q0 2.4 2.4 2.4h7.7425q2.4 0 2.4-2.4v-33.808q0-2.4-2.4-2.4h-7.7425q-2.4 0-2.4 2.4z" clip-path="url(#a)" fill="#fff" stroke="#fff"/>
<g clip-path="url(#a)">
<defs>
<path id="j" d="m-0.29688 72.906h61.672v-8.3125h-25.875v-64.594h-9.9062v64.594h-25.891z"/>
<path id="d" d="m56.203 29.594v-4.3906h-41.312q0.59375-9.2812 5.5938-14.141t13.938-4.8594q5.1719 0 10.031 1.2656t9.6562 3.8125v-8.5q-4.8438-2.0469-9.9219-3.125t-10.297-1.0781q-13.094 0-20.734 7.6094-7.6406 7.625-7.6406 20.625 0 13.422 7.25 21.297 7.25 7.8906 19.562 7.8906 11.031 0 17.453-7.1094 6.4219-7.0938 6.4219-19.297zm-8.9844 2.6406q-0.09375 7.3594-4.125 11.75-4.0312 4.4062-10.672 4.4062-7.5156 0-12.031-4.25t-5.2031-11.969z"/>
<path id="g" d="m41.109 46.297q-1.5156 0.875-3.2969 1.2812-1.7812 0.42188-3.9219 0.42188-7.625 0-11.703-4.9531t-4.0781-14.234v-28.812h-9.0312v54.688h9.0312v-8.5q2.8438 4.9844 7.375 7.3906 4.5469 2.4219 11.047 2.4219 0.92188 0 2.0469-0.125 1.125-0.10938 2.4844-0.35938z"/>
<path id="k" d="m52 44.188q3.375 6.0625 8.0625 8.9375t11.031 2.875q8.5469 0 13.188-5.9844 4.6406-5.9688 4.6406-17v-33.016h-9.0312v32.719q0 7.8594-2.7969 11.656-2.7812 3.8125-8.4844 3.8125-6.9844 0-11.047-4.6406-4.0469-4.625-4.0469-12.641v-30.906h-9.0312v32.719q0 7.9062-2.7812 11.688t-8.5938 3.7812q-6.8906 0-10.953-4.6562-4.0469-4.6562-4.0469-12.625v-30.906h-9.0312v54.688h9.0312v-8.5q3.0781 5.0312 7.375 7.4219t10.203 2.3906q5.9688 0 10.141-3.0312 4.1719-3.0156 6.1719-8.7812z"/>
<path id="i" d="m9.4219 54.688h8.9844v-54.688h-8.9844zm0 21.297h8.9844v-11.391h-8.9844z"/>
<path id="h" d="m54.891 33.016v-33.016h-8.9844v32.719q0 7.7656-3.0312 11.609-3.0312 3.8594-9.0781 3.8594-7.2812 0-11.484-4.6406-4.2031-4.625-4.2031-12.641v-30.906h-9.0312v54.688h9.0312v-8.5q3.2344 4.9375 7.5938 7.375 4.375 2.4375 10.094 2.4375 9.4219 0 14.25-5.8281 4.8438-5.8281 4.8438-17.156z"/>
<path id="e" d="m34.281 27.484q-10.891 0-15.094-2.4844t-4.2031-8.5q0-4.7812 3.1562-7.5938 3.1562-2.7969 8.5625-2.7969 7.4844 0 12 5.2969t4.5156 14.078v2zm17.922 3.7188v-31.203h-8.9844v8.2969q-3.0781-4.9688-7.6719-7.3438t-11.234-2.375q-8.3906 0-13.359 4.7188-4.9531 4.7188-4.9531 12.625 0 9.2188 6.1719 13.906 6.1875 4.6875 18.438 4.6875h12.609v0.89062q0 6.2031-4.0781 9.5938t-11.453 3.3906q-4.6875 0-9.1406-1.125-4.4375-1.125-8.5312-3.375v8.3125q4.9219 1.9062 9.5625 2.8438 4.6406 0.95312 9.0312 0.95312 11.875 0 17.734-6.1562 5.8594-6.1406 5.8594-18.641z"/>
<path id="l" d="m9.4219 75.984h8.9844v-75.984h-8.9844z"/>
</defs>
<g transform="translate(306.62 429.03) rotate(90) scale(.08 -.08)">
<use xlink:href="#j"/>
<use x="44.083984" xlink:href="#d"/>
<use x="105.607422" xlink:href="#g"/>
<use x="144.970703" xlink:href="#k"/>
<use x="242.382812" xlink:href="#i"/>
<use x="270.166016" xlink:href="#h"/>
<use x="333.544922" xlink:href="#e"/>
<use x="394.824219" xlink:href="#l"/>
</g>
</g>
<path d="m729.83 298.94 5.3583 1.1122q2.3499 0.48777 2.8377-1.8621l1.5736-7.5809q0.48777-2.3499-1.8621-2.8377l-5.3583-1.1122q-2.3499-0.48777-2.8377 1.8621l-1.5736 7.5809q-0.48777 2.3499 1.8621 2.8377z" clip-path="url(#a)" fill="#fff" stroke="#fff"/>
<g clip-path="url(#a)">
<g transform="translate(730.65 294.96) rotate(11.726) scale(.08 -.08)">
<use xlink:href="#o"/>
</g>
</g>
<path d="m469.73 338.25 4.474-4.2343q1.7431-1.6497 0.093397-3.3928l-5.322-5.6234q-1.6497-1.7431-3.3928-0.093397l-4.474 4.2343q-1.7431 1.6497-0.093397 3.3928l5.322 5.6234q1.6497 1.7431 3.3928 0.093397z" clip-path="url(#a)" fill="#fff" stroke="#fff"/>
<g clip-path="url(#a)">
<defs>
<path id="ag" d="m19.672 64.797v-56.688h11.922q15.094 0 22.094 6.8281 7 6.8438 7 21.594 0 14.641-7 21.453t-22.094 6.8125zm-9.8594 8.1094h20.266q21.188 0 31.094-8.8125 9.9219-8.8125 9.9219-27.562 0-18.859-9.9688-27.703-9.9531-8.8281-31.047-8.8281h-20.266z"/>
</defs>
<g transform="translate(466.94 335.3) rotate(-43.423) scale(.08 -.08)">
<use xlink:href="#ag"/>
</g>
</g>
<path d="m531.92 335.63 1.3357-4.6351q0.66456-2.3062-1.6416-2.9707l-7.4398-2.1439q-2.3062-0.66456-2.9707 1.6416l-1.3357 4.6351q-0.66456 2.3062 1.6416 2.9707l7.4398 2.1439q2.3062 0.66456 2.9707-1.6416z" clip-path="url(#a)" fill="#fff" stroke="#fff"/>
<g clip-path="url(#a)">
<defs>
<path id="t" d="m19.672 64.797v-27.391h12.406q6.8906 0 10.641 3.5625 3.7656 3.5625 3.7656 10.156 0 6.5469-3.7656 10.109-3.75 3.5625-10.641 3.5625zm-9.8594 8.1094h22.266q12.266 0 18.531-5.5469 6.2812-5.5469 6.2812-16.234 0-10.797-6.2812-16.312-6.2656-5.5156-18.531-5.5156h-12.406v-29.297h-9.8594z"/>
</defs>
<g transform="translate(528.02 334.51) rotate(-73.925) scale(.08 -.08)">
<use xlink:href="#t"/>
</g>
</g>
<path d="m646.98 298.27 5.1278 1.9115q2.2488 0.83832 3.0871-1.4105l2.7044-7.2548q0.83832-2.2488-1.4105-3.0871l-5.1278-1.9115q-2.2488-0.83832-3.0871 1.4105l-2.7044 7.2548q-0.83832 2.2488 1.4105 3.0871z" clip-path="url(#a)" fill="#fff" stroke="#fff"/>
<g clip-path="url(#a)">
<g transform="translate(648.4 294.46) rotate(20.444) scale(.08 -.08)">
<use xlink:href="#o"/>
</g>
</g>
<path d="m373.12 463.96 11.527-31.782q0.8183-2.2562-1.4379-3.0745l-7.2786-2.6399q-2.2562-0.8183-3.0745 1.4379l-11.527 31.782q-0.8183 2.2562 1.4379 3.0745l7.2786 2.6399q2.2562 0.8183 3.0745-1.4379z" clip-path="url(#a)" fill="#fff" stroke="#fff"/>
<g clip-path="url(#a)">
<g transform="translate(369.3 462.58) rotate(-70.065) scale(.08 -.08)">
<use xlink:href="#j"/>
<use x="44.083984" xlink:href="#d"/>
<use x="105.607422" xlink:href="#g"/>
<use x="144.970703" xlink:href="#k"/>
<use x="242.382812" xlink:href="#i"/>
<use x="270.166016" xlink:href="#h"/>
<use x="333.544922" xlink:href="#e"/>
<use x="394.824219" xlink:href="#l"/>
</g>
</g>
<path d="m388.68 432.18 11.527 31.782q0.8183 2.2562 3.0745 1.4379l7.2786-2.6399q2.2562-0.8183 1.4379-3.0745l-11.527-31.782q-0.8183-2.2562-3.0745-1.4379l-7.2786 2.6399q-2.2562 0.8183-1.4379 3.0745z" clip-path="url(#a)" fill="#fff" stroke="#fff"/>
<g clip-path="url(#a)">
<g transform="translate(392.5 430.8) rotate(70.065) scale(.08 -.08)">
<use xlink:href="#j"/>
<use x="44.083984" xlink:href="#d"/>
<use x="105.607422" xlink:href="#g"/>
<use x="144.970703" xlink:href="#k"/>
<use x="242.382812" xlink:href="#i"/>
<use x="270.166016" xlink:href="#h"/>
<use x="333.544922" xlink:href="#e"/>
<use x="394.824219" xlink:href="#l"/>
</g>
</g>
<path d="m487.96 463.95 13.051-31.187q0.92651-2.2139-1.2874-3.1405l-7.1423-2.989q-2.214-0.92651-3.1405 1.2874l-13.051 31.187q-0.92651 2.2139 1.2874 3.1405l7.1423 2.989q2.2139 0.92651 3.1405-1.2874z" clip-path="url(#a)" fill="#fff" stroke="#fff"/>
<g clip-path="url(#a)">
<g transform="translate(484.21 462.38) rotate(-67.291) scale(.08 -.08)">
<use xlink:href="#j"/>
<use x="44.083984" xlink:href="#d"/>
<use x="105.607422" xlink:href="#g"/>
<use x="144.970703" xlink:href="#k"/>
<use x="242.382812" xlink:href="#i"/>
<use x="270.166016" xlink:href="#h"/>
<use x="333.544922" xlink:href="#e"/>
<use x="394.824219" xlink:href="#l"/>
</g>
</g>
<path d="m507.94 432.76 13.051 31.187q0.92651 2.2139 3.1405 1.2874l7.1423-2.989q2.2139-0.92651 1.2874-3.1405l-13.051-31.187q-0.92651-2.2139-3.1405-1.2874l-7.1423 2.989q-2.2139 0.92651-1.2874 3.1405z" clip-path="url(#a)" fill="#fff" stroke="#fff"/>
<g clip-path="url(#a)">
<g transform="translate(511.69 431.19) rotate(67.291) scale(.08 -.08)">
<use xlink:href="#j"/>
<use x="44.083984" xlink:href="#d"/>
<use x="105.607422" xlink:href="#g"/>
<use x="144.970703" xlink:href="#k"/>
<use x="242.382812" xlink:href="#i"/>
<use x="270.166016" xlink:href="#h"/>
<use x="333.544922" xlink:href="#e"/>
<use x="394.824219" xlink:href="#l"/>
</g>
</g>
<path d="m679.43 376.86 4.9624-2.5048q2.1425-1.0814 1.0611-3.224l-3.4888-6.9119q-1.0814-2.1425-3.224-1.0611l-4.9624 2.5048q-2.1425 1.0814-1.0611 3.224l3.4888 6.9119q1.0814 2.1425 3.224 1.0611z" clip-path="url(#a)" fill="#fff" stroke="#fff"/>
<g clip-path="url(#a)">
<defs>
<path id="ac" d="m44.391 34.188q3.1719-1.0781 6.1719-4.5938t6.0312-9.6719l10.016-19.922h-10.609l-9.3125 18.703q-3.625 7.3281-7.0156 9.7188t-9.25 2.3906h-10.75v-30.812h-9.8594v72.906h22.266q12.5 0 18.656-5.2344 6.1562-5.2188 6.1562-15.766 0-6.8906-3.2031-11.438-3.2031-4.5312-9.2969-6.2812zm-24.719 30.609v-25.875h12.406q7.125 0 10.766 3.2969t3.6406 9.6875-3.6406 9.6406-10.766 3.25z"/>
</defs>
<g transform="translate(677.6 373.23) rotate(-26.782) scale(.08 -.08)">
<use xlink:href="#ac"/>
</g>
</g>
<path d="m717.2 376.43 3.955-3.7824q1.7345-1.6588 0.075685-3.3933l-5.3513-5.5955q-1.6588-1.7345-3.3933-0.075686l-3.955 3.7824q-1.7345 1.6588-0.075686 3.3933l5.3513 5.5955q1.6588 1.7345 3.3933 0.075686z" clip-path="url(#a)" fill="#fff" stroke="#fff"/>
<g clip-path="url(#a)">
<g transform="translate(714.4 373.49) rotate(-43.722) scale(.08 -.08)">
<use xlink:href="#o"/>
</g>
</g>
<path d="m758.81 373.43 0.33849-6.1507q0.13188-2.3964-2.2645-2.5283l-7.7308-0.42545q-2.3964-0.13188-2.5283 2.2645l-0.33849 6.1507q-0.13188 2.3964 2.2645 2.5283l7.7308 0.42545q2.3964 0.13188 2.5283-2.2645z" clip-path="url(#a)" fill="#fff" stroke="#fff"/>
<g clip-path="url(#a)">
<g transform="translate(754.75 373.2) rotate(-86.85) scale(.08 -.08)">
<use xlink:href="#ag"/>
</g>
</g>
<path d="m786.53 372.71 3.3948 3.427q1.689 1.7051 3.3941 0.016038l5.5006-5.4488q1.7051-1.689 0.016038-3.3941l-3.3948-3.427q-1.689-1.7051-3.3941-0.016038l-5.5006 5.4488q-1.7051 1.689-0.016038 3.3941z" clip-path="url(#a)" fill="#fff" stroke="#fff"/>
<g clip-path="url(#a)">
<g transform="translate(789.42 369.85) rotate(45.271) scale(.08 -.08)">
<use xlink:href="#t"/>
</g>
</g>
<path d="m829.41 374.4 5.2822 2.5258q2.1652 1.0354 3.2005-1.1298l3.3401-6.985q1.0354-2.1652-1.1298-3.2005l-5.2822-2.5258q-2.1652-1.0354-3.2005 1.1298l-3.3401 6.985q-1.0354 2.1652 1.1298 3.2005z" clip-path="url(#a)" fill="#fff" stroke="#fff"/>
<g clip-path="url(#a)">
<defs>
<path id="an" d="m8.6875 72.906h9.9219v-44.297q0-11.719 4.2344-16.875 4.25-5.1406 13.781-5.1406 9.4688 0 13.719 5.1406 4.25 5.1562 4.25 16.875v44.297h9.9062v-45.516q0-14.25-7.0625-21.531-7.0469-7.2812-20.812-7.2812-13.828 0-20.891 7.2812-7.0469 7.2812-7.0469 21.531z"/>
</defs>
<g transform="translate(831.17 370.73) rotate(25.556) scale(.08 -.08)">
<use xlink:href="#an"/>
</g>
</g>
<path d="m597.08 429.03v33.808q0 2.4 2.4 2.4h7.7425q2.4 0 2.4-2.4v-33.808q0-2.4-2.4-2.4h-7.7425q-2.4 0-2.4 2.4z" clip-path="url(#a)" fill="#fff" stroke="#fff"/>
<g clip-path="url(#a)">
<g transform="translate(601.14 429.03) rotate(90) scale(.08 -.08)">
<use xlink:href="#j"/>
<use x="44.083984" xlink:href="#d"/>
<use x="105.607422" xlink:href="#g"/>
<use x="144.970703" xlink:href="#k"/>
<use x="242.382812" xlink:href="#i"/>
<use x="270.166016" xlink:href="#h"/>
<use x="333.544922" xlink:href="#e"/>
<use x="394.824219" xlink:href="#l"/>
</g>
</g>
<path d="m668.61 429.03v33.808q0 2.4 2.4 2.4h7.7425q2.4 0 2.4-2.4v-33.808q0-2.4-2.4-2.4h-7.7425q-2.4 0-2.4 2.4z" clip-path="url(#a)" fill="#fff" stroke="#fff"/>
<g clip-path="url(#a)">
<g transform="translate(672.67 429.03) rotate(90) scale(.08 -.08)">
<use xlink:href="#j"/>
<use x="44.083984" xlink:href="#d"/>
<use x="105.607422" xlink:href="#g"/>
<use x="144.970703" xlink:href="#k"/>
<use x="242.382812" xlink:href="#i"/>
<use x="270.166016" xlink:href="#h"/>
<use x="333.544922" xlink:href="#e"/>
<use x="394.824219" xlink:href="#l"/>
</g>
</g>
<path d="m744.34 429.03v33.808q0 2.4 2.4 2.4h7.7425q2.4 0 2.4-2.4v-33.808q0-2.4-2.4-2.4h-7.7425q-2.4 0-2.4 2.4z" clip-path="url(#a)" fill="#fff" stroke="#fff"/>
<g clip-path="url(#a)">
<g transform="translate(748.4 429.03) rotate(90) scale(.08 -.08)">
<use xlink:href="#j"/>
<use x="44.083984" xlink:href="#d"/>
<use x="105.607422" xlink:href="#g"/>
<use x="144.970703" xlink:href="#k"/>
<use x="242.382812" xlink:href="#i"/>
<use x="270.166016" xlink:href="#h"/>
<use x="333.544922" xlink:href="#e"/>
<use x="394.824219" xlink:href="#l"/>
</g>
</g>
<path d="m824.28 429.03v33.808q0 2.4 2.4 2.4h7.7425q2.4 0 2.4-2.4v-33.808q0-2.4-2.4-2.4h-7.7425q-2.4 0-2.4 2.4z" clip-path="url(#a)" fill="#fff" stroke="#fff"/>
<g clip-path="url(#a)">
<g transform="translate(828.34 429.03) rotate(90) scale(.08 -.08)">
<use xlink:href="#j"/>
<use x="44.083984" xlink:href="#d"/>
<use x="105.607422" xlink:href="#g"/>
<use x="144.970703" xlink:href="#k"/>
<use x="242.382812" xlink:href="#i"/>
<use x="270.166016" xlink:href="#h"/>
<use x="333.544922" xlink:href="#e"/>
<use x="394.824219" xlink:href="#l"/>
</g>
</g>
<path d="m37.486 429.03v33.808q0 2.4 2.4 2.4h7.7425q2.4 0 2.4-2.4v-33.808q0-2.4-2.4-2.4h-7.7425q-2.4 0-2.4 2.4z" clip-path="url(#a)" fill="#fff" stroke="#fff"/>
<g clip-path="url(#a)">
<g transform="translate(41.55 429.03) rotate(90) scale(.08 -.08)">
<use xlink:href="#j"/>
<use x="44.083984" xlink:href="#d"/>
<use x="105.607422" xlink:href="#g"/>
<use x="144.970703" xlink:href="#k"/>
<use x="242.382812" xlink:href="#i"/>
<use x="270.166016" xlink:href="#h"/>
<use x="333.544922" xlink:href="#e"/>
<use x="394.824219" xlink:href="#l"/>
</g>
</g>
<path d="m50.109 429.03v33.808q0 2.4 2.4 2.4h7.7425q2.4 0 2.4-2.4v-33.808q0-2.4-2.4-2.4h-7.7425q-2.4 0-2.4 2.4z" clip-path="url(#a)" fill="#fff" stroke="#fff"/>
<g clip-path="url(#a)">
<g transform="translate(54.172 429.03) rotate(90) scale(.08 -.08)">
<use xlink:href="#j"/>
<use x="44.083984" xlink:href="#d"/>
<use x="105.607422" xlink:href="#g"/>
<use x="144.970703" xlink:href="#k"/>
<use x="242.382812" xlink:href="#i"/>
<use x="270.166016" xlink:href="#h"/>
<use x="333.544922" xlink:href="#e"/>
<use x="394.824219" xlink:href="#l"/>
</g>
</g>
<path d="m109.82 259.47 1.6471-6.0783q0.62773-2.3165-1.6887-2.9442l-7.473-2.0251q-2.3165-0.62773-2.9442 1.6887l-1.6471 6.0783q-0.62773 2.3165 1.6887 2.9442l7.473 2.0251q2.3165 0.62773 2.9442-1.6887z" clip-path="url(#a)" fill="#fff" stroke="#fff"/>
<g clip-path="url(#a)">
<defs>
<path id="ao" d="m39.406 66.219q-10.75 0-17.078-8.0156-6.3125-8-6.3125-21.828 0-13.766 6.3125-21.781 6.3281-8 17.078-8 10.734 0 17.016 8 6.2812 8.0156 6.2812 21.781 0 13.828-6.2812 21.828-6.2812 8.0156-17.016 8.0156zm13.812-64.906 13-14.203h-11.922l-10.797 11.672q-1.6094-0.09375-2.4688-0.14062-0.84375-0.0625-1.625-0.0625-15.375 0-24.594 10.281-9.2031 10.281-9.2031 27.516 0 17.281 9.2031 27.562 9.2188 10.281 24.594 10.281 15.328 0 24.5-10.281 9.1875-10.281 9.1875-27.562 0-12.688-5.1094-21.734-5.0938-9.0312-14.766-13.328z"/>
</defs>
<g transform="translate(105.9 258.41) rotate(-74.838) scale(.08 -.08)">
<use xlink:href="#ao"/>
</g>
</g>
<path d="m128.67 295.97 0.14446-5.5844q0.062062-2.3992-2.3371-2.4613l-7.7399-0.20022q-2.3992-0.062062-2.4613 2.3371l-0.14446 5.5844q-0.062062 2.3992 2.3371 2.4613l7.7399 0.20022q2.3992 0.062062 2.4613-2.3371z" clip-path="url(#a)" fill="#fff" stroke="#fff"/>
<g clip-path="url(#a)">
<defs>
<path id="x" d="m64.406 67.281v-10.391q-4.9844 4.6406-10.625 6.9219-5.6406 2.2969-11.984 2.2969-12.5 0-19.141-7.6406t-6.6406-22.094q0-14.406 6.6406-22.047t19.141-7.6406q6.3438 0 11.984 2.2969t10.625 6.9375v-10.312q-5.1719-3.5156-10.969-5.2812-5.7812-1.75-12.219-1.75-16.562 0-26.094 10.125-9.5156 10.141-9.5156 27.672 0 17.578 9.5156 27.703 9.5312 10.141 26.094 10.141 6.5312 0 12.312-1.7344 5.7969-1.7344 10.875-5.2031z"/>
</defs>
<g transform="translate(124.61 295.87) rotate(-88.518) scale(.08 -.08)">
<use xlink:href="#x"/>
</g>
</g>
<path d="m142.63 217.51 2.6586 4.2994q1.2622 2.0413 3.3035 0.77906l6.5852-4.072q2.0413-1.2622 0.77906-3.3035l-2.6586-4.2994q-1.2622-2.0413-3.3035-0.77906l-6.5852 4.072q-2.0413 1.2622-0.77906 3.3035z" clip-path="url(#a)" fill="#fff" stroke="#fff"/>
<g clip-path="url(#a)">
<defs>
<path id="af" d="m9.8125 72.906h46.094v-8.3125h-36.234v-21.578h34.719v-8.2969h-34.719v-26.422h37.109v-8.2969h-46.969z"/>
</defs>
<g transform="translate(146.09 215.38) rotate(58.269) scale(.08 -.08)">
<use xlink:href="#af"/>
</g>
</g>
<path d="m84.337 373.36 0.68899-5.0078q0.32712-2.3776-2.0505-2.7047l-7.6702-1.0553q-2.3776-0.32712-2.7047 2.0505l-0.68899 5.0078q-0.32712 2.3776 2.0505 2.7047l7.6702 1.0553q2.3776 0.32712 2.7047-2.0505z" clip-path="url(#a)" fill="#fff" stroke="#fff"/>
<g clip-path="url(#a)">
<g transform="translate(80.312 372.81) rotate(-82.166) scale(.08 -.08)">
<use xlink:href="#af"/>
</g>
</g>
<path d="m82.394 368.09 0.7614 5.5341q0.32712 2.3776 2.7047 2.0505l7.6702-1.0553q2.3776-0.32712 2.0505-2.7047l-0.7614-5.5341q-0.32712-2.3776-2.7047-2.0505l-7.6702 1.0553q-2.3776 0.32712-2.0505 2.7047z" clip-path="url(#a)" fill="#fff" stroke="#fff"/>
<g clip-path="url(#a)">
<g transform="translate(86.42 367.54) rotate(82.166) scale(.08 -.08)">
<use xlink:href="#x"/>
</g>
</g>
<path d="m113.22 429.03v33.808q0 2.4 2.4 2.4h7.7425q2.4 0 2.4-2.4v-33.808q0-2.4-2.4-2.4h-7.7425q-2.4 0-2.4 2.4z" clip-path="url(#a)" fill="#fff" stroke="#fff"/>
<g clip-path="url(#a)">
<g transform="translate(117.28 429.03) rotate(90) scale(.08 -.08)">
<use xlink:href="#j"/>
<use x="44.083984" xlink:href="#d"/>
<use x="105.607422" xlink:href="#g"/>
<use x="144.970703" xlink:href="#k"/>
<use x="242.382812" xlink:href="#i"/>
<use x="270.166016" xlink:href="#h"/>
<use x="333.544922" xlink:href="#e"/>
<use x="394.824219" xlink:href="#l"/>
</g>
</g>
<path d="m151.33 336.23 1.8075-5.1654q0.79267-2.2653-1.4726-3.058l-7.308-2.5572q-2.2653-0.79268-3.058 1.4726l-1.8075 5.1654q-0.79268 2.2653 1.4726 3.058l7.308 2.5572q2.2653 0.79268 3.058-1.4726z" clip-path="url(#a)" fill="#fff" stroke="#fff"/>
<g clip-path="url(#a)">
<g transform="translate(147.49 334.89) rotate(-70.714) scale(.08 -.08)">
<use xlink:href="#o"/>
</g>
</g>
<path d="m166.8 335.3 0.86648-5.4908q0.3741-2.3707-1.9966-2.7448l-7.6479-1.2069q-2.3707-0.3741-2.7448 1.9966l-0.86648 5.4908q-0.3741 2.3707 1.9966 2.7448l7.6479 1.2069q2.3707 0.3741 2.7448-1.9966z" clip-path="url(#a)" fill="#fff" stroke="#fff"/>
<g clip-path="url(#a)">
<g transform="translate(162.79 334.67) rotate(-81.032) scale(.08 -.08)">
<use xlink:href="#ac"/>
</g>
</g>
<path d="m171.45 329.43 0.31302 5.0691q0.14792 2.3954 2.5434 2.2475l7.7278-0.47719q2.3954-0.14792 2.2475-2.5434l-0.31302-5.0691q-0.14792-2.3954-2.5434-2.2475l-7.7278 0.47719q-2.3954 0.14792-2.2475 2.5434z" clip-path="url(#a)" fill="#fff" stroke="#fff"/>
<g clip-path="url(#a)">
<g transform="translate(175.51 329.18) rotate(86.466) scale(.08 -.08)">
<use xlink:href="#ab"/>
</g>
</g>
<path d="m200.82 295.48 3.6374 4.0887q1.5952 1.7931 3.3883 0.19793l5.7847-5.1462q1.7931-1.5952 0.19793-3.3883l-3.6374-4.0887q-1.5952-1.7931-3.3883-0.19793l-5.7847 5.1462q-1.7931 1.5952-0.19792 3.3883z" clip-path="url(#a)" fill="#fff" stroke="#fff"/>
<g clip-path="url(#a)">
<g transform="translate(203.85 292.77) rotate(48.343) scale(.08 -.08)">
<use xlink:href="#o"/>
</g>
</g>
<path d="m142.67 429.03v33.808q0 2.4 2.4 2.4h7.7425q2.4 0 2.4-2.4v-33.808q0-2.4-2.4-2.4h-7.7425q-2.4 0-2.4 2.4z" clip-path="url(#a)" fill="#fff" stroke="#fff"/>
<g clip-path="url(#a)">
<g transform="translate(146.74 429.03) rotate(90) scale(.08 -.08)">
<use xlink:href="#j"/>
<use x="44.083984" xlink:href="#d"/>
<use x="105.607422" xlink:href="#g"/>
<use x="144.970703" xlink:href="#k"/>
<use x="242.382812" xlink:href="#i"/>
<use x="270.166016" xlink:href="#h"/>
<use x="333.544922" xlink:href="#e"/>
<use x="394.824219" xlink:href="#l"/>
</g>
</g>
<path d="m176.33 429.03v33.808q0 2.4 2.4 2.4h7.7425q2.4 0 2.4-2.4v-33.808q0-2.4-2.4-2.4h-7.7425q-2.4 0-2.4 2.4z" clip-path="url(#a)" fill="#fff" stroke="#fff"/>
<g clip-path="url(#a)">
<g transform="translate(180.4 429.03) rotate(90) scale(.08 -.08)">
<use xlink:href="#j"/>
<use x="44.083984" xlink:href="#d"/>
<use x="105.607422" xlink:href="#g"/>
<use x="144.970703" xlink:href="#k"/>
<use x="242.382812" xlink:href="#i"/>
<use x="270.166016" xlink:href="#h"/>
<use x="333.544922" xlink:href="#e"/>
<use x="394.824219" xlink:href="#l"/>
</g>
</g>
<path d="m236.31 374.31 1.4519-5.2764q0.63673-2.314-1.6773-2.9507l-7.465-2.0541q-2.314-0.63673-2.9507 1.6773l-1.4519 5.2764q-0.63673 2.314 1.6773 2.9507l7.465 2.0541q2.314 0.63673 2.9507-1.6773z" clip-path="url(#a)" fill="#fff" stroke="#fff"/>
<g clip-path="url(#a)">
<g transform="translate(232.39 373.23) rotate(-74.615) scale(.08 -.08)">
<use xlink:href="#o"/>
</g>
</g>
<path d="m245.34 369.34 1.2798 4.6509q0.63673 2.314 2.9507 1.6773l7.465-2.0541q2.314-0.63673 1.6773-2.9507l-1.2798-4.6509q-0.63673-2.314-2.9507-1.6773l-7.465 2.0541q-2.314 0.63673-1.6773 2.9507z" clip-path="url(#a)" fill="#fff" stroke="#fff"/>
<g clip-path="url(#a)">
<g transform="translate(249.26 368.27) rotate(74.615) scale(.08 -.08)">
<use xlink:href="#t"/>
</g>
</g>
<path d="m214.2 429.03v33.808q0 2.4 2.4 2.4h7.7425q2.4 0 2.4-2.4v-33.808q0-2.4-2.4-2.4h-7.7425q-2.4 0-2.4 2.4z" clip-path="url(#a)" fill="#fff" stroke="#fff"/>
<g clip-path="url(#a)">
<g transform="translate(218.26 429.03) rotate(90) scale(.08 -.08)">
<use xlink:href="#j"/>
<use x="44.083984" xlink:href="#d"/>
<use x="105.607422" xlink:href="#g"/>
<use x="144.970703" xlink:href="#k"/>
<use x="242.382812" xlink:href="#i"/>
<use x="270.166016" xlink:href="#h"/>
<use x="333.544922" xlink:href="#e"/>
<use x="394.824219" xlink:href="#l"/>
</g>
</g>
<path d="m256.27 429.03v33.808q0 2.4 2.4 2.4h7.7425q2.4 0 2.4-2.4v-33.808q0-2.4-2.4-2.4h-7.7425q-2.4 0-2.4 2.4z" clip-path="url(#a)" fill="#fff" stroke="#fff"/>
<g clip-path="url(#a)">
<g transform="translate(260.34 429.03) rotate(90) scale(.08 -.08)">
<use xlink:href="#j"/>
<use x="44.083984" xlink:href="#d"/>
<use x="105.607422" xlink:href="#g"/>
<use x="144.970703" xlink:href="#k"/>
<use x="242.382812" xlink:href="#i"/>
<use x="270.166016" xlink:href="#h"/>
<use x="333.544922" xlink:href="#e"/>
<use x="394.824219" xlink:href="#l"/>
</g>
</g>
<path d="m66.939 429.03v33.808q0 2.4 2.4 2.4h7.7425q2.4 0 2.4-2.4v-33.808q0-2.4-2.4-2.4h-7.7425q-2.4 0-2.4 2.4z" clip-path="url(#a)" fill="#fff" stroke="#fff"/>
<g clip-path="url(#a)">
<g transform="translate(71.002 429.03) rotate(90) scale(.08 -.08)">
<use xlink:href="#j"/>
<use x="44.083984" xlink:href="#d"/>
<use x="105.607422" xlink:href="#g"/>
<use x="144.970703" xlink:href="#k"/>
<use x="242.382812" xlink:href="#i"/>
<use x="270.166016" xlink:href="#h"/>
<use x="333.544922" xlink:href="#e"/>
<use x="394.824219" xlink:href="#l"/>
</g>
</g>
<path d="m87.976 429.03v33.808q0 2.4 2.4 2.4h7.7425q2.4 0 2.4-2.4v-33.808q0-2.4-2.4-2.4h-7.7425q-2.4 0-2.4 2.4z" clip-path="url(#a)" fill="#fff" stroke="#fff"/>
<g clip-path="url(#a)">
<g transform="translate(92.04 429.03) rotate(90) scale(.08 -.08)">
<use xlink:href="#j"/>
<use x="44.083984" xlink:href="#d"/>
<use x="105.607422" xlink:href="#g"/>
<use x="144.970703" xlink:href="#k"/>
<use x="242.382812" xlink:href="#i"/>
<use x="270.166016" xlink:href="#h"/>
<use x="333.544922" xlink:href="#e"/>
<use x="394.824219" xlink:href="#l"/>
</g>
</g>
<path d="m908.43 429.03v33.808q0 2.4 2.4 2.4h7.7425q2.4 0 2.4-2.4v-33.808q0-2.4-2.4-2.4h-7.7425q-2.4 0-2.4 2.4z" clip-path="url(#a)" fill="#fff" stroke="#fff"/>
<g clip-path="url(#a)">
<g transform="translate(912.49 429.03) rotate(90) scale(.08 -.08)">
<use xlink:href="#j"/>
<use x="44.083984" xlink:href="#d"/>
<use x="105.607422" xlink:href="#g"/>
<use x="144.970703" xlink:href="#k"/>
<use x="242.382812" xlink:href="#i"/>
<use x="270.166016" xlink:href="#h"/>
<use x="333.544922" xlink:href="#e"/>
<use x="394.824219" xlink:href="#l"/>
</g>
</g>
<defs>
<path id="b" d="m0 8.6603c2.2967 0 4.4997-0.9125 6.1237-2.5365 1.624-1.624 2.5365-3.827 2.5365-6.1237s-0.9125-4.4997-2.5365-6.1237c-1.624-1.624-3.827-2.5365-6.1237-2.5365s-4.4997 0.9125-6.1237 2.5365c-1.624 1.624-2.5365 3.827-2.5365 6.1237s0.9125 4.4997 2.5365 6.1237c1.624 1.624 3.827 2.5365 6.1237 2.5365z"/>
</defs>
<g clip-path="url(#a)" fill="#ffffff" stroke="#ffffff">
<use x="43.757576" y="483.636364" xlink:href="#b"/>
<use x="56.379953" y="483.636364" xlink:href="#b"/>
<use x="73.20979" y="483.636364" xlink:href="#b"/>
<use x="94.247086" y="483.636364" xlink:href="#b"/>
<use x="119.491841" y="483.636364" xlink:href="#b"/>
<use x="148.944056" y="483.636364" xlink:href="#b"/>
<use x="182.60373" y="483.636364" xlink:href="#b"/>
<use x="220.470862" y="483.636364" xlink:href="#b"/>
<use x="262.545455" y="483.636364" xlink:href="#b"/>
<use x="308.827506" y="483.636364" xlink:href="#b"/>
<use x="359.317016" y="483.636364" xlink:href="#b"/>
<use x="414.013986" y="483.636364" xlink:href="#b"/>
<use x="472.918415" y="483.636364" xlink:href="#b"/>
<use x="536.030303" y="483.636364" xlink:href="#b"/>
<use x="603.34965" y="483.636364" xlink:href="#b"/>
<use x="674.876457" y="483.636364" xlink:href="#b"/>
<use x="750.610723" y="483.636364" xlink:href="#b"/>
<use x="830.552448" y="483.636364" xlink:href="#b"/>
<use x="914.701632" y="483.636364" xlink:href="#b"/>
<use x="918.909091" y="331.778537" xlink:href="#b"/>
<use x="310.892277" y="23.030303" xlink:href="#b"/>
<use x="75.196646" y="100.497162" xlink:href="#b"/>
<use x="308.827506" y="408.23193" xlink:href="#b"/>
<use x="548.652681" y="254.924153" xlink:href="#b"/>
<use x="386.665501" y="408.23193" xlink:href="#b"/>
<use x="504.474359" y="408.23193" xlink:href="#b"/>
<use x="754.818182" y="331.778537" xlink:href="#b"/>
<use x="603.34965" y="408.23193" xlink:href="#b"/>
<use x="674.876457" y="408.23193" xlink:href="#b"/>
<use x="750.610723" y="408.23193" xlink:href="#b"/>
<use x="830.552448" y="408.23193" xlink:href="#b"/>
<use x="43.757576" y="408.23193" xlink:href="#b"/>
<use x="56.379953" y="408.23193" xlink:href="#b"/>
<use x="125.452409" y="177.8082" xlink:href="#b"/>
<use x="83.728438" y="331.778537" xlink:href="#b"/>
<use x="119.491841" y="408.23193" xlink:href="#b"/>
<use x="173.136946" y="254.924153" xlink:href="#b"/>
<use x="148.944056" y="408.23193" xlink:href="#b"/>
<use x="182.60373" y="408.23193" xlink:href="#b"/>
<use x="241.508159" y="331.778537" xlink:href="#b"/>
<use x="220.470862" y="408.23193" xlink:href="#b"/>
<use x="262.545455" y="408.23193" xlink:href="#b"/>
<use x="73.20979" y="408.23193" xlink:href="#b"/>
<use x="94.247086" y="408.23193" xlink:href="#b"/>
<use x="914.701632" y="408.23193" xlink:href="#b"/>
</g>
<g clip-path="url(#a)">
<defs>
<path id="s" d="m54.891 33.016v-33.016h-8.9844v32.719q0 7.7656-3.0312 11.609-3.0312 3.8594-9.0781 3.8594-7.2812 0-11.484-4.6406-4.2031-4.625-4.2031-12.641v-30.906h-9.0312v75.984h9.0312v-29.797q3.2344 4.9375 7.5938 7.375 4.375 2.4375 10.094 2.4375 9.4219 0 14.25-5.8281 4.8438-5.8281 4.8438-17.156z"/>
</defs>
<g transform="translate(29.439 486.4) scale(.1 -.1)">
<use xlink:href="#j"/>
<use x="61.083984" xlink:href="#s"/>
<use x="124.462891" xlink:href="#d"/>
<use x="185.986328" xlink:href="#g"/>
<use x="224.849609" xlink:href="#d"/>
</g>
</g>
<g clip-path="url(#a)">
<g transform="translate(48.296 486.4) scale(.1 -.1)">
<use xlink:href="#e"/>
<use x="61.279297" xlink:href="#g"/>
<use x="100.142578" xlink:href="#d"/>
</g>
</g>
<g clip-path="url(#a)">
<defs>
<path id="n" d="m18.312 70.219v-15.531h18.5v-6.9844h-18.5v-29.688q0-6.6875 1.8281-8.5938t7.4531-1.9062h9.2188v-7.5156h-9.2188q-10.406 0-14.359 3.875-3.9531 3.8906-3.9531 14.141v29.688h-6.5938v6.9844h6.5938v15.531z"/>
<path id="r" d="m30.609 48.391q-7.2188 0-11.422-5.6406t-4.2031-15.453 4.1719-15.453q4.1875-5.6406 11.453-5.6406 7.1875 0 11.375 5.6562 4.2031 5.6719 4.2031 15.438 0 9.7188-4.2031 15.406-4.1875 5.6875-11.375 5.6875zm0 7.6094q11.719 0 18.406-7.625 6.7031-7.6094 6.7031-21.078 0-13.422-6.7031-21.078-6.6875-7.6406-18.406-7.6406-11.766 0-18.438 7.6406-6.6562 7.6562-6.6562 21.078 0 13.469 6.6562 21.078 6.6719 7.625 18.438 7.625z"/>
</defs>
<g transform="translate(68.19 486.4) scale(.1 -.1)">
<use xlink:href="#n"/>
<use x="39.208984" xlink:href="#r"/>
</g>
</g>
<g clip-path="url(#a)">
<defs>
<path id="ar" d="m32.172-5.0781q-3.7969-9.7656-7.4219-12.734-3.6094-2.9844-9.6562-2.9844h-7.1875v7.5156h5.2812q3.7031 0 5.75 1.7656 2.0625 1.75 4.5469 8.2969l1.6094 4.0938-22.109 53.812h9.5156l17.094-42.766 17.094 42.766h9.5156z"/>
</defs>
<g transform="translate(80.185 486.4) scale(.1 -.1)">
<use xlink:href="#k"/>
<use x="97.412109" xlink:href="#e"/>
<use x="158.691406" xlink:href="#h"/>
<use x="222.070312" xlink:href="#ar"/>
</g>
</g>
<g clip-path="url(#a)">
<defs>
<path id="v" d="m18.109 8.2031v-29h-9.0312v75.484h9.0312v-8.2969q2.8438 4.875 7.1562 7.2344 4.3281 2.375 10.328 2.375 9.9688 0 16.188-7.9062 6.2344-7.9062 6.2344-20.797t-6.2344-20.812q-6.2188-7.9062-16.188-7.9062-6 0-10.328 2.375-4.3125 2.375-7.1562 7.25zm30.578 19.094q0 9.9062-4.0781 15.547t-11.203 5.6406q-7.1406 0-11.219-5.6406t-4.0781-15.547 4.0781-15.547 11.219-5.6406q7.125 0 11.203 5.6406t4.0781 15.547z"/>
</defs>
<g transform="translate(102.54 486.4) scale(.1 -.1)">
<use xlink:href="#v"/>
<use x="63.476562" xlink:href="#d"/>
<use x="125" xlink:href="#r"/>
<use x="186.181641" xlink:href="#v"/>
<use x="249.658203" xlink:href="#l"/>
<use x="277.441406" xlink:href="#d"/>
</g>
</g>
<g clip-path="url(#a)">
<g transform="translate(138.79 486.4) scale(.1 -.1)">
<use xlink:href="#n"/>
<use x="39.208984" xlink:href="#s"/>
<use x="102.587891" xlink:href="#e"/>
<use x="163.867188" xlink:href="#n"/>
</g>
</g>
<g clip-path="url(#a)">
<defs>
<path id="av" d="m45.406 46.391v29.594h8.9844v-75.984h-8.9844v8.2031q-2.8281-4.875-7.1562-7.25-4.3125-2.375-10.375-2.375-9.9062 0-16.141 7.9062-6.2188 7.9219-6.2188 20.812t6.2188 20.797q6.2344 7.9062 16.141 7.9062 6.0625 0 10.375-2.375 4.3281-2.3594 7.1562-7.2344zm-30.609-19.094q0-9.9062 4.0781-15.547t11.203-5.6406 11.219 5.6406q4.1094 5.6406 4.1094 15.547t-4.1094 15.547q-4.0938 5.6406-11.219 5.6406t-11.203-5.6406-4.0781-15.547z"/>
</defs>
<g transform="translate(170.11 486.4) scale(.1 -.1)">
<use xlink:href="#h"/>
<use x="63.378906" xlink:href="#d"/>
<use x="124.902344" xlink:href="#d"/>
<use x="186.425781" xlink:href="#av"/>
</g>
</g>
<g clip-path="url(#a)">
<defs>
<path id="q" d="m8.5 21.578v33.109h8.9844v-32.766q0-7.7656 3.0156-11.656 3.0312-3.875 9.0938-3.875 7.2656 0 11.484 4.6406 4.2344 4.6406 4.2344 12.656v31h8.9844v-54.688h-8.9844v8.4062q-3.2656-4.9844-7.5938-7.4062-4.3125-2.4219-10.031-2.4219-9.4219 0-14.312 5.8594-4.875 5.8594-4.875 17.141z"/>
</defs>
<g transform="translate(212.19 486.4) scale(.1 -.1)">
<use xlink:href="#r"/>
<use x="61.181641" xlink:href="#q"/>
<use x="124.560547" xlink:href="#g"/>
</g>
</g>
<g clip-path="url(#a)">
<defs>
<path id="am" d="m48.688 27.297q0 9.9062-4.0781 15.547t-11.203 5.6406q-7.1406 0-11.219-5.6406t-4.0781-15.547 4.0781-15.547 11.219-5.6406q7.125 0 11.203 5.6406t4.0781 15.547zm-30.578 19.094q2.8438 4.875 7.1562 7.2344 4.3281 2.375 10.328 2.375 9.9688 0 16.188-7.9062 6.2344-7.9062 6.2344-20.797t-6.2344-20.812q-6.2188-7.9062-16.188-7.9062-6 0-10.328 2.375-4.3125 2.375-7.1562 7.25v-8.2031h-9.0312v75.984h9.0312z"/>
<path id="u" d="m44.281 53.078v-8.5q-3.7969 1.9531-7.9062 2.9219-4.0938 0.98438-8.5 0.98438-6.6875 0-10.031-2.0469t-3.3438-6.1562q0-3.125 2.3906-4.9062t9.625-3.3906l3.0781-0.6875q9.5625-2.0469 13.594-5.7812t4.0312-10.422q0-7.625-6.0312-12.078-6.0312-4.4375-16.578-4.4375-4.3906 0-9.1562 0.85938t-10.031 2.5625v9.2812q4.9844-2.5938 9.8125-3.8906 4.8281-1.2812 9.5781-1.2812 6.3438 0 9.75 2.1719 3.4219 2.1719 3.4219 6.125 0 3.6562-2.4688 5.6094-2.4531 1.9531-10.812 3.7656l-3.125 0.73438q-8.3438 1.75-12.062 5.3906-3.7031 3.6406-3.7031 9.9844 0 7.7188 5.4688 11.906 5.4688 4.2031 15.531 4.2031 4.9688 0 9.3594-0.73438 4.4062-0.71875 8.1094-2.1875z"/>
</defs>
<g transform="translate(240.75 486.4) scale(.1 -.1)">
<use xlink:href="#am"/>
<use x="63.476562" xlink:href="#q"/>
<use x="126.855469" xlink:href="#u"/>
<use x="178.955078" xlink:href="#i"/>
<use x="206.738281" xlink:href="#h"/>
<use x="270.117188" xlink:href="#d"/>
<use x="331.640625" xlink:href="#u"/>
<use x="383.740234" xlink:href="#u"/>
</g>
</g>
<g clip-path="url(#a)">
<g transform="translate(303.81 486.4) scale(.1 -.1)">
<use xlink:href="#n"/>
<use x="39.208984" xlink:href="#r"/>
</g>
</g>
<g clip-path="url(#a)">
<defs>
<path id="at" d="m2.9844 54.688h9.5156l17.094-45.891 17.094 45.891h9.5156l-20.516-54.688h-12.203z"/>
</defs>
<g transform="translate(347.05 486.4) scale(.1 -.1)">
<use xlink:href="#s"/>
<use x="63.378906" xlink:href="#e"/>
<use x="124.658203" xlink:href="#at"/>
<use x="183.837891" xlink:href="#d"/>
</g>
</g>
<g clip-path="url(#a)">
<g transform="translate(408.99 486.4) scale(.1 -.1)">
<use xlink:href="#n"/>
<use x="39.208984" xlink:href="#r"/>
</g>
</g>
<g clip-path="url(#a)">
<g transform="translate(464.62 486.4) scale(.1 -.1)">
<use xlink:href="#v"/>
<use x="63.476562" xlink:href="#q"/>
<use x="126.855469" xlink:href="#n"/>
</g>
</g>
<g clip-path="url(#a)">
<g transform="translate(529.69 486.4) scale(.1 -.1)">
<use xlink:href="#q"/>
<use x="63.378906" xlink:href="#v"/>
</g>
</g>
<g clip-path="url(#a)">
<defs>
<path id="as" d="m4.2031 54.688h8.9844l11.234-42.672 11.172 42.672h10.594l11.234-42.672 11.188 42.672h8.9844l-14.312-54.688h-10.594l-11.766 44.828-11.812-44.828h-10.609z"/>
</defs>
<g transform="translate(592.74 486.4) scale(.1 -.1)">
<use xlink:href="#as"/>
<use x="81.787109" xlink:href="#i"/>
<use x="109.570312" xlink:href="#n"/>
<use x="148.779297" xlink:href="#s"/>
</g>
</g>
<g clip-path="url(#a)">
<g transform="translate(665.75 486.4) scale(.1 -.1)">
<use xlink:href="#n"/>
<use x="39.208984" xlink:href="#s"/>
<use x="102.587891" xlink:href="#i"/>
<use x="130.371094" xlink:href="#u"/>
</g>
</g>
<g clip-path="url(#a)">
<defs>
<path id="au" d="m37.109 75.984v-7.4844h-8.5938q-4.8281 0-6.7188-1.9531-1.875-1.9531-1.875-7.0312v-4.8281h14.797v-6.9844h-14.797v-47.703h-9.0312v47.703h-8.5938v6.9844h8.5938v3.8125q0 9.125 4.25 13.297 4.25 4.1875 13.469 4.1875z"/>
</defs>
<g transform="translate(736 486.4) scale(.1 -.1)">
<use xlink:href="#q"/>
<use x="63.378906" xlink:href="#h"/>
<use x="126.757812" xlink:href="#au"/>
<use x="161.962891" xlink:href="#e"/>
<use x="223.242188" xlink:href="#i"/>
<use x="251.025391" xlink:href="#g"/>
</g>
</g>
<g clip-path="url(#a)">
<g transform="translate(805.47 486.4) scale(.1 -.1)">
<use xlink:href="#n"/>
<use x="39.208984" xlink:href="#g"/>
<use x="78.072266" xlink:href="#d"/>
<use x="139.595703" xlink:href="#e"/>
<use x="200.875" xlink:href="#n"/>
<use x="240.083984" xlink:href="#k"/>
<use x="337.496094" xlink:href="#d"/>
<use x="399.019531" xlink:href="#h"/>
<use x="462.398438" xlink:href="#n"/>
</g>
</g>
<g clip-path="url(#a)">
<defs>
<path id="p" d="m15.094 12.406h9.9062v-12.406h-9.9062zm0 60.5h9.9062v-31.984l-0.96875-17.438h-7.9219l-1.0156 17.438z"/>
</defs>
<g transform="translate(904.68 486.4) scale(.1 -.1)">
<use xlink:href="#p"/>
<use x="40.087891" xlink:href="#p"/>
<use x="80.175781" xlink:href="#p"/>
<use x="120.263672" xlink:href="#p"/>
<use x="160.351562" xlink:href="#p"/>
</g>
</g>
<g clip-path="url(#a)">
<defs>
<path id="w" d="m9.8125 72.906h9.8594v-72.906h-9.8594z"/>
<path id="ap" d="m9.8125 72.906h14.703l18.594-49.609 18.703 49.609h14.703v-72.906h-9.625v64.016l-18.797-50h-9.9062l-18.797 50v-64.016h-9.5781z"/>
</defs>
<g transform="translate(897.82 334.54) scale(.1 -.1)">
<use xlink:href="#w"/>
<use x="29.492188" xlink:href="#ap"/>
<use x="115.771484" xlink:href="#t"/>
<use x="176.074219" xlink:href="#ad"/>
<use x="231.787109" xlink:href="#w"/>
<use x="261.279297" xlink:href="#x"/>
<use x="331.103516" xlink:href="#w"/>
<use x="360.595703" xlink:href="#j"/>
</g>
</g>
<g clip-path="url(#a)">
<defs>
<path id="c" d="m12.406 8.2969h16.109v55.625l-17.531-3.5156v8.9844l17.438 3.5156h9.8594v-64.609h16.109v-8.2969h-41.984z"/>
<path id="f" d="m10.688 12.406h10.312v-12.406h-10.312z"/>
</defs>
<g transform="translate(302.94 25.79) scale(.1 -.1)">
<use xlink:href="#c"/>
<use x="63.623047" xlink:href="#f"/>
<use x="95.410156" xlink:href="#c"/>
</g>
</g>
<g clip-path="url(#a)">
<defs>
<path id="m" d="m19.188 8.2969h34.422v-8.2969h-46.281v8.2969q5.6094 5.8125 15.297 15.594 9.7031 9.7969 12.188 12.641 4.7344 5.3125 6.6094 9 1.8906 3.6875 1.8906 7.25 0 5.8125-4.0781 9.4688-4.0781 3.6719-10.625 3.6719-4.6406 0-9.7969-1.6094-5.1406-1.6094-11-4.8906v9.9688q5.9531 2.3906 11.125 3.6094 5.1875 1.2188 9.4844 1.2188 11.328 0 18.062-5.6719 6.7344-5.6562 6.7344-15.125 0-4.5-1.6875-8.5312-1.6719-4.0156-6.125-9.4844-1.2188-1.4219-7.7656-8.1875-6.5312-6.7656-18.453-18.922z"/>
</defs>
<g transform="translate(67.245 103.26) scale(.1 -.1)">
<use xlink:href="#c"/>
<use x="63.623047" xlink:href="#f"/>
<use x="95.410156" xlink:href="#m"/>
</g>
</g>
<g clip-path="url(#a)">
<defs>
<path id="ak" d="m40.578 39.312q7.0781-1.5156 11.047-6.3125 3.9844-4.7812 3.9844-11.812 0-10.781-7.4219-16.703-7.4219-5.9062-21.094-5.9062-4.5781 0-9.4375 0.90625t-10.031 2.7188v9.5156q4.0938-2.3906 8.9688-3.6094 4.8906-1.2188 10.219-1.2188 9.2656 0 14.125 3.6562t4.8594 10.641q0 6.4531-4.5156 10.078-4.5156 3.6406-12.562 3.6406h-8.5v8.1094h8.8906q7.2656 0 11.125 2.9062t3.8594 8.375q0 5.6094-3.9844 8.6094-3.9688 3.0156-11.391 3.0156-4.0625 0-8.7031-0.89062-4.6406-0.875-10.203-2.7188v8.7812q5.625 1.5625 10.531 2.3438t9.25 0.78125q11.234 0 17.766-5.1094 6.5469-5.0938 6.5469-13.781 0-6.0625-3.4688-10.234t-9.8594-5.7812z"/>
</defs>
<g transform="translate(300.88 410.99) scale(.1 -.1)">
<use xlink:href="#c"/>
<use x="63.623047" xlink:href="#f"/>
<use x="95.410156" xlink:href="#ak"/>
</g>
</g>
<g clip-path="url(#a)">
<defs>
<path id="aa" d="m37.797 64.312-24.906-38.922h24.906zm-2.5938 8.5938h12.406v-47.516h10.406v-8.2031h-10.406v-17.188h-9.8125v17.188h-32.906v9.5156z"/>
</defs>
<g transform="translate(540.7 257.68) scale(.1 -.1)">
<use xlink:href="#c"/>
<use x="63.623047" xlink:href="#f"/>
<use x="95.410156" xlink:href="#aa"/>
</g>
</g>
<g clip-path="url(#a)">
<defs>
<path id="z" d="m33.016 40.375q-6.6406 0-10.531-4.5469-3.875-4.5312-3.875-12.438 0-7.8594 3.875-12.438 3.8906-4.5625 10.531-4.5625t10.516 4.5625q3.875 4.5781 3.875 12.438 0 7.9062-3.875 12.438-3.875 4.5469-10.516 4.5469zm19.578 30.922v-8.9844q-3.7188 1.75-7.5 2.6719-3.7812 0.9375-7.5 0.9375-9.7656 0-14.922-6.5938-5.1406-6.5938-5.875-19.922 2.875 4.25 7.2188 6.5156 4.3594 2.2656 9.5781 2.2656 10.984 0 17.359-6.6719 6.375-6.6562 6.375-18.125 0-11.234-6.6406-18.031-6.6406-6.7812-17.672-6.7812-12.656 0-19.344 9.6875-6.6875 9.7031-6.6875 28.109 0 17.281 8.2031 27.562t22.016 10.281q3.7188 0 7.5-0.73438t7.8906-2.1875z"/>
</defs>
<g transform="translate(378.71 410.99) scale(.1 -.1)">
<use xlink:href="#c"/>
<use x="63.623047" xlink:href="#f"/>
<use x="95.410156" xlink:href="#z"/>
</g>
</g>
<g clip-path="url(#a)">
<defs>
<path id="y" d="m8.2031 72.906h46.875v-4.2031l-26.469-68.703h-10.297l24.906 64.594h-35.016z"/>
</defs>
<g transform="translate(496.52 410.99) scale(.1 -.1)">
<use xlink:href="#c"/>
<use x="63.623047" xlink:href="#f"/>
<use x="95.410156" xlink:href="#y"/>
</g>
</g>
<g clip-path="url(#a)">
<defs>
<path id="ai" d="m31.781 34.625q-7.0312 0-11.062-3.7656-4.0156-3.7656-4.0156-10.344 0-6.5938 4.0156-10.359 4.0312-3.7656 11.062-3.7656t11.078 3.7812q4.0625 3.7969 4.0625 10.344 0 6.5781-4.0312 10.344-4.0156 3.7656-11.109 3.7656zm-9.8594 4.1875q-6.3438 1.5625-9.8906 5.9062-3.5312 4.3594-3.5312 10.609 0 8.7344 6.2188 13.812 6.2344 5.0781 17.062 5.0781 10.891 0 17.094-5.0781t6.2031-13.812q0-6.25-3.5469-10.609-3.5312-4.3438-9.8281-5.9062 7.125-1.6562 11.094-6.5 3.9844-4.8281 3.9844-11.797 0-10.609-6.4688-16.281-6.4688-5.6562-18.531-5.6562-12.047 0-18.531 5.6562-6.4688 5.6719-6.4688 16.281 0 6.9688 4 11.797 4.0156 4.8438 11.141 6.5zm-3.6094 15.578q0-5.6562 3.5312-8.8281 3.5469-3.1719 9.9375-3.1719 6.3594 0 9.9375 3.1719 3.5938 3.1719 3.5938 8.8281 0 5.6719-3.5938 8.8438-3.5781 3.1719-9.9375 3.1719-6.3906 0-9.9375-3.1719-3.5312-3.1719-3.5312-8.8438z"/>
</defs>
<g transform="translate(746.87 334.54) scale(.1 -.1)">
<use xlink:href="#c"/>
<use x="63.623047" xlink:href="#f"/>
<use x="95.410156" xlink:href="#ai"/>
</g>
</g>
<g clip-path="url(#a)">
<defs>
<path id="ah" d="m10.984 1.5156v8.9844q3.7188-1.7656 7.5156-2.6875 3.8125-0.92188 7.4844-0.92188 9.7656 0 14.906 6.5625 5.1562 6.5625 5.8906 19.953-2.8281-4.2031-7.1875-6.4531-4.3438-2.25-9.6094-2.25-10.938 0-17.312 6.6094-6.375 6.625-6.375 18.109 0 11.219 6.6406 18 6.6406 6.7969 17.672 6.7969 12.656 0 19.312-9.7031 6.6719-9.6875 6.6719-28.141 0-17.234-8.1875-27.516-8.1719-10.281-21.984-10.281-3.7188 0-7.5312 0.73438-3.7969 0.73438-7.9062 2.2031zm19.625 30.906q6.6406 0 10.516 4.5312 3.8906 4.5469 3.8906 12.469 0 7.8594-3.8906 12.422-3.875 4.5625-10.516 4.5625t-10.516-4.5625-3.875-12.422q0-7.9219 3.875-12.469 3.875-4.5312 10.516-4.5312z"/>
</defs>
<g transform="translate(595.4 410.99) scale(.1 -.1)">
<use xlink:href="#c"/>
<use x="63.623047" xlink:href="#f"/>
<use x="95.410156" xlink:href="#ah"/>
</g>
</g>
<g clip-path="url(#a)">
<defs>
<path id="al" d="m31.781 66.406q-7.6094 0-11.453-7.5-3.8281-7.4844-3.8281-22.531 0-14.984 3.8281-22.484 3.8438-7.5 11.453-7.5 7.6719 0 11.5 7.5 3.8438 7.5 3.8438 22.484 0 15.047-3.8438 22.531-3.8281 7.5-11.5 7.5zm0 7.8125q12.266 0 18.734-9.7031 6.4688-9.6875 6.4688-28.141 0-18.406-6.4688-28.109-6.4688-9.6875-18.734-9.6875-12.25 0-18.719 9.6875-6.4688 9.7031-6.4688 28.109 0 18.453 6.4688 28.141 6.4688 9.7031 18.719 9.7031z"/>
</defs>
<g transform="translate(663.74 410.99) scale(.1 -.1)">
<use xlink:href="#c"/>
<use x="63.623047" xlink:href="#f"/>
<use x="95.410156" xlink:href="#c"/>
<use x="159.033203" xlink:href="#al"/>
</g>
</g>
<g clip-path="url(#a)">
<g transform="translate(739.48 410.99) scale(.1 -.1)">
<use xlink:href="#c"/>
<use x="63.623047" xlink:href="#f"/>
<use x="95.410156" xlink:href="#c"/>
<use x="159.033203" xlink:href="#c"/>
</g>
</g>
<g clip-path="url(#a)">
<g transform="translate(819.42 410.99) scale(.1 -.1)">
<use xlink:href="#c"/>
<use x="63.623047" xlink:href="#f"/>
<use x="95.410156" xlink:href="#c"/>
<use x="159.033203" xlink:href="#m"/>
</g>
</g>
<g clip-path="url(#a)">
<g transform="translate(32.625 410.99) scale(.1 -.1)">
<use xlink:href="#c"/>
<use x="63.623047" xlink:href="#f"/>
<use x="95.410156" xlink:href="#c"/>
<use x="159.033203" xlink:href="#aa"/>
</g>
</g>
<g clip-path="url(#a)">
<defs>
<path id="aj" d="m10.797 72.906h38.719v-8.3125h-29.688v-17.859q2.1406 0.73438 4.2812 1.0938 2.1562 0.35938 4.3125 0.35938 12.203 0 19.328-6.6875 7.1406-6.6875 7.1406-18.109 0-11.766-7.3281-18.297-7.3281-6.5156-20.656-6.5156-4.5938 0-9.3594 0.78125-4.75 0.78125-9.8281 2.3438v9.9219q4.3906-2.3906 9.0781-3.5625t9.9062-1.1719q8.4531 0 13.375 4.4375 4.9375 4.4375 4.9375 12.062 0 7.6094-4.9375 12.047-4.9219 4.4531-13.375 4.4531-3.9531 0-7.8906-0.875-3.9219-0.875-8.0156-2.7344z"/>
</defs>
<g transform="translate(45.247 410.99) scale(.1 -.1)">
<use xlink:href="#c"/>
<use x="63.623047" xlink:href="#f"/>
<use x="95.410156" xlink:href="#c"/>
<use x="159.033203" xlink:href="#aj"/>
</g>
</g>
<g clip-path="url(#a)">
<g transform="translate(114.32 180.57) scale(.1 -.1)">
<use xlink:href="#c"/>
<use x="63.623047" xlink:href="#f"/>
<use x="95.410156" xlink:href="#c"/>
<use x="159.033203" xlink:href="#z"/>
</g>
</g>
<g clip-path="url(#a)">
<g transform="translate(72.596 334.54) scale(.1 -.1)">
<use xlink:href="#c"/>
<use x="63.623047" xlink:href="#f"/>
<use x="95.410156" xlink:href="#c"/>
<use x="159.033203" xlink:href="#y"/>
</g>
</g>
<g clip-path="url(#a)">
<g transform="translate(108.36 410.99) scale(.1 -.1)">
<use xlink:href="#c"/>
<use x="63.623047" xlink:href="#f"/>
<use x="95.410156" xlink:href="#c"/>
<use x="159.033203" xlink:href="#ai"/>
</g>
</g>
<g clip-path="url(#a)">
<g transform="translate(162 257.68) scale(.1 -.1)">
<use xlink:href="#c"/>
<use x="63.623047" xlink:href="#f"/>
<use x="95.410156" xlink:href="#c"/>
<use x="159.033203" xlink:href="#ah"/>
</g>
</g>
<g clip-path="url(#a)">
<g transform="translate(137.81 410.99) scale(.1 -.1)">
<use xlink:href="#c"/>
<use x="63.623047" xlink:href="#f"/>
<use x="95.410156" xlink:href="#m"/>
<use x="159.033203" xlink:href="#al"/>
</g>
</g>
<g clip-path="url(#a)">
<g transform="translate(171.47 410.99) scale(.1 -.1)">
<use xlink:href="#c"/>
<use x="63.623047" xlink:href="#f"/>
<use x="95.410156" xlink:href="#m"/>
<use x="159.033203" xlink:href="#c"/>
</g>
</g>
<g clip-path="url(#a)">
<g transform="translate(230.38 334.54) scale(.1 -.1)">
<use xlink:href="#c"/>
<use x="63.623047" xlink:href="#f"/>
<use x="95.410156" xlink:href="#m"/>
<use x="159.033203" xlink:href="#m"/>
</g>
</g>
<g clip-path="url(#a)">
<g transform="translate(209.34 410.99) scale(.1 -.1)">
<use xlink:href="#c"/>
<use x="63.623047" xlink:href="#f"/>
<use x="95.410156" xlink:href="#m"/>
<use x="159.033203" xlink:href="#ak"/>
</g>
</g>
<g clip-path="url(#a)">
<g transform="translate(251.41 410.99) scale(.1 -.1)">
<use xlink:href="#c"/>
<use x="63.623047" xlink:href="#f"/>
<use x="95.410156" xlink:href="#m"/>
<use x="159.033203" xlink:href="#aa"/>
</g>
</g>
<g clip-path="url(#a)">
<g transform="translate(62.077 410.99) scale(.1 -.1)">
<use xlink:href="#c"/>
<use x="63.623047" xlink:href="#f"/>
<use x="95.410156" xlink:href="#m"/>
<use x="159.033203" xlink:href="#aj"/>
</g>
</g>
<g clip-path="url(#a)">
<g transform="translate(83.114 410.99) scale(.1 -.1)">
<use xlink:href="#c"/>
<use x="63.623047" xlink:href="#f"/>
<use x="95.410156" xlink:href="#m"/>
<use x="159.033203" xlink:href="#z"/>
</g>
</g>
<g clip-path="url(#a)">
<g transform="translate(903.57 410.99) scale(.1 -.1)">
<use xlink:href="#c"/>
<use x="63.623047" xlink:href="#f"/>
<use x="95.410156" xlink:href="#m"/>
<use x="159.033203" xlink:href="#y"/>
</g>
</g>
<defs>
<clipPath id="a">
<rect width="962.67" height="506.67"/>
</clipPath>
</defs>
</svg>
