<?xml version="1.0" encoding="UTF-8"?>
<!DOCTYPE svg  PUBLIC '-//W3C//DTD SVG 1.1//EN'  'http://www.w3.org/Graphics/SVG/1.1/DTD/svg11.dtd'>
<svg width="709.33pt" height="373.33pt" version="1.1" viewBox="0 0 709.33 373.33" xmlns="http://www.w3.org/2000/svg" xmlns:xlink="http://www.w3.org/1999/xlink">
<defs>
<style type="text/css">*{stroke-linecap:butt;stroke-linejoin:round;white-space:pre;}</style>
</defs>
<path d="m0 373.33h709.33v-373.33h-709.33z" fill="#fff"/>
<g fill="none" stroke="#000">
<path d="m122.88 18.073v69.823" clip-path="url(#a)"/>
<path d="m122.88 87.896-90.206 201.3" clip-path="url(#a)"/>
<path d="m122.88 87.896-40.669 201.3" clip-path="url(#a)"/>
<path d="m122.88 87.896 130.87 68.268" clip-path="url(#a)"/>
<path d="m32.678 289.2v66.059" clip-path="url(#a)"/>
<path d="m82.215 289.2v66.059" clip-path="url(#a)"/>
<path d="m253.76 156.16-122.01 133.04" clip-path="url(#a)"/>
<path d="m253.76 156.16-72.47 133.04" clip-path="url(#a)"/>
<path d="m253.76 156.16 194.48 66.978" clip-path="url(#a)"/>
<path d="m131.75 289.2v66.059" clip-path="url(#a)"/>
<path d="m181.29 289.2v66.059" clip-path="url(#a)"/>
<path d="m448.24 223.14-217.41 66.059" clip-path="url(#a)"/>
<path d="m448.24 223.14-167.87 66.059" clip-path="url(#a)"/>
<path d="m448.24 223.14-68.801 66.059" clip-path="url(#a)"/>
<path d="m448.24 223.14 55.041 66.059" clip-path="url(#a)"/>
<path d="m448.24 223.14 129.35 66.059" clip-path="url(#a)"/>
<path d="m448.24 223.14 178.88 66.059" clip-path="url(#a)"/>
<path d="m448.24 223.14-118.34 66.059" clip-path="url(#a)"/>
<path d="m448.24 223.14-19.264 66.059" clip-path="url(#a)"/>
<path d="m448.24 223.14 228.42 66.059" clip-path="url(#a)"/>
<path d="m230.82 289.2v66.059" clip-path="url(#a)"/>
<path d="m280.36 289.2v66.059" clip-path="url(#a)"/>
<path d="m379.44 289.2v66.059" clip-path="url(#a)"/>
<path d="m503.28 289.2-24.768 66.059" clip-path="url(#a)"/>
<path d="m503.28 289.2 24.768 66.059" clip-path="url(#a)"/>
<path d="m577.58 289.2v66.059" clip-path="url(#a)"/>
<path d="m627.12 289.2v66.059" clip-path="url(#a)"/>
<path d="m329.9 289.2v66.059" clip-path="url(#a)"/>
<path d="m428.97 289.2v66.059" clip-path="url(#a)"/>
<path d="m676.66 289.2v66.059" clip-path="url(#a)"/>
</g>
<path d="m116.61 49.977v6.0162q0 2.4 2.4 2.4h7.7425q2.4 0 2.4-2.4v-6.0162q0-2.4-2.4-2.4h-7.7425q-2.4 0-2.4 2.4z" clip-path="url(#a)" fill="#fff" stroke="#fff"/>
<g clip-path="url(#a)">
<defs>
<path id="af" d="m9.8125 72.906h9.8594v-29.891h35.844v29.891h9.8594v-72.906h-9.8594v34.719h-35.844v-34.719h-9.8594z"/>
</defs>
<g transform="translate(120.68 49.977) rotate(90) scale(.08 -.08)">
<use xlink:href="#af"/>
</g>
</g>
<path d="m82.385 193.61 2.2378-4.994q0.98142-2.1902-1.2087-3.1716l-7.0656-3.1661q-2.1902-0.98142-3.1716 1.2087l-2.2378 4.994q-0.98142 2.1902 1.2087 3.1716l7.0656 3.1661q2.1902 0.98142 3.1716-1.2087z" clip-path="url(#a)" fill="#fff" stroke="#fff"/>
<g clip-path="url(#a)">
<defs>
<path id="n" d="m34.188 63.188-13.391-36.281h26.812zm-5.5781 9.7188h11.188l27.781-72.906h-10.25l-6.6406 18.703h-32.859l-6.6406-18.703h-10.406z"/>
</defs>
<g transform="translate(78.676 191.95) rotate(-65.863) scale(.08 -.08)">
<use xlink:href="#n"/>
</g>
</g>
<path d="m108.22 192.15 0.95523-4.7282q0.47526-2.3525-1.8772-2.8277l-7.5892-1.5332q-2.3525-0.47526-2.8277 1.8772l-0.95523 4.7282q-0.47526 2.3525 1.8772 2.8277l7.5892 1.5332q2.3525 0.47526 2.8277-1.8772z" clip-path="url(#a)" fill="#fff" stroke="#fff"/>
<g clip-path="url(#a)">
<defs>
<path id="r" d="m19.672 64.797v-27.391h12.406q6.8906 0 10.641 3.5625 3.7656 3.5625 3.7656 10.156 0 6.5469-3.7656 10.109-3.75 3.5625-10.641 3.5625zm-9.8594 8.1094h22.266q12.266 0 18.531-5.5469 6.2812-5.5469 6.2812-16.234 0-10.797-6.2812-16.312-6.2656-5.5156-18.531-5.5156h-12.406v-29.297h-9.8594z"/>
</defs>
<g transform="translate(104.24 191.35) rotate(-78.578) scale(.08 -.08)">
<use xlink:href="#r"/>
</g>
</g>
<path d="m182.99 126.32 4.8521 2.531q2.1279 1.11 3.2379-1.0179l3.5808-6.8647q1.11-2.1279-1.0179-3.2379l-4.8521-2.531q-2.1279-1.11-3.2379 1.0179l-3.5808 6.8647q-1.11 2.1279 1.0179 3.2379z" clip-path="url(#a)" fill="#fff" stroke="#fff"/>
<g clip-path="url(#a)">
<g transform="translate(184.87 122.72) rotate(27.548) scale(.08 -.08)">
<use xlink:href="#n"/>
</g>
</g>
<path d="m26.407 304.59v35.285q0 2.4 2.4 2.4h7.7425q2.4 0 2.4-2.4v-35.285q0-2.4-2.4-2.4h-7.7425q-2.4 0-2.4 2.4z" clip-path="url(#a)" fill="#fff" stroke="#fff"/>
<g clip-path="url(#a)">
<defs>
<path id="j" d="m-0.29688 72.906h61.672v-8.3125h-25.875v-64.594h-9.9062v64.594h-25.891z"/>
<path id="g" d="m56.203 29.594v-4.3906h-41.312q0.59375-9.2812 5.5938-14.141t13.938-4.8594q5.1719 0 10.031 1.2656t9.6562 3.8125v-8.5q-4.8438-2.0469-9.9219-3.125t-10.297-1.0781q-13.094 0-20.734 7.6094-7.6406 7.625-7.6406 20.625 0 13.422 7.25 21.297 7.25 7.8906 19.562 7.8906 11.031 0 17.453-7.1094 6.4219-7.0938 6.4219-19.297zm-8.9844 2.6406q-0.09375 7.3594-4.125 11.75-4.0312 4.4062-10.672 4.4062-7.5156 0-12.031-4.25t-5.2031-11.969z"/>
<path id="f" d="m41.109 46.297q-1.5156 0.875-3.2969 1.2812-1.7812 0.42188-3.9219 0.42188-7.625 0-11.703-4.9531t-4.0781-14.234v-28.812h-9.0312v54.688h9.0312v-8.5q2.8438 4.9844 7.375 7.3906 4.5469 2.4219 11.047 2.4219 0.92188 0 2.0469-0.125 1.125-0.10938 2.4844-0.35938z"/>
<path id="i" d="m52 44.188q3.375 6.0625 8.0625 8.9375t11.031 2.875q8.5469 0 13.188-5.9844 4.6406-5.9688 4.6406-17v-33.016h-9.0312v32.719q0 7.8594-2.7969 11.656-2.7812 3.8125-8.4844 3.8125-6.9844 0-11.047-4.6406-4.0469-4.625-4.0469-12.641v-30.906h-9.0312v32.719q0 7.9062-2.7812 11.688t-8.5938 3.7812q-6.8906 0-10.953-4.6562-4.0469-4.6562-4.0469-12.625v-30.906h-9.0312v54.688h9.0312v-8.5q3.0781 5.0312 7.375 7.4219t10.203 2.3906q5.9688 0 10.141-3.0312 4.1719-3.0156 6.1719-8.7812z"/>
<path id="l" d="m9.4219 54.688h8.9844v-54.688h-8.9844zm0 21.297h8.9844v-11.391h-8.9844z"/>
<path id="k" d="m54.891 33.016v-33.016h-8.9844v32.719q0 7.7656-3.0312 11.609-3.0312 3.8594-9.0781 3.8594-7.2812 0-11.484-4.6406-4.2031-4.625-4.2031-12.641v-30.906h-9.0312v54.688h9.0312v-8.5q3.2344 4.9375 7.5938 7.375 4.375 2.4375 10.094 2.4375 9.4219 0 14.25-5.8281 4.8438-5.8281 4.8438-17.156z"/>
<path id="d" d="m34.281 27.484q-10.891 0-15.094-2.4844t-4.2031-8.5q0-4.7812 3.1562-7.5938 3.1562-2.7969 8.5625-2.7969 7.4844 0 12 5.2969t4.5156 14.078v2zm17.922 3.7188v-31.203h-8.9844v8.2969q-3.0781-4.9688-7.6719-7.3438t-11.234-2.375q-8.3906 0-13.359 4.7188-4.9531 4.7188-4.9531 12.625 0 9.2188 6.1719 13.906 6.1875 4.6875 18.438 4.6875h12.609v0.89062q0 6.2031-4.0781 9.5938t-11.453 3.3906q-4.6875 0-9.1406-1.125-4.4375-1.125-8.5312-3.375v8.3125q4.9219 1.9062 9.5625 2.8438 4.6406 0.95312 9.0312 0.95312 11.875 0 17.734-6.1562 5.8594-6.1406 5.8594-18.641z"/>
<path id="h" d="m9.4219 75.984h8.9844v-75.984h-8.9844z"/>
</defs>
<g transform="translate(30.47 304.59) rotate(90) scale(.08 -.08)">
<use xlink:href="#j"/>
<use x="60.818359" xlink:href="#g"/>
<use x="122.341797" xlink:href="#f"/>
<use x="163.439453" xlink:href="#i"/>
<use x="260.851562" xlink:href="#l"/>
<use x="288.634766" xlink:href="#k"/>
<use x="352.013672" xlink:href="#d"/>
<use x="413.292969" xlink:href="#h"/>
</g>
</g>
<path d="m75.943 304.59v35.285q0 2.4 2.4 2.4h7.7425q2.4 0 2.4-2.4v-35.285q0-2.4-2.4-2.4h-7.7425q-2.4 0-2.4 2.4z" clip-path="url(#a)" fill="#fff" stroke="#fff"/>
<g clip-path="url(#a)">
<g transform="translate(80.007 304.59) rotate(90) scale(.08 -.08)">
<use xlink:href="#j"/>
<use x="60.818359" xlink:href="#g"/>
<use x="122.341797" xlink:href="#f"/>
<use x="163.439453" xlink:href="#i"/>
<use x="260.851562" xlink:href="#l"/>
<use x="288.634766" xlink:href="#k"/>
<use x="352.013672" xlink:href="#d"/>
<use x="413.292969" xlink:href="#h"/>
</g>
</g>
<path d="m195.82 228.62 3.11-3.3911q1.6221-1.7688-0.14665-3.3909l-5.7062-5.2331q-1.7688-1.6221-3.3909 0.14665l-3.11 3.3911q-1.6221 1.7688 0.14665 3.3909l5.7062 5.2331q1.7688 1.6221 3.3909-0.14665z" clip-path="url(#a)" fill="#fff" stroke="#fff"/>
<g clip-path="url(#a)">
<defs>
<path id="ag" d="m9.8125 72.906h41.891v-8.3125h-32.031v-21.484h28.906v-8.2969h-28.906v-34.812h-9.8594z"/>
</defs>
<g transform="translate(192.83 225.87) rotate(-47.476) scale(.08 -.08)">
<use xlink:href="#ag"/>
</g>
</g>
<path d="m221.69 228.14 2.6723-4.9056q1.1481-2.1076-0.9595-3.2557l-6.7992-3.7038q-2.1076-1.1481-3.2557 0.9595l-2.6723 4.9056q-1.1481 2.1076 0.9595 3.2557l6.7992 3.7038q2.1076 1.1481 3.2557-0.9595z" clip-path="url(#a)" fill="#fff" stroke="#fff"/>
<g clip-path="url(#a)">
<defs>
<path id="m" d="m64.406 67.281v-10.391q-4.9844 4.6406-10.625 6.9219-5.6406 2.2969-11.984 2.2969-12.5 0-19.141-7.6406t-6.6406-22.094q0-14.406 6.6406-22.047t19.141-7.6406q6.3438 0 11.984 2.2969t10.625 6.9375v-10.312q-5.1719-3.5156-10.969-5.2812-5.7812-1.75-12.219-1.75-16.562 0-26.094 10.125-9.5156 10.141-9.5156 27.672 0 17.578 9.5156 27.703 9.5312 10.141 26.094 10.141 6.5312 0 12.312-1.7344 5.7969-1.7344 10.875-5.2031z"/>
</defs>
<g transform="translate(218.13 226.19) rotate(-61.421) scale(.08 -.08)">
<use xlink:href="#m"/>
</g>
</g>
<path d="m346.57 194.76 4.7795 1.6461q2.2692 0.78151 3.0507-1.4877l2.5212-7.3205q0.78151-2.2692-1.4877-3.0507l-4.7795-1.6461q-2.2692-0.78151-3.0507 1.4877l-2.5212 7.3205q-0.78151 2.2692 1.4877 3.0507z" clip-path="url(#a)" fill="#fff" stroke="#fff"/>
<g clip-path="url(#a)">
<defs>
<path id="t" d="m9.8125 72.906h46.094v-8.3125h-36.234v-21.578h34.719v-8.2969h-34.719v-26.422h37.109v-8.2969h-46.969z"/>
</defs>
<g transform="translate(347.89 190.92) rotate(19.004) scale(.08 -.08)">
<use xlink:href="#t"/>
</g>
</g>
<path d="m125.48 304.59v35.285q0 2.4 2.4 2.4h7.7425q2.4 0 2.4-2.4v-35.285q0-2.4-2.4-2.4h-7.7425q-2.4 0-2.4 2.4z" clip-path="url(#a)" fill="#fff" stroke="#fff"/>
<g clip-path="url(#a)">
<g transform="translate(129.54 304.59) rotate(90) scale(.08 -.08)">
<use xlink:href="#j"/>
<use x="60.818359" xlink:href="#g"/>
<use x="122.341797" xlink:href="#f"/>
<use x="163.439453" xlink:href="#i"/>
<use x="260.851562" xlink:href="#l"/>
<use x="288.634766" xlink:href="#k"/>
<use x="352.013672" xlink:href="#d"/>
<use x="413.292969" xlink:href="#h"/>
</g>
</g>
<path d="m175.02 304.59v35.285q0 2.4 2.4 2.4h7.7425q2.4 0 2.4-2.4v-35.285q0-2.4-2.4-2.4h-7.7425q-2.4 0-2.4 2.4z" clip-path="url(#a)" fill="#fff" stroke="#fff"/>
<g clip-path="url(#a)">
<g transform="translate(179.08 304.59) rotate(90) scale(.08 -.08)">
<use xlink:href="#j"/>
<use x="60.818359" xlink:href="#g"/>
<use x="122.341797" xlink:href="#f"/>
<use x="163.439453" xlink:href="#i"/>
<use x="260.851562" xlink:href="#l"/>
<use x="288.634766" xlink:href="#k"/>
<use x="352.013672" xlink:href="#d"/>
<use x="413.292969" xlink:href="#h"/>
</g>
</g>
<path d="m338.69 262.98 5.3187-1.616q2.2963-0.69773 1.5986-2.9941l-2.2509-7.4081q-0.69773-2.2963-2.9941-1.5986l-5.3187 1.616q-2.2963 0.69773-1.5986 2.9941l2.2509 7.4081q0.69773 2.2963 2.9941 1.5986z" clip-path="url(#a)" fill="#fff" stroke="#fff"/>
<g clip-path="url(#a)">
<defs>
<path id="ac" d="m44.391 34.188q3.1719-1.0781 6.1719-4.5938t6.0312-9.6719l10.016-19.922h-10.609l-9.3125 18.703q-3.625 7.3281-7.0156 9.7188t-9.25 2.3906h-10.75v-30.812h-9.8594v72.906h22.266q12.5 0 18.656-5.2344 6.1562-5.2188 6.1562-15.766 0-6.8906-3.2031-11.438-3.2031-4.5312-9.2969-6.2812zm-24.719 30.609v-25.875h12.406q7.125 0 10.766 3.2969t3.6406 9.6875-3.6406 9.6406-10.766 3.25z"/>
</defs>
<g transform="translate(337.51 259.09) rotate(-16.901) scale(.08 -.08)">
<use xlink:href="#ac"/>
</g>
</g>
<path d="m364 263.03 5.1983-2.0455q2.2333-0.87882 1.3545-3.1121l-2.8351-7.2048q-0.87882-2.2333-3.1121-1.3545l-5.1983 2.0455q-2.2333 0.87882-1.3545 3.1121l2.8351 7.2048q0.87882 2.2333 3.1121 1.3545z" clip-path="url(#a)" fill="#fff" stroke="#fff"/>
<g clip-path="url(#a)">
<g transform="translate(362.51 259.25) rotate(-21.48) scale(.08 -.08)">
<use xlink:href="#m"/>
</g>
</g>
<path d="m416.16 262.63 4.0296-3.869q1.7312-1.6622 0.068994-3.3934l-5.3624-5.5849q-1.6622-1.7312-3.3934-0.068994l-4.0296 3.869q-1.7312 1.6622-0.068994 3.3934l5.3624 5.5849q1.6622 1.7312 3.3934 0.068993z" clip-path="url(#a)" fill="#fff" stroke="#fff"/>
<g clip-path="url(#a)">
<g transform="translate(413.35 259.7) rotate(-43.835) scale(.08 -.08)">
<use xlink:href="#m"/>
</g>
</g>
<path d="m469.15 258.04 3.5759 4.2917q1.5363 1.8438 3.3802 0.30754l5.9483-4.9562q1.8438-1.5363 0.30754-3.3802l-3.5759-4.2917q-1.5363-1.8438-3.3802-0.30754l-5.9483 4.9562q-1.8438 1.5363-0.30754 3.3802z" clip-path="url(#a)" fill="#fff" stroke="#fff"/>
<g clip-path="url(#a)">
<g transform="translate(472.27 255.44) rotate(50.199) scale(.08 -.08)">
<use xlink:href="#m"/>
</g>
</g>
<path d="m507.39 260.4 5.3301 2.7222q2.1374 1.0916 3.229-1.0458l3.5215-6.8953q1.0916-2.1374-1.0458-3.229l-5.3301-2.7222q-2.1374-1.0916-3.229 1.0458l-3.5215 6.8953q-1.0916 2.1374 1.0458 3.229z" clip-path="url(#a)" fill="#fff" stroke="#fff"/>
<g clip-path="url(#a)">
<defs>
<path id="ad" d="m9.8125 72.906h13.281l32.328-60.984v60.984h9.5625v-72.906h-13.281l-32.312 60.984v-60.984h-9.5781z"/>
</defs>
<g transform="translate(509.24 256.78) rotate(27.054) scale(.08 -.08)">
<use xlink:href="#ad"/>
</g>
</g>
<path d="m532.88 261.09 5.2403 1.9352q2.2514 0.83141 3.0828-1.42l2.6822-7.2631q0.83141-2.2514-1.42-3.0828l-5.2403-1.9352q-2.2514-0.83141-3.0828 1.42l-2.6822 7.2631q-0.83141 2.2514 1.42 3.0828z" clip-path="url(#a)" fill="#fff" stroke="#fff"/>
<g clip-path="url(#a)">
<g transform="translate(534.29 257.27) rotate(20.269) scale(.08 -.08)">
<use xlink:href="#m"/>
</g>
</g>
<path d="m389.57 263.07 5.1124-2.8539q2.0956-1.1698 0.92578-3.2654l-3.7739-6.7605q-1.1698-2.0956-3.2654-0.92578l-5.1124 2.8539q-2.0956 1.1698-0.92578 3.2654l3.7739 6.7605q1.1698 2.0956 3.2654 0.92578z" clip-path="url(#a)" fill="#fff" stroke="#fff"/>
<g clip-path="url(#a)">
<defs>
<path id="o" d="m8.6875 72.906h9.9219v-44.297q0-11.719 4.2344-16.875 4.25-5.1406 13.781-5.1406 9.4688 0 13.719 5.1406 4.25 5.1562 4.25 16.875v44.297h9.9062v-45.516q0-14.25-7.0625-21.531-7.0469-7.2812-20.812-7.2812-13.828 0-20.891 7.2812-7.0469 7.2812-7.0469 21.531z"/>
</defs>
<g transform="translate(387.59 259.53) rotate(-29.171) scale(.08 -.08)">
<use xlink:href="#o"/>
</g>
</g>
<path d="m443.8 260.74 1.6392-5.6209q0.6719-2.304-1.6321-2.9759l-7.4329-2.1676q-2.304-0.6719-2.9759 1.6321l-1.6392 5.6209q-0.6719 2.304 1.6321 2.9759l7.4329 2.1676q2.304 0.6719 2.9759-1.6321z" clip-path="url(#a)" fill="#fff" stroke="#fff"/>
<g clip-path="url(#a)">
<g transform="translate(439.9 259.6) rotate(-73.742) scale(.08 -.08)">
<use xlink:href="#o"/>
</g>
</g>
<path d="m557.89 261.38 5.6245 1.6266q2.3055 0.66676 2.9723-1.6388l2.151-7.4377q0.66676-2.3055-1.6388-2.9723l-5.6245-1.6266q-2.3055-0.66676-2.9723 1.6388l-2.151 7.4377q-0.66676 2.3055 1.6388 2.9723z" clip-path="url(#a)" fill="#fff" stroke="#fff"/>
<g clip-path="url(#a)">
<g transform="translate(559.02 257.48) rotate(16.13) scale(.08 -.08)">
<use xlink:href="#o"/>
</g>
</g>
<path d="m224.55 304.59v35.285q0 2.4 2.4 2.4h7.7425q2.4 0 2.4-2.4v-35.285q0-2.4-2.4-2.4h-7.7425q-2.4 0-2.4 2.4z" clip-path="url(#a)" fill="#fff" stroke="#fff"/>
<g clip-path="url(#a)">
<g transform="translate(228.62 304.59) rotate(90) scale(.08 -.08)">
<use xlink:href="#j"/>
<use x="60.818359" xlink:href="#g"/>
<use x="122.341797" xlink:href="#f"/>
<use x="163.439453" xlink:href="#i"/>
<use x="260.851562" xlink:href="#l"/>
<use x="288.634766" xlink:href="#k"/>
<use x="352.013672" xlink:href="#d"/>
<use x="413.292969" xlink:href="#h"/>
</g>
</g>
<path d="m274.09 304.59v35.285q0 2.4 2.4 2.4h7.7425q2.4 0 2.4-2.4v-35.285q0-2.4-2.4-2.4h-7.7425q-2.4 0-2.4 2.4z" clip-path="url(#a)" fill="#fff" stroke="#fff"/>
<g clip-path="url(#a)">
<g transform="translate(278.15 304.59) rotate(90) scale(.08 -.08)">
<use xlink:href="#j"/>
<use x="60.818359" xlink:href="#g"/>
<use x="122.341797" xlink:href="#f"/>
<use x="163.439453" xlink:href="#i"/>
<use x="260.851562" xlink:href="#l"/>
<use x="288.634766" xlink:href="#k"/>
<use x="352.013672" xlink:href="#d"/>
<use x="413.292969" xlink:href="#h"/>
</g>
</g>
<path d="m373.16 304.59v35.285q0 2.4 2.4 2.4h7.7425q2.4 0 2.4-2.4v-35.285q0-2.4-2.4-2.4h-7.7425q-2.4 0-2.4 2.4z" clip-path="url(#a)" fill="#fff" stroke="#fff"/>
<g clip-path="url(#a)">
<g transform="translate(377.23 304.59) rotate(90) scale(.08 -.08)">
<use xlink:href="#j"/>
<use x="60.818359" xlink:href="#g"/>
<use x="122.341797" xlink:href="#f"/>
<use x="163.439453" xlink:href="#i"/>
<use x="260.851562" xlink:href="#l"/>
<use x="288.634766" xlink:href="#k"/>
<use x="352.013672" xlink:href="#d"/>
<use x="413.292969" xlink:href="#h"/>
</g>
</g>
<path d="m490.57 340.95 12.388-33.039q0.84258-2.2472-1.4046-3.0898l-7.2497-2.7182q-2.2472-0.84258-3.0898 1.4046l-12.388 33.039q-0.84258 2.2472 1.4046 3.0898l7.2497 2.7182q2.2472 0.84258 3.0898-1.4046z" clip-path="url(#a)" fill="#fff" stroke="#fff"/>
<g clip-path="url(#a)">
<g transform="translate(486.77 339.53) rotate(-69.447) scale(.08 -.08)">
<use xlink:href="#j"/>
<use x="60.818359" xlink:href="#g"/>
<use x="122.341797" xlink:href="#f"/>
<use x="163.439453" xlink:href="#i"/>
<use x="260.851562" xlink:href="#l"/>
<use x="288.634766" xlink:href="#k"/>
<use x="352.013672" xlink:href="#d"/>
<use x="413.292969" xlink:href="#h"/>
</g>
</g>
<path d="m503.6 307.91 12.388 33.039q0.84258 2.2472 3.0898 1.4046l7.2497-2.7182q2.2472-0.84258 1.4046-3.0898l-12.388-33.039q-0.84258-2.2472-3.0898-1.4046l-7.2497 2.7182q-2.2472 0.84258-1.4046 3.0898z" clip-path="url(#a)" fill="#fff" stroke="#fff"/>
<g clip-path="url(#a)">
<g transform="translate(507.4 306.49) rotate(69.447) scale(.08 -.08)">
<use xlink:href="#j"/>
<use x="60.818359" xlink:href="#g"/>
<use x="122.341797" xlink:href="#f"/>
<use x="163.439453" xlink:href="#i"/>
<use x="260.851562" xlink:href="#l"/>
<use x="288.634766" xlink:href="#k"/>
<use x="352.013672" xlink:href="#d"/>
<use x="413.292969" xlink:href="#h"/>
</g>
</g>
<path d="m571.31 304.59v35.285q0 2.4 2.4 2.4h7.7425q2.4 0 2.4-2.4v-35.285q0-2.4-2.4-2.4h-7.7425q-2.4 0-2.4 2.4z" clip-path="url(#a)" fill="#fff" stroke="#fff"/>
<g clip-path="url(#a)">
<g transform="translate(575.37 304.59) rotate(90) scale(.08 -.08)">
<use xlink:href="#j"/>
<use x="60.818359" xlink:href="#g"/>
<use x="122.341797" xlink:href="#f"/>
<use x="163.439453" xlink:href="#i"/>
<use x="260.851562" xlink:href="#l"/>
<use x="288.634766" xlink:href="#k"/>
<use x="352.013672" xlink:href="#d"/>
<use x="413.292969" xlink:href="#h"/>
</g>
</g>
<path d="m620.85 304.59v35.285q0 2.4 2.4 2.4h7.7425q2.4 0 2.4-2.4v-35.285q0-2.4-2.4-2.4h-7.7425q-2.4 0-2.4 2.4z" clip-path="url(#a)" fill="#fff" stroke="#fff"/>
<g clip-path="url(#a)">
<g transform="translate(624.91 304.59) rotate(90) scale(.08 -.08)">
<use xlink:href="#j"/>
<use x="60.818359" xlink:href="#g"/>
<use x="122.341797" xlink:href="#f"/>
<use x="163.439453" xlink:href="#i"/>
<use x="260.851562" xlink:href="#l"/>
<use x="288.634766" xlink:href="#k"/>
<use x="352.013672" xlink:href="#d"/>
<use x="413.292969" xlink:href="#h"/>
</g>
</g>
<path d="m323.63 304.59v35.285q0 2.4 2.4 2.4h7.7425q2.4 0 2.4-2.4v-35.285q0-2.4-2.4-2.4h-7.7425q-2.4 0-2.4 2.4z" clip-path="url(#a)" fill="#fff" stroke="#fff"/>
<g clip-path="url(#a)">
<g transform="translate(327.69 304.59) rotate(90) scale(.08 -.08)">
<use xlink:href="#j"/>
<use x="60.818359" xlink:href="#g"/>
<use x="122.341797" xlink:href="#f"/>
<use x="163.439453" xlink:href="#i"/>
<use x="260.851562" xlink:href="#l"/>
<use x="288.634766" xlink:href="#k"/>
<use x="352.013672" xlink:href="#d"/>
<use x="413.292969" xlink:href="#h"/>
</g>
</g>
<path d="m422.7 304.59v35.285q0 2.4 2.4 2.4h7.7425q2.4 0 2.4-2.4v-35.285q0-2.4-2.4-2.4h-7.7425q-2.4 0-2.4 2.4z" clip-path="url(#a)" fill="#fff" stroke="#fff"/>
<g clip-path="url(#a)">
<g transform="translate(426.76 304.59) rotate(90) scale(.08 -.08)">
<use xlink:href="#j"/>
<use x="60.818359" xlink:href="#g"/>
<use x="122.341797" xlink:href="#f"/>
<use x="163.439453" xlink:href="#i"/>
<use x="260.851562" xlink:href="#l"/>
<use x="288.634766" xlink:href="#k"/>
<use x="352.013672" xlink:href="#d"/>
<use x="413.292969" xlink:href="#h"/>
</g>
</g>
<path d="m670.38 304.59v35.285q0 2.4 2.4 2.4h7.7425q2.4 0 2.4-2.4v-35.285q0-2.4-2.4-2.4h-7.7425q-2.4 0-2.4 2.4z" clip-path="url(#a)" fill="#fff" stroke="#fff"/>
<g clip-path="url(#a)">
<g transform="translate(674.45 304.59) rotate(90) scale(.08 -.08)">
<use xlink:href="#j"/>
<use x="60.818359" xlink:href="#g"/>
<use x="122.341797" xlink:href="#f"/>
<use x="163.439453" xlink:href="#i"/>
<use x="260.851562" xlink:href="#l"/>
<use x="288.634766" xlink:href="#k"/>
<use x="352.013672" xlink:href="#d"/>
<use x="413.292969" xlink:href="#h"/>
</g>
</g>
<defs>
<path id="b" d="m0 8.6603c2.2967 0 4.4997-0.9125 6.1237-2.5365 1.624-1.624 2.5365-3.827 2.5365-6.1237s-0.9125-4.4997-2.5365-6.1237c-1.624-1.624-3.827-2.5365-6.1237-2.5365s-4.4997 0.9125-6.1237 2.5365c-1.624 1.624-2.5365 3.827-2.5365 6.1237s0.9125 4.4997 2.5365 6.1237c1.624 1.624 3.827 2.5365 6.1237 2.5365z"/>
</defs>
<g clip-path="url(#a)">
<use x="32.677876" y="355.260323" fill="#ffffff" stroke="#ffffff" xlink:href="#b"/>
</g>
<g clip-path="url(#a)">
<use x="82.214613" y="355.260323" fill="#ffffff" stroke="#ffffff" xlink:href="#b"/>
</g>
<g clip-path="url(#a)">
<use x="131.75135" y="355.260323" fill="#ffffff" stroke="#ffffff" xlink:href="#b"/>
</g>
<g clip-path="url(#a)">
<use x="181.288087" y="355.260323" fill="#ffffff" stroke="#ffffff" xlink:href="#b"/>
</g>
<g clip-path="url(#a)">
<use x="230.824824" y="355.260323" fill="#ffffff" stroke="#ffffff" xlink:href="#b"/>
</g>
<g clip-path="url(#a)">
<use x="280.361561" y="355.260323" fill="#ffffff" stroke="#ffffff" xlink:href="#b"/>
</g>
<g clip-path="url(#a)">
<use x="329.898298" y="355.260323" fill="#ffffff" stroke="#ffffff" xlink:href="#b"/>
</g>
<g clip-path="url(#a)">
<use x="379.435035" y="355.260323" fill="#ffffff" stroke="#ffffff" xlink:href="#b"/>
</g>
<g clip-path="url(#a)">
<use x="428.971772" y="355.260323" fill="#ffffff" stroke="#ffffff" xlink:href="#b"/>
</g>
<g clip-path="url(#a)">
<use x="478.508509" y="355.260323" fill="#ffffff" stroke="#ffffff" xlink:href="#b"/>
</g>
<g clip-path="url(#a)">
<use x="528.045246" y="355.260323" fill="#ffffff" stroke="#ffffff" xlink:href="#b"/>
</g>
<g clip-path="url(#a)">
<use x="577.581983" y="355.260323" fill="#ffffff" stroke="#ffffff" xlink:href="#b"/>
</g>
<g clip-path="url(#a)">
<use x="627.11872" y="355.260323" fill="#ffffff" stroke="#ffffff" xlink:href="#b"/>
</g>
<g clip-path="url(#a)">
<use x="676.655457" y="355.260323" fill="#ffffff" stroke="#ffffff" xlink:href="#b"/>
</g>
<g clip-path="url(#a)">
<use x="122.883663" y="18.073011" fill="#ffffff" stroke="#ffffff" xlink:href="#b"/>
</g>
<g clip-path="url(#a)">
<use x="122.883663" y="87.89628" fill="#ffffff" stroke="#ffffff" xlink:href="#b"/>
</g>
<g clip-path="url(#a)">
<use x="32.677876" y="289.201218" fill="#ffffff" stroke="#ffffff" xlink:href="#b"/>
</g>
<g clip-path="url(#a)">
<use x="82.214613" y="289.201218" fill="#ffffff" stroke="#ffffff" xlink:href="#b"/>
</g>
<g clip-path="url(#a)">
<use x="253.758499" y="156.164053" fill="#ffffff" stroke="#ffffff" xlink:href="#b"/>
</g>
<g clip-path="url(#a)">
<use x="131.75135" y="289.201218" fill="#ffffff" stroke="#ffffff" xlink:href="#b"/>
</g>
<g clip-path="url(#a)">
<use x="181.288087" y="289.201218" fill="#ffffff" stroke="#ffffff" xlink:href="#b"/>
</g>
<g clip-path="url(#a)">
<use x="448.236059" y="223.142113" fill="#ffffff" stroke="#ffffff" xlink:href="#b"/>
</g>
<g clip-path="url(#a)">
<use x="230.824824" y="289.201218" fill="#ffffff" stroke="#ffffff" xlink:href="#b"/>
</g>
<g clip-path="url(#a)">
<use x="280.361561" y="289.201218" fill="#ffffff" stroke="#ffffff" xlink:href="#b"/>
</g>
<g clip-path="url(#a)">
<use x="379.435035" y="289.201218" fill="#ffffff" stroke="#ffffff" xlink:href="#b"/>
</g>
<g clip-path="url(#a)">
<use x="503.276878" y="289.201218" fill="#ffffff" stroke="#ffffff" xlink:href="#b"/>
</g>
<g clip-path="url(#a)">
<use x="577.581983" y="289.201218" fill="#ffffff" stroke="#ffffff" xlink:href="#b"/>
</g>
<g clip-path="url(#a)">
<use x="627.11872" y="289.201218" fill="#ffffff" stroke="#ffffff" xlink:href="#b"/>
</g>
<g clip-path="url(#a)">
<use x="329.898298" y="289.201218" fill="#ffffff" stroke="#ffffff" xlink:href="#b"/>
</g>
<g clip-path="url(#a)">
<use x="428.971772" y="289.201218" fill="#ffffff" stroke="#ffffff" xlink:href="#b"/>
</g>
<g clip-path="url(#a)">
<use x="676.655457" y="289.201218" fill="#ffffff" stroke="#ffffff" xlink:href="#b"/>
</g>
<g clip-path="url(#a)">
<defs>
<path id="s" d="m9.8125 72.906h9.8594v-72.906h-9.8594z"/>
</defs>
<g transform="translate(31.203 358.02) scale(.1 -.1)">
<use xlink:href="#s"/>
</g>
</g>
<g clip-path="url(#a)">
<defs>
<path id="ar" d="m54.891 33.016v-33.016h-8.9844v32.719q0 7.7656-3.0312 11.609-3.0312 3.8594-9.0781 3.8594-7.2812 0-11.484-4.6406-4.2031-4.625-4.2031-12.641v-30.906h-9.0312v75.984h9.0312v-29.797q3.2344 4.9375 7.5938 7.375 4.375 2.4375 10.094 2.4375 9.4219 0 14.25-5.8281 4.8438-5.8281 4.8438-17.156z"/>
<path id="at" d="m45.406 46.391v29.594h8.9844v-75.984h-8.9844v8.2031q-2.8281-4.875-7.1562-7.25-4.3125-2.375-10.375-2.375-9.9062 0-16.141 7.9062-6.2188 7.9219-6.2188 20.812t6.2188 20.797q6.2344 7.9062 16.141 7.9062 6.0625 0 10.375-2.375 4.3281-2.3594 7.1562-7.2344zm-30.609-19.094q0-9.9062 4.0781-15.547t11.203-5.6406 11.219 5.6406q4.1094 5.6406 4.1094 15.547t-4.1094 15.547q-4.0938 5.6406-11.219 5.6406t-11.203-5.6406-4.0781-15.547z"/>
</defs>
<g transform="translate(72.808 358.02) scale(.1 -.1)">
<use xlink:href="#ar"/>
<use x="63.378906" xlink:href="#d"/>
<use x="124.658203" xlink:href="#at"/>
</g>
</g>
<g clip-path="url(#a)">
<g transform="translate(128.69 358.02) scale(.1 -.1)">
<use xlink:href="#d"/>
</g>
</g>
<g clip-path="url(#a)">
<defs>
<path id="ap" d="m44.281 53.078v-8.5q-3.7969 1.9531-7.9062 2.9219-4.0938 0.98438-8.5 0.98438-6.6875 0-10.031-2.0469t-3.3438-6.1562q0-3.125 2.3906-4.9062t9.625-3.3906l3.0781-0.6875q9.5625-2.0469 13.594-5.7812t4.0312-10.422q0-7.625-6.0312-12.078-6.0312-4.4375-16.578-4.4375-4.3906 0-9.1562 0.85938t-10.031 2.5625v9.2812q4.9844-2.5938 9.8125-3.8906 4.8281-1.2812 9.5781-1.2812 6.3438 0 9.75 2.1719 3.4219 2.1719 3.4219 6.125 0 3.6562-2.4688 5.6094-2.4531 1.9531-10.812 3.7656l-3.125 0.73438q-8.3438 1.75-12.062 5.3906-3.7031 3.6406-3.7031 9.9844 0 7.7188 5.4688 11.906 5.4688 4.2031 15.531 4.2031 4.9688 0 9.3594-0.73438 4.4062-0.71875 8.1094-2.1875z"/>
<path id="aq" d="m18.109 8.2031v-29h-9.0312v75.484h9.0312v-8.2969q2.8438 4.875 7.1562 7.2344 4.3281 2.375 10.328 2.375 9.9688 0 16.188-7.9062 6.2344-7.9062 6.2344-20.797t-6.2344-20.812q-6.2188-7.9062-16.188-7.9062-6 0-10.328 2.375-4.3125 2.375-7.1562 7.25zm30.578 19.094q0 9.9062-4.0781 15.547t-11.203 5.6406q-7.1406 0-11.219-5.6406t-4.0781-15.547 4.0781-15.547 11.219-5.6406q7.125 0 11.203 5.6406t4.0781 15.547z"/>
</defs>
<g transform="translate(161.05 358.02) scale(.1 -.1)">
<use xlink:href="#ap"/>
<use x="52.099609" xlink:href="#d"/>
<use x="113.378906" xlink:href="#i"/>
<use x="210.791016" xlink:href="#aq"/>
<use x="274.267578" xlink:href="#h"/>
<use x="302.050781" xlink:href="#g"/>
<use x="363.574219" xlink:href="#f"/>
</g>
</g>
<g clip-path="url(#a)">
<defs>
<path id="p" d="m30.609 48.391q-7.2188 0-11.422-5.6406t-4.2031-15.453 4.1719-15.453q4.1875-5.6406 11.453-5.6406 7.1875 0 11.375 5.6562 4.2031 5.6719 4.2031 15.438 0 9.7188-4.2031 15.406-4.1875 5.6875-11.375 5.6875zm0 7.6094q11.719 0 18.406-7.625 6.7031-7.6094 6.7031-21.078 0-13.422-6.7031-21.078-6.6875-7.6406-18.406-7.6406-11.766 0-18.438 7.6406-6.6562 7.6562-6.6562 21.078 0 13.469 6.6562 21.078 6.6719 7.625 18.438 7.625z"/>
<path id="as" d="m37.109 75.984v-7.4844h-8.5938q-4.8281 0-6.7188-1.9531-1.875-1.9531-1.875-7.0312v-4.8281h14.797v-6.9844h-14.797v-47.703h-9.0312v47.703h-8.5938v6.9844h8.5938v3.8125q0 9.125 4.25 13.297 4.25 4.1875 13.469 4.1875z"/>
</defs>
<g transform="translate(226.01 358.02) scale(.1 -.1)">
<use xlink:href="#p"/>
<use x="61.181641" xlink:href="#as"/>
</g>
</g>
<g clip-path="url(#a)">
<g transform="translate(272.46 358.02) scale(.1 -.1)">
<use xlink:href="#s"/>
<use x="29.492188" xlink:href="#r"/>
<use x="89.701172" xlink:href="#n"/>
</g>
</g>
<g clip-path="url(#a)">
<defs>
<path id="aa" d="m11.719 12.406h10.297v-8.4062l-8-15.625h-6.2969l4 15.625z"/>
</defs>
<g transform="translate(328.31 358.02) scale(.1 -.1)">
<use xlink:href="#aa"/>
</g>
</g>
<g clip-path="url(#a)">
<defs>
<path id="ah" d="m19.672 34.812v-26.703h15.828q7.9531 0 11.781 3.2969 3.8438 3.2969 3.8438 10.078 0 6.8438-3.8438 10.078-3.8281 3.25-11.781 3.25zm0 29.984v-21.969h14.609q7.2188 0 10.75 2.7031 3.5469 2.7188 3.5469 8.2812 0 5.5156-3.5469 8.25-3.5312 2.7344-10.75 2.7344zm-9.8594 8.1094h25.203q11.281 0 17.375-4.6875 6.1094-4.6875 6.1094-13.328 0-6.7031-3.125-10.656t-9.1875-4.9219q7.2812-1.5625 11.312-6.5312 4.0312-4.9531 4.0312-12.375 0-9.7656-6.6406-15.094-6.6406-5.3125-18.906-5.3125h-26.172z"/>
<path id="am" d="m4.2031 54.688h8.9844l11.234-42.672 11.172 42.672h10.594l11.234-42.672 11.188 42.672h8.9844l-14.312-54.688h-10.594l-11.766 44.828-11.812-44.828h-10.609z"/>
</defs>
<g transform="translate(360.27 358.02) scale(.1 -.1)">
<use xlink:href="#ah"/>
<use x="68.603516" xlink:href="#f"/>
<use x="109.716797" xlink:href="#d"/>
<use x="170.996094" xlink:href="#am"/>
<use x="252.783203" xlink:href="#h"/>
<use x="280.566406" xlink:href="#g"/>
<use x="342.089844" xlink:href="#f"/>
</g>
</g>
<g clip-path="url(#a)">
<g transform="translate(427.38 358.02) scale(.1 -.1)">
<use xlink:href="#aa"/>
</g>
</g>
<g clip-path="url(#a)">
<defs>
<path id="ae" d="m9.8125 72.906h9.8594v-64.609h35.5v-8.2969h-45.359z"/>
<path id="an" d="m2.9844 54.688h9.5156l17.094-45.891 17.094 45.891h9.5156l-20.516-54.688h-12.203z"/>
</defs>
<g transform="translate(466.63 358.02) scale(.1 -.1)">
<use xlink:href="#ae"/>
<use x="55.697266" xlink:href="#p"/>
<use x="116.878906" xlink:href="#an"/>
<use x="176.058594" xlink:href="#g"/>
</g>
</g>
<g clip-path="url(#a)">
<defs>
<path id="q" d="m53.516 70.516v-9.625q-5.6094 2.6875-10.594 4-4.9844 1.3281-9.625 1.3281-8.0469 0-12.422-3.125t-4.375-8.8906q0-4.8438 2.9062-7.3125 2.9062-2.4531 11.016-3.9688l5.9531-1.2188q11.031-2.1094 16.281-7.4062t5.25-14.172q0-10.609-7.1094-16.078-7.0938-5.4688-20.812-5.4688-5.1719 0-11.016 1.1719-5.8281 1.1719-12.078 3.4688v10.156q6-3.3594 11.766-5.0781 5.7656-1.7031 11.328-1.7031 8.4375 0 13.031 3.3125 4.5938 3.3281 4.5938 9.4844 0 5.3594-3.2969 8.3906t-10.812 4.5469l-6.0156 1.1719q-11.031 2.1875-15.969 6.875-4.9219 4.6875-4.9219 13.047 0 9.6719 6.8125 15.234t18.766 5.5625q5.1406 0 10.453-0.9375 5.3281-0.92188 10.891-2.7656z"/>
<path id="ab" d="m18.312 70.219v-15.531h18.5v-6.9844h-18.5v-29.688q0-6.6875 1.8281-8.5938t7.4531-1.9062h9.2188v-7.5156h-9.2188q-10.406 0-14.359 3.875-3.9531 3.8906-3.9531 14.141v29.688h-6.5938v6.9844h6.5938v15.531z"/>
<path id="ao" d="m8.5 21.578v33.109h8.9844v-32.766q0-7.7656 3.0156-11.656 3.0312-3.875 9.0938-3.875 7.2656 0 11.484 4.6406 4.2344 4.6406 4.2344 12.656v31h8.9844v-54.688h-8.9844v8.4062q-3.2656-4.9844-7.5938-7.4062-4.3125-2.4219-10.031-2.4219-9.4219 0-14.312 5.8594-4.875 5.8594-4.875 17.141z"/>
</defs>
<g transform="translate(514.72 358.02) scale(.1 -.1)">
<use xlink:href="#q"/>
<use x="63.476562" xlink:href="#ab"/>
<use x="102.685547" xlink:href="#p"/>
<use x="163.867188" xlink:href="#ao"/>
<use x="227.246094" xlink:href="#ab"/>
</g>
</g>
<g clip-path="url(#a)">
<defs>
<path id="al" d="m24.312 39.203q-4.4375-3.9531-6.5156-7.8906-2.0781-3.9219-2.0781-8.2188 0-7.125 5.1719-11.859 5.1875-4.7344 13-4.7344 4.6406 0 8.6875 1.5312 4.0469 1.5469 7.625 4.6719zm6.8906 5.4688 24.797-25.391q2.8906 4.3594 4.5 9.3125t1.9062 10.516h9.0781q-0.57812-6.4375-3.125-12.75-2.5312-6.2969-7.0781-12.438l13.625-13.922h-12.312l-6.9844 7.1719q-5.0781-4.3438-10.641-6.4688t-11.953-2.125q-11.781 0-19.25 6.7188t-7.4688 17.219q0 6.25 3.2656 11.734 3.2812 5.5 9.8281 10.328-2.3438 3.0781-3.5781 6.125-1.2188 3.0625-1.2188 5.9844 0 7.9062 5.4219 12.719t14.406 4.8125q4.0625 0 8.0781-0.875 4.0312-0.875 8.1875-2.6406v-8.8906q-4.25 2.2969-8.1094 3.4844-3.8594 1.2031-7.1719 1.2031-5.125 0-8.3281-2.7188-3.2031-2.7031-3.2031-7 0-2.4844 1.4375-5 1.4531-2.5156 5.8906-7.1094z"/>
</defs>
<g transform="translate(573.68 358.02) scale(.1 -.1)">
<use xlink:href="#al"/>
</g>
</g>
<g clip-path="url(#a)">
<g transform="translate(617.36 358.02) scale(.1 -.1)">
<use xlink:href="#t"/>
<use x="63.183594" xlink:href="#q"/>
<use x="126.675781" xlink:href="#n"/>
</g>
</g>
<g clip-path="url(#a)">
<defs>
<path id="e" d="m10.688 12.406h10.312v-12.406h-10.312z"/>
</defs>
<g transform="translate(675.07 358.02) scale(.1 -.1)">
<use xlink:href="#e"/>
</g>
</g>
<g clip-path="url(#a)">
<defs>
<path id="c" d="m12.406 8.2969h16.109v55.625l-17.531-3.5156v8.9844l17.438 3.5156h9.8594v-64.609h16.109v-8.2969h-41.984z"/>
</defs>
<g transform="translate(114.93 20.832) scale(.1 -.1)">
<use xlink:href="#c"/>
<use x="63.623047" xlink:href="#e"/>
<use x="95.410156" xlink:href="#c"/>
</g>
</g>
<g clip-path="url(#a)">
<defs>
<path id="z" d="m19.188 8.2969h34.422v-8.2969h-46.281v8.2969q5.6094 5.8125 15.297 15.594 9.7031 9.7969 12.188 12.641 4.7344 5.3125 6.6094 9 1.8906 3.6875 1.8906 7.25 0 5.8125-4.0781 9.4688-4.0781 3.6719-10.625 3.6719-4.6406 0-9.7969-1.6094-5.1406-1.6094-11-4.8906v9.9688q5.9531 2.3906 11.125 3.6094 5.1875 1.2188 9.4844 1.2188 11.328 0 18.062-5.6719 6.7344-5.6562 6.7344-15.125 0-4.5-1.6875-8.5312-1.6719-4.0156-6.125-9.4844-1.2188-1.4219-7.7656-8.1875-6.5312-6.7656-18.453-18.922z"/>
</defs>
<g transform="translate(114.93 90.656) scale(.1 -.1)">
<use xlink:href="#c"/>
<use x="63.623047" xlink:href="#e"/>
<use x="95.410156" xlink:href="#z"/>
</g>
</g>
<g clip-path="url(#a)">
<defs>
<path id="y" d="m37.797 64.312-24.906-38.922h24.906zm-2.5938 8.5938h12.406v-47.516h10.406v-8.2031h-10.406v-17.188h-9.8125v17.188h-32.906v9.5156z"/>
</defs>
<g transform="translate(24.726 291.96) scale(.1 -.1)">
<use xlink:href="#c"/>
<use x="63.623047" xlink:href="#e"/>
<use x="95.410156" xlink:href="#y"/>
</g>
</g>
<g clip-path="url(#a)">
<defs>
<path id="x" d="m10.797 72.906h38.719v-8.3125h-29.688v-17.859q2.1406 0.73438 4.2812 1.0938 2.1562 0.35938 4.3125 0.35938 12.203 0 19.328-6.6875 7.1406-6.6875 7.1406-18.109 0-11.766-7.3281-18.297-7.3281-6.5156-20.656-6.5156-4.5938 0-9.3594 0.78125-4.75 0.78125-9.8281 2.3438v9.9219q4.3906-2.3906 9.0781-3.5625t9.9062-1.1719q8.4531 0 13.375 4.4375 4.9375 4.4375 4.9375 12.062 0 7.6094-4.9375 12.047-4.9219 4.4531-13.375 4.4531-3.9531 0-7.8906-0.875-3.9219-0.875-8.0156-2.7344z"/>
</defs>
<g transform="translate(74.263 291.96) scale(.1 -.1)">
<use xlink:href="#c"/>
<use x="63.623047" xlink:href="#e"/>
<use x="95.410156" xlink:href="#x"/>
</g>
</g>
<g clip-path="url(#a)">
<defs>
<path id="w" d="m33.016 40.375q-6.6406 0-10.531-4.5469-3.875-4.5312-3.875-12.438 0-7.8594 3.875-12.438 3.8906-4.5625 10.531-4.5625t10.516 4.5625q3.875 4.5781 3.875 12.438 0 7.9062-3.875 12.438-3.875 4.5469-10.516 4.5469zm19.578 30.922v-8.9844q-3.7188 1.75-7.5 2.6719-3.7812 0.9375-7.5 0.9375-9.7656 0-14.922-6.5938-5.1406-6.5938-5.875-19.922 2.875 4.25 7.2188 6.5156 4.3594 2.2656 9.5781 2.2656 10.984 0 17.359-6.6719 6.375-6.6562 6.375-18.125 0-11.234-6.6406-18.031-6.6406-6.7812-17.672-6.7812-12.656 0-19.344 9.6875-6.6875 9.7031-6.6875 28.109 0 17.281 8.2031 27.562t22.016 10.281q3.7188 0 7.5-0.73438t7.8906-2.1875z"/>
</defs>
<g transform="translate(245.81 158.92) scale(.1 -.1)">
<use xlink:href="#c"/>
<use x="63.623047" xlink:href="#e"/>
<use x="95.410156" xlink:href="#w"/>
</g>
</g>
<g clip-path="url(#a)">
<defs>
<path id="v" d="m8.2031 72.906h46.875v-4.2031l-26.469-68.703h-10.297l24.906 64.594h-35.016z"/>
</defs>
<g transform="translate(123.8 291.96) scale(.1 -.1)">
<use xlink:href="#c"/>
<use x="63.623047" xlink:href="#e"/>
<use x="95.410156" xlink:href="#v"/>
</g>
</g>
<g clip-path="url(#a)">
<defs>
<path id="u" d="m31.781 34.625q-7.0312 0-11.062-3.7656-4.0156-3.7656-4.0156-10.344 0-6.5938 4.0156-10.359 4.0312-3.7656 11.062-3.7656t11.078 3.7812q4.0625 3.7969 4.0625 10.344 0 6.5781-4.0312 10.344-4.0156 3.7656-11.109 3.7656zm-9.8594 4.1875q-6.3438 1.5625-9.8906 5.9062-3.5312 4.3594-3.5312 10.609 0 8.7344 6.2188 13.812 6.2344 5.0781 17.062 5.0781 10.891 0 17.094-5.0781t6.2031-13.812q0-6.25-3.5469-10.609-3.5312-4.3438-9.8281-5.9062 7.125-1.6562 11.094-6.5 3.9844-4.8281 3.9844-11.797 0-10.609-6.4688-16.281-6.4688-5.6562-18.531-5.6562-12.047 0-18.531 5.6562-6.4688 5.6719-6.4688 16.281 0 6.9688 4 11.797 4.0156 4.8438 11.141 6.5zm-3.6094 15.578q0-5.6562 3.5312-8.8281 3.5469-3.1719 9.9375-3.1719 6.3594 0 9.9375 3.1719 3.5938 3.1719 3.5938 8.8281 0 5.6719-3.5938 8.8438-3.5781 3.1719-9.9375 3.1719-6.3906 0-9.9375-3.1719-3.5312-3.1719-3.5312-8.8438z"/>
</defs>
<g transform="translate(173.34 291.96) scale(.1 -.1)">
<use xlink:href="#c"/>
<use x="63.623047" xlink:href="#e"/>
<use x="95.410156" xlink:href="#u"/>
</g>
</g>
<g clip-path="url(#a)">
<defs>
<path id="ai" d="m10.984 1.5156v8.9844q3.7188-1.7656 7.5156-2.6875 3.8125-0.92188 7.4844-0.92188 9.7656 0 14.906 6.5625 5.1562 6.5625 5.8906 19.953-2.8281-4.2031-7.1875-6.4531-4.3438-2.25-9.6094-2.25-10.938 0-17.312 6.6094-6.375 6.625-6.375 18.109 0 11.219 6.6406 18 6.6406 6.7969 17.672 6.7969 12.656 0 19.312-9.7031 6.6719-9.6875 6.6719-28.141 0-17.234-8.1875-27.516-8.1719-10.281-21.984-10.281-3.7188 0-7.5312 0.73438-3.7969 0.73438-7.9062 2.2031zm19.625 30.906q6.6406 0 10.516 4.5312 3.8906 4.5469 3.8906 12.469 0 7.8594-3.8906 12.422-3.875 4.5625-10.516 4.5625t-10.516-4.5625-3.875-12.422q0-7.9219 3.875-12.469 3.875-4.5312 10.516-4.5312z"/>
</defs>
<g transform="translate(440.28 225.9) scale(.1 -.1)">
<use xlink:href="#c"/>
<use x="63.623047" xlink:href="#e"/>
<use x="95.410156" xlink:href="#ai"/>
</g>
</g>
<g clip-path="url(#a)">
<defs>
<path id="ak" d="m31.781 66.406q-7.6094 0-11.453-7.5-3.8281-7.4844-3.8281-22.531 0-14.984 3.8281-22.484 3.8438-7.5 11.453-7.5 7.6719 0 11.5 7.5 3.8438 7.5 3.8438 22.484 0 15.047-3.8438 22.531-3.8281 7.5-11.5 7.5zm0 7.8125q12.266 0 18.734-9.7031 6.4688-9.6875 6.4688-28.141 0-18.406-6.4688-28.109-6.4688-9.6875-18.734-9.6875-12.25 0-18.719 9.6875-6.4688 9.7031-6.4688 28.109 0 18.453 6.4688 28.141 6.4688 9.7031 18.719 9.7031z"/>
</defs>
<g transform="translate(219.69 291.96) scale(.1 -.1)">
<use xlink:href="#c"/>
<use x="63.623047" xlink:href="#e"/>
<use x="95.410156" xlink:href="#c"/>
<use x="159.033203" xlink:href="#ak"/>
</g>
</g>
<g clip-path="url(#a)">
<g transform="translate(269.23 291.96) scale(.1 -.1)">
<use xlink:href="#c"/>
<use x="63.623047" xlink:href="#e"/>
<use x="95.410156" xlink:href="#c"/>
<use x="159.033203" xlink:href="#c"/>
</g>
</g>
<g clip-path="url(#a)">
<g transform="translate(368.3 291.96) scale(.1 -.1)">
<use xlink:href="#c"/>
<use x="63.623047" xlink:href="#e"/>
<use x="95.410156" xlink:href="#c"/>
<use x="159.033203" xlink:href="#z"/>
</g>
</g>
<g clip-path="url(#a)">
<defs>
<path id="aj" d="m40.578 39.312q7.0781-1.5156 11.047-6.3125 3.9844-4.7812 3.9844-11.812 0-10.781-7.4219-16.703-7.4219-5.9062-21.094-5.9062-4.5781 0-9.4375 0.90625t-10.031 2.7188v9.5156q4.0938-2.3906 8.9688-3.6094 4.8906-1.2188 10.219-1.2188 9.2656 0 14.125 3.6562t4.8594 10.641q0 6.4531-4.5156 10.078-4.5156 3.6406-12.562 3.6406h-8.5v8.1094h8.8906q7.2656 0 11.125 2.9062t3.8594 8.375q0 5.6094-3.9844 8.6094-3.9688 3.0156-11.391 3.0156-4.0625 0-8.7031-0.89062-4.6406-0.875-10.203-2.7188v8.7812q5.625 1.5625 10.531 2.3438t9.25 0.78125q11.234 0 17.766-5.1094 6.5469-5.0938 6.5469-13.781 0-6.0625-3.4688-10.234t-9.8594-5.7812z"/>
</defs>
<g transform="translate(492.14 291.96) scale(.1 -.1)">
<use xlink:href="#c"/>
<use x="63.623047" xlink:href="#e"/>
<use x="95.410156" xlink:href="#c"/>
<use x="159.033203" xlink:href="#aj"/>
</g>
</g>
<g clip-path="url(#a)">
<g transform="translate(566.45 291.96) scale(.1 -.1)">
<use xlink:href="#c"/>
<use x="63.623047" xlink:href="#e"/>
<use x="95.410156" xlink:href="#c"/>
<use x="159.033203" xlink:href="#y"/>
</g>
</g>
<g clip-path="url(#a)">
<g transform="translate(615.99 291.96) scale(.1 -.1)">
<use xlink:href="#c"/>
<use x="63.623047" xlink:href="#e"/>
<use x="95.410156" xlink:href="#c"/>
<use x="159.033203" xlink:href="#x"/>
</g>
</g>
<g clip-path="url(#a)">
<g transform="translate(318.77 291.96) scale(.1 -.1)">
<use xlink:href="#c"/>
<use x="63.623047" xlink:href="#e"/>
<use x="95.410156" xlink:href="#c"/>
<use x="159.033203" xlink:href="#w"/>
</g>
</g>
<g clip-path="url(#a)">
<g transform="translate(417.84 291.96) scale(.1 -.1)">
<use xlink:href="#c"/>
<use x="63.623047" xlink:href="#e"/>
<use x="95.410156" xlink:href="#c"/>
<use x="159.033203" xlink:href="#v"/>
</g>
</g>
<g clip-path="url(#a)">
<g transform="translate(665.52 291.96) scale(.1 -.1)">
<use xlink:href="#c"/>
<use x="63.623047" xlink:href="#e"/>
<use x="95.410156" xlink:href="#c"/>
<use x="159.033203" xlink:href="#u"/>
</g>
</g>
<defs>
<clipPath id="a">
<rect width="709.33" height="373.33"/>
</clipPath>
</defs>
</svg>
