<?xml version="1.0" encoding="UTF-8"?>
<!DOCTYPE svg  PUBLIC '-//W3C//DTD SVG 1.1//EN'  'http://www.w3.org/Graphics/SVG/1.1/DTD/svg11.dtd'>
<svg width="962.67pt" height="506.67pt" version="1.1" viewBox="0 0 962.67 506.67" xmlns="http://www.w3.org/2000/svg" xmlns:xlink="http://www.w3.org/1999/xlink">
<defs>
<style type="text/css">*{stroke-linecap:butt;stroke-linejoin:round;}</style>
</defs>
<path d="m0 506.67h962.67v-506.67h-962.67z" fill="#fff"/>
<g fill="none" stroke="#000">
<path d="m281.48 23.03-223.63 278.04" clip-path="url(#a)"/>
<path d="m281.48 23.03-109.31 92.943" clip-path="url(#a)"/>
<path d="m281.48 23.03 28.626 369.96" clip-path="url(#a)"/>
<path d="m281.48 23.03 304.31 278.04" clip-path="url(#a)"/>
<path d="m57.85 301.07-14.093 91.911" clip-path="url(#a)"/>
<path d="m57.85 301.07-1.4093 91.911" clip-path="url(#a)"/>
<path d="m57.85 301.07 15.502 91.911" clip-path="url(#a)"/>
<path d="m172.18 115.97-58.661 92.708" clip-path="url(#a)"/>
<path d="m172.18 115.97-22.724 277.01" clip-path="url(#a)"/>
<path d="m172.18 115.97 11.098 277.01" clip-path="url(#a)"/>
<path d="m172.18 115.97 70.287 185.1" clip-path="url(#a)"/>
<path d="m310.11 392.99v90.65" clip-path="url(#a)"/>
<path d="m585.79 301.07-224.95 91.911" clip-path="url(#a)"/>
<path d="m585.79 301.07-169.99 91.911" clip-path="url(#a)"/>
<path d="m585.79 301.07 61.831 91.911" clip-path="url(#a)"/>
<path d="m585.79 301.07 333.11 91.911" clip-path="url(#a)"/>
<path d="m360.84 392.99v90.65" clip-path="url(#a)"/>
<path d="m415.8 392.99v90.65" clip-path="url(#a)"/>
<path d="m647.63 392.99-172.63 90.65" clip-path="url(#a)"/>
<path d="m647.63 392.99-109.22 90.65" clip-path="url(#a)"/>
<path d="m647.63 392.99-41.573 90.65" clip-path="url(#a)"/>
<path d="m647.63 392.99 30.299 90.65" clip-path="url(#a)"/>
<path d="m647.63 392.99 106.4 90.65" clip-path="url(#a)"/>
<path d="m647.63 392.99 186.73 90.65" clip-path="url(#a)"/>
<path d="m113.52 208.68-6.3417 92.394" clip-path="url(#a)"/>
<path d="m113.52 208.68 6.3417 184.31" clip-path="url(#a)"/>
<path d="m149.45 392.99v90.65" clip-path="url(#a)"/>
<path d="m183.27 392.99v90.65" clip-path="url(#a)"/>
<path d="m242.46 301.07-21.139 91.911" clip-path="url(#a)"/>
<path d="m242.46 301.07 21.139 91.911" clip-path="url(#a)"/>
<path d="m221.32 392.99v90.65" clip-path="url(#a)"/>
<path d="m263.6 392.99v90.65" clip-path="url(#a)"/>
<path d="m107.17 301.07 12.683 91.911" clip-path="url(#a)" stroke-dasharray="3.7,1.6"/>
<path d="m107.17 301.07-12.683 91.911" clip-path="url(#a)"/>
<path d="m119.86 392.99v90.65" clip-path="url(#a)"/>
<path d="m94.491 392.99v90.65" clip-path="url(#a)"/>
<path d="m43.758 392.99v90.65" clip-path="url(#a)"/>
<path d="m56.441 392.99v90.65" clip-path="url(#a)"/>
<path d="m73.352 392.99v90.65" clip-path="url(#a)"/>
<path d="m918.91 392.99v90.65" clip-path="url(#a)"/>
</g>
<path d="m172.67 168.33 3.7706-4.688q1.5042-1.8702-0.36598-3.3743l-6.0332-4.8525q-1.8702-1.5042-3.3743 0.36598l-3.7706 4.688q-1.5042 1.8702 0.36598 3.3743l6.0332 4.8525q1.8702 1.5042 3.3743-0.36598z" clip-path="url(#a)" fill="#fff" stroke="#fff"/>
<g clip-path="url(#a)">
<defs>
<path id="t" d="m9.8125 72.906h9.8594v-29.891h35.844v29.891h9.8594v-72.906h-9.8594v34.719h-35.844v-34.719h-9.8594z"/>
</defs>
<g transform="translate(169.5 165.78) rotate(-51.19) scale(.08 -.08)">
<use xlink:href="#t"/>
</g>
</g>
<path d="m228.6 76.228 4.5833-3.8972q1.8284-1.5547 0.27371-3.3831l-5.0154-5.8984q-1.5547-1.8284-3.3831-0.27371l-4.5833 3.8972q-1.8284 1.5547-0.27371 3.3831l5.0154 5.8984q1.5547 1.8284 3.3831 0.27371z" clip-path="url(#a)" fill="#fff" stroke="#fff"/>
<g clip-path="url(#a)">
<g transform="translate(225.97 73.132) rotate(-40.374) scale(.08 -.08)">
<use xlink:href="#t"/>
</g>
</g>
<path d="m289.37 206.27 0.34388 4.4442q0.18515 2.3928 2.578 2.2077l7.7194-0.5973q2.3928-0.18515 2.2077-2.578l-0.34388-4.4442q-0.18515-2.3928-2.578-2.2077l-7.7194 0.5973q-2.3928 0.18515-2.2077 2.578z" clip-path="url(#a)" fill="#fff" stroke="#fff"/>
<g clip-path="url(#a)">
<defs>
<path id="x" d="m9.8125 72.906h9.8594v-64.609h35.5v-8.2969h-45.359z"/>
</defs>
<g transform="translate(293.42 205.96) rotate(85.576) scale(.08 -.08)">
<use xlink:href="#x"/>
</g>
</g>
<path d="m427.19 164.65 4.4415 4.0581q1.7718 1.6189 3.3907-0.15294l5.2225-5.7159q1.6189-1.7718-0.15294-3.3907l-4.4415-4.0581q-1.7718-1.6189-3.3907 0.15294l-5.2225 5.7159q-1.6189 1.7718 0.15294 3.3907z" clip-path="url(#a)" fill="#fff" stroke="#fff"/>
<g clip-path="url(#a)">
<g transform="translate(429.93 161.65) rotate(42.417) scale(.08 -.08)">
<use xlink:href="#t"/>
</g>
</g>
<path d="m56.536 351.03 0.93359-6.0888q0.36374-2.3723-2.0085-2.736l-7.6531-1.1734q-2.3723-0.36374-2.736 2.0085l-0.93359 6.0888q-0.36374 2.3723 2.0085 2.736l7.6531 1.1734q2.3723 0.36374 2.736-2.0085z" clip-path="url(#a)" fill="#fff" stroke="#fff"/>
<g clip-path="url(#a)">
<defs>
<path id="u" d="m19.672 64.797v-56.688h11.922q15.094 0 22.094 6.8281 7 6.8438 7 21.594 0 14.641-7 21.453t-22.094 6.8125zm-9.8594 8.1094h20.266q21.188 0 31.094-8.8125 9.9219-8.8125 9.9219-27.562 0-18.859-9.9688-27.703-9.9531-8.8281-31.047-8.8281h-20.266z"/>
</defs>
<g transform="translate(52.519 350.41) rotate(-81.283) scale(.08 -.08)">
<use xlink:href="#u"/>
</g>
</g>
<path d="m63.379 349.54 0.073953-4.8232q0.036795-2.3997-2.3629-2.4365l-7.7416-0.1187q-2.3997-0.036795-2.4365 2.3629l-0.073953 4.8232q-0.036794 2.3997 2.3629 2.4365l7.7416 0.1187q2.3997 0.036794 2.4365-2.3629z" clip-path="url(#a)" fill="#fff" stroke="#fff"/>
<g clip-path="url(#a)">
<defs>
<path id="w" d="m19.672 64.797v-27.391h12.406q6.8906 0 10.641 3.5625 3.7656 3.5625 3.7656 10.156 0 6.5469-3.7656 10.109-3.75 3.5625-10.641 3.5625zm-9.8594 8.1094h22.266q12.266 0 18.531-5.5469 6.2812-5.5469 6.2812-16.234 0-10.797-6.2812-16.312-6.2656-5.5156-18.531-5.5156h-12.406v-29.297h-9.8594z"/>
</defs>
<g transform="translate(59.316 349.48) rotate(-89.122) scale(.08 -.08)">
<use xlink:href="#w"/>
</g>
</g>
<path d="m59.011 345.66 0.81264 4.8182q0.39915 2.3666 2.7657 1.9674l7.6347-1.2877q2.3666-0.39915 1.9674-2.7657l-0.81264-4.8182q-0.39915-2.3666-2.7657-1.9674l-7.6347 1.2877q-2.3666 0.39915-1.9674 2.7657z" clip-path="url(#a)" fill="#fff" stroke="#fff"/>
<g clip-path="url(#a)">
<defs>
<path id="i" d="m-0.29688 72.906h61.672v-8.3125h-25.875v-64.594h-9.9062v64.594h-25.891z"/>
</defs>
<g transform="translate(63.018 344.99) rotate(80.427) scale(.08 -.08)">
<use xlink:href="#i"/>
</g>
</g>
<path d="m146.68 167.99 2.9261-4.6245q1.2833-2.0281-0.74483-3.3114l-6.5428-4.1399q-2.0281-1.2833-3.3114 0.74483l-2.9261 4.6245q-1.2833 2.0281 0.74483 3.3114l6.5428 4.1399q2.0281 1.2833 3.3114-0.74483z" clip-path="url(#a)" fill="#fff" stroke="#fff"/>
<g clip-path="url(#a)">
<defs>
<path id="m" d="m34.188 63.188-13.391-36.281h26.812zm-5.5781 9.7188h11.188l27.781-72.906h-10.25l-6.6406 18.703h-32.859l-6.6406-18.703h-10.406z"/>
</defs>
<g transform="translate(143.25 165.82) rotate(-57.677) scale(.08 -.08)">
<use xlink:href="#m"/>
</g>
</g>
<path d="m166.88 257.29 0.37619-4.5858q0.19622-2.392-2.1957-2.5882l-7.7166-0.63302q-2.392-0.19622-2.5882 2.1957l-0.37619 4.5858q-0.19622 2.392 2.1957 2.5882l7.7166 0.63302q2.392 0.19622 2.5882-2.1957z" clip-path="url(#a)" fill="#fff" stroke="#fff"/>
<g clip-path="url(#a)">
<defs>
<path id="aq" d="m9.8125 72.906h41.891v-8.3125h-32.031v-21.484h28.906v-8.2969h-28.906v-34.812h-9.8594z"/>
</defs>
<g transform="translate(162.83 256.95) rotate(-85.31) scale(.08 -.08)">
<use xlink:href="#aq"/>
</g>
</g>
<path d="m171.36 252.19 0.20331 5.0747q0.096074 2.3981 2.4942 2.302l7.7363-0.30994q2.3981-0.096074 2.302-2.4942l-0.20331-5.0747q-0.096074-2.3981-2.4942-2.302l-7.7363 0.30994q-2.3981 0.096074-2.302 2.4942z" clip-path="url(#a)" fill="#fff" stroke="#fff"/>
<g clip-path="url(#a)">
<defs>
<path id="p" d="m53.516 70.516v-9.625q-5.6094 2.6875-10.594 4-4.9844 1.3281-9.625 1.3281-8.0469 0-12.422-3.125t-4.375-8.8906q0-4.8438 2.9062-7.3125 2.9062-2.4531 11.016-3.9688l5.9531-1.2188q11.031-2.1094 16.281-7.4062t5.25-14.172q0-10.609-7.1094-16.078-7.0938-5.4688-20.812-5.4688-5.1719 0-11.016 1.1719-5.8281 1.1719-12.078 3.4688v10.156q6-3.3594 11.766-5.0781 5.7656-1.7031 11.328-1.7031 8.4375 0 13.031 3.3125 4.5938 3.3281 4.5938 9.4844 0 5.3594-3.2969 8.3906t-10.812 4.5469l-6.0156 1.1719q-11.031 2.1875-15.969 6.875-4.9219 4.6875-4.9219 13.047 0 9.6719 6.8125 15.234t18.766 5.5625q5.1406 0 10.453-0.9375 5.3281-0.92188 10.891-2.7656z"/>
</defs>
<g transform="translate(175.42 252.03) rotate(87.706) scale(.08 -.08)">
<use xlink:href="#p"/>
</g>
</g>
<path d="m200.49 208.19 1.9427 5.1161q0.85198 2.2437 3.0957 1.3917l7.2382-2.7485q2.2437-0.85198 1.3917-3.0957l-1.9427-5.1161q-0.85198-2.2437-3.0957-1.3917l-7.2382 2.7485q-2.2437 0.85198-1.3917 3.0957z" clip-path="url(#a)" fill="#fff" stroke="#fff"/>
<g clip-path="url(#a)">
<g transform="translate(204.28 206.75) rotate(69.207) scale(.08 -.08)">
<use xlink:href="#m"/>
</g>
</g>
<path d="m303.84 421.41v33.808q0 2.4 2.4 2.4h7.7425q2.4 0 2.4-2.4v-33.808q0-2.4-2.4-2.4h-7.7425q-2.4 0-2.4 2.4z" clip-path="url(#a)" fill="#fff" stroke="#fff"/>
<g clip-path="url(#a)">
<defs>
<path id="d" d="m56.203 29.594v-4.3906h-41.312q0.59375-9.2812 5.5938-14.141t13.938-4.8594q5.1719 0 10.031 1.2656t9.6562 3.8125v-8.5q-4.8438-2.0469-9.9219-3.125t-10.297-1.0781q-13.094 0-20.734 7.6094-7.6406 7.625-7.6406 20.625 0 13.422 7.25 21.297 7.25 7.8906 19.562 7.8906 11.031 0 17.453-7.1094 6.4219-7.0938 6.4219-19.297zm-8.9844 2.6406q-0.09375 7.3594-4.125 11.75-4.0312 4.4062-10.672 4.4062-7.5156 0-12.031-4.25t-5.2031-11.969z"/>
<path id="f" d="m41.109 46.297q-1.5156 0.875-3.2969 1.2812-1.7812 0.42188-3.9219 0.42188-7.625 0-11.703-4.9531t-4.0781-14.234v-28.812h-9.0312v54.688h9.0312v-8.5q2.8438 4.9844 7.375 7.3906 4.5469 2.4219 11.047 2.4219 0.92188 0 2.0469-0.125 1.125-0.10938 2.4844-0.35938z"/>
<path id="l" d="m52 44.188q3.375 6.0625 8.0625 8.9375t11.031 2.875q8.5469 0 13.188-5.9844 4.6406-5.9688 4.6406-17v-33.016h-9.0312v32.719q0 7.8594-2.7969 11.656-2.7812 3.8125-8.4844 3.8125-6.9844 0-11.047-4.6406-4.0469-4.625-4.0469-12.641v-30.906h-9.0312v32.719q0 7.9062-2.7812 11.688t-8.5938 3.7812q-6.8906 0-10.953-4.6562-4.0469-4.6562-4.0469-12.625v-30.906h-9.0312v54.688h9.0312v-8.5q3.0781 5.0312 7.375 7.4219t10.203 2.3906q5.9688 0 10.141-3.0312 4.1719-3.0156 6.1719-8.7812z"/>
<path id="k" d="m9.4219 54.688h8.9844v-54.688h-8.9844zm0 21.297h8.9844v-11.391h-8.9844z"/>
<path id="j" d="m54.891 33.016v-33.016h-8.9844v32.719q0 7.7656-3.0312 11.609-3.0312 3.8594-9.0781 3.8594-7.2812 0-11.484-4.6406-4.2031-4.625-4.2031-12.641v-30.906h-9.0312v54.688h9.0312v-8.5q3.2344 4.9375 7.5938 7.375 4.375 2.4375 10.094 2.4375 9.4219 0 14.25-5.8281 4.8438-5.8281 4.8438-17.156z"/>
<path id="e" d="m34.281 27.484q-10.891 0-15.094-2.4844t-4.2031-8.5q0-4.7812 3.1562-7.5938 3.1562-2.7969 8.5625-2.7969 7.4844 0 12 5.2969t4.5156 14.078v2zm17.922 3.7188v-31.203h-8.9844v8.2969q-3.0781-4.9688-7.6719-7.3438t-11.234-2.375q-8.3906 0-13.359 4.7188-4.9531 4.7188-4.9531 12.625 0 9.2188 6.1719 13.906 6.1875 4.6875 18.438 4.6875h12.609v0.89062q0 6.2031-4.0781 9.5938t-11.453 3.3906q-4.6875 0-9.1406-1.125-4.4375-1.125-8.5312-3.375v8.3125q4.9219 1.9062 9.5625 2.8438 4.6406 0.95312 9.0312 0.95312 11.875 0 17.734-6.1562 5.8594-6.1406 5.8594-18.641z"/>
<path id="h" d="m9.4219 75.984h8.9844v-75.984h-8.9844z"/>
</defs>
<g transform="translate(307.9 421.41) rotate(90) scale(.08 -.08)">
<use xlink:href="#i"/>
<use x="44.083984" xlink:href="#d"/>
<use x="105.607422" xlink:href="#f"/>
<use x="144.970703" xlink:href="#l"/>
<use x="242.382812" xlink:href="#k"/>
<use x="270.166016" xlink:href="#j"/>
<use x="333.544922" xlink:href="#e"/>
<use x="394.824219" xlink:href="#h"/>
</g>
</g>
<path d="m473.16 353.87 5.066-2.0699q2.2217-0.90775 1.314-3.1295l-2.9284-7.1673q-0.90775-2.2217-3.1295-1.314l-5.066 2.0699q-2.2217 0.90775-1.314 3.1295l2.9284 7.1673q0.90775 2.2217 3.1295 1.314z" clip-path="url(#a)" fill="#fff" stroke="#fff"/>
<g clip-path="url(#a)">
<g transform="translate(471.62 350.11) rotate(-22.224) scale(.08 -.08)">
<use xlink:href="#m"/>
</g>
</g>
<path d="m501.66 353.69 4.2432-2.2942q2.1112-1.1415 0.9697-3.2526l-3.6824-6.8107q-1.1415-2.1112-3.2526-0.9697l-4.2432 2.2942q-2.1112 1.1415-0.9697 3.2526l3.6824 6.8107q1.1415 2.1112 3.2526 0.9697z" clip-path="url(#a)" fill="#fff" stroke="#fff"/>
<g clip-path="url(#a)">
<g transform="translate(499.73 350.12) rotate(-28.399) scale(.08 -.08)">
<use xlink:href="#w"/>
</g>
</g>
<path d="m609.98 348.26 3.0546 4.5407q1.3396 1.9913 3.331 0.65171l6.4241-4.3217q1.9913-1.3396 0.65171-3.331l-3.0546-4.5407q-1.3396-1.9913-3.331-0.65171l-6.4241 4.3217q-1.9913 1.3396-0.65171 3.331z" clip-path="url(#a)" fill="#fff" stroke="#fff"/>
<g clip-path="url(#a)">
<g transform="translate(613.35 345.99) rotate(56.07) scale(.08 -.08)">
<use xlink:href="#m"/>
</g>
</g>
<path d="m747.86 352.3 5.6441 1.5573q2.3136 0.63834 2.9519-1.6752l2.0593-7.4636q0.63834-2.3136-1.6752-2.9519l-5.6441-1.5573q-2.3136-0.63834-2.9519 1.6752l-2.0593 7.4636q-0.63834 2.3136 1.6752 2.9519z" clip-path="url(#a)" fill="#fff" stroke="#fff"/>
<g clip-path="url(#a)">
<defs>
<path id="am" d="m8.6875 72.906h9.9219v-44.297q0-11.719 4.2344-16.875 4.25-5.1406 13.781-5.1406 9.4688 0 13.719 5.1406 4.25 5.1562 4.25 16.875v44.297h9.9062v-45.516q0-14.25-7.0625-21.531-7.0469-7.2812-20.812-7.2812-13.828 0-20.891 7.2812-7.0469 7.2812-7.0469 21.531z"/>
</defs>
<g transform="translate(748.94 348.38) rotate(15.425) scale(.08 -.08)">
<use xlink:href="#am"/>
</g>
</g>
<path d="m354.57 421.41v33.808q0 2.4 2.4 2.4h7.7425q2.4 0 2.4-2.4v-33.808q0-2.4-2.4-2.4h-7.7425q-2.4 0-2.4 2.4z" clip-path="url(#a)" fill="#fff" stroke="#fff"/>
<g clip-path="url(#a)">
<g transform="translate(358.63 421.41) rotate(90) scale(.08 -.08)">
<use xlink:href="#i"/>
<use x="44.083984" xlink:href="#d"/>
<use x="105.607422" xlink:href="#f"/>
<use x="144.970703" xlink:href="#l"/>
<use x="242.382812" xlink:href="#k"/>
<use x="270.166016" xlink:href="#j"/>
<use x="333.544922" xlink:href="#e"/>
<use x="394.824219" xlink:href="#h"/>
</g>
</g>
<path d="m409.53 421.41v33.808q0 2.4 2.4 2.4h7.7425q2.4 0 2.4-2.4v-33.808q0-2.4-2.4-2.4h-7.7425q-2.4 0-2.4 2.4z" clip-path="url(#a)" fill="#fff" stroke="#fff"/>
<g clip-path="url(#a)">
<g transform="translate(413.6 421.41) rotate(90) scale(.08 -.08)">
<use xlink:href="#i"/>
<use x="44.083984" xlink:href="#d"/>
<use x="105.607422" xlink:href="#f"/>
<use x="144.970703" xlink:href="#l"/>
<use x="242.382812" xlink:href="#k"/>
<use x="270.166016" xlink:href="#j"/>
<use x="333.544922" xlink:href="#e"/>
<use x="394.824219" xlink:href="#h"/>
</g>
</g>
<path d="m549.26 451.72 29.932-15.717q2.1249-1.1158 1.0091-3.2406l-3.5995-6.8549q-1.1158-2.1249-3.2406-1.0091l-29.932 15.717q-2.1249 1.1158-1.0091 3.2406l3.5995 6.8549q1.1158 2.1249 3.2406 1.0091z" clip-path="url(#a)" fill="#fff" stroke="#fff"/>
<g clip-path="url(#a)">
<g transform="translate(547.37 448.12) rotate(-27.704) scale(.08 -.08)">
<use xlink:href="#i"/>
<use x="44.083984" xlink:href="#d"/>
<use x="105.607422" xlink:href="#f"/>
<use x="144.970703" xlink:href="#l"/>
<use x="242.382812" xlink:href="#k"/>
<use x="270.166016" xlink:href="#j"/>
<use x="333.544922" xlink:href="#e"/>
<use x="394.824219" xlink:href="#h"/>
</g>
</g>
<path d="m584.02 453.93 26.014-21.592q1.8468-1.5328 0.31395-3.3796l-4.9449-5.9577q-1.5328-1.8468-3.3796-0.31395l-26.014 21.592q-1.8468 1.5328-0.31395 3.3796l4.9449 5.9577q1.5328 1.8468 3.3796 0.31395z" clip-path="url(#a)" fill="#fff" stroke="#fff"/>
<g clip-path="url(#a)">
<g transform="translate(581.42 450.81) rotate(-39.693) scale(.08 -.08)">
<use xlink:href="#i"/>
<use x="44.083984" xlink:href="#d"/>
<use x="105.607422" xlink:href="#f"/>
<use x="144.970703" xlink:href="#l"/>
<use x="242.382812" xlink:href="#k"/>
<use x="270.166016" xlink:href="#j"/>
<use x="333.544922" xlink:href="#e"/>
<use x="394.824219" xlink:href="#h"/>
</g>
</g>
<path d="m625.49 456.29 14.093-30.73q1.0005-2.1815-1.1811-3.182l-7.0377-3.2276q-2.1815-1.0005-3.182 1.1811l-14.093 30.73q-1.0005 2.1815 1.1811 3.182l7.0377 3.2276q2.1815 1.0005 3.182-1.1811z" clip-path="url(#a)" fill="#fff" stroke="#fff"/>
<g clip-path="url(#a)">
<g transform="translate(621.8 454.6) rotate(-65.363) scale(.08 -.08)">
<use xlink:href="#i"/>
<use x="44.083984" xlink:href="#d"/>
<use x="105.607422" xlink:href="#f"/>
<use x="144.970703" xlink:href="#l"/>
<use x="242.382812" xlink:href="#k"/>
<use x="270.166016" xlink:href="#j"/>
<use x="333.544922" xlink:href="#e"/>
<use x="394.824219" xlink:href="#h"/>
</g>
</g>
<path d="m651.47 424.27 10.717 32.064q0.76081 2.2762 3.037 1.5154l7.3432-2.4544q2.2762-0.76081 1.5154-3.037l-10.717-32.064q-0.76081-2.2762-3.037-1.5154l-7.3432 2.4544q-2.2762 0.76081-1.5154 3.037z" clip-path="url(#a)" fill="#fff" stroke="#fff"/>
<g clip-path="url(#a)">
<g transform="translate(655.32 422.98) rotate(71.518) scale(.08 -.08)">
<use xlink:href="#i"/>
<use x="44.083984" xlink:href="#d"/>
<use x="105.607422" xlink:href="#f"/>
<use x="144.970703" xlink:href="#l"/>
<use x="242.382812" xlink:href="#k"/>
<use x="270.166016" xlink:href="#j"/>
<use x="333.544922" xlink:href="#e"/>
<use x="394.824219" xlink:href="#h"/>
</g>
</g>
<path d="m683.89 432.12 25.734 21.925q1.8269 1.5565 3.3833-0.2704l5.0212-5.8935q1.5565-1.8269-0.27041-3.3833l-25.734-21.925q-1.8269-1.5565-3.3833 0.27041l-5.0212 5.8935q-1.5565 1.8269 0.27041 3.3833z" clip-path="url(#a)" fill="#fff" stroke="#fff"/>
<g clip-path="url(#a)">
<g transform="translate(686.53 429.03) rotate(40.43) scale(.08 -.08)">
<use xlink:href="#i"/>
<use x="44.083984" xlink:href="#d"/>
<use x="105.607422" xlink:href="#f"/>
<use x="144.970703" xlink:href="#l"/>
<use x="242.382812" xlink:href="#k"/>
<use x="270.166016" xlink:href="#j"/>
<use x="333.544922" xlink:href="#e"/>
<use x="394.824219" xlink:href="#h"/>
</g>
</g>
<path d="m723.04 436.57 30.413 14.765q2.159 1.0481 3.2072-1.1109l3.3814-6.9651q1.0481-2.159-1.1109-3.2072l-30.413-14.765q-2.159-1.0481-3.2072 1.1109l-3.3814 6.9651q-1.0481 2.159 1.1109 3.2072z" clip-path="url(#a)" fill="#fff" stroke="#fff"/>
<g clip-path="url(#a)">
<g transform="translate(724.82 432.91) rotate(25.895) scale(.08 -.08)">
<use xlink:href="#i"/>
<use x="44.083984" xlink:href="#d"/>
<use x="105.607422" xlink:href="#f"/>
<use x="144.970703" xlink:href="#l"/>
<use x="242.382812" xlink:href="#k"/>
<use x="270.166016" xlink:href="#j"/>
<use x="333.544922" xlink:href="#e"/>
<use x="394.824219" xlink:href="#h"/>
</g>
</g>
<path d="m116.43 257.83 0.34615-5.0431q0.16434-2.3944-2.23-2.5587l-7.7243-0.53018q-2.3944-0.16434-2.5587 2.23l-0.34615 5.0431q-0.16434 2.3944 2.23 2.5587l7.7243 0.53018q2.3944 0.16434 2.5587-2.23z" clip-path="url(#a)" fill="#fff" stroke="#fff"/>
<g clip-path="url(#a)">
<defs>
<path id="y" d="m9.8125 72.906h46.094v-8.3125h-36.234v-21.578h34.719v-8.2969h-34.719v-26.422h37.109v-8.2969h-46.969z"/>
</defs>
<g transform="translate(112.37 257.55) rotate(-86.074) scale(.08 -.08)">
<use xlink:href="#y"/>
</g>
</g>
<path d="m110.32 298.26 0.1921 5.5829q0.082532 2.3986 2.4811 2.316l7.7379-0.26625q2.3986-0.082532 2.316-2.4811l-0.1921-5.5829q-0.082532-2.3986-2.4811-2.316l-7.7379 0.26625q-2.3986 0.082532-2.316 2.4811z" clip-path="url(#a)" fill="#fff" stroke="#fff"/>
<g clip-path="url(#a)">
<defs>
<path id="v" d="m64.406 67.281v-10.391q-4.9844 4.6406-10.625 6.9219-5.6406 2.2969-11.984 2.2969-12.5 0-19.141-7.6406t-6.6406-22.094q0-14.406 6.6406-22.047t19.141-7.6406q6.3438 0 11.984 2.2969t10.625 6.9375v-10.312q-5.1719-3.5156-10.969-5.2812-5.7812-1.75-12.219-1.75-16.562 0-26.094 10.125-9.5156 10.141-9.5156 27.672 0 17.578 9.5156 27.703 9.5312 10.141 26.094 10.141 6.5312 0 12.312-1.7344 5.7969-1.7344 10.875-5.2031z"/>
</defs>
<g transform="translate(114.38 298.12) rotate(88.029) scale(.08 -.08)">
<use xlink:href="#v"/>
</g>
</g>
<path d="m143.18 421.41v33.808q0 2.4 2.4 2.4h7.7425q2.4 0 2.4-2.4v-33.808q0-2.4-2.4-2.4h-7.7425q-2.4 0-2.4 2.4z" clip-path="url(#a)" fill="#fff" stroke="#fff"/>
<g clip-path="url(#a)">
<g transform="translate(147.24 421.41) rotate(90) scale(.08 -.08)">
<use xlink:href="#i"/>
<use x="44.083984" xlink:href="#d"/>
<use x="105.607422" xlink:href="#f"/>
<use x="144.970703" xlink:href="#l"/>
<use x="242.382812" xlink:href="#k"/>
<use x="270.166016" xlink:href="#j"/>
<use x="333.544922" xlink:href="#e"/>
<use x="394.824219" xlink:href="#h"/>
</g>
</g>
<path d="m177 421.41v33.808q0 2.4 2.4 2.4h7.7425q2.4 0 2.4-2.4v-33.808q0-2.4-2.4-2.4h-7.7425q-2.4 0-2.4 2.4z" clip-path="url(#a)" fill="#fff" stroke="#fff"/>
<g clip-path="url(#a)">
<g transform="translate(181.07 421.41) rotate(90) scale(.08 -.08)">
<use xlink:href="#i"/>
<use x="44.083984" xlink:href="#d"/>
<use x="105.607422" xlink:href="#f"/>
<use x="144.970703" xlink:href="#l"/>
<use x="242.382812" xlink:href="#k"/>
<use x="270.166016" xlink:href="#j"/>
<use x="333.544922" xlink:href="#e"/>
<use x="394.824219" xlink:href="#h"/>
</g>
</g>
<path d="m237.44 350.9 1.133-4.9264q0.53794-2.3389-1.801-2.8769l-7.5455-1.7354q-2.3389-0.53794-2.8769 1.801l-1.133 4.9264q-0.53794 2.3389 1.801 2.8769l7.5455 1.7354q2.3389 0.53794 2.8769-1.801z" clip-path="url(#a)" fill="#fff" stroke="#fff"/>
<g clip-path="url(#a)">
<g transform="translate(233.48 349.99) rotate(-77.048) scale(.08 -.08)">
<use xlink:href="#y"/>
</g>
</g>
<path d="m246.3 345.71 1.2521 5.4441q0.53794 2.3389 2.8769 1.801l7.5455-1.7354q2.3389-0.53794 1.801-2.8769l-1.2521-5.4441q-0.53794-2.3389-2.8769-1.801l-7.5455 1.7354q-2.3389 0.53794-1.801 2.8769z" clip-path="url(#a)" fill="#fff" stroke="#fff"/>
<g clip-path="url(#a)">
<g transform="translate(250.26 344.8) rotate(77.048) scale(.08 -.08)">
<use xlink:href="#v"/>
</g>
</g>
<path d="m215.05 421.41v33.808q0 2.4 2.4 2.4h7.7425q2.4 0 2.4-2.4v-33.808q0-2.4-2.4-2.4h-7.7425q-2.4 0-2.4 2.4z" clip-path="url(#a)" fill="#fff" stroke="#fff"/>
<g clip-path="url(#a)">
<g transform="translate(219.12 421.41) rotate(90) scale(.08 -.08)">
<use xlink:href="#i"/>
<use x="44.083984" xlink:href="#d"/>
<use x="105.607422" xlink:href="#f"/>
<use x="144.970703" xlink:href="#l"/>
<use x="242.382812" xlink:href="#k"/>
<use x="270.166016" xlink:href="#j"/>
<use x="333.544922" xlink:href="#e"/>
<use x="394.824219" xlink:href="#h"/>
</g>
</g>
<path d="m257.33 421.41v33.808q0 2.4 2.4 2.4h7.7425q2.4 0 2.4-2.4v-33.808q0-2.4-2.4-2.4h-7.7425q-2.4 0-2.4 2.4z" clip-path="url(#a)" fill="#fff" stroke="#fff"/>
<g clip-path="url(#a)">
<g transform="translate(261.39 421.41) rotate(90) scale(.08 -.08)">
<use xlink:href="#i"/>
<use x="44.083984" xlink:href="#d"/>
<use x="105.607422" xlink:href="#f"/>
<use x="144.970703" xlink:href="#l"/>
<use x="242.382812" xlink:href="#k"/>
<use x="270.166016" xlink:href="#j"/>
<use x="333.544922" xlink:href="#e"/>
<use x="394.824219" xlink:href="#h"/>
</g>
</g>
<path d="m106.93 345.18 0.74809 5.4211q0.32808 2.3775 2.7056 2.0494l7.6698-1.0584q2.3775-0.32808 2.0494-2.7055l-0.74809-5.4211q-0.32808-2.3775-2.7056-2.0494l-7.6698 1.0584q-2.3775 0.32808-2.0494 2.7056z" clip-path="url(#a)" fill="#fff" stroke="#fff"/>
<g clip-path="url(#a)">
<g transform="translate(110.96 344.62) rotate(82.143) scale(.08 -.08)">
<use xlink:href="#m"/>
</g>
</g>
<path d="m106.7 350.4 0.69426-5.0311q0.32808-2.3775-2.0494-2.7056l-7.6698-1.0584q-2.3775-0.32808-2.7056 2.0494l-0.69426 5.0311q-0.32808 2.3775 2.0494 2.7056l7.6698 1.0584q2.3775 0.32808 2.7056-2.0494z" clip-path="url(#a)" fill="#fff" stroke="#fff"/>
<g clip-path="url(#a)">
<g transform="translate(102.67 349.85) rotate(-82.143) scale(.08 -.08)">
<use xlink:href="#p"/>
</g>
</g>
<path d="m113.59 421.41v33.808q0 2.4 2.4 2.4h7.7425q2.4 0 2.4-2.4v-33.808q0-2.4-2.4-2.4h-7.7425q-2.4 0-2.4 2.4z" clip-path="url(#a)" fill="#fff" stroke="#fff"/>
<g clip-path="url(#a)">
<g transform="translate(117.65 421.41) rotate(90) scale(.08 -.08)">
<use xlink:href="#i"/>
<use x="44.083984" xlink:href="#d"/>
<use x="105.607422" xlink:href="#f"/>
<use x="144.970703" xlink:href="#l"/>
<use x="242.382812" xlink:href="#k"/>
<use x="270.166016" xlink:href="#j"/>
<use x="333.544922" xlink:href="#e"/>
<use x="394.824219" xlink:href="#h"/>
</g>
</g>
<path d="m88.22 421.41v33.808q0 2.4 2.4 2.4h7.7425q2.4 0 2.4-2.4v-33.808q0-2.4-2.4-2.4h-7.7425q-2.4 0-2.4 2.4z" clip-path="url(#a)" fill="#fff" stroke="#fff"/>
<g clip-path="url(#a)">
<g transform="translate(92.283 421.41) rotate(90) scale(.08 -.08)">
<use xlink:href="#i"/>
<use x="44.083984" xlink:href="#d"/>
<use x="105.607422" xlink:href="#f"/>
<use x="144.970703" xlink:href="#l"/>
<use x="242.382812" xlink:href="#k"/>
<use x="270.166016" xlink:href="#j"/>
<use x="333.544922" xlink:href="#e"/>
<use x="394.824219" xlink:href="#h"/>
</g>
</g>
<path d="m37.486 421.41v33.808q0 2.4 2.4 2.4h7.7425q2.4 0 2.4-2.4v-33.808q0-2.4-2.4-2.4h-7.7425q-2.4 0-2.4 2.4z" clip-path="url(#a)" fill="#fff" stroke="#fff"/>
<g clip-path="url(#a)">
<g transform="translate(41.55 421.41) rotate(90) scale(.08 -.08)">
<use xlink:href="#i"/>
<use x="44.083984" xlink:href="#d"/>
<use x="105.607422" xlink:href="#f"/>
<use x="144.970703" xlink:href="#l"/>
<use x="242.382812" xlink:href="#k"/>
<use x="270.166016" xlink:href="#j"/>
<use x="333.544922" xlink:href="#e"/>
<use x="394.824219" xlink:href="#h"/>
</g>
</g>
<path d="m50.17 421.41v33.808q0 2.4 2.4 2.4h7.7425q2.4 0 2.4-2.4v-33.808q0-2.4-2.4-2.4h-7.7425q-2.4 0-2.4 2.4z" clip-path="url(#a)" fill="#fff" stroke="#fff"/>
<g clip-path="url(#a)">
<g transform="translate(54.233 421.41) rotate(90) scale(.08 -.08)">
<use xlink:href="#i"/>
<use x="44.083984" xlink:href="#d"/>
<use x="105.607422" xlink:href="#f"/>
<use x="144.970703" xlink:href="#l"/>
<use x="242.382812" xlink:href="#k"/>
<use x="270.166016" xlink:href="#j"/>
<use x="333.544922" xlink:href="#e"/>
<use x="394.824219" xlink:href="#h"/>
</g>
</g>
<path d="m67.081 421.41v33.808q0 2.4 2.4 2.4h7.7425q2.4 0 2.4-2.4v-33.808q0-2.4-2.4-2.4h-7.7425q-2.4 0-2.4 2.4z" clip-path="url(#a)" fill="#fff" stroke="#fff"/>
<g clip-path="url(#a)">
<g transform="translate(71.145 421.41) rotate(90) scale(.08 -.08)">
<use xlink:href="#i"/>
<use x="44.083984" xlink:href="#d"/>
<use x="105.607422" xlink:href="#f"/>
<use x="144.970703" xlink:href="#l"/>
<use x="242.382812" xlink:href="#k"/>
<use x="270.166016" xlink:href="#j"/>
<use x="333.544922" xlink:href="#e"/>
<use x="394.824219" xlink:href="#h"/>
</g>
</g>
<path d="m912.64 421.41v33.808q0 2.4 2.4 2.4h7.7425q2.4 0 2.4-2.4v-33.808q0-2.4-2.4-2.4h-7.7425q-2.4 0-2.4 2.4z" clip-path="url(#a)" fill="#fff" stroke="#fff"/>
<g clip-path="url(#a)">
<g transform="translate(916.7 421.41) rotate(90) scale(.08 -.08)">
<use xlink:href="#i"/>
<use x="44.083984" xlink:href="#d"/>
<use x="105.607422" xlink:href="#f"/>
<use x="144.970703" xlink:href="#l"/>
<use x="242.382812" xlink:href="#k"/>
<use x="270.166016" xlink:href="#j"/>
<use x="333.544922" xlink:href="#e"/>
<use x="394.824219" xlink:href="#h"/>
</g>
</g>
<defs>
<path id="b" d="m0 8.6603c2.2967 0 4.4997-0.9125 6.1237-2.5365 1.624-1.624 2.5365-3.827 2.5365-6.1237s-0.9125-4.4997-2.5365-6.1237c-1.624-1.624-3.827-2.5365-6.1237-2.5365s-4.4997 0.9125-6.1237 2.5365c-1.624 1.624-2.5365 3.827-2.5365 6.1237s0.9125 4.4997 2.5365 6.1237c1.624 1.624 3.827 2.5365 6.1237 2.5365z"/>
</defs>
<g clip-path="url(#a)" fill="#ffffff" stroke="#ffffff">
<use x="43.757576" y="483.636364" xlink:href="#b"/>
<use x="56.440931" y="483.636364" xlink:href="#b"/>
<use x="73.352071" y="483.636364" xlink:href="#b"/>
<use x="94.490997" y="483.636364" xlink:href="#b"/>
<use x="119.857708" y="483.636364" xlink:href="#b"/>
<use x="149.452203" y="483.636364" xlink:href="#b"/>
<use x="183.274484" y="483.636364" xlink:href="#b"/>
<use x="221.32455" y="483.636364" xlink:href="#b"/>
<use x="263.602401" y="483.636364" xlink:href="#b"/>
<use x="310.108037" y="483.636364" xlink:href="#b"/>
<use x="360.841458" y="483.636364" xlink:href="#b"/>
<use x="415.802664" y="483.636364" xlink:href="#b"/>
<use x="474.991656" y="483.636364" xlink:href="#b"/>
<use x="538.408432" y="483.636364" xlink:href="#b"/>
<use x="606.052994" y="483.636364" xlink:href="#b"/>
<use x="677.92534" y="483.636364" xlink:href="#b"/>
<use x="754.025472" y="483.636364" xlink:href="#b"/>
<use x="834.353389" y="483.636364" xlink:href="#b"/>
<use x="918.909091" y="483.636364" xlink:href="#b"/>
<use x="281.482409" y="23.030303" xlink:href="#b"/>
<use x="57.850193" y="301.074425" xlink:href="#b"/>
<use x="172.176548" y="115.972849" xlink:href="#b"/>
<use x="310.108037" y="392.985918" xlink:href="#b"/>
<use x="585.794857" y="301.074425" xlink:href="#b"/>
<use x="360.841458" y="392.985918" xlink:href="#b"/>
<use x="415.802664" y="392.985918" xlink:href="#b"/>
<use x="647.626214" y="392.985918" xlink:href="#b"/>
<use x="113.51603" y="208.680864" xlink:href="#b"/>
<use x="149.452203" y="392.985918" xlink:href="#b"/>
<use x="183.274484" y="392.985918" xlink:href="#b"/>
<use x="242.463475" y="301.074425" xlink:href="#b"/>
<use x="221.32455" y="392.985918" xlink:href="#b"/>
<use x="263.602401" y="392.985918" xlink:href="#b"/>
<use x="107.174352" y="301.074425" xlink:href="#b"/>
<use x="119.857708" y="392.985918" xlink:href="#b"/>
<use x="94.490997" y="392.985918" xlink:href="#b"/>
<use x="43.757576" y="392.985918" xlink:href="#b"/>
<use x="56.440931" y="392.985918" xlink:href="#b"/>
<use x="73.352071" y="392.985918" xlink:href="#b"/>
<use x="918.909091" y="392.985918" xlink:href="#b"/>
</g>
<g clip-path="url(#a)">
<defs>
<path id="al" d="m48.688 27.297q0 9.9062-4.0781 15.547t-11.203 5.6406q-7.1406 0-11.219-5.6406t-4.0781-15.547 4.0781-15.547 11.219-5.6406q7.125 0 11.203 5.6406t4.0781 15.547zm-30.578 19.094q2.8438 4.875 7.1562 7.2344 4.3281 2.375 10.328 2.375 9.9688 0 16.188-7.9062 6.2344-7.9062 6.2344-20.797t-6.2344-20.812q-6.2188-7.9062-16.188-7.9062-6 0-10.328 2.375-4.3125 2.375-7.1562 7.25v-8.2031h-9.0312v75.984h9.0312z"/>
<path id="o" d="m44.281 53.078v-8.5q-3.7969 1.9531-7.9062 2.9219-4.0938 0.98438-8.5 0.98438-6.6875 0-10.031-2.0469t-3.3438-6.1562q0-3.125 2.3906-4.9062t9.625-3.3906l3.0781-0.6875q9.5625-2.0469 13.594-5.7812t4.0312-10.422q0-7.625-6.0312-12.078-6.0312-4.4375-16.578-4.4375-4.3906 0-9.1562 0.85938t-10.031 2.5625v9.2812q4.9844-2.5938 9.8125-3.8906 4.8281-1.2812 9.5781-1.2812 6.3438 0 9.75 2.1719 3.4219 2.1719 3.4219 6.125 0 3.6562-2.4688 5.6094-2.4531 1.9531-10.812 3.7656l-3.125 0.73438q-8.3438 1.75-12.062 5.3906-3.7031 3.6406-3.7031 9.9844 0 7.7188 5.4688 11.906 5.4688 4.2031 15.531 4.2031 4.9688 0 9.3594-0.73438 4.4062-0.71875 8.1094-2.1875z"/>
<path id="r" d="m18.312 70.219v-15.531h18.5v-6.9844h-18.5v-29.688q0-6.6875 1.8281-8.5938t7.4531-1.9062h9.2188v-7.5156h-9.2188q-10.406 0-14.359 3.875-3.9531 3.8906-3.9531 14.141v29.688h-6.5938v6.9844h6.5938v15.531z"/>
</defs>
<g transform="translate(32.942 486.4) scale(.1 -.1)">
<use xlink:href="#al"/>
<use x="63.476562" xlink:href="#d"/>
<use x="125" xlink:href="#o"/>
<use x="177.099609" xlink:href="#r"/>
</g>
</g>
<g clip-path="url(#a)">
<defs>
<path id="as" d="m14.797 27.297q0-9.9062 4.0781-15.547t11.203-5.6406 11.219 5.6406q4.1094 5.6406 4.1094 15.547t-4.1094 15.547q-4.0938 5.6406-11.219 5.6406t-11.203-5.6406-4.0781-15.547zm30.609-19.094q-2.8281-4.875-7.1562-7.25-4.3125-2.375-10.375-2.375-9.9062 0-16.141 7.9062-6.2188 7.9219-6.2188 20.812t6.2188 20.797q6.2344 7.9062 16.141 7.9062 6.0625 0 10.375-2.375 4.3281-2.3594 7.1562-7.2344v8.2969h8.9844v-75.484h-8.9844z"/>
<path id="aj" d="m8.5 21.578v33.109h8.9844v-32.766q0-7.7656 3.0156-11.656 3.0312-3.875 9.0938-3.875 7.2656 0 11.484 4.6406 4.2344 4.6406 4.2344 12.656v31h8.9844v-54.688h-8.9844v8.4062q-3.2656-4.9844-7.5938-7.4062-4.3125-2.4219-10.031-2.4219-9.4219 0-14.312 5.8594-4.875 5.8594-4.875 17.141z"/>
<path id="q" d="m30.609 48.391q-7.2188 0-11.422-5.6406t-4.2031-15.453 4.1719-15.453q4.1875-5.6406 11.453-5.6406 7.1875 0 11.375 5.6562 4.2031 5.6719 4.2031 15.438 0 9.7188-4.2031 15.406-4.1875 5.6875-11.375 5.6875zm0 7.6094q11.719 0 18.406-7.625 6.7031-7.6094 6.7031-21.078 0-13.422-6.7031-21.078-6.6875-7.6406-18.406-7.6406-11.766 0-18.438 7.6406-6.6562 7.6562-6.6562 21.078 0 13.469 6.6562 21.078 6.6719 7.625 18.438 7.625z"/>
</defs>
<g transform="translate(42.002 486.4) scale(.1 -.1)">
<use xlink:href="#as"/>
<use x="63.476562" xlink:href="#aj"/>
<use x="126.855469" xlink:href="#q"/>
<use x="188.037109" xlink:href="#r"/>
<use x="227.246094" xlink:href="#d"/>
</g>
</g>
<g clip-path="url(#a)">
<defs>
<path id="ai" d="m2.9844 54.688h9.5156l17.094-45.891 17.094 45.891h9.5156l-20.516-54.688h-12.203z"/>
</defs>
<g transform="translate(62.184 486.4) scale(.1 -.1)">
<use xlink:href="#d"/>
<use x="61.523438" xlink:href="#ai"/>
<use x="120.703125" xlink:href="#d"/>
<use x="182.226562" xlink:href="#f"/>
</g>
</g>
<g clip-path="url(#a)">
<defs>
<path id="an" d="m9.8125 72.906h14.703l18.594-49.609 18.703 49.609h14.703v-72.906h-9.625v64.016l-18.797-50h-9.9062l-18.797 50v-64.016h-9.5781z"/>
<path id="ag" d="m32.172-5.0781q-3.7969-9.7656-7.4219-12.734-3.6094-2.9844-9.6562-2.9844h-7.1875v7.5156h5.2812q3.7031 0 5.75 1.7656 2.0625 1.75 4.5469 8.2969l1.6094 4.0938-22.109 53.812h9.5156l17.094-42.766 17.094 42.766h9.5156z"/>
</defs>
<g transform="translate(87.218 486.4) scale(.1 -.1)">
<use xlink:href="#an"/>
<use x="86.279297" xlink:href="#ag"/>
</g>
</g>
<g clip-path="url(#a)">
<defs>
<path id="ak" d="m45.406 27.984q0 9.7656-4.0312 15.125-4.0156 5.375-11.297 5.375-7.2188 0-11.25-5.375-4.0312-5.3594-4.0312-15.125 0-9.7188 4.0312-15.094t11.25-5.375q7.2812 0 11.297 5.375 4.0312 5.375 4.0312 15.094zm8.9844-21.203q0-13.953-6.2031-20.766-6.1875-6.8125-18.984-6.8125-4.7344 0-8.9375 0.70312t-8.1562 2.1719v8.7344q3.9531-2.1406 7.8125-3.1562 3.8594-1.0312 7.8594-1.0312 8.8438 0 13.234 4.6094t4.3906 13.938v4.4531q-2.7812-4.8438-7.125-7.2344t-10.406-2.3906q-10.047 0-16.203 7.6562-6.1562 7.6719-6.1562 20.328 0 12.688 6.1562 20.344 6.1562 7.6719 16.203 7.6719 6.0625 0 10.406-2.3906t7.125-7.2188v8.2969h8.9844z"/>
</defs>
<g transform="translate(108.58 486.4) scale(.1 -.1)">
<use xlink:href="#ak"/>
<use x="63.476562" xlink:href="#e"/>
<use x="124.755859" xlink:href="#r"/>
<use x="163.964844" xlink:href="#d"/>
</g>
</g>
<g clip-path="url(#a)">
<defs>
<path id="ah" d="m4.2031 54.688h8.9844l11.234-42.672 11.172 42.672h10.594l11.234-42.672 11.188 42.672h8.9844l-14.312-54.688h-10.594l-11.766 44.828-11.812-44.828h-10.609z"/>
</defs>
<g transform="translate(139.69 486.4) scale(.1 -.1)">
<use xlink:href="#ah"/>
<use x="81.787109" xlink:href="#e"/>
<use x="143.066406" xlink:href="#o"/>
</g>
</g>
<g clip-path="url(#a)">
<defs>
<path id="s" d="m48.781 52.594v-8.4062q-3.8125 2.1094-7.6406 3.1562t-7.7344 1.0469q-8.75 0-13.594-5.5469-4.8281-5.5312-4.8281-15.547t4.8281-15.562q4.8438-5.5312 13.594-5.5312 3.9062 0 7.7344 1.0469t7.6406 3.1562v-8.3125q-3.7656-1.75-7.7969-2.625-4.0156-0.89062-8.5625-0.89062-12.359 0-19.641 7.7656-7.2656 7.7656-7.2656 20.953 0 13.375 7.3438 21.031 7.3594 7.6719 20.156 7.6719 4.1406 0 8.0938-0.85938 3.9531-0.84375 7.6719-2.5469z"/>
<path id="au" d="m9.0781 75.984h9.0312v-44.875l26.812 23.578h11.469l-29-25.578 30.234-29.109h-11.719l-27.797 26.703v-26.703h-9.0312z"/>
</defs>
<g transform="translate(169.9 486.4) scale(.1 -.1)">
<use xlink:href="#o"/>
<use x="52.099609" xlink:href="#r"/>
<use x="91.308594" xlink:href="#aj"/>
<use x="154.6875" xlink:href="#s"/>
<use x="209.667969" xlink:href="#au"/>
</g>
</g>
<g clip-path="url(#a)">
<defs>
<path id="av" d="m54.891 33.016v-33.016h-8.9844v32.719q0 7.7656-3.0312 11.609-3.0312 3.8594-9.0781 3.8594-7.2812 0-11.484-4.6406-4.2031-4.625-4.2031-12.641v-30.906h-9.0312v75.984h9.0312v-29.797q3.2344 4.9375 7.5938 7.375 4.375 2.4375 10.094 2.4375 9.4219 0 14.25-5.8281 4.8438-5.8281 4.8438-17.156z"/>
<path id="aw" d="m37.109 75.984v-7.4844h-8.5938q-4.8281 0-6.7188-1.9531-1.875-1.9531-1.875-7.0312v-4.8281h14.797v-6.9844h-14.797v-47.703h-9.0312v47.703h-8.5938v6.9844h8.5938v3.8125q0 9.125 4.25 13.297 4.25 4.1875 13.469 4.1875z"/>
</defs>
<g transform="translate(201.92 486.4) scale(.1 -.1)">
<use xlink:href="#av"/>
<use x="63.378906" xlink:href="#e"/>
<use x="124.658203" xlink:href="#h"/>
<use x="152.441406" xlink:href="#aw"/>
<use x="185.896484" xlink:href="#ah"/>
<use x="267.683594" xlink:href="#e"/>
<use x="328.962891" xlink:href="#ag"/>
</g>
</g>
<g clip-path="url(#a)">
<defs>
<path id="at" d="m18.109 8.2031v-29h-9.0312v75.484h9.0312v-8.2969q2.8438 4.875 7.1562 7.2344 4.3281 2.375 10.328 2.375 9.9688 0 16.188-7.9062 6.2344-7.9062 6.2344-20.797t-6.2344-20.812q-6.2188-7.9062-16.188-7.9062-6 0-10.328 2.375-4.3125 2.375-7.1562 7.25zm30.578 19.094q0 9.9062-4.0781 15.547t-11.203 5.6406q-7.1406 0-11.219-5.6406t-4.0781-15.547 4.0781-15.547 11.219-5.6406q7.125 0 11.203 5.6406t4.0781 15.547z"/>
</defs>
<g transform="translate(251.12 486.4) scale(.1 -.1)">
<use xlink:href="#q"/>
<use x="61.181641" xlink:href="#at"/>
<use x="124.658203" xlink:href="#d"/>
<use x="186.181641" xlink:href="#j"/>
</g>
</g>
<g clip-path="url(#a)">
<g transform="translate(304.44 486.4) scale(.1 -.1)">
<use xlink:href="#o"/>
<use x="52.099609" xlink:href="#q"/>
</g>
</g>
<g clip-path="url(#a)">
<defs>
<path id="ao" d="m9.8125 72.906h9.8594v-72.906h-9.8594z"/>
</defs>
<g transform="translate(359.37 486.4) scale(.1 -.1)">
<use xlink:href="#ao"/>
</g>
</g>
<g clip-path="url(#a)">
<defs>
<path id="ax" d="m45.406 46.391v29.594h8.9844v-75.984h-8.9844v8.2031q-2.8281-4.875-7.1562-7.25-4.3125-2.375-10.375-2.375-9.9062 0-16.141 7.9062-6.2188 7.9219-6.2188 20.812t6.2188 20.797q6.2344 7.9062 16.141 7.9062 6.0625 0 10.375-2.375 4.3281-2.3594 7.1562-7.2344zm-30.609-19.094q0-9.9062 4.0781-15.547t11.203-5.6406 11.219 5.6406q4.1094 5.6406 4.1094 15.547t-4.1094 15.547q-4.0938 5.6406-11.219 5.6406t-11.203-5.6406-4.0781-15.547z"/>
</defs>
<g transform="translate(400.96 486.4) scale(.1 -.1)">
<use xlink:href="#s"/>
<use x="54.980469" xlink:href="#e"/>
<use x="116.259766" xlink:href="#h"/>
<use x="144.042969" xlink:href="#h"/>
<use x="171.826172" xlink:href="#d"/>
<use x="233.349609" xlink:href="#ax"/>
</g>
</g>
<g clip-path="url(#a)">
<g transform="translate(471.57 486.4) scale(.1 -.1)">
<use xlink:href="#m"/>
</g>
</g>
<g clip-path="url(#a)">
<g transform="translate(522.25 486.4) scale(.1 -.1)">
<use xlink:href="#v"/>
<use x="69.824219" xlink:href="#x"/>
<use x="127.787109" xlink:href="#m"/>
<use x="196.195312" xlink:href="#p"/>
<use x="259.671875" xlink:href="#p"/>
</g>
</g>
<g clip-path="url(#a)">
<defs>
<path id="ap" d="m59.516 10.406v19.578h-16.109v8.1094h25.875v-31.312q-5.7031-4.0469-12.594-6.125-6.875-2.0781-14.688-2.0781-17.094 0-26.75 9.9844-9.6406 10-9.6406 27.812 0 17.875 9.6406 27.859 9.6562 9.9844 26.75 9.9844 7.125 0 13.547-1.7656 6.4219-1.75 11.844-5.1719v-10.5q-5.4688 4.6406-11.625 6.9844t-12.938 2.3438q-13.391 0-20.109-7.4688-6.7031-7.4688-6.7031-22.266 0-14.75 6.7031-22.219 6.7188-7.4688 20.109-7.4688 5.2188 0 9.3125 0.90625 4.1094 0.90625 7.375 2.8125z"/>
</defs>
<g transform="translate(587.74 486.4) scale(.1 -.1)">
<use xlink:href="#ap"/>
<use x="77.490234" xlink:href="#e"/>
<use x="138.769531" xlink:href="#f"/>
<use x="179.882812" xlink:href="#e"/>
<use x="241.162109" xlink:href="#ak"/>
<use x="304.638672" xlink:href="#d"/>
</g>
</g>
<g clip-path="url(#a)">
<g transform="translate(663.3 486.4) scale(.1 -.1)">
<use xlink:href="#u"/>
<use x="77.001953" xlink:href="#q"/>
<use x="138.183594" xlink:href="#q"/>
<use x="199.365234" xlink:href="#f"/>
<use x="240.478516" xlink:href="#o"/>
</g>
</g>
<g clip-path="url(#a)">
<g transform="translate(748.12 486.4) scale(.1 -.1)">
<use xlink:href="#u"/>
<use x="77.001953" xlink:href="#f"/>
</g>
</g>
<g clip-path="url(#a)">
<g transform="translate(813.27 486.4) scale(.1 -.1)">
<use xlink:href="#p"/>
<use x="63.476562" xlink:href="#d"/>
<use x="125" xlink:href="#f"/>
<use x="166.113281" xlink:href="#ai"/>
<use x="225.292969" xlink:href="#k"/>
<use x="253.076172" xlink:href="#s"/>
<use x="308.056641" xlink:href="#d"/>
<use x="369.580078" xlink:href="#o"/>
</g>
</g>
<g clip-path="url(#a)">
<defs>
<path id="g" d="m10.688 12.406h10.312v-12.406h-10.312z"/>
</defs>
<g transform="translate(917.32 486.4) scale(.1 -.1)">
<use xlink:href="#g"/>
</g>
</g>
<g clip-path="url(#a)">
<defs>
<path id="c" d="m12.406 8.2969h16.109v55.625l-17.531-3.5156v8.9844l17.438 3.5156h9.8594v-64.609h16.109v-8.2969h-41.984z"/>
</defs>
<g transform="translate(273.53 25.79) scale(.1 -.1)">
<use xlink:href="#c"/>
<use x="63.623047" xlink:href="#g"/>
<use x="95.410156" xlink:href="#c"/>
</g>
</g>
<g clip-path="url(#a)">
<defs>
<path id="n" d="m19.188 8.2969h34.422v-8.2969h-46.281v8.2969q5.6094 5.8125 15.297 15.594 9.7031 9.7969 12.188 12.641 4.7344 5.3125 6.6094 9 1.8906 3.6875 1.8906 7.25 0 5.8125-4.0781 9.4688-4.0781 3.6719-10.625 3.6719-4.6406 0-9.7969-1.6094-5.1406-1.6094-11-4.8906v9.9688q5.9531 2.3906 11.125 3.6094 5.1875 1.2188 9.4844 1.2188 11.328 0 18.062-5.6719 6.7344-5.6562 6.7344-15.125 0-4.5-1.6875-8.5312-1.6719-4.0156-6.125-9.4844-1.2188-1.4219-7.7656-8.1875-6.5312-6.7656-18.453-18.922z"/>
</defs>
<g transform="translate(49.899 303.83) scale(.1 -.1)">
<use xlink:href="#c"/>
<use x="63.623047" xlink:href="#g"/>
<use x="95.410156" xlink:href="#n"/>
</g>
</g>
<g clip-path="url(#a)">
<defs>
<path id="ae" d="m40.578 39.312q7.0781-1.5156 11.047-6.3125 3.9844-4.7812 3.9844-11.812 0-10.781-7.4219-16.703-7.4219-5.9062-21.094-5.9062-4.5781 0-9.4375 0.90625t-10.031 2.7188v9.5156q4.0938-2.3906 8.9688-3.6094 4.8906-1.2188 10.219-1.2188 9.2656 0 14.125 3.6562t4.8594 10.641q0 6.4531-4.5156 10.078-4.5156 3.6406-12.562 3.6406h-8.5v8.1094h8.8906q7.2656 0 11.125 2.9062t3.8594 8.375q0 5.6094-3.9844 8.6094-3.9688 3.0156-11.391 3.0156-4.0625 0-8.7031-0.89062-4.6406-0.875-10.203-2.7188v8.7812q5.625 1.5625 10.531 2.3438t9.25 0.78125q11.234 0 17.766-5.1094 6.5469-5.0938 6.5469-13.781 0-6.0625-3.4688-10.234t-9.8594-5.7812z"/>
</defs>
<g transform="translate(164.22 118.73) scale(.1 -.1)">
<use xlink:href="#c"/>
<use x="63.623047" xlink:href="#g"/>
<use x="95.410156" xlink:href="#ae"/>
</g>
</g>
<g clip-path="url(#a)">
<defs>
<path id="ad" d="m37.797 64.312-24.906-38.922h24.906zm-2.5938 8.5938h12.406v-47.516h10.406v-8.2031h-10.406v-17.188h-9.8125v17.188h-32.906v9.5156z"/>
</defs>
<g transform="translate(302.16 395.75) scale(.1 -.1)">
<use xlink:href="#c"/>
<use x="63.623047" xlink:href="#g"/>
<use x="95.410156" xlink:href="#ad"/>
</g>
</g>
<g clip-path="url(#a)">
<defs>
<path id="ac" d="m10.797 72.906h38.719v-8.3125h-29.688v-17.859q2.1406 0.73438 4.2812 1.0938 2.1562 0.35938 4.3125 0.35938 12.203 0 19.328-6.6875 7.1406-6.6875 7.1406-18.109 0-11.766-7.3281-18.297-7.3281-6.5156-20.656-6.5156-4.5938 0-9.3594 0.78125-4.75 0.78125-9.8281 2.3438v9.9219q4.3906-2.3906 9.0781-3.5625t9.9062-1.1719q8.4531 0 13.375 4.4375 4.9375 4.4375 4.9375 12.062 0 7.6094-4.9375 12.047-4.9219 4.4531-13.375 4.4531-3.9531 0-7.8906-0.875-3.9219-0.875-8.0156-2.7344z"/>
</defs>
<g transform="translate(577.84 303.83) scale(.1 -.1)">
<use xlink:href="#c"/>
<use x="63.623047" xlink:href="#g"/>
<use x="95.410156" xlink:href="#ac"/>
</g>
</g>
<g clip-path="url(#a)">
<defs>
<path id="ab" d="m8.2031 72.906h46.875v-4.2031l-26.469-68.703h-10.297l24.906 64.594h-35.016z"/>
</defs>
<g transform="translate(352.89 395.75) scale(.1 -.1)">
<use xlink:href="#c"/>
<use x="63.623047" xlink:href="#g"/>
<use x="95.410156" xlink:href="#ab"/>
</g>
</g>
<g clip-path="url(#a)">
<defs>
<path id="aa" d="m31.781 34.625q-7.0312 0-11.062-3.7656-4.0156-3.7656-4.0156-10.344 0-6.5938 4.0156-10.359 4.0312-3.7656 11.062-3.7656t11.078 3.7812q4.0625 3.7969 4.0625 10.344 0 6.5781-4.0312 10.344-4.0156 3.7656-11.109 3.7656zm-9.8594 4.1875q-6.3438 1.5625-9.8906 5.9062-3.5312 4.3594-3.5312 10.609 0 8.7344 6.2188 13.812 6.2344 5.0781 17.062 5.0781 10.891 0 17.094-5.0781t6.2031-13.812q0-6.25-3.5469-10.609-3.5312-4.3438-9.8281-5.9062 7.125-1.6562 11.094-6.5 3.9844-4.8281 3.9844-11.797 0-10.609-6.4688-16.281-6.4688-5.6562-18.531-5.6562-12.047 0-18.531 5.6562-6.4688 5.6719-6.4688 16.281 0 6.9688 4 11.797 4.0156 4.8438 11.141 6.5zm-3.6094 15.578q0-5.6562 3.5312-8.8281 3.5469-3.1719 9.9375-3.1719 6.3594 0 9.9375 3.1719 3.5938 3.1719 3.5938 8.8281 0 5.6719-3.5938 8.8438-3.5781 3.1719-9.9375 3.1719-6.3906 0-9.9375-3.1719-3.5312-3.1719-3.5312-8.8438z"/>
</defs>
<g transform="translate(407.85 395.75) scale(.1 -.1)">
<use xlink:href="#c"/>
<use x="63.623047" xlink:href="#g"/>
<use x="95.410156" xlink:href="#aa"/>
</g>
</g>
<g clip-path="url(#a)">
<defs>
<path id="z" d="m10.984 1.5156v8.9844q3.7188-1.7656 7.5156-2.6875 3.8125-0.92188 7.4844-0.92188 9.7656 0 14.906 6.5625 5.1562 6.5625 5.8906 19.953-2.8281-4.2031-7.1875-6.4531-4.3438-2.25-9.6094-2.25-10.938 0-17.312 6.6094-6.375 6.625-6.375 18.109 0 11.219 6.6406 18 6.6406 6.7969 17.672 6.7969 12.656 0 19.312-9.7031 6.6719-9.6875 6.6719-28.141 0-17.234-8.1875-27.516-8.1719-10.281-21.984-10.281-3.7188 0-7.5312 0.73438-3.7969 0.73438-7.9062 2.2031zm19.625 30.906q6.6406 0 10.516 4.5312 3.8906 4.5469 3.8906 12.469 0 7.8594-3.8906 12.422-3.875 4.5625-10.516 4.5625t-10.516-4.5625-3.875-12.422q0-7.9219 3.875-12.469 3.875-4.5312 10.516-4.5312z"/>
</defs>
<g transform="translate(639.67 395.75) scale(.1 -.1)">
<use xlink:href="#c"/>
<use x="63.623047" xlink:href="#g"/>
<use x="95.410156" xlink:href="#z"/>
</g>
</g>
<g clip-path="url(#a)">
<defs>
<path id="af" d="m31.781 66.406q-7.6094 0-11.453-7.5-3.8281-7.4844-3.8281-22.531 0-14.984 3.8281-22.484 3.8438-7.5 11.453-7.5 7.6719 0 11.5 7.5 3.8438 7.5 3.8438 22.484 0 15.047-3.8438 22.531-3.8281 7.5-11.5 7.5zm0 7.8125q12.266 0 18.734-9.7031 6.4688-9.6875 6.4688-28.141 0-18.406-6.4688-28.109-6.4688-9.6875-18.734-9.6875-12.25 0-18.719 9.6875-6.4688 9.7031-6.4688 28.109 0 18.453 6.4688 28.141 6.4688 9.7031 18.719 9.7031z"/>
</defs>
<g transform="translate(102.38 211.44) scale(.1 -.1)">
<use xlink:href="#c"/>
<use x="63.623047" xlink:href="#g"/>
<use x="95.410156" xlink:href="#c"/>
<use x="159.033203" xlink:href="#af"/>
</g>
</g>
<g clip-path="url(#a)">
<g transform="translate(138.32 395.75) scale(.1 -.1)">
<use xlink:href="#c"/>
<use x="63.623047" xlink:href="#g"/>
<use x="95.410156" xlink:href="#c"/>
<use x="159.033203" xlink:href="#c"/>
</g>
</g>
<g clip-path="url(#a)">
<g transform="translate(172.14 395.75) scale(.1 -.1)">
<use xlink:href="#c"/>
<use x="63.623047" xlink:href="#g"/>
<use x="95.410156" xlink:href="#c"/>
<use x="159.033203" xlink:href="#n"/>
</g>
</g>
<g clip-path="url(#a)">
<g transform="translate(231.33 303.83) scale(.1 -.1)">
<use xlink:href="#c"/>
<use x="63.623047" xlink:href="#g"/>
<use x="95.410156" xlink:href="#c"/>
<use x="159.033203" xlink:href="#ae"/>
</g>
</g>
<g clip-path="url(#a)">
<g transform="translate(210.19 395.75) scale(.1 -.1)">
<use xlink:href="#c"/>
<use x="63.623047" xlink:href="#g"/>
<use x="95.410156" xlink:href="#c"/>
<use x="159.033203" xlink:href="#ad"/>
</g>
</g>
<g clip-path="url(#a)">
<g transform="translate(252.47 395.75) scale(.1 -.1)">
<use xlink:href="#c"/>
<use x="63.623047" xlink:href="#g"/>
<use x="95.410156" xlink:href="#c"/>
<use x="159.033203" xlink:href="#ac"/>
</g>
</g>
<g clip-path="url(#a)">
<defs>
<path id="ar" d="m33.016 40.375q-6.6406 0-10.531-4.5469-3.875-4.5312-3.875-12.438 0-7.8594 3.875-12.438 3.8906-4.5625 10.531-4.5625t10.516 4.5625q3.875 4.5781 3.875 12.438 0 7.9062-3.875 12.438-3.875 4.5469-10.516 4.5469zm19.578 30.922v-8.9844q-3.7188 1.75-7.5 2.6719-3.7812 0.9375-7.5 0.9375-9.7656 0-14.922-6.5938-5.1406-6.5938-5.875-19.922 2.875 4.25 7.2188 6.5156 4.3594 2.2656 9.5781 2.2656 10.984 0 17.359-6.6719 6.375-6.6562 6.375-18.125 0-11.234-6.6406-18.031-6.6406-6.7812-17.672-6.7812-12.656 0-19.344 9.6875-6.6875 9.7031-6.6875 28.109 0 17.281 8.2031 27.562t22.016 10.281q3.7188 0 7.5-0.73438t7.8906-2.1875z"/>
</defs>
<g transform="translate(96.042 303.83) scale(.1 -.1)">
<use xlink:href="#c"/>
<use x="63.623047" xlink:href="#g"/>
<use x="95.410156" xlink:href="#c"/>
<use x="159.033203" xlink:href="#ar"/>
</g>
</g>
<g clip-path="url(#a)">
<g transform="translate(108.72 395.75) scale(.1 -.1)">
<use xlink:href="#c"/>
<use x="63.623047" xlink:href="#g"/>
<use x="95.410156" xlink:href="#c"/>
<use x="159.033203" xlink:href="#ab"/>
</g>
</g>
<g clip-path="url(#a)">
<g transform="translate(83.358 395.75) scale(.1 -.1)">
<use xlink:href="#c"/>
<use x="63.623047" xlink:href="#g"/>
<use x="95.410156" xlink:href="#c"/>
<use x="159.033203" xlink:href="#aa"/>
</g>
</g>
<g clip-path="url(#a)">
<g transform="translate(32.625 395.75) scale(.1 -.1)">
<use xlink:href="#c"/>
<use x="63.623047" xlink:href="#g"/>
<use x="95.410156" xlink:href="#c"/>
<use x="159.033203" xlink:href="#z"/>
</g>
</g>
<g clip-path="url(#a)">
<g transform="translate(45.308 395.75) scale(.1 -.1)">
<use xlink:href="#c"/>
<use x="63.623047" xlink:href="#g"/>
<use x="95.410156" xlink:href="#n"/>
<use x="159.033203" xlink:href="#af"/>
</g>
</g>
<g clip-path="url(#a)">
<g transform="translate(62.219 395.75) scale(.1 -.1)">
<use xlink:href="#c"/>
<use x="63.623047" xlink:href="#g"/>
<use x="95.410156" xlink:href="#n"/>
<use x="159.033203" xlink:href="#c"/>
</g>
</g>
<g clip-path="url(#a)">
<g transform="translate(907.78 395.75) scale(.1 -.1)">
<use xlink:href="#c"/>
<use x="63.623047" xlink:href="#g"/>
<use x="95.410156" xlink:href="#n"/>
<use x="159.033203" xlink:href="#n"/>
</g>
</g>
<defs>
<clipPath id="a">
<rect width="962.67" height="506.67"/>
</clipPath>
</defs>
</svg>
