<?xml version="1.0" encoding="UTF-8"?>
<!DOCTYPE svg  PUBLIC '-//W3C//DTD SVG 1.1//EN'  'http://www.w3.org/Graphics/SVG/1.1/DTD/svg11.dtd'>
<svg width="1570.7pt" height="826.67pt" version="1.1" viewBox="0 0 1570.7 826.67" xmlns="http://www.w3.org/2000/svg" xmlns:xlink="http://www.w3.org/1999/xlink">
<defs>
<style type="text/css">*{stroke-linecap:butt;stroke-linejoin:round;}</style>
</defs>
<path d="m0 826.67h1570.7v-826.67h-1570.7z" fill="#fff"/>
<g fill="none" stroke="#000">
<path d="m398.29 37.576-316.93 432.15" clip-path="url(#a)"/>
<path d="m398.29 37.576-237.15 646.22" clip-path="url(#a)"/>
<path d="m398.29 37.576-185.47 646.22" clip-path="url(#a)"/>
<path d="m398.29 37.576-99.748 108.35" clip-path="url(#a)"/>
<path d="m398.29 37.576 385.68 539.47" clip-path="url(#a)"/>
<path d="m398.29 37.576 548.87 646.22" clip-path="url(#a)"/>
<path d="m398.29 37.576 654.26 432.15" clip-path="url(#a)"/>
<path d="m398.29 37.576-277.94 646.22" clip-path="url(#a)"/>
<path d="m398.29 37.576-258.9 646.22" clip-path="url(#a)"/>
<path d="m398.29 37.576-212.67 646.22" clip-path="url(#a)"/>
<path d="m81.366 469.73-9.9725 214.07" clip-path="url(#a)"/>
<path d="m81.366 469.73 9.9725 107.32" clip-path="url(#a)"/>
<path d="m161.15 683.8v105.29" clip-path="url(#a)"/>
<path d="m212.82 683.8v105.29" clip-path="url(#a)"/>
<path d="m298.55 145.93-55.806 537.87" clip-path="url(#a)"/>
<path d="m298.55 145.93-23.168 537.87" clip-path="url(#a)"/>
<path d="m298.55 145.93 78.974 108.17" clip-path="url(#a)"/>
<path d="m783.97 577.05-92.472 106.76" clip-path="url(#a)"/>
<path d="m783.97 577.05-32.637 106.76" clip-path="url(#a)"/>
<path d="m783.97 577.05 29.917 106.76" clip-path="url(#a)"/>
<path d="m783.97 577.05 95.192 106.76" clip-path="url(#a)"/>
<path d="m947.16 683.8v105.29" clip-path="url(#a)"/>
<path d="m1052.6 469.73-34.677 214.07" clip-path="url(#a)"/>
<path d="m1052.6 469.73 76.833 107.32" clip-path="url(#a)"/>
<path d="m1052.6 469.73 318.89 107.32" clip-path="url(#a)"/>
<path d="m1052.6 469.73-361.05 214.07" clip-path="url(#a)" stroke-dasharray="3.7,1.6"/>
<path d="m1017.9 683.8v105.29" clip-path="url(#a)"/>
<path d="m1129.4 577.05-38.077 106.76" clip-path="url(#a)"/>
<path d="m1129.4 577.05 38.077 106.76" clip-path="url(#a)"/>
<path d="m1371.4 577.05-125.11 106.76" clip-path="url(#a)"/>
<path d="m1371.4 577.05-43.516 106.76" clip-path="url(#a)"/>
<path d="m1371.4 577.05 40.797 106.76" clip-path="url(#a)"/>
<path d="m1371.4 577.05 127.83 106.76" clip-path="url(#a)"/>
<path d="m1246.3 683.8v105.29" clip-path="url(#a)"/>
<path d="m1327.9 683.8v105.29" clip-path="url(#a)"/>
<path d="m1412.2 683.8v105.29" clip-path="url(#a)"/>
<path d="m1091.3 683.8v105.29" clip-path="url(#a)"/>
<path d="m1167.5 683.8v105.29" clip-path="url(#a)"/>
<path d="m691.5 683.8v105.29" clip-path="url(#a)"/>
<path d="m751.34 683.8v105.29" clip-path="url(#a)"/>
<path d="m813.89 683.8v105.29" clip-path="url(#a)"/>
<path d="m879.17 683.8v105.29" clip-path="url(#a)"/>
<path d="m242.74 683.8v105.29" clip-path="url(#a)"/>
<path d="m275.38 683.8v105.29" clip-path="url(#a)"/>
<path d="m377.52 254.1-66.785 429.7" clip-path="url(#a)"/>
<path d="m377.52 254.1-28.709 429.7" clip-path="url(#a)"/>
<path d="m377.52 254.1 95.494 107.95" clip-path="url(#a)"/>
<path d="m310.73 683.8v105.29" clip-path="url(#a)"/>
<path d="m348.81 683.8v105.29" clip-path="url(#a)"/>
<path d="m473.01 362.05-83.406 321.75" clip-path="url(#a)"/>
<path d="m473.01 362.05-39.89 321.75" clip-path="url(#a)"/>
<path d="m473.01 362.05 6.3461 321.75" clip-path="url(#a)"/>
<path d="m473.01 362.05 116.95 107.68" clip-path="url(#a)"/>
<path d="m389.61 683.8v105.29" clip-path="url(#a)"/>
<path d="m433.12 683.8v105.29" clip-path="url(#a)"/>
<path d="m479.36 683.8v105.29" clip-path="url(#a)"/>
<path d="m589.96 469.73-61.648 214.07" clip-path="url(#a)"/>
<path d="m589.96 469.73 17.225 107.32" clip-path="url(#a)"/>
<path d="m589.96 469.73 44.423 214.07" clip-path="url(#a)"/>
<path d="m528.32 683.8v105.29" clip-path="url(#a)"/>
<path d="m607.19 577.05 27.198 106.76" clip-path="url(#a)" stroke-dasharray="3.7,1.6"/>
<path d="m607.19 577.05-27.198 106.76" clip-path="url(#a)"/>
<path d="m634.39 683.8v105.29" clip-path="url(#a)"/>
<path d="m579.99 683.8v105.29" clip-path="url(#a)"/>
<path d="m71.394 683.8v105.29" clip-path="url(#a)"/>
<path d="m91.339 577.05-11.786 106.76" clip-path="url(#a)"/>
<path d="m91.339 577.05-0.90659 106.76" clip-path="url(#a)"/>
<path d="m91.339 577.05 12.692 106.76" clip-path="url(#a)"/>
<path d="m79.553 683.8v105.29" clip-path="url(#a)"/>
<path d="m90.432 683.8v105.29" clip-path="url(#a)"/>
<path d="m104.03 683.8v105.29" clip-path="url(#a)"/>
<path d="m120.35 683.8v105.29" clip-path="url(#a)"/>
<path d="m139.39 683.8v105.29" clip-path="url(#a)"/>
<path d="m185.62 683.8v105.29" clip-path="url(#a)"/>
<path d="m1499.3 683.8v105.29" clip-path="url(#a)"/>
</g>
<path d="m243.11 259.79 3.5579-4.8515q1.4193-1.9353-0.51604-3.3547l-6.2435-4.5788q-1.9353-1.4193-3.3547 0.51604l-3.5579 4.8515q-1.4193 1.9353 0.51604 3.3547l6.2435 4.5788q1.9353 1.4193 3.3547-0.51604z" clip-path="url(#a)" fill="#fff" stroke="#fff"/>
<g clip-path="url(#a)">
<defs>
<path id="ab" d="m9.8125 72.906h9.8594v-29.891h35.844v29.891h9.8594v-72.906h-9.8594v34.719h-35.844v-34.719h-9.8594z"/>
</defs>
<g transform="translate(239.83 257.38) rotate(-53.745) scale(.08 -.08)">
<use xlink:href="#ab"/>
</g>
</g>
<path d="m284.84 364.94 1.5356-4.1846q0.82682-2.2531-1.4263-3.0799l-7.2685-2.6673q-2.2531-0.82682-3.0799 1.4263l-1.5356 4.1846q-0.82682 2.2531 1.4263 3.0799l7.2685 2.6673q2.2531 0.82682 3.0799-1.4263z" clip-path="url(#a)" fill="#fff" stroke="#fff"/>
<g clip-path="url(#a)">
<defs>
<path id="ag" d="m9.8125 72.906h9.8594v-64.609h35.5v-8.2969h-45.359z"/>
</defs>
<g transform="translate(281.02 363.54) rotate(-69.848) scale(.08 -.08)">
<use xlink:href="#ag"/>
</g>
</g>
<path d="m310.97 364.56 1.2297-4.2845q0.66209-2.3069-1.6448-2.969l-7.4421-2.1359q-2.3069-0.66209-2.969 1.6448l-1.2297 4.2845q-0.66209 2.3069 1.6448 2.969l7.4421 2.1359q2.3069 0.66209 2.969-1.6448z" clip-path="url(#a)" fill="#fff" stroke="#fff"/>
<g clip-path="url(#a)">
<g transform="translate(307.06 363.44) rotate(-73.986) scale(.08 -.08)">
<use xlink:href="#ag"/>
</g>
</g>
<path d="m351 98.212 4.0748-4.4262q1.6255-1.7657-0.14021-3.3912l-5.6963-5.2439q-1.7657-1.6255-3.3912 0.14021l-4.0748 4.4262q-1.6255 1.7657 0.14021 3.3912l5.6963 5.2439q1.7657 1.6255 3.3912-0.14021z" clip-path="url(#a)" fill="#fff" stroke="#fff"/>
<g clip-path="url(#a)">
<g transform="translate(348.01 95.46) rotate(-47.368) scale(.08 -.08)">
<use xlink:href="#ab"/>
</g>
</g>
<path d="m584.28 308.51 3.4989 4.8941q1.3958 1.9524 3.3482 0.55657l6.2984-4.5029q1.9524-1.3958 0.55657-3.3482l-3.4989-4.8941q-1.3958-1.9524-3.3482-0.55657l-6.2984 4.5029q-1.9524 1.3958-0.55657 3.3482z" clip-path="url(#a)" fill="#fff" stroke="#fff"/>
<g clip-path="url(#a)">
<g transform="translate(587.59 306.15) rotate(54.438) scale(.08 -.08)">
<use xlink:href="#ab"/>
</g>
</g>
<path d="m666.5 363.05 2.8856 3.3974q1.5537 1.8292 3.3829 0.27559l5.9012-5.0122q1.8292-1.5537 0.27559-3.3829l-2.8856-3.3974q-1.5537-1.8292-3.3829-0.27559l-5.9012 5.0122q-1.8292 1.5537-0.27559 3.3829z" clip-path="url(#a)" fill="#fff" stroke="#fff"/>
<g clip-path="url(#a)">
<g transform="translate(669.6 360.42) rotate(49.657) scale(.08 -.08)">
<use xlink:href="#ag"/>
</g>
</g>
<path d="m719.46 257.23 5.02 3.3158q2.0026 1.3228 3.3253-0.67982l4.2673-6.4604q1.3228-2.0026-0.67982-3.3253l-5.02-3.3158q-2.0026-1.3228-3.3253 0.67982l-4.2673 6.4604q-1.3228 2.0026 0.67982 3.3253z" clip-path="url(#a)" fill="#fff" stroke="#fff"/>
<g clip-path="url(#a)">
<g transform="translate(721.69 253.84) rotate(33.446) scale(.08 -.08)">
<use xlink:href="#ab"/>
</g>
</g>
<path d="m263.93 365.86 2.3134-5.3786q0.94826-2.2047-1.2565-3.153l-7.1125-3.0591q-2.2047-0.94826-3.153 1.2565l-2.3134 5.3786q-0.94826 2.2047 1.2565 3.153l7.1125 3.0591q2.2047 0.94826 3.153-1.2565z" clip-path="url(#a)" fill="#fff" stroke="#fff"/>
<g clip-path="url(#a)">
<defs>
<path id="aa" d="m8.6875 72.906h9.9219v-44.297q0-11.719 4.2344-16.875 4.25-5.1406 13.781-5.1406 9.4688 0 13.719 5.1406 4.25 5.1562 4.25 16.875v44.297h9.9062v-45.516q0-14.25-7.0625-21.531-7.0469-7.2812-20.812-7.2812-13.828 0-20.891 7.2812-7.0469 7.2812-7.0469 21.531z"/>
</defs>
<g transform="translate(260.19 364.25) rotate(-66.727) scale(.08 -.08)">
<use xlink:href="#aa"/>
</g>
</g>
<path d="m273.57 365.74 2.1775-5.435q0.89257-2.2279-1.3353-3.1204l-7.1871-2.8795q-2.2279-0.89257-3.1204 1.3353l-2.1775 5.435q-0.89257 2.2279 1.3353 3.1204l7.1871 2.8795q2.2278 0.89257 3.1204-1.3353z" clip-path="url(#a)" fill="#fff" stroke="#fff"/>
<g clip-path="url(#a)">
<g transform="translate(269.8 364.23) rotate(-68.167) scale(.08 -.08)">
<use xlink:href="#aa"/>
</g>
</g>
<path d="m297 365.43 1.8303-5.5616q0.75024-2.2797-1.5295-3.03l-7.3545-2.4203q-2.2797-0.75024-3.03 1.5295l-1.8303 5.5616q-0.75024 2.2797 1.5295 3.03l7.3545 2.4203q2.2797 0.75024 3.03-1.5295z" clip-path="url(#a)" fill="#fff" stroke="#fff"/>
<g clip-path="url(#a)">
<g transform="translate(293.14 364.16) rotate(-71.784) scale(.08 -.08)">
<use xlink:href="#aa"/>
</g>
</g>
<path d="m82.526 579.59 0.23634-5.0732q0.11168-2.3974-2.2857-2.5091l-7.7341-0.36029q-2.3974-0.11168-2.5091 2.2857l-0.23634 5.0732q-0.11168 2.3974 2.2857 2.5091l7.7341 0.3603q2.3974 0.11168 2.5091-2.2857z" clip-path="url(#a)" fill="#fff" stroke="#fff"/>
<g clip-path="url(#a)">
<defs>
<path id="am" d="m53.516 70.516v-9.625q-5.6094 2.6875-10.594 4-4.9844 1.3281-9.625 1.3281-8.0469 0-12.422-3.125t-4.375-8.8906q0-4.8438 2.9062-7.3125 2.9062-2.4531 11.016-3.9688l5.9531-1.2188q11.031-2.1094 16.281-7.4062t5.25-14.172q0-10.609-7.1094-16.078-7.0938-5.4688-20.812-5.4688-5.1719 0-11.016 1.1719-5.8281 1.1719-12.078 3.4688v10.156q6-3.3594 11.766-5.0781 5.7656-1.7031 11.328-1.7031 8.4375 0 13.031 3.3125 4.5938 3.3281 4.5938 9.4844 0 5.3594-3.2969 8.3906t-10.812 4.5469l-6.0156 1.1719q-11.031 2.1875-15.969 6.875-4.9219 4.6875-4.9219 13.047 0 9.6719 6.8125 15.234t18.766 5.5625q5.1406 0 10.453-0.9375 5.3281-0.92188 10.891-2.7656z"/>
</defs>
<g transform="translate(78.467 579.4) rotate(-87.333) scale(.08 -.08)">
<use xlink:href="#am"/>
</g>
</g>
<path d="m79.855 521.24 0.50636 5.449q0.22207 2.3897 2.6118 2.1676l7.7093-0.7164q2.3897-0.22207 2.1676-2.6118l-0.50636-5.449q-0.22207-2.3897-2.6118-2.1676l-7.7093 0.7164q-2.3897 0.22207-2.1676 2.6118z" clip-path="url(#a)" fill="#fff" stroke="#fff"/>
<g clip-path="url(#a)">
<defs>
<path id="q" d="m34.188 63.188-13.391-36.281h26.812zm-5.5781 9.7188h11.188l27.781-72.906h-10.25l-6.6406 18.703h-32.859l-6.6406-18.703h-10.406z"/>
</defs>
<g transform="translate(83.901 520.87) rotate(84.691) scale(.08 -.08)">
<use xlink:href="#q"/>
</g>
</g>
<path d="m154.88 719.54v33.808q0 2.4 2.4 2.4h7.7425q2.4 0 2.4-2.4v-33.808q0-2.4-2.4-2.4h-7.7425q-2.4 0-2.4 2.4z" clip-path="url(#a)" fill="#fff" stroke="#fff"/>
<g clip-path="url(#a)">
<defs>
<path id="l" d="m-0.29688 72.906h61.672v-8.3125h-25.875v-64.594h-9.9062v64.594h-25.891z"/>
<path id="e" d="m56.203 29.594v-4.3906h-41.312q0.59375-9.2812 5.5938-14.141t13.938-4.8594q5.1719 0 10.031 1.2656t9.6562 3.8125v-8.5q-4.8438-2.0469-9.9219-3.125t-10.297-1.0781q-13.094 0-20.734 7.6094-7.6406 7.625-7.6406 20.625 0 13.422 7.25 21.297 7.25 7.8906 19.562 7.8906 11.031 0 17.453-7.1094 6.4219-7.0938 6.4219-19.297zm-8.9844 2.6406q-0.09375 7.3594-4.125 11.75-4.0312 4.4062-10.672 4.4062-7.5156 0-12.031-4.25t-5.2031-11.969z"/>
<path id="f" d="m41.109 46.297q-1.5156 0.875-3.2969 1.2812-1.7812 0.42188-3.9219 0.42188-7.625 0-11.703-4.9531t-4.0781-14.234v-28.812h-9.0312v54.688h9.0312v-8.5q2.8438 4.9844 7.375 7.3906 4.5469 2.4219 11.047 2.4219 0.92188 0 2.0469-0.125 1.125-0.10938 2.4844-0.35938z"/>
<path id="j" d="m52 44.188q3.375 6.0625 8.0625 8.9375t11.031 2.875q8.5469 0 13.188-5.9844 4.6406-5.9688 4.6406-17v-33.016h-9.0312v32.719q0 7.8594-2.7969 11.656-2.7812 3.8125-8.4844 3.8125-6.9844 0-11.047-4.6406-4.0469-4.625-4.0469-12.641v-30.906h-9.0312v32.719q0 7.9062-2.7812 11.688t-8.5938 3.7812q-6.8906 0-10.953-4.6562-4.0469-4.6562-4.0469-12.625v-30.906h-9.0312v54.688h9.0312v-8.5q3.0781 5.0312 7.375 7.4219t10.203 2.3906q5.9688 0 10.141-3.0312 4.1719-3.0156 6.1719-8.7812z"/>
<path id="g" d="m9.4219 54.688h8.9844v-54.688h-8.9844zm0 21.297h8.9844v-11.391h-8.9844z"/>
<path id="h" d="m54.891 33.016v-33.016h-8.9844v32.719q0 7.7656-3.0312 11.609-3.0312 3.8594-9.0781 3.8594-7.2812 0-11.484-4.6406-4.2031-4.625-4.2031-12.641v-30.906h-9.0312v54.688h9.0312v-8.5q3.2344 4.9375 7.5938 7.375 4.375 2.4375 10.094 2.4375 9.4219 0 14.25-5.8281 4.8438-5.8281 4.8438-17.156z"/>
<path id="i" d="m34.281 27.484q-10.891 0-15.094-2.4844t-4.2031-8.5q0-4.7812 3.1562-7.5938 3.1562-2.7969 8.5625-2.7969 7.4844 0 12 5.2969t4.5156 14.078v2zm17.922 3.7188v-31.203h-8.9844v8.2969q-3.0781-4.9688-7.6719-7.3438t-11.234-2.375q-8.3906 0-13.359 4.7188-4.9531 4.7188-4.9531 12.625 0 9.2188 6.1719 13.906 6.1875 4.6875 18.438 4.6875h12.609v0.89062q0 6.2031-4.0781 9.5938t-11.453 3.3906q-4.6875 0-9.1406-1.125-4.4375-1.125-8.5312-3.375v8.3125q4.9219 1.9062 9.5625 2.8438 4.6406 0.95312 9.0312 0.95312 11.875 0 17.734-6.1562 5.8594-6.1406 5.8594-18.641z"/>
<path id="k" d="m9.4219 75.984h8.9844v-75.984h-8.9844z"/>
</defs>
<g transform="translate(158.94 719.54) rotate(90) scale(.08 -.08)">
<use xlink:href="#l"/>
<use x="44.083984" xlink:href="#e"/>
<use x="105.607422" xlink:href="#f"/>
<use x="144.970703" xlink:href="#j"/>
<use x="242.382812" xlink:href="#g"/>
<use x="270.166016" xlink:href="#h"/>
<use x="333.544922" xlink:href="#i"/>
<use x="394.824219" xlink:href="#k"/>
</g>
</g>
<path d="m206.55 719.54v33.808q0 2.4 2.4 2.4h7.7425q2.4 0 2.4-2.4v-33.808q0-2.4-2.4-2.4h-7.7425q-2.4 0-2.4 2.4z" clip-path="url(#a)" fill="#fff" stroke="#fff"/>
<g clip-path="url(#a)">
<g transform="translate(210.61 719.54) rotate(90) scale(.08 -.08)">
<use xlink:href="#l"/>
<use x="44.083984" xlink:href="#e"/>
<use x="105.607422" xlink:href="#f"/>
<use x="144.970703" xlink:href="#j"/>
<use x="242.382812" xlink:href="#g"/>
<use x="270.166016" xlink:href="#h"/>
<use x="333.544922" xlink:href="#i"/>
<use x="394.824219" xlink:href="#k"/>
</g>
</g>
<path d="m276.6 418.23 0.56475-5.4433q0.24768-2.3872-2.1395-2.6349l-7.7012-0.79901q-2.3872-0.24768-2.6349 2.1395l-0.56475 5.4433q-0.24768 2.3872 2.1395 2.6349l7.7012 0.79901q2.3872 0.24768 2.6349-2.1395z" clip-path="url(#a)" fill="#fff" stroke="#fff"/>
<g clip-path="url(#a)">
<g transform="translate(272.56 417.81) rotate(-84.077) scale(.08 -.08)">
<use xlink:href="#q"/>
</g>
</g>
<path d="m293.12 417.54 0.20759-4.8193q0.10328-2.3978-2.2945-2.5011l-7.7353-0.33319q-2.3978-0.10328-2.5011 2.2945l-0.20759 4.8193q-0.10328 2.3978 2.2945 2.5011l7.7353 0.33319q2.3978 0.10328 2.5011-2.2945z" clip-path="url(#a)" fill="#fff" stroke="#fff"/>
<g clip-path="url(#a)">
<defs>
<path id="af" d="m19.672 64.797v-27.391h12.406q6.8906 0 10.641 3.5625 3.7656 3.5625 3.7656 10.156 0 6.5469-3.7656 10.109-3.75 3.5625-10.641 3.5625zm-9.8594 8.1094h22.266q12.266 0 18.531-5.5469 6.2812-5.5469 6.2812-16.234 0-10.797-6.2812-16.312-6.2656-5.5156-18.531-5.5156h-12.406v-29.297h-9.8594z"/>
</defs>
<g transform="translate(289.06 417.37) rotate(-87.534) scale(.08 -.08)">
<use xlink:href="#af"/>
</g>
</g>
<path d="m331.35 201.5 3.2269 4.4199q1.4152 1.9384 3.3535 0.52318l6.2532-4.5654q1.9384-1.4152 0.52318-3.3535l-3.2269-4.4199q-1.4152-1.9384-3.3535-0.52318l-6.2532 4.5654q-1.9384 1.4152-0.52318 3.3535z" clip-path="url(#a)" fill="#fff" stroke="#fff"/>
<g clip-path="url(#a)">
<g transform="translate(334.64 199.1) rotate(53.867) scale(.08 -.08)">
<use xlink:href="#q"/>
</g>
</g>
<path d="m740.69 636.6 3.583-4.1364q1.5714-1.8141-0.24271-3.3854l-5.8522-5.0693q-1.8141-1.5714-3.3854 0.24271l-3.583 4.1364q-1.5714 1.8141 0.24271 3.3854l5.8522 5.0693q1.8141 1.5714 3.3854-0.24271z" clip-path="url(#a)" fill="#fff" stroke="#fff"/>
<g clip-path="url(#a)">
<g transform="translate(737.61 633.94) rotate(-49.101) scale(.08 -.08)">
<use xlink:href="#q"/>
</g>
</g>
<path d="m772.75 635.2 1.801-5.8909q0.70167-2.2951-1.5935-2.9968l-7.4042-2.2636q-2.2951-0.70167-2.9968 1.5935l-1.801 5.8909q-0.70167 2.2951 1.5935 2.9968l7.4042 2.2636q2.2951 0.70167 2.9968-1.5935z" clip-path="url(#a)" fill="#fff" stroke="#fff"/>
<g clip-path="url(#a)">
<defs>
<path id="ar" d="m19.672 64.797v-56.688h11.922q15.094 0 22.094 6.8281 7 6.8438 7 21.594 0 14.641-7 21.453t-22.094 6.8125zm-9.8594 8.1094h20.266q21.188 0 31.094-8.8125 9.9219-8.8125 9.9219-27.562 0-18.859-9.9688-27.703-9.9531-8.8281-31.047-8.8281h-20.266z"/>
</defs>
<g transform="translate(768.87 634.01) rotate(-73.001) scale(.08 -.08)">
<use xlink:href="#ar"/>
</g>
</g>
<path d="m792.24 629.79 1.3017 4.6448q0.64764 2.311 2.9586 1.6633l7.4553-2.0893q2.311-0.64764 1.6633-2.9586l-1.3017-4.6448q-0.64764-2.311-2.9586-1.6633l-7.4553 2.0893q-2.311 0.64764-1.6633 2.9586z" clip-path="url(#a)" fill="#fff" stroke="#fff"/>
<g clip-path="url(#a)">
<g transform="translate(796.16 628.7) rotate(74.345) scale(.08 -.08)">
<use xlink:href="#af"/>
</g>
</g>
<path d="m825.07 632.55 3.6421 4.0845q1.5973 1.7913 3.3886 0.19402l5.7788-5.1529q1.7913-1.5973 0.19402-3.3886l-3.6421-4.0845q-1.5973-1.7913-3.3886-0.19402l-5.7788 5.1529q-1.7913 1.5973-0.19402 3.3886z" clip-path="url(#a)" fill="#fff" stroke="#fff"/>
<g clip-path="url(#a)">
<g transform="translate(828.1 629.85) rotate(48.277) scale(.08 -.08)">
<use xlink:href="#q"/>
</g>
</g>
<path d="m940.89 719.54v33.808q0 2.4 2.4 2.4h7.7425q2.4 0 2.4-2.4v-33.808q0-2.4-2.4-2.4h-7.7425q-2.4 0-2.4 2.4z" clip-path="url(#a)" fill="#fff" stroke="#fff"/>
<g clip-path="url(#a)">
<g transform="translate(944.95 719.54) rotate(90) scale(.08 -.08)">
<use xlink:href="#l"/>
<use x="44.083984" xlink:href="#e"/>
<use x="105.607422" xlink:href="#f"/>
<use x="144.970703" xlink:href="#j"/>
<use x="242.382812" xlink:href="#g"/>
<use x="270.166016" xlink:href="#h"/>
<use x="333.544922" xlink:href="#i"/>
<use x="394.824219" xlink:href="#k"/>
</g>
</g>
<path d="m1041 580.15 0.77134-4.7617q0.38377-2.3691-1.9853-2.7529l-7.6429-1.2381q-2.3691-0.38377-2.7529 1.9853l-0.77134 4.7617q-0.38377 2.3691 1.9853 2.7529l7.6429 1.2381q2.3691 0.38377 2.7529-1.9853z" clip-path="url(#a)" fill="#fff" stroke="#fff"/>
<g clip-path="url(#a)">
<g transform="translate(1037 579.5) rotate(-80.799) scale(.08 -.08)">
<use xlink:href="#af"/>
</g>
</g>
<path d="m1084.3 524.81 3.1858 4.4496q1.3971 1.9514 3.3485 0.55428l6.2953-4.5072q1.9514-1.3971 0.55428-3.3485l-3.1858-4.4496q-1.3971-1.9514-3.3485-0.55428l-6.2953 4.5072q-1.9514 1.3971-0.55428 3.3485z" clip-path="url(#a)" fill="#fff" stroke="#fff"/>
<g clip-path="url(#a)">
<g transform="translate(1087.6 522.45) rotate(54.399) scale(.08 -.08)">
<use xlink:href="#q"/>
</g>
</g>
<path d="m1207.4 528.46 5.1867 1.7454q2.2747 0.76548 3.0401-1.5092l2.4695-7.3381q0.76548-2.2747-1.5092-3.0401l-5.1867-1.7454q-2.2747-0.76547-3.0401 1.5092l-2.4695 7.3381q-0.76548 2.2747 1.5092 3.0401z" clip-path="url(#a)" fill="#fff" stroke="#fff"/>
<g clip-path="url(#a)">
<g transform="translate(1208.7 524.61) rotate(18.599) scale(.08 -.08)">
<use xlink:href="#q"/>
</g>
</g>
<path d="m872.87 583.56 4.7073-2.791q2.0644-1.224 0.8404-3.2884l-3.9487-6.6599q-1.224-2.0644-3.2884-0.8404l-4.7073 2.791q-2.0644 1.224-0.8404 3.2884l3.9487 6.6599q1.224 2.0644 3.2884 0.8404z" clip-path="url(#a)" fill="#fff" stroke="#fff"/>
<g clip-path="url(#a)">
<g transform="translate(870.8 580.06) rotate(-30.664) scale(.08 -.08)">
<use xlink:href="#q"/>
</g>
</g>
<path d="m1011.6 719.54v33.808q0 2.4 2.4 2.4h7.7425q2.4 0 2.4-2.4v-33.808q0-2.4-2.4-2.4h-7.7425q-2.4 0-2.4 2.4z" clip-path="url(#a)" fill="#fff" stroke="#fff"/>
<g clip-path="url(#a)">
<g transform="translate(1015.7 719.54) rotate(90) scale(.08 -.08)">
<use xlink:href="#l"/>
<use x="44.083984" xlink:href="#e"/>
<use x="105.607422" xlink:href="#f"/>
<use x="144.970703" xlink:href="#j"/>
<use x="242.382812" xlink:href="#g"/>
<use x="270.166016" xlink:href="#h"/>
<use x="333.544922" xlink:href="#i"/>
<use x="394.824219" xlink:href="#k"/>
</g>
</g>
<path d="m1115.5 634.7 1.5458-4.3338q0.80627-2.2605-1.4542-3.0668l-7.2925-2.6011q-2.2605-0.80627-3.0668 1.4542l-1.5458 4.3338q-0.80627 2.2605 1.4542 3.0668l7.2925 2.6011q2.2605 0.80627 3.0668-1.4542z" clip-path="url(#a)" fill="#fff" stroke="#fff"/>
<g clip-path="url(#a)">
<defs>
<path id="v" d="m9.8125 72.906h41.891v-8.3125h-32.031v-21.484h28.906v-8.2969h-28.906v-34.812h-9.8594z"/>
</defs>
<g transform="translate(1111.7 633.33) rotate(-70.37) scale(.08 -.08)">
<use xlink:href="#v"/>
</g>
</g>
<path d="m1141.6 629.9 1.8767 5.2616q0.80627 2.2605 3.0668 1.4542l7.2925-2.6011q2.2605-0.80627 1.4542-3.0668l-1.8767-5.2616q-0.80627-2.2605-3.0668-1.4542l-7.2925 2.6011q-2.2605 0.80627-1.4542 3.0668z" clip-path="url(#a)" fill="#fff" stroke="#fff"/>
<g clip-path="url(#a)">
<defs>
<path id="s" d="m64.406 67.281v-10.391q-4.9844 4.6406-10.625 6.9219-5.6406 2.2969-11.984 2.2969-12.5 0-19.141-7.6406t-6.6406-22.094q0-14.406 6.6406-22.047t19.141-7.6406q6.3438 0 11.984 2.2969t10.625 6.9375v-10.312q-5.1719-3.5156-10.969-5.2812-5.7812-1.75-12.219-1.75-16.562 0-26.094 10.125-9.5156 10.141-9.5156 27.672 0 17.578 9.5156 27.703 9.5312 10.141 26.094 10.141 6.5312 0 12.312-1.7344 5.7969-1.7344 10.875-5.2031z"/>
</defs>
<g transform="translate(1145.4 628.53) rotate(70.37) scale(.08 -.08)">
<use xlink:href="#s"/>
</g>
</g>
<path d="m1310.8 637 4.2285-3.6082q1.8257-1.5578 0.26784-3.3835l-5.0257-5.8897q-1.5578-1.8257-3.3835-0.26784l-4.2285 3.6082q-1.8257 1.5578-0.26784 3.3835l5.0257 5.8897q1.5578 1.8257 3.3835 0.26784z" clip-path="url(#a)" fill="#fff" stroke="#fff"/>
<g clip-path="url(#a)">
<defs>
<path id="u" d="m44.391 34.188q3.1719-1.0781 6.1719-4.5938t6.0312-9.6719l10.016-19.922h-10.609l-9.3125 18.703q-3.625 7.3281-7.0156 9.7188t-9.25 2.3906h-10.75v-30.812h-9.8594v72.906h22.266q12.5 0 18.656-5.2344 6.1562-5.2188 6.1562-15.766 0-6.8906-3.2031-11.438-3.2031-4.5312-9.2969-6.2812zm-24.719 30.609v-25.875h12.406q7.125 0 10.766 3.2969t3.6406 9.6875-3.6406 9.6406-10.766 3.25z"/>
</defs>
<g transform="translate(1308.2 633.91) rotate(-40.474) scale(.08 -.08)">
<use xlink:href="#u"/>
</g>
</g>
<path d="m1354.6 634.92 1.7368-4.2609q0.90593-2.2225-1.3165-3.1284l-7.1697-2.9226q-2.2225-0.90593-3.1284 1.3165l-1.7368 4.2609q-0.90593 2.2225 1.3165 3.1284l7.1697 2.9226q2.2225 0.90593 3.1284-1.3165z" clip-path="url(#a)" fill="#fff" stroke="#fff"/>
<g clip-path="url(#a)">
<g transform="translate(1350.9 633.39) rotate(-67.823) scale(.08 -.08)">
<use xlink:href="#v"/>
</g>
</g>
<path d="m1385 630.05 1.9941 5.2182q0.85673 2.2419 3.0986 1.3851l7.2324-2.7639q2.2419-0.85673 1.3851-3.0986l-1.9941-5.2182q-0.85673-2.2419-3.0986-1.3851l-7.2324 2.7639q-2.2419 0.85673-1.3851 3.0986z" clip-path="url(#a)" fill="#fff" stroke="#fff"/>
<g clip-path="url(#a)">
<g transform="translate(1388.8 628.6) rotate(69.086) scale(.08 -.08)">
<use xlink:href="#s"/>
</g>
</g>
<path d="m1429.1 633.36 4.4939 3.7531q1.8421 1.5384 3.3805-0.30369l4.963-5.9427q1.5384-1.8421-0.30369-3.3805l-4.4939-3.7531q-1.8421-1.5384-3.3805 0.30369l-4.963 5.9427q-1.5384 1.8421 0.30369 3.3805z" clip-path="url(#a)" fill="#fff" stroke="#fff"/>
<g clip-path="url(#a)">
<g transform="translate(1431.7 630.24) rotate(39.867) scale(.08 -.08)">
<use xlink:href="#aa"/>
</g>
</g>
<path d="m1240.1 719.54v33.808q0 2.4 2.4 2.4h7.7425q2.4 0 2.4-2.4v-33.808q0-2.4-2.4-2.4h-7.7425q-2.4 0-2.4 2.4z" clip-path="url(#a)" fill="#fff" stroke="#fff"/>
<g clip-path="url(#a)">
<g transform="translate(1244.1 719.54) rotate(90) scale(.08 -.08)">
<use xlink:href="#l"/>
<use x="44.083984" xlink:href="#e"/>
<use x="105.607422" xlink:href="#f"/>
<use x="144.970703" xlink:href="#j"/>
<use x="242.382812" xlink:href="#g"/>
<use x="270.166016" xlink:href="#h"/>
<use x="333.544922" xlink:href="#i"/>
<use x="394.824219" xlink:href="#k"/>
</g>
</g>
<path d="m1321.7 719.54v33.808q0 2.4 2.4 2.4h7.7425q2.4 0 2.4-2.4v-33.808q0-2.4-2.4-2.4h-7.7425q-2.4 0-2.4 2.4z" clip-path="url(#a)" fill="#fff" stroke="#fff"/>
<g clip-path="url(#a)">
<g transform="translate(1325.7 719.54) rotate(90) scale(.08 -.08)">
<use xlink:href="#l"/>
<use x="44.083984" xlink:href="#e"/>
<use x="105.607422" xlink:href="#f"/>
<use x="144.970703" xlink:href="#j"/>
<use x="242.382812" xlink:href="#g"/>
<use x="270.166016" xlink:href="#h"/>
<use x="333.544922" xlink:href="#i"/>
<use x="394.824219" xlink:href="#k"/>
</g>
</g>
<path d="m1406 719.54v33.808q0 2.4 2.4 2.4h7.7425q2.4 0 2.4-2.4v-33.808q0-2.4-2.4-2.4h-7.7425q-2.4 0-2.4 2.4z" clip-path="url(#a)" fill="#fff" stroke="#fff"/>
<g clip-path="url(#a)">
<g transform="translate(1410 719.54) rotate(90) scale(.08 -.08)">
<use xlink:href="#l"/>
<use x="44.083984" xlink:href="#e"/>
<use x="105.607422" xlink:href="#f"/>
<use x="144.970703" xlink:href="#j"/>
<use x="242.382812" xlink:href="#g"/>
<use x="270.166016" xlink:href="#h"/>
<use x="333.544922" xlink:href="#i"/>
<use x="394.824219" xlink:href="#k"/>
</g>
</g>
<path d="m1085 719.54v33.808q0 2.4 2.4 2.4h7.7425q2.4 0 2.4-2.4v-33.808q0-2.4-2.4-2.4h-7.7425q-2.4 0-2.4 2.4z" clip-path="url(#a)" fill="#fff" stroke="#fff"/>
<g clip-path="url(#a)">
<g transform="translate(1089.1 719.54) rotate(90) scale(.08 -.08)">
<use xlink:href="#l"/>
<use x="44.083984" xlink:href="#e"/>
<use x="105.607422" xlink:href="#f"/>
<use x="144.970703" xlink:href="#j"/>
<use x="242.382812" xlink:href="#g"/>
<use x="270.166016" xlink:href="#h"/>
<use x="333.544922" xlink:href="#i"/>
<use x="394.824219" xlink:href="#k"/>
</g>
</g>
<path d="m1161.2 719.54v33.808q0 2.4 2.4 2.4h7.7425q2.4 0 2.4-2.4v-33.808q0-2.4-2.4-2.4h-7.7425q-2.4 0-2.4 2.4z" clip-path="url(#a)" fill="#fff" stroke="#fff"/>
<g clip-path="url(#a)">
<g transform="translate(1165.3 719.54) rotate(90) scale(.08 -.08)">
<use xlink:href="#l"/>
<use x="44.083984" xlink:href="#e"/>
<use x="105.607422" xlink:href="#f"/>
<use x="144.970703" xlink:href="#j"/>
<use x="242.382812" xlink:href="#g"/>
<use x="270.166016" xlink:href="#h"/>
<use x="333.544922" xlink:href="#i"/>
<use x="394.824219" xlink:href="#k"/>
</g>
</g>
<path d="m685.23 719.54v33.808q0 2.4 2.4 2.4h7.7425q2.4 0 2.4-2.4v-33.808q0-2.4-2.4-2.4h-7.7425q-2.4 0-2.4 2.4z" clip-path="url(#a)" fill="#fff" stroke="#fff"/>
<g clip-path="url(#a)">
<g transform="translate(689.29 719.54) rotate(90) scale(.08 -.08)">
<use xlink:href="#l"/>
<use x="44.083984" xlink:href="#e"/>
<use x="105.607422" xlink:href="#f"/>
<use x="144.970703" xlink:href="#j"/>
<use x="242.382812" xlink:href="#g"/>
<use x="270.166016" xlink:href="#h"/>
<use x="333.544922" xlink:href="#i"/>
<use x="394.824219" xlink:href="#k"/>
</g>
</g>
<path d="m745.06 719.54v33.808q0 2.4 2.4 2.4h7.7425q2.4 0 2.4-2.4v-33.808q0-2.4-2.4-2.4h-7.7425q-2.4 0-2.4 2.4z" clip-path="url(#a)" fill="#fff" stroke="#fff"/>
<g clip-path="url(#a)">
<g transform="translate(749.13 719.54) rotate(90) scale(.08 -.08)">
<use xlink:href="#l"/>
<use x="44.083984" xlink:href="#e"/>
<use x="105.607422" xlink:href="#f"/>
<use x="144.970703" xlink:href="#j"/>
<use x="242.382812" xlink:href="#g"/>
<use x="270.166016" xlink:href="#h"/>
<use x="333.544922" xlink:href="#i"/>
<use x="394.824219" xlink:href="#k"/>
</g>
</g>
<path d="m807.62 719.54v33.808q0 2.4 2.4 2.4h7.7425q2.4 0 2.4-2.4v-33.808q0-2.4-2.4-2.4h-7.7425q-2.4 0-2.4 2.4z" clip-path="url(#a)" fill="#fff" stroke="#fff"/>
<g clip-path="url(#a)">
<g transform="translate(811.68 719.54) rotate(90) scale(.08 -.08)">
<use xlink:href="#l"/>
<use x="44.083984" xlink:href="#e"/>
<use x="105.607422" xlink:href="#f"/>
<use x="144.970703" xlink:href="#j"/>
<use x="242.382812" xlink:href="#g"/>
<use x="270.166016" xlink:href="#h"/>
<use x="333.544922" xlink:href="#i"/>
<use x="394.824219" xlink:href="#k"/>
</g>
</g>
<path d="m872.89 719.54v33.808q0 2.4 2.4 2.4h7.7425q2.4 0 2.4-2.4v-33.808q0-2.4-2.4-2.4h-7.7425q-2.4 0-2.4 2.4z" clip-path="url(#a)" fill="#fff" stroke="#fff"/>
<g clip-path="url(#a)">
<g transform="translate(876.96 719.54) rotate(90) scale(.08 -.08)">
<use xlink:href="#l"/>
<use x="44.083984" xlink:href="#e"/>
<use x="105.607422" xlink:href="#f"/>
<use x="144.970703" xlink:href="#j"/>
<use x="242.382812" xlink:href="#g"/>
<use x="270.166016" xlink:href="#h"/>
<use x="333.544922" xlink:href="#i"/>
<use x="394.824219" xlink:href="#k"/>
</g>
</g>
<path d="m236.47 719.54v33.808q0 2.4 2.4 2.4h7.7425q2.4 0 2.4-2.4v-33.808q0-2.4-2.4-2.4h-7.7425q-2.4 0-2.4 2.4z" clip-path="url(#a)" fill="#fff" stroke="#fff"/>
<g clip-path="url(#a)">
<g transform="translate(240.53 719.54) rotate(90) scale(.08 -.08)">
<use xlink:href="#l"/>
<use x="44.083984" xlink:href="#e"/>
<use x="105.607422" xlink:href="#f"/>
<use x="144.970703" xlink:href="#j"/>
<use x="242.382812" xlink:href="#g"/>
<use x="270.166016" xlink:href="#h"/>
<use x="333.544922" xlink:href="#i"/>
<use x="394.824219" xlink:href="#k"/>
</g>
</g>
<path d="m269.11 719.54v33.808q0 2.4 2.4 2.4h7.7425q2.4 0 2.4-2.4v-33.808q0-2.4-2.4-2.4h-7.7425q-2.4 0-2.4 2.4z" clip-path="url(#a)" fill="#fff" stroke="#fff"/>
<g clip-path="url(#a)">
<g transform="translate(273.17 719.54) rotate(90) scale(.08 -.08)">
<use xlink:href="#l"/>
<use x="44.083984" xlink:href="#e"/>
<use x="105.607422" xlink:href="#f"/>
<use x="144.970703" xlink:href="#j"/>
<use x="242.382812" xlink:href="#g"/>
<use x="270.166016" xlink:href="#h"/>
<use x="333.544922" xlink:href="#i"/>
<use x="394.824219" xlink:href="#k"/>
</g>
</g>
<path d="m349.97 472.19 0.70665-4.5467q0.36859-2.3715-2.0029-2.7401l-7.6506-1.1891q-2.3715-0.36859-2.7401 2.0029l-0.70665 4.5467q-0.36859 2.3715 2.0029 2.7401l7.6506 1.1891q2.3715 0.36859 2.7401-2.0029z" clip-path="url(#a)" fill="#fff" stroke="#fff"/>
<g clip-path="url(#a)">
<g transform="translate(345.95 471.56) rotate(-81.166) scale(.08 -.08)">
<use xlink:href="#v"/>
</g>
</g>
<path d="m369.24 472.15 0.37239-5.5738q0.15999-2.3947-2.2347-2.5546l-7.7253-0.51613q-2.3947-0.15999-2.5546 2.2347l-0.37239 5.5738q-0.15999 2.3947 2.2347 2.5546l7.7253 0.51613q2.3947 0.15999 2.5546-2.2347z" clip-path="url(#a)" fill="#fff" stroke="#fff"/>
<g clip-path="url(#a)">
<g transform="translate(365.18 471.88) rotate(-86.178) scale(.08 -.08)">
<use xlink:href="#s"/>
</g>
</g>
<path d="m418.89 310.34 3.3493 3.7862q1.5902 1.7976 3.3878 0.20746l5.7992-5.1299q1.7976-1.5902 0.20746-3.3878l-3.3493-3.7862q-1.5902-1.7976-3.3878-0.20746l-5.7992 5.1299q-1.7976 1.5902-0.20746 3.3878z" clip-path="url(#a)" fill="#fff" stroke="#fff"/>
<g clip-path="url(#a)">
<defs>
<path id="ah" d="m9.8125 72.906h46.094v-8.3125h-36.234v-21.578h34.719v-8.2969h-34.719v-26.422h37.109v-8.2969h-46.969z"/>
</defs>
<g transform="translate(421.94 307.64) rotate(48.504) scale(.08 -.08)">
<use xlink:href="#ah"/>
</g>
</g>
<path d="m304.46 719.54v33.808q0 2.4 2.4 2.4h7.7425q2.4 0 2.4-2.4v-33.808q0-2.4-2.4-2.4h-7.7425q-2.4 0-2.4 2.4z" clip-path="url(#a)" fill="#fff" stroke="#fff"/>
<g clip-path="url(#a)">
<g transform="translate(308.53 719.54) rotate(90) scale(.08 -.08)">
<use xlink:href="#l"/>
<use x="44.083984" xlink:href="#e"/>
<use x="105.607422" xlink:href="#f"/>
<use x="144.970703" xlink:href="#j"/>
<use x="242.382812" xlink:href="#g"/>
<use x="270.166016" xlink:href="#h"/>
<use x="333.544922" xlink:href="#i"/>
<use x="394.824219" xlink:href="#k"/>
</g>
</g>
<path d="m342.54 719.54v33.808q0 2.4 2.4 2.4h7.7425q2.4 0 2.4-2.4v-33.808q0-2.4-2.4-2.4h-7.7425q-2.4 0-2.4 2.4z" clip-path="url(#a)" fill="#fff" stroke="#fff"/>
<g clip-path="url(#a)">
<g transform="translate(346.6 719.54) rotate(90) scale(.08 -.08)">
<use xlink:href="#l"/>
<use x="44.083984" xlink:href="#e"/>
<use x="105.607422" xlink:href="#f"/>
<use x="144.970703" xlink:href="#j"/>
<use x="242.382812" xlink:href="#g"/>
<use x="270.166016" xlink:href="#h"/>
<use x="333.544922" xlink:href="#i"/>
<use x="394.824219" xlink:href="#k"/>
</g>
</g>
<path d="m436.68 527.19 1.3949-5.3809q0.60224-2.3232-1.721-2.9254l-7.4948-1.9428q-2.3232-0.60224-2.9254 1.721l-1.3949 5.3809q-0.60224 2.3232 1.721 2.9254l7.4948 1.9428q2.3232 0.60224 2.9254-1.721z" clip-path="url(#a)" fill="#fff" stroke="#fff"/>
<g clip-path="url(#a)">
<g transform="translate(432.75 526.17) rotate(-75.467) scale(.08 -.08)">
<use xlink:href="#u"/>
</g>
</g>
<path d="m459.01 525.98 0.56612-4.5663q0.29529-2.3818-2.0865-2.6771l-7.6837-0.95261q-2.3818-0.29529-2.6771 2.0865l-0.56612 4.5663q-0.29529 2.3818 2.0865 2.6771l7.6837 0.95261q2.3818 0.29529 2.6771-2.0865z" clip-path="url(#a)" fill="#fff" stroke="#fff"/>
<g clip-path="url(#a)">
<g transform="translate(454.98 525.48) rotate(-82.933) scale(.08 -.08)">
<use xlink:href="#v"/>
</g>
</g>
<path d="m469.86 520.26 0.11016 5.5852q0.047328 2.3995 2.4469 2.3522l7.741-0.15268q2.3995-0.047328 2.3522-2.4469l-0.11016-5.5852q-0.047328-2.3995-2.4469-2.3522l-7.741 0.15268q-2.3995 0.047328-2.3522 2.4469z" clip-path="url(#a)" fill="#fff" stroke="#fff"/>
<g clip-path="url(#a)">
<g transform="translate(473.92 520.18) rotate(88.87) scale(.08 -.08)">
<use xlink:href="#s"/>
</g>
</g>
<path d="m525.38 418.79 3.7188 3.424q1.7656 1.6256 3.3912-0.13994l5.2444-5.6959q1.6256-1.7656-0.13995-3.3912l-3.7188-3.424q-1.7656-1.6256-3.3912 0.13994l-5.2444 5.6959q-1.6256 1.7656 0.13995 3.3912z" clip-path="url(#a)" fill="#fff" stroke="#fff"/>
<g clip-path="url(#a)">
<g transform="translate(528.13 415.8) rotate(42.637) scale(.08 -.08)">
<use xlink:href="#ah"/>
</g>
</g>
<path d="m383.34 719.54v33.808q0 2.4 2.4 2.4h7.7425q2.4 0 2.4-2.4v-33.808q0-2.4-2.4-2.4h-7.7425q-2.4 0-2.4 2.4z" clip-path="url(#a)" fill="#fff" stroke="#fff"/>
<g clip-path="url(#a)">
<g transform="translate(387.4 719.54) rotate(90) scale(.08 -.08)">
<use xlink:href="#l"/>
<use x="44.083984" xlink:href="#e"/>
<use x="105.607422" xlink:href="#f"/>
<use x="144.970703" xlink:href="#j"/>
<use x="242.382812" xlink:href="#g"/>
<use x="270.166016" xlink:href="#h"/>
<use x="333.544922" xlink:href="#i"/>
<use x="394.824219" xlink:href="#k"/>
</g>
</g>
<path d="m426.85 719.54v33.808q0 2.4 2.4 2.4h7.7425q2.4 0 2.4-2.4v-33.808q0-2.4-2.4-2.4h-7.7425q-2.4 0-2.4 2.4z" clip-path="url(#a)" fill="#fff" stroke="#fff"/>
<g clip-path="url(#a)">
<g transform="translate(430.92 719.54) rotate(90) scale(.08 -.08)">
<use xlink:href="#l"/>
<use x="44.083984" xlink:href="#e"/>
<use x="105.607422" xlink:href="#f"/>
<use x="144.970703" xlink:href="#j"/>
<use x="242.382812" xlink:href="#g"/>
<use x="270.166016" xlink:href="#h"/>
<use x="333.544922" xlink:href="#i"/>
<use x="394.824219" xlink:href="#k"/>
</g>
</g>
<path d="m473.09 719.54v33.808q0 2.4 2.4 2.4h7.7425q2.4 0 2.4-2.4v-33.808q0-2.4-2.4-2.4h-7.7425q-2.4 0-2.4 2.4z" clip-path="url(#a)" fill="#fff" stroke="#fff"/>
<g clip-path="url(#a)">
<g transform="translate(477.15 719.54) rotate(90) scale(.08 -.08)">
<use xlink:href="#l"/>
<use x="44.083984" xlink:href="#e"/>
<use x="105.607422" xlink:href="#f"/>
<use x="144.970703" xlink:href="#j"/>
<use x="242.382812" xlink:href="#g"/>
<use x="270.166016" xlink:href="#h"/>
<use x="333.544922" xlink:href="#i"/>
<use x="394.824219" xlink:href="#k"/>
</g>
</g>
<path d="m564.4 581.17 1.5383-5.3417q0.66416-2.3063-1.6421-2.9704l-7.4401-2.1426q-2.3063-0.66416-2.9704 1.6421l-1.5383 5.3417q-0.66416 2.3063 1.6421 2.9704l7.4401 2.1426q2.3063 0.66416 2.9704-1.6421z" clip-path="url(#a)" fill="#fff" stroke="#fff"/>
<g clip-path="url(#a)">
<g transform="translate(560.49 580.05) rotate(-73.935) scale(.08 -.08)">
<use xlink:href="#u"/>
</g>
</g>
<path d="m591.98 521.89 0.80113 4.9911q0.38036 2.3697 2.75 1.9893l7.6446-1.227q2.3697-0.38036 1.9893-2.75l-0.80113-4.9911q-0.38036-2.3697-2.75-1.9893l-7.6446 1.227q-2.3697 0.38036-1.9893 2.75z" clip-path="url(#a)" fill="#fff" stroke="#fff"/>
<g clip-path="url(#a)">
<g transform="translate(596 521.24) rotate(80.881) scale(.08 -.08)">
<use xlink:href="#ah"/>
</g>
</g>
<path d="m605.47 575.3 1.1351 5.4697q0.48765 2.3499 2.8376 1.8623l7.581-1.5732q2.3499-0.48765 1.8623-2.8376l-1.1351-5.4697q-0.48765-2.3499-2.8376-1.8623l-7.581 1.5732q-2.3499 0.48765-1.8623 2.8376z" clip-path="url(#a)" fill="#fff" stroke="#fff"/>
<g clip-path="url(#a)">
<g transform="translate(609.45 574.48) rotate(78.277) scale(.08 -.08)">
<use xlink:href="#s"/>
</g>
</g>
<path d="m522.04 719.54v33.808q0 2.4 2.4 2.4h7.7425q2.4 0 2.4-2.4v-33.808q0-2.4-2.4-2.4h-7.7425q-2.4 0-2.4 2.4z" clip-path="url(#a)" fill="#fff" stroke="#fff"/>
<g clip-path="url(#a)">
<g transform="translate(526.11 719.54) rotate(90) scale(.08 -.08)">
<use xlink:href="#l"/>
<use x="44.083984" xlink:href="#e"/>
<use x="105.607422" xlink:href="#f"/>
<use x="144.970703" xlink:href="#j"/>
<use x="242.382812" xlink:href="#g"/>
<use x="270.166016" xlink:href="#h"/>
<use x="333.544922" xlink:href="#i"/>
<use x="394.824219" xlink:href="#k"/>
</g>
</g>
<path d="m614.03 629.32 1.3511 5.3031q0.59252 2.3257 2.9182 1.7332l7.5028-1.9115q2.3257-0.59252 1.7332-2.9182l-1.3511-5.3031q-0.59252-2.3257-2.9182-1.7332l-7.5028 1.9115q-2.3257 0.59252-1.7332 2.9182z" clip-path="url(#a)" fill="#fff" stroke="#fff"/>
<g clip-path="url(#a)">
<g transform="translate(617.97 628.32) rotate(75.707) scale(.08 -.08)">
<use xlink:href="#q"/>
</g>
</g>
<path d="m599.04 634.43 1.2538-4.9215q0.59252-2.3257-1.7332-2.9182l-7.5028-1.9115q-2.3257-0.59252-2.9182 1.7332l-1.2538 4.9215q-0.59251 2.3257 1.7332 2.9182l7.5028 1.9115q2.3257 0.59252 2.9182-1.7332z" clip-path="url(#a)" fill="#fff" stroke="#fff"/>
<g clip-path="url(#a)">
<g transform="translate(595.1 633.43) rotate(-75.707) scale(.08 -.08)">
<use xlink:href="#am"/>
</g>
</g>
<path d="m628.11 719.54v33.808q0 2.4 2.4 2.4h7.7425q2.4 0 2.4-2.4v-33.808q0-2.4-2.4-2.4h-7.7425q-2.4 0-2.4 2.4z" clip-path="url(#a)" fill="#fff" stroke="#fff"/>
<g clip-path="url(#a)">
<g transform="translate(632.18 719.54) rotate(90) scale(.08 -.08)">
<use xlink:href="#l"/>
<use x="44.083984" xlink:href="#e"/>
<use x="105.607422" xlink:href="#f"/>
<use x="144.970703" xlink:href="#j"/>
<use x="242.382812" xlink:href="#g"/>
<use x="270.166016" xlink:href="#h"/>
<use x="333.544922" xlink:href="#i"/>
<use x="394.824219" xlink:href="#k"/>
</g>
</g>
<path d="m573.72 719.54v33.808q0 2.4 2.4 2.4h7.7425q2.4 0 2.4-2.4v-33.808q0-2.4-2.4-2.4h-7.7425q-2.4 0-2.4 2.4z" clip-path="url(#a)" fill="#fff" stroke="#fff"/>
<g clip-path="url(#a)">
<g transform="translate(577.78 719.54) rotate(90) scale(.08 -.08)">
<use xlink:href="#l"/>
<use x="44.083984" xlink:href="#e"/>
<use x="105.607422" xlink:href="#f"/>
<use x="144.970703" xlink:href="#j"/>
<use x="242.382812" xlink:href="#g"/>
<use x="270.166016" xlink:href="#h"/>
<use x="333.544922" xlink:href="#i"/>
<use x="394.824219" xlink:href="#k"/>
</g>
</g>
<path d="m65.123 719.54v33.808q0 2.4 2.4 2.4h7.7425q2.4 0 2.4-2.4v-33.808q0-2.4-2.4-2.4h-7.7425q-2.4 0-2.4 2.4z" clip-path="url(#a)" fill="#fff" stroke="#fff"/>
<g clip-path="url(#a)">
<g transform="translate(69.186 719.54) rotate(90) scale(.08 -.08)">
<use xlink:href="#l"/>
<use x="44.083984" xlink:href="#e"/>
<use x="105.607422" xlink:href="#f"/>
<use x="144.970703" xlink:href="#j"/>
<use x="242.382812" xlink:href="#g"/>
<use x="270.166016" xlink:href="#h"/>
<use x="333.544922" xlink:href="#i"/>
<use x="394.824219" xlink:href="#k"/>
</g>
</g>
<path d="m91.374 633.87 0.60998-5.5252q0.26336-2.3855-2.1221-2.6489l-7.6957-0.8496q-2.3855-0.26336-2.6489 2.1221l-0.60998 5.5252q-0.26336 2.3855 2.1221 2.6489l7.6957 0.8496q2.3855 0.26336 2.6489-2.1221z" clip-path="url(#a)" fill="#fff" stroke="#fff"/>
<g clip-path="url(#a)">
<g transform="translate(87.335 633.43) rotate(-83.7) scale(.08 -.08)">
<use xlink:href="#u"/>
</g>
</g>
<path d="m97.137 632.78 0.039074-4.6011q0.02038-2.3999-2.3795-2.4203l-7.7422-0.065748q-2.3999-0.020381-2.4203 2.3795l-0.039074 4.6011q-0.02038 2.3999 2.3795 2.4203l7.7422 0.065748q2.3999 0.020381 2.4203-2.3795z" clip-path="url(#a)" fill="#fff" stroke="#fff"/>
<g clip-path="url(#a)">
<g transform="translate(93.074 632.74) rotate(-89.513) scale(.08 -.08)">
<use xlink:href="#v"/>
</g>
</g>
<path d="m91.128 628.39 0.65951 5.5472q0.28334 2.3832 2.6666 2.0999l7.6884-0.91408q2.3832-0.28334 2.0999-2.6666l-0.65951-5.5472q-0.28334-2.3832-2.6666-2.0999l-7.6884 0.91408q-2.3832 0.28334-2.0999 2.6666z" clip-path="url(#a)" fill="#fff" stroke="#fff"/>
<g clip-path="url(#a)">
<g transform="translate(95.163 627.91) rotate(83.22) scale(.08 -.08)">
<use xlink:href="#s"/>
</g>
</g>
<path d="m73.282 719.54v33.808q0 2.4 2.4 2.4h7.7425q2.4 0 2.4-2.4v-33.808q0-2.4-2.4-2.4h-7.7425q-2.4 0-2.4 2.4z" clip-path="url(#a)" fill="#fff" stroke="#fff"/>
<g clip-path="url(#a)">
<g transform="translate(77.346 719.54) rotate(90) scale(.08 -.08)">
<use xlink:href="#l"/>
<use x="44.083984" xlink:href="#e"/>
<use x="105.607422" xlink:href="#f"/>
<use x="144.970703" xlink:href="#j"/>
<use x="242.382812" xlink:href="#g"/>
<use x="270.166016" xlink:href="#h"/>
<use x="333.544922" xlink:href="#i"/>
<use x="394.824219" xlink:href="#k"/>
</g>
</g>
<path d="m84.161 719.54v33.808q0 2.4 2.4 2.4h7.7425q2.4 0 2.4-2.4v-33.808q0-2.4-2.4-2.4h-7.7425q-2.4 0-2.4 2.4z" clip-path="url(#a)" fill="#fff" stroke="#fff"/>
<g clip-path="url(#a)">
<g transform="translate(88.225 719.54) rotate(90) scale(.08 -.08)">
<use xlink:href="#l"/>
<use x="44.083984" xlink:href="#e"/>
<use x="105.607422" xlink:href="#f"/>
<use x="144.970703" xlink:href="#j"/>
<use x="242.382812" xlink:href="#g"/>
<use x="270.166016" xlink:href="#h"/>
<use x="333.544922" xlink:href="#i"/>
<use x="394.824219" xlink:href="#k"/>
</g>
</g>
<path d="m97.76 719.54v33.808q0 2.4 2.4 2.4h7.7425q2.4 0 2.4-2.4v-33.808q0-2.4-2.4-2.4h-7.7425q-2.4 0-2.4 2.4z" clip-path="url(#a)" fill="#fff" stroke="#fff"/>
<g clip-path="url(#a)">
<g transform="translate(101.82 719.54) rotate(90) scale(.08 -.08)">
<use xlink:href="#l"/>
<use x="44.083984" xlink:href="#e"/>
<use x="105.607422" xlink:href="#f"/>
<use x="144.970703" xlink:href="#j"/>
<use x="242.382812" xlink:href="#g"/>
<use x="270.166016" xlink:href="#h"/>
<use x="333.544922" xlink:href="#i"/>
<use x="394.824219" xlink:href="#k"/>
</g>
</g>
<path d="m114.08 719.54v33.808q0 2.4 2.4 2.4h7.7425q2.4 0 2.4-2.4v-33.808q0-2.4-2.4-2.4h-7.7425q-2.4 0-2.4 2.4z" clip-path="url(#a)" fill="#fff" stroke="#fff"/>
<g clip-path="url(#a)">
<g transform="translate(118.14 719.54) rotate(90) scale(.08 -.08)">
<use xlink:href="#l"/>
<use x="44.083984" xlink:href="#e"/>
<use x="105.607422" xlink:href="#f"/>
<use x="144.970703" xlink:href="#j"/>
<use x="242.382812" xlink:href="#g"/>
<use x="270.166016" xlink:href="#h"/>
<use x="333.544922" xlink:href="#i"/>
<use x="394.824219" xlink:href="#k"/>
</g>
</g>
<path d="m133.12 719.54v33.808q0 2.4 2.4 2.4h7.7425q2.4 0 2.4-2.4v-33.808q0-2.4-2.4-2.4h-7.7425q-2.4 0-2.4 2.4z" clip-path="url(#a)" fill="#fff" stroke="#fff"/>
<g clip-path="url(#a)">
<g transform="translate(137.18 719.54) rotate(90) scale(.08 -.08)">
<use xlink:href="#l"/>
<use x="44.083984" xlink:href="#e"/>
<use x="105.607422" xlink:href="#f"/>
<use x="144.970703" xlink:href="#j"/>
<use x="242.382812" xlink:href="#g"/>
<use x="270.166016" xlink:href="#h"/>
<use x="333.544922" xlink:href="#i"/>
<use x="394.824219" xlink:href="#k"/>
</g>
</g>
<path d="m179.35 719.54v33.808q0 2.4 2.4 2.4h7.7425q2.4 0 2.4-2.4v-33.808q0-2.4-2.4-2.4h-7.7425q-2.4 0-2.4 2.4z" clip-path="url(#a)" fill="#fff" stroke="#fff"/>
<g clip-path="url(#a)">
<g transform="translate(183.42 719.54) rotate(90) scale(.08 -.08)">
<use xlink:href="#l"/>
<use x="44.083984" xlink:href="#e"/>
<use x="105.607422" xlink:href="#f"/>
<use x="144.970703" xlink:href="#j"/>
<use x="242.382812" xlink:href="#g"/>
<use x="270.166016" xlink:href="#h"/>
<use x="333.544922" xlink:href="#i"/>
<use x="394.824219" xlink:href="#k"/>
</g>
</g>
<path d="m1493 719.54v33.808q0 2.4 2.4 2.4h7.7425q2.4 0 2.4-2.4v-33.808q0-2.4-2.4-2.4h-7.7425q-2.4 0-2.4 2.4z" clip-path="url(#a)" fill="#fff" stroke="#fff"/>
<g clip-path="url(#a)">
<g transform="translate(1497.1 719.54) rotate(90) scale(.08 -.08)">
<use xlink:href="#l"/>
<use x="44.083984" xlink:href="#e"/>
<use x="105.607422" xlink:href="#f"/>
<use x="144.970703" xlink:href="#j"/>
<use x="242.382812" xlink:href="#g"/>
<use x="270.166016" xlink:href="#h"/>
<use x="333.544922" xlink:href="#i"/>
<use x="394.824219" xlink:href="#k"/>
</g>
</g>
<defs>
<path id="b" d="m0 8.6603c2.2967 0 4.4997-0.9125 6.1237-2.5365 1.624-1.624 2.5365-3.827 2.5365-6.1237s-0.9125-4.4997-2.5365-6.1237c-1.624-1.624-3.827-2.5365-6.1237-2.5365s-4.4997 0.9125-6.1237 2.5365c-1.624 1.624-2.5365 3.827-2.5365 6.1237s0.9125 4.4997 2.5365 6.1237c1.624 1.624 3.827 2.5365 6.1237 2.5365z"/>
</defs>
<g clip-path="url(#a)">
<use x="71.393939" y="789.090909" fill="#ffffff" stroke="#ffffff" xlink:href="#b"/>
</g>
<g clip-path="url(#a)">
<use x="79.553247" y="789.090909" fill="#ffffff" stroke="#ffffff" xlink:href="#b"/>
</g>
<g clip-path="url(#a)">
<use x="90.432323" y="789.090909" fill="#ffffff" stroke="#ffffff" xlink:href="#b"/>
</g>
<g clip-path="url(#a)">
<use x="104.031169" y="789.090909" fill="#ffffff" stroke="#ffffff" xlink:href="#b"/>
</g>
<g clip-path="url(#a)">
<use x="120.349784" y="789.090909" fill="#ffffff" stroke="#ffffff" xlink:href="#b"/>
</g>
<g clip-path="url(#a)">
<use x="139.388167" y="789.090909" fill="#ffffff" stroke="#ffffff" xlink:href="#b"/>
</g>
<g clip-path="url(#a)">
<use x="161.14632" y="789.090909" fill="#ffffff" stroke="#ffffff" xlink:href="#b"/>
</g>
<g clip-path="url(#a)">
<use x="185.624242" y="789.090909" fill="#ffffff" stroke="#ffffff" xlink:href="#b"/>
</g>
<g clip-path="url(#a)">
<use x="212.821934" y="789.090909" fill="#ffffff" stroke="#ffffff" xlink:href="#b"/>
</g>
<g clip-path="url(#a)">
<use x="242.739394" y="789.090909" fill="#ffffff" stroke="#ffffff" xlink:href="#b"/>
</g>
<g clip-path="url(#a)">
<use x="275.376623" y="789.090909" fill="#ffffff" stroke="#ffffff" xlink:href="#b"/>
</g>
<g clip-path="url(#a)">
<use x="310.733622" y="789.090909" fill="#ffffff" stroke="#ffffff" xlink:href="#b"/>
</g>
<g clip-path="url(#a)">
<use x="348.81039" y="789.090909" fill="#ffffff" stroke="#ffffff" xlink:href="#b"/>
</g>
<g clip-path="url(#a)">
<use x="389.606926" y="789.090909" fill="#ffffff" stroke="#ffffff" xlink:href="#b"/>
</g>
<g clip-path="url(#a)">
<use x="433.123232" y="789.090909" fill="#ffffff" stroke="#ffffff" xlink:href="#b"/>
</g>
<g clip-path="url(#a)">
<use x="479.359307" y="789.090909" fill="#ffffff" stroke="#ffffff" xlink:href="#b"/>
</g>
<g clip-path="url(#a)">
<use x="528.315152" y="789.090909" fill="#ffffff" stroke="#ffffff" xlink:href="#b"/>
</g>
<g clip-path="url(#a)">
<use x="579.990765" y="789.090909" fill="#ffffff" stroke="#ffffff" xlink:href="#b"/>
</g>
<g clip-path="url(#a)">
<use x="634.386147" y="789.090909" fill="#ffffff" stroke="#ffffff" xlink:href="#b"/>
</g>
<g clip-path="url(#a)">
<use x="691.501299" y="789.090909" fill="#ffffff" stroke="#ffffff" xlink:href="#b"/>
</g>
<g clip-path="url(#a)">
<use x="751.336219" y="789.090909" fill="#ffffff" stroke="#ffffff" xlink:href="#b"/>
</g>
<g clip-path="url(#a)">
<use x="813.890909" y="789.090909" fill="#ffffff" stroke="#ffffff" xlink:href="#b"/>
</g>
<g clip-path="url(#a)">
<use x="879.165368" y="789.090909" fill="#ffffff" stroke="#ffffff" xlink:href="#b"/>
</g>
<g clip-path="url(#a)">
<use x="947.159596" y="789.090909" fill="#ffffff" stroke="#ffffff" xlink:href="#b"/>
</g>
<g clip-path="url(#a)">
<use x="1017.873593" y="789.090909" fill="#ffffff" stroke="#ffffff" xlink:href="#b"/>
</g>
<g clip-path="url(#a)">
<use x="1091.307359" y="789.090909" fill="#ffffff" stroke="#ffffff" xlink:href="#b"/>
</g>
<g clip-path="url(#a)">
<use x="1167.460895" y="789.090909" fill="#ffffff" stroke="#ffffff" xlink:href="#b"/>
</g>
<g clip-path="url(#a)">
<use x="1246.334199" y="789.090909" fill="#ffffff" stroke="#ffffff" xlink:href="#b"/>
</g>
<g clip-path="url(#a)">
<use x="1327.927273" y="789.090909" fill="#ffffff" stroke="#ffffff" xlink:href="#b"/>
</g>
<g clip-path="url(#a)">
<use x="1412.240115" y="789.090909" fill="#ffffff" stroke="#ffffff" xlink:href="#b"/>
</g>
<g clip-path="url(#a)">
<use x="1499.272727" y="789.090909" fill="#ffffff" stroke="#ffffff" xlink:href="#b"/>
</g>
<g clip-path="url(#a)">
<use x="398.292559" y="37.575758" fill="#ffffff" stroke="#ffffff" xlink:href="#b"/>
</g>
<g clip-path="url(#a)">
<use x="81.366426" y="469.730418" fill="#ffffff" stroke="#ffffff" xlink:href="#b"/>
</g>
<g clip-path="url(#a)">
<use x="161.14632" y="683.800522" fill="#ffffff" stroke="#ffffff" xlink:href="#b"/>
</g>
<g clip-path="url(#a)">
<use x="212.821934" y="683.800522" fill="#ffffff" stroke="#ffffff" xlink:href="#b"/>
</g>
<g clip-path="url(#a)">
<use x="298.545027" y="145.927271" fill="#ffffff" stroke="#ffffff" xlink:href="#b"/>
</g>
<g clip-path="url(#a)">
<use x="783.973449" y="577.045431" fill="#ffffff" stroke="#ffffff" xlink:href="#b"/>
</g>
<g clip-path="url(#a)">
<use x="947.159596" y="683.800522" fill="#ffffff" stroke="#ffffff" xlink:href="#b"/>
</g>
<g clip-path="url(#a)">
<use x="1052.550649" y="469.730418" fill="#ffffff" stroke="#ffffff" xlink:href="#b"/>
</g>
<g clip-path="url(#a)">
<use x="1017.873593" y="683.800522" fill="#ffffff" stroke="#ffffff" xlink:href="#b"/>
</g>
<g clip-path="url(#a)">
<use x="1129.384127" y="577.045431" fill="#ffffff" stroke="#ffffff" xlink:href="#b"/>
</g>
<g clip-path="url(#a)">
<use x="1371.443579" y="577.045431" fill="#ffffff" stroke="#ffffff" xlink:href="#b"/>
</g>
<g clip-path="url(#a)">
<use x="1246.334199" y="683.800522" fill="#ffffff" stroke="#ffffff" xlink:href="#b"/>
</g>
<g clip-path="url(#a)">
<use x="1327.927273" y="683.800522" fill="#ffffff" stroke="#ffffff" xlink:href="#b"/>
</g>
<g clip-path="url(#a)">
<use x="1412.240115" y="683.800522" fill="#ffffff" stroke="#ffffff" xlink:href="#b"/>
</g>
<g clip-path="url(#a)">
<use x="1091.307359" y="683.800522" fill="#ffffff" stroke="#ffffff" xlink:href="#b"/>
</g>
<g clip-path="url(#a)">
<use x="1167.460895" y="683.800522" fill="#ffffff" stroke="#ffffff" xlink:href="#b"/>
</g>
<g clip-path="url(#a)">
<use x="691.501299" y="683.800522" fill="#ffffff" stroke="#ffffff" xlink:href="#b"/>
</g>
<g clip-path="url(#a)">
<use x="751.336219" y="683.800522" fill="#ffffff" stroke="#ffffff" xlink:href="#b"/>
</g>
<g clip-path="url(#a)">
<use x="813.890909" y="683.800522" fill="#ffffff" stroke="#ffffff" xlink:href="#b"/>
</g>
<g clip-path="url(#a)">
<use x="879.165368" y="683.800522" fill="#ffffff" stroke="#ffffff" xlink:href="#b"/>
</g>
<g clip-path="url(#a)">
<use x="242.739394" y="683.800522" fill="#ffffff" stroke="#ffffff" xlink:href="#b"/>
</g>
<g clip-path="url(#a)">
<use x="275.376623" y="683.800522" fill="#ffffff" stroke="#ffffff" xlink:href="#b"/>
</g>
<g clip-path="url(#a)">
<use x="377.519064" y="254.097508" fill="#ffffff" stroke="#ffffff" xlink:href="#b"/>
</g>
<g clip-path="url(#a)">
<use x="310.733622" y="683.800522" fill="#ffffff" stroke="#ffffff" xlink:href="#b"/>
</g>
<g clip-path="url(#a)">
<use x="348.81039" y="683.800522" fill="#ffffff" stroke="#ffffff" xlink:href="#b"/>
</g>
<g clip-path="url(#a)">
<use x="473.013179" y="362.050166" fill="#ffffff" stroke="#ffffff" xlink:href="#b"/>
</g>
<g clip-path="url(#a)">
<use x="389.606926" y="683.800522" fill="#ffffff" stroke="#ffffff" xlink:href="#b"/>
</g>
<g clip-path="url(#a)">
<use x="433.123232" y="683.800522" fill="#ffffff" stroke="#ffffff" xlink:href="#b"/>
</g>
<g clip-path="url(#a)">
<use x="479.359307" y="683.800522" fill="#ffffff" stroke="#ffffff" xlink:href="#b"/>
</g>
<g clip-path="url(#a)">
<use x="589.963252" y="469.730418" fill="#ffffff" stroke="#ffffff" xlink:href="#b"/>
</g>
<g clip-path="url(#a)">
<use x="528.315152" y="683.800522" fill="#ffffff" stroke="#ffffff" xlink:href="#b"/>
</g>
<g clip-path="url(#a)">
<use x="607.188456" y="577.045431" fill="#ffffff" stroke="#ffffff" xlink:href="#b"/>
</g>
<g clip-path="url(#a)">
<use x="634.386147" y="683.800522" fill="#ffffff" stroke="#ffffff" xlink:href="#b"/>
</g>
<g clip-path="url(#a)">
<use x="579.990765" y="683.800522" fill="#ffffff" stroke="#ffffff" xlink:href="#b"/>
</g>
<g clip-path="url(#a)">
<use x="71.393939" y="683.800522" fill="#ffffff" stroke="#ffffff" xlink:href="#b"/>
</g>
<g clip-path="url(#a)">
<use x="91.338913" y="577.045431" fill="#ffffff" stroke="#ffffff" xlink:href="#b"/>
</g>
<g clip-path="url(#a)">
<use x="79.553247" y="683.800522" fill="#ffffff" stroke="#ffffff" xlink:href="#b"/>
</g>
<g clip-path="url(#a)">
<use x="90.432323" y="683.800522" fill="#ffffff" stroke="#ffffff" xlink:href="#b"/>
</g>
<g clip-path="url(#a)">
<use x="104.031169" y="683.800522" fill="#ffffff" stroke="#ffffff" xlink:href="#b"/>
</g>
<g clip-path="url(#a)">
<use x="120.349784" y="683.800522" fill="#ffffff" stroke="#ffffff" xlink:href="#b"/>
</g>
<g clip-path="url(#a)">
<use x="139.388167" y="683.800522" fill="#ffffff" stroke="#ffffff" xlink:href="#b"/>
</g>
<g clip-path="url(#a)">
<use x="185.624242" y="683.800522" fill="#ffffff" stroke="#ffffff" xlink:href="#b"/>
</g>
<g clip-path="url(#a)">
<use x="1499.272727" y="683.800522" fill="#ffffff" stroke="#ffffff" xlink:href="#b"/>
</g>
<g clip-path="url(#a)">
<defs>
<path id="z" d="m8.5 21.578v33.109h8.9844v-32.766q0-7.7656 3.0156-11.656 3.0312-3.875 9.0938-3.875 7.2656 0 11.484 4.6406 4.2344 4.6406 4.2344 12.656v31h8.9844v-54.688h-8.9844v8.4062q-3.2656-4.9844-7.5938-7.4062-4.3125-2.4219-10.031-2.4219-9.4219 0-14.312 5.8594-4.875 5.8594-4.875 17.141z"/>
<path id="ae" d="m44.281 53.078v-8.5q-3.7969 1.9531-7.9062 2.9219-4.0938 0.98438-8.5 0.98438-6.6875 0-10.031-2.0469t-3.3438-6.1562q0-3.125 2.3906-4.9062t9.625-3.3906l3.0781-0.6875q9.5625-2.0469 13.594-5.7812t4.0312-10.422q0-7.625-6.0312-12.078-6.0312-4.4375-16.578-4.4375-4.3906 0-9.1562 0.85938t-10.031 2.5625v9.2812q4.9844-2.5938 9.8125-3.8906 4.8281-1.2812 9.5781-1.2812 6.3438 0 9.75 2.1719 3.4219 2.1719 3.4219 6.125 0 3.6562-2.4688 5.6094-2.4531 1.9531-10.812 3.7656l-3.125 0.73438q-8.3438 1.75-12.062 5.3906-3.7031 3.6406-3.7031 9.9844 0 7.7188 5.4688 11.906 5.4688 4.2031 15.531 4.2031 4.9688 0 9.3594-0.73438 4.4062-0.71875 8.1094-2.1875z"/>
</defs>
<g transform="translate(57.906 791.85) scale(.1 -.1)">
<use xlink:href="#u"/>
<use x="64.982422" xlink:href="#z"/>
<use x="128.361328" xlink:href="#k"/>
<use x="156.144531" xlink:href="#e"/>
<use x="217.667969" xlink:href="#ae"/>
</g>
</g>
<g clip-path="url(#a)">
<g transform="translate(74.995 791.85) scale(.1 -.1)">
<use xlink:href="#g"/>
<use x="27.783203" xlink:href="#h"/>
</g>
</g>
<g clip-path="url(#a)">
<defs>
<path id="r" d="m18.312 70.219v-15.531h18.5v-6.9844h-18.5v-29.688q0-6.6875 1.8281-8.5938t7.4531-1.9062h9.2188v-7.5156h-9.2188q-10.406 0-14.359 3.875-3.9531 3.8906-3.9531 14.141v29.688h-6.5938v6.9844h6.5938v15.531z"/>
<path id="t" d="m54.891 33.016v-33.016h-8.9844v32.719q0 7.7656-3.0312 11.609-3.0312 3.8594-9.0781 3.8594-7.2812 0-11.484-4.6406-4.2031-4.625-4.2031-12.641v-30.906h-9.0312v75.984h9.0312v-29.797q3.2344 4.9375 7.5938 7.375 4.375 2.4375 10.094 2.4375 9.4219 0 14.25-5.8281 4.8438-5.8281 4.8438-17.156z"/>
</defs>
<g transform="translate(82.227 791.85) scale(.1 -.1)">
<use xlink:href="#r"/>
<use x="39.208984" xlink:href="#t"/>
<use x="102.587891" xlink:href="#e"/>
</g>
</g>
<g clip-path="url(#a)">
<defs>
<path id="p" d="m30.609 48.391q-7.2188 0-11.422-5.6406t-4.2031-15.453 4.1719-15.453q4.1875-5.6406 11.453-5.6406 7.1875 0 11.375 5.6562 4.2031 5.6719 4.2031 15.438 0 9.7188-4.2031 15.406-4.1875 5.6875-11.375 5.6875zm0 7.6094q11.719 0 18.406-7.625 6.7031-7.6094 6.7031-21.078 0-13.422-6.7031-21.078-6.6875-7.6406-18.406-7.6406-11.766 0-18.438 7.6406-6.6562 7.6562-6.6562 21.078 0 13.469 6.6562 21.078 6.6719 7.625 18.438 7.625z"/>
</defs>
<g transform="translate(91.099 791.85) scale(.1 -.1)">
<use xlink:href="#f"/>
<use x="38.863281" xlink:href="#p"/>
<use x="100.044922" xlink:href="#p"/>
<use x="161.226562" xlink:href="#j"/>
</g>
</g>
<g clip-path="url(#a)">
<defs>
<path id="as" d="m11.719 12.406h10.297v-12.406h-10.297zm0 39.297h10.297v-12.391h-10.297z"/>
</defs>
<g transform="translate(118.67 791.85) scale(.1 -.1)">
<use xlink:href="#as"/>
</g>
</g>
<g clip-path="url(#a)">
<defs>
<path id="au" d="m51.125 44h-14.203l-4.1094-16.312h14.312zm-7.3281 27.781-5.0781-20.266h14.266l5.125 20.266h7.8125l-5.0312-20.266h15.234v-7.5156h-17.141l-4-16.312h15.531v-7.4688h-17.438l-5.0781-20.219h-7.8125l5.0312 20.219h-14.312l-5.0312-20.219h-7.8594l5.0781 20.219h-15.375v7.4688h17.188l4.0938 16.312h-15.719v7.5156h17.625l4.9844 20.266z"/>
</defs>
<g transform="translate(135.2 791.85) scale(.1 -.1)">
<use xlink:href="#au"/>
</g>
</g>
<g clip-path="url(#a)">
<defs>
<path id="c" d="m12.406 8.2969h16.109v55.625l-17.531-3.5156v8.9844l17.438 3.5156h9.8594v-64.609h16.109v-8.2969h-41.984z"/>
</defs>
<g transform="translate(157.97 791.85) scale(.1 -.1)">
<use xlink:href="#c"/>
</g>
</g>
<g clip-path="url(#a)">
<defs>
<path id="at" d="m8.0156 75.875h7.8125q7.3125-11.516 10.953-22.562 3.6406-11.031 3.6406-21.922 0-10.938-3.6406-22.016t-10.953-22.562h-7.8125q6.4844 11.188 9.6875 22.25t3.2031 22.328q0 11.281-3.2031 22.266-3.2031 11-9.6875 22.219z"/>
</defs>
<g transform="translate(183.67 791.85) scale(.1 -.1)">
<use xlink:href="#at"/>
</g>
</g>
<g clip-path="url(#a)">
<defs>
<path id="ak" d="m37.109 75.984v-7.4844h-8.5938q-4.8281 0-6.7188-1.9531-1.875-1.9531-1.875-7.0312v-4.8281h14.797v-6.9844h-14.797v-47.703h-9.0312v47.703h-8.5938v6.9844h8.5938v3.8125q0 9.125 4.25 13.297 4.25 4.1875 13.469 4.1875z"/>
</defs>
<g transform="translate(209.67 791.85) scale(.1 -.1)">
<use xlink:href="#g"/>
<use x="27.783203" xlink:href="#ak"/>
</g>
</g>
<g clip-path="url(#a)">
<defs>
<path id="ad" d="m32.172-5.0781q-3.7969-9.7656-7.4219-12.734-3.6094-2.9844-9.6562-2.9844h-7.1875v7.5156h5.2812q3.7031 0 5.75 1.7656 2.0625 1.75 4.5469 8.2969l1.6094 4.0938-22.109 53.812h9.5156l17.094-42.766 17.094 42.766h9.5156z"/>
</defs>
<g transform="translate(233.55 791.85) scale(.1 -.1)">
<use xlink:href="#ad"/>
<use x="59.179688" xlink:href="#p"/>
<use x="120.361328" xlink:href="#z"/>
</g>
</g>
<g clip-path="url(#a)">
<defs>
<path id="al" d="m45.406 46.391v29.594h8.9844v-75.984h-8.9844v8.2031q-2.8281-4.875-7.1562-7.25-4.3125-2.375-10.375-2.375-9.9062 0-16.141 7.9062-6.2188 7.9219-6.2188 20.812t6.2188 20.797q6.2344 7.9062 16.141 7.9062 6.0625 0 10.375-2.375 4.3281-2.3594 7.1562-7.2344zm-30.609-19.094q0-9.9062 4.0781-15.547t11.203-5.6406 11.219 5.6406q4.1094 5.6406 4.1094 15.547t-4.1094 15.547q-4.0938 5.6406-11.219 5.6406t-11.203-5.6406-4.0781-15.547z"/>
<path id="aw" d="m9.0781 75.984h9.0312v-44.875l26.812 23.578h11.469l-29-25.578 30.234-29.109h-11.719l-27.797 26.703v-26.703h-9.0312z"/>
</defs>
<g transform="translate(262.69 791.85) scale(.1 -.1)">
<use xlink:href="#al"/>
<use x="63.476562" xlink:href="#f"/>
<use x="104.589844" xlink:href="#g"/>
<use x="132.373047" xlink:href="#h"/>
<use x="195.751953" xlink:href="#aw"/>
</g>
</g>
<g clip-path="url(#a)">
<g transform="translate(302.53 791.85) scale(.1 -.1)">
<use xlink:href="#r"/>
<use x="39.208984" xlink:href="#t"/>
<use x="102.587891" xlink:href="#e"/>
</g>
</g>
<g clip-path="url(#a)">
<g transform="translate(336.91 791.85) scale(.1 -.1)">
<use xlink:href="#ae"/>
<use x="52.099609" xlink:href="#p"/>
<use x="113.28125" xlink:href="#al"/>
<use x="176.757812" xlink:href="#i"/>
</g>
</g>
<g clip-path="url(#a)">
<g transform="translate(377.97 791.85) scale(.1 -.1)">
<use xlink:href="#ak"/>
<use x="35.205078" xlink:href="#f"/>
<use x="74.068359" xlink:href="#p"/>
<use x="135.25" xlink:href="#j"/>
</g>
</g>
<g clip-path="url(#a)">
<g transform="translate(424.92 791.85) scale(.1 -.1)">
<use xlink:href="#r"/>
<use x="39.208984" xlink:href="#t"/>
<use x="102.587891" xlink:href="#e"/>
</g>
</g>
<g clip-path="url(#a)">
<defs>
<path id="ao" d="m45.406 27.984q0 9.7656-4.0312 15.125-4.0156 5.375-11.297 5.375-7.2188 0-11.25-5.375-4.0312-5.3594-4.0312-15.125 0-9.7188 4.0312-15.094t11.25-5.375q7.2812 0 11.297 5.375 4.0312 5.375 4.0312 15.094zm8.9844-21.203q0-13.953-6.2031-20.766-6.1875-6.8125-18.984-6.8125-4.7344 0-8.9375 0.70312t-8.1562 2.1719v8.7344q3.9531-2.1406 7.8125-3.1562 3.8594-1.0312 7.8594-1.0312 8.8438 0 13.234 4.6094t4.3906 13.938v4.4531q-2.7812-4.8438-7.125-7.2344t-10.406-2.3906q-10.047 0-16.203 7.6562-6.1562 7.6719-6.1562 20.328 0 12.688 6.1562 20.344 6.1562 7.6719 16.203 7.6719 6.0625 0 10.406-2.3906t7.125-7.2188v8.2969h8.9844z"/>
</defs>
<g transform="translate(464.73 791.85) scale(.1 -.1)">
<use xlink:href="#ak"/>
<use x="35.205078" xlink:href="#f"/>
<use x="76.318359" xlink:href="#g"/>
<use x="104.101562" xlink:href="#al"/>
<use x="167.578125" xlink:href="#ao"/>
<use x="231.054688" xlink:href="#e"/>
</g>
</g>
<g clip-path="url(#a)">
<g transform="translate(523.76 791.85) scale(.1 -.1)">
<use xlink:href="#g"/>
<use x="27.783203" xlink:href="#h"/>
</g>
</g>
<g clip-path="url(#a)">
<g transform="translate(568.75 791.85) scale(.1 -.1)">
<use xlink:href="#ad"/>
<use x="59.179688" xlink:href="#p"/>
<use x="120.361328" xlink:href="#z"/>
<use x="183.740234" xlink:href="#f"/>
</g>
</g>
<g clip-path="url(#a)">
<g transform="translate(621.45 791.85) scale(.1 -.1)">
<use xlink:href="#f"/>
<use x="38.863281" xlink:href="#p"/>
<use x="100.044922" xlink:href="#p"/>
<use x="161.226562" xlink:href="#j"/>
</g>
</g>
<g clip-path="url(#a)">
<g transform="translate(682.31 791.85) scale(.1 -.1)">
<use xlink:href="#ad"/>
<use x="59.179688" xlink:href="#p"/>
<use x="120.361328" xlink:href="#z"/>
</g>
</g>
<g clip-path="url(#a)">
<g transform="translate(738.73 791.85) scale(.1 -.1)">
<use xlink:href="#j"/>
<use x="97.412109" xlink:href="#z"/>
<use x="160.791016" xlink:href="#ae"/>
<use x="212.890625" xlink:href="#r"/>
</g>
</g>
<g clip-path="url(#a)">
<defs>
<path id="av" d="m18.109 8.2031v-29h-9.0312v75.484h9.0312v-8.2969q2.8438 4.875 7.1562 7.2344 4.3281 2.375 10.328 2.375 9.9688 0 16.188-7.9062 6.2344-7.9062 6.2344-20.797t-6.2344-20.812q-6.2188-7.9062-16.188-7.9062-6 0-10.328 2.375-4.3125 2.375-7.1562 7.25zm30.578 19.094q0 9.9062-4.0781 15.547t-11.203 5.6406q-7.1406 0-11.219-5.6406t-4.0781-15.547 4.0781-15.547 11.219-5.6406q7.125 0 11.203 5.6406t4.0781 15.547z"/>
<path id="an" d="m2.9844 54.688h9.5156l17.094-45.891 17.094 45.891h9.5156l-20.516-54.688h-12.203z"/>
</defs>
<g transform="translate(799.68 791.85) scale(.1 -.1)">
<use xlink:href="#av"/>
<use x="63.476562" xlink:href="#f"/>
<use x="102.339844" xlink:href="#p"/>
<use x="163.521484" xlink:href="#an"/>
<use x="222.701172" xlink:href="#e"/>
</g>
</g>
<g clip-path="url(#a)">
<g transform="translate(875.82 791.85) scale(.1 -.1)">
<use xlink:href="#g"/>
<use x="27.783203" xlink:href="#r"/>
</g>
</g>
<g clip-path="url(#a)">
<defs>
<path id="aq" d="m48.688 27.297q0 9.9062-4.0781 15.547t-11.203 5.6406q-7.1406 0-11.219-5.6406t-4.0781-15.547 4.0781-15.547 11.219-5.6406q7.125 0 11.203 5.6406t4.0781 15.547zm-30.578 19.094q2.8438 4.875 7.1562 7.2344 4.3281 2.375 10.328 2.375 9.9688 0 16.188-7.9062 6.2344-7.9062 6.2344-20.797t-6.2344-20.812q-6.2188-7.9062-16.188-7.9062-6 0-10.328 2.375-4.3125 2.375-7.1562 7.25v-8.2031h-9.0312v75.984h9.0312z"/>
</defs>
<g transform="translate(941.03 791.85) scale(.1 -.1)">
<use xlink:href="#aq"/>
<use x="63.476562" xlink:href="#ad"/>
</g>
</g>
<g clip-path="url(#a)">
<g transform="translate(999.65 791.85) scale(.1 -.1)">
<use xlink:href="#k"/>
<use x="27.783203" xlink:href="#e"/>
<use x="89.306641" xlink:href="#i"/>
<use x="150.585938" xlink:href="#an"/>
<use x="209.765625" xlink:href="#g"/>
<use x="237.548828" xlink:href="#h"/>
<use x="300.927734" xlink:href="#ao"/>
</g>
</g>
<g clip-path="url(#a)">
<g transform="translate(1083.1 791.85) scale(.1 -.1)">
<use xlink:href="#r"/>
<use x="39.208984" xlink:href="#t"/>
<use x="102.587891" xlink:href="#e"/>
</g>
</g>
<g clip-path="url(#a)">
<defs>
<path id="ap" d="m48.781 52.594v-8.4062q-3.8125 2.1094-7.6406 3.1562t-7.7344 1.0469q-8.75 0-13.594-5.5469-4.8281-5.5312-4.8281-15.547t4.8281-15.562q4.8438-5.5312 13.594-5.5312 3.9062 0 7.7344 1.0469t7.6406 3.1562v-8.3125q-3.7656-1.75-7.7969-2.625-4.0156-0.89062-8.5625-0.89062-12.359 0-19.641 7.7656-7.2656 7.7656-7.2656 20.953 0 13.375 7.3438 21.031 7.3594 7.6719 20.156 7.6719 4.1406 0 8.0938-0.85938 3.9531-0.84375 7.6719-2.5469z"/>
</defs>
<g transform="translate(1158.5 791.85) scale(.1 -.1)">
<use xlink:href="#ap"/>
<use x="54.980469" xlink:href="#i"/>
<use x="116.259766" xlink:href="#h"/>
</g>
</g>
<g clip-path="url(#a)">
<g transform="translate(1241.8 791.85) scale(.1 -.1)">
<use xlink:href="#g"/>
<use x="27.783203" xlink:href="#h"/>
</g>
</g>
<g clip-path="url(#a)">
<g transform="translate(1319.7 791.85) scale(.1 -.1)">
<use xlink:href="#r"/>
<use x="39.208984" xlink:href="#t"/>
<use x="102.587891" xlink:href="#e"/>
</g>
</g>
<g clip-path="url(#a)">
<g transform="translate(1399.4 791.85) scale(.1 -.1)">
<use xlink:href="#r"/>
<use x="39.208984" xlink:href="#f"/>
<use x="80.322266" xlink:href="#i"/>
<use x="141.601562" xlink:href="#ae"/>
<use x="193.701172" xlink:href="#t"/>
</g>
</g>
<g clip-path="url(#a)">
<defs>
<path id="d" d="m10.688 12.406h10.312v-12.406h-10.312z"/>
</defs>
<g transform="translate(1497.7 791.85) scale(.1 -.1)">
<use xlink:href="#d"/>
</g>
</g>
<g clip-path="url(#a)">
<g transform="translate(390.34 40.335) scale(.1 -.1)">
<use xlink:href="#c"/>
<use x="63.623047" xlink:href="#d"/>
<use x="95.410156" xlink:href="#c"/>
</g>
</g>
<g clip-path="url(#a)">
<defs>
<path id="n" d="m19.188 8.2969h34.422v-8.2969h-46.281v8.2969q5.6094 5.8125 15.297 15.594 9.7031 9.7969 12.188 12.641 4.7344 5.3125 6.6094 9 1.8906 3.6875 1.8906 7.25 0 5.8125-4.0781 9.4688-4.0781 3.6719-10.625 3.6719-4.6406 0-9.7969-1.6094-5.1406-1.6094-11-4.8906v9.9688q5.9531 2.3906 11.125 3.6094 5.1875 1.2188 9.4844 1.2188 11.328 0 18.062-5.6719 6.7344-5.6562 6.7344-15.125 0-4.5-1.6875-8.5312-1.6719-4.0156-6.125-9.4844-1.2188-1.4219-7.7656-8.1875-6.5312-6.7656-18.453-18.922z"/>
</defs>
<g transform="translate(73.415 472.49) scale(.1 -.1)">
<use xlink:href="#c"/>
<use x="63.623047" xlink:href="#d"/>
<use x="95.410156" xlink:href="#n"/>
</g>
</g>
<g clip-path="url(#a)">
<defs>
<path id="m" d="m40.578 39.312q7.0781-1.5156 11.047-6.3125 3.9844-4.7812 3.9844-11.812 0-10.781-7.4219-16.703-7.4219-5.9062-21.094-5.9062-4.5781 0-9.4375 0.90625t-10.031 2.7188v9.5156q4.0938-2.3906 8.9688-3.6094 4.8906-1.2188 10.219-1.2188 9.2656 0 14.125 3.6562t4.8594 10.641q0 6.4531-4.5156 10.078-4.5156 3.6406-12.562 3.6406h-8.5v8.1094h8.8906q7.2656 0 11.125 2.9062t3.8594 8.375q0 5.6094-3.9844 8.6094-3.9688 3.0156-11.391 3.0156-4.0625 0-8.7031-0.89062-4.6406-0.875-10.203-2.7188v8.7812q5.625 1.5625 10.531 2.3438t9.25 0.78125q11.234 0 17.766-5.1094 6.5469-5.0938 6.5469-13.781 0-6.0625-3.4688-10.234t-9.8594-5.7812z"/>
</defs>
<g transform="translate(153.19 686.56) scale(.1 -.1)">
<use xlink:href="#c"/>
<use x="63.623047" xlink:href="#d"/>
<use x="95.410156" xlink:href="#m"/>
</g>
</g>
<g clip-path="url(#a)">
<defs>
<path id="o" d="m37.797 64.312-24.906-38.922h24.906zm-2.5938 8.5938h12.406v-47.516h10.406v-8.2031h-10.406v-17.188h-9.8125v17.188h-32.906v9.5156z"/>
</defs>
<g transform="translate(204.87 686.56) scale(.1 -.1)">
<use xlink:href="#c"/>
<use x="63.623047" xlink:href="#d"/>
<use x="95.410156" xlink:href="#o"/>
</g>
</g>
<g clip-path="url(#a)">
<defs>
<path id="y" d="m10.797 72.906h38.719v-8.3125h-29.688v-17.859q2.1406 0.73438 4.2812 1.0938 2.1562 0.35938 4.3125 0.35938 12.203 0 19.328-6.6875 7.1406-6.6875 7.1406-18.109 0-11.766-7.3281-18.297-7.3281-6.5156-20.656-6.5156-4.5938 0-9.3594 0.78125-4.75 0.78125-9.8281 2.3438v9.9219q4.3906-2.3906 9.0781-3.5625t9.9062-1.1719q8.4531 0 13.375 4.4375 4.9375 4.4375 4.9375 12.062 0 7.6094-4.9375 12.047-4.9219 4.4531-13.375 4.4531-3.9531 0-7.8906-0.875-3.9219-0.875-8.0156-2.7344z"/>
</defs>
<g transform="translate(290.59 148.69) scale(.1 -.1)">
<use xlink:href="#c"/>
<use x="63.623047" xlink:href="#d"/>
<use x="95.410156" xlink:href="#y"/>
</g>
</g>
<g clip-path="url(#a)">
<defs>
<path id="x" d="m33.016 40.375q-6.6406 0-10.531-4.5469-3.875-4.5312-3.875-12.438 0-7.8594 3.875-12.438 3.8906-4.5625 10.531-4.5625t10.516 4.5625q3.875 4.5781 3.875 12.438 0 7.9062-3.875 12.438-3.875 4.5469-10.516 4.5469zm19.578 30.922v-8.9844q-3.7188 1.75-7.5 2.6719-3.7812 0.9375-7.5 0.9375-9.7656 0-14.922-6.5938-5.1406-6.5938-5.875-19.922 2.875 4.25 7.2188 6.5156 4.3594 2.2656 9.5781 2.2656 10.984 0 17.359-6.6719 6.375-6.6562 6.375-18.125 0-11.234-6.6406-18.031-6.6406-6.7812-17.672-6.7812-12.656 0-19.344 9.6875-6.6875 9.7031-6.6875 28.109 0 17.281 8.2031 27.562t22.016 10.281q3.7188 0 7.5-0.73438t7.8906-2.1875z"/>
</defs>
<g transform="translate(776.02 579.8) scale(.1 -.1)">
<use xlink:href="#c"/>
<use x="63.623047" xlink:href="#d"/>
<use x="95.410156" xlink:href="#x"/>
</g>
</g>
<g clip-path="url(#a)">
<defs>
<path id="w" d="m8.2031 72.906h46.875v-4.2031l-26.469-68.703h-10.297l24.906 64.594h-35.016z"/>
</defs>
<g transform="translate(939.21 686.56) scale(.1 -.1)">
<use xlink:href="#c"/>
<use x="63.623047" xlink:href="#d"/>
<use x="95.410156" xlink:href="#w"/>
</g>
</g>
<g clip-path="url(#a)">
<defs>
<path id="ac" d="m31.781 34.625q-7.0312 0-11.062-3.7656-4.0156-3.7656-4.0156-10.344 0-6.5938 4.0156-10.359 4.0312-3.7656 11.062-3.7656t11.078 3.7812q4.0625 3.7969 4.0625 10.344 0 6.5781-4.0312 10.344-4.0156 3.7656-11.109 3.7656zm-9.8594 4.1875q-6.3438 1.5625-9.8906 5.9062-3.5312 4.3594-3.5312 10.609 0 8.7344 6.2188 13.812 6.2344 5.0781 17.062 5.0781 10.891 0 17.094-5.0781t6.2031-13.812q0-6.25-3.5469-10.609-3.5312-4.3438-9.8281-5.9062 7.125-1.6562 11.094-6.5 3.9844-4.8281 3.9844-11.797 0-10.609-6.4688-16.281-6.4688-5.6562-18.531-5.6562-12.047 0-18.531 5.6562-6.4688 5.6719-6.4688 16.281 0 6.9688 4 11.797 4.0156 4.8438 11.141 6.5zm-3.6094 15.578q0-5.6562 3.5312-8.8281 3.5469-3.1719 9.9375-3.1719 6.3594 0 9.9375 3.1719 3.5938 3.1719 3.5938 8.8281 0 5.6719-3.5938 8.8438-3.5781 3.1719-9.9375 3.1719-6.3906 0-9.9375-3.1719-3.5312-3.1719-3.5312-8.8438z"/>
</defs>
<g transform="translate(1044.6 472.49) scale(.1 -.1)">
<use xlink:href="#c"/>
<use x="63.623047" xlink:href="#d"/>
<use x="95.410156" xlink:href="#ac"/>
</g>
</g>
<g clip-path="url(#a)">
<g transform="translate(1006.7 686.56) scale(.1 -.1)">
<use xlink:href="#c"/>
<use x="63.623047" xlink:href="#d"/>
<use x="95.410156" xlink:href="#c"/>
<use x="159.033203" xlink:href="#m"/>
</g>
</g>
<g clip-path="url(#a)">
<g transform="translate(1118.3 579.8) scale(.1 -.1)">
<use xlink:href="#c"/>
<use x="63.623047" xlink:href="#d"/>
<use x="95.410156" xlink:href="#c"/>
<use x="159.033203" xlink:href="#o"/>
</g>
</g>
<g clip-path="url(#a)">
<g transform="translate(1360.3 579.8) scale(.1 -.1)">
<use xlink:href="#c"/>
<use x="63.623047" xlink:href="#d"/>
<use x="95.410156" xlink:href="#c"/>
<use x="159.033203" xlink:href="#y"/>
</g>
</g>
<g clip-path="url(#a)">
<g transform="translate(1235.2 686.56) scale(.1 -.1)">
<use xlink:href="#c"/>
<use x="63.623047" xlink:href="#d"/>
<use x="95.410156" xlink:href="#c"/>
<use x="159.033203" xlink:href="#x"/>
</g>
</g>
<g clip-path="url(#a)">
<g transform="translate(1316.8 686.56) scale(.1 -.1)">
<use xlink:href="#c"/>
<use x="63.623047" xlink:href="#d"/>
<use x="95.410156" xlink:href="#c"/>
<use x="159.033203" xlink:href="#w"/>
</g>
</g>
<g clip-path="url(#a)">
<g transform="translate(1401.1 686.56) scale(.1 -.1)">
<use xlink:href="#c"/>
<use x="63.623047" xlink:href="#d"/>
<use x="95.410156" xlink:href="#c"/>
<use x="159.033203" xlink:href="#ac"/>
</g>
</g>
<g clip-path="url(#a)">
<defs>
<path id="ai" d="m10.984 1.5156v8.9844q3.7188-1.7656 7.5156-2.6875 3.8125-0.92188 7.4844-0.92188 9.7656 0 14.906 6.5625 5.1562 6.5625 5.8906 19.953-2.8281-4.2031-7.1875-6.4531-4.3438-2.25-9.6094-2.25-10.938 0-17.312 6.6094-6.375 6.625-6.375 18.109 0 11.219 6.6406 18 6.6406 6.7969 17.672 6.7969 12.656 0 19.312-9.7031 6.6719-9.6875 6.6719-28.141 0-17.234-8.1875-27.516-8.1719-10.281-21.984-10.281-3.7188 0-7.5312 0.73438-3.7969 0.73438-7.9062 2.2031zm19.625 30.906q6.6406 0 10.516 4.5312 3.8906 4.5469 3.8906 12.469 0 7.8594-3.8906 12.422-3.875 4.5625-10.516 4.5625t-10.516-4.5625-3.875-12.422q0-7.9219 3.875-12.469 3.875-4.5312 10.516-4.5312z"/>
</defs>
<g transform="translate(1080.2 686.56) scale(.1 -.1)">
<use xlink:href="#c"/>
<use x="63.623047" xlink:href="#d"/>
<use x="95.410156" xlink:href="#c"/>
<use x="159.033203" xlink:href="#ai"/>
</g>
</g>
<g clip-path="url(#a)">
<defs>
<path id="aj" d="m31.781 66.406q-7.6094 0-11.453-7.5-3.8281-7.4844-3.8281-22.531 0-14.984 3.8281-22.484 3.8438-7.5 11.453-7.5 7.6719 0 11.5 7.5 3.8438 7.5 3.8438 22.484 0 15.047-3.8438 22.531-3.8281 7.5-11.5 7.5zm0 7.8125q12.266 0 18.734-9.7031 6.4688-9.6875 6.4688-28.141 0-18.406-6.4688-28.109-6.4688-9.6875-18.734-9.6875-12.25 0-18.719 9.6875-6.4688 9.7031-6.4688 28.109 0 18.453 6.4688 28.141 6.4688 9.7031 18.719 9.7031z"/>
</defs>
<g transform="translate(1156.3 686.56) scale(.1 -.1)">
<use xlink:href="#c"/>
<use x="63.623047" xlink:href="#d"/>
<use x="95.410156" xlink:href="#n"/>
<use x="159.033203" xlink:href="#aj"/>
</g>
</g>
<g clip-path="url(#a)">
<g transform="translate(680.37 686.56) scale(.1 -.1)">
<use xlink:href="#c"/>
<use x="63.623047" xlink:href="#d"/>
<use x="95.410156" xlink:href="#n"/>
<use x="159.033203" xlink:href="#c"/>
</g>
</g>
<g clip-path="url(#a)">
<g transform="translate(740.2 686.56) scale(.1 -.1)">
<use xlink:href="#c"/>
<use x="63.623047" xlink:href="#d"/>
<use x="95.410156" xlink:href="#n"/>
<use x="159.033203" xlink:href="#n"/>
</g>
</g>
<g clip-path="url(#a)">
<g transform="translate(802.76 686.56) scale(.1 -.1)">
<use xlink:href="#c"/>
<use x="63.623047" xlink:href="#d"/>
<use x="95.410156" xlink:href="#n"/>
<use x="159.033203" xlink:href="#m"/>
</g>
</g>
<g clip-path="url(#a)">
<g transform="translate(868.03 686.56) scale(.1 -.1)">
<use xlink:href="#c"/>
<use x="63.623047" xlink:href="#d"/>
<use x="95.410156" xlink:href="#n"/>
<use x="159.033203" xlink:href="#o"/>
</g>
</g>
<g clip-path="url(#a)">
<g transform="translate(231.61 686.56) scale(.1 -.1)">
<use xlink:href="#c"/>
<use x="63.623047" xlink:href="#d"/>
<use x="95.410156" xlink:href="#n"/>
<use x="159.033203" xlink:href="#y"/>
</g>
</g>
<g clip-path="url(#a)">
<g transform="translate(264.24 686.56) scale(.1 -.1)">
<use xlink:href="#c"/>
<use x="63.623047" xlink:href="#d"/>
<use x="95.410156" xlink:href="#n"/>
<use x="159.033203" xlink:href="#x"/>
</g>
</g>
<g clip-path="url(#a)">
<g transform="translate(366.39 256.86) scale(.1 -.1)">
<use xlink:href="#c"/>
<use x="63.623047" xlink:href="#d"/>
<use x="95.410156" xlink:href="#n"/>
<use x="159.033203" xlink:href="#w"/>
</g>
</g>
<g clip-path="url(#a)">
<g transform="translate(299.6 686.56) scale(.1 -.1)">
<use xlink:href="#c"/>
<use x="63.623047" xlink:href="#d"/>
<use x="95.410156" xlink:href="#n"/>
<use x="159.033203" xlink:href="#ac"/>
</g>
</g>
<g clip-path="url(#a)">
<g transform="translate(337.68 686.56) scale(.1 -.1)">
<use xlink:href="#c"/>
<use x="63.623047" xlink:href="#d"/>
<use x="95.410156" xlink:href="#n"/>
<use x="159.033203" xlink:href="#ai"/>
</g>
</g>
<g clip-path="url(#a)">
<g transform="translate(461.88 364.81) scale(.1 -.1)">
<use xlink:href="#c"/>
<use x="63.623047" xlink:href="#d"/>
<use x="95.410156" xlink:href="#m"/>
<use x="159.033203" xlink:href="#aj"/>
</g>
</g>
<g clip-path="url(#a)">
<g transform="translate(378.47 686.56) scale(.1 -.1)">
<use xlink:href="#c"/>
<use x="63.623047" xlink:href="#d"/>
<use x="95.410156" xlink:href="#m"/>
<use x="159.033203" xlink:href="#c"/>
</g>
</g>
<g clip-path="url(#a)">
<g transform="translate(421.99 686.56) scale(.1 -.1)">
<use xlink:href="#c"/>
<use x="63.623047" xlink:href="#d"/>
<use x="95.410156" xlink:href="#m"/>
<use x="159.033203" xlink:href="#n"/>
</g>
</g>
<g clip-path="url(#a)">
<g transform="translate(468.23 686.56) scale(.1 -.1)">
<use xlink:href="#c"/>
<use x="63.623047" xlink:href="#d"/>
<use x="95.410156" xlink:href="#m"/>
<use x="159.033203" xlink:href="#m"/>
</g>
</g>
<g clip-path="url(#a)">
<g transform="translate(578.83 472.49) scale(.1 -.1)">
<use xlink:href="#c"/>
<use x="63.623047" xlink:href="#d"/>
<use x="95.410156" xlink:href="#m"/>
<use x="159.033203" xlink:href="#o"/>
</g>
</g>
<g clip-path="url(#a)">
<g transform="translate(517.18 686.56) scale(.1 -.1)">
<use xlink:href="#c"/>
<use x="63.623047" xlink:href="#d"/>
<use x="95.410156" xlink:href="#m"/>
<use x="159.033203" xlink:href="#y"/>
</g>
</g>
<g clip-path="url(#a)">
<g transform="translate(596.06 579.8) scale(.1 -.1)">
<use xlink:href="#c"/>
<use x="63.623047" xlink:href="#d"/>
<use x="95.410156" xlink:href="#m"/>
<use x="159.033203" xlink:href="#x"/>
</g>
</g>
<g clip-path="url(#a)">
<g transform="translate(623.25 686.56) scale(.1 -.1)">
<use xlink:href="#c"/>
<use x="63.623047" xlink:href="#d"/>
<use x="95.410156" xlink:href="#m"/>
<use x="159.033203" xlink:href="#w"/>
</g>
</g>
<g clip-path="url(#a)">
<g transform="translate(568.86 686.56) scale(.1 -.1)">
<use xlink:href="#c"/>
<use x="63.623047" xlink:href="#d"/>
<use x="95.410156" xlink:href="#m"/>
<use x="159.033203" xlink:href="#ac"/>
</g>
</g>
<g clip-path="url(#a)">
<g transform="translate(60.261 686.56) scale(.1 -.1)">
<use xlink:href="#c"/>
<use x="63.623047" xlink:href="#d"/>
<use x="95.410156" xlink:href="#m"/>
<use x="159.033203" xlink:href="#ai"/>
</g>
</g>
<g clip-path="url(#a)">
<g transform="translate(80.206 579.8) scale(.1 -.1)">
<use xlink:href="#c"/>
<use x="63.623047" xlink:href="#d"/>
<use x="95.410156" xlink:href="#o"/>
<use x="159.033203" xlink:href="#aj"/>
</g>
</g>
<g clip-path="url(#a)">
<g transform="translate(68.42 686.56) scale(.1 -.1)">
<use xlink:href="#c"/>
<use x="63.623047" xlink:href="#d"/>
<use x="95.410156" xlink:href="#o"/>
<use x="159.033203" xlink:href="#c"/>
</g>
</g>
<g clip-path="url(#a)">
<g transform="translate(79.3 686.56) scale(.1 -.1)">
<use xlink:href="#c"/>
<use x="63.623047" xlink:href="#d"/>
<use x="95.410156" xlink:href="#o"/>
<use x="159.033203" xlink:href="#n"/>
</g>
</g>
<g clip-path="url(#a)">
<g transform="translate(92.898 686.56) scale(.1 -.1)">
<use xlink:href="#c"/>
<use x="63.623047" xlink:href="#d"/>
<use x="95.410156" xlink:href="#o"/>
<use x="159.033203" xlink:href="#m"/>
</g>
</g>
<g clip-path="url(#a)">
<g transform="translate(109.22 686.56) scale(.1 -.1)">
<use xlink:href="#c"/>
<use x="63.623047" xlink:href="#d"/>
<use x="95.410156" xlink:href="#o"/>
<use x="159.033203" xlink:href="#o"/>
</g>
</g>
<g clip-path="url(#a)">
<g transform="translate(128.26 686.56) scale(.1 -.1)">
<use xlink:href="#c"/>
<use x="63.623047" xlink:href="#d"/>
<use x="95.410156" xlink:href="#o"/>
<use x="159.033203" xlink:href="#y"/>
</g>
</g>
<g clip-path="url(#a)">
<g transform="translate(174.49 686.56) scale(.1 -.1)">
<use xlink:href="#c"/>
<use x="63.623047" xlink:href="#d"/>
<use x="95.410156" xlink:href="#o"/>
<use x="159.033203" xlink:href="#x"/>
</g>
</g>
<g clip-path="url(#a)">
<g transform="translate(1488.1 686.56) scale(.1 -.1)">
<use xlink:href="#c"/>
<use x="63.623047" xlink:href="#d"/>
<use x="95.410156" xlink:href="#o"/>
<use x="159.033203" xlink:href="#w"/>
</g>
</g>
<defs>
<clipPath id="a">
<rect width="1570.7" height="826.67"/>
</clipPath>
</defs>
</svg>
