<?xml version="1.0" encoding="UTF-8"?>
<!DOCTYPE svg  PUBLIC '-//W3C//DTD SVG 1.1//EN'  'http://www.w3.org/Graphics/SVG/1.1/DTD/svg11.dtd'>
<svg width="1165.3pt" height="613.33pt" version="1.1" viewBox="0 0 1165.3 613.33" xmlns="http://www.w3.org/2000/svg" xmlns:xlink="http://www.w3.org/1999/xlink">
<defs>
<style type="text/css">*{stroke-linecap:butt;stroke-linejoin:round;}</style>
</defs>
<path d="m0 613.33h1165.3v-613.33h-1165.3z" fill="#fff"/>
<g fill="none" stroke="#000">
<path d="m384.14 27.879-249.21 224.73" clip-path="url(#a)"/>
<path d="m384.14 27.879-17.278 447.84" clip-path="url(#a)"/>
<path d="m384.14 27.879 266.48 112.51" clip-path="url(#a)"/>
<path d="m134.94 252.61-81.966 223.11" clip-path="url(#a)"/>
<path d="m134.94 252.61-71.265 223.11" clip-path="url(#a)"/>
<path d="m134.94 252.61-56.997 223.11" clip-path="url(#a)"/>
<path d="m134.94 252.61-39.162 223.11" clip-path="url(#a)"/>
<path d="m134.94 252.61-17.761 223.11" clip-path="url(#a)"/>
<path d="m134.94 252.61 111.84 111.84" clip-path="url(#a)"/>
<path d="m134.94 252.61 51.796 111.84" clip-path="url(#a)"/>
<path d="m134.94 252.61 103.52 223.11" clip-path="url(#a)"/>
<path d="m366.86 475.72v109.73" clip-path="url(#a)"/>
<path d="m650.63 140.39-73.755 112.23" clip-path="url(#a)"/>
<path d="m650.63 140.39 140.71 335.33" clip-path="url(#a)"/>
<path d="m650.63 140.39 336.89 224.07" clip-path="url(#a)"/>
<path d="m650.63 140.39-403.85 224.07" clip-path="url(#a)" stroke-dasharray="3.7,1.6"/>
<path d="m576.87 252.61-133.32 111.84" clip-path="url(#a)"/>
<path d="m576.87 252.61 46.817 111.84" clip-path="url(#a)"/>
<path d="m576.87 252.61 11.147 223.11" clip-path="url(#a)"/>
<path d="m576.87 252.61 75.353 223.11" clip-path="url(#a)"/>
<path d="m791.34 475.72v109.73" clip-path="url(#a)"/>
<path d="m987.52 364.46-121.28 111.26" clip-path="url(#a)"/>
<path d="m987.52 364.46-42.804 111.26" clip-path="url(#a)"/>
<path d="m987.52 364.46 39.237 111.26" clip-path="url(#a)"/>
<path d="m987.52 364.46 124.84 111.26" clip-path="url(#a)"/>
<path d="m866.24 475.72v109.73" clip-path="url(#a)"/>
<path d="m944.72 475.72v109.73" clip-path="url(#a)"/>
<path d="m1026.8 475.72v109.73" clip-path="url(#a)"/>
<path d="m443.55 364.46-26.752 111.26" clip-path="url(#a)"/>
<path d="m443.55 364.46 26.752 111.26" clip-path="url(#a)"/>
<path d="m623.69 364.46-96.309 111.26" clip-path="url(#a)"/>
<path d="m623.69 364.46 96.309 111.26" clip-path="url(#a)"/>
<path d="m588.02 475.72v109.73" clip-path="url(#a)"/>
<path d="m652.22 475.72v109.73" clip-path="url(#a)"/>
<path d="m527.38 475.72v109.73" clip-path="url(#a)"/>
<path d="m720 475.72v109.73" clip-path="url(#a)"/>
<path d="m416.8 475.72v109.73" clip-path="url(#a)"/>
<path d="m470.31 475.72v109.73" clip-path="url(#a)"/>
<path d="m52.97 475.72v109.73" clip-path="url(#a)"/>
<path d="m63.671 475.72v109.73" clip-path="url(#a)"/>
<path d="m77.939 475.72v109.73" clip-path="url(#a)"/>
<path d="m95.773 475.72v109.73" clip-path="url(#a)"/>
<path d="m117.18 475.72v109.73" clip-path="url(#a)"/>
<path d="m246.78 364.46-104.63 111.26" clip-path="url(#a)"/>
<path d="m246.78 364.46 30.914 111.26" clip-path="url(#a)"/>
<path d="m246.78 364.46 73.718 111.26" clip-path="url(#a)"/>
<path d="m186.73 364.46-16.051 111.26" clip-path="url(#a)"/>
<path d="m186.73 364.46 16.051 111.26" clip-path="url(#a)"/>
<path d="m238.45 475.72v109.73" clip-path="url(#a)"/>
<path d="m170.68 475.72v109.73" clip-path="url(#a)"/>
<path d="m202.78 475.72v109.73" clip-path="url(#a)"/>
<path d="m142.14 475.72v109.73" clip-path="url(#a)"/>
<path d="m277.69 475.72v109.73" clip-path="url(#a)"/>
<path d="m320.49 475.72v109.73" clip-path="url(#a)"/>
<path d="m1112.4 475.72v109.73" clip-path="url(#a)"/>
</g>
<path d="m261.5 146.92 4.4678-4.0291q1.7823-1.6073 0.17502-3.3896l-5.1852-5.7498q-1.6073-1.7823-3.3896-0.17501l-4.4678 4.0291q-1.7823 1.6073-0.17502 3.3896l5.1852 5.7498q1.6073 1.7823 3.3896 0.17502z" clip-path="url(#a)" fill="#fff" stroke="#fff"/>
<g clip-path="url(#a)">
<defs>
<path id="aj" d="m9.8125 72.906h9.8594v-29.891h35.844v29.891h9.8594v-72.906h-9.8594v34.719h-35.844v-34.719h-9.8594z"/>
</defs>
<g transform="translate(258.78 143.9) rotate(-42.044) scale(.08 -.08)">
<use xlink:href="#aj"/>
</g>
</g>
<path d="m381.68 254.27 0.17184-4.4542q0.092523-2.3982-2.3057-2.4907l-7.7367-0.29848q-2.3982-0.092523-2.4907 2.3057l-0.17184 4.4542q-0.092523 2.3982 2.3057 2.4907l7.7367 0.29848q2.3982 0.092523 2.4907-2.3057z" clip-path="url(#a)" fill="#fff" stroke="#fff"/>
<g clip-path="url(#a)">
<defs>
<path id="ar" d="m9.8125 72.906h9.8594v-64.609h35.5v-8.2969h-45.359z"/>
</defs>
<g transform="translate(377.62 254.11) rotate(-87.791) scale(.08 -.08)">
<use xlink:href="#ar"/>
</g>
</g>
<path d="m512.17 88.741 5.5425 2.34q2.211 0.93349 3.1445-1.2775l3.0115-7.1328q0.93349-2.211-1.2775-3.1445l-5.5425-2.3401q-2.211-0.93349-3.1445 1.2775l-3.0115 7.1328q-0.93349 2.211 1.2775 3.1445z" clip-path="url(#a)" fill="#fff" stroke="#fff"/>
<g clip-path="url(#a)">
<g transform="translate(513.75 84.997) rotate(22.889) scale(.08 -.08)">
<use xlink:href="#aj"/>
</g>
</g>
<path d="m98.896 368.9 1.8872-5.1368q0.82764-2.2528-1.4251-3.0804l-7.2676-2.67q-2.2528-0.82764-3.0804 1.4251l-1.8872 5.1368q-0.82764 2.2528 1.4251 3.0804l7.2676 2.67q2.2528 0.82764 3.0804-1.4251z" clip-path="url(#a)" fill="#fff" stroke="#fff"/>
<g clip-path="url(#a)">
<defs>
<path id="v" d="m34.188 63.188-13.391-36.281h26.812zm-5.5781 9.7188h11.188l27.781-72.906h-10.25l-6.6406 18.703h-32.859l-6.6406-18.703h-10.406z"/>
</defs>
<g transform="translate(95.081 367.5) rotate(-69.827) scale(.08 -.08)">
<use xlink:href="#v"/>
</g>
</g>
<path d="m104.33 369.03 1.8861-5.9048q0.73027-2.2862-1.5559-3.0165l-7.3754-2.3559q-2.2862-0.73027-3.0165 1.5559l-1.8861 5.9048q-0.73027 2.2862 1.5559 3.0165l7.3754 2.3559q2.2862 0.73027 3.0165-1.5559z" clip-path="url(#a)" fill="#fff" stroke="#fff"/>
<g clip-path="url(#a)">
<defs>
<path id="ak" d="m59.516 10.406v19.578h-16.109v8.1094h25.875v-31.312q-5.7031-4.0469-12.594-6.125-6.875-2.0781-14.688-2.0781-17.094 0-26.75 9.9844-9.6406 10-9.6406 27.812 0 17.875 9.6406 27.859 9.6562 9.9844 26.75 9.9844 7.125 0 13.547-1.7656 6.4219-1.75 11.844-5.1719v-10.5q-5.4688 4.6406-11.625 6.9844t-12.938 2.3438q-13.391 0-20.109-7.4688-6.7031-7.4688-6.7031-22.266 0-14.75 6.7031-22.219 6.7188-7.4688 20.109-7.4688 5.2188 0 9.3125 0.90625 4.1094 0.90625 7.375 2.8125z"/>
</defs>
<g transform="translate(100.46 367.79) rotate(-72.285) scale(.08 -.08)">
<use xlink:href="#ak"/>
</g>
</g>
<path d="m111.94 367.95 1.1389-4.4581q0.59405-2.3253-1.7313-2.9194l-7.5016-1.9164q-2.3253-0.59405-2.9194 1.7313l-1.1389 4.4581q-0.59405 2.3253 1.7313 2.9194l7.5016 1.9164q2.3253 0.59405 2.9194-1.7313z" clip-path="url(#a)" fill="#fff" stroke="#fff"/>
<g clip-path="url(#a)">
<defs>
<path id="r" d="m9.8125 72.906h41.891v-8.3125h-32.031v-21.484h28.906v-8.2969h-28.906v-34.812h-9.8594z"/>
</defs>
<g transform="translate(108.01 366.94) rotate(-75.669) scale(.08 -.08)">
<use xlink:href="#r"/>
</g>
</g>
<path d="m121 368.28 1.065-6.0672q0.41494-2.3639-1.9489-2.7788l-7.6259-1.3386q-2.3639-0.41494-2.7788 1.9489l-1.065 6.0672q-0.41494 2.3639 1.9489 2.7788l7.6259 1.3386q2.3639 0.41494 2.7788-1.9489z" clip-path="url(#a)" fill="#fff" stroke="#fff"/>
<g clip-path="url(#a)">
<defs>
<path id="s" d="m19.672 64.797v-56.688h11.922q15.094 0 22.094 6.8281 7 6.8438 7 21.594 0 14.641-7 21.453t-22.094 6.8125zm-9.8594 8.1094h20.266q21.188 0 31.094-8.8125 9.9219-8.8125 9.9219-27.562 0-18.859-9.9688-27.703-9.9531-8.8281-31.047-8.8281h-20.266z"/>
</defs>
<g transform="translate(117 367.58) rotate(-80.044) scale(.08 -.08)">
<use xlink:href="#s"/>
</g>
</g>
<path d="m132.06 367.75 0.4919-6.1792q0.19045-2.3924-2.202-2.5829l-7.7181-0.61441q-2.3924-0.19045-2.5829 2.202l-0.4919 6.1792q-0.19045 2.3924 2.202 2.5829l7.7181 0.61441q2.3924 0.19045 2.5829-2.202z" clip-path="url(#a)" fill="#fff" stroke="#fff"/>
<g clip-path="url(#a)">
<g transform="translate(128.01 367.43) rotate(-85.449) scale(.08 -.08)">
<use xlink:href="#ak"/>
</g>
</g>
<path d="m184.63 311.17 3.5911 3.5913q1.697 1.6971 3.3941 7.7e-5l5.4749-5.4747q1.6971-1.697 7.6e-5 -3.3941l-3.5911-3.5913q-1.697-1.6971-3.3941-7.7e-5l-5.4749 5.4746q-1.6971 1.697-7.6e-5 3.3941z" clip-path="url(#a)" fill="#fff" stroke="#fff"/>
<g clip-path="url(#a)">
<defs>
<path id="y" d="m53.516 70.516v-9.625q-5.6094 2.6875-10.594 4-4.9844 1.3281-9.625 1.3281-8.0469 0-12.422-3.125t-4.375-8.8906q0-4.8438 2.9062-7.3125 2.9062-2.4531 11.016-3.9688l5.9531-1.2188q11.031-2.1094 16.281-7.4062t5.25-14.172q0-10.609-7.1094-16.078-7.0938-5.4688-20.812-5.4688-5.1719 0-11.016 1.1719-5.8281 1.1719-12.078 3.4688v10.156q6-3.3594 11.766-5.0781 5.7656-1.7031 11.328-1.7031 8.4375 0 13.031 3.3125 4.5938 3.3281 4.5938 9.4844 0 5.3594-3.2969 8.3906t-10.812 4.5469l-6.0156 1.1719q-11.031 2.1875-15.969 6.875-4.9219 4.6875-4.9219 13.047 0 9.6719 6.8125 15.234t18.766 5.5625q5.1406 0 10.453-0.9375 5.3281-0.92188 10.891-2.7656z"/>
</defs>
<g transform="translate(187.5 308.3) rotate(45.001) scale(.08 -.08)">
<use xlink:href="#y"/>
</g>
</g>
<path d="m153.85 308.38 2.5886 5.5897q1.0085 2.1778 3.1864 1.1693l7.0257-3.2536q2.1778-1.0085 1.1693-3.1864l-2.5886-5.5897q-1.0085-2.1778-3.1864-1.1693l-7.0257 3.2536q-2.1778 1.0085-1.1693 3.1864z" clip-path="url(#a)" fill="#fff" stroke="#fff"/>
<g clip-path="url(#a)">
<g transform="translate(157.54 306.67) rotate(65.151) scale(.08 -.08)">
<use xlink:href="#s"/>
</g>
</g>
<path d="m180.04 364.72 1.9366 4.1739q1.0101 2.1771 3.1872 1.167l7.0233-3.2587q2.1771-1.0101 1.167-3.1872l-1.9366-4.1739q-1.0101-2.1771-3.1872-1.167l-7.0233 3.2587q-2.1771 1.0101-1.167 3.1872z" clip-path="url(#a)" fill="#fff" stroke="#fff"/>
<g clip-path="url(#a)">
<g transform="translate(183.72 363.01) rotate(65.11) scale(.08 -.08)">
<use xlink:href="#r"/>
</g>
</g>
<path d="m360.59 513.68v33.808q0 2.4 2.4 2.4h7.7425q2.4 0 2.4-2.4v-33.808q0-2.4-2.4-2.4h-7.7425q-2.4 0-2.4 2.4z" clip-path="url(#a)" fill="#fff" stroke="#fff"/>
<g clip-path="url(#a)">
<defs>
<path id="l" d="m-0.29688 72.906h61.672v-8.3125h-25.875v-64.594h-9.9062v64.594h-25.891z"/>
<path id="d" d="m56.203 29.594v-4.3906h-41.312q0.59375-9.2812 5.5938-14.141t13.938-4.8594q5.1719 0 10.031 1.2656t9.6562 3.8125v-8.5q-4.8438-2.0469-9.9219-3.125t-10.297-1.0781q-13.094 0-20.734 7.6094-7.6406 7.625-7.6406 20.625 0 13.422 7.25 21.297 7.25 7.8906 19.562 7.8906 11.031 0 17.453-7.1094 6.4219-7.0938 6.4219-19.297zm-8.9844 2.6406q-0.09375 7.3594-4.125 11.75-4.0312 4.4062-10.672 4.4062-7.5156 0-12.031-4.25t-5.2031-11.969z"/>
<path id="h" d="m41.109 46.297q-1.5156 0.875-3.2969 1.2812-1.7812 0.42188-3.9219 0.42188-7.625 0-11.703-4.9531t-4.0781-14.234v-28.812h-9.0312v54.688h9.0312v-8.5q2.8438 4.9844 7.375 7.3906 4.5469 2.4219 11.047 2.4219 0.92188 0 2.0469-0.125 1.125-0.10938 2.4844-0.35938z"/>
<path id="k" d="m52 44.188q3.375 6.0625 8.0625 8.9375t11.031 2.875q8.5469 0 13.188-5.9844 4.6406-5.9688 4.6406-17v-33.016h-9.0312v32.719q0 7.8594-2.7969 11.656-2.7812 3.8125-8.4844 3.8125-6.9844 0-11.047-4.6406-4.0469-4.625-4.0469-12.641v-30.906h-9.0312v32.719q0 7.9062-2.7812 11.688t-8.5938 3.7812q-6.8906 0-10.953-4.6562-4.0469-4.6562-4.0469-12.625v-30.906h-9.0312v54.688h9.0312v-8.5q3.0781 5.0312 7.375 7.4219t10.203 2.3906q5.9688 0 10.141-3.0312 4.1719-3.0156 6.1719-8.7812z"/>
<path id="j" d="m9.4219 54.688h8.9844v-54.688h-8.9844zm0 21.297h8.9844v-11.391h-8.9844z"/>
<path id="g" d="m54.891 33.016v-33.016h-8.9844v32.719q0 7.7656-3.0312 11.609-3.0312 3.8594-9.0781 3.8594-7.2812 0-11.484-4.6406-4.2031-4.625-4.2031-12.641v-30.906h-9.0312v54.688h9.0312v-8.5q3.2344 4.9375 7.5938 7.375 4.375 2.4375 10.094 2.4375 9.4219 0 14.25-5.8281 4.8438-5.8281 4.8438-17.156z"/>
<path id="f" d="m34.281 27.484q-10.891 0-15.094-2.4844t-4.2031-8.5q0-4.7812 3.1562-7.5938 3.1562-2.7969 8.5625-2.7969 7.4844 0 12 5.2969t4.5156 14.078v2zm17.922 3.7188v-31.203h-8.9844v8.2969q-3.0781-4.9688-7.6719-7.3438t-11.234-2.375q-8.3906 0-13.359 4.7188-4.9531 4.7188-4.9531 12.625 0 9.2188 6.1719 13.906 6.1875 4.6875 18.438 4.6875h12.609v0.89062q0 6.2031-4.0781 9.5938t-11.453 3.3906q-4.6875 0-9.1406-1.125-4.4375-1.125-8.5312-3.375v8.3125q4.9219 1.9062 9.5625 2.8438 4.6406 0.95312 9.0312 0.95312 11.875 0 17.734-6.1562 5.8594-6.1406 5.8594-18.641z"/>
<path id="i" d="m9.4219 75.984h8.9844v-75.984h-8.9844z"/>
</defs>
<g transform="translate(364.66 513.68) rotate(90) scale(.08 -.08)">
<use xlink:href="#l"/>
<use x="44.083984" xlink:href="#d"/>
<use x="105.607422" xlink:href="#h"/>
<use x="144.970703" xlink:href="#k"/>
<use x="242.382812" xlink:href="#j"/>
<use x="270.166016" xlink:href="#g"/>
<use x="333.544922" xlink:href="#f"/>
<use x="394.824219" xlink:href="#i"/>
</g>
</g>
<path d="m617.49 202.23 3.0056-4.5733q1.3181-2.0056-0.68753-3.3237l-6.4703-4.2523q-2.0056-1.3181-3.3237 0.68753l-3.0056 4.5733q-1.3181 2.0056 0.68753 3.3237l6.4703 4.2523q2.0056 1.3181 3.3237-0.68753z" clip-path="url(#a)" fill="#fff" stroke="#fff"/>
<g clip-path="url(#a)">
<g transform="translate(614.09 200) rotate(-56.687) scale(.08 -.08)">
<use xlink:href="#v"/>
</g>
</g>
<path d="m714.31 308.36 1.7804 4.2429q0.92863 2.2131 3.1417 1.2844l7.1394-2.9958q2.2131-0.92863 1.2844-3.1417l-1.7804-4.2429q-0.92863-2.2131-3.1417-1.2844l-7.1394 2.9958q-2.2131 0.92863-1.2844 3.1417z" clip-path="url(#a)" fill="#fff" stroke="#fff"/>
<g clip-path="url(#a)">
<g transform="translate(718.05 306.79) rotate(67.236) scale(.08 -.08)">
<use xlink:href="#r"/>
</g>
</g>
<path d="m813.32 256.13 4.5567 3.0307q1.9984 1.3291 3.3275-0.66924l4.2878-6.4468q1.3291-1.9984-0.66924-3.3275l-4.5567-3.0307q-1.9984-1.3291-3.3275 0.66924l-4.2878 6.4468q-1.3291 1.9984 0.66924 3.3275z" clip-path="url(#a)" fill="#fff" stroke="#fff"/>
<g clip-path="url(#a)">
<g transform="translate(815.57 252.75) rotate(33.628) scale(.08 -.08)">
<use xlink:href="#v"/>
</g>
</g>
<path d="m449.52 259.14 4.441-2.464q2.0986-1.1644 0.93423-3.263l-3.7564-6.7702q-1.1644-2.0986-3.263-0.93423l-4.441 2.464q-2.0986 1.1644-0.93423 3.263l3.7564 6.7702q1.1644 2.0986 3.263 0.93423z" clip-path="url(#a)" fill="#fff" stroke="#fff"/>
<g clip-path="url(#a)">
<g transform="translate(447.55 255.59) rotate(-29.023) scale(.08 -.08)">
<use xlink:href="#y"/>
</g>
</g>
<path d="m511.88 315.32 4.7192-3.9591q1.8386-1.5425 0.29612-3.3812l-4.9762-5.9315q-1.5425-1.8386-3.3812-0.29612l-4.7192 3.9591q-1.8386 1.5425-0.29612 3.3812l4.9762 5.9316q1.5425 1.8386 3.3812 0.29612z" clip-path="url(#a)" fill="#fff" stroke="#fff"/>
<g clip-path="url(#a)">
<g transform="translate(509.27 312.21) rotate(-39.995) scale(.08 -.08)">
<use xlink:href="#s"/>
</g>
</g>
<path d="m591.87 305.02 5.0162 11.984q0.9267 2.2139 3.1406 1.2872l7.3796-3.089q2.2139-0.9267 1.2872-3.1406l-5.0162-11.984q-0.9267-2.2139-3.1406-1.2872l-7.3796 3.089q-2.2139 0.9267-1.2872 3.1406z" clip-path="url(#a)" fill="#fff" stroke="#fff"/>
<g clip-path="url(#a)">
<defs>
<path id="ai" d="m19.672 64.797v-27.391h12.406q6.8906 0 10.641 3.5625 3.7656 3.5625 3.7656 10.156 0 6.5469-3.7656 10.109-3.75 3.5625-10.641 3.5625zm-9.8594 8.1094h22.266q12.266 0 18.531-5.5469 6.2812-5.5469 6.2812-16.234 0-10.797-6.2812-16.312-6.2656-5.5156-18.531-5.5156h-12.406v-29.297h-9.8594z"/>
<path id="au" d="m21 76.422v-100h-8.2969v100z"/>
</defs>
<g transform="translate(595.82 303.36) rotate(67.287) scale(.08 -.08)">
<use xlink:href="#ai"/>
<use x="60.302734" xlink:href="#au"/>
<use x="93.994141" xlink:href="#v"/>
</g>
</g>
<path d="m576.03 361.4 0.30738 6.1523q0.11976 2.397 2.5168 2.2773l7.7329-0.38635q2.397-0.11976 2.2773-2.5168l-0.30738-6.1523q-0.11976-2.397-2.5168-2.2773l-7.7329 0.38635q-2.397 0.11976-2.2772 2.5168z" clip-path="url(#a)" fill="#fff" stroke="#fff"/>
<g clip-path="url(#a)">
<g transform="translate(580.09 361.2) rotate(87.14) scale(.08 -.08)">
<use xlink:href="#s"/>
</g>
</g>
<path d="m607.62 363.26 1.9711 5.8361q0.76796 2.2738 3.0418 1.5058l7.3354-2.4775q2.2738-0.76796 1.5058-3.0418l-1.9711-5.8361q-0.76796-2.2738-3.0418-1.5058l-7.3354 2.4775q-2.2738 0.76796-1.5058 3.0418z" clip-path="url(#a)" fill="#fff" stroke="#fff"/>
<g clip-path="url(#a)">
<g transform="translate(611.47 361.96) rotate(71.338) scale(.08 -.08)">
<use xlink:href="#s"/>
</g>
</g>
<path d="m785.06 513.68v33.808q0 2.4 2.4 2.4h7.7425q2.4 0 2.4-2.4v-33.808q0-2.4-2.4-2.4h-7.7425q-2.4 0-2.4 2.4z" clip-path="url(#a)" fill="#fff" stroke="#fff"/>
<g clip-path="url(#a)">
<g transform="translate(789.13 513.68) rotate(90) scale(.08 -.08)">
<use xlink:href="#l"/>
<use x="44.083984" xlink:href="#d"/>
<use x="105.607422" xlink:href="#h"/>
<use x="144.970703" xlink:href="#k"/>
<use x="242.382812" xlink:href="#j"/>
<use x="270.166016" xlink:href="#g"/>
<use x="333.544922" xlink:href="#f"/>
<use x="394.824219" xlink:href="#i"/>
</g>
</g>
<path d="m929.07 426.59 4.0961-3.7578q1.7685-1.6225 0.14606-3.391l-5.2341-5.7053q-1.6225-1.7685-3.391-0.14606l-4.0961 3.7578q-1.7685 1.6225-0.14606 3.391l5.2341 5.7053q1.6225 1.7685 3.391 0.14606z" clip-path="url(#a)" fill="#fff" stroke="#fff"/>
<g clip-path="url(#a)">
<defs>
<path id="z" d="m44.391 34.188q3.1719-1.0781 6.1719-4.5938t6.0312-9.6719l10.016-19.922h-10.609l-9.3125 18.703q-3.625 7.3281-7.0156 9.7188t-9.25 2.3906h-10.75v-30.812h-9.8594v72.906h22.266q12.5 0 18.656-5.2344 6.1562-5.2188 6.1562-15.766 0-6.8906-3.2031-11.438-3.2031-4.5312-9.2969-6.2812zm-24.719 30.609v-25.875h12.406q7.125 0 10.766 3.2969t3.6406 9.6875-3.6406 9.6406-10.766 3.25z"/>
</defs>
<g transform="translate(926.32 423.59) rotate(-42.534) scale(.08 -.08)">
<use xlink:href="#z"/>
</g>
</g>
<path d="m971.06 424.7 1.815-4.7179q0.86174-2.24-1.3782-3.1017l-7.2262-2.78q-2.24-0.86174-3.1017 1.3782l-1.815 4.7179q-0.86174 2.24 1.3782 3.1017l7.2262 2.78q2.24 0.86174 3.1017-1.3782z" clip-path="url(#a)" fill="#fff" stroke="#fff"/>
<g clip-path="url(#a)">
<defs>
<path id="u" d="m9.8125 72.906h46.094v-8.3125h-36.234v-21.578h34.719v-8.2969h-34.719v-26.422h37.109v-8.2969h-46.969z"/>
</defs>
<g transform="translate(967.27 423.24) rotate(-68.958) scale(.08 -.08)">
<use xlink:href="#u"/>
</g>
</g>
<path d="m1000.3 419.54 1.8579 5.2683q0.79819 2.2634 3.0616 1.4652l7.3018-2.575q2.2634-0.79819 1.4652-3.0616l-1.8579-5.2683q-0.79819-2.2634-3.0616-1.4652l-7.3018 2.575q-2.2634 0.79819-1.4652 3.0616z" clip-path="url(#a)" fill="#fff" stroke="#fff"/>
<g clip-path="url(#a)">
<defs>
<path id="t" d="m64.406 67.281v-10.391q-4.9844 4.6406-10.625 6.9219-5.6406 2.2969-11.984 2.2969-12.5 0-19.141-7.6406t-6.6406-22.094q0-14.406 6.6406-22.047t19.141-7.6406q6.3438 0 11.984 2.2969t10.625 6.9375v-10.312q-5.1719-3.5156-10.969-5.2812-5.7812-1.75-12.219-1.75-16.562 0-26.094 10.125-9.5156 10.141-9.5156 27.672 0 17.578 9.5156 27.703 9.5312 10.141 26.094 10.141 6.5312 0 12.312-1.7344 5.7969-1.7344 10.875-5.2031z"/>
</defs>
<g transform="translate(1004.1 418.19) rotate(70.575) scale(.08 -.08)">
<use xlink:href="#t"/>
</g>
</g>
<path d="m1043.6 422.82 4.3711 3.8955q1.7917 1.5968 3.3885-0.19494l5.1513-5.7802q1.5968-1.7917-0.19494-3.3885l-4.3711-3.8955q-1.7917-1.5968-3.3885 0.19494l-5.1513 5.7802q-1.5968 1.7917 0.19494 3.3885z" clip-path="url(#a)" fill="#fff" stroke="#fff"/>
<g clip-path="url(#a)">
<defs>
<path id="ao" d="m8.6875 72.906h9.9219v-44.297q0-11.719 4.2344-16.875 4.25-5.1406 13.781-5.1406 9.4688 0 13.719 5.1406 4.25 5.1562 4.25 16.875v44.297h9.9062v-45.516q0-14.25-7.0625-21.531-7.0469-7.2812-20.812-7.2812-13.828 0-20.891 7.2812-7.0469 7.2812-7.0469 21.531z"/>
</defs>
<g transform="translate(1046.3 419.79) rotate(41.707) scale(.08 -.08)">
<use xlink:href="#ao"/>
</g>
</g>
<path d="m859.97 513.68v33.808q0 2.4 2.4 2.4h7.7425q2.4 0 2.4-2.4v-33.808q0-2.4-2.4-2.4h-7.7425q-2.4 0-2.4 2.4z" clip-path="url(#a)" fill="#fff" stroke="#fff"/>
<g clip-path="url(#a)">
<g transform="translate(864.03 513.68) rotate(90) scale(.08 -.08)">
<use xlink:href="#l"/>
<use x="44.083984" xlink:href="#d"/>
<use x="105.607422" xlink:href="#h"/>
<use x="144.970703" xlink:href="#k"/>
<use x="242.382812" xlink:href="#j"/>
<use x="270.166016" xlink:href="#g"/>
<use x="333.544922" xlink:href="#f"/>
<use x="394.824219" xlink:href="#i"/>
</g>
</g>
<path d="m938.44 513.68v33.808q0 2.4 2.4 2.4h7.7425q2.4 0 2.4-2.4v-33.808q0-2.4-2.4-2.4h-7.7425q-2.4 0-2.4 2.4z" clip-path="url(#a)" fill="#fff" stroke="#fff"/>
<g clip-path="url(#a)">
<g transform="translate(942.51 513.68) rotate(90) scale(.08 -.08)">
<use xlink:href="#l"/>
<use x="44.083984" xlink:href="#d"/>
<use x="105.607422" xlink:href="#h"/>
<use x="144.970703" xlink:href="#k"/>
<use x="242.382812" xlink:href="#j"/>
<use x="270.166016" xlink:href="#g"/>
<use x="333.544922" xlink:href="#f"/>
<use x="394.824219" xlink:href="#i"/>
</g>
</g>
<path d="m1020.5 513.68v33.808q0 2.4 2.4 2.4h7.7425q2.4 0 2.4-2.4v-33.808q0-2.4-2.4-2.4h-7.7425q-2.4 0-2.4 2.4z" clip-path="url(#a)" fill="#fff" stroke="#fff"/>
<g clip-path="url(#a)">
<g transform="translate(1024.5 513.68) rotate(90) scale(.08 -.08)">
<use xlink:href="#l"/>
<use x="44.083984" xlink:href="#d"/>
<use x="105.607422" xlink:href="#h"/>
<use x="144.970703" xlink:href="#k"/>
<use x="242.382812" xlink:href="#j"/>
<use x="270.166016" xlink:href="#g"/>
<use x="333.544922" xlink:href="#f"/>
<use x="394.824219" xlink:href="#i"/>
</g>
</g>
<path d="m435.62 424.27 1.306-5.4314q0.56108-2.3335-1.7724-2.8946l-7.5279-1.8101q-2.3335-0.56108-2.8946 1.7724l-1.306 5.4314q-0.56108 2.3335 1.7724 2.8946l7.5279 1.8101q2.3335 0.56108 2.8946-1.7724z" clip-path="url(#a)" fill="#fff" stroke="#fff"/>
<g clip-path="url(#a)">
<g transform="translate(431.67 423.32) rotate(-76.48) scale(.08 -.08)">
<use xlink:href="#t"/>
</g>
</g>
<path d="m450.18 418.85 1.2995 5.4047q0.56108 2.3335 2.8946 1.7724l7.5279-1.8101q2.3335-0.56108 1.7724-2.8946l-1.2995-5.4047q-0.56108-2.3335-2.8946-1.7724l-7.5279 1.8101q-2.3335 0.56108-1.7724 2.8946z" clip-path="url(#a)" fill="#fff" stroke="#fff"/>
<g clip-path="url(#a)">
<g transform="translate(454.13 417.9) rotate(76.48) scale(.08 -.08)">
<use xlink:href="#z"/>
</g>
</g>
<path d="m578.77 425.93 3.0114-3.4789q1.5707-1.8146-0.24387-3.3853l-5.854-5.0673q-1.8146-1.5707-3.3853 0.24387l-3.0114 3.4789q-1.5707 1.8146 0.24387 3.3853l5.854 5.0673q1.8146 1.5707 3.3853-0.24387z" clip-path="url(#a)" fill="#fff" stroke="#fff"/>
<g clip-path="url(#a)">
<g transform="translate(575.7 423.27) rotate(-49.12) scale(.08 -.08)">
<use xlink:href="#r"/>
</g>
</g>
<path d="m665.27 422.08 3.656 4.2237q1.5707 1.8146 3.3853 0.24387l5.854-5.0673q1.8146-1.5707 0.24387-3.3853l-3.656-4.2237q-1.5707-1.8146-3.3853-0.24387l-5.854 5.0673q-1.8146 1.5707-0.24387 3.3853z" clip-path="url(#a)" fill="#fff" stroke="#fff"/>
<g clip-path="url(#a)">
<g transform="translate(668.34 419.42) rotate(49.12) scale(.08 -.08)">
<use xlink:href="#t"/>
</g>
</g>
<path d="m581.75 513.68v33.808q0 2.4 2.4 2.4h7.7425q2.4 0 2.4-2.4v-33.808q0-2.4-2.4-2.4h-7.7425q-2.4 0-2.4 2.4z" clip-path="url(#a)" fill="#fff" stroke="#fff"/>
<g clip-path="url(#a)">
<g transform="translate(585.81 513.68) rotate(90) scale(.08 -.08)">
<use xlink:href="#l"/>
<use x="44.083984" xlink:href="#d"/>
<use x="105.607422" xlink:href="#h"/>
<use x="144.970703" xlink:href="#k"/>
<use x="242.382812" xlink:href="#j"/>
<use x="270.166016" xlink:href="#g"/>
<use x="333.544922" xlink:href="#f"/>
<use x="394.824219" xlink:href="#i"/>
</g>
</g>
<path d="m645.95 513.68v33.808q0 2.4 2.4 2.4h7.7425q2.4 0 2.4-2.4v-33.808q0-2.4-2.4-2.4h-7.7425q-2.4 0-2.4 2.4z" clip-path="url(#a)" fill="#fff" stroke="#fff"/>
<g clip-path="url(#a)">
<g transform="translate(650.02 513.68) rotate(90) scale(.08 -.08)">
<use xlink:href="#l"/>
<use x="44.083984" xlink:href="#d"/>
<use x="105.607422" xlink:href="#h"/>
<use x="144.970703" xlink:href="#k"/>
<use x="242.382812" xlink:href="#j"/>
<use x="270.166016" xlink:href="#g"/>
<use x="333.544922" xlink:href="#f"/>
<use x="394.824219" xlink:href="#i"/>
</g>
</g>
<path d="m521.11 513.68v33.808q0 2.4 2.4 2.4h7.7425q2.4 0 2.4-2.4v-33.808q0-2.4-2.4-2.4h-7.7425q-2.4 0-2.4 2.4z" clip-path="url(#a)" fill="#fff" stroke="#fff"/>
<g clip-path="url(#a)">
<g transform="translate(525.17 513.68) rotate(90) scale(.08 -.08)">
<use xlink:href="#l"/>
<use x="44.083984" xlink:href="#d"/>
<use x="105.607422" xlink:href="#h"/>
<use x="144.970703" xlink:href="#k"/>
<use x="242.382812" xlink:href="#j"/>
<use x="270.166016" xlink:href="#g"/>
<use x="333.544922" xlink:href="#f"/>
<use x="394.824219" xlink:href="#i"/>
</g>
</g>
<path d="m713.72 513.68v33.808q0 2.4 2.4 2.4h7.7425q2.4 0 2.4-2.4v-33.808q0-2.4-2.4-2.4h-7.7425q-2.4 0-2.4 2.4z" clip-path="url(#a)" fill="#fff" stroke="#fff"/>
<g clip-path="url(#a)">
<g transform="translate(717.79 513.68) rotate(90) scale(.08 -.08)">
<use xlink:href="#l"/>
<use x="44.083984" xlink:href="#d"/>
<use x="105.607422" xlink:href="#h"/>
<use x="144.970703" xlink:href="#k"/>
<use x="242.382812" xlink:href="#j"/>
<use x="270.166016" xlink:href="#g"/>
<use x="333.544922" xlink:href="#f"/>
<use x="394.824219" xlink:href="#i"/>
</g>
</g>
<path d="m410.53 513.68v33.808q0 2.4 2.4 2.4h7.7425q2.4 0 2.4-2.4v-33.808q0-2.4-2.4-2.4h-7.7425q-2.4 0-2.4 2.4z" clip-path="url(#a)" fill="#fff" stroke="#fff"/>
<g clip-path="url(#a)">
<g transform="translate(414.59 513.68) rotate(90) scale(.08 -.08)">
<use xlink:href="#l"/>
<use x="44.083984" xlink:href="#d"/>
<use x="105.607422" xlink:href="#h"/>
<use x="144.970703" xlink:href="#k"/>
<use x="242.382812" xlink:href="#j"/>
<use x="270.166016" xlink:href="#g"/>
<use x="333.544922" xlink:href="#f"/>
<use x="394.824219" xlink:href="#i"/>
</g>
</g>
<path d="m464.04 513.68v33.808q0 2.4 2.4 2.4h7.7425q2.4 0 2.4-2.4v-33.808q0-2.4-2.4-2.4h-7.7425q-2.4 0-2.4 2.4z" clip-path="url(#a)" fill="#fff" stroke="#fff"/>
<g clip-path="url(#a)">
<g transform="translate(468.1 513.68) rotate(90) scale(.08 -.08)">
<use xlink:href="#l"/>
<use x="44.083984" xlink:href="#d"/>
<use x="105.607422" xlink:href="#h"/>
<use x="144.970703" xlink:href="#k"/>
<use x="242.382812" xlink:href="#j"/>
<use x="270.166016" xlink:href="#g"/>
<use x="333.544922" xlink:href="#f"/>
<use x="394.824219" xlink:href="#i"/>
</g>
</g>
<path d="m46.698 513.68v33.808q0 2.4 2.4 2.4h7.7425q2.4 0 2.4-2.4v-33.808q0-2.4-2.4-2.4h-7.7425q-2.4 0-2.4 2.4z" clip-path="url(#a)" fill="#fff" stroke="#fff"/>
<g clip-path="url(#a)">
<g transform="translate(50.762 513.68) rotate(90) scale(.08 -.08)">
<use xlink:href="#l"/>
<use x="44.083984" xlink:href="#d"/>
<use x="105.607422" xlink:href="#h"/>
<use x="144.970703" xlink:href="#k"/>
<use x="242.382812" xlink:href="#j"/>
<use x="270.166016" xlink:href="#g"/>
<use x="333.544922" xlink:href="#f"/>
<use x="394.824219" xlink:href="#i"/>
</g>
</g>
<path d="m57.399 513.68v33.808q0 2.4 2.4 2.4h7.7425q2.4 0 2.4-2.4v-33.808q0-2.4-2.4-2.4h-7.7425q-2.4 0-2.4 2.4z" clip-path="url(#a)" fill="#fff" stroke="#fff"/>
<g clip-path="url(#a)">
<g transform="translate(61.463 513.68) rotate(90) scale(.08 -.08)">
<use xlink:href="#l"/>
<use x="44.083984" xlink:href="#d"/>
<use x="105.607422" xlink:href="#h"/>
<use x="144.970703" xlink:href="#k"/>
<use x="242.382812" xlink:href="#j"/>
<use x="270.166016" xlink:href="#g"/>
<use x="333.544922" xlink:href="#f"/>
<use x="394.824219" xlink:href="#i"/>
</g>
</g>
<path d="m71.667 513.68v33.808q0 2.4 2.4 2.4h7.7425q2.4 0 2.4-2.4v-33.808q0-2.4-2.4-2.4h-7.7425q-2.4 0-2.4 2.4z" clip-path="url(#a)" fill="#fff" stroke="#fff"/>
<g clip-path="url(#a)">
<g transform="translate(75.731 513.68) rotate(90) scale(.08 -.08)">
<use xlink:href="#l"/>
<use x="44.083984" xlink:href="#d"/>
<use x="105.607422" xlink:href="#h"/>
<use x="144.970703" xlink:href="#k"/>
<use x="242.382812" xlink:href="#j"/>
<use x="270.166016" xlink:href="#g"/>
<use x="333.544922" xlink:href="#f"/>
<use x="394.824219" xlink:href="#i"/>
</g>
</g>
<path d="m89.502 513.68v33.808q0 2.4 2.4 2.4h7.7425q2.4 0 2.4-2.4v-33.808q0-2.4-2.4-2.4h-7.7425q-2.4 0-2.4 2.4z" clip-path="url(#a)" fill="#fff" stroke="#fff"/>
<g clip-path="url(#a)">
<g transform="translate(93.566 513.68) rotate(90) scale(.08 -.08)">
<use xlink:href="#l"/>
<use x="44.083984" xlink:href="#d"/>
<use x="105.607422" xlink:href="#h"/>
<use x="144.970703" xlink:href="#k"/>
<use x="242.382812" xlink:href="#j"/>
<use x="270.166016" xlink:href="#g"/>
<use x="333.544922" xlink:href="#f"/>
<use x="394.824219" xlink:href="#i"/>
</g>
</g>
<path d="m110.9 513.68v33.808q0 2.4 2.4 2.4h7.7425q2.4 0 2.4-2.4v-33.808q0-2.4-2.4-2.4h-7.7425q-2.4 0-2.4 2.4z" clip-path="url(#a)" fill="#fff" stroke="#fff"/>
<g clip-path="url(#a)">
<g transform="translate(114.97 513.68) rotate(90) scale(.08 -.08)">
<use xlink:href="#l"/>
<use x="44.083984" xlink:href="#d"/>
<use x="105.607422" xlink:href="#h"/>
<use x="144.970703" xlink:href="#k"/>
<use x="242.382812" xlink:href="#j"/>
<use x="270.166016" xlink:href="#g"/>
<use x="333.544922" xlink:href="#f"/>
<use x="394.824219" xlink:href="#i"/>
</g>
</g>
<path d="m197.45 426.06 3.1522-3.3519q1.6442-1.7483-0.10418-3.3925l-5.6402-5.3042q-1.7483-1.6442-3.3925 0.10418l-3.1522 3.3519q-1.6442 1.7483 0.10418 3.3925l5.6402 5.3042q1.7483 1.6442 3.3925-0.10418z" clip-path="url(#a)" fill="#fff" stroke="#fff"/>
<g clip-path="url(#a)">
<g transform="translate(194.49 423.28) rotate(-46.759) scale(.08 -.08)">
<use xlink:href="#r"/>
</g>
</g>
<path d="m255.57 419.55 1.2318 4.4333q0.6425 2.3124 2.9549 1.6699l7.4599-2.0727q2.3124-0.6425 1.6699-2.9549l-1.2318-4.4333q-0.6425-2.3124-2.9549-1.6699l-7.4599 2.0727q-2.3124 0.6425-1.6699 2.9549z" clip-path="url(#a)" fill="#fff" stroke="#fff"/>
<g clip-path="url(#a)">
<g transform="translate(259.49 418.46) rotate(74.472) scale(.08 -.08)">
<use xlink:href="#r"/>
</g>
</g>
<path d="m276.86 421.22 3.0855 4.6568q1.3256 2.0007 3.3263 0.67511l6.4543-4.2764q2.0007-1.3256 0.67511-3.3263l-3.0855-4.6568q-1.3256-2.0007-3.3263-0.67511l-6.4543 4.2764q-2.0007 1.3256-0.67511 3.3263z" clip-path="url(#a)" fill="#fff" stroke="#fff"/>
<g clip-path="url(#a)">
<g transform="translate(280.25 418.98) rotate(56.473) scale(.08 -.08)">
<use xlink:href="#t"/>
</g>
</g>
<path d="m184.46 424.1 0.89922-6.233q0.3427-2.3754-2.0327-2.7181l-7.6632-1.1055q-2.3754-0.3427-2.7181 2.0327l-0.89922 6.233q-0.3427 2.3754 2.0327 2.7181l7.6632 1.1055q2.3754 0.3427 2.7181-2.0327z" clip-path="url(#a)" fill="#fff" stroke="#fff"/>
<g clip-path="url(#a)">
<defs>
<path id="ap" d="m39.406 66.219q-10.75 0-17.078-8.0156-6.3125-8-6.3125-21.828 0-13.766 6.3125-21.781 6.3281-8 17.078-8 10.734 0 17.016 8 6.2812 8.0156 6.2812 21.781 0 13.828-6.2812 21.828-6.2812 8.0156-17.016 8.0156zm13.812-64.906 13-14.203h-11.922l-10.797 11.672q-1.6094-0.09375-2.4688-0.14062-0.84375-0.0625-1.625-0.0625-15.375 0-24.594 10.281-9.2031 10.281-9.2031 27.516 0 17.281 9.2031 27.562 9.2188 10.281 24.594 10.281 15.328 0 24.5-10.281 9.1875-10.281 9.1875-27.562 0-12.688-5.1094-21.734-5.0938-9.0312-14.766-13.328z"/>
</defs>
<g transform="translate(180.44 423.52) rotate(-81.791) scale(.08 -.08)">
<use xlink:href="#ap"/>
</g>
</g>
<path d="m188.15 418.22 0.79766 5.529q0.3427 2.3754 2.7181 2.0327l7.6632-1.1055q2.3754-0.3427 2.0327-2.7181l-0.79766-5.529q-0.3427-2.3754-2.7181-2.0327l-7.6632 1.1055q-2.3754 0.3427-2.0327 2.7181z" clip-path="url(#a)" fill="#fff" stroke="#fff"/>
<g clip-path="url(#a)">
<g transform="translate(192.17 417.64) rotate(81.791) scale(.08 -.08)">
<use xlink:href="#t"/>
</g>
</g>
<path d="m232.18 513.68v33.808q0 2.4 2.4 2.4h7.7425q2.4 0 2.4-2.4v-33.808q0-2.4-2.4-2.4h-7.7425q-2.4 0-2.4 2.4z" clip-path="url(#a)" fill="#fff" stroke="#fff"/>
<g clip-path="url(#a)">
<g transform="translate(236.25 513.68) rotate(90) scale(.08 -.08)">
<use xlink:href="#l"/>
<use x="44.083984" xlink:href="#d"/>
<use x="105.607422" xlink:href="#h"/>
<use x="144.970703" xlink:href="#k"/>
<use x="242.382812" xlink:href="#j"/>
<use x="270.166016" xlink:href="#g"/>
<use x="333.544922" xlink:href="#f"/>
<use x="394.824219" xlink:href="#i"/>
</g>
</g>
<path d="m164.41 513.68v33.808q0 2.4 2.4 2.4h7.7425q2.4 0 2.4-2.4v-33.808q0-2.4-2.4-2.4h-7.7425q-2.4 0-2.4 2.4z" clip-path="url(#a)" fill="#fff" stroke="#fff"/>
<g clip-path="url(#a)">
<g transform="translate(168.47 513.68) rotate(90) scale(.08 -.08)">
<use xlink:href="#l"/>
<use x="44.083984" xlink:href="#d"/>
<use x="105.607422" xlink:href="#h"/>
<use x="144.970703" xlink:href="#k"/>
<use x="242.382812" xlink:href="#j"/>
<use x="270.166016" xlink:href="#g"/>
<use x="333.544922" xlink:href="#f"/>
<use x="394.824219" xlink:href="#i"/>
</g>
</g>
<path d="m196.51 513.68v33.808q0 2.4 2.4 2.4h7.7425q2.4 0 2.4-2.4v-33.808q0-2.4-2.4-2.4h-7.7425q-2.4 0-2.4 2.4z" clip-path="url(#a)" fill="#fff" stroke="#fff"/>
<g clip-path="url(#a)">
<g transform="translate(200.58 513.68) rotate(90) scale(.08 -.08)">
<use xlink:href="#l"/>
<use x="44.083984" xlink:href="#d"/>
<use x="105.607422" xlink:href="#h"/>
<use x="144.970703" xlink:href="#k"/>
<use x="242.382812" xlink:href="#j"/>
<use x="270.166016" xlink:href="#g"/>
<use x="333.544922" xlink:href="#f"/>
<use x="394.824219" xlink:href="#i"/>
</g>
</g>
<path d="m135.87 513.68v33.808q0 2.4 2.4 2.4h7.7425q2.4 0 2.4-2.4v-33.808q0-2.4-2.4-2.4h-7.7425q-2.4 0-2.4 2.4z" clip-path="url(#a)" fill="#fff" stroke="#fff"/>
<g clip-path="url(#a)">
<g transform="translate(139.94 513.68) rotate(90) scale(.08 -.08)">
<use xlink:href="#l"/>
<use x="44.083984" xlink:href="#d"/>
<use x="105.607422" xlink:href="#h"/>
<use x="144.970703" xlink:href="#k"/>
<use x="242.382812" xlink:href="#j"/>
<use x="270.166016" xlink:href="#g"/>
<use x="333.544922" xlink:href="#f"/>
<use x="394.824219" xlink:href="#i"/>
</g>
</g>
<path d="m271.42 513.68v33.808q0 2.4 2.4 2.4h7.7425q2.4 0 2.4-2.4v-33.808q0-2.4-2.4-2.4h-7.7425q-2.4 0-2.4 2.4z" clip-path="url(#a)" fill="#fff" stroke="#fff"/>
<g clip-path="url(#a)">
<g transform="translate(275.48 513.68) rotate(90) scale(.08 -.08)">
<use xlink:href="#l"/>
<use x="44.083984" xlink:href="#d"/>
<use x="105.607422" xlink:href="#h"/>
<use x="144.970703" xlink:href="#k"/>
<use x="242.382812" xlink:href="#j"/>
<use x="270.166016" xlink:href="#g"/>
<use x="333.544922" xlink:href="#f"/>
<use x="394.824219" xlink:href="#i"/>
</g>
</g>
<path d="m314.22 513.68v33.808q0 2.4 2.4 2.4h7.7425q2.4 0 2.4-2.4v-33.808q0-2.4-2.4-2.4h-7.7425q-2.4 0-2.4 2.4z" clip-path="url(#a)" fill="#fff" stroke="#fff"/>
<g clip-path="url(#a)">
<g transform="translate(318.29 513.68) rotate(90) scale(.08 -.08)">
<use xlink:href="#l"/>
<use x="44.083984" xlink:href="#d"/>
<use x="105.607422" xlink:href="#h"/>
<use x="144.970703" xlink:href="#k"/>
<use x="242.382812" xlink:href="#j"/>
<use x="270.166016" xlink:href="#g"/>
<use x="333.544922" xlink:href="#f"/>
<use x="394.824219" xlink:href="#i"/>
</g>
</g>
<path d="m1106.1 513.68v33.808q0 2.4 2.4 2.4h7.7425q2.4 0 2.4-2.4v-33.808q0-2.4-2.4-2.4h-7.7425q-2.4 0-2.4 2.4z" clip-path="url(#a)" fill="#fff" stroke="#fff"/>
<g clip-path="url(#a)">
<g transform="translate(1110.2 513.68) rotate(90) scale(.08 -.08)">
<use xlink:href="#l"/>
<use x="44.083984" xlink:href="#d"/>
<use x="105.607422" xlink:href="#h"/>
<use x="144.970703" xlink:href="#k"/>
<use x="242.382812" xlink:href="#j"/>
<use x="270.166016" xlink:href="#g"/>
<use x="333.544922" xlink:href="#f"/>
<use x="394.824219" xlink:href="#i"/>
</g>
</g>
<defs>
<path id="b" d="m0 8.6603c2.2967 0 4.4997-0.9125 6.1237-2.5365 1.624-1.624 2.5365-3.827 2.5365-6.1237s-0.9125-4.4997-2.5365-6.1237c-1.624-1.624-3.827-2.5365-6.1237-2.5365s-4.4997 0.9125-6.1237 2.5365c-1.624 1.624-2.5365 3.827-2.5365 6.1237s0.9125 4.4997 2.5365 6.1237c1.624 1.624 3.827 2.5365 6.1237 2.5365z"/>
</defs>
<g clip-path="url(#a)" fill="#ffffff" stroke="#ffffff">
<use x="52.969697" y="585.454545" xlink:href="#b"/>
<use x="63.670646" y="585.454545" xlink:href="#b"/>
<use x="77.938578" y="585.454545" xlink:href="#b"/>
<use x="95.773493" y="585.454545" xlink:href="#b"/>
<use x="117.17539" y="585.454545" xlink:href="#b"/>
<use x="142.144271" y="585.454545" xlink:href="#b"/>
<use x="170.680135" y="585.454545" xlink:href="#b"/>
<use x="202.782981" y="585.454545" xlink:href="#b"/>
<use x="238.452811" y="585.454545" xlink:href="#b"/>
<use x="277.689624" y="585.454545" xlink:href="#b"/>
<use x="320.493419" y="585.454545" xlink:href="#b"/>
<use x="366.864198" y="585.454545" xlink:href="#b"/>
<use x="416.801959" y="585.454545" xlink:href="#b"/>
<use x="470.306703" y="585.454545" xlink:href="#b"/>
<use x="527.378431" y="585.454545" xlink:href="#b"/>
<use x="588.017141" y="585.454545" xlink:href="#b"/>
<use x="652.222834" y="585.454545" xlink:href="#b"/>
<use x="719.995511" y="585.454545" xlink:href="#b"/>
<use x="791.33517" y="585.454545" xlink:href="#b"/>
<use x="866.241812" y="585.454545" xlink:href="#b"/>
<use x="944.715437" y="585.454545" xlink:href="#b"/>
<use x="1026.756045" y="585.454545" xlink:href="#b"/>
<use x="1112.363636" y="585.454545" xlink:href="#b"/>
<use x="384.141771" y="27.878788" xlink:href="#b"/>
<use x="134.935993" y="252.613677" xlink:href="#b"/>
<use x="366.864198" y="475.719795" xlink:href="#b"/>
<use x="650.625123" y="140.388185" xlink:href="#b"/>
<use x="576.870319" y="252.613677" xlink:href="#b"/>
<use x="791.33517" y="475.719795" xlink:href="#b"/>
<use x="987.519233" y="364.458514" xlink:href="#b"/>
<use x="866.241812" y="475.719795" xlink:href="#b"/>
<use x="944.715437" y="475.719795" xlink:href="#b"/>
<use x="1026.756045" y="475.719795" xlink:href="#b"/>
<use x="443.554331" y="364.458514" xlink:href="#b"/>
<use x="623.686971" y="364.458514" xlink:href="#b"/>
<use x="588.017141" y="475.719795" xlink:href="#b"/>
<use x="652.222834" y="475.719795" xlink:href="#b"/>
<use x="527.378431" y="475.719795" xlink:href="#b"/>
<use x="719.995511" y="475.719795" xlink:href="#b"/>
<use x="416.801959" y="475.719795" xlink:href="#b"/>
<use x="470.306703" y="475.719795" xlink:href="#b"/>
<use x="52.969697" y="475.719795" xlink:href="#b"/>
<use x="63.670646" y="475.719795" xlink:href="#b"/>
<use x="77.938578" y="475.719795" xlink:href="#b"/>
<use x="95.773493" y="475.719795" xlink:href="#b"/>
<use x="117.17539" y="475.719795" xlink:href="#b"/>
<use x="246.775771" y="364.458514" xlink:href="#b"/>
<use x="186.731558" y="364.458514" xlink:href="#b"/>
<use x="238.452811" y="475.719795" xlink:href="#b"/>
<use x="170.680135" y="475.719795" xlink:href="#b"/>
<use x="202.782981" y="475.719795" xlink:href="#b"/>
<use x="142.144271" y="475.719795" xlink:href="#b"/>
<use x="277.689624" y="475.719795" xlink:href="#b"/>
<use x="320.493419" y="475.719795" xlink:href="#b"/>
<use x="1112.363636" y="475.719795" xlink:href="#b"/>
</g>
<g clip-path="url(#a)">
<defs>
<path id="q" d="m54.891 33.016v-33.016h-8.9844v32.719q0 7.7656-3.0312 11.609-3.0312 3.8594-9.0781 3.8594-7.2812 0-11.484-4.6406-4.2031-4.625-4.2031-12.641v-30.906h-9.0312v75.984h9.0312v-29.797q3.2344 4.9375 7.5938 7.375 4.375 2.4375 10.094 2.4375 9.4219 0 14.25-5.8281 4.8438-5.8281 4.8438-17.156z"/>
</defs>
<g transform="translate(43.55 588.21) scale(.1 -.1)">
<use xlink:href="#y"/>
<use x="63.476562" xlink:href="#q"/>
<use x="126.855469" xlink:href="#d"/>
</g>
</g>
<g clip-path="url(#a)">
<defs>
<path id="ax" d="m18.109 8.2031v-29h-9.0312v75.484h9.0312v-8.2969q2.8438 4.875 7.1562 7.2344 4.3281 2.375 10.328 2.375 9.9688 0 16.188-7.9062 6.2344-7.9062 6.2344-20.797t-6.2344-20.812q-6.2188-7.9062-16.188-7.9062-6 0-10.328 2.375-4.3125 2.375-7.1562 7.25zm30.578 19.094q0 9.9062-4.0781 15.547t-11.203 5.6406q-7.1406 0-11.219-5.6406t-4.0781-15.547 4.0781-15.547 11.219-5.6406q7.125 0 11.203 5.6406t4.0781 15.547z"/>
<path id="n" d="m30.609 48.391q-7.2188 0-11.422-5.6406t-4.2031-15.453 4.1719-15.453q4.1875-5.6406 11.453-5.6406 7.1875 0 11.375 5.6562 4.2031 5.6719 4.2031 15.438 0 9.7188-4.2031 15.406-4.1875 5.6875-11.375 5.6875zm0 7.6094q11.719 0 18.406-7.625 6.7031-7.6094 6.7031-21.078 0-13.422-6.7031-21.078-6.6875-7.6406-18.406-7.6406-11.766 0-18.438 7.6406-6.6562 7.6562-6.6562 21.078 0 13.469 6.6562 21.078 6.6719 7.625 18.438 7.625z"/>
<path id="ah" d="m48.688 27.297q0 9.9062-4.0781 15.547t-11.203 5.6406q-7.1406 0-11.219-5.6406t-4.0781-15.547 4.0781-15.547 11.219-5.6406q7.125 0 11.203 5.6406t4.0781 15.547zm-30.578 19.094q2.8438 4.875 7.1562 7.2344 4.3281 2.375 10.328 2.375 9.9688 0 16.188-7.9062 6.2344-7.9062 6.2344-20.797t-6.2344-20.812q-6.2188-7.9062-16.188-7.9062-6 0-10.328 2.375-4.3125 2.375-7.1562 7.25v-8.2031h-9.0312v75.984h9.0312z"/>
<path id="av" d="m32.172-5.0781q-3.7969-9.7656-7.4219-12.734-3.6094-2.9844-9.6562-2.9844h-7.1875v7.5156h5.2812q3.7031 0 5.75 1.7656 2.0625 1.75 4.5469 8.2969l1.6094 4.0938-22.109 53.812h9.5156l17.094-42.766 17.094 42.766h9.5156z"/>
</defs>
<g transform="translate(41.733 588.21) scale(.1 -.1)">
<use xlink:href="#ax"/>
<use x="63.476562" xlink:href="#h"/>
<use x="102.339844" xlink:href="#n"/>
<use x="163.521484" xlink:href="#ah"/>
<use x="226.998047" xlink:href="#f"/>
<use x="288.277344" xlink:href="#ah"/>
<use x="351.753906" xlink:href="#i"/>
<use x="379.537109" xlink:href="#av"/>
</g>
</g>
<g clip-path="url(#a)">
<defs>
<path id="ag" d="m45.406 46.391v29.594h8.9844v-75.984h-8.9844v8.2031q-2.8281-4.875-7.1562-7.25-4.3125-2.375-10.375-2.375-9.9062 0-16.141 7.9062-6.2188 7.9219-6.2188 20.812t6.2188 20.797q6.2344 7.9062 16.141 7.9062 6.0625 0 10.375-2.375 4.3281-2.3594 7.1562-7.2344zm-30.609-19.094q0-9.9062 4.0781-15.547t11.203-5.6406 11.219 5.6406q4.1094 5.6406 4.1094 15.547t-4.1094 15.547q-4.0938 5.6406-11.219 5.6406t-11.203-5.6406-4.0781-15.547z"/>
<path id="x" d="m44.281 53.078v-8.5q-3.7969 1.9531-7.9062 2.9219-4.0938 0.98438-8.5 0.98438-6.6875 0-10.031-2.0469t-3.3438-6.1562q0-3.125 2.3906-4.9062t9.625-3.3906l3.0781-0.6875q9.5625-2.0469 13.594-5.7812t4.0312-10.422q0-7.625-6.0312-12.078-6.0312-4.4375-16.578-4.4375-4.3906 0-9.1562 0.85938t-10.031 2.5625v9.2812q4.9844-2.5938 9.8125-3.8906 4.8281-1.2812 9.5781-1.2812 6.3438 0 9.75 2.1719 3.4219 2.1719 3.4219 6.125 0 3.6562-2.4688 5.6094-2.4531 1.9531-10.812 3.7656l-3.125 0.73438q-8.3438 1.75-12.062 5.3906-3.7031 3.6406-3.7031 9.9844 0 7.7188 5.4688 11.906 5.4688 4.2031 15.531 4.2031 4.9688 0 9.3594-0.73438 4.4062-0.71875 8.1094-2.1875z"/>
</defs>
<g transform="translate(66.024 588.21) scale(.1 -.1)">
<use xlink:href="#ag"/>
<use x="63.476562" xlink:href="#n"/>
<use x="124.658203" xlink:href="#d"/>
<use x="186.181641" xlink:href="#x"/>
</g>
</g>
<g clip-path="url(#a)">
<defs>
<path id="p" d="m18.312 70.219v-15.531h18.5v-6.9844h-18.5v-29.688q0-6.6875 1.8281-8.5938t7.4531-1.9062h9.2188v-7.5156h-9.2188q-10.406 0-14.359 3.875-3.9531 3.8906-3.9531 14.141v29.688h-6.5938v6.9844h6.5938v15.531z"/>
</defs>
<g transform="translate(87.585 588.21) scale(.1 -.1)">
<use xlink:href="#g"/>
<use x="63.378906" xlink:href="#n"/>
<use x="124.560547" xlink:href="#p"/>
</g>
</g>
<g clip-path="url(#a)">
<defs>
<path id="af" d="m2.9844 54.688h9.5156l17.094-45.891 17.094 45.891h9.5156l-20.516-54.688h-12.203z"/>
</defs>
<g transform="translate(104.89 588.21) scale(.1 -.1)">
<use xlink:href="#d"/>
<use x="61.523438" xlink:href="#af"/>
<use x="120.703125" xlink:href="#d"/>
<use x="182.226562" xlink:href="#g"/>
</g>
</g>
<g clip-path="url(#a)">
<g transform="translate(129.88 588.21) scale(.1 -.1)">
<use xlink:href="#q"/>
<use x="63.378906" xlink:href="#f"/>
<use x="124.658203" xlink:href="#af"/>
<use x="183.837891" xlink:href="#d"/>
</g>
</g>
<g clip-path="url(#a)">
<defs>
<path id="c" d="m12.406 8.2969h16.109v55.625l-17.531-3.5156v8.9844l17.438 3.5156h9.8594v-64.609h16.109v-8.2969h-41.984z"/>
<path id="w" d="m31.781 66.406q-7.6094 0-11.453-7.5-3.8281-7.4844-3.8281-22.531 0-14.984 3.8281-22.484 3.8438-7.5 11.453-7.5 7.6719 0 11.5 7.5 3.8438 7.5 3.8438 22.484 0 15.047-3.8438 22.531-3.8281 7.5-11.5 7.5zm0 7.8125q12.266 0 18.734-9.7031 6.4688-9.6875 6.4688-28.141 0-18.406-6.4688-28.109-6.4688-9.6875-18.734-9.6875-12.25 0-18.719 9.6875-6.4688 9.7031-6.4688 28.109 0 18.453 6.4688 28.141 6.4688 9.7031 18.719 9.7031z"/>
</defs>
<g transform="translate(164.32 588.21) scale(.1 -.1)">
<use xlink:href="#c"/>
<use x="63.623047" xlink:href="#w"/>
</g>
</g>
<g clip-path="url(#a)">
<defs>
<path id="at" d="m72.703 32.078q-4.25 0-6.6719-3.6094-2.4062-3.6094-2.4062-10.062 0-6.3438 2.4062-9.9844 2.4219-3.6406 6.6719-3.6406 4.1562 0 6.5625 3.6406 2.4219 3.6406 2.4219 9.9844 0 6.4062-2.4219 10.031-2.4062 3.6406-6.5625 3.6406zm0 6.2031q7.7188 0 12.25-5.375 4.5469-5.3594 4.5469-14.5 0-9.125-4.5625-14.484-4.5625-5.3438-12.234-5.3438-7.8125 0-12.359 5.3438-4.5312 5.3594-4.5312 14.484 0 9.1875 4.5625 14.531t12.328 5.3438zm-50.391 29.734q-4.2031 0-6.625-3.6406-2.4062-3.625-2.4062-9.9844 0-6.4375 2.3906-10.062 2.3906-3.6094 6.6406-3.6094t6.6562 3.6094q2.4219 3.625 2.4219 10.062 0 6.2969-2.4375 9.9531-2.4375 3.6719-6.6406 3.6719zm44.094 6.2031h7.8125l-45.609-75.641h-7.8125zm-44.094 0q7.7188 0 12.297-5.3438 4.5938-5.3438 4.5938-14.484 0-9.2188-4.5625-14.547t-12.328-5.3281-12.281 5.3438q-4.5156 5.3594-4.5156 14.531 0 9.0938 4.5312 14.453 4.5469 5.375 12.266 5.375z"/>
</defs>
<g transform="translate(198.03 588.21) scale(.1 -.1)">
<use xlink:href="#at"/>
</g>
</g>
<g clip-path="url(#a)">
<defs>
<path id="am" d="m37.109 75.984v-7.4844h-8.5938q-4.8281 0-6.7188-1.9531-1.875-1.9531-1.875-7.0312v-4.8281h14.797v-6.9844h-14.797v-47.703h-9.0312v47.703h-8.5938v6.9844h8.5938v3.8125q0 9.125 4.25 13.297 4.25 4.1875 13.469 4.1875z"/>
</defs>
<g transform="translate(233.63 588.21) scale(.1 -.1)">
<use xlink:href="#n"/>
<use x="61.181641" xlink:href="#am"/>
</g>
</g>
<g clip-path="url(#a)">
<g transform="translate(269.48 588.21) scale(.1 -.1)">
<use xlink:href="#p"/>
<use x="39.208984" xlink:href="#q"/>
<use x="102.587891" xlink:href="#d"/>
</g>
</g>
<g clip-path="url(#a)">
<defs>
<path id="ay" d="m9.0781 75.984h9.0312v-44.875l26.812 23.578h11.469l-29-25.578 30.234-29.109h-11.719l-27.797 26.703v-26.703h-9.0312z"/>
<path id="aw" d="m4.2031 54.688h8.9844l11.234-42.672 11.172 42.672h10.594l11.234-42.672 11.188 42.672h8.9844l-14.312-54.688h-10.594l-11.766 44.828-11.812-44.828h-10.609z"/>
<path id="az" d="m45.406 27.984q0 9.7656-4.0312 15.125-4.0156 5.375-11.297 5.375-7.2188 0-11.25-5.375-4.0312-5.3594-4.0312-15.125 0-9.7188 4.0312-15.094t11.25-5.375q7.2812 0 11.297 5.375 4.0312 5.375 4.0312 15.094zm8.9844-21.203q0-13.953-6.2031-20.766-6.1875-6.8125-18.984-6.8125-4.7344 0-8.9375 0.70312t-8.1562 2.1719v8.7344q3.9531-2.1406 7.8125-3.1562 3.8594-1.0312 7.8594-1.0312 8.8438 0 13.234 4.6094t4.3906 13.938v4.4531q-2.7812-4.8438-7.125-7.2344t-10.406-2.3906q-10.047 0-16.203 7.6562-6.1562 7.6719-6.1562 20.328 0 12.688 6.1562 20.344 6.1562 7.6719 16.203 7.6719 6.0625 0 10.406-2.3906t7.125-7.2188v8.2969h8.9844z"/>
</defs>
<g transform="translate(293.39 588.21) scale(.1 -.1)">
<use xlink:href="#ay"/>
<use x="57.910156" xlink:href="#g"/>
<use x="121.289062" xlink:href="#n"/>
<use x="182.470703" xlink:href="#aw"/>
<use x="264.257812" xlink:href="#i"/>
<use x="292.041016" xlink:href="#d"/>
<use x="353.564453" xlink:href="#ag"/>
<use x="417.041016" xlink:href="#az"/>
<use x="480.517578" xlink:href="#d"/>
</g>
</g>
<g clip-path="url(#a)">
<g transform="translate(356.71 588.21) scale(.1 -.1)">
<use xlink:href="#p"/>
<use x="39.208984" xlink:href="#q"/>
<use x="102.587891" xlink:href="#f"/>
<use x="163.867188" xlink:href="#p"/>
</g>
</g>
<g clip-path="url(#a)">
<g transform="translate(403.19 588.21) scale(.1 -.1)">
<use xlink:href="#x"/>
<use x="52.099609" xlink:href="#n"/>
<use x="113.28125" xlink:href="#k"/>
<use x="210.693359" xlink:href="#d"/>
</g>
</g>
<g clip-path="url(#a)">
<g transform="translate(465.49 588.21) scale(.1 -.1)">
<use xlink:href="#n"/>
<use x="61.181641" xlink:href="#am"/>
</g>
</g>
<g clip-path="url(#a)">
<g transform="translate(519.17 588.21) scale(.1 -.1)">
<use xlink:href="#p"/>
<use x="39.208984" xlink:href="#q"/>
<use x="102.587891" xlink:href="#d"/>
</g>
</g>
<g clip-path="url(#a)">
<g transform="translate(574.7 588.21) scale(.1 -.1)">
<use xlink:href="#n"/>
<use x="61.181641" xlink:href="#p"/>
<use x="100.390625" xlink:href="#q"/>
<use x="163.769531" xlink:href="#d"/>
<use x="225.292969" xlink:href="#h"/>
</g>
</g>
<g clip-path="url(#a)">
<defs>
<path id="an" d="m6.2969 72.906h10.594l18.125-27.109 18.203 27.109h10.594l-23.438-35.016 25-37.891h-10.594l-20.5 31-20.656-31h-10.641l26.016 38.922z"/>
<path id="as" d="m9.8125 72.906h9.8594v-72.906h-9.8594z"/>
<path id="aq" d="m9.8125 72.906h13.281l32.328-60.984v60.984h9.5625v-72.906h-13.281l-32.312 60.984v-60.984h-9.5781z"/>
</defs>
<g transform="translate(617.11 588.21) scale(.1 -.1)">
<use xlink:href="#u"/>
<use x="63.183594" xlink:href="#an"/>
<use x="131.689453" xlink:href="#ai"/>
<use x="191.992188" xlink:href="#u"/>
<use x="255.175781" xlink:href="#z"/>
<use x="324.658203" xlink:href="#as"/>
<use x="354.150391" xlink:href="#u"/>
<use x="417.333984" xlink:href="#aq"/>
<use x="492.138672" xlink:href="#t"/>
<use x="561.962891" xlink:href="#u"/>
<use x="625.146484" xlink:href="#s"/>
</g>
</g>
<g clip-path="url(#a)">
<g transform="translate(709.39 588.21) scale(.1 -.1)">
<use xlink:href="#af"/>
<use x="59.179688" xlink:href="#d"/>
<use x="120.703125" xlink:href="#p"/>
<use x="159.912109" xlink:href="#x"/>
</g>
</g>
<g clip-path="url(#a)">
<g transform="translate(785.1 588.21) scale(.1 -.1)">
<use xlink:href="#ag"/>
<use x="63.476562" xlink:href="#n"/>
</g>
</g>
<g clip-path="url(#a)">
<g transform="translate(861.68 588.21) scale(.1 -.1)">
<use xlink:href="#j"/>
<use x="27.783203" xlink:href="#g"/>
</g>
</g>
<g clip-path="url(#a)">
<g transform="translate(935.59 588.21) scale(.1 -.1)">
<use xlink:href="#p"/>
<use x="39.208984" xlink:href="#q"/>
<use x="102.587891" xlink:href="#j"/>
<use x="130.371094" xlink:href="#x"/>
</g>
</g>
<g clip-path="url(#a)">
<g transform="translate(1015.6 588.21) scale(.1 -.1)">
<use xlink:href="#f"/>
<use x="61.279297" xlink:href="#h"/>
<use x="100.142578" xlink:href="#d"/>
<use x="161.666016" xlink:href="#f"/>
</g>
</g>
<g clip-path="url(#a)">
<defs>
<path id="e" d="m10.688 12.406h10.312v-12.406h-10.312z"/>
</defs>
<g transform="translate(1110.8 588.21) scale(.1 -.1)">
<use xlink:href="#e"/>
</g>
</g>
<g clip-path="url(#a)">
<g transform="translate(376.19 30.638) scale(.1 -.1)">
<use xlink:href="#c"/>
<use x="63.623047" xlink:href="#e"/>
<use x="95.410156" xlink:href="#c"/>
</g>
</g>
<g clip-path="url(#a)">
<defs>
<path id="m" d="m19.188 8.2969h34.422v-8.2969h-46.281v8.2969q5.6094 5.8125 15.297 15.594 9.7031 9.7969 12.188 12.641 4.7344 5.3125 6.6094 9 1.8906 3.6875 1.8906 7.25 0 5.8125-4.0781 9.4688-4.0781 3.6719-10.625 3.6719-4.6406 0-9.7969-1.6094-5.1406-1.6094-11-4.8906v9.9688q5.9531 2.3906 11.125 3.6094 5.1875 1.2188 9.4844 1.2188 11.328 0 18.062-5.6719 6.7344-5.6562 6.7344-15.125 0-4.5-1.6875-8.5312-1.6719-4.0156-6.125-9.4844-1.2188-1.4219-7.7656-8.1875-6.5312-6.7656-18.453-18.922z"/>
</defs>
<g transform="translate(126.98 255.37) scale(.1 -.1)">
<use xlink:href="#c"/>
<use x="63.623047" xlink:href="#e"/>
<use x="95.410156" xlink:href="#m"/>
</g>
</g>
<g clip-path="url(#a)">
<defs>
<path id="o" d="m40.578 39.312q7.0781-1.5156 11.047-6.3125 3.9844-4.7812 3.9844-11.812 0-10.781-7.4219-16.703-7.4219-5.9062-21.094-5.9062-4.5781 0-9.4375 0.90625t-10.031 2.7188v9.5156q4.0938-2.3906 8.9688-3.6094 4.8906-1.2188 10.219-1.2188 9.2656 0 14.125 3.6562t4.8594 10.641q0 6.4531-4.5156 10.078-4.5156 3.6406-12.562 3.6406h-8.5v8.1094h8.8906q7.2656 0 11.125 2.9062t3.8594 8.375q0 5.6094-3.9844 8.6094-3.9688 3.0156-11.391 3.0156-4.0625 0-8.7031-0.89062-4.6406-0.875-10.203-2.7188v8.7812q5.625 1.5625 10.531 2.3438t9.25 0.78125q11.234 0 17.766-5.1094 6.5469-5.0938 6.5469-13.781 0-6.0625-3.4688-10.234t-9.8594-5.7812z"/>
</defs>
<g transform="translate(358.91 478.48) scale(.1 -.1)">
<use xlink:href="#c"/>
<use x="63.623047" xlink:href="#e"/>
<use x="95.410156" xlink:href="#o"/>
</g>
</g>
<g clip-path="url(#a)">
<defs>
<path id="ae" d="m37.797 64.312-24.906-38.922h24.906zm-2.5938 8.5938h12.406v-47.516h10.406v-8.2031h-10.406v-17.188h-9.8125v17.188h-32.906v9.5156z"/>
</defs>
<g transform="translate(642.67 143.15) scale(.1 -.1)">
<use xlink:href="#c"/>
<use x="63.623047" xlink:href="#e"/>
<use x="95.410156" xlink:href="#ae"/>
</g>
</g>
<g clip-path="url(#a)">
<defs>
<path id="ad" d="m33.016 40.375q-6.6406 0-10.531-4.5469-3.875-4.5312-3.875-12.438 0-7.8594 3.875-12.438 3.8906-4.5625 10.531-4.5625t10.516 4.5625q3.875 4.5781 3.875 12.438 0 7.9062-3.875 12.438-3.875 4.5469-10.516 4.5469zm19.578 30.922v-8.9844q-3.7188 1.75-7.5 2.6719-3.7812 0.9375-7.5 0.9375-9.7656 0-14.922-6.5938-5.1406-6.5938-5.875-19.922 2.875 4.25 7.2188 6.5156 4.3594 2.2656 9.5781 2.2656 10.984 0 17.359-6.6719 6.375-6.6562 6.375-18.125 0-11.234-6.6406-18.031-6.6406-6.7812-17.672-6.7812-12.656 0-19.344 9.6875-6.6875 9.7031-6.6875 28.109 0 17.281 8.2031 27.562t22.016 10.281q3.7188 0 7.5-0.73438t7.8906-2.1875z"/>
</defs>
<g transform="translate(568.92 255.37) scale(.1 -.1)">
<use xlink:href="#c"/>
<use x="63.623047" xlink:href="#e"/>
<use x="95.410156" xlink:href="#ad"/>
</g>
</g>
<g clip-path="url(#a)">
<defs>
<path id="ac" d="m8.2031 72.906h46.875v-4.2031l-26.469-68.703h-10.297l24.906 64.594h-35.016z"/>
</defs>
<g transform="translate(783.38 478.48) scale(.1 -.1)">
<use xlink:href="#c"/>
<use x="63.623047" xlink:href="#e"/>
<use x="95.410156" xlink:href="#ac"/>
</g>
</g>
<g clip-path="url(#a)">
<defs>
<path id="ab" d="m31.781 34.625q-7.0312 0-11.062-3.7656-4.0156-3.7656-4.0156-10.344 0-6.5938 4.0156-10.359 4.0312-3.7656 11.062-3.7656t11.078 3.7812q4.0625 3.7969 4.0625 10.344 0 6.5781-4.0312 10.344-4.0156 3.7656-11.109 3.7656zm-9.8594 4.1875q-6.3438 1.5625-9.8906 5.9062-3.5312 4.3594-3.5312 10.609 0 8.7344 6.2188 13.812 6.2344 5.0781 17.062 5.0781 10.891 0 17.094-5.0781t6.2031-13.812q0-6.25-3.5469-10.609-3.5312-4.3438-9.8281-5.9062 7.125-1.6562 11.094-6.5 3.9844-4.8281 3.9844-11.797 0-10.609-6.4688-16.281-6.4688-5.6562-18.531-5.6562-12.047 0-18.531 5.6562-6.4688 5.6719-6.4688 16.281 0 6.9688 4 11.797 4.0156 4.8438 11.141 6.5zm-3.6094 15.578q0-5.6562 3.5312-8.8281 3.5469-3.1719 9.9375-3.1719 6.3594 0 9.9375 3.1719 3.5938 3.1719 3.5938 8.8281 0 5.6719-3.5938 8.8438-3.5781 3.1719-9.9375 3.1719-6.3906 0-9.9375-3.1719-3.5312-3.1719-3.5312-8.8438z"/>
</defs>
<g transform="translate(979.57 367.22) scale(.1 -.1)">
<use xlink:href="#c"/>
<use x="63.623047" xlink:href="#e"/>
<use x="95.410156" xlink:href="#ab"/>
</g>
</g>
<g clip-path="url(#a)">
<defs>
<path id="aa" d="m10.984 1.5156v8.9844q3.7188-1.7656 7.5156-2.6875 3.8125-0.92188 7.4844-0.92188 9.7656 0 14.906 6.5625 5.1562 6.5625 5.8906 19.953-2.8281-4.2031-7.1875-6.4531-4.3438-2.25-9.6094-2.25-10.938 0-17.312 6.6094-6.375 6.625-6.375 18.109 0 11.219 6.6406 18 6.6406 6.7969 17.672 6.7969 12.656 0 19.312-9.7031 6.6719-9.6875 6.6719-28.141 0-17.234-8.1875-27.516-8.1719-10.281-21.984-10.281-3.7188 0-7.5312 0.73438-3.7969 0.73438-7.9062 2.2031zm19.625 30.906q6.6406 0 10.516 4.5312 3.8906 4.5469 3.8906 12.469 0 7.8594-3.8906 12.422-3.875 4.5625-10.516 4.5625t-10.516-4.5625-3.875-12.422q0-7.9219 3.875-12.469 3.875-4.5312 10.516-4.5312z"/>
</defs>
<g transform="translate(858.29 478.48) scale(.1 -.1)">
<use xlink:href="#c"/>
<use x="63.623047" xlink:href="#e"/>
<use x="95.410156" xlink:href="#aa"/>
</g>
</g>
<g clip-path="url(#a)">
<g transform="translate(933.58 478.48) scale(.1 -.1)">
<use xlink:href="#c"/>
<use x="63.623047" xlink:href="#e"/>
<use x="95.410156" xlink:href="#c"/>
<use x="159.033203" xlink:href="#w"/>
</g>
</g>
<g clip-path="url(#a)">
<g transform="translate(1015.6 478.48) scale(.1 -.1)">
<use xlink:href="#c"/>
<use x="63.623047" xlink:href="#e"/>
<use x="95.410156" xlink:href="#c"/>
<use x="159.033203" xlink:href="#c"/>
</g>
</g>
<g clip-path="url(#a)">
<g transform="translate(432.42 367.22) scale(.1 -.1)">
<use xlink:href="#c"/>
<use x="63.623047" xlink:href="#e"/>
<use x="95.410156" xlink:href="#c"/>
<use x="159.033203" xlink:href="#m"/>
</g>
</g>
<g clip-path="url(#a)">
<g transform="translate(612.55 367.22) scale(.1 -.1)">
<use xlink:href="#c"/>
<use x="63.623047" xlink:href="#e"/>
<use x="95.410156" xlink:href="#c"/>
<use x="159.033203" xlink:href="#o"/>
</g>
</g>
<g clip-path="url(#a)">
<g transform="translate(576.88 478.48) scale(.1 -.1)">
<use xlink:href="#c"/>
<use x="63.623047" xlink:href="#e"/>
<use x="95.410156" xlink:href="#c"/>
<use x="159.033203" xlink:href="#ae"/>
</g>
</g>
<g clip-path="url(#a)">
<defs>
<path id="al" d="m10.797 72.906h38.719v-8.3125h-29.688v-17.859q2.1406 0.73438 4.2812 1.0938 2.1562 0.35938 4.3125 0.35938 12.203 0 19.328-6.6875 7.1406-6.6875 7.1406-18.109 0-11.766-7.3281-18.297-7.3281-6.5156-20.656-6.5156-4.5938 0-9.3594 0.78125-4.75 0.78125-9.8281 2.3438v9.9219q4.3906-2.3906 9.0781-3.5625t9.9062-1.1719q8.4531 0 13.375 4.4375 4.9375 4.4375 4.9375 12.062 0 7.6094-4.9375 12.047-4.9219 4.4531-13.375 4.4531-3.9531 0-7.8906-0.875-3.9219-0.875-8.0156-2.7344z"/>
</defs>
<g transform="translate(641.09 478.48) scale(.1 -.1)">
<use xlink:href="#c"/>
<use x="63.623047" xlink:href="#e"/>
<use x="95.410156" xlink:href="#c"/>
<use x="159.033203" xlink:href="#al"/>
</g>
</g>
<g clip-path="url(#a)">
<g transform="translate(516.25 478.48) scale(.1 -.1)">
<use xlink:href="#c"/>
<use x="63.623047" xlink:href="#e"/>
<use x="95.410156" xlink:href="#c"/>
<use x="159.033203" xlink:href="#ad"/>
</g>
</g>
<g clip-path="url(#a)">
<g transform="translate(708.86 478.48) scale(.1 -.1)">
<use xlink:href="#c"/>
<use x="63.623047" xlink:href="#e"/>
<use x="95.410156" xlink:href="#c"/>
<use x="159.033203" xlink:href="#ac"/>
</g>
</g>
<g clip-path="url(#a)">
<g transform="translate(405.67 478.48) scale(.1 -.1)">
<use xlink:href="#c"/>
<use x="63.623047" xlink:href="#e"/>
<use x="95.410156" xlink:href="#c"/>
<use x="159.033203" xlink:href="#ab"/>
</g>
</g>
<g clip-path="url(#a)">
<g transform="translate(459.17 478.48) scale(.1 -.1)">
<use xlink:href="#c"/>
<use x="63.623047" xlink:href="#e"/>
<use x="95.410156" xlink:href="#c"/>
<use x="159.033203" xlink:href="#aa"/>
</g>
</g>
<g clip-path="url(#a)">
<g transform="translate(41.837 478.48) scale(.1 -.1)">
<use xlink:href="#c"/>
<use x="63.623047" xlink:href="#e"/>
<use x="95.410156" xlink:href="#m"/>
<use x="159.033203" xlink:href="#w"/>
</g>
</g>
<g clip-path="url(#a)">
<g transform="translate(52.538 478.48) scale(.1 -.1)">
<use xlink:href="#c"/>
<use x="63.623047" xlink:href="#e"/>
<use x="95.410156" xlink:href="#m"/>
<use x="159.033203" xlink:href="#c"/>
</g>
</g>
<g clip-path="url(#a)">
<g transform="translate(66.806 478.48) scale(.1 -.1)">
<use xlink:href="#c"/>
<use x="63.623047" xlink:href="#e"/>
<use x="95.410156" xlink:href="#m"/>
<use x="159.033203" xlink:href="#m"/>
</g>
</g>
<g clip-path="url(#a)">
<g transform="translate(84.641 478.48) scale(.1 -.1)">
<use xlink:href="#c"/>
<use x="63.623047" xlink:href="#e"/>
<use x="95.410156" xlink:href="#m"/>
<use x="159.033203" xlink:href="#o"/>
</g>
</g>
<g clip-path="url(#a)">
<g transform="translate(106.04 478.48) scale(.1 -.1)">
<use xlink:href="#c"/>
<use x="63.623047" xlink:href="#e"/>
<use x="95.410156" xlink:href="#m"/>
<use x="159.033203" xlink:href="#ae"/>
</g>
</g>
<g clip-path="url(#a)">
<g transform="translate(235.64 367.22) scale(.1 -.1)">
<use xlink:href="#c"/>
<use x="63.623047" xlink:href="#e"/>
<use x="95.410156" xlink:href="#m"/>
<use x="159.033203" xlink:href="#al"/>
</g>
</g>
<g clip-path="url(#a)">
<g transform="translate(175.6 367.22) scale(.1 -.1)">
<use xlink:href="#c"/>
<use x="63.623047" xlink:href="#e"/>
<use x="95.410156" xlink:href="#m"/>
<use x="159.033203" xlink:href="#ad"/>
</g>
</g>
<g clip-path="url(#a)">
<g transform="translate(227.32 478.48) scale(.1 -.1)">
<use xlink:href="#c"/>
<use x="63.623047" xlink:href="#e"/>
<use x="95.410156" xlink:href="#m"/>
<use x="159.033203" xlink:href="#ac"/>
</g>
</g>
<g clip-path="url(#a)">
<g transform="translate(159.55 478.48) scale(.1 -.1)">
<use xlink:href="#c"/>
<use x="63.623047" xlink:href="#e"/>
<use x="95.410156" xlink:href="#m"/>
<use x="159.033203" xlink:href="#ab"/>
</g>
</g>
<g clip-path="url(#a)">
<g transform="translate(191.65 478.48) scale(.1 -.1)">
<use xlink:href="#c"/>
<use x="63.623047" xlink:href="#e"/>
<use x="95.410156" xlink:href="#m"/>
<use x="159.033203" xlink:href="#aa"/>
</g>
</g>
<g clip-path="url(#a)">
<g transform="translate(131.01 478.48) scale(.1 -.1)">
<use xlink:href="#c"/>
<use x="63.623047" xlink:href="#e"/>
<use x="95.410156" xlink:href="#o"/>
<use x="159.033203" xlink:href="#w"/>
</g>
</g>
<g clip-path="url(#a)">
<g transform="translate(266.56 478.48) scale(.1 -.1)">
<use xlink:href="#c"/>
<use x="63.623047" xlink:href="#e"/>
<use x="95.410156" xlink:href="#o"/>
<use x="159.033203" xlink:href="#c"/>
</g>
</g>
<g clip-path="url(#a)">
<g transform="translate(309.36 478.48) scale(.1 -.1)">
<use xlink:href="#c"/>
<use x="63.623047" xlink:href="#e"/>
<use x="95.410156" xlink:href="#o"/>
<use x="159.033203" xlink:href="#m"/>
</g>
</g>
<g clip-path="url(#a)">
<g transform="translate(1101.2 478.48) scale(.1 -.1)">
<use xlink:href="#c"/>
<use x="63.623047" xlink:href="#e"/>
<use x="95.410156" xlink:href="#o"/>
<use x="159.033203" xlink:href="#o"/>
</g>
</g>
<defs>
<clipPath id="a">
<rect width="1165.3" height="613.33"/>
</clipPath>
</defs>
</svg>
