<?xml version="1.0" encoding="UTF-8"?>
<!DOCTYPE svg  PUBLIC '-//W3C//DTD SVG 1.1//EN'  'http://www.w3.org/Graphics/SVG/1.1/DTD/svg11.dtd'>
<svg width="1722.7pt" height="906.67pt" version="1.1" viewBox="0 0 1722.7 906.67" xmlns="http://www.w3.org/2000/svg" xmlns:xlink="http://www.w3.org/1999/xlink">
<defs>
<style type="text/css">*{stroke-linecap:butt;stroke-linejoin:round;}</style>
</defs>
<path d="m0 906.67h1722.7v-906.67h-1722.7z" fill="#fff"/>
<g fill="none" stroke="#000">
<path d="m615.58 41.212-510.3 166.32" clip-path="url(#a)"/>
<path d="m615.58 41.212-407.4 662.03" clip-path="url(#a)"/>
<path d="m615.58 41.212-292.3 332.22" clip-path="url(#a)"/>
<path d="m615.58 41.212 79.071 166.32" clip-path="url(#a)"/>
<path d="m615.58 41.212 469.3 662.03" clip-path="url(#a)"/>
<path d="m615.58 41.212 812.31 332.22" clip-path="url(#a)"/>
<path d="m615.58 41.212-432.38 662.03" clip-path="url(#a)"/>
<path d="m615.58 41.212-117.67 662.03" clip-path="url(#a)"/>
<path d="m615.58 41.212 399.36 662.03" clip-path="url(#a)"/>
<path d="m105.28 207.53-26.975 495.71" clip-path="url(#a)"/>
<path d="m105.28 207.53-19.482 495.71" clip-path="url(#a)"/>
<path d="m105.28 207.53-9.4913 495.71" clip-path="url(#a)"/>
<path d="m105.28 207.53 10.49 495.71" clip-path="url(#a)"/>
<path d="m105.28 207.53 45.458 165.9" clip-path="url(#a)"/>
<path d="m208.18 703.24v162.22" clip-path="url(#a)"/>
<path d="m323.29 373.43-72.642 165.34" clip-path="url(#a)"/>
<path d="m323.29 373.43-25.185 329.81" clip-path="url(#a)"/>
<path d="m323.29 373.43 9.7827 329.81" clip-path="url(#a)"/>
<path d="m323.29 373.43 88.044 165.34" clip-path="url(#a)"/>
<path d="m694.65 207.53-149.28 495.71" clip-path="url(#a)"/>
<path d="m694.65 207.53-99.325 495.71" clip-path="url(#a)"/>
<path d="m694.65 207.53-5.6615 165.9" clip-path="url(#a)"/>
<path d="m694.65 207.53 65.523 495.71" clip-path="url(#a)"/>
<path d="m694.65 207.53 188.74 331.23" clip-path="url(#a)"/>
<path d="m1084.9 703.24v162.22" clip-path="url(#a)"/>
<path d="m1427.9 373.43-233.12 165.34" clip-path="url(#a)"/>
<path d="m1427.9 373.43-118.22 329.81" clip-path="url(#a)"/>
<path d="m1427.9 373.43-38.298 329.81" clip-path="url(#a)"/>
<path d="m1427.9 373.43 44.126 329.81" clip-path="url(#a)"/>
<path d="m1427.9 373.43 129.05 329.81" clip-path="url(#a)"/>
<path d="m1427.9 373.43 216.47 329.81" clip-path="url(#a)"/>
<path d="m1194.8 538.76-37.466 164.47" clip-path="url(#a)"/>
<path d="m1194.8 538.76 37.466 164.47" clip-path="url(#a)"/>
<path d="m1309.7 703.24v162.22" clip-path="url(#a)"/>
<path d="m1389.6 703.24v162.22" clip-path="url(#a)"/>
<path d="m1472 703.24v162.22" clip-path="url(#a)"/>
<path d="m1556.9 703.24v162.22" clip-path="url(#a)"/>
<path d="m1157.3 703.24v162.22" clip-path="url(#a)"/>
<path d="m1232.2 703.24v162.22" clip-path="url(#a)"/>
<path d="m545.37 703.24v162.22" clip-path="url(#a)"/>
<path d="m595.33 703.24v162.22" clip-path="url(#a)"/>
<path d="m688.99 373.43-13.737 165.34" clip-path="url(#a)"/>
<path d="m688.99 373.43 13.737 329.81" clip-path="url(#a)"/>
<path d="m760.18 703.24v162.22" clip-path="url(#a)"/>
<path d="m883.4 538.76-63.275 164.47" clip-path="url(#a)"/>
<path d="m883.4 538.76-0.83257 164.47" clip-path="url(#a)"/>
<path d="m883.4 538.76 64.108 164.47" clip-path="url(#a)"/>
<path d="m820.12 703.24v162.22" clip-path="url(#a)"/>
<path d="m882.56 703.24v162.22" clip-path="url(#a)"/>
<path d="m947.5 703.24v162.22" clip-path="url(#a)"/>
<path d="m675.25 538.76 27.475 164.47" clip-path="url(#a)" stroke-dasharray="3.7,1.6"/>
<path d="m675.25 538.76-27.475 164.47" clip-path="url(#a)"/>
<path d="m702.73 703.24v162.22" clip-path="url(#a)"/>
<path d="m647.78 703.24v162.22" clip-path="url(#a)"/>
<path d="m250.64 538.76-14.986 164.47" clip-path="url(#a)"/>
<path d="m250.64 538.76 14.986 164.47" clip-path="url(#a)"/>
<path d="m298.1 703.24v162.22" clip-path="url(#a)"/>
<path d="m333.07 703.24v162.22" clip-path="url(#a)"/>
<path d="m411.33 538.76-40.796 164.47" clip-path="url(#a)"/>
<path d="m411.33 538.76-0.83257 164.47" clip-path="url(#a)"/>
<path d="m411.33 538.76 41.628 164.47" clip-path="url(#a)"/>
<path d="m370.53 703.24v162.22" clip-path="url(#a)"/>
<path d="m410.5 703.24v162.22" clip-path="url(#a)"/>
<path d="m452.96 703.24v162.22" clip-path="url(#a)"/>
<path d="m235.66 703.24v162.22" clip-path="url(#a)"/>
<path d="m265.63 703.24v162.22" clip-path="url(#a)"/>
<path d="m78.303 703.24v162.22" clip-path="url(#a)"/>
<path d="m85.796 703.24v162.22" clip-path="url(#a)"/>
<path d="m95.787 703.24v162.22" clip-path="url(#a)"/>
<path d="m115.77 703.24-7.4931 162.22" clip-path="url(#a)"/>
<path d="m115.77 703.24 7.4931 162.22" clip-path="url(#a)"/>
<path d="m150.74 373.43-9.9908 329.81" clip-path="url(#a)"/>
<path d="m150.74 373.43 9.9908 165.34" clip-path="url(#a)"/>
<path d="m140.75 703.24v162.22" clip-path="url(#a)"/>
<path d="m160.73 538.76v164.47" clip-path="url(#a)"/>
<path d="m160.73 703.24v162.22" clip-path="url(#a)"/>
<path d="m183.21 703.24v162.22" clip-path="url(#a)"/>
<path d="m497.92 703.24v162.22" clip-path="url(#a)"/>
<path d="m1014.9 703.24v162.22" clip-path="url(#a)"/>
<path d="m1644.4 703.24v162.22" clip-path="url(#a)"/>
</g>
<path d="m359.51 131.27 5.7201-1.8643q2.2819-0.7437 1.5382-3.0256l-2.3992-7.3614q-0.7437-2.2819-3.0256-1.5382l-5.7201 1.8643q-2.2819 0.7437-1.5382 3.0256l2.3992 7.3614q0.7437 2.2819 3.0256 1.5382z" clip-path="url(#a)" fill="#fff" stroke="#fff"/>
<g clip-path="url(#a)">
<defs>
<path id="ad" d="m9.8125 72.906h9.8594v-29.891h35.844v29.891h9.8594v-72.906h-9.8594v34.719h-35.844v-34.719h-9.8594z"/>
</defs>
<g transform="translate(358.25 127.4) rotate(-18.052) scale(.08 -.08)">
<use xlink:href="#ad"/>
</g>
</g>
<path d="m416.06 377.41 2.3362-3.7963q1.2578-2.044-0.78615-3.3018l-6.594-4.0578q-2.044-1.2578-3.3018 0.78615l-2.3362 3.7963q-1.2578 2.044 0.78615 3.3018l6.594 4.0578q2.044 1.2578 3.3018-0.78615z" clip-path="url(#a)" fill="#fff" stroke="#fff"/>
<g clip-path="url(#a)">
<defs>
<path id="ap" d="m9.8125 72.906h9.8594v-64.609h35.5v-8.2969h-45.359z"/>
</defs>
<g transform="translate(412.59 375.28) rotate(-58.393) scale(.08 -.08)">
<use xlink:href="#ap"/>
</g>
</g>
<path d="m472.16 213.72 3.9741-4.5168q1.5853-1.8019-0.21652-3.3872l-5.8129-5.1144q-1.8019-1.5853-3.3872 0.21652l-3.9741 4.5168q-1.5853 1.8019 0.21652 3.3872l5.8129 5.1144q1.8019 1.5853 3.3872-0.21652z" clip-path="url(#a)" fill="#fff" stroke="#fff"/>
<g clip-path="url(#a)">
<g transform="translate(469.1 211.04) rotate(-48.658) scale(.08 -.08)">
<use xlink:href="#ad"/>
</g>
</g>
<path d="m648.16 124.35 2.5832 5.4335q1.0305 2.1675 3.198 1.137l6.9925-3.3244q2.1675-1.0305 1.137-3.198l-2.5832-5.4335q-1.0305-2.1675-3.198-1.137l-6.9925 3.3244q-2.1675 1.0305-1.137 3.198z" clip-path="url(#a)" fill="#fff" stroke="#fff"/>
<g clip-path="url(#a)">
<g transform="translate(651.83 122.6) rotate(64.573) scale(.08 -.08)">
<use xlink:href="#ad"/>
</g>
</g>
<path d="m843.83 374.03 2.5778 3.6365q1.388 1.958 3.3459 0.57l6.3164-4.4776q1.958-1.388 0.57-3.3459l-2.5778-3.6365q-1.388-1.958-3.3459-0.57l-6.3164 4.4776q-1.958 1.388-0.57 3.3459z" clip-path="url(#a)" fill="#fff" stroke="#fff"/>
<g clip-path="url(#a)">
<g transform="translate(847.14 371.68) rotate(54.668) scale(.08 -.08)">
<use xlink:href="#ap"/>
</g>
</g>
<path d="m1016.6 211.99 5.5685 2.2774q2.2214 0.9085 3.1299-1.3129l2.9309-7.1663q0.9085-2.2214-1.3129-3.1299l-5.5685-2.2774q-2.2214-0.9085-3.1299 1.3129l-2.9309 7.1663q-0.9085 2.2214 1.3129 3.1299z" clip-path="url(#a)" fill="#fff" stroke="#fff"/>
<g clip-path="url(#a)">
<g transform="translate(1018.1 208.23) rotate(22.243) scale(.08 -.08)">
<use xlink:href="#ad"/>
</g>
</g>
<path d="m403.04 378.11 3.2016-4.9021q1.3124-2.0094-0.69704-3.3218l-6.4824-4.2337q-2.0094-1.3124-3.3218 0.69704l-3.2016 4.9021q-1.3124 2.0094 0.69704 3.3218l6.4824 4.2337q2.0094 1.3124 3.3218-0.69704z" clip-path="url(#a)" fill="#fff" stroke="#fff"/>
<g clip-path="url(#a)">
<defs>
<path id="ac" d="m8.6875 72.906h9.9219v-44.297q0-11.719 4.2344-16.875 4.25-5.1406 13.781-5.1406 9.4688 0 13.719 5.1406 4.25 5.1562 4.25 16.875v44.297h9.9062v-45.516q0-14.25-7.0625-21.531-7.0469-7.2812-20.812-7.2812-13.828 0-20.891 7.2812-7.0469 7.2812-7.0469 21.531z"/>
</defs>
<g transform="translate(399.64 375.88) rotate(-56.851) scale(.08 -.08)">
<use xlink:href="#ac"/>
</g>
</g>
<path d="m562.41 376.2 1.0246-5.7647q0.41998-2.363-1.943-2.7829l-7.623-1.3549q-2.363-0.41998-2.7829 1.943l-1.0246 5.7647q-0.41998 2.363 1.943 2.7829l7.623 1.3549q2.363 0.41998 2.7829-1.943z" clip-path="url(#a)" fill="#fff" stroke="#fff"/>
<g clip-path="url(#a)">
<g transform="translate(558.41 375.49) rotate(-79.922) scale(.08 -.08)">
<use xlink:href="#ac"/>
</g>
</g>
<path d="m808.38 372.96 3.0243 5.0134q1.2397 2.055 3.2947 0.81536l6.6296-3.9993q2.055-1.2397 0.81536-3.2947l-3.0243-5.0134q-1.2397-2.055-3.2947-0.81536l-6.6296 3.9993q-2.055 1.2397-0.81536 3.2947z" clip-path="url(#a)" fill="#fff" stroke="#fff"/>
<g clip-path="url(#a)">
<g transform="translate(811.86 370.86) rotate(58.9) scale(.08 -.08)">
<use xlink:href="#ac"/>
</g>
</g>
<path d="m97.904 458.46 0.29736-5.4644q0.13041-2.3965-2.266-2.5269l-7.7311-0.4207q-2.3965-0.13041-2.5269 2.266l-0.29736 5.4644q-0.13041 2.3965 2.266 2.5269l7.7311 0.4207q2.3965 0.13041 2.5269-2.266z" clip-path="url(#a)" fill="#fff" stroke="#fff"/>
<g clip-path="url(#a)">
<defs>
<path id="p" d="m34.188 63.188-13.391-36.281h26.812zm-5.5781 9.7188h11.188l27.781-72.906h-10.25l-6.6406 18.703h-32.859l-6.6406-18.703h-10.406z"/>
</defs>
<g transform="translate(93.846 458.24) rotate(-86.885) scale(.08 -.08)">
<use xlink:href="#p"/>
</g>
</g>
<path d="m101.68 458.71 0.24191-6.1552q0.094251-2.3981-2.3039-2.4924l-7.7365-0.30406q-2.3981-0.094251-2.4924 2.3039l-0.24191 6.1552q-0.094251 2.3981 2.3039 2.4924l7.7365 0.30406q2.3981 0.094251 2.4924-2.3039z" clip-path="url(#a)" fill="#fff" stroke="#fff"/>
<g clip-path="url(#a)">
<defs>
<path id="y" d="m19.672 64.797v-56.688h11.922q15.094 0 22.094 6.8281 7 6.8438 7 21.594 0 14.641-7 21.453t-22.094 6.8125zm-9.8594 8.1094h20.266q21.188 0 31.094-8.8125 9.9219-8.8125 9.9219-27.562 0-18.859-9.9688-27.703-9.9531-8.8281-31.047-8.8281h-20.266z"/>
</defs>
<g transform="translate(97.622 458.55) rotate(-87.749) scale(.08 -.08)">
<use xlink:href="#y"/>
</g>
</g>
<path d="m106.76 457.92 0.092343-4.8229q0.045944-2.3996-2.3536-2.4455l-7.7411-0.14822q-2.3996-0.045944-2.4455 2.3536l-0.092343 4.8229q-0.045944 2.3996 2.3536 2.4455l7.7411 0.14822q2.3996 0.045944 2.4455-2.3536z" clip-path="url(#a)" fill="#fff" stroke="#fff"/>
<g clip-path="url(#a)">
<defs>
<path id="ak" d="m19.672 64.797v-27.391h12.406q6.8906 0 10.641 3.5625 3.7656 3.5625 3.7656 10.156 0 6.5469-3.7656 10.109-3.75 3.5625-10.641 3.5625zm-9.8594 8.1094h22.266q12.266 0 18.531-5.5469 6.2812-5.5469 6.2812-16.234 0-10.797-6.2812-16.312-6.2656-5.5156-18.531-5.5156h-12.406v-29.297h-9.8594z"/>
</defs>
<g transform="translate(102.69 457.84) rotate(-88.903) scale(.08 -.08)">
<use xlink:href="#ak"/>
</g>
</g>
<path d="m104.2 452.78 0.11578 5.4713q0.050779 2.3995 2.4502 2.3487l7.7408-0.16381q2.3995-0.050778 2.3487-2.4502l-0.11578-5.4713q-0.050779-2.3995-2.4502-2.3487l-7.7408 0.16381q-2.3995 0.050778-2.3487 2.4502z" clip-path="url(#a)" fill="#fff" stroke="#fff"/>
<g clip-path="url(#a)">
<g transform="translate(108.26 452.7) rotate(88.788) scale(.08 -.08)">
<use xlink:href="#p"/>
</g>
</g>
<path d="m121.24 289.5 1.4462 5.2779q0.63425 2.3147 2.9489 1.6804l7.4672-2.0461q2.3147-0.63425 1.6804-2.9489l-1.4462-5.2779q-0.63425-2.3147-2.9489-1.6804l-7.4672 2.0461q-2.3147 0.63425-1.6804 2.9489z" clip-path="url(#a)" fill="#fff" stroke="#fff"/>
<g clip-path="url(#a)">
<g transform="translate(125.16 288.42) rotate(74.676) scale(.08 -.08)">
<use xlink:href="#p"/>
</g>
</g>
<path d="m201.91 767.44v33.808q0 2.4 2.4 2.4h7.7425q2.4 0 2.4-2.4v-33.808q0-2.4-2.4-2.4h-7.7425q-2.4 0-2.4 2.4z" clip-path="url(#a)" fill="#fff" stroke="#fff"/>
<g clip-path="url(#a)">
<defs>
<path id="l" d="m-0.29688 72.906h61.672v-8.3125h-25.875v-64.594h-9.9062v64.594h-25.891z"/>
<path id="d" d="m56.203 29.594v-4.3906h-41.312q0.59375-9.2812 5.5938-14.141t13.938-4.8594q5.1719 0 10.031 1.2656t9.6562 3.8125v-8.5q-4.8438-2.0469-9.9219-3.125t-10.297-1.0781q-13.094 0-20.734 7.6094-7.6406 7.625-7.6406 20.625 0 13.422 7.25 21.297 7.25 7.8906 19.562 7.8906 11.031 0 17.453-7.1094 6.4219-7.0938 6.4219-19.297zm-8.9844 2.6406q-0.09375 7.3594-4.125 11.75-4.0312 4.4062-10.672 4.4062-7.5156 0-12.031-4.25t-5.2031-11.969z"/>
<path id="g" d="m41.109 46.297q-1.5156 0.875-3.2969 1.2812-1.7812 0.42188-3.9219 0.42188-7.625 0-11.703-4.9531t-4.0781-14.234v-28.812h-9.0312v54.688h9.0312v-8.5q2.8438 4.9844 7.375 7.3906 4.5469 2.4219 11.047 2.4219 0.92188 0 2.0469-0.125 1.125-0.10938 2.4844-0.35938z"/>
<path id="k" d="m52 44.188q3.375 6.0625 8.0625 8.9375t11.031 2.875q8.5469 0 13.188-5.9844 4.6406-5.9688 4.6406-17v-33.016h-9.0312v32.719q0 7.8594-2.7969 11.656-2.7812 3.8125-8.4844 3.8125-6.9844 0-11.047-4.6406-4.0469-4.625-4.0469-12.641v-30.906h-9.0312v32.719q0 7.9062-2.7812 11.688t-8.5938 3.7812q-6.8906 0-10.953-4.6562-4.0469-4.6562-4.0469-12.625v-30.906h-9.0312v54.688h9.0312v-8.5q3.0781 5.0312 7.375 7.4219t10.203 2.3906q5.9688 0 10.141-3.0312 4.1719-3.0156 6.1719-8.7812z"/>
<path id="j" d="m9.4219 54.688h8.9844v-54.688h-8.9844zm0 21.297h8.9844v-11.391h-8.9844z"/>
<path id="h" d="m54.891 33.016v-33.016h-8.9844v32.719q0 7.7656-3.0312 11.609-3.0312 3.8594-9.0781 3.8594-7.2812 0-11.484-4.6406-4.2031-4.625-4.2031-12.641v-30.906h-9.0312v54.688h9.0312v-8.5q3.2344 4.9375 7.5938 7.375 4.375 2.4375 10.094 2.4375 9.4219 0 14.25-5.8281 4.8438-5.8281 4.8438-17.156z"/>
<path id="f" d="m34.281 27.484q-10.891 0-15.094-2.4844t-4.2031-8.5q0-4.7812 3.1562-7.5938 3.1562-2.7969 8.5625-2.7969 7.4844 0 12 5.2969t4.5156 14.078v2zm17.922 3.7188v-31.203h-8.9844v8.2969q-3.0781-4.9688-7.6719-7.3438t-11.234-2.375q-8.3906 0-13.359 4.7188-4.9531 4.7188-4.9531 12.625 0 9.2188 6.1719 13.906 6.1875 4.6875 18.438 4.6875h12.609v0.89062q0 6.2031-4.0781 9.5938t-11.453 3.3906q-4.6875 0-9.1406-1.125-4.4375-1.125-8.5312-3.375v8.3125q4.9219 1.9062 9.5625 2.8438 4.6406 0.95312 9.0312 0.95312 11.875 0 17.734-6.1562 5.8594-6.1406 5.8594-18.641z"/>
<path id="i" d="m9.4219 75.984h8.9844v-75.984h-8.9844z"/>
</defs>
<g transform="translate(205.98 767.44) rotate(90) scale(.08 -.08)">
<use xlink:href="#l"/>
<use x="44.083984" xlink:href="#d"/>
<use x="105.607422" xlink:href="#g"/>
<use x="144.970703" xlink:href="#k"/>
<use x="242.382812" xlink:href="#j"/>
<use x="270.166016" xlink:href="#h"/>
<use x="333.544922" xlink:href="#f"/>
<use x="394.824219" xlink:href="#i"/>
</g>
</g>
<path d="m291.61 461.12 2.2013-5.0102q0.96539-2.1973-1.2319-3.1627l-7.0885-3.1144q-2.1973-0.96539-3.1627 1.2319l-2.2013 5.0102q-0.96539 2.1973 1.2319 3.1627l7.0885 3.1144q2.1973 0.96539 3.1627-1.2319z" clip-path="url(#a)" fill="#fff" stroke="#fff"/>
<g clip-path="url(#a)">
<g transform="translate(287.89 459.49) rotate(-66.281) scale(.08 -.08)">
<use xlink:href="#p"/>
</g>
</g>
<path d="m316.77 541.1 0.35034-4.5879q0.18274-2.393-2.2103-2.5758l-7.72-0.58952q-2.393-0.18274-2.5758 2.2103l-0.35034 4.5879q-0.18274 2.393 2.2103 2.5758l7.72 0.58952q2.393 0.18274 2.5758-2.2103z" clip-path="url(#a)" fill="#fff" stroke="#fff"/>
<g clip-path="url(#a)">
<defs>
<path id="t" d="m9.8125 72.906h41.891v-8.3125h-32.031v-21.484h28.906v-8.2969h-28.906v-34.812h-9.8594z"/>
</defs>
<g transform="translate(312.72 540.8) rotate(-85.633) scale(.08 -.08)">
<use xlink:href="#t"/>
</g>
</g>
<path d="m321.84 536.11 0.14302 4.8216q0.071156 2.3989 2.4701 2.3278l7.7391-0.22955q2.3989-0.071157 2.3278-2.4701l-0.14302-4.8216q-0.071156-2.3989-2.4701-2.3278l-7.7391 0.22955q-2.3989 0.071157-2.3278 2.4701z" clip-path="url(#a)" fill="#fff" stroke="#fff"/>
<g clip-path="url(#a)">
<g transform="translate(325.9 535.99) rotate(88.301) scale(.08 -.08)">
<use xlink:href="#ak"/>
</g>
</g>
<path d="m360.49 456.63 2.5722 4.8303q1.1281 2.1184 3.2464 0.9903l6.8339-3.6392q2.1184-1.1281 0.9903-3.2464l-2.5722-4.8303q-1.1281-2.1184-3.2464-0.9903l-6.8339 3.6392q-2.1184 1.1281-0.9903 3.2464z" clip-path="url(#a)" fill="#fff" stroke="#fff"/>
<g clip-path="url(#a)">
<g transform="translate(364.07 454.72) rotate(61.964) scale(.08 -.08)">
<use xlink:href="#p"/>
</g>
</g>
<path d="m625.23 459.81 1.578-5.2401q0.69205-2.2981-1.606-2.9901l-7.4136-2.2326q-2.2981-0.69205-2.9901 1.606l-1.578 5.2401q-0.69205 2.2981 1.606 2.9901l7.4136 2.2326q2.2981 0.69205 2.9901-1.606z" clip-path="url(#a)" fill="#fff" stroke="#fff"/>
<g clip-path="url(#a)">
<g transform="translate(621.34 458.64) rotate(-73.241) scale(.08 -.08)">
<use xlink:href="#p"/>
</g>
</g>
<path d="m650.67 458.98 0.9477-4.7297q0.47152-2.3532-1.8817-2.8247l-7.5916-1.5211q-2.3532-0.47152-2.8247 1.8817l-0.9477 4.7297q-0.47152 2.3532 1.8817 2.8247l7.5916 1.5211q2.3532 0.47152 2.8247-1.8817z" clip-path="url(#a)" fill="#fff" stroke="#fff"/>
<g clip-path="url(#a)">
<g transform="translate(646.68 458.18) rotate(-78.67) scale(.08 -.08)">
<use xlink:href="#ak"/>
</g>
</g>
<path d="m698 293.43 0.18665-5.4693q0.081855-2.3986-2.3167-2.4805l-7.738-0.26407q-2.3986-0.081855-2.4805 2.3167l-0.18665 5.4693q-0.081855 2.3986 2.3167 2.4805l7.738 0.26407q2.3986 0.081855 2.4805-2.3167z" clip-path="url(#a)" fill="#fff" stroke="#fff"/>
<g clip-path="url(#a)">
<g transform="translate(693.94 293.29) rotate(-88.045) scale(.08 -.08)">
<use xlink:href="#p"/>
</g>
</g>
<path d="m720.79 453.15 0.80721 6.1069q0.3145 2.3793 2.6938 2.0648l7.6757-1.0146q2.3793-0.3145 2.0648-2.6938l-0.80721-6.1069q-0.3145-2.3793-2.6938-2.0648l-7.6757 1.0146q-2.3793 0.3145-2.0648 2.6938z" clip-path="url(#a)" fill="#fff" stroke="#fff"/>
<g clip-path="url(#a)">
<g transform="translate(724.82 452.62) rotate(82.47) scale(.08 -.08)">
<use xlink:href="#y"/>
</g>
</g>
<path d="m782.05 373.58 3.0497 5.3521q1.1882 2.0852 3.2734 0.89703l6.727-3.8332q2.0852-1.1882 0.89703-3.2734l-3.0497-5.3521q-1.1882-2.0852-3.2734-0.89703l-6.727 3.8332q-2.0852 1.1882-0.89703 3.2734z" clip-path="url(#a)" fill="#fff" stroke="#fff"/>
<g clip-path="url(#a)">
<g transform="translate(785.58 371.56) rotate(60.325) scale(.08 -.08)">
<use xlink:href="#y"/>
</g>
</g>
<path d="m1078.6 767.44v33.808q0 2.4 2.4 2.4h7.7425q2.4 0 2.4-2.4v-33.808q0-2.4-2.4-2.4h-7.7425q-2.4 0-2.4 2.4z" clip-path="url(#a)" fill="#fff" stroke="#fff"/>
<g clip-path="url(#a)">
<g transform="translate(1082.7 767.44) rotate(90) scale(.08 -.08)">
<use xlink:href="#l"/>
<use x="44.083984" xlink:href="#d"/>
<use x="105.607422" xlink:href="#g"/>
<use x="144.970703" xlink:href="#k"/>
<use x="242.382812" xlink:href="#j"/>
<use x="270.166016" xlink:href="#h"/>
<use x="333.544922" xlink:href="#f"/>
<use x="394.824219" xlink:href="#i"/>
</g>
</g>
<path d="m1312.9 462.68 4.1426-2.9381q1.9576-1.3884 0.56921-3.346l-4.4791-6.3154q-1.3884-1.9576-3.346-0.56921l-4.1426 2.9381q-1.9576 1.3884-0.56921 3.346l4.4791 6.3154q1.3884 1.9576 3.346 0.56921z" clip-path="url(#a)" fill="#fff" stroke="#fff"/>
<g clip-path="url(#a)">
<defs>
<path id="ao" d="m53.516 70.516v-9.625q-5.6094 2.6875-10.594 4-4.9844 1.3281-9.625 1.3281-8.0469 0-12.422-3.125t-4.375-8.8906q0-4.8438 2.9062-7.3125 2.9062-2.4531 11.016-3.9688l5.9531-1.2188q11.031-2.1094 16.281-7.4062t5.25-14.172q0-10.609-7.1094-16.078-7.0938-5.4688-20.812-5.4688-5.1719 0-11.016 1.1719-5.8281 1.1719-12.078 3.4688v10.156q6-3.3594 11.766-5.0781 5.7656-1.7031 11.328-1.7031 8.4375 0 13.031 3.3125 4.5938 3.3281 4.5938 9.4844 0 5.3594-3.2969 8.3906t-10.812 4.5469l-6.0156 1.1719q-11.031 2.1875-15.969 6.875-4.9219 4.6875-4.9219 13.047 0 9.6719 6.8125 15.234t18.766 5.5625q5.1406 0 10.453-0.9375 5.3281-0.92188 10.891-2.7656z"/>
</defs>
<g transform="translate(1310.5 459.37) rotate(-35.346) scale(.08 -.08)">
<use xlink:href="#ao"/>
</g>
</g>
<path d="m1373.8 543.03 1.8466-5.1515q0.80985-2.2592-1.4494-3.0691l-7.2884-2.6126q-2.2592-0.80985-3.0691 1.4494l-1.8466 5.1515q-0.80985 2.2592 1.4494 3.0691l7.2884 2.6126q2.2592 0.80985 3.0691-1.4494z" clip-path="url(#a)" fill="#fff" stroke="#fff"/>
<g clip-path="url(#a)">
<g transform="translate(1369.9 541.65) rotate(-70.279) scale(.08 -.08)">
<use xlink:href="#p"/>
</g>
</g>
<path d="m1414.6 542.12 0.71054-6.1189q0.27683-2.384-2.1071-2.6608l-7.6908-0.89307q-2.384-0.27683-2.6608 2.1071l-0.71054 6.1189q-0.27683 2.384 2.1071 2.6608l7.6908 0.89308q2.384 0.27683 2.6608-2.1071z" clip-path="url(#a)" fill="#fff" stroke="#fff"/>
<g clip-path="url(#a)">
<g transform="translate(1410.6 541.65) rotate(-83.376) scale(.08 -.08)">
<use xlink:href="#y"/>
</g>
</g>
<path d="m1443.4 536.88 0.61018 4.5606q0.31827 2.3788 2.6971 2.0605l7.6741-1.0267q2.3788-0.31827 2.0605-2.6971l-0.61018-4.5606q-0.31827-2.3788-2.6971-2.0605l-7.6741 1.0267q-2.3788 0.31827-2.0605 2.6971z" clip-path="url(#a)" fill="#fff" stroke="#fff"/>
<g clip-path="url(#a)">
<g transform="translate(1447.5 536.35) rotate(82.379) scale(.08 -.08)">
<use xlink:href="#t"/>
</g>
</g>
<path d="m1485.5 537.75 2.2446 5.7365q0.87451 2.235 3.1095 1.3605l7.2102-2.8212q2.235-0.87451 1.3605-3.1095l-2.2446-5.7365q-0.87451-2.235-3.1095-1.3605l-7.2102 2.8212q-2.235 0.87451-1.3605 3.1095z" clip-path="url(#a)" fill="#fff" stroke="#fff"/>
<g clip-path="url(#a)">
<g transform="translate(1489.2 536.27) rotate(68.631) scale(.08 -.08)">
<use xlink:href="#y"/>
</g>
</g>
<path d="m1529.3 539.33 3.2127 4.8949q1.3169 2.0064 3.3233 0.68952l6.4728-4.2484q2.0064-1.3169 0.68952-3.3233l-3.2127-4.8949q-1.3169-2.0064-3.3233-0.68952l-6.4728 4.2484q-2.0064 1.3169-0.68952 3.3233z" clip-path="url(#a)" fill="#fff" stroke="#fff"/>
<g clip-path="url(#a)">
<g transform="translate(1532.7 537.1) rotate(56.721) scale(.08 -.08)">
<use xlink:href="#ac"/>
</g>
</g>
<path d="m1181.6 624.64 1.0219-4.4863q0.53304-2.3401-1.807-2.8731l-7.5491-1.7196q-2.3401-0.53304-2.8731 1.807l-1.0219 4.4863q-0.53304 2.3401 1.807 2.8731l7.5491 1.7196q2.3401 0.53304 2.8731-1.807z" clip-path="url(#a)" fill="#fff" stroke="#fff"/>
<g clip-path="url(#a)">
<g transform="translate(1177.7 623.73) rotate(-77.167) scale(.08 -.08)">
<use xlink:href="#t"/>
</g>
</g>
<path d="m1206.8 619.67 1.2407 5.4467q0.53304 2.3401 2.8731 1.807l7.5491-1.7196q2.3401-0.53304 1.807-2.8731l-1.2407-5.4467q-0.53304-2.3401-2.8731-1.807l-7.5491 1.7196q-2.3401 0.53304-1.807 2.8731z" clip-path="url(#a)" fill="#fff" stroke="#fff"/>
<g clip-path="url(#a)">
<defs>
<path id="u" d="m64.406 67.281v-10.391q-4.9844 4.6406-10.625 6.9219-5.6406 2.2969-11.984 2.2969-12.5 0-19.141-7.6406t-6.6406-22.094q0-14.406 6.6406-22.047t19.141-7.6406q6.3438 0 11.984 2.2969t10.625 6.9375v-10.312q-5.1719-3.5156-10.969-5.2812-5.7812-1.75-12.219-1.75-16.562 0-26.094 10.125-9.5156 10.141-9.5156 27.672 0 17.578 9.5156 27.703 9.5312 10.141 26.094 10.141 6.5312 0 12.312-1.7344 5.7969-1.7344 10.875-5.2031z"/>
</defs>
<g transform="translate(1210.7 618.77) rotate(77.167) scale(.08 -.08)">
<use xlink:href="#u"/>
</g>
</g>
<path d="m1303.4 767.44v33.808q0 2.4 2.4 2.4h7.7425q2.4 0 2.4-2.4v-33.808q0-2.4-2.4-2.4h-7.7425q-2.4 0-2.4 2.4z" clip-path="url(#a)" fill="#fff" stroke="#fff"/>
<g clip-path="url(#a)">
<g transform="translate(1307.5 767.44) rotate(90) scale(.08 -.08)">
<use xlink:href="#l"/>
<use x="44.083984" xlink:href="#d"/>
<use x="105.607422" xlink:href="#g"/>
<use x="144.970703" xlink:href="#k"/>
<use x="242.382812" xlink:href="#j"/>
<use x="270.166016" xlink:href="#h"/>
<use x="333.544922" xlink:href="#f"/>
<use x="394.824219" xlink:href="#i"/>
</g>
</g>
<path d="m1383.3 767.44v33.808q0 2.4 2.4 2.4h7.7425q2.4 0 2.4-2.4v-33.808q0-2.4-2.4-2.4h-7.7425q-2.4 0-2.4 2.4z" clip-path="url(#a)" fill="#fff" stroke="#fff"/>
<g clip-path="url(#a)">
<g transform="translate(1387.4 767.44) rotate(90) scale(.08 -.08)">
<use xlink:href="#l"/>
<use x="44.083984" xlink:href="#d"/>
<use x="105.607422" xlink:href="#g"/>
<use x="144.970703" xlink:href="#k"/>
<use x="242.382812" xlink:href="#j"/>
<use x="270.166016" xlink:href="#h"/>
<use x="333.544922" xlink:href="#f"/>
<use x="394.824219" xlink:href="#i"/>
</g>
</g>
<path d="m1465.8 767.44v33.808q0 2.4 2.4 2.4h7.7425q2.4 0 2.4-2.4v-33.808q0-2.4-2.4-2.4h-7.7425q-2.4 0-2.4 2.4z" clip-path="url(#a)" fill="#fff" stroke="#fff"/>
<g clip-path="url(#a)">
<g transform="translate(1469.8 767.44) rotate(90) scale(.08 -.08)">
<use xlink:href="#l"/>
<use x="44.083984" xlink:href="#d"/>
<use x="105.607422" xlink:href="#g"/>
<use x="144.970703" xlink:href="#k"/>
<use x="242.382812" xlink:href="#j"/>
<use x="270.166016" xlink:href="#h"/>
<use x="333.544922" xlink:href="#f"/>
<use x="394.824219" xlink:href="#i"/>
</g>
</g>
<path d="m1550.7 767.44v33.808q0 2.4 2.4 2.4h7.7425q2.4 0 2.4-2.4v-33.808q0-2.4-2.4-2.4h-7.7425q-2.4 0-2.4 2.4z" clip-path="url(#a)" fill="#fff" stroke="#fff"/>
<g clip-path="url(#a)">
<g transform="translate(1554.7 767.44) rotate(90) scale(.08 -.08)">
<use xlink:href="#l"/>
<use x="44.083984" xlink:href="#d"/>
<use x="105.607422" xlink:href="#g"/>
<use x="144.970703" xlink:href="#k"/>
<use x="242.382812" xlink:href="#j"/>
<use x="270.166016" xlink:href="#h"/>
<use x="333.544922" xlink:href="#f"/>
<use x="394.824219" xlink:href="#i"/>
</g>
</g>
<path d="m1151 767.44v33.808q0 2.4 2.4 2.4h7.7425q2.4 0 2.4-2.4v-33.808q0-2.4-2.4-2.4h-7.7425q-2.4 0-2.4 2.4z" clip-path="url(#a)" fill="#fff" stroke="#fff"/>
<g clip-path="url(#a)">
<g transform="translate(1155.1 767.44) rotate(90) scale(.08 -.08)">
<use xlink:href="#l"/>
<use x="44.083984" xlink:href="#d"/>
<use x="105.607422" xlink:href="#g"/>
<use x="144.970703" xlink:href="#k"/>
<use x="242.382812" xlink:href="#j"/>
<use x="270.166016" xlink:href="#h"/>
<use x="333.544922" xlink:href="#f"/>
<use x="394.824219" xlink:href="#i"/>
</g>
</g>
<path d="m1226 767.44v33.808q0 2.4 2.4 2.4h7.7425q2.4 0 2.4-2.4v-33.808q0-2.4-2.4-2.4h-7.7425q-2.4 0-2.4 2.4z" clip-path="url(#a)" fill="#fff" stroke="#fff"/>
<g clip-path="url(#a)">
<g transform="translate(1230 767.44) rotate(90) scale(.08 -.08)">
<use xlink:href="#l"/>
<use x="44.083984" xlink:href="#d"/>
<use x="105.607422" xlink:href="#g"/>
<use x="144.970703" xlink:href="#k"/>
<use x="242.382812" xlink:href="#j"/>
<use x="270.166016" xlink:href="#h"/>
<use x="333.544922" xlink:href="#f"/>
<use x="394.824219" xlink:href="#i"/>
</g>
</g>
<path d="m539.1 767.44v33.808q0 2.4 2.4 2.4h7.7425q2.4 0 2.4-2.4v-33.808q0-2.4-2.4-2.4h-7.7425q-2.4 0-2.4 2.4z" clip-path="url(#a)" fill="#fff" stroke="#fff"/>
<g clip-path="url(#a)">
<g transform="translate(543.17 767.44) rotate(90) scale(.08 -.08)">
<use xlink:href="#l"/>
<use x="44.083984" xlink:href="#d"/>
<use x="105.607422" xlink:href="#g"/>
<use x="144.970703" xlink:href="#k"/>
<use x="242.382812" xlink:href="#j"/>
<use x="270.166016" xlink:href="#h"/>
<use x="333.544922" xlink:href="#f"/>
<use x="394.824219" xlink:href="#i"/>
</g>
</g>
<path d="m589.06 767.44v33.808q0 2.4 2.4 2.4h7.7425q2.4 0 2.4-2.4v-33.808q0-2.4-2.4-2.4h-7.7425q-2.4 0-2.4 2.4z" clip-path="url(#a)" fill="#fff" stroke="#fff"/>
<g clip-path="url(#a)">
<g transform="translate(593.12 767.44) rotate(90) scale(.08 -.08)">
<use xlink:href="#l"/>
<use x="44.083984" xlink:href="#d"/>
<use x="105.607422" xlink:href="#g"/>
<use x="144.970703" xlink:href="#k"/>
<use x="242.382812" xlink:href="#j"/>
<use x="270.166016" xlink:href="#h"/>
<use x="333.544922" xlink:href="#f"/>
<use x="394.824219" xlink:href="#i"/>
</g>
</g>
<path d="m688.16 459.13 0.41857-5.0376q0.19873-2.3918-2.193-2.5905l-7.7159-0.6411q-2.3918-0.19873-2.5905 2.193l-0.41857 5.0376q-0.19872 2.3918 2.193 2.5905l7.7159 0.6411q2.3918 0.19873 2.5905-2.193z" clip-path="url(#a)" fill="#fff" stroke="#fff"/>
<g clip-path="url(#a)">
<defs>
<path id="ae" d="m9.8125 72.906h46.094v-8.3125h-36.234v-21.578h34.719v-8.2969h-34.719v-26.422h37.109v-8.2969h-46.969z"/>
</defs>
<g transform="translate(684.11 458.8) rotate(-85.25) scale(.08 -.08)">
<use xlink:href="#ae"/>
</g>
</g>
<path d="m689.48 535.8 0.23248 5.5814q0.09988 2.3979 2.4978 2.298l7.7358-0.32222q2.3979-0.09988 2.298-2.4978l-0.23248-5.5814q-0.09988-2.3979-2.4978-2.298l-7.7358 0.32222q-2.3979 0.099879-2.298 2.4978z" clip-path="url(#a)" fill="#fff" stroke="#fff"/>
<g clip-path="url(#a)">
<g transform="translate(693.54 535.63) rotate(87.615) scale(.08 -.08)">
<use xlink:href="#u"/>
</g>
</g>
<path d="m753.91 767.44v33.808q0 2.4 2.4 2.4h7.7425q2.4 0 2.4-2.4v-33.808q0-2.4-2.4-2.4h-7.7425q-2.4 0-2.4 2.4z" clip-path="url(#a)" fill="#fff" stroke="#fff"/>
<g clip-path="url(#a)">
<g transform="translate(757.97 767.44) rotate(90) scale(.08 -.08)">
<use xlink:href="#l"/>
<use x="44.083984" xlink:href="#d"/>
<use x="105.607422" xlink:href="#g"/>
<use x="144.970703" xlink:href="#k"/>
<use x="242.382812" xlink:href="#j"/>
<use x="270.166016" xlink:href="#h"/>
<use x="333.544922" xlink:href="#f"/>
<use x="394.824219" xlink:href="#i"/>
</g>
</g>
<path d="m856.79 625.4 1.6521-4.2944q0.86174-2.24-1.3782-3.1017l-7.2262-2.78q-2.24-0.86174-3.1017 1.3782l-1.6521 4.2944q-0.86174 2.24 1.3782 3.1017l7.2262 2.78q2.24 0.86174 3.1017-1.3782z" clip-path="url(#a)" fill="#fff" stroke="#fff"/>
<g clip-path="url(#a)">
<g transform="translate(852.99 623.94) rotate(-68.958) scale(.08 -.08)">
<use xlink:href="#t"/>
</g>
</g>
<path d="m889.24 623.56 0.025588-5.0549q0.012149-2.4-2.3878-2.4121l-7.7424-0.039193q-2.4-0.012148-2.4121 2.3878l-0.025589 5.0549q-0.012148 2.4 2.3878 2.4121l7.7424 0.039192q2.4 0.012149 2.4121-2.3878z" clip-path="url(#a)" fill="#fff" stroke="#fff"/>
<g clip-path="url(#a)">
<g transform="translate(885.17 623.54) rotate(-89.71) scale(.08 -.08)">
<use xlink:href="#ae"/>
</g>
</g>
<path d="m908.59 620.68 2.0287 5.2048q0.8716 2.2361 3.1077 1.3645l7.2139-2.8118q2.2361-0.87159 1.3645-3.1077l-2.0287-5.2048q-0.87159-2.2361-3.1077-1.3645l-7.2139 2.8118q-2.2361 0.8716-1.3645 3.1077z" clip-path="url(#a)" fill="#fff" stroke="#fff"/>
<g clip-path="url(#a)">
<g transform="translate(912.38 619.2) rotate(68.705) scale(.08 -.08)">
<use xlink:href="#u"/>
</g>
</g>
<path d="m813.85 767.44v33.808q0 2.4 2.4 2.4h7.7425q2.4 0 2.4-2.4v-33.808q0-2.4-2.4-2.4h-7.7425q-2.4 0-2.4 2.4z" clip-path="url(#a)" fill="#fff" stroke="#fff"/>
<g clip-path="url(#a)">
<g transform="translate(817.91 767.44) rotate(90) scale(.08 -.08)">
<use xlink:href="#l"/>
<use x="44.083984" xlink:href="#d"/>
<use x="105.607422" xlink:href="#g"/>
<use x="144.970703" xlink:href="#k"/>
<use x="242.382812" xlink:href="#j"/>
<use x="270.166016" xlink:href="#h"/>
<use x="333.544922" xlink:href="#f"/>
<use x="394.824219" xlink:href="#i"/>
</g>
</g>
<path d="m876.29 767.44v33.808q0 2.4 2.4 2.4h7.7425q2.4 0 2.4-2.4v-33.808q0-2.4-2.4-2.4h-7.7425q-2.4 0-2.4 2.4z" clip-path="url(#a)" fill="#fff" stroke="#fff"/>
<g clip-path="url(#a)">
<g transform="translate(880.36 767.44) rotate(90) scale(.08 -.08)">
<use xlink:href="#l"/>
<use x="44.083984" xlink:href="#d"/>
<use x="105.607422" xlink:href="#g"/>
<use x="144.970703" xlink:href="#k"/>
<use x="242.382812" xlink:href="#j"/>
<use x="270.166016" xlink:href="#h"/>
<use x="333.544922" xlink:href="#f"/>
<use x="394.824219" xlink:href="#i"/>
</g>
</g>
<path d="m941.23 767.44v33.808q0 2.4 2.4 2.4h7.7425q2.4 0 2.4-2.4v-33.808q0-2.4-2.4-2.4h-7.7425q-2.4 0-2.4 2.4z" clip-path="url(#a)" fill="#fff" stroke="#fff"/>
<g clip-path="url(#a)">
<g transform="translate(945.3 767.44) rotate(90) scale(.08 -.08)">
<use xlink:href="#l"/>
<use x="44.083984" xlink:href="#d"/>
<use x="105.607422" xlink:href="#g"/>
<use x="144.970703" xlink:href="#k"/>
<use x="242.382812" xlink:href="#j"/>
<use x="270.166016" xlink:href="#h"/>
<use x="333.544922" xlink:href="#f"/>
<use x="394.824219" xlink:href="#i"/>
</g>
</g>
<path d="m682.36 619.34 0.90167 5.3977q0.39543 2.3672 2.7626 1.9718l7.6367-1.2757q2.3672-0.39543 1.9718-2.7626l-0.90167-5.3977q-0.39543-2.3672-2.7626-1.9718l-7.6367 1.2757q-2.3672 0.39543-1.9718 2.7626z" clip-path="url(#a)" fill="#fff" stroke="#fff"/>
<g clip-path="url(#a)">
<g transform="translate(686.36 618.67) rotate(80.516) scale(.08 -.08)">
<use xlink:href="#p"/>
</g>
</g>
<path d="m667.28 624.54 0.83679-5.0093q0.39543-2.3672-1.9718-2.7626l-7.6367-1.2757q-2.3672-0.39543-2.7626 1.9718l-0.83679 5.0093q-0.39543 2.3672 1.9718 2.7626l7.6367 1.2757q2.3672 0.39543 2.7626-1.9718z" clip-path="url(#a)" fill="#fff" stroke="#fff"/>
<g clip-path="url(#a)">
<g transform="translate(663.28 623.87) rotate(-80.516) scale(.08 -.08)">
<use xlink:href="#ao"/>
</g>
</g>
<path d="m696.46 767.44v33.808q0 2.4 2.4 2.4h7.7425q2.4 0 2.4-2.4v-33.808q0-2.4-2.4-2.4h-7.7425q-2.4 0-2.4 2.4z" clip-path="url(#a)" fill="#fff" stroke="#fff"/>
<g clip-path="url(#a)">
<g transform="translate(700.52 767.44) rotate(90) scale(.08 -.08)">
<use xlink:href="#l"/>
<use x="44.083984" xlink:href="#d"/>
<use x="105.607422" xlink:href="#g"/>
<use x="144.970703" xlink:href="#k"/>
<use x="242.382812" xlink:href="#j"/>
<use x="270.166016" xlink:href="#h"/>
<use x="333.544922" xlink:href="#f"/>
<use x="394.824219" xlink:href="#i"/>
</g>
</g>
<path d="m641.51 767.44v33.808q0 2.4 2.4 2.4h7.7425q2.4 0 2.4-2.4v-33.808q0-2.4-2.4-2.4h-7.7425q-2.4 0-2.4 2.4z" clip-path="url(#a)" fill="#fff" stroke="#fff"/>
<g clip-path="url(#a)">
<g transform="translate(645.57 767.44) rotate(90) scale(.08 -.08)">
<use xlink:href="#l"/>
<use x="44.083984" xlink:href="#d"/>
<use x="105.607422" xlink:href="#g"/>
<use x="144.970703" xlink:href="#k"/>
<use x="242.382812" xlink:href="#j"/>
<use x="270.166016" xlink:href="#h"/>
<use x="333.544922" xlink:href="#f"/>
<use x="394.824219" xlink:href="#i"/>
</g>
</g>
<path d="m249.19 623.86 0.41752-4.5823q0.21778-2.3901-2.1723-2.6079l-7.7106-0.70256q-2.3901-0.21778-2.6079 2.1723l-0.41752 4.5823q-0.21778 2.3901 2.1723 2.6079l7.7106 0.70256q2.3901 0.21778 2.6079-2.1723z" clip-path="url(#a)" fill="#fff" stroke="#fff"/>
<g clip-path="url(#a)">
<g transform="translate(245.14 623.49) rotate(-84.794) scale(.08 -.08)">
<use xlink:href="#t"/>
</g>
</g>
<path d="m251.64 618.79 0.5069 5.5632q0.21778 2.3901 2.6079 2.1723l7.7106-0.70256q2.3901-0.21778 2.1723-2.6079l-0.5069-5.5632q-0.21778-2.3901-2.6079-2.1723l-7.7106 0.70256q-2.3901 0.21778-2.1723 2.6079z" clip-path="url(#a)" fill="#fff" stroke="#fff"/>
<g clip-path="url(#a)">
<g transform="translate(255.69 618.42) rotate(84.794) scale(.08 -.08)">
<use xlink:href="#u"/>
</g>
</g>
<path d="m291.83 767.44v33.808q0 2.4 2.4 2.4h7.7425q2.4 0 2.4-2.4v-33.808q0-2.4-2.4-2.4h-7.7425q-2.4 0-2.4 2.4z" clip-path="url(#a)" fill="#fff" stroke="#fff"/>
<g clip-path="url(#a)">
<g transform="translate(295.89 767.44) rotate(90) scale(.08 -.08)">
<use xlink:href="#l"/>
<use x="44.083984" xlink:href="#d"/>
<use x="105.607422" xlink:href="#g"/>
<use x="144.970703" xlink:href="#k"/>
<use x="242.382812" xlink:href="#j"/>
<use x="270.166016" xlink:href="#h"/>
<use x="333.544922" xlink:href="#f"/>
<use x="394.824219" xlink:href="#i"/>
</g>
</g>
<path d="m326.8 767.44v33.808q0 2.4 2.4 2.4h7.7425q2.4 0 2.4-2.4v-33.808q0-2.4-2.4-2.4h-7.7425q-2.4 0-2.4 2.4z" clip-path="url(#a)" fill="#fff" stroke="#fff"/>
<g clip-path="url(#a)">
<g transform="translate(330.86 767.44) rotate(90) scale(.08 -.08)">
<use xlink:href="#l"/>
<use x="44.083984" xlink:href="#d"/>
<use x="105.607422" xlink:href="#g"/>
<use x="144.970703" xlink:href="#k"/>
<use x="242.382812" xlink:href="#j"/>
<use x="270.166016" xlink:href="#h"/>
<use x="333.544922" xlink:href="#f"/>
<use x="394.824219" xlink:href="#i"/>
</g>
</g>
<path d="m396.35 625.21 1.3382-5.3953q0.57779-2.3294-1.7516-2.9072l-7.5148-1.864q-2.3294-0.57779-2.9072 1.7516l-1.3382 5.3953q-0.57779 2.3294 1.7516 2.9072l7.5148 1.864q2.3294 0.57779 2.9072-1.7516z" clip-path="url(#a)" fill="#fff" stroke="#fff"/>
<g clip-path="url(#a)">
<defs>
<path id="as" d="m44.391 34.188q3.1719-1.0781 6.1719-4.5938t6.0312-9.6719l10.016-19.922h-10.609l-9.3125 18.703q-3.625 7.3281-7.0156 9.7188t-9.25 2.3906h-10.75v-30.812h-9.8594v72.906h22.266q12.5 0 18.656-5.2344 6.1562-5.2188 6.1562-15.766 0-6.8906-3.2031-11.438-3.2031-4.5312-9.2969-6.2812zm-24.719 30.609v-25.875h12.406q7.125 0 10.766 3.2969t3.6406 9.6875-3.6406 9.6406-10.766 3.25z"/>
</defs>
<g transform="translate(392.41 624.23) rotate(-76.07) scale(.08 -.08)">
<use xlink:href="#as"/>
</g>
</g>
<path d="m417.17 623.83 0.028278-5.5862q0.012148-2.4-2.3878-2.4121l-7.7424-0.039192q-2.4-0.012149-2.4121 2.3878l-0.028277 5.5862q-0.012149 2.4 2.3878 2.4121l7.7424 0.039192q2.4 0.012149 2.4121-2.3878z" clip-path="url(#a)" fill="#fff" stroke="#fff"/>
<g clip-path="url(#a)">
<g transform="translate(413.11 623.81) rotate(-89.71) scale(.08 -.08)">
<use xlink:href="#u"/>
</g>
</g>
<path d="m425.44 620.09 1.2403 4.9005q0.58887 2.3266 2.9155 1.7378l7.5058-1.8997q2.3266-0.58887 1.7378-2.9155l-1.2403-4.9005q-0.58887-2.3266-2.9155-1.7378l-7.5058 1.8997q-2.3266 0.58888-1.7378 2.9155z" clip-path="url(#a)" fill="#fff" stroke="#fff"/>
<g clip-path="url(#a)">
<g transform="translate(429.38 619.09) rotate(75.797) scale(.08 -.08)">
<use xlink:href="#ae"/>
</g>
</g>
<path d="m364.26 767.44v33.808q0 2.4 2.4 2.4h7.7425q2.4 0 2.4-2.4v-33.808q0-2.4-2.4-2.4h-7.7425q-2.4 0-2.4 2.4z" clip-path="url(#a)" fill="#fff" stroke="#fff"/>
<g clip-path="url(#a)">
<g transform="translate(368.33 767.44) rotate(90) scale(.08 -.08)">
<use xlink:href="#l"/>
<use x="44.083984" xlink:href="#d"/>
<use x="105.607422" xlink:href="#g"/>
<use x="144.970703" xlink:href="#k"/>
<use x="242.382812" xlink:href="#j"/>
<use x="270.166016" xlink:href="#h"/>
<use x="333.544922" xlink:href="#f"/>
<use x="394.824219" xlink:href="#i"/>
</g>
</g>
<path d="m404.23 767.44v33.808q0 2.4 2.4 2.4h7.7425q2.4 0 2.4-2.4v-33.808q0-2.4-2.4-2.4h-7.7425q-2.4 0-2.4 2.4z" clip-path="url(#a)" fill="#fff" stroke="#fff"/>
<g clip-path="url(#a)">
<g transform="translate(408.29 767.44) rotate(90) scale(.08 -.08)">
<use xlink:href="#l"/>
<use x="44.083984" xlink:href="#d"/>
<use x="105.607422" xlink:href="#g"/>
<use x="144.970703" xlink:href="#k"/>
<use x="242.382812" xlink:href="#j"/>
<use x="270.166016" xlink:href="#h"/>
<use x="333.544922" xlink:href="#f"/>
<use x="394.824219" xlink:href="#i"/>
</g>
</g>
<path d="m446.69 767.44v33.808q0 2.4 2.4 2.4h7.7425q2.4 0 2.4-2.4v-33.808q0-2.4-2.4-2.4h-7.7425q-2.4 0-2.4 2.4z" clip-path="url(#a)" fill="#fff" stroke="#fff"/>
<g clip-path="url(#a)">
<g transform="translate(450.75 767.44) rotate(90) scale(.08 -.08)">
<use xlink:href="#l"/>
<use x="44.083984" xlink:href="#d"/>
<use x="105.607422" xlink:href="#g"/>
<use x="144.970703" xlink:href="#k"/>
<use x="242.382812" xlink:href="#j"/>
<use x="270.166016" xlink:href="#h"/>
<use x="333.544922" xlink:href="#f"/>
<use x="394.824219" xlink:href="#i"/>
</g>
</g>
<path d="m229.39 767.44v33.808q0 2.4 2.4 2.4h7.7425q2.4 0 2.4-2.4v-33.808q0-2.4-2.4-2.4h-7.7425q-2.4 0-2.4 2.4z" clip-path="url(#a)" fill="#fff" stroke="#fff"/>
<g clip-path="url(#a)">
<g transform="translate(233.45 767.44) rotate(90) scale(.08 -.08)">
<use xlink:href="#l"/>
<use x="44.083984" xlink:href="#d"/>
<use x="105.607422" xlink:href="#g"/>
<use x="144.970703" xlink:href="#k"/>
<use x="242.382812" xlink:href="#j"/>
<use x="270.166016" xlink:href="#h"/>
<use x="333.544922" xlink:href="#f"/>
<use x="394.824219" xlink:href="#i"/>
</g>
</g>
<path d="m259.36 767.44v33.808q0 2.4 2.4 2.4h7.7425q2.4 0 2.4-2.4v-33.808q0-2.4-2.4-2.4h-7.7425q-2.4 0-2.4 2.4z" clip-path="url(#a)" fill="#fff" stroke="#fff"/>
<g clip-path="url(#a)">
<g transform="translate(263.42 767.44) rotate(90) scale(.08 -.08)">
<use xlink:href="#l"/>
<use x="44.083984" xlink:href="#d"/>
<use x="105.607422" xlink:href="#g"/>
<use x="144.970703" xlink:href="#k"/>
<use x="242.382812" xlink:href="#j"/>
<use x="270.166016" xlink:href="#h"/>
<use x="333.544922" xlink:href="#f"/>
<use x="394.824219" xlink:href="#i"/>
</g>
</g>
<path d="m72.032 767.44v33.808q0 2.4 2.4 2.4h7.7425q2.4 0 2.4-2.4v-33.808q0-2.4-2.4-2.4h-7.7425q-2.4 0-2.4 2.4z" clip-path="url(#a)" fill="#fff" stroke="#fff"/>
<g clip-path="url(#a)">
<g transform="translate(76.096 767.44) rotate(90) scale(.08 -.08)">
<use xlink:href="#l"/>
<use x="44.083984" xlink:href="#d"/>
<use x="105.607422" xlink:href="#g"/>
<use x="144.970703" xlink:href="#k"/>
<use x="242.382812" xlink:href="#j"/>
<use x="270.166016" xlink:href="#h"/>
<use x="333.544922" xlink:href="#f"/>
<use x="394.824219" xlink:href="#i"/>
</g>
</g>
<path d="m79.525 767.44v33.808q0 2.4 2.4 2.4h7.7425q2.4 0 2.4-2.4v-33.808q0-2.4-2.4-2.4h-7.7425q-2.4 0-2.4 2.4z" clip-path="url(#a)" fill="#fff" stroke="#fff"/>
<g clip-path="url(#a)">
<g transform="translate(83.589 767.44) rotate(90) scale(.08 -.08)">
<use xlink:href="#l"/>
<use x="44.083984" xlink:href="#d"/>
<use x="105.607422" xlink:href="#g"/>
<use x="144.970703" xlink:href="#k"/>
<use x="242.382812" xlink:href="#j"/>
<use x="270.166016" xlink:href="#h"/>
<use x="333.544922" xlink:href="#f"/>
<use x="394.824219" xlink:href="#i"/>
</g>
</g>
<path d="m89.516 767.44v33.808q0 2.4 2.4 2.4h7.7425q2.4 0 2.4-2.4v-33.808q0-2.4-2.4-2.4h-7.7425q-2.4 0-2.4 2.4z" clip-path="url(#a)" fill="#fff" stroke="#fff"/>
<g clip-path="url(#a)">
<g transform="translate(93.579 767.44) rotate(90) scale(.08 -.08)">
<use xlink:href="#l"/>
<use x="44.083984" xlink:href="#d"/>
<use x="105.607422" xlink:href="#g"/>
<use x="144.970703" xlink:href="#k"/>
<use x="242.382812" xlink:href="#j"/>
<use x="270.166016" xlink:href="#h"/>
<use x="333.544922" xlink:href="#f"/>
<use x="394.824219" xlink:href="#i"/>
</g>
</g>
<path d="m117.51 801.52 1.56-33.771q0.11074-2.3974-2.2867-2.5082l-7.7343-0.35726q-2.3974-0.11074-2.5082 2.2867l-1.56 33.771q-0.11074 2.3974 2.2867 2.5082l7.7343 0.35726q2.3974 0.11074 2.5082-2.2867z" clip-path="url(#a)" fill="#fff" stroke="#fff"/>
<g clip-path="url(#a)">
<g transform="translate(113.45 801.33) rotate(-87.355) scale(.08 -.08)">
<use xlink:href="#l"/>
<use x="44.083984" xlink:href="#d"/>
<use x="105.607422" xlink:href="#g"/>
<use x="144.970703" xlink:href="#k"/>
<use x="242.382812" xlink:href="#j"/>
<use x="270.166016" xlink:href="#h"/>
<use x="333.544922" xlink:href="#f"/>
<use x="394.824219" xlink:href="#i"/>
</g>
</g>
<path d="m112.47 767.75 1.56 33.771q0.11074 2.3974 2.5082 2.2867l7.7343-0.35726q2.3974-0.11074 2.2867-2.5082l-1.56-33.771q-0.11074-2.3974-2.5082-2.2867l-7.7343 0.35726q-2.3974 0.11074-2.2867 2.5082z" clip-path="url(#a)" fill="#fff" stroke="#fff"/>
<g clip-path="url(#a)">
<g transform="translate(116.53 767.56) rotate(87.355) scale(.08 -.08)">
<use xlink:href="#l"/>
<use x="44.083984" xlink:href="#d"/>
<use x="105.607422" xlink:href="#g"/>
<use x="144.970703" xlink:href="#k"/>
<use x="242.382812" xlink:href="#j"/>
<use x="270.166016" xlink:href="#h"/>
<use x="333.544922" xlink:href="#f"/>
<use x="394.824219" xlink:href="#i"/>
</g>
</g>
<path d="m151.94 540.82 0.13932-4.5991q0.072669-2.3989-2.3262-2.4716l-7.739-0.23443q-2.3989-0.07267-2.4716 2.3262l-0.13932 4.5991q-0.072669 2.3989 2.3262 2.4716l7.739 0.23443q2.3989 0.072669 2.4716-2.3262z" clip-path="url(#a)" fill="#fff" stroke="#fff"/>
<g clip-path="url(#a)">
<g transform="translate(147.88 540.7) rotate(-88.265) scale(.08 -.08)">
<use xlink:href="#t"/>
</g>
</g>
<path d="m149.3 453.69 0.33695 5.5761q0.14476 2.3956 2.5404 2.2509l7.7284-0.46701q2.3956-0.14476 2.2509-2.5404l-0.33695-5.5761q-0.14476-2.3956-2.5404-2.2509l-7.7284 0.46701q-2.3956 0.14476-2.2509 2.5404z" clip-path="url(#a)" fill="#fff" stroke="#fff"/>
<g clip-path="url(#a)">
<g transform="translate(153.36 453.44) rotate(86.542) scale(.08 -.08)">
<use xlink:href="#u"/>
</g>
</g>
<path d="m134.47 767.44v33.808q0 2.4 2.4 2.4h7.7425q2.4 0 2.4-2.4v-33.808q0-2.4-2.4-2.4h-7.7425q-2.4 0-2.4 2.4z" clip-path="url(#a)" fill="#fff" stroke="#fff"/>
<g clip-path="url(#a)">
<g transform="translate(138.54 767.44) rotate(90) scale(.08 -.08)">
<use xlink:href="#l"/>
<use x="44.083984" xlink:href="#d"/>
<use x="105.607422" xlink:href="#g"/>
<use x="144.970703" xlink:href="#k"/>
<use x="242.382812" xlink:href="#j"/>
<use x="270.166016" xlink:href="#h"/>
<use x="333.544922" xlink:href="#f"/>
<use x="394.824219" xlink:href="#i"/>
</g>
</g>
<path d="m154.46 618.47v5.055q0 2.4 2.4 2.4h7.7425q2.4 0 2.4-2.4v-5.055q0-2.4-2.4-2.4h-7.7425q-2.4 0-2.4 2.4z" clip-path="url(#a)" fill="#fff" stroke="#fff"/>
<g clip-path="url(#a)">
<g transform="translate(158.52 618.47) rotate(90) scale(.08 -.08)">
<use xlink:href="#ae"/>
</g>
</g>
<path d="m154.46 767.44v33.808q0 2.4 2.4 2.4h7.7425q2.4 0 2.4-2.4v-33.808q0-2.4-2.4-2.4h-7.7425q-2.4 0-2.4 2.4z" clip-path="url(#a)" fill="#fff" stroke="#fff"/>
<g clip-path="url(#a)">
<g transform="translate(158.52 767.44) rotate(90) scale(.08 -.08)">
<use xlink:href="#l"/>
<use x="44.083984" xlink:href="#d"/>
<use x="105.607422" xlink:href="#g"/>
<use x="144.970703" xlink:href="#k"/>
<use x="242.382812" xlink:href="#j"/>
<use x="270.166016" xlink:href="#h"/>
<use x="333.544922" xlink:href="#f"/>
<use x="394.824219" xlink:href="#i"/>
</g>
</g>
<path d="m176.94 767.44v33.808q0 2.4 2.4 2.4h7.7425q2.4 0 2.4-2.4v-33.808q0-2.4-2.4-2.4h-7.7425q-2.4 0-2.4 2.4z" clip-path="url(#a)" fill="#fff" stroke="#fff"/>
<g clip-path="url(#a)">
<g transform="translate(181 767.44) rotate(90) scale(.08 -.08)">
<use xlink:href="#l"/>
<use x="44.083984" xlink:href="#d"/>
<use x="105.607422" xlink:href="#g"/>
<use x="144.970703" xlink:href="#k"/>
<use x="242.382812" xlink:href="#j"/>
<use x="270.166016" xlink:href="#h"/>
<use x="333.544922" xlink:href="#f"/>
<use x="394.824219" xlink:href="#i"/>
</g>
</g>
<path d="m491.65 767.44v33.808q0 2.4 2.4 2.4h7.7425q2.4 0 2.4-2.4v-33.808q0-2.4-2.4-2.4h-7.7425q-2.4 0-2.4 2.4z" clip-path="url(#a)" fill="#fff" stroke="#fff"/>
<g clip-path="url(#a)">
<g transform="translate(495.71 767.44) rotate(90) scale(.08 -.08)">
<use xlink:href="#l"/>
<use x="44.083984" xlink:href="#d"/>
<use x="105.607422" xlink:href="#g"/>
<use x="144.970703" xlink:href="#k"/>
<use x="242.382812" xlink:href="#j"/>
<use x="270.166016" xlink:href="#h"/>
<use x="333.544922" xlink:href="#f"/>
<use x="394.824219" xlink:href="#i"/>
</g>
</g>
<path d="m1008.7 767.44v33.808q0 2.4 2.4 2.4h7.7425q2.4 0 2.4-2.4v-33.808q0-2.4-2.4-2.4h-7.7425q-2.4 0-2.4 2.4z" clip-path="url(#a)" fill="#fff" stroke="#fff"/>
<g clip-path="url(#a)">
<g transform="translate(1012.7 767.44) rotate(90) scale(.08 -.08)">
<use xlink:href="#l"/>
<use x="44.083984" xlink:href="#d"/>
<use x="105.607422" xlink:href="#g"/>
<use x="144.970703" xlink:href="#k"/>
<use x="242.382812" xlink:href="#j"/>
<use x="270.166016" xlink:href="#h"/>
<use x="333.544922" xlink:href="#f"/>
<use x="394.824219" xlink:href="#i"/>
</g>
</g>
<path d="m1638.1 767.44v33.808q0 2.4 2.4 2.4h7.7425q2.4 0 2.4-2.4v-33.808q0-2.4-2.4-2.4h-7.7425q-2.4 0-2.4 2.4z" clip-path="url(#a)" fill="#fff" stroke="#fff"/>
<g clip-path="url(#a)">
<g transform="translate(1642.2 767.44) rotate(90) scale(.08 -.08)">
<use xlink:href="#l"/>
<use x="44.083984" xlink:href="#d"/>
<use x="105.607422" xlink:href="#g"/>
<use x="144.970703" xlink:href="#k"/>
<use x="242.382812" xlink:href="#j"/>
<use x="270.166016" xlink:href="#h"/>
<use x="333.544922" xlink:href="#f"/>
<use x="394.824219" xlink:href="#i"/>
</g>
</g>
<defs>
<path id="b" d="m0 8.6603c2.2967 0 4.4997-0.9125 6.1237-2.5365 1.624-1.624 2.5365-3.827 2.5365-6.1237s-0.9125-4.4997-2.5365-6.1237c-1.624-1.624-3.827-2.5365-6.1237-2.5365s-4.4997 0.9125-6.1237 2.5365c-1.624 1.624-2.5365 3.827-2.5365 6.1237s0.9125 4.4997 2.5365 6.1237c1.624 1.624 3.827 2.5365 6.1237 2.5365z"/>
</defs>
<g clip-path="url(#a)" fill="#ffffff" stroke="#ffffff">
<use x="78.30303" y="865.454545" xlink:href="#b"/>
<use x="85.796143" y="865.454545" xlink:href="#b"/>
<use x="95.786961" y="865.454545" xlink:href="#b"/>
<use x="108.275482" y="865.454545" xlink:href="#b"/>
<use x="123.261708" y="865.454545" xlink:href="#b"/>
<use x="140.745638" y="865.454545" xlink:href="#b"/>
<use x="160.727273" y="865.454545" xlink:href="#b"/>
<use x="183.206612" y="865.454545" xlink:href="#b"/>
<use x="208.183655" y="865.454545" xlink:href="#b"/>
<use x="235.658402" y="865.454545" xlink:href="#b"/>
<use x="265.630854" y="865.454545" xlink:href="#b"/>
<use x="298.10101" y="865.454545" xlink:href="#b"/>
<use x="333.068871" y="865.454545" xlink:href="#b"/>
<use x="370.534435" y="865.454545" xlink:href="#b"/>
<use x="410.497704" y="865.454545" xlink:href="#b"/>
<use x="452.958678" y="865.454545" xlink:href="#b"/>
<use x="497.917355" y="865.454545" xlink:href="#b"/>
<use x="545.373737" y="865.454545" xlink:href="#b"/>
<use x="595.327824" y="865.454545" xlink:href="#b"/>
<use x="647.779614" y="865.454545" xlink:href="#b"/>
<use x="702.729109" y="865.454545" xlink:href="#b"/>
<use x="760.176309" y="865.454545" xlink:href="#b"/>
<use x="820.121212" y="865.454545" xlink:href="#b"/>
<use x="882.56382" y="865.454545" xlink:href="#b"/>
<use x="947.504132" y="865.454545" xlink:href="#b"/>
<use x="1014.942149" y="865.454545" xlink:href="#b"/>
<use x="1084.87787" y="865.454545" xlink:href="#b"/>
<use x="1157.311295" y="865.454545" xlink:href="#b"/>
<use x="1232.242424" y="865.454545" xlink:href="#b"/>
<use x="1309.671258" y="865.454545" xlink:href="#b"/>
<use x="1389.597796" y="865.454545" xlink:href="#b"/>
<use x="1472.022039" y="865.454545" xlink:href="#b"/>
<use x="1556.943985" y="865.454545" xlink:href="#b"/>
<use x="1644.363636" y="865.454545" xlink:href="#b"/>
<use x="615.582356" y="41.212121" xlink:href="#b"/>
<use x="105.278237" y="207.530361" xlink:href="#b"/>
<use x="208.183655" y="703.237958" xlink:href="#b"/>
<use x="323.286195" y="373.428914" xlink:href="#b"/>
<use x="694.653199" y="207.530361" xlink:href="#b"/>
<use x="1084.87787" y="703.237958" xlink:href="#b"/>
<use x="1427.895929" y="373.428914" xlink:href="#b"/>
<use x="1194.77686" y="538.76476" xlink:href="#b"/>
<use x="1309.671258" y="703.237958" xlink:href="#b"/>
<use x="1389.597796" y="703.237958" xlink:href="#b"/>
<use x="1472.022039" y="703.237958" xlink:href="#b"/>
<use x="1556.943985" y="703.237958" xlink:href="#b"/>
<use x="1157.311295" y="703.237958" xlink:href="#b"/>
<use x="1232.242424" y="703.237958" xlink:href="#b"/>
<use x="545.373737" y="703.237958" xlink:href="#b"/>
<use x="595.327824" y="703.237958" xlink:href="#b"/>
<use x="688.991736" y="373.428914" xlink:href="#b"/>
<use x="760.176309" y="703.237958" xlink:href="#b"/>
<use x="883.396388" y="538.76476" xlink:href="#b"/>
<use x="820.121212" y="703.237958" xlink:href="#b"/>
<use x="882.56382" y="703.237958" xlink:href="#b"/>
<use x="947.504132" y="703.237958" xlink:href="#b"/>
<use x="675.254362" y="538.76476" xlink:href="#b"/>
<use x="702.729109" y="703.237958" xlink:href="#b"/>
<use x="647.779614" y="703.237958" xlink:href="#b"/>
<use x="250.644628" y="538.76476" xlink:href="#b"/>
<use x="298.10101" y="703.237958" xlink:href="#b"/>
<use x="333.068871" y="703.237958" xlink:href="#b"/>
<use x="411.330272" y="538.76476" xlink:href="#b"/>
<use x="370.534435" y="703.237958" xlink:href="#b"/>
<use x="410.497704" y="703.237958" xlink:href="#b"/>
<use x="452.958678" y="703.237958" xlink:href="#b"/>
<use x="235.658402" y="703.237958" xlink:href="#b"/>
<use x="265.630854" y="703.237958" xlink:href="#b"/>
<use x="78.30303" y="703.237958" xlink:href="#b"/>
<use x="85.796143" y="703.237958" xlink:href="#b"/>
<use x="95.786961" y="703.237958" xlink:href="#b"/>
<use x="115.768595" y="703.237958" xlink:href="#b"/>
<use x="150.736455" y="373.428914" xlink:href="#b"/>
<use x="140.745638" y="703.237958" xlink:href="#b"/>
<use x="160.727273" y="538.76476" xlink:href="#b"/>
<use x="160.727273" y="703.237958" xlink:href="#b"/>
<use x="183.206612" y="703.237958" xlink:href="#b"/>
<use x="497.917355" y="703.237958" xlink:href="#b"/>
<use x="1014.942149" y="703.237958" xlink:href="#b"/>
<use x="1644.363636" y="703.237958" xlink:href="#b"/>
</g>
<g clip-path="url(#a)">
<defs>
<path id="at" d="m9.8125 72.906h9.8594v-72.906h-9.8594z"/>
</defs>
<g transform="translate(76.828 868.21) scale(.1 -.1)">
<use xlink:href="#at"/>
</g>
</g>
<g clip-path="url(#a)">
<defs>
<path id="ab" d="m4.2031 54.688h8.9844l11.234-42.672 11.172 42.672h10.594l11.234-42.672 11.188 42.672h8.9844l-14.312-54.688h-10.594l-11.766 44.828-11.812-44.828h-10.609z"/>
<path id="s" d="m30.609 48.391q-7.2188 0-11.422-5.6406t-4.2031-15.453 4.1719-15.453q4.1875-5.6406 11.453-5.6406 7.1875 0 11.375 5.6562 4.2031 5.6719 4.2031 15.438 0 9.7188-4.2031 15.406-4.1875 5.6875-11.375 5.6875zm0 7.6094q11.719 0 18.406-7.625 6.7031-7.6094 6.7031-21.078 0-13.422-6.7031-21.078-6.6875-7.6406-18.406-7.6406-11.766 0-18.438 7.6406-6.6562 7.6562-6.6562 21.078 0 13.469 6.6562 21.078 6.6719 7.625 18.438 7.625z"/>
<path id="am" d="m8.5 21.578v33.109h8.9844v-32.766q0-7.7656 3.0156-11.656 3.0312-3.875 9.0938-3.875 7.2656 0 11.484 4.6406 4.2344 4.6406 4.2344 12.656v31h8.9844v-54.688h-8.9844v8.4062q-3.2656-4.9844-7.5938-7.4062-4.3125-2.4219-10.031-2.4219-9.4219 0-14.312 5.8594-4.875 5.8594-4.875 17.141z"/>
<path id="aj" d="m45.406 46.391v29.594h8.9844v-75.984h-8.9844v8.2031q-2.8281-4.875-7.1562-7.25-4.3125-2.375-10.375-2.375-9.9062 0-16.141 7.9062-6.2188 7.9219-6.2188 20.812t6.2188 20.797q6.2344 7.9062 16.141 7.9062 6.0625 0 10.375-2.375 4.3281-2.3594 7.1562-7.2344zm-30.609-19.094q0-9.9062 4.0781-15.547t11.203-5.6406 11.219 5.6406q4.1094 5.6406 4.1094 15.547t-4.1094 15.547q-4.0938 5.6406-11.219 5.6406t-11.203-5.6406-4.0781-15.547z"/>
</defs>
<g transform="translate(70.916 868.21) scale(.1 -.1)">
<use xlink:href="#ab"/>
<use x="81.787109" xlink:href="#s"/>
<use x="142.96875" xlink:href="#am"/>
<use x="206.347656" xlink:href="#i"/>
<use x="234.130859" xlink:href="#aj"/>
</g>
</g>
<g clip-path="url(#a)">
<defs>
<path id="q" d="m18.312 70.219v-15.531h18.5v-6.9844h-18.5v-29.688q0-6.6875 1.8281-8.5938t7.4531-1.9062h9.2188v-7.5156h-9.2188q-10.406 0-14.359 3.875-3.9531 3.8906-3.9531 14.141v29.688h-6.5938v6.9844h6.5938v15.531z"/>
</defs>
<g transform="translate(85.631 868.21) scale(.1 -.1)">
<use xlink:href="#g"/>
<use x="41.113281" xlink:href="#f"/>
<use x="102.392578" xlink:href="#q"/>
<use x="141.601562" xlink:href="#d"/>
</g>
</g>
<g clip-path="url(#a)">
<g transform="translate(97.474 868.21) scale(.1 -.1)">
<use xlink:href="#t"/>
<use x="50.269531" xlink:href="#g"/>
<use x="91.382812" xlink:href="#f"/>
<use x="152.662109" xlink:href="#h"/>
</g>
</g>
<g clip-path="url(#a)">
<defs>
<path id="ai" d="m18.109 8.2031v-29h-9.0312v75.484h9.0312v-8.2969q2.8438 4.875 7.1562 7.2344 4.3281 2.375 10.328 2.375 9.9688 0 16.188-7.9062 6.2344-7.9062 6.2344-20.797t-6.2344-20.812q-6.2188-7.9062-16.188-7.9062-6 0-10.328 2.375-4.3125 2.375-7.1562 7.25zm30.578 19.094q0 9.9062-4.0781 15.547t-11.203 5.6406q-7.1406 0-11.219-5.6406t-4.0781-15.547 4.0781-15.547 11.219-5.6406q7.125 0 11.203 5.6406t4.0781 15.547z"/>
<path id="x" d="m48.781 52.594v-8.4062q-3.8125 2.1094-7.6406 3.1562t-7.7344 1.0469q-8.75 0-13.594-5.5469-4.8281-5.5312-4.8281-15.547t4.8281-15.562q4.8438-5.5312 13.594-5.5312 3.9062 0 7.7344 1.0469t7.6406 3.1562v-8.3125q-3.7656-1.75-7.7969-2.625-4.0156-0.89062-8.5625-0.89062-12.359 0-19.641 7.7656-7.2656 7.7656-7.2656 20.953 0 13.375 7.3438 21.031 7.3594 7.6719 20.156 7.6719 4.1406 0 8.0938-0.85938 3.9531-0.84375 7.6719-2.5469z"/>
<path id="r" d="m44.281 53.078v-8.5q-3.7969 1.9531-7.9062 2.9219-4.0938 0.98438-8.5 0.98438-6.6875 0-10.031-2.0469t-3.3438-6.1562q0-3.125 2.3906-4.9062t9.625-3.3906l3.0781-0.6875q9.5625-2.0469 13.594-5.7812t4.0312-10.422q0-7.625-6.0312-12.078-6.0312-4.4375-16.578-4.4375-4.3906 0-9.1562 0.85938t-10.031 2.5625v9.2812q4.9844-2.5938 9.8125-3.8906 4.8281-1.2812 9.5781-1.2812 6.3438 0 9.75 2.1719 3.4219 2.1719 3.4219 6.125 0 3.6562-2.4688 5.6094-2.4531 1.9531-10.812 3.7656l-3.125 0.73438q-8.3438 1.75-12.062 5.3906-3.7031 3.6406-3.7031 9.9844 0 7.7188 5.4688 11.906 5.4688 4.2031 15.531 4.2031 4.9688 0 9.3594-0.73438 4.4062-0.71875 8.1094-2.1875z"/>
</defs>
<g transform="translate(114.73 868.21) scale(.1 -.1)">
<use xlink:href="#ai"/>
<use x="63.476562" xlink:href="#x"/>
<use x="118.457031" xlink:href="#r"/>
</g>
</g>
<g clip-path="url(#a)">
<g transform="translate(134.51 868.21) scale(.1 -.1)">
<use xlink:href="#f"/>
<use x="61.279297" xlink:href="#h"/>
</g>
</g>
<g clip-path="url(#a)">
<g transform="translate(157.31 868.21) scale(.1 -.1)">
<use xlink:href="#p"/>
</g>
</g>
<g clip-path="url(#a)">
<defs>
<path id="au" d="m46 62.703v-27.203h27.188v-8.2969h-27.188v-27.203h-8.2031v27.203h-27.203v8.2969h27.203v27.203z"/>
</defs>
<g transform="translate(179.02 868.21) scale(.1 -.1)">
<use xlink:href="#au"/>
</g>
</g>
<g clip-path="url(#a)">
<defs>
<path id="an" d="m48.688 27.297q0 9.9062-4.0781 15.547t-11.203 5.6406q-7.1406 0-11.219-5.6406t-4.0781-15.547 4.0781-15.547 11.219-5.6406q7.125 0 11.203 5.6406t4.0781 15.547zm-30.578 19.094q2.8438 4.875 7.1562 7.2344 4.3281 2.375 10.328 2.375 9.9688 0 16.188-7.9062 6.2344-7.9062 6.2344-20.797t-6.2344-20.812q-6.2188-7.9062-16.188-7.9062-6 0-10.328 2.375-4.3125 2.375-7.1562 7.25v-8.2031h-9.0312v75.984h9.0312z"/>
</defs>
<g transform="translate(187.27 868.21) scale(.1 -.1)">
<use xlink:href="#an"/>
<use x="63.476562" xlink:href="#d"/>
<use x="125" xlink:href="#x"/>
<use x="179.980469" xlink:href="#f"/>
<use x="241.259766" xlink:href="#am"/>
<use x="304.638672" xlink:href="#r"/>
<use x="356.738281" xlink:href="#d"/>
</g>
</g>
<g clip-path="url(#a)">
<defs>
<path id="w" d="m54.891 33.016v-33.016h-8.9844v32.719q0 7.7656-3.0312 11.609-3.0312 3.8594-9.0781 3.8594-7.2812 0-11.484-4.6406-4.2031-4.625-4.2031-12.641v-30.906h-9.0312v75.984h9.0312v-29.797q3.2344 4.9375 7.5938 7.375 4.375 2.4375 10.094 2.4375 9.4219 0 14.25-5.8281 4.8438-5.8281 4.8438-17.156z"/>
</defs>
<g transform="translate(227.45 868.21) scale(.1 -.1)">
<use xlink:href="#q"/>
<use x="39.208984" xlink:href="#w"/>
<use x="102.587891" xlink:href="#d"/>
</g>
</g>
<g clip-path="url(#a)">
<g transform="translate(253.19 868.21) scale(.1 -.1)">
<use xlink:href="#ai"/>
<use x="63.476562" xlink:href="#g"/>
<use x="104.589844" xlink:href="#j"/>
<use x="132.373047" xlink:href="#x"/>
<use x="187.353516" xlink:href="#d"/>
</g>
</g>
<g clip-path="url(#a)">
<g transform="translate(288.34 868.21) scale(.1 -.1)">
<use xlink:href="#ab"/>
<use x="81.787109" xlink:href="#f"/>
<use x="143.066406" xlink:href="#r"/>
</g>
</g>
<g clip-path="url(#a)">
<g transform="translate(319.4 868.21) scale(.1 -.1)">
<use xlink:href="#i"/>
<use x="27.783203" xlink:href="#s"/>
<use x="88.964844" xlink:href="#ab"/>
<use x="170.751953" xlink:href="#d"/>
<use x="232.275391" xlink:href="#g"/>
</g>
</g>
<g clip-path="url(#a)">
<g transform="translate(359.17 868.21) scale(.1 -.1)">
<use xlink:href="#q"/>
<use x="39.208984" xlink:href="#w"/>
<use x="102.587891" xlink:href="#f"/>
<use x="163.867188" xlink:href="#h"/>
</g>
</g>
<g clip-path="url(#a)">
<defs>
<path id="aw" d="m2.9844 54.688h9.5156l17.094-45.891 17.094 45.891h9.5156l-20.516-54.688h-12.203z"/>
<path id="al" d="m32.172-5.0781q-3.7969-9.7656-7.4219-12.734-3.6094-2.9844-9.6562-2.9844h-7.1875v7.5156h5.2812q3.7031 0 5.75 1.7656 2.0625 1.75 4.5469 8.2969l1.6094 4.0938-22.109 53.812h9.5156l17.094-42.766 17.094 42.766h9.5156z"/>
</defs>
<g transform="translate(387.07 868.21) scale(.1 -.1)">
<use xlink:href="#d"/>
<use x="61.523438" xlink:href="#aw"/>
<use x="120.703125" xlink:href="#d"/>
<use x="182.226562" xlink:href="#g"/>
<use x="223.339844" xlink:href="#al"/>
<use x="282.519531" xlink:href="#s"/>
<use x="343.701172" xlink:href="#h"/>
<use x="407.080078" xlink:href="#d"/>
</g>
</g>
<g clip-path="url(#a)">
<g transform="translate(442.81 868.21) scale(.1 -.1)">
<use xlink:href="#d"/>
<use x="61.523438" xlink:href="#i"/>
<use x="89.306641" xlink:href="#r"/>
<use x="141.40625" xlink:href="#d"/>
</g>
</g>
<g clip-path="url(#a)">
<defs>
<path id="aq" d="m11.719 12.406h10.297v-8.4062l-8-15.625h-6.2969l4 15.625z"/>
</defs>
<g transform="translate(496.33 868.21) scale(.1 -.1)">
<use xlink:href="#aq"/>
</g>
</g>
<g clip-path="url(#a)">
<g transform="translate(543.98 868.21) scale(.1 -.1)">
<use xlink:href="#j"/>
</g>
</g>
<g clip-path="url(#a)">
<defs>
<path id="ar" d="m45.406 27.984q0 9.7656-4.0312 15.125-4.0156 5.375-11.297 5.375-7.2188 0-11.25-5.375-4.0312-5.3594-4.0312-15.125 0-9.7188 4.0312-15.094t11.25-5.375q7.2812 0 11.297 5.375 4.0312 5.375 4.0312 15.094zm8.9844-21.203q0-13.953-6.2031-20.766-6.1875-6.8125-18.984-6.8125-4.7344 0-8.9375 0.70312t-8.1562 2.1719v8.7344q3.9531-2.1406 7.8125-3.1562 3.8594-1.0312 7.8594-1.0312 8.8438 0 13.234 4.6094t4.3906 13.938v4.4531q-2.7812-4.8438-7.125-7.2344t-10.406-2.3906q-10.047 0-16.203 7.6562-6.1562 7.6719-6.1562 20.328 0 12.688 6.1562 20.344 6.1562 7.6719 16.203 7.6719 6.0625 0 10.406-2.3906t7.125-7.2188v8.2969h8.9844z"/>
</defs>
<g transform="translate(587.13 868.21) scale(.1 -.1)">
<use xlink:href="#ar"/>
<use x="63.476562" xlink:href="#s"/>
<use x="124.658203" xlink:href="#q"/>
</g>
</g>
<g clip-path="url(#a)">
<g transform="translate(639.95 868.21) scale(.1 -.1)">
<use xlink:href="#k"/>
<use x="97.412109" xlink:href="#al"/>
</g>
</g>
<g clip-path="url(#a)">
<g transform="translate(678.62 868.21) scale(.1 -.1)">
<use xlink:href="#x"/>
<use x="54.980469" xlink:href="#s"/>
<use x="116.162109" xlink:href="#k"/>
<use x="213.574219" xlink:href="#ai"/>
<use x="277.050781" xlink:href="#am"/>
<use x="340.429688" xlink:href="#q"/>
<use x="379.638672" xlink:href="#d"/>
<use x="441.162109" xlink:href="#g"/>
</g>
</g>
<g clip-path="url(#a)">
<defs>
<path id="ax" d="m9.0781 75.984h9.0312v-44.875l26.812 23.578h11.469l-29-25.578 30.234-29.109h-11.719l-27.797 26.703v-26.703h-9.0312z"/>
</defs>
<g transform="translate(748.29 868.21) scale(.1 -.1)">
<use xlink:href="#an"/>
<use x="63.476562" xlink:href="#f"/>
<use x="124.755859" xlink:href="#x"/>
<use x="179.736328" xlink:href="#ax"/>
</g>
</g>
<g clip-path="url(#a)">
<g transform="translate(811.92 868.21) scale(.1 -.1)">
<use xlink:href="#q"/>
<use x="39.208984" xlink:href="#w"/>
<use x="102.587891" xlink:href="#d"/>
</g>
</g>
<g clip-path="url(#a)">
<defs>
<path id="av" d="m54.891 54.688-19.781-26.609 20.797-28.078h-10.594l-15.922 21.484-15.906-21.484h-10.609l21.25 28.609-19.438 26.078h10.594l14.5-19.484 14.5 19.484z"/>
</defs>
<g transform="translate(871.49 868.21) scale(.1 -.1)">
<use xlink:href="#h"/>
<use x="63.378906" xlink:href="#d"/>
<use x="123.152344" xlink:href="#av"/>
<use x="182.332031" xlink:href="#q"/>
</g>
</g>
<g clip-path="url(#a)">
<g transform="translate(938.31 868.21) scale(.1 -.1)">
<use xlink:href="#aj"/>
<use x="63.476562" xlink:href="#f"/>
<use x="124.755859" xlink:href="#al"/>
</g>
</g>
<g clip-path="url(#a)">
<g transform="translate(1013.4 868.21) scale(.1 -.1)">
<use xlink:href="#aq"/>
</g>
</g>
<g clip-path="url(#a)">
<g transform="translate(1075.5 868.21) scale(.1 -.1)">
<use xlink:href="#f"/>
<use x="61.279297" xlink:href="#h"/>
<use x="124.658203" xlink:href="#aj"/>
</g>
</g>
<g clip-path="url(#a)">
<g transform="translate(1149.1 868.21) scale(.1 -.1)">
<use xlink:href="#q"/>
<use x="39.208984" xlink:href="#w"/>
<use x="102.587891" xlink:href="#d"/>
</g>
</g>
<g clip-path="url(#a)">
<defs>
<path id="ay" d="m37.109 75.984v-7.4844h-8.5938q-4.8281 0-6.7188-1.9531-1.875-1.9531-1.875-7.0312v-4.8281h14.797v-6.9844h-14.797v-47.703h-9.0312v47.703h-8.5938v6.9844h8.5938v3.8125q0 9.125 4.25 13.297 4.25 4.1875 13.469 4.1875z"/>
</defs>
<g transform="translate(1193.1 868.21) scale(.1 -.1)">
<use xlink:href="#ai"/>
<use x="63.476562" xlink:href="#g"/>
<use x="102.339844" xlink:href="#s"/>
<use x="163.521484" xlink:href="#ay"/>
<use x="198.726562" xlink:href="#d"/>
<use x="260.25" xlink:href="#r"/>
<use x="312.349609" xlink:href="#r"/>
<use x="364.449219" xlink:href="#j"/>
<use x="392.232422" xlink:href="#s"/>
<use x="453.414062" xlink:href="#h"/>
<use x="516.792969" xlink:href="#f"/>
<use x="578.072266" xlink:href="#i"/>
<use x="605.855469" xlink:href="#j"/>
<use x="633.638672" xlink:href="#r"/>
<use x="685.738281" xlink:href="#k"/>
</g>
</g>
<g clip-path="url(#a)">
<g transform="translate(1303.4 868.21) scale(.1 -.1)">
<use xlink:href="#w"/>
<use x="63.378906" xlink:href="#d"/>
</g>
</g>
<g clip-path="url(#a)">
<g transform="translate(1370.4 868.21) scale(.1 -.1)">
<use xlink:href="#r"/>
<use x="52.099609" xlink:href="#w"/>
<use x="115.478516" xlink:href="#s"/>
<use x="176.660156" xlink:href="#ab"/>
<use x="258.447266" xlink:href="#d"/>
<use x="319.970703" xlink:href="#aj"/>
</g>
</g>
<g clip-path="url(#a)">
<g transform="translate(1462.3 868.21) scale(.1 -.1)">
<use xlink:href="#ab"/>
<use x="81.787109" xlink:href="#f"/>
<use x="143.066406" xlink:href="#r"/>
</g>
</g>
<g clip-path="url(#a)">
<g transform="translate(1543.7 868.21) scale(.1 -.1)">
<use xlink:href="#ar"/>
<use x="63.476562" xlink:href="#g"/>
<use x="102.339844" xlink:href="#d"/>
<use x="163.863281" xlink:href="#f"/>
<use x="225.142578" xlink:href="#q"/>
</g>
</g>
<g clip-path="url(#a)">
<defs>
<path id="e" d="m10.688 12.406h10.312v-12.406h-10.312z"/>
</defs>
<g transform="translate(1642.8 868.21) scale(.1 -.1)">
<use xlink:href="#e"/>
</g>
</g>
<g clip-path="url(#a)">
<defs>
<path id="c" d="m12.406 8.2969h16.109v55.625l-17.531-3.5156v8.9844l17.438 3.5156h9.8594v-64.609h16.109v-8.2969h-41.984z"/>
</defs>
<g transform="translate(607.63 43.971) scale(.1 -.1)">
<use xlink:href="#c"/>
<use x="63.623047" xlink:href="#e"/>
<use x="95.410156" xlink:href="#c"/>
</g>
</g>
<g clip-path="url(#a)">
<defs>
<path id="o" d="m19.188 8.2969h34.422v-8.2969h-46.281v8.2969q5.6094 5.8125 15.297 15.594 9.7031 9.7969 12.188 12.641 4.7344 5.3125 6.6094 9 1.8906 3.6875 1.8906 7.25 0 5.8125-4.0781 9.4688-4.0781 3.6719-10.625 3.6719-4.6406 0-9.7969-1.6094-5.1406-1.6094-11-4.8906v9.9688q5.9531 2.3906 11.125 3.6094 5.1875 1.2188 9.4844 1.2188 11.328 0 18.062-5.6719 6.7344-5.6562 6.7344-15.125 0-4.5-1.6875-8.5312-1.6719-4.0156-6.125-9.4844-1.2188-1.4219-7.7656-8.1875-6.5312-6.7656-18.453-18.922z"/>
</defs>
<g transform="translate(97.327 210.29) scale(.1 -.1)">
<use xlink:href="#c"/>
<use x="63.623047" xlink:href="#e"/>
<use x="95.410156" xlink:href="#o"/>
</g>
</g>
<g clip-path="url(#a)">
<defs>
<path id="n" d="m40.578 39.312q7.0781-1.5156 11.047-6.3125 3.9844-4.7812 3.9844-11.812 0-10.781-7.4219-16.703-7.4219-5.9062-21.094-5.9062-4.5781 0-9.4375 0.90625t-10.031 2.7188v9.5156q4.0938-2.3906 8.9688-3.6094 4.8906-1.2188 10.219-1.2188 9.2656 0 14.125 3.6562t4.8594 10.641q0 6.4531-4.5156 10.078-4.5156 3.6406-12.562 3.6406h-8.5v8.1094h8.8906q7.2656 0 11.125 2.9062t3.8594 8.375q0 5.6094-3.9844 8.6094-3.9688 3.0156-11.391 3.0156-4.0625 0-8.7031-0.89062-4.6406-0.875-10.203-2.7188v8.7812q5.625 1.5625 10.531 2.3438t9.25 0.78125q11.234 0 17.766-5.1094 6.5469-5.0938 6.5469-13.781 0-6.0625-3.4688-10.234t-9.8594-5.7812z"/>
</defs>
<g transform="translate(200.23 706) scale(.1 -.1)">
<use xlink:href="#c"/>
<use x="63.623047" xlink:href="#e"/>
<use x="95.410156" xlink:href="#n"/>
</g>
</g>
<g clip-path="url(#a)">
<defs>
<path id="m" d="m37.797 64.312-24.906-38.922h24.906zm-2.5938 8.5938h12.406v-47.516h10.406v-8.2031h-10.406v-17.188h-9.8125v17.188h-32.906v9.5156z"/>
</defs>
<g transform="translate(315.33 376.19) scale(.1 -.1)">
<use xlink:href="#c"/>
<use x="63.623047" xlink:href="#e"/>
<use x="95.410156" xlink:href="#m"/>
</g>
</g>
<g clip-path="url(#a)">
<defs>
<path id="v" d="m10.797 72.906h38.719v-8.3125h-29.688v-17.859q2.1406 0.73438 4.2812 1.0938 2.1562 0.35938 4.3125 0.35938 12.203 0 19.328-6.6875 7.1406-6.6875 7.1406-18.109 0-11.766-7.3281-18.297-7.3281-6.5156-20.656-6.5156-4.5938 0-9.3594 0.78125-4.75 0.78125-9.8281 2.3438v9.9219q4.3906-2.3906 9.0781-3.5625t9.9062-1.1719q8.4531 0 13.375 4.4375 4.9375 4.4375 4.9375 12.062 0 7.6094-4.9375 12.047-4.9219 4.4531-13.375 4.4531-3.9531 0-7.8906-0.875-3.9219-0.875-8.0156-2.7344z"/>
</defs>
<g transform="translate(686.7 210.29) scale(.1 -.1)">
<use xlink:href="#c"/>
<use x="63.623047" xlink:href="#e"/>
<use x="95.410156" xlink:href="#v"/>
</g>
</g>
<g clip-path="url(#a)">
<defs>
<path id="aa" d="m33.016 40.375q-6.6406 0-10.531-4.5469-3.875-4.5312-3.875-12.438 0-7.8594 3.875-12.438 3.8906-4.5625 10.531-4.5625t10.516 4.5625q3.875 4.5781 3.875 12.438 0 7.9062-3.875 12.438-3.875 4.5469-10.516 4.5469zm19.578 30.922v-8.9844q-3.7188 1.75-7.5 2.6719-3.7812 0.9375-7.5 0.9375-9.7656 0-14.922-6.5938-5.1406-6.5938-5.875-19.922 2.875 4.25 7.2188 6.5156 4.3594 2.2656 9.5781 2.2656 10.984 0 17.359-6.6719 6.375-6.6562 6.375-18.125 0-11.234-6.6406-18.031-6.6406-6.7812-17.672-6.7812-12.656 0-19.344 9.6875-6.6875 9.7031-6.6875 28.109 0 17.281 8.2031 27.562t22.016 10.281q3.7188 0 7.5-0.73438t7.8906-2.1875z"/>
</defs>
<g transform="translate(1076.9 706) scale(.1 -.1)">
<use xlink:href="#c"/>
<use x="63.623047" xlink:href="#e"/>
<use x="95.410156" xlink:href="#aa"/>
</g>
</g>
<g clip-path="url(#a)">
<defs>
<path id="z" d="m8.2031 72.906h46.875v-4.2031l-26.469-68.703h-10.297l24.906 64.594h-35.016z"/>
</defs>
<g transform="translate(1419.9 376.19) scale(.1 -.1)">
<use xlink:href="#c"/>
<use x="63.623047" xlink:href="#e"/>
<use x="95.410156" xlink:href="#z"/>
</g>
</g>
<g clip-path="url(#a)">
<g transform="translate(1183.6 541.52) scale(.1 -.1)">
<use xlink:href="#c"/>
<use x="63.623047" xlink:href="#e"/>
<use x="95.410156" xlink:href="#c"/>
<use x="159.033203" xlink:href="#o"/>
</g>
</g>
<g clip-path="url(#a)">
<g transform="translate(1298.5 706) scale(.1 -.1)">
<use xlink:href="#c"/>
<use x="63.623047" xlink:href="#e"/>
<use x="95.410156" xlink:href="#c"/>
<use x="159.033203" xlink:href="#n"/>
</g>
</g>
<g clip-path="url(#a)">
<g transform="translate(1378.5 706) scale(.1 -.1)">
<use xlink:href="#c"/>
<use x="63.623047" xlink:href="#e"/>
<use x="95.410156" xlink:href="#c"/>
<use x="159.033203" xlink:href="#m"/>
</g>
</g>
<g clip-path="url(#a)">
<g transform="translate(1460.9 706) scale(.1 -.1)">
<use xlink:href="#c"/>
<use x="63.623047" xlink:href="#e"/>
<use x="95.410156" xlink:href="#c"/>
<use x="159.033203" xlink:href="#v"/>
</g>
</g>
<g clip-path="url(#a)">
<g transform="translate(1545.8 706) scale(.1 -.1)">
<use xlink:href="#c"/>
<use x="63.623047" xlink:href="#e"/>
<use x="95.410156" xlink:href="#c"/>
<use x="159.033203" xlink:href="#aa"/>
</g>
</g>
<g clip-path="url(#a)">
<g transform="translate(1146.2 706) scale(.1 -.1)">
<use xlink:href="#c"/>
<use x="63.623047" xlink:href="#e"/>
<use x="95.410156" xlink:href="#c"/>
<use x="159.033203" xlink:href="#z"/>
</g>
</g>
<g clip-path="url(#a)">
<defs>
<path id="ag" d="m31.781 34.625q-7.0312 0-11.062-3.7656-4.0156-3.7656-4.0156-10.344 0-6.5938 4.0156-10.359 4.0312-3.7656 11.062-3.7656t11.078 3.7812q4.0625 3.7969 4.0625 10.344 0 6.5781-4.0312 10.344-4.0156 3.7656-11.109 3.7656zm-9.8594 4.1875q-6.3438 1.5625-9.8906 5.9062-3.5312 4.3594-3.5312 10.609 0 8.7344 6.2188 13.812 6.2344 5.0781 17.062 5.0781 10.891 0 17.094-5.0781t6.2031-13.812q0-6.25-3.5469-10.609-3.5312-4.3438-9.8281-5.9062 7.125-1.6562 11.094-6.5 3.9844-4.8281 3.9844-11.797 0-10.609-6.4688-16.281-6.4688-5.6562-18.531-5.6562-12.047 0-18.531 5.6562-6.4688 5.6719-6.4688 16.281 0 6.9688 4 11.797 4.0156 4.8438 11.141 6.5zm-3.6094 15.578q0-5.6562 3.5312-8.8281 3.5469-3.1719 9.9375-3.1719 6.3594 0 9.9375 3.1719 3.5938 3.1719 3.5938 8.8281 0 5.6719-3.5938 8.8438-3.5781 3.1719-9.9375 3.1719-6.3906 0-9.9375-3.1719-3.5312-3.1719-3.5312-8.8438z"/>
</defs>
<g transform="translate(1221.1 706) scale(.1 -.1)">
<use xlink:href="#c"/>
<use x="63.623047" xlink:href="#e"/>
<use x="95.410156" xlink:href="#c"/>
<use x="159.033203" xlink:href="#ag"/>
</g>
</g>
<g clip-path="url(#a)">
<defs>
<path id="af" d="m10.984 1.5156v8.9844q3.7188-1.7656 7.5156-2.6875 3.8125-0.92188 7.4844-0.92188 9.7656 0 14.906 6.5625 5.1562 6.5625 5.8906 19.953-2.8281-4.2031-7.1875-6.4531-4.3438-2.25-9.6094-2.25-10.938 0-17.312 6.6094-6.375 6.625-6.375 18.109 0 11.219 6.6406 18 6.6406 6.7969 17.672 6.7969 12.656 0 19.312-9.7031 6.6719-9.6875 6.6719-28.141 0-17.234-8.1875-27.516-8.1719-10.281-21.984-10.281-3.7188 0-7.5312 0.73438-3.7969 0.73438-7.9062 2.2031zm19.625 30.906q6.6406 0 10.516 4.5312 3.8906 4.5469 3.8906 12.469 0 7.8594-3.8906 12.422-3.875 4.5625-10.516 4.5625t-10.516-4.5625-3.875-12.422q0-7.9219 3.875-12.469 3.875-4.5312 10.516-4.5312z"/>
</defs>
<g transform="translate(534.24 706) scale(.1 -.1)">
<use xlink:href="#c"/>
<use x="63.623047" xlink:href="#e"/>
<use x="95.410156" xlink:href="#c"/>
<use x="159.033203" xlink:href="#af"/>
</g>
</g>
<g clip-path="url(#a)">
<defs>
<path id="ah" d="m31.781 66.406q-7.6094 0-11.453-7.5-3.8281-7.4844-3.8281-22.531 0-14.984 3.8281-22.484 3.8438-7.5 11.453-7.5 7.6719 0 11.5 7.5 3.8438 7.5 3.8438 22.484 0 15.047-3.8438 22.531-3.8281 7.5-11.5 7.5zm0 7.8125q12.266 0 18.734-9.7031 6.4688-9.6875 6.4688-28.141 0-18.406-6.4688-28.109-6.4688-9.6875-18.734-9.6875-12.25 0-18.719 9.6875-6.4688 9.7031-6.4688 28.109 0 18.453 6.4688 28.141 6.4688 9.7031 18.719 9.7031z"/>
</defs>
<g transform="translate(584.2 706) scale(.1 -.1)">
<use xlink:href="#c"/>
<use x="63.623047" xlink:href="#e"/>
<use x="95.410156" xlink:href="#o"/>
<use x="159.033203" xlink:href="#ah"/>
</g>
</g>
<g clip-path="url(#a)">
<g transform="translate(677.86 376.19) scale(.1 -.1)">
<use xlink:href="#c"/>
<use x="63.623047" xlink:href="#e"/>
<use x="95.410156" xlink:href="#o"/>
<use x="159.033203" xlink:href="#c"/>
</g>
</g>
<g clip-path="url(#a)">
<g transform="translate(749.04 706) scale(.1 -.1)">
<use xlink:href="#c"/>
<use x="63.623047" xlink:href="#e"/>
<use x="95.410156" xlink:href="#o"/>
<use x="159.033203" xlink:href="#o"/>
</g>
</g>
<g clip-path="url(#a)">
<g transform="translate(872.26 541.52) scale(.1 -.1)">
<use xlink:href="#c"/>
<use x="63.623047" xlink:href="#e"/>
<use x="95.410156" xlink:href="#o"/>
<use x="159.033203" xlink:href="#n"/>
</g>
</g>
<g clip-path="url(#a)">
<g transform="translate(808.99 706) scale(.1 -.1)">
<use xlink:href="#c"/>
<use x="63.623047" xlink:href="#e"/>
<use x="95.410156" xlink:href="#o"/>
<use x="159.033203" xlink:href="#m"/>
</g>
</g>
<g clip-path="url(#a)">
<g transform="translate(871.43 706) scale(.1 -.1)">
<use xlink:href="#c"/>
<use x="63.623047" xlink:href="#e"/>
<use x="95.410156" xlink:href="#o"/>
<use x="159.033203" xlink:href="#v"/>
</g>
</g>
<g clip-path="url(#a)">
<g transform="translate(936.37 706) scale(.1 -.1)">
<use xlink:href="#c"/>
<use x="63.623047" xlink:href="#e"/>
<use x="95.410156" xlink:href="#o"/>
<use x="159.033203" xlink:href="#aa"/>
</g>
</g>
<g clip-path="url(#a)">
<g transform="translate(664.12 541.52) scale(.1 -.1)">
<use xlink:href="#c"/>
<use x="63.623047" xlink:href="#e"/>
<use x="95.410156" xlink:href="#o"/>
<use x="159.033203" xlink:href="#z"/>
</g>
</g>
<g clip-path="url(#a)">
<g transform="translate(691.6 706) scale(.1 -.1)">
<use xlink:href="#c"/>
<use x="63.623047" xlink:href="#e"/>
<use x="95.410156" xlink:href="#o"/>
<use x="159.033203" xlink:href="#ag"/>
</g>
</g>
<g clip-path="url(#a)">
<g transform="translate(636.65 706) scale(.1 -.1)">
<use xlink:href="#c"/>
<use x="63.623047" xlink:href="#e"/>
<use x="95.410156" xlink:href="#o"/>
<use x="159.033203" xlink:href="#af"/>
</g>
</g>
<g clip-path="url(#a)">
<g transform="translate(239.51 541.52) scale(.1 -.1)">
<use xlink:href="#c"/>
<use x="63.623047" xlink:href="#e"/>
<use x="95.410156" xlink:href="#n"/>
<use x="159.033203" xlink:href="#ah"/>
</g>
</g>
<g clip-path="url(#a)">
<g transform="translate(286.97 706) scale(.1 -.1)">
<use xlink:href="#c"/>
<use x="63.623047" xlink:href="#e"/>
<use x="95.410156" xlink:href="#n"/>
<use x="159.033203" xlink:href="#c"/>
</g>
</g>
<g clip-path="url(#a)">
<g transform="translate(321.94 706) scale(.1 -.1)">
<use xlink:href="#c"/>
<use x="63.623047" xlink:href="#e"/>
<use x="95.410156" xlink:href="#n"/>
<use x="159.033203" xlink:href="#o"/>
</g>
</g>
<g clip-path="url(#a)">
<g transform="translate(400.2 541.52) scale(.1 -.1)">
<use xlink:href="#c"/>
<use x="63.623047" xlink:href="#e"/>
<use x="95.410156" xlink:href="#n"/>
<use x="159.033203" xlink:href="#n"/>
</g>
</g>
<g clip-path="url(#a)">
<g transform="translate(359.4 706) scale(.1 -.1)">
<use xlink:href="#c"/>
<use x="63.623047" xlink:href="#e"/>
<use x="95.410156" xlink:href="#n"/>
<use x="159.033203" xlink:href="#m"/>
</g>
</g>
<g clip-path="url(#a)">
<g transform="translate(399.36 706) scale(.1 -.1)">
<use xlink:href="#c"/>
<use x="63.623047" xlink:href="#e"/>
<use x="95.410156" xlink:href="#n"/>
<use x="159.033203" xlink:href="#v"/>
</g>
</g>
<g clip-path="url(#a)">
<g transform="translate(441.83 706) scale(.1 -.1)">
<use xlink:href="#c"/>
<use x="63.623047" xlink:href="#e"/>
<use x="95.410156" xlink:href="#n"/>
<use x="159.033203" xlink:href="#aa"/>
</g>
</g>
<g clip-path="url(#a)">
<g transform="translate(224.53 706) scale(.1 -.1)">
<use xlink:href="#c"/>
<use x="63.623047" xlink:href="#e"/>
<use x="95.410156" xlink:href="#n"/>
<use x="159.033203" xlink:href="#z"/>
</g>
</g>
<g clip-path="url(#a)">
<g transform="translate(254.5 706) scale(.1 -.1)">
<use xlink:href="#c"/>
<use x="63.623047" xlink:href="#e"/>
<use x="95.410156" xlink:href="#n"/>
<use x="159.033203" xlink:href="#ag"/>
</g>
</g>
<g clip-path="url(#a)">
<g transform="translate(67.17 706) scale(.1 -.1)">
<use xlink:href="#c"/>
<use x="63.623047" xlink:href="#e"/>
<use x="95.410156" xlink:href="#n"/>
<use x="159.033203" xlink:href="#af"/>
</g>
</g>
<g clip-path="url(#a)">
<g transform="translate(74.663 706) scale(.1 -.1)">
<use xlink:href="#c"/>
<use x="63.623047" xlink:href="#e"/>
<use x="95.410156" xlink:href="#m"/>
<use x="159.033203" xlink:href="#ah"/>
</g>
</g>
<g clip-path="url(#a)">
<g transform="translate(84.654 706) scale(.1 -.1)">
<use xlink:href="#c"/>
<use x="63.623047" xlink:href="#e"/>
<use x="95.410156" xlink:href="#m"/>
<use x="159.033203" xlink:href="#c"/>
</g>
</g>
<g clip-path="url(#a)">
<g transform="translate(104.64 706) scale(.1 -.1)">
<use xlink:href="#c"/>
<use x="63.623047" xlink:href="#e"/>
<use x="95.410156" xlink:href="#m"/>
<use x="159.033203" xlink:href="#o"/>
</g>
</g>
<g clip-path="url(#a)">
<g transform="translate(139.6 376.19) scale(.1 -.1)">
<use xlink:href="#c"/>
<use x="63.623047" xlink:href="#e"/>
<use x="95.410156" xlink:href="#m"/>
<use x="159.033203" xlink:href="#n"/>
</g>
</g>
<g clip-path="url(#a)">
<g transform="translate(129.61 706) scale(.1 -.1)">
<use xlink:href="#c"/>
<use x="63.623047" xlink:href="#e"/>
<use x="95.410156" xlink:href="#m"/>
<use x="159.033203" xlink:href="#m"/>
</g>
</g>
<g clip-path="url(#a)">
<g transform="translate(149.59 541.52) scale(.1 -.1)">
<use xlink:href="#c"/>
<use x="63.623047" xlink:href="#e"/>
<use x="95.410156" xlink:href="#m"/>
<use x="159.033203" xlink:href="#v"/>
</g>
</g>
<g clip-path="url(#a)">
<g transform="translate(149.59 706) scale(.1 -.1)">
<use xlink:href="#c"/>
<use x="63.623047" xlink:href="#e"/>
<use x="95.410156" xlink:href="#m"/>
<use x="159.033203" xlink:href="#aa"/>
</g>
</g>
<g clip-path="url(#a)">
<g transform="translate(172.07 706) scale(.1 -.1)">
<use xlink:href="#c"/>
<use x="63.623047" xlink:href="#e"/>
<use x="95.410156" xlink:href="#m"/>
<use x="159.033203" xlink:href="#z"/>
</g>
</g>
<g clip-path="url(#a)">
<g transform="translate(486.78 706) scale(.1 -.1)">
<use xlink:href="#c"/>
<use x="63.623047" xlink:href="#e"/>
<use x="95.410156" xlink:href="#m"/>
<use x="159.033203" xlink:href="#ag"/>
</g>
</g>
<g clip-path="url(#a)">
<g transform="translate(1003.8 706) scale(.1 -.1)">
<use xlink:href="#c"/>
<use x="63.623047" xlink:href="#e"/>
<use x="95.410156" xlink:href="#m"/>
<use x="159.033203" xlink:href="#af"/>
</g>
</g>
<g clip-path="url(#a)">
<g transform="translate(1633.2 706) scale(.1 -.1)">
<use xlink:href="#c"/>
<use x="63.623047" xlink:href="#e"/>
<use x="95.410156" xlink:href="#v"/>
<use x="159.033203" xlink:href="#ah"/>
</g>
</g>
<defs>
<clipPath id="a">
<rect width="1722.7" height="906.67"/>
</clipPath>
</defs>
</svg>
