<?xml version="1.0" encoding="UTF-8"?>
<!DOCTYPE svg  PUBLIC '-//W3C//DTD SVG 1.1//EN'  'http://www.w3.org/Graphics/SVG/1.1/DTD/svg11.dtd'>
<svg width="1621.3pt" height="853.33pt" version="1.1" viewBox="0 0 1621.3 853.33" xmlns="http://www.w3.org/2000/svg" xmlns:xlink="http://www.w3.org/1999/xlink">
<metadata>
<rdf:RDF xmlns:cc="http://creativecommons.org/ns#" xmlns:dc="http://purl.org/dc/elements/1.1/" xmlns:rdf="http://www.w3.org/1999/02/22-rdf-syntax-ns#">
<cc:Work>
<dc:type rdf:resource="http://purl.org/dc/dcmitype/StillImage"/>
<dc:date>2021-02-25T11:38:23.093671</dc:date>
<dc:format>image/svg+xml</dc:format>
<dc:creator>
<cc:Agent>
<dc:title>Matplotlib v3.3.3, https://matplotlib.org/</dc:title>
</cc:Agent>
</dc:creator>
</cc:Work>
</rdf:RDF>
</metadata>
<defs>
<style type="text/css">*{stroke-linecap:butt;stroke-linejoin:round;}</style>
</defs>
<path d="m0 853.33h1621.3v-853.33h-1621.3z" fill="#fff"/>
<g fill="none" stroke="#000">
<path d="m411.74 38.788-319.99 195.61" clip-path="url(#a)"/>
<path d="m411.74 38.788-223.14 195.61" clip-path="url(#a)"/>
<path d="m411.74 38.788-68.612 584.49" clip-path="url(#a)"/>
<path d="m411.74 38.788 109.69 195.61" clip-path="url(#a)"/>
<path d="m411.74 38.788 633.93 195.61" clip-path="url(#a)"/>
<path d="m411.74 38.788-290.5 584.49" clip-path="url(#a)"/>
<path d="m411.74 38.788-105.59 584.49" clip-path="url(#a)"/>
<path d="m411.74 38.788 264.21 584.49" clip-path="url(#a)"/>
<path d="m91.747 234.4-14.088 194.95" clip-path="url(#a)"/>
<path d="m91.747 234.4 0.44024 388.88" clip-path="url(#a)"/>
<path d="m91.747 234.4 13.648 388.88" clip-path="url(#a)"/>
<path d="m188.6 234.4-48.867 388.88" clip-path="url(#a)"/>
<path d="m188.6 234.4-27.735 388.88" clip-path="url(#a)"/>
<path d="m188.6 234.4 9.2451 194.95" clip-path="url(#a)"/>
<path d="m188.6 234.4 67.357 388.88" clip-path="url(#a)"/>
<path d="m343.13 623.28v191.27" clip-path="url(#a)"/>
<path d="m521.43 234.4-117.55 388.88" clip-path="url(#a)"/>
<path d="m521.43 234.4-27.735 194.95" clip-path="url(#a)"/>
<path d="m521.43 234.4 46.226 388.88" clip-path="url(#a)"/>
<path d="m521.43 234.4 99.055 388.88" clip-path="url(#a)"/>
<path d="m1045.7 234.4-249.97 194.95" clip-path="url(#a)"/>
<path d="m1045.7 234.4-121.42 388.88" clip-path="url(#a)"/>
<path d="m1045.7 234.4 19.899 194.95" clip-path="url(#a)"/>
<path d="m1045.7 234.4 18.578 388.88" clip-path="url(#a)"/>
<path d="m1045.7 234.4 332.91 194.95" clip-path="url(#a)"/>
<path d="m795.7 429.35-61.634 193.93" clip-path="url(#a)"/>
<path d="m795.7 429.35-0.88049 193.93" clip-path="url(#a)"/>
<path d="m795.7 429.35 62.515 193.93" clip-path="url(#a)"/>
<path d="m924.25 623.28v191.27" clip-path="url(#a)"/>
<path d="m1065.6 429.35-72.64 193.93" clip-path="url(#a)"/>
<path d="m1065.6 429.35 72.64 193.93" clip-path="url(#a)"/>
<path d="m1064.2 623.28v191.27" clip-path="url(#a)"/>
<path d="m1378.6 429.35-163.77 193.93" clip-path="url(#a)"/>
<path d="m1378.6 429.35-84.527 193.93" clip-path="url(#a)"/>
<path d="m1378.6 429.35-2.6415 193.93" clip-path="url(#a)"/>
<path d="m1378.6 429.35 81.886 193.93" clip-path="url(#a)"/>
<path d="m1378.6 429.35 169.05 193.93" clip-path="url(#a)"/>
<path d="m1214.8 623.28v191.27" clip-path="url(#a)"/>
<path d="m1294.1 623.28v191.27" clip-path="url(#a)"/>
<path d="m1375.9 623.28v191.27" clip-path="url(#a)"/>
<path d="m1460.5 623.28v191.27" clip-path="url(#a)"/>
<path d="m992.93 623.28v191.27" clip-path="url(#a)"/>
<path d="m1138.2 623.28v191.27" clip-path="url(#a)"/>
<path d="m734.06 623.28v191.27" clip-path="url(#a)"/>
<path d="m794.82 623.28v191.27" clip-path="url(#a)"/>
<path d="m858.21 623.28v191.27" clip-path="url(#a)"/>
<path d="m403.88 623.28-21.132 191.27" clip-path="url(#a)"/>
<path d="m403.88 623.28 21.132 191.27" clip-path="url(#a)"/>
<path d="m493.69 429.35-23.773 193.93" clip-path="url(#a)"/>
<path d="m493.69 429.35 23.773 193.93" clip-path="url(#a)"/>
<path d="m567.65 623.28v191.27" clip-path="url(#a)"/>
<path d="m620.48 623.28v191.27" clip-path="url(#a)"/>
<path d="m469.92 623.28v191.27" clip-path="url(#a)"/>
<path d="m517.46 623.28v191.27" clip-path="url(#a)"/>
<path d="m139.73 623.28v191.27" clip-path="url(#a)"/>
<path d="m160.87 623.28v191.27" clip-path="url(#a)"/>
<path d="m197.85 429.35-13.207 193.93" clip-path="url(#a)"/>
<path d="m197.85 429.35 13.207 193.93" clip-path="url(#a)"/>
<path d="m255.96 623.28-15.849 191.27" clip-path="url(#a)"/>
<path d="m255.96 623.28 15.849 191.27" clip-path="url(#a)"/>
<path d="m184.64 623.28v191.27" clip-path="url(#a)"/>
<path d="m211.05 623.28v191.27" clip-path="url(#a)"/>
<path d="m77.659 429.35-3.9622 193.93" clip-path="url(#a)"/>
<path d="m77.659 429.35 3.9622 193.93" clip-path="url(#a)"/>
<path d="m92.187 623.28v191.27" clip-path="url(#a)"/>
<path d="m105.39 623.28v191.27" clip-path="url(#a)"/>
<path d="m73.697 623.28v191.27" clip-path="url(#a)"/>
<path d="m81.621 623.28v191.27" clip-path="url(#a)"/>
<path d="m121.24 623.28v191.27" clip-path="url(#a)"/>
<path d="m306.15 623.28v191.27" clip-path="url(#a)"/>
<path d="m675.95 623.28v191.27" clip-path="url(#a)"/>
<path d="m1547.6 623.28v191.27" clip-path="url(#a)"/>
</g>
<path d="m252.45 143.51 5.1331-3.1379q2.0477-1.2518 0.79594-3.2995l-4.0382-6.606q-1.2518-2.0477-3.2995-0.79594l-5.1331 3.1379q-2.0477 1.2518-0.79594 3.2995l4.0382 6.606q1.2518 2.0477 3.2995 0.79594z" clip-path="url(#a)" fill="#fff" stroke="#fff"/>
<g clip-path="url(#a)">
<g transform="translate(250.33 140.05) rotate(-31.437) scale(.08 -.08)">
<defs>
<path id="aa" d="m9.8125 72.906h9.8594v-29.891h35.844v29.891h9.8594v-72.906h-9.8594v34.719h-35.844v-34.719h-9.8594z"/>
</defs>
<use xlink:href="#aa"/>
</g>
</g>
<path d="m302.04 143.29 4.524-3.9659q1.8047-1.5821 0.22264-3.3868l-5.1039-5.8221q-1.5821-1.8047-3.3868-0.22264l-4.524 3.9659q-1.8047 1.5821-0.22264 3.3868l5.1039 5.8221q1.5821 1.8047 3.3868 0.22264z" clip-path="url(#a)" fill="#fff" stroke="#fff"/>
<g clip-path="url(#a)">
<g transform="translate(299.36 140.24) rotate(-41.239) scale(.08 -.08)">
<use xlink:href="#aa"/>
</g>
</g>
<path d="m383.4 333.98 0.51969-4.4271q0.27981-2.3836-2.1038-2.6634l-7.6897-0.90268q-2.3836-0.27981-2.6634 2.1038l-0.51969 4.4271q-0.27981 2.3836 2.1038 2.6634l7.6897 0.90268q2.3836 0.27981 2.6634-2.1038z" clip-path="url(#a)" fill="#fff" stroke="#fff"/>
<g clip-path="url(#a)">
<g transform="translate(379.37 333.5) rotate(-83.305) scale(.08 -.08)">
<defs>
<path id="ar" d="m9.8125 72.906h9.8594v-64.609h35.5v-8.2969h-45.359z"/>
</defs>
<use xlink:href="#ar"/>
</g>
</g>
<path d="m459.64 137.04 2.9425 5.2476q1.1738 2.0934 3.2672 0.91952l6.7532-3.7868q2.0934-1.1738 0.91952-3.2672l-2.9425-5.2476q-1.1738-2.0934-3.2672-0.91952l-6.7532 3.7868q-2.0934 1.1738-0.91952 3.2672z" clip-path="url(#a)" fill="#fff" stroke="#fff"/>
<g clip-path="url(#a)">
<g transform="translate(463.19 135.05) rotate(60.719) scale(.08 -.08)">
<use xlink:href="#aa"/>
</g>
</g>
<path d="m723.98 141.7 5.7488 1.7739q2.2933 0.70764 3.0009-1.5857l2.2829-7.3983q0.70764-2.2933-1.5857-3.0009l-5.7488-1.7739q-2.2933-0.70764-3.0009 1.5857l-2.2829 7.3983q-0.70764 2.2933 1.5857 3.0009z" clip-path="url(#a)" fill="#fff" stroke="#fff"/>
<g clip-path="url(#a)">
<g transform="translate(725.18 137.82) rotate(17.149) scale(.08 -.08)">
<use xlink:href="#aa"/>
</g>
</g>
<path d="m270.8 336.44 2.6059-5.2431q1.0682-2.1492-1.081-3.2174l-6.9334-3.4459q-2.1492-1.0682-3.2174 1.081l-2.6059 5.2431q-1.0682 2.1492 1.081 3.2174l6.9334 3.4459q2.1492 1.0682 3.2174-1.081z" clip-path="url(#a)" fill="#fff" stroke="#fff"/>
<g clip-path="url(#a)">
<g transform="translate(267.17 334.64) rotate(-63.572) scale(.08 -.08)">
<defs>
<path id="z" d="m8.6875 72.906h9.9219v-44.297q0-11.719 4.2344-16.875 4.25-5.1406 13.781-5.1406 9.4688 0 13.719 5.1406 4.25 5.1562 4.25 16.875v44.297h9.9062v-45.516q0-14.25-7.0625-21.531-7.0469-7.2812-20.812-7.2812-13.828 0-20.891 7.2812-7.0469 7.2812-7.0469 21.531z"/>
</defs>
<use xlink:href="#z"/>
</g>
</g>
<path d="m364.59 335.03 1.0409-5.7617q0.42667-2.3618-1.9351-2.7884l-7.6192-1.3765q-2.3618-0.42667-2.7884 1.9351l-1.0409 5.7617q-0.42667 2.3618 1.9351 2.7884l7.6192 1.3765q2.3618 0.42667 2.7884-1.9351z" clip-path="url(#a)" fill="#fff" stroke="#fff"/>
<g clip-path="url(#a)">
<g transform="translate(360.59 334.31) rotate(-79.759) scale(.08 -.08)">
<use xlink:href="#z"/>
</g>
</g>
<path d="m536.92 330.95 2.4117 5.3352q0.98859 2.1869 3.1755 1.1984l7.0552-3.1892q2.1869-0.98859 1.1984-3.1755l-2.4117-5.3352q-0.98859-2.1869-3.1755-1.1984l-7.0552 3.1892q-2.1869 0.98859-1.1984 3.1755z" clip-path="url(#a)" fill="#fff" stroke="#fff"/>
<g clip-path="url(#a)">
<g transform="translate(540.63 329.27) rotate(65.675) scale(.08 -.08)">
<use xlink:href="#z"/>
</g>
</g>
<path d="m90.761 335.05 0.39444-5.4583q0.17298-2.3938-2.2208-2.5667l-7.7224-0.55806q-2.3938-0.17298-2.5667 2.2208l-0.39444 5.4583q-0.17298 2.3938 2.2208 2.5667l7.7224 0.55806q2.3938 0.17298 2.5667-2.2208z" clip-path="url(#a)" fill="#fff" stroke="#fff"/>
<g clip-path="url(#a)">
<g transform="translate(86.708 334.76) rotate(-85.867) scale(.08 -.08)">
<defs>
<path id="v" d="m34.188 63.188-13.391-36.281h26.812zm-5.5781 9.7188h11.188l27.781-72.906h-10.25l-6.6406 18.703h-32.859l-6.6406-18.703h-10.406z"/>
</defs>
<use xlink:href="#v"/>
</g>
</g>
<path d="m85.693 426.54 0.005209 4.6012q0.002717 2.4 2.4027 2.3973l7.7425-0.008765q2.4-0.002717 2.3973-2.4027l-0.005209-4.6012q-0.002717-2.4-2.4027-2.3973l-7.7425 0.008765q-2.4 0.002717-2.3973 2.4027z" clip-path="url(#a)" fill="#fff" stroke="#fff"/>
<g clip-path="url(#a)">
<g transform="translate(89.757 426.54) rotate(89.935) scale(.08 -.08)">
<defs>
<path id="q" d="m9.8125 72.906h41.891v-8.3125h-32.031v-21.484h28.906v-8.2969h-28.906v-34.812h-9.8594z"/>
</defs>
<use xlink:href="#q"/>
</g>
</g>
<path d="m92.214 426.52 0.17813 5.0756q0.084176 2.3985 2.4827 2.3143l7.7377-0.27155q2.3985-0.084176 2.3143-2.4827l-0.17813-5.0756q-0.084176-2.3985-2.4827-2.3143l-7.7377 0.27155q-2.3985 0.084176-2.3143 2.4827z" clip-path="url(#a)" fill="#fff" stroke="#fff"/>
<g clip-path="url(#a)">
<g transform="translate(96.276 426.38) rotate(87.99) scale(.08 -.08)">
<defs>
<path id="al" d="m53.516 70.516v-9.625q-5.6094 2.6875-10.594 4-4.9844 1.3281-9.625 1.3281-8.0469 0-12.422-3.125t-4.375-8.8906q0-4.8438 2.9062-7.3125 2.9062-2.4531 11.016-3.9688l5.9531-1.2188q11.031-2.1094 16.281-7.4062t5.25-14.172q0-10.609-7.1094-16.078-7.0938-5.4688-20.812-5.4688-5.1719 0-11.016 1.1719-5.8281 1.1719-12.078 3.4688v10.156q6-3.3594 11.766-5.0781 5.7656-1.7031 11.328-1.7031 8.4375 0 13.031 3.3125 4.5938 3.3281 4.5938 9.4844 0 5.3594-3.2969 8.3906t-10.812 4.5469l-6.0156 1.1719q-11.031 2.1875-15.969 6.875-4.9219 4.6875-4.9219 13.047 0 9.6719 6.8125 15.234t18.766 5.5625q5.1406 0 10.453-0.9375 5.3281-0.92188 10.891-2.7656z"/>
</defs>
<use xlink:href="#al"/>
</g>
</g>
<path d="m170.01 432.68 0.76804-6.1119q0.29924-2.3813-2.082-2.6805l-7.6821-0.96535q-2.3813-0.29924-2.6805 2.082l-0.76804 6.1119q-0.29924 2.3813 2.082 2.6805l7.6821 0.96535q2.3813 0.29924 2.6805-2.082z" clip-path="url(#a)" fill="#fff" stroke="#fff"/>
<g clip-path="url(#a)">
<g transform="translate(165.97 432.17) rotate(-82.838) scale(.08 -.08)">
<defs>
<path id="af" d="m19.672 64.797v-56.688h11.922q15.094 0 22.094 6.8281 7 6.8438 7 21.594 0 14.641-7 21.453t-22.094 6.8125zm-9.8594 8.1094h20.266q21.188 0 31.094-8.8125 9.9219-8.8125 9.9219-27.562 0-18.859-9.9688-27.703-9.9531-8.8281-31.047-8.8281h-20.266z"/>
</defs>
<use xlink:href="#af"/>
</g>
</g>
<path d="m180.82 431.69 0.34317-4.8115q0.17074-2.3939-2.2232-2.5647l-7.7229-0.55081q-2.3939-0.17074-2.5647 2.2232l-0.34317 4.8115q-0.17074 2.3939 2.2232 2.5647l7.7229 0.55081q2.3939 0.17074 2.5647-2.2232z" clip-path="url(#a)" fill="#fff" stroke="#fff"/>
<g clip-path="url(#a)">
<g transform="translate(176.76 431.4) rotate(-85.92) scale(.08 -.08)">
<defs>
<path id="an" d="m19.672 64.797v-27.391h12.406q6.8906 0 10.641 3.5625 3.7656 3.5625 3.7656 10.156 0 6.5469-3.7656 10.109-3.75 3.5625-10.641 3.5625zm-9.8594 8.1094h22.266q12.266 0 18.531-5.5469 6.2812-5.5469 6.2812-16.234 0-10.797-6.2812-16.312-6.2656-5.5156-18.531-5.5156h-12.406v-29.297h-9.8594z"/>
</defs>
<use xlink:href="#an"/>
</g>
</g>
<path d="m186.83 329.44 0.25924 5.4664q0.11369 2.3973 2.511 2.2836l7.7338-0.36677q2.3973-0.11369 2.2836-2.511l-0.25924-5.4664q-0.11369-2.3973-2.511-2.2836l-7.7338 0.36677q-2.3973 0.11369-2.2836 2.511z" clip-path="url(#a)" fill="#fff" stroke="#fff"/>
<g clip-path="url(#a)">
<g transform="translate(190.89 329.24) rotate(87.285) scale(.08 -.08)">
<use xlink:href="#v"/>
</g>
</g>
<path d="m215.57 426.87 1.0513 6.0696q0.4096 2.3648 2.7744 1.9552l7.6289-1.3214q2.3648-0.4096 1.9552-2.7744l-1.0513-6.0696q-0.4096-2.3648-2.7744-1.9552l-7.6289 1.3214q-2.3648 0.4096-1.9552 2.7744z" clip-path="url(#a)" fill="#fff" stroke="#fff"/>
<g clip-path="url(#a)">
<g transform="translate(219.58 426.18) rotate(80.173) scale(.08 -.08)">
<use xlink:href="#af"/>
</g>
</g>
<path d="m336.86 702.01v33.808q0 2.4 2.4 2.4h7.7425q2.4 0 2.4-2.4v-33.808q0-2.4-2.4-2.4h-7.7425q-2.4 0-2.4 2.4z" clip-path="url(#a)" fill="#fff" stroke="#fff"/>
<g clip-path="url(#a)">
<g transform="translate(340.92 702.01) rotate(90) scale(.08 -.08)">
<defs>
<path id="k" d="m-0.29688 72.906h61.672v-8.3125h-25.875v-64.594h-9.9062v64.594h-25.891z"/>
<path id="d" d="m56.203 29.594v-4.3906h-41.312q0.59375-9.2812 5.5938-14.141t13.938-4.8594q5.1719 0 10.031 1.2656t9.6562 3.8125v-8.5q-4.8438-2.0469-9.9219-3.125t-10.297-1.0781q-13.094 0-20.734 7.6094-7.6406 7.625-7.6406 20.625 0 13.422 7.25 21.297 7.25 7.8906 19.562 7.8906 11.031 0 17.453-7.1094 6.4219-7.0938 6.4219-19.297zm-8.9844 2.6406q-0.09375 7.3594-4.125 11.75-4.0312 4.4062-10.672 4.4062-7.5156 0-12.031-4.25t-5.2031-11.969z"/>
<path id="g" d="m41.109 46.297q-1.5156 0.875-3.2969 1.2812-1.7812 0.42188-3.9219 0.42188-7.625 0-11.703-4.9531t-4.0781-14.234v-28.812h-9.0312v54.688h9.0312v-8.5q2.8438 4.9844 7.375 7.3906 4.5469 2.4219 11.047 2.4219 0.92188 0 2.0469-0.125 1.125-0.10938 2.4844-0.35938z"/>
<path id="l" d="m52 44.188q3.375 6.0625 8.0625 8.9375t11.031 2.875q8.5469 0 13.188-5.9844 4.6406-5.9688 4.6406-17v-33.016h-9.0312v32.719q0 7.8594-2.7969 11.656-2.7812 3.8125-8.4844 3.8125-6.9844 0-11.047-4.6406-4.0469-4.625-4.0469-12.641v-30.906h-9.0312v32.719q0 7.9062-2.7812 11.688t-8.5938 3.7812q-6.8906 0-10.953-4.6562-4.0469-4.6562-4.0469-12.625v-30.906h-9.0312v54.688h9.0312v-8.5q3.0781 5.0312 7.375 7.4219t10.203 2.3906q5.9688 0 10.141-3.0312 4.1719-3.0156 6.1719-8.7812z"/>
<path id="h" d="m9.4219 54.688h8.9844v-54.688h-8.9844zm0 21.297h8.9844v-11.391h-8.9844z"/>
<path id="i" d="m54.891 33.016v-33.016h-8.9844v32.719q0 7.7656-3.0312 11.609-3.0312 3.8594-9.0781 3.8594-7.2812 0-11.484-4.6406-4.2031-4.625-4.2031-12.641v-30.906h-9.0312v54.688h9.0312v-8.5q3.2344 4.9375 7.5938 7.375 4.375 2.4375 10.094 2.4375 9.4219 0 14.25-5.8281 4.8438-5.8281 4.8438-17.156z"/>
<path id="e" d="m34.281 27.484q-10.891 0-15.094-2.4844t-4.2031-8.5q0-4.7812 3.1562-7.5938 3.1562-2.7969 8.5625-2.7969 7.4844 0 12 5.2969t4.5156 14.078v2zm17.922 3.7188v-31.203h-8.9844v8.2969q-3.0781-4.9688-7.6719-7.3438t-11.234-2.375q-8.3906 0-13.359 4.7188-4.9531 4.7188-4.9531 12.625 0 9.2188 6.1719 13.906 6.1875 4.6875 18.438 4.6875h12.609v0.89062q0 6.2031-4.0781 9.5938t-11.453 3.3906q-4.6875 0-9.1406-1.125-4.4375-1.125-8.5312-3.375v8.3125q4.9219 1.9062 9.5625 2.8438 4.6406 0.95312 9.0312 0.95312 11.875 0 17.734-6.1562 5.8594-6.1406 5.8594-18.641z"/>
<path id="j" d="m9.4219 75.984h8.9844v-75.984h-8.9844z"/>
</defs>
<use xlink:href="#k"/>
<use x="44.083984" xlink:href="#d"/>
<use x="105.607422" xlink:href="#g"/>
<use x="144.970703" xlink:href="#l"/>
<use x="242.382812" xlink:href="#h"/>
<use x="270.166016" xlink:href="#i"/>
<use x="333.544922" xlink:href="#e"/>
<use x="394.824219" xlink:href="#j"/>
</g>
</g>
<path d="m467.95 432.99 1.4138-4.6772q0.69441-2.2973-1.6029-2.9918l-7.4113-2.2402q-2.2973-0.69441-2.9918 1.6029l-1.4138 4.6772q-0.69441 2.2973 1.6029 2.9918l7.4113 2.2402q2.2973 0.69441 2.9918-1.6029z" clip-path="url(#a)" fill="#fff" stroke="#fff"/>
<g clip-path="url(#a)">
<g transform="translate(464.06 431.81) rotate(-73.182) scale(.08 -.08)">
<use xlink:href="#k"/>
</g>
</g>
<path d="m513.38 335.46 0.77082-5.4179q0.33805-2.3761-2.038-2.7141l-7.6653-1.0906q-2.3761-0.33805-2.7141 2.038l-0.77082 5.4179q-0.33805 2.3761 2.038 2.7141l7.6653 1.0906q2.3761 0.33805 2.7141-2.038z" clip-path="url(#a)" fill="#fff" stroke="#fff"/>
<g clip-path="url(#a)">
<g transform="translate(509.36 334.89) rotate(-81.903) scale(.08 -.08)">
<use xlink:href="#v"/>
</g>
</g>
<path d="m538.04 427.29 0.54312 4.5691q0.28329 2.3832 2.6665 2.0999l7.6884-0.91391q2.3832-0.28329 2.0999-2.6665l-0.54312-4.5691q-0.28329-2.3832-2.6665-2.0999l-7.6884 0.91391q-2.3832 0.28329-2.0999 2.6665z" clip-path="url(#a)" fill="#fff" stroke="#fff"/>
<g clip-path="url(#a)">
<g transform="translate(542.08 426.81) rotate(83.221) scale(.08 -.08)">
<use xlink:href="#q"/>
</g>
</g>
<path d="m564.25 427.92 1.2536 4.9216q0.59241 2.3257 2.9181 1.7333l7.5029-1.9111q2.3257-0.59241 1.7333-2.9181l-1.2536-4.9216q-0.59241-2.3257-2.9181-1.7333l-7.5029 1.9111q-2.3257 0.59241-1.7333 2.9181z" clip-path="url(#a)" fill="#fff" stroke="#fff"/>
<g clip-path="url(#a)">
<g transform="translate(568.19 426.92) rotate(75.709) scale(.08 -.08)">
<use xlink:href="#al"/>
</g>
</g>
<path d="m922.38 338.5 4.3153-3.3654q1.8925-1.4759 0.41658-3.3685l-4.7614-6.1053q-1.4759-1.8925-3.3685-0.41658l-4.3153 3.3654q-1.8925 1.4759-0.41658 3.3684l4.7614 6.1053q1.4759 1.8925 3.3685 0.41658z" clip-path="url(#a)" fill="#fff" stroke="#fff"/>
<g clip-path="url(#a)">
<g transform="translate(919.88 335.3) rotate(-37.95) scale(.08 -.08)">
<use xlink:href="#v"/>
</g>
</g>
<path d="m990.26 432.9 1.3714-4.3921q0.7153-2.2909-1.5756-3.0062l-7.3906-2.3076q-2.2909-0.7153-3.0062 1.5756l-1.3714 4.3921q-0.7153 2.2909 1.5756 3.0062l7.3906 2.3076q2.2909 0.7153 3.0062-1.5756z" clip-path="url(#a)" fill="#fff" stroke="#fff"/>
<g clip-path="url(#a)">
<g transform="translate(986.38 431.69) rotate(-72.66) scale(.08 -.08)">
<use xlink:href="#q"/>
</g>
</g>
<path d="m1049.1 330.11 0.48983 4.7988q0.24371 2.3876 2.6313 2.1439l7.7025-0.78622q2.3876-0.24371 2.1439-2.6313l-0.48984-4.7988q-0.24371-2.3876-2.6313-2.1439l-7.7025 0.78622q-2.3876 0.24371-2.1439 2.6313z" clip-path="url(#a)" fill="#fff" stroke="#fff"/>
<g clip-path="url(#a)">
<g transform="translate(1053.2 329.7) rotate(84.172) scale(.08 -.08)">
<use xlink:href="#an"/>
</g>
</g>
<path d="m1048.5 426.06 0.29395 6.153q0.11453 2.3973 2.5118 2.2827l7.7337-0.36947q2.3973-0.11453 2.2827-2.5118l-0.29395-6.153q-0.11453-2.3973-2.5118-2.2827l-7.7337 0.36947q-2.3973 0.11453-2.2827 2.5118z" clip-path="url(#a)" fill="#fff" stroke="#fff"/>
<g clip-path="url(#a)">
<g transform="translate(1052.6 425.87) rotate(87.265) scale(.08 -.08)">
<use xlink:href="#af"/>
</g>
</g>
<path d="m1206.6 335.9 4.7224 2.7653q2.071 1.2128 3.2838-0.85828l3.9124-6.6813q1.2128-2.071-0.85828-3.2838l-4.7224-2.7653q-2.071-1.2128-3.2838 0.85828l-3.9124 6.6813q-1.2128 2.071 0.85828 3.2838z" clip-path="url(#a)" fill="#fff" stroke="#fff"/>
<g clip-path="url(#a)">
<g transform="translate(1208.6 332.39) rotate(30.352) scale(.08 -.08)">
<use xlink:href="#v"/>
</g>
</g>
<path d="m770.16 530.4 1.3937-4.3851q0.72693-2.2873-1.5603-3.0142l-7.3788-2.3451q-2.2873-0.72693-3.0142 1.5603l-1.3937 4.3851q-0.72693 2.2873 1.5603 3.0142l7.3788 2.3451q2.2873 0.72693 3.0142-1.5603z" clip-path="url(#a)" fill="#fff" stroke="#fff"/>
<g clip-path="url(#a)">
<g transform="translate(766.29 529.17) rotate(-72.369) scale(.08 -.08)">
<use xlink:href="#q"/>
</g>
</g>
<path d="m801.52 529.13 0.025362-5.5862q0.010897-2.4-2.3891-2.4109l-7.7424-0.035152q-2.4-0.010897-2.4109 2.3891l-0.025363 5.5862q-0.010896 2.4 2.3891 2.4109l7.7424 0.035152q2.4 0.010897 2.4109-2.3891z" clip-path="url(#a)" fill="#fff" stroke="#fff"/>
<g clip-path="url(#a)">
<g transform="translate(797.45 529.11) rotate(-89.74) scale(.08 -.08)">
<defs>
<path id="t" d="m64.406 67.281v-10.391q-4.9844 4.6406-10.625 6.9219-5.6406 2.2969-11.984 2.2969-12.5 0-19.141-7.6406t-6.6406-22.094q0-14.406 6.6406-22.047t19.141-7.6406q6.3438 0 11.984 2.2969t10.625 6.9375v-10.312q-5.1719-3.5156-10.969-5.2812-5.7812-1.75-12.219-1.75-16.562 0-26.094 10.125-9.5156 10.141-9.5156 27.672 0 17.578 9.5156 27.703 9.5312 10.141 26.094 10.141 6.5312 0 12.312-1.7344 5.7969-1.7344 10.875-5.2031z"/>
</defs>
<use xlink:href="#t"/>
</g>
</g>
<path d="m820.21 525.83 1.5509 4.8112q0.73634 2.2842 3.0206 1.5479l7.3691-2.3755q2.2842-0.73634 1.5479-3.0206l-1.5509-4.8112q-0.73634-2.2842-3.0206-1.5479l-7.3691 2.3755q-2.2842 0.73634-1.5479 3.0206z" clip-path="url(#a)" fill="#fff" stroke="#fff"/>
<g clip-path="url(#a)">
<g transform="translate(824.08 524.58) rotate(72.133) scale(.08 -.08)">
<defs>
<path id="ao" d="m9.8125 72.906h46.094v-8.3125h-36.234v-21.578h34.719v-8.2969h-34.719v-26.422h37.109v-8.2969h-46.969z"/>
</defs>
<use xlink:href="#ao"/>
</g>
</g>
<path d="m917.98 702.01v33.808q0 2.4 2.4 2.4h7.7425q2.4 0 2.4-2.4v-33.808q0-2.4-2.4-2.4h-7.7425q-2.4 0-2.4 2.4z" clip-path="url(#a)" fill="#fff" stroke="#fff"/>
<g clip-path="url(#a)">
<g transform="translate(922.04 702.01) rotate(90) scale(.08 -.08)">
<use xlink:href="#k"/>
<use x="44.083984" xlink:href="#d"/>
<use x="105.607422" xlink:href="#g"/>
<use x="144.970703" xlink:href="#l"/>
<use x="242.382812" xlink:href="#h"/>
<use x="270.166016" xlink:href="#i"/>
<use x="333.544922" xlink:href="#e"/>
<use x="394.824219" xlink:href="#j"/>
</g>
</g>
<path d="m1034.3 530.67 1.614-4.3089q0.84185-2.2475-1.4057-3.0894l-7.2506-2.7158q-2.2475-0.84185-3.0894 1.4057l-1.614 4.3089q-0.84185 2.2475 1.4057 3.0894l7.2506 2.7158q2.2475 0.84185 3.0894-1.4057z" clip-path="url(#a)" fill="#fff" stroke="#fff"/>
<g clip-path="url(#a)">
<g transform="translate(1030.5 529.24) rotate(-69.466) scale(.08 -.08)">
<use xlink:href="#q"/>
</g>
</g>
<path d="m1095 525.9 1.9595 5.2313q0.84185 2.2475 3.0894 1.4057l7.2506-2.7158q2.2475-0.84185 1.4057-3.0894l-1.9595-5.2313q-0.84185-2.2475-3.0894-1.4057l-7.2506 2.7158q-2.2475 0.84185-1.4057 3.0894z" clip-path="url(#a)" fill="#fff" stroke="#fff"/>
<g clip-path="url(#a)">
<g transform="translate(1098.8 524.47) rotate(69.466) scale(.08 -.08)">
<use xlink:href="#t"/>
</g>
</g>
<path d="m1058 702.01v33.808q0 2.4 2.4 2.4h7.7425q2.4 0 2.4-2.4v-33.808q0-2.4-2.4-2.4h-7.7425q-2.4 0-2.4 2.4z" clip-path="url(#a)" fill="#fff" stroke="#fff"/>
<g clip-path="url(#a)">
<g transform="translate(1062 702.01) rotate(90) scale(.08 -.08)">
<use xlink:href="#k"/>
<use x="44.083984" xlink:href="#d"/>
<use x="105.607422" xlink:href="#g"/>
<use x="144.970703" xlink:href="#l"/>
<use x="242.382812" xlink:href="#h"/>
<use x="270.166016" xlink:href="#i"/>
<use x="333.544922" xlink:href="#e"/>
<use x="394.824219" xlink:href="#j"/>
</g>
</g>
<path d="m1299.7 532.48 3.5865-4.247q1.5485-1.8336-0.28516-3.3821l-5.9154-4.9955q-1.8336-1.5485-3.3821 0.28516l-3.5865 4.247q-1.5485 1.8336 0.28516 3.3821l5.9154 4.9955q1.8336 1.5485 3.3821-0.28516z" clip-path="url(#a)" fill="#fff" stroke="#fff"/>
<g clip-path="url(#a)">
<g transform="translate(1296.6 529.86) rotate(-49.819) scale(.08 -.08)">
<defs>
<path id="am" d="m44.391 34.188q3.1719-1.0781 6.1719-4.5938t6.0312-9.6719l10.016-19.922h-10.609l-9.3125 18.703q-3.625 7.3281-7.0156 9.7188t-9.25 2.3906h-10.75v-30.812h-9.8594v72.906h22.266q12.5 0 18.656-5.2344 6.1562-5.2188 6.1562-15.766 0-6.8906-3.2031-11.438-3.2031-4.5312-9.2969-6.2812zm-24.719 30.609v-25.875h12.406q7.125 0 10.766 3.2969t3.6406 9.6875-3.6406 9.6406-10.766 3.25z"/>
</defs>
<use xlink:href="#am"/>
</g>
</g>
<path d="m1341.1 530.93 1.8385-4.218q0.95894-2.2001-1.2412-3.159l-7.0976-3.0936q-2.2001-0.95894-3.159 1.2412l-1.8385 4.218q-0.95894 2.2001 1.2412 3.159l7.0976 3.0936q2.2001 0.95894 3.159-1.2412z" clip-path="url(#a)" fill="#fff" stroke="#fff"/>
<g clip-path="url(#a)">
<g transform="translate(1337.4 529.3) rotate(-66.449) scale(.08 -.08)">
<use xlink:href="#q"/>
</g>
</g>
<path d="m1383.5 529.19 0.076082-5.5857q0.032687-2.3998-2.3671-2.4325l-7.7418-0.10545q-2.3998-0.032687-2.4325 2.3671l-0.076081 5.5857q-0.032687 2.3998 2.3671 2.4325l7.7418 0.10545q2.3998 0.032687 2.4325-2.3671z" clip-path="url(#a)" fill="#fff" stroke="#fff"/>
<g clip-path="url(#a)">
<g transform="translate(1379.4 529.13) rotate(-89.22) scale(.08 -.08)">
<use xlink:href="#t"/>
</g>
</g>
<path d="m1412.8 526.42 1.9663 4.6569q0.93357 2.211 3.1446 1.2774l7.1327-3.0117q2.211-0.93357 1.2774-3.1446l-1.9663-4.6569q-0.93357-2.211-3.1446-1.2774l-7.1327 3.0117q-2.211 0.93357-1.2774 3.1446z" clip-path="url(#a)" fill="#fff" stroke="#fff"/>
<g clip-path="url(#a)">
<g transform="translate(1416.5 524.84) rotate(67.108) scale(.08 -.08)">
<use xlink:href="#ao"/>
</g>
</g>
<path d="m1456.5 528.23 3.8474 4.4135q1.5771 1.8091 3.3862 0.23206l5.8363-5.0876q1.8091-1.5771 0.23206-3.3862l-3.8474-4.4135q-1.5771-1.8091-3.3862-0.23206l-5.8363 5.0876q-1.8091 1.5771-0.23206 3.3862z" clip-path="url(#a)" fill="#fff" stroke="#fff"/>
<g clip-path="url(#a)">
<g transform="translate(1459.5 525.55) rotate(48.92) scale(.08 -.08)">
<use xlink:href="#z"/>
</g>
</g>
<path d="m1208.5 702.01v33.808q0 2.4 2.4 2.4h7.7425q2.4 0 2.4-2.4v-33.808q0-2.4-2.4-2.4h-7.7425q-2.4 0-2.4 2.4z" clip-path="url(#a)" fill="#fff" stroke="#fff"/>
<g clip-path="url(#a)">
<g transform="translate(1212.6 702.01) rotate(90) scale(.08 -.08)">
<use xlink:href="#k"/>
<use x="44.083984" xlink:href="#d"/>
<use x="105.607422" xlink:href="#g"/>
<use x="144.970703" xlink:href="#l"/>
<use x="242.382812" xlink:href="#h"/>
<use x="270.166016" xlink:href="#i"/>
<use x="333.544922" xlink:href="#e"/>
<use x="394.824219" xlink:href="#j"/>
</g>
</g>
<path d="m1287.8 702.01v33.808q0 2.4 2.4 2.4h7.7425q2.4 0 2.4-2.4v-33.808q0-2.4-2.4-2.4h-7.7425q-2.4 0-2.4 2.4z" clip-path="url(#a)" fill="#fff" stroke="#fff"/>
<g clip-path="url(#a)">
<g transform="translate(1291.8 702.01) rotate(90) scale(.08 -.08)">
<use xlink:href="#k"/>
<use x="44.083984" xlink:href="#d"/>
<use x="105.607422" xlink:href="#g"/>
<use x="144.970703" xlink:href="#l"/>
<use x="242.382812" xlink:href="#h"/>
<use x="270.166016" xlink:href="#i"/>
<use x="333.544922" xlink:href="#e"/>
<use x="394.824219" xlink:href="#j"/>
</g>
</g>
<path d="m1369.7 702.01v33.808q0 2.4 2.4 2.4h7.7425q2.4 0 2.4-2.4v-33.808q0-2.4-2.4-2.4h-7.7425q-2.4 0-2.4 2.4z" clip-path="url(#a)" fill="#fff" stroke="#fff"/>
<g clip-path="url(#a)">
<g transform="translate(1373.7 702.01) rotate(90) scale(.08 -.08)">
<use xlink:href="#k"/>
<use x="44.083984" xlink:href="#d"/>
<use x="105.607422" xlink:href="#g"/>
<use x="144.970703" xlink:href="#l"/>
<use x="242.382812" xlink:href="#h"/>
<use x="270.166016" xlink:href="#i"/>
<use x="333.544922" xlink:href="#e"/>
<use x="394.824219" xlink:href="#j"/>
</g>
</g>
<path d="m1454.2 702.01v33.808q0 2.4 2.4 2.4h7.7425q2.4 0 2.4-2.4v-33.808q0-2.4-2.4-2.4h-7.7425q-2.4 0-2.4 2.4z" clip-path="url(#a)" fill="#fff" stroke="#fff"/>
<g clip-path="url(#a)">
<g transform="translate(1458.3 702.01) rotate(90) scale(.08 -.08)">
<use xlink:href="#k"/>
<use x="44.083984" xlink:href="#d"/>
<use x="105.607422" xlink:href="#g"/>
<use x="144.970703" xlink:href="#l"/>
<use x="242.382812" xlink:href="#h"/>
<use x="270.166016" xlink:href="#i"/>
<use x="333.544922" xlink:href="#e"/>
<use x="394.824219" xlink:href="#j"/>
</g>
</g>
<path d="m986.66 702.01v33.808q0 2.4 2.4 2.4h7.7425q2.4 0 2.4-2.4v-33.808q0-2.4-2.4-2.4h-7.7425q-2.4 0-2.4 2.4z" clip-path="url(#a)" fill="#fff" stroke="#fff"/>
<g clip-path="url(#a)">
<g transform="translate(990.72 702.01) rotate(90) scale(.08 -.08)">
<use xlink:href="#k"/>
<use x="44.083984" xlink:href="#d"/>
<use x="105.607422" xlink:href="#g"/>
<use x="144.970703" xlink:href="#l"/>
<use x="242.382812" xlink:href="#h"/>
<use x="270.166016" xlink:href="#i"/>
<use x="333.544922" xlink:href="#e"/>
<use x="394.824219" xlink:href="#j"/>
</g>
</g>
<path d="m1131.9 702.01v33.808q0 2.4 2.4 2.4h7.7425q2.4 0 2.4-2.4v-33.808q0-2.4-2.4-2.4h-7.7425q-2.4 0-2.4 2.4z" clip-path="url(#a)" fill="#fff" stroke="#fff"/>
<g clip-path="url(#a)">
<g transform="translate(1136 702.01) rotate(90) scale(.08 -.08)">
<use xlink:href="#k"/>
<use x="44.083984" xlink:href="#d"/>
<use x="105.607422" xlink:href="#g"/>
<use x="144.970703" xlink:href="#l"/>
<use x="242.382812" xlink:href="#h"/>
<use x="270.166016" xlink:href="#i"/>
<use x="333.544922" xlink:href="#e"/>
<use x="394.824219" xlink:href="#j"/>
</g>
</g>
<path d="m727.79 702.01v33.808q0 2.4 2.4 2.4h7.7425q2.4 0 2.4-2.4v-33.808q0-2.4-2.4-2.4h-7.7425q-2.4 0-2.4 2.4z" clip-path="url(#a)" fill="#fff" stroke="#fff"/>
<g clip-path="url(#a)">
<g transform="translate(731.86 702.01) rotate(90) scale(.08 -.08)">
<use xlink:href="#k"/>
<use x="44.083984" xlink:href="#d"/>
<use x="105.607422" xlink:href="#g"/>
<use x="144.970703" xlink:href="#l"/>
<use x="242.382812" xlink:href="#h"/>
<use x="270.166016" xlink:href="#i"/>
<use x="333.544922" xlink:href="#e"/>
<use x="394.824219" xlink:href="#j"/>
</g>
</g>
<path d="m788.55 702.01v33.808q0 2.4 2.4 2.4h7.7425q2.4 0 2.4-2.4v-33.808q0-2.4-2.4-2.4h-7.7425q-2.4 0-2.4 2.4z" clip-path="url(#a)" fill="#fff" stroke="#fff"/>
<g clip-path="url(#a)">
<g transform="translate(792.61 702.01) rotate(90) scale(.08 -.08)">
<use xlink:href="#k"/>
<use x="44.083984" xlink:href="#d"/>
<use x="105.607422" xlink:href="#g"/>
<use x="144.970703" xlink:href="#l"/>
<use x="242.382812" xlink:href="#h"/>
<use x="270.166016" xlink:href="#i"/>
<use x="333.544922" xlink:href="#e"/>
<use x="394.824219" xlink:href="#j"/>
</g>
</g>
<path d="m851.94 702.01v33.808q0 2.4 2.4 2.4h7.7425q2.4 0 2.4-2.4v-33.808q0-2.4-2.4-2.4h-7.7425q-2.4 0-2.4 2.4z" clip-path="url(#a)" fill="#fff" stroke="#fff"/>
<g clip-path="url(#a)">
<g transform="translate(856.01 702.01) rotate(90) scale(.08 -.08)">
<use xlink:href="#k"/>
<use x="44.083984" xlink:href="#d"/>
<use x="105.607422" xlink:href="#g"/>
<use x="144.970703" xlink:href="#l"/>
<use x="242.382812" xlink:href="#h"/>
<use x="270.166016" xlink:href="#i"/>
<use x="333.544922" xlink:href="#e"/>
<use x="394.824219" xlink:href="#j"/>
</g>
</g>
<path d="m397.69 736.4 3.7125-33.603q0.26355-2.3855-2.1219-2.649l-7.6957-0.85023q-2.3855-0.26355-2.649 2.1219l-3.7125 33.603q-0.26355 2.3855 2.1219 2.649l7.6957 0.85023q2.3855 0.26355 2.649-2.1219z" clip-path="url(#a)" fill="#fff" stroke="#fff"/>
<g clip-path="url(#a)">
<g transform="translate(393.65 735.95) rotate(-83.695) scale(.08 -.08)">
<use xlink:href="#k"/>
<use x="44.083984" xlink:href="#d"/>
<use x="105.607422" xlink:href="#g"/>
<use x="144.970703" xlink:href="#l"/>
<use x="242.382812" xlink:href="#h"/>
<use x="270.166016" xlink:href="#i"/>
<use x="333.544922" xlink:href="#e"/>
<use x="394.824219" xlink:href="#j"/>
</g>
</g>
<path d="m406.36 702.8 3.7125 33.603q0.26355 2.3855 2.649 2.1219l7.6957-0.85023q2.3855-0.26355 2.1219-2.649l-3.7125-33.603q-0.26355-2.3855-2.649-2.1219l-7.6957 0.85023q-2.3855 0.26355-2.1219 2.649z" clip-path="url(#a)" fill="#fff" stroke="#fff"/>
<g clip-path="url(#a)">
<g transform="translate(410.4 702.35) rotate(83.695) scale(.08 -.08)">
<use xlink:href="#k"/>
<use x="44.083984" xlink:href="#d"/>
<use x="105.607422" xlink:href="#g"/>
<use x="144.970703" xlink:href="#l"/>
<use x="242.382812" xlink:href="#h"/>
<use x="270.166016" xlink:href="#i"/>
<use x="333.544922" xlink:href="#e"/>
<use x="394.824219" xlink:href="#j"/>
</g>
</g>
<path d="m487.75 529.36 0.55986-4.5671q0.29202-2.3822-2.0901-2.6742l-7.685-0.94207q-2.3822-0.29202-2.6742 2.0901l-0.55986 4.5671q-0.29202 2.3822 2.0901 2.6742l7.685 0.94207q2.3822 0.29202 2.6742-2.0901z" clip-path="url(#a)" fill="#fff" stroke="#fff"/>
<g clip-path="url(#a)">
<g transform="translate(483.72 528.86) rotate(-83.011) scale(.08 -.08)">
<use xlink:href="#q"/>
</g>
</g>
<path d="m499.01 524.3 0.67971 5.5447q0.29202 2.3822 2.6742 2.0901l7.685-0.94207q2.3822-0.29202 2.0901-2.6742l-0.67971-5.5447q-0.29202-2.3822-2.6742-2.0901l-7.685 0.94207q-2.3822 0.29202-2.0901 2.6742z" clip-path="url(#a)" fill="#fff" stroke="#fff"/>
<g clip-path="url(#a)">
<g transform="translate(503.05 523.81) rotate(83.011) scale(.08 -.08)">
<use xlink:href="#t"/>
</g>
</g>
<path d="m561.38 702.01v33.808q0 2.4 2.4 2.4h7.7425q2.4 0 2.4-2.4v-33.808q0-2.4-2.4-2.4h-7.7425q-2.4 0-2.4 2.4z" clip-path="url(#a)" fill="#fff" stroke="#fff"/>
<g clip-path="url(#a)">
<g transform="translate(565.44 702.01) rotate(90) scale(.08 -.08)">
<use xlink:href="#k"/>
<use x="44.083984" xlink:href="#d"/>
<use x="105.607422" xlink:href="#g"/>
<use x="144.970703" xlink:href="#l"/>
<use x="242.382812" xlink:href="#h"/>
<use x="270.166016" xlink:href="#i"/>
<use x="333.544922" xlink:href="#e"/>
<use x="394.824219" xlink:href="#j"/>
</g>
</g>
<path d="m614.21 702.01v33.808q0 2.4 2.4 2.4h7.7425q2.4 0 2.4-2.4v-33.808q0-2.4-2.4-2.4h-7.7425q-2.4 0-2.4 2.4z" clip-path="url(#a)" fill="#fff" stroke="#fff"/>
<g clip-path="url(#a)">
<g transform="translate(618.27 702.01) rotate(90) scale(.08 -.08)">
<use xlink:href="#k"/>
<use x="44.083984" xlink:href="#d"/>
<use x="105.607422" xlink:href="#g"/>
<use x="144.970703" xlink:href="#l"/>
<use x="242.382812" xlink:href="#h"/>
<use x="270.166016" xlink:href="#i"/>
<use x="333.544922" xlink:href="#e"/>
<use x="394.824219" xlink:href="#j"/>
</g>
</g>
<path d="m463.65 702.01v33.808q0 2.4 2.4 2.4h7.7425q2.4 0 2.4-2.4v-33.808q0-2.4-2.4-2.4h-7.7425q-2.4 0-2.4 2.4z" clip-path="url(#a)" fill="#fff" stroke="#fff"/>
<g clip-path="url(#a)">
<g transform="translate(467.71 702.01) rotate(90) scale(.08 -.08)">
<use xlink:href="#k"/>
<use x="44.083984" xlink:href="#d"/>
<use x="105.607422" xlink:href="#g"/>
<use x="144.970703" xlink:href="#l"/>
<use x="242.382812" xlink:href="#h"/>
<use x="270.166016" xlink:href="#i"/>
<use x="333.544922" xlink:href="#e"/>
<use x="394.824219" xlink:href="#j"/>
</g>
</g>
<path d="m511.19 702.01v33.808q0 2.4 2.4 2.4h7.7425q2.4 0 2.4-2.4v-33.808q0-2.4-2.4-2.4h-7.7425q-2.4 0-2.4 2.4z" clip-path="url(#a)" fill="#fff" stroke="#fff"/>
<g clip-path="url(#a)">
<g transform="translate(515.26 702.01) rotate(90) scale(.08 -.08)">
<use xlink:href="#k"/>
<use x="44.083984" xlink:href="#d"/>
<use x="105.607422" xlink:href="#g"/>
<use x="144.970703" xlink:href="#l"/>
<use x="242.382812" xlink:href="#h"/>
<use x="270.166016" xlink:href="#i"/>
<use x="333.544922" xlink:href="#e"/>
<use x="394.824219" xlink:href="#j"/>
</g>
</g>
<path d="m133.46 702.01v33.808q0 2.4 2.4 2.4h7.7425q2.4 0 2.4-2.4v-33.808q0-2.4-2.4-2.4h-7.7425q-2.4 0-2.4 2.4z" clip-path="url(#a)" fill="#fff" stroke="#fff"/>
<g clip-path="url(#a)">
<g transform="translate(137.53 702.01) rotate(90) scale(.08 -.08)">
<use xlink:href="#k"/>
<use x="44.083984" xlink:href="#d"/>
<use x="105.607422" xlink:href="#g"/>
<use x="144.970703" xlink:href="#l"/>
<use x="242.382812" xlink:href="#h"/>
<use x="270.166016" xlink:href="#i"/>
<use x="333.544922" xlink:href="#e"/>
<use x="394.824219" xlink:href="#j"/>
</g>
</g>
<path d="m154.59 702.01v33.808q0 2.4 2.4 2.4h7.7425q2.4 0 2.4-2.4v-33.808q0-2.4-2.4-2.4h-7.7425q-2.4 0-2.4 2.4z" clip-path="url(#a)" fill="#fff" stroke="#fff"/>
<g clip-path="url(#a)">
<g transform="translate(158.66 702.01) rotate(90) scale(.08 -.08)">
<use xlink:href="#k"/>
<use x="44.083984" xlink:href="#d"/>
<use x="105.607422" xlink:href="#g"/>
<use x="144.970703" xlink:href="#l"/>
<use x="242.382812" xlink:href="#h"/>
<use x="270.166016" xlink:href="#i"/>
<use x="333.544922" xlink:href="#e"/>
<use x="394.824219" xlink:href="#j"/>
</g>
</g>
<path d="m197.31 529.51 0.3777-5.5459q0.16307-2.3945-2.2314-2.5575l-7.7246-0.52607q-2.3945-0.16307-2.5575 2.2314l-0.3777 5.5459q-0.16307 2.3945 2.2314 2.5575l7.7246 0.52607q2.3945 0.16307 2.5575-2.2314z" clip-path="url(#a)" fill="#fff" stroke="#fff"/>
<g clip-path="url(#a)">
<g transform="translate(193.26 529.23) rotate(-86.104) scale(.08 -.08)">
<use xlink:href="#am"/>
</g>
</g>
<path d="m198 523.95 0.37956 5.5733q0.16307 2.3945 2.5575 2.2314l7.7246-0.52607q2.3945-0.16307 2.2314-2.5575l-0.37956-5.5733q-0.16307-2.3945-2.5575-2.2314l-7.7246 0.52607q-2.3945 0.16307-2.2314 2.5575z" clip-path="url(#a)" fill="#fff" stroke="#fff"/>
<g clip-path="url(#a)">
<g transform="translate(202.06 523.67) rotate(86.104) scale(.08 -.08)">
<use xlink:href="#t"/>
</g>
</g>
<path d="m252.89 736.27 2.7918-33.692q0.19819-2.3918-2.1936-2.59l-7.7161-0.63936q-2.3918-0.19819-2.59 2.1936l-2.7918 33.692q-0.19819 2.3918 2.1936 2.59l7.7161 0.63936q2.3918 0.19819 2.59-2.1936z" clip-path="url(#a)" fill="#fff" stroke="#fff"/>
<g clip-path="url(#a)">
<g transform="translate(248.84 735.94) rotate(-85.263) scale(.08 -.08)">
<use xlink:href="#k"/>
<use x="44.083984" xlink:href="#d"/>
<use x="105.607422" xlink:href="#g"/>
<use x="144.970703" xlink:href="#l"/>
<use x="242.382812" xlink:href="#h"/>
<use x="270.166016" xlink:href="#i"/>
<use x="333.544922" xlink:href="#e"/>
<use x="394.824219" xlink:href="#j"/>
</g>
</g>
<path d="m256.24 702.58 2.7918 33.692q0.19819 2.3918 2.59 2.1936l7.7161-0.63936q2.3918-0.19819 2.1936-2.59l-2.7918-33.692q-0.19819-2.3918-2.59-2.1936l-7.7161 0.63936q-2.3918 0.19819-2.1936 2.59z" clip-path="url(#a)" fill="#fff" stroke="#fff"/>
<g clip-path="url(#a)">
<g transform="translate(260.29 702.25) rotate(85.263) scale(.08 -.08)">
<use xlink:href="#k"/>
<use x="44.083984" xlink:href="#d"/>
<use x="105.607422" xlink:href="#g"/>
<use x="144.970703" xlink:href="#l"/>
<use x="242.382812" xlink:href="#h"/>
<use x="270.166016" xlink:href="#i"/>
<use x="333.544922" xlink:href="#e"/>
<use x="394.824219" xlink:href="#j"/>
</g>
</g>
<path d="m178.37 702.01v33.808q0 2.4 2.4 2.4h7.7425q2.4 0 2.4-2.4v-33.808q0-2.4-2.4-2.4h-7.7425q-2.4 0-2.4 2.4z" clip-path="url(#a)" fill="#fff" stroke="#fff"/>
<g clip-path="url(#a)">
<g transform="translate(182.43 702.01) rotate(90) scale(.08 -.08)">
<use xlink:href="#k"/>
<use x="44.083984" xlink:href="#d"/>
<use x="105.607422" xlink:href="#g"/>
<use x="144.970703" xlink:href="#l"/>
<use x="242.382812" xlink:href="#h"/>
<use x="270.166016" xlink:href="#i"/>
<use x="333.544922" xlink:href="#e"/>
<use x="394.824219" xlink:href="#j"/>
</g>
</g>
<path d="m204.78 702.01v33.808q0 2.4 2.4 2.4h7.7425q2.4 0 2.4-2.4v-33.808q0-2.4-2.4-2.4h-7.7425q-2.4 0-2.4 2.4z" clip-path="url(#a)" fill="#fff" stroke="#fff"/>
<g clip-path="url(#a)">
<g transform="translate(208.85 702.01) rotate(90) scale(.08 -.08)">
<use xlink:href="#k"/>
<use x="44.083984" xlink:href="#d"/>
<use x="105.607422" xlink:href="#g"/>
<use x="144.970703" xlink:href="#l"/>
<use x="242.382812" xlink:href="#h"/>
<use x="270.166016" xlink:href="#i"/>
<use x="333.544922" xlink:href="#e"/>
<use x="394.824219" xlink:href="#j"/>
</g>
</g>
<path d="m81.901 528.74 0.093989-4.6003q0.049024-2.3995-2.3505-2.4485l-7.7409-0.15815q-2.3995-0.049025-2.4485 2.3505l-0.093989 4.6003q-0.049024 2.3995 2.3505 2.4485l7.7409 0.15816q2.3995 0.049024 2.4485-2.3505z" clip-path="url(#a)" fill="#fff" stroke="#fff"/>
<g clip-path="url(#a)">
<g transform="translate(77.838 528.66) rotate(-88.83) scale(.08 -.08)">
<use xlink:href="#q"/>
</g>
</g>
<path d="m73.313 523.65 0.11411 5.5851q0.049024 2.3995 2.4485 2.3505l7.7409-0.15816q2.3995-0.049024 2.3505-2.4485l-0.11411-5.5851q-0.049025-2.3995-2.4485-2.3505l-7.7409 0.15815q-2.3995 0.049025-2.3505 2.4485z" clip-path="url(#a)" fill="#fff" stroke="#fff"/>
<g clip-path="url(#a)">
<g transform="translate(77.376 523.56) rotate(88.83) scale(.08 -.08)">
<use xlink:href="#t"/>
</g>
</g>
<path d="m85.916 702.01v33.808q0 2.4 2.4 2.4h7.7425q2.4 0 2.4-2.4v-33.808q0-2.4-2.4-2.4h-7.7425q-2.4 0-2.4 2.4z" clip-path="url(#a)" fill="#fff" stroke="#fff"/>
<g clip-path="url(#a)">
<g transform="translate(89.98 702.01) rotate(90) scale(.08 -.08)">
<use xlink:href="#k"/>
<use x="44.083984" xlink:href="#d"/>
<use x="105.607422" xlink:href="#g"/>
<use x="144.970703" xlink:href="#l"/>
<use x="242.382812" xlink:href="#h"/>
<use x="270.166016" xlink:href="#i"/>
<use x="333.544922" xlink:href="#e"/>
<use x="394.824219" xlink:href="#j"/>
</g>
</g>
<path d="m99.123 702.01v33.808q0 2.4 2.4 2.4h7.7425q2.4 0 2.4-2.4v-33.808q0-2.4-2.4-2.4h-7.7425q-2.4 0-2.4 2.4z" clip-path="url(#a)" fill="#fff" stroke="#fff"/>
<g clip-path="url(#a)">
<g transform="translate(103.19 702.01) rotate(90) scale(.08 -.08)">
<use xlink:href="#k"/>
<use x="44.083984" xlink:href="#d"/>
<use x="105.607422" xlink:href="#g"/>
<use x="144.970703" xlink:href="#l"/>
<use x="242.382812" xlink:href="#h"/>
<use x="270.166016" xlink:href="#i"/>
<use x="333.544922" xlink:href="#e"/>
<use x="394.824219" xlink:href="#j"/>
</g>
</g>
<path d="m67.426 702.01v33.808q0 2.4 2.4 2.4h7.7425q2.4 0 2.4-2.4v-33.808q0-2.4-2.4-2.4h-7.7425q-2.4 0-2.4 2.4z" clip-path="url(#a)" fill="#fff" stroke="#fff"/>
<g clip-path="url(#a)">
<g transform="translate(71.489 702.01) rotate(90) scale(.08 -.08)">
<use xlink:href="#k"/>
<use x="44.083984" xlink:href="#d"/>
<use x="105.607422" xlink:href="#g"/>
<use x="144.970703" xlink:href="#l"/>
<use x="242.382812" xlink:href="#h"/>
<use x="270.166016" xlink:href="#i"/>
<use x="333.544922" xlink:href="#e"/>
<use x="394.824219" xlink:href="#j"/>
</g>
</g>
<path d="m75.35 702.01v33.808q0 2.4 2.4 2.4h7.7425q2.4 0 2.4-2.4v-33.808q0-2.4-2.4-2.4h-7.7425q-2.4 0-2.4 2.4z" clip-path="url(#a)" fill="#fff" stroke="#fff"/>
<g clip-path="url(#a)">
<g transform="translate(79.414 702.01) rotate(90) scale(.08 -.08)">
<use xlink:href="#k"/>
<use x="44.083984" xlink:href="#d"/>
<use x="105.607422" xlink:href="#g"/>
<use x="144.970703" xlink:href="#l"/>
<use x="242.382812" xlink:href="#h"/>
<use x="270.166016" xlink:href="#i"/>
<use x="333.544922" xlink:href="#e"/>
<use x="394.824219" xlink:href="#j"/>
</g>
</g>
<path d="m114.97 702.01v33.808q0 2.4 2.4 2.4h7.7425q2.4 0 2.4-2.4v-33.808q0-2.4-2.4-2.4h-7.7425q-2.4 0-2.4 2.4z" clip-path="url(#a)" fill="#fff" stroke="#fff"/>
<g clip-path="url(#a)">
<g transform="translate(119.04 702.01) rotate(90) scale(.08 -.08)">
<use xlink:href="#k"/>
<use x="44.083984" xlink:href="#d"/>
<use x="105.607422" xlink:href="#g"/>
<use x="144.970703" xlink:href="#l"/>
<use x="242.382812" xlink:href="#h"/>
<use x="270.166016" xlink:href="#i"/>
<use x="333.544922" xlink:href="#e"/>
<use x="394.824219" xlink:href="#j"/>
</g>
</g>
<path d="m299.87 702.01v33.808q0 2.4 2.4 2.4h7.7425q2.4 0 2.4-2.4v-33.808q0-2.4-2.4-2.4h-7.7425q-2.4 0-2.4 2.4z" clip-path="url(#a)" fill="#fff" stroke="#fff"/>
<g clip-path="url(#a)">
<g transform="translate(303.94 702.01) rotate(90) scale(.08 -.08)">
<use xlink:href="#k"/>
<use x="44.083984" xlink:href="#d"/>
<use x="105.607422" xlink:href="#g"/>
<use x="144.970703" xlink:href="#l"/>
<use x="242.382812" xlink:href="#h"/>
<use x="270.166016" xlink:href="#i"/>
<use x="333.544922" xlink:href="#e"/>
<use x="394.824219" xlink:href="#j"/>
</g>
</g>
<path d="m669.68 702.01v33.808q0 2.4 2.4 2.4h7.7425q2.4 0 2.4-2.4v-33.808q0-2.4-2.4-2.4h-7.7425q-2.4 0-2.4 2.4z" clip-path="url(#a)" fill="#fff" stroke="#fff"/>
<g clip-path="url(#a)">
<g transform="translate(673.74 702.01) rotate(90) scale(.08 -.08)">
<use xlink:href="#k"/>
<use x="44.083984" xlink:href="#d"/>
<use x="105.607422" xlink:href="#g"/>
<use x="144.970703" xlink:href="#l"/>
<use x="242.382812" xlink:href="#h"/>
<use x="270.166016" xlink:href="#i"/>
<use x="333.544922" xlink:href="#e"/>
<use x="394.824219" xlink:href="#j"/>
</g>
</g>
<path d="m1541.4 702.01v33.808q0 2.4 2.4 2.4h7.7425q2.4 0 2.4-2.4v-33.808q0-2.4-2.4-2.4h-7.7425q-2.4 0-2.4 2.4z" clip-path="url(#a)" fill="#fff" stroke="#fff"/>
<g clip-path="url(#a)">
<g transform="translate(1545.4 702.01) rotate(90) scale(.08 -.08)">
<use xlink:href="#k"/>
<use x="44.083984" xlink:href="#d"/>
<use x="105.607422" xlink:href="#g"/>
<use x="144.970703" xlink:href="#l"/>
<use x="242.382812" xlink:href="#h"/>
<use x="270.166016" xlink:href="#i"/>
<use x="333.544922" xlink:href="#e"/>
<use x="394.824219" xlink:href="#j"/>
</g>
</g>
<defs>
<path id="b" d="m0 8.6603c2.2967 0 4.4997-0.9125 6.1237-2.5365 1.624-1.624 2.5365-3.827 2.5365-6.1237s-0.9125-4.4997-2.5365-6.1237c-1.624-1.624-3.827-2.5365-6.1237-2.5365s-4.4997 0.9125-6.1237 2.5365c-1.624 1.624-2.5365 3.827-2.5365 6.1237s0.9125 4.4997 2.5365 6.1237c1.624 1.624 3.827 2.5365 6.1237 2.5365z"/>
</defs>
<g clip-path="url(#a)" fill="#ffffff" stroke="#ffffff">
<use x="73.69697" y="814.545455" xlink:href="#b"/>
<use x="81.621375" y="814.545455" xlink:href="#b"/>
<use x="92.187249" y="814.545455" xlink:href="#b"/>
<use x="105.394591" y="814.545455" xlink:href="#b"/>
<use x="121.243402" y="814.545455" xlink:href="#b"/>
<use x="139.733681" y="814.545455" xlink:href="#b"/>
<use x="160.865428" y="814.545455" xlink:href="#b"/>
<use x="184.638645" y="814.545455" xlink:href="#b"/>
<use x="211.053329" y="814.545455" xlink:href="#b"/>
<use x="240.109482" y="814.545455" xlink:href="#b"/>
<use x="271.807103" y="814.545455" xlink:href="#b"/>
<use x="306.146193" y="814.545455" xlink:href="#b"/>
<use x="343.126751" y="814.545455" xlink:href="#b"/>
<use x="382.748778" y="814.545455" xlink:href="#b"/>
<use x="425.012273" y="814.545455" xlink:href="#b"/>
<use x="469.917237" y="814.545455" xlink:href="#b"/>
<use x="517.463669" y="814.545455" xlink:href="#b"/>
<use x="567.651569" y="814.545455" xlink:href="#b"/>
<use x="620.480938" y="814.545455" xlink:href="#b"/>
<use x="675.951776" y="814.545455" xlink:href="#b"/>
<use x="734.064082" y="814.545455" xlink:href="#b"/>
<use x="794.817856" y="814.545455" xlink:href="#b"/>
<use x="858.213099" y="814.545455" xlink:href="#b"/>
<use x="924.24981" y="814.545455" xlink:href="#b"/>
<use x="992.92799" y="814.545455" xlink:href="#b"/>
<use x="1064.247638" y="814.545455" xlink:href="#b"/>
<use x="1138.208754" y="814.545455" xlink:href="#b"/>
<use x="1214.811339" y="814.545455" xlink:href="#b"/>
<use x="1294.055393" y="814.545455" xlink:href="#b"/>
<use x="1375.940915" y="814.545455" xlink:href="#b"/>
<use x="1460.467905" y="814.545455" xlink:href="#b"/>
<use x="1547.636364" y="814.545455" xlink:href="#b"/>
<use x="411.738894" y="38.787879" xlink:href="#b"/>
<use x="91.747004" y="234.398654" xlink:href="#b"/>
<use x="188.600847" y="234.398654" xlink:href="#b"/>
<use x="343.126751" y="623.276082" xlink:href="#b"/>
<use x="521.425872" y="234.398654" xlink:href="#b"/>
<use x="1045.66931" y="234.398654" xlink:href="#b"/>
<use x="795.698345" y="429.345941" xlink:href="#b"/>
<use x="924.24981" y="623.276082" xlink:href="#b"/>
<use x="1065.568372" y="429.345941" xlink:href="#b"/>
<use x="1064.247638" y="623.276082" xlink:href="#b"/>
<use x="1378.582383" y="429.345941" xlink:href="#b"/>
<use x="1214.811339" y="623.276082" xlink:href="#b"/>
<use x="1294.055393" y="623.276082" xlink:href="#b"/>
<use x="1375.940915" y="623.276082" xlink:href="#b"/>
<use x="1460.467905" y="623.276082" xlink:href="#b"/>
<use x="992.92799" y="623.276082" xlink:href="#b"/>
<use x="1138.208754" y="623.276082" xlink:href="#b"/>
<use x="734.064082" y="623.276082" xlink:href="#b"/>
<use x="794.817856" y="623.276082" xlink:href="#b"/>
<use x="858.213099" y="623.276082" xlink:href="#b"/>
<use x="403.880526" y="623.276082" xlink:href="#b"/>
<use x="493.690453" y="429.345941" xlink:href="#b"/>
<use x="567.651569" y="623.276082" xlink:href="#b"/>
<use x="620.480938" y="623.276082" xlink:href="#b"/>
<use x="469.917237" y="623.276082" xlink:href="#b"/>
<use x="517.463669" y="623.276082" xlink:href="#b"/>
<use x="139.733681" y="623.276082" xlink:href="#b"/>
<use x="160.865428" y="623.276082" xlink:href="#b"/>
<use x="197.845987" y="429.345941" xlink:href="#b"/>
<use x="255.958293" y="623.276082" xlink:href="#b"/>
<use x="184.638645" y="623.276082" xlink:href="#b"/>
<use x="211.053329" y="623.276082" xlink:href="#b"/>
<use x="77.659172" y="429.345941" xlink:href="#b"/>
<use x="92.187249" y="623.276082" xlink:href="#b"/>
<use x="105.394591" y="623.276082" xlink:href="#b"/>
<use x="73.69697" y="623.276082" xlink:href="#b"/>
<use x="81.621375" y="623.276082" xlink:href="#b"/>
<use x="121.243402" y="623.276082" xlink:href="#b"/>
<use x="306.146193" y="623.276082" xlink:href="#b"/>
<use x="675.951776" y="623.276082" xlink:href="#b"/>
<use x="1547.636364" y="623.276082" xlink:href="#b"/>
</g>
<g clip-path="url(#a)">
<g transform="translate(64.398 817.3) scale(.1 -.1)">
<defs>
<path id="x" d="m54.891 33.016v-33.016h-8.9844v32.719q0 7.7656-3.0312 11.609-3.0312 3.8594-9.0781 3.8594-7.2812 0-11.484-4.6406-4.2031-4.625-4.2031-12.641v-30.906h-9.0312v75.984h9.0312v-29.797q3.2344 4.9375 7.5938 7.375 4.375 2.4375 10.094 2.4375 9.4219 0 14.25-5.8281 4.8438-5.8281 4.8438-17.156z"/>
</defs>
<use xlink:href="#k"/>
<use x="61.083984" xlink:href="#x"/>
<use x="124.462891" xlink:href="#d"/>
</g>
</g>
<g clip-path="url(#a)">
<g transform="translate(67.634 817.3) scale(.1 -.1)">
<defs>
<path id="ae" d="m48.688 27.297q0 9.9062-4.0781 15.547t-11.203 5.6406q-7.1406 0-11.219-5.6406t-4.0781-15.547 4.0781-15.547 11.219-5.6406q7.125 0 11.203 5.6406t4.0781 15.547zm-30.578 19.094q2.8438 4.875 7.1562 7.2344 4.3281 2.375 10.328 2.375 9.9688 0 16.188-7.9062 6.2344-7.9062 6.2344-20.797t-6.2344-20.812q-6.2188-7.9062-16.188-7.9062-6 0-10.328 2.375-4.3125 2.375-7.1562 7.25v-8.2031h-9.0312v75.984h9.0312z"/>
<path id="o" d="m44.281 53.078v-8.5q-3.7969 1.9531-7.9062 2.9219-4.0938 0.98438-8.5 0.98438-6.6875 0-10.031-2.0469t-3.3438-6.1562q0-3.125 2.3906-4.9062t9.625-3.3906l3.0781-0.6875q9.5625-2.0469 13.594-5.7812t4.0312-10.422q0-7.625-6.0312-12.078-6.0312-4.4375-16.578-4.4375-4.3906 0-9.1562 0.85938t-10.031 2.5625v9.2812q4.9844-2.5938 9.8125-3.8906 4.8281-1.2812 9.5781-1.2812 6.3438 0 9.75 2.1719 3.4219 2.1719 3.4219 6.125 0 3.6562-2.4688 5.6094-2.4531 1.9531-10.812 3.7656l-3.125 0.73438q-8.3438 1.75-12.062 5.3906-3.7031 3.6406-3.7031 9.9844 0 7.7188 5.4688 11.906 5.4688 4.2031 15.531 4.2031 4.9688 0 9.3594-0.73438 4.4062-0.71875 8.1094-2.1875z"/>
</defs>
<use xlink:href="#ae"/>
<use x="63.476562" xlink:href="#d"/>
<use x="125" xlink:href="#d"/>
<use x="186.523438" xlink:href="#g"/>
<use x="227.636719" xlink:href="#o"/>
</g>
</g>
<g clip-path="url(#a)">
<g transform="translate(80.002 817.3) scale(.1 -.1)">
<defs>
<path id="ac" d="m4.2031 54.688h8.9844l11.234-42.672 11.172 42.672h10.594l11.234-42.672 11.188 42.672h8.9844l-14.312-54.688h-10.594l-11.766 44.828-11.812-44.828h-10.609z"/>
</defs>
<use xlink:href="#ac"/>
<use x="81.787109" xlink:href="#d"/>
<use x="143.310547" xlink:href="#g"/>
<use x="182.173828" xlink:href="#d"/>
</g>
</g>
<g clip-path="url(#a)">
<g transform="translate(92.927 817.3) scale(.1 -.1)">
<defs>
<path id="aq" d="m45.406 27.984q0 9.7656-4.0312 15.125-4.0156 5.375-11.297 5.375-7.2188 0-11.25-5.375-4.0312-5.3594-4.0312-15.125 0-9.7188 4.0312-15.094t11.25-5.375q7.2812 0 11.297 5.375 4.0312 5.375 4.0312 15.094zm8.9844-21.203q0-13.953-6.2031-20.766-6.1875-6.8125-18.984-6.8125-4.7344 0-8.9375 0.70312t-8.1562 2.1719v8.7344q3.9531-2.1406 7.8125-3.1562 3.8594-1.0312 7.8594-1.0312 8.8438 0 13.234 4.6094t4.3906 13.938v4.4531q-2.7812-4.8438-7.125-7.2344t-10.406-2.3906q-10.047 0-16.203 7.6562-6.1562 7.6719-6.1562 20.328 0 12.688 6.1562 20.344 6.1562 7.6719 16.203 7.6719 6.0625 0 10.406-2.3906t7.125-7.2188v8.2969h8.9844z"/>
<path id="s" d="m30.609 48.391q-7.2188 0-11.422-5.6406t-4.2031-15.453 4.1719-15.453q4.1875-5.6406 11.453-5.6406 7.1875 0 11.375 5.6562 4.2031 5.6719 4.2031 15.438 0 9.7188-4.2031 15.406-4.1875 5.6875-11.375 5.6875zm0 7.6094q11.719 0 18.406-7.625 6.7031-7.6094 6.7031-21.078 0-13.422-6.7031-21.078-6.6875-7.6406-18.406-7.6406-11.766 0-18.438 7.6406-6.6562 7.6562-6.6562 21.078 0 13.469 6.6562 21.078 6.6719 7.625 18.438 7.625z"/>
<path id="y" d="m45.406 46.391v29.594h8.9844v-75.984h-8.9844v8.2031q-2.8281-4.875-7.1562-7.25-4.3125-2.375-10.375-2.375-9.9062 0-16.141 7.9062-6.2188 7.9219-6.2188 20.812t6.2188 20.797q6.2344 7.9062 16.141 7.9062 6.0625 0 10.375-2.375 4.3281-2.3594 7.1562-7.2344zm-30.609-19.094q0-9.9062 4.0781-15.547t11.203-5.6406 11.219 5.6406q4.1094 5.6406 4.1094 15.547t-4.1094 15.547q-4.0938 5.6406-11.219 5.6406t-11.203-5.6406-4.0781-15.547z"/>
</defs>
<use xlink:href="#aq"/>
<use x="63.476562" xlink:href="#s"/>
<use x="124.658203" xlink:href="#s"/>
<use x="185.839844" xlink:href="#y"/>
</g>
</g>
<g clip-path="url(#a)">
<g transform="translate(119.65 817.3) scale(.1 -.1)">
<defs>
<path id="ak" d="m11.719 12.406h10.297v-8.4062l-8-15.625h-6.2969l4 15.625z"/>
</defs>
<use xlink:href="#ak"/>
</g>
</g>
<g clip-path="url(#a)">
<g transform="translate(129.35 817.3) scale(.1 -.1)">
<defs>
<path id="u" d="m48.781 52.594v-8.4062q-3.8125 2.1094-7.6406 3.1562t-7.7344 1.0469q-8.75 0-13.594-5.5469-4.8281-5.5312-4.8281-15.547t4.8281-15.562q4.8438-5.5312 13.594-5.5312 3.9062 0 7.7344 1.0469t7.6406 3.1562v-8.3125q-3.7656-1.75-7.7969-2.625-4.0156-0.89062-8.5625-0.89062-12.359 0-19.641 7.7656-7.2656 7.7656-7.2656 20.953 0 13.375 7.3438 21.031 7.3594 7.6719 20.156 7.6719 4.1406 0 8.0938-0.85938 3.9531-0.84375 7.6719-2.5469z"/>
</defs>
<use xlink:href="#i"/>
<use x="63.378906" xlink:href="#h"/>
<use x="91.162109" xlink:href="#u"/>
<use x="146.142578" xlink:href="#d"/>
</g>
</g>
<g clip-path="url(#a)">
<g transform="translate(144.67 817.3) scale(.1 -.1)">
<use xlink:href="#u"/>
<use x="54.980469" xlink:href="#x"/>
<use x="118.359375" xlink:href="#s"/>
<use x="179.541016" xlink:href="#h"/>
<use x="207.324219" xlink:href="#u"/>
<use x="262.304688" xlink:href="#d"/>
</g>
</g>
<g clip-path="url(#a)">
<g transform="translate(179.82 817.3) scale(.1 -.1)">
<defs>
<path id="as" d="m37.109 75.984v-7.4844h-8.5938q-4.8281 0-6.7188-1.9531-1.875-1.9531-1.875-7.0312v-4.8281h14.797v-6.9844h-14.797v-47.703h-9.0312v47.703h-8.5938v6.9844h8.5938v3.8125q0 9.125 4.25 13.297 4.25 4.1875 13.469 4.1875z"/>
</defs>
<use xlink:href="#s"/>
<use x="61.181641" xlink:href="#as"/>
</g>
</g>
<g clip-path="url(#a)">
<g transform="translate(197.07 817.3) scale(.1 -.1)">
<use xlink:href="#ae"/>
<use x="63.476562" xlink:href="#d"/>
<use x="125" xlink:href="#d"/>
<use x="186.523438" xlink:href="#g"/>
<use x="227.636719" xlink:href="#o"/>
</g>
</g>
<g clip-path="url(#a)">
<g transform="translate(234.44 817.3) scale(.1 -.1)">
<use xlink:href="#e"/>
<use x="61.279297" xlink:href="#o"/>
</g>
</g>
<g clip-path="url(#a)">
<g transform="translate(261.86 817.3) scale(.1 -.1)">
<use xlink:href="#ac"/>
<use x="81.787109" xlink:href="#d"/>
<use x="143.310547" xlink:href="#j"/>
<use x="171.09375" xlink:href="#j"/>
</g>
</g>
<g clip-path="url(#a)">
<g transform="translate(304.56 817.3) scale(.1 -.1)">
<use xlink:href="#ak"/>
</g>
</g>
<g clip-path="url(#a)">
<g transform="translate(333.72 817.3) scale(.1 -.1)">
<use xlink:href="#e"/>
<use x="61.279297" xlink:href="#i"/>
<use x="124.658203" xlink:href="#y"/>
</g>
</g>
<g clip-path="url(#a)">
<g transform="translate(377.08 817.3) scale(.1 -.1)">
<use xlink:href="#e"/>
<use x="61.279297" xlink:href="#o"/>
</g>
</g>
<g clip-path="url(#a)">
<g transform="translate(411.62 817.3) scale(.1 -.1)">
<defs>
<path id="ad" d="m8.5 21.578v33.109h8.9844v-32.766q0-7.7656 3.0156-11.656 3.0312-3.875 9.0938-3.875 7.2656 0 11.484 4.6406 4.2344 4.6406 4.2344 12.656v31h8.9844v-54.688h-8.9844v8.4062q-3.2656-4.9844-7.5938-7.4062-4.3125-2.4219-10.031-2.4219-9.4219 0-14.312 5.8594-4.875 5.8594-4.875 17.141z"/>
</defs>
<use xlink:href="#ad"/>
<use x="63.378906" xlink:href="#o"/>
<use x="115.478516" xlink:href="#ad"/>
<use x="178.857422" xlink:href="#e"/>
<use x="240.136719" xlink:href="#j"/>
</g>
</g>
<g clip-path="url(#a)">
<g transform="translate(461.71 817.3) scale(.1 -.1)">
<defs>
<path id="r" d="m18.312 70.219v-15.531h18.5v-6.9844h-18.5v-29.688q0-6.6875 1.8281-8.5938t7.4531-1.9062h9.2188v-7.5156h-9.2188q-10.406 0-14.359 3.875-3.9531 3.8906-3.9531 14.141v29.688h-6.5938v6.9844h6.5938v15.531z"/>
</defs>
<use xlink:href="#r"/>
<use x="39.208984" xlink:href="#x"/>
<use x="102.587891" xlink:href="#d"/>
</g>
</g>
<g clip-path="url(#a)">
<g transform="translate(497.14 817.3) scale(.1 -.1)">
<use xlink:href="#l"/>
<use x="97.412109" xlink:href="#ad"/>
<use x="160.791016" xlink:href="#o"/>
<use x="212.890625" xlink:href="#o"/>
<use x="264.990234" xlink:href="#d"/>
<use x="326.513672" xlink:href="#j"/>
<use x="354.296875" xlink:href="#o"/>
</g>
</g>
<g clip-path="url(#a)">
<g transform="translate(555.47 817.3) scale(.1 -.1)">
<use xlink:href="#ac"/>
<use x="81.787109" xlink:href="#d"/>
<use x="143.310547" xlink:href="#g"/>
<use x="182.173828" xlink:href="#d"/>
</g>
</g>
<g clip-path="url(#a)">
<g transform="translate(607.26 817.3) scale(.1 -.1)">
<use xlink:href="#aq"/>
<use x="63.476562" xlink:href="#g"/>
<use x="102.339844" xlink:href="#d"/>
<use x="163.863281" xlink:href="#e"/>
<use x="225.142578" xlink:href="#r"/>
</g>
</g>
<g clip-path="url(#a)">
<g transform="translate(674.36 817.3) scale(.1 -.1)">
<use xlink:href="#ak"/>
</g>
</g>
<g clip-path="url(#a)">
<g transform="translate(725.86 817.3) scale(.1 -.1)">
<use xlink:href="#r"/>
<use x="39.208984" xlink:href="#x"/>
<use x="102.587891" xlink:href="#d"/>
</g>
</g>
<g clip-path="url(#a)">
<g transform="translate(781.36 817.3) scale(.1 -.1)">
<defs>
<path id="ap" d="m18.109 8.2031v-29h-9.0312v75.484h9.0312v-8.2969q2.8438 4.875 7.1562 7.2344 4.3281 2.375 10.328 2.375 9.9688 0 16.188-7.9062 6.2344-7.9062 6.2344-20.797t-6.2344-20.812q-6.2188-7.9062-16.188-7.9062-6 0-10.328 2.375-4.3125 2.375-7.1562 7.25zm30.578 19.094q0 9.9062-4.0781 15.547t-11.203 5.6406q-7.1406 0-11.219-5.6406t-4.0781-15.547 4.0781-15.547 11.219-5.6406q7.125 0 11.203 5.6406t4.0781 15.547z"/>
</defs>
<use xlink:href="#ap"/>
<use x="63.476562" xlink:href="#j"/>
<use x="91.259766" xlink:href="#e"/>
<use x="152.539062" xlink:href="#u"/>
<use x="207.519531" xlink:href="#d"/>
</g>
</g>
<g clip-path="url(#a)">
<g transform="translate(838.19 817.3) scale(.1 -.1)">
<use xlink:href="#ad"/>
<use x="63.378906" xlink:href="#ap"/>
<use x="126.855469" xlink:href="#o"/>
<use x="178.955078" xlink:href="#r"/>
<use x="218.164062" xlink:href="#e"/>
<use x="279.443359" xlink:href="#h"/>
<use x="307.226562" xlink:href="#g"/>
<use x="348.339844" xlink:href="#o"/>
</g>
</g>
<g clip-path="url(#a)">
<g transform="translate(920.26 817.3) scale(.1 -.1)">
<use xlink:href="#h"/>
<use x="27.783203" xlink:href="#o"/>
</g>
</g>
<g clip-path="url(#a)">
<g transform="translate(989.86 817.3) scale(.1 -.1)">
<use xlink:href="#e"/>
</g>
</g>
<g clip-path="url(#a)">
<g transform="translate(1053.9 817.3) scale(.1 -.1)">
<use xlink:href="#i"/>
<use x="63.378906" xlink:href="#h"/>
<use x="91.162109" xlink:href="#u"/>
<use x="146.142578" xlink:href="#d"/>
</g>
</g>
<g clip-path="url(#a)">
<g transform="translate(1117.8 817.3) scale(.1 -.1)">
<use xlink:href="#e"/>
<use x="61.279297" xlink:href="#y"/>
<use x="124.755859" xlink:href="#y"/>
<use x="188.232422" xlink:href="#h"/>
<use x="216.015625" xlink:href="#r"/>
<use x="255.224609" xlink:href="#h"/>
<use x="283.007812" xlink:href="#s"/>
<use x="344.189453" xlink:href="#i"/>
</g>
</g>
<g clip-path="url(#a)">
<g transform="translate(1209.8 817.3) scale(.1 -.1)">
<use xlink:href="#r"/>
<use x="39.208984" xlink:href="#s"/>
</g>
</g>
<g clip-path="url(#a)">
<g transform="translate(1285.8 817.3) scale(.1 -.1)">
<use xlink:href="#r"/>
<use x="39.208984" xlink:href="#x"/>
<use x="102.587891" xlink:href="#d"/>
</g>
</g>
<g clip-path="url(#a)">
<g transform="translate(1367.6 817.3) scale(.1 -.1)">
<use xlink:href="#ae"/>
<use x="63.476562" xlink:href="#e"/>
<use x="124.755859" xlink:href="#g"/>
</g>
</g>
<g clip-path="url(#a)">
<g transform="translate(1433.3 817.3) scale(.1 -.1)">
<use xlink:href="#y"/>
<use x="63.476562" xlink:href="#s"/>
<use x="124.658203" xlink:href="#ac"/>
<use x="206.445312" xlink:href="#i"/>
<use x="269.824219" xlink:href="#o"/>
<use x="321.923828" xlink:href="#r"/>
<use x="361.132812" xlink:href="#e"/>
<use x="422.412109" xlink:href="#h"/>
<use x="450.195312" xlink:href="#g"/>
<use x="491.308594" xlink:href="#o"/>
</g>
</g>
<g clip-path="url(#a)">
<g transform="translate(1546 817.3) scale(.1 -.1)">
<defs>
<path id="f" d="m10.688 12.406h10.312v-12.406h-10.312z"/>
</defs>
<use xlink:href="#f"/>
</g>
</g>
<g clip-path="url(#a)">
<g transform="translate(403.79 41.547) scale(.1 -.1)">
<defs>
<path id="c" d="m12.406 8.2969h16.109v55.625l-17.531-3.5156v8.9844l17.438 3.5156h9.8594v-64.609h16.109v-8.2969h-41.984z"/>
</defs>
<use xlink:href="#c"/>
<use x="63.623047" xlink:href="#f"/>
<use x="95.410156" xlink:href="#c"/>
</g>
</g>
<g clip-path="url(#a)">
<g transform="translate(83.795 237.16) scale(.1 -.1)">
<defs>
<path id="n" d="m19.188 8.2969h34.422v-8.2969h-46.281v8.2969q5.6094 5.8125 15.297 15.594 9.7031 9.7969 12.188 12.641 4.7344 5.3125 6.6094 9 1.8906 3.6875 1.8906 7.25 0 5.8125-4.0781 9.4688-4.0781 3.6719-10.625 3.6719-4.6406 0-9.7969-1.6094-5.1406-1.6094-11-4.8906v9.9688q5.9531 2.3906 11.125 3.6094 5.1875 1.2188 9.4844 1.2188 11.328 0 18.062-5.6719 6.7344-5.6562 6.7344-15.125 0-4.5-1.6875-8.5312-1.6719-4.0156-6.125-9.4844-1.2188-1.4219-7.7656-8.1875-6.5312-6.7656-18.453-18.922z"/>
</defs>
<use xlink:href="#c"/>
<use x="63.623047" xlink:href="#f"/>
<use x="95.410156" xlink:href="#n"/>
</g>
</g>
<g clip-path="url(#a)">
<g transform="translate(180.65 237.16) scale(.1 -.1)">
<defs>
<path id="m" d="m40.578 39.312q7.0781-1.5156 11.047-6.3125 3.9844-4.7812 3.9844-11.812 0-10.781-7.4219-16.703-7.4219-5.9062-21.094-5.9062-4.5781 0-9.4375 0.90625t-10.031 2.7188v9.5156q4.0938-2.3906 8.9688-3.6094 4.8906-1.2188 10.219-1.2188 9.2656 0 14.125 3.6562t4.8594 10.641q0 6.4531-4.5156 10.078-4.5156 3.6406-12.562 3.6406h-8.5v8.1094h8.8906q7.2656 0 11.125 2.9062t3.8594 8.375q0 5.6094-3.9844 8.6094-3.9688 3.0156-11.391 3.0156-4.0625 0-8.7031-0.89062-4.6406-0.875-10.203-2.7188v8.7812q5.625 1.5625 10.531 2.3438t9.25 0.78125q11.234 0 17.766-5.1094 6.5469-5.0938 6.5469-13.781 0-6.0625-3.4688-10.234t-9.8594-5.7812z"/>
</defs>
<use xlink:href="#c"/>
<use x="63.623047" xlink:href="#f"/>
<use x="95.410156" xlink:href="#m"/>
</g>
</g>
<g clip-path="url(#a)">
<g transform="translate(335.18 626.04) scale(.1 -.1)">
<defs>
<path id="p" d="m37.797 64.312-24.906-38.922h24.906zm-2.5938 8.5938h12.406v-47.516h10.406v-8.2031h-10.406v-17.188h-9.8125v17.188h-32.906v9.5156z"/>
</defs>
<use xlink:href="#c"/>
<use x="63.623047" xlink:href="#f"/>
<use x="95.410156" xlink:href="#p"/>
</g>
</g>
<g clip-path="url(#a)">
<g transform="translate(513.47 237.16) scale(.1 -.1)">
<defs>
<path id="w" d="m10.797 72.906h38.719v-8.3125h-29.688v-17.859q2.1406 0.73438 4.2812 1.0938 2.1562 0.35938 4.3125 0.35938 12.203 0 19.328-6.6875 7.1406-6.6875 7.1406-18.109 0-11.766-7.3281-18.297-7.3281-6.5156-20.656-6.5156-4.5938 0-9.3594 0.78125-4.75 0.78125-9.8281 2.3438v9.9219q4.3906-2.3906 9.0781-3.5625t9.9062-1.1719q8.4531 0 13.375 4.4375 4.9375 4.4375 4.9375 12.062 0 7.6094-4.9375 12.047-4.9219 4.4531-13.375 4.4531-3.9531 0-7.8906-0.875-3.9219-0.875-8.0156-2.7344z"/>
</defs>
<use xlink:href="#c"/>
<use x="63.623047" xlink:href="#f"/>
<use x="95.410156" xlink:href="#w"/>
</g>
</g>
<g clip-path="url(#a)">
<g transform="translate(1037.7 237.16) scale(.1 -.1)">
<defs>
<path id="ab" d="m33.016 40.375q-6.6406 0-10.531-4.5469-3.875-4.5312-3.875-12.438 0-7.8594 3.875-12.438 3.8906-4.5625 10.531-4.5625t10.516 4.5625q3.875 4.5781 3.875 12.438 0 7.9062-3.875 12.438-3.875 4.5469-10.516 4.5469zm19.578 30.922v-8.9844q-3.7188 1.75-7.5 2.6719-3.7812 0.9375-7.5 0.9375-9.7656 0-14.922-6.5938-5.1406-6.5938-5.875-19.922 2.875 4.25 7.2188 6.5156 4.3594 2.2656 9.5781 2.2656 10.984 0 17.359-6.6719 6.375-6.6562 6.375-18.125 0-11.234-6.6406-18.031-6.6406-6.7812-17.672-6.7812-12.656 0-19.344 9.6875-6.6875 9.7031-6.6875 28.109 0 17.281 8.2031 27.562t22.016 10.281q3.7188 0 7.5-0.73438t7.8906-2.1875z"/>
</defs>
<use xlink:href="#c"/>
<use x="63.623047" xlink:href="#f"/>
<use x="95.410156" xlink:href="#ab"/>
</g>
</g>
<g clip-path="url(#a)">
<g transform="translate(784.57 432.11) scale(.1 -.1)">
<use xlink:href="#c"/>
<use x="63.623047" xlink:href="#f"/>
<use x="95.410156" xlink:href="#c"/>
<use x="159.033203" xlink:href="#c"/>
</g>
</g>
<g clip-path="url(#a)">
<g transform="translate(913.12 626.04) scale(.1 -.1)">
<use xlink:href="#c"/>
<use x="63.623047" xlink:href="#f"/>
<use x="95.410156" xlink:href="#c"/>
<use x="159.033203" xlink:href="#n"/>
</g>
</g>
<g clip-path="url(#a)">
<g transform="translate(1054.4 432.11) scale(.1 -.1)">
<use xlink:href="#c"/>
<use x="63.623047" xlink:href="#f"/>
<use x="95.410156" xlink:href="#c"/>
<use x="159.033203" xlink:href="#m"/>
</g>
</g>
<g clip-path="url(#a)">
<g transform="translate(1053.1 626.04) scale(.1 -.1)">
<use xlink:href="#c"/>
<use x="63.623047" xlink:href="#f"/>
<use x="95.410156" xlink:href="#c"/>
<use x="159.033203" xlink:href="#p"/>
</g>
</g>
<g clip-path="url(#a)">
<g transform="translate(1367.4 432.11) scale(.1 -.1)">
<use xlink:href="#c"/>
<use x="63.623047" xlink:href="#f"/>
<use x="95.410156" xlink:href="#c"/>
<use x="159.033203" xlink:href="#w"/>
</g>
</g>
<g clip-path="url(#a)">
<g transform="translate(1203.7 626.04) scale(.1 -.1)">
<use xlink:href="#c"/>
<use x="63.623047" xlink:href="#f"/>
<use x="95.410156" xlink:href="#c"/>
<use x="159.033203" xlink:href="#ab"/>
</g>
</g>
<g clip-path="url(#a)">
<g transform="translate(1282.9 626.04) scale(.1 -.1)">
<defs>
<path id="ai" d="m8.2031 72.906h46.875v-4.2031l-26.469-68.703h-10.297l24.906 64.594h-35.016z"/>
</defs>
<use xlink:href="#c"/>
<use x="63.623047" xlink:href="#f"/>
<use x="95.410156" xlink:href="#c"/>
<use x="159.033203" xlink:href="#ai"/>
</g>
</g>
<g clip-path="url(#a)">
<g transform="translate(1364.8 626.04) scale(.1 -.1)">
<defs>
<path id="ah" d="m31.781 34.625q-7.0312 0-11.062-3.7656-4.0156-3.7656-4.0156-10.344 0-6.5938 4.0156-10.359 4.0312-3.7656 11.062-3.7656t11.078 3.7812q4.0625 3.7969 4.0625 10.344 0 6.5781-4.0312 10.344-4.0156 3.7656-11.109 3.7656zm-9.8594 4.1875q-6.3438 1.5625-9.8906 5.9062-3.5312 4.3594-3.5312 10.609 0 8.7344 6.2188 13.812 6.2344 5.0781 17.062 5.0781 10.891 0 17.094-5.0781t6.2031-13.812q0-6.25-3.5469-10.609-3.5312-4.3438-9.8281-5.9062 7.125-1.6562 11.094-6.5 3.9844-4.8281 3.9844-11.797 0-10.609-6.4688-16.281-6.4688-5.6562-18.531-5.6562-12.047 0-18.531 5.6562-6.4688 5.6719-6.4688 16.281 0 6.9688 4 11.797 4.0156 4.8438 11.141 6.5zm-3.6094 15.578q0-5.6562 3.5312-8.8281 3.5469-3.1719 9.9375-3.1719 6.3594 0 9.9375 3.1719 3.5938 3.1719 3.5938 8.8281 0 5.6719-3.5938 8.8438-3.5781 3.1719-9.9375 3.1719-6.3906 0-9.9375-3.1719-3.5312-3.1719-3.5312-8.8438z"/>
</defs>
<use xlink:href="#c"/>
<use x="63.623047" xlink:href="#f"/>
<use x="95.410156" xlink:href="#c"/>
<use x="159.033203" xlink:href="#ah"/>
</g>
</g>
<g clip-path="url(#a)">
<g transform="translate(1449.3 626.04) scale(.1 -.1)">
<defs>
<path id="ag" d="m10.984 1.5156v8.9844q3.7188-1.7656 7.5156-2.6875 3.8125-0.92188 7.4844-0.92188 9.7656 0 14.906 6.5625 5.1562 6.5625 5.8906 19.953-2.8281-4.2031-7.1875-6.4531-4.3438-2.25-9.6094-2.25-10.938 0-17.312 6.6094-6.375 6.625-6.375 18.109 0 11.219 6.6406 18 6.6406 6.7969 17.672 6.7969 12.656 0 19.312-9.7031 6.6719-9.6875 6.6719-28.141 0-17.234-8.1875-27.516-8.1719-10.281-21.984-10.281-3.7188 0-7.5312 0.73438-3.7969 0.73438-7.9062 2.2031zm19.625 30.906q6.6406 0 10.516 4.5312 3.8906 4.5469 3.8906 12.469 0 7.8594-3.8906 12.422-3.875 4.5625-10.516 4.5625t-10.516-4.5625-3.875-12.422q0-7.9219 3.875-12.469 3.875-4.5312 10.516-4.5312z"/>
</defs>
<use xlink:href="#c"/>
<use x="63.623047" xlink:href="#f"/>
<use x="95.410156" xlink:href="#c"/>
<use x="159.033203" xlink:href="#ag"/>
</g>
</g>
<g clip-path="url(#a)">
<g transform="translate(981.8 626.04) scale(.1 -.1)">
<defs>
<path id="aj" d="m31.781 66.406q-7.6094 0-11.453-7.5-3.8281-7.4844-3.8281-22.531 0-14.984 3.8281-22.484 3.8438-7.5 11.453-7.5 7.6719 0 11.5 7.5 3.8438 7.5 3.8438 22.484 0 15.047-3.8438 22.531-3.8281 7.5-11.5 7.5zm0 7.8125q12.266 0 18.734-9.7031 6.4688-9.6875 6.4688-28.141 0-18.406-6.4688-28.109-6.4688-9.6875-18.734-9.6875-12.25 0-18.719 9.6875-6.4688 9.7031-6.4688 28.109 0 18.453 6.4688 28.141 6.4688 9.7031 18.719 9.7031z"/>
</defs>
<use xlink:href="#c"/>
<use x="63.623047" xlink:href="#f"/>
<use x="95.410156" xlink:href="#n"/>
<use x="159.033203" xlink:href="#aj"/>
</g>
</g>
<g clip-path="url(#a)">
<g transform="translate(1127.1 626.04) scale(.1 -.1)">
<use xlink:href="#c"/>
<use x="63.623047" xlink:href="#f"/>
<use x="95.410156" xlink:href="#n"/>
<use x="159.033203" xlink:href="#c"/>
</g>
</g>
<g clip-path="url(#a)">
<g transform="translate(722.93 626.04) scale(.1 -.1)">
<use xlink:href="#c"/>
<use x="63.623047" xlink:href="#f"/>
<use x="95.410156" xlink:href="#n"/>
<use x="159.033203" xlink:href="#n"/>
</g>
</g>
<g clip-path="url(#a)">
<g transform="translate(783.69 626.04) scale(.1 -.1)">
<use xlink:href="#c"/>
<use x="63.623047" xlink:href="#f"/>
<use x="95.410156" xlink:href="#n"/>
<use x="159.033203" xlink:href="#m"/>
</g>
</g>
<g clip-path="url(#a)">
<g transform="translate(847.08 626.04) scale(.1 -.1)">
<use xlink:href="#c"/>
<use x="63.623047" xlink:href="#f"/>
<use x="95.410156" xlink:href="#n"/>
<use x="159.033203" xlink:href="#p"/>
</g>
</g>
<g clip-path="url(#a)">
<g transform="translate(392.75 626.04) scale(.1 -.1)">
<use xlink:href="#c"/>
<use x="63.623047" xlink:href="#f"/>
<use x="95.410156" xlink:href="#n"/>
<use x="159.033203" xlink:href="#w"/>
</g>
</g>
<g clip-path="url(#a)">
<g transform="translate(482.56 432.11) scale(.1 -.1)">
<use xlink:href="#c"/>
<use x="63.623047" xlink:href="#f"/>
<use x="95.410156" xlink:href="#n"/>
<use x="159.033203" xlink:href="#ab"/>
</g>
</g>
<g clip-path="url(#a)">
<g transform="translate(556.52 626.04) scale(.1 -.1)">
<use xlink:href="#c"/>
<use x="63.623047" xlink:href="#f"/>
<use x="95.410156" xlink:href="#n"/>
<use x="159.033203" xlink:href="#ai"/>
</g>
</g>
<g clip-path="url(#a)">
<g transform="translate(609.35 626.04) scale(.1 -.1)">
<use xlink:href="#c"/>
<use x="63.623047" xlink:href="#f"/>
<use x="95.410156" xlink:href="#n"/>
<use x="159.033203" xlink:href="#ah"/>
</g>
</g>
<g clip-path="url(#a)">
<g transform="translate(458.78 626.04) scale(.1 -.1)">
<use xlink:href="#c"/>
<use x="63.623047" xlink:href="#f"/>
<use x="95.410156" xlink:href="#n"/>
<use x="159.033203" xlink:href="#ag"/>
</g>
</g>
<g clip-path="url(#a)">
<g transform="translate(506.33 626.04) scale(.1 -.1)">
<use xlink:href="#c"/>
<use x="63.623047" xlink:href="#f"/>
<use x="95.410156" xlink:href="#m"/>
<use x="159.033203" xlink:href="#aj"/>
</g>
</g>
<g clip-path="url(#a)">
<g transform="translate(128.6 626.04) scale(.1 -.1)">
<use xlink:href="#c"/>
<use x="63.623047" xlink:href="#f"/>
<use x="95.410156" xlink:href="#m"/>
<use x="159.033203" xlink:href="#c"/>
</g>
</g>
<g clip-path="url(#a)">
<g transform="translate(149.73 626.04) scale(.1 -.1)">
<use xlink:href="#c"/>
<use x="63.623047" xlink:href="#f"/>
<use x="95.410156" xlink:href="#m"/>
<use x="159.033203" xlink:href="#n"/>
</g>
</g>
<g clip-path="url(#a)">
<g transform="translate(186.71 432.11) scale(.1 -.1)">
<use xlink:href="#c"/>
<use x="63.623047" xlink:href="#f"/>
<use x="95.410156" xlink:href="#m"/>
<use x="159.033203" xlink:href="#m"/>
</g>
</g>
<g clip-path="url(#a)">
<g transform="translate(244.83 626.04) scale(.1 -.1)">
<use xlink:href="#c"/>
<use x="63.623047" xlink:href="#f"/>
<use x="95.410156" xlink:href="#m"/>
<use x="159.033203" xlink:href="#p"/>
</g>
</g>
<g clip-path="url(#a)">
<g transform="translate(173.51 626.04) scale(.1 -.1)">
<use xlink:href="#c"/>
<use x="63.623047" xlink:href="#f"/>
<use x="95.410156" xlink:href="#m"/>
<use x="159.033203" xlink:href="#w"/>
</g>
</g>
<g clip-path="url(#a)">
<g transform="translate(199.92 626.04) scale(.1 -.1)">
<use xlink:href="#c"/>
<use x="63.623047" xlink:href="#f"/>
<use x="95.410156" xlink:href="#m"/>
<use x="159.033203" xlink:href="#ab"/>
</g>
</g>
<g clip-path="url(#a)">
<g transform="translate(66.526 432.11) scale(.1 -.1)">
<use xlink:href="#c"/>
<use x="63.623047" xlink:href="#f"/>
<use x="95.410156" xlink:href="#m"/>
<use x="159.033203" xlink:href="#ai"/>
</g>
</g>
<g clip-path="url(#a)">
<g transform="translate(81.054 626.04) scale(.1 -.1)">
<use xlink:href="#c"/>
<use x="63.623047" xlink:href="#f"/>
<use x="95.410156" xlink:href="#m"/>
<use x="159.033203" xlink:href="#ah"/>
</g>
</g>
<g clip-path="url(#a)">
<g transform="translate(94.262 626.04) scale(.1 -.1)">
<use xlink:href="#c"/>
<use x="63.623047" xlink:href="#f"/>
<use x="95.410156" xlink:href="#m"/>
<use x="159.033203" xlink:href="#ag"/>
</g>
</g>
<g clip-path="url(#a)">
<g transform="translate(62.564 626.04) scale(.1 -.1)">
<use xlink:href="#c"/>
<use x="63.623047" xlink:href="#f"/>
<use x="95.410156" xlink:href="#p"/>
<use x="159.033203" xlink:href="#aj"/>
</g>
</g>
<g clip-path="url(#a)">
<g transform="translate(70.489 626.04) scale(.1 -.1)">
<use xlink:href="#c"/>
<use x="63.623047" xlink:href="#f"/>
<use x="95.410156" xlink:href="#p"/>
<use x="159.033203" xlink:href="#c"/>
</g>
</g>
<g clip-path="url(#a)">
<g transform="translate(110.11 626.04) scale(.1 -.1)">
<use xlink:href="#c"/>
<use x="63.623047" xlink:href="#f"/>
<use x="95.410156" xlink:href="#p"/>
<use x="159.033203" xlink:href="#n"/>
</g>
</g>
<g clip-path="url(#a)">
<g transform="translate(295.01 626.04) scale(.1 -.1)">
<use xlink:href="#c"/>
<use x="63.623047" xlink:href="#f"/>
<use x="95.410156" xlink:href="#p"/>
<use x="159.033203" xlink:href="#m"/>
</g>
</g>
<g clip-path="url(#a)">
<g transform="translate(664.82 626.04) scale(.1 -.1)">
<use xlink:href="#c"/>
<use x="63.623047" xlink:href="#f"/>
<use x="95.410156" xlink:href="#p"/>
<use x="159.033203" xlink:href="#p"/>
</g>
</g>
<g clip-path="url(#a)">
<g transform="translate(1536.5 626.04) scale(.1 -.1)">
<use xlink:href="#c"/>
<use x="63.623047" xlink:href="#f"/>
<use x="95.410156" xlink:href="#p"/>
<use x="159.033203" xlink:href="#w"/>
</g>
</g>
<defs>
<clipPath id="a">
<rect width="1621.3" height="853.33"/>
</clipPath>
</defs>
</svg>
