<?xml version="1.0" encoding="UTF-8"?>
<!DOCTYPE svg  PUBLIC '-//W3C//DTD SVG 1.1//EN'  'http://www.w3.org/Graphics/SVG/1.1/DTD/svg11.dtd'>
<svg width="1317.3pt" height="693.33pt" version="1.1" viewBox="0 0 1317.3 693.33" xmlns="http://www.w3.org/2000/svg" xmlns:xlink="http://www.w3.org/1999/xlink">
<defs>
<style type="text/css">*{stroke-linecap:butt;stroke-linejoin:round;}</style>
</defs>
<path d="m0 693.33h1317.3v-693.33h-1317.3z" fill="#fff"/>
<g fill="none" stroke="#000">
<path d="m214.43 31.515-129.13 317.33" clip-path="url(#a)"/>
<path d="m214.43 31.515 11.516 553.14" clip-path="url(#a)"/>
<path d="m214.43 31.515 117.62 79.524" clip-path="url(#a)"/>
<path d="m85.294 348.84-25.415 235.81" clip-path="url(#a)"/>
<path d="m85.294 348.84-15.835 235.81" clip-path="url(#a)"/>
<path d="m85.294 348.84-3.0605 235.81" clip-path="url(#a)"/>
<path d="m85.294 348.84 44.31 78.918" clip-path="url(#a)"/>
<path d="m225.94 584.65v77.166" clip-path="url(#a)"/>
<path d="m332.04 111.04-70.973 473.61" clip-path="url(#a)"/>
<path d="m332.04 111.04-32.651 473.61" clip-path="url(#a)"/>
<path d="m332.04 111.04 375.79 79.41" clip-path="url(#a)"/>
<path d="m332.04 111.04-272.17 473.61" clip-path="url(#a)" stroke-dasharray="3.7,1.6"/>
<path d="m261.07 584.65v77.166" clip-path="url(#a)"/>
<path d="m299.39 584.65v77.166" clip-path="url(#a)"/>
<path d="m707.83 190.45-366.92 394.2" clip-path="url(#a)"/>
<path d="m707.83 190.45-208.05 79.277" clip-path="url(#a)"/>
<path d="m707.83 190.45 151.49 394.2" clip-path="url(#a)"/>
<path d="m707.83 190.45 423.48 315.96" clip-path="url(#a)"/>
<path d="m340.91 584.65v77.166" clip-path="url(#a)"/>
<path d="m499.79 269.73-114.17 314.93" clip-path="url(#a)"/>
<path d="m499.79 269.73-15.169 314.93" clip-path="url(#a)"/>
<path d="m499.79 269.73 38.322 79.118" clip-path="url(#a)"/>
<path d="m499.79 269.73 91.016 79.118" clip-path="url(#a)"/>
<path d="m859.33 584.65-71.322 77.166" clip-path="url(#a)"/>
<path d="m859.33 584.65-1.0645 77.166" clip-path="url(#a)"/>
<path d="m859.33 584.65 72.387 77.166" clip-path="url(#a)"/>
<path d="m1131.3 506.41-122.95 78.24" clip-path="url(#a)"/>
<path d="m1131.3 506.41-43.113 78.24" clip-path="url(#a)"/>
<path d="m1131.3 506.41 39.919 78.24" clip-path="url(#a)"/>
<path d="m1131.3 506.41 126.14 78.24" clip-path="url(#a)"/>
<path d="m1008.4 584.65v77.166" clip-path="url(#a)"/>
<path d="m1088.2 584.65v77.166" clip-path="url(#a)"/>
<path d="m1171.2 584.65v77.166" clip-path="url(#a)"/>
<path d="m385.62 584.65v77.166" clip-path="url(#a)"/>
<path d="m484.62 584.65v77.166" clip-path="url(#a)"/>
<path d="m538.11 348.84-104.59 235.81" clip-path="url(#a)"/>
<path d="m538.11 348.84 104.59 78.918" clip-path="url(#a)"/>
<path d="m590.8 348.84-51.895 235.81" clip-path="url(#a)"/>
<path d="m590.8 348.84 51.895 78.918" clip-path="url(#a)" stroke-dasharray="3.7,1.6"/>
<path d="m538.91 584.65v77.166" clip-path="url(#a)"/>
<path d="m433.52 584.65v77.166" clip-path="url(#a)"/>
<path d="m642.7 427.76-46.306 156.89" clip-path="url(#a)"/>
<path d="m642.7 427.76 46.306 78.65" clip-path="url(#a)"/>
<path d="m596.39 584.65v77.166" clip-path="url(#a)"/>
<path d="m689.01 506.41-31.935 78.24" clip-path="url(#a)"/>
<path d="m689.01 506.41 31.935 78.24" clip-path="url(#a)"/>
<path d="m657.07 584.65v77.166" clip-path="url(#a)"/>
<path d="m720.94 584.65v77.166" clip-path="url(#a)"/>
<path d="m59.879 584.65v77.166" clip-path="url(#a)"/>
<path d="m69.459 584.65v77.166" clip-path="url(#a)"/>
<path d="m82.234 584.65v77.166" clip-path="url(#a)"/>
<path d="m129.6 427.76-31.403 156.89" clip-path="url(#a)"/>
<path d="m129.6 427.76-12.242 156.89" clip-path="url(#a)"/>
<path d="m129.6 427.76 43.645 78.65" clip-path="url(#a)"/>
<path d="m98.201 584.65v77.166" clip-path="url(#a)"/>
<path d="m117.36 584.65v77.166" clip-path="url(#a)"/>
<path d="m173.25 506.41-20.758 78.24" clip-path="url(#a)"/>
<path d="m173.25 506.41 20.758 78.24" clip-path="url(#a)"/>
<path d="m152.49 584.65-12.774 77.166" clip-path="url(#a)"/>
<path d="m152.49 584.65 12.774 77.166" clip-path="url(#a)"/>
<path d="m194.01 584.65v77.166" clip-path="url(#a)"/>
<path d="m1257.5 584.65v77.166" clip-path="url(#a)"/>
</g>
<path d="m154.54 195.33 2.2677-5.5725q0.90462-2.223-1.3184-3.1276l-7.1714-2.9183q-2.223-0.90462-3.1276 1.3184l-2.2677 5.5725q-0.90462 2.223 1.3184 3.1276l7.1714 2.9183q2.223 0.90462 3.1276-1.3184z" clip-path="url(#a)" fill="#fff" stroke="#fff"/>
<g clip-path="url(#a)">
<defs>
<path id="z" d="m9.8125 72.906h9.8594v-29.891h35.844v29.891h9.8594v-72.906h-9.8594v34.719h-35.844v-34.719h-9.8594z"/>
</defs>
<g transform="translate(150.77 193.8) rotate(-67.857) scale(.08 -.08)">
<use xlink:href="#z"/>
</g>
</g>
<path d="m213.87 305.99 0.092779 4.4565q0.049954 2.3995 2.4494 2.3495l7.7408-0.16115q2.3995-0.049954 2.3495-2.4494l-0.092779-4.4565q-0.049954-2.3995-2.4494-2.3495l-7.7408 0.16115q-2.3995 0.049955-2.3495 2.4494z" clip-path="url(#a)" fill="#fff" stroke="#fff"/>
<g clip-path="url(#a)">
<defs>
<path id="am" d="m9.8125 72.906h9.8594v-64.609h35.5v-8.2969h-45.359z"/>
</defs>
<g transform="translate(217.93 305.9) rotate(88.807) scale(.08 -.08)">
<use xlink:href="#am"/>
</g>
</g>
<path d="m267.23 74.787 4.984 3.3698q1.9882 1.3443 3.3325-0.64393l4.3367-6.414q1.3443-1.9882-0.64393-3.3325l-4.984-3.3698q-1.9882-1.3443-3.3325 0.64393l-4.3367 6.414q-1.3443 1.9882 0.64393 3.3325z" clip-path="url(#a)" fill="#fff" stroke="#fff"/>
<g clip-path="url(#a)">
<g transform="translate(269.51 71.421) rotate(34.064) scale(.08 -.08)">
<use xlink:href="#z"/>
</g>
</g>
<path d="m78.528 470.14 0.58643-5.441q0.25718-2.3862-2.129-2.6434l-7.6979-0.82968q-2.3862-0.25718-2.6434 2.129l-0.58642 5.441q-0.25718 2.3862 2.129 2.6434l7.6979 0.82968q2.3862 0.25718 2.6434-2.129z" clip-path="url(#a)" fill="#fff" stroke="#fff"/>
<g clip-path="url(#a)">
<defs>
<path id="r" d="m34.188 63.188-13.391-36.281h26.812zm-5.5781 9.7188h11.188l27.781-72.906h-10.25l-6.6406 18.703h-32.859l-6.6406-18.703h-10.406z"/>
</defs>
<g transform="translate(74.488 469.7) rotate(-83.848) scale(.08 -.08)">
<use xlink:href="#r"/>
</g>
</g>
<path d="m83.428 470.24 0.41272-6.1462q0.1608-2.3946-2.2338-2.5554l-7.7251-0.51874q-2.3946-0.1608-2.5554 2.2338l-0.41272 6.1462q-0.1608 2.3946 2.2338 2.5554l7.7251 0.51874q2.3946 0.1608 2.5554-2.2338z" clip-path="url(#a)" fill="#fff" stroke="#fff"/>
<g clip-path="url(#a)">
<defs>
<path id="an" d="m19.672 64.797v-56.688h11.922q15.094 0 22.094 6.8281 7 6.8438 7 21.594 0 14.641-7 21.453t-22.094 6.8125zm-9.8594 8.1094h20.266q21.188 0 31.094-8.8125 9.9219-8.8125 9.9219-27.562 0-18.859-9.9688-27.703-9.9531-8.8281-31.047-8.8281h-20.266z"/>
</defs>
<g transform="translate(79.373 469.97) rotate(-86.158) scale(.08 -.08)">
<use xlink:href="#an"/>
</g>
</g>
<path d="m90.003 469.24 0.0626-4.8233q0.031146-2.3998-2.3687-2.4309l-7.7418-0.10048q-2.3998-0.031147-2.4309 2.3687l-0.0626 4.8233q-0.031146 2.3998 2.3687 2.4309l7.7418 0.10048q2.3998 0.031146 2.4309-2.3687z" clip-path="url(#a)" fill="#fff" stroke="#fff"/>
<g clip-path="url(#a)">
<defs>
<path id="y" d="m19.672 64.797v-27.391h12.406q6.8906 0 10.641 3.5625 3.7656 3.5625 3.7656 10.156 0 6.5469-3.7656 10.109-3.75 3.5625-10.641 3.5625zm-9.8594 8.1094h22.266q12.266 0 18.531-5.5469 6.2812-5.5469 6.2812-16.234 0-10.797-6.2812-16.312-6.2656-5.5156-18.531-5.5156h-12.406v-29.297h-9.8594z"/>
</defs>
<g transform="translate(85.94 469.19) rotate(-89.256) scale(.08 -.08)">
<use xlink:href="#y"/>
</g>
</g>
<path d="m100.64 388.99 2.6792 4.7718q1.175 2.0927 3.2677 0.9177l6.7511-3.7906q2.0927-1.175 0.9177-3.2677l-2.6792-4.7718q-1.175-2.0927-3.2677-0.9177l-6.7511 3.7906q-2.0927 1.175-0.9177 3.2677z" clip-path="url(#a)" fill="#fff" stroke="#fff"/>
<g clip-path="url(#a)">
<g transform="translate(104.18 387) rotate(60.687) scale(.08 -.08)">
<use xlink:href="#r"/>
</g>
</g>
<path d="m219.67 606.33v33.808q0 2.4 2.4 2.4h7.7425q2.4 0 2.4-2.4v-33.808q0-2.4-2.4-2.4h-7.7425q-2.4 0-2.4 2.4z" clip-path="url(#a)" fill="#fff" stroke="#fff"/>
<g clip-path="url(#a)">
<defs>
<path id="l" d="m-0.29688 72.906h61.672v-8.3125h-25.875v-64.594h-9.9062v64.594h-25.891z"/>
<path id="d" d="m56.203 29.594v-4.3906h-41.312q0.59375-9.2812 5.5938-14.141t13.938-4.8594q5.1719 0 10.031 1.2656t9.6562 3.8125v-8.5q-4.8438-2.0469-9.9219-3.125t-10.297-1.0781q-13.094 0-20.734 7.6094-7.6406 7.625-7.6406 20.625 0 13.422 7.25 21.297 7.25 7.8906 19.562 7.8906 11.031 0 17.453-7.1094 6.4219-7.0938 6.4219-19.297zm-8.9844 2.6406q-0.09375 7.3594-4.125 11.75-4.0312 4.4062-10.672 4.4062-7.5156 0-12.031-4.25t-5.2031-11.969z"/>
<path id="k" d="m41.109 46.297q-1.5156 0.875-3.2969 1.2812-1.7812 0.42188-3.9219 0.42188-7.625 0-11.703-4.9531t-4.0781-14.234v-28.812h-9.0312v54.688h9.0312v-8.5q2.8438 4.9844 7.375 7.3906 4.5469 2.4219 11.047 2.4219 0.92188 0 2.0469-0.125 1.125-0.10938 2.4844-0.35938z"/>
<path id="j" d="m52 44.188q3.375 6.0625 8.0625 8.9375t11.031 2.875q8.5469 0 13.188-5.9844 4.6406-5.9688 4.6406-17v-33.016h-9.0312v32.719q0 7.8594-2.7969 11.656-2.7812 3.8125-8.4844 3.8125-6.9844 0-11.047-4.6406-4.0469-4.625-4.0469-12.641v-30.906h-9.0312v32.719q0 7.9062-2.7812 11.688t-8.5938 3.7812q-6.8906 0-10.953-4.6562-4.0469-4.6562-4.0469-12.625v-30.906h-9.0312v54.688h9.0312v-8.5q3.0781 5.0312 7.375 7.4219t10.203 2.3906q5.9688 0 10.141-3.0312 4.1719-3.0156 6.1719-8.7812z"/>
<path id="h" d="m9.4219 54.688h8.9844v-54.688h-8.9844zm0 21.297h8.9844v-11.391h-8.9844z"/>
<path id="g" d="m54.891 33.016v-33.016h-8.9844v32.719q0 7.7656-3.0312 11.609-3.0312 3.8594-9.0781 3.8594-7.2812 0-11.484-4.6406-4.2031-4.625-4.2031-12.641v-30.906h-9.0312v54.688h9.0312v-8.5q3.2344 4.9375 7.5938 7.375 4.375 2.4375 10.094 2.4375 9.4219 0 14.25-5.8281 4.8438-5.8281 4.8438-17.156z"/>
<path id="f" d="m34.281 27.484q-10.891 0-15.094-2.4844t-4.2031-8.5q0-4.7812 3.1562-7.5938 3.1562-2.7969 8.5625-2.7969 7.4844 0 12 5.2969t4.5156 14.078v2zm17.922 3.7188v-31.203h-8.9844v8.2969q-3.0781-4.9688-7.6719-7.3438t-11.234-2.375q-8.3906 0-13.359 4.7188-4.9531 4.7188-4.9531 12.625 0 9.2188 6.1719 13.906 6.1875 4.6875 18.438 4.6875h12.609v0.89062q0 6.2031-4.0781 9.5938t-11.453 3.3906q-4.6875 0-9.1406-1.125-4.4375-1.125-8.5312-3.375v8.3125q4.9219 1.9062 9.5625 2.8438 4.6406 0.95312 9.0312 0.95312 11.875 0 17.734-6.1562 5.8594-6.1406 5.8594-18.641z"/>
<path id="i" d="m9.4219 75.984h8.9844v-75.984h-8.9844z"/>
</defs>
<g transform="translate(223.74 606.33) rotate(90) scale(.08 -.08)">
<use xlink:href="#l"/>
<use x="44.083984" xlink:href="#d"/>
<use x="105.607422" xlink:href="#k"/>
<use x="144.970703" xlink:href="#j"/>
<use x="242.382812" xlink:href="#h"/>
<use x="270.166016" xlink:href="#g"/>
<use x="333.544922" xlink:href="#f"/>
<use x="394.824219" xlink:href="#i"/>
</g>
</g>
<path d="m302.42 351.05 0.6819-4.5504q0.35568-2.3735-2.0178-2.7292l-7.657-1.1474q-2.3735-0.35568-2.7292 2.0178l-0.6819 4.5504q-0.35568 2.3735 2.0178 2.7292l7.657 1.1474q2.3735 0.35568 2.7292-2.0178z" clip-path="url(#a)" fill="#fff" stroke="#fff"/>
<g clip-path="url(#a)">
<defs>
<path id="w" d="m9.8125 72.906h41.891v-8.3125h-32.031v-21.484h28.906v-8.2969h-28.906v-34.812h-9.8594z"/>
</defs>
<g transform="translate(298.4 350.45) rotate(-81.477) scale(.08 -.08)">
<use xlink:href="#w"/>
</g>
</g>
<path d="m321.81 350.68 0.33176-4.8123q0.16506-2.3943-2.2293-2.5594l-7.7242-0.5325q-2.3943-0.16506-2.5594 2.2293l-0.33176 4.8123q-0.16506 2.3943 2.2293 2.5594l7.7242 0.5325q2.3943 0.16506 2.5594-2.2293z" clip-path="url(#a)" fill="#fff" stroke="#fff"/>
<g clip-path="url(#a)">
<g transform="translate(317.76 350.4) rotate(-86.056) scale(.08 -.08)">
<use xlink:href="#y"/>
</g>
</g>
<path d="m515.97 156.31 5.3543 1.1314q2.3481 0.4962 2.8443-1.8519l1.6008-7.5752q0.4962-2.3481-1.8519-2.8443l-5.3543-1.1314q-2.3481-0.4962-2.8443 1.8519l-1.6008 7.5752q-0.4962 2.3481 1.8519 2.8443z" clip-path="url(#a)" fill="#fff" stroke="#fff"/>
<g clip-path="url(#a)">
<g transform="translate(516.81 152.34) rotate(11.932) scale(.08 -.08)">
<use xlink:href="#r"/>
</g>
</g>
<path d="m200.04 353.34 2.7267-4.7448q1.1958-2.0809-0.88508-3.2767l-6.713-3.8577q-2.0809-1.1958-3.2767 0.88508l-2.7267 4.7448q-1.1958 2.0809 0.88508 3.2767l6.713 3.8577q2.0809 1.1958 3.2767-0.88508z" clip-path="url(#a)" fill="#fff" stroke="#fff"/>
<g clip-path="url(#a)">
<g transform="translate(196.51 351.32) rotate(-60.116) scale(.08 -.08)">
<use xlink:href="#r"/>
</g>
</g>
<path d="m254.8 606.33v33.808q0 2.4 2.4 2.4h7.7425q2.4 0 2.4-2.4v-33.808q0-2.4-2.4-2.4h-7.7425q-2.4 0-2.4 2.4z" clip-path="url(#a)" fill="#fff" stroke="#fff"/>
<g clip-path="url(#a)">
<g transform="translate(258.86 606.33) rotate(90) scale(.08 -.08)">
<use xlink:href="#l"/>
<use x="44.083984" xlink:href="#d"/>
<use x="105.607422" xlink:href="#k"/>
<use x="144.970703" xlink:href="#j"/>
<use x="242.382812" xlink:href="#h"/>
<use x="270.166016" xlink:href="#g"/>
<use x="333.544922" xlink:href="#f"/>
<use x="394.824219" xlink:href="#i"/>
</g>
</g>
<path d="m293.12 606.33v33.808q0 2.4 2.4 2.4h7.7425q2.4 0 2.4-2.4v-33.808q0-2.4-2.4-2.4h-7.7425q-2.4 0-2.4 2.4z" clip-path="url(#a)" fill="#fff" stroke="#fff"/>
<g clip-path="url(#a)">
<g transform="translate(297.19 606.33) rotate(90) scale(.08 -.08)">
<use xlink:href="#l"/>
<use x="44.083984" xlink:href="#d"/>
<use x="105.607422" xlink:href="#k"/>
<use x="144.970703" xlink:href="#j"/>
<use x="242.382812" xlink:href="#h"/>
<use x="270.166016" xlink:href="#g"/>
<use x="333.544922" xlink:href="#f"/>
<use x="394.824219" xlink:href="#i"/>
</g>
</g>
<path d="m527.07 393.86 3.7873-4.0689q1.6352-1.7568-0.12157-3.3919l-5.6674-5.2752q-1.7568-1.6352-3.3919 0.12157l-3.7873 4.0689q-1.6352 1.7568 0.12157 3.3919l5.6674 5.2752q1.7568 1.6352 3.3919-0.12157z" clip-path="url(#a)" fill="#fff" stroke="#fff"/>
<g clip-path="url(#a)">
<defs>
<path id="al" d="m44.391 34.188q3.1719-1.0781 6.1719-4.5938t6.0312-9.6719l10.016-19.922h-10.609l-9.3125 18.703q-3.625 7.3281-7.0156 9.7188t-9.25 2.3906h-10.75v-30.812h-9.8594v72.906h22.266q12.5 0 18.656-5.2344 6.1562-5.2188 6.1562-15.766 0-6.8906-3.2031-11.438-3.2031-4.5312-9.2969-6.2812zm-24.719 30.609v-25.875h12.406q7.125 0 10.766 3.2969t3.6406 9.6875-3.6406 9.6406-10.766 3.25z"/>
</defs>
<g transform="translate(524.09 391.09) rotate(-47.053) scale(.08 -.08)">
<use xlink:href="#al"/>
</g>
</g>
<path d="m603.43 236.94 5.2201-1.9892q2.2427-0.85459 1.3881-3.0973l-2.757-7.235q-0.85459-2.2427-3.0973-1.3881l-5.2201 1.9892q-2.2427 0.85459-1.3881 3.0973l2.757 7.235q0.85459 2.2427 3.0973 1.3881z" clip-path="url(#a)" fill="#fff" stroke="#fff"/>
<g clip-path="url(#a)">
<defs>
<path id="u" d="m64.406 67.281v-10.391q-4.9844 4.6406-10.625 6.9219-5.6406 2.2969-11.984 2.2969-12.5 0-19.141-7.6406t-6.6406-22.094q0-14.406 6.6406-22.047t19.141-7.6406q6.3438 0 11.984 2.2969t10.625 6.9375v-10.312q-5.1719-3.5156-10.969-5.2812-5.7812-1.75-12.219-1.75-16.562 0-26.094 10.125-9.5156 10.141-9.5156 27.672 0 17.578 9.5156 27.703 9.5312 10.141 26.094 10.141 6.5312 0 12.312-1.7344 5.7969-1.7344 10.875-5.2031z"/>
</defs>
<g transform="translate(601.99 233.14) rotate(-20.86) scale(.08 -.08)">
<use xlink:href="#u"/>
</g>
</g>
<path d="m776.65 387.01 2.147 5.5867q0.86094 2.2403 3.1012 1.3793l7.2272-2.7774q2.2403-0.86094 1.3793-3.1012l-2.147-5.5867q-0.86094-2.2403-3.1012-1.3793l-7.2272 2.7774q-2.2403 0.86094-1.3793 3.1012z" clip-path="url(#a)" fill="#fff" stroke="#fff"/>
<g clip-path="url(#a)">
<defs>
<path id="ap" d="m9.8125 72.906h13.281l32.328-60.984v60.984h9.5625v-72.906h-13.281l-32.312 60.984v-60.984h-9.5781z"/>
</defs>
<g transform="translate(780.45 385.55) rotate(68.978) scale(.08 -.08)">
<use xlink:href="#ap"/>
</g>
</g>
<path d="m913.58 351.79 4.4773 3.3406q1.9236 1.4352 3.3588-0.48836l4.6301-6.2055q1.4352-1.9236-0.48836-3.3588l-4.4773-3.3406q-1.9236-1.4352-3.3588 0.48836l-4.6301 6.2055q-1.4352 1.9236 0.48836 3.3588z" clip-path="url(#a)" fill="#fff" stroke="#fff"/>
<g clip-path="url(#a)">
<g transform="translate(916.01 348.53) rotate(36.727) scale(.08 -.08)">
<use xlink:href="#u"/>
</g>
</g>
<path d="m334.64 606.33v33.808q0 2.4 2.4 2.4h7.7425q2.4 0 2.4-2.4v-33.808q0-2.4-2.4-2.4h-7.7425q-2.4 0-2.4 2.4z" clip-path="url(#a)" fill="#fff" stroke="#fff"/>
<g clip-path="url(#a)">
<g transform="translate(338.7 606.33) rotate(90) scale(.08 -.08)">
<use xlink:href="#l"/>
<use x="44.083984" xlink:href="#d"/>
<use x="105.607422" xlink:href="#k"/>
<use x="144.970703" xlink:href="#j"/>
<use x="242.382812" xlink:href="#h"/>
<use x="270.166016" xlink:href="#g"/>
<use x="333.544922" xlink:href="#f"/>
<use x="394.824219" xlink:href="#i"/>
</g>
</g>
<path d="m447.82 431.49 1.5682-4.3258q0.81797-2.2563-1.4383-3.0743l-7.2789-2.6388q-2.2563-0.81797-3.0743 1.4383l-1.5682 4.3258q-0.81797 2.2563 1.4383 3.0743l7.2789 2.6388q2.2563 0.81797 3.0743-1.4383z" clip-path="url(#a)" fill="#fff" stroke="#fff"/>
<g clip-path="url(#a)">
<g transform="translate(444 430.1) rotate(-70.073) scale(.08 -.08)">
<use xlink:href="#w"/>
</g>
</g>
<path d="m498.36 429.72 0.21446-4.4523q0.11547-2.3972-2.2818-2.5127l-7.7335-0.37251q-2.3972-0.11547-2.5127 2.2818l-0.21446 4.4523q-0.11547 2.3972 2.2818 2.5127l7.7335 0.37251q2.3972 0.11547 2.5127-2.2818z" clip-path="url(#a)" fill="#fff" stroke="#fff"/>
<g clip-path="url(#a)">
<g transform="translate(494.3 429.52) rotate(-87.242) scale(.08 -.08)">
<use xlink:href="#am"/>
</g>
</g>
<path d="m511.99 309.31 2.6226 5.4145q1.0462 2.16 3.2062 1.1137l6.9681-3.3752q2.16-1.0462 1.1137-3.2062l-2.6226-5.4145q-1.0462-2.16-3.2062-1.1137l-6.9681 3.3752q-2.16 1.0462-1.1137 3.2062z" clip-path="url(#a)" fill="#fff" stroke="#fff"/>
<g clip-path="url(#a)">
<g transform="translate(515.65 307.54) rotate(64.156) scale(.08 -.08)">
<use xlink:href="#z"/>
</g>
</g>
<path d="m538.91 312.04 4.5406 3.947q1.8113 1.5745 3.3858-0.23679l5.0795-5.8434q1.5745-1.8113-0.23679-3.3858l-4.5406-3.947q-1.8113-1.5745-3.3858 0.23679l-5.0795 5.8434q-1.5745 1.8113 0.23679 3.3858z" clip-path="url(#a)" fill="#fff" stroke="#fff"/>
<g clip-path="url(#a)">
<g transform="translate(541.58 308.98) rotate(41) scale(.08 -.08)">
<use xlink:href="#z"/>
</g>
</g>
<path d="m816.8 639.91 22.947-24.827q1.629-1.7625-0.13348-3.3915l-5.6858-5.2552q-1.7625-1.629-3.3915 0.13348l-22.947 24.827q-1.629 1.7625 0.13348 3.3915l5.6858 5.2552q1.7625 1.629 3.3915-0.13348z" clip-path="url(#a)" fill="#fff" stroke="#fff"/>
<g clip-path="url(#a)">
<g transform="translate(813.81 637.15) rotate(-47.254) scale(.08 -.08)">
<use xlink:href="#l"/>
<use x="44.083984" xlink:href="#d"/>
<use x="105.607422" xlink:href="#k"/>
<use x="144.970703" xlink:href="#j"/>
<use x="242.382812" xlink:href="#h"/>
<use x="270.166016" xlink:href="#g"/>
<use x="333.544922" xlink:href="#f"/>
<use x="394.824219" xlink:href="#i"/>
</g>
</g>
<path d="m864.83 640.22 0.46633-33.804q0.033105-2.3998-2.3667-2.4329l-7.7418-0.1068q-2.3998-0.033105-2.4329 2.3667l-0.46633 33.804q-0.033105 2.3998 2.3667 2.4329l7.7418 0.1068q2.3998 0.033105 2.4329-2.3667z" clip-path="url(#a)" fill="#fff" stroke="#fff"/>
<g clip-path="url(#a)">
<g transform="translate(860.77 640.17) rotate(-89.21) scale(.08 -.08)">
<use xlink:href="#l"/>
<use x="44.083984" xlink:href="#d"/>
<use x="105.607422" xlink:href="#k"/>
<use x="144.970703" xlink:href="#j"/>
<use x="242.382812" xlink:href="#h"/>
<use x="270.166016" xlink:href="#g"/>
<use x="333.544922" xlink:href="#f"/>
<use x="394.824219" xlink:href="#i"/>
</g>
</g>
<path d="m879.38 615.2 23.13 24.657q1.642 1.7504 3.3924 0.10842l5.6469-5.2971q1.7504-1.642 0.10842-3.3924l-23.13-24.657q-1.642-1.7504-3.3924-0.10842l-5.6469 5.2971q-1.7504 1.642-0.10842 3.3924z" clip-path="url(#a)" fill="#fff" stroke="#fff"/>
<g clip-path="url(#a)">
<g transform="translate(882.35 612.42) rotate(46.831) scale(.08 -.08)">
<use xlink:href="#l"/>
<use x="44.083984" xlink:href="#d"/>
<use x="105.607422" xlink:href="#k"/>
<use x="144.970703" xlink:href="#j"/>
<use x="242.382812" xlink:href="#h"/>
<use x="270.166016" xlink:href="#g"/>
<use x="333.544922" xlink:href="#f"/>
<use x="394.824219" xlink:href="#i"/>
</g>
</g>
<path d="m1071.3 552.06 3.8819-2.4703q2.0248-1.2885 0.73632-3.3133l-4.1567-6.5321q-1.2885-2.0248-3.3133-0.73632l-3.8819 2.4703q-2.0248 1.2885-0.73632 3.3133l4.1567 6.5321q1.2885 2.0248 3.3133 0.73632z" clip-path="url(#a)" fill="#fff" stroke="#fff"/>
<g clip-path="url(#a)">
<g transform="translate(1069.1 548.63) rotate(-32.471) scale(.08 -.08)">
<use xlink:href="#w"/>
</g>
</g>
<path d="m1113.9 551 2.696-4.8926q1.1583-2.102-0.94373-3.2603l-6.7811-3.7366q-2.102-1.1583-3.2603 0.94373l-2.696 4.8926q-1.1583 2.102 0.94373 3.2603l6.7811 3.7366q2.102 1.1583 3.2603-0.94373z" clip-path="url(#a)" fill="#fff" stroke="#fff"/>
<g clip-path="url(#a)">
<g transform="translate(1110.3 549.04) rotate(-61.144) scale(.08 -.08)">
<use xlink:href="#u"/>
</g>
</g>
<path d="m1144.6 546.33 2.0912 4.0986q1.0907 2.1378 3.2286 1.0471l6.8967-3.5188q2.1378-1.0907 1.0471-3.2286l-2.0912-4.0986q-1.0907-2.1378-3.2286-1.0471l-6.8967 3.5188q-2.1378 1.0907-1.0471 3.2286z" clip-path="url(#a)" fill="#fff" stroke="#fff"/>
<g clip-path="url(#a)">
<g transform="translate(1148.3 544.49) rotate(62.969) scale(.08 -.08)">
<use xlink:href="#w"/>
</g>
</g>
<path d="m1188.6 549.32 4.9756 3.0861q2.0395 1.265 3.3046-0.77454l4.081-6.5797q1.265-2.0395-0.77454-3.3046l-4.9756-3.0861q-2.0395-1.265-3.3046 0.77454l-4.081 6.5797q-1.265 2.0395 0.77454 3.3046z" clip-path="url(#a)" fill="#fff" stroke="#fff"/>
<g clip-path="url(#a)">
<defs>
<path id="ao" d="m8.6875 72.906h9.9219v-44.297q0-11.719 4.2344-16.875 4.25-5.1406 13.781-5.1406 9.4688 0 13.719 5.1406 4.25 5.1562 4.25 16.875v44.297h9.9062v-45.516q0-14.25-7.0625-21.531-7.0469-7.2812-20.812-7.2812-13.828 0-20.891 7.2812-7.0469 7.2812-7.0469 21.531z"/>
</defs>
<g transform="translate(1190.7 545.86) rotate(31.809) scale(.08 -.08)">
<use xlink:href="#ao"/>
</g>
</g>
<path d="m1002.1 606.33v33.808q0 2.4 2.4 2.4h7.7425q2.4 0 2.4-2.4v-33.808q0-2.4-2.4-2.4h-7.7425q-2.4 0-2.4 2.4z" clip-path="url(#a)" fill="#fff" stroke="#fff"/>
<g clip-path="url(#a)">
<g transform="translate(1006.2 606.33) rotate(90) scale(.08 -.08)">
<use xlink:href="#l"/>
<use x="44.083984" xlink:href="#d"/>
<use x="105.607422" xlink:href="#k"/>
<use x="144.970703" xlink:href="#j"/>
<use x="242.382812" xlink:href="#h"/>
<use x="270.166016" xlink:href="#g"/>
<use x="333.544922" xlink:href="#f"/>
<use x="394.824219" xlink:href="#i"/>
</g>
</g>
<path d="m1081.9 606.33v33.808q0 2.4 2.4 2.4h7.7425q2.4 0 2.4-2.4v-33.808q0-2.4-2.4-2.4h-7.7425q-2.4 0-2.4 2.4z" clip-path="url(#a)" fill="#fff" stroke="#fff"/>
<g clip-path="url(#a)">
<g transform="translate(1086 606.33) rotate(90) scale(.08 -.08)">
<use xlink:href="#l"/>
<use x="44.083984" xlink:href="#d"/>
<use x="105.607422" xlink:href="#k"/>
<use x="144.970703" xlink:href="#j"/>
<use x="242.382812" xlink:href="#h"/>
<use x="270.166016" xlink:href="#g"/>
<use x="333.544922" xlink:href="#f"/>
<use x="394.824219" xlink:href="#i"/>
</g>
</g>
<path d="m1165 606.33v33.808q0 2.4 2.4 2.4h7.7425q2.4 0 2.4-2.4v-33.808q0-2.4-2.4-2.4h-7.7425q-2.4 0-2.4 2.4z" clip-path="url(#a)" fill="#fff" stroke="#fff"/>
<g clip-path="url(#a)">
<g transform="translate(1169 606.33) rotate(90) scale(.08 -.08)">
<use xlink:href="#l"/>
<use x="44.083984" xlink:href="#d"/>
<use x="105.607422" xlink:href="#k"/>
<use x="144.970703" xlink:href="#j"/>
<use x="242.382812" xlink:href="#h"/>
<use x="270.166016" xlink:href="#g"/>
<use x="333.544922" xlink:href="#f"/>
<use x="394.824219" xlink:href="#i"/>
</g>
</g>
<path d="m379.35 606.33v33.808q0 2.4 2.4 2.4h7.7425q2.4 0 2.4-2.4v-33.808q0-2.4-2.4-2.4h-7.7425q-2.4 0-2.4 2.4z" clip-path="url(#a)" fill="#fff" stroke="#fff"/>
<g clip-path="url(#a)">
<g transform="translate(383.41 606.33) rotate(90) scale(.08 -.08)">
<use xlink:href="#l"/>
<use x="44.083984" xlink:href="#d"/>
<use x="105.607422" xlink:href="#k"/>
<use x="144.970703" xlink:href="#j"/>
<use x="242.382812" xlink:href="#h"/>
<use x="270.166016" xlink:href="#g"/>
<use x="333.544922" xlink:href="#f"/>
<use x="394.824219" xlink:href="#i"/>
</g>
</g>
<path d="m478.35 606.33v33.808q0 2.4 2.4 2.4h7.7425q2.4 0 2.4-2.4v-33.808q0-2.4-2.4-2.4h-7.7425q-2.4 0-2.4 2.4z" clip-path="url(#a)" fill="#fff" stroke="#fff"/>
<g clip-path="url(#a)">
<g transform="translate(482.41 606.33) rotate(90) scale(.08 -.08)">
<use xlink:href="#l"/>
<use x="44.083984" xlink:href="#d"/>
<use x="105.607422" xlink:href="#k"/>
<use x="144.970703" xlink:href="#j"/>
<use x="242.382812" xlink:href="#h"/>
<use x="270.166016" xlink:href="#g"/>
<use x="333.544922" xlink:href="#f"/>
<use x="394.824219" xlink:href="#i"/>
</g>
</g>
<path d="m490.52 471.61 2.0591-4.6426q0.97306-2.1939-1.2208-3.167l-7.0776-3.1391q-2.1939-0.97306-3.167 1.2208l-2.0591 4.6426q-0.97306 2.1939 1.2208 3.167l7.0776 3.1391q2.1939 0.97306 3.1669-1.2208z" clip-path="url(#a)" fill="#fff" stroke="#fff"/>
<g clip-path="url(#a)">
<defs>
<path id="ak" d="m53.516 70.516v-9.625q-5.6094 2.6875-10.594 4-4.9844 1.3281-9.625 1.3281-8.0469 0-12.422-3.125t-4.375-8.8906q0-4.8438 2.9062-7.3125 2.9062-2.4531 11.016-3.9688l5.9531-1.2188q11.031-2.1094 16.281-7.4062t5.25-14.172q0-10.609-7.1094-16.078-7.0938-5.4688-20.812-5.4688-5.1719 0-11.016 1.1719-5.8281 1.1719-12.078 3.4688v10.156q6-3.3594 11.766-5.0781 5.7656-1.7031 11.328-1.7031 8.4375 0 13.031 3.3125 4.5938 3.3281 4.5938 9.4844 0 5.3594-3.2969 8.3906t-10.812 4.5469l-6.0156 1.1719q-11.031 2.1875-15.969 6.875-4.9219 4.6875-4.9219 13.047 0 9.6719 6.8125 15.234t18.766 5.5625q5.1406 0 10.453-0.9375 5.3281-0.92188 10.891-2.7656z"/>
</defs>
<g transform="translate(486.8 469.96) rotate(-66.081) scale(.08 -.08)">
<use xlink:href="#ak"/>
</g>
</g>
<path d="m584.44 391.66 4.3684 3.2962q1.9158 1.4456 3.3614-0.47022l4.6635-6.1805q1.4456-1.9158-0.47022-3.3614l-4.3684-3.2962q-1.9158-1.4456-3.3614 0.47022l-4.6635 6.1804q-1.4456 1.9158 0.47022 3.3614z" clip-path="url(#a)" fill="#fff" stroke="#fff"/>
<g clip-path="url(#a)">
<g transform="translate(586.89 388.42) rotate(37.037) scale(.08 -.08)">
<use xlink:href="#r"/>
</g>
</g>
<path d="m570.44 470.58 1.0916-4.9601q0.51583-2.3439-1.8281-2.8597l-7.5616-1.6641q-2.3439-0.51583-2.8597 1.8281l-1.0916 4.9601q-0.51583 2.3439 1.8281 2.8597l7.5616 1.6641q2.3439 0.51583 2.8597-1.8281z" clip-path="url(#a)" fill="#fff" stroke="#fff"/>
<g clip-path="url(#a)">
<g transform="translate(566.47 469.7) rotate(-77.589) scale(.08 -.08)">
<use xlink:href="#ak"/>
</g>
</g>
<path d="m610.01 389.46 3.0068 4.5725q1.3186 2.0053 3.3239 0.68665l6.4691-4.254q2.0053-1.3186 0.68665-3.3239l-3.0068-4.5725q-1.3186-2.0053-3.3239-0.68665l-6.4691 4.254q-2.0053 1.3186-0.68665 3.3239z" clip-path="url(#a)" fill="#fff" stroke="#fff"/>
<g clip-path="url(#a)">
<g transform="translate(613.4 387.23) rotate(56.672) scale(.08 -.08)">
<use xlink:href="#r"/>
</g>
</g>
<path d="m532.64 606.33v33.808q0 2.4 2.4 2.4h7.7425q2.4 0 2.4-2.4v-33.808q0-2.4-2.4-2.4h-7.7425q-2.4 0-2.4 2.4z" clip-path="url(#a)" fill="#fff" stroke="#fff"/>
<g clip-path="url(#a)">
<g transform="translate(536.7 606.33) rotate(90) scale(.08 -.08)">
<use xlink:href="#l"/>
<use x="44.083984" xlink:href="#d"/>
<use x="105.607422" xlink:href="#k"/>
<use x="144.970703" xlink:href="#j"/>
<use x="242.382812" xlink:href="#h"/>
<use x="270.166016" xlink:href="#g"/>
<use x="333.544922" xlink:href="#f"/>
<use x="394.824219" xlink:href="#i"/>
</g>
</g>
<path d="m427.25 606.33v33.808q0 2.4 2.4 2.4h7.7425q2.4 0 2.4-2.4v-33.808q0-2.4-2.4-2.4h-7.7425q-2.4 0-2.4 2.4z" clip-path="url(#a)" fill="#fff" stroke="#fff"/>
<g clip-path="url(#a)">
<g transform="translate(431.31 606.33) rotate(90) scale(.08 -.08)">
<use xlink:href="#l"/>
<use x="44.083984" xlink:href="#d"/>
<use x="105.607422" xlink:href="#k"/>
<use x="144.970703" xlink:href="#j"/>
<use x="242.382812" xlink:href="#h"/>
<use x="270.166016" xlink:href="#g"/>
<use x="333.544922" xlink:href="#f"/>
<use x="394.824219" xlink:href="#i"/>
</g>
</g>
<path d="m624.77 510.65 1.5736-5.3314q0.67939-2.3018-1.6224-2.9812l-7.4258-2.1917q-2.3018-0.67939-2.9812 1.6224l-1.5736 5.3314q-0.67939 2.3018 1.6224 2.9812l7.4258 2.1917q2.3018 0.67939 2.9812-1.6224z" clip-path="url(#a)" fill="#fff" stroke="#fff"/>
<g clip-path="url(#a)">
<g transform="translate(620.88 509.5) rotate(-73.556) scale(.08 -.08)">
<use xlink:href="#al"/>
</g>
</g>
<path d="m659.22 468.19 2.4474 4.1568q1.2177 2.0682 3.2858 0.85051l6.672-3.9282q2.0682-1.2177 0.85051-3.2858l-2.4474-4.1568q-1.2177-2.0682-3.2858-0.85051l-6.672 3.9282q-2.0682 1.2177-0.85051 3.2858z" clip-path="url(#a)" fill="#fff" stroke="#fff"/>
<g clip-path="url(#a)">
<g transform="translate(662.73 466.13) rotate(59.512) scale(.08 -.08)">
<use xlink:href="#y"/>
</g>
</g>
<path d="m590.12 606.33v33.808q0 2.4 2.4 2.4h7.7425q2.4 0 2.4-2.4v-33.808q0-2.4-2.4-2.4h-7.7425q-2.4 0-2.4 2.4z" clip-path="url(#a)" fill="#fff" stroke="#fff"/>
<g clip-path="url(#a)">
<g transform="translate(594.19 606.33) rotate(90) scale(.08 -.08)">
<use xlink:href="#l"/>
<use x="44.083984" xlink:href="#d"/>
<use x="105.607422" xlink:href="#k"/>
<use x="144.970703" xlink:href="#j"/>
<use x="242.382812" xlink:href="#h"/>
<use x="270.166016" xlink:href="#g"/>
<use x="333.544922" xlink:href="#f"/>
<use x="394.824219" xlink:href="#i"/>
</g>
</g>
<path d="m677.97 550.03 1.7388-4.26q0.90697-2.222-1.3151-3.129l-7.1684-2.9259q-2.222-0.90697-3.129 1.3151l-1.7388 4.26q-0.90697 2.222 1.3151 3.129l7.1684 2.9259q2.222 0.90697 3.129-1.3151z" clip-path="url(#a)" fill="#fff" stroke="#fff"/>
<g clip-path="url(#a)">
<g transform="translate(674.21 548.5) rotate(-67.796) scale(.08 -.08)">
<use xlink:href="#w"/>
</g>
</g>
<path d="m698.11 545.32 2.1111 5.172q0.90697 2.222 3.129 1.3151l7.1684-2.9259q2.222-0.90697 1.3151-3.129l-2.1111-5.172q-0.90697-2.222-3.129-1.3151l-7.1684 2.9259q-2.222 0.90697-1.3151 3.129z" clip-path="url(#a)" fill="#fff" stroke="#fff"/>
<g clip-path="url(#a)">
<g transform="translate(701.87 543.78) rotate(67.796) scale(.08 -.08)">
<use xlink:href="#u"/>
</g>
</g>
<path d="m650.8 606.33v33.808q0 2.4 2.4 2.4h7.7425q2.4 0 2.4-2.4v-33.808q0-2.4-2.4-2.4h-7.7425q-2.4 0-2.4 2.4z" clip-path="url(#a)" fill="#fff" stroke="#fff"/>
<g clip-path="url(#a)">
<g transform="translate(654.86 606.33) rotate(90) scale(.08 -.08)">
<use xlink:href="#l"/>
<use x="44.083984" xlink:href="#d"/>
<use x="105.607422" xlink:href="#k"/>
<use x="144.970703" xlink:href="#j"/>
<use x="242.382812" xlink:href="#h"/>
<use x="270.166016" xlink:href="#g"/>
<use x="333.544922" xlink:href="#f"/>
<use x="394.824219" xlink:href="#i"/>
</g>
</g>
<path d="m714.67 606.33v33.808q0 2.4 2.4 2.4h7.7425q2.4 0 2.4-2.4v-33.808q0-2.4-2.4-2.4h-7.7425q-2.4 0-2.4 2.4z" clip-path="url(#a)" fill="#fff" stroke="#fff"/>
<g clip-path="url(#a)">
<g transform="translate(718.73 606.33) rotate(90) scale(.08 -.08)">
<use xlink:href="#l"/>
<use x="44.083984" xlink:href="#d"/>
<use x="105.607422" xlink:href="#k"/>
<use x="144.970703" xlink:href="#j"/>
<use x="242.382812" xlink:href="#h"/>
<use x="270.166016" xlink:href="#g"/>
<use x="333.544922" xlink:href="#f"/>
<use x="394.824219" xlink:href="#i"/>
</g>
</g>
<path d="m53.608 606.33v33.808q0 2.4 2.4 2.4h7.7425q2.4 0 2.4-2.4v-33.808q0-2.4-2.4-2.4h-7.7425q-2.4 0-2.4 2.4z" clip-path="url(#a)" fill="#fff" stroke="#fff"/>
<g clip-path="url(#a)">
<g transform="translate(57.671 606.33) rotate(90) scale(.08 -.08)">
<use xlink:href="#l"/>
<use x="44.083984" xlink:href="#d"/>
<use x="105.607422" xlink:href="#k"/>
<use x="144.970703" xlink:href="#j"/>
<use x="242.382812" xlink:href="#h"/>
<use x="270.166016" xlink:href="#g"/>
<use x="333.544922" xlink:href="#f"/>
<use x="394.824219" xlink:href="#i"/>
</g>
</g>
<path d="m63.188 606.33v33.808q0 2.4 2.4 2.4h7.7425q2.4 0 2.4-2.4v-33.808q0-2.4-2.4-2.4h-7.7425q-2.4 0-2.4 2.4z" clip-path="url(#a)" fill="#fff" stroke="#fff"/>
<g clip-path="url(#a)">
<g transform="translate(67.252 606.33) rotate(90) scale(.08 -.08)">
<use xlink:href="#l"/>
<use x="44.083984" xlink:href="#d"/>
<use x="105.607422" xlink:href="#k"/>
<use x="144.970703" xlink:href="#j"/>
<use x="242.382812" xlink:href="#h"/>
<use x="270.166016" xlink:href="#g"/>
<use x="333.544922" xlink:href="#f"/>
<use x="394.824219" xlink:href="#i"/>
</g>
</g>
<path d="m75.962 606.33v33.808q0 2.4 2.4 2.4h7.7425q2.4 0 2.4-2.4v-33.808q0-2.4-2.4-2.4h-7.7425q-2.4 0-2.4 2.4z" clip-path="url(#a)" fill="#fff" stroke="#fff"/>
<g clip-path="url(#a)">
<g transform="translate(80.026 606.33) rotate(90) scale(.08 -.08)">
<use xlink:href="#l"/>
<use x="44.083984" xlink:href="#d"/>
<use x="105.607422" xlink:href="#k"/>
<use x="144.970703" xlink:href="#j"/>
<use x="242.382812" xlink:href="#h"/>
<use x="270.166016" xlink:href="#g"/>
<use x="333.544922" xlink:href="#f"/>
<use x="394.824219" xlink:href="#i"/>
</g>
</g>
<path d="m119.52 510.12 1.0741-5.3661q0.47104-2.3533-1.8823-2.8244l-7.5919-1.5196q-2.3533-0.47104-2.8244 1.8823l-1.0741 5.3661q-0.47104 2.3533 1.8823 2.8244l7.5919 1.5196q2.3533 0.47104 2.8244-1.8823z" clip-path="url(#a)" fill="#fff" stroke="#fff"/>
<g clip-path="url(#a)">
<g transform="translate(115.53 509.32) rotate(-78.681) scale(.08 -.08)">
<use xlink:href="#r"/>
</g>
</g>
<path d="m129.5 509.77 0.4792-6.1413q0.1867-2.3927-2.206-2.5794l-7.719-0.6023q-2.3927-0.1867-2.5794 2.206l-0.4792 6.1413q-0.1867 2.3927 2.206 2.5794l7.719 0.6023q2.3927 0.1867 2.5794-2.206z" clip-path="url(#a)" fill="#fff" stroke="#fff"/>
<g clip-path="url(#a)">
<g transform="translate(125.44 509.45) rotate(-85.538) scale(.08 -.08)">
<use xlink:href="#an"/>
</g>
</g>
<path d="m144.77 468.02 2.3406 4.2178q1.1645 2.0985 3.2631 0.93401l6.77-3.7568q2.0985-1.1645 0.93401-3.2631l-2.3406-4.2178q-1.1645-2.0985-3.2631-0.93401l-6.77 3.7568q-2.0985 1.1645-0.93401 3.2631z" clip-path="url(#a)" fill="#fff" stroke="#fff"/>
<g clip-path="url(#a)">
<g transform="translate(148.33 466.05) rotate(60.973) scale(.08 -.08)">
<use xlink:href="#y"/>
</g>
</g>
<path d="m91.93 606.33v33.808q0 2.4 2.4 2.4h7.7425q2.4 0 2.4-2.4v-33.808q0-2.4-2.4-2.4h-7.7425q-2.4 0-2.4 2.4z" clip-path="url(#a)" fill="#fff" stroke="#fff"/>
<g clip-path="url(#a)">
<g transform="translate(95.994 606.33) rotate(90) scale(.08 -.08)">
<use xlink:href="#l"/>
<use x="44.083984" xlink:href="#d"/>
<use x="105.607422" xlink:href="#k"/>
<use x="144.970703" xlink:href="#j"/>
<use x="242.382812" xlink:href="#h"/>
<use x="270.166016" xlink:href="#g"/>
<use x="333.544922" xlink:href="#f"/>
<use x="394.824219" xlink:href="#i"/>
</g>
</g>
<path d="m111.09 606.33v33.808q0 2.4 2.4 2.4h7.7425q2.4 0 2.4-2.4v-33.808q0-2.4-2.4-2.4h-7.7425q-2.4 0-2.4 2.4z" clip-path="url(#a)" fill="#fff" stroke="#fff"/>
<g clip-path="url(#a)">
<g transform="translate(115.15 606.33) rotate(90) scale(.08 -.08)">
<use xlink:href="#l"/>
<use x="44.083984" xlink:href="#d"/>
<use x="105.607422" xlink:href="#k"/>
<use x="144.970703" xlink:href="#j"/>
<use x="242.382812" xlink:href="#h"/>
<use x="270.166016" xlink:href="#g"/>
<use x="333.544922" xlink:href="#f"/>
<use x="394.824219" xlink:href="#i"/>
</g>
</g>
<path d="m168.22 549.84 1.4325-5.3994q0.61546-2.3197-1.7043-2.9352l-7.4836-1.9855q-2.3197-0.61546-2.9352 1.7043l-1.4325 5.3994q-0.61546 2.3197 1.7043 2.9352l7.4836 1.9855q2.3197 0.61546 2.9352-1.7043z" clip-path="url(#a)" fill="#fff" stroke="#fff"/>
<g clip-path="url(#a)">
<g transform="translate(164.29 548.8) rotate(-75.141) scale(.08 -.08)">
<use xlink:href="#u"/>
</g>
</g>
<path d="m176.85 544.44 1.4325 5.3994q0.61546 2.3197 2.9352 1.7043l7.4836-1.9855q2.3197-0.61546 1.7043-2.9352l-1.4325-5.3994q-0.61546-2.3197-2.9352-1.7043l-7.4836 1.9855q-2.3197 0.61546-1.7043 2.9352z" clip-path="url(#a)" fill="#fff" stroke="#fff"/>
<g clip-path="url(#a)">
<g transform="translate(180.78 543.4) rotate(75.141) scale(.08 -.08)">
<use xlink:href="#u"/>
</g>
</g>
<path d="m149.53 640.94 5.5214-33.354q0.39196-2.3678-1.9758-2.7597l-7.6385-1.2645q-2.3678-0.39196-2.7597 1.9758l-5.5214 33.354q-0.39196 2.3678 1.9758 2.7597l7.6385 1.2645q2.3678 0.39196 2.7597-1.9758z" clip-path="url(#a)" fill="#fff" stroke="#fff"/>
<g clip-path="url(#a)">
<g transform="translate(145.52 640.27) rotate(-80.6) scale(.08 -.08)">
<use xlink:href="#l"/>
<use x="44.083984" xlink:href="#d"/>
<use x="105.607422" xlink:href="#k"/>
<use x="144.970703" xlink:href="#j"/>
<use x="242.382812" xlink:href="#h"/>
<use x="270.166016" xlink:href="#g"/>
<use x="333.544922" xlink:href="#f"/>
<use x="394.824219" xlink:href="#i"/>
</g>
</g>
<path d="m149.93 607.58 5.5214 33.354q0.39196 2.3678 2.7597 1.9758l7.6385-1.2645q2.3678-0.39196 1.9758-2.7597l-5.5214-33.354q-0.39196-2.3678-2.7597-1.9758l-7.6385 1.2645q-2.3678 0.39196-1.9758 2.7597z" clip-path="url(#a)" fill="#fff" stroke="#fff"/>
<g clip-path="url(#a)">
<g transform="translate(153.94 606.92) rotate(80.6) scale(.08 -.08)">
<use xlink:href="#l"/>
<use x="44.083984" xlink:href="#d"/>
<use x="105.607422" xlink:href="#k"/>
<use x="144.970703" xlink:href="#j"/>
<use x="242.382812" xlink:href="#h"/>
<use x="270.166016" xlink:href="#g"/>
<use x="333.544922" xlink:href="#f"/>
<use x="394.824219" xlink:href="#i"/>
</g>
</g>
<path d="m187.74 606.33v33.808q0 2.4 2.4 2.4h7.7425q2.4 0 2.4-2.4v-33.808q0-2.4-2.4-2.4h-7.7425q-2.4 0-2.4 2.4z" clip-path="url(#a)" fill="#fff" stroke="#fff"/>
<g clip-path="url(#a)">
<g transform="translate(191.8 606.33) rotate(90) scale(.08 -.08)">
<use xlink:href="#l"/>
<use x="44.083984" xlink:href="#d"/>
<use x="105.607422" xlink:href="#k"/>
<use x="144.970703" xlink:href="#j"/>
<use x="242.382812" xlink:href="#h"/>
<use x="270.166016" xlink:href="#g"/>
<use x="333.544922" xlink:href="#f"/>
<use x="394.824219" xlink:href="#i"/>
</g>
</g>
<path d="m1251.2 606.33v33.808q0 2.4 2.4 2.4h7.7425q2.4 0 2.4-2.4v-33.808q0-2.4-2.4-2.4h-7.7425q-2.4 0-2.4 2.4z" clip-path="url(#a)" fill="#fff" stroke="#fff"/>
<g clip-path="url(#a)">
<g transform="translate(1255.2 606.33) rotate(90) scale(.08 -.08)">
<use xlink:href="#l"/>
<use x="44.083984" xlink:href="#d"/>
<use x="105.607422" xlink:href="#k"/>
<use x="144.970703" xlink:href="#j"/>
<use x="242.382812" xlink:href="#h"/>
<use x="270.166016" xlink:href="#g"/>
<use x="333.544922" xlink:href="#f"/>
<use x="394.824219" xlink:href="#i"/>
</g>
</g>
<defs>
<path id="b" d="m0 8.6603c2.2967 0 4.4997-0.9125 6.1237-2.5365 1.624-1.624 2.5365-3.827 2.5365-6.1237s-0.9125-4.4997-2.5365-6.1237c-1.624-1.624-3.827-2.5365-6.1237-2.5365s-4.4997 0.9125-6.1237 2.5365c-1.624 1.624-2.5365 3.827-2.5365 6.1237s0.9125 4.4997 2.5365 6.1237c1.624 1.624 3.827 2.5365 6.1237 2.5365z"/>
</defs>
<g clip-path="url(#a)">
<use x="59.878788" y="661.818182" fill="#ffffff" stroke="#ffffff" xlink:href="#b"/>
</g>
<g clip-path="url(#a)">
<use x="69.459394" y="661.818182" fill="#ffffff" stroke="#ffffff" xlink:href="#b"/>
</g>
<g clip-path="url(#a)">
<use x="82.233535" y="661.818182" fill="#ffffff" stroke="#ffffff" xlink:href="#b"/>
</g>
<g clip-path="url(#a)">
<use x="98.201212" y="661.818182" fill="#ffffff" stroke="#ffffff" xlink:href="#b"/>
</g>
<g clip-path="url(#a)">
<use x="117.362424" y="661.818182" fill="#ffffff" stroke="#ffffff" xlink:href="#b"/>
</g>
<g clip-path="url(#a)">
<use x="139.717172" y="661.818182" fill="#ffffff" stroke="#ffffff" xlink:href="#b"/>
</g>
<g clip-path="url(#a)">
<use x="165.265455" y="661.818182" fill="#ffffff" stroke="#ffffff" xlink:href="#b"/>
</g>
<g clip-path="url(#a)">
<use x="194.007273" y="661.818182" fill="#ffffff" stroke="#ffffff" xlink:href="#b"/>
</g>
<g clip-path="url(#a)">
<use x="225.942626" y="661.818182" fill="#ffffff" stroke="#ffffff" xlink:href="#b"/>
</g>
<g clip-path="url(#a)">
<use x="261.071515" y="661.818182" fill="#ffffff" stroke="#ffffff" xlink:href="#b"/>
</g>
<g clip-path="url(#a)">
<use x="299.393939" y="661.818182" fill="#ffffff" stroke="#ffffff" xlink:href="#b"/>
</g>
<g clip-path="url(#a)">
<use x="340.909899" y="661.818182" fill="#ffffff" stroke="#ffffff" xlink:href="#b"/>
</g>
<g clip-path="url(#a)">
<use x="385.619394" y="661.818182" fill="#ffffff" stroke="#ffffff" xlink:href="#b"/>
</g>
<g clip-path="url(#a)">
<use x="433.522424" y="661.818182" fill="#ffffff" stroke="#ffffff" xlink:href="#b"/>
</g>
<g clip-path="url(#a)">
<use x="484.61899" y="661.818182" fill="#ffffff" stroke="#ffffff" xlink:href="#b"/>
</g>
<g clip-path="url(#a)">
<use x="538.909091" y="661.818182" fill="#ffffff" stroke="#ffffff" xlink:href="#b"/>
</g>
<g clip-path="url(#a)">
<use x="596.392727" y="661.818182" fill="#ffffff" stroke="#ffffff" xlink:href="#b"/>
</g>
<g clip-path="url(#a)">
<use x="657.069899" y="661.818182" fill="#ffffff" stroke="#ffffff" xlink:href="#b"/>
</g>
<g clip-path="url(#a)">
<use x="720.940606" y="661.818182" fill="#ffffff" stroke="#ffffff" xlink:href="#b"/>
</g>
<g clip-path="url(#a)">
<use x="788.004848" y="661.818182" fill="#ffffff" stroke="#ffffff" xlink:href="#b"/>
</g>
<g clip-path="url(#a)">
<use x="858.262626" y="661.818182" fill="#ffffff" stroke="#ffffff" xlink:href="#b"/>
</g>
<g clip-path="url(#a)">
<use x="931.713939" y="661.818182" fill="#ffffff" stroke="#ffffff" xlink:href="#b"/>
</g>
<g clip-path="url(#a)">
<use x="1008.358788" y="661.818182" fill="#ffffff" stroke="#ffffff" xlink:href="#b"/>
</g>
<g clip-path="url(#a)">
<use x="1088.197172" y="661.818182" fill="#ffffff" stroke="#ffffff" xlink:href="#b"/>
</g>
<g clip-path="url(#a)">
<use x="1171.229091" y="661.818182" fill="#ffffff" stroke="#ffffff" xlink:href="#b"/>
</g>
<g clip-path="url(#a)">
<use x="1257.454545" y="661.818182" fill="#ffffff" stroke="#ffffff" xlink:href="#b"/>
</g>
<g clip-path="url(#a)">
<use x="214.427048" y="31.515152" fill="#ffffff" stroke="#ffffff" xlink:href="#b"/>
</g>
<g clip-path="url(#a)">
<use x="85.294007" y="348.843577" fill="#ffffff" stroke="#ffffff" xlink:href="#b"/>
</g>
<g clip-path="url(#a)">
<use x="225.942626" y="584.651734" fill="#ffffff" stroke="#ffffff" xlink:href="#b"/>
</g>
<g clip-path="url(#a)">
<use x="332.044512" y="111.038985" fill="#ffffff" stroke="#ffffff" xlink:href="#b"/>
</g>
<g clip-path="url(#a)">
<use x="261.071515" y="584.651734" fill="#ffffff" stroke="#ffffff" xlink:href="#b"/>
</g>
<g clip-path="url(#a)">
<use x="299.393939" y="584.651734" fill="#ffffff" stroke="#ffffff" xlink:href="#b"/>
</g>
<g clip-path="url(#a)">
<use x="707.833805" y="190.448906" fill="#ffffff" stroke="#ffffff" xlink:href="#b"/>
</g>
<g clip-path="url(#a)">
<use x="340.909899" y="584.651734" fill="#ffffff" stroke="#ffffff" xlink:href="#b"/>
</g>
<g clip-path="url(#a)">
<use x="499.788283" y="269.725973" fill="#ffffff" stroke="#ffffff" xlink:href="#b"/>
</g>
<g clip-path="url(#a)">
<use x="859.327138" y="584.651734" fill="#ffffff" stroke="#ffffff" xlink:href="#b"/>
</g>
<g clip-path="url(#a)">
<use x="1131.309899" y="506.411816" fill="#ffffff" stroke="#ffffff" xlink:href="#b"/>
</g>
<g clip-path="url(#a)">
<use x="1008.358788" y="584.651734" fill="#ffffff" stroke="#ffffff" xlink:href="#b"/>
</g>
<g clip-path="url(#a)">
<use x="1088.197172" y="584.651734" fill="#ffffff" stroke="#ffffff" xlink:href="#b"/>
</g>
<g clip-path="url(#a)">
<use x="1171.229091" y="584.651734" fill="#ffffff" stroke="#ffffff" xlink:href="#b"/>
</g>
<g clip-path="url(#a)">
<use x="385.619394" y="584.651734" fill="#ffffff" stroke="#ffffff" xlink:href="#b"/>
</g>
<g clip-path="url(#a)">
<use x="484.61899" y="584.651734" fill="#ffffff" stroke="#ffffff" xlink:href="#b"/>
</g>
<g clip-path="url(#a)">
<use x="538.110707" y="348.843577" fill="#ffffff" stroke="#ffffff" xlink:href="#b"/>
</g>
<g clip-path="url(#a)">
<use x="590.80404" y="348.843577" fill="#ffffff" stroke="#ffffff" xlink:href="#b"/>
</g>
<g clip-path="url(#a)">
<use x="538.909091" y="584.651734" fill="#ffffff" stroke="#ffffff" xlink:href="#b"/>
</g>
<g clip-path="url(#a)">
<use x="433.522424" y="584.651734" fill="#ffffff" stroke="#ffffff" xlink:href="#b"/>
</g>
<g clip-path="url(#a)">
<use x="642.69899" y="427.761537" fill="#ffffff" stroke="#ffffff" xlink:href="#b"/>
</g>
<g clip-path="url(#a)">
<use x="596.392727" y="584.651734" fill="#ffffff" stroke="#ffffff" xlink:href="#b"/>
</g>
<g clip-path="url(#a)">
<use x="689.005253" y="506.411816" fill="#ffffff" stroke="#ffffff" xlink:href="#b"/>
</g>
<g clip-path="url(#a)">
<use x="657.069899" y="584.651734" fill="#ffffff" stroke="#ffffff" xlink:href="#b"/>
</g>
<g clip-path="url(#a)">
<use x="720.940606" y="584.651734" fill="#ffffff" stroke="#ffffff" xlink:href="#b"/>
</g>
<g clip-path="url(#a)">
<use x="59.878788" y="584.651734" fill="#ffffff" stroke="#ffffff" xlink:href="#b"/>
</g>
<g clip-path="url(#a)">
<use x="69.459394" y="584.651734" fill="#ffffff" stroke="#ffffff" xlink:href="#b"/>
</g>
<g clip-path="url(#a)">
<use x="82.233535" y="584.651734" fill="#ffffff" stroke="#ffffff" xlink:href="#b"/>
</g>
<g clip-path="url(#a)">
<use x="129.60431" y="427.761537" fill="#ffffff" stroke="#ffffff" xlink:href="#b"/>
</g>
<g clip-path="url(#a)">
<use x="98.201212" y="584.651734" fill="#ffffff" stroke="#ffffff" xlink:href="#b"/>
</g>
<g clip-path="url(#a)">
<use x="117.362424" y="584.651734" fill="#ffffff" stroke="#ffffff" xlink:href="#b"/>
</g>
<g clip-path="url(#a)">
<use x="173.249293" y="506.411816" fill="#ffffff" stroke="#ffffff" xlink:href="#b"/>
</g>
<g clip-path="url(#a)">
<use x="152.491313" y="584.651734" fill="#ffffff" stroke="#ffffff" xlink:href="#b"/>
</g>
<g clip-path="url(#a)">
<use x="194.007273" y="584.651734" fill="#ffffff" stroke="#ffffff" xlink:href="#b"/>
</g>
<g clip-path="url(#a)">
<use x="1257.454545" y="584.651734" fill="#ffffff" stroke="#ffffff" xlink:href="#b"/>
</g>
<g clip-path="url(#a)">
<defs>
<path id="aq" d="m9.8125 72.906h9.8594v-72.906h-9.8594z"/>
</defs>
<g transform="translate(58.404 664.58) scale(.1 -.1)">
<use xlink:href="#aq"/>
</g>
</g>
<g clip-path="url(#a)">
<defs>
<path id="t" d="m48.781 52.594v-8.4062q-3.8125 2.1094-7.6406 3.1562t-7.7344 1.0469q-8.75 0-13.594-5.5469-4.8281-5.5312-4.8281-15.547t4.8281-15.562q4.8438-5.5312 13.594-5.5312 3.9062 0 7.7344 1.0469t7.6406 3.1562v-8.3125q-3.7656-1.75-7.7969-2.625-4.0156-0.89062-8.5625-0.89062-12.359 0-19.641 7.7656-7.2656 7.7656-7.2656 20.953 0 13.375 7.3438 21.031 7.3594 7.6719 20.156 7.6719 4.1406 0 8.0938-0.85938 3.9531-0.84375 7.6719-2.5469z"/>
<path id="p" d="m30.609 48.391q-7.2188 0-11.422-5.6406t-4.2031-15.453 4.1719-15.453q4.1875-5.6406 11.453-5.6406 7.1875 0 11.375 5.6562 4.2031 5.6719 4.2031 15.438 0 9.7188-4.2031 15.406-4.1875 5.6875-11.375 5.6875zm0 7.6094q11.719 0 18.406-7.625 6.7031-7.6094 6.7031-21.078 0-13.422-6.7031-21.078-6.6875-7.6406-18.406-7.6406-11.766 0-18.438 7.6406-6.6562 7.6562-6.6562 21.078 0 13.469 6.6562 21.078 6.6719 7.625 18.438 7.625z"/>
<path id="ad" d="m18.109 8.2031v-29h-9.0312v75.484h9.0312v-8.2969q2.8438 4.875 7.1562 7.2344 4.3281 2.375 10.328 2.375 9.9688 0 16.188-7.9062 6.2344-7.9062 6.2344-20.797t-6.2344-20.812q-6.2188-7.9062-16.188-7.9062-6 0-10.328 2.375-4.3125 2.375-7.1562 7.25zm30.578 19.094q0 9.9062-4.0781 15.547t-11.203 5.6406q-7.1406 0-11.219-5.6406t-4.0781-15.547 4.0781-15.547 11.219-5.6406q7.125 0 11.203 5.6406t4.0781 15.547z"/>
<path id="q" d="m18.312 70.219v-15.531h18.5v-6.9844h-18.5v-29.688q0-6.6875 1.8281-8.5938t7.4531-1.9062h9.2188v-7.5156h-9.2188q-10.406 0-14.359 3.875-3.9531 3.8906-3.9531 14.141v29.688h-6.5938v6.9844h6.5938v15.531z"/>
<path id="aj" d="m32.172-5.0781q-3.7969-9.7656-7.4219-12.734-3.6094-2.9844-9.6562-2.9844h-7.1875v7.5156h5.2812q3.7031 0 5.75 1.7656 2.0625 1.75 4.5469 8.2969l1.6094 4.0938-22.109 53.812h9.5156l17.094-42.766 17.094 42.766h9.5156z"/>
</defs>
<g transform="translate(41.755 664.58) scale(.1 -.1)">
<use xlink:href="#t"/>
<use x="54.980469" xlink:href="#p"/>
<use x="116.162109" xlink:href="#j"/>
<use x="213.574219" xlink:href="#ad"/>
<use x="277.050781" xlink:href="#i"/>
<use x="304.833984" xlink:href="#d"/>
<use x="366.357422" xlink:href="#q"/>
<use x="405.566406" xlink:href="#d"/>
<use x="467.089844" xlink:href="#i"/>
<use x="494.873047" xlink:href="#aj"/>
</g>
</g>
<g clip-path="url(#a)">
<defs>
<path id="au" d="m9.4219 54.688h8.9844v-55.672q0-10.438-3.9844-15.125-3.9688-4.6875-12.812-4.6875h-3.4219v7.6094h2.4062q5.125 0 6.9688 2.375 1.8594 2.3594 1.8594 9.8281zm0 21.297h8.9844v-11.391h-8.9844z"/>
<path id="v" d="m45.406 46.391v29.594h8.9844v-75.984h-8.9844v8.2031q-2.8281-4.875-7.1562-7.25-4.3125-2.375-10.375-2.375-9.9062 0-16.141 7.9062-6.2188 7.9219-6.2188 20.812t6.2188 20.797q6.2344 7.9062 16.141 7.9062 6.0625 0 10.375-2.375 4.3281-2.3594 7.1562-7.2344zm-30.609-19.094q0-9.9062 4.0781-15.547t11.203-5.6406 11.219 5.6406q4.1094 5.6406 4.1094 15.547t-4.1094 15.547q-4.0938 5.6406-11.219 5.6406t-11.203-5.6406-4.0781-15.547z"/>
</defs>
<g transform="translate(62.33 664.58) scale(.1 -.1)">
<use xlink:href="#d"/>
<use x="61.523438" xlink:href="#g"/>
<use x="124.902344" xlink:href="#au"/>
<use x="152.685547" xlink:href="#p"/>
<use x="213.867188" xlink:href="#aj"/>
<use x="273.046875" xlink:href="#d"/>
<use x="334.570312" xlink:href="#v"/>
</g>
</g>
<g clip-path="url(#a)">
<g transform="translate(90.372 664.58) scale(.1 -.1)">
<use xlink:href="#j"/>
<use x="97.412109" xlink:href="#aj"/>
</g>
</g>
<g clip-path="url(#a)">
<defs>
<path id="ac" d="m4.2031 54.688h8.9844l11.234-42.672 11.172 42.672h10.594l11.234-42.672 11.188 42.672h8.9844l-14.312-54.688h-10.594l-11.766 44.828-11.812-44.828h-10.609z"/>
<path id="s" d="m54.891 33.016v-33.016h-8.9844v32.719q0 7.7656-3.0312 11.609-3.0312 3.8594-9.0781 3.8594-7.2812 0-11.484-4.6406-4.2031-4.625-4.2031-12.641v-30.906h-9.0312v75.984h9.0312v-29.797q3.2344 4.9375 7.5938 7.375 4.375 2.4375 10.094 2.4375 9.4219 0 14.25-5.8281 4.8438-5.8281 4.8438-17.156z"/>
</defs>
<g transform="translate(102.58 664.58) scale(.1 -.1)">
<use xlink:href="#ac"/>
<use x="81.787109" xlink:href="#s"/>
<use x="145.166016" xlink:href="#p"/>
<use x="206.347656" xlink:href="#i"/>
<use x="234.130859" xlink:href="#d"/>
</g>
</g>
<g clip-path="url(#a)">
<defs>
<path id="at" d="m9.0781 75.984h9.0312v-44.875l26.812 23.578h11.469l-29-25.578 30.234-29.109h-11.719l-27.797 26.703v-26.703h-9.0312z"/>
</defs>
<g transform="translate(125.08 664.58) scale(.1 -.1)">
<use xlink:href="#t"/>
<use x="54.980469" xlink:href="#s"/>
<use x="118.359375" xlink:href="#d"/>
<use x="179.882812" xlink:href="#t"/>
<use x="234.863281" xlink:href="#at"/>
</g>
</g>
<g clip-path="url(#a)">
<g transform="translate(160.71 664.58) scale(.1 -.1)">
<use xlink:href="#h"/>
<use x="27.783203" xlink:href="#g"/>
</g>
</g>
<g clip-path="url(#a)">
<defs>
<path id="ar" d="m54.891 54.688-19.781-26.609 20.797-28.078h-10.594l-15.922 21.484-15.906-21.484h-10.609l21.25 28.609-19.438 26.078h10.594l14.5-19.484 14.5 19.484z"/>
</defs>
<g transform="translate(166.29 664.58) scale(.1 -.1)">
<use xlink:href="#d"/>
<use x="59.773438" xlink:href="#ar"/>
<use x="118.953125" xlink:href="#ad"/>
<use x="182.429688" xlink:href="#d"/>
<use x="243.953125" xlink:href="#k"/>
<use x="285.066406" xlink:href="#h"/>
<use x="312.849609" xlink:href="#d"/>
<use x="374.373047" xlink:href="#g"/>
<use x="437.751953" xlink:href="#t"/>
<use x="492.732422" xlink:href="#d"/>
</g>
</g>
<g clip-path="url(#a)">
<g transform="translate(216.54 664.58) scale(.1 -.1)">
<use xlink:href="#f"/>
<use x="61.279297" xlink:href="#g"/>
<use x="124.658203" xlink:href="#v"/>
</g>
</g>
<g clip-path="url(#a)">
<defs>
<path id="n" d="m44.281 53.078v-8.5q-3.7969 1.9531-7.9062 2.9219-4.0938 0.98438-8.5 0.98438-6.6875 0-10.031-2.0469t-3.3438-6.1562q0-3.125 2.3906-4.9062t9.625-3.3906l3.0781-0.6875q9.5625-2.0469 13.594-5.7812t4.0312-10.422q0-7.625-6.0312-12.078-6.0312-4.4375-16.578-4.4375-4.3906 0-9.1562 0.85938t-10.031 2.5625v9.2812q4.9844-2.5938 9.8125-3.8906 4.8281-1.2812 9.5781-1.2812 6.3438 0 9.75 2.1719 3.4219 2.1719 3.4219 6.125 0 3.6562-2.4688 5.6094-2.4531 1.9531-10.812 3.7656l-3.125 0.73438q-8.3438 1.75-12.062 5.3906-3.7031 3.6406-3.7031 9.9844 0 7.7188 5.4688 11.906 5.4688 4.2031 15.531 4.2031 4.9688 0 9.3594-0.73438 4.4062-0.71875 8.1094-2.1875z"/>
</defs>
<g transform="translate(251.31 664.58) scale(.1 -.1)">
<use xlink:href="#ac"/>
<use x="81.787109" xlink:href="#f"/>
<use x="143.066406" xlink:href="#n"/>
</g>
</g>
<g clip-path="url(#a)">
<g transform="translate(273.48 664.58) scale(.1 -.1)">
<use xlink:href="#h"/>
<use x="27.783203" xlink:href="#j"/>
<use x="125.195312" xlink:href="#ad"/>
<use x="188.671875" xlink:href="#k"/>
<use x="227.535156" xlink:href="#d"/>
<use x="289.058594" xlink:href="#n"/>
<use x="341.158203" xlink:href="#n"/>
<use x="393.257812" xlink:href="#d"/>
<use x="454.78125" xlink:href="#v"/>
</g>
</g>
<g clip-path="url(#a)">
<g transform="translate(330.3 664.58) scale(.1 -.1)">
<use xlink:href="#ac"/>
<use x="81.787109" xlink:href="#h"/>
<use x="109.570312" xlink:href="#q"/>
<use x="148.779297" xlink:href="#s"/>
</g>
</g>
<g clip-path="url(#a)">
<g transform="translate(377.41 664.58) scale(.1 -.1)">
<use xlink:href="#q"/>
<use x="39.208984" xlink:href="#s"/>
<use x="102.587891" xlink:href="#d"/>
</g>
</g>
<g clip-path="url(#a)">
<defs>
<path id="x" d="m37.109 75.984v-7.4844h-8.5938q-4.8281 0-6.7188-1.9531-1.875-1.9531-1.875-7.0312v-4.8281h14.797v-6.9844h-14.797v-47.703h-9.0312v47.703h-8.5938v6.9844h8.5938v3.8125q0 9.125 4.25 13.297 4.25 4.1875 13.469 4.1875z"/>
</defs>
<g transform="translate(404.67 664.58) scale(.1 -.1)">
<use xlink:href="#x"/>
<use x="35.205078" xlink:href="#k"/>
<use x="76.318359" xlink:href="#h"/>
<use x="104.101562" xlink:href="#d"/>
<use x="165.625" xlink:href="#g"/>
<use x="229.003906" xlink:href="#v"/>
<use x="292.480469" xlink:href="#i"/>
<use x="320.263672" xlink:href="#h"/>
<use x="348.046875" xlink:href="#g"/>
<use x="411.425781" xlink:href="#d"/>
<use x="472.949219" xlink:href="#n"/>
<use x="525.048828" xlink:href="#n"/>
</g>
</g>
<g clip-path="url(#a)">
<g transform="translate(475.21 664.58) scale(.1 -.1)">
<use xlink:href="#f"/>
<use x="61.279297" xlink:href="#g"/>
<use x="124.658203" xlink:href="#v"/>
</g>
</g>
<g clip-path="url(#a)">
<g transform="translate(499.75 664.58) scale(.1 -.1)">
<use xlink:href="#ad"/>
<use x="63.476562" xlink:href="#k"/>
<use x="102.339844" xlink:href="#p"/>
<use x="163.521484" xlink:href="#x"/>
<use x="198.726562" xlink:href="#d"/>
<use x="260.25" xlink:href="#n"/>
<use x="312.349609" xlink:href="#n"/>
<use x="364.449219" xlink:href="#h"/>
<use x="392.232422" xlink:href="#p"/>
<use x="453.414062" xlink:href="#g"/>
<use x="516.792969" xlink:href="#f"/>
<use x="578.072266" xlink:href="#i"/>
<use x="605.855469" xlink:href="#h"/>
<use x="633.638672" xlink:href="#n"/>
<use x="685.738281" xlink:href="#j"/>
</g>
</g>
<g clip-path="url(#a)">
<g transform="translate(591.57 664.58) scale(.1 -.1)">
<use xlink:href="#p"/>
<use x="61.181641" xlink:href="#x"/>
</g>
</g>
<g clip-path="url(#a)">
<g transform="translate(648.86 664.58) scale(.1 -.1)">
<use xlink:href="#q"/>
<use x="39.208984" xlink:href="#s"/>
<use x="102.587891" xlink:href="#d"/>
</g>
</g>
<g clip-path="url(#a)">
<g transform="translate(709.79 664.58) scale(.1 -.1)">
<use xlink:href="#n"/>
<use x="52.099609" xlink:href="#q"/>
<use x="91.308594" xlink:href="#f"/>
<use x="152.587891" xlink:href="#x"/>
<use x="187.792969" xlink:href="#x"/>
</g>
</g>
<g clip-path="url(#a)">
<g transform="translate(782.34 664.58) scale(.1 -.1)">
<use xlink:href="#f"/>
<use x="61.279297" xlink:href="#n"/>
</g>
</g>
<g clip-path="url(#a)">
<g transform="translate(848.32 664.58) scale(.1 -.1)">
<use xlink:href="#ac"/>
<use x="81.787109" xlink:href="#d"/>
<use x="143.310547" xlink:href="#i"/>
<use x="171.09375" xlink:href="#i"/>
</g>
</g>
<g clip-path="url(#a)">
<g transform="translate(926.05 664.58) scale(.1 -.1)">
<use xlink:href="#f"/>
<use x="61.279297" xlink:href="#n"/>
</g>
</g>
<g clip-path="url(#a)">
<g transform="translate(1000.2 664.58) scale(.1 -.1)">
<use xlink:href="#q"/>
<use x="39.208984" xlink:href="#s"/>
<use x="102.587891" xlink:href="#d"/>
</g>
</g>
<g clip-path="url(#a)">
<g transform="translate(1045.4 664.58) scale(.1 -.1)">
<use xlink:href="#f"/>
<use x="61.279297" xlink:href="#t"/>
<use x="116.259766" xlink:href="#t"/>
<use x="171.240234" xlink:href="#p"/>
<use x="232.421875" xlink:href="#j"/>
<use x="329.833984" xlink:href="#j"/>
<use x="427.246094" xlink:href="#p"/>
<use x="488.427734" xlink:href="#v"/>
<use x="551.904297" xlink:href="#f"/>
<use x="613.183594" xlink:href="#q"/>
<use x="652.392578" xlink:href="#h"/>
<use x="680.175781" xlink:href="#p"/>
<use x="741.357422" xlink:href="#g"/>
<use x="804.736328" xlink:href="#n"/>
</g>
</g>
<g clip-path="url(#a)">
<defs>
<path id="as" d="m2.9844 54.688h9.5156l17.094-45.891 17.094 45.891h9.5156l-20.516-54.688h-12.203z"/>
</defs>
<g transform="translate(1142.4 664.58) scale(.1 -.1)">
<use xlink:href="#q"/>
<use x="39.208984" xlink:href="#s"/>
<use x="102.587891" xlink:href="#d"/>
<use x="164.111328" xlink:href="#j"/>
<use x="261.523438" xlink:href="#n"/>
<use x="313.623047" xlink:href="#d"/>
<use x="375.146484" xlink:href="#i"/>
<use x="402.929688" xlink:href="#as"/>
<use x="462.109375" xlink:href="#d"/>
<use x="523.632812" xlink:href="#n"/>
</g>
</g>
<g clip-path="url(#a)">
<defs>
<path id="e" d="m10.688 12.406h10.312v-12.406h-10.312z"/>
</defs>
<g transform="translate(1255.9 664.58) scale(.1 -.1)">
<use xlink:href="#e"/>
</g>
</g>
<g clip-path="url(#a)">
<defs>
<path id="c" d="m12.406 8.2969h16.109v55.625l-17.531-3.5156v8.9844l17.438 3.5156h9.8594v-64.609h16.109v-8.2969h-41.984z"/>
</defs>
<g transform="translate(206.48 34.275) scale(.1 -.1)">
<use xlink:href="#c"/>
<use x="63.623047" xlink:href="#e"/>
<use x="95.410156" xlink:href="#c"/>
</g>
</g>
<g clip-path="url(#a)">
<defs>
<path id="m" d="m19.188 8.2969h34.422v-8.2969h-46.281v8.2969q5.6094 5.8125 15.297 15.594 9.7031 9.7969 12.188 12.641 4.7344 5.3125 6.6094 9 1.8906 3.6875 1.8906 7.25 0 5.8125-4.0781 9.4688-4.0781 3.6719-10.625 3.6719-4.6406 0-9.7969-1.6094-5.1406-1.6094-11-4.8906v9.9688q5.9531 2.3906 11.125 3.6094 5.1875 1.2188 9.4844 1.2188 11.328 0 18.062-5.6719 6.7344-5.6562 6.7344-15.125 0-4.5-1.6875-8.5312-1.6719-4.0156-6.125-9.4844-1.2188-1.4219-7.7656-8.1875-6.5312-6.7656-18.453-18.922z"/>
</defs>
<g transform="translate(77.342 351.6) scale(.1 -.1)">
<use xlink:href="#c"/>
<use x="63.623047" xlink:href="#e"/>
<use x="95.410156" xlink:href="#m"/>
</g>
</g>
<g clip-path="url(#a)">
<defs>
<path id="o" d="m40.578 39.312q7.0781-1.5156 11.047-6.3125 3.9844-4.7812 3.9844-11.812 0-10.781-7.4219-16.703-7.4219-5.9062-21.094-5.9062-4.5781 0-9.4375 0.90625t-10.031 2.7188v9.5156q4.0938-2.3906 8.9688-3.6094 4.8906-1.2188 10.219-1.2188 9.2656 0 14.125 3.6562t4.8594 10.641q0 6.4531-4.5156 10.078-4.5156 3.6406-12.562 3.6406h-8.5v8.1094h8.8906q7.2656 0 11.125 2.9062t3.8594 8.375q0 5.6094-3.9844 8.6094-3.9688 3.0156-11.391 3.0156-4.0625 0-8.7031-0.89062-4.6406-0.875-10.203-2.7188v8.7812q5.625 1.5625 10.531 2.3438t9.25 0.78125q11.234 0 17.766-5.1094 6.5469-5.0938 6.5469-13.781 0-6.0625-3.4688-10.234t-9.8594-5.7812z"/>
</defs>
<g transform="translate(217.99 587.41) scale(.1 -.1)">
<use xlink:href="#c"/>
<use x="63.623047" xlink:href="#e"/>
<use x="95.410156" xlink:href="#o"/>
</g>
</g>
<g clip-path="url(#a)">
<defs>
<path id="ab" d="m37.797 64.312-24.906-38.922h24.906zm-2.5938 8.5938h12.406v-47.516h10.406v-8.2031h-10.406v-17.188h-9.8125v17.188h-32.906v9.5156z"/>
</defs>
<g transform="translate(324.09 113.8) scale(.1 -.1)">
<use xlink:href="#c"/>
<use x="63.623047" xlink:href="#e"/>
<use x="95.410156" xlink:href="#ab"/>
</g>
</g>
<g clip-path="url(#a)">
<defs>
<path id="aa" d="m33.016 40.375q-6.6406 0-10.531-4.5469-3.875-4.5312-3.875-12.438 0-7.8594 3.875-12.438 3.8906-4.5625 10.531-4.5625t10.516 4.5625q3.875 4.5781 3.875 12.438 0 7.9062-3.875 12.438-3.875 4.5469-10.516 4.5469zm19.578 30.922v-8.9844q-3.7188 1.75-7.5 2.6719-3.7812 0.9375-7.5 0.9375-9.7656 0-14.922-6.5938-5.1406-6.5938-5.875-19.922 2.875 4.25 7.2188 6.5156 4.3594 2.2656 9.5781 2.2656 10.984 0 17.359-6.6719 6.375-6.6562 6.375-18.125 0-11.234-6.6406-18.031-6.6406-6.7812-17.672-6.7812-12.656 0-19.344 9.6875-6.6875 9.7031-6.6875 28.109 0 17.281 8.2031 27.562t22.016 10.281q3.7188 0 7.5-0.73438t7.8906-2.1875z"/>
</defs>
<g transform="translate(253.12 587.41) scale(.1 -.1)">
<use xlink:href="#c"/>
<use x="63.623047" xlink:href="#e"/>
<use x="95.410156" xlink:href="#aa"/>
</g>
</g>
<g clip-path="url(#a)">
<defs>
<path id="ag" d="m8.2031 72.906h46.875v-4.2031l-26.469-68.703h-10.297l24.906 64.594h-35.016z"/>
</defs>
<g transform="translate(291.44 587.41) scale(.1 -.1)">
<use xlink:href="#c"/>
<use x="63.623047" xlink:href="#e"/>
<use x="95.410156" xlink:href="#ag"/>
</g>
</g>
<g clip-path="url(#a)">
<defs>
<path id="af" d="m31.781 34.625q-7.0312 0-11.062-3.7656-4.0156-3.7656-4.0156-10.344 0-6.5938 4.0156-10.359 4.0312-3.7656 11.062-3.7656t11.078 3.7812q4.0625 3.7969 4.0625 10.344 0 6.5781-4.0312 10.344-4.0156 3.7656-11.109 3.7656zm-9.8594 4.1875q-6.3438 1.5625-9.8906 5.9062-3.5312 4.3594-3.5312 10.609 0 8.7344 6.2188 13.812 6.2344 5.0781 17.062 5.0781 10.891 0 17.094-5.0781t6.2031-13.812q0-6.25-3.5469-10.609-3.5312-4.3438-9.8281-5.9062 7.125-1.6562 11.094-6.5 3.9844-4.8281 3.9844-11.797 0-10.609-6.4688-16.281-6.4688-5.6562-18.531-5.6562-12.047 0-18.531 5.6562-6.4688 5.6719-6.4688 16.281 0 6.9688 4 11.797 4.0156 4.8438 11.141 6.5zm-3.6094 15.578q0-5.6562 3.5312-8.8281 3.5469-3.1719 9.9375-3.1719 6.3594 0 9.9375 3.1719 3.5938 3.1719 3.5938 8.8281 0 5.6719-3.5938 8.8438-3.5781 3.1719-9.9375 3.1719-6.3906 0-9.9375-3.1719-3.5312-3.1719-3.5312-8.8438z"/>
</defs>
<g transform="translate(699.88 193.21) scale(.1 -.1)">
<use xlink:href="#c"/>
<use x="63.623047" xlink:href="#e"/>
<use x="95.410156" xlink:href="#af"/>
</g>
</g>
<g clip-path="url(#a)">
<defs>
<path id="ae" d="m10.984 1.5156v8.9844q3.7188-1.7656 7.5156-2.6875 3.8125-0.92188 7.4844-0.92188 9.7656 0 14.906 6.5625 5.1562 6.5625 5.8906 19.953-2.8281-4.2031-7.1875-6.4531-4.3438-2.25-9.6094-2.25-10.938 0-17.312 6.6094-6.375 6.625-6.375 18.109 0 11.219 6.6406 18 6.6406 6.7969 17.672 6.7969 12.656 0 19.312-9.7031 6.6719-9.6875 6.6719-28.141 0-17.234-8.1875-27.516-8.1719-10.281-21.984-10.281-3.7188 0-7.5312 0.73438-3.7969 0.73438-7.9062 2.2031zm19.625 30.906q6.6406 0 10.516 4.5312 3.8906 4.5469 3.8906 12.469 0 7.8594-3.8906 12.422-3.875 4.5625-10.516 4.5625t-10.516-4.5625-3.875-12.422q0-7.9219 3.875-12.469 3.875-4.5312 10.516-4.5312z"/>
</defs>
<g transform="translate(332.96 587.41) scale(.1 -.1)">
<use xlink:href="#c"/>
<use x="63.623047" xlink:href="#e"/>
<use x="95.410156" xlink:href="#ae"/>
</g>
</g>
<g clip-path="url(#a)">
<defs>
<path id="ai" d="m31.781 66.406q-7.6094 0-11.453-7.5-3.8281-7.4844-3.8281-22.531 0-14.984 3.8281-22.484 3.8438-7.5 11.453-7.5 7.6719 0 11.5 7.5 3.8438 7.5 3.8438 22.484 0 15.047-3.8438 22.531-3.8281 7.5-11.5 7.5zm0 7.8125q12.266 0 18.734-9.7031 6.4688-9.6875 6.4688-28.141 0-18.406-6.4688-28.109-6.4688-9.6875-18.734-9.6875-12.25 0-18.719 9.6875-6.4688 9.7031-6.4688 28.109 0 18.453 6.4688 28.141 6.4688 9.7031 18.719 9.7031z"/>
</defs>
<g transform="translate(488.66 272.49) scale(.1 -.1)">
<use xlink:href="#c"/>
<use x="63.623047" xlink:href="#e"/>
<use x="95.410156" xlink:href="#c"/>
<use x="159.033203" xlink:href="#ai"/>
</g>
</g>
<g clip-path="url(#a)">
<g transform="translate(848.19 587.41) scale(.1 -.1)">
<use xlink:href="#c"/>
<use x="63.623047" xlink:href="#e"/>
<use x="95.410156" xlink:href="#c"/>
<use x="159.033203" xlink:href="#c"/>
</g>
</g>
<g clip-path="url(#a)">
<g transform="translate(1120.2 509.17) scale(.1 -.1)">
<use xlink:href="#c"/>
<use x="63.623047" xlink:href="#e"/>
<use x="95.410156" xlink:href="#c"/>
<use x="159.033203" xlink:href="#m"/>
</g>
</g>
<g clip-path="url(#a)">
<g transform="translate(997.23 587.41) scale(.1 -.1)">
<use xlink:href="#c"/>
<use x="63.623047" xlink:href="#e"/>
<use x="95.410156" xlink:href="#c"/>
<use x="159.033203" xlink:href="#o"/>
</g>
</g>
<g clip-path="url(#a)">
<g transform="translate(1077.1 587.41) scale(.1 -.1)">
<use xlink:href="#c"/>
<use x="63.623047" xlink:href="#e"/>
<use x="95.410156" xlink:href="#c"/>
<use x="159.033203" xlink:href="#ab"/>
</g>
</g>
<g clip-path="url(#a)">
<defs>
<path id="ah" d="m10.797 72.906h38.719v-8.3125h-29.688v-17.859q2.1406 0.73438 4.2812 1.0938 2.1562 0.35938 4.3125 0.35938 12.203 0 19.328-6.6875 7.1406-6.6875 7.1406-18.109 0-11.766-7.3281-18.297-7.3281-6.5156-20.656-6.5156-4.5938 0-9.3594 0.78125-4.75 0.78125-9.8281 2.3438v9.9219q4.3906-2.3906 9.0781-3.5625t9.9062-1.1719q8.4531 0 13.375 4.4375 4.9375 4.4375 4.9375 12.062 0 7.6094-4.9375 12.047-4.9219 4.4531-13.375 4.4531-3.9531 0-7.8906-0.875-3.9219-0.875-8.0156-2.7344z"/>
</defs>
<g transform="translate(1160.1 587.41) scale(.1 -.1)">
<use xlink:href="#c"/>
<use x="63.623047" xlink:href="#e"/>
<use x="95.410156" xlink:href="#c"/>
<use x="159.033203" xlink:href="#ah"/>
</g>
</g>
<g clip-path="url(#a)">
<g transform="translate(374.49 587.41) scale(.1 -.1)">
<use xlink:href="#c"/>
<use x="63.623047" xlink:href="#e"/>
<use x="95.410156" xlink:href="#c"/>
<use x="159.033203" xlink:href="#aa"/>
</g>
</g>
<g clip-path="url(#a)">
<g transform="translate(473.49 587.41) scale(.1 -.1)">
<use xlink:href="#c"/>
<use x="63.623047" xlink:href="#e"/>
<use x="95.410156" xlink:href="#c"/>
<use x="159.033203" xlink:href="#ag"/>
</g>
</g>
<g clip-path="url(#a)">
<g transform="translate(526.98 351.6) scale(.1 -.1)">
<use xlink:href="#c"/>
<use x="63.623047" xlink:href="#e"/>
<use x="95.410156" xlink:href="#c"/>
<use x="159.033203" xlink:href="#af"/>
</g>
</g>
<g clip-path="url(#a)">
<g transform="translate(579.67 351.6) scale(.1 -.1)">
<use xlink:href="#c"/>
<use x="63.623047" xlink:href="#e"/>
<use x="95.410156" xlink:href="#c"/>
<use x="159.033203" xlink:href="#ae"/>
</g>
</g>
<g clip-path="url(#a)">
<g transform="translate(527.78 587.41) scale(.1 -.1)">
<use xlink:href="#c"/>
<use x="63.623047" xlink:href="#e"/>
<use x="95.410156" xlink:href="#m"/>
<use x="159.033203" xlink:href="#ai"/>
</g>
</g>
<g clip-path="url(#a)">
<g transform="translate(422.39 587.41) scale(.1 -.1)">
<use xlink:href="#c"/>
<use x="63.623047" xlink:href="#e"/>
<use x="95.410156" xlink:href="#m"/>
<use x="159.033203" xlink:href="#c"/>
</g>
</g>
<g clip-path="url(#a)">
<g transform="translate(631.57 430.52) scale(.1 -.1)">
<use xlink:href="#c"/>
<use x="63.623047" xlink:href="#e"/>
<use x="95.410156" xlink:href="#m"/>
<use x="159.033203" xlink:href="#m"/>
</g>
</g>
<g clip-path="url(#a)">
<g transform="translate(585.26 587.41) scale(.1 -.1)">
<use xlink:href="#c"/>
<use x="63.623047" xlink:href="#e"/>
<use x="95.410156" xlink:href="#m"/>
<use x="159.033203" xlink:href="#o"/>
</g>
</g>
<g clip-path="url(#a)">
<g transform="translate(677.87 509.17) scale(.1 -.1)">
<use xlink:href="#c"/>
<use x="63.623047" xlink:href="#e"/>
<use x="95.410156" xlink:href="#m"/>
<use x="159.033203" xlink:href="#ab"/>
</g>
</g>
<g clip-path="url(#a)">
<g transform="translate(645.94 587.41) scale(.1 -.1)">
<use xlink:href="#c"/>
<use x="63.623047" xlink:href="#e"/>
<use x="95.410156" xlink:href="#m"/>
<use x="159.033203" xlink:href="#ah"/>
</g>
</g>
<g clip-path="url(#a)">
<g transform="translate(709.81 587.41) scale(.1 -.1)">
<use xlink:href="#c"/>
<use x="63.623047" xlink:href="#e"/>
<use x="95.410156" xlink:href="#m"/>
<use x="159.033203" xlink:href="#aa"/>
</g>
</g>
<g clip-path="url(#a)">
<g transform="translate(48.746 587.41) scale(.1 -.1)">
<use xlink:href="#c"/>
<use x="63.623047" xlink:href="#e"/>
<use x="95.410156" xlink:href="#m"/>
<use x="159.033203" xlink:href="#ag"/>
</g>
</g>
<g clip-path="url(#a)">
<g transform="translate(58.327 587.41) scale(.1 -.1)">
<use xlink:href="#c"/>
<use x="63.623047" xlink:href="#e"/>
<use x="95.410156" xlink:href="#m"/>
<use x="159.033203" xlink:href="#af"/>
</g>
</g>
<g clip-path="url(#a)">
<g transform="translate(71.101 587.41) scale(.1 -.1)">
<use xlink:href="#c"/>
<use x="63.623047" xlink:href="#e"/>
<use x="95.410156" xlink:href="#m"/>
<use x="159.033203" xlink:href="#ae"/>
</g>
</g>
<g clip-path="url(#a)">
<g transform="translate(118.47 430.52) scale(.1 -.1)">
<use xlink:href="#c"/>
<use x="63.623047" xlink:href="#e"/>
<use x="95.410156" xlink:href="#o"/>
<use x="159.033203" xlink:href="#ai"/>
</g>
</g>
<g clip-path="url(#a)">
<g transform="translate(87.068 587.41) scale(.1 -.1)">
<use xlink:href="#c"/>
<use x="63.623047" xlink:href="#e"/>
<use x="95.410156" xlink:href="#o"/>
<use x="159.033203" xlink:href="#c"/>
</g>
</g>
<g clip-path="url(#a)">
<g transform="translate(106.23 587.41) scale(.1 -.1)">
<use xlink:href="#c"/>
<use x="63.623047" xlink:href="#e"/>
<use x="95.410156" xlink:href="#o"/>
<use x="159.033203" xlink:href="#m"/>
</g>
</g>
<g clip-path="url(#a)">
<g transform="translate(162.12 509.17) scale(.1 -.1)">
<use xlink:href="#c"/>
<use x="63.623047" xlink:href="#e"/>
<use x="95.410156" xlink:href="#o"/>
<use x="159.033203" xlink:href="#o"/>
</g>
</g>
<g clip-path="url(#a)">
<g transform="translate(141.36 587.41) scale(.1 -.1)">
<use xlink:href="#c"/>
<use x="63.623047" xlink:href="#e"/>
<use x="95.410156" xlink:href="#o"/>
<use x="159.033203" xlink:href="#ab"/>
</g>
</g>
<g clip-path="url(#a)">
<g transform="translate(182.87 587.41) scale(.1 -.1)">
<use xlink:href="#c"/>
<use x="63.623047" xlink:href="#e"/>
<use x="95.410156" xlink:href="#o"/>
<use x="159.033203" xlink:href="#ah"/>
</g>
</g>
<g clip-path="url(#a)">
<g transform="translate(1246.3 587.41) scale(.1 -.1)">
<use xlink:href="#c"/>
<use x="63.623047" xlink:href="#e"/>
<use x="95.410156" xlink:href="#o"/>
<use x="159.033203" xlink:href="#aa"/>
</g>
</g>
<defs>
<clipPath id="a">
<rect width="1317.3" height="693.33"/>
</clipPath>
</defs>
</svg>
