<?xml version="1.0" encoding="UTF-8"?>
<!DOCTYPE svg  PUBLIC '-//W3C//DTD SVG 1.1//EN'  'http://www.w3.org/Graphics/SVG/1.1/DTD/svg11.dtd'>
<svg width="810.67pt" height="426.67pt" version="1.1" viewBox="0 0 810.67 426.67" xmlns="http://www.w3.org/2000/svg" xmlns:xlink="http://www.w3.org/1999/xlink">
<metadata>
<rdf:RDF xmlns:cc="http://creativecommons.org/ns#" xmlns:dc="http://purl.org/dc/elements/1.1/" xmlns:rdf="http://www.w3.org/1999/02/22-rdf-syntax-ns#">
<cc:Work>
<dc:type rdf:resource="http://purl.org/dc/dcmitype/StillImage"/>
<dc:date>2021-02-25T11:39:09.690141</dc:date>
<dc:format>image/svg+xml</dc:format>
<dc:creator>
<cc:Agent>
<dc:title>Matplotlib v3.3.3, https://matplotlib.org/</dc:title>
</cc:Agent>
</dc:creator>
</cc:Work>
</rdf:RDF>
</metadata>
<defs>
<style type="text/css">*{stroke-linecap:butt;stroke-linejoin:round;}</style>
</defs>
<path d="m0 426.67h810.67v-426.67h-810.67z" fill="#fff"/>
<g fill="none" stroke="#000">
<path d="m421.55 19.394-130.11 55.923" clip-path="url(#a)"/>
<path d="m421.55 19.394 130.11 111.75" clip-path="url(#a)"/>
<path d="m291.44 75.317-200.76 55.83" clip-path="url(#a)"/>
<path d="m291.44 75.317 54.932 277.61" clip-path="url(#a)"/>
<path d="m291.44 75.317 145.82 222.51" clip-path="url(#a)"/>
<path d="m551.66 131.15-13.675 221.78" clip-path="url(#a)"/>
<path d="m551.66 131.15 60.022 221.78" clip-path="url(#a)"/>
<path d="m551.66 131.15 138.63 221.78" clip-path="url(#a)"/>
<path d="m551.66 131.15-407.13 55.718" clip-path="url(#a)" stroke-dasharray="3.7,1.6"/>
<path d="m551.66 131.15 222.16 221.78" clip-path="url(#a)"/>
<path d="m537.99 352.93v54.343" clip-path="url(#a)"/>
<path d="m611.68 352.93v54.343" clip-path="url(#a)"/>
<path d="m690.29 352.93v54.343" clip-path="url(#a)"/>
<path d="m90.688 131.15-53.84 221.78" clip-path="url(#a)"/>
<path d="m90.688 131.15 53.84 55.718" clip-path="url(#a)"/>
<path d="m346.38 352.93v54.343" clip-path="url(#a)"/>
<path d="m437.27 297.83-31.935 55.099" clip-path="url(#a)"/>
<path d="m437.27 297.83 31.935 55.099" clip-path="url(#a)"/>
<path d="m405.33 352.93v54.343" clip-path="url(#a)"/>
<path d="m469.2 352.93v54.343" clip-path="url(#a)"/>
<path d="m36.848 352.93v54.343" clip-path="url(#a)"/>
<path d="m144.53 186.86-92.94 166.06" clip-path="url(#a)"/>
<path d="m144.53 186.86-26.613 55.577" clip-path="url(#a)"/>
<path d="m144.53 186.86 54.454 166.06" clip-path="url(#a)"/>
<path d="m144.53 186.86 123.24 110.97" clip-path="url(#a)"/>
<path d="m144.53 186.86-73.288 166.06" clip-path="url(#a)"/>
<path d="m144.53 186.86 15.149 166.06" clip-path="url(#a)"/>
<path d="m51.588 352.93v54.343" clip-path="url(#a)"/>
<path d="m117.92 242.44-7.3697 55.388" clip-path="url(#a)"/>
<path d="m117.92 242.44 7.3697 110.49" clip-path="url(#a)"/>
<path d="m198.98 352.93v54.343" clip-path="url(#a)"/>
<path d="m267.77 297.83-24.566 55.099" clip-path="url(#a)"/>
<path d="m267.77 297.83 24.566 55.099" clip-path="url(#a)"/>
<path d="m243.2 352.93v54.343" clip-path="url(#a)"/>
<path d="m292.33 352.93v54.343" clip-path="url(#a)"/>
<path d="m110.55 297.83 14.739 55.099" clip-path="url(#a)" stroke-dasharray="3.7,1.6"/>
<path d="m110.55 297.83-14.739 55.099" clip-path="url(#a)"/>
<path d="m125.28 352.93v54.343" clip-path="url(#a)"/>
<path d="m95.806 352.93v54.343" clip-path="url(#a)"/>
<path d="m71.24 352.93v54.343" clip-path="url(#a)"/>
<path d="m159.68 352.93v54.343" clip-path="url(#a)"/>
<path d="m773.82 352.93v54.343" clip-path="url(#a)"/>
</g>
<path d="m356.21 54.305 5.5273-2.3757q2.205-0.94773 1.2572-3.1527l-3.0574-7.1133q-0.94773-2.205-3.1527-1.2572l-5.5273 2.3757q-2.205 0.94773-1.2572 3.1527l3.0574 7.1133q0.94773 2.205 3.1527 1.2572z" clip-path="url(#a)" fill="#fff" stroke="#fff"/>
<g clip-path="url(#a)">
<g transform="translate(354.61 50.572) rotate(-23.259) scale(.08 -.08)">
<defs>
<path id="ac" d="m9.8125 72.906h9.8594v-29.891h35.844v29.891h9.8594v-72.906h-9.8594v34.719h-35.844v-34.719h-9.8594z"/>
</defs>
<use xlink:href="#ac"/>
</g>
</g>
<path d="m480.24 78.068 4.5639 3.92q1.8206 1.5638 3.3844-0.25686l5.0448-5.8734q1.5638-1.8206-0.25686-3.3844l-4.5639-3.92q-1.8206-1.5638-3.3844 0.25686l-5.0448 5.8734q-1.5638 1.8206 0.25686 3.3844z" clip-path="url(#a)" fill="#fff" stroke="#fff"/>
<g clip-path="url(#a)">
<g transform="translate(482.89 74.985) rotate(40.66) scale(.08 -.08)">
<use xlink:href="#ac"/>
</g>
</g>
<path d="m190.11 110.01 5.2724-1.4662q2.3123-0.64303 1.6692-2.9553l-2.0744-7.4594q-0.64303-2.3123-2.9553-1.6692l-5.2724 1.4662q-2.3123 0.64303-1.6692 2.9553l2.0744 7.4594q0.64303 2.3123 2.9553 1.6692z" clip-path="url(#a)" fill="#fff" stroke="#fff"/>
<g clip-path="url(#a)">
<g transform="translate(189.02 106.09) rotate(-15.541) scale(.08 -.08)">
<defs>
<path id="q" d="m34.188 63.188-13.391-36.281h26.812zm-5.5781 9.7188h11.188l27.781-72.906h-10.25l-6.6406 18.703h-32.859l-6.6406-18.703h-10.406z"/>
</defs>
<use xlink:href="#q"/>
</g>
</g>
<path d="m312.31 213.08 0.89314 4.5137q0.46586 2.3544 2.8202 1.8885l7.5952-1.5029q2.3544-0.46586 1.8885-2.8202l-0.89314-4.5137q-0.46586-2.3544-2.8202-1.8885l-7.5952 1.5029q-2.3544 0.46586-1.8885 2.8202z" clip-path="url(#a)" fill="#fff" stroke="#fff"/>
<g clip-path="url(#a)">
<g transform="translate(316.3 212.29) rotate(78.807) scale(.08 -.08)">
<defs>
<path id="s" d="m9.8125 72.906h41.891v-8.3125h-32.031v-21.484h28.906v-8.2969h-28.906v-34.812h-9.8594z"/>
</defs>
<use xlink:href="#s"/>
</g>
</g>
<path d="m357.72 187.89 2.7838 4.2478q1.3155 2.0073 3.3229 0.69182l6.4758-4.2439q2.0073-1.3155 0.69182-3.3229l-2.7838-4.2478q-1.3155-2.0073-3.3229-0.69182l-6.4758 4.2439q-2.0073 1.3155-0.69182 3.3229z" clip-path="url(#a)" fill="#fff" stroke="#fff"/>
<g clip-path="url(#a)">
<g transform="translate(361.12 185.66) rotate(56.761) scale(.08 -.08)">
<defs>
<path id="ah" d="m53.516 70.516v-9.625q-5.6094 2.6875-10.594 4-4.9844 1.3281-9.625 1.3281-8.0469 0-12.422-3.125t-4.375-8.8906q0-4.8438 2.9062-7.3125 2.9062-2.4531 11.016-3.9688l5.9531-1.2188q11.031-2.1094 16.281-7.4062t5.25-14.172q0-10.609-7.1094-16.078-7.0938-5.4688-20.812-5.4688-5.1719 0-11.016 1.1719-5.8281 1.1719-12.078 3.4688v10.156q6-3.3594 11.766-5.0781 5.7656-1.7031 11.328-1.7031 8.4375 0 13.031 3.3125 4.5938 3.3281 4.5938 9.4844 0 5.3594-3.2969 8.3906t-10.812 4.5469l-6.0156 1.1719q-11.031 2.1875-15.969 6.875-4.9219 4.6875-4.9219 13.047 0 9.6719 6.8125 15.234t18.766 5.5625q5.1406 0 10.453-0.9375 5.3281-0.92188 10.891-2.7656z"/>
</defs>
<use xlink:href="#ah"/>
</g>
</g>
<path d="m550.92 245.16 0.33679-5.4621q0.1477-2.3955-2.2477-2.5432l-7.7278-0.47649q-2.3955-0.1477-2.5432 2.2478l-0.33679 5.4621q-0.1477 2.3955 2.2478 2.5432l7.7278 0.47649q2.3955 0.1477 2.5432-2.2478z" clip-path="url(#a)" fill="#fff" stroke="#fff"/>
<g clip-path="url(#a)">
<g transform="translate(546.86 244.91) rotate(-86.472) scale(.08 -.08)">
<use xlink:href="#q"/>
</g>
</g>
<path d="m574.98 241.32 1.2765 4.7166q0.62697 2.3167 2.9436 1.6897l7.4736-2.0226q2.3167-0.62697 1.6897-2.9436l-1.2765-4.7166q-0.62697-2.3167-2.9436-1.6897l-7.4736 2.0226q-2.3167 0.62697-1.6897 2.9436z" clip-path="url(#a)" fill="#fff" stroke="#fff"/>
<g clip-path="url(#a)">
<g transform="translate(578.9 240.26) rotate(74.857) scale(.08 -.08)">
<defs>
<path id="h" d="m-0.29688 72.906h61.672v-8.3125h-25.875v-64.594h-9.9062v64.594h-25.891z"/>
</defs>
<use xlink:href="#h"/>
</g>
</g>
<path d="m614.38 243.32 2.5568 4.0904q1.2721 2.0351 3.3072 0.763l6.5654-4.1039q2.0351-1.2721 0.763-3.3072l-2.5568-4.0904q-1.2721-2.0351-3.3072-0.763l-6.5654 4.1039q-2.0351 1.2721-0.763 3.3072z" clip-path="url(#a)" fill="#fff" stroke="#fff"/>
<g clip-path="url(#a)">
<g transform="translate(617.83 241.16) rotate(57.991) scale(.08 -.08)">
<defs>
<path id="ab" d="m19.672 64.797v-27.391h12.406q6.8906 0 10.641 3.5625 3.7656 3.5625 3.7656 10.156 0 6.5469-3.7656 10.109-3.75 3.5625-10.641 3.5625zm-9.8594 8.1094h22.266q12.266 0 18.531-5.5469 6.2812-5.5469 6.2812-16.234 0-10.797-6.2812-16.312-6.2656-5.5156-18.531-5.5156h-12.406v-29.297h-9.8594z"/>
</defs>
<use xlink:href="#ab"/>
</g>
</g>
<path d="m346.23 165.59 5.422-0.74201q2.3778-0.32541 2.0524-2.7032l-1.0498-7.671q-0.32541-2.3778-2.7032-2.0524l-5.422 0.74201q-2.3778 0.32541-2.0524 2.7032l1.0498 7.671q0.32541 2.3778 2.7032 2.0524z" clip-path="url(#a)" fill="#fff" stroke="#fff"/>
<g clip-path="url(#a)">
<g transform="translate(345.68 161.56) rotate(-7.7927) scale(.08 -.08)">
<use xlink:href="#q"/>
</g>
</g>
<path d="m656.24 244.41 4.1436 4.1366q1.6985 1.6956 3.3941-0.002853l5.4702-5.4794q1.6956-1.6985-0.002853-3.3941l-4.1436-4.1366q-1.6985-1.6956-3.3941 0.002853l-5.4702 5.4794q-1.6956 1.6985 0.002854 3.3941z" clip-path="url(#a)" fill="#fff" stroke="#fff"/>
<g clip-path="url(#a)">
<g transform="translate(659.11 241.53) rotate(44.952) scale(.08 -.08)">
<defs>
<path id="r" d="m8.6875 72.906h9.9219v-44.297q0-11.719 4.2344-16.875 4.25-5.1406 13.781-5.1406 9.4688 0 13.719 5.1406 4.25 5.1562 4.25 16.875v44.297h9.9062v-45.516q0-14.25-7.0625-21.531-7.0469-7.2812-20.812-7.2812-13.828 0-20.891 7.2812-7.0469 7.2812-7.0469 21.531z"/>
</defs>
<use xlink:href="#r"/>
</g>
</g>
<path d="m531.72 363.2v33.808q0 2.4 2.4 2.4h7.7425q2.4 0 2.4-2.4v-33.808q0-2.4-2.4-2.4h-7.7425q-2.4 0-2.4 2.4z" clip-path="url(#a)" fill="#fff" stroke="#fff"/>
<g clip-path="url(#a)">
<g transform="translate(535.78 363.2) rotate(90) scale(.08 -.08)">
<defs>
<path id="d" d="m56.203 29.594v-4.3906h-41.312q0.59375-9.2812 5.5938-14.141t13.938-4.8594q5.1719 0 10.031 1.2656t9.6562 3.8125v-8.5q-4.8438-2.0469-9.9219-3.125t-10.297-1.0781q-13.094 0-20.734 7.6094-7.6406 7.625-7.6406 20.625 0 13.422 7.25 21.297 7.25 7.8906 19.562 7.8906 11.031 0 17.453-7.1094 6.4219-7.0938 6.4219-19.297zm-8.9844 2.6406q-0.09375 7.3594-4.125 11.75-4.0312 4.4062-10.672 4.4062-7.5156 0-12.031-4.25t-5.2031-11.969z"/>
<path id="g" d="m41.109 46.297q-1.5156 0.875-3.2969 1.2812-1.7812 0.42188-3.9219 0.42188-7.625 0-11.703-4.9531t-4.0781-14.234v-28.812h-9.0312v54.688h9.0312v-8.5q2.8438 4.9844 7.375 7.3906 4.5469 2.4219 11.047 2.4219 0.92188 0 2.0469-0.125 1.125-0.10938 2.4844-0.35938z"/>
<path id="l" d="m52 44.188q3.375 6.0625 8.0625 8.9375t11.031 2.875q8.5469 0 13.188-5.9844 4.6406-5.9688 4.6406-17v-33.016h-9.0312v32.719q0 7.8594-2.7969 11.656-2.7812 3.8125-8.4844 3.8125-6.9844 0-11.047-4.6406-4.0469-4.625-4.0469-12.641v-30.906h-9.0312v32.719q0 7.9062-2.7812 11.688t-8.5938 3.7812q-6.8906 0-10.953-4.6562-4.0469-4.6562-4.0469-12.625v-30.906h-9.0312v54.688h9.0312v-8.5q3.0781 5.0312 7.375 7.4219t10.203 2.3906q5.9688 0 10.141-3.0312 4.1719-3.0156 6.1719-8.7812z"/>
<path id="k" d="m9.4219 54.688h8.9844v-54.688h-8.9844zm0 21.297h8.9844v-11.391h-8.9844z"/>
<path id="i" d="m54.891 33.016v-33.016h-8.9844v32.719q0 7.7656-3.0312 11.609-3.0312 3.8594-9.0781 3.8594-7.2812 0-11.484-4.6406-4.2031-4.625-4.2031-12.641v-30.906h-9.0312v54.688h9.0312v-8.5q3.2344 4.9375 7.5938 7.375 4.375 2.4375 10.094 2.4375 9.4219 0 14.25-5.8281 4.8438-5.8281 4.8438-17.156z"/>
<path id="f" d="m34.281 27.484q-10.891 0-15.094-2.4844t-4.2031-8.5q0-4.7812 3.1562-7.5938 3.1562-2.7969 8.5625-2.7969 7.4844 0 12 5.2969t4.5156 14.078v2zm17.922 3.7188v-31.203h-8.9844v8.2969q-3.0781-4.9688-7.6719-7.3438t-11.234-2.375q-8.3906 0-13.359 4.7188-4.9531 4.7188-4.9531 12.625 0 9.2188 6.1719 13.906 6.1875 4.6875 18.438 4.6875h12.609v0.89062q0 6.2031-4.0781 9.5938t-11.453 3.3906q-4.6875 0-9.1406-1.125-4.4375-1.125-8.5312-3.375v8.3125q4.9219 1.9062 9.5625 2.8438 4.6406 0.95312 9.0312 0.95312 11.875 0 17.734-6.1562 5.8594-6.1406 5.8594-18.641z"/>
<path id="j" d="m9.4219 75.984h8.9844v-75.984h-8.9844z"/>
</defs>
<use xlink:href="#h"/>
<use x="44.083984" xlink:href="#d"/>
<use x="105.607422" xlink:href="#g"/>
<use x="144.970703" xlink:href="#l"/>
<use x="242.382812" xlink:href="#k"/>
<use x="270.166016" xlink:href="#i"/>
<use x="333.544922" xlink:href="#f"/>
<use x="394.824219" xlink:href="#j"/>
</g>
</g>
<path d="m605.41 363.2v33.808q0 2.4 2.4 2.4h7.7425q2.4 0 2.4-2.4v-33.808q0-2.4-2.4-2.4h-7.7425q-2.4 0-2.4 2.4z" clip-path="url(#a)" fill="#fff" stroke="#fff"/>
<g clip-path="url(#a)">
<g transform="translate(609.48 363.2) rotate(90) scale(.08 -.08)">
<use xlink:href="#h"/>
<use x="44.083984" xlink:href="#d"/>
<use x="105.607422" xlink:href="#g"/>
<use x="144.970703" xlink:href="#l"/>
<use x="242.382812" xlink:href="#k"/>
<use x="270.166016" xlink:href="#i"/>
<use x="333.544922" xlink:href="#f"/>
<use x="394.824219" xlink:href="#j"/>
</g>
</g>
<path d="m684.02 363.2v33.808q0 2.4 2.4 2.4h7.7425q2.4 0 2.4-2.4v-33.808q0-2.4-2.4-2.4h-7.7425q-2.4 0-2.4 2.4z" clip-path="url(#a)" fill="#fff" stroke="#fff"/>
<g clip-path="url(#a)">
<g transform="translate(688.09 363.2) rotate(90) scale(.08 -.08)">
<use xlink:href="#h"/>
<use x="44.083984" xlink:href="#d"/>
<use x="105.607422" xlink:href="#g"/>
<use x="144.970703" xlink:href="#l"/>
<use x="242.382812" xlink:href="#k"/>
<use x="270.166016" xlink:href="#i"/>
<use x="333.544922" xlink:href="#f"/>
<use x="394.824219" xlink:href="#j"/>
</g>
</g>
<path d="m69.32 245.75 1.0855-4.4714q0.56618-2.3323-1.7661-2.8984l-7.524-1.8265q-2.3323-0.56618-2.8984 1.7661l-1.0855 4.4714q-0.56618 2.3323 1.7661 2.8984l7.524 1.8265q2.3323 0.56618 2.8984-1.7661z" clip-path="url(#a)" fill="#fff" stroke="#fff"/>
<g clip-path="url(#a)">
<g transform="translate(65.371 244.79) rotate(-76.355) scale(.08 -.08)">
<use xlink:href="#s"/>
</g>
</g>
<path d="m111.16 161.36 3.8818 4.0172q1.6677 1.7259 3.3936 0.058166l5.5678-5.3801q1.7259-1.6677 0.058166-3.3936l-3.8818-4.0172q-1.6677-1.7259-3.3936-0.058165l-5.5678 5.3801q-1.7259 1.6677-0.058165 3.3936z" clip-path="url(#a)" fill="#fff" stroke="#fff"/>
<g clip-path="url(#a)">
<g transform="translate(114.08 158.53) rotate(45.982) scale(.08 -.08)">
<defs>
<path id="n" d="m64.406 67.281v-10.391q-4.9844 4.6406-10.625 6.9219-5.6406 2.2969-11.984 2.2969-12.5 0-19.141-7.6406t-6.6406-22.094q0-14.406 6.6406-22.047t19.141-7.6406q6.3438 0 11.984 2.2969t10.625 6.9375v-10.312q-5.1719-3.5156-10.969-5.2812-5.7812-1.75-12.219-1.75-16.562 0-26.094 10.125-9.5156 10.141-9.5156 27.672 0 17.578 9.5156 27.703 9.5312 10.141 26.094 10.141 6.5312 0 12.312-1.7344 5.7969-1.7344 10.875-5.2031z"/>
</defs>
<use xlink:href="#n"/>
</g>
</g>
<path d="m340.1 363.2v33.808q0 2.4 2.4 2.4h7.7425q2.4 0 2.4-2.4v-33.808q0-2.4-2.4-2.4h-7.7425q-2.4 0-2.4 2.4z" clip-path="url(#a)" fill="#fff" stroke="#fff"/>
<g clip-path="url(#a)">
<g transform="translate(344.17 363.2) rotate(90) scale(.08 -.08)">
<use xlink:href="#h"/>
<use x="44.083984" xlink:href="#d"/>
<use x="105.607422" xlink:href="#g"/>
<use x="144.970703" xlink:href="#l"/>
<use x="242.382812" xlink:href="#k"/>
<use x="270.166016" xlink:href="#i"/>
<use x="333.544922" xlink:href="#f"/>
<use x="394.824219" xlink:href="#j"/>
</g>
</g>
<path d="m425.57 330.51 2.3073-3.9809q1.2035-2.0764-0.87294-3.2799l-6.6987-3.8825q-2.0764-1.2035-3.2799 0.87294l-2.3073 3.9809q-1.2035 2.0764 0.87294 3.2799l6.6987 3.8825q2.0764 1.2035 3.2799-0.87294z" clip-path="url(#a)" fill="#fff" stroke="#fff"/>
<g clip-path="url(#a)">
<g transform="translate(422.06 328.48) rotate(-59.904) scale(.08 -.08)">
<use xlink:href="#s"/>
</g>
</g>
<path d="m446.41 326.11 2.8013 4.8331q1.2035 2.0764 3.2799 0.87294l6.6987-3.8825q2.0764-1.2035 0.87294-3.2799l-2.8013-4.8331q-1.2035-2.0764-3.2799-0.87294l-6.6987 3.8825q-2.0764 1.2035-0.87294 3.2799z" clip-path="url(#a)" fill="#fff" stroke="#fff"/>
<g clip-path="url(#a)">
<g transform="translate(449.93 324.07) rotate(59.904) scale(.08 -.08)">
<use xlink:href="#n"/>
</g>
</g>
<path d="m399.06 363.2v33.808q0 2.4 2.4 2.4h7.7425q2.4 0 2.4-2.4v-33.808q0-2.4-2.4-2.4h-7.7425q-2.4 0-2.4 2.4z" clip-path="url(#a)" fill="#fff" stroke="#fff"/>
<g clip-path="url(#a)">
<g transform="translate(403.13 363.2) rotate(90) scale(.08 -.08)">
<use xlink:href="#h"/>
<use x="44.083984" xlink:href="#d"/>
<use x="105.607422" xlink:href="#g"/>
<use x="144.970703" xlink:href="#l"/>
<use x="242.382812" xlink:href="#k"/>
<use x="270.166016" xlink:href="#i"/>
<use x="333.544922" xlink:href="#f"/>
<use x="394.824219" xlink:href="#j"/>
</g>
</g>
<path d="m462.93 363.2v33.808q0 2.4 2.4 2.4h7.7425q2.4 0 2.4-2.4v-33.808q0-2.4-2.4-2.4h-7.7425q-2.4 0-2.4 2.4z" clip-path="url(#a)" fill="#fff" stroke="#fff"/>
<g clip-path="url(#a)">
<g transform="translate(467 363.2) rotate(90) scale(.08 -.08)">
<use xlink:href="#h"/>
<use x="44.083984" xlink:href="#d"/>
<use x="105.607422" xlink:href="#g"/>
<use x="144.970703" xlink:href="#l"/>
<use x="242.382812" xlink:href="#k"/>
<use x="270.166016" xlink:href="#i"/>
<use x="333.544922" xlink:href="#f"/>
<use x="394.824219" xlink:href="#j"/>
</g>
</g>
<path d="m30.577 363.2v33.808q0 2.4 2.4 2.4h7.7425q2.4 0 2.4-2.4v-33.808q0-2.4-2.4-2.4h-7.7425q-2.4 0-2.4 2.4z" clip-path="url(#a)" fill="#fff" stroke="#fff"/>
<g clip-path="url(#a)">
<g transform="translate(34.641 363.2) rotate(90) scale(.08 -.08)">
<use xlink:href="#h"/>
<use x="44.083984" xlink:href="#d"/>
<use x="105.607422" xlink:href="#g"/>
<use x="144.970703" xlink:href="#l"/>
<use x="242.382812" xlink:href="#k"/>
<use x="270.166016" xlink:href="#i"/>
<use x="333.544922" xlink:href="#f"/>
<use x="394.824219" xlink:href="#j"/>
</g>
</g>
<path d="m102.17 275.4 2.7282-4.8747q1.1721-2.0943-0.92221-3.2664l-6.7564-3.7813q-2.0943-1.1721-3.2664 0.92221l-2.7282 4.8747q-1.1721 2.0943 0.92221 3.2664l6.7564 3.7813q2.0943 1.1721 3.2664-0.92221z" clip-path="url(#a)" fill="#fff" stroke="#fff"/>
<g clip-path="url(#a)">
<g transform="translate(98.62 273.41) rotate(-60.766) scale(.08 -.08)">
<use xlink:href="#n"/>
</g>
</g>
<path d="m135.67 219.88 2.4126-5.0384q1.0365-2.1646-1.1281-3.2012l-6.9832-3.3439q-2.1646-1.0365-3.2012 1.1281l-2.4126 5.0384q-1.0365 2.1646 1.1281 3.2012l6.9832 3.3439q2.1646 1.0365 3.2012-1.1281z" clip-path="url(#a)" fill="#fff" stroke="#fff"/>
<g clip-path="url(#a)">
<g transform="translate(132.01 218.13) rotate(-64.413) scale(.08 -.08)">
<use xlink:href="#n"/>
</g>
</g>
<path d="m164.86 269.01 1.8648 5.6871q0.7478 2.2805 3.0283 1.5327l7.3571-2.4124q2.2805-0.7478 1.5327-3.0283l-1.8648-5.6871q-0.7478-2.2805-3.0283-1.5327l-7.3571 2.4124q-2.2805 0.7478-1.5327 3.0283z" clip-path="url(#a)" fill="#fff" stroke="#fff"/>
<g clip-path="url(#a)">
<g transform="translate(168.72 267.74) rotate(71.845) scale(.08 -.08)">
<defs>
<path id="ai" d="m9.8125 72.906h13.281l32.328-60.984v60.984h9.5625v-72.906h-13.281l-32.312 60.984v-60.984h-9.5781z"/>
</defs>
<use xlink:href="#ai"/>
</g>
</g>
<path d="m199.87 245.14 4.1514 3.738q1.7835 1.6059 3.3895-0.17761l5.1808-5.7538q1.6059-1.7835-0.17761-3.3895l-4.1514-3.738q-1.7835-1.6059-3.3895 0.17761l-5.1808 5.7538q-1.6059 1.7835 0.17761 3.3895z" clip-path="url(#a)" fill="#fff" stroke="#fff"/>
<g clip-path="url(#a)">
<g transform="translate(202.59 242.12) rotate(42) scale(.08 -.08)">
<use xlink:href="#n"/>
</g>
</g>
<path d="m112.44 275.11 2.364-5.3566q0.969-2.1957-1.2267-3.1647l-7.0834-3.126q-2.1957-0.969-3.1647 1.2267l-2.364 5.3566q-0.969 2.1957 1.2267 3.1647l7.0834 3.126q2.1957 0.969 3.1647-1.2267z" clip-path="url(#a)" fill="#fff" stroke="#fff"/>
<g clip-path="url(#a)">
<g transform="translate(108.72 273.47) rotate(-66.187) scale(.08 -.08)">
<use xlink:href="#r"/>
</g>
</g>
<path d="m145.59 267.55 0.5319 5.8308q0.21803 2.3901 2.6081 2.172l7.7105-0.70337q2.3901-0.21803 2.172-2.6081l-0.5319-5.8308q-0.21803-2.3901-2.6081-2.172l-7.7105 0.70337q-2.3901 0.21803-2.172 2.6081z" clip-path="url(#a)" fill="#fff" stroke="#fff"/>
<g clip-path="url(#a)">
<g transform="translate(149.64 267.18) rotate(84.788) scale(.08 -.08)">
<use xlink:href="#r"/>
</g>
</g>
<path d="m45.317 363.2v33.808q0 2.4 2.4 2.4h7.7425q2.4 0 2.4-2.4v-33.808q0-2.4-2.4-2.4h-7.7425q-2.4 0-2.4 2.4z" clip-path="url(#a)" fill="#fff" stroke="#fff"/>
<g clip-path="url(#a)">
<g transform="translate(49.38 363.2) rotate(90) scale(.08 -.08)">
<use xlink:href="#h"/>
<use x="44.083984" xlink:href="#d"/>
<use x="105.607422" xlink:href="#g"/>
<use x="144.970703" xlink:href="#l"/>
<use x="242.382812" xlink:href="#k"/>
<use x="270.166016" xlink:href="#i"/>
<use x="333.544922" xlink:href="#f"/>
<use x="394.824219" xlink:href="#j"/>
</g>
</g>
<path d="m120.11 273.47 0.66672-5.0108q0.31654-2.379-2.0625-2.6956l-7.6749-1.0212q-2.379-0.31654-2.6956 2.0625l-0.66672 5.0108q-0.31654 2.379 2.0625 2.6956l7.6749 1.0212q2.379 0.31654 2.6956-2.0625z" clip-path="url(#a)" fill="#fff" stroke="#fff"/>
<g clip-path="url(#a)">
<g transform="translate(116.09 272.93) rotate(-82.421) scale(.08 -.08)">
<defs>
<path id="aj" d="m9.8125 72.906h46.094v-8.3125h-36.234v-21.578h34.719v-8.2969h-34.719v-26.422h37.109v-8.2969h-46.969z"/>
</defs>
<use xlink:href="#aj"/>
</g>
</g>
<path d="m115.16 295.32 0.37178 5.5739q0.15973 2.3947 2.5544 2.235l7.7253-0.51529q2.3947-0.15973 2.235-2.5544l-0.37178-5.5739q-0.15973-2.3947-2.5544-2.235l-7.7253 0.51529q-2.3947 0.15973-2.235 2.5544z" clip-path="url(#a)" fill="#fff" stroke="#fff"/>
<g clip-path="url(#a)">
<g transform="translate(119.21 295.05) rotate(86.184) scale(.08 -.08)">
<use xlink:href="#n"/>
</g>
</g>
<path d="m192.71 363.2v33.808q0 2.4 2.4 2.4h7.7425q2.4 0 2.4-2.4v-33.808q0-2.4-2.4-2.4h-7.7425q-2.4 0-2.4 2.4z" clip-path="url(#a)" fill="#fff" stroke="#fff"/>
<g clip-path="url(#a)">
<g transform="translate(196.77 363.2) rotate(90) scale(.08 -.08)">
<use xlink:href="#h"/>
<use x="44.083984" xlink:href="#d"/>
<use x="105.607422" xlink:href="#g"/>
<use x="144.970703" xlink:href="#l"/>
<use x="242.382812" xlink:href="#k"/>
<use x="270.166016" xlink:href="#i"/>
<use x="333.544922" xlink:href="#f"/>
<use x="394.824219" xlink:href="#j"/>
</g>
</g>
<path d="m260.07 330.48 2.2747-5.1021q0.97729-2.192-1.2147-3.1693l-7.0715-3.1528q-2.192-0.97729-3.1693 1.2147l-2.2747 5.1021q-0.97729 2.192 1.2147 3.1693l7.0715 3.1528q2.192 0.97729 3.1693-1.2147z" clip-path="url(#a)" fill="#fff" stroke="#fff"/>
<g clip-path="url(#a)">
<g transform="translate(256.36 328.83) rotate(-65.971) scale(.08 -.08)">
<use xlink:href="#n"/>
</g>
</g>
<path d="m273.18 325.38 2.2747 5.1021q0.97729 2.192 3.1693 1.2147l7.0715-3.1528q2.192-0.97729 1.2147-3.1693l-2.2747-5.1021q-0.97729-2.192-3.1693-1.2147l-7.0715 3.1528q-2.192 0.97729-1.2147 3.1693z" clip-path="url(#a)" fill="#fff" stroke="#fff"/>
<g clip-path="url(#a)">
<g transform="translate(276.89 323.73) rotate(65.971) scale(.08 -.08)">
<use xlink:href="#n"/>
</g>
</g>
<path d="m236.93 363.2v33.808q0 2.4 2.4 2.4h7.7425q2.4 0 2.4-2.4v-33.808q0-2.4-2.4-2.4h-7.7425q-2.4 0-2.4 2.4z" clip-path="url(#a)" fill="#fff" stroke="#fff"/>
<g clip-path="url(#a)">
<g transform="translate(240.99 363.2) rotate(90) scale(.08 -.08)">
<use xlink:href="#h"/>
<use x="44.083984" xlink:href="#d"/>
<use x="105.607422" xlink:href="#g"/>
<use x="144.970703" xlink:href="#l"/>
<use x="242.382812" xlink:href="#k"/>
<use x="270.166016" xlink:href="#i"/>
<use x="333.544922" xlink:href="#f"/>
<use x="394.824219" xlink:href="#j"/>
</g>
</g>
<path d="m286.06 363.2v33.808q0 2.4 2.4 2.4h7.7425q2.4 0 2.4-2.4v-33.808q0-2.4-2.4-2.4h-7.7425q-2.4 0-2.4 2.4z" clip-path="url(#a)" fill="#fff" stroke="#fff"/>
<g clip-path="url(#a)">
<g transform="translate(290.12 363.2) rotate(90) scale(.08 -.08)">
<use xlink:href="#h"/>
<use x="44.083984" xlink:href="#d"/>
<use x="105.607422" xlink:href="#g"/>
<use x="144.970703" xlink:href="#l"/>
<use x="242.382812" xlink:href="#k"/>
<use x="270.166016" xlink:href="#i"/>
<use x="333.544922" xlink:href="#f"/>
<use x="394.824219" xlink:href="#j"/>
</g>
</g>
<path d="m111.15 324.36 1.4142 5.2866q0.62021 2.3185 2.9387 1.6983l7.4795-2.0008q2.3185-0.62021 1.6983-2.9387l-1.4142-5.2866q-0.62021-2.3185-2.9387-1.6983l-7.4795 2.0008q-2.3185 0.62021-1.6983 2.9387z" clip-path="url(#a)" fill="#fff" stroke="#fff"/>
<g clip-path="url(#a)">
<g transform="translate(115.08 323.31) rotate(75.024) scale(.08 -.08)">
<use xlink:href="#q"/>
</g>
</g>
<path d="m108.61 329.33 1.2465-4.6599q0.62021-2.3185-1.6983-2.9387l-7.4795-2.0008q-2.3185-0.62021-2.9387 1.6983l-1.2465 4.6599q-0.62021 2.3185 1.6983 2.9387l7.4795 2.0008q2.3185 0.62021 2.9387-1.6983z" clip-path="url(#a)" fill="#fff" stroke="#fff"/>
<g clip-path="url(#a)">
<g transform="translate(104.69 328.28) rotate(-75.024) scale(.08 -.08)">
<use xlink:href="#ab"/>
</g>
</g>
<path d="m119.01 363.2v33.808q0 2.4 2.4 2.4h7.7425q2.4 0 2.4-2.4v-33.808q0-2.4-2.4-2.4h-7.7425q-2.4 0-2.4 2.4z" clip-path="url(#a)" fill="#fff" stroke="#fff"/>
<g clip-path="url(#a)">
<g transform="translate(123.08 363.2) rotate(90) scale(.08 -.08)">
<use xlink:href="#h"/>
<use x="44.083984" xlink:href="#d"/>
<use x="105.607422" xlink:href="#g"/>
<use x="144.970703" xlink:href="#l"/>
<use x="242.382812" xlink:href="#k"/>
<use x="270.166016" xlink:href="#i"/>
<use x="333.544922" xlink:href="#f"/>
<use x="394.824219" xlink:href="#j"/>
</g>
</g>
<path d="m89.535 363.2v33.808q0 2.4 2.4 2.4h7.7425q2.4 0 2.4-2.4v-33.808q0-2.4-2.4-2.4h-7.7425q-2.4 0-2.4 2.4z" clip-path="url(#a)" fill="#fff" stroke="#fff"/>
<g clip-path="url(#a)">
<g transform="translate(93.599 363.2) rotate(90) scale(.08 -.08)">
<use xlink:href="#h"/>
<use x="44.083984" xlink:href="#d"/>
<use x="105.607422" xlink:href="#g"/>
<use x="144.970703" xlink:href="#l"/>
<use x="242.382812" xlink:href="#k"/>
<use x="270.166016" xlink:href="#i"/>
<use x="333.544922" xlink:href="#f"/>
<use x="394.824219" xlink:href="#j"/>
</g>
</g>
<path d="m64.969 363.2v33.808q0 2.4 2.4 2.4h7.7425q2.4 0 2.4-2.4v-33.808q0-2.4-2.4-2.4h-7.7425q-2.4 0-2.4 2.4z" clip-path="url(#a)" fill="#fff" stroke="#fff"/>
<g clip-path="url(#a)">
<g transform="translate(69.033 363.2) rotate(90) scale(.08 -.08)">
<use xlink:href="#h"/>
<use x="44.083984" xlink:href="#d"/>
<use x="105.607422" xlink:href="#g"/>
<use x="144.970703" xlink:href="#l"/>
<use x="242.382812" xlink:href="#k"/>
<use x="270.166016" xlink:href="#i"/>
<use x="333.544922" xlink:href="#f"/>
<use x="394.824219" xlink:href="#j"/>
</g>
</g>
<path d="m153.41 363.2v33.808q0 2.4 2.4 2.4h7.7425q2.4 0 2.4-2.4v-33.808q0-2.4-2.4-2.4h-7.7425q-2.4 0-2.4 2.4z" clip-path="url(#a)" fill="#fff" stroke="#fff"/>
<g clip-path="url(#a)">
<g transform="translate(157.47 363.2) rotate(90) scale(.08 -.08)">
<use xlink:href="#h"/>
<use x="44.083984" xlink:href="#d"/>
<use x="105.607422" xlink:href="#g"/>
<use x="144.970703" xlink:href="#l"/>
<use x="242.382812" xlink:href="#k"/>
<use x="270.166016" xlink:href="#i"/>
<use x="333.544922" xlink:href="#f"/>
<use x="394.824219" xlink:href="#j"/>
</g>
</g>
<path d="m767.55 363.2v33.808q0 2.4 2.4 2.4h7.7425q2.4 0 2.4-2.4v-33.808q0-2.4-2.4-2.4h-7.7425q-2.4 0-2.4 2.4z" clip-path="url(#a)" fill="#fff" stroke="#fff"/>
<g clip-path="url(#a)">
<g transform="translate(771.61 363.2) rotate(90) scale(.08 -.08)">
<use xlink:href="#h"/>
<use x="44.083984" xlink:href="#d"/>
<use x="105.607422" xlink:href="#g"/>
<use x="144.970703" xlink:href="#l"/>
<use x="242.382812" xlink:href="#k"/>
<use x="270.166016" xlink:href="#i"/>
<use x="333.544922" xlink:href="#f"/>
<use x="394.824219" xlink:href="#j"/>
</g>
</g>
<defs>
<path id="b" d="m0 8.6603c2.2967 0 4.4997-0.9125 6.1237-2.5365 1.624-1.624 2.5365-3.827 2.5365-6.1237s-0.9125-4.4997-2.5365-6.1237c-1.624-1.624-3.827-2.5365-6.1237-2.5365s-4.4997 0.9125-6.1237 2.5365c-1.624 1.624-2.5365 3.827-2.5365 6.1237s0.9125 4.4997 2.5365 6.1237c1.624 1.624 3.827 2.5365 6.1237 2.5365z"/>
</defs>
<g clip-path="url(#a)" fill="#ffffff" stroke="#ffffff">
<use x="36.848485" y="407.272727" xlink:href="#b"/>
<use x="51.587879" y="407.272727" xlink:href="#b"/>
<use x="71.240404" y="407.272727" xlink:href="#b"/>
<use x="95.806061" y="407.272727" xlink:href="#b"/>
<use x="125.284848" y="407.272727" xlink:href="#b"/>
<use x="159.676768" y="407.272727" xlink:href="#b"/>
<use x="198.981818" y="407.272727" xlink:href="#b"/>
<use x="243.2" y="407.272727" xlink:href="#b"/>
<use x="292.331313" y="407.272727" xlink:href="#b"/>
<use x="346.375758" y="407.272727" xlink:href="#b"/>
<use x="405.333333" y="407.272727" xlink:href="#b"/>
<use x="469.20404" y="407.272727" xlink:href="#b"/>
<use x="537.987879" y="407.272727" xlink:href="#b"/>
<use x="611.684848" y="407.272727" xlink:href="#b"/>
<use x="690.294949" y="407.272727" xlink:href="#b"/>
<use x="773.818182" y="407.272727" xlink:href="#b"/>
<use x="421.55349" y="19.393939" xlink:href="#b"/>
<use x="291.44422" y="75.317301" xlink:href="#b"/>
<use x="551.662761" y="131.147101" xlink:href="#b"/>
<use x="537.987879" y="352.929302" xlink:href="#b"/>
<use x="611.684848" y="352.929302" xlink:href="#b"/>
<use x="690.294949" y="352.929302" xlink:href="#b"/>
<use x="90.688215" y="131.147101" xlink:href="#b"/>
<use x="346.375758" y="352.929302" xlink:href="#b"/>
<use x="437.268687" y="297.8299" xlink:href="#b"/>
<use x="405.333333" y="352.929302" xlink:href="#b"/>
<use x="469.20404" y="352.929302" xlink:href="#b"/>
<use x="36.848485" y="352.929302" xlink:href="#b"/>
<use x="144.527946" y="186.864602" xlink:href="#b"/>
<use x="51.587879" y="352.929302" xlink:href="#b"/>
<use x="117.915152" y="242.441506" xlink:href="#b"/>
<use x="198.981818" y="352.929302" xlink:href="#b"/>
<use x="267.765657" y="297.8299" xlink:href="#b"/>
<use x="243.2" y="352.929302" xlink:href="#b"/>
<use x="292.331313" y="352.929302" xlink:href="#b"/>
<use x="110.545455" y="297.8299" xlink:href="#b"/>
<use x="125.284848" y="352.929302" xlink:href="#b"/>
<use x="95.806061" y="352.929302" xlink:href="#b"/>
<use x="71.240404" y="352.929302" xlink:href="#b"/>
<use x="159.676768" y="352.929302" xlink:href="#b"/>
<use x="773.818182" y="352.929302" xlink:href="#b"/>
</g>
<g clip-path="url(#a)">
<g transform="translate(27.549 410.03) scale(.1 -.1)">
<defs>
<path id="y" d="m54.891 33.016v-33.016h-8.9844v32.719q0 7.7656-3.0312 11.609-3.0312 3.8594-9.0781 3.8594-7.2812 0-11.484-4.6406-4.2031-4.625-4.2031-12.641v-30.906h-9.0312v75.984h9.0312v-29.797q3.2344 4.9375 7.5938 7.375 4.375 2.4375 10.094 2.4375 9.4219 0 14.25-5.8281 4.8438-5.8281 4.8438-17.156z"/>
</defs>
<use xlink:href="#h"/>
<use x="61.083984" xlink:href="#y"/>
<use x="124.462891" xlink:href="#d"/>
</g>
</g>
<g clip-path="url(#a)">
<g transform="translate(25.614 410.03) scale(.1 -.1)">
<defs>
<path id="p" d="m44.281 53.078v-8.5q-3.7969 1.9531-7.9062 2.9219-4.0938 0.98438-8.5 0.98438-6.6875 0-10.031-2.0469t-3.3438-6.1562q0-3.125 2.3906-4.9062t9.625-3.3906l3.0781-0.6875q9.5625-2.0469 13.594-5.7812t4.0312-10.422q0-7.625-6.0312-12.078-6.0312-4.4375-16.578-4.4375-4.3906 0-9.1562 0.85938t-10.031 2.5625v9.2812q4.9844-2.5938 9.8125-3.8906 4.8281-1.2812 9.5781-1.2812 6.3438 0 9.75 2.1719 3.4219 2.1719 3.4219 6.125 0 3.6562-2.4688 5.6094-2.4531 1.9531-10.812 3.7656l-3.125 0.73438q-8.3438 1.75-12.062 5.3906-3.7031 3.6406-3.7031 9.9844 0 7.7188 5.4688 11.906 5.4688 4.2031 15.531 4.2031 4.9688 0 9.3594-0.73438 4.4062-0.71875 8.1094-2.1875z"/>
<path id="an" d="m18.109 8.2031v-29h-9.0312v75.484h9.0312v-8.2969q2.8438 4.875 7.1562 7.2344 4.3281 2.375 10.328 2.375 9.9688 0 16.188-7.9062 6.2344-7.9062 6.2344-20.797t-6.2344-20.812q-6.2188-7.9062-16.188-7.9062-6 0-10.328 2.375-4.3125 2.375-7.1562 7.25zm30.578 19.094q0 9.9062-4.0781 15.547t-11.203 5.6406q-7.1406 0-11.219-5.6406t-4.0781-15.547 4.0781-15.547 11.219-5.6406q7.125 0 11.203 5.6406t4.0781 15.547z"/>
<path id="ap" d="m45.406 27.984q0 9.7656-4.0312 15.125-4.0156 5.375-11.297 5.375-7.2188 0-11.25-5.375-4.0312-5.3594-4.0312-15.125 0-9.7188 4.0312-15.094t11.25-5.375q7.2812 0 11.297 5.375 4.0312 5.375 4.0312 15.094zm8.9844-21.203q0-13.953-6.2031-20.766-6.1875-6.8125-18.984-6.8125-4.7344 0-8.9375 0.70312t-8.1562 2.1719v8.7344q3.9531-2.1406 7.8125-3.1562 3.8594-1.0312 7.8594-1.0312 8.8438 0 13.234 4.6094t4.3906 13.938v4.4531q-2.7812-4.8438-7.125-7.2344t-10.406-2.3906q-10.047 0-16.203 7.6562-6.1562 7.6719-6.1562 20.328 0 12.688 6.1562 20.344 6.1562 7.6719 16.203 7.6719 6.0625 0 10.406-2.3906t7.125-7.2188v8.2969h8.9844z"/>
<path id="ag" d="m8.5 21.578v33.109h8.9844v-32.766q0-7.7656 3.0156-11.656 3.0312-3.875 9.0938-3.875 7.2656 0 11.484 4.6406 4.2344 4.6406 4.2344 12.656v31h8.9844v-54.688h-8.9844v8.4062q-3.2656-4.9844-7.5938-7.4062-4.3125-2.4219-10.031-2.4219-9.4219 0-14.312 5.8594-4.875 5.8594-4.875 17.141z"/>
</defs>
<use xlink:href="#f"/>
<use x="61.279297" xlink:href="#p"/>
<use x="113.378906" xlink:href="#an"/>
<use x="176.855469" xlink:href="#f"/>
<use x="238.134766" xlink:href="#g"/>
<use x="279.248047" xlink:href="#f"/>
<use x="340.527344" xlink:href="#ap"/>
<use x="404.003906" xlink:href="#ag"/>
<use x="467.382812" xlink:href="#p"/>
</g>
</g>
<g clip-path="url(#a)">
<g transform="translate(69.651 410.03) scale(.1 -.1)">
<defs>
<path id="ae" d="m11.719 12.406h10.297v-8.4062l-8-15.625h-6.2969l4 15.625z"/>
</defs>
<use xlink:href="#ae"/>
</g>
</g>
<g clip-path="url(#a)">
<g transform="translate(78.867 410.03) scale(.1 -.1)">
<defs>
<path id="z" d="m45.406 46.391v29.594h8.9844v-75.984h-8.9844v8.2031q-2.8281-4.875-7.1562-7.25-4.3125-2.375-10.375-2.375-9.9062 0-16.141 7.9062-6.2188 7.9219-6.2188 20.812t6.2188 20.797q6.2344 7.9062 16.141 7.9062 6.0625 0 10.375-2.375 4.3281-2.3594 7.1562-7.2344zm-30.609-19.094q0-9.9062 4.0781-15.547t11.203-5.6406 11.219 5.6406q4.1094 5.6406 4.1094 15.547t-4.1094 15.547q-4.0938 5.6406-11.219 5.6406t-11.203-5.6406-4.0781-15.547z"/>
</defs>
<use xlink:href="#p"/>
<use x="52.099609" xlink:href="#d"/>
<use x="113.623047" xlink:href="#f"/>
<use x="174.902344" xlink:href="#g"/>
<use x="213.765625" xlink:href="#d"/>
<use x="275.289062" xlink:href="#z"/>
</g>
</g>
<g clip-path="url(#a)">
<g transform="translate(113.92 410.03) scale(.1 -.1)">
<defs>
<path id="o" d="m18.312 70.219v-15.531h18.5v-6.9844h-18.5v-29.688q0-6.6875 1.8281-8.5938t7.4531-1.9062h9.2188v-7.5156h-9.2188q-10.406 0-14.359 3.875-3.9531 3.8906-3.9531 14.141v29.688h-6.5938v6.9844h6.5938v15.531z"/>
</defs>
<use xlink:href="#o"/>
<use x="39.208984" xlink:href="#ag"/>
<use x="102.587891" xlink:href="#i"/>
<use x="165.966797" xlink:href="#f"/>
</g>
</g>
<g clip-path="url(#a)">
<g transform="translate(158.09 410.03) scale(.1 -.1)">
<use xlink:href="#ae"/>
</g>
</g>
<g clip-path="url(#a)">
<g transform="translate(189.57 410.03) scale(.1 -.1)">
<use xlink:href="#f"/>
<use x="61.279297" xlink:href="#i"/>
<use x="124.658203" xlink:href="#z"/>
</g>
</g>
<g clip-path="url(#a)">
<g transform="translate(225.88 410.03) scale(.1 -.1)">
<defs>
<path id="ao" d="m30.609 48.391q-7.2188 0-11.422-5.6406t-4.2031-15.453 4.1719-15.453q4.1875-5.6406 11.453-5.6406 7.1875 0 11.375 5.6562 4.2031 5.6719 4.2031 15.438 0 9.7188-4.2031 15.406-4.1875 5.6875-11.375 5.6875zm0 7.6094q11.719 0 18.406-7.625 6.7031-7.6094 6.7031-21.078 0-13.422-6.7031-21.078-6.6875-7.6406-18.406-7.6406-11.766 0-18.438 7.6406-6.6562 7.6562-6.6562 21.078 0 13.469 6.6562 21.078 6.6719 7.625 18.438 7.625z"/>
<path id="aa" d="m48.688 27.297q0 9.9062-4.0781 15.547t-11.203 5.6406q-7.1406 0-11.219-5.6406t-4.0781-15.547 4.0781-15.547 11.219-5.6406q7.125 0 11.203 5.6406t4.0781 15.547zm-30.578 19.094q2.8438 4.875 7.1562 7.2344 4.3281 2.375 10.328 2.375 9.9688 0 16.188-7.9062 6.2344-7.9062 6.2344-20.797t-6.2344-20.812q-6.2188-7.9062-16.188-7.9062-6 0-10.328 2.375-4.3125 2.375-7.1562 7.25v-8.2031h-9.0312v75.984h9.0312z"/>
</defs>
<use xlink:href="#j"/>
<use x="27.783203" xlink:href="#ao"/>
<use x="88.964844" xlink:href="#aa"/>
<use x="152.441406" xlink:href="#p"/>
<use x="204.541016" xlink:href="#o"/>
<use x="243.75" xlink:href="#d"/>
<use x="305.273438" xlink:href="#g"/>
</g>
</g>
<g clip-path="url(#a)">
<g transform="translate(284.53 410.03) scale(.1 -.1)">
<use xlink:href="#o"/>
<use x="39.208984" xlink:href="#f"/>
<use x="100.488281" xlink:href="#k"/>
<use x="128.271484" xlink:href="#j"/>
</g>
</g>
<g clip-path="url(#a)">
<g transform="translate(334.19 410.03) scale(.1 -.1)">
<defs>
<path id="af" d="m4.2031 54.688h8.9844l11.234-42.672 11.172 42.672h10.594l11.234-42.672 11.188 42.672h8.9844l-14.312-54.688h-10.594l-11.766 44.828-11.812-44.828h-10.609z"/>
</defs>
<use xlink:href="#af"/>
<use x="81.787109" xlink:href="#d"/>
<use x="143.310547" xlink:href="#g"/>
<use x="182.173828" xlink:href="#d"/>
</g>
</g>
<g clip-path="url(#a)">
<g transform="translate(397.13 410.03) scale(.1 -.1)">
<use xlink:href="#o"/>
<use x="39.208984" xlink:href="#y"/>
<use x="102.587891" xlink:href="#d"/>
</g>
</g>
<g clip-path="url(#a)">
<g transform="translate(458.39 410.03) scale(.1 -.1)">
<use xlink:href="#aa"/>
<use x="63.476562" xlink:href="#d"/>
<use x="125" xlink:href="#p"/>
<use x="177.099609" xlink:href="#o"/>
</g>
</g>
<g clip-path="url(#a)">
<g transform="translate(530.82 410.03) scale(.1 -.1)">
<use xlink:href="#af"/>
<use x="81.787109" xlink:href="#d"/>
</g>
</g>
<g clip-path="url(#a)">
<g transform="translate(600.52 410.03) scale(.1 -.1)">
<defs>
<path id="am" d="m2.9844 54.688h9.5156l17.094-45.891 17.094 45.891h9.5156l-20.516-54.688h-12.203z"/>
</defs>
<use xlink:href="#d"/>
<use x="61.523438" xlink:href="#am"/>
<use x="120.703125" xlink:href="#d"/>
<use x="182.226562" xlink:href="#g"/>
</g>
</g>
<g clip-path="url(#a)">
<g transform="translate(680.89 410.03) scale(.1 -.1)">
<use xlink:href="#y"/>
<use x="63.378906" xlink:href="#f"/>
<use x="124.658203" xlink:href="#z"/>
</g>
</g>
<g clip-path="url(#a)">
<g transform="translate(772.23 410.03) scale(.1 -.1)">
<defs>
<path id="e" d="m10.688 12.406h10.312v-12.406h-10.312z"/>
</defs>
<use xlink:href="#e"/>
</g>
</g>
<g clip-path="url(#a)">
<g transform="translate(413.6 22.153) scale(.1 -.1)">
<defs>
<path id="c" d="m12.406 8.2969h16.109v55.625l-17.531-3.5156v8.9844l17.438 3.5156h9.8594v-64.609h16.109v-8.2969h-41.984z"/>
</defs>
<use xlink:href="#c"/>
<use x="63.623047" xlink:href="#e"/>
<use x="95.410156" xlink:href="#c"/>
</g>
</g>
<g clip-path="url(#a)">
<g transform="translate(283.49 78.077) scale(.1 -.1)">
<defs>
<path id="m" d="m19.188 8.2969h34.422v-8.2969h-46.281v8.2969q5.6094 5.8125 15.297 15.594 9.7031 9.7969 12.188 12.641 4.7344 5.3125 6.6094 9 1.8906 3.6875 1.8906 7.25 0 5.8125-4.0781 9.4688-4.0781 3.6719-10.625 3.6719-4.6406 0-9.7969-1.6094-5.1406-1.6094-11-4.8906v9.9688q5.9531 2.3906 11.125 3.6094 5.1875 1.2188 9.4844 1.2188 11.328 0 18.062-5.6719 6.7344-5.6562 6.7344-15.125 0-4.5-1.6875-8.5312-1.6719-4.0156-6.125-9.4844-1.2188-1.4219-7.7656-8.1875-6.5312-6.7656-18.453-18.922z"/>
</defs>
<use xlink:href="#c"/>
<use x="63.623047" xlink:href="#e"/>
<use x="95.410156" xlink:href="#m"/>
</g>
</g>
<g clip-path="url(#a)">
<g transform="translate(543.71 133.91) scale(.1 -.1)">
<defs>
<path id="x" d="m40.578 39.312q7.0781-1.5156 11.047-6.3125 3.9844-4.7812 3.9844-11.812 0-10.781-7.4219-16.703-7.4219-5.9062-21.094-5.9062-4.5781 0-9.4375 0.90625t-10.031 2.7188v9.5156q4.0938-2.3906 8.9688-3.6094 4.8906-1.2188 10.219-1.2188 9.2656 0 14.125 3.6562t4.8594 10.641q0 6.4531-4.5156 10.078-4.5156 3.6406-12.562 3.6406h-8.5v8.1094h8.8906q7.2656 0 11.125 2.9062t3.8594 8.375q0 5.6094-3.9844 8.6094-3.9688 3.0156-11.391 3.0156-4.0625 0-8.7031-0.89062-4.6406-0.875-10.203-2.7188v8.7812q5.625 1.5625 10.531 2.3438t9.25 0.78125q11.234 0 17.766-5.1094 6.5469-5.0938 6.5469-13.781 0-6.0625-3.4688-10.234t-9.8594-5.7812z"/>
</defs>
<use xlink:href="#c"/>
<use x="63.623047" xlink:href="#e"/>
<use x="95.410156" xlink:href="#x"/>
</g>
</g>
<g clip-path="url(#a)">
<g transform="translate(530.04 355.69) scale(.1 -.1)">
<defs>
<path id="w" d="m10.797 72.906h38.719v-8.3125h-29.688v-17.859q2.1406 0.73438 4.2812 1.0938 2.1562 0.35938 4.3125 0.35938 12.203 0 19.328-6.6875 7.1406-6.6875 7.1406-18.109 0-11.766-7.3281-18.297-7.3281-6.5156-20.656-6.5156-4.5938 0-9.3594 0.78125-4.75 0.78125-9.8281 2.3438v9.9219q4.3906-2.3906 9.0781-3.5625t9.9062-1.1719q8.4531 0 13.375 4.4375 4.9375 4.4375 4.9375 12.062 0 7.6094-4.9375 12.047-4.9219 4.4531-13.375 4.4531-3.9531 0-7.8906-0.875-3.9219-0.875-8.0156-2.7344z"/>
</defs>
<use xlink:href="#c"/>
<use x="63.623047" xlink:href="#e"/>
<use x="95.410156" xlink:href="#w"/>
</g>
</g>
<g clip-path="url(#a)">
<g transform="translate(603.73 355.69) scale(.1 -.1)">
<defs>
<path id="v" d="m33.016 40.375q-6.6406 0-10.531-4.5469-3.875-4.5312-3.875-12.438 0-7.8594 3.875-12.438 3.8906-4.5625 10.531-4.5625t10.516 4.5625q3.875 4.5781 3.875 12.438 0 7.9062-3.875 12.438-3.875 4.5469-10.516 4.5469zm19.578 30.922v-8.9844q-3.7188 1.75-7.5 2.6719-3.7812 0.9375-7.5 0.9375-9.7656 0-14.922-6.5938-5.1406-6.5938-5.875-19.922 2.875 4.25 7.2188 6.5156 4.3594 2.2656 9.5781 2.2656 10.984 0 17.359-6.6719 6.375-6.6562 6.375-18.125 0-11.234-6.6406-18.031-6.6406-6.7812-17.672-6.7812-12.656 0-19.344 9.6875-6.6875 9.7031-6.6875 28.109 0 17.281 8.2031 27.562t22.016 10.281q3.7188 0 7.5-0.73438t7.8906-2.1875z"/>
</defs>
<use xlink:href="#c"/>
<use x="63.623047" xlink:href="#e"/>
<use x="95.410156" xlink:href="#v"/>
</g>
</g>
<g clip-path="url(#a)">
<g transform="translate(682.34 355.69) scale(.1 -.1)">
<defs>
<path id="u" d="m8.2031 72.906h46.875v-4.2031l-26.469-68.703h-10.297l24.906 64.594h-35.016z"/>
</defs>
<use xlink:href="#c"/>
<use x="63.623047" xlink:href="#e"/>
<use x="95.410156" xlink:href="#u"/>
</g>
</g>
<g clip-path="url(#a)">
<g transform="translate(82.737 133.91) scale(.1 -.1)">
<defs>
<path id="t" d="m31.781 34.625q-7.0312 0-11.062-3.7656-4.0156-3.7656-4.0156-10.344 0-6.5938 4.0156-10.359 4.0312-3.7656 11.062-3.7656t11.078 3.7812q4.0625 3.7969 4.0625 10.344 0 6.5781-4.0312 10.344-4.0156 3.7656-11.109 3.7656zm-9.8594 4.1875q-6.3438 1.5625-9.8906 5.9062-3.5312 4.3594-3.5312 10.609 0 8.7344 6.2188 13.812 6.2344 5.0781 17.062 5.0781 10.891 0 17.094-5.0781t6.2031-13.812q0-6.25-3.5469-10.609-3.5312-4.3438-9.8281-5.9062 7.125-1.6562 11.094-6.5 3.9844-4.8281 3.9844-11.797 0-10.609-6.4688-16.281-6.4688-5.6562-18.531-5.6562-12.047 0-18.531 5.6562-6.4688 5.6719-6.4688 16.281 0 6.9688 4 11.797 4.0156 4.8438 11.141 6.5zm-3.6094 15.578q0-5.6562 3.5312-8.8281 3.5469-3.1719 9.9375-3.1719 6.3594 0 9.9375 3.1719 3.5938 3.1719 3.5938 8.8281 0 5.6719-3.5938 8.8438-3.5781 3.1719-9.9375 3.1719-6.3906 0-9.9375-3.1719-3.5312-3.1719-3.5312-8.8438z"/>
</defs>
<use xlink:href="#c"/>
<use x="63.623047" xlink:href="#e"/>
<use x="95.410156" xlink:href="#t"/>
</g>
</g>
<g clip-path="url(#a)">
<g transform="translate(338.42 355.69) scale(.1 -.1)">
<defs>
<path id="ak" d="m10.984 1.5156v8.9844q3.7188-1.7656 7.5156-2.6875 3.8125-0.92188 7.4844-0.92188 9.7656 0 14.906 6.5625 5.1562 6.5625 5.8906 19.953-2.8281-4.2031-7.1875-6.4531-4.3438-2.25-9.6094-2.25-10.938 0-17.312 6.6094-6.375 6.625-6.375 18.109 0 11.219 6.6406 18 6.6406 6.7969 17.672 6.7969 12.656 0 19.312-9.7031 6.6719-9.6875 6.6719-28.141 0-17.234-8.1875-27.516-8.1719-10.281-21.984-10.281-3.7188 0-7.5312 0.73438-3.7969 0.73438-7.9062 2.2031zm19.625 30.906q6.6406 0 10.516 4.5312 3.8906 4.5469 3.8906 12.469 0 7.8594-3.8906 12.422-3.875 4.5625-10.516 4.5625t-10.516-4.5625-3.875-12.422q0-7.9219 3.875-12.469 3.875-4.5312 10.516-4.5312z"/>
</defs>
<use xlink:href="#c"/>
<use x="63.623047" xlink:href="#e"/>
<use x="95.410156" xlink:href="#ak"/>
</g>
</g>
<g clip-path="url(#a)">
<g transform="translate(426.14 300.59) scale(.1 -.1)">
<defs>
<path id="al" d="m31.781 66.406q-7.6094 0-11.453-7.5-3.8281-7.4844-3.8281-22.531 0-14.984 3.8281-22.484 3.8438-7.5 11.453-7.5 7.6719 0 11.5 7.5 3.8438 7.5 3.8438 22.484 0 15.047-3.8438 22.531-3.8281 7.5-11.5 7.5zm0 7.8125q12.266 0 18.734-9.7031 6.4688-9.6875 6.4688-28.141 0-18.406-6.4688-28.109-6.4688-9.6875-18.734-9.6875-12.25 0-18.719 9.6875-6.4688 9.7031-6.4688 28.109 0 18.453 6.4688 28.141 6.4688 9.7031 18.719 9.7031z"/>
</defs>
<use xlink:href="#c"/>
<use x="63.623047" xlink:href="#e"/>
<use x="95.410156" xlink:href="#c"/>
<use x="159.033203" xlink:href="#al"/>
</g>
</g>
<g clip-path="url(#a)">
<g transform="translate(394.2 355.69) scale(.1 -.1)">
<use xlink:href="#c"/>
<use x="63.623047" xlink:href="#e"/>
<use x="95.410156" xlink:href="#c"/>
<use x="159.033203" xlink:href="#c"/>
</g>
</g>
<g clip-path="url(#a)">
<g transform="translate(458.07 355.69) scale(.1 -.1)">
<use xlink:href="#c"/>
<use x="63.623047" xlink:href="#e"/>
<use x="95.410156" xlink:href="#c"/>
<use x="159.033203" xlink:href="#m"/>
</g>
</g>
<g clip-path="url(#a)">
<g transform="translate(25.716 355.69) scale(.1 -.1)">
<use xlink:href="#c"/>
<use x="63.623047" xlink:href="#e"/>
<use x="95.410156" xlink:href="#c"/>
<use x="159.033203" xlink:href="#x"/>
</g>
</g>
<g clip-path="url(#a)">
<g transform="translate(133.4 189.62) scale(.1 -.1)">
<defs>
<path id="ad" d="m37.797 64.312-24.906-38.922h24.906zm-2.5938 8.5938h12.406v-47.516h10.406v-8.2031h-10.406v-17.188h-9.8125v17.188h-32.906v9.5156z"/>
</defs>
<use xlink:href="#c"/>
<use x="63.623047" xlink:href="#e"/>
<use x="95.410156" xlink:href="#c"/>
<use x="159.033203" xlink:href="#ad"/>
</g>
</g>
<g clip-path="url(#a)">
<g transform="translate(40.455 355.69) scale(.1 -.1)">
<use xlink:href="#c"/>
<use x="63.623047" xlink:href="#e"/>
<use x="95.410156" xlink:href="#c"/>
<use x="159.033203" xlink:href="#w"/>
</g>
</g>
<g clip-path="url(#a)">
<g transform="translate(106.78 245.2) scale(.1 -.1)">
<use xlink:href="#c"/>
<use x="63.623047" xlink:href="#e"/>
<use x="95.410156" xlink:href="#c"/>
<use x="159.033203" xlink:href="#v"/>
</g>
</g>
<g clip-path="url(#a)">
<g transform="translate(187.85 355.69) scale(.1 -.1)">
<use xlink:href="#c"/>
<use x="63.623047" xlink:href="#e"/>
<use x="95.410156" xlink:href="#c"/>
<use x="159.033203" xlink:href="#u"/>
</g>
</g>
<g clip-path="url(#a)">
<g transform="translate(256.63 300.59) scale(.1 -.1)">
<use xlink:href="#c"/>
<use x="63.623047" xlink:href="#e"/>
<use x="95.410156" xlink:href="#c"/>
<use x="159.033203" xlink:href="#t"/>
</g>
</g>
<g clip-path="url(#a)">
<g transform="translate(232.07 355.69) scale(.1 -.1)">
<use xlink:href="#c"/>
<use x="63.623047" xlink:href="#e"/>
<use x="95.410156" xlink:href="#m"/>
<use x="159.033203" xlink:href="#c"/>
</g>
</g>
<g clip-path="url(#a)">
<g transform="translate(281.2 355.69) scale(.1 -.1)">
<use xlink:href="#c"/>
<use x="63.623047" xlink:href="#e"/>
<use x="95.410156" xlink:href="#m"/>
<use x="159.033203" xlink:href="#m"/>
</g>
</g>
<g clip-path="url(#a)">
<g transform="translate(99.413 300.59) scale(.1 -.1)">
<use xlink:href="#c"/>
<use x="63.623047" xlink:href="#e"/>
<use x="95.410156" xlink:href="#m"/>
<use x="159.033203" xlink:href="#x"/>
</g>
</g>
<g clip-path="url(#a)">
<g transform="translate(114.15 355.69) scale(.1 -.1)">
<use xlink:href="#c"/>
<use x="63.623047" xlink:href="#e"/>
<use x="95.410156" xlink:href="#m"/>
<use x="159.033203" xlink:href="#ad"/>
</g>
</g>
<g clip-path="url(#a)">
<g transform="translate(84.673 355.69) scale(.1 -.1)">
<use xlink:href="#c"/>
<use x="63.623047" xlink:href="#e"/>
<use x="95.410156" xlink:href="#m"/>
<use x="159.033203" xlink:href="#w"/>
</g>
</g>
<g clip-path="url(#a)">
<g transform="translate(60.108 355.69) scale(.1 -.1)">
<use xlink:href="#c"/>
<use x="63.623047" xlink:href="#e"/>
<use x="95.410156" xlink:href="#m"/>
<use x="159.033203" xlink:href="#v"/>
</g>
</g>
<g clip-path="url(#a)">
<g transform="translate(148.54 355.69) scale(.1 -.1)">
<use xlink:href="#c"/>
<use x="63.623047" xlink:href="#e"/>
<use x="95.410156" xlink:href="#m"/>
<use x="159.033203" xlink:href="#u"/>
</g>
</g>
<g clip-path="url(#a)">
<g transform="translate(762.69 355.69) scale(.1 -.1)">
<use xlink:href="#c"/>
<use x="63.623047" xlink:href="#e"/>
<use x="95.410156" xlink:href="#m"/>
<use x="159.033203" xlink:href="#t"/>
</g>
</g>
<defs>
<clipPath id="a">
<rect width="810.67" height="426.67"/>
</clipPath>
</defs>
</svg>
