<?xml version="1.0" encoding="UTF-8"?>
<!DOCTYPE svg  PUBLIC '-//W3C//DTD SVG 1.1//EN'  'http://www.w3.org/Graphics/SVG/1.1/DTD/svg11.dtd'>
<svg width="1621.3pt" height="853.33pt" version="1.1" viewBox="0 0 1621.3 853.33" xmlns="http://www.w3.org/2000/svg" xmlns:xlink="http://www.w3.org/1999/xlink">
<defs>
<style type="text/css">*{stroke-linecap:butt;stroke-linejoin:round;white-space:pre;}</style>
</defs>
<path d="m0 853.33h1621.3v-853.33h-1621.3z" fill="#fff"/>
<g fill="none" stroke="#000">
<path d="m669.91 39.895-596.04 622" clip-path="url(#a)"/>
<path d="m669.91 39.895-460.59 160.18" clip-path="url(#a)"/>
<path d="m669.91 39.895 40.282 160.18" clip-path="url(#a)"/>
<path d="m669.91 39.895 207.74 622" clip-path="url(#a)"/>
<path d="m669.91 39.895 408.68 160.18" clip-path="url(#a)"/>
<path d="m669.91 39.895 297.04 622" clip-path="url(#a)"/>
<path d="m669.91 39.895-60.19 622" clip-path="url(#a)"/>
<path d="m669.91 39.895 163.08 622" clip-path="url(#a)"/>
<path d="m73.869 661.89v151.55" clip-path="url(#a)"/>
<path d="m209.32 200.08-90.797 461.81" clip-path="url(#a)"/>
<path d="m209.32 200.08-46.143 461.81" clip-path="url(#a)"/>
<path d="m209.32 200.08-1.4885 461.81" clip-path="url(#a)"/>
<path d="m209.32 200.08 138.43 156.61" clip-path="url(#a)"/>
<path d="m710.19 200.08-55.818 461.81" clip-path="url(#a)"/>
<path d="m710.19 200.08-11.164 461.81" clip-path="url(#a)"/>
<path d="m710.19 200.08 66.982 156.61" clip-path="url(#a)"/>
<path d="m877.65 661.89v151.55" clip-path="url(#a)"/>
<path d="m1078.6 200.08-156.29 461.81" clip-path="url(#a)"/>
<path d="m1078.6 200.08-66.982 461.81" clip-path="url(#a)"/>
<path d="m1078.6 200.08-22.327 461.81" clip-path="url(#a)"/>
<path d="m1078.6 200.08 22.327 461.81" clip-path="url(#a)"/>
<path d="m1078.6 200.08 223.27 156.61" clip-path="url(#a)"/>
<path d="m966.96 661.89v151.55" clip-path="url(#a)"/>
<path d="m922.3 661.89v151.55" clip-path="url(#a)"/>
<path d="m1011.6 661.89v151.55" clip-path="url(#a)"/>
<path d="m1056.3 661.89v151.55" clip-path="url(#a)"/>
<path d="m1100.9 661.89v151.55" clip-path="url(#a)"/>
<path d="m1301.9 356.69 245.6 456.75" clip-path="url(#a)"/>
<path d="m1301.9 356.69-156.29 305.2" clip-path="url(#a)"/>
<path d="m1301.9 356.69-111.64 305.2" clip-path="url(#a)"/>
<path d="m1301.9 356.69-66.982 305.2" clip-path="url(#a)"/>
<path d="m1301.9 356.69 89.309 153.65" clip-path="url(#a)"/>
<path d="m1145.6 661.89v151.55" clip-path="url(#a)"/>
<path d="m1190.2 661.89v151.55" clip-path="url(#a)"/>
<path d="m1234.9 661.89v151.55" clip-path="url(#a)"/>
<path d="m1391.2 510.35 111.64 303.09" clip-path="url(#a)"/>
<path d="m1391.2 510.35-111.64 151.55" clip-path="url(#a)"/>
<path d="m1391.2 510.35-66.982 151.55" clip-path="url(#a)"/>
<path d="m1391.2 510.35 22.327 151.55" clip-path="url(#a)"/>
<path d="m1391.2 510.35-22.327 151.55" clip-path="url(#a)"/>
<path d="m1391.2 510.35 66.982 151.55" clip-path="url(#a)"/>
<path d="m1279.5 661.89v151.55" clip-path="url(#a)"/>
<path d="m1324.2 661.89v151.55" clip-path="url(#a)"/>
<path d="m1413.5 661.89v151.55" clip-path="url(#a)"/>
<path d="m654.38 661.89v151.55" clip-path="url(#a)"/>
<path d="m699.03 661.89v151.55" clip-path="url(#a)"/>
<path d="m777.18 356.69-11.164 153.65" clip-path="url(#a)"/>
<path d="m777.18 356.69 11.164 305.2" clip-path="url(#a)"/>
<path d="m766.01 510.35 22.327 151.55" clip-path="url(#a)" stroke-dasharray="3.7,1.6"/>
<path d="m766.01 510.35-22.327 151.55" clip-path="url(#a)"/>
<path d="m788.34 661.89v151.55" clip-path="url(#a)"/>
<path d="m743.69 661.89v151.55" clip-path="url(#a)"/>
<path d="m118.52 661.89v151.55" clip-path="url(#a)"/>
<path d="m163.18 661.89v151.55" clip-path="url(#a)"/>
<path d="m207.83 661.89v151.55" clip-path="url(#a)"/>
<path d="m347.75 356.69-95.263 305.2" clip-path="url(#a)"/>
<path d="m347.75 356.69-5.9539 153.65" clip-path="url(#a)"/>
<path d="m347.75 356.69 101.22 153.65" clip-path="url(#a)"/>
<path d="m252.49 661.89v151.55" clip-path="url(#a)"/>
<path d="m341.8 510.35-44.654 151.55" clip-path="url(#a)"/>
<path d="m341.8 510.35v151.55" clip-path="url(#a)"/>
<path d="m341.8 510.35 44.654 151.55" clip-path="url(#a)"/>
<path d="m448.97 510.35-196.48 151.55" clip-path="url(#a)" stroke-dasharray="3.7,1.6"/>
<path d="m448.97 510.35-17.862 151.55" clip-path="url(#a)"/>
<path d="m448.97 510.35 26.793 151.55" clip-path="url(#a)"/>
<path d="m448.97 510.35 71.447 151.55" clip-path="url(#a)"/>
<path d="m448.97 510.35 116.1 151.55" clip-path="url(#a)"/>
<path d="m431.1 661.89v151.55" clip-path="url(#a)"/>
<path d="m475.76 661.89v151.55" clip-path="url(#a)"/>
<path d="m520.41 661.89v151.55" clip-path="url(#a)"/>
<path d="m565.07 661.89v151.55" clip-path="url(#a)"/>
<path d="m297.14 661.89v151.55" clip-path="url(#a)"/>
<path d="m341.8 661.89v151.55" clip-path="url(#a)"/>
<path d="m386.45 661.89v151.55" clip-path="url(#a)"/>
<path d="m609.72 661.89v151.55" clip-path="url(#a)"/>
<path d="m832.99 661.89v151.55" clip-path="url(#a)"/>
<path d="m1368.8 661.89v151.55" clip-path="url(#a)"/>
<path d="m1458.2 661.89v151.55" clip-path="url(#a)"/>
</g>
<path d="m374.88 356.84 3.0841-3.2184q1.6605-1.7328-0.072302-3.3933l-5.5902-5.3569q-1.7328-1.6605-3.3933 0.072302l-3.0841 3.2184q-1.6605 1.7328 0.072303 3.3933l5.5902 5.3569q1.7328 1.6605 3.3933-0.072303z" clip-path="url(#a)" fill="#fff" stroke="#fff"/>
<g clip-path="url(#a)">
<defs>
<path id="z" d="m9.8125 72.906h9.8594v-64.609h35.5v-8.2969h-45.359z"/>
</defs>
<g transform="translate(371.94 354.03) rotate(-46.221) scale(.08 -.08)">
<use xlink:href="#z"/>
</g>
</g>
<path d="m438.84 126.9 5.6824-1.9762q2.2668-0.78834 1.4785-3.0552l-2.5432-7.3129q-0.78834-2.2668-3.0552-1.4785l-5.6824 1.9762q-2.2668 0.78834-1.4785 3.0552l2.5432 7.3129q0.78834 2.2668 3.0552 1.4785z" clip-path="url(#a)" fill="#fff" stroke="#fff"/>
<g clip-path="url(#a)">
<defs>
<path id="ah" d="m9.8125 72.906h9.8594v-29.891h35.844v29.891h9.8594v-72.906h-9.8594v34.719h-35.844v-34.719h-9.8594z"/>
</defs>
<g transform="translate(437.5 123.06) rotate(-19.176) scale(.08 -.08)">
<use xlink:href="#ah"/>
</g>
</g>
<path d="m683.24 118.6 1.4673 5.8346q0.58532 2.3275 2.9128 1.7422l7.5087-1.8883q2.3275-0.58532 1.7422-2.9129l-1.4673-5.8346q-0.58532-2.3275-2.9129-1.7422l-7.5087 1.8883q-2.3275 0.58532-1.7422 2.9129z" clip-path="url(#a)" fill="#fff" stroke="#fff"/>
<g clip-path="url(#a)">
<g transform="translate(687.18 117.61) rotate(75.884) scale(.08 -.08)">
<use xlink:href="#ah"/>
</g>
</g>
<path d="m767.13 350.77 1.4121 4.2279q0.76028 2.2764 3.0367 1.5161l7.3437-2.4527q2.2764-0.76028 1.5161-3.0367l-1.4121-4.2279q-0.76028-2.2764-3.0367-1.5161l-7.3437 2.4527q-2.2764 0.76028-1.5161 3.0367z" clip-path="url(#a)" fill="#fff" stroke="#fff"/>
<g clip-path="url(#a)">
<g transform="translate(770.98 349.48) rotate(71.532) scale(.08 -.08)">
<use xlink:href="#z"/>
</g>
</g>
<path d="m869.16 124.73 5.6014 2.1954q2.2345 0.87581 3.1103-1.3587l2.8254-7.2086q0.87581-2.2345-1.3587-3.1103l-5.6014-2.1954q-2.2345-0.87581-3.1103 1.3587l-2.8254 7.2086q-0.87581 2.2345 1.3587 3.1103z" clip-path="url(#a)" fill="#fff" stroke="#fff"/>
<g clip-path="url(#a)">
<g transform="translate(870.65 120.94) rotate(21.403) scale(.08 -.08)">
<use xlink:href="#ah"/>
</g>
</g>
<path d="m811.82 351.58 1.9209 4.0223q1.0343 2.1657 3.2 1.1314l6.9867-3.3366q2.1657-1.0343 1.1314-3.2l-1.9209-4.0223q-1.0343-2.1657-3.2-1.1314l-6.9867 3.3366q-2.1657 1.0343-1.1314 3.2z" clip-path="url(#a)" fill="#fff" stroke="#fff"/>
<g clip-path="url(#a)">
<g transform="translate(815.48 349.83) rotate(64.472) scale(.08 -.08)">
<use xlink:href="#z"/>
</g>
</g>
<path d="m645.78 354.41 0.56395-5.8278q0.23117-2.3888-2.1577-2.62l-7.7065-0.74576q-2.3888-0.23117-2.62 2.1577l-0.56395 5.8278q-0.23117 2.3888 2.1577 2.62l7.7065 0.74576q2.3888 0.23117 2.62-2.1577z" clip-path="url(#a)" fill="#fff" stroke="#fff"/>
<g clip-path="url(#a)">
<defs>
<path id="ad" d="m8.6875 72.906h9.9219v-44.297q0-11.719 4.2344-16.875 4.25-5.1406 13.781-5.1406 9.4688 0 13.719 5.1406 4.25 5.1562 4.25 16.875v44.297h9.9062v-45.516q0-14.25-7.0625-21.531-7.0469-7.2812-20.812-7.2812-13.828 0-20.891 7.2812-7.0469 7.2812-7.0469 21.531z"/>
</defs>
<g transform="translate(641.73 354.02) rotate(-84.473) scale(.08 -.08)">
<use xlink:href="#ad"/>
</g>
</g>
<path d="m744.64 349.65 1.4849 5.6636q0.60868 2.3215 2.9302 1.7128l7.4894-1.9636q2.3215-0.60868 1.7128-2.9302l-1.4849-5.6636q-0.60868-2.3215-2.9302-1.7128l-7.4894 1.9636q-2.3215 0.60868-1.7128 2.9302z" clip-path="url(#a)" fill="#fff" stroke="#fff"/>
<g clip-path="url(#a)">
<g transform="translate(748.58 348.62) rotate(75.308) scale(.08 -.08)">
<use xlink:href="#ad"/>
</g>
</g>
<path d="m67.597 720.02v35.285q0 2.4 2.4 2.4h7.7425q2.4 0 2.4-2.4v-35.285q0-2.4-2.4-2.4h-7.7425q-2.4 0-2.4 2.4z" clip-path="url(#a)" fill="#fff" stroke="#fff"/>
<g clip-path="url(#a)">
<defs>
<path id="k" d="m-0.29688 72.906h61.672v-8.3125h-25.875v-64.594h-9.9062v64.594h-25.891z"/>
<path id="d" d="m56.203 29.594v-4.3906h-41.312q0.59375-9.2812 5.5938-14.141t13.938-4.8594q5.1719 0 10.031 1.2656t9.6562 3.8125v-8.5q-4.8438-2.0469-9.9219-3.125t-10.297-1.0781q-13.094 0-20.734 7.6094-7.6406 7.625-7.6406 20.625 0 13.422 7.25 21.297 7.25 7.8906 19.562 7.8906 11.031 0 17.453-7.1094 6.4219-7.0938 6.4219-19.297zm-8.9844 2.6406q-0.09375 7.3594-4.125 11.75-4.0312 4.4062-10.672 4.4062-7.5156 0-12.031-4.25t-5.2031-11.969z"/>
<path id="i" d="m41.109 46.297q-1.5156 0.875-3.2969 1.2812-1.7812 0.42188-3.9219 0.42188-7.625 0-11.703-4.9531t-4.0781-14.234v-28.812h-9.0312v54.688h9.0312v-8.5q2.8438 4.9844 7.375 7.3906 4.5469 2.4219 11.047 2.4219 0.92188 0 2.0469-0.125 1.125-0.10938 2.4844-0.35938z"/>
<path id="l" d="m52 44.188q3.375 6.0625 8.0625 8.9375t11.031 2.875q8.5469 0 13.188-5.9844 4.6406-5.9688 4.6406-17v-33.016h-9.0312v32.719q0 7.8594-2.7969 11.656-2.7812 3.8125-8.4844 3.8125-6.9844 0-11.047-4.6406-4.0469-4.625-4.0469-12.641v-30.906h-9.0312v32.719q0 7.9062-2.7812 11.688t-8.5938 3.7812q-6.8906 0-10.953-4.6562-4.0469-4.6562-4.0469-12.625v-30.906h-9.0312v54.688h9.0312v-8.5q3.0781 5.0312 7.375 7.4219t10.203 2.3906q5.9688 0 10.141-3.0312 4.1719-3.0156 6.1719-8.7812z"/>
<path id="h" d="m9.4219 54.688h8.9844v-54.688h-8.9844zm0 21.297h8.9844v-11.391h-8.9844z"/>
<path id="f" d="m54.891 33.016v-33.016h-8.9844v32.719q0 7.7656-3.0312 11.609-3.0312 3.8594-9.0781 3.8594-7.2812 0-11.484-4.6406-4.2031-4.625-4.2031-12.641v-30.906h-9.0312v54.688h9.0312v-8.5q3.2344 4.9375 7.5938 7.375 4.375 2.4375 10.094 2.4375 9.4219 0 14.25-5.8281 4.8438-5.8281 4.8438-17.156z"/>
<path id="j" d="m34.281 27.484q-10.891 0-15.094-2.4844t-4.2031-8.5q0-4.7812 3.1562-7.5938 3.1562-2.7969 8.5625-2.7969 7.4844 0 12 5.2969t4.5156 14.078v2zm17.922 3.7188v-31.203h-8.9844v8.2969q-3.0781-4.9688-7.6719-7.3438t-11.234-2.375q-8.3906 0-13.359 4.7188-4.9531 4.7188-4.9531 12.625 0 9.2188 6.1719 13.906 6.1875 4.6875 18.438 4.6875h12.609v0.89062q0 6.2031-4.0781 9.5938t-11.453 3.3906q-4.6875 0-9.1406-1.125-4.4375-1.125-8.5312-3.375v8.3125q4.9219 1.9062 9.5625 2.8438 4.6406 0.95312 9.0312 0.95312 11.875 0 17.734-6.1562 5.8594-6.1406 5.8594-18.641z"/>
<path id="g" d="m9.4219 75.984h8.9844v-75.984h-8.9844z"/>
</defs>
<g transform="translate(71.661 720.02) rotate(90) scale(.08 -.08)">
<use xlink:href="#k"/>
<use x="60.818359" xlink:href="#d"/>
<use x="122.341797" xlink:href="#i"/>
<use x="163.439453" xlink:href="#l"/>
<use x="260.851562" xlink:href="#h"/>
<use x="288.634766" xlink:href="#f"/>
<use x="352.013672" xlink:href="#j"/>
<use x="413.292969" xlink:href="#g"/>
</g>
</g>
<path d="m169.55 434.88 1.0557-5.3697q0.463-2.3549-1.8919-2.8179l-7.5971-1.4937q-2.3549-0.463-2.8179 1.8919l-1.0557 5.3697q-0.463 2.3549 1.8919 2.8179l7.5971 1.4937q2.3549 0.463 2.8179-1.8919z" clip-path="url(#a)" fill="#fff" stroke="#fff"/>
<g clip-path="url(#a)">
<defs>
<path id="p" d="m34.188 63.188-13.391-36.281h26.812zm-5.5781 9.7188h11.188l27.781-72.906h-10.25l-6.6406 18.703h-32.859l-6.6406-18.703h-10.406z"/>
</defs>
<g transform="translate(165.56 434.1) rotate(-78.877) scale(.08 -.08)">
<use xlink:href="#p"/>
</g>
</g>
<path d="m192.25 434.04 0.4858-4.862q0.23861-2.3881-2.1495-2.6267l-7.7041-0.76977q-2.3881-0.23861-2.6267 2.1495l-0.4858 4.862q-0.23861 2.3881 2.1495 2.6267l7.7041 0.76977q2.3881 0.23861 2.6267-2.1495z" clip-path="url(#a)" fill="#fff" stroke="#fff"/>
<g clip-path="url(#a)">
<g transform="translate(188.2 433.63) rotate(-84.294) scale(.08 -.08)">
<use xlink:href="#k"/>
</g>
</g>
<path d="m214.84 433.42 0.015548-4.8237q0.007735-2.4-2.3923-2.4077l-7.7425-0.024955q-2.4-0.007735-2.4077 2.3923l-0.015547 4.8237q-0.007736 2.4 2.3923 2.4077l7.7425 0.024955q2.4 0.007736 2.4077-2.3923z" clip-path="url(#a)" fill="#fff" stroke="#fff"/>
<g clip-path="url(#a)">
<defs>
<path id="s" d="m19.672 64.797v-27.391h12.406q6.8906 0 10.641 3.5625 3.7656 3.5625 3.7656 10.156 0 6.5469-3.7656 10.109-3.75 3.5625-10.641 3.5625zm-9.8594 8.1094h22.266q12.266 0 18.531-5.5469 6.2812-5.5469 6.2812-16.234 0-10.797-6.2812-16.312-6.2656-5.5156-18.531-5.5156h-12.406v-29.297h-9.8594z"/>
</defs>
<g transform="translate(210.78 433.4) rotate(-89.815) scale(.08 -.08)">
<use xlink:href="#s"/>
</g>
</g>
<path d="m272.02 280.49 3.6243 4.1004q1.5894 1.7982 3.3877 0.2088l5.8012-5.1276q1.7982-1.5894 0.2088-3.3877l-3.6243-4.1004q-1.5894-1.7982-3.3877-0.2088l-5.8012 5.1276q-1.7982 1.5894-0.2088 3.3877z" clip-path="url(#a)" fill="#fff" stroke="#fff"/>
<g clip-path="url(#a)">
<g transform="translate(275.07 277.8) rotate(48.527) scale(.08 -.08)">
<use xlink:href="#p"/>
</g>
</g>
<path d="m688.18 434.45 0.65666-5.433q0.28798-2.3827-2.0947-2.6706l-7.6866-0.92905q-2.3827-0.28798-2.6706 2.0947l-0.65666 5.433q-0.28798 2.3827 2.0947 2.6706l7.6866 0.92905q2.3827 0.28798 2.6706-2.0947z" clip-path="url(#a)" fill="#fff" stroke="#fff"/>
<g clip-path="url(#a)">
<g transform="translate(684.15 433.97) rotate(-83.108) scale(.08 -.08)">
<use xlink:href="#p"/>
</g>
</g>
<path d="m710.82 433.55 0.11657-4.8223q0.057999-2.3993-2.3413-2.4573l-7.7402-0.18711q-2.3993-0.057999-2.4573 2.3413l-0.11657 4.8223q-0.057999 2.3993 2.3413 2.4573l7.7402 0.18711q2.3993 0.057999 2.4573-2.3413z" clip-path="url(#a)" fill="#fff" stroke="#fff"/>
<g clip-path="url(#a)">
<g transform="translate(706.76 433.45) rotate(-88.615) scale(.08 -.08)">
<use xlink:href="#s"/>
</g>
</g>
<path d="m736.84 278.33 2.152 5.0316q0.94376 2.2067 3.1504 1.2629l7.1188-3.0446q2.2067-0.94376 1.2629-3.1504l-2.152-5.0316q-0.94376-2.2067-3.1504-1.2629l-7.1188 3.0446q-2.2067 0.94376-1.2629 3.1504z" clip-path="url(#a)" fill="#fff" stroke="#fff"/>
<g clip-path="url(#a)">
<g transform="translate(740.58 276.74) rotate(66.844) scale(.08 -.08)">
<use xlink:href="#p"/>
</g>
</g>
<path d="m871.38 720.02v35.285q0 2.4 2.4 2.4h7.7425q2.4 0 2.4-2.4v-35.285q0-2.4-2.4-2.4h-7.7425q-2.4 0-2.4 2.4z" clip-path="url(#a)" fill="#fff" stroke="#fff"/>
<g clip-path="url(#a)">
<g transform="translate(875.44 720.02) rotate(90) scale(.08 -.08)">
<use xlink:href="#k"/>
<use x="60.818359" xlink:href="#d"/>
<use x="122.341797" xlink:href="#i"/>
<use x="163.439453" xlink:href="#l"/>
<use x="260.851562" xlink:href="#h"/>
<use x="288.634766" xlink:href="#f"/>
<use x="352.013672" xlink:href="#j"/>
<use x="413.292969" xlink:href="#g"/>
</g>
</g>
<path d="m1005.5 435.59 1.7543-5.1837q0.76936-2.2733-1.504-3.0427l-7.3339-2.482q-2.2733-0.76936-3.0427 1.504l-1.7543 5.1837q-0.76936 2.2733 1.504 3.0427l7.3339 2.482q2.2733 0.76936 3.0427-1.504z" clip-path="url(#a)" fill="#fff" stroke="#fff"/>
<g clip-path="url(#a)">
<g transform="translate(1001.7 434.28) rotate(-71.303) scale(.08 -.08)">
<use xlink:href="#p"/>
</g>
</g>
<path d="m1051 434.16 0.66046-4.5536q0.34449-2.3751-2.0307-2.7196l-7.6623-1.1113q-2.3751-0.34449-2.7196 2.0307l-0.66046 4.5536q-0.34449 2.3751 2.0307 2.7196l7.6623 1.1113q2.3751 0.34449 2.7196-2.0307z" clip-path="url(#a)" fill="#fff" stroke="#fff"/>
<g clip-path="url(#a)">
<defs>
<path id="ae" d="m9.8125 72.906h41.891v-8.3125h-32.031v-21.484h28.906v-8.2969h-28.906v-34.812h-9.8594z"/>
</defs>
<g transform="translate(1047 433.58) rotate(-81.747) scale(.08 -.08)">
<use xlink:href="#ae"/>
</g>
</g>
<path d="m1073.5 434.36 0.29747-6.1528q0.1159-2.3972-2.2813-2.5131l-7.7335-0.37389q-2.3972-0.1159-2.5131 2.2813l-0.29747 6.1528q-0.1159 2.3972 2.2813 2.5131l7.7335 0.37389q2.3972 0.1159 2.5131-2.2813z" clip-path="url(#a)" fill="#fff" stroke="#fff"/>
<g clip-path="url(#a)">
<defs>
<path id="ap" d="m19.672 64.797v-56.688h11.922q15.094 0 22.094 6.8281 7 6.8438 7 21.594 0 14.641-7 21.453t-22.094 6.8125zm-9.8594 8.1094h20.266q21.188 0 31.094-8.8125 9.9219-8.8125 9.9219-27.562 0-18.859-9.9688-27.703-9.9531-8.8281-31.047-8.8281h-20.266z"/>
</defs>
<g transform="translate(1069.5 434.17) rotate(-87.232) scale(.08 -.08)">
<use xlink:href="#ap"/>
</g>
</g>
<path d="m1083.4 428.88 0.23294 4.8181q0.1159 2.3972 2.5131 2.2813l7.7335-0.37389q2.3972-0.1159 2.2813-2.5131l-0.23294-4.8181q-0.1159-2.3972-2.5131-2.2813l-7.7335 0.37389q-2.3972 0.1159-2.2813 2.5131z" clip-path="url(#a)" fill="#fff" stroke="#fff"/>
<g clip-path="url(#a)">
<g transform="translate(1087.4 428.68) rotate(87.232) scale(.08 -.08)">
<use xlink:href="#s"/>
</g>
</g>
<path d="m1184.4 281.95 4.4802 3.1426q1.9648 1.3782 3.343-0.5866l4.4462-6.3386q1.3782-1.9648-0.5866-3.343l-4.4802-3.1426q-1.9648-1.3782-3.343 0.5866l-4.4462 6.3386q-1.3782 1.9648 0.5866 3.343z" clip-path="url(#a)" fill="#fff" stroke="#fff"/>
<g clip-path="url(#a)">
<g transform="translate(1186.7 278.62) rotate(35.048) scale(.08 -.08)">
<use xlink:href="#p"/>
</g>
</g>
<path d="m960.69 720.02v35.285q0 2.4 2.4 2.4h7.7425q2.4 0 2.4-2.4v-35.285q0-2.4-2.4-2.4h-7.7425q-2.4 0-2.4 2.4z" clip-path="url(#a)" fill="#fff" stroke="#fff"/>
<g clip-path="url(#a)">
<g transform="translate(964.75 720.02) rotate(90) scale(.08 -.08)">
<use xlink:href="#k"/>
<use x="60.818359" xlink:href="#d"/>
<use x="122.341797" xlink:href="#i"/>
<use x="163.439453" xlink:href="#l"/>
<use x="260.851562" xlink:href="#h"/>
<use x="288.634766" xlink:href="#f"/>
<use x="352.013672" xlink:href="#j"/>
<use x="413.292969" xlink:href="#g"/>
</g>
</g>
<path d="m916.03 720.02v35.285q0 2.4 2.4 2.4h7.7425q2.4 0 2.4-2.4v-35.285q0-2.4-2.4-2.4h-7.7425q-2.4 0-2.4 2.4z" clip-path="url(#a)" fill="#fff" stroke="#fff"/>
<g clip-path="url(#a)">
<g transform="translate(920.1 720.02) rotate(90) scale(.08 -.08)">
<use xlink:href="#k"/>
<use x="60.818359" xlink:href="#d"/>
<use x="122.341797" xlink:href="#i"/>
<use x="163.439453" xlink:href="#l"/>
<use x="260.851562" xlink:href="#h"/>
<use x="288.634766" xlink:href="#f"/>
<use x="352.013672" xlink:href="#j"/>
<use x="413.292969" xlink:href="#g"/>
</g>
</g>
<path d="m1005.3 720.02v35.285q0 2.4 2.4 2.4h7.7425q2.4 0 2.4-2.4v-35.285q0-2.4-2.4-2.4h-7.7425q-2.4 0-2.4 2.4z" clip-path="url(#a)" fill="#fff" stroke="#fff"/>
<g clip-path="url(#a)">
<g transform="translate(1009.4 720.02) rotate(90) scale(.08 -.08)">
<use xlink:href="#k"/>
<use x="60.818359" xlink:href="#d"/>
<use x="122.341797" xlink:href="#i"/>
<use x="163.439453" xlink:href="#l"/>
<use x="260.851562" xlink:href="#h"/>
<use x="288.634766" xlink:href="#f"/>
<use x="352.013672" xlink:href="#j"/>
<use x="413.292969" xlink:href="#g"/>
</g>
</g>
<path d="m1050 720.02v35.285q0 2.4 2.4 2.4h7.7425q2.4 0 2.4-2.4v-35.285q0-2.4-2.4-2.4h-7.7425q-2.4 0-2.4 2.4z" clip-path="url(#a)" fill="#fff" stroke="#fff"/>
<g clip-path="url(#a)">
<g transform="translate(1054.1 720.02) rotate(90) scale(.08 -.08)">
<use xlink:href="#k"/>
<use x="60.818359" xlink:href="#d"/>
<use x="122.341797" xlink:href="#i"/>
<use x="163.439453" xlink:href="#l"/>
<use x="260.851562" xlink:href="#h"/>
<use x="288.634766" xlink:href="#f"/>
<use x="352.013672" xlink:href="#j"/>
<use x="413.292969" xlink:href="#g"/>
</g>
</g>
<path d="m1094.6 720.02v35.285q0 2.4 2.4 2.4h7.7425q2.4 0 2.4-2.4v-35.285q0-2.4-2.4-2.4h-7.7425q-2.4 0-2.4 2.4z" clip-path="url(#a)" fill="#fff" stroke="#fff"/>
<g clip-path="url(#a)">
<g transform="translate(1098.7 720.02) rotate(90) scale(.08 -.08)">
<use xlink:href="#k"/>
<use x="60.818359" xlink:href="#d"/>
<use x="122.341797" xlink:href="#i"/>
<use x="163.439453" xlink:href="#l"/>
<use x="260.851562" xlink:href="#h"/>
<use x="288.634766" xlink:href="#f"/>
<use x="352.013672" xlink:href="#j"/>
<use x="413.292969" xlink:href="#g"/>
</g>
</g>
<path d="m1417.8 585.57 2.6456 4.9201q1.1366 2.1138 3.2504 0.97718l6.8192-3.6668q2.1138-1.1366 0.97718-3.2504l-2.6456-4.9201q-1.1366-2.1138-3.2504-0.97718l-6.8192 3.6668q-2.1138 1.1366-0.97718 3.2504z" clip-path="url(#a)" fill="#fff" stroke="#fff"/>
<g clip-path="url(#a)">
<defs>
<path id="y" d="m64.406 67.281v-10.391q-4.9844 4.6406-10.625 6.9219-5.6406 2.2969-11.984 2.2969-12.5 0-19.141-7.6406t-6.6406-22.094q0-14.406 6.6406-22.047t19.141-7.6406q6.3438 0 11.984 2.2969t10.625 6.9375v-10.312q-5.1719-3.5156-10.969-5.2812-5.7812-1.75-12.219-1.75-16.562 0-26.094 10.125-9.5156 10.141-9.5156 27.672 0 17.578 9.5156 27.703 9.5312 10.141 26.094 10.141 6.5312 0 12.312-1.7344 5.7969-1.7344 10.875-5.2031z"/>
</defs>
<g transform="translate(1421.4 583.65) rotate(61.732) scale(.08 -.08)">
<use xlink:href="#y"/>
</g>
</g>
<path d="m1228.3 514.2 2.0973-4.0955q1.0939-2.1362-1.0423-3.2301l-6.8915-3.529q-2.1362-1.0939-3.2301 1.0423l-2.0973 4.0955q-1.0939 2.1362 1.0423 3.2301l6.8915 3.529q2.1362 1.0939 3.2301-1.0423z" clip-path="url(#a)" fill="#fff" stroke="#fff"/>
<g clip-path="url(#a)">
<g transform="translate(1224.6 512.34) rotate(-62.883) scale(.08 -.08)">
<use xlink:href="#ae"/>
</g>
</g>
<path d="m1251.1 513.82 1.7365-4.7474q0.82445-2.254-1.4295-3.0784l-7.2713-2.6597q-2.2539-0.82445-3.0784 1.4295l-1.7365 4.7474q-0.82445 2.254 1.4295 3.0784l7.2713 2.6597q2.2539 0.82445 3.0784-1.4295z" clip-path="url(#a)" fill="#fff" stroke="#fff"/>
<g clip-path="url(#a)">
<defs>
<path id="u" d="m9.8125 72.906h46.094v-8.3125h-36.234v-21.578h34.719v-8.2969h-34.719v-26.422h37.109v-8.2969h-46.969z"/>
</defs>
<g transform="translate(1247.3 512.42) rotate(-69.909) scale(.08 -.08)">
<use xlink:href="#u"/>
</g>
</g>
<path d="m1274 513.1 1.0836-4.9375q0.51448-2.3442-1.8297-2.8587l-7.5625-1.6597q-2.3442-0.51448-2.8587 1.8297l-1.0836 4.9375q-0.51448 2.3442 1.8297 2.8587l7.5625 1.6597q2.3442 0.51448 2.8587-1.8297z" clip-path="url(#a)" fill="#fff" stroke="#fff"/>
<g clip-path="url(#a)">
<g transform="translate(1270 512.23) rotate(-77.622) scale(.08 -.08)">
<use xlink:href="#u"/>
</g>
</g>
<path d="m1339.8 434.48 2.5402 4.3704q1.206 2.075 3.281 0.86893l6.6939-3.8907q2.075-1.206 0.86893-3.281l-2.5402-4.3704q-1.206-2.075-3.281-0.86893l-6.6939 3.8907q-2.075 1.206-0.86893 3.281z" clip-path="url(#a)" fill="#fff" stroke="#fff"/>
<g clip-path="url(#a)">
<g transform="translate(1343.3 432.44) rotate(59.834) scale(.08 -.08)">
<use xlink:href="#u"/>
</g>
</g>
<path d="m1139.3 720.02v35.285q0 2.4 2.4 2.4h7.7425q2.4 0 2.4-2.4v-35.285q0-2.4-2.4-2.4h-7.7425q-2.4 0-2.4 2.4z" clip-path="url(#a)" fill="#fff" stroke="#fff"/>
<g clip-path="url(#a)">
<g transform="translate(1143.4 720.02) rotate(90) scale(.08 -.08)">
<use xlink:href="#k"/>
<use x="60.818359" xlink:href="#d"/>
<use x="122.341797" xlink:href="#i"/>
<use x="163.439453" xlink:href="#l"/>
<use x="260.851562" xlink:href="#h"/>
<use x="288.634766" xlink:href="#f"/>
<use x="352.013672" xlink:href="#j"/>
<use x="413.292969" xlink:href="#g"/>
</g>
</g>
<path d="m1184 720.02v35.285q0 2.4 2.4 2.4h7.7425q2.4 0 2.4-2.4v-35.285q0-2.4-2.4-2.4h-7.7425q-2.4 0-2.4 2.4z" clip-path="url(#a)" fill="#fff" stroke="#fff"/>
<g clip-path="url(#a)">
<g transform="translate(1188 720.02) rotate(90) scale(.08 -.08)">
<use xlink:href="#k"/>
<use x="60.818359" xlink:href="#d"/>
<use x="122.341797" xlink:href="#i"/>
<use x="163.439453" xlink:href="#l"/>
<use x="260.851562" xlink:href="#h"/>
<use x="288.634766" xlink:href="#f"/>
<use x="352.013672" xlink:href="#j"/>
<use x="413.292969" xlink:href="#g"/>
</g>
</g>
<path d="m1228.6 720.02v35.285q0 2.4 2.4 2.4h7.7425q2.4 0 2.4-2.4v-35.285q0-2.4-2.4-2.4h-7.7425q-2.4 0-2.4 2.4z" clip-path="url(#a)" fill="#fff" stroke="#fff"/>
<g clip-path="url(#a)">
<g transform="translate(1232.7 720.02) rotate(90) scale(.08 -.08)">
<use xlink:href="#k"/>
<use x="60.818359" xlink:href="#d"/>
<use x="122.341797" xlink:href="#i"/>
<use x="163.439453" xlink:href="#l"/>
<use x="260.851562" xlink:href="#h"/>
<use x="288.634766" xlink:href="#f"/>
<use x="352.013672" xlink:href="#j"/>
<use x="413.292969" xlink:href="#g"/>
</g>
</g>
<path d="m1440.2 661.49 1.8914 5.1352q0.8295 2.2521 3.0816 1.4226l7.2654-2.676q2.2521-0.8295 1.4226-3.0816l-1.8914-5.1352q-0.8295-2.2521-3.0816-1.4226l-7.2654 2.676q-2.2521 0.8295-1.4226 3.0816z" clip-path="url(#a)" fill="#fff" stroke="#fff"/>
<g clip-path="url(#a)">
<g transform="translate(1444 660.09) rotate(69.78) scale(.08 -.08)">
<use xlink:href="#p"/>
</g>
</g>
<path d="m1338.8 592.04 3.2457-4.4061q1.4234-1.9323-0.50888-3.3557l-6.2337-4.592q-1.9323-1.4234-3.3557 0.50888l-3.2457 4.4061q-1.4234 1.9323 0.50888 3.3557l6.2337 4.592q1.9323 1.4234 3.3557-0.50888z" clip-path="url(#a)" fill="#fff" stroke="#fff"/>
<g clip-path="url(#a)">
<g transform="translate(1335.5 589.63) rotate(-53.623) scale(.08 -.08)">
<use xlink:href="#p"/>
</g>
</g>
<path d="m1362.5 590.76 1.8601-4.2085q0.97023-2.1951-1.2249-3.1654l-7.0816-3.13q-2.1951-0.97023-3.1654 1.2249l-1.8601 4.2085q-0.97023 2.1951 1.2249 3.1654l7.0816 3.13q2.1951 0.97023 3.1654-1.2249z" clip-path="url(#a)" fill="#fff" stroke="#fff"/>
<g clip-path="url(#a)">
<g transform="translate(1358.8 589.12) rotate(-66.155) scale(.08 -.08)">
<use xlink:href="#ae"/>
</g>
</g>
<path d="m1395.8 584.65 0.70309 4.7722q0.34981 2.3744 2.7242 2.0246l7.6598-1.1285q2.3744-0.34981 2.0246-2.7242l-0.70309-4.7722q-0.34981-2.3744-2.7242-2.0246l-7.6598 1.1285q-2.3744 0.34981-2.0246 2.7242z" clip-path="url(#a)" fill="#fff" stroke="#fff"/>
<g clip-path="url(#a)">
<g transform="translate(1399.8 584.05) rotate(81.619) scale(.08 -.08)">
<use xlink:href="#s"/>
</g>
</g>
<path d="m1385.8 589.93 0.8534-5.7925q0.34981-2.3744-2.0246-2.7242l-7.6598-1.1285q-2.3744-0.34981-2.7242 2.0246l-0.8534 5.7925q-0.34981 2.3744 2.0246 2.7242l7.6598 1.1285q2.3744 0.34981 2.7242-2.0246z" clip-path="url(#a)" fill="#fff" stroke="#fff"/>
<g clip-path="url(#a)">
<g transform="translate(1381.8 589.34) rotate(-81.619) scale(.08 -.08)">
<use xlink:href="#ad"/>
</g>
</g>
<path d="m1417.7 585.98 2.3669 5.3552q0.97023 2.1951 3.1654 1.2249l7.0816-3.13q2.1951-0.97023 1.2249-3.1654l-2.3669-5.3552q-0.97023-2.1951-3.1654-1.2249l-7.0816 3.13q-2.1951 0.97023-1.2249 3.1654z" clip-path="url(#a)" fill="#fff" stroke="#fff"/>
<g clip-path="url(#a)">
<g transform="translate(1421.5 584.33) rotate(66.155) scale(.08 -.08)">
<use xlink:href="#ad"/>
</g>
</g>
<path d="m1273.3 720.02v35.285q0 2.4 2.4 2.4h7.7425q2.4 0 2.4-2.4v-35.285q0-2.4-2.4-2.4h-7.7425q-2.4 0-2.4 2.4z" clip-path="url(#a)" fill="#fff" stroke="#fff"/>
<g clip-path="url(#a)">
<g transform="translate(1277.3 720.02) rotate(90) scale(.08 -.08)">
<use xlink:href="#k"/>
<use x="60.818359" xlink:href="#d"/>
<use x="122.341797" xlink:href="#i"/>
<use x="163.439453" xlink:href="#l"/>
<use x="260.851562" xlink:href="#h"/>
<use x="288.634766" xlink:href="#f"/>
<use x="352.013672" xlink:href="#j"/>
<use x="413.292969" xlink:href="#g"/>
</g>
</g>
<path d="m1317.9 720.02v35.285q0 2.4 2.4 2.4h7.7425q2.4 0 2.4-2.4v-35.285q0-2.4-2.4-2.4h-7.7425q-2.4 0-2.4 2.4z" clip-path="url(#a)" fill="#fff" stroke="#fff"/>
<g clip-path="url(#a)">
<g transform="translate(1322 720.02) rotate(90) scale(.08 -.08)">
<use xlink:href="#k"/>
<use x="60.818359" xlink:href="#d"/>
<use x="122.341797" xlink:href="#i"/>
<use x="163.439453" xlink:href="#l"/>
<use x="260.851562" xlink:href="#h"/>
<use x="288.634766" xlink:href="#f"/>
<use x="352.013672" xlink:href="#j"/>
<use x="413.292969" xlink:href="#g"/>
</g>
</g>
<path d="m1407.2 720.02v35.285q0 2.4 2.4 2.4h7.7425q2.4 0 2.4-2.4v-35.285q0-2.4-2.4-2.4h-7.7425q-2.4 0-2.4 2.4z" clip-path="url(#a)" fill="#fff" stroke="#fff"/>
<g clip-path="url(#a)">
<g transform="translate(1411.3 720.02) rotate(90) scale(.08 -.08)">
<use xlink:href="#k"/>
<use x="60.818359" xlink:href="#d"/>
<use x="122.341797" xlink:href="#i"/>
<use x="163.439453" xlink:href="#l"/>
<use x="260.851562" xlink:href="#h"/>
<use x="288.634766" xlink:href="#f"/>
<use x="352.013672" xlink:href="#j"/>
<use x="413.292969" xlink:href="#g"/>
</g>
</g>
<path d="m648.1 720.02v35.285q0 2.4 2.4 2.4h7.7425q2.4 0 2.4-2.4v-35.285q0-2.4-2.4-2.4h-7.7425q-2.4 0-2.4 2.4z" clip-path="url(#a)" fill="#fff" stroke="#fff"/>
<g clip-path="url(#a)">
<g transform="translate(652.17 720.02) rotate(90) scale(.08 -.08)">
<use xlink:href="#k"/>
<use x="60.818359" xlink:href="#d"/>
<use x="122.341797" xlink:href="#i"/>
<use x="163.439453" xlink:href="#l"/>
<use x="260.851562" xlink:href="#h"/>
<use x="288.634766" xlink:href="#f"/>
<use x="352.013672" xlink:href="#j"/>
<use x="413.292969" xlink:href="#g"/>
</g>
</g>
<path d="m692.76 720.02v35.285q0 2.4 2.4 2.4h7.7425q2.4 0 2.4-2.4v-35.285q0-2.4-2.4-2.4h-7.7425q-2.4 0-2.4 2.4z" clip-path="url(#a)" fill="#fff" stroke="#fff"/>
<g clip-path="url(#a)">
<g transform="translate(696.82 720.02) rotate(90) scale(.08 -.08)">
<use xlink:href="#k"/>
<use x="60.818359" xlink:href="#d"/>
<use x="122.341797" xlink:href="#i"/>
<use x="163.439453" xlink:href="#l"/>
<use x="260.851562" xlink:href="#h"/>
<use x="288.634766" xlink:href="#f"/>
<use x="352.013672" xlink:href="#j"/>
<use x="413.292969" xlink:href="#g"/>
</g>
</g>
<path d="m777.67 436.49 0.3663-5.0417q0.17391-2.3937-2.2198-2.5676l-7.7221-0.56104q-2.3937-0.17391-2.5676 2.2198l-0.3663 5.0417q-0.17391 2.3937 2.2198 2.5676l7.7221 0.56104q2.3937 0.17391 2.5676-2.2198z" clip-path="url(#a)" fill="#fff" stroke="#fff"/>
<g clip-path="url(#a)">
<g transform="translate(773.61 436.2) rotate(-85.845) scale(.08 -.08)">
<use xlink:href="#u"/>
</g>
</g>
<path d="m776.39 506.73 0.2042 5.5825q0.087728 2.3984 2.4861 2.3107l7.7373-0.28302q2.3984-0.087728 2.3107-2.4861l-0.2042-5.5825q-0.087729-2.3984-2.4861-2.3107l-7.7373 0.28302q-2.3984 0.087728-2.3107 2.4861z" clip-path="url(#a)" fill="#fff" stroke="#fff"/>
<g clip-path="url(#a)">
<g transform="translate(780.45 506.58) rotate(87.905) scale(.08 -.08)">
<use xlink:href="#y"/>
</g>
</g>
<path d="m770.57 584.33 0.79765 5.4141q0.34981 2.3744 2.7242 2.0246l7.6598-1.1285q2.3744-0.34981 2.0246-2.7242l-0.79765-5.4141q-0.34981-2.3744-2.7242-2.0246l-7.6598 1.1285q-2.3744 0.34981-2.0246 2.7242z" clip-path="url(#a)" fill="#fff" stroke="#fff"/>
<g clip-path="url(#a)">
<g transform="translate(774.59 583.73) rotate(81.619) scale(.08 -.08)">
<use xlink:href="#p"/>
</g>
</g>
<path d="m760.68 589.54 0.74026-5.0245q0.34981-2.3744-2.0246-2.7242l-7.6598-1.1285q-2.3744-0.34981-2.7242 2.0246l-0.74026 5.0245q-0.34981 2.3744 2.0246 2.7242l7.6598 1.1285q2.3744 0.34981 2.7242-2.0246z" clip-path="url(#a)" fill="#fff" stroke="#fff"/>
<g clip-path="url(#a)">
<defs>
<path id="ay" d="m53.516 70.516v-9.625q-5.6094 2.6875-10.594 4-4.9844 1.3281-9.625 1.3281-8.0469 0-12.422-3.125t-4.375-8.8906q0-4.8438 2.9062-7.3125 2.9062-2.4531 11.016-3.9688l5.9531-1.2188q11.031-2.1094 16.281-7.4062t5.25-14.172q0-10.609-7.1094-16.078-7.0938-5.4688-20.812-5.4688-5.1719 0-11.016 1.1719-5.8281 1.1719-12.078 3.4688v10.156q6-3.3594 11.766-5.0781 5.7656-1.7031 11.328-1.7031 8.4375 0 13.031 3.3125 4.5938 3.3281 4.5938 9.4844 0 5.3594-3.2969 8.3906t-10.812 4.5469l-6.0156 1.1719q-11.031 2.1875-15.969 6.875-4.9219 4.6875-4.9219 13.047 0 9.6719 6.8125 15.234t18.766 5.5625q5.1406 0 10.453-0.9375 5.3281-0.92188 10.891-2.7656z"/>
</defs>
<g transform="translate(756.66 588.95) rotate(-81.619) scale(.08 -.08)">
<use xlink:href="#ay"/>
</g>
</g>
<path d="m782.07 720.02v35.285q0 2.4 2.4 2.4h7.7425q2.4 0 2.4-2.4v-35.285q0-2.4-2.4-2.4h-7.7425q-2.4 0-2.4 2.4z" clip-path="url(#a)" fill="#fff" stroke="#fff"/>
<g clip-path="url(#a)">
<g transform="translate(786.13 720.02) rotate(90) scale(.08 -.08)">
<use xlink:href="#k"/>
<use x="60.818359" xlink:href="#d"/>
<use x="122.341797" xlink:href="#i"/>
<use x="163.439453" xlink:href="#l"/>
<use x="260.851562" xlink:href="#h"/>
<use x="288.634766" xlink:href="#f"/>
<use x="352.013672" xlink:href="#j"/>
<use x="413.292969" xlink:href="#g"/>
</g>
</g>
<path d="m737.41 720.02v35.285q0 2.4 2.4 2.4h7.7425q2.4 0 2.4-2.4v-35.285q0-2.4-2.4-2.4h-7.7425q-2.4 0-2.4 2.4z" clip-path="url(#a)" fill="#fff" stroke="#fff"/>
<g clip-path="url(#a)">
<g transform="translate(741.48 720.02) rotate(90) scale(.08 -.08)">
<use xlink:href="#k"/>
<use x="60.818359" xlink:href="#d"/>
<use x="122.341797" xlink:href="#i"/>
<use x="163.439453" xlink:href="#l"/>
<use x="260.851562" xlink:href="#h"/>
<use x="288.634766" xlink:href="#f"/>
<use x="352.013672" xlink:href="#j"/>
<use x="413.292969" xlink:href="#g"/>
</g>
</g>
<path d="m112.25 720.02v35.285q0 2.4 2.4 2.4h7.7425q2.4 0 2.4-2.4v-35.285q0-2.4-2.4-2.4h-7.7425q-2.4 0-2.4 2.4z" clip-path="url(#a)" fill="#fff" stroke="#fff"/>
<g clip-path="url(#a)">
<g transform="translate(116.32 720.02) rotate(90) scale(.08 -.08)">
<use xlink:href="#k"/>
<use x="60.818359" xlink:href="#d"/>
<use x="122.341797" xlink:href="#i"/>
<use x="163.439453" xlink:href="#l"/>
<use x="260.851562" xlink:href="#h"/>
<use x="288.634766" xlink:href="#f"/>
<use x="352.013672" xlink:href="#j"/>
<use x="413.292969" xlink:href="#g"/>
</g>
</g>
<path d="m156.91 720.02v35.285q0 2.4 2.4 2.4h7.7425q2.4 0 2.4-2.4v-35.285q0-2.4-2.4-2.4h-7.7425q-2.4 0-2.4 2.4z" clip-path="url(#a)" fill="#fff" stroke="#fff"/>
<g clip-path="url(#a)">
<g transform="translate(160.97 720.02) rotate(90) scale(.08 -.08)">
<use xlink:href="#k"/>
<use x="60.818359" xlink:href="#d"/>
<use x="122.341797" xlink:href="#i"/>
<use x="163.439453" xlink:href="#l"/>
<use x="260.851562" xlink:href="#h"/>
<use x="288.634766" xlink:href="#f"/>
<use x="352.013672" xlink:href="#j"/>
<use x="413.292969" xlink:href="#g"/>
</g>
</g>
<path d="m201.56 720.02v35.285q0 2.4 2.4 2.4h7.7425q2.4 0 2.4-2.4v-35.285q0-2.4-2.4-2.4h-7.7425q-2.4 0-2.4 2.4z" clip-path="url(#a)" fill="#fff" stroke="#fff"/>
<g clip-path="url(#a)">
<g transform="translate(205.62 720.02) rotate(90) scale(.08 -.08)">
<use xlink:href="#k"/>
<use x="60.818359" xlink:href="#d"/>
<use x="122.341797" xlink:href="#i"/>
<use x="163.439453" xlink:href="#l"/>
<use x="260.851562" xlink:href="#h"/>
<use x="288.634766" xlink:href="#f"/>
<use x="352.013672" xlink:href="#j"/>
<use x="413.292969" xlink:href="#g"/>
</g>
</g>
<path d="m305.27 513.83 1.6644-5.3325q0.71509-2.291-1.5759-3.0061l-7.3908-2.3069q-2.291-0.71509-3.0061 1.5759l-1.6644 5.3325q-0.71509 2.291 1.5759 3.0061l7.3908 2.3069q2.291 0.71509 3.0061-1.5759z" clip-path="url(#a)" fill="#fff" stroke="#fff"/>
<g clip-path="url(#a)">
<g transform="translate(301.39 512.62) rotate(-72.665) scale(.08 -.08)">
<use xlink:href="#y"/>
</g>
</g>
<path d="m350.94 436.29 0.19573-5.0512q0.092927-2.3982-2.3053-2.4911l-7.7367-0.29979q-2.3982-0.092927-2.4911 2.3053l-0.19573 5.0512q-0.092928 2.3982 2.3053 2.4911l7.7367 0.29979q2.3982 0.092928 2.4911-2.3053z" clip-path="url(#a)" fill="#fff" stroke="#fff"/>
<g clip-path="url(#a)">
<g transform="translate(346.88 436.13) rotate(-87.781) scale(.08 -.08)">
<use xlink:href="#u"/>
</g>
</g>
<path d="m391.73 434.86 2.7808 4.2214q1.3202 2.0042 3.3245 0.68399l6.4657-4.2592q2.0042-1.3202 0.68399-3.3245l-2.7808-4.2214q-1.3202-2.0042-3.3245-0.68399l-6.4657 4.2592q-2.0042 1.3202-0.68399 3.3245z" clip-path="url(#a)" fill="#fff" stroke="#fff"/>
<g clip-path="url(#a)">
<g transform="translate(395.12 432.62) rotate(56.626) scale(.08 -.08)">
<use xlink:href="#u"/>
</g>
</g>
<path d="m246.22 720.02v35.285q0 2.4 2.4 2.4h7.7425q2.4 0 2.4-2.4v-35.285q0-2.4-2.4-2.4h-7.7425q-2.4 0-2.4 2.4z" clip-path="url(#a)" fill="#fff" stroke="#fff"/>
<g clip-path="url(#a)">
<g transform="translate(250.28 720.02) rotate(90) scale(.08 -.08)">
<use xlink:href="#k"/>
<use x="60.818359" xlink:href="#d"/>
<use x="122.341797" xlink:href="#i"/>
<use x="163.439453" xlink:href="#l"/>
<use x="260.851562" xlink:href="#h"/>
<use x="288.634766" xlink:href="#f"/>
<use x="352.013672" xlink:href="#j"/>
<use x="413.292969" xlink:href="#g"/>
</g>
</g>
<path d="m324.7 590.56 1.5711-5.3321q0.67834-2.3021-1.6238-2.9805l-7.4268-2.1884q-2.3021-0.67834-2.9805 1.6238l-1.5711 5.3321q-0.67834 2.3021 1.6238 2.9805l7.4268 2.1884q2.3021 0.67834 2.9805-1.6238z" clip-path="url(#a)" fill="#fff" stroke="#fff"/>
<g clip-path="url(#a)">
<defs>
<path id="an" d="m44.391 34.188q3.1719-1.0781 6.1719-4.5938t6.0312-9.6719l10.016-19.922h-10.609l-9.3125 18.703q-3.625 7.3281-7.0156 9.7188t-9.25 2.3906h-10.75v-30.812h-9.8594v72.906h22.266q12.5 0 18.656-5.2344 6.1562-5.2188 6.1562-15.766 0-6.8906-3.2031-11.438-3.2031-4.5312-9.2969-6.2812zm-24.719 30.609v-25.875h12.406q7.125 0 10.766 3.2969t3.6406 9.6875-3.6406 9.6406-10.766 3.25z"/>
</defs>
<g transform="translate(320.8 589.41) rotate(-73.582) scale(.08 -.08)">
<use xlink:href="#an"/>
</g>
</g>
<path d="m335.52 583.82v4.6012q0 2.4 2.4 2.4h7.7425q2.4 0 2.4-2.4v-4.6012q0-2.4-2.4-2.4h-7.7425q-2.4 0-2.4 2.4z" clip-path="url(#a)" fill="#fff" stroke="#fff"/>
<g clip-path="url(#a)">
<g transform="translate(339.59 583.82) rotate(90) scale(.08 -.08)">
<use xlink:href="#ae"/>
</g>
</g>
<path d="m357.32 585.21 1.5789 5.3585q0.67834 2.3021 2.9805 1.6238l7.4268-2.1884q2.3021-0.67834 1.6238-2.9805l-1.5789-5.3585q-0.67834-2.3021-2.9805-1.6238l-7.4268 2.1884q-2.3021 0.67834-1.6238 2.9805z" clip-path="url(#a)" fill="#fff" stroke="#fff"/>
<g clip-path="url(#a)">
<g transform="translate(361.22 584.06) rotate(73.582) scale(.08 -.08)">
<use xlink:href="#y"/>
</g>
</g>
<path d="m352.39 592.76 4.3333-3.3423q1.9004-1.4658 0.4346-3.3662l-4.7287-6.1307q-1.4658-1.9004-3.3662-0.4346l-4.3333 3.3423q-1.9004 1.4658-0.4346 3.3662l4.7287 6.1307q1.4658 1.9004 3.3662 0.4346z" clip-path="url(#a)" fill="#fff" stroke="#fff"/>
<g clip-path="url(#a)">
<g transform="translate(349.91 589.54) rotate(-37.643) scale(.08 -.08)">
<use xlink:href="#p"/>
</g>
</g>
<path d="m445.94 589.61 0.65067-5.5205q0.28093-2.3835-2.1026-2.6644l-7.6893-0.90628q-2.3835-0.28093-2.6644 2.1026l-0.65067 5.5205q-0.28093 2.3835 2.1026 2.6644l7.6893 0.90628q2.3835 0.28093 2.6644-2.1026z" clip-path="url(#a)" fill="#fff" stroke="#fff"/>
<g clip-path="url(#a)">
<g transform="translate(441.9 589.14) rotate(-83.278) scale(.08 -.08)">
<use xlink:href="#an"/>
</g>
</g>
<path d="m455.65 584.18 1.0724 6.0659q0.41783 2.3633 2.7812 1.9455l7.6243-1.3479q2.3633-0.41783 1.9455-2.7812l-1.0724-6.0659q-0.41783-2.3633-2.7812-1.9455l-7.6243 1.3479q-2.3633 0.41783-1.9455 2.7812z" clip-path="url(#a)" fill="#fff" stroke="#fff"/>
<g clip-path="url(#a)">
<g transform="translate(459.65 583.47) rotate(79.974) scale(.08 -.08)">
<use xlink:href="#ap"/>
</g>
</g>
<path d="m477.99 586.61 2.057 4.3632q1.0234 2.1708 3.1943 1.1474l7.0032-3.3017q2.1708-1.0234 1.1474-3.1943l-2.057-4.3632q-1.0234-2.1708-3.1943-1.1474l-7.0032 3.3017q-2.1708 1.0234-1.1474 3.1943z" clip-path="url(#a)" fill="#fff" stroke="#fff"/>
<g clip-path="url(#a)">
<g transform="translate(481.66 584.88) rotate(64.758) scale(.08 -.08)">
<use xlink:href="#s"/>
</g>
</g>
<path d="m500.37 587.76 3.3281 4.3442q1.4596 1.9052 3.3647 0.4456l6.1461-4.7086q1.9052-1.4596 0.4456-3.3647l-3.3281-4.3442q-1.4596-1.9052-3.3647-0.4456l-6.1461 4.7086q-1.9052 1.4596-0.4456 3.3647z" clip-path="url(#a)" fill="#fff" stroke="#fff"/>
<g clip-path="url(#a)">
<g transform="translate(503.6 585.29) rotate(52.544) scale(.08 -.08)">
<use xlink:href="#p"/>
</g>
</g>
<path d="m424.83 720.02v35.285q0 2.4 2.4 2.4h7.7425q2.4 0 2.4-2.4v-35.285q0-2.4-2.4-2.4h-7.7425q-2.4 0-2.4 2.4z" clip-path="url(#a)" fill="#fff" stroke="#fff"/>
<g clip-path="url(#a)">
<g transform="translate(428.9 720.02) rotate(90) scale(.08 -.08)">
<use xlink:href="#k"/>
<use x="60.818359" xlink:href="#d"/>
<use x="122.341797" xlink:href="#i"/>
<use x="163.439453" xlink:href="#l"/>
<use x="260.851562" xlink:href="#h"/>
<use x="288.634766" xlink:href="#f"/>
<use x="352.013672" xlink:href="#j"/>
<use x="413.292969" xlink:href="#g"/>
</g>
</g>
<path d="m469.49 720.02v35.285q0 2.4 2.4 2.4h7.7425q2.4 0 2.4-2.4v-35.285q0-2.4-2.4-2.4h-7.7425q-2.4 0-2.4 2.4z" clip-path="url(#a)" fill="#fff" stroke="#fff"/>
<g clip-path="url(#a)">
<g transform="translate(473.55 720.02) rotate(90) scale(.08 -.08)">
<use xlink:href="#k"/>
<use x="60.818359" xlink:href="#d"/>
<use x="122.341797" xlink:href="#i"/>
<use x="163.439453" xlink:href="#l"/>
<use x="260.851562" xlink:href="#h"/>
<use x="288.634766" xlink:href="#f"/>
<use x="352.013672" xlink:href="#j"/>
<use x="413.292969" xlink:href="#g"/>
</g>
</g>
<path d="m514.14 720.02v35.285q0 2.4 2.4 2.4h7.7425q2.4 0 2.4-2.4v-35.285q0-2.4-2.4-2.4h-7.7425q-2.4 0-2.4 2.4z" clip-path="url(#a)" fill="#fff" stroke="#fff"/>
<g clip-path="url(#a)">
<g transform="translate(518.21 720.02) rotate(90) scale(.08 -.08)">
<use xlink:href="#k"/>
<use x="60.818359" xlink:href="#d"/>
<use x="122.341797" xlink:href="#i"/>
<use x="163.439453" xlink:href="#l"/>
<use x="260.851562" xlink:href="#h"/>
<use x="288.634766" xlink:href="#f"/>
<use x="352.013672" xlink:href="#j"/>
<use x="413.292969" xlink:href="#g"/>
</g>
</g>
<path d="m558.8 720.02v35.285q0 2.4 2.4 2.4h7.7425q2.4 0 2.4-2.4v-35.285q0-2.4-2.4-2.4h-7.7425q-2.4 0-2.4 2.4z" clip-path="url(#a)" fill="#fff" stroke="#fff"/>
<g clip-path="url(#a)">
<g transform="translate(562.86 720.02) rotate(90) scale(.08 -.08)">
<use xlink:href="#k"/>
<use x="60.818359" xlink:href="#d"/>
<use x="122.341797" xlink:href="#i"/>
<use x="163.439453" xlink:href="#l"/>
<use x="260.851562" xlink:href="#h"/>
<use x="288.634766" xlink:href="#f"/>
<use x="352.013672" xlink:href="#j"/>
<use x="413.292969" xlink:href="#g"/>
</g>
</g>
<path d="m290.87 720.02v35.285q0 2.4 2.4 2.4h7.7425q2.4 0 2.4-2.4v-35.285q0-2.4-2.4-2.4h-7.7425q-2.4 0-2.4 2.4z" clip-path="url(#a)" fill="#fff" stroke="#fff"/>
<g clip-path="url(#a)">
<g transform="translate(294.93 720.02) rotate(90) scale(.08 -.08)">
<use xlink:href="#k"/>
<use x="60.818359" xlink:href="#d"/>
<use x="122.341797" xlink:href="#i"/>
<use x="163.439453" xlink:href="#l"/>
<use x="260.851562" xlink:href="#h"/>
<use x="288.634766" xlink:href="#f"/>
<use x="352.013672" xlink:href="#j"/>
<use x="413.292969" xlink:href="#g"/>
</g>
</g>
<path d="m335.52 720.02v35.285q0 2.4 2.4 2.4h7.7425q2.4 0 2.4-2.4v-35.285q0-2.4-2.4-2.4h-7.7425q-2.4 0-2.4 2.4z" clip-path="url(#a)" fill="#fff" stroke="#fff"/>
<g clip-path="url(#a)">
<g transform="translate(339.59 720.02) rotate(90) scale(.08 -.08)">
<use xlink:href="#k"/>
<use x="60.818359" xlink:href="#d"/>
<use x="122.341797" xlink:href="#i"/>
<use x="163.439453" xlink:href="#l"/>
<use x="260.851562" xlink:href="#h"/>
<use x="288.634766" xlink:href="#f"/>
<use x="352.013672" xlink:href="#j"/>
<use x="413.292969" xlink:href="#g"/>
</g>
</g>
<path d="m380.18 720.02v35.285q0 2.4 2.4 2.4h7.7425q2.4 0 2.4-2.4v-35.285q0-2.4-2.4-2.4h-7.7425q-2.4 0-2.4 2.4z" clip-path="url(#a)" fill="#fff" stroke="#fff"/>
<g clip-path="url(#a)">
<g transform="translate(384.24 720.02) rotate(90) scale(.08 -.08)">
<use xlink:href="#k"/>
<use x="60.818359" xlink:href="#d"/>
<use x="122.341797" xlink:href="#i"/>
<use x="163.439453" xlink:href="#l"/>
<use x="260.851562" xlink:href="#h"/>
<use x="288.634766" xlink:href="#f"/>
<use x="352.013672" xlink:href="#j"/>
<use x="413.292969" xlink:href="#g"/>
</g>
</g>
<path d="m603.45 720.02v35.285q0 2.4 2.4 2.4h7.7425q2.4 0 2.4-2.4v-35.285q0-2.4-2.4-2.4h-7.7425q-2.4 0-2.4 2.4z" clip-path="url(#a)" fill="#fff" stroke="#fff"/>
<g clip-path="url(#a)">
<g transform="translate(607.51 720.02) rotate(90) scale(.08 -.08)">
<use xlink:href="#k"/>
<use x="60.818359" xlink:href="#d"/>
<use x="122.341797" xlink:href="#i"/>
<use x="163.439453" xlink:href="#l"/>
<use x="260.851562" xlink:href="#h"/>
<use x="288.634766" xlink:href="#f"/>
<use x="352.013672" xlink:href="#j"/>
<use x="413.292969" xlink:href="#g"/>
</g>
</g>
<path d="m826.72 720.02v35.285q0 2.4 2.4 2.4h7.7425q2.4 0 2.4-2.4v-35.285q0-2.4-2.4-2.4h-7.7425q-2.4 0-2.4 2.4z" clip-path="url(#a)" fill="#fff" stroke="#fff"/>
<g clip-path="url(#a)">
<g transform="translate(830.79 720.02) rotate(90) scale(.08 -.08)">
<use xlink:href="#k"/>
<use x="60.818359" xlink:href="#d"/>
<use x="122.341797" xlink:href="#i"/>
<use x="163.439453" xlink:href="#l"/>
<use x="260.851562" xlink:href="#h"/>
<use x="288.634766" xlink:href="#f"/>
<use x="352.013672" xlink:href="#j"/>
<use x="413.292969" xlink:href="#g"/>
</g>
</g>
<path d="m1362.6 720.02v35.285q0 2.4 2.4 2.4h7.7425q2.4 0 2.4-2.4v-35.285q0-2.4-2.4-2.4h-7.7425q-2.4 0-2.4 2.4z" clip-path="url(#a)" fill="#fff" stroke="#fff"/>
<g clip-path="url(#a)">
<g transform="translate(1366.6 720.02) rotate(90) scale(.08 -.08)">
<use xlink:href="#k"/>
<use x="60.818359" xlink:href="#d"/>
<use x="122.341797" xlink:href="#i"/>
<use x="163.439453" xlink:href="#l"/>
<use x="260.851562" xlink:href="#h"/>
<use x="288.634766" xlink:href="#f"/>
<use x="352.013672" xlink:href="#j"/>
<use x="413.292969" xlink:href="#g"/>
</g>
</g>
<path d="m1451.9 720.02v35.285q0 2.4 2.4 2.4h7.7425q2.4 0 2.4-2.4v-35.285q0-2.4-2.4-2.4h-7.7425q-2.4 0-2.4 2.4z" clip-path="url(#a)" fill="#fff" stroke="#fff"/>
<g clip-path="url(#a)">
<g transform="translate(1455.9 720.02) rotate(90) scale(.08 -.08)">
<use xlink:href="#k"/>
<use x="60.818359" xlink:href="#d"/>
<use x="122.341797" xlink:href="#i"/>
<use x="163.439453" xlink:href="#l"/>
<use x="260.851562" xlink:href="#h"/>
<use x="288.634766" xlink:href="#f"/>
<use x="352.013672" xlink:href="#j"/>
<use x="413.292969" xlink:href="#g"/>
</g>
</g>
<defs>
<path id="b" d="m0 8.6603c2.2967 0 4.4997-0.9125 6.1237-2.5365 1.624-1.624 2.5365-3.827 2.5365-6.1237s-0.9125-4.4997-2.5365-6.1237c-1.624-1.624-3.827-2.5365-6.1237-2.5365s-4.4997 0.9125-6.1237 2.5365c-1.624 1.624-2.5365 3.827-2.5365 6.1237s0.9125 4.4997 2.5365 6.1237c1.624 1.624 3.827 2.5365 6.1237 2.5365z"/>
</defs>
<g clip-path="url(#a)">
<use x="73.868703" y="813.438091" fill="#ffffff" stroke="#ffffff" xlink:href="#b"/>
</g>
<g clip-path="url(#a)">
<use x="118.523125" y="813.438091" fill="#ffffff" stroke="#ffffff" xlink:href="#b"/>
</g>
<g clip-path="url(#a)">
<use x="163.177547" y="813.438091" fill="#ffffff" stroke="#ffffff" xlink:href="#b"/>
</g>
<g clip-path="url(#a)">
<use x="207.831969" y="813.438091" fill="#ffffff" stroke="#ffffff" xlink:href="#b"/>
</g>
<g clip-path="url(#a)">
<use x="252.486391" y="813.438091" fill="#ffffff" stroke="#ffffff" xlink:href="#b"/>
</g>
<g clip-path="url(#a)">
<use x="297.140813" y="813.438091" fill="#ffffff" stroke="#ffffff" xlink:href="#b"/>
</g>
<g clip-path="url(#a)">
<use x="341.795235" y="813.438091" fill="#ffffff" stroke="#ffffff" xlink:href="#b"/>
</g>
<g clip-path="url(#a)">
<use x="386.449657" y="813.438091" fill="#ffffff" stroke="#ffffff" xlink:href="#b"/>
</g>
<g clip-path="url(#a)">
<use x="431.104079" y="813.438091" fill="#ffffff" stroke="#ffffff" xlink:href="#b"/>
</g>
<g clip-path="url(#a)">
<use x="475.758502" y="813.438091" fill="#ffffff" stroke="#ffffff" xlink:href="#b"/>
</g>
<g clip-path="url(#a)">
<use x="520.412924" y="813.438091" fill="#ffffff" stroke="#ffffff" xlink:href="#b"/>
</g>
<g clip-path="url(#a)">
<use x="565.067346" y="813.438091" fill="#ffffff" stroke="#ffffff" xlink:href="#b"/>
</g>
<g clip-path="url(#a)">
<use x="609.721768" y="813.438091" fill="#ffffff" stroke="#ffffff" xlink:href="#b"/>
</g>
<g clip-path="url(#a)">
<use x="654.37619" y="813.438091" fill="#ffffff" stroke="#ffffff" xlink:href="#b"/>
</g>
<g clip-path="url(#a)">
<use x="699.030612" y="813.438091" fill="#ffffff" stroke="#ffffff" xlink:href="#b"/>
</g>
<g clip-path="url(#a)">
<use x="743.685034" y="813.438091" fill="#ffffff" stroke="#ffffff" xlink:href="#b"/>
</g>
<g clip-path="url(#a)">
<use x="788.339456" y="813.438091" fill="#ffffff" stroke="#ffffff" xlink:href="#b"/>
</g>
<g clip-path="url(#a)">
<use x="832.993878" y="813.438091" fill="#ffffff" stroke="#ffffff" xlink:href="#b"/>
</g>
<g clip-path="url(#a)">
<use x="877.6483" y="813.438091" fill="#ffffff" stroke="#ffffff" xlink:href="#b"/>
</g>
<g clip-path="url(#a)">
<use x="922.302722" y="813.438091" fill="#ffffff" stroke="#ffffff" xlink:href="#b"/>
</g>
<g clip-path="url(#a)">
<use x="966.957144" y="813.438091" fill="#ffffff" stroke="#ffffff" xlink:href="#b"/>
</g>
<g clip-path="url(#a)">
<use x="1011.611566" y="813.438091" fill="#ffffff" stroke="#ffffff" xlink:href="#b"/>
</g>
<g clip-path="url(#a)">
<use x="1056.265988" y="813.438091" fill="#ffffff" stroke="#ffffff" xlink:href="#b"/>
</g>
<g clip-path="url(#a)">
<use x="1100.92041" y="813.438091" fill="#ffffff" stroke="#ffffff" xlink:href="#b"/>
</g>
<g clip-path="url(#a)">
<use x="1145.574832" y="813.438091" fill="#ffffff" stroke="#ffffff" xlink:href="#b"/>
</g>
<g clip-path="url(#a)">
<use x="1190.229254" y="813.438091" fill="#ffffff" stroke="#ffffff" xlink:href="#b"/>
</g>
<g clip-path="url(#a)">
<use x="1234.883676" y="813.438091" fill="#ffffff" stroke="#ffffff" xlink:href="#b"/>
</g>
<g clip-path="url(#a)">
<use x="1279.538098" y="813.438091" fill="#ffffff" stroke="#ffffff" xlink:href="#b"/>
</g>
<g clip-path="url(#a)">
<use x="1324.19252" y="813.438091" fill="#ffffff" stroke="#ffffff" xlink:href="#b"/>
</g>
<g clip-path="url(#a)">
<use x="1368.846942" y="813.438091" fill="#ffffff" stroke="#ffffff" xlink:href="#b"/>
</g>
<g clip-path="url(#a)">
<use x="1413.501364" y="813.438091" fill="#ffffff" stroke="#ffffff" xlink:href="#b"/>
</g>
<g clip-path="url(#a)">
<use x="1458.155786" y="813.438091" fill="#ffffff" stroke="#ffffff" xlink:href="#b"/>
</g>
<g clip-path="url(#a)">
<use x="669.912207" y="39.895242" fill="#ffffff" stroke="#ffffff" xlink:href="#b"/>
</g>
<g clip-path="url(#a)">
<use x="73.868703" y="661.891617" fill="#ffffff" stroke="#ffffff" xlink:href="#b"/>
</g>
<g clip-path="url(#a)">
<use x="209.32045" y="200.077102" fill="#ffffff" stroke="#ffffff" xlink:href="#b"/>
</g>
<g clip-path="url(#a)">
<use x="710.194217" y="200.077102" fill="#ffffff" stroke="#ffffff" xlink:href="#b"/>
</g>
<g clip-path="url(#a)">
<use x="877.6483" y="661.891617" fill="#ffffff" stroke="#ffffff" xlink:href="#b"/>
</g>
<g clip-path="url(#a)">
<use x="1078.593199" y="200.077102" fill="#ffffff" stroke="#ffffff" xlink:href="#b"/>
</g>
<g clip-path="url(#a)">
<use x="966.957144" y="661.891617" fill="#ffffff" stroke="#ffffff" xlink:href="#b"/>
</g>
<g clip-path="url(#a)">
<use x="922.302722" y="661.891617" fill="#ffffff" stroke="#ffffff" xlink:href="#b"/>
</g>
<g clip-path="url(#a)">
<use x="1011.611566" y="661.891617" fill="#ffffff" stroke="#ffffff" xlink:href="#b"/>
</g>
<g clip-path="url(#a)">
<use x="1056.265988" y="661.891617" fill="#ffffff" stroke="#ffffff" xlink:href="#b"/>
</g>
<g clip-path="url(#a)">
<use x="1100.92041" y="661.891617" fill="#ffffff" stroke="#ffffff" xlink:href="#b"/>
</g>
<g clip-path="url(#a)">
<use x="1301.865309" y="356.690491" fill="#ffffff" stroke="#ffffff" xlink:href="#b"/>
</g>
<g clip-path="url(#a)">
<use x="1547.46463" y="813.438091" fill="#ffffff" stroke="#ffffff" xlink:href="#b"/>
</g>
<g clip-path="url(#a)">
<use x="1145.574832" y="661.891617" fill="#ffffff" stroke="#ffffff" xlink:href="#b"/>
</g>
<g clip-path="url(#a)">
<use x="1190.229254" y="661.891617" fill="#ffffff" stroke="#ffffff" xlink:href="#b"/>
</g>
<g clip-path="url(#a)">
<use x="1234.883676" y="661.891617" fill="#ffffff" stroke="#ffffff" xlink:href="#b"/>
</g>
<g clip-path="url(#a)">
<use x="1391.174153" y="510.345143" fill="#ffffff" stroke="#ffffff" xlink:href="#b"/>
</g>
<g clip-path="url(#a)">
<use x="1502.810208" y="813.438091" fill="#ffffff" stroke="#ffffff" xlink:href="#b"/>
</g>
<g clip-path="url(#a)">
<use x="1279.538098" y="661.891617" fill="#ffffff" stroke="#ffffff" xlink:href="#b"/>
</g>
<g clip-path="url(#a)">
<use x="1324.19252" y="661.891617" fill="#ffffff" stroke="#ffffff" xlink:href="#b"/>
</g>
<g clip-path="url(#a)">
<use x="1413.501364" y="661.891617" fill="#ffffff" stroke="#ffffff" xlink:href="#b"/>
</g>
<g clip-path="url(#a)">
<use x="654.37619" y="661.891617" fill="#ffffff" stroke="#ffffff" xlink:href="#b"/>
</g>
<g clip-path="url(#a)">
<use x="699.030612" y="661.891617" fill="#ffffff" stroke="#ffffff" xlink:href="#b"/>
</g>
<g clip-path="url(#a)">
<use x="777.17585" y="356.690491" fill="#ffffff" stroke="#ffffff" xlink:href="#b"/>
</g>
<g clip-path="url(#a)">
<use x="766.012245" y="510.345143" fill="#ffffff" stroke="#ffffff" xlink:href="#b"/>
</g>
<g clip-path="url(#a)">
<use x="788.339456" y="661.891617" fill="#ffffff" stroke="#ffffff" xlink:href="#b"/>
</g>
<g clip-path="url(#a)">
<use x="743.685034" y="661.891617" fill="#ffffff" stroke="#ffffff" xlink:href="#b"/>
</g>
<g clip-path="url(#a)">
<use x="118.523125" y="661.891617" fill="#ffffff" stroke="#ffffff" xlink:href="#b"/>
</g>
<g clip-path="url(#a)">
<use x="163.177547" y="661.891617" fill="#ffffff" stroke="#ffffff" xlink:href="#b"/>
</g>
<g clip-path="url(#a)">
<use x="207.831969" y="661.891617" fill="#ffffff" stroke="#ffffff" xlink:href="#b"/>
</g>
<g clip-path="url(#a)">
<use x="347.749158" y="356.690491" fill="#ffffff" stroke="#ffffff" xlink:href="#b"/>
</g>
<g clip-path="url(#a)">
<use x="252.486391" y="661.891617" fill="#ffffff" stroke="#ffffff" xlink:href="#b"/>
</g>
<g clip-path="url(#a)">
<use x="341.795235" y="510.345143" fill="#ffffff" stroke="#ffffff" xlink:href="#b"/>
</g>
<g clip-path="url(#a)">
<use x="448.965848" y="510.345143" fill="#ffffff" stroke="#ffffff" xlink:href="#b"/>
</g>
<g clip-path="url(#a)">
<use x="431.104079" y="661.891617" fill="#ffffff" stroke="#ffffff" xlink:href="#b"/>
</g>
<g clip-path="url(#a)">
<use x="475.758502" y="661.891617" fill="#ffffff" stroke="#ffffff" xlink:href="#b"/>
</g>
<g clip-path="url(#a)">
<use x="520.412924" y="661.891617" fill="#ffffff" stroke="#ffffff" xlink:href="#b"/>
</g>
<g clip-path="url(#a)">
<use x="565.067346" y="661.891617" fill="#ffffff" stroke="#ffffff" xlink:href="#b"/>
</g>
<g clip-path="url(#a)">
<use x="297.140813" y="661.891617" fill="#ffffff" stroke="#ffffff" xlink:href="#b"/>
</g>
<g clip-path="url(#a)">
<use x="341.795235" y="661.891617" fill="#ffffff" stroke="#ffffff" xlink:href="#b"/>
</g>
<g clip-path="url(#a)">
<use x="386.449657" y="661.891617" fill="#ffffff" stroke="#ffffff" xlink:href="#b"/>
</g>
<g clip-path="url(#a)">
<use x="609.721768" y="661.891617" fill="#ffffff" stroke="#ffffff" xlink:href="#b"/>
</g>
<g clip-path="url(#a)">
<use x="832.993878" y="661.891617" fill="#ffffff" stroke="#ffffff" xlink:href="#b"/>
</g>
<g clip-path="url(#a)">
<use x="1368.846942" y="661.891617" fill="#ffffff" stroke="#ffffff" xlink:href="#b"/>
</g>
<g clip-path="url(#a)">
<use x="1458.155786" y="661.891617" fill="#ffffff" stroke="#ffffff" xlink:href="#b"/>
</g>
<g clip-path="url(#a)">
<defs>
<path id="ax" d="m3.3281 72.906h9.9531l15.328-61.625 15.281 61.625h11.094l15.328-61.625 15.281 61.625h10.016l-18.312-72.906h-12.406l-15.375 63.281-15.531-63.281h-12.406z"/>
<path id="x" d="m54.891 33.016v-33.016h-8.9844v32.719q0 7.7656-3.0312 11.609-3.0312 3.8594-9.0781 3.8594-7.2812 0-11.484-4.6406-4.2031-4.625-4.2031-12.641v-30.906h-9.0312v75.984h9.0312v-29.797q3.2344 4.9375 7.5938 7.375 4.375 2.4375 10.094 2.4375 9.4219 0 14.25-5.8281 4.8438-5.8281 4.8438-17.156z"/>
</defs>
<g transform="translate(59.511 816.2) scale(.1 -.1)">
<use xlink:href="#ax"/>
<use x="98.876953" xlink:href="#x"/>
<use x="162.255859" xlink:href="#d"/>
<use x="223.779297" xlink:href="#f"/>
</g>
</g>
<g clip-path="url(#a)">
<defs>
<path id="t" d="m9.8125 72.906h9.8594v-72.906h-9.8594z"/>
</defs>
<g transform="translate(117.05 816.2) scale(.1 -.1)">
<use xlink:href="#t"/>
</g>
</g>
<g clip-path="url(#a)">
<defs>
<path id="av" d="m37.109 75.984v-7.4844h-8.5938q-4.8281 0-6.7188-1.9531-1.875-1.9531-1.875-7.0312v-4.8281h14.797v-6.9844h-14.797v-47.703h-9.0312v47.703h-8.5938v6.9844h8.5938v3.8125q0 9.125 4.25 13.297 4.25 4.1875 13.469 4.1875z"/>
<path id="as" d="m32.172-5.0781q-3.7969-9.7656-7.4219-12.734-3.6094-2.9844-9.6562-2.9844h-7.1875v7.5156h5.2812q3.7031 0 5.75 1.7656 2.0625 1.75 4.5469 8.2969l1.6094 4.0938-22.109 53.812h9.5156l17.094-42.766 17.094 42.766h9.5156z"/>
</defs>
<g transform="translate(148.06 816.2) scale(.1 -.1)">
<use xlink:href="#av"/>
<use x="35.205078" xlink:href="#h"/>
<use x="62.988281" xlink:href="#f"/>
<use x="126.367188" xlink:href="#j"/>
<use x="187.646484" xlink:href="#g"/>
<use x="215.429688" xlink:href="#g"/>
<use x="243.212891" xlink:href="#as"/>
</g>
</g>
<g clip-path="url(#a)">
<defs>
<path id="q" d="m30.609 48.391q-7.2188 0-11.422-5.6406t-4.2031-15.453 4.1719-15.453q4.1875-5.6406 11.453-5.6406 7.1875 0 11.375 5.6562 4.2031 5.6719 4.2031 15.438 0 9.7188-4.2031 15.406-4.1875 5.6875-11.375 5.6875zm0 7.6094q11.719 0 18.406-7.625 6.7031-7.6094 6.7031-21.078 0-13.422-6.7031-21.078-6.6875-7.6406-18.406-7.6406-11.766 0-18.438 7.6406-6.6562 7.6562-6.6562 21.078 0 13.469 6.6562 21.078 6.6719 7.625 18.438 7.625z"/>
<path id="ac" d="m8.5 21.578v33.109h8.9844v-32.766q0-7.7656 3.0156-11.656 3.0312-3.875 9.0938-3.875 7.2656 0 11.484 4.6406 4.2344 4.6406 4.2344 12.656v31h8.9844v-54.688h-8.9844v8.4062q-3.2656-4.9844-7.5938-7.4062-4.3125-2.4219-10.031-2.4219-9.4219 0-14.312 5.8594-4.875 5.8594-4.875 17.141z"/>
<path id="r" d="m45.406 46.391v29.594h8.9844v-75.984h-8.9844v8.2031q-2.8281-4.875-7.1562-7.25-4.3125-2.375-10.375-2.375-9.9062 0-16.141 7.9062-6.2188 7.9219-6.2188 20.812t6.2188 20.797q6.2344 7.9062 16.141 7.9062 6.0625 0 10.375-2.375 4.3281-2.3594 7.1562-7.2344zm-30.609-19.094q0-9.9062 4.0781-15.547t11.203-5.6406 11.219 5.6406q4.1094 5.6406 4.1094 15.547t-4.1094 15.547q-4.0938 5.6406-11.219 5.6406t-11.203-5.6406-4.0781-15.547z"/>
</defs>
<g transform="translate(193.5 816.2) scale(.1 -.1)">
<use xlink:href="#av"/>
<use x="35.205078" xlink:href="#q"/>
<use x="96.386719" xlink:href="#ac"/>
<use x="159.765625" xlink:href="#f"/>
<use x="223.144531" xlink:href="#r"/>
</g>
</g>
<g clip-path="url(#a)">
<defs>
<path id="w" d="m44.281 53.078v-8.5q-3.7969 1.9531-7.9062 2.9219-4.0938 0.98438-8.5 0.98438-6.6875 0-10.031-2.0469t-3.3438-6.1562q0-3.125 2.3906-4.9062t9.625-3.3906l3.0781-0.6875q9.5625-2.0469 13.594-5.7812t4.0312-10.422q0-7.625-6.0312-12.078-6.0312-4.4375-16.578-4.4375-4.3906 0-9.1562 0.85938t-10.031 2.5625v9.2812q4.9844-2.5938 9.8125-3.8906 4.8281-1.2812 9.5781-1.2812 6.3438 0 9.75 2.1719 3.4219 2.1719 3.4219 6.125 0 3.6562-2.4688 5.6094-2.4531 1.9531-10.812 3.7656l-3.125 0.73438q-8.3438 1.75-12.062 5.3906-3.7031 3.6406-3.7031 9.9844 0 7.7188 5.4688 11.906 5.4688 4.2031 15.531 4.2031 4.9688 0 9.3594-0.73438 4.4062-0.71875 8.1094-2.1875z"/>
</defs>
<g transform="translate(229.57 816.2) scale(.1 -.1)">
<use xlink:href="#w"/>
<use x="52.099609" xlink:href="#q"/>
<use x="113.28125" xlink:href="#l"/>
<use x="210.693359" xlink:href="#d"/>
<use x="272.216797" xlink:href="#q"/>
<use x="333.398438" xlink:href="#f"/>
<use x="396.777344" xlink:href="#d"/>
</g>
</g>
<g clip-path="url(#a)">
<defs>
<path id="v" d="m18.312 70.219v-15.531h18.5v-6.9844h-18.5v-29.688q0-6.6875 1.8281-8.5938t7.4531-1.9062h9.2188v-7.5156h-9.2188q-10.406 0-14.359 3.875-3.9531 3.8906-3.9531 14.141v29.688h-6.5938v6.9844h6.5938v15.531z"/>
</defs>
<g transform="translate(292.12 816.2) scale(.1 -.1)">
<use xlink:href="#j"/>
<use x="61.279297" xlink:href="#v"/>
</g>
</g>
<g clip-path="url(#a)">
<g transform="translate(333.59 816.2) scale(.1 -.1)">
<use xlink:href="#v"/>
<use x="39.208984" xlink:href="#x"/>
<use x="102.587891" xlink:href="#d"/>
</g>
</g>
<g clip-path="url(#a)">
<defs>
<path id="at" d="m9.0781 75.984h9.0312v-44.875l26.812 23.578h11.469l-29-25.578 30.234-29.109h-11.719l-27.797 26.703v-26.703h-9.0312z"/>
</defs>
<g transform="translate(374.7 816.2) scale(.1 -.1)">
<use xlink:href="#r"/>
<use x="63.476562" xlink:href="#d"/>
<use x="125" xlink:href="#w"/>
<use x="177.099609" xlink:href="#at"/>
</g>
</g>
<g clip-path="url(#a)">
<defs>
<path id="ak" d="m4.2031 54.688h8.9844l11.234-42.672 11.172 42.672h10.594l11.234-42.672 11.188 42.672h8.9844l-14.312-54.688h-10.594l-11.766 44.828-11.812-44.828h-10.609z"/>
</defs>
<g transform="translate(420.79 816.2) scale(.1 -.1)">
<use xlink:href="#ak"/>
<use x="81.787109" xlink:href="#x"/>
<use x="145.166016" xlink:href="#q"/>
</g>
</g>
<g clip-path="url(#a)">
<defs>
<path id="am" d="m48.781 52.594v-8.4062q-3.8125 2.1094-7.6406 3.1562t-7.7344 1.0469q-8.75 0-13.594-5.5469-4.8281-5.5312-4.8281-15.547t4.8281-15.562q4.8438-5.5312 13.594-5.5312 3.9062 0 7.7344 1.0469t7.6406 3.1562v-8.3125q-3.7656-1.75-7.7969-2.625-4.0156-0.89062-8.5625-0.89062-12.359 0-19.641 7.7656-7.2656 7.7656-7.2656 20.953 0 13.375 7.3438 21.031 7.3594 7.6719 20.156 7.6719 4.1406 0 8.0938-0.85938 3.9531-0.84375 7.6719-2.5469z"/>
</defs>
<g transform="translate(462.22 816.2) scale(.1 -.1)">
<use xlink:href="#am"/>
<use x="54.980469" xlink:href="#q"/>
<use x="116.162109" xlink:href="#ac"/>
<use x="179.541016" xlink:href="#g"/>
<use x="207.324219" xlink:href="#r"/>
</g>
</g>
<g clip-path="url(#a)">
<defs>
<path id="ba" d="m18.109 8.2031v-29h-9.0312v75.484h9.0312v-8.2969q2.8438 4.875 7.1562 7.2344 4.3281 2.375 10.328 2.375 9.9688 0 16.188-7.9062 6.2344-7.9062 6.2344-20.797t-6.2344-20.812q-6.2188-7.9062-16.188-7.9062-6 0-10.328 2.375-4.3125 2.375-7.1562 7.25zm30.578 19.094q0 9.9062-4.0781 15.547t-11.203 5.6406q-7.1406 0-11.219-5.6406t-4.0781-15.547 4.0781-15.547 11.219-5.6406q7.125 0 11.203 5.6406t4.0781 15.547z"/>
</defs>
<g transform="translate(505.6 816.2) scale(.1 -.1)">
<use xlink:href="#w"/>
<use x="52.099609" xlink:href="#ba"/>
<use x="115.576172" xlink:href="#d"/>
<use x="177.099609" xlink:href="#j"/>
<use x="238.378906" xlink:href="#at"/>
</g>
</g>
<g clip-path="url(#a)">
<defs>
<path id="au" d="m45.406 27.984q0 9.7656-4.0312 15.125-4.0156 5.375-11.297 5.375-7.2188 0-11.25-5.375-4.0312-5.3594-4.0312-15.125 0-9.7188 4.0312-15.094t11.25-5.375q7.2812 0 11.297 5.375 4.0312 5.375 4.0312 15.094zm8.9844-21.203q0-13.953-6.2031-20.766-6.1875-6.8125-18.984-6.8125-4.7344 0-8.9375 0.70312t-8.1562 2.1719v8.7344q3.9531-2.1406 7.8125-3.1562 3.8594-1.0312 7.8594-1.0312 8.8438 0 13.234 4.6094t4.3906 13.938v4.4531q-2.7812-4.8438-7.125-7.2344t-10.406-2.3906q-10.047 0-16.203 7.6562-6.1562 7.6719-6.1562 20.328 0 12.688 6.1562 20.344 6.1562 7.6719 16.203 7.6719 6.0625 0 10.406-2.3906t7.125-7.2188v8.2969h8.9844z"/>
</defs>
<g transform="translate(547.01 816.2) scale(.1 -.1)">
<use xlink:href="#u"/>
<use x="63.183594" xlink:href="#f"/>
<use x="126.5625" xlink:href="#au"/>
<use x="190.039062" xlink:href="#g"/>
<use x="217.822266" xlink:href="#h"/>
<use x="245.605469" xlink:href="#w"/>
<use x="297.705078" xlink:href="#x"/>
</g>
</g>
<g clip-path="url(#a)">
<defs>
<path id="aq" d="m11.719 12.406h10.297v-8.4062l-8-15.625h-6.2969l4 15.625z"/>
</defs>
<g transform="translate(608.13 816.2) scale(.1 -.1)">
<use xlink:href="#aq"/>
</g>
</g>
<g clip-path="url(#a)">
<g transform="translate(643.21 816.2) scale(.1 -.1)">
<use xlink:href="#v"/>
<use x="39.208984" xlink:href="#x"/>
<use x="102.587891" xlink:href="#d"/>
<use x="164.111328" xlink:href="#as"/>
</g>
</g>
<g clip-path="url(#a)">
<defs>
<path id="al" d="m2.9844 54.688h9.5156l17.094-45.891 17.094 45.891h9.5156l-20.516-54.688h-12.203z"/>
</defs>
<g transform="translate(681.89 816.2) scale(.1 -.1)">
<use xlink:href="#l"/>
<use x="97.412109" xlink:href="#q"/>
<use x="158.59375" xlink:href="#al"/>
<use x="217.773438" xlink:href="#d"/>
<use x="279.296875" xlink:href="#r"/>
</g>
</g>
<g clip-path="url(#a)">
<g transform="translate(735.4 816.2) scale(.1 -.1)">
<use xlink:href="#q"/>
<use x="61.181641" xlink:href="#ac"/>
<use x="124.560547" xlink:href="#i"/>
</g>
</g>
<g clip-path="url(#a)">
<g transform="translate(775.3 816.2) scale(.1 -.1)">
<use xlink:href="#i"/>
<use x="41.082031" xlink:href="#q"/>
<use x="102.263672" xlink:href="#q"/>
<use x="163.445312" xlink:href="#l"/>
</g>
</g>
<g clip-path="url(#a)">
<g transform="translate(831.4 816.2) scale(.1 -.1)">
<use xlink:href="#aq"/>
</g>
</g>
<g clip-path="url(#a)">
<defs>
<path id="aw" d="m48.688 27.297q0 9.9062-4.0781 15.547t-11.203 5.6406q-7.1406 0-11.219-5.6406t-4.0781-15.547 4.0781-15.547 11.219-5.6406q7.125 0 11.203 5.6406t4.0781 15.547zm-30.578 19.094q2.8438 4.875 7.1562 7.2344 4.3281 2.375 10.328 2.375 9.9688 0 16.188-7.9062 6.2344-7.9062 6.2344-20.797t-6.2344-20.812q-6.2188-7.9062-16.188-7.9062-6 0-10.328 2.375-4.3125 2.375-7.1562 7.25v-8.2031h-9.0312v75.984h9.0312z"/>
</defs>
<g transform="translate(869.35 816.2) scale(.1 -.1)">
<use xlink:href="#aw"/>
<use x="63.476562" xlink:href="#ac"/>
<use x="126.855469" xlink:href="#v"/>
</g>
</g>
<g clip-path="url(#a)">
<g transform="translate(915.14 816.2) scale(.1 -.1)">
<use xlink:href="#ak"/>
<use x="81.787109" xlink:href="#d"/>
</g>
</g>
<g clip-path="url(#a)">
<g transform="translate(958.23 816.2) scale(.1 -.1)">
<use xlink:href="#w"/>
<use x="52.099609" xlink:href="#v"/>
<use x="91.308594" xlink:href="#h"/>
<use x="119.091797" xlink:href="#g"/>
<use x="146.875" xlink:href="#g"/>
</g>
</g>
<g clip-path="url(#a)">
<g transform="translate(1003.9 816.2) scale(.1 -.1)">
<use xlink:href="#r"/>
<use x="63.476562" xlink:href="#h"/>
<use x="91.259766" xlink:href="#r"/>
</g>
</g>
<g clip-path="url(#a)">
<g transform="translate(1048.1 816.2) scale(.1 -.1)">
<use xlink:href="#f"/>
<use x="63.378906" xlink:href="#q"/>
<use x="124.560547" xlink:href="#v"/>
</g>
</g>
<g clip-path="url(#a)">
<g transform="translate(1082.5 816.2) scale(.1 -.1)">
<use xlink:href="#i"/>
<use x="41.082031" xlink:href="#d"/>
<use x="102.605469" xlink:href="#am"/>
<use x="157.585938" xlink:href="#d"/>
<use x="219.109375" xlink:href="#h"/>
<use x="246.892578" xlink:href="#al"/>
<use x="306.072266" xlink:href="#d"/>
</g>
</g>
<g clip-path="url(#a)">
<g transform="translate(1137.4 816.2) scale(.1 -.1)">
<use xlink:href="#v"/>
<use x="39.208984" xlink:href="#x"/>
<use x="102.587891" xlink:href="#d"/>
</g>
</g>
<g clip-path="url(#a)">
<g transform="translate(1175.4 816.2) scale(.1 -.1)">
<use xlink:href="#w"/>
<use x="52.099609" xlink:href="#h"/>
<use x="79.882812" xlink:href="#f"/>
<use x="143.261719" xlink:href="#au"/>
<use x="206.738281" xlink:href="#g"/>
<use x="234.521484" xlink:href="#d"/>
</g>
</g>
<g clip-path="url(#a)">
<defs>
<path id="az" d="m14.797 27.297q0-9.9062 4.0781-15.547t11.203-5.6406 11.219 5.6406q4.1094 5.6406 4.1094 15.547t-4.1094 15.547q-4.0938 5.6406-11.219 5.6406t-11.203-5.6406-4.0781-15.547zm30.609-19.094q-2.8281-4.875-7.1562-7.25-4.3125-2.375-10.375-2.375-9.9062 0-16.141 7.9062-6.2188 7.9219-6.2188 20.812t6.2188 20.797q6.2344 7.9062 16.141 7.9062 6.0625 0 10.375-2.375 4.3281-2.3594 7.1562-7.2344v8.2969h8.9844v-75.484h-8.9844z"/>
</defs>
<g transform="translate(1219.2 816.2) scale(.1 -.1)">
<use xlink:href="#az"/>
<use x="63.476562" xlink:href="#ac"/>
<use x="126.855469" xlink:href="#d"/>
<use x="188.378906" xlink:href="#d"/>
<use x="249.902344" xlink:href="#f"/>
</g>
</g>
<g clip-path="url(#a)">
<g transform="translate(1272.4 816.2) scale(.1 -.1)">
<use xlink:href="#ak"/>
<use x="81.787109" xlink:href="#d"/>
</g>
</g>
<g clip-path="url(#a)">
<g transform="translate(1314.8 816.2) scale(.1 -.1)">
<use xlink:href="#x"/>
<use x="63.378906" xlink:href="#j"/>
<use x="124.658203" xlink:href="#r"/>
</g>
</g>
<g clip-path="url(#a)">
<defs>
<path id="ar" d="m17.922 72.906v-27.109h-8.2969v27.109zm18.453 0v-27.109h-8.2969v27.109z"/>
</defs>
<g transform="translate(1366.5 816.2) scale(.1 -.1)">
<use xlink:href="#ar"/>
</g>
</g>
<g clip-path="url(#a)">
<g transform="translate(1391.4 816.2) scale(.1 -.1)">
<use xlink:href="#i"/>
<use x="41.082031" xlink:href="#d"/>
<use x="102.605469" xlink:href="#w"/>
<use x="154.705078" xlink:href="#d"/>
<use x="216.228516" xlink:href="#i"/>
<use x="257.341797" xlink:href="#al"/>
<use x="316.521484" xlink:href="#d"/>
<use x="378.044922" xlink:href="#r"/>
</g>
</g>
<g clip-path="url(#a)">
<g transform="translate(1455.9 816.2) scale(.1 -.1)">
<use xlink:href="#ar"/>
</g>
</g>
<g clip-path="url(#a)">
<defs>
<path id="c" d="m12.406 8.2969h16.109v55.625l-17.531-3.5156v8.9844l17.438 3.5156h9.8594v-64.609h16.109v-8.2969h-41.984z"/>
<path id="e" d="m10.688 12.406h10.312v-12.406h-10.312z"/>
</defs>
<g transform="translate(661.96 42.655) scale(.1 -.1)">
<use xlink:href="#c"/>
<use x="63.623047" xlink:href="#e"/>
<use x="95.410156" xlink:href="#c"/>
</g>
</g>
<g clip-path="url(#a)">
<defs>
<path id="o" d="m19.188 8.2969h34.422v-8.2969h-46.281v8.2969q5.6094 5.8125 15.297 15.594 9.7031 9.7969 12.188 12.641 4.7344 5.3125 6.6094 9 1.8906 3.6875 1.8906 7.25 0 5.8125-4.0781 9.4688-4.0781 3.6719-10.625 3.6719-4.6406 0-9.7969-1.6094-5.1406-1.6094-11-4.8906v9.9688q5.9531 2.3906 11.125 3.6094 5.1875 1.2188 9.4844 1.2188 11.328 0 18.062-5.6719 6.7344-5.6562 6.7344-15.125 0-4.5-1.6875-8.5312-1.6719-4.0156-6.125-9.4844-1.2188-1.4219-7.7656-8.1875-6.5312-6.7656-18.453-18.922z"/>
</defs>
<g transform="translate(65.917 664.65) scale(.1 -.1)">
<use xlink:href="#c"/>
<use x="63.623047" xlink:href="#e"/>
<use x="95.410156" xlink:href="#o"/>
</g>
</g>
<g clip-path="url(#a)">
<defs>
<path id="m" d="m40.578 39.312q7.0781-1.5156 11.047-6.3125 3.9844-4.7812 3.9844-11.812 0-10.781-7.4219-16.703-7.4219-5.9062-21.094-5.9062-4.5781 0-9.4375 0.90625t-10.031 2.7188v9.5156q4.0938-2.3906 8.9688-3.6094 4.8906-1.2188 10.219-1.2188 9.2656 0 14.125 3.6562t4.8594 10.641q0 6.4531-4.5156 10.078-4.5156 3.6406-12.562 3.6406h-8.5v8.1094h8.8906q7.2656 0 11.125 2.9062t3.8594 8.375q0 5.6094-3.9844 8.6094-3.9688 3.0156-11.391 3.0156-4.0625 0-8.7031-0.89062-4.6406-0.875-10.203-2.7188v8.7812q5.625 1.5625 10.531 2.3438t9.25 0.78125q11.234 0 17.766-5.1094 6.5469-5.0938 6.5469-13.781 0-6.0625-3.4688-10.234t-9.8594-5.7812z"/>
</defs>
<g transform="translate(201.37 202.84) scale(.1 -.1)">
<use xlink:href="#c"/>
<use x="63.623047" xlink:href="#e"/>
<use x="95.410156" xlink:href="#m"/>
</g>
</g>
<g clip-path="url(#a)">
<defs>
<path id="n" d="m37.797 64.312-24.906-38.922h24.906zm-2.5938 8.5938h12.406v-47.516h10.406v-8.2031h-10.406v-17.188h-9.8125v17.188h-32.906v9.5156z"/>
</defs>
<g transform="translate(702.24 202.84) scale(.1 -.1)">
<use xlink:href="#c"/>
<use x="63.623047" xlink:href="#e"/>
<use x="95.410156" xlink:href="#n"/>
</g>
</g>
<g clip-path="url(#a)">
<defs>
<path id="ai" d="m10.797 72.906h38.719v-8.3125h-29.688v-17.859q2.1406 0.73438 4.2812 1.0938 2.1562 0.35938 4.3125 0.35938 12.203 0 19.328-6.6875 7.1406-6.6875 7.1406-18.109 0-11.766-7.3281-18.297-7.3281-6.5156-20.656-6.5156-4.5938 0-9.3594 0.78125-4.75 0.78125-9.8281 2.3438v9.9219q4.3906-2.3906 9.0781-3.5625t9.9062-1.1719q8.4531 0 13.375 4.4375 4.9375 4.4375 4.9375 12.062 0 7.6094-4.9375 12.047-4.9219 4.4531-13.375 4.4531-3.9531 0-7.8906-0.875-3.9219-0.875-8.0156-2.7344z"/>
</defs>
<g transform="translate(869.7 664.65) scale(.1 -.1)">
<use xlink:href="#c"/>
<use x="63.623047" xlink:href="#e"/>
<use x="95.410156" xlink:href="#ai"/>
</g>
</g>
<g clip-path="url(#a)">
<defs>
<path id="ab" d="m33.016 40.375q-6.6406 0-10.531-4.5469-3.875-4.5312-3.875-12.438 0-7.8594 3.875-12.438 3.8906-4.5625 10.531-4.5625t10.516 4.5625q3.875 4.5781 3.875 12.438 0 7.9062-3.875 12.438-3.875 4.5469-10.516 4.5469zm19.578 30.922v-8.9844q-3.7188 1.75-7.5 2.6719-3.7812 0.9375-7.5 0.9375-9.7656 0-14.922-6.5938-5.1406-6.5938-5.875-19.922 2.875 4.25 7.2188 6.5156 4.3594 2.2656 9.5781 2.2656 10.984 0 17.359-6.6719 6.375-6.6562 6.375-18.125 0-11.234-6.6406-18.031-6.6406-6.7812-17.672-6.7812-12.656 0-19.344 9.6875-6.6875 9.7031-6.6875 28.109 0 17.281 8.2031 27.562t22.016 10.281q3.7188 0 7.5-0.73438t7.8906-2.1875z"/>
</defs>
<g transform="translate(1070.6 202.84) scale(.1 -.1)">
<use xlink:href="#c"/>
<use x="63.623047" xlink:href="#e"/>
<use x="95.410156" xlink:href="#ab"/>
</g>
</g>
<g clip-path="url(#a)">
<defs>
<path id="aa" d="m8.2031 72.906h46.875v-4.2031l-26.469-68.703h-10.297l24.906 64.594h-35.016z"/>
</defs>
<g transform="translate(959.01 664.65) scale(.1 -.1)">
<use xlink:href="#c"/>
<use x="63.623047" xlink:href="#e"/>
<use x="95.410156" xlink:href="#aa"/>
</g>
</g>
<g clip-path="url(#a)">
<defs>
<path id="aj" d="m31.781 66.406q-7.6094 0-11.453-7.5-3.8281-7.4844-3.8281-22.531 0-14.984 3.8281-22.484 3.8438-7.5 11.453-7.5 7.6719 0 11.5 7.5 3.8438 7.5 3.8438 22.484 0 15.047-3.8438 22.531-3.8281 7.5-11.5 7.5zm0 7.8125q12.266 0 18.734-9.7031 6.4688-9.6875 6.4688-28.141 0-18.406-6.4688-28.109-6.4688-9.6875-18.734-9.6875-12.25 0-18.719 9.6875-6.4688 9.7031-6.4688 28.109 0 18.453 6.4688 28.141 6.4688 9.7031 18.719 9.7031z"/>
</defs>
<g transform="translate(911.17 664.65) scale(.1 -.1)">
<use xlink:href="#c"/>
<use x="63.623047" xlink:href="#e"/>
<use x="95.410156" xlink:href="#c"/>
<use x="159.033203" xlink:href="#aj"/>
</g>
</g>
<g clip-path="url(#a)">
<g transform="translate(1000.5 664.65) scale(.1 -.1)">
<use xlink:href="#c"/>
<use x="63.623047" xlink:href="#e"/>
<use x="95.410156" xlink:href="#c"/>
<use x="159.033203" xlink:href="#c"/>
</g>
</g>
<g clip-path="url(#a)">
<g transform="translate(1045.1 664.65) scale(.1 -.1)">
<use xlink:href="#c"/>
<use x="63.623047" xlink:href="#e"/>
<use x="95.410156" xlink:href="#c"/>
<use x="159.033203" xlink:href="#o"/>
</g>
</g>
<g clip-path="url(#a)">
<g transform="translate(1089.8 664.65) scale(.1 -.1)">
<use xlink:href="#c"/>
<use x="63.623047" xlink:href="#e"/>
<use x="95.410156" xlink:href="#c"/>
<use x="159.033203" xlink:href="#m"/>
</g>
</g>
<g clip-path="url(#a)">
<g transform="translate(1290.7 359.45) scale(.1 -.1)">
<use xlink:href="#c"/>
<use x="63.623047" xlink:href="#e"/>
<use x="95.410156" xlink:href="#c"/>
<use x="159.033203" xlink:href="#n"/>
</g>
</g>
<g clip-path="url(#a)">
<defs>
<path id="ao" d="m9.8125 72.906h14.703l18.594-49.609 18.703 49.609h14.703v-72.906h-9.625v64.016l-18.797-50h-9.9062l-18.797 50v-64.016h-9.5781z"/>
</defs>
<g transform="translate(1526.4 816.2) scale(.1 -.1)">
<use xlink:href="#t"/>
<use x="29.492188" xlink:href="#ao"/>
<use x="115.771484" xlink:href="#s"/>
<use x="176.074219" xlink:href="#z"/>
<use x="231.787109" xlink:href="#t"/>
<use x="261.279297" xlink:href="#y"/>
<use x="331.103516" xlink:href="#t"/>
<use x="360.595703" xlink:href="#k"/>
</g>
</g>
<g clip-path="url(#a)">
<g transform="translate(1134.4 664.65) scale(.1 -.1)">
<use xlink:href="#c"/>
<use x="63.623047" xlink:href="#e"/>
<use x="95.410156" xlink:href="#c"/>
<use x="159.033203" xlink:href="#ab"/>
</g>
</g>
<g clip-path="url(#a)">
<g transform="translate(1179.1 664.65) scale(.1 -.1)">
<use xlink:href="#c"/>
<use x="63.623047" xlink:href="#e"/>
<use x="95.410156" xlink:href="#c"/>
<use x="159.033203" xlink:href="#aa"/>
</g>
</g>
<g clip-path="url(#a)">
<defs>
<path id="ag" d="m31.781 34.625q-7.0312 0-11.062-3.7656-4.0156-3.7656-4.0156-10.344 0-6.5938 4.0156-10.359 4.0312-3.7656 11.062-3.7656t11.078 3.7812q4.0625 3.7969 4.0625 10.344 0 6.5781-4.0312 10.344-4.0156 3.7656-11.109 3.7656zm-9.8594 4.1875q-6.3438 1.5625-9.8906 5.9062-3.5312 4.3594-3.5312 10.609 0 8.7344 6.2188 13.812 6.2344 5.0781 17.062 5.0781 10.891 0 17.094-5.0781t6.2031-13.812q0-6.25-3.5469-10.609-3.5312-4.3438-9.8281-5.9062 7.125-1.6562 11.094-6.5 3.9844-4.8281 3.9844-11.797 0-10.609-6.4688-16.281-6.4688-5.6562-18.531-5.6562-12.047 0-18.531 5.6562-6.4688 5.6719-6.4688 16.281 0 6.9688 4 11.797 4.0156 4.8438 11.141 6.5zm-3.6094 15.578q0-5.6562 3.5312-8.8281 3.5469-3.1719 9.9375-3.1719 6.3594 0 9.9375 3.1719 3.5938 3.1719 3.5938 8.8281 0 5.6719-3.5938 8.8438-3.5781 3.1719-9.9375 3.1719-6.3906 0-9.9375-3.1719-3.5312-3.1719-3.5312-8.8438z"/>
</defs>
<g transform="translate(1223.8 664.65) scale(.1 -.1)">
<use xlink:href="#c"/>
<use x="63.623047" xlink:href="#e"/>
<use x="95.410156" xlink:href="#c"/>
<use x="159.033203" xlink:href="#ag"/>
</g>
</g>
<g clip-path="url(#a)">
<defs>
<path id="af" d="m10.984 1.5156v8.9844q3.7188-1.7656 7.5156-2.6875 3.8125-0.92188 7.4844-0.92188 9.7656 0 14.906 6.5625 5.1562 6.5625 5.8906 19.953-2.8281-4.2031-7.1875-6.4531-4.3438-2.25-9.6094-2.25-10.938 0-17.312 6.6094-6.375 6.625-6.375 18.109 0 11.219 6.6406 18 6.6406 6.7969 17.672 6.7969 12.656 0 19.312-9.7031 6.6719-9.6875 6.6719-28.141 0-17.234-8.1875-27.516-8.1719-10.281-21.984-10.281-3.7188 0-7.5312 0.73438-3.7969 0.73438-7.9062 2.2031zm19.625 30.906q6.6406 0 10.516 4.5312 3.8906 4.5469 3.8906 12.469 0 7.8594-3.8906 12.422-3.875 4.5625-10.516 4.5625t-10.516-4.5625-3.875-12.422q0-7.9219 3.875-12.469 3.875-4.5312 10.516-4.5312z"/>
</defs>
<g transform="translate(1380 513.1) scale(.1 -.1)">
<use xlink:href="#c"/>
<use x="63.623047" xlink:href="#e"/>
<use x="95.410156" xlink:href="#c"/>
<use x="159.033203" xlink:href="#af"/>
</g>
</g>
<g clip-path="url(#a)">
<g transform="translate(1481.7 816.2) scale(.1 -.1)">
<use xlink:href="#t"/>
<use x="29.492188" xlink:href="#ao"/>
<use x="115.771484" xlink:href="#s"/>
<use x="176.074219" xlink:href="#z"/>
<use x="231.787109" xlink:href="#t"/>
<use x="261.279297" xlink:href="#y"/>
<use x="331.103516" xlink:href="#t"/>
<use x="360.595703" xlink:href="#k"/>
</g>
</g>
<g clip-path="url(#a)">
<g transform="translate(1268.4 664.65) scale(.1 -.1)">
<use xlink:href="#c"/>
<use x="63.623047" xlink:href="#e"/>
<use x="95.410156" xlink:href="#o"/>
<use x="159.033203" xlink:href="#c"/>
</g>
</g>
<g clip-path="url(#a)">
<g transform="translate(1313.1 664.65) scale(.1 -.1)">
<use xlink:href="#c"/>
<use x="63.623047" xlink:href="#e"/>
<use x="95.410156" xlink:href="#o"/>
<use x="159.033203" xlink:href="#o"/>
</g>
</g>
<g clip-path="url(#a)">
<g transform="translate(1402.4 664.65) scale(.1 -.1)">
<use xlink:href="#c"/>
<use x="63.623047" xlink:href="#e"/>
<use x="95.410156" xlink:href="#o"/>
<use x="159.033203" xlink:href="#m"/>
</g>
</g>
<g clip-path="url(#a)">
<g transform="translate(643.24 664.65) scale(.1 -.1)">
<use xlink:href="#c"/>
<use x="63.623047" xlink:href="#e"/>
<use x="95.410156" xlink:href="#o"/>
<use x="159.033203" xlink:href="#ab"/>
</g>
</g>
<g clip-path="url(#a)">
<g transform="translate(687.9 664.65) scale(.1 -.1)">
<use xlink:href="#c"/>
<use x="63.623047" xlink:href="#e"/>
<use x="95.410156" xlink:href="#o"/>
<use x="159.033203" xlink:href="#aa"/>
</g>
</g>
<g clip-path="url(#a)">
<g transform="translate(766.04 359.45) scale(.1 -.1)">
<use xlink:href="#c"/>
<use x="63.623047" xlink:href="#e"/>
<use x="95.410156" xlink:href="#o"/>
<use x="159.033203" xlink:href="#ag"/>
</g>
</g>
<g clip-path="url(#a)">
<g transform="translate(754.88 513.1) scale(.1 -.1)">
<use xlink:href="#c"/>
<use x="63.623047" xlink:href="#e"/>
<use x="95.410156" xlink:href="#o"/>
<use x="159.033203" xlink:href="#af"/>
</g>
</g>
<g clip-path="url(#a)">
<g transform="translate(777.21 664.65) scale(.1 -.1)">
<use xlink:href="#c"/>
<use x="63.623047" xlink:href="#e"/>
<use x="95.410156" xlink:href="#m"/>
<use x="159.033203" xlink:href="#aj"/>
</g>
</g>
<g clip-path="url(#a)">
<g transform="translate(732.55 664.65) scale(.1 -.1)">
<use xlink:href="#c"/>
<use x="63.623047" xlink:href="#e"/>
<use x="95.410156" xlink:href="#m"/>
<use x="159.033203" xlink:href="#c"/>
</g>
</g>
<g clip-path="url(#a)">
<g transform="translate(107.39 664.65) scale(.1 -.1)">
<use xlink:href="#c"/>
<use x="63.623047" xlink:href="#e"/>
<use x="95.410156" xlink:href="#m"/>
<use x="159.033203" xlink:href="#o"/>
</g>
</g>
<g clip-path="url(#a)">
<g transform="translate(152.04 664.65) scale(.1 -.1)">
<use xlink:href="#c"/>
<use x="63.623047" xlink:href="#e"/>
<use x="95.410156" xlink:href="#m"/>
<use x="159.033203" xlink:href="#m"/>
</g>
</g>
<g clip-path="url(#a)">
<g transform="translate(196.7 664.65) scale(.1 -.1)">
<use xlink:href="#c"/>
<use x="63.623047" xlink:href="#e"/>
<use x="95.410156" xlink:href="#m"/>
<use x="159.033203" xlink:href="#n"/>
</g>
</g>
<g clip-path="url(#a)">
<g transform="translate(336.62 359.45) scale(.1 -.1)">
<use xlink:href="#c"/>
<use x="63.623047" xlink:href="#e"/>
<use x="95.410156" xlink:href="#m"/>
<use x="159.033203" xlink:href="#ai"/>
</g>
</g>
<g clip-path="url(#a)">
<g transform="translate(241.35 664.65) scale(.1 -.1)">
<use xlink:href="#c"/>
<use x="63.623047" xlink:href="#e"/>
<use x="95.410156" xlink:href="#m"/>
<use x="159.033203" xlink:href="#ab"/>
</g>
</g>
<g clip-path="url(#a)">
<g transform="translate(330.66 513.1) scale(.1 -.1)">
<use xlink:href="#c"/>
<use x="63.623047" xlink:href="#e"/>
<use x="95.410156" xlink:href="#m"/>
<use x="159.033203" xlink:href="#aa"/>
</g>
</g>
<g clip-path="url(#a)">
<g transform="translate(437.83 513.1) scale(.1 -.1)">
<use xlink:href="#c"/>
<use x="63.623047" xlink:href="#e"/>
<use x="95.410156" xlink:href="#m"/>
<use x="159.033203" xlink:href="#ag"/>
</g>
</g>
<g clip-path="url(#a)">
<g transform="translate(419.97 664.65) scale(.1 -.1)">
<use xlink:href="#c"/>
<use x="63.623047" xlink:href="#e"/>
<use x="95.410156" xlink:href="#m"/>
<use x="159.033203" xlink:href="#af"/>
</g>
</g>
<g clip-path="url(#a)">
<g transform="translate(464.63 664.65) scale(.1 -.1)">
<use xlink:href="#c"/>
<use x="63.623047" xlink:href="#e"/>
<use x="95.410156" xlink:href="#n"/>
<use x="159.033203" xlink:href="#aj"/>
</g>
</g>
<g clip-path="url(#a)">
<g transform="translate(509.28 664.65) scale(.1 -.1)">
<use xlink:href="#c"/>
<use x="63.623047" xlink:href="#e"/>
<use x="95.410156" xlink:href="#n"/>
<use x="159.033203" xlink:href="#c"/>
</g>
</g>
<g clip-path="url(#a)">
<g transform="translate(553.93 664.65) scale(.1 -.1)">
<use xlink:href="#c"/>
<use x="63.623047" xlink:href="#e"/>
<use x="95.410156" xlink:href="#n"/>
<use x="159.033203" xlink:href="#o"/>
</g>
</g>
<g clip-path="url(#a)">
<g transform="translate(286.01 664.65) scale(.1 -.1)">
<use xlink:href="#c"/>
<use x="63.623047" xlink:href="#e"/>
<use x="95.410156" xlink:href="#n"/>
<use x="159.033203" xlink:href="#m"/>
</g>
</g>
<g clip-path="url(#a)">
<g transform="translate(330.66 664.65) scale(.1 -.1)">
<use xlink:href="#c"/>
<use x="63.623047" xlink:href="#e"/>
<use x="95.410156" xlink:href="#n"/>
<use x="159.033203" xlink:href="#n"/>
</g>
</g>
<g clip-path="url(#a)">
<g transform="translate(375.32 664.65) scale(.1 -.1)">
<use xlink:href="#c"/>
<use x="63.623047" xlink:href="#e"/>
<use x="95.410156" xlink:href="#n"/>
<use x="159.033203" xlink:href="#ai"/>
</g>
</g>
<g clip-path="url(#a)">
<g transform="translate(598.59 664.65) scale(.1 -.1)">
<use xlink:href="#c"/>
<use x="63.623047" xlink:href="#e"/>
<use x="95.410156" xlink:href="#n"/>
<use x="159.033203" xlink:href="#ab"/>
</g>
</g>
<g clip-path="url(#a)">
<g transform="translate(821.86 664.65) scale(.1 -.1)">
<use xlink:href="#c"/>
<use x="63.623047" xlink:href="#e"/>
<use x="95.410156" xlink:href="#n"/>
<use x="159.033203" xlink:href="#aa"/>
</g>
</g>
<g clip-path="url(#a)">
<g transform="translate(1357.7 664.65) scale(.1 -.1)">
<use xlink:href="#c"/>
<use x="63.623047" xlink:href="#e"/>
<use x="95.410156" xlink:href="#n"/>
<use x="159.033203" xlink:href="#ag"/>
</g>
</g>
<g clip-path="url(#a)">
<g transform="translate(1447 664.65) scale(.1 -.1)">
<use xlink:href="#c"/>
<use x="63.623047" xlink:href="#e"/>
<use x="95.410156" xlink:href="#n"/>
<use x="159.033203" xlink:href="#af"/>
</g>
</g>
<defs>
<clipPath id="a">
<rect width="1621.3" height="853.33"/>
</clipPath>
</defs>
</svg>
